M48
; DRILL file {KiCad 5.1.6-c6e7f7d~87~ubuntu19.10.1} date Sun Jul  4 18:41:41 2021
; FORMAT={-:-/ absolute / metric / decimal}
; #@! TF.CreationDate,2021-07-04T18:41:41+06:00
; #@! TF.GenerationSoftware,Kicad,Pcbnew,5.1.6-c6e7f7d~87~ubuntu19.10.1
FMAT,2
METRIC
T1C0.600
T2C0.700
T3C0.900
T4C1.000
T5C1.300
T6C1.500
T7C1.700
%
G90
G05
T1
X93.98Y-130.81
X128.27Y-107.95
X128.27Y-113.03
X111.76Y-113.03
X116.84Y-113.03
X86.36Y-135.89
X91.44Y-135.89
X123.19Y-130.81
X123.19Y-135.89
X83.82Y-114.3
X93.98Y-114.3
X115.57Y-162.56
X120.65Y-162.56
X83.82Y-116.84
X93.98Y-116.84
X88.9Y-97.79
X93.98Y-97.79
X118.11Y-130.81
X118.11Y-135.89
X97.79Y-125.73
X97.79Y-130.81
X97.79Y-96.52
X97.79Y-101.6
X93.98Y-125.73
T2
X105.41Y-139.7
X105.41Y-142.24
X104.14Y-133.35
X114.3Y-133.35
X104.14Y-130.81
X114.3Y-130.81
X124.46Y-102.87
X124.46Y-113.03
X121.92Y-102.87
X121.92Y-113.03
X93.98Y-135.89
X104.14Y-135.89
X99.06Y-118.11
X109.22Y-118.11
X99.06Y-113.03
X109.22Y-113.03
T3
X119.38Y-102.87
X119.38Y-110.49
T4
X120.65Y-167.64
X83.82Y-119.38
X86.36Y-119.38
X88.9Y-119.38
X91.44Y-119.38
X93.98Y-119.38
X97.79Y-107.95
X116.84Y-119.38
X119.38Y-119.38
X121.92Y-119.38
X124.46Y-119.38
X127.0Y-119.38
X124.46Y-162.56
X101.6Y-120.65
X101.6Y-123.19
X101.6Y-125.73
X101.6Y-128.27
X109.22Y-120.65
X109.22Y-123.19
X109.22Y-125.73
X109.22Y-128.27
T5
X100.41Y-163.64
X100.41Y-167.64
X100.41Y-171.64
X105.41Y-163.64
X105.41Y-167.64
X105.41Y-171.64
X110.41Y-163.64
X110.41Y-167.64
X110.41Y-171.64
T6
X82.74Y-141.61
X82.74Y-158.11
X95.44Y-141.61
X95.44Y-158.11
X115.38Y-141.61
X115.38Y-158.11
X121.73Y-141.61
X121.73Y-158.11
X128.08Y-141.61
X128.08Y-158.11
T7
X102.11Y-107.94
X105.41Y-102.34
X108.71Y-107.94
T0
M30
