G04 #@! TF.GenerationSoftware,KiCad,Pcbnew,5.1.6-c6e7f7d~87~ubuntu19.10.1*
G04 #@! TF.CreationDate,2021-07-04T18:41:33+06:00*
G04 #@! TF.ProjectId,distortion_+_r2a,64697374-6f72-4746-996f-6e5f2b5f7232,2A*
G04 #@! TF.SameCoordinates,Original*
G04 #@! TF.FileFunction,Copper,L2,Bot*
G04 #@! TF.FilePolarity,Positive*
%FSLAX46Y46*%
G04 Gerber Fmt 4.6, Leading zero omitted, Abs format (unit mm)*
G04 Created by KiCad (PCBNEW 5.1.6-c6e7f7d~87~ubuntu19.10.1) date 2021-07-04 18:41:33*
%MOMM*%
%LPD*%
G01*
G04 APERTURE LIST*
G04 #@! TA.AperFunction,ComponentPad*
%ADD10R,2.000000X2.000000*%
G04 #@! TD*
G04 #@! TA.AperFunction,ComponentPad*
%ADD11C,2.000000*%
G04 #@! TD*
G04 #@! TA.AperFunction,ComponentPad*
%ADD12R,3.500000X3.500000*%
G04 #@! TD*
G04 #@! TA.AperFunction,ComponentPad*
%ADD13R,3.000000X3.000000*%
G04 #@! TD*
G04 #@! TA.AperFunction,Conductor*
%ADD14C,1.000000*%
G04 #@! TD*
G04 #@! TA.AperFunction,Conductor*
%ADD15C,0.500000*%
G04 #@! TD*
G04 APERTURE END LIST*
D10*
X127000000Y-119380000D03*
X124460000Y-119380000D03*
X121920000Y-119380000D03*
X119380000Y-119380000D03*
X116840000Y-119380000D03*
X93980000Y-119380000D03*
X91440000Y-119380000D03*
X88900000Y-119380000D03*
X86360000Y-119380000D03*
X83820000Y-119380000D03*
D11*
X119380000Y-110490000D03*
D10*
X119380000Y-102870000D03*
X120650000Y-167640000D03*
D11*
X93980000Y-116840000D03*
D10*
X83820000Y-116840000D03*
D11*
X83820000Y-114300000D03*
D10*
X93980000Y-114300000D03*
X104140000Y-135890000D03*
X93980000Y-135890000D03*
X99060000Y-118110000D03*
X109220000Y-118110000D03*
X104140000Y-133350000D03*
X114300000Y-133350000D03*
X109220000Y-113030000D03*
X99060000Y-113030000D03*
X114300000Y-130810000D03*
X104140000Y-130810000D03*
X109220000Y-120650000D03*
X109220000Y-123190000D03*
X109220000Y-125730000D03*
X109220000Y-128270000D03*
X101600000Y-128270000D03*
X101600000Y-125730000D03*
X101600000Y-123190000D03*
D11*
X101600000Y-120650000D03*
D10*
X97790000Y-125730000D03*
X97790000Y-130810000D03*
X93980000Y-130810000D03*
X93980000Y-125730000D03*
X116840000Y-113030000D03*
X111760000Y-113030000D03*
X118110000Y-135890000D03*
X118110000Y-130810000D03*
X123190000Y-135890000D03*
X123190000Y-130810000D03*
X124460000Y-102870000D03*
X124460000Y-113030000D03*
X121920000Y-113030000D03*
X121920000Y-102870000D03*
X120650000Y-162560000D03*
X115570000Y-162560000D03*
X128270000Y-113030000D03*
X128270000Y-107950000D03*
X97790000Y-101600000D03*
X97790000Y-96520000D03*
D11*
X93980000Y-97790000D03*
D10*
X88900000Y-97790000D03*
D12*
X105410000Y-102340000D03*
X102110000Y-107940000D03*
X108710000Y-107940000D03*
D13*
X82740000Y-158110000D03*
X95440000Y-158110000D03*
X82740000Y-141610000D03*
X95440000Y-141610000D03*
X128080000Y-141610000D03*
X121730000Y-141610000D03*
X115380000Y-141610000D03*
X128080000Y-158110000D03*
X121730000Y-158110000D03*
X115380000Y-158110000D03*
D10*
X124460000Y-162560000D03*
X86360000Y-135890000D03*
X91440000Y-135890000D03*
D11*
X105410000Y-139700000D03*
D10*
X105410000Y-142240000D03*
X97790000Y-107950000D03*
D13*
X110410000Y-167640000D03*
X110410000Y-171640000D03*
X110410000Y-163640000D03*
X105410000Y-167640000D03*
X105410000Y-171640000D03*
X105410000Y-163640000D03*
X100410000Y-163640000D03*
X100410000Y-167640000D03*
X100410000Y-171640000D03*
D14*
X99060000Y-139700000D02*
X105410000Y-139700000D01*
X97790000Y-138430000D02*
X99060000Y-139700000D01*
X91440000Y-137160000D02*
X92710000Y-138430000D01*
X92710000Y-138430000D02*
X97790000Y-138430000D01*
X91440000Y-135890000D02*
X91440000Y-137160000D01*
X105410000Y-163640000D02*
X105410000Y-142240000D01*
X110410000Y-174140000D02*
X110410000Y-171640000D01*
X109925000Y-174625000D02*
X110410000Y-174140000D01*
X100895000Y-174625000D02*
X109925000Y-174625000D01*
X100410000Y-174140000D02*
X100895000Y-174625000D01*
X100410000Y-171640000D02*
X100410000Y-174140000D01*
X113570000Y-162560000D02*
X115570000Y-162560000D01*
X110410000Y-163640000D02*
X112490000Y-163640000D01*
X112490000Y-163640000D02*
X113570000Y-162560000D01*
X111760000Y-139700000D02*
X115570000Y-135890000D01*
X111760000Y-156210000D02*
X111760000Y-139700000D01*
X110410000Y-163640000D02*
X110410000Y-157560000D01*
X110410000Y-157560000D02*
X111760000Y-156210000D01*
X115570000Y-135890000D02*
X118110000Y-135890000D01*
X118110000Y-135890000D02*
X123190000Y-135890000D01*
X114300000Y-167640000D02*
X111680000Y-167640000D01*
X118110000Y-163830000D02*
X114300000Y-167640000D01*
X118110000Y-156210000D02*
X118110000Y-163830000D01*
X115380000Y-141610000D02*
X115380000Y-153480000D01*
X115380000Y-153480000D02*
X118110000Y-156210000D01*
X100410000Y-157560000D02*
X100410000Y-163640000D01*
X88900000Y-119380000D02*
X88900000Y-146050000D01*
X88900000Y-146050000D02*
X100410000Y-157560000D01*
X100410000Y-167640000D02*
X97790000Y-167640000D01*
X95440000Y-165290000D02*
X97790000Y-167640000D01*
X95440000Y-158110000D02*
X95440000Y-165290000D01*
X97790000Y-107950000D02*
X102110000Y-107950000D01*
X121730000Y-153480000D02*
X121730000Y-141610000D01*
X124460000Y-162560000D02*
X124460000Y-156210000D01*
X124460000Y-156210000D02*
X121730000Y-153480000D01*
X114300000Y-130810000D02*
X118110000Y-130810000D01*
X116840000Y-113030000D02*
X116840000Y-119380000D01*
X116840000Y-119380000D02*
X119380000Y-119380000D01*
X119380000Y-119380000D02*
X121920000Y-119380000D01*
X109220000Y-113030000D02*
X111760000Y-113030000D01*
X93980000Y-130810000D02*
X93980000Y-135890000D01*
X93980000Y-114300000D02*
X93980000Y-116840000D01*
X93980000Y-116840000D02*
X93980000Y-119380000D01*
X93980000Y-125730000D02*
X97790000Y-125730000D01*
X93980000Y-119380000D02*
X93980000Y-125730000D01*
X109220000Y-125730000D02*
X106680000Y-125730000D01*
X106680000Y-125730000D02*
X106680000Y-134620000D01*
X105410000Y-135890000D02*
X106680000Y-134620000D01*
X104140000Y-135890000D02*
X105410000Y-135890000D01*
X106680000Y-119380000D02*
X107950000Y-118110000D01*
X109220000Y-118110000D02*
X107950000Y-118110000D01*
X106680000Y-119380000D02*
X106680000Y-125730000D01*
X104140000Y-130810000D02*
X104140000Y-133350000D01*
X102870000Y-125730000D02*
X104140000Y-127000000D01*
X104140000Y-127000000D02*
X104140000Y-130810000D01*
X101600000Y-125730000D02*
X102870000Y-125730000D01*
X99060000Y-113030000D02*
X99060000Y-118110000D01*
X99060000Y-118110000D02*
X99060000Y-121920000D01*
X99060000Y-121920000D02*
X100330000Y-123190000D01*
X100330000Y-123190000D02*
X101600000Y-123190000D01*
X97790000Y-101600000D02*
X100330000Y-101600000D01*
X101070000Y-102340000D02*
X100330000Y-101600000D01*
X105410000Y-102340000D02*
X101070000Y-102340000D01*
X93980000Y-97790000D02*
X95250000Y-97790000D01*
X95250000Y-97790000D02*
X97790000Y-100330000D01*
X97790000Y-100330000D02*
X97790000Y-101600000D01*
X109220000Y-123190000D02*
X111760000Y-123190000D01*
X105410000Y-113030000D02*
X105410000Y-102340000D01*
X107950000Y-115570000D02*
X105410000Y-113030000D01*
X110490000Y-115570000D02*
X111760000Y-116840000D01*
X111760000Y-123190000D02*
X111760000Y-116840000D01*
X110490000Y-115570000D02*
X107950000Y-115570000D01*
X107950000Y-139700000D02*
X107950000Y-167640000D01*
X107950000Y-167640000D02*
X105410000Y-167640000D01*
X111760000Y-123190000D02*
X111760000Y-135890000D01*
X111760000Y-135890000D02*
X107950000Y-139700000D01*
X105410000Y-102340000D02*
X107420000Y-102340000D01*
X107420000Y-102340000D02*
X107950000Y-102870000D01*
X107950000Y-102870000D02*
X119380000Y-102870000D01*
X119380000Y-102870000D02*
X121920000Y-102870000D01*
X124460000Y-113030000D02*
X124460000Y-119380000D01*
X124460000Y-113030000D02*
X128270000Y-113030000D01*
X124460000Y-121920000D02*
X120650000Y-125730000D01*
X124460000Y-119380000D02*
X124460000Y-121920000D01*
X120650000Y-132080000D02*
X120650000Y-125730000D01*
X114300000Y-133350000D02*
X119380000Y-133350000D01*
X119380000Y-133350000D02*
X120650000Y-132080000D01*
X121920000Y-113030000D02*
X124460000Y-113030000D01*
D15*
G36*
X96079831Y-95045480D02*
G01*
X96000902Y-95193145D01*
X95952299Y-95353371D01*
X95935887Y-95520000D01*
X95940000Y-96257500D01*
X96152500Y-96470000D01*
X97740000Y-96470000D01*
X97740000Y-96450000D01*
X97840000Y-96450000D01*
X97840000Y-96470000D01*
X99427500Y-96470000D01*
X99640000Y-96257500D01*
X99644113Y-95520000D01*
X99627701Y-95353371D01*
X99579098Y-95193145D01*
X99500169Y-95045480D01*
X99487465Y-95030000D01*
X121485077Y-95030000D01*
X133570000Y-107114925D01*
X133570001Y-176750000D01*
X77250000Y-176750000D01*
X77250000Y-159610000D01*
X80385887Y-159610000D01*
X80402299Y-159776629D01*
X80450902Y-159936855D01*
X80529831Y-160084520D01*
X80636051Y-160213949D01*
X80765480Y-160320169D01*
X80913145Y-160399098D01*
X81073371Y-160447701D01*
X81240000Y-160464113D01*
X82477500Y-160460000D01*
X82690000Y-160247500D01*
X82690000Y-158160000D01*
X82790000Y-158160000D01*
X82790000Y-160247500D01*
X83002500Y-160460000D01*
X84240000Y-160464113D01*
X84406629Y-160447701D01*
X84566855Y-160399098D01*
X84714520Y-160320169D01*
X84843949Y-160213949D01*
X84950169Y-160084520D01*
X85029098Y-159936855D01*
X85077701Y-159776629D01*
X85094113Y-159610000D01*
X85090000Y-158372500D01*
X84877500Y-158160000D01*
X82790000Y-158160000D01*
X82690000Y-158160000D01*
X80602500Y-158160000D01*
X80390000Y-158372500D01*
X80385887Y-159610000D01*
X77250000Y-159610000D01*
X77250000Y-156610000D01*
X80385887Y-156610000D01*
X80390000Y-157847500D01*
X80602500Y-158060000D01*
X82690000Y-158060000D01*
X82690000Y-155972500D01*
X82790000Y-155972500D01*
X82790000Y-158060000D01*
X84877500Y-158060000D01*
X85090000Y-157847500D01*
X85094113Y-156610000D01*
X85077701Y-156443371D01*
X85029098Y-156283145D01*
X84950169Y-156135480D01*
X84843949Y-156006051D01*
X84714520Y-155899831D01*
X84566855Y-155820902D01*
X84406629Y-155772299D01*
X84240000Y-155755887D01*
X83002500Y-155760000D01*
X82790000Y-155972500D01*
X82690000Y-155972500D01*
X82477500Y-155760000D01*
X81240000Y-155755887D01*
X81073371Y-155772299D01*
X80913145Y-155820902D01*
X80765480Y-155899831D01*
X80636051Y-156006051D01*
X80529831Y-156135480D01*
X80450902Y-156283145D01*
X80402299Y-156443371D01*
X80385887Y-156610000D01*
X77250000Y-156610000D01*
X77250000Y-140110000D01*
X80385888Y-140110000D01*
X80385888Y-143110000D01*
X80402300Y-143276629D01*
X80450903Y-143436855D01*
X80529832Y-143584519D01*
X80636052Y-143713948D01*
X80765481Y-143820168D01*
X80913145Y-143899097D01*
X81073371Y-143947700D01*
X81240000Y-143964112D01*
X84240000Y-143964112D01*
X84406629Y-143947700D01*
X84566855Y-143899097D01*
X84714519Y-143820168D01*
X84843948Y-143713948D01*
X84950168Y-143584519D01*
X85029097Y-143436855D01*
X85077700Y-143276629D01*
X85094112Y-143110000D01*
X85094112Y-140110000D01*
X85077700Y-139943371D01*
X85029097Y-139783145D01*
X84950168Y-139635481D01*
X84843948Y-139506052D01*
X84714519Y-139399832D01*
X84566855Y-139320903D01*
X84406629Y-139272300D01*
X84240000Y-139255888D01*
X81240000Y-139255888D01*
X81073371Y-139272300D01*
X80913145Y-139320903D01*
X80765481Y-139399832D01*
X80636052Y-139506052D01*
X80529832Y-139635481D01*
X80450903Y-139783145D01*
X80402300Y-139943371D01*
X80385888Y-140110000D01*
X77250000Y-140110000D01*
X77250000Y-136890000D01*
X84505887Y-136890000D01*
X84522299Y-137056629D01*
X84570902Y-137216855D01*
X84649831Y-137364520D01*
X84756051Y-137493949D01*
X84885480Y-137600169D01*
X85033145Y-137679098D01*
X85193371Y-137727701D01*
X85360000Y-137744113D01*
X86097500Y-137740000D01*
X86310000Y-137527500D01*
X86310000Y-135940000D01*
X84722500Y-135940000D01*
X84510000Y-136152500D01*
X84505887Y-136890000D01*
X77250000Y-136890000D01*
X77250000Y-134890000D01*
X84505887Y-134890000D01*
X84510000Y-135627500D01*
X84722500Y-135840000D01*
X86310000Y-135840000D01*
X86310000Y-134252500D01*
X86097500Y-134040000D01*
X85360000Y-134035887D01*
X85193371Y-134052299D01*
X85033145Y-134100902D01*
X84885480Y-134179831D01*
X84756051Y-134286051D01*
X84649831Y-134415480D01*
X84570902Y-134563145D01*
X84522299Y-134723371D01*
X84505887Y-134890000D01*
X77250000Y-134890000D01*
X77250000Y-120380000D01*
X81965887Y-120380000D01*
X81982299Y-120546629D01*
X82030902Y-120706855D01*
X82109831Y-120854520D01*
X82216051Y-120983949D01*
X82345480Y-121090169D01*
X82493145Y-121169098D01*
X82653371Y-121217701D01*
X82820000Y-121234113D01*
X83557500Y-121230000D01*
X83770000Y-121017500D01*
X83770000Y-119430000D01*
X82182500Y-119430000D01*
X81970000Y-119642500D01*
X81965887Y-120380000D01*
X77250000Y-120380000D01*
X77250000Y-117840000D01*
X81965887Y-117840000D01*
X81982299Y-118006629D01*
X82013656Y-118110000D01*
X81982299Y-118213371D01*
X81965887Y-118380000D01*
X81970000Y-119117500D01*
X82182500Y-119330000D01*
X83770000Y-119330000D01*
X83770000Y-116890000D01*
X83870000Y-116890000D01*
X83870000Y-119330000D01*
X83890000Y-119330000D01*
X83890000Y-119430000D01*
X83870000Y-119430000D01*
X83870000Y-121017500D01*
X84082500Y-121230000D01*
X84820000Y-121234113D01*
X84986629Y-121217701D01*
X85090002Y-121186344D01*
X85193371Y-121217700D01*
X85360000Y-121234112D01*
X87360000Y-121234112D01*
X87526629Y-121217700D01*
X87550000Y-121210611D01*
X87550001Y-134059389D01*
X87526629Y-134052299D01*
X87360000Y-134035887D01*
X86622500Y-134040000D01*
X86410000Y-134252500D01*
X86410000Y-135840000D01*
X86430000Y-135840000D01*
X86430000Y-135940000D01*
X86410000Y-135940000D01*
X86410000Y-137527500D01*
X86622500Y-137740000D01*
X87360000Y-137744113D01*
X87526629Y-137727701D01*
X87550001Y-137720611D01*
X87550001Y-145983671D01*
X87543468Y-146050000D01*
X87569534Y-146314646D01*
X87646729Y-146569122D01*
X87772085Y-146803649D01*
X87898510Y-146957698D01*
X87898514Y-146957702D01*
X87940788Y-147009213D01*
X87992299Y-147051487D01*
X96696699Y-155755888D01*
X93940000Y-155755888D01*
X93773371Y-155772300D01*
X93613145Y-155820903D01*
X93465481Y-155899832D01*
X93336052Y-156006052D01*
X93229832Y-156135481D01*
X93150903Y-156283145D01*
X93102300Y-156443371D01*
X93085888Y-156610000D01*
X93085888Y-159610000D01*
X93102300Y-159776629D01*
X93150903Y-159936855D01*
X93229832Y-160084519D01*
X93336052Y-160213948D01*
X93465481Y-160320168D01*
X93613145Y-160399097D01*
X93773371Y-160447700D01*
X93940000Y-160464112D01*
X94090000Y-160464112D01*
X94090001Y-165223671D01*
X94083468Y-165290000D01*
X94109534Y-165554646D01*
X94186729Y-165809122D01*
X94312085Y-166043649D01*
X94438510Y-166197698D01*
X94438514Y-166197702D01*
X94480788Y-166249213D01*
X94532299Y-166291487D01*
X96788513Y-168547702D01*
X96830787Y-168599213D01*
X96882298Y-168641487D01*
X96882301Y-168641490D01*
X97036350Y-168767915D01*
X97108780Y-168806629D01*
X97270878Y-168893272D01*
X97525354Y-168970467D01*
X97723679Y-168990000D01*
X97723681Y-168990000D01*
X97790000Y-168996532D01*
X97856319Y-168990000D01*
X98055888Y-168990000D01*
X98055888Y-169140000D01*
X98072300Y-169306629D01*
X98120903Y-169466855D01*
X98199832Y-169614519D01*
X98220744Y-169640000D01*
X98199832Y-169665481D01*
X98120903Y-169813145D01*
X98072300Y-169973371D01*
X98055888Y-170140000D01*
X98055888Y-173140000D01*
X98072300Y-173306629D01*
X98120903Y-173466855D01*
X98199832Y-173614519D01*
X98306052Y-173743948D01*
X98435481Y-173850168D01*
X98583145Y-173929097D01*
X98743371Y-173977700D01*
X98910000Y-173994112D01*
X99060001Y-173994112D01*
X99060001Y-174073671D01*
X99053468Y-174140000D01*
X99079534Y-174404646D01*
X99156729Y-174659122D01*
X99282085Y-174893649D01*
X99408510Y-175047698D01*
X99408514Y-175047702D01*
X99450788Y-175099213D01*
X99502300Y-175141488D01*
X99893505Y-175532692D01*
X99935787Y-175584213D01*
X100141351Y-175752915D01*
X100375878Y-175878272D01*
X100630354Y-175955467D01*
X100828679Y-175975000D01*
X100828681Y-175975000D01*
X100895000Y-175981532D01*
X100961319Y-175975000D01*
X109858681Y-175975000D01*
X109925000Y-175981532D01*
X109991319Y-175975000D01*
X109991321Y-175975000D01*
X110189646Y-175955467D01*
X110444122Y-175878272D01*
X110678649Y-175752915D01*
X110884213Y-175584213D01*
X110926492Y-175532696D01*
X111317696Y-175141491D01*
X111369212Y-175099213D01*
X111537915Y-174893649D01*
X111663272Y-174659122D01*
X111740467Y-174404646D01*
X111760000Y-174206321D01*
X111760000Y-174206319D01*
X111766532Y-174140000D01*
X111760000Y-174073681D01*
X111760000Y-173994112D01*
X111910000Y-173994112D01*
X112076629Y-173977700D01*
X112236855Y-173929097D01*
X112384519Y-173850168D01*
X112513948Y-173743948D01*
X112620168Y-173614519D01*
X112699097Y-173466855D01*
X112747700Y-173306629D01*
X112764112Y-173140000D01*
X112764112Y-170140000D01*
X112747700Y-169973371D01*
X112699097Y-169813145D01*
X112620168Y-169665481D01*
X112599256Y-169640000D01*
X112620168Y-169614519D01*
X112699097Y-169466855D01*
X112747700Y-169306629D01*
X112764112Y-169140000D01*
X112764112Y-168990000D01*
X114233681Y-168990000D01*
X114300000Y-168996532D01*
X114366319Y-168990000D01*
X114366321Y-168990000D01*
X114564646Y-168970467D01*
X114819122Y-168893272D01*
X115053649Y-168767915D01*
X115209513Y-168640000D01*
X118795887Y-168640000D01*
X118812299Y-168806629D01*
X118860902Y-168966855D01*
X118939831Y-169114520D01*
X119046051Y-169243949D01*
X119175480Y-169350169D01*
X119323145Y-169429098D01*
X119483371Y-169477701D01*
X119650000Y-169494113D01*
X120387500Y-169490000D01*
X120600000Y-169277500D01*
X120600000Y-167690000D01*
X120700000Y-167690000D01*
X120700000Y-169277500D01*
X120912500Y-169490000D01*
X121650000Y-169494113D01*
X121816629Y-169477701D01*
X121976855Y-169429098D01*
X122124520Y-169350169D01*
X122253949Y-169243949D01*
X122360169Y-169114520D01*
X122439098Y-168966855D01*
X122487701Y-168806629D01*
X122504113Y-168640000D01*
X122500000Y-167902500D01*
X122287500Y-167690000D01*
X120700000Y-167690000D01*
X120600000Y-167690000D01*
X119012500Y-167690000D01*
X118800000Y-167902500D01*
X118795887Y-168640000D01*
X115209513Y-168640000D01*
X115259213Y-168599213D01*
X115301491Y-168547697D01*
X117209188Y-166640000D01*
X118795887Y-166640000D01*
X118800000Y-167377500D01*
X119012500Y-167590000D01*
X120600000Y-167590000D01*
X120600000Y-166002500D01*
X120700000Y-166002500D01*
X120700000Y-167590000D01*
X122287500Y-167590000D01*
X122500000Y-167377500D01*
X122504113Y-166640000D01*
X122487701Y-166473371D01*
X122439098Y-166313145D01*
X122360169Y-166165480D01*
X122253949Y-166036051D01*
X122124520Y-165929831D01*
X121976855Y-165850902D01*
X121816629Y-165802299D01*
X121650000Y-165785887D01*
X120912500Y-165790000D01*
X120700000Y-166002500D01*
X120600000Y-166002500D01*
X120387500Y-165790000D01*
X119650000Y-165785887D01*
X119483371Y-165802299D01*
X119323145Y-165850902D01*
X119175480Y-165929831D01*
X119046051Y-166036051D01*
X118939831Y-166165480D01*
X118860902Y-166313145D01*
X118812299Y-166473371D01*
X118795887Y-166640000D01*
X117209188Y-166640000D01*
X119017697Y-164831491D01*
X119069213Y-164789213D01*
X119142275Y-164700187D01*
X119237915Y-164583650D01*
X119357685Y-164359575D01*
X119483371Y-164397701D01*
X119650000Y-164414113D01*
X120387500Y-164410000D01*
X120600000Y-164197500D01*
X120600000Y-162610000D01*
X120700000Y-162610000D01*
X120700000Y-164197500D01*
X120912500Y-164410000D01*
X121650000Y-164414113D01*
X121816629Y-164397701D01*
X121976855Y-164349098D01*
X122124520Y-164270169D01*
X122253949Y-164163949D01*
X122360169Y-164034520D01*
X122439098Y-163886855D01*
X122487701Y-163726629D01*
X122504113Y-163560000D01*
X122500000Y-162822500D01*
X122287500Y-162610000D01*
X120700000Y-162610000D01*
X120600000Y-162610000D01*
X120580000Y-162610000D01*
X120580000Y-162510000D01*
X120600000Y-162510000D01*
X120600000Y-160922500D01*
X120700000Y-160922500D01*
X120700000Y-162510000D01*
X122287500Y-162510000D01*
X122500000Y-162297500D01*
X122504113Y-161560000D01*
X122487701Y-161393371D01*
X122439098Y-161233145D01*
X122360169Y-161085480D01*
X122253949Y-160956051D01*
X122124520Y-160849831D01*
X121976855Y-160770902D01*
X121816629Y-160722299D01*
X121650000Y-160705887D01*
X120912500Y-160710000D01*
X120700000Y-160922500D01*
X120600000Y-160922500D01*
X120387500Y-160710000D01*
X119650000Y-160705887D01*
X119483371Y-160722299D01*
X119460000Y-160729388D01*
X119460000Y-159972583D01*
X119519832Y-160084519D01*
X119626052Y-160213948D01*
X119755481Y-160320168D01*
X119903145Y-160399097D01*
X120063371Y-160447700D01*
X120230000Y-160464112D01*
X123110000Y-160464112D01*
X123110000Y-160783274D01*
X122985481Y-160849832D01*
X122856052Y-160956052D01*
X122749832Y-161085481D01*
X122670903Y-161233145D01*
X122622300Y-161393371D01*
X122605888Y-161560000D01*
X122605888Y-163560000D01*
X122622300Y-163726629D01*
X122670903Y-163886855D01*
X122749832Y-164034519D01*
X122856052Y-164163948D01*
X122985481Y-164270168D01*
X123133145Y-164349097D01*
X123293371Y-164397700D01*
X123460000Y-164414112D01*
X125460000Y-164414112D01*
X125626629Y-164397700D01*
X125786855Y-164349097D01*
X125934519Y-164270168D01*
X126063948Y-164163948D01*
X126170168Y-164034519D01*
X126249097Y-163886855D01*
X126297700Y-163726629D01*
X126314112Y-163560000D01*
X126314112Y-161560000D01*
X126297700Y-161393371D01*
X126249097Y-161233145D01*
X126170168Y-161085481D01*
X126063948Y-160956052D01*
X125934519Y-160849832D01*
X125810000Y-160783274D01*
X125810000Y-159972583D01*
X125869832Y-160084519D01*
X125976052Y-160213948D01*
X126105481Y-160320168D01*
X126253145Y-160399097D01*
X126413371Y-160447700D01*
X126580000Y-160464112D01*
X129580000Y-160464112D01*
X129746629Y-160447700D01*
X129906855Y-160399097D01*
X130054519Y-160320168D01*
X130183948Y-160213948D01*
X130290168Y-160084519D01*
X130369097Y-159936855D01*
X130417700Y-159776629D01*
X130434112Y-159610000D01*
X130434112Y-156610000D01*
X130417700Y-156443371D01*
X130369097Y-156283145D01*
X130290168Y-156135481D01*
X130183948Y-156006052D01*
X130054519Y-155899832D01*
X129906855Y-155820903D01*
X129746629Y-155772300D01*
X129580000Y-155755888D01*
X126580000Y-155755888D01*
X126413371Y-155772300D01*
X126253145Y-155820903D01*
X126105481Y-155899832D01*
X125976052Y-156006052D01*
X125869832Y-156135481D01*
X125813490Y-156240889D01*
X125816532Y-156209999D01*
X125810000Y-156143679D01*
X125790467Y-155945354D01*
X125713272Y-155690878D01*
X125587916Y-155456352D01*
X125587915Y-155456350D01*
X125461490Y-155302301D01*
X125461487Y-155302298D01*
X125419213Y-155250787D01*
X125367700Y-155208511D01*
X123080000Y-152920812D01*
X123080000Y-143964112D01*
X123230000Y-143964112D01*
X123396629Y-143947700D01*
X123556855Y-143899097D01*
X123704519Y-143820168D01*
X123833948Y-143713948D01*
X123940168Y-143584519D01*
X124019097Y-143436855D01*
X124067700Y-143276629D01*
X124084112Y-143110000D01*
X125725887Y-143110000D01*
X125742299Y-143276629D01*
X125790902Y-143436855D01*
X125869831Y-143584520D01*
X125976051Y-143713949D01*
X126105480Y-143820169D01*
X126253145Y-143899098D01*
X126413371Y-143947701D01*
X126580000Y-143964113D01*
X127817500Y-143960000D01*
X128030000Y-143747500D01*
X128030000Y-141660000D01*
X128130000Y-141660000D01*
X128130000Y-143747500D01*
X128342500Y-143960000D01*
X129580000Y-143964113D01*
X129746629Y-143947701D01*
X129906855Y-143899098D01*
X130054520Y-143820169D01*
X130183949Y-143713949D01*
X130290169Y-143584520D01*
X130369098Y-143436855D01*
X130417701Y-143276629D01*
X130434113Y-143110000D01*
X130430000Y-141872500D01*
X130217500Y-141660000D01*
X128130000Y-141660000D01*
X128030000Y-141660000D01*
X125942500Y-141660000D01*
X125730000Y-141872500D01*
X125725887Y-143110000D01*
X124084112Y-143110000D01*
X124084112Y-140110000D01*
X125725887Y-140110000D01*
X125730000Y-141347500D01*
X125942500Y-141560000D01*
X128030000Y-141560000D01*
X128030000Y-139472500D01*
X128130000Y-139472500D01*
X128130000Y-141560000D01*
X130217500Y-141560000D01*
X130430000Y-141347500D01*
X130434113Y-140110000D01*
X130417701Y-139943371D01*
X130369098Y-139783145D01*
X130290169Y-139635480D01*
X130183949Y-139506051D01*
X130054520Y-139399831D01*
X129906855Y-139320902D01*
X129746629Y-139272299D01*
X129580000Y-139255887D01*
X128342500Y-139260000D01*
X128130000Y-139472500D01*
X128030000Y-139472500D01*
X127817500Y-139260000D01*
X126580000Y-139255887D01*
X126413371Y-139272299D01*
X126253145Y-139320902D01*
X126105480Y-139399831D01*
X125976051Y-139506051D01*
X125869831Y-139635480D01*
X125790902Y-139783145D01*
X125742299Y-139943371D01*
X125725887Y-140110000D01*
X124084112Y-140110000D01*
X124067700Y-139943371D01*
X124019097Y-139783145D01*
X123940168Y-139635481D01*
X123833948Y-139506052D01*
X123704519Y-139399832D01*
X123556855Y-139320903D01*
X123396629Y-139272300D01*
X123230000Y-139255888D01*
X120230000Y-139255888D01*
X120063371Y-139272300D01*
X119903145Y-139320903D01*
X119755481Y-139399832D01*
X119626052Y-139506052D01*
X119519832Y-139635481D01*
X119440903Y-139783145D01*
X119392300Y-139943371D01*
X119375888Y-140110000D01*
X119375888Y-143110000D01*
X119392300Y-143276629D01*
X119440903Y-143436855D01*
X119519832Y-143584519D01*
X119626052Y-143713948D01*
X119755481Y-143820168D01*
X119903145Y-143899097D01*
X120063371Y-143947700D01*
X120230000Y-143964112D01*
X120380001Y-143964112D01*
X120380000Y-153413681D01*
X120373468Y-153480000D01*
X120380000Y-153546319D01*
X120380000Y-153546320D01*
X120399533Y-153744645D01*
X120476728Y-153999121D01*
X120476729Y-153999122D01*
X120602085Y-154233649D01*
X120728510Y-154387698D01*
X120728513Y-154387701D01*
X120770787Y-154439212D01*
X120822299Y-154481487D01*
X122096700Y-155755888D01*
X120230000Y-155755888D01*
X120063371Y-155772300D01*
X119903145Y-155820903D01*
X119755481Y-155899832D01*
X119626052Y-156006052D01*
X119519832Y-156135481D01*
X119463490Y-156240889D01*
X119466532Y-156209999D01*
X119460000Y-156143679D01*
X119440467Y-155945354D01*
X119363272Y-155690878D01*
X119237916Y-155456352D01*
X119237915Y-155456350D01*
X119111490Y-155302301D01*
X119111483Y-155302294D01*
X119069212Y-155250787D01*
X119017706Y-155208518D01*
X116730000Y-152920812D01*
X116730000Y-143964112D01*
X116880000Y-143964112D01*
X117046629Y-143947700D01*
X117206855Y-143899097D01*
X117354519Y-143820168D01*
X117483948Y-143713948D01*
X117590168Y-143584519D01*
X117669097Y-143436855D01*
X117717700Y-143276629D01*
X117734112Y-143110000D01*
X117734112Y-140110000D01*
X117717700Y-139943371D01*
X117669097Y-139783145D01*
X117590168Y-139635481D01*
X117483948Y-139506052D01*
X117354519Y-139399832D01*
X117206855Y-139320903D01*
X117046629Y-139272300D01*
X116880000Y-139255888D01*
X114113300Y-139255888D01*
X116129188Y-137240000D01*
X116333274Y-137240000D01*
X116399832Y-137364519D01*
X116506052Y-137493948D01*
X116635481Y-137600168D01*
X116783145Y-137679097D01*
X116943371Y-137727700D01*
X117110000Y-137744112D01*
X119110000Y-137744112D01*
X119276629Y-137727700D01*
X119436855Y-137679097D01*
X119584519Y-137600168D01*
X119713948Y-137493948D01*
X119820168Y-137364519D01*
X119886726Y-137240000D01*
X121413274Y-137240000D01*
X121479832Y-137364519D01*
X121586052Y-137493948D01*
X121715481Y-137600168D01*
X121863145Y-137679097D01*
X122023371Y-137727700D01*
X122190000Y-137744112D01*
X124190000Y-137744112D01*
X124356629Y-137727700D01*
X124516855Y-137679097D01*
X124664519Y-137600168D01*
X124793948Y-137493948D01*
X124900168Y-137364519D01*
X124979097Y-137216855D01*
X125027700Y-137056629D01*
X125044112Y-136890000D01*
X125044112Y-134890000D01*
X125027700Y-134723371D01*
X124979097Y-134563145D01*
X124900168Y-134415481D01*
X124793948Y-134286052D01*
X124664519Y-134179832D01*
X124516855Y-134100903D01*
X124356629Y-134052300D01*
X124190000Y-134035888D01*
X122190000Y-134035888D01*
X122023371Y-134052300D01*
X121863145Y-134100903D01*
X121715481Y-134179832D01*
X121586052Y-134286052D01*
X121479832Y-134415481D01*
X121413274Y-134540000D01*
X120017496Y-134540000D01*
X120133649Y-134477915D01*
X120339213Y-134309213D01*
X120381491Y-134257697D01*
X121557706Y-133081483D01*
X121609212Y-133039213D01*
X121651483Y-132987706D01*
X121651490Y-132987699D01*
X121777915Y-132833650D01*
X121844919Y-132708293D01*
X121897685Y-132609575D01*
X122023371Y-132647701D01*
X122190000Y-132664113D01*
X122927500Y-132660000D01*
X123140000Y-132447500D01*
X123140000Y-130860000D01*
X123240000Y-130860000D01*
X123240000Y-132447500D01*
X123452500Y-132660000D01*
X124190000Y-132664113D01*
X124356629Y-132647701D01*
X124516855Y-132599098D01*
X124664520Y-132520169D01*
X124793949Y-132413949D01*
X124900169Y-132284520D01*
X124979098Y-132136855D01*
X125027701Y-131976629D01*
X125044113Y-131810000D01*
X125040000Y-131072500D01*
X124827500Y-130860000D01*
X123240000Y-130860000D01*
X123140000Y-130860000D01*
X123120000Y-130860000D01*
X123120000Y-130760000D01*
X123140000Y-130760000D01*
X123140000Y-129172500D01*
X123240000Y-129172500D01*
X123240000Y-130760000D01*
X124827500Y-130760000D01*
X125040000Y-130547500D01*
X125044113Y-129810000D01*
X125027701Y-129643371D01*
X124979098Y-129483145D01*
X124900169Y-129335480D01*
X124793949Y-129206051D01*
X124664520Y-129099831D01*
X124516855Y-129020902D01*
X124356629Y-128972299D01*
X124190000Y-128955887D01*
X123452500Y-128960000D01*
X123240000Y-129172500D01*
X123140000Y-129172500D01*
X122927500Y-128960000D01*
X122190000Y-128955887D01*
X122023371Y-128972299D01*
X122000000Y-128979388D01*
X122000000Y-126289188D01*
X125367697Y-122921491D01*
X125419213Y-122879213D01*
X125492275Y-122790187D01*
X125587915Y-122673650D01*
X125713272Y-122439123D01*
X125769444Y-122253948D01*
X125790467Y-122184646D01*
X125810000Y-121986321D01*
X125810000Y-121986319D01*
X125816532Y-121920000D01*
X125810000Y-121853681D01*
X125810000Y-121210612D01*
X125833371Y-121217701D01*
X126000000Y-121234113D01*
X126737500Y-121230000D01*
X126950000Y-121017500D01*
X126950000Y-119430000D01*
X127050000Y-119430000D01*
X127050000Y-121017500D01*
X127262500Y-121230000D01*
X128000000Y-121234113D01*
X128166629Y-121217701D01*
X128326855Y-121169098D01*
X128474520Y-121090169D01*
X128603949Y-120983949D01*
X128710169Y-120854520D01*
X128789098Y-120706855D01*
X128837701Y-120546629D01*
X128854113Y-120380000D01*
X128850000Y-119642500D01*
X128637500Y-119430000D01*
X127050000Y-119430000D01*
X126950000Y-119430000D01*
X126930000Y-119430000D01*
X126930000Y-119330000D01*
X126950000Y-119330000D01*
X126950000Y-117742500D01*
X127050000Y-117742500D01*
X127050000Y-119330000D01*
X128637500Y-119330000D01*
X128850000Y-119117500D01*
X128854113Y-118380000D01*
X128837701Y-118213371D01*
X128789098Y-118053145D01*
X128710169Y-117905480D01*
X128603949Y-117776051D01*
X128474520Y-117669831D01*
X128326855Y-117590902D01*
X128166629Y-117542299D01*
X128000000Y-117525887D01*
X127262500Y-117530000D01*
X127050000Y-117742500D01*
X126950000Y-117742500D01*
X126737500Y-117530000D01*
X126000000Y-117525887D01*
X125833371Y-117542299D01*
X125810000Y-117549388D01*
X125810000Y-114806726D01*
X125934519Y-114740168D01*
X126063948Y-114633948D01*
X126170168Y-114504519D01*
X126236726Y-114380000D01*
X126493274Y-114380000D01*
X126559832Y-114504519D01*
X126666052Y-114633948D01*
X126795481Y-114740168D01*
X126943145Y-114819097D01*
X127103371Y-114867700D01*
X127270000Y-114884112D01*
X129270000Y-114884112D01*
X129436629Y-114867700D01*
X129596855Y-114819097D01*
X129744519Y-114740168D01*
X129873948Y-114633948D01*
X129980168Y-114504519D01*
X130059097Y-114356855D01*
X130107700Y-114196629D01*
X130124112Y-114030000D01*
X130124112Y-112030000D01*
X130107700Y-111863371D01*
X130059097Y-111703145D01*
X129980168Y-111555481D01*
X129873948Y-111426052D01*
X129744519Y-111319832D01*
X129596855Y-111240903D01*
X129436629Y-111192300D01*
X129270000Y-111175888D01*
X127270000Y-111175888D01*
X127103371Y-111192300D01*
X126943145Y-111240903D01*
X126795481Y-111319832D01*
X126666052Y-111426052D01*
X126559832Y-111555481D01*
X126493274Y-111680000D01*
X126236726Y-111680000D01*
X126170168Y-111555481D01*
X126063948Y-111426052D01*
X125934519Y-111319832D01*
X125786855Y-111240903D01*
X125626629Y-111192300D01*
X125460000Y-111175888D01*
X123460000Y-111175888D01*
X123293371Y-111192300D01*
X123190000Y-111223657D01*
X123086629Y-111192300D01*
X122920000Y-111175888D01*
X121103313Y-111175888D01*
X121198606Y-110875189D01*
X121238808Y-110512995D01*
X121207578Y-110149918D01*
X121106115Y-109799910D01*
X120938318Y-109476421D01*
X120912768Y-109438182D01*
X120579035Y-109361675D01*
X119450711Y-110490000D01*
X119464853Y-110504142D01*
X119394142Y-110574853D01*
X119380000Y-110560711D01*
X119365858Y-110574853D01*
X119295147Y-110504142D01*
X119309289Y-110490000D01*
X118180965Y-109361675D01*
X117847232Y-109438182D01*
X117671484Y-109757420D01*
X117561394Y-110104811D01*
X117521192Y-110467005D01*
X117552422Y-110830082D01*
X117652667Y-111175888D01*
X115840000Y-111175888D01*
X115673371Y-111192300D01*
X115513145Y-111240903D01*
X115365481Y-111319832D01*
X115236052Y-111426052D01*
X115129832Y-111555481D01*
X115050903Y-111703145D01*
X115002300Y-111863371D01*
X114985888Y-112030000D01*
X114985888Y-114030000D01*
X115002300Y-114196629D01*
X115050903Y-114356855D01*
X115129832Y-114504519D01*
X115236052Y-114633948D01*
X115365481Y-114740168D01*
X115490000Y-114806726D01*
X115490001Y-117603274D01*
X115365481Y-117669832D01*
X115236052Y-117776052D01*
X115129832Y-117905481D01*
X115050903Y-118053145D01*
X115002300Y-118213371D01*
X114985888Y-118380000D01*
X114985888Y-120380000D01*
X115002300Y-120546629D01*
X115050903Y-120706855D01*
X115129832Y-120854519D01*
X115236052Y-120983948D01*
X115365481Y-121090168D01*
X115513145Y-121169097D01*
X115673371Y-121217700D01*
X115840000Y-121234112D01*
X117840000Y-121234112D01*
X118006629Y-121217700D01*
X118110000Y-121186343D01*
X118213371Y-121217700D01*
X118380000Y-121234112D01*
X120380000Y-121234112D01*
X120546629Y-121217700D01*
X120650000Y-121186343D01*
X120753371Y-121217700D01*
X120920000Y-121234112D01*
X122920000Y-121234112D01*
X123086629Y-121217700D01*
X123110001Y-121210610D01*
X123110001Y-121360811D01*
X119742299Y-124728513D01*
X119690788Y-124770787D01*
X119648514Y-124822298D01*
X119648510Y-124822302D01*
X119522085Y-124976351D01*
X119396729Y-125210878D01*
X119319534Y-125465354D01*
X119293468Y-125730000D01*
X119300001Y-125796329D01*
X119300000Y-128979390D01*
X119276629Y-128972300D01*
X119110000Y-128955888D01*
X117110000Y-128955888D01*
X116943371Y-128972300D01*
X116783145Y-129020903D01*
X116635481Y-129099832D01*
X116506052Y-129206052D01*
X116399832Y-129335481D01*
X116333274Y-129460000D01*
X116076726Y-129460000D01*
X116010168Y-129335481D01*
X115903948Y-129206052D01*
X115774519Y-129099832D01*
X115626855Y-129020903D01*
X115466629Y-128972300D01*
X115300000Y-128955888D01*
X113300000Y-128955888D01*
X113133371Y-128972300D01*
X113110000Y-128979389D01*
X113110000Y-123256320D01*
X113116532Y-123190000D01*
X113110000Y-123123679D01*
X113110000Y-116906310D01*
X113116531Y-116839999D01*
X113110000Y-116773688D01*
X113110000Y-116773679D01*
X113090467Y-116575354D01*
X113013272Y-116320878D01*
X112915362Y-116137700D01*
X112887915Y-116086350D01*
X112761490Y-115932301D01*
X112761487Y-115932298D01*
X112719213Y-115880787D01*
X112667702Y-115838513D01*
X111713300Y-114884112D01*
X112760000Y-114884112D01*
X112926629Y-114867700D01*
X113086855Y-114819097D01*
X113234519Y-114740168D01*
X113363948Y-114633948D01*
X113470168Y-114504519D01*
X113549097Y-114356855D01*
X113597700Y-114196629D01*
X113614112Y-114030000D01*
X113614112Y-112030000D01*
X113597700Y-111863371D01*
X113549097Y-111703145D01*
X113470168Y-111555481D01*
X113363948Y-111426052D01*
X113234519Y-111319832D01*
X113086855Y-111240903D01*
X112926629Y-111192300D01*
X112760000Y-111175888D01*
X110760000Y-111175888D01*
X110593371Y-111192300D01*
X110490000Y-111223657D01*
X110386629Y-111192300D01*
X110220000Y-111175888D01*
X108220000Y-111175888D01*
X108053371Y-111192300D01*
X107893145Y-111240903D01*
X107745481Y-111319832D01*
X107616052Y-111426052D01*
X107509832Y-111555481D01*
X107430903Y-111703145D01*
X107382300Y-111863371D01*
X107365888Y-112030000D01*
X107365888Y-113076700D01*
X106760000Y-112470812D01*
X106760000Y-110517578D01*
X106793371Y-110527701D01*
X106960000Y-110544113D01*
X108447500Y-110540000D01*
X108660000Y-110327500D01*
X108660000Y-107990000D01*
X108760000Y-107990000D01*
X108760000Y-110327500D01*
X108972500Y-110540000D01*
X110460000Y-110544113D01*
X110626629Y-110527701D01*
X110786855Y-110479098D01*
X110934520Y-110400169D01*
X111063949Y-110293949D01*
X111170169Y-110164520D01*
X111249098Y-110016855D01*
X111297701Y-109856629D01*
X111314113Y-109690000D01*
X111313010Y-109290965D01*
X118251675Y-109290965D01*
X119380000Y-110419289D01*
X120508325Y-109290965D01*
X120431818Y-108957232D01*
X120418682Y-108950000D01*
X126415887Y-108950000D01*
X126432299Y-109116629D01*
X126480902Y-109276855D01*
X126559831Y-109424520D01*
X126666051Y-109553949D01*
X126795480Y-109660169D01*
X126943145Y-109739098D01*
X127103371Y-109787701D01*
X127270000Y-109804113D01*
X128007500Y-109800000D01*
X128220000Y-109587500D01*
X128220000Y-108000000D01*
X128320000Y-108000000D01*
X128320000Y-109587500D01*
X128532500Y-109800000D01*
X129270000Y-109804113D01*
X129436629Y-109787701D01*
X129596855Y-109739098D01*
X129744520Y-109660169D01*
X129873949Y-109553949D01*
X129980169Y-109424520D01*
X130059098Y-109276855D01*
X130107701Y-109116629D01*
X130124113Y-108950000D01*
X130120000Y-108212500D01*
X129907500Y-108000000D01*
X128320000Y-108000000D01*
X128220000Y-108000000D01*
X126632500Y-108000000D01*
X126420000Y-108212500D01*
X126415887Y-108950000D01*
X120418682Y-108950000D01*
X120112580Y-108781484D01*
X119765189Y-108671394D01*
X119402995Y-108631192D01*
X119039918Y-108662422D01*
X118689910Y-108763885D01*
X118366421Y-108931682D01*
X118328182Y-108957232D01*
X118251675Y-109290965D01*
X111313010Y-109290965D01*
X111310000Y-108202500D01*
X111097500Y-107990000D01*
X108760000Y-107990000D01*
X108660000Y-107990000D01*
X108640000Y-107990000D01*
X108640000Y-107890000D01*
X108660000Y-107890000D01*
X108660000Y-105552500D01*
X108760000Y-105552500D01*
X108760000Y-107890000D01*
X111097500Y-107890000D01*
X111310000Y-107677500D01*
X111312011Y-106950000D01*
X126415887Y-106950000D01*
X126420000Y-107687500D01*
X126632500Y-107900000D01*
X128220000Y-107900000D01*
X128220000Y-106312500D01*
X128320000Y-106312500D01*
X128320000Y-107900000D01*
X129907500Y-107900000D01*
X130120000Y-107687500D01*
X130124113Y-106950000D01*
X130107701Y-106783371D01*
X130059098Y-106623145D01*
X129980169Y-106475480D01*
X129873949Y-106346051D01*
X129744520Y-106239831D01*
X129596855Y-106160902D01*
X129436629Y-106112299D01*
X129270000Y-106095887D01*
X128532500Y-106100000D01*
X128320000Y-106312500D01*
X128220000Y-106312500D01*
X128007500Y-106100000D01*
X127270000Y-106095887D01*
X127103371Y-106112299D01*
X126943145Y-106160902D01*
X126795480Y-106239831D01*
X126666051Y-106346051D01*
X126559831Y-106475480D01*
X126480902Y-106623145D01*
X126432299Y-106783371D01*
X126415887Y-106950000D01*
X111312011Y-106950000D01*
X111314113Y-106190000D01*
X111297701Y-106023371D01*
X111249098Y-105863145D01*
X111170169Y-105715480D01*
X111063949Y-105586051D01*
X110934520Y-105479831D01*
X110786855Y-105400902D01*
X110626629Y-105352299D01*
X110460000Y-105335887D01*
X108972500Y-105340000D01*
X108760000Y-105552500D01*
X108660000Y-105552500D01*
X108447500Y-105340000D01*
X106960000Y-105335887D01*
X106793371Y-105352299D01*
X106760000Y-105362422D01*
X106760000Y-104944112D01*
X107160000Y-104944112D01*
X107326629Y-104927700D01*
X107486855Y-104879097D01*
X107634519Y-104800168D01*
X107763948Y-104693948D01*
X107870168Y-104564519D01*
X107949097Y-104416855D01*
X107997700Y-104256629D01*
X108001161Y-104221492D01*
X108016310Y-104220000D01*
X117603274Y-104220000D01*
X117669832Y-104344519D01*
X117776052Y-104473948D01*
X117905481Y-104580168D01*
X118053145Y-104659097D01*
X118213371Y-104707700D01*
X118380000Y-104724112D01*
X120380000Y-104724112D01*
X120546629Y-104707700D01*
X120650000Y-104676343D01*
X120753371Y-104707700D01*
X120920000Y-104724112D01*
X122920000Y-104724112D01*
X123086629Y-104707700D01*
X123189998Y-104676344D01*
X123293371Y-104707701D01*
X123460000Y-104724113D01*
X124197500Y-104720000D01*
X124410000Y-104507500D01*
X124410000Y-102920000D01*
X124510000Y-102920000D01*
X124510000Y-104507500D01*
X124722500Y-104720000D01*
X125460000Y-104724113D01*
X125626629Y-104707701D01*
X125786855Y-104659098D01*
X125934520Y-104580169D01*
X126063949Y-104473949D01*
X126170169Y-104344520D01*
X126249098Y-104196855D01*
X126297701Y-104036629D01*
X126314113Y-103870000D01*
X126310000Y-103132500D01*
X126097500Y-102920000D01*
X124510000Y-102920000D01*
X124410000Y-102920000D01*
X124390000Y-102920000D01*
X124390000Y-102820000D01*
X124410000Y-102820000D01*
X124410000Y-101232500D01*
X124510000Y-101232500D01*
X124510000Y-102820000D01*
X126097500Y-102820000D01*
X126310000Y-102607500D01*
X126314113Y-101870000D01*
X126297701Y-101703371D01*
X126249098Y-101543145D01*
X126170169Y-101395480D01*
X126063949Y-101266051D01*
X125934520Y-101159831D01*
X125786855Y-101080902D01*
X125626629Y-101032299D01*
X125460000Y-101015887D01*
X124722500Y-101020000D01*
X124510000Y-101232500D01*
X124410000Y-101232500D01*
X124197500Y-101020000D01*
X123460000Y-101015887D01*
X123293371Y-101032299D01*
X123189998Y-101063656D01*
X123086629Y-101032300D01*
X122920000Y-101015888D01*
X120920000Y-101015888D01*
X120753371Y-101032300D01*
X120650000Y-101063657D01*
X120546629Y-101032300D01*
X120380000Y-101015888D01*
X118380000Y-101015888D01*
X118213371Y-101032300D01*
X118053145Y-101080903D01*
X117905481Y-101159832D01*
X117776052Y-101266052D01*
X117669832Y-101395481D01*
X117603274Y-101520000D01*
X108509188Y-101520000D01*
X108421490Y-101432302D01*
X108379213Y-101380787D01*
X108173649Y-101212085D01*
X108014112Y-101126811D01*
X108014112Y-100590000D01*
X107997700Y-100423371D01*
X107949097Y-100263145D01*
X107870168Y-100115481D01*
X107763948Y-99986052D01*
X107634519Y-99879832D01*
X107486855Y-99800903D01*
X107326629Y-99752300D01*
X107160000Y-99735888D01*
X103660000Y-99735888D01*
X103493371Y-99752300D01*
X103333145Y-99800903D01*
X103185481Y-99879832D01*
X103056052Y-99986052D01*
X102949832Y-100115481D01*
X102870903Y-100263145D01*
X102822300Y-100423371D01*
X102805888Y-100590000D01*
X102805888Y-100990000D01*
X101629188Y-100990000D01*
X101331491Y-100692303D01*
X101289213Y-100640787D01*
X101083649Y-100472085D01*
X100849122Y-100346728D01*
X100594646Y-100269533D01*
X100396321Y-100250000D01*
X100396319Y-100250000D01*
X100330000Y-100243468D01*
X100263681Y-100250000D01*
X99566726Y-100250000D01*
X99500168Y-100125481D01*
X99393948Y-99996052D01*
X99264519Y-99889832D01*
X99116855Y-99810903D01*
X99029049Y-99784268D01*
X98917915Y-99576351D01*
X98797354Y-99429448D01*
X98791489Y-99422301D01*
X98791487Y-99422299D01*
X98749212Y-99370787D01*
X98697701Y-99328513D01*
X97633344Y-98264156D01*
X97740000Y-98157500D01*
X97740000Y-96570000D01*
X97840000Y-96570000D01*
X97840000Y-98157500D01*
X98052500Y-98370000D01*
X98790000Y-98374113D01*
X98956629Y-98357701D01*
X99116855Y-98309098D01*
X99264520Y-98230169D01*
X99393949Y-98123949D01*
X99500169Y-97994520D01*
X99579098Y-97846855D01*
X99627701Y-97686629D01*
X99644113Y-97520000D01*
X99640000Y-96782500D01*
X99427500Y-96570000D01*
X97840000Y-96570000D01*
X97740000Y-96570000D01*
X96152500Y-96570000D01*
X96034827Y-96687673D01*
X96003649Y-96662085D01*
X95769122Y-96536728D01*
X95514646Y-96459533D01*
X95316321Y-96440000D01*
X95316319Y-96440000D01*
X95250000Y-96433468D01*
X95240681Y-96434386D01*
X95159306Y-96353011D01*
X94856303Y-96150552D01*
X94519625Y-96011095D01*
X94162209Y-95940000D01*
X93797791Y-95940000D01*
X93440375Y-96011095D01*
X93103697Y-96150552D01*
X92800694Y-96353011D01*
X92543011Y-96610694D01*
X92340552Y-96913697D01*
X92201095Y-97250375D01*
X92130000Y-97607791D01*
X92130000Y-97972209D01*
X92201095Y-98329625D01*
X92340552Y-98666303D01*
X92543011Y-98969306D01*
X92800694Y-99226989D01*
X93103697Y-99429448D01*
X93440375Y-99568905D01*
X93797791Y-99640000D01*
X94162209Y-99640000D01*
X94519625Y-99568905D01*
X94856303Y-99429448D01*
X94930610Y-99379798D01*
X95959720Y-100408908D01*
X95952300Y-100433371D01*
X95935888Y-100600000D01*
X95935888Y-102600000D01*
X95952300Y-102766629D01*
X96000903Y-102926855D01*
X96079832Y-103074519D01*
X96186052Y-103203948D01*
X96315481Y-103310168D01*
X96463145Y-103389097D01*
X96623371Y-103437700D01*
X96790000Y-103454112D01*
X98790000Y-103454112D01*
X98956629Y-103437700D01*
X99116855Y-103389097D01*
X99264519Y-103310168D01*
X99393948Y-103203948D01*
X99500168Y-103074519D01*
X99566726Y-102950000D01*
X99770812Y-102950000D01*
X100068509Y-103247697D01*
X100110787Y-103299213D01*
X100316351Y-103467915D01*
X100550878Y-103593272D01*
X100805354Y-103670467D01*
X101003679Y-103690000D01*
X101003680Y-103690000D01*
X101069999Y-103696532D01*
X101136318Y-103690000D01*
X102805888Y-103690000D01*
X102805888Y-104090000D01*
X102822300Y-104256629D01*
X102870903Y-104416855D01*
X102949832Y-104564519D01*
X103056052Y-104693948D01*
X103185481Y-104800168D01*
X103333145Y-104879097D01*
X103493371Y-104927700D01*
X103660000Y-104944112D01*
X104060001Y-104944112D01*
X104060001Y-105362423D01*
X104026629Y-105352300D01*
X103860000Y-105335888D01*
X100360000Y-105335888D01*
X100193371Y-105352300D01*
X100033145Y-105400903D01*
X99885481Y-105479832D01*
X99756052Y-105586052D01*
X99649832Y-105715481D01*
X99570903Y-105863145D01*
X99522300Y-106023371D01*
X99505888Y-106190000D01*
X99505888Y-106486182D01*
X99500168Y-106475481D01*
X99393948Y-106346052D01*
X99264519Y-106239832D01*
X99116855Y-106160903D01*
X98956629Y-106112300D01*
X98790000Y-106095888D01*
X96790000Y-106095888D01*
X96623371Y-106112300D01*
X96463145Y-106160903D01*
X96315481Y-106239832D01*
X96186052Y-106346052D01*
X96079832Y-106475481D01*
X96000903Y-106623145D01*
X95952300Y-106783371D01*
X95935888Y-106950000D01*
X95935888Y-108950000D01*
X95952300Y-109116629D01*
X96000903Y-109276855D01*
X96079832Y-109424519D01*
X96186052Y-109553948D01*
X96315481Y-109660168D01*
X96463145Y-109739097D01*
X96623371Y-109787700D01*
X96790000Y-109804112D01*
X98790000Y-109804112D01*
X98956629Y-109787700D01*
X99116855Y-109739097D01*
X99264519Y-109660168D01*
X99393948Y-109553948D01*
X99500168Y-109424519D01*
X99505888Y-109413818D01*
X99505888Y-109690000D01*
X99522300Y-109856629D01*
X99570903Y-110016855D01*
X99649832Y-110164519D01*
X99756052Y-110293948D01*
X99885481Y-110400168D01*
X100033145Y-110479097D01*
X100193371Y-110527700D01*
X100360000Y-110544112D01*
X103860000Y-110544112D01*
X104026629Y-110527700D01*
X104060000Y-110517577D01*
X104060000Y-112963679D01*
X104053468Y-113030000D01*
X104060000Y-113096319D01*
X104060000Y-113096320D01*
X104079533Y-113294645D01*
X104156728Y-113549121D01*
X104215081Y-113658292D01*
X104282085Y-113783649D01*
X104408510Y-113937698D01*
X104408513Y-113937701D01*
X104450787Y-113989212D01*
X104502299Y-114031487D01*
X106948509Y-116477697D01*
X106990787Y-116529213D01*
X107196351Y-116697915D01*
X107420426Y-116817685D01*
X107404268Y-116870951D01*
X107349050Y-116900466D01*
X107196350Y-116982085D01*
X107042301Y-117108510D01*
X107042298Y-117108513D01*
X106990787Y-117150787D01*
X106948513Y-117202298D01*
X105772299Y-118378513D01*
X105720787Y-118420788D01*
X105678513Y-118472299D01*
X105678510Y-118472302D01*
X105552085Y-118626351D01*
X105515866Y-118694113D01*
X105426728Y-118860879D01*
X105349533Y-119115355D01*
X105339915Y-119213011D01*
X105323468Y-119380000D01*
X105330000Y-119446319D01*
X105330001Y-125663669D01*
X105323468Y-125730000D01*
X105330000Y-125796321D01*
X105330000Y-126362504D01*
X105267915Y-126246350D01*
X105141490Y-126092301D01*
X105141483Y-126092294D01*
X105099212Y-126040787D01*
X105047706Y-125998517D01*
X103871490Y-124822302D01*
X103829213Y-124770787D01*
X103623649Y-124602085D01*
X103415732Y-124490951D01*
X103406343Y-124460000D01*
X103437700Y-124356629D01*
X103454112Y-124190000D01*
X103454112Y-122190000D01*
X103437700Y-122023371D01*
X103389097Y-121863145D01*
X103310168Y-121715481D01*
X103203948Y-121586052D01*
X103201092Y-121583708D01*
X103239448Y-121526303D01*
X103378905Y-121189625D01*
X103450000Y-120832209D01*
X103450000Y-120467791D01*
X103378905Y-120110375D01*
X103239448Y-119773697D01*
X103036989Y-119470694D01*
X102779306Y-119213011D01*
X102476303Y-119010552D01*
X102139625Y-118871095D01*
X101782209Y-118800000D01*
X101417791Y-118800000D01*
X101060375Y-118871095D01*
X100914112Y-118931679D01*
X100914112Y-117110000D01*
X100897700Y-116943371D01*
X100849097Y-116783145D01*
X100770168Y-116635481D01*
X100663948Y-116506052D01*
X100534519Y-116399832D01*
X100410000Y-116333274D01*
X100410000Y-114806726D01*
X100534519Y-114740168D01*
X100663948Y-114633948D01*
X100770168Y-114504519D01*
X100849097Y-114356855D01*
X100897700Y-114196629D01*
X100914112Y-114030000D01*
X100914112Y-112030000D01*
X100897700Y-111863371D01*
X100849097Y-111703145D01*
X100770168Y-111555481D01*
X100663948Y-111426052D01*
X100534519Y-111319832D01*
X100386855Y-111240903D01*
X100226629Y-111192300D01*
X100060000Y-111175888D01*
X98060000Y-111175888D01*
X97893371Y-111192300D01*
X97733145Y-111240903D01*
X97585481Y-111319832D01*
X97456052Y-111426052D01*
X97349832Y-111555481D01*
X97270903Y-111703145D01*
X97222300Y-111863371D01*
X97205888Y-112030000D01*
X97205888Y-114030000D01*
X97222300Y-114196629D01*
X97270903Y-114356855D01*
X97349832Y-114504519D01*
X97456052Y-114633948D01*
X97585481Y-114740168D01*
X97710000Y-114806726D01*
X97710001Y-116333274D01*
X97585481Y-116399832D01*
X97456052Y-116506052D01*
X97349832Y-116635481D01*
X97270903Y-116783145D01*
X97222300Y-116943371D01*
X97205888Y-117110000D01*
X97205888Y-119110000D01*
X97222300Y-119276629D01*
X97270903Y-119436855D01*
X97349832Y-119584519D01*
X97456052Y-119713948D01*
X97585481Y-119820168D01*
X97710000Y-119886726D01*
X97710001Y-121853671D01*
X97703468Y-121920000D01*
X97729534Y-122184646D01*
X97806729Y-122439122D01*
X97932085Y-122673649D01*
X98058510Y-122827698D01*
X98058514Y-122827702D01*
X98100788Y-122879213D01*
X98152299Y-122921487D01*
X99234709Y-124003898D01*
X99116855Y-123940903D01*
X98956629Y-123892300D01*
X98790000Y-123875888D01*
X96790000Y-123875888D01*
X96623371Y-123892300D01*
X96463145Y-123940903D01*
X96315481Y-124019832D01*
X96186052Y-124126052D01*
X96079832Y-124255481D01*
X96013274Y-124380000D01*
X95756726Y-124380000D01*
X95690168Y-124255481D01*
X95583948Y-124126052D01*
X95454519Y-124019832D01*
X95330000Y-123953274D01*
X95330000Y-121156726D01*
X95454519Y-121090168D01*
X95583948Y-120983948D01*
X95690168Y-120854519D01*
X95769097Y-120706855D01*
X95817700Y-120546629D01*
X95834112Y-120380000D01*
X95834112Y-118380000D01*
X95817700Y-118213371D01*
X95769097Y-118053145D01*
X95690168Y-117905481D01*
X95583948Y-117776052D01*
X95581092Y-117773708D01*
X95619448Y-117716303D01*
X95758905Y-117379625D01*
X95830000Y-117022209D01*
X95830000Y-116657791D01*
X95758905Y-116300375D01*
X95619448Y-115963697D01*
X95581092Y-115906292D01*
X95583948Y-115903948D01*
X95690168Y-115774519D01*
X95769097Y-115626855D01*
X95817700Y-115466629D01*
X95834112Y-115300000D01*
X95834112Y-113300000D01*
X95817700Y-113133371D01*
X95769097Y-112973145D01*
X95690168Y-112825481D01*
X95583948Y-112696052D01*
X95454519Y-112589832D01*
X95306855Y-112510903D01*
X95146629Y-112462300D01*
X94980000Y-112445888D01*
X92980000Y-112445888D01*
X92813371Y-112462300D01*
X92653145Y-112510903D01*
X92505481Y-112589832D01*
X92376052Y-112696052D01*
X92269832Y-112825481D01*
X92190903Y-112973145D01*
X92142300Y-113133371D01*
X92125888Y-113300000D01*
X92125888Y-115300000D01*
X92142300Y-115466629D01*
X92190903Y-115626855D01*
X92269832Y-115774519D01*
X92376052Y-115903948D01*
X92378908Y-115906292D01*
X92340552Y-115963697D01*
X92201095Y-116300375D01*
X92130000Y-116657791D01*
X92130000Y-117022209D01*
X92201095Y-117379625D01*
X92262090Y-117526879D01*
X91702500Y-117530000D01*
X91490000Y-117742500D01*
X91490000Y-119330000D01*
X91510000Y-119330000D01*
X91510000Y-119430000D01*
X91490000Y-119430000D01*
X91490000Y-121017500D01*
X91702500Y-121230000D01*
X92440000Y-121234113D01*
X92606629Y-121217701D01*
X92630000Y-121210612D01*
X92630001Y-123953274D01*
X92505481Y-124019832D01*
X92376052Y-124126052D01*
X92269832Y-124255481D01*
X92190903Y-124403145D01*
X92142300Y-124563371D01*
X92125888Y-124730000D01*
X92125888Y-126730000D01*
X92142300Y-126896629D01*
X92190903Y-127056855D01*
X92269832Y-127204519D01*
X92376052Y-127333948D01*
X92505481Y-127440168D01*
X92653145Y-127519097D01*
X92813371Y-127567700D01*
X92980000Y-127584112D01*
X94980000Y-127584112D01*
X95146629Y-127567700D01*
X95306855Y-127519097D01*
X95454519Y-127440168D01*
X95583948Y-127333948D01*
X95690168Y-127204519D01*
X95756726Y-127080000D01*
X96013274Y-127080000D01*
X96079832Y-127204519D01*
X96186052Y-127333948D01*
X96315481Y-127440168D01*
X96463145Y-127519097D01*
X96623371Y-127567700D01*
X96790000Y-127584112D01*
X98790000Y-127584112D01*
X98956629Y-127567700D01*
X99116855Y-127519097D01*
X99264519Y-127440168D01*
X99393948Y-127333948D01*
X99500168Y-127204519D01*
X99579097Y-127056855D01*
X99627700Y-126896629D01*
X99644112Y-126730000D01*
X99644112Y-124730000D01*
X99627700Y-124563371D01*
X99579097Y-124403145D01*
X99500168Y-124255481D01*
X99499949Y-124255214D01*
X99576350Y-124317915D01*
X99692504Y-124380000D01*
X99784268Y-124429049D01*
X99793657Y-124460000D01*
X99762300Y-124563371D01*
X99745888Y-124730000D01*
X99745888Y-126730000D01*
X99762300Y-126896629D01*
X99793656Y-126999998D01*
X99762299Y-127103371D01*
X99745887Y-127270000D01*
X99750000Y-128007500D01*
X99962500Y-128220000D01*
X101550000Y-128220000D01*
X101550000Y-128200000D01*
X101650000Y-128200000D01*
X101650000Y-128220000D01*
X101670000Y-128220000D01*
X101670000Y-128320000D01*
X101650000Y-128320000D01*
X101650000Y-129907500D01*
X101862500Y-130120000D01*
X102285888Y-130122361D01*
X102285888Y-131810000D01*
X102302300Y-131976629D01*
X102333657Y-132080000D01*
X102302300Y-132183371D01*
X102285888Y-132350000D01*
X102285888Y-134350000D01*
X102302300Y-134516629D01*
X102333657Y-134620000D01*
X102302300Y-134723371D01*
X102285888Y-134890000D01*
X102285888Y-136890000D01*
X102302300Y-137056629D01*
X102350903Y-137216855D01*
X102429832Y-137364519D01*
X102536052Y-137493948D01*
X102665481Y-137600168D01*
X102813145Y-137679097D01*
X102973371Y-137727700D01*
X103140000Y-137744112D01*
X105140000Y-137744112D01*
X105306629Y-137727700D01*
X105466855Y-137679097D01*
X105614519Y-137600168D01*
X105743948Y-137493948D01*
X105850168Y-137364519D01*
X105929097Y-137216855D01*
X105955732Y-137129049D01*
X106163649Y-137017915D01*
X106369213Y-136849213D01*
X106411491Y-136797697D01*
X107587702Y-135621487D01*
X107639213Y-135579213D01*
X107681487Y-135527702D01*
X107681490Y-135527699D01*
X107807915Y-135373650D01*
X107898534Y-135204112D01*
X107933272Y-135139122D01*
X108010467Y-134884646D01*
X108030000Y-134686321D01*
X108030000Y-134686312D01*
X108036531Y-134620001D01*
X108030000Y-134553690D01*
X108030000Y-130100611D01*
X108053371Y-130107700D01*
X108220000Y-130124112D01*
X110220000Y-130124112D01*
X110386629Y-130107700D01*
X110410001Y-130100610D01*
X110410001Y-135330811D01*
X107042299Y-138698513D01*
X106992895Y-138739058D01*
X106846989Y-138520694D01*
X106589306Y-138263011D01*
X106286303Y-138060552D01*
X105949625Y-137921095D01*
X105592209Y-137850000D01*
X105227791Y-137850000D01*
X104870375Y-137921095D01*
X104533697Y-138060552D01*
X104230694Y-138263011D01*
X104143705Y-138350000D01*
X99619189Y-138350000D01*
X98791489Y-137522301D01*
X98749213Y-137470787D01*
X98543649Y-137302085D01*
X98309122Y-137176728D01*
X98054646Y-137099533D01*
X97856321Y-137080000D01*
X97856319Y-137080000D01*
X97790000Y-137073468D01*
X97723681Y-137080000D01*
X95810611Y-137080000D01*
X95817700Y-137056629D01*
X95834112Y-136890000D01*
X95834112Y-134890000D01*
X95817700Y-134723371D01*
X95769097Y-134563145D01*
X95690168Y-134415481D01*
X95583948Y-134286052D01*
X95454519Y-134179832D01*
X95330000Y-134113274D01*
X95330000Y-132586726D01*
X95454519Y-132520168D01*
X95583948Y-132413948D01*
X95690168Y-132284519D01*
X95769097Y-132136855D01*
X95817700Y-131976629D01*
X95834112Y-131810000D01*
X95935887Y-131810000D01*
X95952299Y-131976629D01*
X96000902Y-132136855D01*
X96079831Y-132284520D01*
X96186051Y-132413949D01*
X96315480Y-132520169D01*
X96463145Y-132599098D01*
X96623371Y-132647701D01*
X96790000Y-132664113D01*
X97527500Y-132660000D01*
X97740000Y-132447500D01*
X97740000Y-130860000D01*
X97840000Y-130860000D01*
X97840000Y-132447500D01*
X98052500Y-132660000D01*
X98790000Y-132664113D01*
X98956629Y-132647701D01*
X99116855Y-132599098D01*
X99264520Y-132520169D01*
X99393949Y-132413949D01*
X99500169Y-132284520D01*
X99579098Y-132136855D01*
X99627701Y-131976629D01*
X99644113Y-131810000D01*
X99640000Y-131072500D01*
X99427500Y-130860000D01*
X97840000Y-130860000D01*
X97740000Y-130860000D01*
X96152500Y-130860000D01*
X95940000Y-131072500D01*
X95935887Y-131810000D01*
X95834112Y-131810000D01*
X95834112Y-129810000D01*
X95935887Y-129810000D01*
X95940000Y-130547500D01*
X96152500Y-130760000D01*
X97740000Y-130760000D01*
X97740000Y-129172500D01*
X97840000Y-129172500D01*
X97840000Y-130760000D01*
X99427500Y-130760000D01*
X99640000Y-130547500D01*
X99644113Y-129810000D01*
X99627701Y-129643371D01*
X99579098Y-129483145D01*
X99500169Y-129335480D01*
X99446431Y-129270000D01*
X99745887Y-129270000D01*
X99762299Y-129436629D01*
X99810902Y-129596855D01*
X99889831Y-129744520D01*
X99996051Y-129873949D01*
X100125480Y-129980169D01*
X100273145Y-130059098D01*
X100433371Y-130107701D01*
X100600000Y-130124113D01*
X101337500Y-130120000D01*
X101550000Y-129907500D01*
X101550000Y-128320000D01*
X99962500Y-128320000D01*
X99750000Y-128532500D01*
X99745887Y-129270000D01*
X99446431Y-129270000D01*
X99393949Y-129206051D01*
X99264520Y-129099831D01*
X99116855Y-129020902D01*
X98956629Y-128972299D01*
X98790000Y-128955887D01*
X98052500Y-128960000D01*
X97840000Y-129172500D01*
X97740000Y-129172500D01*
X97527500Y-128960000D01*
X96790000Y-128955887D01*
X96623371Y-128972299D01*
X96463145Y-129020902D01*
X96315480Y-129099831D01*
X96186051Y-129206051D01*
X96079831Y-129335480D01*
X96000902Y-129483145D01*
X95952299Y-129643371D01*
X95935887Y-129810000D01*
X95834112Y-129810000D01*
X95817700Y-129643371D01*
X95769097Y-129483145D01*
X95690168Y-129335481D01*
X95583948Y-129206052D01*
X95454519Y-129099832D01*
X95306855Y-129020903D01*
X95146629Y-128972300D01*
X94980000Y-128955888D01*
X92980000Y-128955888D01*
X92813371Y-128972300D01*
X92653145Y-129020903D01*
X92505481Y-129099832D01*
X92376052Y-129206052D01*
X92269832Y-129335481D01*
X92190903Y-129483145D01*
X92142300Y-129643371D01*
X92125888Y-129810000D01*
X92125888Y-131810000D01*
X92142300Y-131976629D01*
X92190903Y-132136855D01*
X92269832Y-132284519D01*
X92376052Y-132413948D01*
X92505481Y-132520168D01*
X92630000Y-132586726D01*
X92630001Y-134059390D01*
X92606629Y-134052300D01*
X92440000Y-134035888D01*
X90440000Y-134035888D01*
X90273371Y-134052300D01*
X90250000Y-134059389D01*
X90250000Y-121210612D01*
X90273371Y-121217701D01*
X90440000Y-121234113D01*
X91177500Y-121230000D01*
X91390000Y-121017500D01*
X91390000Y-119430000D01*
X91370000Y-119430000D01*
X91370000Y-119330000D01*
X91390000Y-119330000D01*
X91390000Y-117742500D01*
X91177500Y-117530000D01*
X90440000Y-117525887D01*
X90273371Y-117542299D01*
X90169998Y-117573656D01*
X90066629Y-117542300D01*
X89900000Y-117525888D01*
X87900000Y-117525888D01*
X87733371Y-117542300D01*
X87630000Y-117573657D01*
X87526629Y-117542300D01*
X87360000Y-117525888D01*
X85672361Y-117525888D01*
X85670000Y-117102500D01*
X85457500Y-116890000D01*
X83870000Y-116890000D01*
X83770000Y-116890000D01*
X82182500Y-116890000D01*
X81970000Y-117102500D01*
X81965887Y-117840000D01*
X77250000Y-117840000D01*
X77250000Y-114277005D01*
X81961192Y-114277005D01*
X81992422Y-114640082D01*
X82093885Y-114990090D01*
X82219850Y-115232933D01*
X82216051Y-115236051D01*
X82109831Y-115365480D01*
X82030902Y-115513145D01*
X81982299Y-115673371D01*
X81965887Y-115840000D01*
X81970000Y-116577500D01*
X82182500Y-116790000D01*
X83770000Y-116790000D01*
X83770000Y-116770000D01*
X83870000Y-116770000D01*
X83870000Y-116790000D01*
X85457500Y-116790000D01*
X85670000Y-116577500D01*
X85674113Y-115840000D01*
X85657701Y-115673371D01*
X85609098Y-115513145D01*
X85530169Y-115365480D01*
X85423949Y-115236051D01*
X85418818Y-115231840D01*
X85528516Y-115032580D01*
X85638606Y-114685189D01*
X85678808Y-114322995D01*
X85647578Y-113959918D01*
X85546115Y-113609910D01*
X85378318Y-113286421D01*
X85352768Y-113248182D01*
X85019035Y-113171675D01*
X83890711Y-114300000D01*
X83904853Y-114314142D01*
X83834142Y-114384853D01*
X83820000Y-114370711D01*
X83805858Y-114384853D01*
X83735147Y-114314142D01*
X83749289Y-114300000D01*
X82620965Y-113171675D01*
X82287232Y-113248182D01*
X82111484Y-113567420D01*
X82001394Y-113914811D01*
X81961192Y-114277005D01*
X77250000Y-114277005D01*
X77250000Y-113100965D01*
X82691675Y-113100965D01*
X83820000Y-114229289D01*
X84948325Y-113100965D01*
X84871818Y-112767232D01*
X84552580Y-112591484D01*
X84205189Y-112481394D01*
X83842995Y-112441192D01*
X83479918Y-112472422D01*
X83129910Y-112573885D01*
X82806421Y-112741682D01*
X82768182Y-112767232D01*
X82691675Y-113100965D01*
X77250000Y-113100965D01*
X77250000Y-107114923D01*
X85574924Y-98790000D01*
X87045887Y-98790000D01*
X87062299Y-98956629D01*
X87110902Y-99116855D01*
X87189831Y-99264520D01*
X87296051Y-99393949D01*
X87425480Y-99500169D01*
X87573145Y-99579098D01*
X87733371Y-99627701D01*
X87900000Y-99644113D01*
X88637500Y-99640000D01*
X88850000Y-99427500D01*
X88850000Y-97840000D01*
X88950000Y-97840000D01*
X88950000Y-99427500D01*
X89162500Y-99640000D01*
X89900000Y-99644113D01*
X90066629Y-99627701D01*
X90226855Y-99579098D01*
X90374520Y-99500169D01*
X90503949Y-99393949D01*
X90610169Y-99264520D01*
X90689098Y-99116855D01*
X90737701Y-98956629D01*
X90754113Y-98790000D01*
X90750000Y-98052500D01*
X90537500Y-97840000D01*
X88950000Y-97840000D01*
X88850000Y-97840000D01*
X87262500Y-97840000D01*
X87050000Y-98052500D01*
X87045887Y-98790000D01*
X85574924Y-98790000D01*
X87048821Y-97316104D01*
X87050000Y-97527500D01*
X87262500Y-97740000D01*
X88850000Y-97740000D01*
X88850000Y-96152500D01*
X88950000Y-96152500D01*
X88950000Y-97740000D01*
X90537500Y-97740000D01*
X90750000Y-97527500D01*
X90754113Y-96790000D01*
X90737701Y-96623371D01*
X90689098Y-96463145D01*
X90610169Y-96315480D01*
X90503949Y-96186051D01*
X90374520Y-96079831D01*
X90226855Y-96000902D01*
X90066629Y-95952299D01*
X89900000Y-95935887D01*
X89162500Y-95940000D01*
X88950000Y-96152500D01*
X88850000Y-96152500D01*
X88637500Y-95940000D01*
X88426104Y-95938821D01*
X89334925Y-95030000D01*
X96092535Y-95030000D01*
X96079831Y-95045480D01*
G37*
X96079831Y-95045480D02*
X96000902Y-95193145D01*
X95952299Y-95353371D01*
X95935887Y-95520000D01*
X95940000Y-96257500D01*
X96152500Y-96470000D01*
X97740000Y-96470000D01*
X97740000Y-96450000D01*
X97840000Y-96450000D01*
X97840000Y-96470000D01*
X99427500Y-96470000D01*
X99640000Y-96257500D01*
X99644113Y-95520000D01*
X99627701Y-95353371D01*
X99579098Y-95193145D01*
X99500169Y-95045480D01*
X99487465Y-95030000D01*
X121485077Y-95030000D01*
X133570000Y-107114925D01*
X133570001Y-176750000D01*
X77250000Y-176750000D01*
X77250000Y-159610000D01*
X80385887Y-159610000D01*
X80402299Y-159776629D01*
X80450902Y-159936855D01*
X80529831Y-160084520D01*
X80636051Y-160213949D01*
X80765480Y-160320169D01*
X80913145Y-160399098D01*
X81073371Y-160447701D01*
X81240000Y-160464113D01*
X82477500Y-160460000D01*
X82690000Y-160247500D01*
X82690000Y-158160000D01*
X82790000Y-158160000D01*
X82790000Y-160247500D01*
X83002500Y-160460000D01*
X84240000Y-160464113D01*
X84406629Y-160447701D01*
X84566855Y-160399098D01*
X84714520Y-160320169D01*
X84843949Y-160213949D01*
X84950169Y-160084520D01*
X85029098Y-159936855D01*
X85077701Y-159776629D01*
X85094113Y-159610000D01*
X85090000Y-158372500D01*
X84877500Y-158160000D01*
X82790000Y-158160000D01*
X82690000Y-158160000D01*
X80602500Y-158160000D01*
X80390000Y-158372500D01*
X80385887Y-159610000D01*
X77250000Y-159610000D01*
X77250000Y-156610000D01*
X80385887Y-156610000D01*
X80390000Y-157847500D01*
X80602500Y-158060000D01*
X82690000Y-158060000D01*
X82690000Y-155972500D01*
X82790000Y-155972500D01*
X82790000Y-158060000D01*
X84877500Y-158060000D01*
X85090000Y-157847500D01*
X85094113Y-156610000D01*
X85077701Y-156443371D01*
X85029098Y-156283145D01*
X84950169Y-156135480D01*
X84843949Y-156006051D01*
X84714520Y-155899831D01*
X84566855Y-155820902D01*
X84406629Y-155772299D01*
X84240000Y-155755887D01*
X83002500Y-155760000D01*
X82790000Y-155972500D01*
X82690000Y-155972500D01*
X82477500Y-155760000D01*
X81240000Y-155755887D01*
X81073371Y-155772299D01*
X80913145Y-155820902D01*
X80765480Y-155899831D01*
X80636051Y-156006051D01*
X80529831Y-156135480D01*
X80450902Y-156283145D01*
X80402299Y-156443371D01*
X80385887Y-156610000D01*
X77250000Y-156610000D01*
X77250000Y-140110000D01*
X80385888Y-140110000D01*
X80385888Y-143110000D01*
X80402300Y-143276629D01*
X80450903Y-143436855D01*
X80529832Y-143584519D01*
X80636052Y-143713948D01*
X80765481Y-143820168D01*
X80913145Y-143899097D01*
X81073371Y-143947700D01*
X81240000Y-143964112D01*
X84240000Y-143964112D01*
X84406629Y-143947700D01*
X84566855Y-143899097D01*
X84714519Y-143820168D01*
X84843948Y-143713948D01*
X84950168Y-143584519D01*
X85029097Y-143436855D01*
X85077700Y-143276629D01*
X85094112Y-143110000D01*
X85094112Y-140110000D01*
X85077700Y-139943371D01*
X85029097Y-139783145D01*
X84950168Y-139635481D01*
X84843948Y-139506052D01*
X84714519Y-139399832D01*
X84566855Y-139320903D01*
X84406629Y-139272300D01*
X84240000Y-139255888D01*
X81240000Y-139255888D01*
X81073371Y-139272300D01*
X80913145Y-139320903D01*
X80765481Y-139399832D01*
X80636052Y-139506052D01*
X80529832Y-139635481D01*
X80450903Y-139783145D01*
X80402300Y-139943371D01*
X80385888Y-140110000D01*
X77250000Y-140110000D01*
X77250000Y-136890000D01*
X84505887Y-136890000D01*
X84522299Y-137056629D01*
X84570902Y-137216855D01*
X84649831Y-137364520D01*
X84756051Y-137493949D01*
X84885480Y-137600169D01*
X85033145Y-137679098D01*
X85193371Y-137727701D01*
X85360000Y-137744113D01*
X86097500Y-137740000D01*
X86310000Y-137527500D01*
X86310000Y-135940000D01*
X84722500Y-135940000D01*
X84510000Y-136152500D01*
X84505887Y-136890000D01*
X77250000Y-136890000D01*
X77250000Y-134890000D01*
X84505887Y-134890000D01*
X84510000Y-135627500D01*
X84722500Y-135840000D01*
X86310000Y-135840000D01*
X86310000Y-134252500D01*
X86097500Y-134040000D01*
X85360000Y-134035887D01*
X85193371Y-134052299D01*
X85033145Y-134100902D01*
X84885480Y-134179831D01*
X84756051Y-134286051D01*
X84649831Y-134415480D01*
X84570902Y-134563145D01*
X84522299Y-134723371D01*
X84505887Y-134890000D01*
X77250000Y-134890000D01*
X77250000Y-120380000D01*
X81965887Y-120380000D01*
X81982299Y-120546629D01*
X82030902Y-120706855D01*
X82109831Y-120854520D01*
X82216051Y-120983949D01*
X82345480Y-121090169D01*
X82493145Y-121169098D01*
X82653371Y-121217701D01*
X82820000Y-121234113D01*
X83557500Y-121230000D01*
X83770000Y-121017500D01*
X83770000Y-119430000D01*
X82182500Y-119430000D01*
X81970000Y-119642500D01*
X81965887Y-120380000D01*
X77250000Y-120380000D01*
X77250000Y-117840000D01*
X81965887Y-117840000D01*
X81982299Y-118006629D01*
X82013656Y-118110000D01*
X81982299Y-118213371D01*
X81965887Y-118380000D01*
X81970000Y-119117500D01*
X82182500Y-119330000D01*
X83770000Y-119330000D01*
X83770000Y-116890000D01*
X83870000Y-116890000D01*
X83870000Y-119330000D01*
X83890000Y-119330000D01*
X83890000Y-119430000D01*
X83870000Y-119430000D01*
X83870000Y-121017500D01*
X84082500Y-121230000D01*
X84820000Y-121234113D01*
X84986629Y-121217701D01*
X85090002Y-121186344D01*
X85193371Y-121217700D01*
X85360000Y-121234112D01*
X87360000Y-121234112D01*
X87526629Y-121217700D01*
X87550000Y-121210611D01*
X87550001Y-134059389D01*
X87526629Y-134052299D01*
X87360000Y-134035887D01*
X86622500Y-134040000D01*
X86410000Y-134252500D01*
X86410000Y-135840000D01*
X86430000Y-135840000D01*
X86430000Y-135940000D01*
X86410000Y-135940000D01*
X86410000Y-137527500D01*
X86622500Y-137740000D01*
X87360000Y-137744113D01*
X87526629Y-137727701D01*
X87550001Y-137720611D01*
X87550001Y-145983671D01*
X87543468Y-146050000D01*
X87569534Y-146314646D01*
X87646729Y-146569122D01*
X87772085Y-146803649D01*
X87898510Y-146957698D01*
X87898514Y-146957702D01*
X87940788Y-147009213D01*
X87992299Y-147051487D01*
X96696699Y-155755888D01*
X93940000Y-155755888D01*
X93773371Y-155772300D01*
X93613145Y-155820903D01*
X93465481Y-155899832D01*
X93336052Y-156006052D01*
X93229832Y-156135481D01*
X93150903Y-156283145D01*
X93102300Y-156443371D01*
X93085888Y-156610000D01*
X93085888Y-159610000D01*
X93102300Y-159776629D01*
X93150903Y-159936855D01*
X93229832Y-160084519D01*
X93336052Y-160213948D01*
X93465481Y-160320168D01*
X93613145Y-160399097D01*
X93773371Y-160447700D01*
X93940000Y-160464112D01*
X94090000Y-160464112D01*
X94090001Y-165223671D01*
X94083468Y-165290000D01*
X94109534Y-165554646D01*
X94186729Y-165809122D01*
X94312085Y-166043649D01*
X94438510Y-166197698D01*
X94438514Y-166197702D01*
X94480788Y-166249213D01*
X94532299Y-166291487D01*
X96788513Y-168547702D01*
X96830787Y-168599213D01*
X96882298Y-168641487D01*
X96882301Y-168641490D01*
X97036350Y-168767915D01*
X97108780Y-168806629D01*
X97270878Y-168893272D01*
X97525354Y-168970467D01*
X97723679Y-168990000D01*
X97723681Y-168990000D01*
X97790000Y-168996532D01*
X97856319Y-168990000D01*
X98055888Y-168990000D01*
X98055888Y-169140000D01*
X98072300Y-169306629D01*
X98120903Y-169466855D01*
X98199832Y-169614519D01*
X98220744Y-169640000D01*
X98199832Y-169665481D01*
X98120903Y-169813145D01*
X98072300Y-169973371D01*
X98055888Y-170140000D01*
X98055888Y-173140000D01*
X98072300Y-173306629D01*
X98120903Y-173466855D01*
X98199832Y-173614519D01*
X98306052Y-173743948D01*
X98435481Y-173850168D01*
X98583145Y-173929097D01*
X98743371Y-173977700D01*
X98910000Y-173994112D01*
X99060001Y-173994112D01*
X99060001Y-174073671D01*
X99053468Y-174140000D01*
X99079534Y-174404646D01*
X99156729Y-174659122D01*
X99282085Y-174893649D01*
X99408510Y-175047698D01*
X99408514Y-175047702D01*
X99450788Y-175099213D01*
X99502300Y-175141488D01*
X99893505Y-175532692D01*
X99935787Y-175584213D01*
X100141351Y-175752915D01*
X100375878Y-175878272D01*
X100630354Y-175955467D01*
X100828679Y-175975000D01*
X100828681Y-175975000D01*
X100895000Y-175981532D01*
X100961319Y-175975000D01*
X109858681Y-175975000D01*
X109925000Y-175981532D01*
X109991319Y-175975000D01*
X109991321Y-175975000D01*
X110189646Y-175955467D01*
X110444122Y-175878272D01*
X110678649Y-175752915D01*
X110884213Y-175584213D01*
X110926492Y-175532696D01*
X111317696Y-175141491D01*
X111369212Y-175099213D01*
X111537915Y-174893649D01*
X111663272Y-174659122D01*
X111740467Y-174404646D01*
X111760000Y-174206321D01*
X111760000Y-174206319D01*
X111766532Y-174140000D01*
X111760000Y-174073681D01*
X111760000Y-173994112D01*
X111910000Y-173994112D01*
X112076629Y-173977700D01*
X112236855Y-173929097D01*
X112384519Y-173850168D01*
X112513948Y-173743948D01*
X112620168Y-173614519D01*
X112699097Y-173466855D01*
X112747700Y-173306629D01*
X112764112Y-173140000D01*
X112764112Y-170140000D01*
X112747700Y-169973371D01*
X112699097Y-169813145D01*
X112620168Y-169665481D01*
X112599256Y-169640000D01*
X112620168Y-169614519D01*
X112699097Y-169466855D01*
X112747700Y-169306629D01*
X112764112Y-169140000D01*
X112764112Y-168990000D01*
X114233681Y-168990000D01*
X114300000Y-168996532D01*
X114366319Y-168990000D01*
X114366321Y-168990000D01*
X114564646Y-168970467D01*
X114819122Y-168893272D01*
X115053649Y-168767915D01*
X115209513Y-168640000D01*
X118795887Y-168640000D01*
X118812299Y-168806629D01*
X118860902Y-168966855D01*
X118939831Y-169114520D01*
X119046051Y-169243949D01*
X119175480Y-169350169D01*
X119323145Y-169429098D01*
X119483371Y-169477701D01*
X119650000Y-169494113D01*
X120387500Y-169490000D01*
X120600000Y-169277500D01*
X120600000Y-167690000D01*
X120700000Y-167690000D01*
X120700000Y-169277500D01*
X120912500Y-169490000D01*
X121650000Y-169494113D01*
X121816629Y-169477701D01*
X121976855Y-169429098D01*
X122124520Y-169350169D01*
X122253949Y-169243949D01*
X122360169Y-169114520D01*
X122439098Y-168966855D01*
X122487701Y-168806629D01*
X122504113Y-168640000D01*
X122500000Y-167902500D01*
X122287500Y-167690000D01*
X120700000Y-167690000D01*
X120600000Y-167690000D01*
X119012500Y-167690000D01*
X118800000Y-167902500D01*
X118795887Y-168640000D01*
X115209513Y-168640000D01*
X115259213Y-168599213D01*
X115301491Y-168547697D01*
X117209188Y-166640000D01*
X118795887Y-166640000D01*
X118800000Y-167377500D01*
X119012500Y-167590000D01*
X120600000Y-167590000D01*
X120600000Y-166002500D01*
X120700000Y-166002500D01*
X120700000Y-167590000D01*
X122287500Y-167590000D01*
X122500000Y-167377500D01*
X122504113Y-166640000D01*
X122487701Y-166473371D01*
X122439098Y-166313145D01*
X122360169Y-166165480D01*
X122253949Y-166036051D01*
X122124520Y-165929831D01*
X121976855Y-165850902D01*
X121816629Y-165802299D01*
X121650000Y-165785887D01*
X120912500Y-165790000D01*
X120700000Y-166002500D01*
X120600000Y-166002500D01*
X120387500Y-165790000D01*
X119650000Y-165785887D01*
X119483371Y-165802299D01*
X119323145Y-165850902D01*
X119175480Y-165929831D01*
X119046051Y-166036051D01*
X118939831Y-166165480D01*
X118860902Y-166313145D01*
X118812299Y-166473371D01*
X118795887Y-166640000D01*
X117209188Y-166640000D01*
X119017697Y-164831491D01*
X119069213Y-164789213D01*
X119142275Y-164700187D01*
X119237915Y-164583650D01*
X119357685Y-164359575D01*
X119483371Y-164397701D01*
X119650000Y-164414113D01*
X120387500Y-164410000D01*
X120600000Y-164197500D01*
X120600000Y-162610000D01*
X120700000Y-162610000D01*
X120700000Y-164197500D01*
X120912500Y-164410000D01*
X121650000Y-164414113D01*
X121816629Y-164397701D01*
X121976855Y-164349098D01*
X122124520Y-164270169D01*
X122253949Y-164163949D01*
X122360169Y-164034520D01*
X122439098Y-163886855D01*
X122487701Y-163726629D01*
X122504113Y-163560000D01*
X122500000Y-162822500D01*
X122287500Y-162610000D01*
X120700000Y-162610000D01*
X120600000Y-162610000D01*
X120580000Y-162610000D01*
X120580000Y-162510000D01*
X120600000Y-162510000D01*
X120600000Y-160922500D01*
X120700000Y-160922500D01*
X120700000Y-162510000D01*
X122287500Y-162510000D01*
X122500000Y-162297500D01*
X122504113Y-161560000D01*
X122487701Y-161393371D01*
X122439098Y-161233145D01*
X122360169Y-161085480D01*
X122253949Y-160956051D01*
X122124520Y-160849831D01*
X121976855Y-160770902D01*
X121816629Y-160722299D01*
X121650000Y-160705887D01*
X120912500Y-160710000D01*
X120700000Y-160922500D01*
X120600000Y-160922500D01*
X120387500Y-160710000D01*
X119650000Y-160705887D01*
X119483371Y-160722299D01*
X119460000Y-160729388D01*
X119460000Y-159972583D01*
X119519832Y-160084519D01*
X119626052Y-160213948D01*
X119755481Y-160320168D01*
X119903145Y-160399097D01*
X120063371Y-160447700D01*
X120230000Y-160464112D01*
X123110000Y-160464112D01*
X123110000Y-160783274D01*
X122985481Y-160849832D01*
X122856052Y-160956052D01*
X122749832Y-161085481D01*
X122670903Y-161233145D01*
X122622300Y-161393371D01*
X122605888Y-161560000D01*
X122605888Y-163560000D01*
X122622300Y-163726629D01*
X122670903Y-163886855D01*
X122749832Y-164034519D01*
X122856052Y-164163948D01*
X122985481Y-164270168D01*
X123133145Y-164349097D01*
X123293371Y-164397700D01*
X123460000Y-164414112D01*
X125460000Y-164414112D01*
X125626629Y-164397700D01*
X125786855Y-164349097D01*
X125934519Y-164270168D01*
X126063948Y-164163948D01*
X126170168Y-164034519D01*
X126249097Y-163886855D01*
X126297700Y-163726629D01*
X126314112Y-163560000D01*
X126314112Y-161560000D01*
X126297700Y-161393371D01*
X126249097Y-161233145D01*
X126170168Y-161085481D01*
X126063948Y-160956052D01*
X125934519Y-160849832D01*
X125810000Y-160783274D01*
X125810000Y-159972583D01*
X125869832Y-160084519D01*
X125976052Y-160213948D01*
X126105481Y-160320168D01*
X126253145Y-160399097D01*
X126413371Y-160447700D01*
X126580000Y-160464112D01*
X129580000Y-160464112D01*
X129746629Y-160447700D01*
X129906855Y-160399097D01*
X130054519Y-160320168D01*
X130183948Y-160213948D01*
X130290168Y-160084519D01*
X130369097Y-159936855D01*
X130417700Y-159776629D01*
X130434112Y-159610000D01*
X130434112Y-156610000D01*
X130417700Y-156443371D01*
X130369097Y-156283145D01*
X130290168Y-156135481D01*
X130183948Y-156006052D01*
X130054519Y-155899832D01*
X129906855Y-155820903D01*
X129746629Y-155772300D01*
X129580000Y-155755888D01*
X126580000Y-155755888D01*
X126413371Y-155772300D01*
X126253145Y-155820903D01*
X126105481Y-155899832D01*
X125976052Y-156006052D01*
X125869832Y-156135481D01*
X125813490Y-156240889D01*
X125816532Y-156209999D01*
X125810000Y-156143679D01*
X125790467Y-155945354D01*
X125713272Y-155690878D01*
X125587916Y-155456352D01*
X125587915Y-155456350D01*
X125461490Y-155302301D01*
X125461487Y-155302298D01*
X125419213Y-155250787D01*
X125367700Y-155208511D01*
X123080000Y-152920812D01*
X123080000Y-143964112D01*
X123230000Y-143964112D01*
X123396629Y-143947700D01*
X123556855Y-143899097D01*
X123704519Y-143820168D01*
X123833948Y-143713948D01*
X123940168Y-143584519D01*
X124019097Y-143436855D01*
X124067700Y-143276629D01*
X124084112Y-143110000D01*
X125725887Y-143110000D01*
X125742299Y-143276629D01*
X125790902Y-143436855D01*
X125869831Y-143584520D01*
X125976051Y-143713949D01*
X126105480Y-143820169D01*
X126253145Y-143899098D01*
X126413371Y-143947701D01*
X126580000Y-143964113D01*
X127817500Y-143960000D01*
X128030000Y-143747500D01*
X128030000Y-141660000D01*
X128130000Y-141660000D01*
X128130000Y-143747500D01*
X128342500Y-143960000D01*
X129580000Y-143964113D01*
X129746629Y-143947701D01*
X129906855Y-143899098D01*
X130054520Y-143820169D01*
X130183949Y-143713949D01*
X130290169Y-143584520D01*
X130369098Y-143436855D01*
X130417701Y-143276629D01*
X130434113Y-143110000D01*
X130430000Y-141872500D01*
X130217500Y-141660000D01*
X128130000Y-141660000D01*
X128030000Y-141660000D01*
X125942500Y-141660000D01*
X125730000Y-141872500D01*
X125725887Y-143110000D01*
X124084112Y-143110000D01*
X124084112Y-140110000D01*
X125725887Y-140110000D01*
X125730000Y-141347500D01*
X125942500Y-141560000D01*
X128030000Y-141560000D01*
X128030000Y-139472500D01*
X128130000Y-139472500D01*
X128130000Y-141560000D01*
X130217500Y-141560000D01*
X130430000Y-141347500D01*
X130434113Y-140110000D01*
X130417701Y-139943371D01*
X130369098Y-139783145D01*
X130290169Y-139635480D01*
X130183949Y-139506051D01*
X130054520Y-139399831D01*
X129906855Y-139320902D01*
X129746629Y-139272299D01*
X129580000Y-139255887D01*
X128342500Y-139260000D01*
X128130000Y-139472500D01*
X128030000Y-139472500D01*
X127817500Y-139260000D01*
X126580000Y-139255887D01*
X126413371Y-139272299D01*
X126253145Y-139320902D01*
X126105480Y-139399831D01*
X125976051Y-139506051D01*
X125869831Y-139635480D01*
X125790902Y-139783145D01*
X125742299Y-139943371D01*
X125725887Y-140110000D01*
X124084112Y-140110000D01*
X124067700Y-139943371D01*
X124019097Y-139783145D01*
X123940168Y-139635481D01*
X123833948Y-139506052D01*
X123704519Y-139399832D01*
X123556855Y-139320903D01*
X123396629Y-139272300D01*
X123230000Y-139255888D01*
X120230000Y-139255888D01*
X120063371Y-139272300D01*
X119903145Y-139320903D01*
X119755481Y-139399832D01*
X119626052Y-139506052D01*
X119519832Y-139635481D01*
X119440903Y-139783145D01*
X119392300Y-139943371D01*
X119375888Y-140110000D01*
X119375888Y-143110000D01*
X119392300Y-143276629D01*
X119440903Y-143436855D01*
X119519832Y-143584519D01*
X119626052Y-143713948D01*
X119755481Y-143820168D01*
X119903145Y-143899097D01*
X120063371Y-143947700D01*
X120230000Y-143964112D01*
X120380001Y-143964112D01*
X120380000Y-153413681D01*
X120373468Y-153480000D01*
X120380000Y-153546319D01*
X120380000Y-153546320D01*
X120399533Y-153744645D01*
X120476728Y-153999121D01*
X120476729Y-153999122D01*
X120602085Y-154233649D01*
X120728510Y-154387698D01*
X120728513Y-154387701D01*
X120770787Y-154439212D01*
X120822299Y-154481487D01*
X122096700Y-155755888D01*
X120230000Y-155755888D01*
X120063371Y-155772300D01*
X119903145Y-155820903D01*
X119755481Y-155899832D01*
X119626052Y-156006052D01*
X119519832Y-156135481D01*
X119463490Y-156240889D01*
X119466532Y-156209999D01*
X119460000Y-156143679D01*
X119440467Y-155945354D01*
X119363272Y-155690878D01*
X119237916Y-155456352D01*
X119237915Y-155456350D01*
X119111490Y-155302301D01*
X119111483Y-155302294D01*
X119069212Y-155250787D01*
X119017706Y-155208518D01*
X116730000Y-152920812D01*
X116730000Y-143964112D01*
X116880000Y-143964112D01*
X117046629Y-143947700D01*
X117206855Y-143899097D01*
X117354519Y-143820168D01*
X117483948Y-143713948D01*
X117590168Y-143584519D01*
X117669097Y-143436855D01*
X117717700Y-143276629D01*
X117734112Y-143110000D01*
X117734112Y-140110000D01*
X117717700Y-139943371D01*
X117669097Y-139783145D01*
X117590168Y-139635481D01*
X117483948Y-139506052D01*
X117354519Y-139399832D01*
X117206855Y-139320903D01*
X117046629Y-139272300D01*
X116880000Y-139255888D01*
X114113300Y-139255888D01*
X116129188Y-137240000D01*
X116333274Y-137240000D01*
X116399832Y-137364519D01*
X116506052Y-137493948D01*
X116635481Y-137600168D01*
X116783145Y-137679097D01*
X116943371Y-137727700D01*
X117110000Y-137744112D01*
X119110000Y-137744112D01*
X119276629Y-137727700D01*
X119436855Y-137679097D01*
X119584519Y-137600168D01*
X119713948Y-137493948D01*
X119820168Y-137364519D01*
X119886726Y-137240000D01*
X121413274Y-137240000D01*
X121479832Y-137364519D01*
X121586052Y-137493948D01*
X121715481Y-137600168D01*
X121863145Y-137679097D01*
X122023371Y-137727700D01*
X122190000Y-137744112D01*
X124190000Y-137744112D01*
X124356629Y-137727700D01*
X124516855Y-137679097D01*
X124664519Y-137600168D01*
X124793948Y-137493948D01*
X124900168Y-137364519D01*
X124979097Y-137216855D01*
X125027700Y-137056629D01*
X125044112Y-136890000D01*
X125044112Y-134890000D01*
X125027700Y-134723371D01*
X124979097Y-134563145D01*
X124900168Y-134415481D01*
X124793948Y-134286052D01*
X124664519Y-134179832D01*
X124516855Y-134100903D01*
X124356629Y-134052300D01*
X124190000Y-134035888D01*
X122190000Y-134035888D01*
X122023371Y-134052300D01*
X121863145Y-134100903D01*
X121715481Y-134179832D01*
X121586052Y-134286052D01*
X121479832Y-134415481D01*
X121413274Y-134540000D01*
X120017496Y-134540000D01*
X120133649Y-134477915D01*
X120339213Y-134309213D01*
X120381491Y-134257697D01*
X121557706Y-133081483D01*
X121609212Y-133039213D01*
X121651483Y-132987706D01*
X121651490Y-132987699D01*
X121777915Y-132833650D01*
X121844919Y-132708293D01*
X121897685Y-132609575D01*
X122023371Y-132647701D01*
X122190000Y-132664113D01*
X122927500Y-132660000D01*
X123140000Y-132447500D01*
X123140000Y-130860000D01*
X123240000Y-130860000D01*
X123240000Y-132447500D01*
X123452500Y-132660000D01*
X124190000Y-132664113D01*
X124356629Y-132647701D01*
X124516855Y-132599098D01*
X124664520Y-132520169D01*
X124793949Y-132413949D01*
X124900169Y-132284520D01*
X124979098Y-132136855D01*
X125027701Y-131976629D01*
X125044113Y-131810000D01*
X125040000Y-131072500D01*
X124827500Y-130860000D01*
X123240000Y-130860000D01*
X123140000Y-130860000D01*
X123120000Y-130860000D01*
X123120000Y-130760000D01*
X123140000Y-130760000D01*
X123140000Y-129172500D01*
X123240000Y-129172500D01*
X123240000Y-130760000D01*
X124827500Y-130760000D01*
X125040000Y-130547500D01*
X125044113Y-129810000D01*
X125027701Y-129643371D01*
X124979098Y-129483145D01*
X124900169Y-129335480D01*
X124793949Y-129206051D01*
X124664520Y-129099831D01*
X124516855Y-129020902D01*
X124356629Y-128972299D01*
X124190000Y-128955887D01*
X123452500Y-128960000D01*
X123240000Y-129172500D01*
X123140000Y-129172500D01*
X122927500Y-128960000D01*
X122190000Y-128955887D01*
X122023371Y-128972299D01*
X122000000Y-128979388D01*
X122000000Y-126289188D01*
X125367697Y-122921491D01*
X125419213Y-122879213D01*
X125492275Y-122790187D01*
X125587915Y-122673650D01*
X125713272Y-122439123D01*
X125769444Y-122253948D01*
X125790467Y-122184646D01*
X125810000Y-121986321D01*
X125810000Y-121986319D01*
X125816532Y-121920000D01*
X125810000Y-121853681D01*
X125810000Y-121210612D01*
X125833371Y-121217701D01*
X126000000Y-121234113D01*
X126737500Y-121230000D01*
X126950000Y-121017500D01*
X126950000Y-119430000D01*
X127050000Y-119430000D01*
X127050000Y-121017500D01*
X127262500Y-121230000D01*
X128000000Y-121234113D01*
X128166629Y-121217701D01*
X128326855Y-121169098D01*
X128474520Y-121090169D01*
X128603949Y-120983949D01*
X128710169Y-120854520D01*
X128789098Y-120706855D01*
X128837701Y-120546629D01*
X128854113Y-120380000D01*
X128850000Y-119642500D01*
X128637500Y-119430000D01*
X127050000Y-119430000D01*
X126950000Y-119430000D01*
X126930000Y-119430000D01*
X126930000Y-119330000D01*
X126950000Y-119330000D01*
X126950000Y-117742500D01*
X127050000Y-117742500D01*
X127050000Y-119330000D01*
X128637500Y-119330000D01*
X128850000Y-119117500D01*
X128854113Y-118380000D01*
X128837701Y-118213371D01*
X128789098Y-118053145D01*
X128710169Y-117905480D01*
X128603949Y-117776051D01*
X128474520Y-117669831D01*
X128326855Y-117590902D01*
X128166629Y-117542299D01*
X128000000Y-117525887D01*
X127262500Y-117530000D01*
X127050000Y-117742500D01*
X126950000Y-117742500D01*
X126737500Y-117530000D01*
X126000000Y-117525887D01*
X125833371Y-117542299D01*
X125810000Y-117549388D01*
X125810000Y-114806726D01*
X125934519Y-114740168D01*
X126063948Y-114633948D01*
X126170168Y-114504519D01*
X126236726Y-114380000D01*
X126493274Y-114380000D01*
X126559832Y-114504519D01*
X126666052Y-114633948D01*
X126795481Y-114740168D01*
X126943145Y-114819097D01*
X127103371Y-114867700D01*
X127270000Y-114884112D01*
X129270000Y-114884112D01*
X129436629Y-114867700D01*
X129596855Y-114819097D01*
X129744519Y-114740168D01*
X129873948Y-114633948D01*
X129980168Y-114504519D01*
X130059097Y-114356855D01*
X130107700Y-114196629D01*
X130124112Y-114030000D01*
X130124112Y-112030000D01*
X130107700Y-111863371D01*
X130059097Y-111703145D01*
X129980168Y-111555481D01*
X129873948Y-111426052D01*
X129744519Y-111319832D01*
X129596855Y-111240903D01*
X129436629Y-111192300D01*
X129270000Y-111175888D01*
X127270000Y-111175888D01*
X127103371Y-111192300D01*
X126943145Y-111240903D01*
X126795481Y-111319832D01*
X126666052Y-111426052D01*
X126559832Y-111555481D01*
X126493274Y-111680000D01*
X126236726Y-111680000D01*
X126170168Y-111555481D01*
X126063948Y-111426052D01*
X125934519Y-111319832D01*
X125786855Y-111240903D01*
X125626629Y-111192300D01*
X125460000Y-111175888D01*
X123460000Y-111175888D01*
X123293371Y-111192300D01*
X123190000Y-111223657D01*
X123086629Y-111192300D01*
X122920000Y-111175888D01*
X121103313Y-111175888D01*
X121198606Y-110875189D01*
X121238808Y-110512995D01*
X121207578Y-110149918D01*
X121106115Y-109799910D01*
X120938318Y-109476421D01*
X120912768Y-109438182D01*
X120579035Y-109361675D01*
X119450711Y-110490000D01*
X119464853Y-110504142D01*
X119394142Y-110574853D01*
X119380000Y-110560711D01*
X119365858Y-110574853D01*
X119295147Y-110504142D01*
X119309289Y-110490000D01*
X118180965Y-109361675D01*
X117847232Y-109438182D01*
X117671484Y-109757420D01*
X117561394Y-110104811D01*
X117521192Y-110467005D01*
X117552422Y-110830082D01*
X117652667Y-111175888D01*
X115840000Y-111175888D01*
X115673371Y-111192300D01*
X115513145Y-111240903D01*
X115365481Y-111319832D01*
X115236052Y-111426052D01*
X115129832Y-111555481D01*
X115050903Y-111703145D01*
X115002300Y-111863371D01*
X114985888Y-112030000D01*
X114985888Y-114030000D01*
X115002300Y-114196629D01*
X115050903Y-114356855D01*
X115129832Y-114504519D01*
X115236052Y-114633948D01*
X115365481Y-114740168D01*
X115490000Y-114806726D01*
X115490001Y-117603274D01*
X115365481Y-117669832D01*
X115236052Y-117776052D01*
X115129832Y-117905481D01*
X115050903Y-118053145D01*
X115002300Y-118213371D01*
X114985888Y-118380000D01*
X114985888Y-120380000D01*
X115002300Y-120546629D01*
X115050903Y-120706855D01*
X115129832Y-120854519D01*
X115236052Y-120983948D01*
X115365481Y-121090168D01*
X115513145Y-121169097D01*
X115673371Y-121217700D01*
X115840000Y-121234112D01*
X117840000Y-121234112D01*
X118006629Y-121217700D01*
X118110000Y-121186343D01*
X118213371Y-121217700D01*
X118380000Y-121234112D01*
X120380000Y-121234112D01*
X120546629Y-121217700D01*
X120650000Y-121186343D01*
X120753371Y-121217700D01*
X120920000Y-121234112D01*
X122920000Y-121234112D01*
X123086629Y-121217700D01*
X123110001Y-121210610D01*
X123110001Y-121360811D01*
X119742299Y-124728513D01*
X119690788Y-124770787D01*
X119648514Y-124822298D01*
X119648510Y-124822302D01*
X119522085Y-124976351D01*
X119396729Y-125210878D01*
X119319534Y-125465354D01*
X119293468Y-125730000D01*
X119300001Y-125796329D01*
X119300000Y-128979390D01*
X119276629Y-128972300D01*
X119110000Y-128955888D01*
X117110000Y-128955888D01*
X116943371Y-128972300D01*
X116783145Y-129020903D01*
X116635481Y-129099832D01*
X116506052Y-129206052D01*
X116399832Y-129335481D01*
X116333274Y-129460000D01*
X116076726Y-129460000D01*
X116010168Y-129335481D01*
X115903948Y-129206052D01*
X115774519Y-129099832D01*
X115626855Y-129020903D01*
X115466629Y-128972300D01*
X115300000Y-128955888D01*
X113300000Y-128955888D01*
X113133371Y-128972300D01*
X113110000Y-128979389D01*
X113110000Y-123256320D01*
X113116532Y-123190000D01*
X113110000Y-123123679D01*
X113110000Y-116906310D01*
X113116531Y-116839999D01*
X113110000Y-116773688D01*
X113110000Y-116773679D01*
X113090467Y-116575354D01*
X113013272Y-116320878D01*
X112915362Y-116137700D01*
X112887915Y-116086350D01*
X112761490Y-115932301D01*
X112761487Y-115932298D01*
X112719213Y-115880787D01*
X112667702Y-115838513D01*
X111713300Y-114884112D01*
X112760000Y-114884112D01*
X112926629Y-114867700D01*
X113086855Y-114819097D01*
X113234519Y-114740168D01*
X113363948Y-114633948D01*
X113470168Y-114504519D01*
X113549097Y-114356855D01*
X113597700Y-114196629D01*
X113614112Y-114030000D01*
X113614112Y-112030000D01*
X113597700Y-111863371D01*
X113549097Y-111703145D01*
X113470168Y-111555481D01*
X113363948Y-111426052D01*
X113234519Y-111319832D01*
X113086855Y-111240903D01*
X112926629Y-111192300D01*
X112760000Y-111175888D01*
X110760000Y-111175888D01*
X110593371Y-111192300D01*
X110490000Y-111223657D01*
X110386629Y-111192300D01*
X110220000Y-111175888D01*
X108220000Y-111175888D01*
X108053371Y-111192300D01*
X107893145Y-111240903D01*
X107745481Y-111319832D01*
X107616052Y-111426052D01*
X107509832Y-111555481D01*
X107430903Y-111703145D01*
X107382300Y-111863371D01*
X107365888Y-112030000D01*
X107365888Y-113076700D01*
X106760000Y-112470812D01*
X106760000Y-110517578D01*
X106793371Y-110527701D01*
X106960000Y-110544113D01*
X108447500Y-110540000D01*
X108660000Y-110327500D01*
X108660000Y-107990000D01*
X108760000Y-107990000D01*
X108760000Y-110327500D01*
X108972500Y-110540000D01*
X110460000Y-110544113D01*
X110626629Y-110527701D01*
X110786855Y-110479098D01*
X110934520Y-110400169D01*
X111063949Y-110293949D01*
X111170169Y-110164520D01*
X111249098Y-110016855D01*
X111297701Y-109856629D01*
X111314113Y-109690000D01*
X111313010Y-109290965D01*
X118251675Y-109290965D01*
X119380000Y-110419289D01*
X120508325Y-109290965D01*
X120431818Y-108957232D01*
X120418682Y-108950000D01*
X126415887Y-108950000D01*
X126432299Y-109116629D01*
X126480902Y-109276855D01*
X126559831Y-109424520D01*
X126666051Y-109553949D01*
X126795480Y-109660169D01*
X126943145Y-109739098D01*
X127103371Y-109787701D01*
X127270000Y-109804113D01*
X128007500Y-109800000D01*
X128220000Y-109587500D01*
X128220000Y-108000000D01*
X128320000Y-108000000D01*
X128320000Y-109587500D01*
X128532500Y-109800000D01*
X129270000Y-109804113D01*
X129436629Y-109787701D01*
X129596855Y-109739098D01*
X129744520Y-109660169D01*
X129873949Y-109553949D01*
X129980169Y-109424520D01*
X130059098Y-109276855D01*
X130107701Y-109116629D01*
X130124113Y-108950000D01*
X130120000Y-108212500D01*
X129907500Y-108000000D01*
X128320000Y-108000000D01*
X128220000Y-108000000D01*
X126632500Y-108000000D01*
X126420000Y-108212500D01*
X126415887Y-108950000D01*
X120418682Y-108950000D01*
X120112580Y-108781484D01*
X119765189Y-108671394D01*
X119402995Y-108631192D01*
X119039918Y-108662422D01*
X118689910Y-108763885D01*
X118366421Y-108931682D01*
X118328182Y-108957232D01*
X118251675Y-109290965D01*
X111313010Y-109290965D01*
X111310000Y-108202500D01*
X111097500Y-107990000D01*
X108760000Y-107990000D01*
X108660000Y-107990000D01*
X108640000Y-107990000D01*
X108640000Y-107890000D01*
X108660000Y-107890000D01*
X108660000Y-105552500D01*
X108760000Y-105552500D01*
X108760000Y-107890000D01*
X111097500Y-107890000D01*
X111310000Y-107677500D01*
X111312011Y-106950000D01*
X126415887Y-106950000D01*
X126420000Y-107687500D01*
X126632500Y-107900000D01*
X128220000Y-107900000D01*
X128220000Y-106312500D01*
X128320000Y-106312500D01*
X128320000Y-107900000D01*
X129907500Y-107900000D01*
X130120000Y-107687500D01*
X130124113Y-106950000D01*
X130107701Y-106783371D01*
X130059098Y-106623145D01*
X129980169Y-106475480D01*
X129873949Y-106346051D01*
X129744520Y-106239831D01*
X129596855Y-106160902D01*
X129436629Y-106112299D01*
X129270000Y-106095887D01*
X128532500Y-106100000D01*
X128320000Y-106312500D01*
X128220000Y-106312500D01*
X128007500Y-106100000D01*
X127270000Y-106095887D01*
X127103371Y-106112299D01*
X126943145Y-106160902D01*
X126795480Y-106239831D01*
X126666051Y-106346051D01*
X126559831Y-106475480D01*
X126480902Y-106623145D01*
X126432299Y-106783371D01*
X126415887Y-106950000D01*
X111312011Y-106950000D01*
X111314113Y-106190000D01*
X111297701Y-106023371D01*
X111249098Y-105863145D01*
X111170169Y-105715480D01*
X111063949Y-105586051D01*
X110934520Y-105479831D01*
X110786855Y-105400902D01*
X110626629Y-105352299D01*
X110460000Y-105335887D01*
X108972500Y-105340000D01*
X108760000Y-105552500D01*
X108660000Y-105552500D01*
X108447500Y-105340000D01*
X106960000Y-105335887D01*
X106793371Y-105352299D01*
X106760000Y-105362422D01*
X106760000Y-104944112D01*
X107160000Y-104944112D01*
X107326629Y-104927700D01*
X107486855Y-104879097D01*
X107634519Y-104800168D01*
X107763948Y-104693948D01*
X107870168Y-104564519D01*
X107949097Y-104416855D01*
X107997700Y-104256629D01*
X108001161Y-104221492D01*
X108016310Y-104220000D01*
X117603274Y-104220000D01*
X117669832Y-104344519D01*
X117776052Y-104473948D01*
X117905481Y-104580168D01*
X118053145Y-104659097D01*
X118213371Y-104707700D01*
X118380000Y-104724112D01*
X120380000Y-104724112D01*
X120546629Y-104707700D01*
X120650000Y-104676343D01*
X120753371Y-104707700D01*
X120920000Y-104724112D01*
X122920000Y-104724112D01*
X123086629Y-104707700D01*
X123189998Y-104676344D01*
X123293371Y-104707701D01*
X123460000Y-104724113D01*
X124197500Y-104720000D01*
X124410000Y-104507500D01*
X124410000Y-102920000D01*
X124510000Y-102920000D01*
X124510000Y-104507500D01*
X124722500Y-104720000D01*
X125460000Y-104724113D01*
X125626629Y-104707701D01*
X125786855Y-104659098D01*
X125934520Y-104580169D01*
X126063949Y-104473949D01*
X126170169Y-104344520D01*
X126249098Y-104196855D01*
X126297701Y-104036629D01*
X126314113Y-103870000D01*
X126310000Y-103132500D01*
X126097500Y-102920000D01*
X124510000Y-102920000D01*
X124410000Y-102920000D01*
X124390000Y-102920000D01*
X124390000Y-102820000D01*
X124410000Y-102820000D01*
X124410000Y-101232500D01*
X124510000Y-101232500D01*
X124510000Y-102820000D01*
X126097500Y-102820000D01*
X126310000Y-102607500D01*
X126314113Y-101870000D01*
X126297701Y-101703371D01*
X126249098Y-101543145D01*
X126170169Y-101395480D01*
X126063949Y-101266051D01*
X125934520Y-101159831D01*
X125786855Y-101080902D01*
X125626629Y-101032299D01*
X125460000Y-101015887D01*
X124722500Y-101020000D01*
X124510000Y-101232500D01*
X124410000Y-101232500D01*
X124197500Y-101020000D01*
X123460000Y-101015887D01*
X123293371Y-101032299D01*
X123189998Y-101063656D01*
X123086629Y-101032300D01*
X122920000Y-101015888D01*
X120920000Y-101015888D01*
X120753371Y-101032300D01*
X120650000Y-101063657D01*
X120546629Y-101032300D01*
X120380000Y-101015888D01*
X118380000Y-101015888D01*
X118213371Y-101032300D01*
X118053145Y-101080903D01*
X117905481Y-101159832D01*
X117776052Y-101266052D01*
X117669832Y-101395481D01*
X117603274Y-101520000D01*
X108509188Y-101520000D01*
X108421490Y-101432302D01*
X108379213Y-101380787D01*
X108173649Y-101212085D01*
X108014112Y-101126811D01*
X108014112Y-100590000D01*
X107997700Y-100423371D01*
X107949097Y-100263145D01*
X107870168Y-100115481D01*
X107763948Y-99986052D01*
X107634519Y-99879832D01*
X107486855Y-99800903D01*
X107326629Y-99752300D01*
X107160000Y-99735888D01*
X103660000Y-99735888D01*
X103493371Y-99752300D01*
X103333145Y-99800903D01*
X103185481Y-99879832D01*
X103056052Y-99986052D01*
X102949832Y-100115481D01*
X102870903Y-100263145D01*
X102822300Y-100423371D01*
X102805888Y-100590000D01*
X102805888Y-100990000D01*
X101629188Y-100990000D01*
X101331491Y-100692303D01*
X101289213Y-100640787D01*
X101083649Y-100472085D01*
X100849122Y-100346728D01*
X100594646Y-100269533D01*
X100396321Y-100250000D01*
X100396319Y-100250000D01*
X100330000Y-100243468D01*
X100263681Y-100250000D01*
X99566726Y-100250000D01*
X99500168Y-100125481D01*
X99393948Y-99996052D01*
X99264519Y-99889832D01*
X99116855Y-99810903D01*
X99029049Y-99784268D01*
X98917915Y-99576351D01*
X98797354Y-99429448D01*
X98791489Y-99422301D01*
X98791487Y-99422299D01*
X98749212Y-99370787D01*
X98697701Y-99328513D01*
X97633344Y-98264156D01*
X97740000Y-98157500D01*
X97740000Y-96570000D01*
X97840000Y-96570000D01*
X97840000Y-98157500D01*
X98052500Y-98370000D01*
X98790000Y-98374113D01*
X98956629Y-98357701D01*
X99116855Y-98309098D01*
X99264520Y-98230169D01*
X99393949Y-98123949D01*
X99500169Y-97994520D01*
X99579098Y-97846855D01*
X99627701Y-97686629D01*
X99644113Y-97520000D01*
X99640000Y-96782500D01*
X99427500Y-96570000D01*
X97840000Y-96570000D01*
X97740000Y-96570000D01*
X96152500Y-96570000D01*
X96034827Y-96687673D01*
X96003649Y-96662085D01*
X95769122Y-96536728D01*
X95514646Y-96459533D01*
X95316321Y-96440000D01*
X95316319Y-96440000D01*
X95250000Y-96433468D01*
X95240681Y-96434386D01*
X95159306Y-96353011D01*
X94856303Y-96150552D01*
X94519625Y-96011095D01*
X94162209Y-95940000D01*
X93797791Y-95940000D01*
X93440375Y-96011095D01*
X93103697Y-96150552D01*
X92800694Y-96353011D01*
X92543011Y-96610694D01*
X92340552Y-96913697D01*
X92201095Y-97250375D01*
X92130000Y-97607791D01*
X92130000Y-97972209D01*
X92201095Y-98329625D01*
X92340552Y-98666303D01*
X92543011Y-98969306D01*
X92800694Y-99226989D01*
X93103697Y-99429448D01*
X93440375Y-99568905D01*
X93797791Y-99640000D01*
X94162209Y-99640000D01*
X94519625Y-99568905D01*
X94856303Y-99429448D01*
X94930610Y-99379798D01*
X95959720Y-100408908D01*
X95952300Y-100433371D01*
X95935888Y-100600000D01*
X95935888Y-102600000D01*
X95952300Y-102766629D01*
X96000903Y-102926855D01*
X96079832Y-103074519D01*
X96186052Y-103203948D01*
X96315481Y-103310168D01*
X96463145Y-103389097D01*
X96623371Y-103437700D01*
X96790000Y-103454112D01*
X98790000Y-103454112D01*
X98956629Y-103437700D01*
X99116855Y-103389097D01*
X99264519Y-103310168D01*
X99393948Y-103203948D01*
X99500168Y-103074519D01*
X99566726Y-102950000D01*
X99770812Y-102950000D01*
X100068509Y-103247697D01*
X100110787Y-103299213D01*
X100316351Y-103467915D01*
X100550878Y-103593272D01*
X100805354Y-103670467D01*
X101003679Y-103690000D01*
X101003680Y-103690000D01*
X101069999Y-103696532D01*
X101136318Y-103690000D01*
X102805888Y-103690000D01*
X102805888Y-104090000D01*
X102822300Y-104256629D01*
X102870903Y-104416855D01*
X102949832Y-104564519D01*
X103056052Y-104693948D01*
X103185481Y-104800168D01*
X103333145Y-104879097D01*
X103493371Y-104927700D01*
X103660000Y-104944112D01*
X104060001Y-104944112D01*
X104060001Y-105362423D01*
X104026629Y-105352300D01*
X103860000Y-105335888D01*
X100360000Y-105335888D01*
X100193371Y-105352300D01*
X100033145Y-105400903D01*
X99885481Y-105479832D01*
X99756052Y-105586052D01*
X99649832Y-105715481D01*
X99570903Y-105863145D01*
X99522300Y-106023371D01*
X99505888Y-106190000D01*
X99505888Y-106486182D01*
X99500168Y-106475481D01*
X99393948Y-106346052D01*
X99264519Y-106239832D01*
X99116855Y-106160903D01*
X98956629Y-106112300D01*
X98790000Y-106095888D01*
X96790000Y-106095888D01*
X96623371Y-106112300D01*
X96463145Y-106160903D01*
X96315481Y-106239832D01*
X96186052Y-106346052D01*
X96079832Y-106475481D01*
X96000903Y-106623145D01*
X95952300Y-106783371D01*
X95935888Y-106950000D01*
X95935888Y-108950000D01*
X95952300Y-109116629D01*
X96000903Y-109276855D01*
X96079832Y-109424519D01*
X96186052Y-109553948D01*
X96315481Y-109660168D01*
X96463145Y-109739097D01*
X96623371Y-109787700D01*
X96790000Y-109804112D01*
X98790000Y-109804112D01*
X98956629Y-109787700D01*
X99116855Y-109739097D01*
X99264519Y-109660168D01*
X99393948Y-109553948D01*
X99500168Y-109424519D01*
X99505888Y-109413818D01*
X99505888Y-109690000D01*
X99522300Y-109856629D01*
X99570903Y-110016855D01*
X99649832Y-110164519D01*
X99756052Y-110293948D01*
X99885481Y-110400168D01*
X100033145Y-110479097D01*
X100193371Y-110527700D01*
X100360000Y-110544112D01*
X103860000Y-110544112D01*
X104026629Y-110527700D01*
X104060000Y-110517577D01*
X104060000Y-112963679D01*
X104053468Y-113030000D01*
X104060000Y-113096319D01*
X104060000Y-113096320D01*
X104079533Y-113294645D01*
X104156728Y-113549121D01*
X104215081Y-113658292D01*
X104282085Y-113783649D01*
X104408510Y-113937698D01*
X104408513Y-113937701D01*
X104450787Y-113989212D01*
X104502299Y-114031487D01*
X106948509Y-116477697D01*
X106990787Y-116529213D01*
X107196351Y-116697915D01*
X107420426Y-116817685D01*
X107404268Y-116870951D01*
X107349050Y-116900466D01*
X107196350Y-116982085D01*
X107042301Y-117108510D01*
X107042298Y-117108513D01*
X106990787Y-117150787D01*
X106948513Y-117202298D01*
X105772299Y-118378513D01*
X105720787Y-118420788D01*
X105678513Y-118472299D01*
X105678510Y-118472302D01*
X105552085Y-118626351D01*
X105515866Y-118694113D01*
X105426728Y-118860879D01*
X105349533Y-119115355D01*
X105339915Y-119213011D01*
X105323468Y-119380000D01*
X105330000Y-119446319D01*
X105330001Y-125663669D01*
X105323468Y-125730000D01*
X105330000Y-125796321D01*
X105330000Y-126362504D01*
X105267915Y-126246350D01*
X105141490Y-126092301D01*
X105141483Y-126092294D01*
X105099212Y-126040787D01*
X105047706Y-125998517D01*
X103871490Y-124822302D01*
X103829213Y-124770787D01*
X103623649Y-124602085D01*
X103415732Y-124490951D01*
X103406343Y-124460000D01*
X103437700Y-124356629D01*
X103454112Y-124190000D01*
X103454112Y-122190000D01*
X103437700Y-122023371D01*
X103389097Y-121863145D01*
X103310168Y-121715481D01*
X103203948Y-121586052D01*
X103201092Y-121583708D01*
X103239448Y-121526303D01*
X103378905Y-121189625D01*
X103450000Y-120832209D01*
X103450000Y-120467791D01*
X103378905Y-120110375D01*
X103239448Y-119773697D01*
X103036989Y-119470694D01*
X102779306Y-119213011D01*
X102476303Y-119010552D01*
X102139625Y-118871095D01*
X101782209Y-118800000D01*
X101417791Y-118800000D01*
X101060375Y-118871095D01*
X100914112Y-118931679D01*
X100914112Y-117110000D01*
X100897700Y-116943371D01*
X100849097Y-116783145D01*
X100770168Y-116635481D01*
X100663948Y-116506052D01*
X100534519Y-116399832D01*
X100410000Y-116333274D01*
X100410000Y-114806726D01*
X100534519Y-114740168D01*
X100663948Y-114633948D01*
X100770168Y-114504519D01*
X100849097Y-114356855D01*
X100897700Y-114196629D01*
X100914112Y-114030000D01*
X100914112Y-112030000D01*
X100897700Y-111863371D01*
X100849097Y-111703145D01*
X100770168Y-111555481D01*
X100663948Y-111426052D01*
X100534519Y-111319832D01*
X100386855Y-111240903D01*
X100226629Y-111192300D01*
X100060000Y-111175888D01*
X98060000Y-111175888D01*
X97893371Y-111192300D01*
X97733145Y-111240903D01*
X97585481Y-111319832D01*
X97456052Y-111426052D01*
X97349832Y-111555481D01*
X97270903Y-111703145D01*
X97222300Y-111863371D01*
X97205888Y-112030000D01*
X97205888Y-114030000D01*
X97222300Y-114196629D01*
X97270903Y-114356855D01*
X97349832Y-114504519D01*
X97456052Y-114633948D01*
X97585481Y-114740168D01*
X97710000Y-114806726D01*
X97710001Y-116333274D01*
X97585481Y-116399832D01*
X97456052Y-116506052D01*
X97349832Y-116635481D01*
X97270903Y-116783145D01*
X97222300Y-116943371D01*
X97205888Y-117110000D01*
X97205888Y-119110000D01*
X97222300Y-119276629D01*
X97270903Y-119436855D01*
X97349832Y-119584519D01*
X97456052Y-119713948D01*
X97585481Y-119820168D01*
X97710000Y-119886726D01*
X97710001Y-121853671D01*
X97703468Y-121920000D01*
X97729534Y-122184646D01*
X97806729Y-122439122D01*
X97932085Y-122673649D01*
X98058510Y-122827698D01*
X98058514Y-122827702D01*
X98100788Y-122879213D01*
X98152299Y-122921487D01*
X99234709Y-124003898D01*
X99116855Y-123940903D01*
X98956629Y-123892300D01*
X98790000Y-123875888D01*
X96790000Y-123875888D01*
X96623371Y-123892300D01*
X96463145Y-123940903D01*
X96315481Y-124019832D01*
X96186052Y-124126052D01*
X96079832Y-124255481D01*
X96013274Y-124380000D01*
X95756726Y-124380000D01*
X95690168Y-124255481D01*
X95583948Y-124126052D01*
X95454519Y-124019832D01*
X95330000Y-123953274D01*
X95330000Y-121156726D01*
X95454519Y-121090168D01*
X95583948Y-120983948D01*
X95690168Y-120854519D01*
X95769097Y-120706855D01*
X95817700Y-120546629D01*
X95834112Y-120380000D01*
X95834112Y-118380000D01*
X95817700Y-118213371D01*
X95769097Y-118053145D01*
X95690168Y-117905481D01*
X95583948Y-117776052D01*
X95581092Y-117773708D01*
X95619448Y-117716303D01*
X95758905Y-117379625D01*
X95830000Y-117022209D01*
X95830000Y-116657791D01*
X95758905Y-116300375D01*
X95619448Y-115963697D01*
X95581092Y-115906292D01*
X95583948Y-115903948D01*
X95690168Y-115774519D01*
X95769097Y-115626855D01*
X95817700Y-115466629D01*
X95834112Y-115300000D01*
X95834112Y-113300000D01*
X95817700Y-113133371D01*
X95769097Y-112973145D01*
X95690168Y-112825481D01*
X95583948Y-112696052D01*
X95454519Y-112589832D01*
X95306855Y-112510903D01*
X95146629Y-112462300D01*
X94980000Y-112445888D01*
X92980000Y-112445888D01*
X92813371Y-112462300D01*
X92653145Y-112510903D01*
X92505481Y-112589832D01*
X92376052Y-112696052D01*
X92269832Y-112825481D01*
X92190903Y-112973145D01*
X92142300Y-113133371D01*
X92125888Y-113300000D01*
X92125888Y-115300000D01*
X92142300Y-115466629D01*
X92190903Y-115626855D01*
X92269832Y-115774519D01*
X92376052Y-115903948D01*
X92378908Y-115906292D01*
X92340552Y-115963697D01*
X92201095Y-116300375D01*
X92130000Y-116657791D01*
X92130000Y-117022209D01*
X92201095Y-117379625D01*
X92262090Y-117526879D01*
X91702500Y-117530000D01*
X91490000Y-117742500D01*
X91490000Y-119330000D01*
X91510000Y-119330000D01*
X91510000Y-119430000D01*
X91490000Y-119430000D01*
X91490000Y-121017500D01*
X91702500Y-121230000D01*
X92440000Y-121234113D01*
X92606629Y-121217701D01*
X92630000Y-121210612D01*
X92630001Y-123953274D01*
X92505481Y-124019832D01*
X92376052Y-124126052D01*
X92269832Y-124255481D01*
X92190903Y-124403145D01*
X92142300Y-124563371D01*
X92125888Y-124730000D01*
X92125888Y-126730000D01*
X92142300Y-126896629D01*
X92190903Y-127056855D01*
X92269832Y-127204519D01*
X92376052Y-127333948D01*
X92505481Y-127440168D01*
X92653145Y-127519097D01*
X92813371Y-127567700D01*
X92980000Y-127584112D01*
X94980000Y-127584112D01*
X95146629Y-127567700D01*
X95306855Y-127519097D01*
X95454519Y-127440168D01*
X95583948Y-127333948D01*
X95690168Y-127204519D01*
X95756726Y-127080000D01*
X96013274Y-127080000D01*
X96079832Y-127204519D01*
X96186052Y-127333948D01*
X96315481Y-127440168D01*
X96463145Y-127519097D01*
X96623371Y-127567700D01*
X96790000Y-127584112D01*
X98790000Y-127584112D01*
X98956629Y-127567700D01*
X99116855Y-127519097D01*
X99264519Y-127440168D01*
X99393948Y-127333948D01*
X99500168Y-127204519D01*
X99579097Y-127056855D01*
X99627700Y-126896629D01*
X99644112Y-126730000D01*
X99644112Y-124730000D01*
X99627700Y-124563371D01*
X99579097Y-124403145D01*
X99500168Y-124255481D01*
X99499949Y-124255214D01*
X99576350Y-124317915D01*
X99692504Y-124380000D01*
X99784268Y-124429049D01*
X99793657Y-124460000D01*
X99762300Y-124563371D01*
X99745888Y-124730000D01*
X99745888Y-126730000D01*
X99762300Y-126896629D01*
X99793656Y-126999998D01*
X99762299Y-127103371D01*
X99745887Y-127270000D01*
X99750000Y-128007500D01*
X99962500Y-128220000D01*
X101550000Y-128220000D01*
X101550000Y-128200000D01*
X101650000Y-128200000D01*
X101650000Y-128220000D01*
X101670000Y-128220000D01*
X101670000Y-128320000D01*
X101650000Y-128320000D01*
X101650000Y-129907500D01*
X101862500Y-130120000D01*
X102285888Y-130122361D01*
X102285888Y-131810000D01*
X102302300Y-131976629D01*
X102333657Y-132080000D01*
X102302300Y-132183371D01*
X102285888Y-132350000D01*
X102285888Y-134350000D01*
X102302300Y-134516629D01*
X102333657Y-134620000D01*
X102302300Y-134723371D01*
X102285888Y-134890000D01*
X102285888Y-136890000D01*
X102302300Y-137056629D01*
X102350903Y-137216855D01*
X102429832Y-137364519D01*
X102536052Y-137493948D01*
X102665481Y-137600168D01*
X102813145Y-137679097D01*
X102973371Y-137727700D01*
X103140000Y-137744112D01*
X105140000Y-137744112D01*
X105306629Y-137727700D01*
X105466855Y-137679097D01*
X105614519Y-137600168D01*
X105743948Y-137493948D01*
X105850168Y-137364519D01*
X105929097Y-137216855D01*
X105955732Y-137129049D01*
X106163649Y-137017915D01*
X106369213Y-136849213D01*
X106411491Y-136797697D01*
X107587702Y-135621487D01*
X107639213Y-135579213D01*
X107681487Y-135527702D01*
X107681490Y-135527699D01*
X107807915Y-135373650D01*
X107898534Y-135204112D01*
X107933272Y-135139122D01*
X108010467Y-134884646D01*
X108030000Y-134686321D01*
X108030000Y-134686312D01*
X108036531Y-134620001D01*
X108030000Y-134553690D01*
X108030000Y-130100611D01*
X108053371Y-130107700D01*
X108220000Y-130124112D01*
X110220000Y-130124112D01*
X110386629Y-130107700D01*
X110410001Y-130100610D01*
X110410001Y-135330811D01*
X107042299Y-138698513D01*
X106992895Y-138739058D01*
X106846989Y-138520694D01*
X106589306Y-138263011D01*
X106286303Y-138060552D01*
X105949625Y-137921095D01*
X105592209Y-137850000D01*
X105227791Y-137850000D01*
X104870375Y-137921095D01*
X104533697Y-138060552D01*
X104230694Y-138263011D01*
X104143705Y-138350000D01*
X99619189Y-138350000D01*
X98791489Y-137522301D01*
X98749213Y-137470787D01*
X98543649Y-137302085D01*
X98309122Y-137176728D01*
X98054646Y-137099533D01*
X97856321Y-137080000D01*
X97856319Y-137080000D01*
X97790000Y-137073468D01*
X97723681Y-137080000D01*
X95810611Y-137080000D01*
X95817700Y-137056629D01*
X95834112Y-136890000D01*
X95834112Y-134890000D01*
X95817700Y-134723371D01*
X95769097Y-134563145D01*
X95690168Y-134415481D01*
X95583948Y-134286052D01*
X95454519Y-134179832D01*
X95330000Y-134113274D01*
X95330000Y-132586726D01*
X95454519Y-132520168D01*
X95583948Y-132413948D01*
X95690168Y-132284519D01*
X95769097Y-132136855D01*
X95817700Y-131976629D01*
X95834112Y-131810000D01*
X95935887Y-131810000D01*
X95952299Y-131976629D01*
X96000902Y-132136855D01*
X96079831Y-132284520D01*
X96186051Y-132413949D01*
X96315480Y-132520169D01*
X96463145Y-132599098D01*
X96623371Y-132647701D01*
X96790000Y-132664113D01*
X97527500Y-132660000D01*
X97740000Y-132447500D01*
X97740000Y-130860000D01*
X97840000Y-130860000D01*
X97840000Y-132447500D01*
X98052500Y-132660000D01*
X98790000Y-132664113D01*
X98956629Y-132647701D01*
X99116855Y-132599098D01*
X99264520Y-132520169D01*
X99393949Y-132413949D01*
X99500169Y-132284520D01*
X99579098Y-132136855D01*
X99627701Y-131976629D01*
X99644113Y-131810000D01*
X99640000Y-131072500D01*
X99427500Y-130860000D01*
X97840000Y-130860000D01*
X97740000Y-130860000D01*
X96152500Y-130860000D01*
X95940000Y-131072500D01*
X95935887Y-131810000D01*
X95834112Y-131810000D01*
X95834112Y-129810000D01*
X95935887Y-129810000D01*
X95940000Y-130547500D01*
X96152500Y-130760000D01*
X97740000Y-130760000D01*
X97740000Y-129172500D01*
X97840000Y-129172500D01*
X97840000Y-130760000D01*
X99427500Y-130760000D01*
X99640000Y-130547500D01*
X99644113Y-129810000D01*
X99627701Y-129643371D01*
X99579098Y-129483145D01*
X99500169Y-129335480D01*
X99446431Y-129270000D01*
X99745887Y-129270000D01*
X99762299Y-129436629D01*
X99810902Y-129596855D01*
X99889831Y-129744520D01*
X99996051Y-129873949D01*
X100125480Y-129980169D01*
X100273145Y-130059098D01*
X100433371Y-130107701D01*
X100600000Y-130124113D01*
X101337500Y-130120000D01*
X101550000Y-129907500D01*
X101550000Y-128320000D01*
X99962500Y-128320000D01*
X99750000Y-128532500D01*
X99745887Y-129270000D01*
X99446431Y-129270000D01*
X99393949Y-129206051D01*
X99264520Y-129099831D01*
X99116855Y-129020902D01*
X98956629Y-128972299D01*
X98790000Y-128955887D01*
X98052500Y-128960000D01*
X97840000Y-129172500D01*
X97740000Y-129172500D01*
X97527500Y-128960000D01*
X96790000Y-128955887D01*
X96623371Y-128972299D01*
X96463145Y-129020902D01*
X96315480Y-129099831D01*
X96186051Y-129206051D01*
X96079831Y-129335480D01*
X96000902Y-129483145D01*
X95952299Y-129643371D01*
X95935887Y-129810000D01*
X95834112Y-129810000D01*
X95817700Y-129643371D01*
X95769097Y-129483145D01*
X95690168Y-129335481D01*
X95583948Y-129206052D01*
X95454519Y-129099832D01*
X95306855Y-129020903D01*
X95146629Y-128972300D01*
X94980000Y-128955888D01*
X92980000Y-128955888D01*
X92813371Y-128972300D01*
X92653145Y-129020903D01*
X92505481Y-129099832D01*
X92376052Y-129206052D01*
X92269832Y-129335481D01*
X92190903Y-129483145D01*
X92142300Y-129643371D01*
X92125888Y-129810000D01*
X92125888Y-131810000D01*
X92142300Y-131976629D01*
X92190903Y-132136855D01*
X92269832Y-132284519D01*
X92376052Y-132413948D01*
X92505481Y-132520168D01*
X92630000Y-132586726D01*
X92630001Y-134059390D01*
X92606629Y-134052300D01*
X92440000Y-134035888D01*
X90440000Y-134035888D01*
X90273371Y-134052300D01*
X90250000Y-134059389D01*
X90250000Y-121210612D01*
X90273371Y-121217701D01*
X90440000Y-121234113D01*
X91177500Y-121230000D01*
X91390000Y-121017500D01*
X91390000Y-119430000D01*
X91370000Y-119430000D01*
X91370000Y-119330000D01*
X91390000Y-119330000D01*
X91390000Y-117742500D01*
X91177500Y-117530000D01*
X90440000Y-117525887D01*
X90273371Y-117542299D01*
X90169998Y-117573656D01*
X90066629Y-117542300D01*
X89900000Y-117525888D01*
X87900000Y-117525888D01*
X87733371Y-117542300D01*
X87630000Y-117573657D01*
X87526629Y-117542300D01*
X87360000Y-117525888D01*
X85672361Y-117525888D01*
X85670000Y-117102500D01*
X85457500Y-116890000D01*
X83870000Y-116890000D01*
X83770000Y-116890000D01*
X82182500Y-116890000D01*
X81970000Y-117102500D01*
X81965887Y-117840000D01*
X77250000Y-117840000D01*
X77250000Y-114277005D01*
X81961192Y-114277005D01*
X81992422Y-114640082D01*
X82093885Y-114990090D01*
X82219850Y-115232933D01*
X82216051Y-115236051D01*
X82109831Y-115365480D01*
X82030902Y-115513145D01*
X81982299Y-115673371D01*
X81965887Y-115840000D01*
X81970000Y-116577500D01*
X82182500Y-116790000D01*
X83770000Y-116790000D01*
X83770000Y-116770000D01*
X83870000Y-116770000D01*
X83870000Y-116790000D01*
X85457500Y-116790000D01*
X85670000Y-116577500D01*
X85674113Y-115840000D01*
X85657701Y-115673371D01*
X85609098Y-115513145D01*
X85530169Y-115365480D01*
X85423949Y-115236051D01*
X85418818Y-115231840D01*
X85528516Y-115032580D01*
X85638606Y-114685189D01*
X85678808Y-114322995D01*
X85647578Y-113959918D01*
X85546115Y-113609910D01*
X85378318Y-113286421D01*
X85352768Y-113248182D01*
X85019035Y-113171675D01*
X83890711Y-114300000D01*
X83904853Y-114314142D01*
X83834142Y-114384853D01*
X83820000Y-114370711D01*
X83805858Y-114384853D01*
X83735147Y-114314142D01*
X83749289Y-114300000D01*
X82620965Y-113171675D01*
X82287232Y-113248182D01*
X82111484Y-113567420D01*
X82001394Y-113914811D01*
X81961192Y-114277005D01*
X77250000Y-114277005D01*
X77250000Y-113100965D01*
X82691675Y-113100965D01*
X83820000Y-114229289D01*
X84948325Y-113100965D01*
X84871818Y-112767232D01*
X84552580Y-112591484D01*
X84205189Y-112481394D01*
X83842995Y-112441192D01*
X83479918Y-112472422D01*
X83129910Y-112573885D01*
X82806421Y-112741682D01*
X82768182Y-112767232D01*
X82691675Y-113100965D01*
X77250000Y-113100965D01*
X77250000Y-107114923D01*
X85574924Y-98790000D01*
X87045887Y-98790000D01*
X87062299Y-98956629D01*
X87110902Y-99116855D01*
X87189831Y-99264520D01*
X87296051Y-99393949D01*
X87425480Y-99500169D01*
X87573145Y-99579098D01*
X87733371Y-99627701D01*
X87900000Y-99644113D01*
X88637500Y-99640000D01*
X88850000Y-99427500D01*
X88850000Y-97840000D01*
X88950000Y-97840000D01*
X88950000Y-99427500D01*
X89162500Y-99640000D01*
X89900000Y-99644113D01*
X90066629Y-99627701D01*
X90226855Y-99579098D01*
X90374520Y-99500169D01*
X90503949Y-99393949D01*
X90610169Y-99264520D01*
X90689098Y-99116855D01*
X90737701Y-98956629D01*
X90754113Y-98790000D01*
X90750000Y-98052500D01*
X90537500Y-97840000D01*
X88950000Y-97840000D01*
X88850000Y-97840000D01*
X87262500Y-97840000D01*
X87050000Y-98052500D01*
X87045887Y-98790000D01*
X85574924Y-98790000D01*
X87048821Y-97316104D01*
X87050000Y-97527500D01*
X87262500Y-97740000D01*
X88850000Y-97740000D01*
X88850000Y-96152500D01*
X88950000Y-96152500D01*
X88950000Y-97740000D01*
X90537500Y-97740000D01*
X90750000Y-97527500D01*
X90754113Y-96790000D01*
X90737701Y-96623371D01*
X90689098Y-96463145D01*
X90610169Y-96315480D01*
X90503949Y-96186051D01*
X90374520Y-96079831D01*
X90226855Y-96000902D01*
X90066629Y-95952299D01*
X89900000Y-95935887D01*
X89162500Y-95940000D01*
X88950000Y-96152500D01*
X88850000Y-96152500D01*
X88637500Y-95940000D01*
X88426104Y-95938821D01*
X89334925Y-95030000D01*
X96092535Y-95030000D01*
X96079831Y-95045480D01*
M02*
