G04 #@! TF.GenerationSoftware,KiCad,Pcbnew,5.1.6-c6e7f7d~87~ubuntu19.10.1*
G04 #@! TF.CreationDate,2021-07-29T07:02:15+06:00*
G04 #@! TF.ProjectId,deep_blue_delay_r3b,64656570-5f62-46c7-9565-5f64656c6179,3B*
G04 #@! TF.SameCoordinates,Original*
G04 #@! TF.FileFunction,Legend,Bot*
G04 #@! TF.FilePolarity,Positive*
%FSLAX46Y46*%
G04 Gerber Fmt 4.6, Leading zero omitted, Abs format (unit mm)*
G04 Created by KiCad (PCBNEW 5.1.6-c6e7f7d~87~ubuntu19.10.1) date 2021-07-29 07:02:15*
%MOMM*%
%LPD*%
G01*
G04 APERTURE LIST*
%ADD10C,0.200000*%
G04 APERTURE END LIST*
D10*
X106680000Y-116840000D02*
X109220000Y-116840000D01*
X106680000Y-121920000D02*
X109220000Y-121920000D01*
X106680000Y-116840000D02*
X106680000Y-121920000D01*
X109220000Y-116840000D02*
X109220000Y-121920000D01*
X108712000Y-119126000D02*
X109220000Y-119634000D01*
X108204000Y-119634000D02*
X108712000Y-119126000D01*
X107696000Y-119126000D02*
X108204000Y-119634000D01*
X107188000Y-119634000D02*
X106680000Y-119126000D01*
X107696000Y-119126000D02*
X107188000Y-119634000D01*
X132715000Y-139573000D02*
X132715000Y-137287000D01*
X128905000Y-137287000D02*
X128905000Y-139573000D01*
X132715000Y-137287000D02*
X128905000Y-137287000D01*
X132715000Y-139573000D02*
X128905000Y-139573000D01*
X127127000Y-125095000D02*
X129413000Y-125095000D01*
X129413000Y-121285000D02*
X127127000Y-121285000D01*
X129413000Y-125095000D02*
X129413000Y-121285000D01*
X127127000Y-125095000D02*
X127127000Y-121285000D01*
X99695000Y-138557000D02*
X99695000Y-140843000D01*
X103505000Y-140843000D02*
X103505000Y-138557000D01*
X99695000Y-140843000D02*
X103505000Y-140843000D01*
X99695000Y-138557000D02*
X103505000Y-138557000D01*
X121793000Y-135255000D02*
X119507000Y-135255000D01*
X119507000Y-139065000D02*
X121793000Y-139065000D01*
X119507000Y-135255000D02*
X119507000Y-139065000D01*
X121793000Y-135255000D02*
X121793000Y-139065000D01*
X86995000Y-104267000D02*
X86995000Y-106553000D01*
X90805000Y-106553000D02*
X90805000Y-104267000D01*
X86995000Y-106553000D02*
X90805000Y-106553000D01*
X86995000Y-104267000D02*
X90805000Y-104267000D01*
X81534000Y-102997000D02*
X79756000Y-102997000D01*
X79756000Y-106553000D02*
X81534000Y-106553000D01*
X79756000Y-102997000D02*
X79756000Y-106553000D01*
X81534000Y-102997000D02*
X81534000Y-106553000D01*
X83439000Y-102997000D02*
X81661000Y-102997000D01*
X81661000Y-106553000D02*
X83439000Y-106553000D01*
X81661000Y-102997000D02*
X81661000Y-106553000D01*
X83439000Y-102997000D02*
X83439000Y-106553000D01*
X105156000Y-119126000D02*
X104648000Y-119634000D01*
X104648000Y-119634000D02*
X104140000Y-119126000D01*
X105156000Y-119126000D02*
X105664000Y-119634000D01*
X105664000Y-119634000D02*
X106172000Y-119126000D01*
X106172000Y-119126000D02*
X106680000Y-119634000D01*
X106680000Y-116840000D02*
X106680000Y-121920000D01*
X104140000Y-116840000D02*
X104140000Y-121920000D01*
X104140000Y-121920000D02*
X106680000Y-121920000D01*
X104140000Y-116840000D02*
X106680000Y-116840000D01*
X109855000Y-101727000D02*
X109855000Y-104013000D01*
X113665000Y-104013000D02*
X113665000Y-101727000D01*
X109855000Y-104013000D02*
X113665000Y-104013000D01*
X109855000Y-101727000D02*
X113665000Y-101727000D01*
X121285000Y-104013000D02*
X121285000Y-101727000D01*
X117475000Y-101727000D02*
X117475000Y-104013000D01*
X121285000Y-101727000D02*
X117475000Y-101727000D01*
X121285000Y-104013000D02*
X117475000Y-104013000D01*
X115570000Y-139700000D02*
X115570000Y-134620000D01*
X118110000Y-139700000D02*
X118110000Y-134620000D01*
X117856000Y-136906000D02*
X115824000Y-136906000D01*
X117856000Y-137414000D02*
X115824000Y-137414000D01*
X118110000Y-134620000D02*
X115570000Y-134620000D01*
X118110000Y-139700000D02*
X115570000Y-139700000D01*
X95250000Y-128270000D02*
X95250000Y-133350000D01*
X92710000Y-128270000D02*
X92710000Y-133350000D01*
X92964000Y-131064000D02*
X94996000Y-131064000D01*
X92964000Y-130556000D02*
X94996000Y-130556000D01*
X92710000Y-133350000D02*
X95250000Y-133350000D01*
X92710000Y-128270000D02*
X95250000Y-128270000D01*
X115570000Y-123190000D02*
X115570000Y-125730000D01*
X110490000Y-123190000D02*
X110490000Y-125730000D01*
X113284000Y-123444000D02*
X113284000Y-125476000D01*
X112776000Y-123444000D02*
X112776000Y-125476000D01*
X115570000Y-123190000D02*
X110490000Y-123190000D01*
X115570000Y-125730000D02*
X110490000Y-125730000D01*
X102870000Y-120650000D02*
X102870000Y-123190000D01*
X97790000Y-120650000D02*
X97790000Y-123190000D01*
X100584000Y-120904000D02*
X100584000Y-122936000D01*
X100076000Y-120904000D02*
X100076000Y-122936000D01*
X102870000Y-120650000D02*
X97790000Y-120650000D01*
X102870000Y-123190000D02*
X97790000Y-123190000D01*
X115570000Y-130810000D02*
X110490000Y-130810000D01*
X115570000Y-128270000D02*
X110490000Y-128270000D01*
X112776000Y-128524000D02*
X112776000Y-130556000D01*
X113284000Y-128524000D02*
X113284000Y-130556000D01*
X110490000Y-128270000D02*
X110490000Y-130810000D01*
X115570000Y-128270000D02*
X115570000Y-130810000D01*
X97790000Y-125730000D02*
X97790000Y-123190000D01*
X102870000Y-125730000D02*
X102870000Y-123190000D01*
X100076000Y-125476000D02*
X100076000Y-123444000D01*
X100584000Y-125476000D02*
X100584000Y-123444000D01*
X97790000Y-125730000D02*
X102870000Y-125730000D01*
X97790000Y-123190000D02*
X102870000Y-123190000D01*
X114300000Y-114300000D02*
X119380000Y-114300000D01*
X114300000Y-116840000D02*
X119380000Y-116840000D01*
X117094000Y-116586000D02*
X117094000Y-114554000D01*
X116586000Y-116586000D02*
X116586000Y-114554000D01*
X119380000Y-116840000D02*
X119380000Y-114300000D01*
X114300000Y-116840000D02*
X114300000Y-114300000D01*
X97663000Y-118745000D02*
X97663000Y-122555000D01*
X95377000Y-118745000D02*
X95377000Y-122555000D01*
X95377000Y-122555000D02*
X97663000Y-122555000D01*
X97663000Y-118745000D02*
X95377000Y-118745000D01*
X122047000Y-131445000D02*
X124333000Y-131445000D01*
X124333000Y-127635000D02*
X122047000Y-127635000D01*
X124333000Y-131445000D02*
X124333000Y-127635000D01*
X122047000Y-131445000D02*
X122047000Y-127635000D01*
X119507000Y-129540000D02*
X121793000Y-129540000D01*
X121793000Y-125730000D02*
X119507000Y-125730000D01*
X121793000Y-129540000D02*
X121793000Y-125730000D01*
X119507000Y-129540000D02*
X119507000Y-125730000D01*
X122047000Y-139065000D02*
X124333000Y-139065000D01*
X124333000Y-135255000D02*
X122047000Y-135255000D01*
X124333000Y-139065000D02*
X124333000Y-135255000D01*
X122047000Y-139065000D02*
X122047000Y-135255000D01*
X116967000Y-129540000D02*
X119253000Y-129540000D01*
X119253000Y-125730000D02*
X116967000Y-125730000D01*
X119253000Y-129540000D02*
X119253000Y-125730000D01*
X116967000Y-129540000D02*
X116967000Y-125730000D01*
X124587000Y-139065000D02*
X126873000Y-139065000D01*
X126873000Y-135255000D02*
X124587000Y-135255000D01*
X126873000Y-139065000D02*
X126873000Y-135255000D01*
X124587000Y-139065000D02*
X124587000Y-135255000D01*
X117475000Y-111887000D02*
X117475000Y-114173000D01*
X121285000Y-114173000D02*
X121285000Y-111887000D01*
X117475000Y-114173000D02*
X121285000Y-114173000D01*
X117475000Y-111887000D02*
X121285000Y-111887000D01*
X114173000Y-117475000D02*
X111887000Y-117475000D01*
X111887000Y-121285000D02*
X114173000Y-121285000D01*
X111887000Y-117475000D02*
X111887000Y-121285000D01*
X114173000Y-117475000D02*
X114173000Y-121285000D01*
X111633000Y-117475000D02*
X109347000Y-117475000D01*
X109347000Y-121285000D02*
X111633000Y-121285000D01*
X109347000Y-117475000D02*
X109347000Y-121285000D01*
X111633000Y-117475000D02*
X111633000Y-121285000D01*
X104013000Y-116840000D02*
X104013000Y-120650000D01*
X101727000Y-116840000D02*
X101727000Y-120650000D01*
X101727000Y-120650000D02*
X104013000Y-120650000D01*
X104013000Y-116840000D02*
X101727000Y-116840000D01*
X101473000Y-116840000D02*
X101473000Y-120650000D01*
X99187000Y-116840000D02*
X99187000Y-120650000D01*
X99187000Y-120650000D02*
X101473000Y-120650000D01*
X101473000Y-116840000D02*
X99187000Y-116840000D01*
X103505000Y-138303000D02*
X103505000Y-136017000D01*
X99695000Y-136017000D02*
X99695000Y-138303000D01*
X103505000Y-136017000D02*
X99695000Y-136017000D01*
X103505000Y-138303000D02*
X99695000Y-138303000D01*
X107315000Y-114427000D02*
X107315000Y-116713000D01*
X111125000Y-116713000D02*
X111125000Y-114427000D01*
X107315000Y-116713000D02*
X111125000Y-116713000D01*
X107315000Y-114427000D02*
X111125000Y-114427000D01*
X95377000Y-118745000D02*
X97663000Y-118745000D01*
X97663000Y-114935000D02*
X95377000Y-114935000D01*
X97663000Y-118745000D02*
X97663000Y-114935000D01*
X95377000Y-118745000D02*
X95377000Y-114935000D01*
X90805000Y-104013000D02*
X90805000Y-101727000D01*
X86995000Y-101727000D02*
X86995000Y-104013000D01*
X90805000Y-101727000D02*
X86995000Y-101727000D01*
X90805000Y-104013000D02*
X86995000Y-104013000D01*
X78994000Y-116967000D02*
X91186000Y-116967000D01*
X91186000Y-116967000D02*
X91186000Y-106553000D01*
X91186000Y-106553000D02*
X78994000Y-106553000D01*
X78994000Y-116967000D02*
X78994000Y-106553000D01*
X84074000Y-116967000D02*
G75*
G02*
X86106000Y-116967000I1016000J0D01*
G01*
X125095000Y-125476000D02*
X125095000Y-133604000D01*
X125095000Y-133604000D02*
X130175000Y-133604000D01*
X130175000Y-133604000D02*
X130175000Y-125476000D01*
X125095000Y-125476000D02*
X130175000Y-125476000D01*
X125095000Y-128524000D02*
G75*
G02*
X125095000Y-130556000I0J-1016000D01*
G01*
X91440000Y-97790000D02*
X91440000Y-100330000D01*
X86360000Y-97790000D02*
X86360000Y-100330000D01*
X91440000Y-97790000D02*
X86360000Y-97790000D01*
X91440000Y-100330000D02*
X86360000Y-100330000D01*
X89154000Y-99822000D02*
X88646000Y-100330000D01*
X88646000Y-99314000D02*
X89154000Y-99822000D01*
X89154000Y-98806000D02*
X88646000Y-99314000D01*
X88646000Y-98298000D02*
X89154000Y-97790000D01*
X89154000Y-98806000D02*
X88646000Y-98298000D01*
X86106000Y-136906000D02*
X85598000Y-137414000D01*
X85598000Y-137414000D02*
X85090000Y-136906000D01*
X86106000Y-136906000D02*
X86614000Y-137414000D01*
X86614000Y-137414000D02*
X87122000Y-136906000D01*
X87122000Y-136906000D02*
X87630000Y-137414000D01*
X87630000Y-134620000D02*
X87630000Y-139700000D01*
X85090000Y-134620000D02*
X85090000Y-139700000D01*
X85090000Y-139700000D02*
X87630000Y-139700000D01*
X85090000Y-134620000D02*
X87630000Y-134620000D01*
X91059000Y-127889000D02*
X91567000Y-127381000D01*
X91567000Y-127381000D02*
X92075000Y-127889000D01*
X91059000Y-127889000D02*
X90551000Y-127381000D01*
X90551000Y-127381000D02*
X90043000Y-127889000D01*
X90043000Y-127889000D02*
X89535000Y-127381000D01*
X89535000Y-130175000D02*
X89535000Y-125095000D01*
X92075000Y-130175000D02*
X92075000Y-125095000D01*
X92075000Y-125095000D02*
X89535000Y-125095000D01*
X92075000Y-130175000D02*
X89535000Y-130175000D01*
X88519000Y-127889000D02*
X89027000Y-127381000D01*
X89027000Y-127381000D02*
X89535000Y-127889000D01*
X88519000Y-127889000D02*
X88011000Y-127381000D01*
X88011000Y-127381000D02*
X87503000Y-127889000D01*
X87503000Y-127889000D02*
X86995000Y-127381000D01*
X86995000Y-130175000D02*
X86995000Y-125095000D01*
X89535000Y-130175000D02*
X89535000Y-125095000D01*
X89535000Y-125095000D02*
X86995000Y-125095000D01*
X89535000Y-130175000D02*
X86995000Y-130175000D01*
X112776000Y-127254000D02*
X113284000Y-127762000D01*
X113284000Y-127762000D02*
X112776000Y-128270000D01*
X112776000Y-127254000D02*
X113284000Y-126746000D01*
X113284000Y-126746000D02*
X112776000Y-126238000D01*
X112776000Y-126238000D02*
X113284000Y-125730000D01*
X110490000Y-125730000D02*
X115570000Y-125730000D01*
X110490000Y-128270000D02*
X115570000Y-128270000D01*
X115570000Y-128270000D02*
X115570000Y-125730000D01*
X110490000Y-128270000D02*
X110490000Y-125730000D01*
X117602000Y-97790000D02*
G75*
G03*
X117602000Y-97790000I-3302000J0D01*
G01*
X99822000Y-97790000D02*
G75*
G03*
X99822000Y-97790000I-3302000J0D01*
G01*
X115387380Y-118737142D02*
X114911190Y-118403809D01*
X115387380Y-118165714D02*
X114387380Y-118165714D01*
X114387380Y-118546666D01*
X114435000Y-118641904D01*
X114482619Y-118689523D01*
X114577857Y-118737142D01*
X114720714Y-118737142D01*
X114815952Y-118689523D01*
X114863571Y-118641904D01*
X114911190Y-118546666D01*
X114911190Y-118165714D01*
X115387380Y-119689523D02*
X115387380Y-119118095D01*
X115387380Y-119403809D02*
X114387380Y-119403809D01*
X114530238Y-119308571D01*
X114625476Y-119213333D01*
X114673095Y-119118095D01*
X114482619Y-120070476D02*
X114435000Y-120118095D01*
X114387380Y-120213333D01*
X114387380Y-120451428D01*
X114435000Y-120546666D01*
X114482619Y-120594285D01*
X114577857Y-120641904D01*
X114673095Y-120641904D01*
X114815952Y-120594285D01*
X115387380Y-120022857D01*
X115387380Y-120641904D01*
X130976666Y-140787380D02*
X131310000Y-140311190D01*
X131548095Y-140787380D02*
X131548095Y-139787380D01*
X131167142Y-139787380D01*
X131071904Y-139835000D01*
X131024285Y-139882619D01*
X130976666Y-139977857D01*
X130976666Y-140120714D01*
X131024285Y-140215952D01*
X131071904Y-140263571D01*
X131167142Y-140311190D01*
X131548095Y-140311190D01*
X130071904Y-139787380D02*
X130548095Y-139787380D01*
X130595714Y-140263571D01*
X130548095Y-140215952D01*
X130452857Y-140168333D01*
X130214761Y-140168333D01*
X130119523Y-140215952D01*
X130071904Y-140263571D01*
X130024285Y-140358809D01*
X130024285Y-140596904D01*
X130071904Y-140692142D01*
X130119523Y-140739761D01*
X130214761Y-140787380D01*
X130452857Y-140787380D01*
X130548095Y-140739761D01*
X130595714Y-140692142D01*
X126817380Y-123023333D02*
X126341190Y-122690000D01*
X126817380Y-122451904D02*
X125817380Y-122451904D01*
X125817380Y-122832857D01*
X125865000Y-122928095D01*
X125912619Y-122975714D01*
X126007857Y-123023333D01*
X126150714Y-123023333D01*
X126245952Y-122975714D01*
X126293571Y-122928095D01*
X126341190Y-122832857D01*
X126341190Y-122451904D01*
X126150714Y-123880476D02*
X126817380Y-123880476D01*
X125769761Y-123642380D02*
X126484047Y-123404285D01*
X126484047Y-124023333D01*
X98755476Y-140152380D02*
X99088809Y-139676190D01*
X99326904Y-140152380D02*
X99326904Y-139152380D01*
X98945952Y-139152380D01*
X98850714Y-139200000D01*
X98803095Y-139247619D01*
X98755476Y-139342857D01*
X98755476Y-139485714D01*
X98803095Y-139580952D01*
X98850714Y-139628571D01*
X98945952Y-139676190D01*
X99326904Y-139676190D01*
X97803095Y-140152380D02*
X98374523Y-140152380D01*
X98088809Y-140152380D02*
X98088809Y-139152380D01*
X98184047Y-139295238D01*
X98279285Y-139390476D01*
X98374523Y-139438095D01*
X121102380Y-133982142D02*
X120626190Y-133648809D01*
X121102380Y-133410714D02*
X120102380Y-133410714D01*
X120102380Y-133791666D01*
X120150000Y-133886904D01*
X120197619Y-133934523D01*
X120292857Y-133982142D01*
X120435714Y-133982142D01*
X120530952Y-133934523D01*
X120578571Y-133886904D01*
X120626190Y-133791666D01*
X120626190Y-133410714D01*
X120530952Y-134553571D02*
X120483333Y-134458333D01*
X120435714Y-134410714D01*
X120340476Y-134363095D01*
X120292857Y-134363095D01*
X120197619Y-134410714D01*
X120150000Y-134458333D01*
X120102380Y-134553571D01*
X120102380Y-134744047D01*
X120150000Y-134839285D01*
X120197619Y-134886904D01*
X120292857Y-134934523D01*
X120340476Y-134934523D01*
X120435714Y-134886904D01*
X120483333Y-134839285D01*
X120530952Y-134744047D01*
X120530952Y-134553571D01*
X120578571Y-134458333D01*
X120626190Y-134410714D01*
X120721428Y-134363095D01*
X120911904Y-134363095D01*
X121007142Y-134410714D01*
X121054761Y-134458333D01*
X121102380Y-134553571D01*
X121102380Y-134744047D01*
X121054761Y-134839285D01*
X121007142Y-134886904D01*
X120911904Y-134934523D01*
X120721428Y-134934523D01*
X120626190Y-134886904D01*
X120578571Y-134839285D01*
X120530952Y-134744047D01*
X93030238Y-105767142D02*
X93077857Y-105814761D01*
X93220714Y-105862380D01*
X93315952Y-105862380D01*
X93458809Y-105814761D01*
X93554047Y-105719523D01*
X93601666Y-105624285D01*
X93649285Y-105433809D01*
X93649285Y-105290952D01*
X93601666Y-105100476D01*
X93554047Y-105005238D01*
X93458809Y-104910000D01*
X93315952Y-104862380D01*
X93220714Y-104862380D01*
X93077857Y-104910000D01*
X93030238Y-104957619D01*
X92077857Y-105862380D02*
X92649285Y-105862380D01*
X92363571Y-105862380D02*
X92363571Y-104862380D01*
X92458809Y-105005238D01*
X92554047Y-105100476D01*
X92649285Y-105148095D01*
X91744523Y-104862380D02*
X91125476Y-104862380D01*
X91458809Y-105243333D01*
X91315952Y-105243333D01*
X91220714Y-105290952D01*
X91173095Y-105338571D01*
X91125476Y-105433809D01*
X91125476Y-105671904D01*
X91173095Y-105767142D01*
X91220714Y-105814761D01*
X91315952Y-105862380D01*
X91601666Y-105862380D01*
X91696904Y-105814761D01*
X91744523Y-105767142D01*
X79097142Y-104608333D02*
X79144761Y-104560714D01*
X79192380Y-104417857D01*
X79192380Y-104322619D01*
X79144761Y-104179761D01*
X79049523Y-104084523D01*
X78954285Y-104036904D01*
X78763809Y-103989285D01*
X78620952Y-103989285D01*
X78430476Y-104036904D01*
X78335238Y-104084523D01*
X78240000Y-104179761D01*
X78192380Y-104322619D01*
X78192380Y-104417857D01*
X78240000Y-104560714D01*
X78287619Y-104608333D01*
X78620952Y-105179761D02*
X78573333Y-105084523D01*
X78525714Y-105036904D01*
X78430476Y-104989285D01*
X78382857Y-104989285D01*
X78287619Y-105036904D01*
X78240000Y-105084523D01*
X78192380Y-105179761D01*
X78192380Y-105370238D01*
X78240000Y-105465476D01*
X78287619Y-105513095D01*
X78382857Y-105560714D01*
X78430476Y-105560714D01*
X78525714Y-105513095D01*
X78573333Y-105465476D01*
X78620952Y-105370238D01*
X78620952Y-105179761D01*
X78668571Y-105084523D01*
X78716190Y-105036904D01*
X78811428Y-104989285D01*
X79001904Y-104989285D01*
X79097142Y-105036904D01*
X79144761Y-105084523D01*
X79192380Y-105179761D01*
X79192380Y-105370238D01*
X79144761Y-105465476D01*
X79097142Y-105513095D01*
X79001904Y-105560714D01*
X78811428Y-105560714D01*
X78716190Y-105513095D01*
X78668571Y-105465476D01*
X78620952Y-105370238D01*
X82907142Y-101597142D02*
X82954761Y-101549523D01*
X83002380Y-101406666D01*
X83002380Y-101311428D01*
X82954761Y-101168571D01*
X82859523Y-101073333D01*
X82764285Y-101025714D01*
X82573809Y-100978095D01*
X82430952Y-100978095D01*
X82240476Y-101025714D01*
X82145238Y-101073333D01*
X82050000Y-101168571D01*
X82002380Y-101311428D01*
X82002380Y-101406666D01*
X82050000Y-101549523D01*
X82097619Y-101597142D01*
X82002380Y-101930476D02*
X82002380Y-102597142D01*
X83002380Y-102168571D01*
X105862380Y-114614761D02*
X105386190Y-114281428D01*
X105862380Y-114043333D02*
X104862380Y-114043333D01*
X104862380Y-114424285D01*
X104910000Y-114519523D01*
X104957619Y-114567142D01*
X105052857Y-114614761D01*
X105195714Y-114614761D01*
X105290952Y-114567142D01*
X105338571Y-114519523D01*
X105386190Y-114424285D01*
X105386190Y-114043333D01*
X105862380Y-115567142D02*
X105862380Y-114995714D01*
X105862380Y-115281428D02*
X104862380Y-115281428D01*
X105005238Y-115186190D01*
X105100476Y-115090952D01*
X105148095Y-114995714D01*
X105862380Y-116043333D02*
X105862380Y-116233809D01*
X105814761Y-116329047D01*
X105767142Y-116376666D01*
X105624285Y-116471904D01*
X105433809Y-116519523D01*
X105052857Y-116519523D01*
X104957619Y-116471904D01*
X104910000Y-116424285D01*
X104862380Y-116329047D01*
X104862380Y-116138571D01*
X104910000Y-116043333D01*
X104957619Y-115995714D01*
X105052857Y-115948095D01*
X105290952Y-115948095D01*
X105386190Y-115995714D01*
X105433809Y-116043333D01*
X105481428Y-116138571D01*
X105481428Y-116329047D01*
X105433809Y-116424285D01*
X105386190Y-116471904D01*
X105290952Y-116519523D01*
X111926666Y-105227380D02*
X112260000Y-104751190D01*
X112498095Y-105227380D02*
X112498095Y-104227380D01*
X112117142Y-104227380D01*
X112021904Y-104275000D01*
X111974285Y-104322619D01*
X111926666Y-104417857D01*
X111926666Y-104560714D01*
X111974285Y-104655952D01*
X112021904Y-104703571D01*
X112117142Y-104751190D01*
X112498095Y-104751190D01*
X111069523Y-104227380D02*
X111260000Y-104227380D01*
X111355238Y-104275000D01*
X111402857Y-104322619D01*
X111498095Y-104465476D01*
X111545714Y-104655952D01*
X111545714Y-105036904D01*
X111498095Y-105132142D01*
X111450476Y-105179761D01*
X111355238Y-105227380D01*
X111164761Y-105227380D01*
X111069523Y-105179761D01*
X111021904Y-105132142D01*
X110974285Y-105036904D01*
X110974285Y-104798809D01*
X111021904Y-104703571D01*
X111069523Y-104655952D01*
X111164761Y-104608333D01*
X111355238Y-104608333D01*
X111450476Y-104655952D01*
X111498095Y-104703571D01*
X111545714Y-104798809D01*
X119546666Y-105132142D02*
X119594285Y-105179761D01*
X119737142Y-105227380D01*
X119832380Y-105227380D01*
X119975238Y-105179761D01*
X120070476Y-105084523D01*
X120118095Y-104989285D01*
X120165714Y-104798809D01*
X120165714Y-104655952D01*
X120118095Y-104465476D01*
X120070476Y-104370238D01*
X119975238Y-104275000D01*
X119832380Y-104227380D01*
X119737142Y-104227380D01*
X119594285Y-104275000D01*
X119546666Y-104322619D01*
X119165714Y-104322619D02*
X119118095Y-104275000D01*
X119022857Y-104227380D01*
X118784761Y-104227380D01*
X118689523Y-104275000D01*
X118641904Y-104322619D01*
X118594285Y-104417857D01*
X118594285Y-104513095D01*
X118641904Y-104655952D01*
X119213333Y-105227380D01*
X118594285Y-105227380D01*
X114657142Y-136993333D02*
X114704761Y-136945714D01*
X114752380Y-136802857D01*
X114752380Y-136707619D01*
X114704761Y-136564761D01*
X114609523Y-136469523D01*
X114514285Y-136421904D01*
X114323809Y-136374285D01*
X114180952Y-136374285D01*
X113990476Y-136421904D01*
X113895238Y-136469523D01*
X113800000Y-136564761D01*
X113752380Y-136707619D01*
X113752380Y-136802857D01*
X113800000Y-136945714D01*
X113847619Y-136993333D01*
X114752380Y-137469523D02*
X114752380Y-137660000D01*
X114704761Y-137755238D01*
X114657142Y-137802857D01*
X114514285Y-137898095D01*
X114323809Y-137945714D01*
X113942857Y-137945714D01*
X113847619Y-137898095D01*
X113800000Y-137850476D01*
X113752380Y-137755238D01*
X113752380Y-137564761D01*
X113800000Y-137469523D01*
X113847619Y-137421904D01*
X113942857Y-137374285D01*
X114180952Y-137374285D01*
X114276190Y-137421904D01*
X114323809Y-137469523D01*
X114371428Y-137564761D01*
X114371428Y-137755238D01*
X114323809Y-137850476D01*
X114276190Y-137898095D01*
X114180952Y-137945714D01*
X94337142Y-134612142D02*
X94384761Y-134564523D01*
X94432380Y-134421666D01*
X94432380Y-134326428D01*
X94384761Y-134183571D01*
X94289523Y-134088333D01*
X94194285Y-134040714D01*
X94003809Y-133993095D01*
X93860952Y-133993095D01*
X93670476Y-134040714D01*
X93575238Y-134088333D01*
X93480000Y-134183571D01*
X93432380Y-134326428D01*
X93432380Y-134421666D01*
X93480000Y-134564523D01*
X93527619Y-134612142D01*
X94432380Y-135564523D02*
X94432380Y-134993095D01*
X94432380Y-135278809D02*
X93432380Y-135278809D01*
X93575238Y-135183571D01*
X93670476Y-135088333D01*
X93718095Y-134993095D01*
X94432380Y-136040714D02*
X94432380Y-136231190D01*
X94384761Y-136326428D01*
X94337142Y-136374047D01*
X94194285Y-136469285D01*
X94003809Y-136516904D01*
X93622857Y-136516904D01*
X93527619Y-136469285D01*
X93480000Y-136421666D01*
X93432380Y-136326428D01*
X93432380Y-136135952D01*
X93480000Y-136040714D01*
X93527619Y-135993095D01*
X93622857Y-135945476D01*
X93860952Y-135945476D01*
X93956190Y-135993095D01*
X94003809Y-136040714D01*
X94051428Y-136135952D01*
X94051428Y-136326428D01*
X94003809Y-136421666D01*
X93956190Y-136469285D01*
X93860952Y-136516904D01*
X117795238Y-124817142D02*
X117842857Y-124864761D01*
X117985714Y-124912380D01*
X118080952Y-124912380D01*
X118223809Y-124864761D01*
X118319047Y-124769523D01*
X118366666Y-124674285D01*
X118414285Y-124483809D01*
X118414285Y-124340952D01*
X118366666Y-124150476D01*
X118319047Y-124055238D01*
X118223809Y-123960000D01*
X118080952Y-123912380D01*
X117985714Y-123912380D01*
X117842857Y-123960000D01*
X117795238Y-124007619D01*
X117414285Y-124007619D02*
X117366666Y-123960000D01*
X117271428Y-123912380D01*
X117033333Y-123912380D01*
X116938095Y-123960000D01*
X116890476Y-124007619D01*
X116842857Y-124102857D01*
X116842857Y-124198095D01*
X116890476Y-124340952D01*
X117461904Y-124912380D01*
X116842857Y-124912380D01*
X116461904Y-124007619D02*
X116414285Y-123960000D01*
X116319047Y-123912380D01*
X116080952Y-123912380D01*
X115985714Y-123960000D01*
X115938095Y-124007619D01*
X115890476Y-124102857D01*
X115890476Y-124198095D01*
X115938095Y-124340952D01*
X116509523Y-124912380D01*
X115890476Y-124912380D01*
X100972857Y-127357142D02*
X101020476Y-127404761D01*
X101163333Y-127452380D01*
X101258571Y-127452380D01*
X101401428Y-127404761D01*
X101496666Y-127309523D01*
X101544285Y-127214285D01*
X101591904Y-127023809D01*
X101591904Y-126880952D01*
X101544285Y-126690476D01*
X101496666Y-126595238D01*
X101401428Y-126500000D01*
X101258571Y-126452380D01*
X101163333Y-126452380D01*
X101020476Y-126500000D01*
X100972857Y-126547619D01*
X100591904Y-126547619D02*
X100544285Y-126500000D01*
X100449047Y-126452380D01*
X100210952Y-126452380D01*
X100115714Y-126500000D01*
X100068095Y-126547619D01*
X100020476Y-126642857D01*
X100020476Y-126738095D01*
X100068095Y-126880952D01*
X100639523Y-127452380D01*
X100020476Y-127452380D01*
X99163333Y-126785714D02*
X99163333Y-127452380D01*
X99401428Y-126404761D02*
X99639523Y-127119047D01*
X99020476Y-127119047D01*
X114307857Y-132437142D02*
X114355476Y-132484761D01*
X114498333Y-132532380D01*
X114593571Y-132532380D01*
X114736428Y-132484761D01*
X114831666Y-132389523D01*
X114879285Y-132294285D01*
X114926904Y-132103809D01*
X114926904Y-131960952D01*
X114879285Y-131770476D01*
X114831666Y-131675238D01*
X114736428Y-131580000D01*
X114593571Y-131532380D01*
X114498333Y-131532380D01*
X114355476Y-131580000D01*
X114307857Y-131627619D01*
X113355476Y-132532380D02*
X113926904Y-132532380D01*
X113641190Y-132532380D02*
X113641190Y-131532380D01*
X113736428Y-131675238D01*
X113831666Y-131770476D01*
X113926904Y-131818095D01*
X112450714Y-131532380D02*
X112926904Y-131532380D01*
X112974523Y-132008571D01*
X112926904Y-131960952D01*
X112831666Y-131913333D01*
X112593571Y-131913333D01*
X112498333Y-131960952D01*
X112450714Y-132008571D01*
X112403095Y-132103809D01*
X112403095Y-132341904D01*
X112450714Y-132437142D01*
X112498333Y-132484761D01*
X112593571Y-132532380D01*
X112831666Y-132532380D01*
X112926904Y-132484761D01*
X112974523Y-132437142D01*
X100972857Y-128627142D02*
X101020476Y-128674761D01*
X101163333Y-128722380D01*
X101258571Y-128722380D01*
X101401428Y-128674761D01*
X101496666Y-128579523D01*
X101544285Y-128484285D01*
X101591904Y-128293809D01*
X101591904Y-128150952D01*
X101544285Y-127960476D01*
X101496666Y-127865238D01*
X101401428Y-127770000D01*
X101258571Y-127722380D01*
X101163333Y-127722380D01*
X101020476Y-127770000D01*
X100972857Y-127817619D01*
X100591904Y-127817619D02*
X100544285Y-127770000D01*
X100449047Y-127722380D01*
X100210952Y-127722380D01*
X100115714Y-127770000D01*
X100068095Y-127817619D01*
X100020476Y-127912857D01*
X100020476Y-128008095D01*
X100068095Y-128150952D01*
X100639523Y-128722380D01*
X100020476Y-128722380D01*
X99687142Y-127722380D02*
X99068095Y-127722380D01*
X99401428Y-128103333D01*
X99258571Y-128103333D01*
X99163333Y-128150952D01*
X99115714Y-128198571D01*
X99068095Y-128293809D01*
X99068095Y-128531904D01*
X99115714Y-128627142D01*
X99163333Y-128674761D01*
X99258571Y-128722380D01*
X99544285Y-128722380D01*
X99639523Y-128674761D01*
X99687142Y-128627142D01*
X113360476Y-115927142D02*
X113408095Y-115974761D01*
X113550952Y-116022380D01*
X113646190Y-116022380D01*
X113789047Y-115974761D01*
X113884285Y-115879523D01*
X113931904Y-115784285D01*
X113979523Y-115593809D01*
X113979523Y-115450952D01*
X113931904Y-115260476D01*
X113884285Y-115165238D01*
X113789047Y-115070000D01*
X113646190Y-115022380D01*
X113550952Y-115022380D01*
X113408095Y-115070000D01*
X113360476Y-115117619D01*
X112408095Y-116022380D02*
X112979523Y-116022380D01*
X112693809Y-116022380D02*
X112693809Y-115022380D01*
X112789047Y-115165238D01*
X112884285Y-115260476D01*
X112979523Y-115308095D01*
X111550952Y-115022380D02*
X111741428Y-115022380D01*
X111836666Y-115070000D01*
X111884285Y-115117619D01*
X111979523Y-115260476D01*
X112027142Y-115450952D01*
X112027142Y-115831904D01*
X111979523Y-115927142D01*
X111931904Y-115974761D01*
X111836666Y-116022380D01*
X111646190Y-116022380D01*
X111550952Y-115974761D01*
X111503333Y-115927142D01*
X111455714Y-115831904D01*
X111455714Y-115593809D01*
X111503333Y-115498571D01*
X111550952Y-115450952D01*
X111646190Y-115403333D01*
X111836666Y-115403333D01*
X111931904Y-115450952D01*
X111979523Y-115498571D01*
X112027142Y-115593809D01*
X94972142Y-120007142D02*
X95019761Y-119959523D01*
X95067380Y-119816666D01*
X95067380Y-119721428D01*
X95019761Y-119578571D01*
X94924523Y-119483333D01*
X94829285Y-119435714D01*
X94638809Y-119388095D01*
X94495952Y-119388095D01*
X94305476Y-119435714D01*
X94210238Y-119483333D01*
X94115000Y-119578571D01*
X94067380Y-119721428D01*
X94067380Y-119816666D01*
X94115000Y-119959523D01*
X94162619Y-120007142D01*
X95067380Y-120959523D02*
X95067380Y-120388095D01*
X95067380Y-120673809D02*
X94067380Y-120673809D01*
X94210238Y-120578571D01*
X94305476Y-120483333D01*
X94353095Y-120388095D01*
X94495952Y-121530952D02*
X94448333Y-121435714D01*
X94400714Y-121388095D01*
X94305476Y-121340476D01*
X94257857Y-121340476D01*
X94162619Y-121388095D01*
X94115000Y-121435714D01*
X94067380Y-121530952D01*
X94067380Y-121721428D01*
X94115000Y-121816666D01*
X94162619Y-121864285D01*
X94257857Y-121911904D01*
X94305476Y-121911904D01*
X94400714Y-121864285D01*
X94448333Y-121816666D01*
X94495952Y-121721428D01*
X94495952Y-121530952D01*
X94543571Y-121435714D01*
X94591190Y-121388095D01*
X94686428Y-121340476D01*
X94876904Y-121340476D01*
X94972142Y-121388095D01*
X95019761Y-121435714D01*
X95067380Y-121530952D01*
X95067380Y-121721428D01*
X95019761Y-121816666D01*
X94972142Y-121864285D01*
X94876904Y-121911904D01*
X94686428Y-121911904D01*
X94591190Y-121864285D01*
X94543571Y-121816666D01*
X94495952Y-121721428D01*
X123642380Y-125409761D02*
X123166190Y-125076428D01*
X123642380Y-124838333D02*
X122642380Y-124838333D01*
X122642380Y-125219285D01*
X122690000Y-125314523D01*
X122737619Y-125362142D01*
X122832857Y-125409761D01*
X122975714Y-125409761D01*
X123070952Y-125362142D01*
X123118571Y-125314523D01*
X123166190Y-125219285D01*
X123166190Y-124838333D01*
X123642380Y-126362142D02*
X123642380Y-125790714D01*
X123642380Y-126076428D02*
X122642380Y-126076428D01*
X122785238Y-125981190D01*
X122880476Y-125885952D01*
X122928095Y-125790714D01*
X122642380Y-127219285D02*
X122642380Y-127028809D01*
X122690000Y-126933571D01*
X122737619Y-126885952D01*
X122880476Y-126790714D01*
X123070952Y-126743095D01*
X123451904Y-126743095D01*
X123547142Y-126790714D01*
X123594761Y-126838333D01*
X123642380Y-126933571D01*
X123642380Y-127124047D01*
X123594761Y-127219285D01*
X123547142Y-127266904D01*
X123451904Y-127314523D01*
X123213809Y-127314523D01*
X123118571Y-127266904D01*
X123070952Y-127219285D01*
X123023333Y-127124047D01*
X123023333Y-126933571D01*
X123070952Y-126838333D01*
X123118571Y-126790714D01*
X123213809Y-126743095D01*
X121102380Y-130479523D02*
X120626190Y-130146190D01*
X121102380Y-129908095D02*
X120102380Y-129908095D01*
X120102380Y-130289047D01*
X120150000Y-130384285D01*
X120197619Y-130431904D01*
X120292857Y-130479523D01*
X120435714Y-130479523D01*
X120530952Y-130431904D01*
X120578571Y-130384285D01*
X120626190Y-130289047D01*
X120626190Y-129908095D01*
X120197619Y-130860476D02*
X120150000Y-130908095D01*
X120102380Y-131003333D01*
X120102380Y-131241428D01*
X120150000Y-131336666D01*
X120197619Y-131384285D01*
X120292857Y-131431904D01*
X120388095Y-131431904D01*
X120530952Y-131384285D01*
X121102380Y-130812857D01*
X121102380Y-131431904D01*
X120102380Y-132050952D02*
X120102380Y-132146190D01*
X120150000Y-132241428D01*
X120197619Y-132289047D01*
X120292857Y-132336666D01*
X120483333Y-132384285D01*
X120721428Y-132384285D01*
X120911904Y-132336666D01*
X121007142Y-132289047D01*
X121054761Y-132241428D01*
X121102380Y-132146190D01*
X121102380Y-132050952D01*
X121054761Y-131955714D01*
X121007142Y-131908095D01*
X120911904Y-131860476D01*
X120721428Y-131812857D01*
X120483333Y-131812857D01*
X120292857Y-131860476D01*
X120197619Y-131908095D01*
X120150000Y-131955714D01*
X120102380Y-132050952D01*
X123642380Y-133982142D02*
X123166190Y-133648809D01*
X123642380Y-133410714D02*
X122642380Y-133410714D01*
X122642380Y-133791666D01*
X122690000Y-133886904D01*
X122737619Y-133934523D01*
X122832857Y-133982142D01*
X122975714Y-133982142D01*
X123070952Y-133934523D01*
X123118571Y-133886904D01*
X123166190Y-133791666D01*
X123166190Y-133410714D01*
X123642380Y-134458333D02*
X123642380Y-134648809D01*
X123594761Y-134744047D01*
X123547142Y-134791666D01*
X123404285Y-134886904D01*
X123213809Y-134934523D01*
X122832857Y-134934523D01*
X122737619Y-134886904D01*
X122690000Y-134839285D01*
X122642380Y-134744047D01*
X122642380Y-134553571D01*
X122690000Y-134458333D01*
X122737619Y-134410714D01*
X122832857Y-134363095D01*
X123070952Y-134363095D01*
X123166190Y-134410714D01*
X123213809Y-134458333D01*
X123261428Y-134553571D01*
X123261428Y-134744047D01*
X123213809Y-134839285D01*
X123166190Y-134886904D01*
X123070952Y-134934523D01*
X118467142Y-130479523D02*
X118514761Y-130431904D01*
X118562380Y-130289047D01*
X118562380Y-130193809D01*
X118514761Y-130050952D01*
X118419523Y-129955714D01*
X118324285Y-129908095D01*
X118133809Y-129860476D01*
X117990952Y-129860476D01*
X117800476Y-129908095D01*
X117705238Y-129955714D01*
X117610000Y-130050952D01*
X117562380Y-130193809D01*
X117562380Y-130289047D01*
X117610000Y-130431904D01*
X117657619Y-130479523D01*
X117657619Y-130860476D02*
X117610000Y-130908095D01*
X117562380Y-131003333D01*
X117562380Y-131241428D01*
X117610000Y-131336666D01*
X117657619Y-131384285D01*
X117752857Y-131431904D01*
X117848095Y-131431904D01*
X117990952Y-131384285D01*
X118562380Y-130812857D01*
X118562380Y-131431904D01*
X117562380Y-132050952D02*
X117562380Y-132146190D01*
X117610000Y-132241428D01*
X117657619Y-132289047D01*
X117752857Y-132336666D01*
X117943333Y-132384285D01*
X118181428Y-132384285D01*
X118371904Y-132336666D01*
X118467142Y-132289047D01*
X118514761Y-132241428D01*
X118562380Y-132146190D01*
X118562380Y-132050952D01*
X118514761Y-131955714D01*
X118467142Y-131908095D01*
X118371904Y-131860476D01*
X118181428Y-131812857D01*
X117943333Y-131812857D01*
X117752857Y-131860476D01*
X117657619Y-131908095D01*
X117610000Y-131955714D01*
X117562380Y-132050952D01*
X127992142Y-136517142D02*
X128039761Y-136469523D01*
X128087380Y-136326666D01*
X128087380Y-136231428D01*
X128039761Y-136088571D01*
X127944523Y-135993333D01*
X127849285Y-135945714D01*
X127658809Y-135898095D01*
X127515952Y-135898095D01*
X127325476Y-135945714D01*
X127230238Y-135993333D01*
X127135000Y-136088571D01*
X127087380Y-136231428D01*
X127087380Y-136326666D01*
X127135000Y-136469523D01*
X127182619Y-136517142D01*
X128087380Y-137469523D02*
X128087380Y-136898095D01*
X128087380Y-137183809D02*
X127087380Y-137183809D01*
X127230238Y-137088571D01*
X127325476Y-136993333D01*
X127373095Y-136898095D01*
X127420714Y-138326666D02*
X128087380Y-138326666D01*
X127039761Y-138088571D02*
X127754047Y-137850476D01*
X127754047Y-138469523D01*
X116535476Y-113387142D02*
X116583095Y-113434761D01*
X116725952Y-113482380D01*
X116821190Y-113482380D01*
X116964047Y-113434761D01*
X117059285Y-113339523D01*
X117106904Y-113244285D01*
X117154523Y-113053809D01*
X117154523Y-112910952D01*
X117106904Y-112720476D01*
X117059285Y-112625238D01*
X116964047Y-112530000D01*
X116821190Y-112482380D01*
X116725952Y-112482380D01*
X116583095Y-112530000D01*
X116535476Y-112577619D01*
X115630714Y-112482380D02*
X116106904Y-112482380D01*
X116154523Y-112958571D01*
X116106904Y-112910952D01*
X116011666Y-112863333D01*
X115773571Y-112863333D01*
X115678333Y-112910952D01*
X115630714Y-112958571D01*
X115583095Y-113053809D01*
X115583095Y-113291904D01*
X115630714Y-113387142D01*
X115678333Y-113434761D01*
X115773571Y-113482380D01*
X116011666Y-113482380D01*
X116106904Y-113434761D01*
X116154523Y-113387142D01*
X117927380Y-118737142D02*
X117451190Y-118403809D01*
X117927380Y-118165714D02*
X116927380Y-118165714D01*
X116927380Y-118546666D01*
X116975000Y-118641904D01*
X117022619Y-118689523D01*
X117117857Y-118737142D01*
X117260714Y-118737142D01*
X117355952Y-118689523D01*
X117403571Y-118641904D01*
X117451190Y-118546666D01*
X117451190Y-118165714D01*
X117927380Y-119689523D02*
X117927380Y-119118095D01*
X117927380Y-119403809D02*
X116927380Y-119403809D01*
X117070238Y-119308571D01*
X117165476Y-119213333D01*
X117213095Y-119118095D01*
X117260714Y-120546666D02*
X117927380Y-120546666D01*
X116879761Y-120308571D02*
X117594047Y-120070476D01*
X117594047Y-120689523D01*
X116657380Y-118737142D02*
X116181190Y-118403809D01*
X116657380Y-118165714D02*
X115657380Y-118165714D01*
X115657380Y-118546666D01*
X115705000Y-118641904D01*
X115752619Y-118689523D01*
X115847857Y-118737142D01*
X115990714Y-118737142D01*
X116085952Y-118689523D01*
X116133571Y-118641904D01*
X116181190Y-118546666D01*
X116181190Y-118165714D01*
X116657380Y-119689523D02*
X116657380Y-119118095D01*
X116657380Y-119403809D02*
X115657380Y-119403809D01*
X115800238Y-119308571D01*
X115895476Y-119213333D01*
X115943095Y-119118095D01*
X115657380Y-120022857D02*
X115657380Y-120641904D01*
X116038333Y-120308571D01*
X116038333Y-120451428D01*
X116085952Y-120546666D01*
X116133571Y-120594285D01*
X116228809Y-120641904D01*
X116466904Y-120641904D01*
X116562142Y-120594285D01*
X116609761Y-120546666D01*
X116657380Y-120451428D01*
X116657380Y-120165714D01*
X116609761Y-120070476D01*
X116562142Y-120022857D01*
X103322380Y-114614761D02*
X102846190Y-114281428D01*
X103322380Y-114043333D02*
X102322380Y-114043333D01*
X102322380Y-114424285D01*
X102370000Y-114519523D01*
X102417619Y-114567142D01*
X102512857Y-114614761D01*
X102655714Y-114614761D01*
X102750952Y-114567142D01*
X102798571Y-114519523D01*
X102846190Y-114424285D01*
X102846190Y-114043333D01*
X103322380Y-115567142D02*
X103322380Y-114995714D01*
X103322380Y-115281428D02*
X102322380Y-115281428D01*
X102465238Y-115186190D01*
X102560476Y-115090952D01*
X102608095Y-114995714D01*
X103322380Y-116519523D02*
X103322380Y-115948095D01*
X103322380Y-116233809D02*
X102322380Y-116233809D01*
X102465238Y-116138571D01*
X102560476Y-116043333D01*
X102608095Y-115948095D01*
X100782380Y-114614761D02*
X100306190Y-114281428D01*
X100782380Y-114043333D02*
X99782380Y-114043333D01*
X99782380Y-114424285D01*
X99830000Y-114519523D01*
X99877619Y-114567142D01*
X99972857Y-114614761D01*
X100115714Y-114614761D01*
X100210952Y-114567142D01*
X100258571Y-114519523D01*
X100306190Y-114424285D01*
X100306190Y-114043333D01*
X100782380Y-115567142D02*
X100782380Y-114995714D01*
X100782380Y-115281428D02*
X99782380Y-115281428D01*
X99925238Y-115186190D01*
X100020476Y-115090952D01*
X100068095Y-114995714D01*
X99782380Y-116186190D02*
X99782380Y-116281428D01*
X99830000Y-116376666D01*
X99877619Y-116424285D01*
X99972857Y-116471904D01*
X100163333Y-116519523D01*
X100401428Y-116519523D01*
X100591904Y-116471904D01*
X100687142Y-116424285D01*
X100734761Y-116376666D01*
X100782380Y-116281428D01*
X100782380Y-116186190D01*
X100734761Y-116090952D01*
X100687142Y-116043333D01*
X100591904Y-115995714D01*
X100401428Y-115948095D01*
X100163333Y-115948095D01*
X99972857Y-115995714D01*
X99877619Y-116043333D01*
X99830000Y-116090952D01*
X99782380Y-116186190D01*
X98755476Y-137517142D02*
X98803095Y-137564761D01*
X98945952Y-137612380D01*
X99041190Y-137612380D01*
X99184047Y-137564761D01*
X99279285Y-137469523D01*
X99326904Y-137374285D01*
X99374523Y-137183809D01*
X99374523Y-137040952D01*
X99326904Y-136850476D01*
X99279285Y-136755238D01*
X99184047Y-136660000D01*
X99041190Y-136612380D01*
X98945952Y-136612380D01*
X98803095Y-136660000D01*
X98755476Y-136707619D01*
X98374523Y-136707619D02*
X98326904Y-136660000D01*
X98231666Y-136612380D01*
X97993571Y-136612380D01*
X97898333Y-136660000D01*
X97850714Y-136707619D01*
X97803095Y-136802857D01*
X97803095Y-136898095D01*
X97850714Y-137040952D01*
X98422142Y-137612380D01*
X97803095Y-137612380D01*
X96850714Y-137612380D02*
X97422142Y-137612380D01*
X97136428Y-137612380D02*
X97136428Y-136612380D01*
X97231666Y-136755238D01*
X97326904Y-136850476D01*
X97422142Y-136898095D01*
X109862857Y-114022142D02*
X109910476Y-114069761D01*
X110053333Y-114117380D01*
X110148571Y-114117380D01*
X110291428Y-114069761D01*
X110386666Y-113974523D01*
X110434285Y-113879285D01*
X110481904Y-113688809D01*
X110481904Y-113545952D01*
X110434285Y-113355476D01*
X110386666Y-113260238D01*
X110291428Y-113165000D01*
X110148571Y-113117380D01*
X110053333Y-113117380D01*
X109910476Y-113165000D01*
X109862857Y-113212619D01*
X108910476Y-114117380D02*
X109481904Y-114117380D01*
X109196190Y-114117380D02*
X109196190Y-113117380D01*
X109291428Y-113260238D01*
X109386666Y-113355476D01*
X109481904Y-113403095D01*
X107958095Y-114117380D02*
X108529523Y-114117380D01*
X108243809Y-114117380D02*
X108243809Y-113117380D01*
X108339047Y-113260238D01*
X108434285Y-113355476D01*
X108529523Y-113403095D01*
X94972142Y-116197142D02*
X95019761Y-116149523D01*
X95067380Y-116006666D01*
X95067380Y-115911428D01*
X95019761Y-115768571D01*
X94924523Y-115673333D01*
X94829285Y-115625714D01*
X94638809Y-115578095D01*
X94495952Y-115578095D01*
X94305476Y-115625714D01*
X94210238Y-115673333D01*
X94115000Y-115768571D01*
X94067380Y-115911428D01*
X94067380Y-116006666D01*
X94115000Y-116149523D01*
X94162619Y-116197142D01*
X95067380Y-117149523D02*
X95067380Y-116578095D01*
X95067380Y-116863809D02*
X94067380Y-116863809D01*
X94210238Y-116768571D01*
X94305476Y-116673333D01*
X94353095Y-116578095D01*
X94067380Y-117768571D02*
X94067380Y-117863809D01*
X94115000Y-117959047D01*
X94162619Y-118006666D01*
X94257857Y-118054285D01*
X94448333Y-118101904D01*
X94686428Y-118101904D01*
X94876904Y-118054285D01*
X94972142Y-118006666D01*
X95019761Y-117959047D01*
X95067380Y-117863809D01*
X95067380Y-117768571D01*
X95019761Y-117673333D01*
X94972142Y-117625714D01*
X94876904Y-117578095D01*
X94686428Y-117530476D01*
X94448333Y-117530476D01*
X94257857Y-117578095D01*
X94162619Y-117625714D01*
X94115000Y-117673333D01*
X94067380Y-117768571D01*
X93030238Y-103227142D02*
X93077857Y-103274761D01*
X93220714Y-103322380D01*
X93315952Y-103322380D01*
X93458809Y-103274761D01*
X93554047Y-103179523D01*
X93601666Y-103084285D01*
X93649285Y-102893809D01*
X93649285Y-102750952D01*
X93601666Y-102560476D01*
X93554047Y-102465238D01*
X93458809Y-102370000D01*
X93315952Y-102322380D01*
X93220714Y-102322380D01*
X93077857Y-102370000D01*
X93030238Y-102417619D01*
X92077857Y-103322380D02*
X92649285Y-103322380D01*
X92363571Y-103322380D02*
X92363571Y-102322380D01*
X92458809Y-102465238D01*
X92554047Y-102560476D01*
X92649285Y-102608095D01*
X91696904Y-102417619D02*
X91649285Y-102370000D01*
X91554047Y-102322380D01*
X91315952Y-102322380D01*
X91220714Y-102370000D01*
X91173095Y-102417619D01*
X91125476Y-102512857D01*
X91125476Y-102608095D01*
X91173095Y-102750952D01*
X91744523Y-103322380D01*
X91125476Y-103322380D01*
X85828095Y-105862380D02*
X85828095Y-104862380D01*
X85590000Y-104862380D01*
X85447142Y-104910000D01*
X85351904Y-105005238D01*
X85304285Y-105100476D01*
X85256666Y-105290952D01*
X85256666Y-105433809D01*
X85304285Y-105624285D01*
X85351904Y-105719523D01*
X85447142Y-105814761D01*
X85590000Y-105862380D01*
X85828095Y-105862380D01*
X84875714Y-104957619D02*
X84828095Y-104910000D01*
X84732857Y-104862380D01*
X84494761Y-104862380D01*
X84399523Y-104910000D01*
X84351904Y-104957619D01*
X84304285Y-105052857D01*
X84304285Y-105148095D01*
X84351904Y-105290952D01*
X84923333Y-105862380D01*
X84304285Y-105862380D01*
X131897380Y-128801904D02*
X130897380Y-128801904D01*
X130897380Y-129040000D01*
X130945000Y-129182857D01*
X131040238Y-129278095D01*
X131135476Y-129325714D01*
X131325952Y-129373333D01*
X131468809Y-129373333D01*
X131659285Y-129325714D01*
X131754523Y-129278095D01*
X131849761Y-129182857D01*
X131897380Y-129040000D01*
X131897380Y-128801904D01*
X130897380Y-129706666D02*
X130897380Y-130325714D01*
X131278333Y-129992380D01*
X131278333Y-130135238D01*
X131325952Y-130230476D01*
X131373571Y-130278095D01*
X131468809Y-130325714D01*
X131706904Y-130325714D01*
X131802142Y-130278095D01*
X131849761Y-130230476D01*
X131897380Y-130135238D01*
X131897380Y-129849523D01*
X131849761Y-129754285D01*
X131802142Y-129706666D01*
X89066666Y-96972380D02*
X89400000Y-96496190D01*
X89638095Y-96972380D02*
X89638095Y-95972380D01*
X89257142Y-95972380D01*
X89161904Y-96020000D01*
X89114285Y-96067619D01*
X89066666Y-96162857D01*
X89066666Y-96305714D01*
X89114285Y-96400952D01*
X89161904Y-96448571D01*
X89257142Y-96496190D01*
X89638095Y-96496190D01*
X88733333Y-95972380D02*
X88066666Y-95972380D01*
X88495238Y-96972380D01*
X84272380Y-136517142D02*
X83796190Y-136183809D01*
X84272380Y-135945714D02*
X83272380Y-135945714D01*
X83272380Y-136326666D01*
X83320000Y-136421904D01*
X83367619Y-136469523D01*
X83462857Y-136517142D01*
X83605714Y-136517142D01*
X83700952Y-136469523D01*
X83748571Y-136421904D01*
X83796190Y-136326666D01*
X83796190Y-135945714D01*
X83367619Y-136898095D02*
X83320000Y-136945714D01*
X83272380Y-137040952D01*
X83272380Y-137279047D01*
X83320000Y-137374285D01*
X83367619Y-137421904D01*
X83462857Y-137469523D01*
X83558095Y-137469523D01*
X83700952Y-137421904D01*
X84272380Y-136850476D01*
X84272380Y-137469523D01*
X83367619Y-137850476D02*
X83320000Y-137898095D01*
X83272380Y-137993333D01*
X83272380Y-138231428D01*
X83320000Y-138326666D01*
X83367619Y-138374285D01*
X83462857Y-138421904D01*
X83558095Y-138421904D01*
X83700952Y-138374285D01*
X84272380Y-137802857D01*
X84272380Y-138421904D01*
X91257380Y-122869761D02*
X90781190Y-122536428D01*
X91257380Y-122298333D02*
X90257380Y-122298333D01*
X90257380Y-122679285D01*
X90305000Y-122774523D01*
X90352619Y-122822142D01*
X90447857Y-122869761D01*
X90590714Y-122869761D01*
X90685952Y-122822142D01*
X90733571Y-122774523D01*
X90781190Y-122679285D01*
X90781190Y-122298333D01*
X91257380Y-123822142D02*
X91257380Y-123250714D01*
X91257380Y-123536428D02*
X90257380Y-123536428D01*
X90400238Y-123441190D01*
X90495476Y-123345952D01*
X90543095Y-123250714D01*
X90685952Y-124393571D02*
X90638333Y-124298333D01*
X90590714Y-124250714D01*
X90495476Y-124203095D01*
X90447857Y-124203095D01*
X90352619Y-124250714D01*
X90305000Y-124298333D01*
X90257380Y-124393571D01*
X90257380Y-124584047D01*
X90305000Y-124679285D01*
X90352619Y-124726904D01*
X90447857Y-124774523D01*
X90495476Y-124774523D01*
X90590714Y-124726904D01*
X90638333Y-124679285D01*
X90685952Y-124584047D01*
X90685952Y-124393571D01*
X90733571Y-124298333D01*
X90781190Y-124250714D01*
X90876428Y-124203095D01*
X91066904Y-124203095D01*
X91162142Y-124250714D01*
X91209761Y-124298333D01*
X91257380Y-124393571D01*
X91257380Y-124584047D01*
X91209761Y-124679285D01*
X91162142Y-124726904D01*
X91066904Y-124774523D01*
X90876428Y-124774523D01*
X90781190Y-124726904D01*
X90733571Y-124679285D01*
X90685952Y-124584047D01*
X88717380Y-122869761D02*
X88241190Y-122536428D01*
X88717380Y-122298333D02*
X87717380Y-122298333D01*
X87717380Y-122679285D01*
X87765000Y-122774523D01*
X87812619Y-122822142D01*
X87907857Y-122869761D01*
X88050714Y-122869761D01*
X88145952Y-122822142D01*
X88193571Y-122774523D01*
X88241190Y-122679285D01*
X88241190Y-122298333D01*
X87812619Y-123250714D02*
X87765000Y-123298333D01*
X87717380Y-123393571D01*
X87717380Y-123631666D01*
X87765000Y-123726904D01*
X87812619Y-123774523D01*
X87907857Y-123822142D01*
X88003095Y-123822142D01*
X88145952Y-123774523D01*
X88717380Y-123203095D01*
X88717380Y-123822142D01*
X88717380Y-124774523D02*
X88717380Y-124203095D01*
X88717380Y-124488809D02*
X87717380Y-124488809D01*
X87860238Y-124393571D01*
X87955476Y-124298333D01*
X88003095Y-124203095D01*
X109550476Y-127452380D02*
X109883809Y-126976190D01*
X110121904Y-127452380D02*
X110121904Y-126452380D01*
X109740952Y-126452380D01*
X109645714Y-126500000D01*
X109598095Y-126547619D01*
X109550476Y-126642857D01*
X109550476Y-126785714D01*
X109598095Y-126880952D01*
X109645714Y-126928571D01*
X109740952Y-126976190D01*
X110121904Y-126976190D01*
X108598095Y-127452380D02*
X109169523Y-127452380D01*
X108883809Y-127452380D02*
X108883809Y-126452380D01*
X108979047Y-126595238D01*
X109074285Y-126690476D01*
X109169523Y-126738095D01*
X108264761Y-126452380D02*
X107598095Y-126452380D01*
X108026666Y-127452380D01*
M02*
