G04 #@! TF.GenerationSoftware,KiCad,Pcbnew,5.1.6-c6e7f7d~87~ubuntu19.10.1*
G04 #@! TF.CreationDate,2022-03-29T21:36:28+06:00*
G04 #@! TF.ProjectId,__________________________r1b,4240353c-3e3b-43e5-9f41-3048385f3e33,1B*
G04 #@! TF.SameCoordinates,Original*
G04 #@! TF.FileFunction,Legend,Top*
G04 #@! TF.FilePolarity,Positive*
%FSLAX46Y46*%
G04 Gerber Fmt 4.6, Leading zero omitted, Abs format (unit mm)*
G04 Created by KiCad (PCBNEW 5.1.6-c6e7f7d~87~ubuntu19.10.1) date 2022-03-29 21:36:28*
%MOMM*%
%LPD*%
G01*
G04 APERTURE LIST*
%ADD10C,0.200000*%
%ADD11C,0.100000*%
%ADD12C,0.500000*%
%ADD13R,2.900000X2.900000*%
%ADD14C,6.400000*%
%ADD15R,2.300000X2.300000*%
%ADD16C,2.300000*%
%ADD17R,3.400000X3.400000*%
G04 APERTURE END LIST*
D10*
X109529523Y-173712142D02*
X109481904Y-173759761D01*
X109339047Y-173807380D01*
X109243809Y-173807380D01*
X109100952Y-173759761D01*
X109005714Y-173664523D01*
X108958095Y-173569285D01*
X108910476Y-173378809D01*
X108910476Y-173235952D01*
X108958095Y-173045476D01*
X109005714Y-172950238D01*
X109100952Y-172855000D01*
X109243809Y-172807380D01*
X109339047Y-172807380D01*
X109481904Y-172855000D01*
X109529523Y-172902619D01*
X106680000Y-173807380D02*
X106680000Y-172807380D01*
X104044761Y-172807380D02*
X104235238Y-172807380D01*
X104330476Y-172855000D01*
X104425714Y-172950238D01*
X104473333Y-173140714D01*
X104473333Y-173474047D01*
X104425714Y-173664523D01*
X104330476Y-173759761D01*
X104235238Y-173807380D01*
X104044761Y-173807380D01*
X103949523Y-173759761D01*
X103854285Y-173664523D01*
X103806666Y-173474047D01*
X103806666Y-173140714D01*
X103854285Y-172950238D01*
X103949523Y-172855000D01*
X104044761Y-172807380D01*
X101266666Y-172807380D02*
X101600000Y-173807380D01*
X101933333Y-172807380D01*
X90599047Y-196077380D02*
X91170476Y-196077380D01*
X90884761Y-197077380D02*
X90884761Y-196077380D01*
X91503809Y-197077380D02*
X91503809Y-196077380D01*
X91884761Y-196077380D01*
X91980000Y-196125000D01*
X92027619Y-196172619D01*
X92075238Y-196267857D01*
X92075238Y-196410714D01*
X92027619Y-196505952D01*
X91980000Y-196553571D01*
X91884761Y-196601190D01*
X91503809Y-196601190D01*
X92503809Y-196553571D02*
X92837142Y-196553571D01*
X92980000Y-197077380D02*
X92503809Y-197077380D01*
X92503809Y-196077380D01*
X92980000Y-196077380D01*
X93408571Y-197077380D02*
X93408571Y-196077380D01*
X93741904Y-196791666D01*
X94075238Y-196077380D01*
X94075238Y-197077380D01*
X94741904Y-196077380D02*
X94932380Y-196077380D01*
X95027619Y-196125000D01*
X95122857Y-196220238D01*
X95170476Y-196410714D01*
X95170476Y-196744047D01*
X95122857Y-196934523D01*
X95027619Y-197029761D01*
X94932380Y-197077380D01*
X94741904Y-197077380D01*
X94646666Y-197029761D01*
X94551428Y-196934523D01*
X94503809Y-196744047D01*
X94503809Y-196410714D01*
X94551428Y-196220238D01*
X94646666Y-196125000D01*
X94741904Y-196077380D01*
X96170476Y-197077380D02*
X96170476Y-196077380D01*
X96027619Y-196077380D01*
X95884761Y-196125000D01*
X95789523Y-196220238D01*
X95741904Y-196363095D01*
X95646666Y-196934523D01*
X95599047Y-197029761D01*
X95503809Y-197077380D01*
X95456190Y-197077380D01*
X96837142Y-196077380D02*
X97027619Y-196077380D01*
X97122857Y-196125000D01*
X97218095Y-196220238D01*
X97265714Y-196410714D01*
X97265714Y-196744047D01*
X97218095Y-196934523D01*
X97122857Y-197029761D01*
X97027619Y-197077380D01*
X96837142Y-197077380D01*
X96741904Y-197029761D01*
X96646666Y-196934523D01*
X96599047Y-196744047D01*
X96599047Y-196410714D01*
X96646666Y-196220238D01*
X96741904Y-196125000D01*
X96837142Y-196077380D01*
X86170476Y-198682142D02*
X86122857Y-198729761D01*
X85980000Y-198777380D01*
X85884761Y-198777380D01*
X85741904Y-198729761D01*
X85646666Y-198634523D01*
X85599047Y-198539285D01*
X85551428Y-198348809D01*
X85551428Y-198205952D01*
X85599047Y-198015476D01*
X85646666Y-197920238D01*
X85741904Y-197825000D01*
X85884761Y-197777380D01*
X85980000Y-197777380D01*
X86122857Y-197825000D01*
X86170476Y-197872619D01*
X86551428Y-198491666D02*
X87027619Y-198491666D01*
X86456190Y-198777380D02*
X86789523Y-197777380D01*
X87122857Y-198777380D01*
X87932380Y-197777380D02*
X87932380Y-198777380D01*
X87456190Y-197777380D02*
X87456190Y-198777380D01*
X88408571Y-198777380D01*
X88408571Y-197777380D01*
X88884761Y-197777380D02*
X88884761Y-198777380D01*
X89456190Y-197777380D01*
X89456190Y-198777380D01*
X90884761Y-197777380D02*
X91075238Y-197777380D01*
X91170476Y-197825000D01*
X91265714Y-197920238D01*
X91313333Y-198110714D01*
X91313333Y-198444047D01*
X91265714Y-198634523D01*
X91170476Y-198729761D01*
X91075238Y-198777380D01*
X90884761Y-198777380D01*
X90789523Y-198729761D01*
X90694285Y-198634523D01*
X90646666Y-198444047D01*
X90646666Y-198110714D01*
X90694285Y-197920238D01*
X90789523Y-197825000D01*
X90884761Y-197777380D01*
X91741904Y-198777380D02*
X91741904Y-197777380D01*
X92265714Y-197777380D01*
X92789523Y-197777380D02*
X92980000Y-197777380D01*
X93075238Y-197825000D01*
X93170476Y-197920238D01*
X93218095Y-198110714D01*
X93218095Y-198444047D01*
X93170476Y-198634523D01*
X93075238Y-198729761D01*
X92980000Y-198777380D01*
X92789523Y-198777380D01*
X92694285Y-198729761D01*
X92599047Y-198634523D01*
X92551428Y-198444047D01*
X92551428Y-198110714D01*
X92599047Y-197920238D01*
X92694285Y-197825000D01*
X92789523Y-197777380D01*
X93646666Y-198777380D02*
X93646666Y-197777380D01*
X94027619Y-197777380D01*
X94122857Y-197825000D01*
X94170476Y-197872619D01*
X94218095Y-197967857D01*
X94218095Y-198110714D01*
X94170476Y-198205952D01*
X94122857Y-198253571D01*
X94027619Y-198301190D01*
X93646666Y-198301190D01*
X94837142Y-197777380D02*
X95027619Y-197777380D01*
X95122857Y-197825000D01*
X95218095Y-197920238D01*
X95265714Y-198110714D01*
X95265714Y-198444047D01*
X95218095Y-198634523D01*
X95122857Y-198729761D01*
X95027619Y-198777380D01*
X94837142Y-198777380D01*
X94741904Y-198729761D01*
X94646666Y-198634523D01*
X94599047Y-198444047D01*
X94599047Y-198110714D01*
X94646666Y-197920238D01*
X94741904Y-197825000D01*
X94837142Y-197777380D01*
X96456190Y-199015476D02*
X96456190Y-198777380D01*
X95599047Y-198777380D01*
X95599047Y-199015476D01*
X96265714Y-198777380D02*
X96265714Y-197777380D01*
X96027619Y-197777380D01*
X95932380Y-197825000D01*
X95884761Y-197872619D01*
X95837142Y-197967857D01*
X95741904Y-198777380D01*
X96837142Y-198777380D02*
X96837142Y-197777380D01*
X96837142Y-198253571D02*
X97408571Y-198253571D01*
X97408571Y-198777380D02*
X97408571Y-197777380D01*
X97884761Y-197777380D02*
X97884761Y-198777380D01*
X98456190Y-197777380D01*
X98456190Y-198777380D01*
X98932380Y-198777380D02*
X98932380Y-197777380D01*
X99503809Y-198777380D02*
X99075238Y-198205952D01*
X99503809Y-197777380D02*
X98932380Y-198348809D01*
X100122857Y-197777380D02*
X100313333Y-197777380D01*
X100408571Y-197825000D01*
X100503809Y-197920238D01*
X100551428Y-198110714D01*
X100551428Y-198444047D01*
X100503809Y-198634523D01*
X100408571Y-198729761D01*
X100313333Y-198777380D01*
X100122857Y-198777380D01*
X100027619Y-198729761D01*
X99932380Y-198634523D01*
X99884761Y-198444047D01*
X99884761Y-198110714D01*
X99932380Y-197920238D01*
X100027619Y-197825000D01*
X100122857Y-197777380D01*
X101313333Y-198253571D02*
X101456190Y-198301190D01*
X101503809Y-198348809D01*
X101551428Y-198444047D01*
X101551428Y-198586904D01*
X101503809Y-198682142D01*
X101456190Y-198729761D01*
X101360952Y-198777380D01*
X100980000Y-198777380D01*
X100980000Y-197777380D01*
X101313333Y-197777380D01*
X101408571Y-197825000D01*
X101456190Y-197872619D01*
X101503809Y-197967857D01*
X101503809Y-198063095D01*
X101456190Y-198158333D01*
X101408571Y-198205952D01*
X101313333Y-198253571D01*
X100980000Y-198253571D01*
X101932380Y-198491666D02*
X102408571Y-198491666D01*
X101837142Y-198777380D02*
X102170476Y-197777380D01*
X102503809Y-198777380D01*
X91480000Y-200810714D02*
X91241904Y-200810714D01*
X91241904Y-199382142D01*
X91480000Y-199382142D01*
X92432380Y-200477380D02*
X92099047Y-200001190D01*
X91860952Y-200477380D02*
X91860952Y-199477380D01*
X92241904Y-199477380D01*
X92337142Y-199525000D01*
X92384761Y-199572619D01*
X92432380Y-199667857D01*
X92432380Y-199810714D01*
X92384761Y-199905952D01*
X92337142Y-199953571D01*
X92241904Y-200001190D01*
X91860952Y-200001190D01*
X92860952Y-199953571D02*
X93194285Y-199953571D01*
X93337142Y-200477380D02*
X92860952Y-200477380D01*
X92860952Y-199477380D01*
X93337142Y-199477380D01*
X93622857Y-199477380D02*
X93956190Y-200477380D01*
X94289523Y-199477380D01*
X95146666Y-200477380D02*
X94575238Y-200477380D01*
X94860952Y-200477380D02*
X94860952Y-199477380D01*
X94765714Y-199620238D01*
X94670476Y-199715476D01*
X94575238Y-199763095D01*
X95908571Y-199953571D02*
X96051428Y-200001190D01*
X96099047Y-200048809D01*
X96146666Y-200144047D01*
X96146666Y-200286904D01*
X96099047Y-200382142D01*
X96051428Y-200429761D01*
X95956190Y-200477380D01*
X95575238Y-200477380D01*
X95575238Y-199477380D01*
X95908571Y-199477380D01*
X96003809Y-199525000D01*
X96051428Y-199572619D01*
X96099047Y-199667857D01*
X96099047Y-199763095D01*
X96051428Y-199858333D01*
X96003809Y-199905952D01*
X95908571Y-199953571D01*
X95575238Y-199953571D01*
X96480000Y-200810714D02*
X96718095Y-200810714D01*
X96718095Y-199382142D01*
X96480000Y-199382142D01*
X89122857Y-201796428D02*
X89884761Y-201796428D01*
X90218095Y-201177380D02*
X90789523Y-201177380D01*
X90503809Y-202177380D02*
X90503809Y-201177380D01*
X90980000Y-201177380D02*
X91551428Y-201177380D01*
X91265714Y-202177380D02*
X91265714Y-201177380D01*
X91884761Y-202177380D02*
X91884761Y-201177380D01*
X92456190Y-202177380D02*
X92027619Y-201605952D01*
X92456190Y-201177380D02*
X91884761Y-201748809D01*
X92884761Y-202177380D02*
X92884761Y-201177380D01*
X93265714Y-201177380D01*
X93360952Y-201225000D01*
X93408571Y-201272619D01*
X93456190Y-201367857D01*
X93456190Y-201510714D01*
X93408571Y-201605952D01*
X93360952Y-201653571D01*
X93265714Y-201701190D01*
X92884761Y-201701190D01*
X94360952Y-201177380D02*
X94360952Y-202177380D01*
X93837142Y-201177380D02*
X93837142Y-201558333D01*
X93884761Y-201653571D01*
X93932380Y-201701190D01*
X94027619Y-201748809D01*
X94360952Y-201748809D01*
X94837142Y-202177380D02*
X94837142Y-201177380D01*
X95408571Y-201177380D01*
X95408571Y-202177380D01*
X96646666Y-202415476D02*
X96646666Y-202177380D01*
X95789523Y-202177380D01*
X95789523Y-202415476D01*
X96456190Y-202177380D02*
X96456190Y-201177380D01*
X96218095Y-201177380D01*
X96122857Y-201225000D01*
X96075238Y-201272619D01*
X96027619Y-201367857D01*
X95932380Y-202177380D01*
X97599047Y-202177380D02*
X97599047Y-201177380D01*
X97456190Y-201177380D01*
X97313333Y-201225000D01*
X97218095Y-201320238D01*
X97170476Y-201463095D01*
X97075238Y-202034523D01*
X97027619Y-202129761D01*
X96932380Y-202177380D01*
X96884761Y-202177380D01*
X98075238Y-201796428D02*
X98837142Y-201796428D01*
X86027619Y-202925000D02*
X85932380Y-202877380D01*
X85789523Y-202877380D01*
X85646666Y-202925000D01*
X85551428Y-203020238D01*
X85503809Y-203115476D01*
X85456190Y-203305952D01*
X85456190Y-203448809D01*
X85503809Y-203639285D01*
X85551428Y-203734523D01*
X85646666Y-203829761D01*
X85789523Y-203877380D01*
X85884761Y-203877380D01*
X86027619Y-203829761D01*
X86075238Y-203782142D01*
X86075238Y-203448809D01*
X85884761Y-203448809D01*
X86503809Y-203877380D02*
X86503809Y-202877380D01*
X86837142Y-202877380D02*
X87408571Y-202877380D01*
X87122857Y-203877380D02*
X87122857Y-202877380D01*
X87741904Y-203877380D02*
X87741904Y-202877380D01*
X87741904Y-203353571D02*
X88313333Y-203353571D01*
X88313333Y-203877380D02*
X88313333Y-202877380D01*
X88789523Y-202877380D02*
X88789523Y-203686904D01*
X88837142Y-203782142D01*
X88884761Y-203829761D01*
X88980000Y-203877380D01*
X89170476Y-203877380D01*
X89265714Y-203829761D01*
X89313333Y-203782142D01*
X89360952Y-203686904D01*
X89360952Y-202877380D01*
X90170476Y-203353571D02*
X90313333Y-203401190D01*
X90360952Y-203448809D01*
X90408571Y-203544047D01*
X90408571Y-203686904D01*
X90360952Y-203782142D01*
X90313333Y-203829761D01*
X90218095Y-203877380D01*
X89837142Y-203877380D01*
X89837142Y-202877380D01*
X90170476Y-202877380D01*
X90265714Y-202925000D01*
X90313333Y-202972619D01*
X90360952Y-203067857D01*
X90360952Y-203163095D01*
X90313333Y-203258333D01*
X90265714Y-203305952D01*
X90170476Y-203353571D01*
X89837142Y-203353571D01*
X90837142Y-203782142D02*
X90884761Y-203829761D01*
X90837142Y-203877380D01*
X90789523Y-203829761D01*
X90837142Y-203782142D01*
X90837142Y-203877380D01*
X91884761Y-203782142D02*
X91837142Y-203829761D01*
X91694285Y-203877380D01*
X91599047Y-203877380D01*
X91456190Y-203829761D01*
X91360952Y-203734523D01*
X91313333Y-203639285D01*
X91265714Y-203448809D01*
X91265714Y-203305952D01*
X91313333Y-203115476D01*
X91360952Y-203020238D01*
X91456190Y-202925000D01*
X91599047Y-202877380D01*
X91694285Y-202877380D01*
X91837142Y-202925000D01*
X91884761Y-202972619D01*
X92503809Y-202877380D02*
X92694285Y-202877380D01*
X92789523Y-202925000D01*
X92884761Y-203020238D01*
X92932380Y-203210714D01*
X92932380Y-203544047D01*
X92884761Y-203734523D01*
X92789523Y-203829761D01*
X92694285Y-203877380D01*
X92503809Y-203877380D01*
X92408571Y-203829761D01*
X92313333Y-203734523D01*
X92265714Y-203544047D01*
X92265714Y-203210714D01*
X92313333Y-203020238D01*
X92408571Y-202925000D01*
X92503809Y-202877380D01*
X93360952Y-203877380D02*
X93360952Y-202877380D01*
X93694285Y-203591666D01*
X94027619Y-202877380D01*
X94027619Y-203877380D01*
X95218095Y-202829761D02*
X94360952Y-204115476D01*
X95503809Y-203591666D02*
X95980000Y-203591666D01*
X95408571Y-203877380D02*
X95741904Y-202877380D01*
X96075238Y-203877380D01*
X96408571Y-203877380D02*
X96408571Y-202877380D01*
X96646666Y-202877380D01*
X96789523Y-202925000D01*
X96884761Y-203020238D01*
X96932380Y-203115476D01*
X96980000Y-203305952D01*
X96980000Y-203448809D01*
X96932380Y-203639285D01*
X96884761Y-203734523D01*
X96789523Y-203829761D01*
X96646666Y-203877380D01*
X96408571Y-203877380D01*
X97408571Y-203353571D02*
X97741904Y-203353571D01*
X97884761Y-203877380D02*
X97408571Y-203877380D01*
X97408571Y-202877380D01*
X97884761Y-202877380D01*
X98313333Y-203877380D02*
X98313333Y-202877380D01*
X98694285Y-202877380D01*
X98789523Y-202925000D01*
X98837142Y-202972619D01*
X98884761Y-203067857D01*
X98884761Y-203210714D01*
X98837142Y-203305952D01*
X98789523Y-203353571D01*
X98694285Y-203401190D01*
X98313333Y-203401190D01*
X99170476Y-202877380D02*
X99741904Y-202877380D01*
X99456190Y-203877380D02*
X99456190Y-202877380D01*
X100503809Y-202877380D02*
X100313333Y-202877380D01*
X100218095Y-202925000D01*
X100170476Y-202972619D01*
X100075238Y-203115476D01*
X100027619Y-203305952D01*
X100027619Y-203686904D01*
X100075238Y-203782142D01*
X100122857Y-203829761D01*
X100218095Y-203877380D01*
X100408571Y-203877380D01*
X100503809Y-203829761D01*
X100551428Y-203782142D01*
X100599047Y-203686904D01*
X100599047Y-203448809D01*
X100551428Y-203353571D01*
X100503809Y-203305952D01*
X100408571Y-203258333D01*
X100218095Y-203258333D01*
X100122857Y-203305952D01*
X100075238Y-203353571D01*
X100027619Y-203448809D01*
X101456190Y-202877380D02*
X101265714Y-202877380D01*
X101170476Y-202925000D01*
X101122857Y-202972619D01*
X101027619Y-203115476D01*
X100980000Y-203305952D01*
X100980000Y-203686904D01*
X101027619Y-203782142D01*
X101075238Y-203829761D01*
X101170476Y-203877380D01*
X101360952Y-203877380D01*
X101456190Y-203829761D01*
X101503809Y-203782142D01*
X101551428Y-203686904D01*
X101551428Y-203448809D01*
X101503809Y-203353571D01*
X101456190Y-203305952D01*
X101360952Y-203258333D01*
X101170476Y-203258333D01*
X101075238Y-203305952D01*
X101027619Y-203353571D01*
X100980000Y-203448809D01*
X102408571Y-202877380D02*
X102218095Y-202877380D01*
X102122857Y-202925000D01*
X102075238Y-202972619D01*
X101980000Y-203115476D01*
X101932380Y-203305952D01*
X101932380Y-203686904D01*
X101980000Y-203782142D01*
X102027619Y-203829761D01*
X102122857Y-203877380D01*
X102313333Y-203877380D01*
X102408571Y-203829761D01*
X102456190Y-203782142D01*
X102503809Y-203686904D01*
X102503809Y-203448809D01*
X102456190Y-203353571D01*
X102408571Y-203305952D01*
X102313333Y-203258333D01*
X102122857Y-203258333D01*
X102027619Y-203305952D01*
X101980000Y-203353571D01*
X101932380Y-203448809D01*
X113910000Y-177400000D02*
X113910000Y-190900000D01*
X96910000Y-177400000D02*
X96910000Y-190900000D01*
X96910000Y-190900000D02*
X113910000Y-190900000D01*
X96910000Y-177400000D02*
X113910000Y-177400000D01*
X110410000Y-184150000D02*
G75*
G03*
X110410000Y-184150000I-5000000J0D01*
G01*
X101092000Y-147320000D02*
G75*
G03*
X101092000Y-147320000I-3302000J0D01*
G01*
X116332000Y-147320000D02*
G75*
G03*
X116332000Y-147320000I-3302000J0D01*
G01*
X125095000Y-128905000D02*
X125730000Y-128270000D01*
X123825000Y-127635000D02*
X125095000Y-128905000D01*
X122555000Y-128905000D02*
X123825000Y-127635000D01*
X121285000Y-127635000D02*
X122555000Y-128905000D01*
X120015000Y-128905000D02*
X121285000Y-127635000D01*
X118745000Y-127635000D02*
X120015000Y-128905000D01*
X118110000Y-128270000D02*
X118745000Y-127635000D01*
X128270000Y-127000000D02*
X128270000Y-129540000D01*
X115570000Y-127000000D02*
X115570000Y-129540000D01*
X115570000Y-129540000D02*
X128270000Y-129540000D01*
X115570000Y-127000000D02*
X128270000Y-127000000D01*
X125730000Y-152400000D02*
X125730000Y-157480000D01*
D11*
G36*
X128270000Y-156845000D02*
G01*
X127508000Y-156845000D01*
X126619000Y-157353000D01*
X125730000Y-157480000D01*
X125730000Y-152400000D01*
X126619000Y-152527000D01*
X127508000Y-153035000D01*
X128270000Y-153035000D01*
X128270000Y-156845000D01*
G37*
X128270000Y-156845000D02*
X127508000Y-156845000D01*
X126619000Y-157353000D01*
X125730000Y-157480000D01*
X125730000Y-152400000D01*
X126619000Y-152527000D01*
X127508000Y-153035000D01*
X128270000Y-153035000D01*
X128270000Y-156845000D01*
D10*
X128270000Y-154940000D02*
G75*
G03*
X128270000Y-154940000I-2540000J0D01*
G01*
X128270000Y-153035000D02*
X128270000Y-156845000D01*
X120650000Y-153035000D02*
X120650000Y-156845000D01*
X120650000Y-153035000D02*
X128270000Y-153035000D01*
X120650000Y-156845000D02*
X128270000Y-156845000D01*
X127000000Y-201930000D02*
X114300000Y-201930000D01*
X127000000Y-199390000D02*
X114300000Y-199390000D01*
X127000000Y-201930000D02*
X127000000Y-199390000D01*
X114300000Y-201930000D02*
X114300000Y-199390000D01*
X124460000Y-200660000D02*
X123825000Y-201295000D01*
X123825000Y-201295000D02*
X122555000Y-200025000D01*
X122555000Y-200025000D02*
X121285000Y-201295000D01*
X121285000Y-201295000D02*
X120015000Y-200025000D01*
X120015000Y-200025000D02*
X118745000Y-201295000D01*
X118745000Y-201295000D02*
X117475000Y-200025000D01*
X117475000Y-200025000D02*
X116840000Y-200660000D01*
X95250000Y-179070000D02*
X90170000Y-179070000D01*
D11*
G36*
X90805000Y-181610000D02*
G01*
X90805000Y-180848000D01*
X90297000Y-179959000D01*
X90170000Y-179070000D01*
X95250000Y-179070000D01*
X95123000Y-179959000D01*
X94615000Y-180848000D01*
X94615000Y-181610000D01*
X90805000Y-181610000D01*
G37*
X90805000Y-181610000D02*
X90805000Y-180848000D01*
X90297000Y-179959000D01*
X90170000Y-179070000D01*
X95250000Y-179070000D01*
X95123000Y-179959000D01*
X94615000Y-180848000D01*
X94615000Y-181610000D01*
X90805000Y-181610000D01*
D10*
X95250000Y-179070000D02*
G75*
G03*
X95250000Y-179070000I-2540000J0D01*
G01*
X94615000Y-181610000D02*
X90805000Y-181610000D01*
X94615000Y-173990000D02*
X90805000Y-173990000D01*
X94615000Y-173990000D02*
X94615000Y-181610000D01*
X90805000Y-173990000D02*
X90805000Y-181610000D01*
X82550000Y-129540000D02*
X82550000Y-131140000D01*
X128270000Y-129540000D02*
X128270000Y-131140000D01*
X97790000Y-127000000D02*
X97790000Y-129540000D01*
X97790000Y-127000000D02*
X113030000Y-127000000D01*
X82550000Y-129540000D02*
X128270000Y-129540000D01*
X82550000Y-131140000D02*
X128270000Y-131140000D01*
X113030000Y-127000000D02*
X113030000Y-129540000D01*
X81535000Y-192531250D02*
X81535000Y-188468750D01*
X81535000Y-192531250D02*
G75*
G02*
X81535000Y-188468750I-1525000J2031250D01*
G01*
X86868750Y-156465000D02*
X90931250Y-156465000D01*
X86868750Y-156465000D02*
G75*
G02*
X90931250Y-156465000I2031250J1525000D01*
G01*
X126491250Y-139445000D02*
X122428750Y-139445000D01*
X126491250Y-139445000D02*
G75*
G02*
X122428750Y-139445000I-2031250J-1525000D01*
G01*
X106680000Y-137160000D02*
X106680000Y-139700000D01*
X104140000Y-137160000D02*
X104140000Y-139700000D01*
X104140000Y-139700000D02*
X106680000Y-139700000D01*
X104140000Y-137160000D02*
X106680000Y-137160000D01*
X101460000Y-140720000D02*
X109360000Y-140720000D01*
X101460000Y-153920000D02*
X109360000Y-153920000D01*
X101460000Y-140720000D02*
X101460000Y-153920000D01*
X109360000Y-140720000D02*
X109360000Y-153920000D01*
D12*
X102935000Y-142620000D02*
G75*
G03*
X102935000Y-142620000I-250000J0D01*
G01*
D10*
X118110000Y-171450000D02*
X118110000Y-158750000D01*
X120650000Y-171450000D02*
X120650000Y-158750000D01*
X118110000Y-171450000D02*
X120650000Y-171450000D01*
X118110000Y-158750000D02*
X120650000Y-158750000D01*
X119380000Y-168910000D02*
X118745000Y-168275000D01*
X118745000Y-168275000D02*
X120015000Y-167005000D01*
X120015000Y-167005000D02*
X118745000Y-165735000D01*
X118745000Y-165735000D02*
X120015000Y-164465000D01*
X120015000Y-164465000D02*
X118745000Y-163195000D01*
X118745000Y-163195000D02*
X120015000Y-161925000D01*
X120015000Y-161925000D02*
X119380000Y-161290000D01*
X93345000Y-193675000D02*
X93980000Y-193040000D01*
X92075000Y-192405000D02*
X93345000Y-193675000D01*
X90805000Y-193675000D02*
X92075000Y-192405000D01*
X89535000Y-192405000D02*
X90805000Y-193675000D01*
X88265000Y-193675000D02*
X89535000Y-192405000D01*
X86995000Y-192405000D02*
X88265000Y-193675000D01*
X86360000Y-193040000D02*
X86995000Y-192405000D01*
X96520000Y-191770000D02*
X96520000Y-194310000D01*
X83820000Y-191770000D02*
X83820000Y-194310000D01*
X83820000Y-194310000D02*
X96520000Y-194310000D01*
X83820000Y-191770000D02*
X96520000Y-191770000D01*
X123825000Y-191135000D02*
X124460000Y-190500000D01*
X122555000Y-189865000D02*
X123825000Y-191135000D01*
X121285000Y-191135000D02*
X122555000Y-189865000D01*
X120015000Y-189865000D02*
X121285000Y-191135000D01*
X118745000Y-191135000D02*
X120015000Y-189865000D01*
X117475000Y-189865000D02*
X118745000Y-191135000D01*
X116840000Y-190500000D02*
X117475000Y-189865000D01*
X127000000Y-189230000D02*
X127000000Y-191770000D01*
X114300000Y-189230000D02*
X114300000Y-191770000D01*
X114300000Y-191770000D02*
X127000000Y-191770000D01*
X114300000Y-189230000D02*
X127000000Y-189230000D01*
X117475000Y-192405000D02*
X116840000Y-193040000D01*
X118745000Y-193675000D02*
X117475000Y-192405000D01*
X120015000Y-192405000D02*
X118745000Y-193675000D01*
X121285000Y-193675000D02*
X120015000Y-192405000D01*
X122555000Y-192405000D02*
X121285000Y-193675000D01*
X123825000Y-193675000D02*
X122555000Y-192405000D01*
X124460000Y-193040000D02*
X123825000Y-193675000D01*
X114300000Y-194310000D02*
X114300000Y-191770000D01*
X127000000Y-194310000D02*
X127000000Y-191770000D01*
X127000000Y-191770000D02*
X114300000Y-191770000D01*
X127000000Y-194310000D02*
X114300000Y-194310000D01*
X125095000Y-161925000D02*
X124460000Y-161290000D01*
X123825000Y-163195000D02*
X125095000Y-161925000D01*
X125095000Y-164465000D02*
X123825000Y-163195000D01*
X123825000Y-165735000D02*
X125095000Y-164465000D01*
X125095000Y-167005000D02*
X123825000Y-165735000D01*
X123825000Y-168275000D02*
X125095000Y-167005000D01*
X124460000Y-168910000D02*
X123825000Y-168275000D01*
X123190000Y-158750000D02*
X125730000Y-158750000D01*
X123190000Y-171450000D02*
X125730000Y-171450000D01*
X125730000Y-171450000D02*
X125730000Y-158750000D01*
X123190000Y-171450000D02*
X123190000Y-158750000D01*
X120650000Y-171450000D02*
X120650000Y-158750000D01*
X123190000Y-171450000D02*
X123190000Y-158750000D01*
X120650000Y-171450000D02*
X123190000Y-171450000D01*
X120650000Y-158750000D02*
X123190000Y-158750000D01*
X121920000Y-168910000D02*
X121285000Y-168275000D01*
X121285000Y-168275000D02*
X122555000Y-167005000D01*
X122555000Y-167005000D02*
X121285000Y-165735000D01*
X121285000Y-165735000D02*
X122555000Y-164465000D01*
X122555000Y-164465000D02*
X121285000Y-163195000D01*
X121285000Y-163195000D02*
X122555000Y-161925000D01*
X122555000Y-161925000D02*
X121920000Y-161290000D01*
G36*
X127000000Y-176530000D02*
G01*
X127762000Y-176657000D01*
X128905000Y-177419000D01*
X129540000Y-179070000D01*
X128905000Y-180721000D01*
X127762000Y-181483000D01*
X127000000Y-181610000D01*
X127000000Y-176530000D01*
G37*
X127000000Y-176530000D02*
X127762000Y-176657000D01*
X128905000Y-177419000D01*
X129540000Y-179070000D01*
X128905000Y-180721000D01*
X127762000Y-181483000D01*
X127000000Y-181610000D01*
X127000000Y-176530000D01*
X129540000Y-179070000D02*
G75*
G03*
X129540000Y-179070000I-2540000J0D01*
G01*
X108010000Y-200660000D02*
G75*
G03*
X108010000Y-200660000I-2600000J0D01*
G01*
X92710000Y-132080000D02*
X105410000Y-132080000D01*
X92710000Y-134620000D02*
X105410000Y-134620000D01*
X92710000Y-132080000D02*
X92710000Y-134620000D01*
X105410000Y-132080000D02*
X105410000Y-134620000D01*
X95250000Y-133350000D02*
X95885000Y-132715000D01*
X95885000Y-132715000D02*
X97155000Y-133985000D01*
X97155000Y-133985000D02*
X98425000Y-132715000D01*
X98425000Y-132715000D02*
X99695000Y-133985000D01*
X99695000Y-133985000D02*
X100965000Y-132715000D01*
X100965000Y-132715000D02*
X102235000Y-133985000D01*
X102235000Y-133985000D02*
X102870000Y-133350000D01*
X89535000Y-133985000D02*
X90170000Y-133350000D01*
X88265000Y-132715000D02*
X89535000Y-133985000D01*
X86995000Y-133985000D02*
X88265000Y-132715000D01*
X85725000Y-132715000D02*
X86995000Y-133985000D01*
X84455000Y-133985000D02*
X85725000Y-132715000D01*
X83185000Y-132715000D02*
X84455000Y-133985000D01*
X82550000Y-133350000D02*
X83185000Y-132715000D01*
X92710000Y-132080000D02*
X92710000Y-134620000D01*
X80010000Y-132080000D02*
X80010000Y-134620000D01*
X80010000Y-134620000D02*
X92710000Y-134620000D01*
X80010000Y-132080000D02*
X92710000Y-132080000D01*
X118745000Y-132715000D02*
X118110000Y-133350000D01*
X120015000Y-133985000D02*
X118745000Y-132715000D01*
X121285000Y-132715000D02*
X120015000Y-133985000D01*
X122555000Y-133985000D02*
X121285000Y-132715000D01*
X123825000Y-132715000D02*
X122555000Y-133985000D01*
X125095000Y-133985000D02*
X123825000Y-132715000D01*
X125730000Y-133350000D02*
X125095000Y-133985000D01*
X115570000Y-134620000D02*
X115570000Y-132080000D01*
X128270000Y-134620000D02*
X128270000Y-132080000D01*
X128270000Y-132080000D02*
X115570000Y-132080000D01*
X128270000Y-134620000D02*
X115570000Y-134620000D01*
X117475000Y-194945000D02*
X116840000Y-195580000D01*
X118745000Y-196215000D02*
X117475000Y-194945000D01*
X120015000Y-194945000D02*
X118745000Y-196215000D01*
X121285000Y-196215000D02*
X120015000Y-194945000D01*
X122555000Y-194945000D02*
X121285000Y-196215000D01*
X123825000Y-196215000D02*
X122555000Y-194945000D01*
X124460000Y-195580000D02*
X123825000Y-196215000D01*
X114300000Y-196850000D02*
X114300000Y-194310000D01*
X127000000Y-196850000D02*
X127000000Y-194310000D01*
X127000000Y-194310000D02*
X114300000Y-194310000D01*
X127000000Y-196850000D02*
X114300000Y-196850000D01*
X123825000Y-198755000D02*
X124460000Y-198120000D01*
X122555000Y-197485000D02*
X123825000Y-198755000D01*
X121285000Y-198755000D02*
X122555000Y-197485000D01*
X120015000Y-197485000D02*
X121285000Y-198755000D01*
X118745000Y-198755000D02*
X120015000Y-197485000D01*
X117475000Y-197485000D02*
X118745000Y-198755000D01*
X116840000Y-198120000D02*
X117475000Y-197485000D01*
X127000000Y-196850000D02*
X127000000Y-199390000D01*
X114300000Y-196850000D02*
X114300000Y-199390000D01*
X114300000Y-199390000D02*
X127000000Y-199390000D01*
X114300000Y-196850000D02*
X127000000Y-196850000D01*
X110490000Y-166370000D02*
X110490000Y-156210000D01*
X110490000Y-156210000D02*
X100330000Y-156210000D01*
X110490000Y-166370000D02*
X100330000Y-166370000D01*
X100330000Y-166370000D02*
X100330000Y-156210000D01*
X106426000Y-166370000D02*
G75*
G03*
X104394000Y-166370000I-1016000J0D01*
G01*
X116205000Y-163830000D02*
X116205000Y-171450000D01*
X112395000Y-163830000D02*
X112395000Y-171450000D01*
X116205000Y-163830000D02*
X112395000Y-163830000D01*
X116205000Y-171450000D02*
X112395000Y-171450000D01*
X114300000Y-166370000D02*
X114300000Y-167005000D01*
X114300000Y-168275000D02*
X114300000Y-168910000D01*
X115570000Y-167005000D02*
X113030000Y-167005000D01*
X115570000Y-168275000D02*
X113030000Y-168275000D01*
X121285000Y-184150000D02*
X121285000Y-186690000D01*
X120015000Y-184150000D02*
X120015000Y-186690000D01*
X121285000Y-185420000D02*
X121920000Y-185420000D01*
X119380000Y-185420000D02*
X120015000Y-185420000D01*
X124460000Y-183515000D02*
X124460000Y-187325000D01*
X116840000Y-183515000D02*
X116840000Y-187325000D01*
X116840000Y-187325000D02*
X124460000Y-187325000D01*
X116840000Y-183515000D02*
X124460000Y-183515000D01*
X118745000Y-135255000D02*
X118110000Y-135890000D01*
X120015000Y-136525000D02*
X118745000Y-135255000D01*
X121285000Y-135255000D02*
X120015000Y-136525000D01*
X122555000Y-136525000D02*
X121285000Y-135255000D01*
X123825000Y-135255000D02*
X122555000Y-136525000D01*
X125095000Y-136525000D02*
X123825000Y-135255000D01*
X125730000Y-135890000D02*
X125095000Y-136525000D01*
X115570000Y-137160000D02*
X115570000Y-134620000D01*
X128270000Y-137160000D02*
X128270000Y-134620000D01*
X128270000Y-134620000D02*
X115570000Y-134620000D01*
X128270000Y-137160000D02*
X115570000Y-137160000D01*
X110490000Y-139065000D02*
X118110000Y-139065000D01*
X110490000Y-142875000D02*
X118110000Y-142875000D01*
X110490000Y-139065000D02*
X110490000Y-142875000D01*
X118110000Y-139065000D02*
X118110000Y-142875000D01*
X113030000Y-140970000D02*
X113665000Y-140970000D01*
X114935000Y-140970000D02*
X115570000Y-140970000D01*
X113665000Y-139700000D02*
X113665000Y-142240000D01*
X114935000Y-139700000D02*
X114935000Y-142240000D01*
X100330000Y-142875000D02*
X92710000Y-142875000D01*
X100330000Y-139065000D02*
X92710000Y-139065000D01*
X100330000Y-142875000D02*
X100330000Y-139065000D01*
X92710000Y-142875000D02*
X92710000Y-139065000D01*
X97790000Y-140970000D02*
X97155000Y-140970000D01*
X95885000Y-140970000D02*
X95250000Y-140970000D01*
X97155000Y-142240000D02*
X97155000Y-139700000D01*
X95885000Y-142240000D02*
X95885000Y-139700000D01*
X83820000Y-189230000D02*
X96520000Y-189230000D01*
X83820000Y-191770000D02*
X96520000Y-191770000D01*
X83820000Y-189230000D02*
X83820000Y-191770000D01*
X96520000Y-189230000D02*
X96520000Y-191770000D01*
X86360000Y-190500000D02*
X86995000Y-189865000D01*
X86995000Y-189865000D02*
X88265000Y-191135000D01*
X88265000Y-191135000D02*
X89535000Y-189865000D01*
X89535000Y-189865000D02*
X90805000Y-191135000D01*
X90805000Y-191135000D02*
X92075000Y-189865000D01*
X92075000Y-189865000D02*
X93345000Y-191135000D01*
X93345000Y-191135000D02*
X93980000Y-190500000D01*
X83820000Y-186690000D02*
X96520000Y-186690000D01*
X83820000Y-189230000D02*
X96520000Y-189230000D01*
X83820000Y-186690000D02*
X83820000Y-189230000D01*
X96520000Y-186690000D02*
X96520000Y-189230000D01*
X86360000Y-187960000D02*
X86995000Y-187325000D01*
X86995000Y-187325000D02*
X88265000Y-188595000D01*
X88265000Y-188595000D02*
X89535000Y-187325000D01*
X89535000Y-187325000D02*
X90805000Y-188595000D01*
X90805000Y-188595000D02*
X92075000Y-187325000D01*
X92075000Y-187325000D02*
X93345000Y-188595000D01*
X93345000Y-188595000D02*
X93980000Y-187960000D01*
X90805000Y-168275000D02*
X91440000Y-168910000D01*
X92075000Y-167005000D02*
X90805000Y-168275000D01*
X90805000Y-165735000D02*
X92075000Y-167005000D01*
X92075000Y-164465000D02*
X90805000Y-165735000D01*
X90805000Y-163195000D02*
X92075000Y-164465000D01*
X92075000Y-161925000D02*
X90805000Y-163195000D01*
X91440000Y-161290000D02*
X92075000Y-161925000D01*
X92710000Y-171450000D02*
X90170000Y-171450000D01*
X92710000Y-158750000D02*
X90170000Y-158750000D01*
X90170000Y-158750000D02*
X90170000Y-171450000D01*
X92710000Y-158750000D02*
X92710000Y-171450000D01*
X88265000Y-168275000D02*
X88900000Y-168910000D01*
X89535000Y-167005000D02*
X88265000Y-168275000D01*
X88265000Y-165735000D02*
X89535000Y-167005000D01*
X89535000Y-164465000D02*
X88265000Y-165735000D01*
X88265000Y-163195000D02*
X89535000Y-164465000D01*
X89535000Y-161925000D02*
X88265000Y-163195000D01*
X88900000Y-161290000D02*
X89535000Y-161925000D01*
X90170000Y-171450000D02*
X87630000Y-171450000D01*
X90170000Y-158750000D02*
X87630000Y-158750000D01*
X87630000Y-158750000D02*
X87630000Y-171450000D01*
X90170000Y-158750000D02*
X90170000Y-171450000D01*
X92710000Y-171450000D02*
X92710000Y-158750000D01*
X95250000Y-171450000D02*
X95250000Y-158750000D01*
X92710000Y-171450000D02*
X95250000Y-171450000D01*
X92710000Y-158750000D02*
X95250000Y-158750000D01*
X93980000Y-168910000D02*
X93345000Y-168275000D01*
X93345000Y-168275000D02*
X94615000Y-167005000D01*
X94615000Y-167005000D02*
X93345000Y-165735000D01*
X93345000Y-165735000D02*
X94615000Y-164465000D01*
X94615000Y-164465000D02*
X93345000Y-163195000D01*
X93345000Y-163195000D02*
X94615000Y-161925000D01*
X94615000Y-161925000D02*
X93980000Y-161290000D01*
X87630000Y-142875000D02*
X80010000Y-142875000D01*
X87630000Y-139065000D02*
X80010000Y-139065000D01*
X87630000Y-142875000D02*
X87630000Y-139065000D01*
X80010000Y-142875000D02*
X80010000Y-139065000D01*
X85090000Y-140970000D02*
X84455000Y-140970000D01*
X83185000Y-140970000D02*
X82550000Y-140970000D01*
X84455000Y-142240000D02*
X84455000Y-139700000D01*
X83185000Y-142240000D02*
X83185000Y-139700000D01*
X82550000Y-167005000D02*
X85090000Y-167005000D01*
X82550000Y-168275000D02*
X85090000Y-168275000D01*
X83820000Y-167005000D02*
X83820000Y-166370000D01*
X83820000Y-168910000D02*
X83820000Y-168275000D01*
X81915000Y-163830000D02*
X85725000Y-163830000D01*
X81915000Y-171450000D02*
X85725000Y-171450000D01*
X85725000Y-171450000D02*
X85725000Y-163830000D01*
X81915000Y-171450000D02*
X81915000Y-163830000D01*
X111760000Y-194310000D02*
X99060000Y-194310000D01*
X111760000Y-191770000D02*
X99060000Y-191770000D01*
X111760000Y-194310000D02*
X111760000Y-191770000D01*
X99060000Y-194310000D02*
X99060000Y-191770000D01*
X109220000Y-193040000D02*
X108585000Y-193675000D01*
X108585000Y-193675000D02*
X107315000Y-192405000D01*
X107315000Y-192405000D02*
X106045000Y-193675000D01*
X106045000Y-193675000D02*
X104775000Y-192405000D01*
X104775000Y-192405000D02*
X103505000Y-193675000D01*
X103505000Y-193675000D02*
X102235000Y-192405000D01*
X102235000Y-192405000D02*
X101600000Y-193040000D01*
X97790000Y-158750000D02*
X97790000Y-171450000D01*
X95250000Y-158750000D02*
X95250000Y-171450000D01*
X97790000Y-158750000D02*
X95250000Y-158750000D01*
X97790000Y-171450000D02*
X95250000Y-171450000D01*
X96520000Y-161290000D02*
X97155000Y-161925000D01*
X97155000Y-161925000D02*
X95885000Y-163195000D01*
X95885000Y-163195000D02*
X97155000Y-164465000D01*
X97155000Y-164465000D02*
X95885000Y-165735000D01*
X95885000Y-165735000D02*
X97155000Y-167005000D01*
X97155000Y-167005000D02*
X95885000Y-168275000D01*
X95885000Y-168275000D02*
X96520000Y-168910000D01*
X106680000Y-168910000D02*
X106680000Y-171450000D01*
X104140000Y-168910000D02*
X104140000Y-171450000D01*
X104140000Y-171450000D02*
X106680000Y-171450000D01*
X104140000Y-168910000D02*
X106680000Y-168910000D01*
X111455714Y-176934761D02*
X111598571Y-176982380D01*
X111836666Y-176982380D01*
X111931904Y-176934761D01*
X111979523Y-176887142D01*
X112027142Y-176791904D01*
X112027142Y-176696666D01*
X111979523Y-176601428D01*
X111931904Y-176553809D01*
X111836666Y-176506190D01*
X111646190Y-176458571D01*
X111550952Y-176410952D01*
X111503333Y-176363333D01*
X111455714Y-176268095D01*
X111455714Y-176172857D01*
X111503333Y-176077619D01*
X111550952Y-176030000D01*
X111646190Y-175982380D01*
X111884285Y-175982380D01*
X112027142Y-176030000D01*
X112789047Y-176458571D02*
X112931904Y-176506190D01*
X112979523Y-176553809D01*
X113027142Y-176649047D01*
X113027142Y-176791904D01*
X112979523Y-176887142D01*
X112931904Y-176934761D01*
X112836666Y-176982380D01*
X112455714Y-176982380D01*
X112455714Y-175982380D01*
X112789047Y-175982380D01*
X112884285Y-176030000D01*
X112931904Y-176077619D01*
X112979523Y-176172857D01*
X112979523Y-176268095D01*
X112931904Y-176363333D01*
X112884285Y-176410952D01*
X112789047Y-176458571D01*
X112455714Y-176458571D01*
X113979523Y-176982380D02*
X113408095Y-176982380D01*
X113693809Y-176982380D02*
X113693809Y-175982380D01*
X113598571Y-176125238D01*
X113503333Y-176220476D01*
X113408095Y-176268095D01*
X95885238Y-151217380D02*
X96218571Y-152217380D01*
X96551904Y-151217380D01*
X96885238Y-152217380D02*
X96885238Y-151217380D01*
X97218571Y-151931666D01*
X97551904Y-151217380D01*
X97551904Y-152217380D01*
X98028095Y-152217380D02*
X98028095Y-151217380D01*
X98028095Y-151693571D02*
X98599523Y-151693571D01*
X98599523Y-152217380D02*
X98599523Y-151217380D01*
X99599523Y-152217380D02*
X99028095Y-152217380D01*
X99313809Y-152217380D02*
X99313809Y-151217380D01*
X99218571Y-151360238D01*
X99123333Y-151455476D01*
X99028095Y-151503095D01*
X111125238Y-151217380D02*
X111458571Y-152217380D01*
X111791904Y-151217380D01*
X112125238Y-152217380D02*
X112125238Y-151217380D01*
X112458571Y-151931666D01*
X112791904Y-151217380D01*
X112791904Y-152217380D01*
X113268095Y-152217380D02*
X113268095Y-151217380D01*
X113268095Y-151693571D02*
X113839523Y-151693571D01*
X113839523Y-152217380D02*
X113839523Y-151217380D01*
X114268095Y-151312619D02*
X114315714Y-151265000D01*
X114410952Y-151217380D01*
X114649047Y-151217380D01*
X114744285Y-151265000D01*
X114791904Y-151312619D01*
X114839523Y-151407857D01*
X114839523Y-151503095D01*
X114791904Y-151645952D01*
X114220476Y-152217380D01*
X114839523Y-152217380D01*
X129527023Y-128722380D02*
X129193690Y-128246190D01*
X128955595Y-128722380D02*
X128955595Y-127722380D01*
X129336547Y-127722380D01*
X129431785Y-127770000D01*
X129479404Y-127817619D01*
X129527023Y-127912857D01*
X129527023Y-128055714D01*
X129479404Y-128150952D01*
X129431785Y-128198571D01*
X129336547Y-128246190D01*
X128955595Y-128246190D01*
X130479404Y-128722380D02*
X129907976Y-128722380D01*
X130193690Y-128722380D02*
X130193690Y-127722380D01*
X130098452Y-127865238D01*
X130003214Y-127960476D01*
X129907976Y-128008095D01*
X131431785Y-128722380D02*
X130860357Y-128722380D01*
X131146071Y-128722380D02*
X131146071Y-127722380D01*
X131050833Y-127865238D01*
X130955595Y-127960476D01*
X130860357Y-128008095D01*
X129527023Y-155297142D02*
X129479404Y-155344761D01*
X129336547Y-155392380D01*
X129241309Y-155392380D01*
X129098452Y-155344761D01*
X129003214Y-155249523D01*
X128955595Y-155154285D01*
X128907976Y-154963809D01*
X128907976Y-154820952D01*
X128955595Y-154630476D01*
X129003214Y-154535238D01*
X129098452Y-154440000D01*
X129241309Y-154392380D01*
X129336547Y-154392380D01*
X129479404Y-154440000D01*
X129527023Y-154487619D01*
X130384166Y-154725714D02*
X130384166Y-155392380D01*
X130146071Y-154344761D02*
X129907976Y-155059047D01*
X130527023Y-155059047D01*
X120483333Y-203461880D02*
X120150000Y-202985690D01*
X119911904Y-203461880D02*
X119911904Y-202461880D01*
X120292857Y-202461880D01*
X120388095Y-202509500D01*
X120435714Y-202557119D01*
X120483333Y-202652357D01*
X120483333Y-202795214D01*
X120435714Y-202890452D01*
X120388095Y-202938071D01*
X120292857Y-202985690D01*
X119911904Y-202985690D01*
X121435714Y-203461880D02*
X120864285Y-203461880D01*
X121150000Y-203461880D02*
X121150000Y-202461880D01*
X121054761Y-202604738D01*
X120959523Y-202699976D01*
X120864285Y-202747595D01*
X92543333Y-173394642D02*
X92495714Y-173442261D01*
X92352857Y-173489880D01*
X92257619Y-173489880D01*
X92114761Y-173442261D01*
X92019523Y-173347023D01*
X91971904Y-173251785D01*
X91924285Y-173061309D01*
X91924285Y-172918452D01*
X91971904Y-172727976D01*
X92019523Y-172632738D01*
X92114761Y-172537500D01*
X92257619Y-172489880D01*
X92352857Y-172489880D01*
X92495714Y-172537500D01*
X92543333Y-172585119D01*
X93400476Y-172489880D02*
X93210000Y-172489880D01*
X93114761Y-172537500D01*
X93067142Y-172585119D01*
X92971904Y-172727976D01*
X92924285Y-172918452D01*
X92924285Y-173299404D01*
X92971904Y-173394642D01*
X93019523Y-173442261D01*
X93114761Y-173489880D01*
X93305238Y-173489880D01*
X93400476Y-173442261D01*
X93448095Y-173394642D01*
X93495714Y-173299404D01*
X93495714Y-173061309D01*
X93448095Y-172966071D01*
X93400476Y-172918452D01*
X93305238Y-172870833D01*
X93114761Y-172870833D01*
X93019523Y-172918452D01*
X92971904Y-172966071D01*
X92924285Y-173061309D01*
X129527023Y-130627380D02*
X129193690Y-130151190D01*
X128955595Y-130627380D02*
X128955595Y-129627380D01*
X129336547Y-129627380D01*
X129431785Y-129675000D01*
X129479404Y-129722619D01*
X129527023Y-129817857D01*
X129527023Y-129960714D01*
X129479404Y-130055952D01*
X129431785Y-130103571D01*
X129336547Y-130151190D01*
X128955595Y-130151190D01*
X129955595Y-130627380D02*
X129955595Y-129627380D01*
X130336547Y-129627380D01*
X130431785Y-129675000D01*
X130479404Y-129722619D01*
X130527023Y-129817857D01*
X130527023Y-129960714D01*
X130479404Y-130055952D01*
X130431785Y-130103571D01*
X130336547Y-130151190D01*
X129955595Y-130151190D01*
X131288928Y-130103571D02*
X131431785Y-130151190D01*
X131479404Y-130198809D01*
X131527023Y-130294047D01*
X131527023Y-130436904D01*
X131479404Y-130532142D01*
X131431785Y-130579761D01*
X131336547Y-130627380D01*
X130955595Y-130627380D01*
X130955595Y-129627380D01*
X131288928Y-129627380D01*
X131384166Y-129675000D01*
X131431785Y-129722619D01*
X131479404Y-129817857D01*
X131479404Y-129913095D01*
X131431785Y-130008333D01*
X131384166Y-130055952D01*
X131288928Y-130103571D01*
X130955595Y-130103571D01*
X132479404Y-130627380D02*
X131907976Y-130627380D01*
X132193690Y-130627380D02*
X132193690Y-129627380D01*
X132098452Y-129770238D01*
X132003214Y-129865476D01*
X131907976Y-129913095D01*
X103624285Y-125499880D02*
X104290952Y-126499880D01*
X104290952Y-125499880D02*
X103624285Y-126499880D01*
X104671904Y-126499880D02*
X104671904Y-125499880D01*
X105052857Y-125499880D01*
X105148095Y-125547500D01*
X105195714Y-125595119D01*
X105243333Y-125690357D01*
X105243333Y-125833214D01*
X105195714Y-125928452D01*
X105148095Y-125976071D01*
X105052857Y-126023690D01*
X104671904Y-126023690D01*
X106195714Y-126499880D02*
X105624285Y-126499880D01*
X105910000Y-126499880D02*
X105910000Y-125499880D01*
X105814761Y-125642738D01*
X105719523Y-125737976D01*
X105624285Y-125785595D01*
X107148095Y-126499880D02*
X106576666Y-126499880D01*
X106862380Y-126499880D02*
X106862380Y-125499880D01*
X106767142Y-125642738D01*
X106671904Y-125737976D01*
X106576666Y-125785595D01*
X82002380Y-191690476D02*
X83002380Y-191357142D01*
X82002380Y-191023809D01*
X82002380Y-190833333D02*
X82002380Y-190261904D01*
X83002380Y-190547619D02*
X82002380Y-190547619D01*
X82002380Y-190023809D02*
X82002380Y-189404761D01*
X82383333Y-189738095D01*
X82383333Y-189595238D01*
X82430952Y-189500000D01*
X82478571Y-189452380D01*
X82573809Y-189404761D01*
X82811904Y-189404761D01*
X82907142Y-189452380D01*
X82954761Y-189500000D01*
X83002380Y-189595238D01*
X83002380Y-189880952D01*
X82954761Y-189976190D01*
X82907142Y-190023809D01*
X87709523Y-150899880D02*
X88042857Y-151899880D01*
X88376190Y-150899880D01*
X88566666Y-150899880D02*
X89138095Y-150899880D01*
X88852380Y-151899880D02*
X88852380Y-150899880D01*
X89423809Y-150995119D02*
X89471428Y-150947500D01*
X89566666Y-150899880D01*
X89804761Y-150899880D01*
X89900000Y-150947500D01*
X89947619Y-150995119D01*
X89995238Y-151090357D01*
X89995238Y-151185595D01*
X89947619Y-151328452D01*
X89376190Y-151899880D01*
X89995238Y-151899880D01*
X123269523Y-143914880D02*
X123602857Y-144914880D01*
X123936190Y-143914880D01*
X124126666Y-143914880D02*
X124698095Y-143914880D01*
X124412380Y-144914880D02*
X124412380Y-143914880D01*
X125555238Y-144914880D02*
X124983809Y-144914880D01*
X125269523Y-144914880D02*
X125269523Y-143914880D01*
X125174285Y-144057738D01*
X125079047Y-144152976D01*
X124983809Y-144200595D01*
X104600476Y-135659880D02*
X105267142Y-136659880D01*
X105267142Y-135659880D02*
X104600476Y-136659880D01*
X105600476Y-135755119D02*
X105648095Y-135707500D01*
X105743333Y-135659880D01*
X105981428Y-135659880D01*
X106076666Y-135707500D01*
X106124285Y-135755119D01*
X106171904Y-135850357D01*
X106171904Y-135945595D01*
X106124285Y-136088452D01*
X105552857Y-136659880D01*
X106171904Y-136659880D01*
X104219523Y-155344761D02*
X104362380Y-155392380D01*
X104600476Y-155392380D01*
X104695714Y-155344761D01*
X104743333Y-155297142D01*
X104790952Y-155201904D01*
X104790952Y-155106666D01*
X104743333Y-155011428D01*
X104695714Y-154963809D01*
X104600476Y-154916190D01*
X104410000Y-154868571D01*
X104314761Y-154820952D01*
X104267142Y-154773333D01*
X104219523Y-154678095D01*
X104219523Y-154582857D01*
X104267142Y-154487619D01*
X104314761Y-154440000D01*
X104410000Y-154392380D01*
X104648095Y-154392380D01*
X104790952Y-154440000D01*
X105171904Y-155106666D02*
X105648095Y-155106666D01*
X105076666Y-155392380D02*
X105410000Y-154392380D01*
X105743333Y-155392380D01*
X106600476Y-155392380D02*
X106029047Y-155392380D01*
X106314761Y-155392380D02*
X106314761Y-154392380D01*
X106219523Y-154535238D01*
X106124285Y-154630476D01*
X106029047Y-154678095D01*
X119832380Y-173040357D02*
X119356190Y-173373690D01*
X119832380Y-173611785D02*
X118832380Y-173611785D01*
X118832380Y-173230833D01*
X118880000Y-173135595D01*
X118927619Y-173087976D01*
X119022857Y-173040357D01*
X119165714Y-173040357D01*
X119260952Y-173087976D01*
X119308571Y-173135595D01*
X119356190Y-173230833D01*
X119356190Y-173611785D01*
X118832380Y-172707023D02*
X118832380Y-172040357D01*
X119832380Y-172468928D01*
X89527142Y-186189880D02*
X89193809Y-185713690D01*
X88955714Y-186189880D02*
X88955714Y-185189880D01*
X89336666Y-185189880D01*
X89431904Y-185237500D01*
X89479523Y-185285119D01*
X89527142Y-185380357D01*
X89527142Y-185523214D01*
X89479523Y-185618452D01*
X89431904Y-185666071D01*
X89336666Y-185713690D01*
X88955714Y-185713690D01*
X90479523Y-186189880D02*
X89908095Y-186189880D01*
X90193809Y-186189880D02*
X90193809Y-185189880D01*
X90098571Y-185332738D01*
X90003333Y-185427976D01*
X89908095Y-185475595D01*
X90812857Y-185189880D02*
X91479523Y-185189880D01*
X91050952Y-186189880D01*
X128257023Y-190952380D02*
X127923690Y-190476190D01*
X127685595Y-190952380D02*
X127685595Y-189952380D01*
X128066547Y-189952380D01*
X128161785Y-190000000D01*
X128209404Y-190047619D01*
X128257023Y-190142857D01*
X128257023Y-190285714D01*
X128209404Y-190380952D01*
X128161785Y-190428571D01*
X128066547Y-190476190D01*
X127685595Y-190476190D01*
X129161785Y-189952380D02*
X128685595Y-189952380D01*
X128637976Y-190428571D01*
X128685595Y-190380952D01*
X128780833Y-190333333D01*
X129018928Y-190333333D01*
X129114166Y-190380952D01*
X129161785Y-190428571D01*
X129209404Y-190523809D01*
X129209404Y-190761904D01*
X129161785Y-190857142D01*
X129114166Y-190904761D01*
X129018928Y-190952380D01*
X128780833Y-190952380D01*
X128685595Y-190904761D01*
X128637976Y-190857142D01*
X128257023Y-193492380D02*
X127923690Y-193016190D01*
X127685595Y-193492380D02*
X127685595Y-192492380D01*
X128066547Y-192492380D01*
X128161785Y-192540000D01*
X128209404Y-192587619D01*
X128257023Y-192682857D01*
X128257023Y-192825714D01*
X128209404Y-192920952D01*
X128161785Y-192968571D01*
X128066547Y-193016190D01*
X127685595Y-193016190D01*
X129114166Y-192825714D02*
X129114166Y-193492380D01*
X128876071Y-192444761D02*
X128637976Y-193159047D01*
X129257023Y-193159047D01*
X124912380Y-173040357D02*
X124436190Y-173373690D01*
X124912380Y-173611785D02*
X123912380Y-173611785D01*
X123912380Y-173230833D01*
X123960000Y-173135595D01*
X124007619Y-173087976D01*
X124102857Y-173040357D01*
X124245714Y-173040357D01*
X124340952Y-173087976D01*
X124388571Y-173135595D01*
X124436190Y-173230833D01*
X124436190Y-173611785D01*
X124912380Y-172564166D02*
X124912380Y-172373690D01*
X124864761Y-172278452D01*
X124817142Y-172230833D01*
X124674285Y-172135595D01*
X124483809Y-172087976D01*
X124102857Y-172087976D01*
X124007619Y-172135595D01*
X123960000Y-172183214D01*
X123912380Y-172278452D01*
X123912380Y-172468928D01*
X123960000Y-172564166D01*
X124007619Y-172611785D01*
X124102857Y-172659404D01*
X124340952Y-172659404D01*
X124436190Y-172611785D01*
X124483809Y-172564166D01*
X124531428Y-172468928D01*
X124531428Y-172278452D01*
X124483809Y-172183214D01*
X124436190Y-172135595D01*
X124340952Y-172087976D01*
X122372380Y-173040357D02*
X121896190Y-173373690D01*
X122372380Y-173611785D02*
X121372380Y-173611785D01*
X121372380Y-173230833D01*
X121420000Y-173135595D01*
X121467619Y-173087976D01*
X121562857Y-173040357D01*
X121705714Y-173040357D01*
X121800952Y-173087976D01*
X121848571Y-173135595D01*
X121896190Y-173230833D01*
X121896190Y-173611785D01*
X121800952Y-172468928D02*
X121753333Y-172564166D01*
X121705714Y-172611785D01*
X121610476Y-172659404D01*
X121562857Y-172659404D01*
X121467619Y-172611785D01*
X121420000Y-172564166D01*
X121372380Y-172468928D01*
X121372380Y-172278452D01*
X121420000Y-172183214D01*
X121467619Y-172135595D01*
X121562857Y-172087976D01*
X121610476Y-172087976D01*
X121705714Y-172135595D01*
X121753333Y-172183214D01*
X121800952Y-172278452D01*
X121800952Y-172468928D01*
X121848571Y-172564166D01*
X121896190Y-172611785D01*
X121991428Y-172659404D01*
X122181904Y-172659404D01*
X122277142Y-172611785D01*
X122324761Y-172564166D01*
X122372380Y-172468928D01*
X122372380Y-172278452D01*
X122324761Y-172183214D01*
X122277142Y-172135595D01*
X122181904Y-172087976D01*
X121991428Y-172087976D01*
X121896190Y-172135595D01*
X121848571Y-172183214D01*
X121800952Y-172278452D01*
X126833333Y-175934642D02*
X126785714Y-175982261D01*
X126642857Y-176029880D01*
X126547619Y-176029880D01*
X126404761Y-175982261D01*
X126309523Y-175887023D01*
X126261904Y-175791785D01*
X126214285Y-175601309D01*
X126214285Y-175458452D01*
X126261904Y-175267976D01*
X126309523Y-175172738D01*
X126404761Y-175077500D01*
X126547619Y-175029880D01*
X126642857Y-175029880D01*
X126785714Y-175077500D01*
X126833333Y-175125119D01*
X127166666Y-175029880D02*
X127785714Y-175029880D01*
X127452380Y-175410833D01*
X127595238Y-175410833D01*
X127690476Y-175458452D01*
X127738095Y-175506071D01*
X127785714Y-175601309D01*
X127785714Y-175839404D01*
X127738095Y-175934642D01*
X127690476Y-175982261D01*
X127595238Y-176029880D01*
X127309523Y-176029880D01*
X127214285Y-175982261D01*
X127166666Y-175934642D01*
X108953095Y-200477380D02*
X108953095Y-199477380D01*
X108953095Y-199953571D02*
X109524523Y-199953571D01*
X109524523Y-200477380D02*
X109524523Y-199477380D01*
X110476904Y-200477380D02*
X110000714Y-200477380D01*
X110000714Y-199477380D01*
X111334047Y-200477380D02*
X110762619Y-200477380D01*
X111048333Y-200477380D02*
X111048333Y-199477380D01*
X110953095Y-199620238D01*
X110857857Y-199715476D01*
X110762619Y-199763095D01*
X108810238Y-200747380D02*
X109143571Y-201747380D01*
X109476904Y-200747380D01*
X110286428Y-201747380D02*
X109810238Y-201747380D01*
X109810238Y-200747380D01*
X110572142Y-201699761D02*
X110715000Y-201747380D01*
X110953095Y-201747380D01*
X111048333Y-201699761D01*
X111095952Y-201652142D01*
X111143571Y-201556904D01*
X111143571Y-201461666D01*
X111095952Y-201366428D01*
X111048333Y-201318809D01*
X110953095Y-201271190D01*
X110762619Y-201223571D01*
X110667380Y-201175952D01*
X110619761Y-201128333D01*
X110572142Y-201033095D01*
X110572142Y-200937857D01*
X110619761Y-200842619D01*
X110667380Y-200795000D01*
X110762619Y-200747380D01*
X111000714Y-200747380D01*
X111143571Y-200795000D01*
X112095952Y-201747380D02*
X111524523Y-201747380D01*
X111810238Y-201747380D02*
X111810238Y-200747380D01*
X111715000Y-200890238D01*
X111619761Y-200985476D01*
X111524523Y-201033095D01*
X98893333Y-136024880D02*
X98560000Y-135548690D01*
X98321904Y-136024880D02*
X98321904Y-135024880D01*
X98702857Y-135024880D01*
X98798095Y-135072500D01*
X98845714Y-135120119D01*
X98893333Y-135215357D01*
X98893333Y-135358214D01*
X98845714Y-135453452D01*
X98798095Y-135501071D01*
X98702857Y-135548690D01*
X98321904Y-135548690D01*
X99750476Y-135024880D02*
X99560000Y-135024880D01*
X99464761Y-135072500D01*
X99417142Y-135120119D01*
X99321904Y-135262976D01*
X99274285Y-135453452D01*
X99274285Y-135834404D01*
X99321904Y-135929642D01*
X99369523Y-135977261D01*
X99464761Y-136024880D01*
X99655238Y-136024880D01*
X99750476Y-135977261D01*
X99798095Y-135929642D01*
X99845714Y-135834404D01*
X99845714Y-135596309D01*
X99798095Y-135501071D01*
X99750476Y-135453452D01*
X99655238Y-135405833D01*
X99464761Y-135405833D01*
X99369523Y-135453452D01*
X99321904Y-135501071D01*
X99274285Y-135596309D01*
X85717142Y-136024880D02*
X85383809Y-135548690D01*
X85145714Y-136024880D02*
X85145714Y-135024880D01*
X85526666Y-135024880D01*
X85621904Y-135072500D01*
X85669523Y-135120119D01*
X85717142Y-135215357D01*
X85717142Y-135358214D01*
X85669523Y-135453452D01*
X85621904Y-135501071D01*
X85526666Y-135548690D01*
X85145714Y-135548690D01*
X86669523Y-136024880D02*
X86098095Y-136024880D01*
X86383809Y-136024880D02*
X86383809Y-135024880D01*
X86288571Y-135167738D01*
X86193333Y-135262976D01*
X86098095Y-135310595D01*
X87288571Y-135024880D02*
X87383809Y-135024880D01*
X87479047Y-135072500D01*
X87526666Y-135120119D01*
X87574285Y-135215357D01*
X87621904Y-135405833D01*
X87621904Y-135643928D01*
X87574285Y-135834404D01*
X87526666Y-135929642D01*
X87479047Y-135977261D01*
X87383809Y-136024880D01*
X87288571Y-136024880D01*
X87193333Y-135977261D01*
X87145714Y-135929642D01*
X87098095Y-135834404D01*
X87050476Y-135643928D01*
X87050476Y-135405833D01*
X87098095Y-135215357D01*
X87145714Y-135120119D01*
X87193333Y-135072500D01*
X87288571Y-135024880D01*
X129527023Y-133802380D02*
X129193690Y-133326190D01*
X128955595Y-133802380D02*
X128955595Y-132802380D01*
X129336547Y-132802380D01*
X129431785Y-132850000D01*
X129479404Y-132897619D01*
X129527023Y-132992857D01*
X129527023Y-133135714D01*
X129479404Y-133230952D01*
X129431785Y-133278571D01*
X129336547Y-133326190D01*
X128955595Y-133326190D01*
X130479404Y-133802380D02*
X129907976Y-133802380D01*
X130193690Y-133802380D02*
X130193690Y-132802380D01*
X130098452Y-132945238D01*
X130003214Y-133040476D01*
X129907976Y-133088095D01*
X130860357Y-132897619D02*
X130907976Y-132850000D01*
X131003214Y-132802380D01*
X131241309Y-132802380D01*
X131336547Y-132850000D01*
X131384166Y-132897619D01*
X131431785Y-132992857D01*
X131431785Y-133088095D01*
X131384166Y-133230952D01*
X130812738Y-133802380D01*
X131431785Y-133802380D01*
X128257023Y-196032380D02*
X127923690Y-195556190D01*
X127685595Y-196032380D02*
X127685595Y-195032380D01*
X128066547Y-195032380D01*
X128161785Y-195080000D01*
X128209404Y-195127619D01*
X128257023Y-195222857D01*
X128257023Y-195365714D01*
X128209404Y-195460952D01*
X128161785Y-195508571D01*
X128066547Y-195556190D01*
X127685595Y-195556190D01*
X128637976Y-195127619D02*
X128685595Y-195080000D01*
X128780833Y-195032380D01*
X129018928Y-195032380D01*
X129114166Y-195080000D01*
X129161785Y-195127619D01*
X129209404Y-195222857D01*
X129209404Y-195318095D01*
X129161785Y-195460952D01*
X128590357Y-196032380D01*
X129209404Y-196032380D01*
X128257023Y-198572380D02*
X127923690Y-198096190D01*
X127685595Y-198572380D02*
X127685595Y-197572380D01*
X128066547Y-197572380D01*
X128161785Y-197620000D01*
X128209404Y-197667619D01*
X128257023Y-197762857D01*
X128257023Y-197905714D01*
X128209404Y-198000952D01*
X128161785Y-198048571D01*
X128066547Y-198096190D01*
X127685595Y-198096190D01*
X128590357Y-197572380D02*
X129209404Y-197572380D01*
X128876071Y-197953333D01*
X129018928Y-197953333D01*
X129114166Y-198000952D01*
X129161785Y-198048571D01*
X129209404Y-198143809D01*
X129209404Y-198381904D01*
X129161785Y-198477142D01*
X129114166Y-198524761D01*
X129018928Y-198572380D01*
X128733214Y-198572380D01*
X128637976Y-198524761D01*
X128590357Y-198477142D01*
X104671904Y-167774880D02*
X104671904Y-166774880D01*
X104910000Y-166774880D01*
X105052857Y-166822500D01*
X105148095Y-166917738D01*
X105195714Y-167012976D01*
X105243333Y-167203452D01*
X105243333Y-167346309D01*
X105195714Y-167536785D01*
X105148095Y-167632023D01*
X105052857Y-167727261D01*
X104910000Y-167774880D01*
X104671904Y-167774880D01*
X106195714Y-167774880D02*
X105624285Y-167774880D01*
X105910000Y-167774880D02*
X105910000Y-166774880D01*
X105814761Y-166917738D01*
X105719523Y-167012976D01*
X105624285Y-167060595D01*
X114657142Y-173040357D02*
X114704761Y-173087976D01*
X114752380Y-173230833D01*
X114752380Y-173326071D01*
X114704761Y-173468928D01*
X114609523Y-173564166D01*
X114514285Y-173611785D01*
X114323809Y-173659404D01*
X114180952Y-173659404D01*
X113990476Y-173611785D01*
X113895238Y-173564166D01*
X113800000Y-173468928D01*
X113752380Y-173326071D01*
X113752380Y-173230833D01*
X113800000Y-173087976D01*
X113847619Y-173040357D01*
X113847619Y-172659404D02*
X113800000Y-172611785D01*
X113752380Y-172516547D01*
X113752380Y-172278452D01*
X113800000Y-172183214D01*
X113847619Y-172135595D01*
X113942857Y-172087976D01*
X114038095Y-172087976D01*
X114180952Y-172135595D01*
X114752380Y-172707023D01*
X114752380Y-172087976D01*
X120483333Y-182919642D02*
X120435714Y-182967261D01*
X120292857Y-183014880D01*
X120197619Y-183014880D01*
X120054761Y-182967261D01*
X119959523Y-182872023D01*
X119911904Y-182776785D01*
X119864285Y-182586309D01*
X119864285Y-182443452D01*
X119911904Y-182252976D01*
X119959523Y-182157738D01*
X120054761Y-182062500D01*
X120197619Y-182014880D01*
X120292857Y-182014880D01*
X120435714Y-182062500D01*
X120483333Y-182110119D01*
X121435714Y-183014880D02*
X120864285Y-183014880D01*
X121150000Y-183014880D02*
X121150000Y-182014880D01*
X121054761Y-182157738D01*
X120959523Y-182252976D01*
X120864285Y-182300595D01*
X129527023Y-136342380D02*
X129193690Y-135866190D01*
X128955595Y-136342380D02*
X128955595Y-135342380D01*
X129336547Y-135342380D01*
X129431785Y-135390000D01*
X129479404Y-135437619D01*
X129527023Y-135532857D01*
X129527023Y-135675714D01*
X129479404Y-135770952D01*
X129431785Y-135818571D01*
X129336547Y-135866190D01*
X128955595Y-135866190D01*
X130479404Y-136342380D02*
X129907976Y-136342380D01*
X130193690Y-136342380D02*
X130193690Y-135342380D01*
X130098452Y-135485238D01*
X130003214Y-135580476D01*
X129907976Y-135628095D01*
X131336547Y-135342380D02*
X131146071Y-135342380D01*
X131050833Y-135390000D01*
X131003214Y-135437619D01*
X130907976Y-135580476D01*
X130860357Y-135770952D01*
X130860357Y-136151904D01*
X130907976Y-136247142D01*
X130955595Y-136294761D01*
X131050833Y-136342380D01*
X131241309Y-136342380D01*
X131336547Y-136294761D01*
X131384166Y-136247142D01*
X131431785Y-136151904D01*
X131431785Y-135913809D01*
X131384166Y-135818571D01*
X131336547Y-135770952D01*
X131241309Y-135723333D01*
X131050833Y-135723333D01*
X130955595Y-135770952D01*
X130907976Y-135818571D01*
X130860357Y-135913809D01*
X114133333Y-138469642D02*
X114085714Y-138517261D01*
X113942857Y-138564880D01*
X113847619Y-138564880D01*
X113704761Y-138517261D01*
X113609523Y-138422023D01*
X113561904Y-138326785D01*
X113514285Y-138136309D01*
X113514285Y-137993452D01*
X113561904Y-137802976D01*
X113609523Y-137707738D01*
X113704761Y-137612500D01*
X113847619Y-137564880D01*
X113942857Y-137564880D01*
X114085714Y-137612500D01*
X114133333Y-137660119D01*
X114704761Y-137993452D02*
X114609523Y-137945833D01*
X114561904Y-137898214D01*
X114514285Y-137802976D01*
X114514285Y-137755357D01*
X114561904Y-137660119D01*
X114609523Y-137612500D01*
X114704761Y-137564880D01*
X114895238Y-137564880D01*
X114990476Y-137612500D01*
X115038095Y-137660119D01*
X115085714Y-137755357D01*
X115085714Y-137802976D01*
X115038095Y-137898214D01*
X114990476Y-137945833D01*
X114895238Y-137993452D01*
X114704761Y-137993452D01*
X114609523Y-138041071D01*
X114561904Y-138088690D01*
X114514285Y-138183928D01*
X114514285Y-138374404D01*
X114561904Y-138469642D01*
X114609523Y-138517261D01*
X114704761Y-138564880D01*
X114895238Y-138564880D01*
X114990476Y-138517261D01*
X115038095Y-138469642D01*
X115085714Y-138374404D01*
X115085714Y-138183928D01*
X115038095Y-138088690D01*
X114990476Y-138041071D01*
X114895238Y-137993452D01*
X96353333Y-138469642D02*
X96305714Y-138517261D01*
X96162857Y-138564880D01*
X96067619Y-138564880D01*
X95924761Y-138517261D01*
X95829523Y-138422023D01*
X95781904Y-138326785D01*
X95734285Y-138136309D01*
X95734285Y-137993452D01*
X95781904Y-137802976D01*
X95829523Y-137707738D01*
X95924761Y-137612500D01*
X96067619Y-137564880D01*
X96162857Y-137564880D01*
X96305714Y-137612500D01*
X96353333Y-137660119D01*
X96829523Y-138564880D02*
X97020000Y-138564880D01*
X97115238Y-138517261D01*
X97162857Y-138469642D01*
X97258095Y-138326785D01*
X97305714Y-138136309D01*
X97305714Y-137755357D01*
X97258095Y-137660119D01*
X97210476Y-137612500D01*
X97115238Y-137564880D01*
X96924761Y-137564880D01*
X96829523Y-137612500D01*
X96781904Y-137660119D01*
X96734285Y-137755357D01*
X96734285Y-137993452D01*
X96781904Y-138088690D01*
X96829523Y-138136309D01*
X96924761Y-138183928D01*
X97115238Y-138183928D01*
X97210476Y-138136309D01*
X97258095Y-138088690D01*
X97305714Y-137993452D01*
X89527142Y-184919880D02*
X89193809Y-184443690D01*
X88955714Y-184919880D02*
X88955714Y-183919880D01*
X89336666Y-183919880D01*
X89431904Y-183967500D01*
X89479523Y-184015119D01*
X89527142Y-184110357D01*
X89527142Y-184253214D01*
X89479523Y-184348452D01*
X89431904Y-184396071D01*
X89336666Y-184443690D01*
X88955714Y-184443690D01*
X90479523Y-184919880D02*
X89908095Y-184919880D01*
X90193809Y-184919880D02*
X90193809Y-183919880D01*
X90098571Y-184062738D01*
X90003333Y-184157976D01*
X89908095Y-184205595D01*
X90812857Y-183919880D02*
X91431904Y-183919880D01*
X91098571Y-184300833D01*
X91241428Y-184300833D01*
X91336666Y-184348452D01*
X91384285Y-184396071D01*
X91431904Y-184491309D01*
X91431904Y-184729404D01*
X91384285Y-184824642D01*
X91336666Y-184872261D01*
X91241428Y-184919880D01*
X90955714Y-184919880D01*
X90860476Y-184872261D01*
X90812857Y-184824642D01*
X89527142Y-183649880D02*
X89193809Y-183173690D01*
X88955714Y-183649880D02*
X88955714Y-182649880D01*
X89336666Y-182649880D01*
X89431904Y-182697500D01*
X89479523Y-182745119D01*
X89527142Y-182840357D01*
X89527142Y-182983214D01*
X89479523Y-183078452D01*
X89431904Y-183126071D01*
X89336666Y-183173690D01*
X88955714Y-183173690D01*
X90479523Y-183649880D02*
X89908095Y-183649880D01*
X90193809Y-183649880D02*
X90193809Y-182649880D01*
X90098571Y-182792738D01*
X90003333Y-182887976D01*
X89908095Y-182935595D01*
X91384285Y-182649880D02*
X90908095Y-182649880D01*
X90860476Y-183126071D01*
X90908095Y-183078452D01*
X91003333Y-183030833D01*
X91241428Y-183030833D01*
X91336666Y-183078452D01*
X91384285Y-183126071D01*
X91431904Y-183221309D01*
X91431904Y-183459404D01*
X91384285Y-183554642D01*
X91336666Y-183602261D01*
X91241428Y-183649880D01*
X91003333Y-183649880D01*
X90908095Y-183602261D01*
X90860476Y-183554642D01*
X95067380Y-157492976D02*
X94591190Y-157826309D01*
X95067380Y-158064404D02*
X94067380Y-158064404D01*
X94067380Y-157683452D01*
X94115000Y-157588214D01*
X94162619Y-157540595D01*
X94257857Y-157492976D01*
X94400714Y-157492976D01*
X94495952Y-157540595D01*
X94543571Y-157588214D01*
X94591190Y-157683452D01*
X94591190Y-158064404D01*
X94162619Y-157112023D02*
X94115000Y-157064404D01*
X94067380Y-156969166D01*
X94067380Y-156731071D01*
X94115000Y-156635833D01*
X94162619Y-156588214D01*
X94257857Y-156540595D01*
X94353095Y-156540595D01*
X94495952Y-156588214D01*
X95067380Y-157159642D01*
X95067380Y-156540595D01*
X94067380Y-155921547D02*
X94067380Y-155826309D01*
X94115000Y-155731071D01*
X94162619Y-155683452D01*
X94257857Y-155635833D01*
X94448333Y-155588214D01*
X94686428Y-155588214D01*
X94876904Y-155635833D01*
X94972142Y-155683452D01*
X95019761Y-155731071D01*
X95067380Y-155826309D01*
X95067380Y-155921547D01*
X95019761Y-156016785D01*
X94972142Y-156064404D01*
X94876904Y-156112023D01*
X94686428Y-156159642D01*
X94448333Y-156159642D01*
X94257857Y-156112023D01*
X94162619Y-156064404D01*
X94115000Y-156016785D01*
X94067380Y-155921547D01*
X93797380Y-157492976D02*
X93321190Y-157826309D01*
X93797380Y-158064404D02*
X92797380Y-158064404D01*
X92797380Y-157683452D01*
X92845000Y-157588214D01*
X92892619Y-157540595D01*
X92987857Y-157492976D01*
X93130714Y-157492976D01*
X93225952Y-157540595D01*
X93273571Y-157588214D01*
X93321190Y-157683452D01*
X93321190Y-158064404D01*
X93797380Y-156540595D02*
X93797380Y-157112023D01*
X93797380Y-156826309D02*
X92797380Y-156826309D01*
X92940238Y-156921547D01*
X93035476Y-157016785D01*
X93083095Y-157112023D01*
X93797380Y-156064404D02*
X93797380Y-155873928D01*
X93749761Y-155778690D01*
X93702142Y-155731071D01*
X93559285Y-155635833D01*
X93368809Y-155588214D01*
X92987857Y-155588214D01*
X92892619Y-155635833D01*
X92845000Y-155683452D01*
X92797380Y-155778690D01*
X92797380Y-155969166D01*
X92845000Y-156064404D01*
X92892619Y-156112023D01*
X92987857Y-156159642D01*
X93225952Y-156159642D01*
X93321190Y-156112023D01*
X93368809Y-156064404D01*
X93416428Y-155969166D01*
X93416428Y-155778690D01*
X93368809Y-155683452D01*
X93321190Y-155635833D01*
X93225952Y-155588214D01*
X96337380Y-157492976D02*
X95861190Y-157826309D01*
X96337380Y-158064404D02*
X95337380Y-158064404D01*
X95337380Y-157683452D01*
X95385000Y-157588214D01*
X95432619Y-157540595D01*
X95527857Y-157492976D01*
X95670714Y-157492976D01*
X95765952Y-157540595D01*
X95813571Y-157588214D01*
X95861190Y-157683452D01*
X95861190Y-158064404D01*
X96337380Y-156540595D02*
X96337380Y-157112023D01*
X96337380Y-156826309D02*
X95337380Y-156826309D01*
X95480238Y-156921547D01*
X95575476Y-157016785D01*
X95623095Y-157112023D01*
X95765952Y-155969166D02*
X95718333Y-156064404D01*
X95670714Y-156112023D01*
X95575476Y-156159642D01*
X95527857Y-156159642D01*
X95432619Y-156112023D01*
X95385000Y-156064404D01*
X95337380Y-155969166D01*
X95337380Y-155778690D01*
X95385000Y-155683452D01*
X95432619Y-155635833D01*
X95527857Y-155588214D01*
X95575476Y-155588214D01*
X95670714Y-155635833D01*
X95718333Y-155683452D01*
X95765952Y-155778690D01*
X95765952Y-155969166D01*
X95813571Y-156064404D01*
X95861190Y-156112023D01*
X95956428Y-156159642D01*
X96146904Y-156159642D01*
X96242142Y-156112023D01*
X96289761Y-156064404D01*
X96337380Y-155969166D01*
X96337380Y-155778690D01*
X96289761Y-155683452D01*
X96242142Y-155635833D01*
X96146904Y-155588214D01*
X95956428Y-155588214D01*
X95861190Y-155635833D01*
X95813571Y-155683452D01*
X95765952Y-155778690D01*
X83653333Y-138469642D02*
X83605714Y-138517261D01*
X83462857Y-138564880D01*
X83367619Y-138564880D01*
X83224761Y-138517261D01*
X83129523Y-138422023D01*
X83081904Y-138326785D01*
X83034285Y-138136309D01*
X83034285Y-137993452D01*
X83081904Y-137802976D01*
X83129523Y-137707738D01*
X83224761Y-137612500D01*
X83367619Y-137564880D01*
X83462857Y-137564880D01*
X83605714Y-137612500D01*
X83653333Y-137660119D01*
X84558095Y-137564880D02*
X84081904Y-137564880D01*
X84034285Y-138041071D01*
X84081904Y-137993452D01*
X84177142Y-137945833D01*
X84415238Y-137945833D01*
X84510476Y-137993452D01*
X84558095Y-138041071D01*
X84605714Y-138136309D01*
X84605714Y-138374404D01*
X84558095Y-138469642D01*
X84510476Y-138517261D01*
X84415238Y-138564880D01*
X84177142Y-138564880D01*
X84081904Y-138517261D01*
X84034285Y-138469642D01*
X81319642Y-167806666D02*
X81367261Y-167854285D01*
X81414880Y-167997142D01*
X81414880Y-168092380D01*
X81367261Y-168235238D01*
X81272023Y-168330476D01*
X81176785Y-168378095D01*
X80986309Y-168425714D01*
X80843452Y-168425714D01*
X80652976Y-168378095D01*
X80557738Y-168330476D01*
X80462500Y-168235238D01*
X80414880Y-168092380D01*
X80414880Y-167997142D01*
X80462500Y-167854285D01*
X80510119Y-167806666D01*
X80414880Y-167473333D02*
X80414880Y-166806666D01*
X81414880Y-167235238D01*
X103171904Y-195714880D02*
X103171904Y-194714880D01*
X103648095Y-195714880D02*
X103648095Y-194714880D01*
X104219523Y-195714880D01*
X104219523Y-194714880D01*
X104695714Y-195714880D02*
X104695714Y-194714880D01*
X104933809Y-194714880D01*
X105076666Y-194762500D01*
X105171904Y-194857738D01*
X105219523Y-194952976D01*
X105267142Y-195143452D01*
X105267142Y-195286309D01*
X105219523Y-195476785D01*
X105171904Y-195572023D01*
X105076666Y-195667261D01*
X104933809Y-195714880D01*
X104695714Y-195714880D01*
X105695714Y-195619642D02*
X105743333Y-195667261D01*
X105695714Y-195714880D01*
X105648095Y-195667261D01*
X105695714Y-195619642D01*
X105695714Y-195714880D01*
X106743333Y-195714880D02*
X106410000Y-195238690D01*
X106171904Y-195714880D02*
X106171904Y-194714880D01*
X106552857Y-194714880D01*
X106648095Y-194762500D01*
X106695714Y-194810119D01*
X106743333Y-194905357D01*
X106743333Y-195048214D01*
X106695714Y-195143452D01*
X106648095Y-195191071D01*
X106552857Y-195238690D01*
X106171904Y-195238690D01*
X107695714Y-195714880D02*
X107124285Y-195714880D01*
X107410000Y-195714880D02*
X107410000Y-194714880D01*
X107314761Y-194857738D01*
X107219523Y-194952976D01*
X107124285Y-195000595D01*
X97607380Y-157492976D02*
X97131190Y-157826309D01*
X97607380Y-158064404D02*
X96607380Y-158064404D01*
X96607380Y-157683452D01*
X96655000Y-157588214D01*
X96702619Y-157540595D01*
X96797857Y-157492976D01*
X96940714Y-157492976D01*
X97035952Y-157540595D01*
X97083571Y-157588214D01*
X97131190Y-157683452D01*
X97131190Y-158064404D01*
X97607380Y-156540595D02*
X97607380Y-157112023D01*
X97607380Y-156826309D02*
X96607380Y-156826309D01*
X96750238Y-156921547D01*
X96845476Y-157016785D01*
X96893095Y-157112023D01*
X96940714Y-155683452D02*
X97607380Y-155683452D01*
X96559761Y-155921547D02*
X97274047Y-156159642D01*
X97274047Y-155540595D01*
X107270357Y-169632380D02*
X107937023Y-170632380D01*
X107937023Y-169632380D02*
X107270357Y-170632380D01*
X108841785Y-170632380D02*
X108270357Y-170632380D01*
X108556071Y-170632380D02*
X108556071Y-169632380D01*
X108460833Y-169775238D01*
X108365595Y-169870476D01*
X108270357Y-169918095D01*
%LPC*%
D13*
X110410000Y-184150000D03*
X110410000Y-188150000D03*
X110410000Y-180150000D03*
X105410000Y-184150000D03*
X105410000Y-188150000D03*
X105410000Y-180150000D03*
X100410000Y-180150000D03*
X100410000Y-184150000D03*
X100410000Y-188150000D03*
D14*
X97790000Y-147320000D03*
X113030000Y-147320000D03*
D15*
X127000000Y-128270000D03*
X116840000Y-128270000D03*
X127000000Y-154940000D03*
D16*
X124460000Y-154940000D03*
D15*
X121920000Y-154940000D03*
X125730000Y-200660000D03*
X115570000Y-200660000D03*
D16*
X101660000Y-175260000D03*
D15*
X104160000Y-175260000D03*
X106660000Y-175260000D03*
X109160000Y-175260000D03*
X92710000Y-175260000D03*
D16*
X92710000Y-177800000D03*
D15*
X92710000Y-180340000D03*
X106680000Y-128270000D03*
X99060000Y-128270000D03*
X104140000Y-128270000D03*
X101600000Y-128270000D03*
X109220000Y-128270000D03*
X111760000Y-128270000D03*
D16*
X80010000Y-193040000D03*
D15*
X80010000Y-190500000D03*
X80010000Y-187960000D03*
D16*
X86360000Y-154940000D03*
D15*
X88900000Y-154940000D03*
X91440000Y-154940000D03*
D16*
X127000000Y-140970000D03*
D15*
X124460000Y-140970000D03*
X121920000Y-140970000D03*
X105410000Y-138430000D03*
D17*
X105410000Y-152020000D03*
X105410000Y-147320000D03*
X105410000Y-142620000D03*
D15*
X119380000Y-160020000D03*
X119380000Y-170180000D03*
X85090000Y-193040000D03*
X95250000Y-193040000D03*
X115570000Y-190500000D03*
X125730000Y-190500000D03*
X125730000Y-193040000D03*
X115570000Y-193040000D03*
X124460000Y-170180000D03*
X124460000Y-160020000D03*
X121920000Y-160020000D03*
X121920000Y-170180000D03*
D16*
X125730000Y-179070000D03*
G36*
G01*
X127120000Y-179530000D02*
X127120000Y-178610000D01*
G75*
G02*
X127810000Y-177920000I690000J0D01*
G01*
X128730000Y-177920000D01*
G75*
G02*
X129420000Y-178610000I0J-690000D01*
G01*
X129420000Y-179530000D01*
G75*
G02*
X128730000Y-180220000I-690000J0D01*
G01*
X127810000Y-180220000D01*
G75*
G02*
X127120000Y-179530000I0J690000D01*
G01*
G37*
X104140000Y-200660000D03*
G36*
G01*
X105530000Y-201120000D02*
X105530000Y-200200000D01*
G75*
G02*
X106220000Y-199510000I690000J0D01*
G01*
X107140000Y-199510000D01*
G75*
G02*
X107830000Y-200200000I0J-690000D01*
G01*
X107830000Y-201120000D01*
G75*
G02*
X107140000Y-201810000I-690000J0D01*
G01*
X106220000Y-201810000D01*
G75*
G02*
X105530000Y-201120000I0J690000D01*
G01*
G37*
D15*
X104140000Y-133350000D03*
X93980000Y-133350000D03*
X81280000Y-133350000D03*
X91440000Y-133350000D03*
X127000000Y-133350000D03*
X116840000Y-133350000D03*
X125730000Y-195580000D03*
X115570000Y-195580000D03*
X115570000Y-198120000D03*
X125730000Y-198120000D03*
X101600000Y-165100000D03*
X101600000Y-162560000D03*
X101600000Y-160020000D03*
X101600000Y-157480000D03*
X109220000Y-157480000D03*
X109220000Y-160020000D03*
X109220000Y-162560000D03*
D16*
X109220000Y-165100000D03*
D15*
X114300000Y-170180000D03*
X114300000Y-165100000D03*
X118110000Y-185420000D03*
X123190000Y-185420000D03*
X127000000Y-135890000D03*
X116840000Y-135890000D03*
X116840000Y-140970000D03*
X111760000Y-140970000D03*
X93980000Y-140970000D03*
X99060000Y-140970000D03*
X95250000Y-190500000D03*
X85090000Y-190500000D03*
X95250000Y-187960000D03*
X85090000Y-187960000D03*
X91440000Y-160020000D03*
X91440000Y-170180000D03*
X88900000Y-160020000D03*
X88900000Y-170180000D03*
X93980000Y-160020000D03*
X93980000Y-170180000D03*
X81280000Y-140970000D03*
X86360000Y-140970000D03*
X83820000Y-170180000D03*
X83820000Y-165100000D03*
X100330000Y-193040000D03*
X110490000Y-193040000D03*
X96520000Y-170180000D03*
X96520000Y-160020000D03*
X105410000Y-170180000D03*
M02*
