G04 #@! TF.GenerationSoftware,KiCad,Pcbnew,5.1.6-c6e7f7d~87~ubuntu19.10.1*
G04 #@! TF.CreationDate,2022-03-29T21:19:22+06:00*
G04 #@! TF.ProjectId,big_muff_r3a_nyc,6269675f-6d75-4666-965f-7233615f6e79,3A*
G04 #@! TF.SameCoordinates,Original*
G04 #@! TF.FileFunction,Legend,Top*
G04 #@! TF.FilePolarity,Positive*
%FSLAX46Y46*%
G04 Gerber Fmt 4.6, Leading zero omitted, Abs format (unit mm)*
G04 Created by KiCad (PCBNEW 5.1.6-c6e7f7d~87~ubuntu19.10.1) date 2022-03-29 21:19:22*
%MOMM*%
%LPD*%
G01*
G04 APERTURE LIST*
%ADD10C,0.200000*%
G04 APERTURE END LIST*
D10*
X124079047Y-168346428D02*
X124840952Y-168346428D01*
X96139047Y-109926428D02*
X96900952Y-109926428D01*
X96520000Y-110307380D02*
X96520000Y-109545476D01*
X80026666Y-167773571D02*
X80169523Y-167821190D01*
X80217142Y-167868809D01*
X80264761Y-167964047D01*
X80264761Y-168106904D01*
X80217142Y-168202142D01*
X80169523Y-168249761D01*
X80074285Y-168297380D01*
X79693333Y-168297380D01*
X79693333Y-167297380D01*
X80026666Y-167297380D01*
X80121904Y-167345000D01*
X80169523Y-167392619D01*
X80217142Y-167487857D01*
X80217142Y-167583095D01*
X80169523Y-167678333D01*
X80121904Y-167725952D01*
X80026666Y-167773571D01*
X79693333Y-167773571D01*
X80693333Y-168297380D02*
X80693333Y-167297380D01*
X81693333Y-167345000D02*
X81598095Y-167297380D01*
X81455238Y-167297380D01*
X81312380Y-167345000D01*
X81217142Y-167440238D01*
X81169523Y-167535476D01*
X81121904Y-167725952D01*
X81121904Y-167868809D01*
X81169523Y-168059285D01*
X81217142Y-168154523D01*
X81312380Y-168249761D01*
X81455238Y-168297380D01*
X81550476Y-168297380D01*
X81693333Y-168249761D01*
X81740952Y-168202142D01*
X81740952Y-167868809D01*
X81550476Y-167868809D01*
X82931428Y-168297380D02*
X82931428Y-167297380D01*
X83264761Y-168011666D01*
X83598095Y-167297380D01*
X83598095Y-168297380D01*
X84074285Y-167297380D02*
X84074285Y-168106904D01*
X84121904Y-168202142D01*
X84169523Y-168249761D01*
X84264761Y-168297380D01*
X84455238Y-168297380D01*
X84550476Y-168249761D01*
X84598095Y-168202142D01*
X84645714Y-168106904D01*
X84645714Y-167297380D01*
X85455238Y-167773571D02*
X85121904Y-167773571D01*
X85121904Y-168297380D02*
X85121904Y-167297380D01*
X85598095Y-167297380D01*
X86312380Y-167773571D02*
X85979047Y-167773571D01*
X85979047Y-168297380D02*
X85979047Y-167297380D01*
X86455238Y-167297380D01*
X87883809Y-168630714D02*
X87645714Y-168630714D01*
X87645714Y-167202142D01*
X87883809Y-167202142D01*
X88836190Y-168297380D02*
X88502857Y-167821190D01*
X88264761Y-168297380D02*
X88264761Y-167297380D01*
X88645714Y-167297380D01*
X88740952Y-167345000D01*
X88788571Y-167392619D01*
X88836190Y-167487857D01*
X88836190Y-167630714D01*
X88788571Y-167725952D01*
X88740952Y-167773571D01*
X88645714Y-167821190D01*
X88264761Y-167821190D01*
X89264761Y-167773571D02*
X89598095Y-167773571D01*
X89740952Y-168297380D02*
X89264761Y-168297380D01*
X89264761Y-167297380D01*
X89740952Y-167297380D01*
X90026666Y-167297380D02*
X90360000Y-168297380D01*
X90693333Y-167297380D01*
X90931428Y-167297380D02*
X91550476Y-167297380D01*
X91217142Y-167678333D01*
X91360000Y-167678333D01*
X91455238Y-167725952D01*
X91502857Y-167773571D01*
X91550476Y-167868809D01*
X91550476Y-168106904D01*
X91502857Y-168202142D01*
X91455238Y-168249761D01*
X91360000Y-168297380D01*
X91074285Y-168297380D01*
X90979047Y-168249761D01*
X90931428Y-168202142D01*
X91931428Y-168011666D02*
X92407619Y-168011666D01*
X91836190Y-168297380D02*
X92169523Y-167297380D01*
X92502857Y-168297380D01*
X92740952Y-168630714D02*
X92979047Y-168630714D01*
X92979047Y-167202142D01*
X92740952Y-167202142D01*
X81502857Y-169616428D02*
X82264761Y-169616428D01*
X82598095Y-168997380D02*
X83169523Y-168997380D01*
X82883809Y-169997380D02*
X82883809Y-168997380D01*
X83360000Y-168997380D02*
X83931428Y-168997380D01*
X83645714Y-169997380D02*
X83645714Y-168997380D01*
X84264761Y-169997380D02*
X84264761Y-168997380D01*
X84836190Y-169997380D02*
X84407619Y-169425952D01*
X84836190Y-168997380D02*
X84264761Y-169568809D01*
X85264761Y-169997380D02*
X85264761Y-168997380D01*
X85645714Y-168997380D01*
X85740952Y-169045000D01*
X85788571Y-169092619D01*
X85836190Y-169187857D01*
X85836190Y-169330714D01*
X85788571Y-169425952D01*
X85740952Y-169473571D01*
X85645714Y-169521190D01*
X85264761Y-169521190D01*
X86740952Y-168997380D02*
X86740952Y-169997380D01*
X86217142Y-168997380D02*
X86217142Y-169378333D01*
X86264761Y-169473571D01*
X86312380Y-169521190D01*
X86407619Y-169568809D01*
X86740952Y-169568809D01*
X87217142Y-169997380D02*
X87217142Y-168997380D01*
X87788571Y-168997380D01*
X87788571Y-169997380D01*
X89026666Y-170235476D02*
X89026666Y-169997380D01*
X88169523Y-169997380D01*
X88169523Y-170235476D01*
X88836190Y-169997380D02*
X88836190Y-168997380D01*
X88598095Y-168997380D01*
X88502857Y-169045000D01*
X88455238Y-169092619D01*
X88407619Y-169187857D01*
X88312380Y-169997380D01*
X89979047Y-169997380D02*
X89979047Y-168997380D01*
X89836190Y-168997380D01*
X89693333Y-169045000D01*
X89598095Y-169140238D01*
X89550476Y-169283095D01*
X89455238Y-169854523D01*
X89407619Y-169949761D01*
X89312380Y-169997380D01*
X89264761Y-169997380D01*
X90455238Y-169616428D02*
X91217142Y-169616428D01*
X78407619Y-170745000D02*
X78312380Y-170697380D01*
X78169523Y-170697380D01*
X78026666Y-170745000D01*
X77931428Y-170840238D01*
X77883809Y-170935476D01*
X77836190Y-171125952D01*
X77836190Y-171268809D01*
X77883809Y-171459285D01*
X77931428Y-171554523D01*
X78026666Y-171649761D01*
X78169523Y-171697380D01*
X78264761Y-171697380D01*
X78407619Y-171649761D01*
X78455238Y-171602142D01*
X78455238Y-171268809D01*
X78264761Y-171268809D01*
X78883809Y-171697380D02*
X78883809Y-170697380D01*
X79217142Y-170697380D02*
X79788571Y-170697380D01*
X79502857Y-171697380D02*
X79502857Y-170697380D01*
X80121904Y-171697380D02*
X80121904Y-170697380D01*
X80121904Y-171173571D02*
X80693333Y-171173571D01*
X80693333Y-171697380D02*
X80693333Y-170697380D01*
X81169523Y-170697380D02*
X81169523Y-171506904D01*
X81217142Y-171602142D01*
X81264761Y-171649761D01*
X81360000Y-171697380D01*
X81550476Y-171697380D01*
X81645714Y-171649761D01*
X81693333Y-171602142D01*
X81740952Y-171506904D01*
X81740952Y-170697380D01*
X82550476Y-171173571D02*
X82693333Y-171221190D01*
X82740952Y-171268809D01*
X82788571Y-171364047D01*
X82788571Y-171506904D01*
X82740952Y-171602142D01*
X82693333Y-171649761D01*
X82598095Y-171697380D01*
X82217142Y-171697380D01*
X82217142Y-170697380D01*
X82550476Y-170697380D01*
X82645714Y-170745000D01*
X82693333Y-170792619D01*
X82740952Y-170887857D01*
X82740952Y-170983095D01*
X82693333Y-171078333D01*
X82645714Y-171125952D01*
X82550476Y-171173571D01*
X82217142Y-171173571D01*
X83217142Y-171602142D02*
X83264761Y-171649761D01*
X83217142Y-171697380D01*
X83169523Y-171649761D01*
X83217142Y-171602142D01*
X83217142Y-171697380D01*
X84264761Y-171602142D02*
X84217142Y-171649761D01*
X84074285Y-171697380D01*
X83979047Y-171697380D01*
X83836190Y-171649761D01*
X83740952Y-171554523D01*
X83693333Y-171459285D01*
X83645714Y-171268809D01*
X83645714Y-171125952D01*
X83693333Y-170935476D01*
X83740952Y-170840238D01*
X83836190Y-170745000D01*
X83979047Y-170697380D01*
X84074285Y-170697380D01*
X84217142Y-170745000D01*
X84264761Y-170792619D01*
X84883809Y-170697380D02*
X85074285Y-170697380D01*
X85169523Y-170745000D01*
X85264761Y-170840238D01*
X85312380Y-171030714D01*
X85312380Y-171364047D01*
X85264761Y-171554523D01*
X85169523Y-171649761D01*
X85074285Y-171697380D01*
X84883809Y-171697380D01*
X84788571Y-171649761D01*
X84693333Y-171554523D01*
X84645714Y-171364047D01*
X84645714Y-171030714D01*
X84693333Y-170840238D01*
X84788571Y-170745000D01*
X84883809Y-170697380D01*
X85740952Y-171697380D02*
X85740952Y-170697380D01*
X86074285Y-171411666D01*
X86407619Y-170697380D01*
X86407619Y-171697380D01*
X87598095Y-170649761D02*
X86740952Y-171935476D01*
X87883809Y-171411666D02*
X88360000Y-171411666D01*
X87788571Y-171697380D02*
X88121904Y-170697380D01*
X88455238Y-171697380D01*
X88788571Y-171697380D02*
X88788571Y-170697380D01*
X89026666Y-170697380D01*
X89169523Y-170745000D01*
X89264761Y-170840238D01*
X89312380Y-170935476D01*
X89360000Y-171125952D01*
X89360000Y-171268809D01*
X89312380Y-171459285D01*
X89264761Y-171554523D01*
X89169523Y-171649761D01*
X89026666Y-171697380D01*
X88788571Y-171697380D01*
X89788571Y-171173571D02*
X90121904Y-171173571D01*
X90264761Y-171697380D02*
X89788571Y-171697380D01*
X89788571Y-170697380D01*
X90264761Y-170697380D01*
X90693333Y-171697380D02*
X90693333Y-170697380D01*
X91074285Y-170697380D01*
X91169523Y-170745000D01*
X91217142Y-170792619D01*
X91264761Y-170887857D01*
X91264761Y-171030714D01*
X91217142Y-171125952D01*
X91169523Y-171173571D01*
X91074285Y-171221190D01*
X90693333Y-171221190D01*
X91550476Y-170697380D02*
X92121904Y-170697380D01*
X91836190Y-171697380D02*
X91836190Y-170697380D01*
X92883809Y-170697380D02*
X92693333Y-170697380D01*
X92598095Y-170745000D01*
X92550476Y-170792619D01*
X92455238Y-170935476D01*
X92407619Y-171125952D01*
X92407619Y-171506904D01*
X92455238Y-171602142D01*
X92502857Y-171649761D01*
X92598095Y-171697380D01*
X92788571Y-171697380D01*
X92883809Y-171649761D01*
X92931428Y-171602142D01*
X92979047Y-171506904D01*
X92979047Y-171268809D01*
X92931428Y-171173571D01*
X92883809Y-171125952D01*
X92788571Y-171078333D01*
X92598095Y-171078333D01*
X92502857Y-171125952D01*
X92455238Y-171173571D01*
X92407619Y-171268809D01*
X93836190Y-170697380D02*
X93645714Y-170697380D01*
X93550476Y-170745000D01*
X93502857Y-170792619D01*
X93407619Y-170935476D01*
X93360000Y-171125952D01*
X93360000Y-171506904D01*
X93407619Y-171602142D01*
X93455238Y-171649761D01*
X93550476Y-171697380D01*
X93740952Y-171697380D01*
X93836190Y-171649761D01*
X93883809Y-171602142D01*
X93931428Y-171506904D01*
X93931428Y-171268809D01*
X93883809Y-171173571D01*
X93836190Y-171125952D01*
X93740952Y-171078333D01*
X93550476Y-171078333D01*
X93455238Y-171125952D01*
X93407619Y-171173571D01*
X93360000Y-171268809D01*
X94788571Y-170697380D02*
X94598095Y-170697380D01*
X94502857Y-170745000D01*
X94455238Y-170792619D01*
X94360000Y-170935476D01*
X94312380Y-171125952D01*
X94312380Y-171506904D01*
X94360000Y-171602142D01*
X94407619Y-171649761D01*
X94502857Y-171697380D01*
X94693333Y-171697380D01*
X94788571Y-171649761D01*
X94836190Y-171602142D01*
X94883809Y-171506904D01*
X94883809Y-171268809D01*
X94836190Y-171173571D01*
X94788571Y-171125952D01*
X94693333Y-171078333D01*
X94502857Y-171078333D01*
X94407619Y-171125952D01*
X94360000Y-171173571D01*
X94312380Y-171268809D01*
X111252000Y-133350000D02*
G75*
G03*
X111252000Y-133350000I-762000J0D01*
G01*
X106172000Y-133350000D02*
G75*
G03*
X106172000Y-133350000I-762000J0D01*
G01*
X101092000Y-133350000D02*
G75*
G03*
X101092000Y-133350000I-762000J0D01*
G01*
X113030000Y-134620000D02*
X113030000Y-136220000D01*
X97790000Y-134620000D02*
X97790000Y-136220000D01*
X111760000Y-132080000D02*
X111760000Y-134620000D01*
X99060000Y-132080000D02*
X99060000Y-134620000D01*
X97790000Y-136220000D02*
X113030000Y-136220000D01*
X97790000Y-134620000D02*
X113030000Y-134620000D01*
X99060000Y-132080000D02*
X111760000Y-132080000D01*
X130302000Y-119380000D02*
G75*
G03*
X130302000Y-119380000I-762000J0D01*
G01*
X125222000Y-119380000D02*
G75*
G03*
X125222000Y-119380000I-762000J0D01*
G01*
X120142000Y-119380000D02*
G75*
G03*
X120142000Y-119380000I-762000J0D01*
G01*
X132080000Y-120650000D02*
X132080000Y-122250000D01*
X116840000Y-120650000D02*
X116840000Y-122250000D01*
X130810000Y-118110000D02*
X130810000Y-120650000D01*
X118110000Y-118110000D02*
X118110000Y-120650000D01*
X116840000Y-122250000D02*
X132080000Y-122250000D01*
X116840000Y-120650000D02*
X132080000Y-120650000D01*
X118110000Y-118110000D02*
X130810000Y-118110000D01*
X92202000Y-119380000D02*
G75*
G03*
X92202000Y-119380000I-762000J0D01*
G01*
X87122000Y-119380000D02*
G75*
G03*
X87122000Y-119380000I-762000J0D01*
G01*
X82042000Y-119380000D02*
G75*
G03*
X82042000Y-119380000I-762000J0D01*
G01*
X93980000Y-120650000D02*
X93980000Y-122250000D01*
X78740000Y-120650000D02*
X78740000Y-122250000D01*
X92710000Y-118110000D02*
X92710000Y-120650000D01*
X80010000Y-118110000D02*
X80010000Y-120650000D01*
X78740000Y-122250000D02*
X93980000Y-122250000D01*
X78740000Y-120650000D02*
X93980000Y-120650000D01*
X80010000Y-118110000D02*
X92710000Y-118110000D01*
X97282000Y-104140000D02*
G75*
G03*
X97282000Y-104140000I-762000J0D01*
G01*
X125222000Y-162560000D02*
G75*
G03*
X125222000Y-162560000I-762000J0D01*
G01*
X106172000Y-176530000D02*
G75*
G03*
X106172000Y-176530000I-762000J0D01*
G01*
X125221250Y-105155000D02*
X121158750Y-105155000D01*
X125221250Y-105155000D02*
G75*
G02*
X121158750Y-105155000I-2031250J-1525000D01*
G01*
X107695000Y-116078750D02*
X107695000Y-120141250D01*
X107695000Y-116078750D02*
G75*
G02*
X107695000Y-120141250I1525000J-2031250D01*
G01*
X122428750Y-133605000D02*
X126491250Y-133605000D01*
X122428750Y-133605000D02*
G75*
G02*
X126491250Y-133605000I2031250J1525000D01*
G01*
X83058750Y-132335000D02*
X87121250Y-132335000D01*
X83058750Y-132335000D02*
G75*
G02*
X87121250Y-132335000I2031250J1525000D01*
G01*
X89535000Y-108585000D02*
X88265000Y-108585000D01*
X88265000Y-107315000D02*
X88900000Y-108585000D01*
X89535000Y-107315000D02*
X88900000Y-108585000D01*
X89535000Y-107315000D02*
X88265000Y-107315000D01*
X90170000Y-113030000D02*
X87630000Y-113030000D01*
X90170000Y-102870000D02*
X87630000Y-102870000D01*
X87630000Y-102870000D02*
X87630000Y-113030000D01*
X90170000Y-102870000D02*
X90170000Y-113030000D01*
X90805000Y-107315000D02*
X92075000Y-107315000D01*
X92075000Y-108585000D02*
X91440000Y-107315000D01*
X90805000Y-108585000D02*
X91440000Y-107315000D01*
X90805000Y-108585000D02*
X92075000Y-108585000D01*
X90170000Y-102870000D02*
X92710000Y-102870000D01*
X90170000Y-113030000D02*
X92710000Y-113030000D01*
X92710000Y-113030000D02*
X92710000Y-102870000D01*
X90170000Y-113030000D02*
X90170000Y-102870000D01*
X102235000Y-125095000D02*
X100965000Y-125095000D01*
X100965000Y-123825000D02*
X101600000Y-125095000D01*
X102235000Y-123825000D02*
X101600000Y-125095000D01*
X102235000Y-123825000D02*
X100965000Y-123825000D01*
X102870000Y-129540000D02*
X100330000Y-129540000D01*
X102870000Y-119380000D02*
X100330000Y-119380000D01*
X100330000Y-119380000D02*
X100330000Y-129540000D01*
X102870000Y-119380000D02*
X102870000Y-129540000D01*
X103505000Y-123825000D02*
X104775000Y-123825000D01*
X104775000Y-125095000D02*
X104140000Y-123825000D01*
X103505000Y-125095000D02*
X104140000Y-123825000D01*
X103505000Y-125095000D02*
X104775000Y-125095000D01*
X102870000Y-119380000D02*
X105410000Y-119380000D01*
X102870000Y-129540000D02*
X105410000Y-129540000D01*
X105410000Y-129540000D02*
X105410000Y-119380000D01*
X102870000Y-129540000D02*
X102870000Y-119380000D01*
X121920000Y-100965000D02*
X129540000Y-100965000D01*
X121920000Y-104775000D02*
X129540000Y-104775000D01*
X121920000Y-100965000D02*
X121920000Y-104775000D01*
X129540000Y-100965000D02*
X129540000Y-104775000D01*
X123825000Y-102870000D02*
X125095000Y-102870000D01*
X126365000Y-102870000D02*
X127635000Y-102870000D01*
X125095000Y-101600000D02*
X125095000Y-104140000D01*
X126365000Y-101600000D02*
X126365000Y-104140000D01*
X111125000Y-121920000D02*
X111125000Y-129540000D01*
X107315000Y-121920000D02*
X107315000Y-129540000D01*
X111125000Y-121920000D02*
X107315000Y-121920000D01*
X111125000Y-129540000D02*
X107315000Y-129540000D01*
X109220000Y-123825000D02*
X109220000Y-125095000D01*
X109220000Y-126365000D02*
X109220000Y-127635000D01*
X110490000Y-125095000D02*
X107950000Y-125095000D01*
X110490000Y-126365000D02*
X107950000Y-126365000D01*
X112395000Y-129540000D02*
X112395000Y-121920000D01*
X116205000Y-129540000D02*
X116205000Y-121920000D01*
X112395000Y-129540000D02*
X116205000Y-129540000D01*
X112395000Y-121920000D02*
X116205000Y-121920000D01*
X114300000Y-127635000D02*
X114300000Y-126365000D01*
X114300000Y-125095000D02*
X114300000Y-123825000D01*
X113030000Y-126365000D02*
X115570000Y-126365000D01*
X113030000Y-125095000D02*
X115570000Y-125095000D01*
X123190000Y-113665000D02*
X130810000Y-113665000D01*
X123190000Y-117475000D02*
X130810000Y-117475000D01*
X123190000Y-113665000D02*
X123190000Y-117475000D01*
X130810000Y-113665000D02*
X130810000Y-117475000D01*
X125095000Y-115570000D02*
X126365000Y-115570000D01*
X127635000Y-115570000D02*
X128905000Y-115570000D01*
X126365000Y-114300000D02*
X126365000Y-116840000D01*
X127635000Y-114300000D02*
X127635000Y-116840000D01*
X129540000Y-126365000D02*
X132080000Y-126365000D01*
X129540000Y-127635000D02*
X132080000Y-127635000D01*
X130810000Y-126365000D02*
X130810000Y-125095000D01*
X130810000Y-128905000D02*
X130810000Y-127635000D01*
X128905000Y-123190000D02*
X132715000Y-123190000D01*
X128905000Y-130810000D02*
X132715000Y-130810000D01*
X132715000Y-130810000D02*
X132715000Y-123190000D01*
X128905000Y-130810000D02*
X128905000Y-123190000D01*
X119380000Y-135255000D02*
X127000000Y-135255000D01*
X119380000Y-139065000D02*
X127000000Y-139065000D01*
X119380000Y-135255000D02*
X119380000Y-139065000D01*
X127000000Y-135255000D02*
X127000000Y-139065000D01*
X121285000Y-137160000D02*
X122555000Y-137160000D01*
X123825000Y-137160000D02*
X125095000Y-137160000D01*
X122555000Y-135890000D02*
X122555000Y-138430000D01*
X123825000Y-135890000D02*
X123825000Y-138430000D01*
X93345000Y-134620000D02*
X93345000Y-132080000D01*
X94615000Y-134620000D02*
X94615000Y-132080000D01*
X93345000Y-133350000D02*
X92075000Y-133350000D01*
X95885000Y-133350000D02*
X94615000Y-133350000D01*
X90170000Y-135255000D02*
X90170000Y-131445000D01*
X97790000Y-135255000D02*
X97790000Y-131445000D01*
X97790000Y-131445000D02*
X90170000Y-131445000D01*
X97790000Y-135255000D02*
X90170000Y-135255000D01*
X83820000Y-123825000D02*
X91440000Y-123825000D01*
X83820000Y-127635000D02*
X91440000Y-127635000D01*
X83820000Y-123825000D02*
X83820000Y-127635000D01*
X91440000Y-123825000D02*
X91440000Y-127635000D01*
X85725000Y-125730000D02*
X86995000Y-125730000D01*
X88265000Y-125730000D02*
X89535000Y-125730000D01*
X86995000Y-124460000D02*
X86995000Y-127000000D01*
X88265000Y-124460000D02*
X88265000Y-127000000D01*
X99695000Y-116840000D02*
X99695000Y-124460000D01*
X95885000Y-116840000D02*
X95885000Y-124460000D01*
X99695000Y-116840000D02*
X95885000Y-116840000D01*
X99695000Y-124460000D02*
X95885000Y-124460000D01*
X97790000Y-118745000D02*
X97790000Y-120015000D01*
X97790000Y-121285000D02*
X97790000Y-122555000D01*
X99060000Y-120015000D02*
X96520000Y-120015000D01*
X99060000Y-121285000D02*
X96520000Y-121285000D01*
X102235000Y-115570000D02*
X102235000Y-113030000D01*
X103505000Y-115570000D02*
X103505000Y-113030000D01*
X102235000Y-114300000D02*
X100965000Y-114300000D01*
X104775000Y-114300000D02*
X103505000Y-114300000D01*
X99060000Y-116205000D02*
X99060000Y-112395000D01*
X106680000Y-116205000D02*
X106680000Y-112395000D01*
X106680000Y-112395000D02*
X99060000Y-112395000D01*
X106680000Y-116205000D02*
X99060000Y-116205000D01*
X86995000Y-102870000D02*
X86995000Y-110490000D01*
X83185000Y-102870000D02*
X83185000Y-110490000D01*
X86995000Y-102870000D02*
X83185000Y-102870000D01*
X86995000Y-110490000D02*
X83185000Y-110490000D01*
X85090000Y-104775000D02*
X85090000Y-106045000D01*
X85090000Y-107315000D02*
X85090000Y-108585000D01*
X86360000Y-106045000D02*
X83820000Y-106045000D01*
X86360000Y-107315000D02*
X83820000Y-107315000D01*
X116205000Y-102235000D02*
X116205000Y-103505000D01*
X114935000Y-103505000D02*
X116205000Y-102870000D01*
X114935000Y-102235000D02*
X116205000Y-102870000D01*
X114935000Y-102235000D02*
X114935000Y-103505000D01*
X120650000Y-101600000D02*
X120650000Y-104140000D01*
X110490000Y-101600000D02*
X110490000Y-104140000D01*
X110490000Y-104140000D02*
X120650000Y-104140000D01*
X110490000Y-101600000D02*
X120650000Y-101600000D01*
X121920000Y-163830000D02*
X114300000Y-163830000D01*
X121920000Y-161290000D02*
X114300000Y-161290000D01*
X121920000Y-163830000D02*
X121920000Y-161290000D01*
X114300000Y-163830000D02*
X114300000Y-161290000D01*
X120015000Y-161925000D02*
X118745000Y-163195000D01*
X118745000Y-163195000D02*
X117475000Y-161925000D01*
X117475000Y-161925000D02*
X116205000Y-163195000D01*
X123190000Y-97790000D02*
G75*
G03*
X123190000Y-97790000I-2540000J0D01*
G01*
G36*
X118110000Y-97790000D02*
G01*
X118237000Y-97028000D01*
X118999000Y-95885000D01*
X120650000Y-95250000D01*
X122301000Y-95885000D01*
X123063000Y-97028000D01*
X123190000Y-97790000D01*
X118110000Y-97790000D01*
G37*
X118110000Y-97790000D02*
X118237000Y-97028000D01*
X118999000Y-95885000D01*
X120650000Y-95250000D01*
X122301000Y-95885000D01*
X123063000Y-97028000D01*
X123190000Y-97790000D01*
X118110000Y-97790000D01*
X108010000Y-140970000D02*
G75*
G03*
X108010000Y-140970000I-2600000J0D01*
G01*
X110410000Y-167640000D02*
G75*
G03*
X110410000Y-167640000I-5000000J0D01*
G01*
X96910000Y-160890000D02*
X113910000Y-160890000D01*
X96910000Y-174390000D02*
X113910000Y-174390000D01*
X96910000Y-160890000D02*
X96910000Y-174390000D01*
X113910000Y-160890000D02*
X113910000Y-174390000D01*
X99740000Y-139860000D02*
X99740000Y-159860000D01*
X99740000Y-139860000D02*
X82940000Y-139860000D01*
X99740000Y-159860000D02*
X82940000Y-159860000D01*
X111080000Y-159860000D02*
X111080000Y-139860000D01*
X111080000Y-159860000D02*
X127880000Y-159860000D01*
X111080000Y-139860000D02*
X127880000Y-139860000D01*
X100910000Y-108180000D02*
X100910000Y-101480000D01*
X109910000Y-108180000D02*
X109910000Y-101480000D01*
X109910000Y-108180000D02*
X100910000Y-108180000D01*
X117602000Y-97790000D02*
G75*
G03*
X117602000Y-97790000I-3302000J0D01*
G01*
X99822000Y-97790000D02*
G75*
G03*
X99822000Y-97790000I-3302000J0D01*
G01*
X104743333Y-137612380D02*
X104410000Y-137136190D01*
X104171904Y-137612380D02*
X104171904Y-136612380D01*
X104552857Y-136612380D01*
X104648095Y-136660000D01*
X104695714Y-136707619D01*
X104743333Y-136802857D01*
X104743333Y-136945714D01*
X104695714Y-137040952D01*
X104648095Y-137088571D01*
X104552857Y-137136190D01*
X104171904Y-137136190D01*
X105171904Y-137612380D02*
X105171904Y-136612380D01*
X105552857Y-136612380D01*
X105648095Y-136660000D01*
X105695714Y-136707619D01*
X105743333Y-136802857D01*
X105743333Y-136945714D01*
X105695714Y-137040952D01*
X105648095Y-137088571D01*
X105552857Y-137136190D01*
X105171904Y-137136190D01*
X106124285Y-136707619D02*
X106171904Y-136660000D01*
X106267142Y-136612380D01*
X106505238Y-136612380D01*
X106600476Y-136660000D01*
X106648095Y-136707619D01*
X106695714Y-136802857D01*
X106695714Y-136898095D01*
X106648095Y-137040952D01*
X106076666Y-137612380D01*
X106695714Y-137612380D01*
X123793333Y-123642380D02*
X123460000Y-123166190D01*
X123221904Y-123642380D02*
X123221904Y-122642380D01*
X123602857Y-122642380D01*
X123698095Y-122690000D01*
X123745714Y-122737619D01*
X123793333Y-122832857D01*
X123793333Y-122975714D01*
X123745714Y-123070952D01*
X123698095Y-123118571D01*
X123602857Y-123166190D01*
X123221904Y-123166190D01*
X124221904Y-123642380D02*
X124221904Y-122642380D01*
X124602857Y-122642380D01*
X124698095Y-122690000D01*
X124745714Y-122737619D01*
X124793333Y-122832857D01*
X124793333Y-122975714D01*
X124745714Y-123070952D01*
X124698095Y-123118571D01*
X124602857Y-123166190D01*
X124221904Y-123166190D01*
X125126666Y-122642380D02*
X125745714Y-122642380D01*
X125412380Y-123023333D01*
X125555238Y-123023333D01*
X125650476Y-123070952D01*
X125698095Y-123118571D01*
X125745714Y-123213809D01*
X125745714Y-123451904D01*
X125698095Y-123547142D01*
X125650476Y-123594761D01*
X125555238Y-123642380D01*
X125269523Y-123642380D01*
X125174285Y-123594761D01*
X125126666Y-123547142D01*
X85693333Y-117609880D02*
X85360000Y-117133690D01*
X85121904Y-117609880D02*
X85121904Y-116609880D01*
X85502857Y-116609880D01*
X85598095Y-116657500D01*
X85645714Y-116705119D01*
X85693333Y-116800357D01*
X85693333Y-116943214D01*
X85645714Y-117038452D01*
X85598095Y-117086071D01*
X85502857Y-117133690D01*
X85121904Y-117133690D01*
X86121904Y-117609880D02*
X86121904Y-116609880D01*
X86502857Y-116609880D01*
X86598095Y-116657500D01*
X86645714Y-116705119D01*
X86693333Y-116800357D01*
X86693333Y-116943214D01*
X86645714Y-117038452D01*
X86598095Y-117086071D01*
X86502857Y-117133690D01*
X86121904Y-117133690D01*
X87645714Y-117609880D02*
X87074285Y-117609880D01*
X87360000Y-117609880D02*
X87360000Y-116609880D01*
X87264761Y-116752738D01*
X87169523Y-116847976D01*
X87074285Y-116895595D01*
X95710476Y-108037380D02*
X96377142Y-109037380D01*
X96377142Y-108037380D02*
X95710476Y-109037380D01*
X97281904Y-109037380D02*
X96710476Y-109037380D01*
X96996190Y-109037380D02*
X96996190Y-108037380D01*
X96900952Y-108180238D01*
X96805714Y-108275476D01*
X96710476Y-108323095D01*
X123650476Y-166457380D02*
X124317142Y-167457380D01*
X124317142Y-166457380D02*
X123650476Y-167457380D01*
X124650476Y-166552619D02*
X124698095Y-166505000D01*
X124793333Y-166457380D01*
X125031428Y-166457380D01*
X125126666Y-166505000D01*
X125174285Y-166552619D01*
X125221904Y-166647857D01*
X125221904Y-166743095D01*
X125174285Y-166885952D01*
X124602857Y-167457380D01*
X125221904Y-167457380D01*
X106762357Y-175982380D02*
X107429023Y-176982380D01*
X107429023Y-175982380D02*
X106762357Y-176982380D01*
X107714738Y-175982380D02*
X108333785Y-175982380D01*
X108000452Y-176363333D01*
X108143309Y-176363333D01*
X108238547Y-176410952D01*
X108286166Y-176458571D01*
X108333785Y-176553809D01*
X108333785Y-176791904D01*
X108286166Y-176887142D01*
X108238547Y-176934761D01*
X108143309Y-176982380D01*
X107857595Y-176982380D01*
X107762357Y-176934761D01*
X107714738Y-176887142D01*
X121999523Y-109624880D02*
X122332857Y-110624880D01*
X122666190Y-109624880D01*
X122856666Y-109624880D02*
X123428095Y-109624880D01*
X123142380Y-110624880D02*
X123142380Y-109624880D01*
X123713809Y-109720119D02*
X123761428Y-109672500D01*
X123856666Y-109624880D01*
X124094761Y-109624880D01*
X124190000Y-109672500D01*
X124237619Y-109720119D01*
X124285238Y-109815357D01*
X124285238Y-109910595D01*
X124237619Y-110053452D01*
X123666190Y-110624880D01*
X124285238Y-110624880D01*
X112164880Y-119300476D02*
X113164880Y-118967142D01*
X112164880Y-118633809D01*
X112164880Y-118443333D02*
X112164880Y-117871904D01*
X113164880Y-118157619D02*
X112164880Y-118157619D01*
X112164880Y-117633809D02*
X112164880Y-117014761D01*
X112545833Y-117348095D01*
X112545833Y-117205238D01*
X112593452Y-117110000D01*
X112641071Y-117062380D01*
X112736309Y-117014761D01*
X112974404Y-117014761D01*
X113069642Y-117062380D01*
X113117261Y-117110000D01*
X113164880Y-117205238D01*
X113164880Y-117490952D01*
X113117261Y-117586190D01*
X113069642Y-117633809D01*
X123269523Y-128039880D02*
X123602857Y-129039880D01*
X123936190Y-128039880D01*
X124126666Y-128039880D02*
X124698095Y-128039880D01*
X124412380Y-129039880D02*
X124412380Y-128039880D01*
X125555238Y-129039880D02*
X124983809Y-129039880D01*
X125269523Y-129039880D02*
X125269523Y-128039880D01*
X125174285Y-128182738D01*
X125079047Y-128277976D01*
X124983809Y-128325595D01*
X83899523Y-132802380D02*
X84232857Y-133802380D01*
X84566190Y-132802380D01*
X84756666Y-132802380D02*
X85328095Y-132802380D01*
X85042380Y-133802380D02*
X85042380Y-132802380D01*
X86090000Y-133135714D02*
X86090000Y-133802380D01*
X85851904Y-132754761D02*
X85613809Y-133469047D01*
X86232857Y-133469047D01*
X88352380Y-116191785D02*
X89352380Y-115858452D01*
X88352380Y-115525119D01*
X89352380Y-115191785D02*
X88352380Y-115191785D01*
X88352380Y-114953690D01*
X88400000Y-114810833D01*
X88495238Y-114715595D01*
X88590476Y-114667976D01*
X88780952Y-114620357D01*
X88923809Y-114620357D01*
X89114285Y-114667976D01*
X89209523Y-114715595D01*
X89304761Y-114810833D01*
X89352380Y-114953690D01*
X89352380Y-115191785D01*
X88352380Y-114287023D02*
X88352380Y-113667976D01*
X88733333Y-114001309D01*
X88733333Y-113858452D01*
X88780952Y-113763214D01*
X88828571Y-113715595D01*
X88923809Y-113667976D01*
X89161904Y-113667976D01*
X89257142Y-113715595D01*
X89304761Y-113763214D01*
X89352380Y-113858452D01*
X89352380Y-114144166D01*
X89304761Y-114239404D01*
X89257142Y-114287023D01*
X90892380Y-116191785D02*
X91892380Y-115858452D01*
X90892380Y-115525119D01*
X91892380Y-115191785D02*
X90892380Y-115191785D01*
X90892380Y-114953690D01*
X90940000Y-114810833D01*
X91035238Y-114715595D01*
X91130476Y-114667976D01*
X91320952Y-114620357D01*
X91463809Y-114620357D01*
X91654285Y-114667976D01*
X91749523Y-114715595D01*
X91844761Y-114810833D01*
X91892380Y-114953690D01*
X91892380Y-115191785D01*
X90987619Y-114239404D02*
X90940000Y-114191785D01*
X90892380Y-114096547D01*
X90892380Y-113858452D01*
X90940000Y-113763214D01*
X90987619Y-113715595D01*
X91082857Y-113667976D01*
X91178095Y-113667976D01*
X91320952Y-113715595D01*
X91892380Y-114287023D01*
X91892380Y-113667976D01*
X101052380Y-119154761D02*
X102052380Y-118821428D01*
X101052380Y-118488095D01*
X102052380Y-118154761D02*
X101052380Y-118154761D01*
X101052380Y-117916666D01*
X101100000Y-117773809D01*
X101195238Y-117678571D01*
X101290476Y-117630952D01*
X101480952Y-117583333D01*
X101623809Y-117583333D01*
X101814285Y-117630952D01*
X101909523Y-117678571D01*
X102004761Y-117773809D01*
X102052380Y-117916666D01*
X102052380Y-118154761D01*
X101385714Y-116726190D02*
X102052380Y-116726190D01*
X101004761Y-116964285D02*
X101719047Y-117202380D01*
X101719047Y-116583333D01*
X103592380Y-119154761D02*
X104592380Y-118821428D01*
X103592380Y-118488095D01*
X104592380Y-118154761D02*
X103592380Y-118154761D01*
X103592380Y-117916666D01*
X103640000Y-117773809D01*
X103735238Y-117678571D01*
X103830476Y-117630952D01*
X104020952Y-117583333D01*
X104163809Y-117583333D01*
X104354285Y-117630952D01*
X104449523Y-117678571D01*
X104544761Y-117773809D01*
X104592380Y-117916666D01*
X104592380Y-118154761D01*
X103592380Y-116678571D02*
X103592380Y-117154761D01*
X104068571Y-117202380D01*
X104020952Y-117154761D01*
X103973333Y-117059523D01*
X103973333Y-116821428D01*
X104020952Y-116726190D01*
X104068571Y-116678571D01*
X104163809Y-116630952D01*
X104401904Y-116630952D01*
X104497142Y-116678571D01*
X104544761Y-116726190D01*
X104592380Y-116821428D01*
X104592380Y-117059523D01*
X104544761Y-117154761D01*
X104497142Y-117202380D01*
X125563333Y-100369642D02*
X125515714Y-100417261D01*
X125372857Y-100464880D01*
X125277619Y-100464880D01*
X125134761Y-100417261D01*
X125039523Y-100322023D01*
X124991904Y-100226785D01*
X124944285Y-100036309D01*
X124944285Y-99893452D01*
X124991904Y-99702976D01*
X125039523Y-99607738D01*
X125134761Y-99512500D01*
X125277619Y-99464880D01*
X125372857Y-99464880D01*
X125515714Y-99512500D01*
X125563333Y-99560119D01*
X125944285Y-99560119D02*
X125991904Y-99512500D01*
X126087142Y-99464880D01*
X126325238Y-99464880D01*
X126420476Y-99512500D01*
X126468095Y-99560119D01*
X126515714Y-99655357D01*
X126515714Y-99750595D01*
X126468095Y-99893452D01*
X125896666Y-100464880D01*
X126515714Y-100464880D01*
X117514642Y-126372857D02*
X117562261Y-126420476D01*
X117609880Y-126563333D01*
X117609880Y-126658571D01*
X117562261Y-126801428D01*
X117467023Y-126896666D01*
X117371785Y-126944285D01*
X117181309Y-126991904D01*
X117038452Y-126991904D01*
X116847976Y-126944285D01*
X116752738Y-126896666D01*
X116657500Y-126801428D01*
X116609880Y-126658571D01*
X116609880Y-126563333D01*
X116657500Y-126420476D01*
X116705119Y-126372857D01*
X117609880Y-125420476D02*
X117609880Y-125991904D01*
X117609880Y-125706190D02*
X116609880Y-125706190D01*
X116752738Y-125801428D01*
X116847976Y-125896666D01*
X116895595Y-125991904D01*
X116705119Y-125039523D02*
X116657500Y-124991904D01*
X116609880Y-124896666D01*
X116609880Y-124658571D01*
X116657500Y-124563333D01*
X116705119Y-124515714D01*
X116800357Y-124468095D01*
X116895595Y-124468095D01*
X117038452Y-124515714D01*
X117609880Y-125087142D01*
X117609880Y-124468095D01*
X118784642Y-126372857D02*
X118832261Y-126420476D01*
X118879880Y-126563333D01*
X118879880Y-126658571D01*
X118832261Y-126801428D01*
X118737023Y-126896666D01*
X118641785Y-126944285D01*
X118451309Y-126991904D01*
X118308452Y-126991904D01*
X118117976Y-126944285D01*
X118022738Y-126896666D01*
X117927500Y-126801428D01*
X117879880Y-126658571D01*
X117879880Y-126563333D01*
X117927500Y-126420476D01*
X117975119Y-126372857D01*
X118879880Y-125420476D02*
X118879880Y-125991904D01*
X118879880Y-125706190D02*
X117879880Y-125706190D01*
X118022738Y-125801428D01*
X118117976Y-125896666D01*
X118165595Y-125991904D01*
X117879880Y-125087142D02*
X117879880Y-124468095D01*
X118260833Y-124801428D01*
X118260833Y-124658571D01*
X118308452Y-124563333D01*
X118356071Y-124515714D01*
X118451309Y-124468095D01*
X118689404Y-124468095D01*
X118784642Y-124515714D01*
X118832261Y-124563333D01*
X118879880Y-124658571D01*
X118879880Y-124944285D01*
X118832261Y-125039523D01*
X118784642Y-125087142D01*
X126833333Y-113069642D02*
X126785714Y-113117261D01*
X126642857Y-113164880D01*
X126547619Y-113164880D01*
X126404761Y-113117261D01*
X126309523Y-113022023D01*
X126261904Y-112926785D01*
X126214285Y-112736309D01*
X126214285Y-112593452D01*
X126261904Y-112402976D01*
X126309523Y-112307738D01*
X126404761Y-112212500D01*
X126547619Y-112164880D01*
X126642857Y-112164880D01*
X126785714Y-112212500D01*
X126833333Y-112260119D01*
X127690476Y-112164880D02*
X127500000Y-112164880D01*
X127404761Y-112212500D01*
X127357142Y-112260119D01*
X127261904Y-112402976D01*
X127214285Y-112593452D01*
X127214285Y-112974404D01*
X127261904Y-113069642D01*
X127309523Y-113117261D01*
X127404761Y-113164880D01*
X127595238Y-113164880D01*
X127690476Y-113117261D01*
X127738095Y-113069642D01*
X127785714Y-112974404D01*
X127785714Y-112736309D01*
X127738095Y-112641071D01*
X127690476Y-112593452D01*
X127595238Y-112545833D01*
X127404761Y-112545833D01*
X127309523Y-112593452D01*
X127261904Y-112641071D01*
X127214285Y-112736309D01*
X128309642Y-127166666D02*
X128357261Y-127214285D01*
X128404880Y-127357142D01*
X128404880Y-127452380D01*
X128357261Y-127595238D01*
X128262023Y-127690476D01*
X128166785Y-127738095D01*
X127976309Y-127785714D01*
X127833452Y-127785714D01*
X127642976Y-127738095D01*
X127547738Y-127690476D01*
X127452500Y-127595238D01*
X127404880Y-127452380D01*
X127404880Y-127357142D01*
X127452500Y-127214285D01*
X127500119Y-127166666D01*
X127404880Y-126261904D02*
X127404880Y-126738095D01*
X127881071Y-126785714D01*
X127833452Y-126738095D01*
X127785833Y-126642857D01*
X127785833Y-126404761D01*
X127833452Y-126309523D01*
X127881071Y-126261904D01*
X127976309Y-126214285D01*
X128214404Y-126214285D01*
X128309642Y-126261904D01*
X128357261Y-126309523D01*
X128404880Y-126404761D01*
X128404880Y-126642857D01*
X128357261Y-126738095D01*
X128309642Y-126785714D01*
X128103333Y-137517142D02*
X128055714Y-137564761D01*
X127912857Y-137612380D01*
X127817619Y-137612380D01*
X127674761Y-137564761D01*
X127579523Y-137469523D01*
X127531904Y-137374285D01*
X127484285Y-137183809D01*
X127484285Y-137040952D01*
X127531904Y-136850476D01*
X127579523Y-136755238D01*
X127674761Y-136660000D01*
X127817619Y-136612380D01*
X127912857Y-136612380D01*
X128055714Y-136660000D01*
X128103333Y-136707619D01*
X128436666Y-136612380D02*
X129055714Y-136612380D01*
X128722380Y-136993333D01*
X128865238Y-136993333D01*
X128960476Y-137040952D01*
X129008095Y-137088571D01*
X129055714Y-137183809D01*
X129055714Y-137421904D01*
X129008095Y-137517142D01*
X128960476Y-137564761D01*
X128865238Y-137612380D01*
X128579523Y-137612380D01*
X128484285Y-137564761D01*
X128436666Y-137517142D01*
X93337142Y-130849642D02*
X93289523Y-130897261D01*
X93146666Y-130944880D01*
X93051428Y-130944880D01*
X92908571Y-130897261D01*
X92813333Y-130802023D01*
X92765714Y-130706785D01*
X92718095Y-130516309D01*
X92718095Y-130373452D01*
X92765714Y-130182976D01*
X92813333Y-130087738D01*
X92908571Y-129992500D01*
X93051428Y-129944880D01*
X93146666Y-129944880D01*
X93289523Y-129992500D01*
X93337142Y-130040119D01*
X94289523Y-130944880D02*
X93718095Y-130944880D01*
X94003809Y-130944880D02*
X94003809Y-129944880D01*
X93908571Y-130087738D01*
X93813333Y-130182976D01*
X93718095Y-130230595D01*
X95146666Y-130278214D02*
X95146666Y-130944880D01*
X94908571Y-129897261D02*
X94670476Y-130611547D01*
X95289523Y-130611547D01*
X92697023Y-126087142D02*
X92649404Y-126134761D01*
X92506547Y-126182380D01*
X92411309Y-126182380D01*
X92268452Y-126134761D01*
X92173214Y-126039523D01*
X92125595Y-125944285D01*
X92077976Y-125753809D01*
X92077976Y-125610952D01*
X92125595Y-125420476D01*
X92173214Y-125325238D01*
X92268452Y-125230000D01*
X92411309Y-125182380D01*
X92506547Y-125182380D01*
X92649404Y-125230000D01*
X92697023Y-125277619D01*
X93649404Y-126182380D02*
X93077976Y-126182380D01*
X93363690Y-126182380D02*
X93363690Y-125182380D01*
X93268452Y-125325238D01*
X93173214Y-125420476D01*
X93077976Y-125468095D01*
X94554166Y-125182380D02*
X94077976Y-125182380D01*
X94030357Y-125658571D01*
X94077976Y-125610952D01*
X94173214Y-125563333D01*
X94411309Y-125563333D01*
X94506547Y-125610952D01*
X94554166Y-125658571D01*
X94601785Y-125753809D01*
X94601785Y-125991904D01*
X94554166Y-126087142D01*
X94506547Y-126134761D01*
X94411309Y-126182380D01*
X94173214Y-126182380D01*
X94077976Y-126134761D01*
X94030357Y-126087142D01*
X98147142Y-115582976D02*
X98194761Y-115630595D01*
X98242380Y-115773452D01*
X98242380Y-115868690D01*
X98194761Y-116011547D01*
X98099523Y-116106785D01*
X98004285Y-116154404D01*
X97813809Y-116202023D01*
X97670952Y-116202023D01*
X97480476Y-116154404D01*
X97385238Y-116106785D01*
X97290000Y-116011547D01*
X97242380Y-115868690D01*
X97242380Y-115773452D01*
X97290000Y-115630595D01*
X97337619Y-115582976D01*
X98242380Y-114630595D02*
X98242380Y-115202023D01*
X98242380Y-114916309D02*
X97242380Y-114916309D01*
X97385238Y-115011547D01*
X97480476Y-115106785D01*
X97528095Y-115202023D01*
X97242380Y-114011547D02*
X97242380Y-113916309D01*
X97290000Y-113821071D01*
X97337619Y-113773452D01*
X97432857Y-113725833D01*
X97623333Y-113678214D01*
X97861428Y-113678214D01*
X98051904Y-113725833D01*
X98147142Y-113773452D01*
X98194761Y-113821071D01*
X98242380Y-113916309D01*
X98242380Y-114011547D01*
X98194761Y-114106785D01*
X98147142Y-114154404D01*
X98051904Y-114202023D01*
X97861428Y-114249642D01*
X97623333Y-114249642D01*
X97432857Y-114202023D01*
X97337619Y-114154404D01*
X97290000Y-114106785D01*
X97242380Y-114011547D01*
X102703333Y-111799642D02*
X102655714Y-111847261D01*
X102512857Y-111894880D01*
X102417619Y-111894880D01*
X102274761Y-111847261D01*
X102179523Y-111752023D01*
X102131904Y-111656785D01*
X102084285Y-111466309D01*
X102084285Y-111323452D01*
X102131904Y-111132976D01*
X102179523Y-111037738D01*
X102274761Y-110942500D01*
X102417619Y-110894880D01*
X102512857Y-110894880D01*
X102655714Y-110942500D01*
X102703333Y-110990119D01*
X103036666Y-110894880D02*
X103703333Y-110894880D01*
X103274761Y-111894880D01*
X82589642Y-106846666D02*
X82637261Y-106894285D01*
X82684880Y-107037142D01*
X82684880Y-107132380D01*
X82637261Y-107275238D01*
X82542023Y-107370476D01*
X82446785Y-107418095D01*
X82256309Y-107465714D01*
X82113452Y-107465714D01*
X81922976Y-107418095D01*
X81827738Y-107370476D01*
X81732500Y-107275238D01*
X81684880Y-107132380D01*
X81684880Y-107037142D01*
X81732500Y-106894285D01*
X81780119Y-106846666D01*
X82684880Y-106370476D02*
X82684880Y-106180000D01*
X82637261Y-106084761D01*
X82589642Y-106037142D01*
X82446785Y-105941904D01*
X82256309Y-105894285D01*
X81875357Y-105894285D01*
X81780119Y-105941904D01*
X81732500Y-105989523D01*
X81684880Y-106084761D01*
X81684880Y-106275238D01*
X81732500Y-106370476D01*
X81780119Y-106418095D01*
X81875357Y-106465714D01*
X82113452Y-106465714D01*
X82208690Y-106418095D01*
X82256309Y-106370476D01*
X82303928Y-106275238D01*
X82303928Y-106084761D01*
X82256309Y-105989523D01*
X82208690Y-105941904D01*
X82113452Y-105894285D01*
X114260476Y-104544880D02*
X114593809Y-105544880D01*
X114927142Y-104544880D01*
X115260476Y-105544880D02*
X115260476Y-104544880D01*
X115498571Y-104544880D01*
X115641428Y-104592500D01*
X115736666Y-104687738D01*
X115784285Y-104782976D01*
X115831904Y-104973452D01*
X115831904Y-105116309D01*
X115784285Y-105306785D01*
X115736666Y-105402023D01*
X115641428Y-105497261D01*
X115498571Y-105544880D01*
X115260476Y-105544880D01*
X116784285Y-105544880D02*
X116212857Y-105544880D01*
X116498571Y-105544880D02*
X116498571Y-104544880D01*
X116403333Y-104687738D01*
X116308095Y-104782976D01*
X116212857Y-104830595D01*
X117943333Y-165234880D02*
X117610000Y-164758690D01*
X117371904Y-165234880D02*
X117371904Y-164234880D01*
X117752857Y-164234880D01*
X117848095Y-164282500D01*
X117895714Y-164330119D01*
X117943333Y-164425357D01*
X117943333Y-164568214D01*
X117895714Y-164663452D01*
X117848095Y-164711071D01*
X117752857Y-164758690D01*
X117371904Y-164758690D01*
X118324285Y-164330119D02*
X118371904Y-164282500D01*
X118467142Y-164234880D01*
X118705238Y-164234880D01*
X118800476Y-164282500D01*
X118848095Y-164330119D01*
X118895714Y-164425357D01*
X118895714Y-164520595D01*
X118848095Y-164663452D01*
X118276666Y-165234880D01*
X118895714Y-165234880D01*
X124447023Y-98147142D02*
X124399404Y-98194761D01*
X124256547Y-98242380D01*
X124161309Y-98242380D01*
X124018452Y-98194761D01*
X123923214Y-98099523D01*
X123875595Y-98004285D01*
X123827976Y-97813809D01*
X123827976Y-97670952D01*
X123875595Y-97480476D01*
X123923214Y-97385238D01*
X124018452Y-97290000D01*
X124161309Y-97242380D01*
X124256547Y-97242380D01*
X124399404Y-97290000D01*
X124447023Y-97337619D01*
X125399404Y-98242380D02*
X124827976Y-98242380D01*
X125113690Y-98242380D02*
X125113690Y-97242380D01*
X125018452Y-97385238D01*
X124923214Y-97480476D01*
X124827976Y-97528095D01*
X103719523Y-145502380D02*
X104052857Y-146502380D01*
X104386190Y-145502380D01*
X105195714Y-146502380D02*
X104719523Y-146502380D01*
X104719523Y-145502380D01*
X105481428Y-146454761D02*
X105624285Y-146502380D01*
X105862380Y-146502380D01*
X105957619Y-146454761D01*
X106005238Y-146407142D01*
X106052857Y-146311904D01*
X106052857Y-146216666D01*
X106005238Y-146121428D01*
X105957619Y-146073809D01*
X105862380Y-146026190D01*
X105671904Y-145978571D01*
X105576666Y-145930952D01*
X105529047Y-145883333D01*
X105481428Y-145788095D01*
X105481428Y-145692857D01*
X105529047Y-145597619D01*
X105576666Y-145550000D01*
X105671904Y-145502380D01*
X105910000Y-145502380D01*
X106052857Y-145550000D01*
X107005238Y-146502380D02*
X106433809Y-146502380D01*
X106719523Y-146502380D02*
X106719523Y-145502380D01*
X106624285Y-145645238D01*
X106529047Y-145740476D01*
X106433809Y-145788095D01*
X104243333Y-145232380D02*
X104243333Y-144232380D01*
X104243333Y-144708571D02*
X104814761Y-144708571D01*
X104814761Y-145232380D02*
X104814761Y-144232380D01*
X105767142Y-145232380D02*
X105290952Y-145232380D01*
X105290952Y-144232380D01*
X106624285Y-145232380D02*
X106052857Y-145232380D01*
X106338571Y-145232380D02*
X106338571Y-144232380D01*
X106243333Y-144375238D01*
X106148095Y-144470476D01*
X106052857Y-144518095D01*
X104148095Y-160424761D02*
X104290952Y-160472380D01*
X104529047Y-160472380D01*
X104624285Y-160424761D01*
X104671904Y-160377142D01*
X104719523Y-160281904D01*
X104719523Y-160186666D01*
X104671904Y-160091428D01*
X104624285Y-160043809D01*
X104529047Y-159996190D01*
X104338571Y-159948571D01*
X104243333Y-159900952D01*
X104195714Y-159853333D01*
X104148095Y-159758095D01*
X104148095Y-159662857D01*
X104195714Y-159567619D01*
X104243333Y-159520000D01*
X104338571Y-159472380D01*
X104576666Y-159472380D01*
X104719523Y-159520000D01*
X105481428Y-159948571D02*
X105624285Y-159996190D01*
X105671904Y-160043809D01*
X105719523Y-160139047D01*
X105719523Y-160281904D01*
X105671904Y-160377142D01*
X105624285Y-160424761D01*
X105529047Y-160472380D01*
X105148095Y-160472380D01*
X105148095Y-159472380D01*
X105481428Y-159472380D01*
X105576666Y-159520000D01*
X105624285Y-159567619D01*
X105671904Y-159662857D01*
X105671904Y-159758095D01*
X105624285Y-159853333D01*
X105576666Y-159900952D01*
X105481428Y-159948571D01*
X105148095Y-159948571D01*
X106671904Y-160472380D02*
X106100476Y-160472380D01*
X106386190Y-160472380D02*
X106386190Y-159472380D01*
X106290952Y-159615238D01*
X106195714Y-159710476D01*
X106100476Y-159758095D01*
X100602857Y-143597380D02*
X101269523Y-144597380D01*
X101269523Y-143597380D02*
X100602857Y-144597380D01*
X101602857Y-144549761D02*
X101745714Y-144597380D01*
X101983809Y-144597380D01*
X102079047Y-144549761D01*
X102126666Y-144502142D01*
X102174285Y-144406904D01*
X102174285Y-144311666D01*
X102126666Y-144216428D01*
X102079047Y-144168809D01*
X101983809Y-144121190D01*
X101793333Y-144073571D01*
X101698095Y-144025952D01*
X101650476Y-143978333D01*
X101602857Y-143883095D01*
X101602857Y-143787857D01*
X101650476Y-143692619D01*
X101698095Y-143645000D01*
X101793333Y-143597380D01*
X102031428Y-143597380D01*
X102174285Y-143645000D01*
X102507619Y-143597380D02*
X103126666Y-143597380D01*
X102793333Y-143978333D01*
X102936190Y-143978333D01*
X103031428Y-144025952D01*
X103079047Y-144073571D01*
X103126666Y-144168809D01*
X103126666Y-144406904D01*
X103079047Y-144502142D01*
X103031428Y-144549761D01*
X102936190Y-144597380D01*
X102650476Y-144597380D01*
X102555238Y-144549761D01*
X102507619Y-144502142D01*
X107645714Y-143597380D02*
X108312380Y-144597380D01*
X108312380Y-143597380D02*
X107645714Y-144597380D01*
X108645714Y-144549761D02*
X108788571Y-144597380D01*
X109026666Y-144597380D01*
X109121904Y-144549761D01*
X109169523Y-144502142D01*
X109217142Y-144406904D01*
X109217142Y-144311666D01*
X109169523Y-144216428D01*
X109121904Y-144168809D01*
X109026666Y-144121190D01*
X108836190Y-144073571D01*
X108740952Y-144025952D01*
X108693333Y-143978333D01*
X108645714Y-143883095D01*
X108645714Y-143787857D01*
X108693333Y-143692619D01*
X108740952Y-143645000D01*
X108836190Y-143597380D01*
X109074285Y-143597380D01*
X109217142Y-143645000D01*
X109598095Y-143692619D02*
X109645714Y-143645000D01*
X109740952Y-143597380D01*
X109979047Y-143597380D01*
X110074285Y-143645000D01*
X110121904Y-143692619D01*
X110169523Y-143787857D01*
X110169523Y-143883095D01*
X110121904Y-144025952D01*
X109550476Y-144597380D01*
X110169523Y-144597380D01*
X104124285Y-108672380D02*
X104790952Y-109672380D01*
X104790952Y-108672380D02*
X104124285Y-109672380D01*
X105124285Y-109624761D02*
X105267142Y-109672380D01*
X105505238Y-109672380D01*
X105600476Y-109624761D01*
X105648095Y-109577142D01*
X105695714Y-109481904D01*
X105695714Y-109386666D01*
X105648095Y-109291428D01*
X105600476Y-109243809D01*
X105505238Y-109196190D01*
X105314761Y-109148571D01*
X105219523Y-109100952D01*
X105171904Y-109053333D01*
X105124285Y-108958095D01*
X105124285Y-108862857D01*
X105171904Y-108767619D01*
X105219523Y-108720000D01*
X105314761Y-108672380D01*
X105552857Y-108672380D01*
X105695714Y-108720000D01*
X106648095Y-109672380D02*
X106076666Y-109672380D01*
X106362380Y-109672380D02*
X106362380Y-108672380D01*
X106267142Y-108815238D01*
X106171904Y-108910476D01*
X106076666Y-108958095D01*
X91527380Y-99694761D02*
X92527380Y-99361428D01*
X91527380Y-99028095D01*
X92527380Y-98694761D02*
X91527380Y-98694761D01*
X92241666Y-98361428D01*
X91527380Y-98028095D01*
X92527380Y-98028095D01*
X92527380Y-97551904D02*
X91527380Y-97551904D01*
X92003571Y-97551904D02*
X92003571Y-96980476D01*
X92527380Y-96980476D02*
X91527380Y-96980476D01*
X91622619Y-96551904D02*
X91575000Y-96504285D01*
X91527380Y-96409047D01*
X91527380Y-96170952D01*
X91575000Y-96075714D01*
X91622619Y-96028095D01*
X91717857Y-95980476D01*
X91813095Y-95980476D01*
X91955952Y-96028095D01*
X92527380Y-96599523D01*
X92527380Y-95980476D01*
X90257380Y-99694761D02*
X91257380Y-99361428D01*
X90257380Y-99028095D01*
X91257380Y-98694761D02*
X90257380Y-98694761D01*
X90971666Y-98361428D01*
X90257380Y-98028095D01*
X91257380Y-98028095D01*
X91257380Y-97551904D02*
X90257380Y-97551904D01*
X90733571Y-97551904D02*
X90733571Y-96980476D01*
X91257380Y-96980476D02*
X90257380Y-96980476D01*
X91257380Y-95980476D02*
X91257380Y-96551904D01*
X91257380Y-96266190D02*
X90257380Y-96266190D01*
X90400238Y-96361428D01*
X90495476Y-96456666D01*
X90543095Y-96551904D01*
M02*
