G04 #@! TF.GenerationSoftware,KiCad,Pcbnew,5.1.6-c6e7f7d~87~ubuntu19.10.1*
G04 #@! TF.CreationDate,2022-01-15T23:23:36+06:00*
G04 #@! TF.ProjectId,big_muff_r2a_nyc,6269675f-6d75-4666-965f-7232615f6e79,2A*
G04 #@! TF.SameCoordinates,Original*
G04 #@! TF.FileFunction,Legend,Bot*
G04 #@! TF.FilePolarity,Positive*
%FSLAX46Y46*%
G04 Gerber Fmt 4.6, Leading zero omitted, Abs format (unit mm)*
G04 Created by KiCad (PCBNEW 5.1.6-c6e7f7d~87~ubuntu19.10.1) date 2022-01-15 23:23:36*
%MOMM*%
%LPD*%
G01*
G04 APERTURE LIST*
%ADD10C,0.200000*%
G04 APERTURE END LIST*
D10*
X113157000Y-116967000D02*
X115443000Y-116967000D01*
X113157000Y-121793000D02*
X115443000Y-121793000D01*
X113538000Y-119126000D02*
X115062000Y-119126000D01*
X113538000Y-119634000D02*
X115062000Y-119634000D01*
X113157000Y-116967000D02*
X113157000Y-121793000D01*
X115443000Y-116967000D02*
X115443000Y-121793000D01*
X117983000Y-110363000D02*
X115697000Y-110363000D01*
X117983000Y-105537000D02*
X115697000Y-105537000D01*
X117602000Y-108204000D02*
X116078000Y-108204000D01*
X117602000Y-107696000D02*
X116078000Y-107696000D01*
X117983000Y-110363000D02*
X117983000Y-105537000D01*
X115697000Y-110363000D02*
X115697000Y-105537000D01*
X123317000Y-129413000D02*
X123317000Y-127127000D01*
X128143000Y-129413000D02*
X128143000Y-127127000D01*
X125476000Y-129032000D02*
X125476000Y-127508000D01*
X125984000Y-129032000D02*
X125984000Y-127508000D01*
X123317000Y-129413000D02*
X128143000Y-129413000D01*
X123317000Y-127127000D02*
X128143000Y-127127000D01*
X82296000Y-117094000D02*
X82804000Y-117602000D01*
X82804000Y-117602000D02*
X82423000Y-117983000D01*
X82296000Y-117094000D02*
X82804000Y-116586000D01*
X82804000Y-116586000D02*
X82296000Y-116078000D01*
X82296000Y-116078000D02*
X82677000Y-115697000D01*
X80137000Y-115697000D02*
X84963000Y-115697000D01*
X80137000Y-117983000D02*
X84963000Y-117983000D01*
X84963000Y-117983000D02*
X84963000Y-115697000D01*
X80137000Y-117983000D02*
X80137000Y-115697000D01*
X92456000Y-128524000D02*
X92964000Y-129032000D01*
X92964000Y-129032000D02*
X92583000Y-129413000D01*
X92456000Y-128524000D02*
X92964000Y-128016000D01*
X92964000Y-128016000D02*
X92456000Y-127508000D01*
X92456000Y-127508000D02*
X92837000Y-127127000D01*
X90297000Y-127127000D02*
X95123000Y-127127000D01*
X90297000Y-129413000D02*
X95123000Y-129413000D01*
X95123000Y-129413000D02*
X95123000Y-127127000D01*
X90297000Y-129413000D02*
X90297000Y-127127000D01*
X82296000Y-114554000D02*
X82804000Y-115062000D01*
X82804000Y-115062000D02*
X82423000Y-115443000D01*
X82296000Y-114554000D02*
X82804000Y-114046000D01*
X82804000Y-114046000D02*
X82296000Y-113538000D01*
X82296000Y-113538000D02*
X82677000Y-113157000D01*
X80137000Y-113157000D02*
X84963000Y-113157000D01*
X80137000Y-115443000D02*
X84963000Y-115443000D01*
X84963000Y-115443000D02*
X84963000Y-113157000D01*
X80137000Y-115443000D02*
X80137000Y-113157000D01*
X92456000Y-131064000D02*
X92964000Y-131572000D01*
X92964000Y-131572000D02*
X92583000Y-131953000D01*
X92456000Y-131064000D02*
X92964000Y-130556000D01*
X92964000Y-130556000D02*
X92456000Y-130048000D01*
X92456000Y-130048000D02*
X92837000Y-129667000D01*
X90297000Y-129667000D02*
X95123000Y-129667000D01*
X90297000Y-131953000D02*
X95123000Y-131953000D01*
X95123000Y-131953000D02*
X95123000Y-129667000D01*
X90297000Y-131953000D02*
X90297000Y-129667000D01*
X118364000Y-127254000D02*
X118872000Y-126746000D01*
X118872000Y-126746000D02*
X119253000Y-127127000D01*
X118364000Y-127254000D02*
X117856000Y-126746000D01*
X117856000Y-126746000D02*
X117348000Y-127254000D01*
X117348000Y-127254000D02*
X116967000Y-126873000D01*
X116967000Y-129413000D02*
X116967000Y-124587000D01*
X119253000Y-129413000D02*
X119253000Y-124587000D01*
X119253000Y-124587000D02*
X116967000Y-124587000D01*
X119253000Y-129413000D02*
X116967000Y-129413000D01*
X106426000Y-124206000D02*
X105918000Y-124714000D01*
X105918000Y-124714000D02*
X105537000Y-124333000D01*
X106426000Y-124206000D02*
X106934000Y-124714000D01*
X106934000Y-124714000D02*
X107442000Y-124206000D01*
X107442000Y-124206000D02*
X107823000Y-124587000D01*
X107823000Y-122047000D02*
X107823000Y-126873000D01*
X105537000Y-122047000D02*
X105537000Y-126873000D01*
X105537000Y-126873000D02*
X107823000Y-126873000D01*
X105537000Y-122047000D02*
X107823000Y-122047000D01*
X120904000Y-111506000D02*
X120396000Y-110998000D01*
X120396000Y-110998000D02*
X120777000Y-110617000D01*
X120904000Y-111506000D02*
X120396000Y-112014000D01*
X120396000Y-112014000D02*
X120904000Y-112522000D01*
X120904000Y-112522000D02*
X120523000Y-112903000D01*
X123063000Y-112903000D02*
X118237000Y-112903000D01*
X123063000Y-110617000D02*
X118237000Y-110617000D01*
X118237000Y-110617000D02*
X118237000Y-112903000D01*
X123063000Y-110617000D02*
X123063000Y-112903000D01*
X98044000Y-128016000D02*
X97536000Y-127508000D01*
X97536000Y-127508000D02*
X97917000Y-127127000D01*
X98044000Y-128016000D02*
X97536000Y-128524000D01*
X97536000Y-128524000D02*
X98044000Y-129032000D01*
X98044000Y-129032000D02*
X97663000Y-129413000D01*
X100203000Y-129413000D02*
X95377000Y-129413000D01*
X100203000Y-127127000D02*
X95377000Y-127127000D01*
X95377000Y-127127000D02*
X95377000Y-129413000D01*
X100203000Y-127127000D02*
X100203000Y-129413000D01*
X111506000Y-119126000D02*
X110998000Y-119634000D01*
X110998000Y-119634000D02*
X110617000Y-119253000D01*
X111506000Y-119126000D02*
X112014000Y-119634000D01*
X112014000Y-119634000D02*
X112522000Y-119126000D01*
X112522000Y-119126000D02*
X112903000Y-119507000D01*
X112903000Y-116967000D02*
X112903000Y-121793000D01*
X110617000Y-116967000D02*
X110617000Y-121793000D01*
X110617000Y-121793000D02*
X112903000Y-121793000D01*
X110617000Y-116967000D02*
X112903000Y-116967000D01*
X120904000Y-114046000D02*
X120396000Y-113538000D01*
X120396000Y-113538000D02*
X120777000Y-113157000D01*
X120904000Y-114046000D02*
X120396000Y-114554000D01*
X120396000Y-114554000D02*
X120904000Y-115062000D01*
X120904000Y-115062000D02*
X120523000Y-115443000D01*
X123063000Y-115443000D02*
X118237000Y-115443000D01*
X123063000Y-113157000D02*
X118237000Y-113157000D01*
X118237000Y-113157000D02*
X118237000Y-115443000D01*
X123063000Y-113157000D02*
X123063000Y-115443000D01*
X89916000Y-112014000D02*
X90424000Y-112522000D01*
X90424000Y-112522000D02*
X90043000Y-112903000D01*
X89916000Y-112014000D02*
X90424000Y-111506000D01*
X90424000Y-111506000D02*
X89916000Y-110998000D01*
X89916000Y-110998000D02*
X90297000Y-110617000D01*
X87757000Y-110617000D02*
X92583000Y-110617000D01*
X87757000Y-112903000D02*
X92583000Y-112903000D01*
X92583000Y-112903000D02*
X92583000Y-110617000D01*
X87757000Y-112903000D02*
X87757000Y-110617000D01*
X129794000Y-106426000D02*
X129286000Y-105918000D01*
X129286000Y-105918000D02*
X129667000Y-105537000D01*
X129794000Y-106426000D02*
X129286000Y-106934000D01*
X129286000Y-106934000D02*
X129794000Y-107442000D01*
X129794000Y-107442000D02*
X129413000Y-107823000D01*
X131953000Y-107823000D02*
X127127000Y-107823000D01*
X131953000Y-105537000D02*
X127127000Y-105537000D01*
X127127000Y-105537000D02*
X127127000Y-107823000D01*
X131953000Y-105537000D02*
X131953000Y-107823000D01*
X115824000Y-103886000D02*
X115316000Y-103378000D01*
X115316000Y-103378000D02*
X115697000Y-102997000D01*
X115824000Y-103886000D02*
X115316000Y-104394000D01*
X115316000Y-104394000D02*
X115824000Y-104902000D01*
X115824000Y-104902000D02*
X115443000Y-105283000D01*
X117983000Y-105283000D02*
X113157000Y-105283000D01*
X117983000Y-102997000D02*
X113157000Y-102997000D01*
X113157000Y-102997000D02*
X113157000Y-105283000D01*
X117983000Y-102997000D02*
X117983000Y-105283000D01*
X114554000Y-108204000D02*
X115062000Y-107696000D01*
X115062000Y-107696000D02*
X115443000Y-108077000D01*
X114554000Y-108204000D02*
X114046000Y-107696000D01*
X114046000Y-107696000D02*
X113538000Y-108204000D01*
X113538000Y-108204000D02*
X113157000Y-107823000D01*
X113157000Y-110363000D02*
X113157000Y-105537000D01*
X115443000Y-110363000D02*
X115443000Y-105537000D01*
X115443000Y-105537000D02*
X113157000Y-105537000D01*
X115443000Y-110363000D02*
X113157000Y-110363000D01*
X129794000Y-108966000D02*
X129286000Y-108458000D01*
X129286000Y-108458000D02*
X129667000Y-108077000D01*
X129794000Y-108966000D02*
X129286000Y-109474000D01*
X129286000Y-109474000D02*
X129794000Y-109982000D01*
X129794000Y-109982000D02*
X129413000Y-110363000D01*
X131953000Y-110363000D02*
X127127000Y-110363000D01*
X131953000Y-108077000D02*
X127127000Y-108077000D01*
X127127000Y-108077000D02*
X127127000Y-110363000D01*
X131953000Y-108077000D02*
X131953000Y-110363000D01*
X129794000Y-111506000D02*
X129286000Y-110998000D01*
X129286000Y-110998000D02*
X129667000Y-110617000D01*
X129794000Y-111506000D02*
X129286000Y-112014000D01*
X129286000Y-112014000D02*
X129794000Y-112522000D01*
X129794000Y-112522000D02*
X129413000Y-112903000D01*
X131953000Y-112903000D02*
X127127000Y-112903000D01*
X131953000Y-110617000D02*
X127127000Y-110617000D01*
X127127000Y-110617000D02*
X127127000Y-112903000D01*
X131953000Y-110617000D02*
X131953000Y-112903000D01*
X120904000Y-116586000D02*
X120396000Y-116078000D01*
X120396000Y-116078000D02*
X120777000Y-115697000D01*
X120904000Y-116586000D02*
X120396000Y-117094000D01*
X120396000Y-117094000D02*
X120904000Y-117602000D01*
X120904000Y-117602000D02*
X120523000Y-117983000D01*
X123063000Y-117983000D02*
X118237000Y-117983000D01*
X123063000Y-115697000D02*
X118237000Y-115697000D01*
X118237000Y-115697000D02*
X118237000Y-117983000D01*
X123063000Y-115697000D02*
X123063000Y-117983000D01*
X125984000Y-122936000D02*
X125476000Y-122428000D01*
X125476000Y-122428000D02*
X125857000Y-122047000D01*
X125984000Y-122936000D02*
X125476000Y-123444000D01*
X125476000Y-123444000D02*
X125984000Y-123952000D01*
X125984000Y-123952000D02*
X125603000Y-124333000D01*
X128143000Y-124333000D02*
X123317000Y-124333000D01*
X128143000Y-122047000D02*
X123317000Y-122047000D01*
X123317000Y-122047000D02*
X123317000Y-124333000D01*
X128143000Y-122047000D02*
X128143000Y-124333000D01*
X122174000Y-125476000D02*
X121666000Y-124968000D01*
X121666000Y-124968000D02*
X122047000Y-124587000D01*
X122174000Y-125476000D02*
X121666000Y-125984000D01*
X121666000Y-125984000D02*
X122174000Y-126492000D01*
X122174000Y-126492000D02*
X121793000Y-126873000D01*
X124333000Y-126873000D02*
X119507000Y-126873000D01*
X124333000Y-124587000D02*
X119507000Y-124587000D01*
X119507000Y-124587000D02*
X119507000Y-126873000D01*
X124333000Y-124587000D02*
X124333000Y-126873000D01*
X129286000Y-134874000D02*
X129794000Y-135382000D01*
X129794000Y-135382000D02*
X129413000Y-135763000D01*
X129286000Y-134874000D02*
X129794000Y-134366000D01*
X129794000Y-134366000D02*
X129286000Y-133858000D01*
X129286000Y-133858000D02*
X129667000Y-133477000D01*
X127127000Y-133477000D02*
X131953000Y-133477000D01*
X127127000Y-135763000D02*
X131953000Y-135763000D01*
X131953000Y-135763000D02*
X131953000Y-133477000D01*
X127127000Y-135763000D02*
X127127000Y-133477000D01*
X129794000Y-136906000D02*
X129286000Y-136398000D01*
X129286000Y-136398000D02*
X129667000Y-136017000D01*
X129794000Y-136906000D02*
X129286000Y-137414000D01*
X129286000Y-137414000D02*
X129794000Y-137922000D01*
X129794000Y-137922000D02*
X129413000Y-138303000D01*
X131953000Y-138303000D02*
X127127000Y-138303000D01*
X131953000Y-136017000D02*
X127127000Y-136017000D01*
X127127000Y-136017000D02*
X127127000Y-138303000D01*
X131953000Y-136017000D02*
X131953000Y-138303000D01*
X116586000Y-137414000D02*
X117094000Y-137922000D01*
X117094000Y-137922000D02*
X116713000Y-138303000D01*
X116586000Y-137414000D02*
X117094000Y-136906000D01*
X117094000Y-136906000D02*
X116586000Y-136398000D01*
X116586000Y-136398000D02*
X116967000Y-136017000D01*
X114427000Y-136017000D02*
X119253000Y-136017000D01*
X114427000Y-138303000D02*
X119253000Y-138303000D01*
X119253000Y-138303000D02*
X119253000Y-136017000D01*
X114427000Y-138303000D02*
X114427000Y-136017000D01*
X114657142Y-114614761D02*
X114704761Y-114567142D01*
X114752380Y-114424285D01*
X114752380Y-114329047D01*
X114704761Y-114186190D01*
X114609523Y-114090952D01*
X114514285Y-114043333D01*
X114323809Y-113995714D01*
X114180952Y-113995714D01*
X113990476Y-114043333D01*
X113895238Y-114090952D01*
X113800000Y-114186190D01*
X113752380Y-114329047D01*
X113752380Y-114424285D01*
X113800000Y-114567142D01*
X113847619Y-114614761D01*
X114752380Y-115567142D02*
X114752380Y-114995714D01*
X114752380Y-115281428D02*
X113752380Y-115281428D01*
X113895238Y-115186190D01*
X113990476Y-115090952D01*
X114038095Y-114995714D01*
X114752380Y-116519523D02*
X114752380Y-115948095D01*
X114752380Y-116233809D02*
X113752380Y-116233809D01*
X113895238Y-116138571D01*
X113990476Y-116043333D01*
X114038095Y-115948095D01*
X119102142Y-107783333D02*
X119149761Y-107735714D01*
X119197380Y-107592857D01*
X119197380Y-107497619D01*
X119149761Y-107354761D01*
X119054523Y-107259523D01*
X118959285Y-107211904D01*
X118768809Y-107164285D01*
X118625952Y-107164285D01*
X118435476Y-107211904D01*
X118340238Y-107259523D01*
X118245000Y-107354761D01*
X118197380Y-107497619D01*
X118197380Y-107592857D01*
X118245000Y-107735714D01*
X118292619Y-107783333D01*
X118625952Y-108354761D02*
X118578333Y-108259523D01*
X118530714Y-108211904D01*
X118435476Y-108164285D01*
X118387857Y-108164285D01*
X118292619Y-108211904D01*
X118245000Y-108259523D01*
X118197380Y-108354761D01*
X118197380Y-108545238D01*
X118245000Y-108640476D01*
X118292619Y-108688095D01*
X118387857Y-108735714D01*
X118435476Y-108735714D01*
X118530714Y-108688095D01*
X118578333Y-108640476D01*
X118625952Y-108545238D01*
X118625952Y-108354761D01*
X118673571Y-108259523D01*
X118721190Y-108211904D01*
X118816428Y-108164285D01*
X119006904Y-108164285D01*
X119102142Y-108211904D01*
X119149761Y-108259523D01*
X119197380Y-108354761D01*
X119197380Y-108545238D01*
X119149761Y-108640476D01*
X119102142Y-108688095D01*
X119006904Y-108735714D01*
X118816428Y-108735714D01*
X118721190Y-108688095D01*
X118673571Y-108640476D01*
X118625952Y-108545238D01*
X125896666Y-126722142D02*
X125944285Y-126769761D01*
X126087142Y-126817380D01*
X126182380Y-126817380D01*
X126325238Y-126769761D01*
X126420476Y-126674523D01*
X126468095Y-126579285D01*
X126515714Y-126388809D01*
X126515714Y-126245952D01*
X126468095Y-126055476D01*
X126420476Y-125960238D01*
X126325238Y-125865000D01*
X126182380Y-125817380D01*
X126087142Y-125817380D01*
X125944285Y-125865000D01*
X125896666Y-125912619D01*
X125039523Y-126150714D02*
X125039523Y-126817380D01*
X125277619Y-125769761D02*
X125515714Y-126484047D01*
X124896666Y-126484047D01*
X79070476Y-117292380D02*
X79403809Y-116816190D01*
X79641904Y-117292380D02*
X79641904Y-116292380D01*
X79260952Y-116292380D01*
X79165714Y-116340000D01*
X79118095Y-116387619D01*
X79070476Y-116482857D01*
X79070476Y-116625714D01*
X79118095Y-116720952D01*
X79165714Y-116768571D01*
X79260952Y-116816190D01*
X79641904Y-116816190D01*
X78689523Y-116387619D02*
X78641904Y-116340000D01*
X78546666Y-116292380D01*
X78308571Y-116292380D01*
X78213333Y-116340000D01*
X78165714Y-116387619D01*
X78118095Y-116482857D01*
X78118095Y-116578095D01*
X78165714Y-116720952D01*
X78737142Y-117292380D01*
X78118095Y-117292380D01*
X77213333Y-116292380D02*
X77689523Y-116292380D01*
X77737142Y-116768571D01*
X77689523Y-116720952D01*
X77594285Y-116673333D01*
X77356190Y-116673333D01*
X77260952Y-116720952D01*
X77213333Y-116768571D01*
X77165714Y-116863809D01*
X77165714Y-117101904D01*
X77213333Y-117197142D01*
X77260952Y-117244761D01*
X77356190Y-117292380D01*
X77594285Y-117292380D01*
X77689523Y-117244761D01*
X77737142Y-117197142D01*
X89230476Y-128722380D02*
X89563809Y-128246190D01*
X89801904Y-128722380D02*
X89801904Y-127722380D01*
X89420952Y-127722380D01*
X89325714Y-127770000D01*
X89278095Y-127817619D01*
X89230476Y-127912857D01*
X89230476Y-128055714D01*
X89278095Y-128150952D01*
X89325714Y-128198571D01*
X89420952Y-128246190D01*
X89801904Y-128246190D01*
X88849523Y-127817619D02*
X88801904Y-127770000D01*
X88706666Y-127722380D01*
X88468571Y-127722380D01*
X88373333Y-127770000D01*
X88325714Y-127817619D01*
X88278095Y-127912857D01*
X88278095Y-128008095D01*
X88325714Y-128150952D01*
X88897142Y-128722380D01*
X88278095Y-128722380D01*
X87420952Y-128055714D02*
X87420952Y-128722380D01*
X87659047Y-127674761D02*
X87897142Y-128389047D01*
X87278095Y-128389047D01*
X79070476Y-114752380D02*
X79403809Y-114276190D01*
X79641904Y-114752380D02*
X79641904Y-113752380D01*
X79260952Y-113752380D01*
X79165714Y-113800000D01*
X79118095Y-113847619D01*
X79070476Y-113942857D01*
X79070476Y-114085714D01*
X79118095Y-114180952D01*
X79165714Y-114228571D01*
X79260952Y-114276190D01*
X79641904Y-114276190D01*
X78689523Y-113847619D02*
X78641904Y-113800000D01*
X78546666Y-113752380D01*
X78308571Y-113752380D01*
X78213333Y-113800000D01*
X78165714Y-113847619D01*
X78118095Y-113942857D01*
X78118095Y-114038095D01*
X78165714Y-114180952D01*
X78737142Y-114752380D01*
X78118095Y-114752380D01*
X77784761Y-113752380D02*
X77165714Y-113752380D01*
X77499047Y-114133333D01*
X77356190Y-114133333D01*
X77260952Y-114180952D01*
X77213333Y-114228571D01*
X77165714Y-114323809D01*
X77165714Y-114561904D01*
X77213333Y-114657142D01*
X77260952Y-114704761D01*
X77356190Y-114752380D01*
X77641904Y-114752380D01*
X77737142Y-114704761D01*
X77784761Y-114657142D01*
X97475238Y-131262380D02*
X97808571Y-130786190D01*
X98046666Y-131262380D02*
X98046666Y-130262380D01*
X97665714Y-130262380D01*
X97570476Y-130310000D01*
X97522857Y-130357619D01*
X97475238Y-130452857D01*
X97475238Y-130595714D01*
X97522857Y-130690952D01*
X97570476Y-130738571D01*
X97665714Y-130786190D01*
X98046666Y-130786190D01*
X97094285Y-130357619D02*
X97046666Y-130310000D01*
X96951428Y-130262380D01*
X96713333Y-130262380D01*
X96618095Y-130310000D01*
X96570476Y-130357619D01*
X96522857Y-130452857D01*
X96522857Y-130548095D01*
X96570476Y-130690952D01*
X97141904Y-131262380D01*
X96522857Y-131262380D01*
X96141904Y-130357619D02*
X96094285Y-130310000D01*
X95999047Y-130262380D01*
X95760952Y-130262380D01*
X95665714Y-130310000D01*
X95618095Y-130357619D01*
X95570476Y-130452857D01*
X95570476Y-130548095D01*
X95618095Y-130690952D01*
X96189523Y-131262380D01*
X95570476Y-131262380D01*
X116657380Y-126357142D02*
X116181190Y-126023809D01*
X116657380Y-125785714D02*
X115657380Y-125785714D01*
X115657380Y-126166666D01*
X115705000Y-126261904D01*
X115752619Y-126309523D01*
X115847857Y-126357142D01*
X115990714Y-126357142D01*
X116085952Y-126309523D01*
X116133571Y-126261904D01*
X116181190Y-126166666D01*
X116181190Y-125785714D01*
X115752619Y-126738095D02*
X115705000Y-126785714D01*
X115657380Y-126880952D01*
X115657380Y-127119047D01*
X115705000Y-127214285D01*
X115752619Y-127261904D01*
X115847857Y-127309523D01*
X115943095Y-127309523D01*
X116085952Y-127261904D01*
X116657380Y-126690476D01*
X116657380Y-127309523D01*
X116657380Y-128261904D02*
X116657380Y-127690476D01*
X116657380Y-127976190D02*
X115657380Y-127976190D01*
X115800238Y-127880952D01*
X115895476Y-127785714D01*
X115943095Y-127690476D01*
X105227380Y-123817142D02*
X104751190Y-123483809D01*
X105227380Y-123245714D02*
X104227380Y-123245714D01*
X104227380Y-123626666D01*
X104275000Y-123721904D01*
X104322619Y-123769523D01*
X104417857Y-123817142D01*
X104560714Y-123817142D01*
X104655952Y-123769523D01*
X104703571Y-123721904D01*
X104751190Y-123626666D01*
X104751190Y-123245714D01*
X104322619Y-124198095D02*
X104275000Y-124245714D01*
X104227380Y-124340952D01*
X104227380Y-124579047D01*
X104275000Y-124674285D01*
X104322619Y-124721904D01*
X104417857Y-124769523D01*
X104513095Y-124769523D01*
X104655952Y-124721904D01*
X105227380Y-124150476D01*
X105227380Y-124769523D01*
X104227380Y-125388571D02*
X104227380Y-125483809D01*
X104275000Y-125579047D01*
X104322619Y-125626666D01*
X104417857Y-125674285D01*
X104608333Y-125721904D01*
X104846428Y-125721904D01*
X105036904Y-125674285D01*
X105132142Y-125626666D01*
X105179761Y-125579047D01*
X105227380Y-125483809D01*
X105227380Y-125388571D01*
X105179761Y-125293333D01*
X105132142Y-125245714D01*
X105036904Y-125198095D01*
X104846428Y-125150476D01*
X104608333Y-125150476D01*
X104417857Y-125198095D01*
X104322619Y-125245714D01*
X104275000Y-125293333D01*
X104227380Y-125388571D01*
X117170476Y-112212380D02*
X117503809Y-111736190D01*
X117741904Y-112212380D02*
X117741904Y-111212380D01*
X117360952Y-111212380D01*
X117265714Y-111260000D01*
X117218095Y-111307619D01*
X117170476Y-111402857D01*
X117170476Y-111545714D01*
X117218095Y-111640952D01*
X117265714Y-111688571D01*
X117360952Y-111736190D01*
X117741904Y-111736190D01*
X116218095Y-112212380D02*
X116789523Y-112212380D01*
X116503809Y-112212380D02*
X116503809Y-111212380D01*
X116599047Y-111355238D01*
X116694285Y-111450476D01*
X116789523Y-111498095D01*
X115741904Y-112212380D02*
X115551428Y-112212380D01*
X115456190Y-112164761D01*
X115408571Y-112117142D01*
X115313333Y-111974285D01*
X115265714Y-111783809D01*
X115265714Y-111402857D01*
X115313333Y-111307619D01*
X115360952Y-111260000D01*
X115456190Y-111212380D01*
X115646666Y-111212380D01*
X115741904Y-111260000D01*
X115789523Y-111307619D01*
X115837142Y-111402857D01*
X115837142Y-111640952D01*
X115789523Y-111736190D01*
X115741904Y-111783809D01*
X115646666Y-111831428D01*
X115456190Y-111831428D01*
X115360952Y-111783809D01*
X115313333Y-111736190D01*
X115265714Y-111640952D01*
X98432857Y-126817380D02*
X98766190Y-126341190D01*
X99004285Y-126817380D02*
X99004285Y-125817380D01*
X98623333Y-125817380D01*
X98528095Y-125865000D01*
X98480476Y-125912619D01*
X98432857Y-126007857D01*
X98432857Y-126150714D01*
X98480476Y-126245952D01*
X98528095Y-126293571D01*
X98623333Y-126341190D01*
X99004285Y-126341190D01*
X97480476Y-126817380D02*
X98051904Y-126817380D01*
X97766190Y-126817380D02*
X97766190Y-125817380D01*
X97861428Y-125960238D01*
X97956666Y-126055476D01*
X98051904Y-126103095D01*
X96909047Y-126245952D02*
X97004285Y-126198333D01*
X97051904Y-126150714D01*
X97099523Y-126055476D01*
X97099523Y-126007857D01*
X97051904Y-125912619D01*
X97004285Y-125865000D01*
X96909047Y-125817380D01*
X96718571Y-125817380D01*
X96623333Y-125865000D01*
X96575714Y-125912619D01*
X96528095Y-126007857D01*
X96528095Y-126055476D01*
X96575714Y-126150714D01*
X96623333Y-126198333D01*
X96718571Y-126245952D01*
X96909047Y-126245952D01*
X97004285Y-126293571D01*
X97051904Y-126341190D01*
X97099523Y-126436428D01*
X97099523Y-126626904D01*
X97051904Y-126722142D01*
X97004285Y-126769761D01*
X96909047Y-126817380D01*
X96718571Y-126817380D01*
X96623333Y-126769761D01*
X96575714Y-126722142D01*
X96528095Y-126626904D01*
X96528095Y-126436428D01*
X96575714Y-126341190D01*
X96623333Y-126293571D01*
X96718571Y-126245952D01*
X112212380Y-114614761D02*
X111736190Y-114281428D01*
X112212380Y-114043333D02*
X111212380Y-114043333D01*
X111212380Y-114424285D01*
X111260000Y-114519523D01*
X111307619Y-114567142D01*
X111402857Y-114614761D01*
X111545714Y-114614761D01*
X111640952Y-114567142D01*
X111688571Y-114519523D01*
X111736190Y-114424285D01*
X111736190Y-114043333D01*
X112212380Y-115567142D02*
X112212380Y-114995714D01*
X112212380Y-115281428D02*
X111212380Y-115281428D01*
X111355238Y-115186190D01*
X111450476Y-115090952D01*
X111498095Y-114995714D01*
X111212380Y-115900476D02*
X111212380Y-116567142D01*
X112212380Y-116138571D01*
X117170476Y-114752380D02*
X117503809Y-114276190D01*
X117741904Y-114752380D02*
X117741904Y-113752380D01*
X117360952Y-113752380D01*
X117265714Y-113800000D01*
X117218095Y-113847619D01*
X117170476Y-113942857D01*
X117170476Y-114085714D01*
X117218095Y-114180952D01*
X117265714Y-114228571D01*
X117360952Y-114276190D01*
X117741904Y-114276190D01*
X116218095Y-114752380D02*
X116789523Y-114752380D01*
X116503809Y-114752380D02*
X116503809Y-113752380D01*
X116599047Y-113895238D01*
X116694285Y-113990476D01*
X116789523Y-114038095D01*
X115360952Y-113752380D02*
X115551428Y-113752380D01*
X115646666Y-113800000D01*
X115694285Y-113847619D01*
X115789523Y-113990476D01*
X115837142Y-114180952D01*
X115837142Y-114561904D01*
X115789523Y-114657142D01*
X115741904Y-114704761D01*
X115646666Y-114752380D01*
X115456190Y-114752380D01*
X115360952Y-114704761D01*
X115313333Y-114657142D01*
X115265714Y-114561904D01*
X115265714Y-114323809D01*
X115313333Y-114228571D01*
X115360952Y-114180952D01*
X115456190Y-114133333D01*
X115646666Y-114133333D01*
X115741904Y-114180952D01*
X115789523Y-114228571D01*
X115837142Y-114323809D01*
X90812857Y-110307380D02*
X91146190Y-109831190D01*
X91384285Y-110307380D02*
X91384285Y-109307380D01*
X91003333Y-109307380D01*
X90908095Y-109355000D01*
X90860476Y-109402619D01*
X90812857Y-109497857D01*
X90812857Y-109640714D01*
X90860476Y-109735952D01*
X90908095Y-109783571D01*
X91003333Y-109831190D01*
X91384285Y-109831190D01*
X89860476Y-110307380D02*
X90431904Y-110307380D01*
X90146190Y-110307380D02*
X90146190Y-109307380D01*
X90241428Y-109450238D01*
X90336666Y-109545476D01*
X90431904Y-109593095D01*
X88955714Y-109307380D02*
X89431904Y-109307380D01*
X89479523Y-109783571D01*
X89431904Y-109735952D01*
X89336666Y-109688333D01*
X89098571Y-109688333D01*
X89003333Y-109735952D01*
X88955714Y-109783571D01*
X88908095Y-109878809D01*
X88908095Y-110116904D01*
X88955714Y-110212142D01*
X89003333Y-110259761D01*
X89098571Y-110307380D01*
X89336666Y-110307380D01*
X89431904Y-110259761D01*
X89479523Y-110212142D01*
X130182857Y-105227380D02*
X130516190Y-104751190D01*
X130754285Y-105227380D02*
X130754285Y-104227380D01*
X130373333Y-104227380D01*
X130278095Y-104275000D01*
X130230476Y-104322619D01*
X130182857Y-104417857D01*
X130182857Y-104560714D01*
X130230476Y-104655952D01*
X130278095Y-104703571D01*
X130373333Y-104751190D01*
X130754285Y-104751190D01*
X129230476Y-105227380D02*
X129801904Y-105227380D01*
X129516190Y-105227380D02*
X129516190Y-104227380D01*
X129611428Y-104370238D01*
X129706666Y-104465476D01*
X129801904Y-104513095D01*
X128373333Y-104560714D02*
X128373333Y-105227380D01*
X128611428Y-104179761D02*
X128849523Y-104894047D01*
X128230476Y-104894047D01*
X116212857Y-102687380D02*
X116546190Y-102211190D01*
X116784285Y-102687380D02*
X116784285Y-101687380D01*
X116403333Y-101687380D01*
X116308095Y-101735000D01*
X116260476Y-101782619D01*
X116212857Y-101877857D01*
X116212857Y-102020714D01*
X116260476Y-102115952D01*
X116308095Y-102163571D01*
X116403333Y-102211190D01*
X116784285Y-102211190D01*
X115260476Y-102687380D02*
X115831904Y-102687380D01*
X115546190Y-102687380D02*
X115546190Y-101687380D01*
X115641428Y-101830238D01*
X115736666Y-101925476D01*
X115831904Y-101973095D01*
X114927142Y-101687380D02*
X114308095Y-101687380D01*
X114641428Y-102068333D01*
X114498571Y-102068333D01*
X114403333Y-102115952D01*
X114355714Y-102163571D01*
X114308095Y-102258809D01*
X114308095Y-102496904D01*
X114355714Y-102592142D01*
X114403333Y-102639761D01*
X114498571Y-102687380D01*
X114784285Y-102687380D01*
X114879523Y-102639761D01*
X114927142Y-102592142D01*
X114752380Y-111429523D02*
X114276190Y-111096190D01*
X114752380Y-110858095D02*
X113752380Y-110858095D01*
X113752380Y-111239047D01*
X113800000Y-111334285D01*
X113847619Y-111381904D01*
X113942857Y-111429523D01*
X114085714Y-111429523D01*
X114180952Y-111381904D01*
X114228571Y-111334285D01*
X114276190Y-111239047D01*
X114276190Y-110858095D01*
X114752380Y-112381904D02*
X114752380Y-111810476D01*
X114752380Y-112096190D02*
X113752380Y-112096190D01*
X113895238Y-112000952D01*
X113990476Y-111905714D01*
X114038095Y-111810476D01*
X113847619Y-112762857D02*
X113800000Y-112810476D01*
X113752380Y-112905714D01*
X113752380Y-113143809D01*
X113800000Y-113239047D01*
X113847619Y-113286666D01*
X113942857Y-113334285D01*
X114038095Y-113334285D01*
X114180952Y-113286666D01*
X114752380Y-112715238D01*
X114752380Y-113334285D01*
X126060476Y-109672380D02*
X126393809Y-109196190D01*
X126631904Y-109672380D02*
X126631904Y-108672380D01*
X126250952Y-108672380D01*
X126155714Y-108720000D01*
X126108095Y-108767619D01*
X126060476Y-108862857D01*
X126060476Y-109005714D01*
X126108095Y-109100952D01*
X126155714Y-109148571D01*
X126250952Y-109196190D01*
X126631904Y-109196190D01*
X125108095Y-109672380D02*
X125679523Y-109672380D01*
X125393809Y-109672380D02*
X125393809Y-108672380D01*
X125489047Y-108815238D01*
X125584285Y-108910476D01*
X125679523Y-108958095D01*
X124155714Y-109672380D02*
X124727142Y-109672380D01*
X124441428Y-109672380D02*
X124441428Y-108672380D01*
X124536666Y-108815238D01*
X124631904Y-108910476D01*
X124727142Y-108958095D01*
X126060476Y-112212380D02*
X126393809Y-111736190D01*
X126631904Y-112212380D02*
X126631904Y-111212380D01*
X126250952Y-111212380D01*
X126155714Y-111260000D01*
X126108095Y-111307619D01*
X126060476Y-111402857D01*
X126060476Y-111545714D01*
X126108095Y-111640952D01*
X126155714Y-111688571D01*
X126250952Y-111736190D01*
X126631904Y-111736190D01*
X125108095Y-112212380D02*
X125679523Y-112212380D01*
X125393809Y-112212380D02*
X125393809Y-111212380D01*
X125489047Y-111355238D01*
X125584285Y-111450476D01*
X125679523Y-111498095D01*
X124489047Y-111212380D02*
X124393809Y-111212380D01*
X124298571Y-111260000D01*
X124250952Y-111307619D01*
X124203333Y-111402857D01*
X124155714Y-111593333D01*
X124155714Y-111831428D01*
X124203333Y-112021904D01*
X124250952Y-112117142D01*
X124298571Y-112164761D01*
X124393809Y-112212380D01*
X124489047Y-112212380D01*
X124584285Y-112164761D01*
X124631904Y-112117142D01*
X124679523Y-112021904D01*
X124727142Y-111831428D01*
X124727142Y-111593333D01*
X124679523Y-111402857D01*
X124631904Y-111307619D01*
X124584285Y-111260000D01*
X124489047Y-111212380D01*
X117170476Y-117292380D02*
X117503809Y-116816190D01*
X117741904Y-117292380D02*
X117741904Y-116292380D01*
X117360952Y-116292380D01*
X117265714Y-116340000D01*
X117218095Y-116387619D01*
X117170476Y-116482857D01*
X117170476Y-116625714D01*
X117218095Y-116720952D01*
X117265714Y-116768571D01*
X117360952Y-116816190D01*
X117741904Y-116816190D01*
X116694285Y-117292380D02*
X116503809Y-117292380D01*
X116408571Y-117244761D01*
X116360952Y-117197142D01*
X116265714Y-117054285D01*
X116218095Y-116863809D01*
X116218095Y-116482857D01*
X116265714Y-116387619D01*
X116313333Y-116340000D01*
X116408571Y-116292380D01*
X116599047Y-116292380D01*
X116694285Y-116340000D01*
X116741904Y-116387619D01*
X116789523Y-116482857D01*
X116789523Y-116720952D01*
X116741904Y-116816190D01*
X116694285Y-116863809D01*
X116599047Y-116911428D01*
X116408571Y-116911428D01*
X116313333Y-116863809D01*
X116265714Y-116816190D01*
X116218095Y-116720952D01*
X125896666Y-121737380D02*
X126230000Y-121261190D01*
X126468095Y-121737380D02*
X126468095Y-120737380D01*
X126087142Y-120737380D01*
X125991904Y-120785000D01*
X125944285Y-120832619D01*
X125896666Y-120927857D01*
X125896666Y-121070714D01*
X125944285Y-121165952D01*
X125991904Y-121213571D01*
X126087142Y-121261190D01*
X126468095Y-121261190D01*
X125325238Y-121165952D02*
X125420476Y-121118333D01*
X125468095Y-121070714D01*
X125515714Y-120975476D01*
X125515714Y-120927857D01*
X125468095Y-120832619D01*
X125420476Y-120785000D01*
X125325238Y-120737380D01*
X125134761Y-120737380D01*
X125039523Y-120785000D01*
X124991904Y-120832619D01*
X124944285Y-120927857D01*
X124944285Y-120975476D01*
X124991904Y-121070714D01*
X125039523Y-121118333D01*
X125134761Y-121165952D01*
X125325238Y-121165952D01*
X125420476Y-121213571D01*
X125468095Y-121261190D01*
X125515714Y-121356428D01*
X125515714Y-121546904D01*
X125468095Y-121642142D01*
X125420476Y-121689761D01*
X125325238Y-121737380D01*
X125134761Y-121737380D01*
X125039523Y-121689761D01*
X124991904Y-121642142D01*
X124944285Y-121546904D01*
X124944285Y-121356428D01*
X124991904Y-121261190D01*
X125039523Y-121213571D01*
X125134761Y-121165952D01*
X122086666Y-124277380D02*
X122420000Y-123801190D01*
X122658095Y-124277380D02*
X122658095Y-123277380D01*
X122277142Y-123277380D01*
X122181904Y-123325000D01*
X122134285Y-123372619D01*
X122086666Y-123467857D01*
X122086666Y-123610714D01*
X122134285Y-123705952D01*
X122181904Y-123753571D01*
X122277142Y-123801190D01*
X122658095Y-123801190D01*
X121753333Y-123277380D02*
X121086666Y-123277380D01*
X121515238Y-124277380D01*
X129706666Y-133167380D02*
X130040000Y-132691190D01*
X130278095Y-133167380D02*
X130278095Y-132167380D01*
X129897142Y-132167380D01*
X129801904Y-132215000D01*
X129754285Y-132262619D01*
X129706666Y-132357857D01*
X129706666Y-132500714D01*
X129754285Y-132595952D01*
X129801904Y-132643571D01*
X129897142Y-132691190D01*
X130278095Y-132691190D01*
X128849523Y-132167380D02*
X129040000Y-132167380D01*
X129135238Y-132215000D01*
X129182857Y-132262619D01*
X129278095Y-132405476D01*
X129325714Y-132595952D01*
X129325714Y-132976904D01*
X129278095Y-133072142D01*
X129230476Y-133119761D01*
X129135238Y-133167380D01*
X128944761Y-133167380D01*
X128849523Y-133119761D01*
X128801904Y-133072142D01*
X128754285Y-132976904D01*
X128754285Y-132738809D01*
X128801904Y-132643571D01*
X128849523Y-132595952D01*
X128944761Y-132548333D01*
X129135238Y-132548333D01*
X129230476Y-132595952D01*
X129278095Y-132643571D01*
X129325714Y-132738809D01*
X129706666Y-139517380D02*
X130040000Y-139041190D01*
X130278095Y-139517380D02*
X130278095Y-138517380D01*
X129897142Y-138517380D01*
X129801904Y-138565000D01*
X129754285Y-138612619D01*
X129706666Y-138707857D01*
X129706666Y-138850714D01*
X129754285Y-138945952D01*
X129801904Y-138993571D01*
X129897142Y-139041190D01*
X130278095Y-139041190D01*
X128801904Y-138517380D02*
X129278095Y-138517380D01*
X129325714Y-138993571D01*
X129278095Y-138945952D01*
X129182857Y-138898333D01*
X128944761Y-138898333D01*
X128849523Y-138945952D01*
X128801904Y-138993571D01*
X128754285Y-139088809D01*
X128754285Y-139326904D01*
X128801904Y-139422142D01*
X128849523Y-139469761D01*
X128944761Y-139517380D01*
X129182857Y-139517380D01*
X129278095Y-139469761D01*
X129325714Y-139422142D01*
X117006666Y-135707380D02*
X117340000Y-135231190D01*
X117578095Y-135707380D02*
X117578095Y-134707380D01*
X117197142Y-134707380D01*
X117101904Y-134755000D01*
X117054285Y-134802619D01*
X117006666Y-134897857D01*
X117006666Y-135040714D01*
X117054285Y-135135952D01*
X117101904Y-135183571D01*
X117197142Y-135231190D01*
X117578095Y-135231190D01*
X116149523Y-135040714D02*
X116149523Y-135707380D01*
X116387619Y-134659761D02*
X116625714Y-135374047D01*
X116006666Y-135374047D01*
M02*
