G04 #@! TF.GenerationSoftware,KiCad,Pcbnew,5.1.6-c6e7f7d~87~ubuntu19.10.1*
G04 #@! TF.CreationDate,2022-01-15T23:23:36+06:00*
G04 #@! TF.ProjectId,big_muff_r2a_nyc,6269675f-6d75-4666-965f-7232615f6e79,2A*
G04 #@! TF.SameCoordinates,Original*
G04 #@! TF.FileFunction,Soldermask,Bot*
G04 #@! TF.FilePolarity,Negative*
%FSLAX46Y46*%
G04 Gerber Fmt 4.6, Leading zero omitted, Abs format (unit mm)*
G04 Created by KiCad (PCBNEW 5.1.6-c6e7f7d~87~ubuntu19.10.1) date 2022-01-15 23:23:36*
%MOMM*%
%LPD*%
G01*
G04 APERTURE LIST*
%ADD10C,0.100000*%
G04 APERTURE END LIST*
D10*
G36*
X106610000Y-177730000D02*
G01*
X104210000Y-177730000D01*
X104210000Y-175330000D01*
X106610000Y-175330000D01*
X106610000Y-177730000D01*
G37*
G36*
X112110000Y-173340000D02*
G01*
X108710000Y-173340000D01*
X108710000Y-169940000D01*
X112110000Y-169940000D01*
X112110000Y-173340000D01*
G37*
G36*
X107110000Y-173340000D02*
G01*
X103710000Y-173340000D01*
X103710000Y-169940000D01*
X107110000Y-169940000D01*
X107110000Y-173340000D01*
G37*
G36*
X102110000Y-173340000D02*
G01*
X98710000Y-173340000D01*
X98710000Y-169940000D01*
X102110000Y-169940000D01*
X102110000Y-173340000D01*
G37*
G36*
X102110000Y-169340000D02*
G01*
X98710000Y-169340000D01*
X98710000Y-165940000D01*
X102110000Y-165940000D01*
X102110000Y-169340000D01*
G37*
G36*
X112110000Y-169340000D02*
G01*
X108710000Y-169340000D01*
X108710000Y-165940000D01*
X112110000Y-165940000D01*
X112110000Y-169340000D01*
G37*
G36*
X107110000Y-169340000D02*
G01*
X103710000Y-169340000D01*
X103710000Y-165940000D01*
X107110000Y-165940000D01*
X107110000Y-169340000D01*
G37*
G36*
X112110000Y-165340000D02*
G01*
X108710000Y-165340000D01*
X108710000Y-161940000D01*
X112110000Y-161940000D01*
X112110000Y-165340000D01*
G37*
G36*
X102110000Y-165340000D02*
G01*
X98710000Y-165340000D01*
X98710000Y-161940000D01*
X102110000Y-161940000D01*
X102110000Y-165340000D01*
G37*
G36*
X107110000Y-165340000D02*
G01*
X103710000Y-165340000D01*
X103710000Y-161940000D01*
X107110000Y-161940000D01*
X107110000Y-165340000D01*
G37*
G36*
X125660000Y-163760000D02*
G01*
X123260000Y-163760000D01*
X123260000Y-161360000D01*
X125660000Y-161360000D01*
X125660000Y-163760000D01*
G37*
G36*
X121850000Y-163760000D02*
G01*
X119450000Y-163760000D01*
X119450000Y-161360000D01*
X121850000Y-161360000D01*
X121850000Y-163760000D01*
G37*
G36*
X116770000Y-163760000D02*
G01*
X114370000Y-163760000D01*
X114370000Y-161360000D01*
X116770000Y-161360000D01*
X116770000Y-163760000D01*
G37*
G36*
X129580000Y-159660000D02*
G01*
X126180000Y-159660000D01*
X126180000Y-156260000D01*
X129580000Y-156260000D01*
X129580000Y-159660000D01*
G37*
G36*
X123280000Y-159660000D02*
G01*
X119880000Y-159660000D01*
X119880000Y-156260000D01*
X123280000Y-156260000D01*
X123280000Y-159660000D01*
G37*
G36*
X116980000Y-159660000D02*
G01*
X113580000Y-159660000D01*
X113580000Y-156260000D01*
X116980000Y-156260000D01*
X116980000Y-159660000D01*
G37*
G36*
X90940000Y-159660000D02*
G01*
X87540000Y-159660000D01*
X87540000Y-156260000D01*
X90940000Y-156260000D01*
X90940000Y-159660000D01*
G37*
G36*
X97240000Y-159660000D02*
G01*
X93840000Y-159660000D01*
X93840000Y-156260000D01*
X97240000Y-156260000D01*
X97240000Y-159660000D01*
G37*
G36*
X84640000Y-159660000D02*
G01*
X81240000Y-159660000D01*
X81240000Y-156260000D01*
X84640000Y-156260000D01*
X84640000Y-159660000D01*
G37*
G36*
X129580000Y-143460000D02*
G01*
X126180000Y-143460000D01*
X126180000Y-140060000D01*
X129580000Y-140060000D01*
X129580000Y-143460000D01*
G37*
G36*
X123280000Y-143460000D02*
G01*
X119880000Y-143460000D01*
X119880000Y-140060000D01*
X123280000Y-140060000D01*
X123280000Y-143460000D01*
G37*
G36*
X116980000Y-143460000D02*
G01*
X113580000Y-143460000D01*
X113580000Y-140060000D01*
X116980000Y-140060000D01*
X116980000Y-143460000D01*
G37*
G36*
X84640000Y-143460000D02*
G01*
X81240000Y-143460000D01*
X81240000Y-140060000D01*
X84640000Y-140060000D01*
X84640000Y-143460000D01*
G37*
G36*
X90940000Y-143460000D02*
G01*
X87540000Y-143460000D01*
X87540000Y-140060000D01*
X90940000Y-140060000D01*
X90940000Y-143460000D01*
G37*
G36*
X97240000Y-143460000D02*
G01*
X93840000Y-143460000D01*
X93840000Y-140060000D01*
X97240000Y-140060000D01*
X97240000Y-143460000D01*
G37*
G36*
X105760026Y-138546115D02*
G01*
X105978411Y-138636573D01*
X105978413Y-138636574D01*
X106174955Y-138767899D01*
X106342101Y-138935045D01*
X106473427Y-139131589D01*
X106563885Y-139349974D01*
X106610000Y-139581809D01*
X106610000Y-139818191D01*
X106563885Y-140050026D01*
X106473427Y-140268411D01*
X106342101Y-140464955D01*
X106174955Y-140632101D01*
X105978412Y-140763427D01*
X105891282Y-140799517D01*
X105869671Y-140811068D01*
X105850729Y-140826613D01*
X105835184Y-140845555D01*
X105823633Y-140867166D01*
X105816520Y-140890615D01*
X105814118Y-140915001D01*
X105816520Y-140939387D01*
X105823633Y-140962836D01*
X105835184Y-140984447D01*
X105850729Y-141003389D01*
X105869671Y-141018934D01*
X105891282Y-141030485D01*
X105914731Y-141037598D01*
X105939117Y-141040000D01*
X106610000Y-141040000D01*
X106610000Y-143440000D01*
X104210000Y-143440000D01*
X104210000Y-141040000D01*
X104880883Y-141040000D01*
X104905269Y-141037598D01*
X104928718Y-141030485D01*
X104950329Y-141018934D01*
X104969271Y-141003389D01*
X104984816Y-140984447D01*
X104996367Y-140962836D01*
X105003480Y-140939387D01*
X105005882Y-140915001D01*
X105003480Y-140890615D01*
X104996367Y-140867166D01*
X104984816Y-140845555D01*
X104969271Y-140826613D01*
X104950329Y-140811068D01*
X104928718Y-140799517D01*
X104841588Y-140763427D01*
X104645045Y-140632101D01*
X104477899Y-140464955D01*
X104346573Y-140268411D01*
X104256115Y-140050026D01*
X104210000Y-139818191D01*
X104210000Y-139581809D01*
X104256115Y-139349974D01*
X104346573Y-139131589D01*
X104477899Y-138935045D01*
X104645045Y-138767899D01*
X104841587Y-138636574D01*
X104841589Y-138636573D01*
X105059974Y-138546115D01*
X105291809Y-138500000D01*
X105528191Y-138500000D01*
X105760026Y-138546115D01*
G37*
G36*
X126939515Y-135982836D02*
G01*
X126951066Y-136004447D01*
X126966611Y-136023389D01*
X126985553Y-136038934D01*
X127007164Y-136050485D01*
X127030613Y-136057598D01*
X127054999Y-136060000D01*
X129140000Y-136060000D01*
X129140000Y-138260000D01*
X127054999Y-138260000D01*
X127030613Y-138262402D01*
X127007164Y-138269515D01*
X126985553Y-138281066D01*
X126966611Y-138296611D01*
X126951066Y-138315553D01*
X126939515Y-138337164D01*
X126932588Y-138360000D01*
X124530000Y-138360000D01*
X124530000Y-135960000D01*
X126932588Y-135960000D01*
X126939515Y-135982836D01*
G37*
G36*
X121850000Y-138360000D02*
G01*
X119447412Y-138360000D01*
X119440485Y-138337164D01*
X119428934Y-138315553D01*
X119413389Y-138296611D01*
X119394447Y-138281066D01*
X119372836Y-138269515D01*
X119349387Y-138262402D01*
X119325001Y-138260000D01*
X117240000Y-138260000D01*
X117240000Y-136060000D01*
X119325001Y-136060000D01*
X119349387Y-136057598D01*
X119372836Y-136050485D01*
X119394447Y-136038934D01*
X119413389Y-136023389D01*
X119428934Y-136004447D01*
X119440485Y-135982836D01*
X119447412Y-135960000D01*
X121850000Y-135960000D01*
X121850000Y-138360000D01*
G37*
G36*
X85020000Y-138360000D02*
G01*
X82620000Y-138360000D01*
X82620000Y-135960000D01*
X85020000Y-135960000D01*
X85020000Y-138360000D01*
G37*
G36*
X90100000Y-138360000D02*
G01*
X87700000Y-138360000D01*
X87700000Y-135960000D01*
X90100000Y-135960000D01*
X90100000Y-138360000D01*
G37*
G36*
X116440000Y-138260000D02*
G01*
X114440000Y-138260000D01*
X114440000Y-136060000D01*
X116440000Y-136060000D01*
X116440000Y-138260000D01*
G37*
G36*
X131940000Y-138260000D02*
G01*
X129940000Y-138260000D01*
X129940000Y-136060000D01*
X131940000Y-136060000D01*
X131940000Y-138260000D01*
G37*
G36*
X122270026Y-130926115D02*
G01*
X122488411Y-131016573D01*
X122488413Y-131016574D01*
X122684955Y-131147899D01*
X122852101Y-131315045D01*
X122983427Y-131511588D01*
X123019517Y-131598718D01*
X123031068Y-131620329D01*
X123046613Y-131639271D01*
X123065555Y-131654816D01*
X123087166Y-131666367D01*
X123110615Y-131673480D01*
X123135001Y-131675882D01*
X123159387Y-131673480D01*
X123182836Y-131666367D01*
X123204447Y-131654816D01*
X123223389Y-131639271D01*
X123238934Y-131620329D01*
X123250485Y-131598718D01*
X123257598Y-131575269D01*
X123260000Y-131550883D01*
X123260000Y-130880000D01*
X128200000Y-130880000D01*
X128200000Y-133395001D01*
X128202402Y-133419387D01*
X128209515Y-133442836D01*
X128221066Y-133464447D01*
X128236611Y-133483389D01*
X128255553Y-133498934D01*
X128277164Y-133510485D01*
X128300613Y-133517598D01*
X128324999Y-133520000D01*
X129140000Y-133520000D01*
X129140000Y-135720000D01*
X127140000Y-135720000D01*
X127140000Y-133404999D01*
X127137598Y-133380613D01*
X127130485Y-133357164D01*
X127118934Y-133335553D01*
X127103389Y-133316611D01*
X127084447Y-133301066D01*
X127062836Y-133289515D01*
X127039387Y-133282402D01*
X127015001Y-133280000D01*
X123260000Y-133280000D01*
X123260000Y-132609117D01*
X123257598Y-132584731D01*
X123250485Y-132561282D01*
X123238934Y-132539671D01*
X123223389Y-132520729D01*
X123204447Y-132505184D01*
X123182836Y-132493633D01*
X123159387Y-132486520D01*
X123135001Y-132484118D01*
X123110615Y-132486520D01*
X123087166Y-132493633D01*
X123065555Y-132505184D01*
X123046613Y-132520729D01*
X123031068Y-132539671D01*
X123019517Y-132561282D01*
X122983427Y-132648412D01*
X122983426Y-132648413D01*
X122852101Y-132844955D01*
X122684955Y-133012101D01*
X122488413Y-133143426D01*
X122488412Y-133143427D01*
X122488411Y-133143427D01*
X122270026Y-133233885D01*
X122038191Y-133280000D01*
X121801809Y-133280000D01*
X121569974Y-133233885D01*
X121351589Y-133143427D01*
X121351588Y-133143427D01*
X121351587Y-133143426D01*
X121155045Y-133012101D01*
X120987899Y-132844955D01*
X120856574Y-132648413D01*
X120820483Y-132561282D01*
X120766115Y-132430026D01*
X120720000Y-132198191D01*
X120720000Y-131961809D01*
X120766115Y-131729974D01*
X120856573Y-131511589D01*
X120987899Y-131315045D01*
X121155045Y-131147899D01*
X121351587Y-131016574D01*
X121351589Y-131016573D01*
X121569974Y-130926115D01*
X121801809Y-130880000D01*
X122038191Y-130880000D01*
X122270026Y-130926115D01*
G37*
G36*
X131940000Y-135720000D02*
G01*
X129940000Y-135720000D01*
X129940000Y-133520000D01*
X131940000Y-133520000D01*
X131940000Y-135720000D01*
G37*
G36*
X97720000Y-134550000D02*
G01*
X95320000Y-134550000D01*
X95320000Y-132150000D01*
X97720000Y-132150000D01*
X97720000Y-134550000D01*
G37*
G36*
X92310000Y-132025001D02*
G01*
X92312402Y-132049387D01*
X92319515Y-132072836D01*
X92331066Y-132094447D01*
X92346611Y-132113389D01*
X92365553Y-132128934D01*
X92387164Y-132140485D01*
X92410613Y-132147598D01*
X92434999Y-132150000D01*
X92640000Y-132150000D01*
X92640000Y-134550000D01*
X90240000Y-134550000D01*
X90240000Y-132136656D01*
X90254447Y-132128934D01*
X90273389Y-132113389D01*
X90288934Y-132094447D01*
X90300485Y-132072836D01*
X90307598Y-132049387D01*
X90310000Y-132025001D01*
X90310000Y-129710000D01*
X92310000Y-129710000D01*
X92310000Y-132025001D01*
G37*
G36*
X111690000Y-134350000D02*
G01*
X99130000Y-134350000D01*
X99130000Y-131950000D01*
X111690000Y-131950000D01*
X111690000Y-134350000D01*
G37*
G36*
X82900026Y-129656115D02*
G01*
X83118411Y-129746573D01*
X83118413Y-129746574D01*
X83314955Y-129877899D01*
X83482101Y-130045045D01*
X83613427Y-130241588D01*
X83649517Y-130328718D01*
X83661068Y-130350329D01*
X83676613Y-130369271D01*
X83695555Y-130384816D01*
X83717166Y-130396367D01*
X83740615Y-130403480D01*
X83765001Y-130405882D01*
X83789387Y-130403480D01*
X83812836Y-130396367D01*
X83834447Y-130384816D01*
X83853389Y-130369271D01*
X83868934Y-130350329D01*
X83880485Y-130328718D01*
X83887598Y-130305269D01*
X83890000Y-130280883D01*
X83890000Y-129610000D01*
X88830000Y-129610000D01*
X88830000Y-132010000D01*
X83890000Y-132010000D01*
X83890000Y-131339117D01*
X83887598Y-131314731D01*
X83880485Y-131291282D01*
X83868934Y-131269671D01*
X83853389Y-131250729D01*
X83834447Y-131235184D01*
X83812836Y-131223633D01*
X83789387Y-131216520D01*
X83765001Y-131214118D01*
X83740615Y-131216520D01*
X83717166Y-131223633D01*
X83695555Y-131235184D01*
X83676613Y-131250729D01*
X83661068Y-131269671D01*
X83649517Y-131291282D01*
X83613427Y-131378412D01*
X83524441Y-131511589D01*
X83482101Y-131574955D01*
X83314955Y-131742101D01*
X83118413Y-131873426D01*
X83118412Y-131873427D01*
X83118411Y-131873427D01*
X82900026Y-131963885D01*
X82668191Y-132010000D01*
X82431809Y-132010000D01*
X82199974Y-131963885D01*
X81981589Y-131873427D01*
X81981588Y-131873427D01*
X81981587Y-131873426D01*
X81785045Y-131742101D01*
X81617899Y-131574955D01*
X81486574Y-131378413D01*
X81450483Y-131291282D01*
X81396115Y-131160026D01*
X81350000Y-130928191D01*
X81350000Y-130691809D01*
X81396115Y-130459974D01*
X81486573Y-130241589D01*
X81617899Y-130045045D01*
X81785045Y-129877899D01*
X81981587Y-129746574D01*
X81981589Y-129746573D01*
X82199974Y-129656115D01*
X82431809Y-129610000D01*
X82668191Y-129610000D01*
X82900026Y-129656115D01*
G37*
G36*
X95110000Y-131910000D02*
G01*
X93110000Y-131910000D01*
X93110000Y-129710000D01*
X95110000Y-129710000D01*
X95110000Y-131910000D01*
G37*
G36*
X132010000Y-130740000D02*
G01*
X129610000Y-130740000D01*
X129610000Y-128340000D01*
X132010000Y-128340000D01*
X132010000Y-130740000D01*
G37*
G36*
X115500000Y-129470000D02*
G01*
X113100000Y-129470000D01*
X113100000Y-127070000D01*
X115500000Y-127070000D01*
X115500000Y-129470000D01*
G37*
G36*
X110420000Y-129470000D02*
G01*
X108020000Y-129470000D01*
X108020000Y-127070000D01*
X110420000Y-127070000D01*
X110420000Y-129470000D01*
G37*
G36*
X102800000Y-127740883D02*
G01*
X102802402Y-127765269D01*
X102809515Y-127788718D01*
X102821066Y-127810329D01*
X102836611Y-127829271D01*
X102855553Y-127844816D01*
X102877164Y-127856367D01*
X102900613Y-127863480D01*
X102924999Y-127865882D01*
X102949385Y-127863480D01*
X102972834Y-127856367D01*
X102994445Y-127844816D01*
X103013387Y-127829271D01*
X103028932Y-127810329D01*
X103040483Y-127788718D01*
X103076573Y-127701588D01*
X103207899Y-127505045D01*
X103375045Y-127337899D01*
X103571587Y-127206574D01*
X103571589Y-127206573D01*
X103789974Y-127116115D01*
X104021809Y-127070000D01*
X104258191Y-127070000D01*
X104490026Y-127116115D01*
X104708411Y-127206573D01*
X104708413Y-127206574D01*
X104904955Y-127337899D01*
X105072101Y-127505045D01*
X105203427Y-127701589D01*
X105293885Y-127919974D01*
X105340000Y-128151809D01*
X105340000Y-128388191D01*
X105293885Y-128620026D01*
X105239517Y-128751282D01*
X105203426Y-128838413D01*
X105072101Y-129034955D01*
X104904955Y-129202101D01*
X104708413Y-129333426D01*
X104708412Y-129333427D01*
X104708411Y-129333427D01*
X104490026Y-129423885D01*
X104258191Y-129470000D01*
X104021809Y-129470000D01*
X103789974Y-129423885D01*
X103571589Y-129333427D01*
X103571588Y-129333427D01*
X103571587Y-129333426D01*
X103375045Y-129202101D01*
X103207899Y-129034955D01*
X103076574Y-128838413D01*
X103076573Y-128838412D01*
X103040483Y-128751282D01*
X103028932Y-128729671D01*
X103013387Y-128710729D01*
X102994445Y-128695184D01*
X102972834Y-128683633D01*
X102949385Y-128676520D01*
X102924999Y-128674118D01*
X102900613Y-128676520D01*
X102877164Y-128683633D01*
X102855553Y-128695184D01*
X102836611Y-128710729D01*
X102821066Y-128729671D01*
X102809515Y-128751282D01*
X102802402Y-128774731D01*
X102800000Y-128799117D01*
X102800000Y-129470000D01*
X100397412Y-129470000D01*
X100390485Y-129447164D01*
X100378934Y-129425553D01*
X100363389Y-129406611D01*
X100344447Y-129391066D01*
X100322836Y-129379515D01*
X100299387Y-129372402D01*
X100275001Y-129370000D01*
X98190000Y-129370000D01*
X98190000Y-127170000D01*
X100275001Y-127170000D01*
X100299387Y-127167598D01*
X100322836Y-127160485D01*
X100344447Y-127148934D01*
X100363389Y-127133389D01*
X100378934Y-127114447D01*
X100390485Y-127092836D01*
X100397412Y-127070000D01*
X102800000Y-127070000D01*
X102800000Y-127740883D01*
G37*
G36*
X119210000Y-129400000D02*
G01*
X117010000Y-129400000D01*
X117010000Y-127400000D01*
X119210000Y-127400000D01*
X119210000Y-129400000D01*
G37*
G36*
X97390000Y-129370000D02*
G01*
X95390000Y-129370000D01*
X95390000Y-127170000D01*
X97390000Y-127170000D01*
X97390000Y-129370000D01*
G37*
G36*
X128130000Y-129370000D02*
G01*
X126130000Y-129370000D01*
X126130000Y-127170000D01*
X128130000Y-127170000D01*
X128130000Y-129370000D01*
G37*
G36*
X125330000Y-129370000D02*
G01*
X123330000Y-129370000D01*
X123330000Y-127170000D01*
X125330000Y-127170000D01*
X125330000Y-129370000D01*
G37*
G36*
X95110000Y-129370000D02*
G01*
X93110000Y-129370000D01*
X93110000Y-127170000D01*
X95110000Y-127170000D01*
X95110000Y-129370000D01*
G37*
G36*
X91370000Y-127045001D02*
G01*
X91372402Y-127069387D01*
X91379515Y-127092836D01*
X91391066Y-127114447D01*
X91406611Y-127133389D01*
X91425553Y-127148934D01*
X91447164Y-127160485D01*
X91470613Y-127167598D01*
X91494999Y-127170000D01*
X92310000Y-127170000D01*
X92310000Y-129370000D01*
X90310000Y-129370000D01*
X90310000Y-127054999D01*
X90307598Y-127030613D01*
X90300485Y-127007164D01*
X90288934Y-126985553D01*
X90273389Y-126966611D01*
X90254447Y-126951066D01*
X90232836Y-126939515D01*
X90209387Y-126932402D01*
X90185001Y-126930000D01*
X88970000Y-126930000D01*
X88970000Y-124530000D01*
X91370000Y-124530000D01*
X91370000Y-127045001D01*
G37*
G36*
X86290000Y-126930000D02*
G01*
X83890000Y-126930000D01*
X83890000Y-124530000D01*
X86290000Y-124530000D01*
X86290000Y-126930000D01*
G37*
G36*
X107780000Y-126860000D02*
G01*
X105580000Y-126860000D01*
X105580000Y-124860000D01*
X107780000Y-124860000D01*
X107780000Y-126860000D01*
G37*
G36*
X121520000Y-126830000D02*
G01*
X119520000Y-126830000D01*
X119520000Y-124630000D01*
X121520000Y-124630000D01*
X121520000Y-126830000D01*
G37*
G36*
X124320000Y-126830000D02*
G01*
X122320000Y-126830000D01*
X122320000Y-124630000D01*
X124320000Y-124630000D01*
X124320000Y-126830000D01*
G37*
G36*
X119210000Y-126600000D02*
G01*
X117010000Y-126600000D01*
X117010000Y-124600000D01*
X119210000Y-124600000D01*
X119210000Y-126600000D01*
G37*
G36*
X132010000Y-125660000D02*
G01*
X129610000Y-125660000D01*
X129610000Y-123260000D01*
X132010000Y-123260000D01*
X132010000Y-125660000D01*
G37*
G36*
X115400000Y-121865001D02*
G01*
X115402402Y-121889387D01*
X115409515Y-121912836D01*
X115421066Y-121934447D01*
X115436611Y-121953389D01*
X115455553Y-121968934D01*
X115477164Y-121980485D01*
X115500000Y-121987412D01*
X115500000Y-124390000D01*
X113100000Y-124390000D01*
X113100000Y-121987412D01*
X113122836Y-121980485D01*
X113144447Y-121968934D01*
X113163389Y-121953389D01*
X113178934Y-121934447D01*
X113190485Y-121912836D01*
X113197598Y-121889387D01*
X113200000Y-121865001D01*
X113200000Y-119780000D01*
X115400000Y-119780000D01*
X115400000Y-121865001D01*
G37*
G36*
X98990000Y-124390000D02*
G01*
X96590000Y-124390000D01*
X96590000Y-121990000D01*
X98990000Y-121990000D01*
X98990000Y-124390000D01*
G37*
G36*
X109570026Y-114416115D02*
G01*
X109788411Y-114506573D01*
X109788413Y-114506574D01*
X109984955Y-114637899D01*
X110152101Y-114805045D01*
X110283427Y-115001589D01*
X110373885Y-115219974D01*
X110420000Y-115451809D01*
X110420000Y-115688191D01*
X110373885Y-115920026D01*
X110283427Y-116138411D01*
X110152101Y-116334955D01*
X109984955Y-116502101D01*
X109788412Y-116633427D01*
X109701282Y-116669517D01*
X109679671Y-116681068D01*
X109660729Y-116696613D01*
X109645184Y-116715555D01*
X109633633Y-116737166D01*
X109626520Y-116760615D01*
X109624118Y-116785001D01*
X109626520Y-116809387D01*
X109633633Y-116832836D01*
X109645184Y-116854447D01*
X109660729Y-116873389D01*
X109679671Y-116888934D01*
X109701282Y-116900485D01*
X109724731Y-116907598D01*
X109749117Y-116910000D01*
X110433344Y-116910000D01*
X110441066Y-116924447D01*
X110456611Y-116943389D01*
X110475553Y-116958934D01*
X110497164Y-116970485D01*
X110520613Y-116977598D01*
X110544999Y-116980000D01*
X112860000Y-116980000D01*
X112860000Y-118980000D01*
X110544999Y-118980000D01*
X110520613Y-118982402D01*
X110497164Y-118989515D01*
X110475553Y-119001066D01*
X110456611Y-119016611D01*
X110441066Y-119035553D01*
X110429515Y-119057164D01*
X110422402Y-119080613D01*
X110420000Y-119104999D01*
X110420000Y-119655001D01*
X110422402Y-119679387D01*
X110429515Y-119702836D01*
X110441066Y-119724447D01*
X110456611Y-119743389D01*
X110475553Y-119758934D01*
X110497164Y-119770485D01*
X110520613Y-119777598D01*
X110544999Y-119780000D01*
X112860000Y-119780000D01*
X112860000Y-121780000D01*
X110544999Y-121780000D01*
X110520613Y-121782402D01*
X110497164Y-121789515D01*
X110475553Y-121801066D01*
X110456611Y-121816611D01*
X110441066Y-121835553D01*
X110429515Y-121857164D01*
X110422402Y-121880613D01*
X110420000Y-121904999D01*
X110420000Y-124390000D01*
X108020000Y-124390000D01*
X108020000Y-124184999D01*
X108017598Y-124160613D01*
X108010485Y-124137164D01*
X107998934Y-124115553D01*
X107983389Y-124096611D01*
X107964447Y-124081066D01*
X107942836Y-124069515D01*
X107919387Y-124062402D01*
X107895001Y-124060000D01*
X105580000Y-124060000D01*
X105580000Y-122060000D01*
X107895001Y-122060000D01*
X107919387Y-122057598D01*
X107942836Y-122050485D01*
X107964447Y-122038934D01*
X107983389Y-122023389D01*
X107998934Y-122004447D01*
X108010485Y-121982836D01*
X108017598Y-121959387D01*
X108020000Y-121935001D01*
X108020000Y-116910000D01*
X108690883Y-116910000D01*
X108715269Y-116907598D01*
X108738718Y-116900485D01*
X108760329Y-116888934D01*
X108779271Y-116873389D01*
X108794816Y-116854447D01*
X108806367Y-116832836D01*
X108813480Y-116809387D01*
X108815882Y-116785001D01*
X108813480Y-116760615D01*
X108806367Y-116737166D01*
X108794816Y-116715555D01*
X108779271Y-116696613D01*
X108760329Y-116681068D01*
X108738718Y-116669517D01*
X108651588Y-116633427D01*
X108455045Y-116502101D01*
X108287899Y-116334955D01*
X108156573Y-116138411D01*
X108066115Y-115920026D01*
X108020000Y-115688191D01*
X108020000Y-115451809D01*
X108066115Y-115219974D01*
X108156573Y-115001589D01*
X108287899Y-114805045D01*
X108455045Y-114637899D01*
X108651587Y-114506574D01*
X108651589Y-114506573D01*
X108869974Y-114416115D01*
X109101809Y-114370000D01*
X109338191Y-114370000D01*
X109570026Y-114416115D01*
G37*
G36*
X125330000Y-124290000D02*
G01*
X123330000Y-124290000D01*
X123330000Y-122090000D01*
X125330000Y-122090000D01*
X125330000Y-124290000D01*
G37*
G36*
X128130000Y-124290000D02*
G01*
X126130000Y-124290000D01*
X126130000Y-122090000D01*
X128130000Y-122090000D01*
X128130000Y-124290000D01*
G37*
G36*
X101950026Y-119496115D02*
G01*
X102168411Y-119586573D01*
X102168413Y-119586574D01*
X102342412Y-119702836D01*
X102364955Y-119717899D01*
X102532101Y-119885045D01*
X102663427Y-120081588D01*
X102699517Y-120168718D01*
X102711068Y-120190329D01*
X102726613Y-120209271D01*
X102745555Y-120224816D01*
X102767166Y-120236367D01*
X102790615Y-120243480D01*
X102815001Y-120245882D01*
X102839387Y-120243480D01*
X102862836Y-120236367D01*
X102884447Y-120224816D01*
X102903389Y-120209271D01*
X102918934Y-120190329D01*
X102930485Y-120168718D01*
X102937598Y-120145269D01*
X102940000Y-120120883D01*
X102940000Y-119450000D01*
X105340000Y-119450000D01*
X105340000Y-121850000D01*
X102940000Y-121850000D01*
X102940000Y-121179117D01*
X102937598Y-121154731D01*
X102930485Y-121131282D01*
X102918934Y-121109671D01*
X102903389Y-121090729D01*
X102884447Y-121075184D01*
X102862836Y-121063633D01*
X102839387Y-121056520D01*
X102815001Y-121054118D01*
X102790615Y-121056520D01*
X102767166Y-121063633D01*
X102745555Y-121075184D01*
X102726613Y-121090729D01*
X102711068Y-121109671D01*
X102699517Y-121131282D01*
X102663427Y-121218412D01*
X102663426Y-121218413D01*
X102532101Y-121414955D01*
X102364955Y-121582101D01*
X102168413Y-121713426D01*
X102168412Y-121713427D01*
X102168411Y-121713427D01*
X101950026Y-121803885D01*
X101718191Y-121850000D01*
X101481809Y-121850000D01*
X101249974Y-121803885D01*
X101031589Y-121713427D01*
X101031588Y-121713427D01*
X101031587Y-121713426D01*
X100835045Y-121582101D01*
X100667899Y-121414955D01*
X100536574Y-121218413D01*
X100500483Y-121131282D01*
X100446115Y-121000026D01*
X100400000Y-120768191D01*
X100400000Y-120531809D01*
X100446115Y-120299974D01*
X100536573Y-120081589D01*
X100667899Y-119885045D01*
X100835045Y-119717899D01*
X100857588Y-119702836D01*
X101031587Y-119586574D01*
X101031589Y-119586573D01*
X101249974Y-119496115D01*
X101481809Y-119450000D01*
X101718191Y-119450000D01*
X101950026Y-119496115D01*
G37*
G36*
X123050000Y-114245001D02*
G01*
X123052402Y-114269387D01*
X123059515Y-114292836D01*
X123071066Y-114314447D01*
X123086611Y-114333389D01*
X123105553Y-114348934D01*
X123127164Y-114360485D01*
X123150613Y-114367598D01*
X123174999Y-114370000D01*
X125660000Y-114370000D01*
X125660000Y-116770000D01*
X123174999Y-116770000D01*
X123150613Y-116772402D01*
X123127164Y-116779515D01*
X123105553Y-116791066D01*
X123086611Y-116806611D01*
X123071066Y-116825553D01*
X123059515Y-116847164D01*
X123052402Y-116870613D01*
X123050000Y-116894999D01*
X123050000Y-118055001D01*
X123052402Y-118079387D01*
X123059515Y-118102836D01*
X123071066Y-118124447D01*
X123086611Y-118143389D01*
X123105553Y-118158934D01*
X123127164Y-118170485D01*
X123150613Y-118177598D01*
X123174999Y-118180000D01*
X130740000Y-118180000D01*
X130740000Y-120580000D01*
X118180000Y-120580000D01*
X118180000Y-118166656D01*
X118194447Y-118158934D01*
X118213389Y-118143389D01*
X118228934Y-118124447D01*
X118240485Y-118102836D01*
X118247598Y-118079387D01*
X118250000Y-118055001D01*
X118250000Y-115740000D01*
X120250000Y-115740000D01*
X120250000Y-118055001D01*
X120252402Y-118079387D01*
X120259515Y-118102836D01*
X120271066Y-118124447D01*
X120286611Y-118143389D01*
X120305553Y-118158934D01*
X120327164Y-118170485D01*
X120350613Y-118177598D01*
X120374999Y-118180000D01*
X120925001Y-118180000D01*
X120949387Y-118177598D01*
X120972836Y-118170485D01*
X120994447Y-118158934D01*
X121013389Y-118143389D01*
X121028934Y-118124447D01*
X121040485Y-118102836D01*
X121047598Y-118079387D01*
X121050000Y-118055001D01*
X121050000Y-115740000D01*
X123135001Y-115740000D01*
X123159387Y-115737598D01*
X123182836Y-115730485D01*
X123204447Y-115718934D01*
X123223389Y-115703389D01*
X123238934Y-115684447D01*
X123250485Y-115662836D01*
X123257598Y-115639387D01*
X123260000Y-115615001D01*
X123260000Y-115524999D01*
X123257598Y-115500613D01*
X123250485Y-115477164D01*
X123238934Y-115455553D01*
X123223389Y-115436611D01*
X123204447Y-115421066D01*
X123182836Y-115409515D01*
X123159387Y-115402402D01*
X123135001Y-115400000D01*
X121050000Y-115400000D01*
X121050000Y-113200000D01*
X123050000Y-113200000D01*
X123050000Y-114245001D01*
G37*
G36*
X82150000Y-118055001D02*
G01*
X82152402Y-118079387D01*
X82159515Y-118102836D01*
X82171066Y-118124447D01*
X82186611Y-118143389D01*
X82205553Y-118158934D01*
X82227164Y-118170485D01*
X82250613Y-118177598D01*
X82274999Y-118180000D01*
X82825001Y-118180000D01*
X82849387Y-118177598D01*
X82872836Y-118170485D01*
X82894447Y-118158934D01*
X82913389Y-118143389D01*
X82928934Y-118124447D01*
X82940485Y-118102836D01*
X82947598Y-118079387D01*
X82950000Y-118055001D01*
X82950000Y-115740000D01*
X84950000Y-115740000D01*
X84950000Y-118055001D01*
X84952402Y-118079387D01*
X84959515Y-118102836D01*
X84971066Y-118124447D01*
X84986611Y-118143389D01*
X85005553Y-118158934D01*
X85027164Y-118170485D01*
X85050613Y-118177598D01*
X85074999Y-118180000D01*
X92640000Y-118180000D01*
X92640000Y-120580000D01*
X80080000Y-120580000D01*
X80080000Y-118166656D01*
X80094447Y-118158934D01*
X80113389Y-118143389D01*
X80128934Y-118124447D01*
X80140485Y-118102836D01*
X80147598Y-118079387D01*
X80150000Y-118055001D01*
X80150000Y-115740000D01*
X82150000Y-115740000D01*
X82150000Y-118055001D01*
G37*
G36*
X98990000Y-119310000D02*
G01*
X96590000Y-119310000D01*
X96590000Y-116910000D01*
X98990000Y-116910000D01*
X98990000Y-119310000D01*
G37*
G36*
X115400000Y-118980000D02*
G01*
X113200000Y-118980000D01*
X113200000Y-116980000D01*
X115400000Y-116980000D01*
X115400000Y-118980000D01*
G37*
G36*
X130740000Y-116770000D02*
G01*
X128340000Y-116770000D01*
X128340000Y-114370000D01*
X130740000Y-114370000D01*
X130740000Y-116770000D01*
G37*
G36*
X101530000Y-115500000D02*
G01*
X99130000Y-115500000D01*
X99130000Y-113100000D01*
X101530000Y-113100000D01*
X101530000Y-115500000D01*
G37*
G36*
X106610000Y-115500000D02*
G01*
X104210000Y-115500000D01*
X104210000Y-113100000D01*
X106610000Y-113100000D01*
X106610000Y-115500000D01*
G37*
G36*
X120250000Y-115400000D02*
G01*
X118250000Y-115400000D01*
X118250000Y-113200000D01*
X120250000Y-113200000D01*
X120250000Y-115400000D01*
G37*
G36*
X82150000Y-115400000D02*
G01*
X80150000Y-115400000D01*
X80150000Y-113200000D01*
X82150000Y-113200000D01*
X82150000Y-115400000D01*
G37*
G36*
X84950000Y-115400000D02*
G01*
X82950000Y-115400000D01*
X82950000Y-113200000D01*
X84950000Y-113200000D01*
X84950000Y-115400000D01*
G37*
G36*
X89770000Y-112860000D02*
G01*
X87770000Y-112860000D01*
X87770000Y-110660000D01*
X89770000Y-110660000D01*
X89770000Y-112860000D01*
G37*
G36*
X92570000Y-112860000D02*
G01*
X90570000Y-112860000D01*
X90570000Y-110660000D01*
X92570000Y-110660000D01*
X92570000Y-112860000D01*
G37*
G36*
X123050000Y-112860000D02*
G01*
X121050000Y-112860000D01*
X121050000Y-110660000D01*
X123050000Y-110660000D01*
X123050000Y-112860000D01*
G37*
G36*
X120250000Y-112860000D02*
G01*
X118250000Y-112860000D01*
X118250000Y-110660000D01*
X120250000Y-110660000D01*
X120250000Y-112860000D01*
G37*
G36*
X129140000Y-112860000D02*
G01*
X127140000Y-112860000D01*
X127140000Y-110660000D01*
X129140000Y-110660000D01*
X129140000Y-112860000D01*
G37*
G36*
X131940000Y-112860000D02*
G01*
X129940000Y-112860000D01*
X129940000Y-110660000D01*
X131940000Y-110660000D01*
X131940000Y-112860000D01*
G37*
G36*
X87560000Y-110420000D02*
G01*
X85160000Y-110420000D01*
X85160000Y-108020000D01*
X87560000Y-108020000D01*
X87560000Y-110420000D01*
G37*
G36*
X115400000Y-110350000D02*
G01*
X113200000Y-110350000D01*
X113200000Y-108350000D01*
X115400000Y-108350000D01*
X115400000Y-110350000D01*
G37*
G36*
X117940000Y-110350000D02*
G01*
X115740000Y-110350000D01*
X115740000Y-108350000D01*
X117940000Y-108350000D01*
X117940000Y-110350000D01*
G37*
G36*
X129140000Y-110320000D02*
G01*
X127140000Y-110320000D01*
X127140000Y-108120000D01*
X129140000Y-108120000D01*
X129140000Y-110320000D01*
G37*
G36*
X131940000Y-110320000D02*
G01*
X129940000Y-110320000D01*
X129940000Y-108120000D01*
X131940000Y-108120000D01*
X131940000Y-110320000D01*
G37*
G36*
X108110000Y-109380000D02*
G01*
X102710000Y-109380000D01*
X102710000Y-105980000D01*
X108110000Y-105980000D01*
X108110000Y-109380000D01*
G37*
G36*
X91370000Y-107420883D02*
G01*
X91372402Y-107445269D01*
X91379515Y-107468718D01*
X91391066Y-107490329D01*
X91406611Y-107509271D01*
X91425553Y-107524816D01*
X91447164Y-107536367D01*
X91470613Y-107543480D01*
X91494999Y-107545882D01*
X91519385Y-107543480D01*
X91542834Y-107536367D01*
X91564445Y-107524816D01*
X91583387Y-107509271D01*
X91598932Y-107490329D01*
X91610483Y-107468718D01*
X91646573Y-107381588D01*
X91777899Y-107185045D01*
X91945045Y-107017899D01*
X91990992Y-106987198D01*
X92141587Y-106886574D01*
X92141589Y-106886573D01*
X92359974Y-106796115D01*
X92591809Y-106750000D01*
X92828191Y-106750000D01*
X93060026Y-106796115D01*
X93278411Y-106886573D01*
X93278413Y-106886574D01*
X93429008Y-106987198D01*
X93474955Y-107017899D01*
X93642101Y-107185045D01*
X93773427Y-107381589D01*
X93863885Y-107599974D01*
X93910000Y-107831809D01*
X93910000Y-108068191D01*
X93863885Y-108300026D01*
X93809517Y-108431282D01*
X93773426Y-108518413D01*
X93642101Y-108714955D01*
X93474955Y-108882101D01*
X93278413Y-109013426D01*
X93278412Y-109013427D01*
X93278411Y-109013427D01*
X93060026Y-109103885D01*
X92828191Y-109150000D01*
X92591809Y-109150000D01*
X92359974Y-109103885D01*
X92141589Y-109013427D01*
X92141588Y-109013427D01*
X92141587Y-109013426D01*
X91945045Y-108882101D01*
X91777899Y-108714955D01*
X91646574Y-108518413D01*
X91646573Y-108518412D01*
X91610483Y-108431282D01*
X91598932Y-108409671D01*
X91583387Y-108390729D01*
X91564445Y-108375184D01*
X91542834Y-108363633D01*
X91519385Y-108356520D01*
X91494999Y-108354118D01*
X91470613Y-108356520D01*
X91447164Y-108363633D01*
X91425553Y-108375184D01*
X91406611Y-108390729D01*
X91391066Y-108409671D01*
X91379515Y-108431282D01*
X91372402Y-108454731D01*
X91370000Y-108479117D01*
X91370000Y-109150000D01*
X88970000Y-109150000D01*
X88970000Y-106750000D01*
X91370000Y-106750000D01*
X91370000Y-107420883D01*
G37*
G36*
X124390000Y-106150883D02*
G01*
X124392402Y-106175269D01*
X124399515Y-106198718D01*
X124411066Y-106220329D01*
X124426611Y-106239271D01*
X124445553Y-106254816D01*
X124467164Y-106266367D01*
X124490613Y-106273480D01*
X124514999Y-106275882D01*
X124539385Y-106273480D01*
X124562834Y-106266367D01*
X124584445Y-106254816D01*
X124603387Y-106239271D01*
X124618932Y-106220329D01*
X124630483Y-106198718D01*
X124666573Y-106111588D01*
X124797899Y-105915045D01*
X124965045Y-105747899D01*
X125161587Y-105616574D01*
X125161589Y-105616573D01*
X125379974Y-105526115D01*
X125611809Y-105480000D01*
X125848191Y-105480000D01*
X126080026Y-105526115D01*
X126298411Y-105616573D01*
X126298413Y-105616574D01*
X126494955Y-105747899D01*
X126662101Y-105915045D01*
X126793427Y-106111589D01*
X126883885Y-106329974D01*
X126892404Y-106372802D01*
X126899517Y-106396251D01*
X126911068Y-106417862D01*
X126926613Y-106436804D01*
X126945555Y-106452349D01*
X126967166Y-106463900D01*
X126990615Y-106471013D01*
X127015001Y-106473415D01*
X127039387Y-106471013D01*
X127062836Y-106463900D01*
X127084447Y-106452349D01*
X127103389Y-106436804D01*
X127118934Y-106417862D01*
X127130485Y-106396251D01*
X127137598Y-106372802D01*
X127140000Y-106348416D01*
X127140000Y-105580000D01*
X129140000Y-105580000D01*
X129140000Y-107780000D01*
X127140000Y-107780000D01*
X127140000Y-107011584D01*
X127137598Y-106987198D01*
X127130485Y-106963749D01*
X127118934Y-106942138D01*
X127103389Y-106923196D01*
X127084447Y-106907651D01*
X127062836Y-106896100D01*
X127039387Y-106888987D01*
X127015001Y-106886585D01*
X126990615Y-106888987D01*
X126967166Y-106896100D01*
X126945555Y-106907651D01*
X126926613Y-106923196D01*
X126911068Y-106942138D01*
X126899517Y-106963749D01*
X126892404Y-106987198D01*
X126883885Y-107030026D01*
X126829517Y-107161282D01*
X126793426Y-107248413D01*
X126662101Y-107444955D01*
X126494955Y-107612101D01*
X126298413Y-107743426D01*
X126298412Y-107743427D01*
X126298411Y-107743427D01*
X126080026Y-107833885D01*
X125848191Y-107880000D01*
X125611809Y-107880000D01*
X125379974Y-107833885D01*
X125161589Y-107743427D01*
X125161588Y-107743427D01*
X125161587Y-107743426D01*
X124965045Y-107612101D01*
X124797899Y-107444955D01*
X124755559Y-107381589D01*
X124666573Y-107248412D01*
X124630483Y-107161282D01*
X124618932Y-107139671D01*
X124603387Y-107120729D01*
X124584445Y-107105184D01*
X124562834Y-107093633D01*
X124539385Y-107086520D01*
X124514999Y-107084118D01*
X124490613Y-107086520D01*
X124467164Y-107093633D01*
X124445553Y-107105184D01*
X124426611Y-107120729D01*
X124411066Y-107139671D01*
X124399515Y-107161282D01*
X124392402Y-107184731D01*
X124390000Y-107209117D01*
X124390000Y-107880000D01*
X119450000Y-107880000D01*
X119450000Y-105480000D01*
X124390000Y-105480000D01*
X124390000Y-106150883D01*
G37*
G36*
X131940000Y-107780000D02*
G01*
X129940000Y-107780000D01*
X129940000Y-105580000D01*
X131940000Y-105580000D01*
X131940000Y-107780000D01*
G37*
G36*
X102310000Y-107680000D02*
G01*
X98910000Y-107680000D01*
X98910000Y-102280000D01*
X102310000Y-102280000D01*
X102310000Y-107680000D01*
G37*
G36*
X115170000Y-105240000D02*
G01*
X113084999Y-105240000D01*
X113060613Y-105242402D01*
X113037164Y-105249515D01*
X113015553Y-105261066D01*
X112996611Y-105276611D01*
X112981066Y-105295553D01*
X112969515Y-105317164D01*
X112962402Y-105340613D01*
X112960000Y-105364999D01*
X112960000Y-105425001D01*
X112962402Y-105449387D01*
X112969515Y-105472836D01*
X112981066Y-105494447D01*
X112996611Y-105513389D01*
X113015553Y-105528934D01*
X113037164Y-105540485D01*
X113060613Y-105547598D01*
X113084999Y-105550000D01*
X115400000Y-105550000D01*
X115400000Y-107550000D01*
X113200000Y-107550000D01*
X113200000Y-106734999D01*
X113197598Y-106710613D01*
X113190485Y-106687164D01*
X113178934Y-106665553D01*
X113163389Y-106646611D01*
X113144447Y-106631066D01*
X113122836Y-106619515D01*
X113099387Y-106612402D01*
X113075001Y-106610000D01*
X110560000Y-106610000D01*
X110560000Y-104210000D01*
X113045001Y-104210000D01*
X113069387Y-104207598D01*
X113092836Y-104200485D01*
X113114447Y-104188934D01*
X113133389Y-104173389D01*
X113148934Y-104154447D01*
X113160485Y-104132836D01*
X113167598Y-104109387D01*
X113170000Y-104085001D01*
X113170000Y-103040000D01*
X115170000Y-103040000D01*
X115170000Y-105240000D01*
G37*
G36*
X117940000Y-107550000D02*
G01*
X115740000Y-107550000D01*
X115740000Y-105550000D01*
X117940000Y-105550000D01*
X117940000Y-107550000D01*
G37*
G36*
X87560000Y-105340000D02*
G01*
X85160000Y-105340000D01*
X85160000Y-102940000D01*
X87560000Y-102940000D01*
X87560000Y-105340000D01*
G37*
G36*
X117970000Y-105240000D02*
G01*
X115970000Y-105240000D01*
X115970000Y-103040000D01*
X117970000Y-103040000D01*
X117970000Y-105240000D01*
G37*
G36*
X123120000Y-104070000D02*
G01*
X120720000Y-104070000D01*
X120720000Y-101670000D01*
X123120000Y-101670000D01*
X123120000Y-104070000D01*
G37*
G36*
X108110000Y-102680000D02*
G01*
X102710000Y-102680000D01*
X102710000Y-99280000D01*
X108110000Y-99280000D01*
X108110000Y-102680000D01*
G37*
G36*
X93910000Y-101530000D02*
G01*
X91510000Y-101530000D01*
X91510000Y-100859117D01*
X91507598Y-100834731D01*
X91500485Y-100811282D01*
X91488934Y-100789671D01*
X91473389Y-100770729D01*
X91454447Y-100755184D01*
X91432836Y-100743633D01*
X91409387Y-100736520D01*
X91385001Y-100734118D01*
X91360615Y-100736520D01*
X91337166Y-100743633D01*
X91315555Y-100755184D01*
X91296613Y-100770729D01*
X91281068Y-100789671D01*
X91269517Y-100811282D01*
X91233427Y-100898412D01*
X91233426Y-100898413D01*
X91102101Y-101094955D01*
X90934955Y-101262101D01*
X90738413Y-101393426D01*
X90738412Y-101393427D01*
X90738411Y-101393427D01*
X90520026Y-101483885D01*
X90288191Y-101530000D01*
X90051809Y-101530000D01*
X89819974Y-101483885D01*
X89601589Y-101393427D01*
X89601588Y-101393427D01*
X89601587Y-101393426D01*
X89405045Y-101262101D01*
X89237899Y-101094955D01*
X89106574Y-100898413D01*
X89070483Y-100811282D01*
X89016115Y-100680026D01*
X88970000Y-100448191D01*
X88970000Y-100211809D01*
X89016115Y-99979974D01*
X89106573Y-99761589D01*
X89237899Y-99565045D01*
X89405045Y-99397899D01*
X89581494Y-99280000D01*
X89601587Y-99266574D01*
X89601589Y-99266573D01*
X89819974Y-99176115D01*
X90051809Y-99130000D01*
X90288191Y-99130000D01*
X90520026Y-99176115D01*
X90738411Y-99266573D01*
X90738413Y-99266574D01*
X90758506Y-99280000D01*
X90934955Y-99397899D01*
X91102101Y-99565045D01*
X91233427Y-99761588D01*
X91269517Y-99848718D01*
X91281068Y-99870329D01*
X91296613Y-99889271D01*
X91315555Y-99904816D01*
X91337166Y-99916367D01*
X91360615Y-99923480D01*
X91385001Y-99925882D01*
X91409387Y-99923480D01*
X91432836Y-99916367D01*
X91454447Y-99904816D01*
X91473389Y-99889271D01*
X91488934Y-99870329D01*
X91500485Y-99848718D01*
X91507598Y-99825269D01*
X91510000Y-99800883D01*
X91510000Y-96590000D01*
X93910000Y-96590000D01*
X93910000Y-101530000D01*
G37*
G36*
X118040000Y-98990000D02*
G01*
X117369117Y-98990000D01*
X117344731Y-98992402D01*
X117321282Y-98999515D01*
X117299671Y-99011066D01*
X117280729Y-99026611D01*
X117265184Y-99045553D01*
X117253633Y-99067164D01*
X117246520Y-99090613D01*
X117244118Y-99114999D01*
X117246520Y-99139385D01*
X117253633Y-99162834D01*
X117265184Y-99184445D01*
X117280729Y-99203387D01*
X117299671Y-99218932D01*
X117321282Y-99230483D01*
X117408412Y-99266573D01*
X117604955Y-99397899D01*
X117772101Y-99565045D01*
X117903427Y-99761589D01*
X117993885Y-99979974D01*
X118040000Y-100211809D01*
X118040000Y-100448191D01*
X117993885Y-100680026D01*
X117939517Y-100811282D01*
X117903426Y-100898413D01*
X117772101Y-101094955D01*
X117604955Y-101262101D01*
X117408413Y-101393426D01*
X117408412Y-101393427D01*
X117408411Y-101393427D01*
X117190026Y-101483885D01*
X116958191Y-101530000D01*
X116721809Y-101530000D01*
X116489974Y-101483885D01*
X116271589Y-101393427D01*
X116271588Y-101393427D01*
X116271587Y-101393426D01*
X116075045Y-101262101D01*
X115907899Y-101094955D01*
X115776574Y-100898413D01*
X115740483Y-100811282D01*
X115686115Y-100680026D01*
X115640000Y-100448191D01*
X115640000Y-100211809D01*
X115686115Y-99979974D01*
X115776573Y-99761589D01*
X115907899Y-99565045D01*
X116075045Y-99397899D01*
X116271588Y-99266573D01*
X116358718Y-99230483D01*
X116380329Y-99218932D01*
X116399271Y-99203387D01*
X116414816Y-99184445D01*
X116426367Y-99162834D01*
X116433480Y-99139385D01*
X116435882Y-99114999D01*
X116433480Y-99090613D01*
X116426367Y-99067164D01*
X116414816Y-99045553D01*
X116399271Y-99026611D01*
X116380329Y-99011066D01*
X116358718Y-98999515D01*
X116335269Y-98992402D01*
X116310883Y-98990000D01*
X115640000Y-98990000D01*
X115640000Y-96590000D01*
X118040000Y-96590000D01*
X118040000Y-98990000D01*
G37*
G36*
X98990000Y-101530000D02*
G01*
X96590000Y-101530000D01*
X96590000Y-96590000D01*
X98990000Y-96590000D01*
X98990000Y-101530000D01*
G37*
G36*
X123120000Y-98990000D02*
G01*
X120720000Y-98990000D01*
X120720000Y-96590000D01*
X123120000Y-96590000D01*
X123120000Y-98990000D01*
G37*
G36*
X112110026Y-96636115D02*
G01*
X112328411Y-96726573D01*
X112328413Y-96726574D01*
X112524955Y-96857899D01*
X112692101Y-97025045D01*
X112823427Y-97221589D01*
X112913885Y-97439974D01*
X112960000Y-97671809D01*
X112960000Y-97908191D01*
X112913885Y-98140026D01*
X112823427Y-98358411D01*
X112823426Y-98358413D01*
X112692101Y-98554955D01*
X112524955Y-98722101D01*
X112328413Y-98853426D01*
X112328412Y-98853427D01*
X112328411Y-98853427D01*
X112110026Y-98943885D01*
X111878191Y-98990000D01*
X111641809Y-98990000D01*
X111409974Y-98943885D01*
X111191589Y-98853427D01*
X111191588Y-98853427D01*
X111191587Y-98853426D01*
X110995045Y-98722101D01*
X110827899Y-98554955D01*
X110696574Y-98358413D01*
X110696573Y-98358411D01*
X110606115Y-98140026D01*
X110560000Y-97908191D01*
X110560000Y-97671809D01*
X110606115Y-97439974D01*
X110696573Y-97221589D01*
X110827899Y-97025045D01*
X110995045Y-96857899D01*
X111191587Y-96726574D01*
X111191589Y-96726573D01*
X111409974Y-96636115D01*
X111641809Y-96590000D01*
X111878191Y-96590000D01*
X112110026Y-96636115D01*
G37*
M02*
