G04 #@! TF.GenerationSoftware,KiCad,Pcbnew,5.1.6-c6e7f7d~87~ubuntu19.10.1*
G04 #@! TF.CreationDate,2022-01-15T23:23:36+06:00*
G04 #@! TF.ProjectId,big_muff_r2a_nyc,6269675f-6d75-4666-965f-7232615f6e79,2A*
G04 #@! TF.SameCoordinates,Original*
G04 #@! TF.FileFunction,Legend,Top*
G04 #@! TF.FilePolarity,Positive*
%FSLAX46Y46*%
G04 Gerber Fmt 4.6, Leading zero omitted, Abs format (unit mm)*
G04 Created by KiCad (PCBNEW 5.1.6-c6e7f7d~87~ubuntu19.10.1) date 2022-01-15 23:23:36*
%MOMM*%
%LPD*%
G01*
G04 APERTURE LIST*
%ADD10C,0.150000*%
%ADD11C,0.200000*%
G04 APERTURE END LIST*
D10*
X80431428Y-167823571D02*
X80574285Y-167871190D01*
X80621904Y-167918809D01*
X80669523Y-168014047D01*
X80669523Y-168156904D01*
X80621904Y-168252142D01*
X80574285Y-168299761D01*
X80479047Y-168347380D01*
X80098095Y-168347380D01*
X80098095Y-167347380D01*
X80431428Y-167347380D01*
X80526666Y-167395000D01*
X80574285Y-167442619D01*
X80621904Y-167537857D01*
X80621904Y-167633095D01*
X80574285Y-167728333D01*
X80526666Y-167775952D01*
X80431428Y-167823571D01*
X80098095Y-167823571D01*
X81098095Y-168347380D02*
X81098095Y-167680714D01*
X81098095Y-167347380D02*
X81050476Y-167395000D01*
X81098095Y-167442619D01*
X81145714Y-167395000D01*
X81098095Y-167347380D01*
X81098095Y-167442619D01*
X82002857Y-167680714D02*
X82002857Y-168490238D01*
X81955238Y-168585476D01*
X81907619Y-168633095D01*
X81812380Y-168680714D01*
X81669523Y-168680714D01*
X81574285Y-168633095D01*
X82002857Y-168299761D02*
X81907619Y-168347380D01*
X81717142Y-168347380D01*
X81621904Y-168299761D01*
X81574285Y-168252142D01*
X81526666Y-168156904D01*
X81526666Y-167871190D01*
X81574285Y-167775952D01*
X81621904Y-167728333D01*
X81717142Y-167680714D01*
X81907619Y-167680714D01*
X82002857Y-167728333D01*
X83240952Y-168347380D02*
X83240952Y-167347380D01*
X83574285Y-168061666D01*
X83907619Y-167347380D01*
X83907619Y-168347380D01*
X84812380Y-167680714D02*
X84812380Y-168347380D01*
X84383809Y-167680714D02*
X84383809Y-168204523D01*
X84431428Y-168299761D01*
X84526666Y-168347380D01*
X84669523Y-168347380D01*
X84764761Y-168299761D01*
X84812380Y-168252142D01*
X85145714Y-167680714D02*
X85526666Y-167680714D01*
X85288571Y-168347380D02*
X85288571Y-167490238D01*
X85336190Y-167395000D01*
X85431428Y-167347380D01*
X85526666Y-167347380D01*
X85717142Y-167680714D02*
X86098095Y-167680714D01*
X85860000Y-168347380D02*
X85860000Y-167490238D01*
X85907619Y-167395000D01*
X86002857Y-167347380D01*
X86098095Y-167347380D01*
X87479047Y-168680714D02*
X87240952Y-168680714D01*
X87240952Y-167252142D01*
X87479047Y-167252142D01*
X88431428Y-168347380D02*
X88098095Y-167871190D01*
X87860000Y-168347380D02*
X87860000Y-167347380D01*
X88240952Y-167347380D01*
X88336190Y-167395000D01*
X88383809Y-167442619D01*
X88431428Y-167537857D01*
X88431428Y-167680714D01*
X88383809Y-167775952D01*
X88336190Y-167823571D01*
X88240952Y-167871190D01*
X87860000Y-167871190D01*
X88860000Y-167823571D02*
X89193333Y-167823571D01*
X89336190Y-168347380D02*
X88860000Y-168347380D01*
X88860000Y-167347380D01*
X89336190Y-167347380D01*
X89621904Y-167347380D02*
X89955238Y-168347380D01*
X90288571Y-167347380D01*
X90574285Y-167442619D02*
X90621904Y-167395000D01*
X90717142Y-167347380D01*
X90955238Y-167347380D01*
X91050476Y-167395000D01*
X91098095Y-167442619D01*
X91145714Y-167537857D01*
X91145714Y-167633095D01*
X91098095Y-167775952D01*
X90526666Y-168347380D01*
X91145714Y-168347380D01*
X91526666Y-168061666D02*
X92002857Y-168061666D01*
X91431428Y-168347380D02*
X91764761Y-167347380D01*
X92098095Y-168347380D01*
X92336190Y-168680714D02*
X92574285Y-168680714D01*
X92574285Y-167252142D01*
X92336190Y-167252142D01*
X81502857Y-169616428D02*
X82264761Y-169616428D01*
X82598095Y-168997380D02*
X83169523Y-168997380D01*
X82883809Y-169997380D02*
X82883809Y-168997380D01*
X83360000Y-168997380D02*
X83931428Y-168997380D01*
X83645714Y-169997380D02*
X83645714Y-168997380D01*
X84264761Y-169997380D02*
X84264761Y-168997380D01*
X84836190Y-169997380D02*
X84407619Y-169425952D01*
X84836190Y-168997380D02*
X84264761Y-169568809D01*
X85264761Y-169997380D02*
X85264761Y-168997380D01*
X85645714Y-168997380D01*
X85740952Y-169045000D01*
X85788571Y-169092619D01*
X85836190Y-169187857D01*
X85836190Y-169330714D01*
X85788571Y-169425952D01*
X85740952Y-169473571D01*
X85645714Y-169521190D01*
X85264761Y-169521190D01*
X86740952Y-168997380D02*
X86740952Y-169997380D01*
X86217142Y-168997380D02*
X86217142Y-169378333D01*
X86264761Y-169473571D01*
X86312380Y-169521190D01*
X86407619Y-169568809D01*
X86740952Y-169568809D01*
X87217142Y-169997380D02*
X87217142Y-168997380D01*
X87788571Y-168997380D01*
X87788571Y-169997380D01*
X89026666Y-170235476D02*
X89026666Y-169997380D01*
X88169523Y-169997380D01*
X88169523Y-170235476D01*
X88836190Y-169997380D02*
X88836190Y-168997380D01*
X88598095Y-168997380D01*
X88502857Y-169045000D01*
X88455238Y-169092619D01*
X88407619Y-169187857D01*
X88312380Y-169997380D01*
X89979047Y-169997380D02*
X89979047Y-168997380D01*
X89836190Y-168997380D01*
X89693333Y-169045000D01*
X89598095Y-169140238D01*
X89550476Y-169283095D01*
X89455238Y-169854523D01*
X89407619Y-169949761D01*
X89312380Y-169997380D01*
X89264761Y-169997380D01*
X90455238Y-169616428D02*
X91217142Y-169616428D01*
X78907619Y-170980714D02*
X78907619Y-171790238D01*
X78860000Y-171885476D01*
X78812380Y-171933095D01*
X78717142Y-171980714D01*
X78574285Y-171980714D01*
X78479047Y-171933095D01*
X78907619Y-171599761D02*
X78812380Y-171647380D01*
X78621904Y-171647380D01*
X78526666Y-171599761D01*
X78479047Y-171552142D01*
X78431428Y-171456904D01*
X78431428Y-171171190D01*
X78479047Y-171075952D01*
X78526666Y-171028333D01*
X78621904Y-170980714D01*
X78812380Y-170980714D01*
X78907619Y-171028333D01*
X79383809Y-171647380D02*
X79383809Y-170980714D01*
X79383809Y-170647380D02*
X79336190Y-170695000D01*
X79383809Y-170742619D01*
X79431428Y-170695000D01*
X79383809Y-170647380D01*
X79383809Y-170742619D01*
X79717142Y-170980714D02*
X80098095Y-170980714D01*
X79860000Y-170647380D02*
X79860000Y-171504523D01*
X79907619Y-171599761D01*
X80002857Y-171647380D01*
X80098095Y-171647380D01*
X80431428Y-171647380D02*
X80431428Y-170647380D01*
X80860000Y-171647380D02*
X80860000Y-171123571D01*
X80812380Y-171028333D01*
X80717142Y-170980714D01*
X80574285Y-170980714D01*
X80479047Y-171028333D01*
X80431428Y-171075952D01*
X81764761Y-170980714D02*
X81764761Y-171647380D01*
X81336190Y-170980714D02*
X81336190Y-171504523D01*
X81383809Y-171599761D01*
X81479047Y-171647380D01*
X81621904Y-171647380D01*
X81717142Y-171599761D01*
X81764761Y-171552142D01*
X82240952Y-171647380D02*
X82240952Y-170647380D01*
X82240952Y-171028333D02*
X82336190Y-170980714D01*
X82526666Y-170980714D01*
X82621904Y-171028333D01*
X82669523Y-171075952D01*
X82717142Y-171171190D01*
X82717142Y-171456904D01*
X82669523Y-171552142D01*
X82621904Y-171599761D01*
X82526666Y-171647380D01*
X82336190Y-171647380D01*
X82240952Y-171599761D01*
X83145714Y-171552142D02*
X83193333Y-171599761D01*
X83145714Y-171647380D01*
X83098095Y-171599761D01*
X83145714Y-171552142D01*
X83145714Y-171647380D01*
X84050476Y-171599761D02*
X83955238Y-171647380D01*
X83764761Y-171647380D01*
X83669523Y-171599761D01*
X83621904Y-171552142D01*
X83574285Y-171456904D01*
X83574285Y-171171190D01*
X83621904Y-171075952D01*
X83669523Y-171028333D01*
X83764761Y-170980714D01*
X83955238Y-170980714D01*
X84050476Y-171028333D01*
X84621904Y-171647380D02*
X84526666Y-171599761D01*
X84479047Y-171552142D01*
X84431428Y-171456904D01*
X84431428Y-171171190D01*
X84479047Y-171075952D01*
X84526666Y-171028333D01*
X84621904Y-170980714D01*
X84764761Y-170980714D01*
X84860000Y-171028333D01*
X84907619Y-171075952D01*
X84955238Y-171171190D01*
X84955238Y-171456904D01*
X84907619Y-171552142D01*
X84860000Y-171599761D01*
X84764761Y-171647380D01*
X84621904Y-171647380D01*
X85383809Y-171647380D02*
X85383809Y-170980714D01*
X85383809Y-171075952D02*
X85431428Y-171028333D01*
X85526666Y-170980714D01*
X85669523Y-170980714D01*
X85764761Y-171028333D01*
X85812380Y-171123571D01*
X85812380Y-171647380D01*
X85812380Y-171123571D02*
X85860000Y-171028333D01*
X85955238Y-170980714D01*
X86098095Y-170980714D01*
X86193333Y-171028333D01*
X86240952Y-171123571D01*
X86240952Y-171647380D01*
X87431428Y-170599761D02*
X86574285Y-171885476D01*
X87717142Y-171361666D02*
X88193333Y-171361666D01*
X87621904Y-171647380D02*
X87955238Y-170647380D01*
X88288571Y-171647380D01*
X89050476Y-171647380D02*
X89050476Y-170647380D01*
X89050476Y-171599761D02*
X88955238Y-171647380D01*
X88764761Y-171647380D01*
X88669523Y-171599761D01*
X88621904Y-171552142D01*
X88574285Y-171456904D01*
X88574285Y-171171190D01*
X88621904Y-171075952D01*
X88669523Y-171028333D01*
X88764761Y-170980714D01*
X88955238Y-170980714D01*
X89050476Y-171028333D01*
X89907619Y-171599761D02*
X89812380Y-171647380D01*
X89621904Y-171647380D01*
X89526666Y-171599761D01*
X89479047Y-171504523D01*
X89479047Y-171123571D01*
X89526666Y-171028333D01*
X89621904Y-170980714D01*
X89812380Y-170980714D01*
X89907619Y-171028333D01*
X89955238Y-171123571D01*
X89955238Y-171218809D01*
X89479047Y-171314047D01*
X90383809Y-170980714D02*
X90383809Y-171980714D01*
X90383809Y-171028333D02*
X90479047Y-170980714D01*
X90669523Y-170980714D01*
X90764761Y-171028333D01*
X90812380Y-171075952D01*
X90860000Y-171171190D01*
X90860000Y-171456904D01*
X90812380Y-171552142D01*
X90764761Y-171599761D01*
X90669523Y-171647380D01*
X90479047Y-171647380D01*
X90383809Y-171599761D01*
X91145714Y-170980714D02*
X91526666Y-170980714D01*
X91288571Y-170647380D02*
X91288571Y-171504523D01*
X91336190Y-171599761D01*
X91431428Y-171647380D01*
X91526666Y-171647380D01*
X92288571Y-170647380D02*
X92098095Y-170647380D01*
X92002857Y-170695000D01*
X91955238Y-170742619D01*
X91860000Y-170885476D01*
X91812380Y-171075952D01*
X91812380Y-171456904D01*
X91860000Y-171552142D01*
X91907619Y-171599761D01*
X92002857Y-171647380D01*
X92193333Y-171647380D01*
X92288571Y-171599761D01*
X92336190Y-171552142D01*
X92383809Y-171456904D01*
X92383809Y-171218809D01*
X92336190Y-171123571D01*
X92288571Y-171075952D01*
X92193333Y-171028333D01*
X92002857Y-171028333D01*
X91907619Y-171075952D01*
X91860000Y-171123571D01*
X91812380Y-171218809D01*
X93240952Y-170647380D02*
X93050476Y-170647380D01*
X92955238Y-170695000D01*
X92907619Y-170742619D01*
X92812380Y-170885476D01*
X92764761Y-171075952D01*
X92764761Y-171456904D01*
X92812380Y-171552142D01*
X92860000Y-171599761D01*
X92955238Y-171647380D01*
X93145714Y-171647380D01*
X93240952Y-171599761D01*
X93288571Y-171552142D01*
X93336190Y-171456904D01*
X93336190Y-171218809D01*
X93288571Y-171123571D01*
X93240952Y-171075952D01*
X93145714Y-171028333D01*
X92955238Y-171028333D01*
X92860000Y-171075952D01*
X92812380Y-171123571D01*
X92764761Y-171218809D01*
X94193333Y-170647380D02*
X94002857Y-170647380D01*
X93907619Y-170695000D01*
X93860000Y-170742619D01*
X93764761Y-170885476D01*
X93717142Y-171075952D01*
X93717142Y-171456904D01*
X93764761Y-171552142D01*
X93812380Y-171599761D01*
X93907619Y-171647380D01*
X94098095Y-171647380D01*
X94193333Y-171599761D01*
X94240952Y-171552142D01*
X94288571Y-171456904D01*
X94288571Y-171218809D01*
X94240952Y-171123571D01*
X94193333Y-171075952D01*
X94098095Y-171028333D01*
X93907619Y-171028333D01*
X93812380Y-171075952D01*
X93764761Y-171123571D01*
X93717142Y-171218809D01*
D11*
X130175000Y-119380000D02*
G75*
G03*
X130175000Y-119380000I-635000J0D01*
G01*
X125095000Y-119380000D02*
G75*
G03*
X125095000Y-119380000I-635000J0D01*
G01*
X120015000Y-119380000D02*
G75*
G03*
X120015000Y-119380000I-635000J0D01*
G01*
X132080000Y-120650000D02*
X132080000Y-122150000D01*
X116840000Y-120650000D02*
X116840000Y-122150000D01*
X130810000Y-118110000D02*
X130810000Y-120650000D01*
X118110000Y-118110000D02*
X118110000Y-120650000D01*
X116840000Y-122150000D02*
X132080000Y-122150000D01*
X116840000Y-120650000D02*
X132080000Y-120650000D01*
X118110000Y-118110000D02*
X130810000Y-118110000D01*
X111125000Y-133150000D02*
G75*
G03*
X111125000Y-133150000I-635000J0D01*
G01*
X106045000Y-133150000D02*
G75*
G03*
X106045000Y-133150000I-635000J0D01*
G01*
X100965000Y-133150000D02*
G75*
G03*
X100965000Y-133150000I-635000J0D01*
G01*
X113030000Y-134420000D02*
X113030000Y-135920000D01*
X97790000Y-134420000D02*
X97790000Y-135920000D01*
X111760000Y-131880000D02*
X111760000Y-134420000D01*
X99060000Y-131880000D02*
X99060000Y-134420000D01*
X97790000Y-135920000D02*
X113030000Y-135920000D01*
X97790000Y-134420000D02*
X113030000Y-134420000D01*
X99060000Y-131880000D02*
X111760000Y-131880000D01*
X92075000Y-119380000D02*
G75*
G03*
X92075000Y-119380000I-635000J0D01*
G01*
X86995000Y-119380000D02*
G75*
G03*
X86995000Y-119380000I-635000J0D01*
G01*
X81915000Y-119380000D02*
G75*
G03*
X81915000Y-119380000I-635000J0D01*
G01*
X93980000Y-120650000D02*
X93980000Y-122150000D01*
X78740000Y-120650000D02*
X78740000Y-122150000D01*
X92710000Y-118110000D02*
X92710000Y-120650000D01*
X80010000Y-118110000D02*
X80010000Y-120650000D01*
X78740000Y-122150000D02*
X93980000Y-122150000D01*
X78740000Y-120650000D02*
X93980000Y-120650000D01*
X80010000Y-118110000D02*
X92710000Y-118110000D01*
X99060000Y-99060000D02*
X91440000Y-99060000D01*
X99060000Y-96520000D02*
X91440000Y-96520000D01*
X99060000Y-99060000D02*
X99060000Y-96520000D01*
X91440000Y-99060000D02*
X91440000Y-96520000D01*
X96520000Y-97790000D02*
X95885000Y-98425000D01*
X95885000Y-98425000D02*
X94615000Y-97155000D01*
X94615000Y-97155000D02*
X93980000Y-97790000D01*
X83058000Y-132334000D02*
X87122000Y-132334000D01*
X82818848Y-129672692D02*
G75*
G02*
X85090000Y-128270000I2271152J-1137308D01*
G01*
X87361152Y-129672692D02*
G75*
G03*
X85090000Y-128270000I-2271152J-1137308D01*
G01*
X87361845Y-131945922D02*
G75*
G02*
X87122000Y-132334000I-2271845J1135922D01*
G01*
X82818251Y-131946115D02*
G75*
G03*
X83058000Y-132334000I2271749J1136115D01*
G01*
X107696000Y-116078000D02*
X107696000Y-120142000D01*
X110357308Y-115838848D02*
G75*
G02*
X111760000Y-118110000I-1137308J-2271152D01*
G01*
X110357308Y-120381152D02*
G75*
G03*
X111760000Y-118110000I-1137308J2271152D01*
G01*
X108084078Y-120381845D02*
G75*
G02*
X107696000Y-120142000I1135922J2271845D01*
G01*
X108083885Y-115838251D02*
G75*
G03*
X107696000Y-116078000I1136115J-2271749D01*
G01*
X125222000Y-105156000D02*
X121158000Y-105156000D01*
X125461152Y-107817308D02*
G75*
G02*
X123190000Y-109220000I-2271152J1137308D01*
G01*
X120918848Y-107817308D02*
G75*
G03*
X123190000Y-109220000I2271152J1137308D01*
G01*
X120918155Y-105544078D02*
G75*
G02*
X121158000Y-105156000I2271845J-1135922D01*
G01*
X125461749Y-105543885D02*
G75*
G03*
X125222000Y-105156000I-2271749J-1136115D01*
G01*
X122428000Y-133604000D02*
X126492000Y-133604000D01*
X122188848Y-130942692D02*
G75*
G02*
X124460000Y-129540000I2271152J-1137308D01*
G01*
X126731152Y-130942692D02*
G75*
G03*
X124460000Y-129540000I-2271152J-1137308D01*
G01*
X126731845Y-133215922D02*
G75*
G02*
X126492000Y-133604000I-2271845J1135922D01*
G01*
X122188251Y-133216115D02*
G75*
G03*
X122428000Y-133604000I2271749J1136115D01*
G01*
X102870000Y-129540000D02*
X102870000Y-119380000D01*
X105410000Y-129540000D02*
X105410000Y-119380000D01*
X102870000Y-129540000D02*
X105410000Y-129540000D01*
X102870000Y-119380000D02*
X105410000Y-119380000D01*
X103505000Y-125095000D02*
X104775000Y-125095000D01*
X103505000Y-125095000D02*
X104140000Y-123825000D01*
X104775000Y-125095000D02*
X104140000Y-123825000D01*
X103505000Y-123825000D02*
X104775000Y-123825000D01*
X102870000Y-119380000D02*
X102870000Y-129540000D01*
X100330000Y-119380000D02*
X100330000Y-129540000D01*
X102870000Y-119380000D02*
X100330000Y-119380000D01*
X102870000Y-129540000D02*
X100330000Y-129540000D01*
X102235000Y-123825000D02*
X100965000Y-123825000D01*
X102235000Y-123825000D02*
X101600000Y-125095000D01*
X100965000Y-123825000D02*
X101600000Y-125095000D01*
X102235000Y-125095000D02*
X100965000Y-125095000D01*
X91440000Y-99060000D02*
X91440000Y-109220000D01*
X88900000Y-99060000D02*
X88900000Y-109220000D01*
X91440000Y-99060000D02*
X88900000Y-99060000D01*
X91440000Y-109220000D02*
X88900000Y-109220000D01*
X90805000Y-103505000D02*
X89535000Y-103505000D01*
X90805000Y-103505000D02*
X90170000Y-104775000D01*
X89535000Y-103505000D02*
X90170000Y-104775000D01*
X90805000Y-104775000D02*
X89535000Y-104775000D01*
X91440000Y-109220000D02*
X91440000Y-99060000D01*
X93980000Y-109220000D02*
X93980000Y-99060000D01*
X91440000Y-109220000D02*
X93980000Y-109220000D01*
X91440000Y-99060000D02*
X93980000Y-99060000D01*
X92075000Y-104775000D02*
X93345000Y-104775000D01*
X92075000Y-104775000D02*
X92710000Y-103505000D01*
X93345000Y-104775000D02*
X92710000Y-103505000D01*
X92075000Y-103505000D02*
X93345000Y-103505000D01*
X83820000Y-123825000D02*
X91440000Y-123825000D01*
X83820000Y-127635000D02*
X91440000Y-127635000D01*
X83820000Y-123825000D02*
X83820000Y-127635000D01*
X91440000Y-123825000D02*
X91440000Y-127635000D01*
X86360000Y-125730000D02*
X86995000Y-125730000D01*
X88265000Y-125730000D02*
X88900000Y-125730000D01*
X86995000Y-124460000D02*
X86995000Y-127000000D01*
X88265000Y-124460000D02*
X88265000Y-127000000D01*
X97790000Y-135255000D02*
X90170000Y-135255000D01*
X97790000Y-131445000D02*
X90170000Y-131445000D01*
X97790000Y-135255000D02*
X97790000Y-131445000D01*
X90170000Y-135255000D02*
X90170000Y-131445000D01*
X95250000Y-133350000D02*
X94615000Y-133350000D01*
X93345000Y-133350000D02*
X92710000Y-133350000D01*
X94615000Y-134620000D02*
X94615000Y-132080000D01*
X93345000Y-134620000D02*
X93345000Y-132080000D01*
X112395000Y-129540000D02*
X112395000Y-121920000D01*
X116205000Y-129540000D02*
X116205000Y-121920000D01*
X112395000Y-129540000D02*
X116205000Y-129540000D01*
X112395000Y-121920000D02*
X116205000Y-121920000D01*
X114300000Y-127000000D02*
X114300000Y-126365000D01*
X114300000Y-125095000D02*
X114300000Y-124460000D01*
X113030000Y-126365000D02*
X115570000Y-126365000D01*
X113030000Y-125095000D02*
X115570000Y-125095000D01*
X111125000Y-121920000D02*
X111125000Y-129540000D01*
X107315000Y-121920000D02*
X107315000Y-129540000D01*
X111125000Y-121920000D02*
X107315000Y-121920000D01*
X111125000Y-129540000D02*
X107315000Y-129540000D01*
X109220000Y-124460000D02*
X109220000Y-125095000D01*
X109220000Y-126365000D02*
X109220000Y-127000000D01*
X110490000Y-125095000D02*
X107950000Y-125095000D01*
X110490000Y-126365000D02*
X107950000Y-126365000D01*
X99695000Y-116840000D02*
X99695000Y-124460000D01*
X95885000Y-116840000D02*
X95885000Y-124460000D01*
X99695000Y-116840000D02*
X95885000Y-116840000D01*
X99695000Y-124460000D02*
X95885000Y-124460000D01*
X97790000Y-119380000D02*
X97790000Y-120015000D01*
X97790000Y-121285000D02*
X97790000Y-121920000D01*
X99060000Y-120015000D02*
X96520000Y-120015000D01*
X99060000Y-121285000D02*
X96520000Y-121285000D01*
X88265000Y-102870000D02*
X88265000Y-110490000D01*
X84455000Y-102870000D02*
X84455000Y-110490000D01*
X88265000Y-102870000D02*
X84455000Y-102870000D01*
X88265000Y-110490000D02*
X84455000Y-110490000D01*
X86360000Y-105410000D02*
X86360000Y-106045000D01*
X86360000Y-107315000D02*
X86360000Y-107950000D01*
X87630000Y-106045000D02*
X85090000Y-106045000D01*
X87630000Y-107315000D02*
X85090000Y-107315000D01*
X106680000Y-116205000D02*
X99060000Y-116205000D01*
X106680000Y-112395000D02*
X99060000Y-112395000D01*
X106680000Y-116205000D02*
X106680000Y-112395000D01*
X99060000Y-116205000D02*
X99060000Y-112395000D01*
X104140000Y-114300000D02*
X103505000Y-114300000D01*
X102235000Y-114300000D02*
X101600000Y-114300000D01*
X103505000Y-115570000D02*
X103505000Y-113030000D01*
X102235000Y-115570000D02*
X102235000Y-113030000D01*
X123190000Y-113665000D02*
X130810000Y-113665000D01*
X123190000Y-117475000D02*
X130810000Y-117475000D01*
X123190000Y-113665000D02*
X123190000Y-117475000D01*
X130810000Y-113665000D02*
X130810000Y-117475000D01*
X125730000Y-115570000D02*
X126365000Y-115570000D01*
X127635000Y-115570000D02*
X128270000Y-115570000D01*
X126365000Y-114300000D02*
X126365000Y-116840000D01*
X127635000Y-114300000D02*
X127635000Y-116840000D01*
X128905000Y-130810000D02*
X128905000Y-123190000D01*
X132715000Y-130810000D02*
X132715000Y-123190000D01*
X128905000Y-130810000D02*
X132715000Y-130810000D01*
X128905000Y-123190000D02*
X132715000Y-123190000D01*
X130810000Y-128270000D02*
X130810000Y-127635000D01*
X130810000Y-126365000D02*
X130810000Y-125730000D01*
X129540000Y-127635000D02*
X132080000Y-127635000D01*
X129540000Y-126365000D02*
X132080000Y-126365000D01*
X119380000Y-135255000D02*
X127000000Y-135255000D01*
X119380000Y-139065000D02*
X127000000Y-139065000D01*
X119380000Y-135255000D02*
X119380000Y-139065000D01*
X127000000Y-135255000D02*
X127000000Y-139065000D01*
X121920000Y-137160000D02*
X122555000Y-137160000D01*
X123825000Y-137160000D02*
X124460000Y-137160000D01*
X122555000Y-135890000D02*
X122555000Y-138430000D01*
X123825000Y-135890000D02*
X123825000Y-138430000D01*
X113030000Y-96520000D02*
X113030000Y-106680000D01*
X110490000Y-96520000D02*
X110490000Y-106680000D01*
X113030000Y-96520000D02*
X110490000Y-96520000D01*
X113030000Y-106680000D02*
X110490000Y-106680000D01*
X112395000Y-100965000D02*
X111125000Y-100965000D01*
X112395000Y-100965000D02*
X111760000Y-102235000D01*
X111125000Y-100965000D02*
X111760000Y-102235000D01*
X112395000Y-102235000D02*
X111125000Y-102235000D01*
G36*
X114300000Y-99060000D02*
G01*
X114427000Y-98298000D01*
X115189000Y-97155000D01*
X115697000Y-96774000D01*
X115697000Y-98933000D01*
X117983000Y-98933000D01*
X117983000Y-96774000D01*
X118491000Y-97155000D01*
X119253000Y-98298000D01*
X119380000Y-99060000D01*
X114300000Y-99060000D01*
G37*
X114300000Y-99060000D02*
X114427000Y-98298000D01*
X115189000Y-97155000D01*
X115697000Y-96774000D01*
X115697000Y-98933000D01*
X117983000Y-98933000D01*
X117983000Y-96774000D01*
X118491000Y-97155000D01*
X119253000Y-98298000D01*
X119380000Y-99060000D01*
X114300000Y-99060000D01*
X117983000Y-96774002D02*
G75*
G02*
X117982999Y-101345999I-1143000J-2285998D01*
G01*
X115697000Y-101345998D02*
G75*
G02*
X115697001Y-96774001I1143000J2285998D01*
G01*
X99740000Y-139860000D02*
X99740000Y-159860000D01*
X99740000Y-139860000D02*
X82940000Y-139860000D01*
X99740000Y-159860000D02*
X82940000Y-159860000D01*
X111080000Y-159860000D02*
X111080000Y-139860000D01*
X111080000Y-159860000D02*
X127880000Y-159860000D01*
X111080000Y-139860000D02*
X127880000Y-139860000D01*
X103759000Y-108080000D02*
X100910000Y-108080000D01*
X100910000Y-108080000D02*
X100910000Y-106553000D01*
X100910000Y-103378000D02*
X100910000Y-100980000D01*
X109910000Y-108080000D02*
X109910000Y-100980000D01*
X109910000Y-108080000D02*
X107061000Y-108080000D01*
X106045000Y-176530000D02*
G75*
G03*
X106045000Y-176530000I-635000J0D01*
G01*
X121920000Y-163830000D02*
X114300000Y-163830000D01*
X121920000Y-161290000D02*
X114300000Y-161290000D01*
X121920000Y-163830000D02*
X121920000Y-161290000D01*
X114300000Y-163830000D02*
X114300000Y-161290000D01*
X119380000Y-162560000D02*
X118745000Y-163195000D01*
X118745000Y-163195000D02*
X117475000Y-161925000D01*
X117475000Y-161925000D02*
X116840000Y-162560000D01*
X120015000Y-104140000D02*
X120015000Y-96520000D01*
X123825000Y-104140000D02*
X123825000Y-96520000D01*
X120015000Y-104140000D02*
X123825000Y-104140000D01*
X120015000Y-96520000D02*
X123825000Y-96520000D01*
X121920000Y-101600000D02*
X121920000Y-100965000D01*
X121920000Y-99695000D02*
X121920000Y-99060000D01*
X120650000Y-100965000D02*
X123190000Y-100965000D01*
X120650000Y-99695000D02*
X123190000Y-99695000D01*
X125095000Y-162560000D02*
G75*
G03*
X125095000Y-162560000I-635000J0D01*
G01*
X108010000Y-140970000D02*
G75*
G03*
X108010000Y-140970000I-2600000J0D01*
G01*
X82550000Y-135890000D02*
X90170000Y-135890000D01*
X82550000Y-138430000D02*
X90170000Y-138430000D01*
X82550000Y-135890000D02*
X82550000Y-138430000D01*
X90170000Y-135890000D02*
X90170000Y-138430000D01*
X85090000Y-137160000D02*
X85725000Y-136525000D01*
X85725000Y-136525000D02*
X86995000Y-137795000D01*
X86995000Y-137795000D02*
X87630000Y-137160000D01*
X98425000Y-100330000D02*
G75*
G03*
X98425000Y-100330000I-635000J0D01*
G01*
X113910000Y-160890000D02*
X113910000Y-174390000D01*
X96910000Y-160890000D02*
X96910000Y-174390000D01*
X96910000Y-174390000D02*
X113910000Y-174390000D01*
X96910000Y-160890000D02*
X113910000Y-160890000D01*
X110352469Y-166883696D02*
G75*
G03*
X105410000Y-162640000I-4942469J-756304D01*
G01*
X100468142Y-168400286D02*
G75*
G03*
X105410000Y-172640000I4941858J760286D01*
G01*
X110352469Y-168396304D02*
G75*
G02*
X105410000Y-172640000I-4942469J756304D01*
G01*
X100468142Y-166879714D02*
G75*
G02*
X105410000Y-162640000I4941858J-760286D01*
G01*
X104243333Y-145232380D02*
X104243333Y-144232380D01*
X104243333Y-144708571D02*
X104814761Y-144708571D01*
X104814761Y-145232380D02*
X104814761Y-144232380D01*
X105767142Y-145232380D02*
X105290952Y-145232380D01*
X105290952Y-144232380D01*
X106624285Y-145232380D02*
X106052857Y-145232380D01*
X106338571Y-145232380D02*
X106338571Y-144232380D01*
X106243333Y-144375238D01*
X106148095Y-144470476D01*
X106052857Y-144518095D01*
X123793333Y-123642380D02*
X123460000Y-123166190D01*
X123221904Y-123642380D02*
X123221904Y-122642380D01*
X123602857Y-122642380D01*
X123698095Y-122690000D01*
X123745714Y-122737619D01*
X123793333Y-122832857D01*
X123793333Y-122975714D01*
X123745714Y-123070952D01*
X123698095Y-123118571D01*
X123602857Y-123166190D01*
X123221904Y-123166190D01*
X124221904Y-123642380D02*
X124221904Y-122642380D01*
X124602857Y-122642380D01*
X124698095Y-122690000D01*
X124745714Y-122737619D01*
X124793333Y-122832857D01*
X124793333Y-122975714D01*
X124745714Y-123070952D01*
X124698095Y-123118571D01*
X124602857Y-123166190D01*
X124221904Y-123166190D01*
X125126666Y-122642380D02*
X125745714Y-122642380D01*
X125412380Y-123023333D01*
X125555238Y-123023333D01*
X125650476Y-123070952D01*
X125698095Y-123118571D01*
X125745714Y-123213809D01*
X125745714Y-123451904D01*
X125698095Y-123547142D01*
X125650476Y-123594761D01*
X125555238Y-123642380D01*
X125269523Y-123642380D01*
X125174285Y-123594761D01*
X125126666Y-123547142D01*
X104743333Y-137612380D02*
X104410000Y-137136190D01*
X104171904Y-137612380D02*
X104171904Y-136612380D01*
X104552857Y-136612380D01*
X104648095Y-136660000D01*
X104695714Y-136707619D01*
X104743333Y-136802857D01*
X104743333Y-136945714D01*
X104695714Y-137040952D01*
X104648095Y-137088571D01*
X104552857Y-137136190D01*
X104171904Y-137136190D01*
X105171904Y-137612380D02*
X105171904Y-136612380D01*
X105552857Y-136612380D01*
X105648095Y-136660000D01*
X105695714Y-136707619D01*
X105743333Y-136802857D01*
X105743333Y-136945714D01*
X105695714Y-137040952D01*
X105648095Y-137088571D01*
X105552857Y-137136190D01*
X105171904Y-137136190D01*
X106124285Y-136707619D02*
X106171904Y-136660000D01*
X106267142Y-136612380D01*
X106505238Y-136612380D01*
X106600476Y-136660000D01*
X106648095Y-136707619D01*
X106695714Y-136802857D01*
X106695714Y-136898095D01*
X106648095Y-137040952D01*
X106076666Y-137612380D01*
X106695714Y-137612380D01*
X85693333Y-117292380D02*
X85360000Y-116816190D01*
X85121904Y-117292380D02*
X85121904Y-116292380D01*
X85502857Y-116292380D01*
X85598095Y-116340000D01*
X85645714Y-116387619D01*
X85693333Y-116482857D01*
X85693333Y-116625714D01*
X85645714Y-116720952D01*
X85598095Y-116768571D01*
X85502857Y-116816190D01*
X85121904Y-116816190D01*
X86121904Y-117292380D02*
X86121904Y-116292380D01*
X86502857Y-116292380D01*
X86598095Y-116340000D01*
X86645714Y-116387619D01*
X86693333Y-116482857D01*
X86693333Y-116625714D01*
X86645714Y-116720952D01*
X86598095Y-116768571D01*
X86502857Y-116816190D01*
X86121904Y-116816190D01*
X87645714Y-117292380D02*
X87074285Y-117292380D01*
X87360000Y-117292380D02*
X87360000Y-116292380D01*
X87264761Y-116435238D01*
X87169523Y-116530476D01*
X87074285Y-116578095D01*
X95083333Y-95702380D02*
X94750000Y-95226190D01*
X94511904Y-95702380D02*
X94511904Y-94702380D01*
X94892857Y-94702380D01*
X94988095Y-94750000D01*
X95035714Y-94797619D01*
X95083333Y-94892857D01*
X95083333Y-95035714D01*
X95035714Y-95130952D01*
X94988095Y-95178571D01*
X94892857Y-95226190D01*
X94511904Y-95226190D01*
X95416666Y-94702380D02*
X96035714Y-94702380D01*
X95702380Y-95083333D01*
X95845238Y-95083333D01*
X95940476Y-95130952D01*
X95988095Y-95178571D01*
X96035714Y-95273809D01*
X96035714Y-95511904D01*
X95988095Y-95607142D01*
X95940476Y-95654761D01*
X95845238Y-95702380D01*
X95559523Y-95702380D01*
X95464285Y-95654761D01*
X95416666Y-95607142D01*
X83899523Y-132802380D02*
X84232857Y-133802380D01*
X84566190Y-132802380D01*
X84756666Y-132802380D02*
X85328095Y-132802380D01*
X85042380Y-133802380D02*
X85042380Y-132802380D01*
X86090000Y-133135714D02*
X86090000Y-133802380D01*
X85851904Y-132754761D02*
X85613809Y-133469047D01*
X86232857Y-133469047D01*
X112482380Y-119300476D02*
X113482380Y-118967142D01*
X112482380Y-118633809D01*
X112482380Y-118443333D02*
X112482380Y-117871904D01*
X113482380Y-118157619D02*
X112482380Y-118157619D01*
X112482380Y-117633809D02*
X112482380Y-117014761D01*
X112863333Y-117348095D01*
X112863333Y-117205238D01*
X112910952Y-117110000D01*
X112958571Y-117062380D01*
X113053809Y-117014761D01*
X113291904Y-117014761D01*
X113387142Y-117062380D01*
X113434761Y-117110000D01*
X113482380Y-117205238D01*
X113482380Y-117490952D01*
X113434761Y-117586190D01*
X113387142Y-117633809D01*
X121999523Y-109942380D02*
X122332857Y-110942380D01*
X122666190Y-109942380D01*
X122856666Y-109942380D02*
X123428095Y-109942380D01*
X123142380Y-110942380D02*
X123142380Y-109942380D01*
X123713809Y-110037619D02*
X123761428Y-109990000D01*
X123856666Y-109942380D01*
X124094761Y-109942380D01*
X124190000Y-109990000D01*
X124237619Y-110037619D01*
X124285238Y-110132857D01*
X124285238Y-110228095D01*
X124237619Y-110370952D01*
X123666190Y-110942380D01*
X124285238Y-110942380D01*
X123269523Y-127722380D02*
X123602857Y-128722380D01*
X123936190Y-127722380D01*
X124126666Y-127722380D02*
X124698095Y-127722380D01*
X124412380Y-128722380D02*
X124412380Y-127722380D01*
X125555238Y-128722380D02*
X124983809Y-128722380D01*
X125269523Y-128722380D02*
X125269523Y-127722380D01*
X125174285Y-127865238D01*
X125079047Y-127960476D01*
X124983809Y-128008095D01*
X103592380Y-119154761D02*
X104592380Y-118821428D01*
X103592380Y-118488095D01*
X104592380Y-118154761D02*
X103592380Y-118154761D01*
X103592380Y-117916666D01*
X103640000Y-117773809D01*
X103735238Y-117678571D01*
X103830476Y-117630952D01*
X104020952Y-117583333D01*
X104163809Y-117583333D01*
X104354285Y-117630952D01*
X104449523Y-117678571D01*
X104544761Y-117773809D01*
X104592380Y-117916666D01*
X104592380Y-118154761D01*
X103592380Y-116678571D02*
X103592380Y-117154761D01*
X104068571Y-117202380D01*
X104020952Y-117154761D01*
X103973333Y-117059523D01*
X103973333Y-116821428D01*
X104020952Y-116726190D01*
X104068571Y-116678571D01*
X104163809Y-116630952D01*
X104401904Y-116630952D01*
X104497142Y-116678571D01*
X104544761Y-116726190D01*
X104592380Y-116821428D01*
X104592380Y-117059523D01*
X104544761Y-117154761D01*
X104497142Y-117202380D01*
X101052380Y-119154761D02*
X102052380Y-118821428D01*
X101052380Y-118488095D01*
X102052380Y-118154761D02*
X101052380Y-118154761D01*
X101052380Y-117916666D01*
X101100000Y-117773809D01*
X101195238Y-117678571D01*
X101290476Y-117630952D01*
X101480952Y-117583333D01*
X101623809Y-117583333D01*
X101814285Y-117630952D01*
X101909523Y-117678571D01*
X102004761Y-117773809D01*
X102052380Y-117916666D01*
X102052380Y-118154761D01*
X101385714Y-116726190D02*
X102052380Y-116726190D01*
X101004761Y-116964285D02*
X101719047Y-117202380D01*
X101719047Y-116583333D01*
X89622380Y-112064285D02*
X90622380Y-111730952D01*
X89622380Y-111397619D01*
X90622380Y-111064285D02*
X89622380Y-111064285D01*
X89622380Y-110826190D01*
X89670000Y-110683333D01*
X89765238Y-110588095D01*
X89860476Y-110540476D01*
X90050952Y-110492857D01*
X90193809Y-110492857D01*
X90384285Y-110540476D01*
X90479523Y-110588095D01*
X90574761Y-110683333D01*
X90622380Y-110826190D01*
X90622380Y-111064285D01*
X89622380Y-110159523D02*
X89622380Y-109540476D01*
X90003333Y-109873809D01*
X90003333Y-109730952D01*
X90050952Y-109635714D01*
X90098571Y-109588095D01*
X90193809Y-109540476D01*
X90431904Y-109540476D01*
X90527142Y-109588095D01*
X90574761Y-109635714D01*
X90622380Y-109730952D01*
X90622380Y-110016666D01*
X90574761Y-110111904D01*
X90527142Y-110159523D01*
X92162380Y-112064285D02*
X93162380Y-111730952D01*
X92162380Y-111397619D01*
X93162380Y-111064285D02*
X92162380Y-111064285D01*
X92162380Y-110826190D01*
X92210000Y-110683333D01*
X92305238Y-110588095D01*
X92400476Y-110540476D01*
X92590952Y-110492857D01*
X92733809Y-110492857D01*
X92924285Y-110540476D01*
X93019523Y-110588095D01*
X93114761Y-110683333D01*
X93162380Y-110826190D01*
X93162380Y-111064285D01*
X92257619Y-110111904D02*
X92210000Y-110064285D01*
X92162380Y-109969047D01*
X92162380Y-109730952D01*
X92210000Y-109635714D01*
X92257619Y-109588095D01*
X92352857Y-109540476D01*
X92448095Y-109540476D01*
X92590952Y-109588095D01*
X93162380Y-110159523D01*
X93162380Y-109540476D01*
X92379523Y-126087142D02*
X92331904Y-126134761D01*
X92189047Y-126182380D01*
X92093809Y-126182380D01*
X91950952Y-126134761D01*
X91855714Y-126039523D01*
X91808095Y-125944285D01*
X91760476Y-125753809D01*
X91760476Y-125610952D01*
X91808095Y-125420476D01*
X91855714Y-125325238D01*
X91950952Y-125230000D01*
X92093809Y-125182380D01*
X92189047Y-125182380D01*
X92331904Y-125230000D01*
X92379523Y-125277619D01*
X93331904Y-126182380D02*
X92760476Y-126182380D01*
X93046190Y-126182380D02*
X93046190Y-125182380D01*
X92950952Y-125325238D01*
X92855714Y-125420476D01*
X92760476Y-125468095D01*
X94236666Y-125182380D02*
X93760476Y-125182380D01*
X93712857Y-125658571D01*
X93760476Y-125610952D01*
X93855714Y-125563333D01*
X94093809Y-125563333D01*
X94189047Y-125610952D01*
X94236666Y-125658571D01*
X94284285Y-125753809D01*
X94284285Y-125991904D01*
X94236666Y-126087142D01*
X94189047Y-126134761D01*
X94093809Y-126182380D01*
X93855714Y-126182380D01*
X93760476Y-126134761D01*
X93712857Y-126087142D01*
X93337142Y-130532142D02*
X93289523Y-130579761D01*
X93146666Y-130627380D01*
X93051428Y-130627380D01*
X92908571Y-130579761D01*
X92813333Y-130484523D01*
X92765714Y-130389285D01*
X92718095Y-130198809D01*
X92718095Y-130055952D01*
X92765714Y-129865476D01*
X92813333Y-129770238D01*
X92908571Y-129675000D01*
X93051428Y-129627380D01*
X93146666Y-129627380D01*
X93289523Y-129675000D01*
X93337142Y-129722619D01*
X94289523Y-130627380D02*
X93718095Y-130627380D01*
X94003809Y-130627380D02*
X94003809Y-129627380D01*
X93908571Y-129770238D01*
X93813333Y-129865476D01*
X93718095Y-129913095D01*
X95146666Y-129960714D02*
X95146666Y-130627380D01*
X94908571Y-129579761D02*
X94670476Y-130294047D01*
X95289523Y-130294047D01*
X119102142Y-126372857D02*
X119149761Y-126420476D01*
X119197380Y-126563333D01*
X119197380Y-126658571D01*
X119149761Y-126801428D01*
X119054523Y-126896666D01*
X118959285Y-126944285D01*
X118768809Y-126991904D01*
X118625952Y-126991904D01*
X118435476Y-126944285D01*
X118340238Y-126896666D01*
X118245000Y-126801428D01*
X118197380Y-126658571D01*
X118197380Y-126563333D01*
X118245000Y-126420476D01*
X118292619Y-126372857D01*
X119197380Y-125420476D02*
X119197380Y-125991904D01*
X119197380Y-125706190D02*
X118197380Y-125706190D01*
X118340238Y-125801428D01*
X118435476Y-125896666D01*
X118483095Y-125991904D01*
X118197380Y-125087142D02*
X118197380Y-124468095D01*
X118578333Y-124801428D01*
X118578333Y-124658571D01*
X118625952Y-124563333D01*
X118673571Y-124515714D01*
X118768809Y-124468095D01*
X119006904Y-124468095D01*
X119102142Y-124515714D01*
X119149761Y-124563333D01*
X119197380Y-124658571D01*
X119197380Y-124944285D01*
X119149761Y-125039523D01*
X119102142Y-125087142D01*
X117832142Y-126372857D02*
X117879761Y-126420476D01*
X117927380Y-126563333D01*
X117927380Y-126658571D01*
X117879761Y-126801428D01*
X117784523Y-126896666D01*
X117689285Y-126944285D01*
X117498809Y-126991904D01*
X117355952Y-126991904D01*
X117165476Y-126944285D01*
X117070238Y-126896666D01*
X116975000Y-126801428D01*
X116927380Y-126658571D01*
X116927380Y-126563333D01*
X116975000Y-126420476D01*
X117022619Y-126372857D01*
X117927380Y-125420476D02*
X117927380Y-125991904D01*
X117927380Y-125706190D02*
X116927380Y-125706190D01*
X117070238Y-125801428D01*
X117165476Y-125896666D01*
X117213095Y-125991904D01*
X117022619Y-125039523D02*
X116975000Y-124991904D01*
X116927380Y-124896666D01*
X116927380Y-124658571D01*
X116975000Y-124563333D01*
X117022619Y-124515714D01*
X117117857Y-124468095D01*
X117213095Y-124468095D01*
X117355952Y-124515714D01*
X117927380Y-125087142D01*
X117927380Y-124468095D01*
X98147142Y-115900476D02*
X98194761Y-115948095D01*
X98242380Y-116090952D01*
X98242380Y-116186190D01*
X98194761Y-116329047D01*
X98099523Y-116424285D01*
X98004285Y-116471904D01*
X97813809Y-116519523D01*
X97670952Y-116519523D01*
X97480476Y-116471904D01*
X97385238Y-116424285D01*
X97290000Y-116329047D01*
X97242380Y-116186190D01*
X97242380Y-116090952D01*
X97290000Y-115948095D01*
X97337619Y-115900476D01*
X98242380Y-114948095D02*
X98242380Y-115519523D01*
X98242380Y-115233809D02*
X97242380Y-115233809D01*
X97385238Y-115329047D01*
X97480476Y-115424285D01*
X97528095Y-115519523D01*
X97242380Y-114329047D02*
X97242380Y-114233809D01*
X97290000Y-114138571D01*
X97337619Y-114090952D01*
X97432857Y-114043333D01*
X97623333Y-113995714D01*
X97861428Y-113995714D01*
X98051904Y-114043333D01*
X98147142Y-114090952D01*
X98194761Y-114138571D01*
X98242380Y-114233809D01*
X98242380Y-114329047D01*
X98194761Y-114424285D01*
X98147142Y-114471904D01*
X98051904Y-114519523D01*
X97861428Y-114567142D01*
X97623333Y-114567142D01*
X97432857Y-114519523D01*
X97337619Y-114471904D01*
X97290000Y-114424285D01*
X97242380Y-114329047D01*
X83542142Y-106846666D02*
X83589761Y-106894285D01*
X83637380Y-107037142D01*
X83637380Y-107132380D01*
X83589761Y-107275238D01*
X83494523Y-107370476D01*
X83399285Y-107418095D01*
X83208809Y-107465714D01*
X83065952Y-107465714D01*
X82875476Y-107418095D01*
X82780238Y-107370476D01*
X82685000Y-107275238D01*
X82637380Y-107132380D01*
X82637380Y-107037142D01*
X82685000Y-106894285D01*
X82732619Y-106846666D01*
X83637380Y-106370476D02*
X83637380Y-106180000D01*
X83589761Y-106084761D01*
X83542142Y-106037142D01*
X83399285Y-105941904D01*
X83208809Y-105894285D01*
X82827857Y-105894285D01*
X82732619Y-105941904D01*
X82685000Y-105989523D01*
X82637380Y-106084761D01*
X82637380Y-106275238D01*
X82685000Y-106370476D01*
X82732619Y-106418095D01*
X82827857Y-106465714D01*
X83065952Y-106465714D01*
X83161190Y-106418095D01*
X83208809Y-106370476D01*
X83256428Y-106275238D01*
X83256428Y-106084761D01*
X83208809Y-105989523D01*
X83161190Y-105941904D01*
X83065952Y-105894285D01*
X102703333Y-111482142D02*
X102655714Y-111529761D01*
X102512857Y-111577380D01*
X102417619Y-111577380D01*
X102274761Y-111529761D01*
X102179523Y-111434523D01*
X102131904Y-111339285D01*
X102084285Y-111148809D01*
X102084285Y-111005952D01*
X102131904Y-110815476D01*
X102179523Y-110720238D01*
X102274761Y-110625000D01*
X102417619Y-110577380D01*
X102512857Y-110577380D01*
X102655714Y-110625000D01*
X102703333Y-110672619D01*
X103036666Y-110577380D02*
X103703333Y-110577380D01*
X103274761Y-111577380D01*
X126833333Y-112752142D02*
X126785714Y-112799761D01*
X126642857Y-112847380D01*
X126547619Y-112847380D01*
X126404761Y-112799761D01*
X126309523Y-112704523D01*
X126261904Y-112609285D01*
X126214285Y-112418809D01*
X126214285Y-112275952D01*
X126261904Y-112085476D01*
X126309523Y-111990238D01*
X126404761Y-111895000D01*
X126547619Y-111847380D01*
X126642857Y-111847380D01*
X126785714Y-111895000D01*
X126833333Y-111942619D01*
X127690476Y-111847380D02*
X127500000Y-111847380D01*
X127404761Y-111895000D01*
X127357142Y-111942619D01*
X127261904Y-112085476D01*
X127214285Y-112275952D01*
X127214285Y-112656904D01*
X127261904Y-112752142D01*
X127309523Y-112799761D01*
X127404761Y-112847380D01*
X127595238Y-112847380D01*
X127690476Y-112799761D01*
X127738095Y-112752142D01*
X127785714Y-112656904D01*
X127785714Y-112418809D01*
X127738095Y-112323571D01*
X127690476Y-112275952D01*
X127595238Y-112228333D01*
X127404761Y-112228333D01*
X127309523Y-112275952D01*
X127261904Y-112323571D01*
X127214285Y-112418809D01*
X127992142Y-127166666D02*
X128039761Y-127214285D01*
X128087380Y-127357142D01*
X128087380Y-127452380D01*
X128039761Y-127595238D01*
X127944523Y-127690476D01*
X127849285Y-127738095D01*
X127658809Y-127785714D01*
X127515952Y-127785714D01*
X127325476Y-127738095D01*
X127230238Y-127690476D01*
X127135000Y-127595238D01*
X127087380Y-127452380D01*
X127087380Y-127357142D01*
X127135000Y-127214285D01*
X127182619Y-127166666D01*
X127087380Y-126261904D02*
X127087380Y-126738095D01*
X127563571Y-126785714D01*
X127515952Y-126738095D01*
X127468333Y-126642857D01*
X127468333Y-126404761D01*
X127515952Y-126309523D01*
X127563571Y-126261904D01*
X127658809Y-126214285D01*
X127896904Y-126214285D01*
X127992142Y-126261904D01*
X128039761Y-126309523D01*
X128087380Y-126404761D01*
X128087380Y-126642857D01*
X128039761Y-126738095D01*
X127992142Y-126785714D01*
X128103333Y-137517142D02*
X128055714Y-137564761D01*
X127912857Y-137612380D01*
X127817619Y-137612380D01*
X127674761Y-137564761D01*
X127579523Y-137469523D01*
X127531904Y-137374285D01*
X127484285Y-137183809D01*
X127484285Y-137040952D01*
X127531904Y-136850476D01*
X127579523Y-136755238D01*
X127674761Y-136660000D01*
X127817619Y-136612380D01*
X127912857Y-136612380D01*
X128055714Y-136660000D01*
X128103333Y-136707619D01*
X128436666Y-136612380D02*
X129055714Y-136612380D01*
X128722380Y-136993333D01*
X128865238Y-136993333D01*
X128960476Y-137040952D01*
X129008095Y-137088571D01*
X129055714Y-137183809D01*
X129055714Y-137421904D01*
X129008095Y-137517142D01*
X128960476Y-137564761D01*
X128865238Y-137612380D01*
X128579523Y-137612380D01*
X128484285Y-137564761D01*
X128436666Y-137517142D01*
X111212380Y-109524285D02*
X112212380Y-109190952D01*
X111212380Y-108857619D01*
X112212380Y-108524285D02*
X111212380Y-108524285D01*
X111212380Y-108286190D01*
X111260000Y-108143333D01*
X111355238Y-108048095D01*
X111450476Y-108000476D01*
X111640952Y-107952857D01*
X111783809Y-107952857D01*
X111974285Y-108000476D01*
X112069523Y-108048095D01*
X112164761Y-108143333D01*
X112212380Y-108286190D01*
X112212380Y-108524285D01*
X112212380Y-107000476D02*
X112212380Y-107571904D01*
X112212380Y-107286190D02*
X111212380Y-107286190D01*
X111355238Y-107381428D01*
X111450476Y-107476666D01*
X111498095Y-107571904D01*
X117197142Y-95580476D02*
X117244761Y-95628095D01*
X117292380Y-95770952D01*
X117292380Y-95866190D01*
X117244761Y-96009047D01*
X117149523Y-96104285D01*
X117054285Y-96151904D01*
X116863809Y-96199523D01*
X116720952Y-96199523D01*
X116530476Y-96151904D01*
X116435238Y-96104285D01*
X116340000Y-96009047D01*
X116292380Y-95866190D01*
X116292380Y-95770952D01*
X116340000Y-95628095D01*
X116387619Y-95580476D01*
X117292380Y-94628095D02*
X117292380Y-95199523D01*
X117292380Y-94913809D02*
X116292380Y-94913809D01*
X116435238Y-95009047D01*
X116530476Y-95104285D01*
X116578095Y-95199523D01*
X100602857Y-143597380D02*
X101269523Y-144597380D01*
X101269523Y-143597380D02*
X100602857Y-144597380D01*
X101602857Y-144549761D02*
X101745714Y-144597380D01*
X101983809Y-144597380D01*
X102079047Y-144549761D01*
X102126666Y-144502142D01*
X102174285Y-144406904D01*
X102174285Y-144311666D01*
X102126666Y-144216428D01*
X102079047Y-144168809D01*
X101983809Y-144121190D01*
X101793333Y-144073571D01*
X101698095Y-144025952D01*
X101650476Y-143978333D01*
X101602857Y-143883095D01*
X101602857Y-143787857D01*
X101650476Y-143692619D01*
X101698095Y-143645000D01*
X101793333Y-143597380D01*
X102031428Y-143597380D01*
X102174285Y-143645000D01*
X102555238Y-143692619D02*
X102602857Y-143645000D01*
X102698095Y-143597380D01*
X102936190Y-143597380D01*
X103031428Y-143645000D01*
X103079047Y-143692619D01*
X103126666Y-143787857D01*
X103126666Y-143883095D01*
X103079047Y-144025952D01*
X102507619Y-144597380D01*
X103126666Y-144597380D01*
X107645714Y-143597380D02*
X108312380Y-144597380D01*
X108312380Y-143597380D02*
X107645714Y-144597380D01*
X108645714Y-144549761D02*
X108788571Y-144597380D01*
X109026666Y-144597380D01*
X109121904Y-144549761D01*
X109169523Y-144502142D01*
X109217142Y-144406904D01*
X109217142Y-144311666D01*
X109169523Y-144216428D01*
X109121904Y-144168809D01*
X109026666Y-144121190D01*
X108836190Y-144073571D01*
X108740952Y-144025952D01*
X108693333Y-143978333D01*
X108645714Y-143883095D01*
X108645714Y-143787857D01*
X108693333Y-143692619D01*
X108740952Y-143645000D01*
X108836190Y-143597380D01*
X109074285Y-143597380D01*
X109217142Y-143645000D01*
X110169523Y-144597380D02*
X109598095Y-144597380D01*
X109883809Y-144597380D02*
X109883809Y-143597380D01*
X109788571Y-143740238D01*
X109693333Y-143835476D01*
X109598095Y-143883095D01*
X104100476Y-108672380D02*
X104767142Y-109672380D01*
X104767142Y-108672380D02*
X104100476Y-109672380D01*
X105148095Y-109672380D02*
X105148095Y-108672380D01*
X105529047Y-108672380D01*
X105624285Y-108720000D01*
X105671904Y-108767619D01*
X105719523Y-108862857D01*
X105719523Y-109005714D01*
X105671904Y-109100952D01*
X105624285Y-109148571D01*
X105529047Y-109196190D01*
X105148095Y-109196190D01*
X106671904Y-109672380D02*
X106100476Y-109672380D01*
X106386190Y-109672380D02*
X106386190Y-108672380D01*
X106290952Y-108815238D01*
X106195714Y-108910476D01*
X106100476Y-108958095D01*
X106952857Y-175982380D02*
X107619523Y-176982380D01*
X107619523Y-175982380D02*
X106952857Y-176982380D01*
X107905238Y-175982380D02*
X108524285Y-175982380D01*
X108190952Y-176363333D01*
X108333809Y-176363333D01*
X108429047Y-176410952D01*
X108476666Y-176458571D01*
X108524285Y-176553809D01*
X108524285Y-176791904D01*
X108476666Y-176887142D01*
X108429047Y-176934761D01*
X108333809Y-176982380D01*
X108048095Y-176982380D01*
X107952857Y-176934761D01*
X107905238Y-176887142D01*
X117943333Y-165552380D02*
X117610000Y-165076190D01*
X117371904Y-165552380D02*
X117371904Y-164552380D01*
X117752857Y-164552380D01*
X117848095Y-164600000D01*
X117895714Y-164647619D01*
X117943333Y-164742857D01*
X117943333Y-164885714D01*
X117895714Y-164980952D01*
X117848095Y-165028571D01*
X117752857Y-165076190D01*
X117371904Y-165076190D01*
X118324285Y-164647619D02*
X118371904Y-164600000D01*
X118467142Y-164552380D01*
X118705238Y-164552380D01*
X118800476Y-164600000D01*
X118848095Y-164647619D01*
X118895714Y-164742857D01*
X118895714Y-164838095D01*
X118848095Y-164980952D01*
X118276666Y-165552380D01*
X118895714Y-165552380D01*
X125452142Y-100496666D02*
X125499761Y-100544285D01*
X125547380Y-100687142D01*
X125547380Y-100782380D01*
X125499761Y-100925238D01*
X125404523Y-101020476D01*
X125309285Y-101068095D01*
X125118809Y-101115714D01*
X124975952Y-101115714D01*
X124785476Y-101068095D01*
X124690238Y-101020476D01*
X124595000Y-100925238D01*
X124547380Y-100782380D01*
X124547380Y-100687142D01*
X124595000Y-100544285D01*
X124642619Y-100496666D01*
X124642619Y-100115714D02*
X124595000Y-100068095D01*
X124547380Y-99972857D01*
X124547380Y-99734761D01*
X124595000Y-99639523D01*
X124642619Y-99591904D01*
X124737857Y-99544285D01*
X124833095Y-99544285D01*
X124975952Y-99591904D01*
X125547380Y-100163333D01*
X125547380Y-99544285D01*
X123650476Y-160107380D02*
X124317142Y-161107380D01*
X124317142Y-160107380D02*
X123650476Y-161107380D01*
X124650476Y-160202619D02*
X124698095Y-160155000D01*
X124793333Y-160107380D01*
X125031428Y-160107380D01*
X125126666Y-160155000D01*
X125174285Y-160202619D01*
X125221904Y-160297857D01*
X125221904Y-160393095D01*
X125174285Y-160535952D01*
X124602857Y-161107380D01*
X125221904Y-161107380D01*
X103719523Y-145502380D02*
X104052857Y-146502380D01*
X104386190Y-145502380D01*
X105195714Y-146502380D02*
X104719523Y-146502380D01*
X104719523Y-145502380D01*
X105481428Y-146454761D02*
X105624285Y-146502380D01*
X105862380Y-146502380D01*
X105957619Y-146454761D01*
X106005238Y-146407142D01*
X106052857Y-146311904D01*
X106052857Y-146216666D01*
X106005238Y-146121428D01*
X105957619Y-146073809D01*
X105862380Y-146026190D01*
X105671904Y-145978571D01*
X105576666Y-145930952D01*
X105529047Y-145883333D01*
X105481428Y-145788095D01*
X105481428Y-145692857D01*
X105529047Y-145597619D01*
X105576666Y-145550000D01*
X105671904Y-145502380D01*
X105910000Y-145502380D01*
X106052857Y-145550000D01*
X107005238Y-146502380D02*
X106433809Y-146502380D01*
X106719523Y-146502380D02*
X106719523Y-145502380D01*
X106624285Y-145645238D01*
X106529047Y-145740476D01*
X106433809Y-145788095D01*
X91109523Y-137612380D02*
X90776190Y-137136190D01*
X90538095Y-137612380D02*
X90538095Y-136612380D01*
X90919047Y-136612380D01*
X91014285Y-136660000D01*
X91061904Y-136707619D01*
X91109523Y-136802857D01*
X91109523Y-136945714D01*
X91061904Y-137040952D01*
X91014285Y-137088571D01*
X90919047Y-137136190D01*
X90538095Y-137136190D01*
X92061904Y-137612380D02*
X91490476Y-137612380D01*
X91776190Y-137612380D02*
X91776190Y-136612380D01*
X91680952Y-136755238D01*
X91585714Y-136850476D01*
X91490476Y-136898095D01*
X94628095Y-99782380D02*
X95294761Y-100782380D01*
X95294761Y-99782380D02*
X94628095Y-100782380D01*
X96199523Y-100782380D02*
X95628095Y-100782380D01*
X95913809Y-100782380D02*
X95913809Y-99782380D01*
X95818571Y-99925238D01*
X95723333Y-100020476D01*
X95628095Y-100068095D01*
X104148095Y-160551761D02*
X104290952Y-160599380D01*
X104529047Y-160599380D01*
X104624285Y-160551761D01*
X104671904Y-160504142D01*
X104719523Y-160408904D01*
X104719523Y-160313666D01*
X104671904Y-160218428D01*
X104624285Y-160170809D01*
X104529047Y-160123190D01*
X104338571Y-160075571D01*
X104243333Y-160027952D01*
X104195714Y-159980333D01*
X104148095Y-159885095D01*
X104148095Y-159789857D01*
X104195714Y-159694619D01*
X104243333Y-159647000D01*
X104338571Y-159599380D01*
X104576666Y-159599380D01*
X104719523Y-159647000D01*
X105481428Y-160075571D02*
X105624285Y-160123190D01*
X105671904Y-160170809D01*
X105719523Y-160266047D01*
X105719523Y-160408904D01*
X105671904Y-160504142D01*
X105624285Y-160551761D01*
X105529047Y-160599380D01*
X105148095Y-160599380D01*
X105148095Y-159599380D01*
X105481428Y-159599380D01*
X105576666Y-159647000D01*
X105624285Y-159694619D01*
X105671904Y-159789857D01*
X105671904Y-159885095D01*
X105624285Y-159980333D01*
X105576666Y-160027952D01*
X105481428Y-160075571D01*
X105148095Y-160075571D01*
X106671904Y-160599380D02*
X106100476Y-160599380D01*
X106386190Y-160599380D02*
X106386190Y-159599380D01*
X106290952Y-159742238D01*
X106195714Y-159837476D01*
X106100476Y-159885095D01*
M02*
