G04 #@! TF.GenerationSoftware,KiCad,Pcbnew,5.1.6-c6e7f7d~87~ubuntu19.10.1*
G04 #@! TF.CreationDate,2021-07-04T19:23:15+06:00*
G04 #@! TF.ProjectId,fuzz_factory_r1b_r1b,66757a7a-5f66-4616-9374-6f72795f7231,MB:1B/PB:1B*
G04 #@! TF.SameCoordinates,Original*
G04 #@! TF.FileFunction,Legend,Top*
G04 #@! TF.FilePolarity,Positive*
%FSLAX46Y46*%
G04 Gerber Fmt 4.6, Leading zero omitted, Abs format (unit mm)*
G04 Created by KiCad (PCBNEW 5.1.6-c6e7f7d~87~ubuntu19.10.1) date 2021-07-04 19:23:15*
%MOMM*%
%LPD*%
G01*
G04 APERTURE LIST*
%ADD10C,0.200000*%
G04 APERTURE END LIST*
D10*
X187047619Y-32590714D02*
X187047619Y-33400238D01*
X187000000Y-33495476D01*
X186952380Y-33543095D01*
X186857142Y-33590714D01*
X186714285Y-33590714D01*
X186619047Y-33543095D01*
X187047619Y-33209761D02*
X186952380Y-33257380D01*
X186761904Y-33257380D01*
X186666666Y-33209761D01*
X186619047Y-33162142D01*
X186571428Y-33066904D01*
X186571428Y-32781190D01*
X186619047Y-32685952D01*
X186666666Y-32638333D01*
X186761904Y-32590714D01*
X186952380Y-32590714D01*
X187047619Y-32638333D01*
X187523809Y-33257380D02*
X187523809Y-32590714D01*
X187523809Y-32257380D02*
X187476190Y-32305000D01*
X187523809Y-32352619D01*
X187571428Y-32305000D01*
X187523809Y-32257380D01*
X187523809Y-32352619D01*
X187857142Y-32590714D02*
X188238095Y-32590714D01*
X188000000Y-32257380D02*
X188000000Y-33114523D01*
X188047619Y-33209761D01*
X188142857Y-33257380D01*
X188238095Y-33257380D01*
X188571428Y-33257380D02*
X188571428Y-32257380D01*
X189000000Y-33257380D02*
X189000000Y-32733571D01*
X188952380Y-32638333D01*
X188857142Y-32590714D01*
X188714285Y-32590714D01*
X188619047Y-32638333D01*
X188571428Y-32685952D01*
X189904761Y-32590714D02*
X189904761Y-33257380D01*
X189476190Y-32590714D02*
X189476190Y-33114523D01*
X189523809Y-33209761D01*
X189619047Y-33257380D01*
X189761904Y-33257380D01*
X189857142Y-33209761D01*
X189904761Y-33162142D01*
X190380952Y-33257380D02*
X190380952Y-32257380D01*
X190380952Y-32638333D02*
X190476190Y-32590714D01*
X190666666Y-32590714D01*
X190761904Y-32638333D01*
X190809523Y-32685952D01*
X190857142Y-32781190D01*
X190857142Y-33066904D01*
X190809523Y-33162142D01*
X190761904Y-33209761D01*
X190666666Y-33257380D01*
X190476190Y-33257380D01*
X190380952Y-33209761D01*
X191285714Y-33162142D02*
X191333333Y-33209761D01*
X191285714Y-33257380D01*
X191238095Y-33209761D01*
X191285714Y-33162142D01*
X191285714Y-33257380D01*
X192190476Y-33209761D02*
X192095238Y-33257380D01*
X191904761Y-33257380D01*
X191809523Y-33209761D01*
X191761904Y-33162142D01*
X191714285Y-33066904D01*
X191714285Y-32781190D01*
X191761904Y-32685952D01*
X191809523Y-32638333D01*
X191904761Y-32590714D01*
X192095238Y-32590714D01*
X192190476Y-32638333D01*
X192761904Y-33257380D02*
X192666666Y-33209761D01*
X192619047Y-33162142D01*
X192571428Y-33066904D01*
X192571428Y-32781190D01*
X192619047Y-32685952D01*
X192666666Y-32638333D01*
X192761904Y-32590714D01*
X192904761Y-32590714D01*
X193000000Y-32638333D01*
X193047619Y-32685952D01*
X193095238Y-32781190D01*
X193095238Y-33066904D01*
X193047619Y-33162142D01*
X193000000Y-33209761D01*
X192904761Y-33257380D01*
X192761904Y-33257380D01*
X193523809Y-33257380D02*
X193523809Y-32590714D01*
X193523809Y-32685952D02*
X193571428Y-32638333D01*
X193666666Y-32590714D01*
X193809523Y-32590714D01*
X193904761Y-32638333D01*
X193952380Y-32733571D01*
X193952380Y-33257380D01*
X193952380Y-32733571D02*
X194000000Y-32638333D01*
X194095238Y-32590714D01*
X194238095Y-32590714D01*
X194333333Y-32638333D01*
X194380952Y-32733571D01*
X194380952Y-33257380D01*
X187214285Y-34671666D02*
X187690476Y-34671666D01*
X187119047Y-34957380D02*
X187452380Y-33957380D01*
X187785714Y-34957380D01*
X188547619Y-34957380D02*
X188547619Y-33957380D01*
X188547619Y-34909761D02*
X188452380Y-34957380D01*
X188261904Y-34957380D01*
X188166666Y-34909761D01*
X188119047Y-34862142D01*
X188071428Y-34766904D01*
X188071428Y-34481190D01*
X188119047Y-34385952D01*
X188166666Y-34338333D01*
X188261904Y-34290714D01*
X188452380Y-34290714D01*
X188547619Y-34338333D01*
X189404761Y-34909761D02*
X189309523Y-34957380D01*
X189119047Y-34957380D01*
X189023809Y-34909761D01*
X188976190Y-34814523D01*
X188976190Y-34433571D01*
X189023809Y-34338333D01*
X189119047Y-34290714D01*
X189309523Y-34290714D01*
X189404761Y-34338333D01*
X189452380Y-34433571D01*
X189452380Y-34528809D01*
X188976190Y-34624047D01*
X189880952Y-34290714D02*
X189880952Y-35290714D01*
X189880952Y-34338333D02*
X189976190Y-34290714D01*
X190166666Y-34290714D01*
X190261904Y-34338333D01*
X190309523Y-34385952D01*
X190357142Y-34481190D01*
X190357142Y-34766904D01*
X190309523Y-34862142D01*
X190261904Y-34909761D01*
X190166666Y-34957380D01*
X189976190Y-34957380D01*
X189880952Y-34909761D01*
X190642857Y-34290714D02*
X191023809Y-34290714D01*
X190785714Y-33957380D02*
X190785714Y-34814523D01*
X190833333Y-34909761D01*
X190928571Y-34957380D01*
X191023809Y-34957380D01*
X191785714Y-33957380D02*
X191595238Y-33957380D01*
X191500000Y-34005000D01*
X191452380Y-34052619D01*
X191357142Y-34195476D01*
X191309523Y-34385952D01*
X191309523Y-34766904D01*
X191357142Y-34862142D01*
X191404761Y-34909761D01*
X191500000Y-34957380D01*
X191690476Y-34957380D01*
X191785714Y-34909761D01*
X191833333Y-34862142D01*
X191880952Y-34766904D01*
X191880952Y-34528809D01*
X191833333Y-34433571D01*
X191785714Y-34385952D01*
X191690476Y-34338333D01*
X191500000Y-34338333D01*
X191404761Y-34385952D01*
X191357142Y-34433571D01*
X191309523Y-34528809D01*
X192738095Y-33957380D02*
X192547619Y-33957380D01*
X192452380Y-34005000D01*
X192404761Y-34052619D01*
X192309523Y-34195476D01*
X192261904Y-34385952D01*
X192261904Y-34766904D01*
X192309523Y-34862142D01*
X192357142Y-34909761D01*
X192452380Y-34957380D01*
X192642857Y-34957380D01*
X192738095Y-34909761D01*
X192785714Y-34862142D01*
X192833333Y-34766904D01*
X192833333Y-34528809D01*
X192785714Y-34433571D01*
X192738095Y-34385952D01*
X192642857Y-34338333D01*
X192452380Y-34338333D01*
X192357142Y-34385952D01*
X192309523Y-34433571D01*
X192261904Y-34528809D01*
X193690476Y-33957380D02*
X193500000Y-33957380D01*
X193404761Y-34005000D01*
X193357142Y-34052619D01*
X193261904Y-34195476D01*
X193214285Y-34385952D01*
X193214285Y-34766904D01*
X193261904Y-34862142D01*
X193309523Y-34909761D01*
X193404761Y-34957380D01*
X193595238Y-34957380D01*
X193690476Y-34909761D01*
X193738095Y-34862142D01*
X193785714Y-34766904D01*
X193785714Y-34528809D01*
X193738095Y-34433571D01*
X193690476Y-34385952D01*
X193595238Y-34338333D01*
X193404761Y-34338333D01*
X193309523Y-34385952D01*
X193261904Y-34433571D01*
X193214285Y-34528809D01*
X99901904Y-33583571D02*
X99568571Y-33583571D01*
X99568571Y-34107380D02*
X99568571Y-33107380D01*
X100044761Y-33107380D01*
X100854285Y-33440714D02*
X100854285Y-34107380D01*
X100425714Y-33440714D02*
X100425714Y-33964523D01*
X100473333Y-34059761D01*
X100568571Y-34107380D01*
X100711428Y-34107380D01*
X100806666Y-34059761D01*
X100854285Y-34012142D01*
X101235238Y-33440714D02*
X101759047Y-33440714D01*
X101235238Y-34107380D01*
X101759047Y-34107380D01*
X102044761Y-33440714D02*
X102568571Y-33440714D01*
X102044761Y-34107380D01*
X102568571Y-34107380D01*
X104044761Y-33583571D02*
X103711428Y-33583571D01*
X103711428Y-34107380D02*
X103711428Y-33107380D01*
X104187619Y-33107380D01*
X104997142Y-34107380D02*
X104997142Y-33583571D01*
X104949523Y-33488333D01*
X104854285Y-33440714D01*
X104663809Y-33440714D01*
X104568571Y-33488333D01*
X104997142Y-34059761D02*
X104901904Y-34107380D01*
X104663809Y-34107380D01*
X104568571Y-34059761D01*
X104520952Y-33964523D01*
X104520952Y-33869285D01*
X104568571Y-33774047D01*
X104663809Y-33726428D01*
X104901904Y-33726428D01*
X104997142Y-33678809D01*
X105901904Y-34059761D02*
X105806666Y-34107380D01*
X105616190Y-34107380D01*
X105520952Y-34059761D01*
X105473333Y-34012142D01*
X105425714Y-33916904D01*
X105425714Y-33631190D01*
X105473333Y-33535952D01*
X105520952Y-33488333D01*
X105616190Y-33440714D01*
X105806666Y-33440714D01*
X105901904Y-33488333D01*
X106187619Y-33440714D02*
X106568571Y-33440714D01*
X106330476Y-33107380D02*
X106330476Y-33964523D01*
X106378095Y-34059761D01*
X106473333Y-34107380D01*
X106568571Y-34107380D01*
X107044761Y-34107380D02*
X106949523Y-34059761D01*
X106901904Y-34012142D01*
X106854285Y-33916904D01*
X106854285Y-33631190D01*
X106901904Y-33535952D01*
X106949523Y-33488333D01*
X107044761Y-33440714D01*
X107187619Y-33440714D01*
X107282857Y-33488333D01*
X107330476Y-33535952D01*
X107378095Y-33631190D01*
X107378095Y-33916904D01*
X107330476Y-34012142D01*
X107282857Y-34059761D01*
X107187619Y-34107380D01*
X107044761Y-34107380D01*
X107806666Y-34107380D02*
X107806666Y-33440714D01*
X107806666Y-33631190D02*
X107854285Y-33535952D01*
X107901904Y-33488333D01*
X107997142Y-33440714D01*
X108092380Y-33440714D01*
X108330476Y-33440714D02*
X108568571Y-34107380D01*
X108806666Y-33440714D02*
X108568571Y-34107380D01*
X108473333Y-34345476D01*
X108425714Y-34393095D01*
X108330476Y-34440714D01*
X164052857Y-33726428D02*
X164814761Y-33726428D01*
X165148095Y-33107380D02*
X165719523Y-33107380D01*
X165433809Y-34107380D02*
X165433809Y-33107380D01*
X165910000Y-33107380D02*
X166481428Y-33107380D01*
X166195714Y-34107380D02*
X166195714Y-33107380D01*
X166814761Y-34107380D02*
X166814761Y-33107380D01*
X167386190Y-34107380D02*
X166957619Y-33535952D01*
X167386190Y-33107380D02*
X166814761Y-33678809D01*
X167814761Y-34107380D02*
X167814761Y-33107380D01*
X168195714Y-33107380D01*
X168290952Y-33155000D01*
X168338571Y-33202619D01*
X168386190Y-33297857D01*
X168386190Y-33440714D01*
X168338571Y-33535952D01*
X168290952Y-33583571D01*
X168195714Y-33631190D01*
X167814761Y-33631190D01*
X169290952Y-33107380D02*
X169290952Y-34107380D01*
X168767142Y-33107380D02*
X168767142Y-33488333D01*
X168814761Y-33583571D01*
X168862380Y-33631190D01*
X168957619Y-33678809D01*
X169290952Y-33678809D01*
X169767142Y-34107380D02*
X169767142Y-33107380D01*
X170338571Y-33107380D01*
X170338571Y-34107380D01*
X171576666Y-34345476D02*
X171576666Y-34107380D01*
X170719523Y-34107380D01*
X170719523Y-34345476D01*
X171386190Y-34107380D02*
X171386190Y-33107380D01*
X171148095Y-33107380D01*
X171052857Y-33155000D01*
X171005238Y-33202619D01*
X170957619Y-33297857D01*
X170862380Y-34107380D01*
X172529047Y-34107380D02*
X172529047Y-33107380D01*
X172386190Y-33107380D01*
X172243333Y-33155000D01*
X172148095Y-33250238D01*
X172100476Y-33393095D01*
X172005238Y-33964523D01*
X171957619Y-34059761D01*
X171862380Y-34107380D01*
X171814761Y-34107380D01*
X173005238Y-33726428D02*
X173767142Y-33726428D01*
X120753809Y-33257380D02*
X120753809Y-32257380D01*
X121134761Y-32257380D01*
X121230000Y-32305000D01*
X121277619Y-32352619D01*
X121325238Y-32447857D01*
X121325238Y-32590714D01*
X121277619Y-32685952D01*
X121230000Y-32733571D01*
X121134761Y-32781190D01*
X120753809Y-32781190D01*
X121896666Y-33257380D02*
X121801428Y-33209761D01*
X121753809Y-33162142D01*
X121706190Y-33066904D01*
X121706190Y-32781190D01*
X121753809Y-32685952D01*
X121801428Y-32638333D01*
X121896666Y-32590714D01*
X122039523Y-32590714D01*
X122134761Y-32638333D01*
X122182380Y-32685952D01*
X122230000Y-32781190D01*
X122230000Y-33066904D01*
X122182380Y-33162142D01*
X122134761Y-33209761D01*
X122039523Y-33257380D01*
X121896666Y-33257380D01*
X122515714Y-32590714D02*
X122896666Y-32590714D01*
X122658571Y-32257380D02*
X122658571Y-33114523D01*
X122706190Y-33209761D01*
X122801428Y-33257380D01*
X122896666Y-33257380D01*
X123610952Y-33209761D02*
X123515714Y-33257380D01*
X123325238Y-33257380D01*
X123230000Y-33209761D01*
X123182380Y-33114523D01*
X123182380Y-32733571D01*
X123230000Y-32638333D01*
X123325238Y-32590714D01*
X123515714Y-32590714D01*
X123610952Y-32638333D01*
X123658571Y-32733571D01*
X123658571Y-32828809D01*
X123182380Y-32924047D01*
X124087142Y-32590714D02*
X124087142Y-33257380D01*
X124087142Y-32685952D02*
X124134761Y-32638333D01*
X124230000Y-32590714D01*
X124372857Y-32590714D01*
X124468095Y-32638333D01*
X124515714Y-32733571D01*
X124515714Y-33257380D01*
X124849047Y-32590714D02*
X125230000Y-32590714D01*
X124991904Y-32257380D02*
X124991904Y-33114523D01*
X125039523Y-33209761D01*
X125134761Y-33257380D01*
X125230000Y-33257380D01*
X125563333Y-33257380D02*
X125563333Y-32590714D01*
X125563333Y-32257380D02*
X125515714Y-32305000D01*
X125563333Y-32352619D01*
X125610952Y-32305000D01*
X125563333Y-32257380D01*
X125563333Y-32352619D01*
X126182380Y-33257380D02*
X126087142Y-33209761D01*
X126039523Y-33162142D01*
X125991904Y-33066904D01*
X125991904Y-32781190D01*
X126039523Y-32685952D01*
X126087142Y-32638333D01*
X126182380Y-32590714D01*
X126325238Y-32590714D01*
X126420476Y-32638333D01*
X126468095Y-32685952D01*
X126515714Y-32781190D01*
X126515714Y-33066904D01*
X126468095Y-33162142D01*
X126420476Y-33209761D01*
X126325238Y-33257380D01*
X126182380Y-33257380D01*
X126944285Y-33257380D02*
X126944285Y-32590714D01*
X126944285Y-32685952D02*
X126991904Y-32638333D01*
X127087142Y-32590714D01*
X127230000Y-32590714D01*
X127325238Y-32638333D01*
X127372857Y-32733571D01*
X127372857Y-33257380D01*
X127372857Y-32733571D02*
X127420476Y-32638333D01*
X127515714Y-32590714D01*
X127658571Y-32590714D01*
X127753809Y-32638333D01*
X127801428Y-32733571D01*
X127801428Y-33257380D01*
X128658571Y-33209761D02*
X128563333Y-33257380D01*
X128372857Y-33257380D01*
X128277619Y-33209761D01*
X128230000Y-33114523D01*
X128230000Y-32733571D01*
X128277619Y-32638333D01*
X128372857Y-32590714D01*
X128563333Y-32590714D01*
X128658571Y-32638333D01*
X128706190Y-32733571D01*
X128706190Y-32828809D01*
X128230000Y-32924047D01*
X128991904Y-32590714D02*
X129372857Y-32590714D01*
X129134761Y-32257380D02*
X129134761Y-33114523D01*
X129182380Y-33209761D01*
X129277619Y-33257380D01*
X129372857Y-33257380D01*
X130087142Y-33209761D02*
X129991904Y-33257380D01*
X129801428Y-33257380D01*
X129706190Y-33209761D01*
X129658571Y-33114523D01*
X129658571Y-32733571D01*
X129706190Y-32638333D01*
X129801428Y-32590714D01*
X129991904Y-32590714D01*
X130087142Y-32638333D01*
X130134761Y-32733571D01*
X130134761Y-32828809D01*
X129658571Y-32924047D01*
X130563333Y-33257380D02*
X130563333Y-32590714D01*
X130563333Y-32781190D02*
X130610952Y-32685952D01*
X130658571Y-32638333D01*
X130753809Y-32590714D01*
X130849047Y-32590714D01*
X124134761Y-34433571D02*
X124277619Y-34481190D01*
X124325238Y-34528809D01*
X124372857Y-34624047D01*
X124372857Y-34766904D01*
X124325238Y-34862142D01*
X124277619Y-34909761D01*
X124182380Y-34957380D01*
X123801428Y-34957380D01*
X123801428Y-33957380D01*
X124134761Y-33957380D01*
X124230000Y-34005000D01*
X124277619Y-34052619D01*
X124325238Y-34147857D01*
X124325238Y-34243095D01*
X124277619Y-34338333D01*
X124230000Y-34385952D01*
X124134761Y-34433571D01*
X123801428Y-34433571D01*
X124944285Y-34957380D02*
X124849047Y-34909761D01*
X124801428Y-34862142D01*
X124753809Y-34766904D01*
X124753809Y-34481190D01*
X124801428Y-34385952D01*
X124849047Y-34338333D01*
X124944285Y-34290714D01*
X125087142Y-34290714D01*
X125182380Y-34338333D01*
X125230000Y-34385952D01*
X125277619Y-34481190D01*
X125277619Y-34766904D01*
X125230000Y-34862142D01*
X125182380Y-34909761D01*
X125087142Y-34957380D01*
X124944285Y-34957380D01*
X126134761Y-34957380D02*
X126134761Y-34433571D01*
X126087142Y-34338333D01*
X125991904Y-34290714D01*
X125801428Y-34290714D01*
X125706190Y-34338333D01*
X126134761Y-34909761D02*
X126039523Y-34957380D01*
X125801428Y-34957380D01*
X125706190Y-34909761D01*
X125658571Y-34814523D01*
X125658571Y-34719285D01*
X125706190Y-34624047D01*
X125801428Y-34576428D01*
X126039523Y-34576428D01*
X126134761Y-34528809D01*
X126610952Y-34957380D02*
X126610952Y-34290714D01*
X126610952Y-34481190D02*
X126658571Y-34385952D01*
X126706190Y-34338333D01*
X126801428Y-34290714D01*
X126896666Y-34290714D01*
X127658571Y-34957380D02*
X127658571Y-33957380D01*
X127658571Y-34909761D02*
X127563333Y-34957380D01*
X127372857Y-34957380D01*
X127277619Y-34909761D01*
X127230000Y-34862142D01*
X127182380Y-34766904D01*
X127182380Y-34481190D01*
X127230000Y-34385952D01*
X127277619Y-34338333D01*
X127372857Y-34290714D01*
X127563333Y-34290714D01*
X127658571Y-34338333D01*
X144820000Y-34440714D02*
X144581904Y-34440714D01*
X144581904Y-33012142D01*
X144820000Y-33012142D01*
X145772380Y-34107380D02*
X145439047Y-33631190D01*
X145200952Y-34107380D02*
X145200952Y-33107380D01*
X145581904Y-33107380D01*
X145677142Y-33155000D01*
X145724761Y-33202619D01*
X145772380Y-33297857D01*
X145772380Y-33440714D01*
X145724761Y-33535952D01*
X145677142Y-33583571D01*
X145581904Y-33631190D01*
X145200952Y-33631190D01*
X146200952Y-33583571D02*
X146534285Y-33583571D01*
X146677142Y-34107380D02*
X146200952Y-34107380D01*
X146200952Y-33107380D01*
X146677142Y-33107380D01*
X146962857Y-33107380D02*
X147296190Y-34107380D01*
X147629523Y-33107380D01*
X148486666Y-34107380D02*
X147915238Y-34107380D01*
X148200952Y-34107380D02*
X148200952Y-33107380D01*
X148105714Y-33250238D01*
X148010476Y-33345476D01*
X147915238Y-33393095D01*
X149248571Y-33583571D02*
X149391428Y-33631190D01*
X149439047Y-33678809D01*
X149486666Y-33774047D01*
X149486666Y-33916904D01*
X149439047Y-34012142D01*
X149391428Y-34059761D01*
X149296190Y-34107380D01*
X148915238Y-34107380D01*
X148915238Y-33107380D01*
X149248571Y-33107380D01*
X149343809Y-33155000D01*
X149391428Y-33202619D01*
X149439047Y-33297857D01*
X149439047Y-33393095D01*
X149391428Y-33488333D01*
X149343809Y-33535952D01*
X149248571Y-33583571D01*
X148915238Y-33583571D01*
X149820000Y-34440714D02*
X150058095Y-34440714D01*
X150058095Y-33012142D01*
X149820000Y-33012142D01*
X175895000Y-41420000D02*
X175895000Y-35560000D01*
X183515000Y-41420000D02*
X183515000Y-35560000D01*
X183515000Y-41420000D02*
X175895000Y-41420000D01*
X154305000Y-41420000D02*
X154305000Y-35560000D01*
X161925000Y-41420000D02*
X161925000Y-35560000D01*
X161925000Y-41420000D02*
X154305000Y-41420000D01*
X111125000Y-41420000D02*
X111125000Y-35560000D01*
X118745000Y-41420000D02*
X118745000Y-35560000D01*
X118745000Y-41420000D02*
X111125000Y-41420000D01*
X132715000Y-41420000D02*
X132715000Y-35560000D01*
X140335000Y-41420000D02*
X140335000Y-35560000D01*
X140335000Y-41420000D02*
X132715000Y-41420000D01*
X197000000Y-38180000D02*
X197000000Y-43180000D01*
X184000000Y-38180000D02*
X184000000Y-43180000D01*
X184000000Y-38180000D02*
X197000000Y-38180000D01*
X175410000Y-38180000D02*
X175410000Y-43180000D01*
X162410000Y-38180000D02*
X162410000Y-43180000D01*
X162410000Y-38180000D02*
X175410000Y-38180000D01*
X153820000Y-38180000D02*
X153820000Y-43180000D01*
X140820000Y-38180000D02*
X140820000Y-43180000D01*
X140820000Y-38180000D02*
X153820000Y-38180000D01*
X132230000Y-38180000D02*
X132230000Y-43180000D01*
X119230000Y-38180000D02*
X119230000Y-43180000D01*
X119230000Y-38180000D02*
X132230000Y-38180000D01*
X110640000Y-38180000D02*
X110640000Y-43180000D01*
X97640000Y-38180000D02*
X97640000Y-43180000D01*
X97640000Y-38180000D02*
X110640000Y-38180000D01*
X177943095Y-44537380D02*
X178609761Y-45537380D01*
X178609761Y-44537380D02*
X177943095Y-45537380D01*
X178943095Y-45489761D02*
X179085952Y-45537380D01*
X179324047Y-45537380D01*
X179419285Y-45489761D01*
X179466904Y-45442142D01*
X179514523Y-45346904D01*
X179514523Y-45251666D01*
X179466904Y-45156428D01*
X179419285Y-45108809D01*
X179324047Y-45061190D01*
X179133571Y-45013571D01*
X179038333Y-44965952D01*
X178990714Y-44918333D01*
X178943095Y-44823095D01*
X178943095Y-44727857D01*
X178990714Y-44632619D01*
X179038333Y-44585000D01*
X179133571Y-44537380D01*
X179371666Y-44537380D01*
X179514523Y-44585000D01*
X180466904Y-45537380D02*
X179895476Y-45537380D01*
X180181190Y-45537380D02*
X180181190Y-44537380D01*
X180085952Y-44680238D01*
X179990714Y-44775476D01*
X179895476Y-44823095D01*
X181324047Y-44870714D02*
X181324047Y-45537380D01*
X181085952Y-44489761D02*
X180847857Y-45204047D01*
X181466904Y-45204047D01*
X156353095Y-44537380D02*
X157019761Y-45537380D01*
X157019761Y-44537380D02*
X156353095Y-45537380D01*
X157353095Y-45489761D02*
X157495952Y-45537380D01*
X157734047Y-45537380D01*
X157829285Y-45489761D01*
X157876904Y-45442142D01*
X157924523Y-45346904D01*
X157924523Y-45251666D01*
X157876904Y-45156428D01*
X157829285Y-45108809D01*
X157734047Y-45061190D01*
X157543571Y-45013571D01*
X157448333Y-44965952D01*
X157400714Y-44918333D01*
X157353095Y-44823095D01*
X157353095Y-44727857D01*
X157400714Y-44632619D01*
X157448333Y-44585000D01*
X157543571Y-44537380D01*
X157781666Y-44537380D01*
X157924523Y-44585000D01*
X158876904Y-45537380D02*
X158305476Y-45537380D01*
X158591190Y-45537380D02*
X158591190Y-44537380D01*
X158495952Y-44680238D01*
X158400714Y-44775476D01*
X158305476Y-44823095D01*
X159210238Y-44537380D02*
X159829285Y-44537380D01*
X159495952Y-44918333D01*
X159638809Y-44918333D01*
X159734047Y-44965952D01*
X159781666Y-45013571D01*
X159829285Y-45108809D01*
X159829285Y-45346904D01*
X159781666Y-45442142D01*
X159734047Y-45489761D01*
X159638809Y-45537380D01*
X159353095Y-45537380D01*
X159257857Y-45489761D01*
X159210238Y-45442142D01*
X113173095Y-44537380D02*
X113839761Y-45537380D01*
X113839761Y-44537380D02*
X113173095Y-45537380D01*
X114173095Y-45489761D02*
X114315952Y-45537380D01*
X114554047Y-45537380D01*
X114649285Y-45489761D01*
X114696904Y-45442142D01*
X114744523Y-45346904D01*
X114744523Y-45251666D01*
X114696904Y-45156428D01*
X114649285Y-45108809D01*
X114554047Y-45061190D01*
X114363571Y-45013571D01*
X114268333Y-44965952D01*
X114220714Y-44918333D01*
X114173095Y-44823095D01*
X114173095Y-44727857D01*
X114220714Y-44632619D01*
X114268333Y-44585000D01*
X114363571Y-44537380D01*
X114601666Y-44537380D01*
X114744523Y-44585000D01*
X115696904Y-45537380D02*
X115125476Y-45537380D01*
X115411190Y-45537380D02*
X115411190Y-44537380D01*
X115315952Y-44680238D01*
X115220714Y-44775476D01*
X115125476Y-44823095D01*
X116649285Y-45537380D02*
X116077857Y-45537380D01*
X116363571Y-45537380D02*
X116363571Y-44537380D01*
X116268333Y-44680238D01*
X116173095Y-44775476D01*
X116077857Y-44823095D01*
X134763095Y-44537380D02*
X135429761Y-45537380D01*
X135429761Y-44537380D02*
X134763095Y-45537380D01*
X135763095Y-45489761D02*
X135905952Y-45537380D01*
X136144047Y-45537380D01*
X136239285Y-45489761D01*
X136286904Y-45442142D01*
X136334523Y-45346904D01*
X136334523Y-45251666D01*
X136286904Y-45156428D01*
X136239285Y-45108809D01*
X136144047Y-45061190D01*
X135953571Y-45013571D01*
X135858333Y-44965952D01*
X135810714Y-44918333D01*
X135763095Y-44823095D01*
X135763095Y-44727857D01*
X135810714Y-44632619D01*
X135858333Y-44585000D01*
X135953571Y-44537380D01*
X136191666Y-44537380D01*
X136334523Y-44585000D01*
X137286904Y-45537380D02*
X136715476Y-45537380D01*
X137001190Y-45537380D02*
X137001190Y-44537380D01*
X136905952Y-44680238D01*
X136810714Y-44775476D01*
X136715476Y-44823095D01*
X137667857Y-44632619D02*
X137715476Y-44585000D01*
X137810714Y-44537380D01*
X138048809Y-44537380D01*
X138144047Y-44585000D01*
X138191666Y-44632619D01*
X138239285Y-44727857D01*
X138239285Y-44823095D01*
X138191666Y-44965952D01*
X137620238Y-45537380D01*
X138239285Y-45537380D01*
X189833333Y-37917380D02*
X189500000Y-37441190D01*
X189261904Y-37917380D02*
X189261904Y-36917380D01*
X189642857Y-36917380D01*
X189738095Y-36965000D01*
X189785714Y-37012619D01*
X189833333Y-37107857D01*
X189833333Y-37250714D01*
X189785714Y-37345952D01*
X189738095Y-37393571D01*
X189642857Y-37441190D01*
X189261904Y-37441190D01*
X190261904Y-37917380D02*
X190261904Y-36917380D01*
X190642857Y-36917380D01*
X190738095Y-36965000D01*
X190785714Y-37012619D01*
X190833333Y-37107857D01*
X190833333Y-37250714D01*
X190785714Y-37345952D01*
X190738095Y-37393571D01*
X190642857Y-37441190D01*
X190261904Y-37441190D01*
X191738095Y-36917380D02*
X191261904Y-36917380D01*
X191214285Y-37393571D01*
X191261904Y-37345952D01*
X191357142Y-37298333D01*
X191595238Y-37298333D01*
X191690476Y-37345952D01*
X191738095Y-37393571D01*
X191785714Y-37488809D01*
X191785714Y-37726904D01*
X191738095Y-37822142D01*
X191690476Y-37869761D01*
X191595238Y-37917380D01*
X191357142Y-37917380D01*
X191261904Y-37869761D01*
X191214285Y-37822142D01*
X168243333Y-37917380D02*
X167910000Y-37441190D01*
X167671904Y-37917380D02*
X167671904Y-36917380D01*
X168052857Y-36917380D01*
X168148095Y-36965000D01*
X168195714Y-37012619D01*
X168243333Y-37107857D01*
X168243333Y-37250714D01*
X168195714Y-37345952D01*
X168148095Y-37393571D01*
X168052857Y-37441190D01*
X167671904Y-37441190D01*
X168671904Y-37917380D02*
X168671904Y-36917380D01*
X169052857Y-36917380D01*
X169148095Y-36965000D01*
X169195714Y-37012619D01*
X169243333Y-37107857D01*
X169243333Y-37250714D01*
X169195714Y-37345952D01*
X169148095Y-37393571D01*
X169052857Y-37441190D01*
X168671904Y-37441190D01*
X170100476Y-37250714D02*
X170100476Y-37917380D01*
X169862380Y-36869761D02*
X169624285Y-37584047D01*
X170243333Y-37584047D01*
X146653333Y-37917380D02*
X146320000Y-37441190D01*
X146081904Y-37917380D02*
X146081904Y-36917380D01*
X146462857Y-36917380D01*
X146558095Y-36965000D01*
X146605714Y-37012619D01*
X146653333Y-37107857D01*
X146653333Y-37250714D01*
X146605714Y-37345952D01*
X146558095Y-37393571D01*
X146462857Y-37441190D01*
X146081904Y-37441190D01*
X147081904Y-37917380D02*
X147081904Y-36917380D01*
X147462857Y-36917380D01*
X147558095Y-36965000D01*
X147605714Y-37012619D01*
X147653333Y-37107857D01*
X147653333Y-37250714D01*
X147605714Y-37345952D01*
X147558095Y-37393571D01*
X147462857Y-37441190D01*
X147081904Y-37441190D01*
X147986666Y-36917380D02*
X148605714Y-36917380D01*
X148272380Y-37298333D01*
X148415238Y-37298333D01*
X148510476Y-37345952D01*
X148558095Y-37393571D01*
X148605714Y-37488809D01*
X148605714Y-37726904D01*
X148558095Y-37822142D01*
X148510476Y-37869761D01*
X148415238Y-37917380D01*
X148129523Y-37917380D01*
X148034285Y-37869761D01*
X147986666Y-37822142D01*
X125063333Y-37917380D02*
X124730000Y-37441190D01*
X124491904Y-37917380D02*
X124491904Y-36917380D01*
X124872857Y-36917380D01*
X124968095Y-36965000D01*
X125015714Y-37012619D01*
X125063333Y-37107857D01*
X125063333Y-37250714D01*
X125015714Y-37345952D01*
X124968095Y-37393571D01*
X124872857Y-37441190D01*
X124491904Y-37441190D01*
X125491904Y-37917380D02*
X125491904Y-36917380D01*
X125872857Y-36917380D01*
X125968095Y-36965000D01*
X126015714Y-37012619D01*
X126063333Y-37107857D01*
X126063333Y-37250714D01*
X126015714Y-37345952D01*
X125968095Y-37393571D01*
X125872857Y-37441190D01*
X125491904Y-37441190D01*
X126444285Y-37012619D02*
X126491904Y-36965000D01*
X126587142Y-36917380D01*
X126825238Y-36917380D01*
X126920476Y-36965000D01*
X126968095Y-37012619D01*
X127015714Y-37107857D01*
X127015714Y-37203095D01*
X126968095Y-37345952D01*
X126396666Y-37917380D01*
X127015714Y-37917380D01*
X103473333Y-37917380D02*
X103140000Y-37441190D01*
X102901904Y-37917380D02*
X102901904Y-36917380D01*
X103282857Y-36917380D01*
X103378095Y-36965000D01*
X103425714Y-37012619D01*
X103473333Y-37107857D01*
X103473333Y-37250714D01*
X103425714Y-37345952D01*
X103378095Y-37393571D01*
X103282857Y-37441190D01*
X102901904Y-37441190D01*
X103901904Y-37917380D02*
X103901904Y-36917380D01*
X104282857Y-36917380D01*
X104378095Y-36965000D01*
X104425714Y-37012619D01*
X104473333Y-37107857D01*
X104473333Y-37250714D01*
X104425714Y-37345952D01*
X104378095Y-37393571D01*
X104282857Y-37441190D01*
X103901904Y-37441190D01*
X105425714Y-37917380D02*
X104854285Y-37917380D01*
X105140000Y-37917380D02*
X105140000Y-36917380D01*
X105044761Y-37060238D01*
X104949523Y-37155476D01*
X104854285Y-37203095D01*
M02*
