M48
; DRILL file {KiCad 5.1.6-c6e7f7d~87~ubuntu19.10.1} date Sun Jan  9 05:59:21 2022
; FORMAT={-:-/ absolute / metric / decimal}
; #@! TF.CreationDate,2022-01-09T05:59:21+06:00
; #@! TF.GenerationSoftware,Kicad,Pcbnew,5.1.6-c6e7f7d~87~ubuntu19.10.1
FMAT,2
METRIC
T1C0.600
T2C0.700
T3C0.900
T4C1.000
T5C1.300
T6C1.500
T7C3.000
%
G90
G05
T1
X93.98Y-140.97
X99.06Y-140.97
X81.28Y-140.97
X86.36Y-140.97
X121.92Y-154.94
X86.36Y-154.94
X88.9Y-154.94
X91.44Y-154.94
X92.71Y-175.26
X80.01Y-187.96
X80.01Y-190.5
X80.01Y-193.04
X121.92Y-140.97
X124.46Y-140.97
X127.0Y-140.97
X114.3Y-165.1
X114.3Y-170.18
X83.82Y-165.1
X83.82Y-170.18
X118.11Y-185.42
X123.19Y-185.42
X111.76Y-140.97
X116.84Y-140.97
T2
X115.57Y-198.12
X125.73Y-198.12
X104.14Y-200.66
X106.68Y-200.66
X115.57Y-190.5
X125.73Y-190.5
X85.09Y-187.96
X95.25Y-187.96
X115.57Y-195.58
X125.73Y-195.58
X116.84Y-133.35
X127.0Y-133.35
X100.33Y-193.04
X110.49Y-193.04
X116.84Y-128.27
X127.0Y-128.27
X115.57Y-200.66
X125.73Y-200.66
X119.38Y-160.02
X119.38Y-170.18
X121.92Y-160.02
X121.92Y-170.18
X88.9Y-160.02
X88.9Y-170.18
X85.09Y-193.04
X95.25Y-193.04
X93.98Y-160.02
X93.98Y-170.18
X100.33Y-195.58
X110.49Y-195.58
X115.57Y-193.04
X125.73Y-193.04
X96.52Y-160.02
X96.52Y-170.18
X93.98Y-133.35
X104.14Y-133.35
X91.44Y-160.02
X91.44Y-170.18
X124.46Y-160.02
X124.46Y-170.18
X116.84Y-135.89
X127.0Y-135.89
X81.28Y-133.35
X91.44Y-133.35
X85.09Y-190.5
X95.25Y-190.5
T3
X101.66Y-175.26
X104.16Y-175.26
X106.66Y-175.26
X109.16Y-175.26
X99.06Y-128.27
X101.6Y-128.27
X104.14Y-128.27
X106.68Y-128.27
X109.22Y-128.27
X111.76Y-128.27
T4
X124.46Y-154.94
X127.0Y-154.94
X105.41Y-138.43
X92.71Y-177.8
X92.71Y-180.34
X125.73Y-179.07
X128.27Y-179.07
X105.41Y-170.18
X101.6Y-157.48
X101.6Y-160.02
X101.6Y-162.56
X101.6Y-165.1
X109.22Y-157.48
X109.22Y-160.02
X109.22Y-162.56
X109.22Y-165.1
T5
X100.41Y-180.15
X100.41Y-184.15
X100.41Y-188.15
X105.41Y-180.15
X105.41Y-184.15
X105.41Y-188.15
X110.41Y-180.15
X110.41Y-184.15
X110.41Y-188.15
T6
X105.41Y-142.62
X105.41Y-147.32
X105.41Y-152.02
T7
X97.79Y-147.32
X113.03Y-147.32
T0
M30
