G04 #@! TF.GenerationSoftware,KiCad,Pcbnew,5.1.6-c6e7f7d~87~ubuntu19.10.1*
G04 #@! TF.CreationDate,2022-01-09T05:59:06+06:00*
G04 #@! TF.ProjectId,__________________________r1a,4240353c-3e3b-43e5-9f41-3048385f3e33,1A*
G04 #@! TF.SameCoordinates,Original*
G04 #@! TF.FileFunction,Copper,L2,Bot*
G04 #@! TF.FilePolarity,Positive*
%FSLAX46Y46*%
G04 Gerber Fmt 4.6, Leading zero omitted, Abs format (unit mm)*
G04 Created by KiCad (PCBNEW 5.1.6-c6e7f7d~87~ubuntu19.10.1) date 2022-01-09 05:59:06*
%MOMM*%
%LPD*%
G01*
G04 APERTURE LIST*
G04 #@! TA.AperFunction,ComponentPad*
%ADD10R,2.500000X2.500000*%
G04 #@! TD*
G04 #@! TA.AperFunction,ComponentPad*
%ADD11C,6.000000*%
G04 #@! TD*
G04 #@! TA.AperFunction,ComponentPad*
%ADD12R,1.900000X1.900000*%
G04 #@! TD*
G04 #@! TA.AperFunction,ComponentPad*
%ADD13C,1.900000*%
G04 #@! TD*
G04 #@! TA.AperFunction,ComponentPad*
%ADD14R,3.000000X3.000000*%
G04 #@! TD*
G04 #@! TA.AperFunction,Conductor*
%ADD15C,1.000000*%
G04 #@! TD*
G04 #@! TA.AperFunction,Conductor*
%ADD16C,0.500000*%
G04 #@! TD*
G04 APERTURE END LIST*
D10*
X110410000Y-184150000D03*
X110410000Y-188150000D03*
X110410000Y-180150000D03*
X105410000Y-184150000D03*
X105410000Y-188150000D03*
X105410000Y-180150000D03*
X100410000Y-180150000D03*
X100410000Y-184150000D03*
X100410000Y-188150000D03*
D11*
X97790000Y-147320000D03*
X113030000Y-147320000D03*
D12*
X127000000Y-133350000D03*
X116840000Y-133350000D03*
X127000000Y-154940000D03*
D13*
X124460000Y-154940000D03*
D12*
X121920000Y-154940000D03*
X125730000Y-200660000D03*
X115570000Y-200660000D03*
D13*
X101660000Y-175260000D03*
D12*
X104160000Y-175260000D03*
X106660000Y-175260000D03*
X109160000Y-175260000D03*
X92710000Y-175260000D03*
D13*
X92710000Y-177800000D03*
D12*
X92710000Y-180340000D03*
X106680000Y-128270000D03*
X99060000Y-128270000D03*
X104140000Y-128270000D03*
X101600000Y-128270000D03*
X109220000Y-128270000D03*
X111760000Y-128270000D03*
D13*
X80010000Y-193040000D03*
D12*
X80010000Y-190500000D03*
X80010000Y-187960000D03*
D13*
X86360000Y-154940000D03*
D12*
X88900000Y-154940000D03*
X91440000Y-154940000D03*
D13*
X127000000Y-140970000D03*
D12*
X124460000Y-140970000D03*
X121920000Y-140970000D03*
X105410000Y-138430000D03*
D14*
X105410000Y-152020000D03*
X105410000Y-147320000D03*
X105410000Y-142620000D03*
D12*
X119380000Y-160020000D03*
X119380000Y-170180000D03*
X85090000Y-193040000D03*
X95250000Y-193040000D03*
X115570000Y-190500000D03*
X125730000Y-190500000D03*
X125730000Y-193040000D03*
X115570000Y-193040000D03*
X124460000Y-170180000D03*
X124460000Y-160020000D03*
X121920000Y-160020000D03*
X121920000Y-170180000D03*
D13*
X125730000Y-179070000D03*
G04 #@! TA.AperFunction,ComponentPad*
G36*
G01*
X127320000Y-179450000D02*
X127320000Y-178690000D01*
G75*
G02*
X127890000Y-178120000I570000J0D01*
G01*
X128650000Y-178120000D01*
G75*
G02*
X129220000Y-178690000I0J-570000D01*
G01*
X129220000Y-179450000D01*
G75*
G02*
X128650000Y-180020000I-570000J0D01*
G01*
X127890000Y-180020000D01*
G75*
G02*
X127320000Y-179450000I0J570000D01*
G01*
G37*
G04 #@! TD.AperFunction*
X104140000Y-200660000D03*
G04 #@! TA.AperFunction,ComponentPad*
G36*
G01*
X105730000Y-201040000D02*
X105730000Y-200280000D01*
G75*
G02*
X106300000Y-199710000I570000J0D01*
G01*
X107060000Y-199710000D01*
G75*
G02*
X107630000Y-200280000I0J-570000D01*
G01*
X107630000Y-201040000D01*
G75*
G02*
X107060000Y-201610000I-570000J0D01*
G01*
X106300000Y-201610000D01*
G75*
G02*
X105730000Y-201040000I0J570000D01*
G01*
G37*
G04 #@! TD.AperFunction*
D12*
X104140000Y-133350000D03*
X93980000Y-133350000D03*
X81280000Y-133350000D03*
X91440000Y-133350000D03*
X127000000Y-128270000D03*
X116840000Y-128270000D03*
X125730000Y-195580000D03*
X115570000Y-195580000D03*
X115570000Y-198120000D03*
X125730000Y-198120000D03*
X101600000Y-165100000D03*
X101600000Y-162560000D03*
X101600000Y-160020000D03*
X101600000Y-157480000D03*
X109220000Y-157480000D03*
X109220000Y-160020000D03*
X109220000Y-162560000D03*
D13*
X109220000Y-165100000D03*
D12*
X114300000Y-170180000D03*
X114300000Y-165100000D03*
X118110000Y-185420000D03*
X123190000Y-185420000D03*
X127000000Y-135890000D03*
X116840000Y-135890000D03*
X116840000Y-140970000D03*
X111760000Y-140970000D03*
X93980000Y-140970000D03*
X99060000Y-140970000D03*
X95250000Y-190500000D03*
X85090000Y-190500000D03*
X95250000Y-187960000D03*
X85090000Y-187960000D03*
X91440000Y-160020000D03*
X91440000Y-170180000D03*
X88900000Y-160020000D03*
X88900000Y-170180000D03*
X93980000Y-160020000D03*
X93980000Y-170180000D03*
X81280000Y-140970000D03*
X86360000Y-140970000D03*
X83820000Y-170180000D03*
X83820000Y-165100000D03*
X100330000Y-195580000D03*
X110490000Y-195580000D03*
X110490000Y-193040000D03*
X100330000Y-193040000D03*
X96520000Y-170180000D03*
X96520000Y-160020000D03*
X105410000Y-170180000D03*
D15*
X100330000Y-195580000D02*
X102235000Y-195580000D01*
X102235000Y-195580000D02*
X104140000Y-197485000D01*
X104140000Y-197485000D02*
X104140000Y-200660000D01*
X100330000Y-193040000D02*
X100330000Y-195580000D01*
X88900000Y-170180000D02*
X91440000Y-170180000D01*
X101600000Y-173355000D02*
X101600000Y-165100000D01*
X101660000Y-173415000D02*
X101600000Y-173355000D01*
X101660000Y-175260000D02*
X101660000Y-173415000D01*
X95250000Y-187960000D02*
X95250000Y-190500000D01*
X95250000Y-190500000D02*
X102870000Y-190500000D01*
X101660000Y-175260000D02*
X101660000Y-177225000D01*
X101660000Y-177225000D02*
X102870000Y-178435000D01*
X102870000Y-178435000D02*
X102870000Y-190500000D01*
X102870000Y-190500000D02*
X106680000Y-194310000D01*
X106680000Y-195580000D02*
X110490000Y-195580000D01*
X106680000Y-194310000D02*
X106680000Y-195580000D01*
X106680000Y-195580000D02*
X106680000Y-200660000D01*
X110490000Y-195580000D02*
X115570000Y-195580000D01*
X115570000Y-193040000D02*
X115570000Y-195580000D01*
X112840000Y-188150000D02*
X110410000Y-188150000D01*
X118110000Y-187960000D02*
X113030000Y-187960000D01*
X113030000Y-187960000D02*
X112840000Y-188150000D01*
X118110000Y-185420000D02*
X118110000Y-187960000D01*
X107125000Y-180150000D02*
X105410000Y-180150000D01*
X107950000Y-180975000D02*
X107125000Y-180150000D01*
X107950000Y-187642500D02*
X107950000Y-180975000D01*
X108457500Y-188150000D02*
X107950000Y-187642500D01*
X110410000Y-188150000D02*
X108457500Y-188150000D01*
X117475000Y-200660000D02*
X118110000Y-200025000D01*
X118110000Y-187960000D02*
X118110000Y-200025000D01*
X117475000Y-200660000D02*
X115570000Y-200660000D01*
X97980000Y-180150000D02*
X100410000Y-180150000D01*
X97790000Y-180340000D02*
X97980000Y-180150000D01*
X92710000Y-180340000D02*
X97790000Y-180340000D01*
X92710000Y-192405000D02*
X93345000Y-193040000D01*
X93345000Y-193040000D02*
X95250000Y-193040000D01*
X92710000Y-180340000D02*
X92710000Y-192405000D01*
X105410000Y-152020000D02*
X107695000Y-152020000D01*
X107695000Y-152020000D02*
X108585000Y-151130000D01*
X109855000Y-140970000D02*
X108585000Y-142240000D01*
X111760000Y-140970000D02*
X109855000Y-140970000D01*
X108585000Y-142240000D02*
X108585000Y-151130000D01*
X101600000Y-140970000D02*
X99060000Y-140970000D01*
X103250000Y-142620000D02*
X101600000Y-140970000D01*
X105410000Y-142620000D02*
X103250000Y-142620000D01*
X123190000Y-177800000D02*
X123190000Y-185420000D01*
X116840000Y-171450000D02*
X123190000Y-177800000D01*
X116840000Y-163830000D02*
X116840000Y-171450000D01*
X113030000Y-160020000D02*
X116840000Y-163830000D01*
X109220000Y-160020000D02*
X113030000Y-160020000D01*
X125730000Y-195580000D02*
X125730000Y-198120000D01*
X123190000Y-185420000D02*
X123190000Y-194945000D01*
X123190000Y-194945000D02*
X123825000Y-195580000D01*
X123825000Y-195580000D02*
X125730000Y-195580000D01*
X119380000Y-161925000D02*
X120015000Y-162560000D01*
X119380000Y-160020000D02*
X119380000Y-161925000D01*
X123825000Y-162560000D02*
X124460000Y-161925000D01*
X120015000Y-162560000D02*
X123825000Y-162560000D01*
X124460000Y-161925000D02*
X124460000Y-160020000D01*
X125730000Y-177165000D02*
X125730000Y-179070000D01*
X124460000Y-175895000D02*
X125730000Y-177165000D01*
X124460000Y-170180000D02*
X124460000Y-175895000D01*
X125730000Y-179070000D02*
X125730000Y-190500000D01*
X125730000Y-190500000D02*
X125730000Y-193040000D01*
X121920000Y-154940000D02*
X124460000Y-154940000D01*
X96520000Y-160020000D02*
X101600000Y-160020000D01*
X93980000Y-172085000D02*
X93980000Y-170180000D01*
X93345000Y-172720000D02*
X93980000Y-172085000D01*
X85090000Y-172720000D02*
X93345000Y-172720000D01*
X83820000Y-170180000D02*
X83820000Y-172085000D01*
X83820000Y-172085000D02*
X84455000Y-172720000D01*
X84455000Y-172720000D02*
X85090000Y-172720000D01*
X80010000Y-187960000D02*
X85090000Y-187960000D01*
X85090000Y-187960000D02*
X85090000Y-172720000D01*
X109220000Y-128270000D02*
X111760000Y-128270000D01*
X111760000Y-128270000D02*
X116840000Y-128270000D01*
X109220000Y-162560000D02*
X109220000Y-165100000D01*
X109220000Y-165100000D02*
X114300000Y-165100000D01*
X119380000Y-170180000D02*
X121920000Y-170180000D01*
X127000000Y-146050000D02*
X127000000Y-154940000D01*
X130810000Y-142240000D02*
X127000000Y-146050000D01*
X130810000Y-135255000D02*
X130810000Y-142240000D01*
X128905000Y-133350000D02*
X130810000Y-135255000D01*
X127000000Y-133350000D02*
X128905000Y-133350000D01*
X101600000Y-130175000D02*
X101600000Y-128270000D01*
X95885000Y-135890000D02*
X101600000Y-130175000D01*
X93980000Y-135890000D02*
X95885000Y-135890000D01*
X88900000Y-140970000D02*
X93980000Y-135890000D01*
X86360000Y-140970000D02*
X88900000Y-140970000D01*
X80010000Y-190500000D02*
X85090000Y-190500000D01*
X92710000Y-175260000D02*
X92710000Y-177800000D01*
X96520000Y-165735000D02*
X99695000Y-162560000D01*
X99695000Y-162560000D02*
X101600000Y-162560000D01*
X96520000Y-170180000D02*
X96520000Y-165735000D01*
X96520000Y-173355000D02*
X96520000Y-170180000D01*
X94615000Y-175260000D02*
X96520000Y-173355000D01*
X92710000Y-175260000D02*
X94615000Y-175260000D01*
X88900000Y-154940000D02*
X88900000Y-160020000D01*
X88900000Y-161925000D02*
X88900000Y-160020000D01*
X85725000Y-165100000D02*
X88900000Y-161925000D01*
X83820000Y-165100000D02*
X85725000Y-165100000D01*
X99060000Y-130175000D02*
X99060000Y-128270000D01*
X95885000Y-133350000D02*
X99060000Y-130175000D01*
X93980000Y-133350000D02*
X95885000Y-133350000D01*
X91440000Y-154940000D02*
X91440000Y-160020000D01*
X106680000Y-128270000D02*
X106680000Y-130175000D01*
X106680000Y-130175000D02*
X107315000Y-130810000D01*
X107315000Y-130810000D02*
X116205000Y-130810000D01*
X116205000Y-130810000D02*
X116840000Y-131445000D01*
X116840000Y-131445000D02*
X116840000Y-133350000D01*
X121920000Y-136525000D02*
X121920000Y-140970000D01*
X118745000Y-133350000D02*
X121920000Y-136525000D01*
X116840000Y-133350000D02*
X118745000Y-133350000D01*
X124460000Y-136525000D02*
X125095000Y-135890000D01*
X125095000Y-135890000D02*
X127000000Y-135890000D01*
X124460000Y-140970000D02*
X124460000Y-136525000D01*
X93980000Y-157480000D02*
X102235000Y-149225000D01*
X93980000Y-160020000D02*
X93980000Y-157480000D01*
X102235000Y-147955000D02*
X102235000Y-149225000D01*
X102870000Y-147320000D02*
X102235000Y-147955000D01*
X105410000Y-147320000D02*
X102870000Y-147320000D01*
D16*
G36*
X133570001Y-195145075D02*
G01*
X127531562Y-201183515D01*
X127530000Y-200922500D01*
X127317500Y-200710000D01*
X125780000Y-200710000D01*
X125780000Y-202247500D01*
X125992500Y-202460000D01*
X126253515Y-202461562D01*
X124025077Y-204690000D01*
X86794924Y-204690000D01*
X77250000Y-195145077D01*
X77250000Y-194203492D01*
X78917219Y-194203492D01*
X78987724Y-194532107D01*
X79298463Y-194702873D01*
X79636545Y-194809735D01*
X79988979Y-194848587D01*
X80342221Y-194817936D01*
X80682695Y-194718961D01*
X80997318Y-194555463D01*
X81032276Y-194532107D01*
X81102781Y-194203492D01*
X80010000Y-193110711D01*
X78917219Y-194203492D01*
X77250000Y-194203492D01*
X77250000Y-193018979D01*
X78201413Y-193018979D01*
X78232064Y-193372221D01*
X78331039Y-193712695D01*
X78494537Y-194027318D01*
X78517893Y-194062276D01*
X78846508Y-194132781D01*
X79939289Y-193040000D01*
X79925147Y-193025858D01*
X79995858Y-192955147D01*
X80010000Y-192969289D01*
X80024142Y-192955147D01*
X80094853Y-193025858D01*
X80080711Y-193040000D01*
X81173492Y-194132781D01*
X81502107Y-194062276D01*
X81541826Y-193990000D01*
X83285887Y-193990000D01*
X83302299Y-194156629D01*
X83350902Y-194316855D01*
X83429831Y-194464520D01*
X83536051Y-194593949D01*
X83665480Y-194700169D01*
X83813145Y-194779098D01*
X83973371Y-194827701D01*
X84140000Y-194844113D01*
X84827500Y-194840000D01*
X85040000Y-194627500D01*
X85040000Y-193090000D01*
X85140000Y-193090000D01*
X85140000Y-194627500D01*
X85352500Y-194840000D01*
X86040000Y-194844113D01*
X86206629Y-194827701D01*
X86366855Y-194779098D01*
X86514520Y-194700169D01*
X86643949Y-194593949D01*
X86750169Y-194464520D01*
X86829098Y-194316855D01*
X86877701Y-194156629D01*
X86894113Y-193990000D01*
X86890000Y-193302500D01*
X86677500Y-193090000D01*
X85140000Y-193090000D01*
X85040000Y-193090000D01*
X83502500Y-193090000D01*
X83290000Y-193302500D01*
X83285887Y-193990000D01*
X81541826Y-193990000D01*
X81672873Y-193751537D01*
X81779735Y-193413455D01*
X81818587Y-193061021D01*
X81787936Y-192707779D01*
X81688961Y-192367305D01*
X81537430Y-192075711D01*
X81563948Y-192053948D01*
X81670168Y-191924519D01*
X81710000Y-191850000D01*
X83324555Y-191850000D01*
X83302299Y-191923371D01*
X83285887Y-192090000D01*
X83290000Y-192777500D01*
X83502500Y-192990000D01*
X85040000Y-192990000D01*
X85040000Y-192970000D01*
X85140000Y-192970000D01*
X85140000Y-192990000D01*
X86677500Y-192990000D01*
X86890000Y-192777500D01*
X86894113Y-192090000D01*
X86877701Y-191923371D01*
X86831177Y-191769998D01*
X86877700Y-191616629D01*
X86894112Y-191450000D01*
X86894112Y-189550000D01*
X86877700Y-189383371D01*
X86831176Y-189230000D01*
X86877700Y-189076629D01*
X86894112Y-188910000D01*
X86894112Y-187010000D01*
X86877700Y-186843371D01*
X86829097Y-186683145D01*
X86750168Y-186535481D01*
X86643948Y-186406052D01*
X86514519Y-186299832D01*
X86440000Y-186260000D01*
X86440000Y-174070000D01*
X90944556Y-174070000D01*
X90922300Y-174143371D01*
X90905888Y-174310000D01*
X90905888Y-176210000D01*
X90922300Y-176376629D01*
X90970903Y-176536855D01*
X91049832Y-176684519D01*
X91156052Y-176813948D01*
X91187030Y-176839371D01*
X91114861Y-176947380D01*
X90979173Y-177274959D01*
X90910000Y-177622716D01*
X90910000Y-177977284D01*
X90979173Y-178325041D01*
X91114861Y-178652620D01*
X91187030Y-178760629D01*
X91156052Y-178786052D01*
X91049832Y-178915481D01*
X90970903Y-179063145D01*
X90922300Y-179223371D01*
X90905888Y-179390000D01*
X90905888Y-181290000D01*
X90922300Y-181456629D01*
X90970903Y-181616855D01*
X91049832Y-181764519D01*
X91156052Y-181893948D01*
X91285481Y-182000168D01*
X91360000Y-182040000D01*
X91360001Y-192338671D01*
X91353468Y-192405000D01*
X91379534Y-192669646D01*
X91456729Y-192924122D01*
X91582085Y-193158649D01*
X91708510Y-193312698D01*
X91708514Y-193312702D01*
X91750788Y-193364213D01*
X91802300Y-193406487D01*
X92343505Y-193947692D01*
X92385787Y-193999213D01*
X92591351Y-194167915D01*
X92635197Y-194191351D01*
X92825877Y-194293272D01*
X92881022Y-194310000D01*
X93080354Y-194370467D01*
X93278679Y-194390000D01*
X93278681Y-194390000D01*
X93345000Y-194396532D01*
X93411319Y-194390000D01*
X93550000Y-194390000D01*
X93589832Y-194464519D01*
X93696052Y-194593948D01*
X93825481Y-194700168D01*
X93973145Y-194779097D01*
X94133371Y-194827700D01*
X94300000Y-194844112D01*
X96200000Y-194844112D01*
X96366629Y-194827700D01*
X96526855Y-194779097D01*
X96674519Y-194700168D01*
X96803948Y-194593948D01*
X96910168Y-194464519D01*
X96989097Y-194316855D01*
X97037700Y-194156629D01*
X97054112Y-193990000D01*
X97054112Y-192090000D01*
X97037700Y-191923371D01*
X97015444Y-191850000D01*
X98564556Y-191850000D01*
X98542300Y-191923371D01*
X98525888Y-192090000D01*
X98525888Y-193990000D01*
X98542300Y-194156629D01*
X98588824Y-194310000D01*
X98542300Y-194463371D01*
X98525888Y-194630000D01*
X98525888Y-196530000D01*
X98542300Y-196696629D01*
X98590903Y-196856855D01*
X98669832Y-197004519D01*
X98776052Y-197133948D01*
X98905481Y-197240168D01*
X99053145Y-197319097D01*
X99213371Y-197367700D01*
X99380000Y-197384112D01*
X101280000Y-197384112D01*
X101446629Y-197367700D01*
X101606855Y-197319097D01*
X101754519Y-197240168D01*
X101881648Y-197135836D01*
X102790000Y-198044189D01*
X102790001Y-199464415D01*
X102741849Y-199512567D01*
X102544861Y-199807380D01*
X102409173Y-200134959D01*
X102340000Y-200482716D01*
X102340000Y-200837284D01*
X102409173Y-201185041D01*
X102544861Y-201512620D01*
X102741849Y-201807433D01*
X102992567Y-202058151D01*
X103287380Y-202255139D01*
X103614959Y-202390827D01*
X103962716Y-202460000D01*
X104317284Y-202460000D01*
X104665041Y-202390827D01*
X104992620Y-202255139D01*
X105287433Y-202058151D01*
X105296068Y-202049516D01*
X105508806Y-202224106D01*
X105755016Y-202355708D01*
X106022170Y-202436748D01*
X106300000Y-202464112D01*
X107060000Y-202464112D01*
X107337830Y-202436748D01*
X107604984Y-202355708D01*
X107851194Y-202224106D01*
X108066999Y-202046999D01*
X108244106Y-201831194D01*
X108375708Y-201584984D01*
X108456748Y-201317830D01*
X108484112Y-201040000D01*
X108484112Y-200280000D01*
X108456748Y-200002170D01*
X108375708Y-199735016D01*
X108244106Y-199488806D01*
X108066999Y-199273001D01*
X108030000Y-199242637D01*
X108030000Y-196930000D01*
X108790000Y-196930000D01*
X108829832Y-197004519D01*
X108936052Y-197133948D01*
X109065481Y-197240168D01*
X109213145Y-197319097D01*
X109373371Y-197367700D01*
X109540000Y-197384112D01*
X111440000Y-197384112D01*
X111606629Y-197367700D01*
X111766855Y-197319097D01*
X111914519Y-197240168D01*
X112043948Y-197133948D01*
X112150168Y-197004519D01*
X112190000Y-196930000D01*
X113804555Y-196930000D01*
X113782299Y-197003371D01*
X113765887Y-197170000D01*
X113770000Y-197857500D01*
X113982500Y-198070000D01*
X115520000Y-198070000D01*
X115520000Y-198050000D01*
X115620000Y-198050000D01*
X115620000Y-198070000D01*
X115640000Y-198070000D01*
X115640000Y-198170000D01*
X115620000Y-198170000D01*
X115620000Y-198190000D01*
X115520000Y-198190000D01*
X115520000Y-198170000D01*
X113982500Y-198170000D01*
X113770000Y-198382500D01*
X113765887Y-199070000D01*
X113782299Y-199236629D01*
X113828823Y-199390002D01*
X113782300Y-199543371D01*
X113765888Y-199710000D01*
X113765888Y-201610000D01*
X113782300Y-201776629D01*
X113830903Y-201936855D01*
X113909832Y-202084519D01*
X114016052Y-202213948D01*
X114145481Y-202320168D01*
X114293145Y-202399097D01*
X114453371Y-202447700D01*
X114620000Y-202464112D01*
X116520000Y-202464112D01*
X116686629Y-202447700D01*
X116846855Y-202399097D01*
X116994519Y-202320168D01*
X117123948Y-202213948D01*
X117230168Y-202084519D01*
X117270000Y-202010000D01*
X117408681Y-202010000D01*
X117475000Y-202016532D01*
X117541319Y-202010000D01*
X117541321Y-202010000D01*
X117739646Y-201990467D01*
X117994122Y-201913272D01*
X118228649Y-201787915D01*
X118434213Y-201619213D01*
X118441773Y-201610000D01*
X123925887Y-201610000D01*
X123942299Y-201776629D01*
X123990902Y-201936855D01*
X124069831Y-202084520D01*
X124176051Y-202213949D01*
X124305480Y-202320169D01*
X124453145Y-202399098D01*
X124613371Y-202447701D01*
X124780000Y-202464113D01*
X125467500Y-202460000D01*
X125680000Y-202247500D01*
X125680000Y-200710000D01*
X124142500Y-200710000D01*
X123930000Y-200922500D01*
X123925887Y-201610000D01*
X118441773Y-201610000D01*
X118476492Y-201567696D01*
X119017692Y-201026495D01*
X119069213Y-200984213D01*
X119237915Y-200778649D01*
X119328060Y-200610000D01*
X119363272Y-200544123D01*
X119381899Y-200482716D01*
X119440467Y-200289646D01*
X119460000Y-200091321D01*
X119460000Y-200091319D01*
X119466532Y-200025000D01*
X119460000Y-199958681D01*
X119460000Y-188026320D01*
X119466532Y-187960000D01*
X119460000Y-187893679D01*
X119460000Y-187120000D01*
X119534519Y-187080168D01*
X119663948Y-186973948D01*
X119770168Y-186844519D01*
X119849097Y-186696855D01*
X119897700Y-186536629D01*
X119914112Y-186370000D01*
X119914112Y-184470000D01*
X119897700Y-184303371D01*
X119849097Y-184143145D01*
X119770168Y-183995481D01*
X119663948Y-183866052D01*
X119534519Y-183759832D01*
X119386855Y-183680903D01*
X119226629Y-183632300D01*
X119060000Y-183615888D01*
X117160000Y-183615888D01*
X116993371Y-183632300D01*
X116833145Y-183680903D01*
X116685481Y-183759832D01*
X116556052Y-183866052D01*
X116449832Y-183995481D01*
X116370903Y-184143145D01*
X116322300Y-184303371D01*
X116305888Y-184470000D01*
X116305888Y-186370000D01*
X116322300Y-186536629D01*
X116344556Y-186610000D01*
X113096319Y-186610000D01*
X113030000Y-186603468D01*
X112963681Y-186610000D01*
X112963679Y-186610000D01*
X112765354Y-186629533D01*
X112510878Y-186706728D01*
X112492584Y-186716506D01*
X112449097Y-186573145D01*
X112370168Y-186425481D01*
X112263948Y-186296052D01*
X112134519Y-186189832D01*
X112060001Y-186150001D01*
X112134520Y-186110169D01*
X112263949Y-186003949D01*
X112370169Y-185874520D01*
X112449098Y-185726855D01*
X112497701Y-185566629D01*
X112514113Y-185400000D01*
X112510000Y-184412500D01*
X112297500Y-184200000D01*
X110460000Y-184200000D01*
X110460000Y-184220000D01*
X110360000Y-184220000D01*
X110360000Y-184200000D01*
X110340000Y-184200000D01*
X110340000Y-184100000D01*
X110360000Y-184100000D01*
X110360000Y-184080000D01*
X110460000Y-184080000D01*
X110460000Y-184100000D01*
X112297500Y-184100000D01*
X112510000Y-183887500D01*
X112514113Y-182900000D01*
X112497701Y-182733371D01*
X112449098Y-182573145D01*
X112370169Y-182425480D01*
X112263949Y-182296051D01*
X112134520Y-182189831D01*
X112060001Y-182149999D01*
X112134519Y-182110168D01*
X112263948Y-182003948D01*
X112370168Y-181874519D01*
X112449097Y-181726855D01*
X112497700Y-181566629D01*
X112514112Y-181400000D01*
X112514112Y-178900000D01*
X112497700Y-178733371D01*
X112449097Y-178573145D01*
X112370168Y-178425481D01*
X112263948Y-178296052D01*
X112134519Y-178189832D01*
X111986855Y-178110903D01*
X111826629Y-178062300D01*
X111660000Y-178045888D01*
X109160000Y-178045888D01*
X108993371Y-178062300D01*
X108833145Y-178110903D01*
X108685481Y-178189832D01*
X108556052Y-178296052D01*
X108449832Y-178425481D01*
X108370903Y-178573145D01*
X108322300Y-178733371D01*
X108305888Y-178900000D01*
X108305888Y-179421700D01*
X108126491Y-179242303D01*
X108084213Y-179190787D01*
X107878649Y-179022085D01*
X107644122Y-178896728D01*
X107509776Y-178855974D01*
X107497700Y-178733371D01*
X107449097Y-178573145D01*
X107370168Y-178425481D01*
X107263948Y-178296052D01*
X107134519Y-178189832D01*
X106986855Y-178110903D01*
X106826629Y-178062300D01*
X106660000Y-178045888D01*
X104162710Y-178045888D01*
X104123272Y-177915878D01*
X103997915Y-177681351D01*
X103949794Y-177622716D01*
X103871489Y-177527301D01*
X103871487Y-177527299D01*
X103829212Y-177475787D01*
X103777701Y-177433513D01*
X103408300Y-177064112D01*
X105110000Y-177064112D01*
X105276629Y-177047700D01*
X105410000Y-177007243D01*
X105543371Y-177047700D01*
X105710000Y-177064112D01*
X107610000Y-177064112D01*
X107776629Y-177047700D01*
X107909998Y-177007244D01*
X108043371Y-177047701D01*
X108210000Y-177064113D01*
X108897500Y-177060000D01*
X109110000Y-176847500D01*
X109110000Y-175310000D01*
X109210000Y-175310000D01*
X109210000Y-176847500D01*
X109422500Y-177060000D01*
X110110000Y-177064113D01*
X110276629Y-177047701D01*
X110436855Y-176999098D01*
X110584520Y-176920169D01*
X110713949Y-176813949D01*
X110820169Y-176684520D01*
X110899098Y-176536855D01*
X110947701Y-176376629D01*
X110964113Y-176210000D01*
X110960000Y-175522500D01*
X110747500Y-175310000D01*
X109210000Y-175310000D01*
X109110000Y-175310000D01*
X109090000Y-175310000D01*
X109090000Y-175210000D01*
X109110000Y-175210000D01*
X109110000Y-173672500D01*
X109210000Y-173672500D01*
X109210000Y-175210000D01*
X110747500Y-175210000D01*
X110960000Y-174997500D01*
X110964113Y-174310000D01*
X110947701Y-174143371D01*
X110899098Y-173983145D01*
X110820169Y-173835480D01*
X110713949Y-173706051D01*
X110584520Y-173599831D01*
X110436855Y-173520902D01*
X110276629Y-173472299D01*
X110110000Y-173455887D01*
X109422500Y-173460000D01*
X109210000Y-173672500D01*
X109110000Y-173672500D01*
X108897500Y-173460000D01*
X108210000Y-173455887D01*
X108043371Y-173472299D01*
X107909998Y-173512756D01*
X107776629Y-173472300D01*
X107610000Y-173455888D01*
X105710000Y-173455888D01*
X105543371Y-173472300D01*
X105410000Y-173512757D01*
X105276629Y-173472300D01*
X105110000Y-173455888D01*
X103210000Y-173455888D01*
X103043371Y-173472300D01*
X103010000Y-173482423D01*
X103010000Y-173481319D01*
X103016532Y-173415000D01*
X103008975Y-173338272D01*
X102990467Y-173150354D01*
X102950000Y-173016953D01*
X102950000Y-171130000D01*
X103605887Y-171130000D01*
X103622299Y-171296629D01*
X103670902Y-171456855D01*
X103749831Y-171604520D01*
X103856051Y-171733949D01*
X103985480Y-171840169D01*
X104133145Y-171919098D01*
X104293371Y-171967701D01*
X104460000Y-171984113D01*
X105147500Y-171980000D01*
X105360000Y-171767500D01*
X105360000Y-170230000D01*
X105460000Y-170230000D01*
X105460000Y-171767500D01*
X105672500Y-171980000D01*
X106360000Y-171984113D01*
X106526629Y-171967701D01*
X106686855Y-171919098D01*
X106834520Y-171840169D01*
X106963949Y-171733949D01*
X107070169Y-171604520D01*
X107149098Y-171456855D01*
X107197701Y-171296629D01*
X107214113Y-171130000D01*
X107210000Y-170442500D01*
X106997500Y-170230000D01*
X105460000Y-170230000D01*
X105360000Y-170230000D01*
X103822500Y-170230000D01*
X103610000Y-170442500D01*
X103605887Y-171130000D01*
X102950000Y-171130000D01*
X102950000Y-169230000D01*
X103605887Y-169230000D01*
X103610000Y-169917500D01*
X103822500Y-170130000D01*
X105360000Y-170130000D01*
X105360000Y-168592500D01*
X105460000Y-168592500D01*
X105460000Y-170130000D01*
X106997500Y-170130000D01*
X107210000Y-169917500D01*
X107214113Y-169230000D01*
X107197701Y-169063371D01*
X107149098Y-168903145D01*
X107070169Y-168755480D01*
X106963949Y-168626051D01*
X106834520Y-168519831D01*
X106686855Y-168440902D01*
X106526629Y-168392299D01*
X106360000Y-168375887D01*
X105672500Y-168380000D01*
X105460000Y-168592500D01*
X105360000Y-168592500D01*
X105147500Y-168380000D01*
X104460000Y-168375887D01*
X104293371Y-168392299D01*
X104133145Y-168440902D01*
X103985480Y-168519831D01*
X103856051Y-168626051D01*
X103749831Y-168755480D01*
X103670902Y-168903145D01*
X103622299Y-169063371D01*
X103605887Y-169230000D01*
X102950000Y-169230000D01*
X102950000Y-166800000D01*
X103024519Y-166760168D01*
X103153948Y-166653948D01*
X103260168Y-166524519D01*
X103339097Y-166376855D01*
X103387700Y-166216629D01*
X103404112Y-166050000D01*
X103404112Y-164150000D01*
X103387700Y-163983371D01*
X103341176Y-163830000D01*
X103387700Y-163676629D01*
X103404112Y-163510000D01*
X103404112Y-161610000D01*
X103387700Y-161443371D01*
X103341176Y-161290000D01*
X103387700Y-161136629D01*
X103404112Y-160970000D01*
X103404112Y-159070000D01*
X103387700Y-158903371D01*
X103341176Y-158750000D01*
X103387700Y-158596629D01*
X103404112Y-158430000D01*
X107415887Y-158430000D01*
X107432299Y-158596629D01*
X107478823Y-158750002D01*
X107432300Y-158903371D01*
X107415888Y-159070000D01*
X107415888Y-160970000D01*
X107432300Y-161136629D01*
X107478824Y-161290000D01*
X107432300Y-161443371D01*
X107415888Y-161610000D01*
X107415888Y-163510000D01*
X107432300Y-163676629D01*
X107480903Y-163836855D01*
X107559832Y-163984519D01*
X107666052Y-164113948D01*
X107697030Y-164139371D01*
X107624861Y-164247380D01*
X107489173Y-164574959D01*
X107420000Y-164922716D01*
X107420000Y-165277284D01*
X107489173Y-165625041D01*
X107624861Y-165952620D01*
X107821849Y-166247433D01*
X108072567Y-166498151D01*
X108367380Y-166695139D01*
X108694959Y-166830827D01*
X109042716Y-166900000D01*
X109397284Y-166900000D01*
X109745041Y-166830827D01*
X110072620Y-166695139D01*
X110367433Y-166498151D01*
X110415584Y-166450000D01*
X112600000Y-166450000D01*
X112639832Y-166524519D01*
X112746052Y-166653948D01*
X112875481Y-166760168D01*
X113023145Y-166839097D01*
X113183371Y-166887700D01*
X113350000Y-166904112D01*
X115250000Y-166904112D01*
X115416629Y-166887700D01*
X115490000Y-166865443D01*
X115490001Y-168414557D01*
X115416629Y-168392300D01*
X115250000Y-168375888D01*
X113350000Y-168375888D01*
X113183371Y-168392300D01*
X113023145Y-168440903D01*
X112875481Y-168519832D01*
X112746052Y-168626052D01*
X112639832Y-168755481D01*
X112560903Y-168903145D01*
X112512300Y-169063371D01*
X112495888Y-169230000D01*
X112495888Y-171130000D01*
X112512300Y-171296629D01*
X112560903Y-171456855D01*
X112639832Y-171604519D01*
X112746052Y-171733948D01*
X112875481Y-171840168D01*
X113023145Y-171919097D01*
X113183371Y-171967700D01*
X113350000Y-171984112D01*
X115250000Y-171984112D01*
X115416629Y-171967700D01*
X115572001Y-171920570D01*
X115586729Y-171969122D01*
X115712085Y-172203649D01*
X115838510Y-172357698D01*
X115838514Y-172357702D01*
X115880788Y-172409213D01*
X115932299Y-172451487D01*
X121840000Y-178359189D01*
X121840001Y-183720000D01*
X121765481Y-183759832D01*
X121636052Y-183866052D01*
X121529832Y-183995481D01*
X121450903Y-184143145D01*
X121402300Y-184303371D01*
X121385888Y-184470000D01*
X121385888Y-186370000D01*
X121402300Y-186536629D01*
X121450903Y-186696855D01*
X121529832Y-186844519D01*
X121636052Y-186973948D01*
X121765481Y-187080168D01*
X121840000Y-187120000D01*
X121840001Y-194878671D01*
X121833468Y-194945000D01*
X121859534Y-195209646D01*
X121936729Y-195464122D01*
X122062085Y-195698649D01*
X122188510Y-195852698D01*
X122188514Y-195852702D01*
X122230788Y-195904213D01*
X122282300Y-195946487D01*
X122823505Y-196487692D01*
X122865787Y-196539213D01*
X123071351Y-196707915D01*
X123115197Y-196731351D01*
X123305877Y-196833272D01*
X123365105Y-196851239D01*
X123560354Y-196910467D01*
X123758679Y-196930000D01*
X123758681Y-196930000D01*
X123825000Y-196936532D01*
X123891319Y-196930000D01*
X123964556Y-196930000D01*
X123942300Y-197003371D01*
X123925888Y-197170000D01*
X123925888Y-199070000D01*
X123942300Y-199236629D01*
X123988823Y-199389998D01*
X123942299Y-199543371D01*
X123925887Y-199710000D01*
X123930000Y-200397500D01*
X124142500Y-200610000D01*
X125680000Y-200610000D01*
X125680000Y-200590000D01*
X125780000Y-200590000D01*
X125780000Y-200610000D01*
X127317500Y-200610000D01*
X127530000Y-200397500D01*
X127534113Y-199710000D01*
X127517701Y-199543371D01*
X127471177Y-199389998D01*
X127517700Y-199236629D01*
X127534112Y-199070000D01*
X127534112Y-197170000D01*
X127517700Y-197003371D01*
X127471176Y-196850000D01*
X127517700Y-196696629D01*
X127534112Y-196530000D01*
X127534112Y-194630000D01*
X127517700Y-194463371D01*
X127471176Y-194310000D01*
X127517700Y-194156629D01*
X127534112Y-193990000D01*
X127534112Y-192090000D01*
X127517700Y-191923371D01*
X127471176Y-191770000D01*
X127517700Y-191616629D01*
X127534112Y-191450000D01*
X127534112Y-189550000D01*
X127517700Y-189383371D01*
X127469097Y-189223145D01*
X127390168Y-189075481D01*
X127283948Y-188946052D01*
X127154519Y-188839832D01*
X127080000Y-188800000D01*
X127080000Y-180835445D01*
X127153371Y-180857701D01*
X127320000Y-180874113D01*
X128007500Y-180870000D01*
X128220000Y-180657500D01*
X128220000Y-179120000D01*
X128320000Y-179120000D01*
X128320000Y-180657500D01*
X128532500Y-180870000D01*
X129220000Y-180874113D01*
X129386629Y-180857701D01*
X129546855Y-180809098D01*
X129694520Y-180730169D01*
X129823949Y-180623949D01*
X129930169Y-180494520D01*
X130009098Y-180346855D01*
X130057701Y-180186629D01*
X130074113Y-180020000D01*
X130070000Y-179332500D01*
X129857500Y-179120000D01*
X128320000Y-179120000D01*
X128220000Y-179120000D01*
X128200000Y-179120000D01*
X128200000Y-179020000D01*
X128220000Y-179020000D01*
X128220000Y-177482500D01*
X128320000Y-177482500D01*
X128320000Y-179020000D01*
X129857500Y-179020000D01*
X130070000Y-178807500D01*
X130074113Y-178120000D01*
X130057701Y-177953371D01*
X130009098Y-177793145D01*
X129930169Y-177645480D01*
X129823949Y-177516051D01*
X129694520Y-177409831D01*
X129546855Y-177330902D01*
X129386629Y-177282299D01*
X129220000Y-177265887D01*
X128532500Y-177270000D01*
X128320000Y-177482500D01*
X128220000Y-177482500D01*
X128007500Y-177270000D01*
X127320000Y-177265887D01*
X127153371Y-177282299D01*
X127080000Y-177304555D01*
X127080000Y-177231310D01*
X127086531Y-177164999D01*
X127080000Y-177098688D01*
X127080000Y-177098679D01*
X127060467Y-176900354D01*
X126983272Y-176645878D01*
X126875082Y-176443468D01*
X126857915Y-176411350D01*
X126731490Y-176257301D01*
X126731483Y-176257294D01*
X126689212Y-176205787D01*
X126637706Y-176163517D01*
X125810000Y-175335812D01*
X125810000Y-171880000D01*
X125884519Y-171840168D01*
X126013948Y-171733948D01*
X126120168Y-171604519D01*
X126199097Y-171456855D01*
X126247700Y-171296629D01*
X126264112Y-171130000D01*
X126264112Y-169230000D01*
X126247700Y-169063371D01*
X126199097Y-168903145D01*
X126120168Y-168755481D01*
X126013948Y-168626052D01*
X125884519Y-168519832D01*
X125736855Y-168440903D01*
X125576629Y-168392300D01*
X125410000Y-168375888D01*
X123510000Y-168375888D01*
X123343371Y-168392300D01*
X123190000Y-168438824D01*
X123036629Y-168392300D01*
X122870000Y-168375888D01*
X120970000Y-168375888D01*
X120803371Y-168392300D01*
X120650000Y-168438824D01*
X120496629Y-168392300D01*
X120330000Y-168375888D01*
X118430000Y-168375888D01*
X118263371Y-168392300D01*
X118190000Y-168414556D01*
X118190000Y-163896319D01*
X118196532Y-163830000D01*
X118190000Y-163763679D01*
X118170467Y-163565354D01*
X118094113Y-163313649D01*
X118093272Y-163310877D01*
X117967915Y-163076350D01*
X117841490Y-162922302D01*
X117841487Y-162922299D01*
X117799212Y-162870787D01*
X117747701Y-162828513D01*
X114031491Y-159112303D01*
X113996774Y-159070000D01*
X117575888Y-159070000D01*
X117575888Y-160970000D01*
X117592300Y-161136629D01*
X117640903Y-161296855D01*
X117719832Y-161444519D01*
X117826052Y-161573948D01*
X117955481Y-161680168D01*
X118030001Y-161720000D01*
X118030001Y-161858672D01*
X118023468Y-161925000D01*
X118049534Y-162189646D01*
X118126729Y-162444122D01*
X118252085Y-162678649D01*
X118378510Y-162832698D01*
X118378514Y-162832702D01*
X118420788Y-162884213D01*
X118472300Y-162926487D01*
X119013505Y-163467692D01*
X119055787Y-163519213D01*
X119261351Y-163687915D01*
X119365284Y-163743468D01*
X119495877Y-163813272D01*
X119551022Y-163830000D01*
X119750354Y-163890467D01*
X119948679Y-163910000D01*
X119948681Y-163910000D01*
X120015000Y-163916532D01*
X120081319Y-163910000D01*
X123758681Y-163910000D01*
X123825000Y-163916532D01*
X123891319Y-163910000D01*
X123891321Y-163910000D01*
X124089646Y-163890467D01*
X124344122Y-163813272D01*
X124578649Y-163687915D01*
X124784213Y-163519213D01*
X124826492Y-163467696D01*
X125367696Y-162926491D01*
X125419212Y-162884213D01*
X125587915Y-162678649D01*
X125651334Y-162560000D01*
X125713272Y-162444123D01*
X125758400Y-162295355D01*
X125790467Y-162189646D01*
X125810000Y-161991321D01*
X125810000Y-161991319D01*
X125816532Y-161925000D01*
X125810000Y-161858681D01*
X125810000Y-161720000D01*
X125884519Y-161680168D01*
X126013948Y-161573948D01*
X126120168Y-161444519D01*
X126199097Y-161296855D01*
X126247700Y-161136629D01*
X126264112Y-160970000D01*
X126264112Y-159070000D01*
X126247700Y-158903371D01*
X126199097Y-158743145D01*
X126120168Y-158595481D01*
X126013948Y-158466052D01*
X125884519Y-158359832D01*
X125736855Y-158280903D01*
X125576629Y-158232300D01*
X125410000Y-158215888D01*
X123510000Y-158215888D01*
X123343371Y-158232300D01*
X123190000Y-158278824D01*
X123036629Y-158232300D01*
X122870000Y-158215888D01*
X120970000Y-158215888D01*
X120803371Y-158232300D01*
X120650000Y-158278824D01*
X120496629Y-158232300D01*
X120330000Y-158215888D01*
X118430000Y-158215888D01*
X118263371Y-158232300D01*
X118103145Y-158280903D01*
X117955481Y-158359832D01*
X117826052Y-158466052D01*
X117719832Y-158595481D01*
X117640903Y-158743145D01*
X117592300Y-158903371D01*
X117575888Y-159070000D01*
X113996774Y-159070000D01*
X113989213Y-159060787D01*
X113783649Y-158892085D01*
X113549122Y-158766728D01*
X113294646Y-158689533D01*
X113096321Y-158670000D01*
X113096319Y-158670000D01*
X113030000Y-158663468D01*
X112963681Y-158670000D01*
X110985445Y-158670000D01*
X111007701Y-158596629D01*
X111024113Y-158430000D01*
X111020000Y-157742500D01*
X110807500Y-157530000D01*
X109270000Y-157530000D01*
X109270000Y-157550000D01*
X109170000Y-157550000D01*
X109170000Y-157530000D01*
X107632500Y-157530000D01*
X107420000Y-157742500D01*
X107415887Y-158430000D01*
X103404112Y-158430000D01*
X103404112Y-156530000D01*
X107415887Y-156530000D01*
X107420000Y-157217500D01*
X107632500Y-157430000D01*
X109170000Y-157430000D01*
X109170000Y-155892500D01*
X109270000Y-155892500D01*
X109270000Y-157430000D01*
X110807500Y-157430000D01*
X111020000Y-157217500D01*
X111024113Y-156530000D01*
X111007701Y-156363371D01*
X110959098Y-156203145D01*
X110880169Y-156055480D01*
X110773949Y-155926051D01*
X110644520Y-155819831D01*
X110496855Y-155740902D01*
X110336629Y-155692299D01*
X110170000Y-155675887D01*
X109482500Y-155680000D01*
X109270000Y-155892500D01*
X109170000Y-155892500D01*
X108957500Y-155680000D01*
X108270000Y-155675887D01*
X108103371Y-155692299D01*
X107943145Y-155740902D01*
X107795480Y-155819831D01*
X107666051Y-155926051D01*
X107559831Y-156055480D01*
X107480902Y-156203145D01*
X107432299Y-156363371D01*
X107415887Y-156530000D01*
X103404112Y-156530000D01*
X103387700Y-156363371D01*
X103339097Y-156203145D01*
X103260168Y-156055481D01*
X103153948Y-155926052D01*
X103024519Y-155819832D01*
X102876855Y-155740903D01*
X102716629Y-155692300D01*
X102550000Y-155675888D01*
X100650000Y-155675888D01*
X100483371Y-155692300D01*
X100323145Y-155740903D01*
X100175481Y-155819832D01*
X100046052Y-155926052D01*
X99939832Y-156055481D01*
X99860903Y-156203145D01*
X99812300Y-156363371D01*
X99795888Y-156530000D01*
X99795888Y-158430000D01*
X99812300Y-158596629D01*
X99834556Y-158670000D01*
X98220000Y-158670000D01*
X98180168Y-158595481D01*
X98073948Y-158466052D01*
X97944519Y-158359832D01*
X97796855Y-158280903D01*
X97636629Y-158232300D01*
X97470000Y-158215888D01*
X95570000Y-158215888D01*
X95403371Y-158232300D01*
X95330000Y-158254556D01*
X95330000Y-158039188D01*
X103096893Y-150272296D01*
X103072300Y-150353371D01*
X103055888Y-150520000D01*
X103055888Y-153520000D01*
X103072300Y-153686629D01*
X103120903Y-153846855D01*
X103199832Y-153994519D01*
X103306052Y-154123948D01*
X103435481Y-154230168D01*
X103583145Y-154309097D01*
X103743371Y-154357700D01*
X103910000Y-154374112D01*
X106910000Y-154374112D01*
X107076629Y-154357700D01*
X107236855Y-154309097D01*
X107384519Y-154230168D01*
X107513948Y-154123948D01*
X107620168Y-153994519D01*
X107699097Y-153846855D01*
X107747700Y-153686629D01*
X107764112Y-153520000D01*
X107764112Y-153369725D01*
X107959646Y-153350467D01*
X108214122Y-153273272D01*
X108448649Y-153147915D01*
X108654213Y-152979213D01*
X108696491Y-152927697D01*
X109492697Y-152131491D01*
X109544213Y-152089213D01*
X109617275Y-152000187D01*
X109712915Y-151883650D01*
X109838271Y-151649123D01*
X109838272Y-151649122D01*
X109915467Y-151394646D01*
X109935000Y-151196321D01*
X109935000Y-151196312D01*
X109941531Y-151130001D01*
X109935000Y-151063690D01*
X109935000Y-149940387D01*
X110480324Y-149940387D01*
X110796718Y-150478915D01*
X111455903Y-150853908D01*
X112175580Y-151093096D01*
X112928092Y-151187286D01*
X113684521Y-151132858D01*
X114415796Y-150931905D01*
X115093816Y-150592148D01*
X115263282Y-150478915D01*
X115579676Y-149940387D01*
X113030000Y-147390711D01*
X110480324Y-149940387D01*
X109935000Y-149940387D01*
X109935000Y-149590833D01*
X110409613Y-149869676D01*
X112959289Y-147320000D01*
X113100711Y-147320000D01*
X115650387Y-149869676D01*
X116188915Y-149553282D01*
X116563908Y-148894097D01*
X116803096Y-148174420D01*
X116897286Y-147421908D01*
X116842858Y-146665479D01*
X116641905Y-145934204D01*
X116302148Y-145256184D01*
X116188915Y-145086718D01*
X115650387Y-144770324D01*
X113100711Y-147320000D01*
X112959289Y-147320000D01*
X110409613Y-144770324D01*
X109935000Y-145049167D01*
X109935000Y-144699613D01*
X110480324Y-144699613D01*
X113030000Y-147249289D01*
X115579676Y-144699613D01*
X115263282Y-144161085D01*
X114604097Y-143786092D01*
X113884420Y-143546904D01*
X113131908Y-143452714D01*
X112375479Y-143507142D01*
X111644204Y-143708095D01*
X110966184Y-144047852D01*
X110796718Y-144161085D01*
X110480324Y-144699613D01*
X109935000Y-144699613D01*
X109935000Y-142799188D01*
X110208353Y-142525836D01*
X110335481Y-142630168D01*
X110483145Y-142709097D01*
X110643371Y-142757700D01*
X110810000Y-142774112D01*
X112710000Y-142774112D01*
X112876629Y-142757700D01*
X113036855Y-142709097D01*
X113184519Y-142630168D01*
X113313948Y-142523948D01*
X113420168Y-142394519D01*
X113499097Y-142246855D01*
X113547700Y-142086629D01*
X113564112Y-141920000D01*
X115035887Y-141920000D01*
X115052299Y-142086629D01*
X115100902Y-142246855D01*
X115179831Y-142394520D01*
X115286051Y-142523949D01*
X115415480Y-142630169D01*
X115563145Y-142709098D01*
X115723371Y-142757701D01*
X115890000Y-142774113D01*
X116577500Y-142770000D01*
X116790000Y-142557500D01*
X116790000Y-141020000D01*
X116890000Y-141020000D01*
X116890000Y-142557500D01*
X117102500Y-142770000D01*
X117790000Y-142774113D01*
X117956629Y-142757701D01*
X118116855Y-142709098D01*
X118264520Y-142630169D01*
X118393949Y-142523949D01*
X118500169Y-142394520D01*
X118579098Y-142246855D01*
X118627701Y-142086629D01*
X118644113Y-141920000D01*
X118640000Y-141232500D01*
X118427500Y-141020000D01*
X116890000Y-141020000D01*
X116790000Y-141020000D01*
X115252500Y-141020000D01*
X115040000Y-141232500D01*
X115035887Y-141920000D01*
X113564112Y-141920000D01*
X113564112Y-140020000D01*
X115035887Y-140020000D01*
X115040000Y-140707500D01*
X115252500Y-140920000D01*
X116790000Y-140920000D01*
X116790000Y-139382500D01*
X116890000Y-139382500D01*
X116890000Y-140920000D01*
X118427500Y-140920000D01*
X118640000Y-140707500D01*
X118644113Y-140020000D01*
X118627701Y-139853371D01*
X118579098Y-139693145D01*
X118500169Y-139545480D01*
X118393949Y-139416051D01*
X118264520Y-139309831D01*
X118116855Y-139230902D01*
X117956629Y-139182299D01*
X117790000Y-139165887D01*
X117102500Y-139170000D01*
X116890000Y-139382500D01*
X116790000Y-139382500D01*
X116577500Y-139170000D01*
X115890000Y-139165887D01*
X115723371Y-139182299D01*
X115563145Y-139230902D01*
X115415480Y-139309831D01*
X115286051Y-139416051D01*
X115179831Y-139545480D01*
X115100902Y-139693145D01*
X115052299Y-139853371D01*
X115035887Y-140020000D01*
X113564112Y-140020000D01*
X113547700Y-139853371D01*
X113499097Y-139693145D01*
X113420168Y-139545481D01*
X113313948Y-139416052D01*
X113184519Y-139309832D01*
X113036855Y-139230903D01*
X112876629Y-139182300D01*
X112710000Y-139165888D01*
X110810000Y-139165888D01*
X110643371Y-139182300D01*
X110483145Y-139230903D01*
X110335481Y-139309832D01*
X110206052Y-139416052D01*
X110099832Y-139545481D01*
X110060000Y-139620000D01*
X109921310Y-139620000D01*
X109854999Y-139613469D01*
X109788688Y-139620000D01*
X109788679Y-139620000D01*
X109590354Y-139639533D01*
X109335878Y-139716728D01*
X109226707Y-139775081D01*
X109101350Y-139842085D01*
X108947301Y-139968510D01*
X108947298Y-139968513D01*
X108895787Y-140010787D01*
X108853513Y-140062298D01*
X107764112Y-141151700D01*
X107764112Y-141120000D01*
X107747700Y-140953371D01*
X107699097Y-140793145D01*
X107620168Y-140645481D01*
X107513948Y-140516052D01*
X107384519Y-140409832D01*
X107236855Y-140330903D01*
X107076629Y-140282300D01*
X106910000Y-140265888D01*
X103910000Y-140265888D01*
X103743371Y-140282300D01*
X103583145Y-140330903D01*
X103435481Y-140409832D01*
X103306052Y-140516052D01*
X103199832Y-140645481D01*
X103194550Y-140655362D01*
X102601490Y-140062302D01*
X102559213Y-140010787D01*
X102353649Y-139842085D01*
X102119122Y-139716728D01*
X101864646Y-139639533D01*
X101666321Y-139620000D01*
X101666319Y-139620000D01*
X101600000Y-139613468D01*
X101533681Y-139620000D01*
X100760000Y-139620000D01*
X100720168Y-139545481D01*
X100613948Y-139416052D01*
X100570019Y-139380000D01*
X103605887Y-139380000D01*
X103622299Y-139546629D01*
X103670902Y-139706855D01*
X103749831Y-139854520D01*
X103856051Y-139983949D01*
X103985480Y-140090169D01*
X104133145Y-140169098D01*
X104293371Y-140217701D01*
X104460000Y-140234113D01*
X105147500Y-140230000D01*
X105360000Y-140017500D01*
X105360000Y-138480000D01*
X105460000Y-138480000D01*
X105460000Y-140017500D01*
X105672500Y-140230000D01*
X106360000Y-140234113D01*
X106526629Y-140217701D01*
X106686855Y-140169098D01*
X106834520Y-140090169D01*
X106963949Y-139983949D01*
X107070169Y-139854520D01*
X107149098Y-139706855D01*
X107197701Y-139546629D01*
X107214113Y-139380000D01*
X107210000Y-138692500D01*
X106997500Y-138480000D01*
X105460000Y-138480000D01*
X105360000Y-138480000D01*
X103822500Y-138480000D01*
X103610000Y-138692500D01*
X103605887Y-139380000D01*
X100570019Y-139380000D01*
X100484519Y-139309832D01*
X100336855Y-139230903D01*
X100176629Y-139182300D01*
X100010000Y-139165888D01*
X98110000Y-139165888D01*
X97943371Y-139182300D01*
X97783145Y-139230903D01*
X97635481Y-139309832D01*
X97506052Y-139416052D01*
X97399832Y-139545481D01*
X97320903Y-139693145D01*
X97272300Y-139853371D01*
X97255888Y-140020000D01*
X97255888Y-141920000D01*
X97272300Y-142086629D01*
X97320903Y-142246855D01*
X97399832Y-142394519D01*
X97506052Y-142523948D01*
X97635481Y-142630168D01*
X97783145Y-142709097D01*
X97943371Y-142757700D01*
X98110000Y-142774112D01*
X100010000Y-142774112D01*
X100176629Y-142757700D01*
X100336855Y-142709097D01*
X100484519Y-142630168D01*
X100613948Y-142523948D01*
X100720168Y-142394519D01*
X100760000Y-142320000D01*
X101040812Y-142320000D01*
X102248509Y-143527697D01*
X102290787Y-143579213D01*
X102496351Y-143747915D01*
X102730878Y-143873272D01*
X102985354Y-143950467D01*
X103055888Y-143957414D01*
X103055888Y-144120000D01*
X103072300Y-144286629D01*
X103120903Y-144446855D01*
X103199832Y-144594519D01*
X103306052Y-144723948D01*
X103435481Y-144830168D01*
X103583145Y-144909097D01*
X103743371Y-144957700D01*
X103868251Y-144970000D01*
X103743371Y-144982300D01*
X103583145Y-145030903D01*
X103435481Y-145109832D01*
X103306052Y-145216052D01*
X103199832Y-145345481D01*
X103120903Y-145493145D01*
X103072300Y-145653371D01*
X103055888Y-145820000D01*
X103055888Y-145970000D01*
X102936319Y-145970000D01*
X102870000Y-145963468D01*
X102803681Y-145970000D01*
X102803679Y-145970000D01*
X102605354Y-145989533D01*
X102410105Y-146048761D01*
X102350877Y-146066728D01*
X102233615Y-146129406D01*
X102116351Y-146192085D01*
X101910787Y-146360787D01*
X101868505Y-146412308D01*
X101603695Y-146677117D01*
X101602858Y-146665479D01*
X101401905Y-145934204D01*
X101062148Y-145256184D01*
X100948915Y-145086718D01*
X100410387Y-144770324D01*
X97860711Y-147320000D01*
X97874853Y-147334142D01*
X97804142Y-147404853D01*
X97790000Y-147390711D01*
X95240324Y-149940387D01*
X95556718Y-150478915D01*
X96215903Y-150853908D01*
X96935580Y-151093096D01*
X97688092Y-151187286D01*
X98415893Y-151134918D01*
X93072299Y-156478513D01*
X93020788Y-156520787D01*
X92978514Y-156572298D01*
X92978510Y-156572302D01*
X92852085Y-156726351D01*
X92790000Y-156842505D01*
X92790000Y-156640000D01*
X92864519Y-156600168D01*
X92993948Y-156493948D01*
X93100168Y-156364519D01*
X93179097Y-156216855D01*
X93227700Y-156056629D01*
X93244112Y-155890000D01*
X93244112Y-153990000D01*
X93227700Y-153823371D01*
X93179097Y-153663145D01*
X93100168Y-153515481D01*
X92993948Y-153386052D01*
X92864519Y-153279832D01*
X92716855Y-153200903D01*
X92556629Y-153152300D01*
X92390000Y-153135888D01*
X90490000Y-153135888D01*
X90323371Y-153152300D01*
X90170000Y-153198824D01*
X90016629Y-153152300D01*
X89850000Y-153135888D01*
X87950000Y-153135888D01*
X87783371Y-153152300D01*
X87623145Y-153200903D01*
X87475481Y-153279832D01*
X87346052Y-153386052D01*
X87322334Y-153414952D01*
X87071537Y-153277127D01*
X86733455Y-153170265D01*
X86381021Y-153131413D01*
X86027779Y-153162064D01*
X85687305Y-153261039D01*
X85372682Y-153424537D01*
X85337724Y-153447893D01*
X85267219Y-153776508D01*
X86360000Y-154869289D01*
X86374142Y-154855147D01*
X86444853Y-154925858D01*
X86430711Y-154940000D01*
X86444853Y-154954142D01*
X86374142Y-155024853D01*
X86360000Y-155010711D01*
X85267219Y-156103492D01*
X85337724Y-156432107D01*
X85648463Y-156602873D01*
X85986545Y-156709735D01*
X86338979Y-156748587D01*
X86692221Y-156717936D01*
X87032695Y-156618961D01*
X87324289Y-156467430D01*
X87346052Y-156493948D01*
X87475481Y-156600168D01*
X87550000Y-156640000D01*
X87550001Y-158320000D01*
X87475481Y-158359832D01*
X87346052Y-158466052D01*
X87239832Y-158595481D01*
X87160903Y-158743145D01*
X87112300Y-158903371D01*
X87095888Y-159070000D01*
X87095888Y-160970000D01*
X87112300Y-161136629D01*
X87160903Y-161296855D01*
X87239832Y-161444519D01*
X87344164Y-161571647D01*
X85371648Y-163544164D01*
X85244519Y-163439832D01*
X85096855Y-163360903D01*
X84936629Y-163312300D01*
X84770000Y-163295888D01*
X82870000Y-163295888D01*
X82703371Y-163312300D01*
X82543145Y-163360903D01*
X82395481Y-163439832D01*
X82266052Y-163546052D01*
X82159832Y-163675481D01*
X82080903Y-163823145D01*
X82032300Y-163983371D01*
X82015888Y-164150000D01*
X82015888Y-166050000D01*
X82032300Y-166216629D01*
X82080903Y-166376855D01*
X82159832Y-166524519D01*
X82266052Y-166653948D01*
X82395481Y-166760168D01*
X82543145Y-166839097D01*
X82703371Y-166887700D01*
X82870000Y-166904112D01*
X84770000Y-166904112D01*
X84936629Y-166887700D01*
X85096855Y-166839097D01*
X85244519Y-166760168D01*
X85373948Y-166653948D01*
X85480168Y-166524519D01*
X85520000Y-166450000D01*
X85658681Y-166450000D01*
X85725000Y-166456532D01*
X85791319Y-166450000D01*
X85791321Y-166450000D01*
X85989646Y-166430467D01*
X86244122Y-166353272D01*
X86478649Y-166227915D01*
X86684213Y-166059213D01*
X86726491Y-166007697D01*
X89807707Y-162926482D01*
X89859212Y-162884213D01*
X89901483Y-162832706D01*
X89901490Y-162832699D01*
X90027915Y-162678650D01*
X90153271Y-162444123D01*
X90153272Y-162444122D01*
X90230467Y-162189646D01*
X90250000Y-161991321D01*
X90250000Y-161991312D01*
X90256531Y-161925001D01*
X90250000Y-161858690D01*
X90250000Y-161785444D01*
X90323371Y-161807700D01*
X90490000Y-161824112D01*
X92390000Y-161824112D01*
X92556629Y-161807700D01*
X92710000Y-161761176D01*
X92863371Y-161807700D01*
X93030000Y-161824112D01*
X94930000Y-161824112D01*
X95096629Y-161807700D01*
X95250000Y-161761176D01*
X95403371Y-161807700D01*
X95570000Y-161824112D01*
X97470000Y-161824112D01*
X97636629Y-161807700D01*
X97796855Y-161759097D01*
X97944519Y-161680168D01*
X98073948Y-161573948D01*
X98180168Y-161444519D01*
X98220000Y-161370000D01*
X99057504Y-161370000D01*
X98941350Y-161432085D01*
X98787301Y-161558510D01*
X98787298Y-161558513D01*
X98735787Y-161600787D01*
X98693513Y-161652298D01*
X95612299Y-164733513D01*
X95560788Y-164775787D01*
X95518514Y-164827298D01*
X95518510Y-164827302D01*
X95392085Y-164981351D01*
X95266729Y-165215878D01*
X95189534Y-165470354D01*
X95163468Y-165735000D01*
X95170001Y-165801329D01*
X95170000Y-168414557D01*
X95096629Y-168392300D01*
X94930000Y-168375888D01*
X93030000Y-168375888D01*
X92863371Y-168392300D01*
X92710000Y-168438824D01*
X92556629Y-168392300D01*
X92390000Y-168375888D01*
X90490000Y-168375888D01*
X90323371Y-168392300D01*
X90170000Y-168438824D01*
X90016629Y-168392300D01*
X89850000Y-168375888D01*
X87950000Y-168375888D01*
X87783371Y-168392300D01*
X87623145Y-168440903D01*
X87475481Y-168519832D01*
X87346052Y-168626052D01*
X87239832Y-168755481D01*
X87160903Y-168903145D01*
X87112300Y-169063371D01*
X87095888Y-169230000D01*
X87095888Y-171130000D01*
X87112300Y-171296629D01*
X87134556Y-171370000D01*
X85585444Y-171370000D01*
X85607700Y-171296629D01*
X85624112Y-171130000D01*
X85624112Y-169230000D01*
X85607700Y-169063371D01*
X85559097Y-168903145D01*
X85480168Y-168755481D01*
X85373948Y-168626052D01*
X85244519Y-168519832D01*
X85096855Y-168440903D01*
X84936629Y-168392300D01*
X84770000Y-168375888D01*
X82870000Y-168375888D01*
X82703371Y-168392300D01*
X82543145Y-168440903D01*
X82395481Y-168519832D01*
X82266052Y-168626052D01*
X82159832Y-168755481D01*
X82080903Y-168903145D01*
X82032300Y-169063371D01*
X82015888Y-169230000D01*
X82015888Y-171130000D01*
X82032300Y-171296629D01*
X82080903Y-171456855D01*
X82159832Y-171604519D01*
X82266052Y-171733948D01*
X82395481Y-171840168D01*
X82470001Y-171880000D01*
X82470001Y-172018672D01*
X82463468Y-172085000D01*
X82489534Y-172349646D01*
X82566729Y-172604122D01*
X82692085Y-172838649D01*
X82818510Y-172992698D01*
X82818514Y-172992702D01*
X82860788Y-173044213D01*
X82912300Y-173086487D01*
X83453505Y-173627692D01*
X83495787Y-173679213D01*
X83701351Y-173847915D01*
X83740001Y-173868574D01*
X83740000Y-186260000D01*
X83665481Y-186299832D01*
X83536052Y-186406052D01*
X83429832Y-186535481D01*
X83390000Y-186610000D01*
X81710000Y-186610000D01*
X81670168Y-186535481D01*
X81563948Y-186406052D01*
X81434519Y-186299832D01*
X81286855Y-186220903D01*
X81126629Y-186172300D01*
X80960000Y-186155888D01*
X79060000Y-186155888D01*
X78893371Y-186172300D01*
X78733145Y-186220903D01*
X78585481Y-186299832D01*
X78456052Y-186406052D01*
X78349832Y-186535481D01*
X78270903Y-186683145D01*
X78222300Y-186843371D01*
X78205888Y-187010000D01*
X78205888Y-188910000D01*
X78222300Y-189076629D01*
X78268824Y-189230000D01*
X78222300Y-189383371D01*
X78205888Y-189550000D01*
X78205888Y-191450000D01*
X78222300Y-191616629D01*
X78270903Y-191776855D01*
X78349832Y-191924519D01*
X78456052Y-192053948D01*
X78484952Y-192077666D01*
X78347127Y-192328463D01*
X78240265Y-192666545D01*
X78201413Y-193018979D01*
X77250000Y-193018979D01*
X77250000Y-154918979D01*
X84551413Y-154918979D01*
X84582064Y-155272221D01*
X84681039Y-155612695D01*
X84844537Y-155927318D01*
X84867893Y-155962276D01*
X85196508Y-156032781D01*
X86289289Y-154940000D01*
X85196508Y-153847219D01*
X84867893Y-153917724D01*
X84697127Y-154228463D01*
X84590265Y-154566545D01*
X84551413Y-154918979D01*
X77250000Y-154918979D01*
X77250000Y-147218092D01*
X93922714Y-147218092D01*
X93977142Y-147974521D01*
X94178095Y-148705796D01*
X94517852Y-149383816D01*
X94631085Y-149553282D01*
X95169613Y-149869676D01*
X97719289Y-147320000D01*
X95169613Y-144770324D01*
X94631085Y-145086718D01*
X94256092Y-145745903D01*
X94016904Y-146465580D01*
X93922714Y-147218092D01*
X77250000Y-147218092D01*
X77250000Y-144699613D01*
X95240324Y-144699613D01*
X97790000Y-147249289D01*
X100339676Y-144699613D01*
X100023282Y-144161085D01*
X99364097Y-143786092D01*
X98644420Y-143546904D01*
X97891908Y-143452714D01*
X97135479Y-143507142D01*
X96404204Y-143708095D01*
X95726184Y-144047852D01*
X95556718Y-144161085D01*
X95240324Y-144699613D01*
X77250000Y-144699613D01*
X77250000Y-140020000D01*
X79475888Y-140020000D01*
X79475888Y-141920000D01*
X79492300Y-142086629D01*
X79540903Y-142246855D01*
X79619832Y-142394519D01*
X79726052Y-142523948D01*
X79855481Y-142630168D01*
X80003145Y-142709097D01*
X80163371Y-142757700D01*
X80330000Y-142774112D01*
X82230000Y-142774112D01*
X82396629Y-142757700D01*
X82556855Y-142709097D01*
X82704519Y-142630168D01*
X82833948Y-142523948D01*
X82940168Y-142394519D01*
X83019097Y-142246855D01*
X83067700Y-142086629D01*
X83084112Y-141920000D01*
X83084112Y-140020000D01*
X84555888Y-140020000D01*
X84555888Y-141920000D01*
X84572300Y-142086629D01*
X84620903Y-142246855D01*
X84699832Y-142394519D01*
X84806052Y-142523948D01*
X84935481Y-142630168D01*
X85083145Y-142709097D01*
X85243371Y-142757700D01*
X85410000Y-142774112D01*
X87310000Y-142774112D01*
X87476629Y-142757700D01*
X87636855Y-142709097D01*
X87784519Y-142630168D01*
X87913948Y-142523948D01*
X88020168Y-142394519D01*
X88060000Y-142320000D01*
X88833681Y-142320000D01*
X88900000Y-142326532D01*
X88966319Y-142320000D01*
X88966321Y-142320000D01*
X89164646Y-142300467D01*
X89419122Y-142223272D01*
X89653649Y-142097915D01*
X89859213Y-141929213D01*
X89866773Y-141920000D01*
X92175887Y-141920000D01*
X92192299Y-142086629D01*
X92240902Y-142246855D01*
X92319831Y-142394520D01*
X92426051Y-142523949D01*
X92555480Y-142630169D01*
X92703145Y-142709098D01*
X92863371Y-142757701D01*
X93030000Y-142774113D01*
X93717500Y-142770000D01*
X93930000Y-142557500D01*
X93930000Y-141020000D01*
X94030000Y-141020000D01*
X94030000Y-142557500D01*
X94242500Y-142770000D01*
X94930000Y-142774113D01*
X95096629Y-142757701D01*
X95256855Y-142709098D01*
X95404520Y-142630169D01*
X95533949Y-142523949D01*
X95640169Y-142394520D01*
X95719098Y-142246855D01*
X95767701Y-142086629D01*
X95784113Y-141920000D01*
X95780000Y-141232500D01*
X95567500Y-141020000D01*
X94030000Y-141020000D01*
X93930000Y-141020000D01*
X92392500Y-141020000D01*
X92180000Y-141232500D01*
X92175887Y-141920000D01*
X89866773Y-141920000D01*
X89901491Y-141877697D01*
X91759188Y-140020000D01*
X92175887Y-140020000D01*
X92180000Y-140707500D01*
X92392500Y-140920000D01*
X93930000Y-140920000D01*
X93930000Y-139382500D01*
X94030000Y-139382500D01*
X94030000Y-140920000D01*
X95567500Y-140920000D01*
X95780000Y-140707500D01*
X95784113Y-140020000D01*
X95767701Y-139853371D01*
X95719098Y-139693145D01*
X95640169Y-139545480D01*
X95533949Y-139416051D01*
X95404520Y-139309831D01*
X95256855Y-139230902D01*
X95096629Y-139182299D01*
X94930000Y-139165887D01*
X94242500Y-139170000D01*
X94030000Y-139382500D01*
X93930000Y-139382500D01*
X93717500Y-139170000D01*
X93030000Y-139165887D01*
X92863371Y-139182299D01*
X92703145Y-139230902D01*
X92555480Y-139309831D01*
X92426051Y-139416051D01*
X92319831Y-139545480D01*
X92240902Y-139693145D01*
X92192299Y-139853371D01*
X92175887Y-140020000D01*
X91759188Y-140020000D01*
X94299188Y-137480000D01*
X103605887Y-137480000D01*
X103610000Y-138167500D01*
X103822500Y-138380000D01*
X105360000Y-138380000D01*
X105360000Y-136842500D01*
X105460000Y-136842500D01*
X105460000Y-138380000D01*
X106997500Y-138380000D01*
X107210000Y-138167500D01*
X107214113Y-137480000D01*
X107197701Y-137313371D01*
X107149098Y-137153145D01*
X107070169Y-137005480D01*
X106963949Y-136876051D01*
X106834520Y-136769831D01*
X106686855Y-136690902D01*
X106526629Y-136642299D01*
X106360000Y-136625887D01*
X105672500Y-136630000D01*
X105460000Y-136842500D01*
X105360000Y-136842500D01*
X105147500Y-136630000D01*
X104460000Y-136625887D01*
X104293371Y-136642299D01*
X104133145Y-136690902D01*
X103985480Y-136769831D01*
X103856051Y-136876051D01*
X103749831Y-137005480D01*
X103670902Y-137153145D01*
X103622299Y-137313371D01*
X103605887Y-137480000D01*
X94299188Y-137480000D01*
X94539189Y-137240000D01*
X95818681Y-137240000D01*
X95885000Y-137246532D01*
X95951319Y-137240000D01*
X95951321Y-137240000D01*
X96149646Y-137220467D01*
X96404122Y-137143272D01*
X96638649Y-137017915D01*
X96844213Y-136849213D01*
X96886491Y-136797697D01*
X101284188Y-132400000D01*
X102335888Y-132400000D01*
X102335888Y-134300000D01*
X102352300Y-134466629D01*
X102400903Y-134626855D01*
X102479832Y-134774519D01*
X102586052Y-134903948D01*
X102715481Y-135010168D01*
X102863145Y-135089097D01*
X103023371Y-135137700D01*
X103190000Y-135154112D01*
X105090000Y-135154112D01*
X105256629Y-135137700D01*
X105416855Y-135089097D01*
X105564519Y-135010168D01*
X105693948Y-134903948D01*
X105800168Y-134774519D01*
X105879097Y-134626855D01*
X105927700Y-134466629D01*
X105944112Y-134300000D01*
X105944112Y-132400000D01*
X105927700Y-132233371D01*
X105879097Y-132073145D01*
X105800168Y-131925481D01*
X105693948Y-131796052D01*
X105564519Y-131689832D01*
X105416855Y-131610903D01*
X105256629Y-131562300D01*
X105090000Y-131545888D01*
X103190000Y-131545888D01*
X103023371Y-131562300D01*
X102863145Y-131610903D01*
X102715481Y-131689832D01*
X102586052Y-131796052D01*
X102479832Y-131925481D01*
X102400903Y-132073145D01*
X102352300Y-132233371D01*
X102335888Y-132400000D01*
X101284188Y-132400000D01*
X102507701Y-131176487D01*
X102559212Y-131134213D01*
X102727915Y-130928649D01*
X102791334Y-130810000D01*
X102853272Y-130694123D01*
X102930467Y-130439646D01*
X102956532Y-130175000D01*
X102950000Y-130108679D01*
X102950000Y-130035444D01*
X103023371Y-130057700D01*
X103190000Y-130074112D01*
X105090000Y-130074112D01*
X105256629Y-130057700D01*
X105330001Y-130035443D01*
X105330001Y-130108672D01*
X105323468Y-130175000D01*
X105349534Y-130439646D01*
X105426729Y-130694122D01*
X105552085Y-130928649D01*
X105678510Y-131082698D01*
X105678514Y-131082702D01*
X105720788Y-131134213D01*
X105772300Y-131176487D01*
X106313505Y-131717692D01*
X106355787Y-131769213D01*
X106561351Y-131937915D01*
X106665284Y-131993468D01*
X106795877Y-132063272D01*
X106855105Y-132081239D01*
X107050354Y-132140467D01*
X107248679Y-132160000D01*
X107248681Y-132160000D01*
X107315000Y-132166532D01*
X107381319Y-132160000D01*
X115074556Y-132160000D01*
X115052300Y-132233371D01*
X115035888Y-132400000D01*
X115035888Y-134300000D01*
X115052300Y-134466629D01*
X115098824Y-134620000D01*
X115052300Y-134773371D01*
X115035888Y-134940000D01*
X115035888Y-136840000D01*
X115052300Y-137006629D01*
X115100903Y-137166855D01*
X115179832Y-137314519D01*
X115286052Y-137443948D01*
X115415481Y-137550168D01*
X115563145Y-137629097D01*
X115723371Y-137677700D01*
X115890000Y-137694112D01*
X117790000Y-137694112D01*
X117956629Y-137677700D01*
X118116855Y-137629097D01*
X118264519Y-137550168D01*
X118393948Y-137443948D01*
X118500168Y-137314519D01*
X118579097Y-137166855D01*
X118627700Y-137006629D01*
X118644112Y-136840000D01*
X118644112Y-135158300D01*
X120570000Y-137084189D01*
X120570001Y-139270000D01*
X120495481Y-139309832D01*
X120366052Y-139416052D01*
X120259832Y-139545481D01*
X120180903Y-139693145D01*
X120132300Y-139853371D01*
X120115888Y-140020000D01*
X120115888Y-141920000D01*
X120132300Y-142086629D01*
X120180903Y-142246855D01*
X120259832Y-142394519D01*
X120366052Y-142523948D01*
X120495481Y-142630168D01*
X120643145Y-142709097D01*
X120803371Y-142757700D01*
X120970000Y-142774112D01*
X122870000Y-142774112D01*
X123036629Y-142757700D01*
X123190000Y-142711176D01*
X123343371Y-142757700D01*
X123510000Y-142774112D01*
X125410000Y-142774112D01*
X125576629Y-142757700D01*
X125736855Y-142709097D01*
X125884519Y-142630168D01*
X126013948Y-142523948D01*
X126037666Y-142495048D01*
X126288463Y-142632873D01*
X126626545Y-142739735D01*
X126978979Y-142778587D01*
X127332221Y-142747936D01*
X127672695Y-142648961D01*
X127987318Y-142485463D01*
X128022276Y-142462107D01*
X128092781Y-142133492D01*
X127000000Y-141040711D01*
X126985858Y-141054853D01*
X126915147Y-140984142D01*
X126929289Y-140970000D01*
X127070711Y-140970000D01*
X128163492Y-142062781D01*
X128492107Y-141992276D01*
X128662873Y-141681537D01*
X128769735Y-141343455D01*
X128808587Y-140991021D01*
X128777936Y-140637779D01*
X128678961Y-140297305D01*
X128515463Y-139982682D01*
X128492107Y-139947724D01*
X128163492Y-139877219D01*
X127070711Y-140970000D01*
X126929289Y-140970000D01*
X126915147Y-140955858D01*
X126985858Y-140885147D01*
X127000000Y-140899289D01*
X128092781Y-139806508D01*
X128022276Y-139477893D01*
X127711537Y-139307127D01*
X127373455Y-139200265D01*
X127021021Y-139161413D01*
X126667779Y-139192064D01*
X126327305Y-139291039D01*
X126035711Y-139442570D01*
X126013948Y-139416052D01*
X125884519Y-139309832D01*
X125810000Y-139270000D01*
X125810000Y-137655444D01*
X125883371Y-137677700D01*
X126050000Y-137694112D01*
X127950000Y-137694112D01*
X128116629Y-137677700D01*
X128276855Y-137629097D01*
X128424519Y-137550168D01*
X128553948Y-137443948D01*
X128660168Y-137314519D01*
X128739097Y-137166855D01*
X128787700Y-137006629D01*
X128804112Y-136840000D01*
X128804112Y-135158300D01*
X129460000Y-135814189D01*
X129460001Y-141680811D01*
X126092299Y-145048513D01*
X126040787Y-145090788D01*
X125998513Y-145142299D01*
X125998510Y-145142302D01*
X125872085Y-145296351D01*
X125845825Y-145345481D01*
X125746728Y-145530879D01*
X125669533Y-145785355D01*
X125650000Y-145983679D01*
X125643468Y-146050000D01*
X125650000Y-146116319D01*
X125650001Y-153240000D01*
X125575481Y-153279832D01*
X125446052Y-153386052D01*
X125420629Y-153417030D01*
X125312620Y-153344861D01*
X124985041Y-153209173D01*
X124637284Y-153140000D01*
X124282716Y-153140000D01*
X123934959Y-153209173D01*
X123607380Y-153344861D01*
X123499371Y-153417030D01*
X123473948Y-153386052D01*
X123344519Y-153279832D01*
X123196855Y-153200903D01*
X123036629Y-153152300D01*
X122870000Y-153135888D01*
X120970000Y-153135888D01*
X120803371Y-153152300D01*
X120643145Y-153200903D01*
X120495481Y-153279832D01*
X120366052Y-153386052D01*
X120259832Y-153515481D01*
X120180903Y-153663145D01*
X120132300Y-153823371D01*
X120115888Y-153990000D01*
X120115888Y-155890000D01*
X120132300Y-156056629D01*
X120180903Y-156216855D01*
X120259832Y-156364519D01*
X120366052Y-156493948D01*
X120495481Y-156600168D01*
X120643145Y-156679097D01*
X120803371Y-156727700D01*
X120970000Y-156744112D01*
X122870000Y-156744112D01*
X123036629Y-156727700D01*
X123196855Y-156679097D01*
X123344519Y-156600168D01*
X123473948Y-156493948D01*
X123499371Y-156462970D01*
X123607380Y-156535139D01*
X123934959Y-156670827D01*
X124282716Y-156740000D01*
X124637284Y-156740000D01*
X124985041Y-156670827D01*
X125312620Y-156535139D01*
X125420629Y-156462970D01*
X125446052Y-156493948D01*
X125575481Y-156600168D01*
X125723145Y-156679097D01*
X125883371Y-156727700D01*
X126050000Y-156744112D01*
X127950000Y-156744112D01*
X128116629Y-156727700D01*
X128276855Y-156679097D01*
X128424519Y-156600168D01*
X128553948Y-156493948D01*
X128660168Y-156364519D01*
X128739097Y-156216855D01*
X128787700Y-156056629D01*
X128804112Y-155890000D01*
X128804112Y-153990000D01*
X128787700Y-153823371D01*
X128739097Y-153663145D01*
X128660168Y-153515481D01*
X128553948Y-153386052D01*
X128424519Y-153279832D01*
X128350000Y-153240000D01*
X128350000Y-146609188D01*
X131717698Y-143241490D01*
X131769213Y-143199213D01*
X131842275Y-143110187D01*
X131937915Y-142993650D01*
X132063272Y-142759123D01*
X132101569Y-142632873D01*
X132140467Y-142504646D01*
X132160000Y-142306321D01*
X132160000Y-142306319D01*
X132166532Y-142240000D01*
X132160000Y-142173679D01*
X132160000Y-135321319D01*
X132166532Y-135255000D01*
X132158009Y-135168468D01*
X132140467Y-134990354D01*
X132063272Y-134735878D01*
X131992392Y-134603271D01*
X131937915Y-134501350D01*
X131811490Y-134347301D01*
X131811483Y-134347294D01*
X131769212Y-134295787D01*
X131717706Y-134253517D01*
X129906490Y-132442302D01*
X129864213Y-132390787D01*
X129658649Y-132222085D01*
X129424122Y-132096728D01*
X129169646Y-132019533D01*
X128971321Y-132000000D01*
X128971319Y-132000000D01*
X128905000Y-131993468D01*
X128838681Y-132000000D01*
X128700000Y-132000000D01*
X128660168Y-131925481D01*
X128553948Y-131796052D01*
X128424519Y-131689832D01*
X128276855Y-131610903D01*
X128116629Y-131562300D01*
X127950000Y-131545888D01*
X126050000Y-131545888D01*
X125883371Y-131562300D01*
X125723145Y-131610903D01*
X125575481Y-131689832D01*
X125446052Y-131796052D01*
X125339832Y-131925481D01*
X125260903Y-132073145D01*
X125212300Y-132233371D01*
X125195888Y-132400000D01*
X125195888Y-134300000D01*
X125212300Y-134466629D01*
X125234556Y-134540000D01*
X125161319Y-134540000D01*
X125095000Y-134533468D01*
X125028681Y-134540000D01*
X125028679Y-134540000D01*
X124830354Y-134559533D01*
X124653620Y-134613145D01*
X124575877Y-134636728D01*
X124494048Y-134680467D01*
X124341351Y-134762085D01*
X124135787Y-134930787D01*
X124093505Y-134982308D01*
X123552300Y-135523513D01*
X123500788Y-135565787D01*
X123458514Y-135617298D01*
X123458510Y-135617302D01*
X123332085Y-135771351D01*
X123206729Y-136005878D01*
X123190001Y-136061024D01*
X123173272Y-136005878D01*
X123111334Y-135890000D01*
X123047915Y-135771350D01*
X122921490Y-135617301D01*
X122921483Y-135617294D01*
X122879212Y-135565787D01*
X122827707Y-135523518D01*
X119746490Y-132442302D01*
X119704213Y-132390787D01*
X119498649Y-132222085D01*
X119264122Y-132096728D01*
X119009646Y-132019533D01*
X118811321Y-132000000D01*
X118811319Y-132000000D01*
X118745000Y-131993468D01*
X118678681Y-132000000D01*
X118540000Y-132000000D01*
X118500168Y-131925481D01*
X118393948Y-131796052D01*
X118264519Y-131689832D01*
X118190000Y-131650000D01*
X118190000Y-131511319D01*
X118196532Y-131445000D01*
X118182538Y-131302915D01*
X118170467Y-131180354D01*
X118094113Y-130928649D01*
X118093272Y-130925877D01*
X118030593Y-130808614D01*
X117967915Y-130691351D01*
X117799212Y-130485787D01*
X117747696Y-130443509D01*
X117378300Y-130074112D01*
X117790000Y-130074112D01*
X117956629Y-130057700D01*
X118116855Y-130009097D01*
X118264519Y-129930168D01*
X118393948Y-129823948D01*
X118500168Y-129694519D01*
X118579097Y-129546855D01*
X118627700Y-129386629D01*
X118644112Y-129220000D01*
X125195887Y-129220000D01*
X125212299Y-129386629D01*
X125260902Y-129546855D01*
X125339831Y-129694520D01*
X125446051Y-129823949D01*
X125575480Y-129930169D01*
X125723145Y-130009098D01*
X125883371Y-130057701D01*
X126050000Y-130074113D01*
X126737500Y-130070000D01*
X126950000Y-129857500D01*
X126950000Y-128320000D01*
X127050000Y-128320000D01*
X127050000Y-129857500D01*
X127262500Y-130070000D01*
X127950000Y-130074113D01*
X128116629Y-130057701D01*
X128276855Y-130009098D01*
X128424520Y-129930169D01*
X128553949Y-129823949D01*
X128660169Y-129694520D01*
X128739098Y-129546855D01*
X128787701Y-129386629D01*
X128804113Y-129220000D01*
X128800000Y-128532500D01*
X128587500Y-128320000D01*
X127050000Y-128320000D01*
X126950000Y-128320000D01*
X125412500Y-128320000D01*
X125200000Y-128532500D01*
X125195887Y-129220000D01*
X118644112Y-129220000D01*
X118644112Y-127320000D01*
X125195887Y-127320000D01*
X125200000Y-128007500D01*
X125412500Y-128220000D01*
X126950000Y-128220000D01*
X126950000Y-126682500D01*
X127050000Y-126682500D01*
X127050000Y-128220000D01*
X128587500Y-128220000D01*
X128800000Y-128007500D01*
X128804113Y-127320000D01*
X128787701Y-127153371D01*
X128739098Y-126993145D01*
X128660169Y-126845480D01*
X128553949Y-126716051D01*
X128424520Y-126609831D01*
X128276855Y-126530902D01*
X128116629Y-126482299D01*
X127950000Y-126465887D01*
X127262500Y-126470000D01*
X127050000Y-126682500D01*
X126950000Y-126682500D01*
X126737500Y-126470000D01*
X126050000Y-126465887D01*
X125883371Y-126482299D01*
X125723145Y-126530902D01*
X125575480Y-126609831D01*
X125446051Y-126716051D01*
X125339831Y-126845480D01*
X125260902Y-126993145D01*
X125212299Y-127153371D01*
X125195887Y-127320000D01*
X118644112Y-127320000D01*
X118627700Y-127153371D01*
X118579097Y-126993145D01*
X118500168Y-126845481D01*
X118393948Y-126716052D01*
X118264519Y-126609832D01*
X118116855Y-126530903D01*
X117956629Y-126482300D01*
X117790000Y-126465888D01*
X115890000Y-126465888D01*
X115723371Y-126482300D01*
X115563145Y-126530903D01*
X115415481Y-126609832D01*
X115286052Y-126716052D01*
X115179832Y-126845481D01*
X115140000Y-126920000D01*
X113460000Y-126920000D01*
X113420168Y-126845481D01*
X113313948Y-126716052D01*
X113184519Y-126609832D01*
X113036855Y-126530903D01*
X112876629Y-126482300D01*
X112710000Y-126465888D01*
X110810000Y-126465888D01*
X110643371Y-126482300D01*
X110490000Y-126528824D01*
X110336629Y-126482300D01*
X110170000Y-126465888D01*
X108270000Y-126465888D01*
X108103371Y-126482300D01*
X107950000Y-126528824D01*
X107796629Y-126482300D01*
X107630000Y-126465888D01*
X105730000Y-126465888D01*
X105563371Y-126482300D01*
X105410000Y-126528824D01*
X105256629Y-126482300D01*
X105090000Y-126465888D01*
X103190000Y-126465888D01*
X103023371Y-126482300D01*
X102870000Y-126528824D01*
X102716629Y-126482300D01*
X102550000Y-126465888D01*
X100650000Y-126465888D01*
X100483371Y-126482300D01*
X100330000Y-126528824D01*
X100176629Y-126482300D01*
X100010000Y-126465888D01*
X98110000Y-126465888D01*
X97943371Y-126482300D01*
X97783145Y-126530903D01*
X97635481Y-126609832D01*
X97506052Y-126716052D01*
X97399832Y-126845481D01*
X97320903Y-126993145D01*
X97272300Y-127153371D01*
X97255888Y-127320000D01*
X97255888Y-129220000D01*
X97272300Y-129386629D01*
X97320903Y-129546855D01*
X97399832Y-129694519D01*
X97504164Y-129821647D01*
X95531648Y-131794164D01*
X95404519Y-131689832D01*
X95256855Y-131610903D01*
X95096629Y-131562300D01*
X94930000Y-131545888D01*
X93030000Y-131545888D01*
X92863371Y-131562300D01*
X92710000Y-131608824D01*
X92556629Y-131562300D01*
X92390000Y-131545888D01*
X90490000Y-131545888D01*
X90323371Y-131562300D01*
X90163145Y-131610903D01*
X90015481Y-131689832D01*
X89886052Y-131796052D01*
X89779832Y-131925481D01*
X89700903Y-132073145D01*
X89652300Y-132233371D01*
X89635888Y-132400000D01*
X89635888Y-134300000D01*
X89652300Y-134466629D01*
X89700903Y-134626855D01*
X89779832Y-134774519D01*
X89886052Y-134903948D01*
X90015481Y-135010168D01*
X90163145Y-135089097D01*
X90323371Y-135137700D01*
X90490000Y-135154112D01*
X92390000Y-135154112D01*
X92556629Y-135137700D01*
X92710000Y-135091176D01*
X92832481Y-135128330D01*
X88340812Y-139620000D01*
X88060000Y-139620000D01*
X88020168Y-139545481D01*
X87913948Y-139416052D01*
X87784519Y-139309832D01*
X87636855Y-139230903D01*
X87476629Y-139182300D01*
X87310000Y-139165888D01*
X85410000Y-139165888D01*
X85243371Y-139182300D01*
X85083145Y-139230903D01*
X84935481Y-139309832D01*
X84806052Y-139416052D01*
X84699832Y-139545481D01*
X84620903Y-139693145D01*
X84572300Y-139853371D01*
X84555888Y-140020000D01*
X83084112Y-140020000D01*
X83067700Y-139853371D01*
X83019097Y-139693145D01*
X82940168Y-139545481D01*
X82833948Y-139416052D01*
X82704519Y-139309832D01*
X82556855Y-139230903D01*
X82396629Y-139182300D01*
X82230000Y-139165888D01*
X80330000Y-139165888D01*
X80163371Y-139182300D01*
X80003145Y-139230903D01*
X79855481Y-139309832D01*
X79726052Y-139416052D01*
X79619832Y-139545481D01*
X79540903Y-139693145D01*
X79492300Y-139853371D01*
X79475888Y-140020000D01*
X77250000Y-140020000D01*
X77250000Y-134300000D01*
X79475887Y-134300000D01*
X79492299Y-134466629D01*
X79540902Y-134626855D01*
X79619831Y-134774520D01*
X79726051Y-134903949D01*
X79855480Y-135010169D01*
X80003145Y-135089098D01*
X80163371Y-135137701D01*
X80330000Y-135154113D01*
X81017500Y-135150000D01*
X81230000Y-134937500D01*
X81230000Y-133400000D01*
X81330000Y-133400000D01*
X81330000Y-134937500D01*
X81542500Y-135150000D01*
X82230000Y-135154113D01*
X82396629Y-135137701D01*
X82556855Y-135089098D01*
X82704520Y-135010169D01*
X82833949Y-134903949D01*
X82940169Y-134774520D01*
X83019098Y-134626855D01*
X83067701Y-134466629D01*
X83084113Y-134300000D01*
X83080000Y-133612500D01*
X82867500Y-133400000D01*
X81330000Y-133400000D01*
X81230000Y-133400000D01*
X79692500Y-133400000D01*
X79480000Y-133612500D01*
X79475887Y-134300000D01*
X77250000Y-134300000D01*
X77250000Y-132400000D01*
X79475887Y-132400000D01*
X79480000Y-133087500D01*
X79692500Y-133300000D01*
X81230000Y-133300000D01*
X81230000Y-131762500D01*
X81330000Y-131762500D01*
X81330000Y-133300000D01*
X82867500Y-133300000D01*
X83080000Y-133087500D01*
X83084113Y-132400000D01*
X83067701Y-132233371D01*
X83019098Y-132073145D01*
X82940169Y-131925480D01*
X82833949Y-131796051D01*
X82704520Y-131689831D01*
X82556855Y-131610902D01*
X82396629Y-131562299D01*
X82230000Y-131545887D01*
X81542500Y-131550000D01*
X81330000Y-131762500D01*
X81230000Y-131762500D01*
X81017500Y-131550000D01*
X80330000Y-131545887D01*
X80163371Y-131562299D01*
X80003145Y-131610902D01*
X79855480Y-131689831D01*
X79726051Y-131796051D01*
X79619831Y-131925480D01*
X79540902Y-132073145D01*
X79492299Y-132233371D01*
X79475887Y-132400000D01*
X77250000Y-132400000D01*
X77250000Y-125510000D01*
X133570000Y-125510000D01*
X133570001Y-195145075D01*
G37*
X133570001Y-195145075D02*
X127531562Y-201183515D01*
X127530000Y-200922500D01*
X127317500Y-200710000D01*
X125780000Y-200710000D01*
X125780000Y-202247500D01*
X125992500Y-202460000D01*
X126253515Y-202461562D01*
X124025077Y-204690000D01*
X86794924Y-204690000D01*
X77250000Y-195145077D01*
X77250000Y-194203492D01*
X78917219Y-194203492D01*
X78987724Y-194532107D01*
X79298463Y-194702873D01*
X79636545Y-194809735D01*
X79988979Y-194848587D01*
X80342221Y-194817936D01*
X80682695Y-194718961D01*
X80997318Y-194555463D01*
X81032276Y-194532107D01*
X81102781Y-194203492D01*
X80010000Y-193110711D01*
X78917219Y-194203492D01*
X77250000Y-194203492D01*
X77250000Y-193018979D01*
X78201413Y-193018979D01*
X78232064Y-193372221D01*
X78331039Y-193712695D01*
X78494537Y-194027318D01*
X78517893Y-194062276D01*
X78846508Y-194132781D01*
X79939289Y-193040000D01*
X79925147Y-193025858D01*
X79995858Y-192955147D01*
X80010000Y-192969289D01*
X80024142Y-192955147D01*
X80094853Y-193025858D01*
X80080711Y-193040000D01*
X81173492Y-194132781D01*
X81502107Y-194062276D01*
X81541826Y-193990000D01*
X83285887Y-193990000D01*
X83302299Y-194156629D01*
X83350902Y-194316855D01*
X83429831Y-194464520D01*
X83536051Y-194593949D01*
X83665480Y-194700169D01*
X83813145Y-194779098D01*
X83973371Y-194827701D01*
X84140000Y-194844113D01*
X84827500Y-194840000D01*
X85040000Y-194627500D01*
X85040000Y-193090000D01*
X85140000Y-193090000D01*
X85140000Y-194627500D01*
X85352500Y-194840000D01*
X86040000Y-194844113D01*
X86206629Y-194827701D01*
X86366855Y-194779098D01*
X86514520Y-194700169D01*
X86643949Y-194593949D01*
X86750169Y-194464520D01*
X86829098Y-194316855D01*
X86877701Y-194156629D01*
X86894113Y-193990000D01*
X86890000Y-193302500D01*
X86677500Y-193090000D01*
X85140000Y-193090000D01*
X85040000Y-193090000D01*
X83502500Y-193090000D01*
X83290000Y-193302500D01*
X83285887Y-193990000D01*
X81541826Y-193990000D01*
X81672873Y-193751537D01*
X81779735Y-193413455D01*
X81818587Y-193061021D01*
X81787936Y-192707779D01*
X81688961Y-192367305D01*
X81537430Y-192075711D01*
X81563948Y-192053948D01*
X81670168Y-191924519D01*
X81710000Y-191850000D01*
X83324555Y-191850000D01*
X83302299Y-191923371D01*
X83285887Y-192090000D01*
X83290000Y-192777500D01*
X83502500Y-192990000D01*
X85040000Y-192990000D01*
X85040000Y-192970000D01*
X85140000Y-192970000D01*
X85140000Y-192990000D01*
X86677500Y-192990000D01*
X86890000Y-192777500D01*
X86894113Y-192090000D01*
X86877701Y-191923371D01*
X86831177Y-191769998D01*
X86877700Y-191616629D01*
X86894112Y-191450000D01*
X86894112Y-189550000D01*
X86877700Y-189383371D01*
X86831176Y-189230000D01*
X86877700Y-189076629D01*
X86894112Y-188910000D01*
X86894112Y-187010000D01*
X86877700Y-186843371D01*
X86829097Y-186683145D01*
X86750168Y-186535481D01*
X86643948Y-186406052D01*
X86514519Y-186299832D01*
X86440000Y-186260000D01*
X86440000Y-174070000D01*
X90944556Y-174070000D01*
X90922300Y-174143371D01*
X90905888Y-174310000D01*
X90905888Y-176210000D01*
X90922300Y-176376629D01*
X90970903Y-176536855D01*
X91049832Y-176684519D01*
X91156052Y-176813948D01*
X91187030Y-176839371D01*
X91114861Y-176947380D01*
X90979173Y-177274959D01*
X90910000Y-177622716D01*
X90910000Y-177977284D01*
X90979173Y-178325041D01*
X91114861Y-178652620D01*
X91187030Y-178760629D01*
X91156052Y-178786052D01*
X91049832Y-178915481D01*
X90970903Y-179063145D01*
X90922300Y-179223371D01*
X90905888Y-179390000D01*
X90905888Y-181290000D01*
X90922300Y-181456629D01*
X90970903Y-181616855D01*
X91049832Y-181764519D01*
X91156052Y-181893948D01*
X91285481Y-182000168D01*
X91360000Y-182040000D01*
X91360001Y-192338671D01*
X91353468Y-192405000D01*
X91379534Y-192669646D01*
X91456729Y-192924122D01*
X91582085Y-193158649D01*
X91708510Y-193312698D01*
X91708514Y-193312702D01*
X91750788Y-193364213D01*
X91802300Y-193406487D01*
X92343505Y-193947692D01*
X92385787Y-193999213D01*
X92591351Y-194167915D01*
X92635197Y-194191351D01*
X92825877Y-194293272D01*
X92881022Y-194310000D01*
X93080354Y-194370467D01*
X93278679Y-194390000D01*
X93278681Y-194390000D01*
X93345000Y-194396532D01*
X93411319Y-194390000D01*
X93550000Y-194390000D01*
X93589832Y-194464519D01*
X93696052Y-194593948D01*
X93825481Y-194700168D01*
X93973145Y-194779097D01*
X94133371Y-194827700D01*
X94300000Y-194844112D01*
X96200000Y-194844112D01*
X96366629Y-194827700D01*
X96526855Y-194779097D01*
X96674519Y-194700168D01*
X96803948Y-194593948D01*
X96910168Y-194464519D01*
X96989097Y-194316855D01*
X97037700Y-194156629D01*
X97054112Y-193990000D01*
X97054112Y-192090000D01*
X97037700Y-191923371D01*
X97015444Y-191850000D01*
X98564556Y-191850000D01*
X98542300Y-191923371D01*
X98525888Y-192090000D01*
X98525888Y-193990000D01*
X98542300Y-194156629D01*
X98588824Y-194310000D01*
X98542300Y-194463371D01*
X98525888Y-194630000D01*
X98525888Y-196530000D01*
X98542300Y-196696629D01*
X98590903Y-196856855D01*
X98669832Y-197004519D01*
X98776052Y-197133948D01*
X98905481Y-197240168D01*
X99053145Y-197319097D01*
X99213371Y-197367700D01*
X99380000Y-197384112D01*
X101280000Y-197384112D01*
X101446629Y-197367700D01*
X101606855Y-197319097D01*
X101754519Y-197240168D01*
X101881648Y-197135836D01*
X102790000Y-198044189D01*
X102790001Y-199464415D01*
X102741849Y-199512567D01*
X102544861Y-199807380D01*
X102409173Y-200134959D01*
X102340000Y-200482716D01*
X102340000Y-200837284D01*
X102409173Y-201185041D01*
X102544861Y-201512620D01*
X102741849Y-201807433D01*
X102992567Y-202058151D01*
X103287380Y-202255139D01*
X103614959Y-202390827D01*
X103962716Y-202460000D01*
X104317284Y-202460000D01*
X104665041Y-202390827D01*
X104992620Y-202255139D01*
X105287433Y-202058151D01*
X105296068Y-202049516D01*
X105508806Y-202224106D01*
X105755016Y-202355708D01*
X106022170Y-202436748D01*
X106300000Y-202464112D01*
X107060000Y-202464112D01*
X107337830Y-202436748D01*
X107604984Y-202355708D01*
X107851194Y-202224106D01*
X108066999Y-202046999D01*
X108244106Y-201831194D01*
X108375708Y-201584984D01*
X108456748Y-201317830D01*
X108484112Y-201040000D01*
X108484112Y-200280000D01*
X108456748Y-200002170D01*
X108375708Y-199735016D01*
X108244106Y-199488806D01*
X108066999Y-199273001D01*
X108030000Y-199242637D01*
X108030000Y-196930000D01*
X108790000Y-196930000D01*
X108829832Y-197004519D01*
X108936052Y-197133948D01*
X109065481Y-197240168D01*
X109213145Y-197319097D01*
X109373371Y-197367700D01*
X109540000Y-197384112D01*
X111440000Y-197384112D01*
X111606629Y-197367700D01*
X111766855Y-197319097D01*
X111914519Y-197240168D01*
X112043948Y-197133948D01*
X112150168Y-197004519D01*
X112190000Y-196930000D01*
X113804555Y-196930000D01*
X113782299Y-197003371D01*
X113765887Y-197170000D01*
X113770000Y-197857500D01*
X113982500Y-198070000D01*
X115520000Y-198070000D01*
X115520000Y-198050000D01*
X115620000Y-198050000D01*
X115620000Y-198070000D01*
X115640000Y-198070000D01*
X115640000Y-198170000D01*
X115620000Y-198170000D01*
X115620000Y-198190000D01*
X115520000Y-198190000D01*
X115520000Y-198170000D01*
X113982500Y-198170000D01*
X113770000Y-198382500D01*
X113765887Y-199070000D01*
X113782299Y-199236629D01*
X113828823Y-199390002D01*
X113782300Y-199543371D01*
X113765888Y-199710000D01*
X113765888Y-201610000D01*
X113782300Y-201776629D01*
X113830903Y-201936855D01*
X113909832Y-202084519D01*
X114016052Y-202213948D01*
X114145481Y-202320168D01*
X114293145Y-202399097D01*
X114453371Y-202447700D01*
X114620000Y-202464112D01*
X116520000Y-202464112D01*
X116686629Y-202447700D01*
X116846855Y-202399097D01*
X116994519Y-202320168D01*
X117123948Y-202213948D01*
X117230168Y-202084519D01*
X117270000Y-202010000D01*
X117408681Y-202010000D01*
X117475000Y-202016532D01*
X117541319Y-202010000D01*
X117541321Y-202010000D01*
X117739646Y-201990467D01*
X117994122Y-201913272D01*
X118228649Y-201787915D01*
X118434213Y-201619213D01*
X118441773Y-201610000D01*
X123925887Y-201610000D01*
X123942299Y-201776629D01*
X123990902Y-201936855D01*
X124069831Y-202084520D01*
X124176051Y-202213949D01*
X124305480Y-202320169D01*
X124453145Y-202399098D01*
X124613371Y-202447701D01*
X124780000Y-202464113D01*
X125467500Y-202460000D01*
X125680000Y-202247500D01*
X125680000Y-200710000D01*
X124142500Y-200710000D01*
X123930000Y-200922500D01*
X123925887Y-201610000D01*
X118441773Y-201610000D01*
X118476492Y-201567696D01*
X119017692Y-201026495D01*
X119069213Y-200984213D01*
X119237915Y-200778649D01*
X119328060Y-200610000D01*
X119363272Y-200544123D01*
X119381899Y-200482716D01*
X119440467Y-200289646D01*
X119460000Y-200091321D01*
X119460000Y-200091319D01*
X119466532Y-200025000D01*
X119460000Y-199958681D01*
X119460000Y-188026320D01*
X119466532Y-187960000D01*
X119460000Y-187893679D01*
X119460000Y-187120000D01*
X119534519Y-187080168D01*
X119663948Y-186973948D01*
X119770168Y-186844519D01*
X119849097Y-186696855D01*
X119897700Y-186536629D01*
X119914112Y-186370000D01*
X119914112Y-184470000D01*
X119897700Y-184303371D01*
X119849097Y-184143145D01*
X119770168Y-183995481D01*
X119663948Y-183866052D01*
X119534519Y-183759832D01*
X119386855Y-183680903D01*
X119226629Y-183632300D01*
X119060000Y-183615888D01*
X117160000Y-183615888D01*
X116993371Y-183632300D01*
X116833145Y-183680903D01*
X116685481Y-183759832D01*
X116556052Y-183866052D01*
X116449832Y-183995481D01*
X116370903Y-184143145D01*
X116322300Y-184303371D01*
X116305888Y-184470000D01*
X116305888Y-186370000D01*
X116322300Y-186536629D01*
X116344556Y-186610000D01*
X113096319Y-186610000D01*
X113030000Y-186603468D01*
X112963681Y-186610000D01*
X112963679Y-186610000D01*
X112765354Y-186629533D01*
X112510878Y-186706728D01*
X112492584Y-186716506D01*
X112449097Y-186573145D01*
X112370168Y-186425481D01*
X112263948Y-186296052D01*
X112134519Y-186189832D01*
X112060001Y-186150001D01*
X112134520Y-186110169D01*
X112263949Y-186003949D01*
X112370169Y-185874520D01*
X112449098Y-185726855D01*
X112497701Y-185566629D01*
X112514113Y-185400000D01*
X112510000Y-184412500D01*
X112297500Y-184200000D01*
X110460000Y-184200000D01*
X110460000Y-184220000D01*
X110360000Y-184220000D01*
X110360000Y-184200000D01*
X110340000Y-184200000D01*
X110340000Y-184100000D01*
X110360000Y-184100000D01*
X110360000Y-184080000D01*
X110460000Y-184080000D01*
X110460000Y-184100000D01*
X112297500Y-184100000D01*
X112510000Y-183887500D01*
X112514113Y-182900000D01*
X112497701Y-182733371D01*
X112449098Y-182573145D01*
X112370169Y-182425480D01*
X112263949Y-182296051D01*
X112134520Y-182189831D01*
X112060001Y-182149999D01*
X112134519Y-182110168D01*
X112263948Y-182003948D01*
X112370168Y-181874519D01*
X112449097Y-181726855D01*
X112497700Y-181566629D01*
X112514112Y-181400000D01*
X112514112Y-178900000D01*
X112497700Y-178733371D01*
X112449097Y-178573145D01*
X112370168Y-178425481D01*
X112263948Y-178296052D01*
X112134519Y-178189832D01*
X111986855Y-178110903D01*
X111826629Y-178062300D01*
X111660000Y-178045888D01*
X109160000Y-178045888D01*
X108993371Y-178062300D01*
X108833145Y-178110903D01*
X108685481Y-178189832D01*
X108556052Y-178296052D01*
X108449832Y-178425481D01*
X108370903Y-178573145D01*
X108322300Y-178733371D01*
X108305888Y-178900000D01*
X108305888Y-179421700D01*
X108126491Y-179242303D01*
X108084213Y-179190787D01*
X107878649Y-179022085D01*
X107644122Y-178896728D01*
X107509776Y-178855974D01*
X107497700Y-178733371D01*
X107449097Y-178573145D01*
X107370168Y-178425481D01*
X107263948Y-178296052D01*
X107134519Y-178189832D01*
X106986855Y-178110903D01*
X106826629Y-178062300D01*
X106660000Y-178045888D01*
X104162710Y-178045888D01*
X104123272Y-177915878D01*
X103997915Y-177681351D01*
X103949794Y-177622716D01*
X103871489Y-177527301D01*
X103871487Y-177527299D01*
X103829212Y-177475787D01*
X103777701Y-177433513D01*
X103408300Y-177064112D01*
X105110000Y-177064112D01*
X105276629Y-177047700D01*
X105410000Y-177007243D01*
X105543371Y-177047700D01*
X105710000Y-177064112D01*
X107610000Y-177064112D01*
X107776629Y-177047700D01*
X107909998Y-177007244D01*
X108043371Y-177047701D01*
X108210000Y-177064113D01*
X108897500Y-177060000D01*
X109110000Y-176847500D01*
X109110000Y-175310000D01*
X109210000Y-175310000D01*
X109210000Y-176847500D01*
X109422500Y-177060000D01*
X110110000Y-177064113D01*
X110276629Y-177047701D01*
X110436855Y-176999098D01*
X110584520Y-176920169D01*
X110713949Y-176813949D01*
X110820169Y-176684520D01*
X110899098Y-176536855D01*
X110947701Y-176376629D01*
X110964113Y-176210000D01*
X110960000Y-175522500D01*
X110747500Y-175310000D01*
X109210000Y-175310000D01*
X109110000Y-175310000D01*
X109090000Y-175310000D01*
X109090000Y-175210000D01*
X109110000Y-175210000D01*
X109110000Y-173672500D01*
X109210000Y-173672500D01*
X109210000Y-175210000D01*
X110747500Y-175210000D01*
X110960000Y-174997500D01*
X110964113Y-174310000D01*
X110947701Y-174143371D01*
X110899098Y-173983145D01*
X110820169Y-173835480D01*
X110713949Y-173706051D01*
X110584520Y-173599831D01*
X110436855Y-173520902D01*
X110276629Y-173472299D01*
X110110000Y-173455887D01*
X109422500Y-173460000D01*
X109210000Y-173672500D01*
X109110000Y-173672500D01*
X108897500Y-173460000D01*
X108210000Y-173455887D01*
X108043371Y-173472299D01*
X107909998Y-173512756D01*
X107776629Y-173472300D01*
X107610000Y-173455888D01*
X105710000Y-173455888D01*
X105543371Y-173472300D01*
X105410000Y-173512757D01*
X105276629Y-173472300D01*
X105110000Y-173455888D01*
X103210000Y-173455888D01*
X103043371Y-173472300D01*
X103010000Y-173482423D01*
X103010000Y-173481319D01*
X103016532Y-173415000D01*
X103008975Y-173338272D01*
X102990467Y-173150354D01*
X102950000Y-173016953D01*
X102950000Y-171130000D01*
X103605887Y-171130000D01*
X103622299Y-171296629D01*
X103670902Y-171456855D01*
X103749831Y-171604520D01*
X103856051Y-171733949D01*
X103985480Y-171840169D01*
X104133145Y-171919098D01*
X104293371Y-171967701D01*
X104460000Y-171984113D01*
X105147500Y-171980000D01*
X105360000Y-171767500D01*
X105360000Y-170230000D01*
X105460000Y-170230000D01*
X105460000Y-171767500D01*
X105672500Y-171980000D01*
X106360000Y-171984113D01*
X106526629Y-171967701D01*
X106686855Y-171919098D01*
X106834520Y-171840169D01*
X106963949Y-171733949D01*
X107070169Y-171604520D01*
X107149098Y-171456855D01*
X107197701Y-171296629D01*
X107214113Y-171130000D01*
X107210000Y-170442500D01*
X106997500Y-170230000D01*
X105460000Y-170230000D01*
X105360000Y-170230000D01*
X103822500Y-170230000D01*
X103610000Y-170442500D01*
X103605887Y-171130000D01*
X102950000Y-171130000D01*
X102950000Y-169230000D01*
X103605887Y-169230000D01*
X103610000Y-169917500D01*
X103822500Y-170130000D01*
X105360000Y-170130000D01*
X105360000Y-168592500D01*
X105460000Y-168592500D01*
X105460000Y-170130000D01*
X106997500Y-170130000D01*
X107210000Y-169917500D01*
X107214113Y-169230000D01*
X107197701Y-169063371D01*
X107149098Y-168903145D01*
X107070169Y-168755480D01*
X106963949Y-168626051D01*
X106834520Y-168519831D01*
X106686855Y-168440902D01*
X106526629Y-168392299D01*
X106360000Y-168375887D01*
X105672500Y-168380000D01*
X105460000Y-168592500D01*
X105360000Y-168592500D01*
X105147500Y-168380000D01*
X104460000Y-168375887D01*
X104293371Y-168392299D01*
X104133145Y-168440902D01*
X103985480Y-168519831D01*
X103856051Y-168626051D01*
X103749831Y-168755480D01*
X103670902Y-168903145D01*
X103622299Y-169063371D01*
X103605887Y-169230000D01*
X102950000Y-169230000D01*
X102950000Y-166800000D01*
X103024519Y-166760168D01*
X103153948Y-166653948D01*
X103260168Y-166524519D01*
X103339097Y-166376855D01*
X103387700Y-166216629D01*
X103404112Y-166050000D01*
X103404112Y-164150000D01*
X103387700Y-163983371D01*
X103341176Y-163830000D01*
X103387700Y-163676629D01*
X103404112Y-163510000D01*
X103404112Y-161610000D01*
X103387700Y-161443371D01*
X103341176Y-161290000D01*
X103387700Y-161136629D01*
X103404112Y-160970000D01*
X103404112Y-159070000D01*
X103387700Y-158903371D01*
X103341176Y-158750000D01*
X103387700Y-158596629D01*
X103404112Y-158430000D01*
X107415887Y-158430000D01*
X107432299Y-158596629D01*
X107478823Y-158750002D01*
X107432300Y-158903371D01*
X107415888Y-159070000D01*
X107415888Y-160970000D01*
X107432300Y-161136629D01*
X107478824Y-161290000D01*
X107432300Y-161443371D01*
X107415888Y-161610000D01*
X107415888Y-163510000D01*
X107432300Y-163676629D01*
X107480903Y-163836855D01*
X107559832Y-163984519D01*
X107666052Y-164113948D01*
X107697030Y-164139371D01*
X107624861Y-164247380D01*
X107489173Y-164574959D01*
X107420000Y-164922716D01*
X107420000Y-165277284D01*
X107489173Y-165625041D01*
X107624861Y-165952620D01*
X107821849Y-166247433D01*
X108072567Y-166498151D01*
X108367380Y-166695139D01*
X108694959Y-166830827D01*
X109042716Y-166900000D01*
X109397284Y-166900000D01*
X109745041Y-166830827D01*
X110072620Y-166695139D01*
X110367433Y-166498151D01*
X110415584Y-166450000D01*
X112600000Y-166450000D01*
X112639832Y-166524519D01*
X112746052Y-166653948D01*
X112875481Y-166760168D01*
X113023145Y-166839097D01*
X113183371Y-166887700D01*
X113350000Y-166904112D01*
X115250000Y-166904112D01*
X115416629Y-166887700D01*
X115490000Y-166865443D01*
X115490001Y-168414557D01*
X115416629Y-168392300D01*
X115250000Y-168375888D01*
X113350000Y-168375888D01*
X113183371Y-168392300D01*
X113023145Y-168440903D01*
X112875481Y-168519832D01*
X112746052Y-168626052D01*
X112639832Y-168755481D01*
X112560903Y-168903145D01*
X112512300Y-169063371D01*
X112495888Y-169230000D01*
X112495888Y-171130000D01*
X112512300Y-171296629D01*
X112560903Y-171456855D01*
X112639832Y-171604519D01*
X112746052Y-171733948D01*
X112875481Y-171840168D01*
X113023145Y-171919097D01*
X113183371Y-171967700D01*
X113350000Y-171984112D01*
X115250000Y-171984112D01*
X115416629Y-171967700D01*
X115572001Y-171920570D01*
X115586729Y-171969122D01*
X115712085Y-172203649D01*
X115838510Y-172357698D01*
X115838514Y-172357702D01*
X115880788Y-172409213D01*
X115932299Y-172451487D01*
X121840000Y-178359189D01*
X121840001Y-183720000D01*
X121765481Y-183759832D01*
X121636052Y-183866052D01*
X121529832Y-183995481D01*
X121450903Y-184143145D01*
X121402300Y-184303371D01*
X121385888Y-184470000D01*
X121385888Y-186370000D01*
X121402300Y-186536629D01*
X121450903Y-186696855D01*
X121529832Y-186844519D01*
X121636052Y-186973948D01*
X121765481Y-187080168D01*
X121840000Y-187120000D01*
X121840001Y-194878671D01*
X121833468Y-194945000D01*
X121859534Y-195209646D01*
X121936729Y-195464122D01*
X122062085Y-195698649D01*
X122188510Y-195852698D01*
X122188514Y-195852702D01*
X122230788Y-195904213D01*
X122282300Y-195946487D01*
X122823505Y-196487692D01*
X122865787Y-196539213D01*
X123071351Y-196707915D01*
X123115197Y-196731351D01*
X123305877Y-196833272D01*
X123365105Y-196851239D01*
X123560354Y-196910467D01*
X123758679Y-196930000D01*
X123758681Y-196930000D01*
X123825000Y-196936532D01*
X123891319Y-196930000D01*
X123964556Y-196930000D01*
X123942300Y-197003371D01*
X123925888Y-197170000D01*
X123925888Y-199070000D01*
X123942300Y-199236629D01*
X123988823Y-199389998D01*
X123942299Y-199543371D01*
X123925887Y-199710000D01*
X123930000Y-200397500D01*
X124142500Y-200610000D01*
X125680000Y-200610000D01*
X125680000Y-200590000D01*
X125780000Y-200590000D01*
X125780000Y-200610000D01*
X127317500Y-200610000D01*
X127530000Y-200397500D01*
X127534113Y-199710000D01*
X127517701Y-199543371D01*
X127471177Y-199389998D01*
X127517700Y-199236629D01*
X127534112Y-199070000D01*
X127534112Y-197170000D01*
X127517700Y-197003371D01*
X127471176Y-196850000D01*
X127517700Y-196696629D01*
X127534112Y-196530000D01*
X127534112Y-194630000D01*
X127517700Y-194463371D01*
X127471176Y-194310000D01*
X127517700Y-194156629D01*
X127534112Y-193990000D01*
X127534112Y-192090000D01*
X127517700Y-191923371D01*
X127471176Y-191770000D01*
X127517700Y-191616629D01*
X127534112Y-191450000D01*
X127534112Y-189550000D01*
X127517700Y-189383371D01*
X127469097Y-189223145D01*
X127390168Y-189075481D01*
X127283948Y-188946052D01*
X127154519Y-188839832D01*
X127080000Y-188800000D01*
X127080000Y-180835445D01*
X127153371Y-180857701D01*
X127320000Y-180874113D01*
X128007500Y-180870000D01*
X128220000Y-180657500D01*
X128220000Y-179120000D01*
X128320000Y-179120000D01*
X128320000Y-180657500D01*
X128532500Y-180870000D01*
X129220000Y-180874113D01*
X129386629Y-180857701D01*
X129546855Y-180809098D01*
X129694520Y-180730169D01*
X129823949Y-180623949D01*
X129930169Y-180494520D01*
X130009098Y-180346855D01*
X130057701Y-180186629D01*
X130074113Y-180020000D01*
X130070000Y-179332500D01*
X129857500Y-179120000D01*
X128320000Y-179120000D01*
X128220000Y-179120000D01*
X128200000Y-179120000D01*
X128200000Y-179020000D01*
X128220000Y-179020000D01*
X128220000Y-177482500D01*
X128320000Y-177482500D01*
X128320000Y-179020000D01*
X129857500Y-179020000D01*
X130070000Y-178807500D01*
X130074113Y-178120000D01*
X130057701Y-177953371D01*
X130009098Y-177793145D01*
X129930169Y-177645480D01*
X129823949Y-177516051D01*
X129694520Y-177409831D01*
X129546855Y-177330902D01*
X129386629Y-177282299D01*
X129220000Y-177265887D01*
X128532500Y-177270000D01*
X128320000Y-177482500D01*
X128220000Y-177482500D01*
X128007500Y-177270000D01*
X127320000Y-177265887D01*
X127153371Y-177282299D01*
X127080000Y-177304555D01*
X127080000Y-177231310D01*
X127086531Y-177164999D01*
X127080000Y-177098688D01*
X127080000Y-177098679D01*
X127060467Y-176900354D01*
X126983272Y-176645878D01*
X126875082Y-176443468D01*
X126857915Y-176411350D01*
X126731490Y-176257301D01*
X126731483Y-176257294D01*
X126689212Y-176205787D01*
X126637706Y-176163517D01*
X125810000Y-175335812D01*
X125810000Y-171880000D01*
X125884519Y-171840168D01*
X126013948Y-171733948D01*
X126120168Y-171604519D01*
X126199097Y-171456855D01*
X126247700Y-171296629D01*
X126264112Y-171130000D01*
X126264112Y-169230000D01*
X126247700Y-169063371D01*
X126199097Y-168903145D01*
X126120168Y-168755481D01*
X126013948Y-168626052D01*
X125884519Y-168519832D01*
X125736855Y-168440903D01*
X125576629Y-168392300D01*
X125410000Y-168375888D01*
X123510000Y-168375888D01*
X123343371Y-168392300D01*
X123190000Y-168438824D01*
X123036629Y-168392300D01*
X122870000Y-168375888D01*
X120970000Y-168375888D01*
X120803371Y-168392300D01*
X120650000Y-168438824D01*
X120496629Y-168392300D01*
X120330000Y-168375888D01*
X118430000Y-168375888D01*
X118263371Y-168392300D01*
X118190000Y-168414556D01*
X118190000Y-163896319D01*
X118196532Y-163830000D01*
X118190000Y-163763679D01*
X118170467Y-163565354D01*
X118094113Y-163313649D01*
X118093272Y-163310877D01*
X117967915Y-163076350D01*
X117841490Y-162922302D01*
X117841487Y-162922299D01*
X117799212Y-162870787D01*
X117747701Y-162828513D01*
X114031491Y-159112303D01*
X113996774Y-159070000D01*
X117575888Y-159070000D01*
X117575888Y-160970000D01*
X117592300Y-161136629D01*
X117640903Y-161296855D01*
X117719832Y-161444519D01*
X117826052Y-161573948D01*
X117955481Y-161680168D01*
X118030001Y-161720000D01*
X118030001Y-161858672D01*
X118023468Y-161925000D01*
X118049534Y-162189646D01*
X118126729Y-162444122D01*
X118252085Y-162678649D01*
X118378510Y-162832698D01*
X118378514Y-162832702D01*
X118420788Y-162884213D01*
X118472300Y-162926487D01*
X119013505Y-163467692D01*
X119055787Y-163519213D01*
X119261351Y-163687915D01*
X119365284Y-163743468D01*
X119495877Y-163813272D01*
X119551022Y-163830000D01*
X119750354Y-163890467D01*
X119948679Y-163910000D01*
X119948681Y-163910000D01*
X120015000Y-163916532D01*
X120081319Y-163910000D01*
X123758681Y-163910000D01*
X123825000Y-163916532D01*
X123891319Y-163910000D01*
X123891321Y-163910000D01*
X124089646Y-163890467D01*
X124344122Y-163813272D01*
X124578649Y-163687915D01*
X124784213Y-163519213D01*
X124826492Y-163467696D01*
X125367696Y-162926491D01*
X125419212Y-162884213D01*
X125587915Y-162678649D01*
X125651334Y-162560000D01*
X125713272Y-162444123D01*
X125758400Y-162295355D01*
X125790467Y-162189646D01*
X125810000Y-161991321D01*
X125810000Y-161991319D01*
X125816532Y-161925000D01*
X125810000Y-161858681D01*
X125810000Y-161720000D01*
X125884519Y-161680168D01*
X126013948Y-161573948D01*
X126120168Y-161444519D01*
X126199097Y-161296855D01*
X126247700Y-161136629D01*
X126264112Y-160970000D01*
X126264112Y-159070000D01*
X126247700Y-158903371D01*
X126199097Y-158743145D01*
X126120168Y-158595481D01*
X126013948Y-158466052D01*
X125884519Y-158359832D01*
X125736855Y-158280903D01*
X125576629Y-158232300D01*
X125410000Y-158215888D01*
X123510000Y-158215888D01*
X123343371Y-158232300D01*
X123190000Y-158278824D01*
X123036629Y-158232300D01*
X122870000Y-158215888D01*
X120970000Y-158215888D01*
X120803371Y-158232300D01*
X120650000Y-158278824D01*
X120496629Y-158232300D01*
X120330000Y-158215888D01*
X118430000Y-158215888D01*
X118263371Y-158232300D01*
X118103145Y-158280903D01*
X117955481Y-158359832D01*
X117826052Y-158466052D01*
X117719832Y-158595481D01*
X117640903Y-158743145D01*
X117592300Y-158903371D01*
X117575888Y-159070000D01*
X113996774Y-159070000D01*
X113989213Y-159060787D01*
X113783649Y-158892085D01*
X113549122Y-158766728D01*
X113294646Y-158689533D01*
X113096321Y-158670000D01*
X113096319Y-158670000D01*
X113030000Y-158663468D01*
X112963681Y-158670000D01*
X110985445Y-158670000D01*
X111007701Y-158596629D01*
X111024113Y-158430000D01*
X111020000Y-157742500D01*
X110807500Y-157530000D01*
X109270000Y-157530000D01*
X109270000Y-157550000D01*
X109170000Y-157550000D01*
X109170000Y-157530000D01*
X107632500Y-157530000D01*
X107420000Y-157742500D01*
X107415887Y-158430000D01*
X103404112Y-158430000D01*
X103404112Y-156530000D01*
X107415887Y-156530000D01*
X107420000Y-157217500D01*
X107632500Y-157430000D01*
X109170000Y-157430000D01*
X109170000Y-155892500D01*
X109270000Y-155892500D01*
X109270000Y-157430000D01*
X110807500Y-157430000D01*
X111020000Y-157217500D01*
X111024113Y-156530000D01*
X111007701Y-156363371D01*
X110959098Y-156203145D01*
X110880169Y-156055480D01*
X110773949Y-155926051D01*
X110644520Y-155819831D01*
X110496855Y-155740902D01*
X110336629Y-155692299D01*
X110170000Y-155675887D01*
X109482500Y-155680000D01*
X109270000Y-155892500D01*
X109170000Y-155892500D01*
X108957500Y-155680000D01*
X108270000Y-155675887D01*
X108103371Y-155692299D01*
X107943145Y-155740902D01*
X107795480Y-155819831D01*
X107666051Y-155926051D01*
X107559831Y-156055480D01*
X107480902Y-156203145D01*
X107432299Y-156363371D01*
X107415887Y-156530000D01*
X103404112Y-156530000D01*
X103387700Y-156363371D01*
X103339097Y-156203145D01*
X103260168Y-156055481D01*
X103153948Y-155926052D01*
X103024519Y-155819832D01*
X102876855Y-155740903D01*
X102716629Y-155692300D01*
X102550000Y-155675888D01*
X100650000Y-155675888D01*
X100483371Y-155692300D01*
X100323145Y-155740903D01*
X100175481Y-155819832D01*
X100046052Y-155926052D01*
X99939832Y-156055481D01*
X99860903Y-156203145D01*
X99812300Y-156363371D01*
X99795888Y-156530000D01*
X99795888Y-158430000D01*
X99812300Y-158596629D01*
X99834556Y-158670000D01*
X98220000Y-158670000D01*
X98180168Y-158595481D01*
X98073948Y-158466052D01*
X97944519Y-158359832D01*
X97796855Y-158280903D01*
X97636629Y-158232300D01*
X97470000Y-158215888D01*
X95570000Y-158215888D01*
X95403371Y-158232300D01*
X95330000Y-158254556D01*
X95330000Y-158039188D01*
X103096893Y-150272296D01*
X103072300Y-150353371D01*
X103055888Y-150520000D01*
X103055888Y-153520000D01*
X103072300Y-153686629D01*
X103120903Y-153846855D01*
X103199832Y-153994519D01*
X103306052Y-154123948D01*
X103435481Y-154230168D01*
X103583145Y-154309097D01*
X103743371Y-154357700D01*
X103910000Y-154374112D01*
X106910000Y-154374112D01*
X107076629Y-154357700D01*
X107236855Y-154309097D01*
X107384519Y-154230168D01*
X107513948Y-154123948D01*
X107620168Y-153994519D01*
X107699097Y-153846855D01*
X107747700Y-153686629D01*
X107764112Y-153520000D01*
X107764112Y-153369725D01*
X107959646Y-153350467D01*
X108214122Y-153273272D01*
X108448649Y-153147915D01*
X108654213Y-152979213D01*
X108696491Y-152927697D01*
X109492697Y-152131491D01*
X109544213Y-152089213D01*
X109617275Y-152000187D01*
X109712915Y-151883650D01*
X109838271Y-151649123D01*
X109838272Y-151649122D01*
X109915467Y-151394646D01*
X109935000Y-151196321D01*
X109935000Y-151196312D01*
X109941531Y-151130001D01*
X109935000Y-151063690D01*
X109935000Y-149940387D01*
X110480324Y-149940387D01*
X110796718Y-150478915D01*
X111455903Y-150853908D01*
X112175580Y-151093096D01*
X112928092Y-151187286D01*
X113684521Y-151132858D01*
X114415796Y-150931905D01*
X115093816Y-150592148D01*
X115263282Y-150478915D01*
X115579676Y-149940387D01*
X113030000Y-147390711D01*
X110480324Y-149940387D01*
X109935000Y-149940387D01*
X109935000Y-149590833D01*
X110409613Y-149869676D01*
X112959289Y-147320000D01*
X113100711Y-147320000D01*
X115650387Y-149869676D01*
X116188915Y-149553282D01*
X116563908Y-148894097D01*
X116803096Y-148174420D01*
X116897286Y-147421908D01*
X116842858Y-146665479D01*
X116641905Y-145934204D01*
X116302148Y-145256184D01*
X116188915Y-145086718D01*
X115650387Y-144770324D01*
X113100711Y-147320000D01*
X112959289Y-147320000D01*
X110409613Y-144770324D01*
X109935000Y-145049167D01*
X109935000Y-144699613D01*
X110480324Y-144699613D01*
X113030000Y-147249289D01*
X115579676Y-144699613D01*
X115263282Y-144161085D01*
X114604097Y-143786092D01*
X113884420Y-143546904D01*
X113131908Y-143452714D01*
X112375479Y-143507142D01*
X111644204Y-143708095D01*
X110966184Y-144047852D01*
X110796718Y-144161085D01*
X110480324Y-144699613D01*
X109935000Y-144699613D01*
X109935000Y-142799188D01*
X110208353Y-142525836D01*
X110335481Y-142630168D01*
X110483145Y-142709097D01*
X110643371Y-142757700D01*
X110810000Y-142774112D01*
X112710000Y-142774112D01*
X112876629Y-142757700D01*
X113036855Y-142709097D01*
X113184519Y-142630168D01*
X113313948Y-142523948D01*
X113420168Y-142394519D01*
X113499097Y-142246855D01*
X113547700Y-142086629D01*
X113564112Y-141920000D01*
X115035887Y-141920000D01*
X115052299Y-142086629D01*
X115100902Y-142246855D01*
X115179831Y-142394520D01*
X115286051Y-142523949D01*
X115415480Y-142630169D01*
X115563145Y-142709098D01*
X115723371Y-142757701D01*
X115890000Y-142774113D01*
X116577500Y-142770000D01*
X116790000Y-142557500D01*
X116790000Y-141020000D01*
X116890000Y-141020000D01*
X116890000Y-142557500D01*
X117102500Y-142770000D01*
X117790000Y-142774113D01*
X117956629Y-142757701D01*
X118116855Y-142709098D01*
X118264520Y-142630169D01*
X118393949Y-142523949D01*
X118500169Y-142394520D01*
X118579098Y-142246855D01*
X118627701Y-142086629D01*
X118644113Y-141920000D01*
X118640000Y-141232500D01*
X118427500Y-141020000D01*
X116890000Y-141020000D01*
X116790000Y-141020000D01*
X115252500Y-141020000D01*
X115040000Y-141232500D01*
X115035887Y-141920000D01*
X113564112Y-141920000D01*
X113564112Y-140020000D01*
X115035887Y-140020000D01*
X115040000Y-140707500D01*
X115252500Y-140920000D01*
X116790000Y-140920000D01*
X116790000Y-139382500D01*
X116890000Y-139382500D01*
X116890000Y-140920000D01*
X118427500Y-140920000D01*
X118640000Y-140707500D01*
X118644113Y-140020000D01*
X118627701Y-139853371D01*
X118579098Y-139693145D01*
X118500169Y-139545480D01*
X118393949Y-139416051D01*
X118264520Y-139309831D01*
X118116855Y-139230902D01*
X117956629Y-139182299D01*
X117790000Y-139165887D01*
X117102500Y-139170000D01*
X116890000Y-139382500D01*
X116790000Y-139382500D01*
X116577500Y-139170000D01*
X115890000Y-139165887D01*
X115723371Y-139182299D01*
X115563145Y-139230902D01*
X115415480Y-139309831D01*
X115286051Y-139416051D01*
X115179831Y-139545480D01*
X115100902Y-139693145D01*
X115052299Y-139853371D01*
X115035887Y-140020000D01*
X113564112Y-140020000D01*
X113547700Y-139853371D01*
X113499097Y-139693145D01*
X113420168Y-139545481D01*
X113313948Y-139416052D01*
X113184519Y-139309832D01*
X113036855Y-139230903D01*
X112876629Y-139182300D01*
X112710000Y-139165888D01*
X110810000Y-139165888D01*
X110643371Y-139182300D01*
X110483145Y-139230903D01*
X110335481Y-139309832D01*
X110206052Y-139416052D01*
X110099832Y-139545481D01*
X110060000Y-139620000D01*
X109921310Y-139620000D01*
X109854999Y-139613469D01*
X109788688Y-139620000D01*
X109788679Y-139620000D01*
X109590354Y-139639533D01*
X109335878Y-139716728D01*
X109226707Y-139775081D01*
X109101350Y-139842085D01*
X108947301Y-139968510D01*
X108947298Y-139968513D01*
X108895787Y-140010787D01*
X108853513Y-140062298D01*
X107764112Y-141151700D01*
X107764112Y-141120000D01*
X107747700Y-140953371D01*
X107699097Y-140793145D01*
X107620168Y-140645481D01*
X107513948Y-140516052D01*
X107384519Y-140409832D01*
X107236855Y-140330903D01*
X107076629Y-140282300D01*
X106910000Y-140265888D01*
X103910000Y-140265888D01*
X103743371Y-140282300D01*
X103583145Y-140330903D01*
X103435481Y-140409832D01*
X103306052Y-140516052D01*
X103199832Y-140645481D01*
X103194550Y-140655362D01*
X102601490Y-140062302D01*
X102559213Y-140010787D01*
X102353649Y-139842085D01*
X102119122Y-139716728D01*
X101864646Y-139639533D01*
X101666321Y-139620000D01*
X101666319Y-139620000D01*
X101600000Y-139613468D01*
X101533681Y-139620000D01*
X100760000Y-139620000D01*
X100720168Y-139545481D01*
X100613948Y-139416052D01*
X100570019Y-139380000D01*
X103605887Y-139380000D01*
X103622299Y-139546629D01*
X103670902Y-139706855D01*
X103749831Y-139854520D01*
X103856051Y-139983949D01*
X103985480Y-140090169D01*
X104133145Y-140169098D01*
X104293371Y-140217701D01*
X104460000Y-140234113D01*
X105147500Y-140230000D01*
X105360000Y-140017500D01*
X105360000Y-138480000D01*
X105460000Y-138480000D01*
X105460000Y-140017500D01*
X105672500Y-140230000D01*
X106360000Y-140234113D01*
X106526629Y-140217701D01*
X106686855Y-140169098D01*
X106834520Y-140090169D01*
X106963949Y-139983949D01*
X107070169Y-139854520D01*
X107149098Y-139706855D01*
X107197701Y-139546629D01*
X107214113Y-139380000D01*
X107210000Y-138692500D01*
X106997500Y-138480000D01*
X105460000Y-138480000D01*
X105360000Y-138480000D01*
X103822500Y-138480000D01*
X103610000Y-138692500D01*
X103605887Y-139380000D01*
X100570019Y-139380000D01*
X100484519Y-139309832D01*
X100336855Y-139230903D01*
X100176629Y-139182300D01*
X100010000Y-139165888D01*
X98110000Y-139165888D01*
X97943371Y-139182300D01*
X97783145Y-139230903D01*
X97635481Y-139309832D01*
X97506052Y-139416052D01*
X97399832Y-139545481D01*
X97320903Y-139693145D01*
X97272300Y-139853371D01*
X97255888Y-140020000D01*
X97255888Y-141920000D01*
X97272300Y-142086629D01*
X97320903Y-142246855D01*
X97399832Y-142394519D01*
X97506052Y-142523948D01*
X97635481Y-142630168D01*
X97783145Y-142709097D01*
X97943371Y-142757700D01*
X98110000Y-142774112D01*
X100010000Y-142774112D01*
X100176629Y-142757700D01*
X100336855Y-142709097D01*
X100484519Y-142630168D01*
X100613948Y-142523948D01*
X100720168Y-142394519D01*
X100760000Y-142320000D01*
X101040812Y-142320000D01*
X102248509Y-143527697D01*
X102290787Y-143579213D01*
X102496351Y-143747915D01*
X102730878Y-143873272D01*
X102985354Y-143950467D01*
X103055888Y-143957414D01*
X103055888Y-144120000D01*
X103072300Y-144286629D01*
X103120903Y-144446855D01*
X103199832Y-144594519D01*
X103306052Y-144723948D01*
X103435481Y-144830168D01*
X103583145Y-144909097D01*
X103743371Y-144957700D01*
X103868251Y-144970000D01*
X103743371Y-144982300D01*
X103583145Y-145030903D01*
X103435481Y-145109832D01*
X103306052Y-145216052D01*
X103199832Y-145345481D01*
X103120903Y-145493145D01*
X103072300Y-145653371D01*
X103055888Y-145820000D01*
X103055888Y-145970000D01*
X102936319Y-145970000D01*
X102870000Y-145963468D01*
X102803681Y-145970000D01*
X102803679Y-145970000D01*
X102605354Y-145989533D01*
X102410105Y-146048761D01*
X102350877Y-146066728D01*
X102233615Y-146129406D01*
X102116351Y-146192085D01*
X101910787Y-146360787D01*
X101868505Y-146412308D01*
X101603695Y-146677117D01*
X101602858Y-146665479D01*
X101401905Y-145934204D01*
X101062148Y-145256184D01*
X100948915Y-145086718D01*
X100410387Y-144770324D01*
X97860711Y-147320000D01*
X97874853Y-147334142D01*
X97804142Y-147404853D01*
X97790000Y-147390711D01*
X95240324Y-149940387D01*
X95556718Y-150478915D01*
X96215903Y-150853908D01*
X96935580Y-151093096D01*
X97688092Y-151187286D01*
X98415893Y-151134918D01*
X93072299Y-156478513D01*
X93020788Y-156520787D01*
X92978514Y-156572298D01*
X92978510Y-156572302D01*
X92852085Y-156726351D01*
X92790000Y-156842505D01*
X92790000Y-156640000D01*
X92864519Y-156600168D01*
X92993948Y-156493948D01*
X93100168Y-156364519D01*
X93179097Y-156216855D01*
X93227700Y-156056629D01*
X93244112Y-155890000D01*
X93244112Y-153990000D01*
X93227700Y-153823371D01*
X93179097Y-153663145D01*
X93100168Y-153515481D01*
X92993948Y-153386052D01*
X92864519Y-153279832D01*
X92716855Y-153200903D01*
X92556629Y-153152300D01*
X92390000Y-153135888D01*
X90490000Y-153135888D01*
X90323371Y-153152300D01*
X90170000Y-153198824D01*
X90016629Y-153152300D01*
X89850000Y-153135888D01*
X87950000Y-153135888D01*
X87783371Y-153152300D01*
X87623145Y-153200903D01*
X87475481Y-153279832D01*
X87346052Y-153386052D01*
X87322334Y-153414952D01*
X87071537Y-153277127D01*
X86733455Y-153170265D01*
X86381021Y-153131413D01*
X86027779Y-153162064D01*
X85687305Y-153261039D01*
X85372682Y-153424537D01*
X85337724Y-153447893D01*
X85267219Y-153776508D01*
X86360000Y-154869289D01*
X86374142Y-154855147D01*
X86444853Y-154925858D01*
X86430711Y-154940000D01*
X86444853Y-154954142D01*
X86374142Y-155024853D01*
X86360000Y-155010711D01*
X85267219Y-156103492D01*
X85337724Y-156432107D01*
X85648463Y-156602873D01*
X85986545Y-156709735D01*
X86338979Y-156748587D01*
X86692221Y-156717936D01*
X87032695Y-156618961D01*
X87324289Y-156467430D01*
X87346052Y-156493948D01*
X87475481Y-156600168D01*
X87550000Y-156640000D01*
X87550001Y-158320000D01*
X87475481Y-158359832D01*
X87346052Y-158466052D01*
X87239832Y-158595481D01*
X87160903Y-158743145D01*
X87112300Y-158903371D01*
X87095888Y-159070000D01*
X87095888Y-160970000D01*
X87112300Y-161136629D01*
X87160903Y-161296855D01*
X87239832Y-161444519D01*
X87344164Y-161571647D01*
X85371648Y-163544164D01*
X85244519Y-163439832D01*
X85096855Y-163360903D01*
X84936629Y-163312300D01*
X84770000Y-163295888D01*
X82870000Y-163295888D01*
X82703371Y-163312300D01*
X82543145Y-163360903D01*
X82395481Y-163439832D01*
X82266052Y-163546052D01*
X82159832Y-163675481D01*
X82080903Y-163823145D01*
X82032300Y-163983371D01*
X82015888Y-164150000D01*
X82015888Y-166050000D01*
X82032300Y-166216629D01*
X82080903Y-166376855D01*
X82159832Y-166524519D01*
X82266052Y-166653948D01*
X82395481Y-166760168D01*
X82543145Y-166839097D01*
X82703371Y-166887700D01*
X82870000Y-166904112D01*
X84770000Y-166904112D01*
X84936629Y-166887700D01*
X85096855Y-166839097D01*
X85244519Y-166760168D01*
X85373948Y-166653948D01*
X85480168Y-166524519D01*
X85520000Y-166450000D01*
X85658681Y-166450000D01*
X85725000Y-166456532D01*
X85791319Y-166450000D01*
X85791321Y-166450000D01*
X85989646Y-166430467D01*
X86244122Y-166353272D01*
X86478649Y-166227915D01*
X86684213Y-166059213D01*
X86726491Y-166007697D01*
X89807707Y-162926482D01*
X89859212Y-162884213D01*
X89901483Y-162832706D01*
X89901490Y-162832699D01*
X90027915Y-162678650D01*
X90153271Y-162444123D01*
X90153272Y-162444122D01*
X90230467Y-162189646D01*
X90250000Y-161991321D01*
X90250000Y-161991312D01*
X90256531Y-161925001D01*
X90250000Y-161858690D01*
X90250000Y-161785444D01*
X90323371Y-161807700D01*
X90490000Y-161824112D01*
X92390000Y-161824112D01*
X92556629Y-161807700D01*
X92710000Y-161761176D01*
X92863371Y-161807700D01*
X93030000Y-161824112D01*
X94930000Y-161824112D01*
X95096629Y-161807700D01*
X95250000Y-161761176D01*
X95403371Y-161807700D01*
X95570000Y-161824112D01*
X97470000Y-161824112D01*
X97636629Y-161807700D01*
X97796855Y-161759097D01*
X97944519Y-161680168D01*
X98073948Y-161573948D01*
X98180168Y-161444519D01*
X98220000Y-161370000D01*
X99057504Y-161370000D01*
X98941350Y-161432085D01*
X98787301Y-161558510D01*
X98787298Y-161558513D01*
X98735787Y-161600787D01*
X98693513Y-161652298D01*
X95612299Y-164733513D01*
X95560788Y-164775787D01*
X95518514Y-164827298D01*
X95518510Y-164827302D01*
X95392085Y-164981351D01*
X95266729Y-165215878D01*
X95189534Y-165470354D01*
X95163468Y-165735000D01*
X95170001Y-165801329D01*
X95170000Y-168414557D01*
X95096629Y-168392300D01*
X94930000Y-168375888D01*
X93030000Y-168375888D01*
X92863371Y-168392300D01*
X92710000Y-168438824D01*
X92556629Y-168392300D01*
X92390000Y-168375888D01*
X90490000Y-168375888D01*
X90323371Y-168392300D01*
X90170000Y-168438824D01*
X90016629Y-168392300D01*
X89850000Y-168375888D01*
X87950000Y-168375888D01*
X87783371Y-168392300D01*
X87623145Y-168440903D01*
X87475481Y-168519832D01*
X87346052Y-168626052D01*
X87239832Y-168755481D01*
X87160903Y-168903145D01*
X87112300Y-169063371D01*
X87095888Y-169230000D01*
X87095888Y-171130000D01*
X87112300Y-171296629D01*
X87134556Y-171370000D01*
X85585444Y-171370000D01*
X85607700Y-171296629D01*
X85624112Y-171130000D01*
X85624112Y-169230000D01*
X85607700Y-169063371D01*
X85559097Y-168903145D01*
X85480168Y-168755481D01*
X85373948Y-168626052D01*
X85244519Y-168519832D01*
X85096855Y-168440903D01*
X84936629Y-168392300D01*
X84770000Y-168375888D01*
X82870000Y-168375888D01*
X82703371Y-168392300D01*
X82543145Y-168440903D01*
X82395481Y-168519832D01*
X82266052Y-168626052D01*
X82159832Y-168755481D01*
X82080903Y-168903145D01*
X82032300Y-169063371D01*
X82015888Y-169230000D01*
X82015888Y-171130000D01*
X82032300Y-171296629D01*
X82080903Y-171456855D01*
X82159832Y-171604519D01*
X82266052Y-171733948D01*
X82395481Y-171840168D01*
X82470001Y-171880000D01*
X82470001Y-172018672D01*
X82463468Y-172085000D01*
X82489534Y-172349646D01*
X82566729Y-172604122D01*
X82692085Y-172838649D01*
X82818510Y-172992698D01*
X82818514Y-172992702D01*
X82860788Y-173044213D01*
X82912300Y-173086487D01*
X83453505Y-173627692D01*
X83495787Y-173679213D01*
X83701351Y-173847915D01*
X83740001Y-173868574D01*
X83740000Y-186260000D01*
X83665481Y-186299832D01*
X83536052Y-186406052D01*
X83429832Y-186535481D01*
X83390000Y-186610000D01*
X81710000Y-186610000D01*
X81670168Y-186535481D01*
X81563948Y-186406052D01*
X81434519Y-186299832D01*
X81286855Y-186220903D01*
X81126629Y-186172300D01*
X80960000Y-186155888D01*
X79060000Y-186155888D01*
X78893371Y-186172300D01*
X78733145Y-186220903D01*
X78585481Y-186299832D01*
X78456052Y-186406052D01*
X78349832Y-186535481D01*
X78270903Y-186683145D01*
X78222300Y-186843371D01*
X78205888Y-187010000D01*
X78205888Y-188910000D01*
X78222300Y-189076629D01*
X78268824Y-189230000D01*
X78222300Y-189383371D01*
X78205888Y-189550000D01*
X78205888Y-191450000D01*
X78222300Y-191616629D01*
X78270903Y-191776855D01*
X78349832Y-191924519D01*
X78456052Y-192053948D01*
X78484952Y-192077666D01*
X78347127Y-192328463D01*
X78240265Y-192666545D01*
X78201413Y-193018979D01*
X77250000Y-193018979D01*
X77250000Y-154918979D01*
X84551413Y-154918979D01*
X84582064Y-155272221D01*
X84681039Y-155612695D01*
X84844537Y-155927318D01*
X84867893Y-155962276D01*
X85196508Y-156032781D01*
X86289289Y-154940000D01*
X85196508Y-153847219D01*
X84867893Y-153917724D01*
X84697127Y-154228463D01*
X84590265Y-154566545D01*
X84551413Y-154918979D01*
X77250000Y-154918979D01*
X77250000Y-147218092D01*
X93922714Y-147218092D01*
X93977142Y-147974521D01*
X94178095Y-148705796D01*
X94517852Y-149383816D01*
X94631085Y-149553282D01*
X95169613Y-149869676D01*
X97719289Y-147320000D01*
X95169613Y-144770324D01*
X94631085Y-145086718D01*
X94256092Y-145745903D01*
X94016904Y-146465580D01*
X93922714Y-147218092D01*
X77250000Y-147218092D01*
X77250000Y-144699613D01*
X95240324Y-144699613D01*
X97790000Y-147249289D01*
X100339676Y-144699613D01*
X100023282Y-144161085D01*
X99364097Y-143786092D01*
X98644420Y-143546904D01*
X97891908Y-143452714D01*
X97135479Y-143507142D01*
X96404204Y-143708095D01*
X95726184Y-144047852D01*
X95556718Y-144161085D01*
X95240324Y-144699613D01*
X77250000Y-144699613D01*
X77250000Y-140020000D01*
X79475888Y-140020000D01*
X79475888Y-141920000D01*
X79492300Y-142086629D01*
X79540903Y-142246855D01*
X79619832Y-142394519D01*
X79726052Y-142523948D01*
X79855481Y-142630168D01*
X80003145Y-142709097D01*
X80163371Y-142757700D01*
X80330000Y-142774112D01*
X82230000Y-142774112D01*
X82396629Y-142757700D01*
X82556855Y-142709097D01*
X82704519Y-142630168D01*
X82833948Y-142523948D01*
X82940168Y-142394519D01*
X83019097Y-142246855D01*
X83067700Y-142086629D01*
X83084112Y-141920000D01*
X83084112Y-140020000D01*
X84555888Y-140020000D01*
X84555888Y-141920000D01*
X84572300Y-142086629D01*
X84620903Y-142246855D01*
X84699832Y-142394519D01*
X84806052Y-142523948D01*
X84935481Y-142630168D01*
X85083145Y-142709097D01*
X85243371Y-142757700D01*
X85410000Y-142774112D01*
X87310000Y-142774112D01*
X87476629Y-142757700D01*
X87636855Y-142709097D01*
X87784519Y-142630168D01*
X87913948Y-142523948D01*
X88020168Y-142394519D01*
X88060000Y-142320000D01*
X88833681Y-142320000D01*
X88900000Y-142326532D01*
X88966319Y-142320000D01*
X88966321Y-142320000D01*
X89164646Y-142300467D01*
X89419122Y-142223272D01*
X89653649Y-142097915D01*
X89859213Y-141929213D01*
X89866773Y-141920000D01*
X92175887Y-141920000D01*
X92192299Y-142086629D01*
X92240902Y-142246855D01*
X92319831Y-142394520D01*
X92426051Y-142523949D01*
X92555480Y-142630169D01*
X92703145Y-142709098D01*
X92863371Y-142757701D01*
X93030000Y-142774113D01*
X93717500Y-142770000D01*
X93930000Y-142557500D01*
X93930000Y-141020000D01*
X94030000Y-141020000D01*
X94030000Y-142557500D01*
X94242500Y-142770000D01*
X94930000Y-142774113D01*
X95096629Y-142757701D01*
X95256855Y-142709098D01*
X95404520Y-142630169D01*
X95533949Y-142523949D01*
X95640169Y-142394520D01*
X95719098Y-142246855D01*
X95767701Y-142086629D01*
X95784113Y-141920000D01*
X95780000Y-141232500D01*
X95567500Y-141020000D01*
X94030000Y-141020000D01*
X93930000Y-141020000D01*
X92392500Y-141020000D01*
X92180000Y-141232500D01*
X92175887Y-141920000D01*
X89866773Y-141920000D01*
X89901491Y-141877697D01*
X91759188Y-140020000D01*
X92175887Y-140020000D01*
X92180000Y-140707500D01*
X92392500Y-140920000D01*
X93930000Y-140920000D01*
X93930000Y-139382500D01*
X94030000Y-139382500D01*
X94030000Y-140920000D01*
X95567500Y-140920000D01*
X95780000Y-140707500D01*
X95784113Y-140020000D01*
X95767701Y-139853371D01*
X95719098Y-139693145D01*
X95640169Y-139545480D01*
X95533949Y-139416051D01*
X95404520Y-139309831D01*
X95256855Y-139230902D01*
X95096629Y-139182299D01*
X94930000Y-139165887D01*
X94242500Y-139170000D01*
X94030000Y-139382500D01*
X93930000Y-139382500D01*
X93717500Y-139170000D01*
X93030000Y-139165887D01*
X92863371Y-139182299D01*
X92703145Y-139230902D01*
X92555480Y-139309831D01*
X92426051Y-139416051D01*
X92319831Y-139545480D01*
X92240902Y-139693145D01*
X92192299Y-139853371D01*
X92175887Y-140020000D01*
X91759188Y-140020000D01*
X94299188Y-137480000D01*
X103605887Y-137480000D01*
X103610000Y-138167500D01*
X103822500Y-138380000D01*
X105360000Y-138380000D01*
X105360000Y-136842500D01*
X105460000Y-136842500D01*
X105460000Y-138380000D01*
X106997500Y-138380000D01*
X107210000Y-138167500D01*
X107214113Y-137480000D01*
X107197701Y-137313371D01*
X107149098Y-137153145D01*
X107070169Y-137005480D01*
X106963949Y-136876051D01*
X106834520Y-136769831D01*
X106686855Y-136690902D01*
X106526629Y-136642299D01*
X106360000Y-136625887D01*
X105672500Y-136630000D01*
X105460000Y-136842500D01*
X105360000Y-136842500D01*
X105147500Y-136630000D01*
X104460000Y-136625887D01*
X104293371Y-136642299D01*
X104133145Y-136690902D01*
X103985480Y-136769831D01*
X103856051Y-136876051D01*
X103749831Y-137005480D01*
X103670902Y-137153145D01*
X103622299Y-137313371D01*
X103605887Y-137480000D01*
X94299188Y-137480000D01*
X94539189Y-137240000D01*
X95818681Y-137240000D01*
X95885000Y-137246532D01*
X95951319Y-137240000D01*
X95951321Y-137240000D01*
X96149646Y-137220467D01*
X96404122Y-137143272D01*
X96638649Y-137017915D01*
X96844213Y-136849213D01*
X96886491Y-136797697D01*
X101284188Y-132400000D01*
X102335888Y-132400000D01*
X102335888Y-134300000D01*
X102352300Y-134466629D01*
X102400903Y-134626855D01*
X102479832Y-134774519D01*
X102586052Y-134903948D01*
X102715481Y-135010168D01*
X102863145Y-135089097D01*
X103023371Y-135137700D01*
X103190000Y-135154112D01*
X105090000Y-135154112D01*
X105256629Y-135137700D01*
X105416855Y-135089097D01*
X105564519Y-135010168D01*
X105693948Y-134903948D01*
X105800168Y-134774519D01*
X105879097Y-134626855D01*
X105927700Y-134466629D01*
X105944112Y-134300000D01*
X105944112Y-132400000D01*
X105927700Y-132233371D01*
X105879097Y-132073145D01*
X105800168Y-131925481D01*
X105693948Y-131796052D01*
X105564519Y-131689832D01*
X105416855Y-131610903D01*
X105256629Y-131562300D01*
X105090000Y-131545888D01*
X103190000Y-131545888D01*
X103023371Y-131562300D01*
X102863145Y-131610903D01*
X102715481Y-131689832D01*
X102586052Y-131796052D01*
X102479832Y-131925481D01*
X102400903Y-132073145D01*
X102352300Y-132233371D01*
X102335888Y-132400000D01*
X101284188Y-132400000D01*
X102507701Y-131176487D01*
X102559212Y-131134213D01*
X102727915Y-130928649D01*
X102791334Y-130810000D01*
X102853272Y-130694123D01*
X102930467Y-130439646D01*
X102956532Y-130175000D01*
X102950000Y-130108679D01*
X102950000Y-130035444D01*
X103023371Y-130057700D01*
X103190000Y-130074112D01*
X105090000Y-130074112D01*
X105256629Y-130057700D01*
X105330001Y-130035443D01*
X105330001Y-130108672D01*
X105323468Y-130175000D01*
X105349534Y-130439646D01*
X105426729Y-130694122D01*
X105552085Y-130928649D01*
X105678510Y-131082698D01*
X105678514Y-131082702D01*
X105720788Y-131134213D01*
X105772300Y-131176487D01*
X106313505Y-131717692D01*
X106355787Y-131769213D01*
X106561351Y-131937915D01*
X106665284Y-131993468D01*
X106795877Y-132063272D01*
X106855105Y-132081239D01*
X107050354Y-132140467D01*
X107248679Y-132160000D01*
X107248681Y-132160000D01*
X107315000Y-132166532D01*
X107381319Y-132160000D01*
X115074556Y-132160000D01*
X115052300Y-132233371D01*
X115035888Y-132400000D01*
X115035888Y-134300000D01*
X115052300Y-134466629D01*
X115098824Y-134620000D01*
X115052300Y-134773371D01*
X115035888Y-134940000D01*
X115035888Y-136840000D01*
X115052300Y-137006629D01*
X115100903Y-137166855D01*
X115179832Y-137314519D01*
X115286052Y-137443948D01*
X115415481Y-137550168D01*
X115563145Y-137629097D01*
X115723371Y-137677700D01*
X115890000Y-137694112D01*
X117790000Y-137694112D01*
X117956629Y-137677700D01*
X118116855Y-137629097D01*
X118264519Y-137550168D01*
X118393948Y-137443948D01*
X118500168Y-137314519D01*
X118579097Y-137166855D01*
X118627700Y-137006629D01*
X118644112Y-136840000D01*
X118644112Y-135158300D01*
X120570000Y-137084189D01*
X120570001Y-139270000D01*
X120495481Y-139309832D01*
X120366052Y-139416052D01*
X120259832Y-139545481D01*
X120180903Y-139693145D01*
X120132300Y-139853371D01*
X120115888Y-140020000D01*
X120115888Y-141920000D01*
X120132300Y-142086629D01*
X120180903Y-142246855D01*
X120259832Y-142394519D01*
X120366052Y-142523948D01*
X120495481Y-142630168D01*
X120643145Y-142709097D01*
X120803371Y-142757700D01*
X120970000Y-142774112D01*
X122870000Y-142774112D01*
X123036629Y-142757700D01*
X123190000Y-142711176D01*
X123343371Y-142757700D01*
X123510000Y-142774112D01*
X125410000Y-142774112D01*
X125576629Y-142757700D01*
X125736855Y-142709097D01*
X125884519Y-142630168D01*
X126013948Y-142523948D01*
X126037666Y-142495048D01*
X126288463Y-142632873D01*
X126626545Y-142739735D01*
X126978979Y-142778587D01*
X127332221Y-142747936D01*
X127672695Y-142648961D01*
X127987318Y-142485463D01*
X128022276Y-142462107D01*
X128092781Y-142133492D01*
X127000000Y-141040711D01*
X126985858Y-141054853D01*
X126915147Y-140984142D01*
X126929289Y-140970000D01*
X127070711Y-140970000D01*
X128163492Y-142062781D01*
X128492107Y-141992276D01*
X128662873Y-141681537D01*
X128769735Y-141343455D01*
X128808587Y-140991021D01*
X128777936Y-140637779D01*
X128678961Y-140297305D01*
X128515463Y-139982682D01*
X128492107Y-139947724D01*
X128163492Y-139877219D01*
X127070711Y-140970000D01*
X126929289Y-140970000D01*
X126915147Y-140955858D01*
X126985858Y-140885147D01*
X127000000Y-140899289D01*
X128092781Y-139806508D01*
X128022276Y-139477893D01*
X127711537Y-139307127D01*
X127373455Y-139200265D01*
X127021021Y-139161413D01*
X126667779Y-139192064D01*
X126327305Y-139291039D01*
X126035711Y-139442570D01*
X126013948Y-139416052D01*
X125884519Y-139309832D01*
X125810000Y-139270000D01*
X125810000Y-137655444D01*
X125883371Y-137677700D01*
X126050000Y-137694112D01*
X127950000Y-137694112D01*
X128116629Y-137677700D01*
X128276855Y-137629097D01*
X128424519Y-137550168D01*
X128553948Y-137443948D01*
X128660168Y-137314519D01*
X128739097Y-137166855D01*
X128787700Y-137006629D01*
X128804112Y-136840000D01*
X128804112Y-135158300D01*
X129460000Y-135814189D01*
X129460001Y-141680811D01*
X126092299Y-145048513D01*
X126040787Y-145090788D01*
X125998513Y-145142299D01*
X125998510Y-145142302D01*
X125872085Y-145296351D01*
X125845825Y-145345481D01*
X125746728Y-145530879D01*
X125669533Y-145785355D01*
X125650000Y-145983679D01*
X125643468Y-146050000D01*
X125650000Y-146116319D01*
X125650001Y-153240000D01*
X125575481Y-153279832D01*
X125446052Y-153386052D01*
X125420629Y-153417030D01*
X125312620Y-153344861D01*
X124985041Y-153209173D01*
X124637284Y-153140000D01*
X124282716Y-153140000D01*
X123934959Y-153209173D01*
X123607380Y-153344861D01*
X123499371Y-153417030D01*
X123473948Y-153386052D01*
X123344519Y-153279832D01*
X123196855Y-153200903D01*
X123036629Y-153152300D01*
X122870000Y-153135888D01*
X120970000Y-153135888D01*
X120803371Y-153152300D01*
X120643145Y-153200903D01*
X120495481Y-153279832D01*
X120366052Y-153386052D01*
X120259832Y-153515481D01*
X120180903Y-153663145D01*
X120132300Y-153823371D01*
X120115888Y-153990000D01*
X120115888Y-155890000D01*
X120132300Y-156056629D01*
X120180903Y-156216855D01*
X120259832Y-156364519D01*
X120366052Y-156493948D01*
X120495481Y-156600168D01*
X120643145Y-156679097D01*
X120803371Y-156727700D01*
X120970000Y-156744112D01*
X122870000Y-156744112D01*
X123036629Y-156727700D01*
X123196855Y-156679097D01*
X123344519Y-156600168D01*
X123473948Y-156493948D01*
X123499371Y-156462970D01*
X123607380Y-156535139D01*
X123934959Y-156670827D01*
X124282716Y-156740000D01*
X124637284Y-156740000D01*
X124985041Y-156670827D01*
X125312620Y-156535139D01*
X125420629Y-156462970D01*
X125446052Y-156493948D01*
X125575481Y-156600168D01*
X125723145Y-156679097D01*
X125883371Y-156727700D01*
X126050000Y-156744112D01*
X127950000Y-156744112D01*
X128116629Y-156727700D01*
X128276855Y-156679097D01*
X128424519Y-156600168D01*
X128553948Y-156493948D01*
X128660168Y-156364519D01*
X128739097Y-156216855D01*
X128787700Y-156056629D01*
X128804112Y-155890000D01*
X128804112Y-153990000D01*
X128787700Y-153823371D01*
X128739097Y-153663145D01*
X128660168Y-153515481D01*
X128553948Y-153386052D01*
X128424519Y-153279832D01*
X128350000Y-153240000D01*
X128350000Y-146609188D01*
X131717698Y-143241490D01*
X131769213Y-143199213D01*
X131842275Y-143110187D01*
X131937915Y-142993650D01*
X132063272Y-142759123D01*
X132101569Y-142632873D01*
X132140467Y-142504646D01*
X132160000Y-142306321D01*
X132160000Y-142306319D01*
X132166532Y-142240000D01*
X132160000Y-142173679D01*
X132160000Y-135321319D01*
X132166532Y-135255000D01*
X132158009Y-135168468D01*
X132140467Y-134990354D01*
X132063272Y-134735878D01*
X131992392Y-134603271D01*
X131937915Y-134501350D01*
X131811490Y-134347301D01*
X131811483Y-134347294D01*
X131769212Y-134295787D01*
X131717706Y-134253517D01*
X129906490Y-132442302D01*
X129864213Y-132390787D01*
X129658649Y-132222085D01*
X129424122Y-132096728D01*
X129169646Y-132019533D01*
X128971321Y-132000000D01*
X128971319Y-132000000D01*
X128905000Y-131993468D01*
X128838681Y-132000000D01*
X128700000Y-132000000D01*
X128660168Y-131925481D01*
X128553948Y-131796052D01*
X128424519Y-131689832D01*
X128276855Y-131610903D01*
X128116629Y-131562300D01*
X127950000Y-131545888D01*
X126050000Y-131545888D01*
X125883371Y-131562300D01*
X125723145Y-131610903D01*
X125575481Y-131689832D01*
X125446052Y-131796052D01*
X125339832Y-131925481D01*
X125260903Y-132073145D01*
X125212300Y-132233371D01*
X125195888Y-132400000D01*
X125195888Y-134300000D01*
X125212300Y-134466629D01*
X125234556Y-134540000D01*
X125161319Y-134540000D01*
X125095000Y-134533468D01*
X125028681Y-134540000D01*
X125028679Y-134540000D01*
X124830354Y-134559533D01*
X124653620Y-134613145D01*
X124575877Y-134636728D01*
X124494048Y-134680467D01*
X124341351Y-134762085D01*
X124135787Y-134930787D01*
X124093505Y-134982308D01*
X123552300Y-135523513D01*
X123500788Y-135565787D01*
X123458514Y-135617298D01*
X123458510Y-135617302D01*
X123332085Y-135771351D01*
X123206729Y-136005878D01*
X123190001Y-136061024D01*
X123173272Y-136005878D01*
X123111334Y-135890000D01*
X123047915Y-135771350D01*
X122921490Y-135617301D01*
X122921483Y-135617294D01*
X122879212Y-135565787D01*
X122827707Y-135523518D01*
X119746490Y-132442302D01*
X119704213Y-132390787D01*
X119498649Y-132222085D01*
X119264122Y-132096728D01*
X119009646Y-132019533D01*
X118811321Y-132000000D01*
X118811319Y-132000000D01*
X118745000Y-131993468D01*
X118678681Y-132000000D01*
X118540000Y-132000000D01*
X118500168Y-131925481D01*
X118393948Y-131796052D01*
X118264519Y-131689832D01*
X118190000Y-131650000D01*
X118190000Y-131511319D01*
X118196532Y-131445000D01*
X118182538Y-131302915D01*
X118170467Y-131180354D01*
X118094113Y-130928649D01*
X118093272Y-130925877D01*
X118030593Y-130808614D01*
X117967915Y-130691351D01*
X117799212Y-130485787D01*
X117747696Y-130443509D01*
X117378300Y-130074112D01*
X117790000Y-130074112D01*
X117956629Y-130057700D01*
X118116855Y-130009097D01*
X118264519Y-129930168D01*
X118393948Y-129823948D01*
X118500168Y-129694519D01*
X118579097Y-129546855D01*
X118627700Y-129386629D01*
X118644112Y-129220000D01*
X125195887Y-129220000D01*
X125212299Y-129386629D01*
X125260902Y-129546855D01*
X125339831Y-129694520D01*
X125446051Y-129823949D01*
X125575480Y-129930169D01*
X125723145Y-130009098D01*
X125883371Y-130057701D01*
X126050000Y-130074113D01*
X126737500Y-130070000D01*
X126950000Y-129857500D01*
X126950000Y-128320000D01*
X127050000Y-128320000D01*
X127050000Y-129857500D01*
X127262500Y-130070000D01*
X127950000Y-130074113D01*
X128116629Y-130057701D01*
X128276855Y-130009098D01*
X128424520Y-129930169D01*
X128553949Y-129823949D01*
X128660169Y-129694520D01*
X128739098Y-129546855D01*
X128787701Y-129386629D01*
X128804113Y-129220000D01*
X128800000Y-128532500D01*
X128587500Y-128320000D01*
X127050000Y-128320000D01*
X126950000Y-128320000D01*
X125412500Y-128320000D01*
X125200000Y-128532500D01*
X125195887Y-129220000D01*
X118644112Y-129220000D01*
X118644112Y-127320000D01*
X125195887Y-127320000D01*
X125200000Y-128007500D01*
X125412500Y-128220000D01*
X126950000Y-128220000D01*
X126950000Y-126682500D01*
X127050000Y-126682500D01*
X127050000Y-128220000D01*
X128587500Y-128220000D01*
X128800000Y-128007500D01*
X128804113Y-127320000D01*
X128787701Y-127153371D01*
X128739098Y-126993145D01*
X128660169Y-126845480D01*
X128553949Y-126716051D01*
X128424520Y-126609831D01*
X128276855Y-126530902D01*
X128116629Y-126482299D01*
X127950000Y-126465887D01*
X127262500Y-126470000D01*
X127050000Y-126682500D01*
X126950000Y-126682500D01*
X126737500Y-126470000D01*
X126050000Y-126465887D01*
X125883371Y-126482299D01*
X125723145Y-126530902D01*
X125575480Y-126609831D01*
X125446051Y-126716051D01*
X125339831Y-126845480D01*
X125260902Y-126993145D01*
X125212299Y-127153371D01*
X125195887Y-127320000D01*
X118644112Y-127320000D01*
X118627700Y-127153371D01*
X118579097Y-126993145D01*
X118500168Y-126845481D01*
X118393948Y-126716052D01*
X118264519Y-126609832D01*
X118116855Y-126530903D01*
X117956629Y-126482300D01*
X117790000Y-126465888D01*
X115890000Y-126465888D01*
X115723371Y-126482300D01*
X115563145Y-126530903D01*
X115415481Y-126609832D01*
X115286052Y-126716052D01*
X115179832Y-126845481D01*
X115140000Y-126920000D01*
X113460000Y-126920000D01*
X113420168Y-126845481D01*
X113313948Y-126716052D01*
X113184519Y-126609832D01*
X113036855Y-126530903D01*
X112876629Y-126482300D01*
X112710000Y-126465888D01*
X110810000Y-126465888D01*
X110643371Y-126482300D01*
X110490000Y-126528824D01*
X110336629Y-126482300D01*
X110170000Y-126465888D01*
X108270000Y-126465888D01*
X108103371Y-126482300D01*
X107950000Y-126528824D01*
X107796629Y-126482300D01*
X107630000Y-126465888D01*
X105730000Y-126465888D01*
X105563371Y-126482300D01*
X105410000Y-126528824D01*
X105256629Y-126482300D01*
X105090000Y-126465888D01*
X103190000Y-126465888D01*
X103023371Y-126482300D01*
X102870000Y-126528824D01*
X102716629Y-126482300D01*
X102550000Y-126465888D01*
X100650000Y-126465888D01*
X100483371Y-126482300D01*
X100330000Y-126528824D01*
X100176629Y-126482300D01*
X100010000Y-126465888D01*
X98110000Y-126465888D01*
X97943371Y-126482300D01*
X97783145Y-126530903D01*
X97635481Y-126609832D01*
X97506052Y-126716052D01*
X97399832Y-126845481D01*
X97320903Y-126993145D01*
X97272300Y-127153371D01*
X97255888Y-127320000D01*
X97255888Y-129220000D01*
X97272300Y-129386629D01*
X97320903Y-129546855D01*
X97399832Y-129694519D01*
X97504164Y-129821647D01*
X95531648Y-131794164D01*
X95404519Y-131689832D01*
X95256855Y-131610903D01*
X95096629Y-131562300D01*
X94930000Y-131545888D01*
X93030000Y-131545888D01*
X92863371Y-131562300D01*
X92710000Y-131608824D01*
X92556629Y-131562300D01*
X92390000Y-131545888D01*
X90490000Y-131545888D01*
X90323371Y-131562300D01*
X90163145Y-131610903D01*
X90015481Y-131689832D01*
X89886052Y-131796052D01*
X89779832Y-131925481D01*
X89700903Y-132073145D01*
X89652300Y-132233371D01*
X89635888Y-132400000D01*
X89635888Y-134300000D01*
X89652300Y-134466629D01*
X89700903Y-134626855D01*
X89779832Y-134774519D01*
X89886052Y-134903948D01*
X90015481Y-135010168D01*
X90163145Y-135089097D01*
X90323371Y-135137700D01*
X90490000Y-135154112D01*
X92390000Y-135154112D01*
X92556629Y-135137700D01*
X92710000Y-135091176D01*
X92832481Y-135128330D01*
X88340812Y-139620000D01*
X88060000Y-139620000D01*
X88020168Y-139545481D01*
X87913948Y-139416052D01*
X87784519Y-139309832D01*
X87636855Y-139230903D01*
X87476629Y-139182300D01*
X87310000Y-139165888D01*
X85410000Y-139165888D01*
X85243371Y-139182300D01*
X85083145Y-139230903D01*
X84935481Y-139309832D01*
X84806052Y-139416052D01*
X84699832Y-139545481D01*
X84620903Y-139693145D01*
X84572300Y-139853371D01*
X84555888Y-140020000D01*
X83084112Y-140020000D01*
X83067700Y-139853371D01*
X83019097Y-139693145D01*
X82940168Y-139545481D01*
X82833948Y-139416052D01*
X82704519Y-139309832D01*
X82556855Y-139230903D01*
X82396629Y-139182300D01*
X82230000Y-139165888D01*
X80330000Y-139165888D01*
X80163371Y-139182300D01*
X80003145Y-139230903D01*
X79855481Y-139309832D01*
X79726052Y-139416052D01*
X79619832Y-139545481D01*
X79540903Y-139693145D01*
X79492300Y-139853371D01*
X79475888Y-140020000D01*
X77250000Y-140020000D01*
X77250000Y-134300000D01*
X79475887Y-134300000D01*
X79492299Y-134466629D01*
X79540902Y-134626855D01*
X79619831Y-134774520D01*
X79726051Y-134903949D01*
X79855480Y-135010169D01*
X80003145Y-135089098D01*
X80163371Y-135137701D01*
X80330000Y-135154113D01*
X81017500Y-135150000D01*
X81230000Y-134937500D01*
X81230000Y-133400000D01*
X81330000Y-133400000D01*
X81330000Y-134937500D01*
X81542500Y-135150000D01*
X82230000Y-135154113D01*
X82396629Y-135137701D01*
X82556855Y-135089098D01*
X82704520Y-135010169D01*
X82833949Y-134903949D01*
X82940169Y-134774520D01*
X83019098Y-134626855D01*
X83067701Y-134466629D01*
X83084113Y-134300000D01*
X83080000Y-133612500D01*
X82867500Y-133400000D01*
X81330000Y-133400000D01*
X81230000Y-133400000D01*
X79692500Y-133400000D01*
X79480000Y-133612500D01*
X79475887Y-134300000D01*
X77250000Y-134300000D01*
X77250000Y-132400000D01*
X79475887Y-132400000D01*
X79480000Y-133087500D01*
X79692500Y-133300000D01*
X81230000Y-133300000D01*
X81230000Y-131762500D01*
X81330000Y-131762500D01*
X81330000Y-133300000D01*
X82867500Y-133300000D01*
X83080000Y-133087500D01*
X83084113Y-132400000D01*
X83067701Y-132233371D01*
X83019098Y-132073145D01*
X82940169Y-131925480D01*
X82833949Y-131796051D01*
X82704520Y-131689831D01*
X82556855Y-131610902D01*
X82396629Y-131562299D01*
X82230000Y-131545887D01*
X81542500Y-131550000D01*
X81330000Y-131762500D01*
X81230000Y-131762500D01*
X81017500Y-131550000D01*
X80330000Y-131545887D01*
X80163371Y-131562299D01*
X80003145Y-131610902D01*
X79855480Y-131689831D01*
X79726051Y-131796051D01*
X79619831Y-131925480D01*
X79540902Y-132073145D01*
X79492299Y-132233371D01*
X79475887Y-132400000D01*
X77250000Y-132400000D01*
X77250000Y-125510000D01*
X133570000Y-125510000D01*
X133570001Y-195145075D01*
G36*
X107703851Y-189277915D02*
G01*
X107938378Y-189403272D01*
X108192854Y-189480467D01*
X108314998Y-189492497D01*
X108322300Y-189566629D01*
X108370903Y-189726855D01*
X108449832Y-189874519D01*
X108556052Y-190003948D01*
X108685481Y-190110168D01*
X108833145Y-190189097D01*
X108993371Y-190237700D01*
X109160000Y-190254112D01*
X111660000Y-190254112D01*
X111826629Y-190237700D01*
X111986855Y-190189097D01*
X112134519Y-190110168D01*
X112263948Y-190003948D01*
X112370168Y-189874519D01*
X112449097Y-189726855D01*
X112497700Y-189566629D01*
X112504263Y-189500000D01*
X112773681Y-189500000D01*
X112840000Y-189506532D01*
X112906319Y-189500000D01*
X112906321Y-189500000D01*
X113104646Y-189480467D01*
X113359122Y-189403272D01*
X113533622Y-189310000D01*
X113804555Y-189310000D01*
X113782299Y-189383371D01*
X113765887Y-189550000D01*
X113770000Y-190237500D01*
X113982500Y-190450000D01*
X115520000Y-190450000D01*
X115520000Y-190430000D01*
X115620000Y-190430000D01*
X115620000Y-190450000D01*
X115640000Y-190450000D01*
X115640000Y-190550000D01*
X115620000Y-190550000D01*
X115620000Y-190570000D01*
X115520000Y-190570000D01*
X115520000Y-190550000D01*
X113982500Y-190550000D01*
X113770000Y-190762500D01*
X113765887Y-191450000D01*
X113782299Y-191616629D01*
X113828823Y-191770002D01*
X113782300Y-191923371D01*
X113765888Y-192090000D01*
X113765888Y-193990000D01*
X113782300Y-194156629D01*
X113804556Y-194230000D01*
X112255444Y-194230000D01*
X112277700Y-194156629D01*
X112294112Y-193990000D01*
X112294112Y-192090000D01*
X112277700Y-191923371D01*
X112229097Y-191763145D01*
X112150168Y-191615481D01*
X112043948Y-191486052D01*
X111914519Y-191379832D01*
X111766855Y-191300903D01*
X111606629Y-191252300D01*
X111440000Y-191235888D01*
X109540000Y-191235888D01*
X109373371Y-191252300D01*
X109213145Y-191300903D01*
X109065481Y-191379832D01*
X108936052Y-191486052D01*
X108829832Y-191615481D01*
X108750903Y-191763145D01*
X108702300Y-191923371D01*
X108685888Y-192090000D01*
X108685888Y-193990000D01*
X108702300Y-194156629D01*
X108724556Y-194230000D01*
X108028653Y-194230000D01*
X108010467Y-194045354D01*
X107934113Y-193793649D01*
X107933272Y-193790877D01*
X107807915Y-193556350D01*
X107681490Y-193402302D01*
X107681487Y-193402299D01*
X107639212Y-193350787D01*
X107587701Y-193308513D01*
X104533300Y-190254112D01*
X106660000Y-190254112D01*
X106826629Y-190237700D01*
X106986855Y-190189097D01*
X107134519Y-190110168D01*
X107263948Y-190003948D01*
X107370168Y-189874519D01*
X107449097Y-189726855D01*
X107497700Y-189566629D01*
X107514112Y-189400000D01*
X107514112Y-189122200D01*
X107703851Y-189277915D01*
G37*
X107703851Y-189277915D02*
X107938378Y-189403272D01*
X108192854Y-189480467D01*
X108314998Y-189492497D01*
X108322300Y-189566629D01*
X108370903Y-189726855D01*
X108449832Y-189874519D01*
X108556052Y-190003948D01*
X108685481Y-190110168D01*
X108833145Y-190189097D01*
X108993371Y-190237700D01*
X109160000Y-190254112D01*
X111660000Y-190254112D01*
X111826629Y-190237700D01*
X111986855Y-190189097D01*
X112134519Y-190110168D01*
X112263948Y-190003948D01*
X112370168Y-189874519D01*
X112449097Y-189726855D01*
X112497700Y-189566629D01*
X112504263Y-189500000D01*
X112773681Y-189500000D01*
X112840000Y-189506532D01*
X112906319Y-189500000D01*
X112906321Y-189500000D01*
X113104646Y-189480467D01*
X113359122Y-189403272D01*
X113533622Y-189310000D01*
X113804555Y-189310000D01*
X113782299Y-189383371D01*
X113765887Y-189550000D01*
X113770000Y-190237500D01*
X113982500Y-190450000D01*
X115520000Y-190450000D01*
X115520000Y-190430000D01*
X115620000Y-190430000D01*
X115620000Y-190450000D01*
X115640000Y-190450000D01*
X115640000Y-190550000D01*
X115620000Y-190550000D01*
X115620000Y-190570000D01*
X115520000Y-190570000D01*
X115520000Y-190550000D01*
X113982500Y-190550000D01*
X113770000Y-190762500D01*
X113765887Y-191450000D01*
X113782299Y-191616629D01*
X113828823Y-191770002D01*
X113782300Y-191923371D01*
X113765888Y-192090000D01*
X113765888Y-193990000D01*
X113782300Y-194156629D01*
X113804556Y-194230000D01*
X112255444Y-194230000D01*
X112277700Y-194156629D01*
X112294112Y-193990000D01*
X112294112Y-192090000D01*
X112277700Y-191923371D01*
X112229097Y-191763145D01*
X112150168Y-191615481D01*
X112043948Y-191486052D01*
X111914519Y-191379832D01*
X111766855Y-191300903D01*
X111606629Y-191252300D01*
X111440000Y-191235888D01*
X109540000Y-191235888D01*
X109373371Y-191252300D01*
X109213145Y-191300903D01*
X109065481Y-191379832D01*
X108936052Y-191486052D01*
X108829832Y-191615481D01*
X108750903Y-191763145D01*
X108702300Y-191923371D01*
X108685888Y-192090000D01*
X108685888Y-193990000D01*
X108702300Y-194156629D01*
X108724556Y-194230000D01*
X108028653Y-194230000D01*
X108010467Y-194045354D01*
X107934113Y-193793649D01*
X107933272Y-193790877D01*
X107807915Y-193556350D01*
X107681490Y-193402302D01*
X107681487Y-193402299D01*
X107639212Y-193350787D01*
X107587701Y-193308513D01*
X104533300Y-190254112D01*
X106660000Y-190254112D01*
X106826629Y-190237700D01*
X106986855Y-190189097D01*
X107134519Y-190110168D01*
X107263948Y-190003948D01*
X107370168Y-189874519D01*
X107449097Y-189726855D01*
X107497700Y-189566629D01*
X107514112Y-189400000D01*
X107514112Y-189122200D01*
X107703851Y-189277915D01*
M02*
