G04 #@! TF.GenerationSoftware,KiCad,Pcbnew,5.1.6-c6e7f7d~87~ubuntu19.10.1*
G04 #@! TF.CreationDate,2022-01-09T05:59:06+06:00*
G04 #@! TF.ProjectId,__________________________r1a,4240353c-3e3b-43e5-9f41-3048385f3e33,1A*
G04 #@! TF.SameCoordinates,Original*
G04 #@! TF.FileFunction,Copper,L1,Top*
G04 #@! TF.FilePolarity,Positive*
%FSLAX46Y46*%
G04 Gerber Fmt 4.6, Leading zero omitted, Abs format (unit mm)*
G04 Created by KiCad (PCBNEW 5.1.6-c6e7f7d~87~ubuntu19.10.1) date 2022-01-09 05:59:06*
%MOMM*%
%LPD*%
G01*
G04 APERTURE LIST*
G04 #@! TA.AperFunction,ComponentPad*
%ADD10R,2.500000X2.500000*%
G04 #@! TD*
G04 #@! TA.AperFunction,ComponentPad*
%ADD11C,6.000000*%
G04 #@! TD*
G04 #@! TA.AperFunction,ComponentPad*
%ADD12R,1.900000X1.900000*%
G04 #@! TD*
G04 #@! TA.AperFunction,ComponentPad*
%ADD13C,1.900000*%
G04 #@! TD*
G04 #@! TA.AperFunction,ComponentPad*
%ADD14R,3.000000X3.000000*%
G04 #@! TD*
G04 #@! TA.AperFunction,Conductor*
%ADD15C,1.000000*%
G04 #@! TD*
G04 #@! TA.AperFunction,Conductor*
%ADD16C,0.500000*%
G04 #@! TD*
G04 APERTURE END LIST*
D10*
X110410000Y-184150000D03*
X110410000Y-188150000D03*
X110410000Y-180150000D03*
X105410000Y-184150000D03*
X105410000Y-188150000D03*
X105410000Y-180150000D03*
X100410000Y-180150000D03*
X100410000Y-184150000D03*
X100410000Y-188150000D03*
D11*
X97790000Y-147320000D03*
X113030000Y-147320000D03*
D12*
X127000000Y-133350000D03*
X116840000Y-133350000D03*
X127000000Y-154940000D03*
D13*
X124460000Y-154940000D03*
D12*
X121920000Y-154940000D03*
X125730000Y-200660000D03*
X115570000Y-200660000D03*
D13*
X101660000Y-175260000D03*
D12*
X104160000Y-175260000D03*
X106660000Y-175260000D03*
X109160000Y-175260000D03*
X92710000Y-175260000D03*
D13*
X92710000Y-177800000D03*
D12*
X92710000Y-180340000D03*
X106680000Y-128270000D03*
X99060000Y-128270000D03*
X104140000Y-128270000D03*
X101600000Y-128270000D03*
X109220000Y-128270000D03*
X111760000Y-128270000D03*
D13*
X80010000Y-193040000D03*
D12*
X80010000Y-190500000D03*
X80010000Y-187960000D03*
D13*
X86360000Y-154940000D03*
D12*
X88900000Y-154940000D03*
X91440000Y-154940000D03*
D13*
X127000000Y-140970000D03*
D12*
X124460000Y-140970000D03*
X121920000Y-140970000D03*
X105410000Y-138430000D03*
D14*
X105410000Y-152020000D03*
X105410000Y-147320000D03*
X105410000Y-142620000D03*
D12*
X119380000Y-160020000D03*
X119380000Y-170180000D03*
X85090000Y-193040000D03*
X95250000Y-193040000D03*
X115570000Y-190500000D03*
X125730000Y-190500000D03*
X125730000Y-193040000D03*
X115570000Y-193040000D03*
X124460000Y-170180000D03*
X124460000Y-160020000D03*
X121920000Y-160020000D03*
X121920000Y-170180000D03*
D13*
X125730000Y-179070000D03*
G04 #@! TA.AperFunction,ComponentPad*
G36*
G01*
X127320000Y-179450000D02*
X127320000Y-178690000D01*
G75*
G02*
X127890000Y-178120000I570000J0D01*
G01*
X128650000Y-178120000D01*
G75*
G02*
X129220000Y-178690000I0J-570000D01*
G01*
X129220000Y-179450000D01*
G75*
G02*
X128650000Y-180020000I-570000J0D01*
G01*
X127890000Y-180020000D01*
G75*
G02*
X127320000Y-179450000I0J570000D01*
G01*
G37*
G04 #@! TD.AperFunction*
X104140000Y-200660000D03*
G04 #@! TA.AperFunction,ComponentPad*
G36*
G01*
X105730000Y-201040000D02*
X105730000Y-200280000D01*
G75*
G02*
X106300000Y-199710000I570000J0D01*
G01*
X107060000Y-199710000D01*
G75*
G02*
X107630000Y-200280000I0J-570000D01*
G01*
X107630000Y-201040000D01*
G75*
G02*
X107060000Y-201610000I-570000J0D01*
G01*
X106300000Y-201610000D01*
G75*
G02*
X105730000Y-201040000I0J570000D01*
G01*
G37*
G04 #@! TD.AperFunction*
D12*
X104140000Y-133350000D03*
X93980000Y-133350000D03*
X81280000Y-133350000D03*
X91440000Y-133350000D03*
X127000000Y-128270000D03*
X116840000Y-128270000D03*
X125730000Y-195580000D03*
X115570000Y-195580000D03*
X115570000Y-198120000D03*
X125730000Y-198120000D03*
X101600000Y-165100000D03*
X101600000Y-162560000D03*
X101600000Y-160020000D03*
X101600000Y-157480000D03*
X109220000Y-157480000D03*
X109220000Y-160020000D03*
X109220000Y-162560000D03*
D13*
X109220000Y-165100000D03*
D12*
X114300000Y-170180000D03*
X114300000Y-165100000D03*
X118110000Y-185420000D03*
X123190000Y-185420000D03*
X127000000Y-135890000D03*
X116840000Y-135890000D03*
X116840000Y-140970000D03*
X111760000Y-140970000D03*
X93980000Y-140970000D03*
X99060000Y-140970000D03*
X95250000Y-190500000D03*
X85090000Y-190500000D03*
X95250000Y-187960000D03*
X85090000Y-187960000D03*
X91440000Y-160020000D03*
X91440000Y-170180000D03*
X88900000Y-160020000D03*
X88900000Y-170180000D03*
X93980000Y-160020000D03*
X93980000Y-170180000D03*
X81280000Y-140970000D03*
X86360000Y-140970000D03*
X83820000Y-170180000D03*
X83820000Y-165100000D03*
X100330000Y-195580000D03*
X110490000Y-195580000D03*
X110490000Y-193040000D03*
X100330000Y-193040000D03*
X96520000Y-170180000D03*
X96520000Y-160020000D03*
X105410000Y-170180000D03*
D15*
X110410000Y-180150000D02*
X112205000Y-180150000D01*
X112205000Y-180150000D02*
X113030000Y-180975000D01*
X113030000Y-180975000D02*
X113030000Y-192405000D01*
X112395000Y-193040000D02*
X113030000Y-192405000D01*
X110490000Y-193040000D02*
X112395000Y-193040000D01*
X91440000Y-172085000D02*
X91440000Y-170180000D01*
X92075000Y-172720000D02*
X91440000Y-172085000D01*
X97155000Y-172720000D02*
X92075000Y-172720000D01*
X99695000Y-175260000D02*
X97155000Y-172720000D01*
X101660000Y-175260000D02*
X99695000Y-175260000D01*
X105410000Y-184150000D02*
X107315000Y-184150000D01*
X107315000Y-184150000D02*
X107950000Y-183515000D01*
X107950000Y-183515000D02*
X107950000Y-178435000D01*
X106660000Y-177145000D02*
X107950000Y-178435000D01*
X106660000Y-175260000D02*
X106660000Y-177145000D01*
X100410000Y-188150000D02*
X105410000Y-188150000D01*
X102235000Y-184150000D02*
X100410000Y-184150000D01*
X102235000Y-184150000D02*
X102870000Y-183515000D01*
X102870000Y-183515000D02*
X102870000Y-178435000D01*
X104160000Y-177145000D02*
X102870000Y-178435000D01*
X104160000Y-175260000D02*
X104160000Y-177145000D01*
X115570000Y-160020000D02*
X119380000Y-160020000D01*
X111760000Y-163830000D02*
X115570000Y-160020000D01*
X111760000Y-166370000D02*
X111760000Y-163830000D01*
X110490000Y-167640000D02*
X111760000Y-166370000D01*
X107950000Y-167640000D02*
X110490000Y-167640000D01*
X106680000Y-166370000D02*
X107950000Y-167640000D01*
X106680000Y-160655000D02*
X106680000Y-166370000D01*
X103505000Y-157480000D02*
X106680000Y-160655000D01*
X101600000Y-157480000D02*
X103505000Y-157480000D01*
X99060000Y-156210000D02*
X100330000Y-154940000D01*
X99060000Y-159385000D02*
X99060000Y-156210000D01*
X99695000Y-160020000D02*
X99060000Y-159385000D01*
X100330000Y-154940000D02*
X121920000Y-154940000D01*
X101600000Y-160020000D02*
X99695000Y-160020000D01*
X121920000Y-154940000D02*
X121920000Y-160020000D01*
X114300000Y-170180000D02*
X119380000Y-170180000D01*
X80010000Y-190500000D02*
X81915000Y-190500000D01*
X81915000Y-190500000D02*
X82550000Y-189865000D01*
X82550000Y-172720000D02*
X82550000Y-189865000D01*
X81280000Y-171450000D02*
X82550000Y-172720000D01*
X81280000Y-140970000D02*
X81280000Y-171450000D01*
X92075000Y-130810000D02*
X104140000Y-130810000D01*
X91440000Y-131445000D02*
X92075000Y-130810000D01*
X91440000Y-133350000D02*
X91440000Y-131445000D01*
X104140000Y-128270000D02*
X104140000Y-130810000D01*
X104140000Y-130810000D02*
X104140000Y-133350000D01*
X93980000Y-133350000D02*
X93980000Y-137160000D01*
X93980000Y-137160000D02*
X91440000Y-139700000D01*
X91440000Y-139700000D02*
X91440000Y-154940000D01*
X108585000Y-140335000D02*
X113030000Y-135890000D01*
X108585000Y-146685000D02*
X108585000Y-140335000D01*
X107950000Y-147320000D02*
X108585000Y-146685000D01*
X113030000Y-135890000D02*
X116840000Y-135890000D01*
X105410000Y-147320000D02*
X107950000Y-147320000D01*
D16*
G36*
X133570001Y-195145075D02*
G01*
X127531562Y-201183515D01*
X127530000Y-200922500D01*
X127317500Y-200710000D01*
X125780000Y-200710000D01*
X125780000Y-202247500D01*
X125992500Y-202460000D01*
X126253515Y-202461562D01*
X124025077Y-204690000D01*
X86794924Y-204690000D01*
X82587640Y-200482716D01*
X102340000Y-200482716D01*
X102340000Y-200837284D01*
X102409173Y-201185041D01*
X102544861Y-201512620D01*
X102741849Y-201807433D01*
X102992567Y-202058151D01*
X103287380Y-202255139D01*
X103614959Y-202390827D01*
X103962716Y-202460000D01*
X104317284Y-202460000D01*
X104665041Y-202390827D01*
X104992620Y-202255139D01*
X105287433Y-202058151D01*
X105296068Y-202049516D01*
X105508806Y-202224106D01*
X105755016Y-202355708D01*
X106022170Y-202436748D01*
X106300000Y-202464112D01*
X107060000Y-202464112D01*
X107337830Y-202436748D01*
X107604984Y-202355708D01*
X107851194Y-202224106D01*
X108066999Y-202046999D01*
X108244106Y-201831194D01*
X108375708Y-201584984D01*
X108456748Y-201317830D01*
X108484112Y-201040000D01*
X108484112Y-200280000D01*
X108456748Y-200002170D01*
X108375708Y-199735016D01*
X108244106Y-199488806D01*
X108066999Y-199273001D01*
X107851194Y-199095894D01*
X107802750Y-199070000D01*
X113765887Y-199070000D01*
X113782299Y-199236629D01*
X113828823Y-199390002D01*
X113782300Y-199543371D01*
X113765888Y-199710000D01*
X113765888Y-201610000D01*
X113782300Y-201776629D01*
X113830903Y-201936855D01*
X113909832Y-202084519D01*
X114016052Y-202213948D01*
X114145481Y-202320168D01*
X114293145Y-202399097D01*
X114453371Y-202447700D01*
X114620000Y-202464112D01*
X116520000Y-202464112D01*
X116686629Y-202447700D01*
X116846855Y-202399097D01*
X116994519Y-202320168D01*
X117123948Y-202213948D01*
X117230168Y-202084519D01*
X117309097Y-201936855D01*
X117357700Y-201776629D01*
X117374112Y-201610000D01*
X123925887Y-201610000D01*
X123942299Y-201776629D01*
X123990902Y-201936855D01*
X124069831Y-202084520D01*
X124176051Y-202213949D01*
X124305480Y-202320169D01*
X124453145Y-202399098D01*
X124613371Y-202447701D01*
X124780000Y-202464113D01*
X125467500Y-202460000D01*
X125680000Y-202247500D01*
X125680000Y-200710000D01*
X124142500Y-200710000D01*
X123930000Y-200922500D01*
X123925887Y-201610000D01*
X117374112Y-201610000D01*
X117374112Y-199710000D01*
X123925887Y-199710000D01*
X123930000Y-200397500D01*
X124142500Y-200610000D01*
X125680000Y-200610000D01*
X125680000Y-200590000D01*
X125780000Y-200590000D01*
X125780000Y-200610000D01*
X127317500Y-200610000D01*
X127530000Y-200397500D01*
X127534113Y-199710000D01*
X127517701Y-199543371D01*
X127471177Y-199389998D01*
X127517700Y-199236629D01*
X127534112Y-199070000D01*
X127534112Y-197170000D01*
X127517700Y-197003371D01*
X127471176Y-196850000D01*
X127517700Y-196696629D01*
X127534112Y-196530000D01*
X127534112Y-194630000D01*
X127517700Y-194463371D01*
X127471176Y-194310000D01*
X127517700Y-194156629D01*
X127534112Y-193990000D01*
X127534112Y-192090000D01*
X127517700Y-191923371D01*
X127471176Y-191770000D01*
X127517700Y-191616629D01*
X127534112Y-191450000D01*
X127534112Y-189550000D01*
X127517700Y-189383371D01*
X127469097Y-189223145D01*
X127390168Y-189075481D01*
X127283948Y-188946052D01*
X127154519Y-188839832D01*
X127006855Y-188760903D01*
X126846629Y-188712300D01*
X126680000Y-188695888D01*
X124780000Y-188695888D01*
X124613371Y-188712300D01*
X124453145Y-188760903D01*
X124305481Y-188839832D01*
X124176052Y-188946052D01*
X124069832Y-189075481D01*
X123990903Y-189223145D01*
X123942300Y-189383371D01*
X123925888Y-189550000D01*
X123925888Y-191450000D01*
X123942300Y-191616629D01*
X123988824Y-191770000D01*
X123942300Y-191923371D01*
X123925888Y-192090000D01*
X123925888Y-193990000D01*
X123942300Y-194156629D01*
X123988824Y-194310000D01*
X123942300Y-194463371D01*
X123925888Y-194630000D01*
X123925888Y-196530000D01*
X123942300Y-196696629D01*
X123988824Y-196850000D01*
X123942300Y-197003371D01*
X123925888Y-197170000D01*
X123925888Y-199070000D01*
X123942300Y-199236629D01*
X123988823Y-199389998D01*
X123942299Y-199543371D01*
X123925887Y-199710000D01*
X117374112Y-199710000D01*
X117357700Y-199543371D01*
X117311177Y-199390002D01*
X117357701Y-199236629D01*
X117374113Y-199070000D01*
X117370000Y-198382500D01*
X117157500Y-198170000D01*
X115620000Y-198170000D01*
X115620000Y-198190000D01*
X115520000Y-198190000D01*
X115520000Y-198170000D01*
X113982500Y-198170000D01*
X113770000Y-198382500D01*
X113765887Y-199070000D01*
X107802750Y-199070000D01*
X107604984Y-198964292D01*
X107337830Y-198883252D01*
X107060000Y-198855888D01*
X106300000Y-198855888D01*
X106022170Y-198883252D01*
X105755016Y-198964292D01*
X105508806Y-199095894D01*
X105296068Y-199270484D01*
X105287433Y-199261849D01*
X104992620Y-199064861D01*
X104665041Y-198929173D01*
X104317284Y-198860000D01*
X103962716Y-198860000D01*
X103614959Y-198929173D01*
X103287380Y-199064861D01*
X102992567Y-199261849D01*
X102741849Y-199512567D01*
X102544861Y-199807380D01*
X102409173Y-200134959D01*
X102340000Y-200482716D01*
X82587640Y-200482716D01*
X77250000Y-195145077D01*
X77250000Y-194203492D01*
X78917219Y-194203492D01*
X78987724Y-194532107D01*
X79298463Y-194702873D01*
X79636545Y-194809735D01*
X79988979Y-194848587D01*
X80342221Y-194817936D01*
X80682695Y-194718961D01*
X80997318Y-194555463D01*
X81032276Y-194532107D01*
X81102781Y-194203492D01*
X80010000Y-193110711D01*
X78917219Y-194203492D01*
X77250000Y-194203492D01*
X77250000Y-193018979D01*
X78201413Y-193018979D01*
X78232064Y-193372221D01*
X78331039Y-193712695D01*
X78494537Y-194027318D01*
X78517893Y-194062276D01*
X78846508Y-194132781D01*
X79939289Y-193040000D01*
X79925147Y-193025858D01*
X79995858Y-192955147D01*
X80010000Y-192969289D01*
X80024142Y-192955147D01*
X80094853Y-193025858D01*
X80080711Y-193040000D01*
X81173492Y-194132781D01*
X81502107Y-194062276D01*
X81541826Y-193990000D01*
X83285887Y-193990000D01*
X83302299Y-194156629D01*
X83350902Y-194316855D01*
X83429831Y-194464520D01*
X83536051Y-194593949D01*
X83665480Y-194700169D01*
X83813145Y-194779098D01*
X83973371Y-194827701D01*
X84140000Y-194844113D01*
X84827500Y-194840000D01*
X85040000Y-194627500D01*
X85040000Y-193090000D01*
X85140000Y-193090000D01*
X85140000Y-194627500D01*
X85352500Y-194840000D01*
X86040000Y-194844113D01*
X86206629Y-194827701D01*
X86366855Y-194779098D01*
X86514520Y-194700169D01*
X86643949Y-194593949D01*
X86750169Y-194464520D01*
X86829098Y-194316855D01*
X86877701Y-194156629D01*
X86894113Y-193990000D01*
X86890000Y-193302500D01*
X86677500Y-193090000D01*
X85140000Y-193090000D01*
X85040000Y-193090000D01*
X83502500Y-193090000D01*
X83290000Y-193302500D01*
X83285887Y-193990000D01*
X81541826Y-193990000D01*
X81672873Y-193751537D01*
X81779735Y-193413455D01*
X81818587Y-193061021D01*
X81787936Y-192707779D01*
X81688961Y-192367305D01*
X81537430Y-192075711D01*
X81563948Y-192053948D01*
X81670168Y-191924519D01*
X81710000Y-191850000D01*
X81848681Y-191850000D01*
X81915000Y-191856532D01*
X81981319Y-191850000D01*
X81981321Y-191850000D01*
X82179646Y-191830467D01*
X82434122Y-191753272D01*
X82668649Y-191627915D01*
X82874213Y-191459213D01*
X82916492Y-191407696D01*
X83285888Y-191038299D01*
X83285888Y-191450000D01*
X83302300Y-191616629D01*
X83348823Y-191769998D01*
X83302299Y-191923371D01*
X83285887Y-192090000D01*
X83290000Y-192777500D01*
X83502500Y-192990000D01*
X85040000Y-192990000D01*
X85040000Y-192970000D01*
X85140000Y-192970000D01*
X85140000Y-192990000D01*
X86677500Y-192990000D01*
X86890000Y-192777500D01*
X86894113Y-192090000D01*
X86877701Y-191923371D01*
X86831177Y-191769998D01*
X86877700Y-191616629D01*
X86894112Y-191450000D01*
X86894112Y-189550000D01*
X86877700Y-189383371D01*
X86831176Y-189230000D01*
X86877700Y-189076629D01*
X86894112Y-188910000D01*
X86894112Y-187010000D01*
X93445888Y-187010000D01*
X93445888Y-188910000D01*
X93462300Y-189076629D01*
X93508824Y-189230000D01*
X93462300Y-189383371D01*
X93445888Y-189550000D01*
X93445888Y-191450000D01*
X93462300Y-191616629D01*
X93508824Y-191770000D01*
X93462300Y-191923371D01*
X93445888Y-192090000D01*
X93445888Y-193990000D01*
X93462300Y-194156629D01*
X93510903Y-194316855D01*
X93589832Y-194464519D01*
X93696052Y-194593948D01*
X93825481Y-194700168D01*
X93973145Y-194779097D01*
X94133371Y-194827700D01*
X94300000Y-194844112D01*
X96200000Y-194844112D01*
X96366629Y-194827700D01*
X96526855Y-194779097D01*
X96674519Y-194700168D01*
X96803948Y-194593948D01*
X96910168Y-194464519D01*
X96989097Y-194316855D01*
X97037700Y-194156629D01*
X97054112Y-193990000D01*
X97054112Y-192090000D01*
X98525888Y-192090000D01*
X98525888Y-193990000D01*
X98542300Y-194156629D01*
X98588824Y-194310000D01*
X98542300Y-194463371D01*
X98525888Y-194630000D01*
X98525888Y-196530000D01*
X98542300Y-196696629D01*
X98590903Y-196856855D01*
X98669832Y-197004519D01*
X98776052Y-197133948D01*
X98905481Y-197240168D01*
X99053145Y-197319097D01*
X99213371Y-197367700D01*
X99380000Y-197384112D01*
X101280000Y-197384112D01*
X101446629Y-197367700D01*
X101606855Y-197319097D01*
X101754519Y-197240168D01*
X101883948Y-197133948D01*
X101990168Y-197004519D01*
X102069097Y-196856855D01*
X102117700Y-196696629D01*
X102134112Y-196530000D01*
X102134112Y-194630000D01*
X102117700Y-194463371D01*
X102071176Y-194310000D01*
X102117700Y-194156629D01*
X102134112Y-193990000D01*
X102134112Y-192090000D01*
X102117700Y-191923371D01*
X102069097Y-191763145D01*
X101990168Y-191615481D01*
X101883948Y-191486052D01*
X101754519Y-191379832D01*
X101606855Y-191300903D01*
X101446629Y-191252300D01*
X101280000Y-191235888D01*
X99380000Y-191235888D01*
X99213371Y-191252300D01*
X99053145Y-191300903D01*
X98905481Y-191379832D01*
X98776052Y-191486052D01*
X98669832Y-191615481D01*
X98590903Y-191763145D01*
X98542300Y-191923371D01*
X98525888Y-192090000D01*
X97054112Y-192090000D01*
X97037700Y-191923371D01*
X96991176Y-191770000D01*
X97037700Y-191616629D01*
X97054112Y-191450000D01*
X97054112Y-189550000D01*
X97037700Y-189383371D01*
X96991176Y-189230000D01*
X97037700Y-189076629D01*
X97054112Y-188910000D01*
X97054112Y-187010000D01*
X97037700Y-186843371D01*
X96989097Y-186683145D01*
X96910168Y-186535481D01*
X96803948Y-186406052D01*
X96674519Y-186299832D01*
X96526855Y-186220903D01*
X96366629Y-186172300D01*
X96200000Y-186155888D01*
X94300000Y-186155888D01*
X94133371Y-186172300D01*
X93973145Y-186220903D01*
X93825481Y-186299832D01*
X93696052Y-186406052D01*
X93589832Y-186535481D01*
X93510903Y-186683145D01*
X93462300Y-186843371D01*
X93445888Y-187010000D01*
X86894112Y-187010000D01*
X86877700Y-186843371D01*
X86829097Y-186683145D01*
X86750168Y-186535481D01*
X86643948Y-186406052D01*
X86514519Y-186299832D01*
X86366855Y-186220903D01*
X86206629Y-186172300D01*
X86040000Y-186155888D01*
X84140000Y-186155888D01*
X83973371Y-186172300D01*
X83900000Y-186194556D01*
X83900000Y-172786310D01*
X83906531Y-172719999D01*
X83900000Y-172653688D01*
X83900000Y-172653679D01*
X83880467Y-172455354D01*
X83803272Y-172200878D01*
X83687409Y-171984113D01*
X83687409Y-171984112D01*
X84770000Y-171984112D01*
X84936629Y-171967700D01*
X85096855Y-171919097D01*
X85244519Y-171840168D01*
X85373948Y-171733948D01*
X85480168Y-171604519D01*
X85559097Y-171456855D01*
X85607700Y-171296629D01*
X85624112Y-171130000D01*
X85624112Y-169230000D01*
X87095888Y-169230000D01*
X87095888Y-171130000D01*
X87112300Y-171296629D01*
X87160903Y-171456855D01*
X87239832Y-171604519D01*
X87346052Y-171733948D01*
X87475481Y-171840168D01*
X87623145Y-171919097D01*
X87783371Y-171967700D01*
X87950000Y-171984112D01*
X89850000Y-171984112D01*
X90016629Y-171967700D01*
X90090000Y-171945444D01*
X90090000Y-172018680D01*
X90083468Y-172085000D01*
X90090000Y-172151319D01*
X90090000Y-172151320D01*
X90109533Y-172349645D01*
X90186728Y-172604121D01*
X90186729Y-172604122D01*
X90312085Y-172838649D01*
X90438510Y-172992698D01*
X90438513Y-172992701D01*
X90480787Y-173044212D01*
X90532300Y-173086488D01*
X91073505Y-173627692D01*
X91115787Y-173679213D01*
X91153009Y-173709760D01*
X91049832Y-173835481D01*
X90970903Y-173983145D01*
X90922300Y-174143371D01*
X90905888Y-174310000D01*
X90905888Y-176210000D01*
X90922300Y-176376629D01*
X90970903Y-176536855D01*
X91049832Y-176684519D01*
X91156052Y-176813948D01*
X91187030Y-176839371D01*
X91114861Y-176947380D01*
X90979173Y-177274959D01*
X90910000Y-177622716D01*
X90910000Y-177977284D01*
X90979173Y-178325041D01*
X91114861Y-178652620D01*
X91187030Y-178760629D01*
X91156052Y-178786052D01*
X91049832Y-178915481D01*
X90970903Y-179063145D01*
X90922300Y-179223371D01*
X90905888Y-179390000D01*
X90905888Y-181290000D01*
X90922300Y-181456629D01*
X90970903Y-181616855D01*
X91049832Y-181764519D01*
X91156052Y-181893948D01*
X91285481Y-182000168D01*
X91433145Y-182079097D01*
X91593371Y-182127700D01*
X91760000Y-182144112D01*
X93660000Y-182144112D01*
X93826629Y-182127700D01*
X93986855Y-182079097D01*
X94134519Y-182000168D01*
X94263948Y-181893948D01*
X94370168Y-181764519D01*
X94449097Y-181616855D01*
X94497700Y-181456629D01*
X94514112Y-181290000D01*
X94514112Y-179390000D01*
X94497700Y-179223371D01*
X94449097Y-179063145D01*
X94370168Y-178915481D01*
X94263948Y-178786052D01*
X94232970Y-178760629D01*
X94305139Y-178652620D01*
X94440827Y-178325041D01*
X94510000Y-177977284D01*
X94510000Y-177622716D01*
X94440827Y-177274959D01*
X94305139Y-176947380D01*
X94232970Y-176839371D01*
X94263948Y-176813948D01*
X94370168Y-176684519D01*
X94449097Y-176536855D01*
X94497700Y-176376629D01*
X94514112Y-176210000D01*
X94514112Y-174310000D01*
X94497700Y-174143371D01*
X94475444Y-174070000D01*
X96595812Y-174070000D01*
X98693509Y-176167697D01*
X98735787Y-176219213D01*
X98941351Y-176387915D01*
X99175878Y-176513272D01*
X99430354Y-176590467D01*
X99628679Y-176610000D01*
X99628688Y-176610000D01*
X99694999Y-176616531D01*
X99761310Y-176610000D01*
X100464416Y-176610000D01*
X100512567Y-176658151D01*
X100807380Y-176855139D01*
X101134959Y-176990827D01*
X101482716Y-177060000D01*
X101837284Y-177060000D01*
X102185041Y-176990827D01*
X102512620Y-176855139D01*
X102594795Y-176800231D01*
X102595149Y-176800663D01*
X101962299Y-177433513D01*
X101910788Y-177475787D01*
X101868514Y-177527298D01*
X101868510Y-177527302D01*
X101742085Y-177681351D01*
X101616729Y-177915878D01*
X101577291Y-178045888D01*
X99160000Y-178045888D01*
X98993371Y-178062300D01*
X98833145Y-178110903D01*
X98685481Y-178189832D01*
X98556052Y-178296052D01*
X98449832Y-178425481D01*
X98370903Y-178573145D01*
X98322300Y-178733371D01*
X98305888Y-178900000D01*
X98305888Y-181400000D01*
X98322300Y-181566629D01*
X98370903Y-181726855D01*
X98449832Y-181874519D01*
X98556052Y-182003948D01*
X98685481Y-182110168D01*
X98760001Y-182150000D01*
X98685481Y-182189832D01*
X98556052Y-182296052D01*
X98449832Y-182425481D01*
X98370903Y-182573145D01*
X98322300Y-182733371D01*
X98305888Y-182900000D01*
X98305888Y-185400000D01*
X98322300Y-185566629D01*
X98370903Y-185726855D01*
X98449832Y-185874519D01*
X98556052Y-186003948D01*
X98685481Y-186110168D01*
X98760001Y-186150000D01*
X98685481Y-186189832D01*
X98556052Y-186296052D01*
X98449832Y-186425481D01*
X98370903Y-186573145D01*
X98322300Y-186733371D01*
X98305888Y-186900000D01*
X98305888Y-189400000D01*
X98322300Y-189566629D01*
X98370903Y-189726855D01*
X98449832Y-189874519D01*
X98556052Y-190003948D01*
X98685481Y-190110168D01*
X98833145Y-190189097D01*
X98993371Y-190237700D01*
X99160000Y-190254112D01*
X101660000Y-190254112D01*
X101826629Y-190237700D01*
X101986855Y-190189097D01*
X102134519Y-190110168D01*
X102263948Y-190003948D01*
X102370168Y-189874519D01*
X102449097Y-189726855D01*
X102497700Y-189566629D01*
X102504263Y-189500000D01*
X103315737Y-189500000D01*
X103322300Y-189566629D01*
X103370903Y-189726855D01*
X103449832Y-189874519D01*
X103556052Y-190003948D01*
X103685481Y-190110168D01*
X103833145Y-190189097D01*
X103993371Y-190237700D01*
X104160000Y-190254112D01*
X106660000Y-190254112D01*
X106826629Y-190237700D01*
X106986855Y-190189097D01*
X107134519Y-190110168D01*
X107263948Y-190003948D01*
X107370168Y-189874519D01*
X107449097Y-189726855D01*
X107497700Y-189566629D01*
X107514112Y-189400000D01*
X107514112Y-186900000D01*
X107497700Y-186733371D01*
X107449097Y-186573145D01*
X107370168Y-186425481D01*
X107263948Y-186296052D01*
X107134519Y-186189832D01*
X107059999Y-186150000D01*
X107134519Y-186110168D01*
X107263948Y-186003948D01*
X107370168Y-185874519D01*
X107449097Y-185726855D01*
X107497700Y-185566629D01*
X107505467Y-185487773D01*
X107579646Y-185480467D01*
X107834122Y-185403272D01*
X108068649Y-185277915D01*
X108274213Y-185109213D01*
X108307266Y-185068938D01*
X108305887Y-185400000D01*
X108322299Y-185566629D01*
X108370902Y-185726855D01*
X108449831Y-185874520D01*
X108556051Y-186003949D01*
X108685480Y-186110169D01*
X108759999Y-186150001D01*
X108685481Y-186189832D01*
X108556052Y-186296052D01*
X108449832Y-186425481D01*
X108370903Y-186573145D01*
X108322300Y-186733371D01*
X108305888Y-186900000D01*
X108305888Y-189400000D01*
X108322300Y-189566629D01*
X108370903Y-189726855D01*
X108449832Y-189874519D01*
X108556052Y-190003948D01*
X108685481Y-190110168D01*
X108833145Y-190189097D01*
X108993371Y-190237700D01*
X109160000Y-190254112D01*
X111660000Y-190254112D01*
X111680001Y-190252142D01*
X111680001Y-191274557D01*
X111606629Y-191252300D01*
X111440000Y-191235888D01*
X109540000Y-191235888D01*
X109373371Y-191252300D01*
X109213145Y-191300903D01*
X109065481Y-191379832D01*
X108936052Y-191486052D01*
X108829832Y-191615481D01*
X108750903Y-191763145D01*
X108702300Y-191923371D01*
X108685888Y-192090000D01*
X108685888Y-193990000D01*
X108702300Y-194156629D01*
X108748824Y-194310000D01*
X108702300Y-194463371D01*
X108685888Y-194630000D01*
X108685888Y-196530000D01*
X108702300Y-196696629D01*
X108750903Y-196856855D01*
X108829832Y-197004519D01*
X108936052Y-197133948D01*
X109065481Y-197240168D01*
X109213145Y-197319097D01*
X109373371Y-197367700D01*
X109540000Y-197384112D01*
X111440000Y-197384112D01*
X111606629Y-197367700D01*
X111766855Y-197319097D01*
X111914519Y-197240168D01*
X112043948Y-197133948D01*
X112150168Y-197004519D01*
X112229097Y-196856855D01*
X112277700Y-196696629D01*
X112294112Y-196530000D01*
X112294112Y-194630000D01*
X112277700Y-194463371D01*
X112255444Y-194390000D01*
X112328681Y-194390000D01*
X112395000Y-194396532D01*
X112461319Y-194390000D01*
X112461321Y-194390000D01*
X112659646Y-194370467D01*
X112914122Y-194293272D01*
X113148649Y-194167915D01*
X113354213Y-193999213D01*
X113396492Y-193947696D01*
X113765888Y-193578299D01*
X113765888Y-193990000D01*
X113782300Y-194156629D01*
X113828824Y-194310000D01*
X113782300Y-194463371D01*
X113765888Y-194630000D01*
X113765888Y-196530000D01*
X113782300Y-196696629D01*
X113828823Y-196849998D01*
X113782299Y-197003371D01*
X113765887Y-197170000D01*
X113770000Y-197857500D01*
X113982500Y-198070000D01*
X115520000Y-198070000D01*
X115520000Y-198050000D01*
X115620000Y-198050000D01*
X115620000Y-198070000D01*
X117157500Y-198070000D01*
X117370000Y-197857500D01*
X117374113Y-197170000D01*
X117357701Y-197003371D01*
X117311177Y-196849998D01*
X117357700Y-196696629D01*
X117374112Y-196530000D01*
X117374112Y-194630000D01*
X117357700Y-194463371D01*
X117311176Y-194310000D01*
X117357700Y-194156629D01*
X117374112Y-193990000D01*
X117374112Y-192090000D01*
X117357700Y-191923371D01*
X117311177Y-191770002D01*
X117357701Y-191616629D01*
X117374113Y-191450000D01*
X117370000Y-190762500D01*
X117157500Y-190550000D01*
X115620000Y-190550000D01*
X115620000Y-190570000D01*
X115520000Y-190570000D01*
X115520000Y-190550000D01*
X115500000Y-190550000D01*
X115500000Y-190450000D01*
X115520000Y-190450000D01*
X115520000Y-188912500D01*
X115620000Y-188912500D01*
X115620000Y-190450000D01*
X117157500Y-190450000D01*
X117370000Y-190237500D01*
X117374113Y-189550000D01*
X117357701Y-189383371D01*
X117309098Y-189223145D01*
X117230169Y-189075480D01*
X117123949Y-188946051D01*
X116994520Y-188839831D01*
X116846855Y-188760902D01*
X116686629Y-188712299D01*
X116520000Y-188695887D01*
X115832500Y-188700000D01*
X115620000Y-188912500D01*
X115520000Y-188912500D01*
X115307500Y-188700000D01*
X114620000Y-188695887D01*
X114453371Y-188712299D01*
X114380000Y-188734555D01*
X114380000Y-184470000D01*
X116305888Y-184470000D01*
X116305888Y-186370000D01*
X116322300Y-186536629D01*
X116370903Y-186696855D01*
X116449832Y-186844519D01*
X116556052Y-186973948D01*
X116685481Y-187080168D01*
X116833145Y-187159097D01*
X116993371Y-187207700D01*
X117160000Y-187224112D01*
X119060000Y-187224112D01*
X119226629Y-187207700D01*
X119386855Y-187159097D01*
X119534519Y-187080168D01*
X119663948Y-186973948D01*
X119770168Y-186844519D01*
X119849097Y-186696855D01*
X119897700Y-186536629D01*
X119914112Y-186370000D01*
X119914112Y-184470000D01*
X121385888Y-184470000D01*
X121385888Y-186370000D01*
X121402300Y-186536629D01*
X121450903Y-186696855D01*
X121529832Y-186844519D01*
X121636052Y-186973948D01*
X121765481Y-187080168D01*
X121913145Y-187159097D01*
X122073371Y-187207700D01*
X122240000Y-187224112D01*
X124140000Y-187224112D01*
X124306629Y-187207700D01*
X124466855Y-187159097D01*
X124614519Y-187080168D01*
X124743948Y-186973948D01*
X124850168Y-186844519D01*
X124929097Y-186696855D01*
X124977700Y-186536629D01*
X124994112Y-186370000D01*
X124994112Y-184470000D01*
X124977700Y-184303371D01*
X124929097Y-184143145D01*
X124850168Y-183995481D01*
X124743948Y-183866052D01*
X124614519Y-183759832D01*
X124466855Y-183680903D01*
X124306629Y-183632300D01*
X124140000Y-183615888D01*
X122240000Y-183615888D01*
X122073371Y-183632300D01*
X121913145Y-183680903D01*
X121765481Y-183759832D01*
X121636052Y-183866052D01*
X121529832Y-183995481D01*
X121450903Y-184143145D01*
X121402300Y-184303371D01*
X121385888Y-184470000D01*
X119914112Y-184470000D01*
X119897700Y-184303371D01*
X119849097Y-184143145D01*
X119770168Y-183995481D01*
X119663948Y-183866052D01*
X119534519Y-183759832D01*
X119386855Y-183680903D01*
X119226629Y-183632300D01*
X119060000Y-183615888D01*
X117160000Y-183615888D01*
X116993371Y-183632300D01*
X116833145Y-183680903D01*
X116685481Y-183759832D01*
X116556052Y-183866052D01*
X116449832Y-183995481D01*
X116370903Y-184143145D01*
X116322300Y-184303371D01*
X116305888Y-184470000D01*
X114380000Y-184470000D01*
X114380000Y-181041310D01*
X114386531Y-180974999D01*
X114380000Y-180908688D01*
X114380000Y-180908679D01*
X114360467Y-180710354D01*
X114283272Y-180455878D01*
X114157916Y-180221352D01*
X114157915Y-180221350D01*
X114031490Y-180067302D01*
X114031487Y-180067299D01*
X113989212Y-180015787D01*
X113937701Y-179973513D01*
X113206491Y-179242303D01*
X113164213Y-179190787D01*
X112958649Y-179022085D01*
X112724122Y-178896728D01*
X112710897Y-178892716D01*
X123930000Y-178892716D01*
X123930000Y-179247284D01*
X123999173Y-179595041D01*
X124134861Y-179922620D01*
X124331849Y-180217433D01*
X124582567Y-180468151D01*
X124877380Y-180665139D01*
X125204959Y-180800827D01*
X125552716Y-180870000D01*
X125907284Y-180870000D01*
X126255041Y-180800827D01*
X126582620Y-180665139D01*
X126690628Y-180592971D01*
X126716051Y-180623949D01*
X126845480Y-180730169D01*
X126993145Y-180809098D01*
X127153371Y-180857701D01*
X127320000Y-180874113D01*
X128007500Y-180870000D01*
X128220000Y-180657500D01*
X128220000Y-179120000D01*
X128320000Y-179120000D01*
X128320000Y-180657500D01*
X128532500Y-180870000D01*
X129220000Y-180874113D01*
X129386629Y-180857701D01*
X129546855Y-180809098D01*
X129694520Y-180730169D01*
X129823949Y-180623949D01*
X129930169Y-180494520D01*
X130009098Y-180346855D01*
X130057701Y-180186629D01*
X130074113Y-180020000D01*
X130070000Y-179332500D01*
X129857500Y-179120000D01*
X128320000Y-179120000D01*
X128220000Y-179120000D01*
X128200000Y-179120000D01*
X128200000Y-179020000D01*
X128220000Y-179020000D01*
X128220000Y-177482500D01*
X128320000Y-177482500D01*
X128320000Y-179020000D01*
X129857500Y-179020000D01*
X130070000Y-178807500D01*
X130074113Y-178120000D01*
X130057701Y-177953371D01*
X130009098Y-177793145D01*
X129930169Y-177645480D01*
X129823949Y-177516051D01*
X129694520Y-177409831D01*
X129546855Y-177330902D01*
X129386629Y-177282299D01*
X129220000Y-177265887D01*
X128532500Y-177270000D01*
X128320000Y-177482500D01*
X128220000Y-177482500D01*
X128007500Y-177270000D01*
X127320000Y-177265887D01*
X127153371Y-177282299D01*
X126993145Y-177330902D01*
X126845480Y-177409831D01*
X126716051Y-177516051D01*
X126690628Y-177547029D01*
X126582620Y-177474861D01*
X126255041Y-177339173D01*
X125907284Y-177270000D01*
X125552716Y-177270000D01*
X125204959Y-177339173D01*
X124877380Y-177474861D01*
X124582567Y-177671849D01*
X124331849Y-177922567D01*
X124134861Y-178217380D01*
X123999173Y-178544959D01*
X123930000Y-178892716D01*
X112710897Y-178892716D01*
X112507312Y-178830959D01*
X112497700Y-178733371D01*
X112449097Y-178573145D01*
X112370168Y-178425481D01*
X112263948Y-178296052D01*
X112134519Y-178189832D01*
X111986855Y-178110903D01*
X111826629Y-178062300D01*
X111660000Y-178045888D01*
X109242710Y-178045888D01*
X109203272Y-177915878D01*
X109077915Y-177681351D01*
X108909213Y-177475787D01*
X108857697Y-177433509D01*
X108486646Y-177062458D01*
X108897500Y-177060000D01*
X109110000Y-176847500D01*
X109110000Y-175310000D01*
X109210000Y-175310000D01*
X109210000Y-176847500D01*
X109422500Y-177060000D01*
X110110000Y-177064113D01*
X110276629Y-177047701D01*
X110436855Y-176999098D01*
X110584520Y-176920169D01*
X110713949Y-176813949D01*
X110820169Y-176684520D01*
X110899098Y-176536855D01*
X110947701Y-176376629D01*
X110964113Y-176210000D01*
X110960000Y-175522500D01*
X110747500Y-175310000D01*
X109210000Y-175310000D01*
X109110000Y-175310000D01*
X109090000Y-175310000D01*
X109090000Y-175210000D01*
X109110000Y-175210000D01*
X109110000Y-173672500D01*
X109210000Y-173672500D01*
X109210000Y-175210000D01*
X110747500Y-175210000D01*
X110960000Y-174997500D01*
X110964113Y-174310000D01*
X110947701Y-174143371D01*
X110899098Y-173983145D01*
X110820169Y-173835480D01*
X110713949Y-173706051D01*
X110584520Y-173599831D01*
X110436855Y-173520902D01*
X110276629Y-173472299D01*
X110110000Y-173455887D01*
X109422500Y-173460000D01*
X109210000Y-173672500D01*
X109110000Y-173672500D01*
X108897500Y-173460000D01*
X108210000Y-173455887D01*
X108043371Y-173472299D01*
X107909998Y-173512756D01*
X107776629Y-173472300D01*
X107610000Y-173455888D01*
X105710000Y-173455888D01*
X105543371Y-173472300D01*
X105410000Y-173512757D01*
X105276629Y-173472300D01*
X105110000Y-173455888D01*
X103210000Y-173455888D01*
X103043371Y-173472300D01*
X102883145Y-173520903D01*
X102735481Y-173599832D01*
X102606052Y-173706052D01*
X102594795Y-173719769D01*
X102512620Y-173664861D01*
X102185041Y-173529173D01*
X101837284Y-173460000D01*
X101482716Y-173460000D01*
X101134959Y-173529173D01*
X100807380Y-173664861D01*
X100512567Y-173861849D01*
X100464416Y-173910000D01*
X100254188Y-173910000D01*
X98156489Y-171812301D01*
X98114213Y-171760787D01*
X98076991Y-171730240D01*
X98180168Y-171604519D01*
X98259097Y-171456855D01*
X98307700Y-171296629D01*
X98324112Y-171130000D01*
X103605887Y-171130000D01*
X103622299Y-171296629D01*
X103670902Y-171456855D01*
X103749831Y-171604520D01*
X103856051Y-171733949D01*
X103985480Y-171840169D01*
X104133145Y-171919098D01*
X104293371Y-171967701D01*
X104460000Y-171984113D01*
X105147500Y-171980000D01*
X105360000Y-171767500D01*
X105360000Y-170230000D01*
X105460000Y-170230000D01*
X105460000Y-171767500D01*
X105672500Y-171980000D01*
X106360000Y-171984113D01*
X106526629Y-171967701D01*
X106686855Y-171919098D01*
X106834520Y-171840169D01*
X106963949Y-171733949D01*
X107070169Y-171604520D01*
X107149098Y-171456855D01*
X107197701Y-171296629D01*
X107214113Y-171130000D01*
X107210000Y-170442500D01*
X106997500Y-170230000D01*
X105460000Y-170230000D01*
X105360000Y-170230000D01*
X103822500Y-170230000D01*
X103610000Y-170442500D01*
X103605887Y-171130000D01*
X98324112Y-171130000D01*
X98324112Y-169230000D01*
X103605887Y-169230000D01*
X103610000Y-169917500D01*
X103822500Y-170130000D01*
X105360000Y-170130000D01*
X105360000Y-168592500D01*
X105460000Y-168592500D01*
X105460000Y-170130000D01*
X106997500Y-170130000D01*
X107210000Y-169917500D01*
X107214113Y-169230000D01*
X112495888Y-169230000D01*
X112495888Y-171130000D01*
X112512300Y-171296629D01*
X112560903Y-171456855D01*
X112639832Y-171604519D01*
X112746052Y-171733948D01*
X112875481Y-171840168D01*
X113023145Y-171919097D01*
X113183371Y-171967700D01*
X113350000Y-171984112D01*
X115250000Y-171984112D01*
X115416629Y-171967700D01*
X115576855Y-171919097D01*
X115724519Y-171840168D01*
X115853948Y-171733948D01*
X115960168Y-171604519D01*
X116000000Y-171530000D01*
X117680000Y-171530000D01*
X117719832Y-171604519D01*
X117826052Y-171733948D01*
X117955481Y-171840168D01*
X118103145Y-171919097D01*
X118263371Y-171967700D01*
X118430000Y-171984112D01*
X120330000Y-171984112D01*
X120496629Y-171967700D01*
X120650000Y-171921176D01*
X120803371Y-171967700D01*
X120970000Y-171984112D01*
X122870000Y-171984112D01*
X123036629Y-171967700D01*
X123190000Y-171921176D01*
X123343371Y-171967700D01*
X123510000Y-171984112D01*
X125410000Y-171984112D01*
X125576629Y-171967700D01*
X125736855Y-171919097D01*
X125884519Y-171840168D01*
X126013948Y-171733948D01*
X126120168Y-171604519D01*
X126199097Y-171456855D01*
X126247700Y-171296629D01*
X126264112Y-171130000D01*
X126264112Y-169230000D01*
X126247700Y-169063371D01*
X126199097Y-168903145D01*
X126120168Y-168755481D01*
X126013948Y-168626052D01*
X125884519Y-168519832D01*
X125736855Y-168440903D01*
X125576629Y-168392300D01*
X125410000Y-168375888D01*
X123510000Y-168375888D01*
X123343371Y-168392300D01*
X123190000Y-168438824D01*
X123036629Y-168392300D01*
X122870000Y-168375888D01*
X120970000Y-168375888D01*
X120803371Y-168392300D01*
X120650000Y-168438824D01*
X120496629Y-168392300D01*
X120330000Y-168375888D01*
X118430000Y-168375888D01*
X118263371Y-168392300D01*
X118103145Y-168440903D01*
X117955481Y-168519832D01*
X117826052Y-168626052D01*
X117719832Y-168755481D01*
X117680000Y-168830000D01*
X116000000Y-168830000D01*
X115960168Y-168755481D01*
X115853948Y-168626052D01*
X115724519Y-168519832D01*
X115576855Y-168440903D01*
X115416629Y-168392300D01*
X115250000Y-168375888D01*
X113350000Y-168375888D01*
X113183371Y-168392300D01*
X113023145Y-168440903D01*
X112875481Y-168519832D01*
X112746052Y-168626052D01*
X112639832Y-168755481D01*
X112560903Y-168903145D01*
X112512300Y-169063371D01*
X112495888Y-169230000D01*
X107214113Y-169230000D01*
X107197701Y-169063371D01*
X107149098Y-168903145D01*
X107070169Y-168755480D01*
X106963949Y-168626051D01*
X106834520Y-168519831D01*
X106686855Y-168440902D01*
X106526629Y-168392299D01*
X106360000Y-168375887D01*
X105672500Y-168380000D01*
X105460000Y-168592500D01*
X105360000Y-168592500D01*
X105147500Y-168380000D01*
X104460000Y-168375887D01*
X104293371Y-168392299D01*
X104133145Y-168440902D01*
X103985480Y-168519831D01*
X103856051Y-168626051D01*
X103749831Y-168755480D01*
X103670902Y-168903145D01*
X103622299Y-169063371D01*
X103605887Y-169230000D01*
X98324112Y-169230000D01*
X98307700Y-169063371D01*
X98259097Y-168903145D01*
X98180168Y-168755481D01*
X98073948Y-168626052D01*
X97944519Y-168519832D01*
X97796855Y-168440903D01*
X97636629Y-168392300D01*
X97470000Y-168375888D01*
X95570000Y-168375888D01*
X95403371Y-168392300D01*
X95250000Y-168438824D01*
X95096629Y-168392300D01*
X94930000Y-168375888D01*
X93030000Y-168375888D01*
X92863371Y-168392300D01*
X92710000Y-168438824D01*
X92556629Y-168392300D01*
X92390000Y-168375888D01*
X90490000Y-168375888D01*
X90323371Y-168392300D01*
X90170000Y-168438824D01*
X90016629Y-168392300D01*
X89850000Y-168375888D01*
X87950000Y-168375888D01*
X87783371Y-168392300D01*
X87623145Y-168440903D01*
X87475481Y-168519832D01*
X87346052Y-168626052D01*
X87239832Y-168755481D01*
X87160903Y-168903145D01*
X87112300Y-169063371D01*
X87095888Y-169230000D01*
X85624112Y-169230000D01*
X85607700Y-169063371D01*
X85559097Y-168903145D01*
X85480168Y-168755481D01*
X85373948Y-168626052D01*
X85244519Y-168519832D01*
X85096855Y-168440903D01*
X84936629Y-168392300D01*
X84770000Y-168375888D01*
X82870000Y-168375888D01*
X82703371Y-168392300D01*
X82630000Y-168414556D01*
X82630000Y-166865444D01*
X82703371Y-166887700D01*
X82870000Y-166904112D01*
X84770000Y-166904112D01*
X84936629Y-166887700D01*
X85096855Y-166839097D01*
X85244519Y-166760168D01*
X85373948Y-166653948D01*
X85480168Y-166524519D01*
X85559097Y-166376855D01*
X85607700Y-166216629D01*
X85624112Y-166050000D01*
X85624112Y-164150000D01*
X85607700Y-163983371D01*
X85559097Y-163823145D01*
X85480168Y-163675481D01*
X85373948Y-163546052D01*
X85244519Y-163439832D01*
X85096855Y-163360903D01*
X84936629Y-163312300D01*
X84770000Y-163295888D01*
X82870000Y-163295888D01*
X82703371Y-163312300D01*
X82630000Y-163334556D01*
X82630000Y-159070000D01*
X87095888Y-159070000D01*
X87095888Y-160970000D01*
X87112300Y-161136629D01*
X87160903Y-161296855D01*
X87239832Y-161444519D01*
X87346052Y-161573948D01*
X87475481Y-161680168D01*
X87623145Y-161759097D01*
X87783371Y-161807700D01*
X87950000Y-161824112D01*
X89850000Y-161824112D01*
X90016629Y-161807700D01*
X90170000Y-161761176D01*
X90323371Y-161807700D01*
X90490000Y-161824112D01*
X92390000Y-161824112D01*
X92556629Y-161807700D01*
X92710000Y-161761176D01*
X92863371Y-161807700D01*
X93030000Y-161824112D01*
X94930000Y-161824112D01*
X95096629Y-161807700D01*
X95250000Y-161761176D01*
X95403371Y-161807700D01*
X95570000Y-161824112D01*
X97470000Y-161824112D01*
X97636629Y-161807700D01*
X97796855Y-161759097D01*
X97944519Y-161680168D01*
X98073948Y-161573948D01*
X98180168Y-161444519D01*
X98259097Y-161296855D01*
X98307700Y-161136629D01*
X98324112Y-160970000D01*
X98324112Y-160558300D01*
X98693505Y-160927692D01*
X98735787Y-160979213D01*
X98941351Y-161147915D01*
X99058614Y-161210593D01*
X99175877Y-161273272D01*
X99235105Y-161291239D01*
X99430354Y-161350467D01*
X99628679Y-161370000D01*
X99628681Y-161370000D01*
X99695000Y-161376532D01*
X99761319Y-161370000D01*
X99834556Y-161370000D01*
X99812300Y-161443371D01*
X99795888Y-161610000D01*
X99795888Y-163510000D01*
X99812300Y-163676629D01*
X99858824Y-163830000D01*
X99812300Y-163983371D01*
X99795888Y-164150000D01*
X99795888Y-166050000D01*
X99812300Y-166216629D01*
X99860903Y-166376855D01*
X99939832Y-166524519D01*
X100046052Y-166653948D01*
X100175481Y-166760168D01*
X100323145Y-166839097D01*
X100483371Y-166887700D01*
X100650000Y-166904112D01*
X102550000Y-166904112D01*
X102716629Y-166887700D01*
X102876855Y-166839097D01*
X103024519Y-166760168D01*
X103153948Y-166653948D01*
X103260168Y-166524519D01*
X103339097Y-166376855D01*
X103387700Y-166216629D01*
X103404112Y-166050000D01*
X103404112Y-164150000D01*
X103387700Y-163983371D01*
X103341176Y-163830000D01*
X103387700Y-163676629D01*
X103404112Y-163510000D01*
X103404112Y-161610000D01*
X103387700Y-161443371D01*
X103341176Y-161290000D01*
X103387700Y-161136629D01*
X103404112Y-160970000D01*
X103404112Y-159288300D01*
X105330000Y-161214189D01*
X105330001Y-166303671D01*
X105323468Y-166370000D01*
X105349534Y-166634646D01*
X105426729Y-166889122D01*
X105552085Y-167123649D01*
X105678510Y-167277698D01*
X105678514Y-167277702D01*
X105720788Y-167329213D01*
X105772299Y-167371487D01*
X106948513Y-168547702D01*
X106990787Y-168599213D01*
X107042298Y-168641487D01*
X107042301Y-168641490D01*
X107196350Y-168767915D01*
X107312504Y-168830000D01*
X107430878Y-168893272D01*
X107685354Y-168970467D01*
X107883679Y-168990000D01*
X107883688Y-168990000D01*
X107949999Y-168996531D01*
X108016310Y-168990000D01*
X110423681Y-168990000D01*
X110490000Y-168996532D01*
X110556319Y-168990000D01*
X110556321Y-168990000D01*
X110754646Y-168970467D01*
X111009122Y-168893272D01*
X111243649Y-168767915D01*
X111449213Y-168599213D01*
X111491491Y-168547697D01*
X112667706Y-167371483D01*
X112719212Y-167329213D01*
X112761483Y-167277706D01*
X112761490Y-167277699D01*
X112887915Y-167123650D01*
X112954919Y-166998293D01*
X113013272Y-166889122D01*
X113028000Y-166840570D01*
X113183371Y-166887700D01*
X113350000Y-166904112D01*
X115250000Y-166904112D01*
X115416629Y-166887700D01*
X115576855Y-166839097D01*
X115724519Y-166760168D01*
X115853948Y-166653948D01*
X115960168Y-166524519D01*
X116039097Y-166376855D01*
X116087700Y-166216629D01*
X116104112Y-166050000D01*
X116104112Y-164150000D01*
X116087700Y-163983371D01*
X116039097Y-163823145D01*
X115960168Y-163675481D01*
X115853948Y-163546052D01*
X115724519Y-163439832D01*
X115576855Y-163360903D01*
X115416629Y-163312300D01*
X115250000Y-163295888D01*
X114203300Y-163295888D01*
X116129188Y-161370000D01*
X117680000Y-161370000D01*
X117719832Y-161444519D01*
X117826052Y-161573948D01*
X117955481Y-161680168D01*
X118103145Y-161759097D01*
X118263371Y-161807700D01*
X118430000Y-161824112D01*
X120330000Y-161824112D01*
X120496629Y-161807700D01*
X120650000Y-161761176D01*
X120803371Y-161807700D01*
X120970000Y-161824112D01*
X122870000Y-161824112D01*
X123036629Y-161807700D01*
X123190000Y-161761176D01*
X123343371Y-161807700D01*
X123510000Y-161824112D01*
X125410000Y-161824112D01*
X125576629Y-161807700D01*
X125736855Y-161759097D01*
X125884519Y-161680168D01*
X126013948Y-161573948D01*
X126120168Y-161444519D01*
X126199097Y-161296855D01*
X126247700Y-161136629D01*
X126264112Y-160970000D01*
X126264112Y-159070000D01*
X126247700Y-158903371D01*
X126199097Y-158743145D01*
X126120168Y-158595481D01*
X126013948Y-158466052D01*
X125884519Y-158359832D01*
X125736855Y-158280903D01*
X125576629Y-158232300D01*
X125410000Y-158215888D01*
X123510000Y-158215888D01*
X123343371Y-158232300D01*
X123270000Y-158254556D01*
X123270000Y-156640000D01*
X123344519Y-156600168D01*
X123473948Y-156493948D01*
X123499371Y-156462970D01*
X123607380Y-156535139D01*
X123934959Y-156670827D01*
X124282716Y-156740000D01*
X124637284Y-156740000D01*
X124985041Y-156670827D01*
X125312620Y-156535139D01*
X125420629Y-156462970D01*
X125446052Y-156493948D01*
X125575481Y-156600168D01*
X125723145Y-156679097D01*
X125883371Y-156727700D01*
X126050000Y-156744112D01*
X127950000Y-156744112D01*
X128116629Y-156727700D01*
X128276855Y-156679097D01*
X128424519Y-156600168D01*
X128553948Y-156493948D01*
X128660168Y-156364519D01*
X128739097Y-156216855D01*
X128787700Y-156056629D01*
X128804112Y-155890000D01*
X128804112Y-153990000D01*
X128787700Y-153823371D01*
X128739097Y-153663145D01*
X128660168Y-153515481D01*
X128553948Y-153386052D01*
X128424519Y-153279832D01*
X128276855Y-153200903D01*
X128116629Y-153152300D01*
X127950000Y-153135888D01*
X126050000Y-153135888D01*
X125883371Y-153152300D01*
X125723145Y-153200903D01*
X125575481Y-153279832D01*
X125446052Y-153386052D01*
X125420629Y-153417030D01*
X125312620Y-153344861D01*
X124985041Y-153209173D01*
X124637284Y-153140000D01*
X124282716Y-153140000D01*
X123934959Y-153209173D01*
X123607380Y-153344861D01*
X123499371Y-153417030D01*
X123473948Y-153386052D01*
X123344519Y-153279832D01*
X123196855Y-153200903D01*
X123036629Y-153152300D01*
X122870000Y-153135888D01*
X120970000Y-153135888D01*
X120803371Y-153152300D01*
X120643145Y-153200903D01*
X120495481Y-153279832D01*
X120366052Y-153386052D01*
X120259832Y-153515481D01*
X120220000Y-153590000D01*
X107757217Y-153590000D01*
X107764112Y-153520000D01*
X107764112Y-150520000D01*
X107747700Y-150353371D01*
X107699097Y-150193145D01*
X107620168Y-150045481D01*
X107533920Y-149940387D01*
X110480324Y-149940387D01*
X110796718Y-150478915D01*
X111455903Y-150853908D01*
X112175580Y-151093096D01*
X112928092Y-151187286D01*
X113684521Y-151132858D01*
X114415796Y-150931905D01*
X115093816Y-150592148D01*
X115263282Y-150478915D01*
X115579676Y-149940387D01*
X113030000Y-147390711D01*
X110480324Y-149940387D01*
X107533920Y-149940387D01*
X107513948Y-149916052D01*
X107384519Y-149809832D01*
X107236855Y-149730903D01*
X107076629Y-149682300D01*
X106951749Y-149670000D01*
X107076629Y-149657700D01*
X107236855Y-149609097D01*
X107384519Y-149530168D01*
X107513948Y-149423948D01*
X107620168Y-149294519D01*
X107699097Y-149146855D01*
X107747700Y-148986629D01*
X107764112Y-148820000D01*
X107764112Y-148670000D01*
X107883681Y-148670000D01*
X107950000Y-148676532D01*
X108016319Y-148670000D01*
X108016321Y-148670000D01*
X108214646Y-148650467D01*
X108469122Y-148573272D01*
X108703649Y-148447915D01*
X108909213Y-148279213D01*
X108951492Y-148227696D01*
X109216305Y-147962883D01*
X109217142Y-147974521D01*
X109418095Y-148705796D01*
X109757852Y-149383816D01*
X109871085Y-149553282D01*
X110409613Y-149869676D01*
X112959289Y-147320000D01*
X113100711Y-147320000D01*
X115650387Y-149869676D01*
X116188915Y-149553282D01*
X116563908Y-148894097D01*
X116803096Y-148174420D01*
X116897286Y-147421908D01*
X116842858Y-146665479D01*
X116641905Y-145934204D01*
X116302148Y-145256184D01*
X116188915Y-145086718D01*
X115650387Y-144770324D01*
X113100711Y-147320000D01*
X112959289Y-147320000D01*
X110409613Y-144770324D01*
X109935000Y-145049167D01*
X109935000Y-144699613D01*
X110480324Y-144699613D01*
X113030000Y-147249289D01*
X115579676Y-144699613D01*
X115263282Y-144161085D01*
X114604097Y-143786092D01*
X113884420Y-143546904D01*
X113131908Y-143452714D01*
X112375479Y-143507142D01*
X111644204Y-143708095D01*
X110966184Y-144047852D01*
X110796718Y-144161085D01*
X110480324Y-144699613D01*
X109935000Y-144699613D01*
X109935000Y-140894188D01*
X109955888Y-140873300D01*
X109955888Y-141920000D01*
X109972300Y-142086629D01*
X110020903Y-142246855D01*
X110099832Y-142394519D01*
X110206052Y-142523948D01*
X110335481Y-142630168D01*
X110483145Y-142709097D01*
X110643371Y-142757700D01*
X110810000Y-142774112D01*
X112710000Y-142774112D01*
X112876629Y-142757700D01*
X113036855Y-142709097D01*
X113184519Y-142630168D01*
X113313948Y-142523948D01*
X113420168Y-142394519D01*
X113499097Y-142246855D01*
X113547700Y-142086629D01*
X113564112Y-141920000D01*
X115035887Y-141920000D01*
X115052299Y-142086629D01*
X115100902Y-142246855D01*
X115179831Y-142394520D01*
X115286051Y-142523949D01*
X115415480Y-142630169D01*
X115563145Y-142709098D01*
X115723371Y-142757701D01*
X115890000Y-142774113D01*
X116577500Y-142770000D01*
X116790000Y-142557500D01*
X116790000Y-141020000D01*
X116890000Y-141020000D01*
X116890000Y-142557500D01*
X117102500Y-142770000D01*
X117790000Y-142774113D01*
X117956629Y-142757701D01*
X118116855Y-142709098D01*
X118264520Y-142630169D01*
X118393949Y-142523949D01*
X118500169Y-142394520D01*
X118579098Y-142246855D01*
X118627701Y-142086629D01*
X118644113Y-141920000D01*
X118640000Y-141232500D01*
X118427500Y-141020000D01*
X116890000Y-141020000D01*
X116790000Y-141020000D01*
X115252500Y-141020000D01*
X115040000Y-141232500D01*
X115035887Y-141920000D01*
X113564112Y-141920000D01*
X113564112Y-140020000D01*
X115035887Y-140020000D01*
X115040000Y-140707500D01*
X115252500Y-140920000D01*
X116790000Y-140920000D01*
X116790000Y-139382500D01*
X116890000Y-139382500D01*
X116890000Y-140920000D01*
X118427500Y-140920000D01*
X118640000Y-140707500D01*
X118644113Y-140020000D01*
X120115888Y-140020000D01*
X120115888Y-141920000D01*
X120132300Y-142086629D01*
X120180903Y-142246855D01*
X120259832Y-142394519D01*
X120366052Y-142523948D01*
X120495481Y-142630168D01*
X120643145Y-142709097D01*
X120803371Y-142757700D01*
X120970000Y-142774112D01*
X122870000Y-142774112D01*
X123036629Y-142757700D01*
X123190000Y-142711176D01*
X123343371Y-142757700D01*
X123510000Y-142774112D01*
X125410000Y-142774112D01*
X125576629Y-142757700D01*
X125736855Y-142709097D01*
X125884519Y-142630168D01*
X126013948Y-142523948D01*
X126037666Y-142495048D01*
X126288463Y-142632873D01*
X126626545Y-142739735D01*
X126978979Y-142778587D01*
X127332221Y-142747936D01*
X127672695Y-142648961D01*
X127987318Y-142485463D01*
X128022276Y-142462107D01*
X128092781Y-142133492D01*
X127000000Y-141040711D01*
X126985858Y-141054853D01*
X126915147Y-140984142D01*
X126929289Y-140970000D01*
X127070711Y-140970000D01*
X128163492Y-142062781D01*
X128492107Y-141992276D01*
X128662873Y-141681537D01*
X128769735Y-141343455D01*
X128808587Y-140991021D01*
X128777936Y-140637779D01*
X128678961Y-140297305D01*
X128515463Y-139982682D01*
X128492107Y-139947724D01*
X128163492Y-139877219D01*
X127070711Y-140970000D01*
X126929289Y-140970000D01*
X126915147Y-140955858D01*
X126985858Y-140885147D01*
X127000000Y-140899289D01*
X128092781Y-139806508D01*
X128022276Y-139477893D01*
X127711537Y-139307127D01*
X127373455Y-139200265D01*
X127021021Y-139161413D01*
X126667779Y-139192064D01*
X126327305Y-139291039D01*
X126035711Y-139442570D01*
X126013948Y-139416052D01*
X125884519Y-139309832D01*
X125736855Y-139230903D01*
X125576629Y-139182300D01*
X125410000Y-139165888D01*
X123510000Y-139165888D01*
X123343371Y-139182300D01*
X123190000Y-139228824D01*
X123036629Y-139182300D01*
X122870000Y-139165888D01*
X120970000Y-139165888D01*
X120803371Y-139182300D01*
X120643145Y-139230903D01*
X120495481Y-139309832D01*
X120366052Y-139416052D01*
X120259832Y-139545481D01*
X120180903Y-139693145D01*
X120132300Y-139853371D01*
X120115888Y-140020000D01*
X118644113Y-140020000D01*
X118627701Y-139853371D01*
X118579098Y-139693145D01*
X118500169Y-139545480D01*
X118393949Y-139416051D01*
X118264520Y-139309831D01*
X118116855Y-139230902D01*
X117956629Y-139182299D01*
X117790000Y-139165887D01*
X117102500Y-139170000D01*
X116890000Y-139382500D01*
X116790000Y-139382500D01*
X116577500Y-139170000D01*
X115890000Y-139165887D01*
X115723371Y-139182299D01*
X115563145Y-139230902D01*
X115415480Y-139309831D01*
X115286051Y-139416051D01*
X115179831Y-139545480D01*
X115100902Y-139693145D01*
X115052299Y-139853371D01*
X115035887Y-140020000D01*
X113564112Y-140020000D01*
X113547700Y-139853371D01*
X113499097Y-139693145D01*
X113420168Y-139545481D01*
X113313948Y-139416052D01*
X113184519Y-139309832D01*
X113036855Y-139230903D01*
X112876629Y-139182300D01*
X112710000Y-139165888D01*
X111663300Y-139165888D01*
X113589188Y-137240000D01*
X115140000Y-137240000D01*
X115179832Y-137314519D01*
X115286052Y-137443948D01*
X115415481Y-137550168D01*
X115563145Y-137629097D01*
X115723371Y-137677700D01*
X115890000Y-137694112D01*
X117790000Y-137694112D01*
X117956629Y-137677700D01*
X118116855Y-137629097D01*
X118264519Y-137550168D01*
X118393948Y-137443948D01*
X118500168Y-137314519D01*
X118579097Y-137166855D01*
X118627700Y-137006629D01*
X118644112Y-136840000D01*
X118644112Y-134940000D01*
X118627700Y-134773371D01*
X118581176Y-134620000D01*
X118627700Y-134466629D01*
X118644112Y-134300000D01*
X118644112Y-132400000D01*
X125195888Y-132400000D01*
X125195888Y-134300000D01*
X125212300Y-134466629D01*
X125258824Y-134620000D01*
X125212300Y-134773371D01*
X125195888Y-134940000D01*
X125195888Y-136840000D01*
X125212300Y-137006629D01*
X125260903Y-137166855D01*
X125339832Y-137314519D01*
X125446052Y-137443948D01*
X125575481Y-137550168D01*
X125723145Y-137629097D01*
X125883371Y-137677700D01*
X126050000Y-137694112D01*
X127950000Y-137694112D01*
X128116629Y-137677700D01*
X128276855Y-137629097D01*
X128424519Y-137550168D01*
X128553948Y-137443948D01*
X128660168Y-137314519D01*
X128739097Y-137166855D01*
X128787700Y-137006629D01*
X128804112Y-136840000D01*
X128804112Y-134940000D01*
X128787700Y-134773371D01*
X128741176Y-134620000D01*
X128787700Y-134466629D01*
X128804112Y-134300000D01*
X128804112Y-132400000D01*
X128787700Y-132233371D01*
X128739097Y-132073145D01*
X128660168Y-131925481D01*
X128553948Y-131796052D01*
X128424519Y-131689832D01*
X128276855Y-131610903D01*
X128116629Y-131562300D01*
X127950000Y-131545888D01*
X126050000Y-131545888D01*
X125883371Y-131562300D01*
X125723145Y-131610903D01*
X125575481Y-131689832D01*
X125446052Y-131796052D01*
X125339832Y-131925481D01*
X125260903Y-132073145D01*
X125212300Y-132233371D01*
X125195888Y-132400000D01*
X118644112Y-132400000D01*
X118627700Y-132233371D01*
X118579097Y-132073145D01*
X118500168Y-131925481D01*
X118393948Y-131796052D01*
X118264519Y-131689832D01*
X118116855Y-131610903D01*
X117956629Y-131562300D01*
X117790000Y-131545888D01*
X115890000Y-131545888D01*
X115723371Y-131562300D01*
X115563145Y-131610903D01*
X115415481Y-131689832D01*
X115286052Y-131796052D01*
X115179832Y-131925481D01*
X115100903Y-132073145D01*
X115052300Y-132233371D01*
X115035888Y-132400000D01*
X115035888Y-134300000D01*
X115052300Y-134466629D01*
X115074556Y-134540000D01*
X113096310Y-134540000D01*
X113029999Y-134533469D01*
X112963688Y-134540000D01*
X112963679Y-134540000D01*
X112765354Y-134559533D01*
X112510878Y-134636728D01*
X112429048Y-134680467D01*
X112276350Y-134762085D01*
X112176343Y-134844159D01*
X112070787Y-134930787D01*
X112028509Y-134982303D01*
X107677299Y-139333513D01*
X107625788Y-139375787D01*
X107583514Y-139427298D01*
X107583510Y-139427302D01*
X107457085Y-139581351D01*
X107331729Y-139815878D01*
X107254534Y-140070354D01*
X107229103Y-140328552D01*
X107076629Y-140282300D01*
X106910000Y-140265888D01*
X103910000Y-140265888D01*
X103743371Y-140282300D01*
X103583145Y-140330903D01*
X103435481Y-140409832D01*
X103306052Y-140516052D01*
X103199832Y-140645481D01*
X103120903Y-140793145D01*
X103072300Y-140953371D01*
X103055888Y-141120000D01*
X103055888Y-144120000D01*
X103072300Y-144286629D01*
X103120903Y-144446855D01*
X103199832Y-144594519D01*
X103306052Y-144723948D01*
X103435481Y-144830168D01*
X103583145Y-144909097D01*
X103743371Y-144957700D01*
X103868251Y-144970000D01*
X103743371Y-144982300D01*
X103583145Y-145030903D01*
X103435481Y-145109832D01*
X103306052Y-145216052D01*
X103199832Y-145345481D01*
X103120903Y-145493145D01*
X103072300Y-145653371D01*
X103055888Y-145820000D01*
X103055888Y-148820000D01*
X103072300Y-148986629D01*
X103120903Y-149146855D01*
X103199832Y-149294519D01*
X103306052Y-149423948D01*
X103435481Y-149530168D01*
X103583145Y-149609097D01*
X103743371Y-149657700D01*
X103868251Y-149670000D01*
X103743371Y-149682300D01*
X103583145Y-149730903D01*
X103435481Y-149809832D01*
X103306052Y-149916052D01*
X103199832Y-150045481D01*
X103120903Y-150193145D01*
X103072300Y-150353371D01*
X103055888Y-150520000D01*
X103055888Y-153520000D01*
X103062783Y-153590000D01*
X100396310Y-153590000D01*
X100329999Y-153583469D01*
X100263688Y-153590000D01*
X100263679Y-153590000D01*
X100065354Y-153609533D01*
X99810878Y-153686728D01*
X99701707Y-153745081D01*
X99576350Y-153812085D01*
X99422301Y-153938510D01*
X99422298Y-153938513D01*
X99370787Y-153980787D01*
X99328513Y-154032298D01*
X98152299Y-155208513D01*
X98100788Y-155250787D01*
X98058514Y-155302298D01*
X98058510Y-155302302D01*
X97932085Y-155456351D01*
X97806729Y-155690878D01*
X97729534Y-155945354D01*
X97703468Y-156210000D01*
X97710001Y-156276329D01*
X97710000Y-158254556D01*
X97636629Y-158232300D01*
X97470000Y-158215888D01*
X95570000Y-158215888D01*
X95403371Y-158232300D01*
X95250000Y-158278824D01*
X95096629Y-158232300D01*
X94930000Y-158215888D01*
X93030000Y-158215888D01*
X92863371Y-158232300D01*
X92710000Y-158278824D01*
X92556629Y-158232300D01*
X92390000Y-158215888D01*
X90490000Y-158215888D01*
X90323371Y-158232300D01*
X90170000Y-158278824D01*
X90016629Y-158232300D01*
X89850000Y-158215888D01*
X87950000Y-158215888D01*
X87783371Y-158232300D01*
X87623145Y-158280903D01*
X87475481Y-158359832D01*
X87346052Y-158466052D01*
X87239832Y-158595481D01*
X87160903Y-158743145D01*
X87112300Y-158903371D01*
X87095888Y-159070000D01*
X82630000Y-159070000D01*
X82630000Y-154918979D01*
X84551413Y-154918979D01*
X84582064Y-155272221D01*
X84681039Y-155612695D01*
X84844537Y-155927318D01*
X84867893Y-155962276D01*
X85196508Y-156032781D01*
X86289289Y-154940000D01*
X85196508Y-153847219D01*
X84867893Y-153917724D01*
X84697127Y-154228463D01*
X84590265Y-154566545D01*
X84551413Y-154918979D01*
X82630000Y-154918979D01*
X82630000Y-153776508D01*
X85267219Y-153776508D01*
X86360000Y-154869289D01*
X86374142Y-154855147D01*
X86444853Y-154925858D01*
X86430711Y-154940000D01*
X86444853Y-154954142D01*
X86374142Y-155024853D01*
X86360000Y-155010711D01*
X85267219Y-156103492D01*
X85337724Y-156432107D01*
X85648463Y-156602873D01*
X85986545Y-156709735D01*
X86338979Y-156748587D01*
X86692221Y-156717936D01*
X87032695Y-156618961D01*
X87324289Y-156467430D01*
X87346052Y-156493948D01*
X87475481Y-156600168D01*
X87623145Y-156679097D01*
X87783371Y-156727700D01*
X87950000Y-156744112D01*
X89850000Y-156744112D01*
X90016629Y-156727700D01*
X90170000Y-156681176D01*
X90323371Y-156727700D01*
X90490000Y-156744112D01*
X92390000Y-156744112D01*
X92556629Y-156727700D01*
X92716855Y-156679097D01*
X92864519Y-156600168D01*
X92993948Y-156493948D01*
X93100168Y-156364519D01*
X93179097Y-156216855D01*
X93227700Y-156056629D01*
X93244112Y-155890000D01*
X93244112Y-153990000D01*
X93227700Y-153823371D01*
X93179097Y-153663145D01*
X93100168Y-153515481D01*
X92993948Y-153386052D01*
X92864519Y-153279832D01*
X92790000Y-153240000D01*
X92790000Y-149940387D01*
X95240324Y-149940387D01*
X95556718Y-150478915D01*
X96215903Y-150853908D01*
X96935580Y-151093096D01*
X97688092Y-151187286D01*
X98444521Y-151132858D01*
X99175796Y-150931905D01*
X99853816Y-150592148D01*
X100023282Y-150478915D01*
X100339676Y-149940387D01*
X97790000Y-147390711D01*
X95240324Y-149940387D01*
X92790000Y-149940387D01*
X92790000Y-147218092D01*
X93922714Y-147218092D01*
X93977142Y-147974521D01*
X94178095Y-148705796D01*
X94517852Y-149383816D01*
X94631085Y-149553282D01*
X95169613Y-149869676D01*
X97719289Y-147320000D01*
X97860711Y-147320000D01*
X100410387Y-149869676D01*
X100948915Y-149553282D01*
X101323908Y-148894097D01*
X101563096Y-148174420D01*
X101657286Y-147421908D01*
X101602858Y-146665479D01*
X101401905Y-145934204D01*
X101062148Y-145256184D01*
X100948915Y-145086718D01*
X100410387Y-144770324D01*
X97860711Y-147320000D01*
X97719289Y-147320000D01*
X95169613Y-144770324D01*
X94631085Y-145086718D01*
X94256092Y-145745903D01*
X94016904Y-146465580D01*
X93922714Y-147218092D01*
X92790000Y-147218092D01*
X92790000Y-144699613D01*
X95240324Y-144699613D01*
X97790000Y-147249289D01*
X100339676Y-144699613D01*
X100023282Y-144161085D01*
X99364097Y-143786092D01*
X98644420Y-143546904D01*
X97891908Y-143452714D01*
X97135479Y-143507142D01*
X96404204Y-143708095D01*
X95726184Y-144047852D01*
X95556718Y-144161085D01*
X95240324Y-144699613D01*
X92790000Y-144699613D01*
X92790000Y-142735445D01*
X92863371Y-142757701D01*
X93030000Y-142774113D01*
X93717500Y-142770000D01*
X93930000Y-142557500D01*
X93930000Y-141020000D01*
X94030000Y-141020000D01*
X94030000Y-142557500D01*
X94242500Y-142770000D01*
X94930000Y-142774113D01*
X95096629Y-142757701D01*
X95256855Y-142709098D01*
X95404520Y-142630169D01*
X95533949Y-142523949D01*
X95640169Y-142394520D01*
X95719098Y-142246855D01*
X95767701Y-142086629D01*
X95784113Y-141920000D01*
X95780000Y-141232500D01*
X95567500Y-141020000D01*
X94030000Y-141020000D01*
X93930000Y-141020000D01*
X93910000Y-141020000D01*
X93910000Y-140920000D01*
X93930000Y-140920000D01*
X93930000Y-139382500D01*
X94030000Y-139382500D01*
X94030000Y-140920000D01*
X95567500Y-140920000D01*
X95780000Y-140707500D01*
X95784113Y-140020000D01*
X97255888Y-140020000D01*
X97255888Y-141920000D01*
X97272300Y-142086629D01*
X97320903Y-142246855D01*
X97399832Y-142394519D01*
X97506052Y-142523948D01*
X97635481Y-142630168D01*
X97783145Y-142709097D01*
X97943371Y-142757700D01*
X98110000Y-142774112D01*
X100010000Y-142774112D01*
X100176629Y-142757700D01*
X100336855Y-142709097D01*
X100484519Y-142630168D01*
X100613948Y-142523948D01*
X100720168Y-142394519D01*
X100799097Y-142246855D01*
X100847700Y-142086629D01*
X100864112Y-141920000D01*
X100864112Y-140020000D01*
X100847700Y-139853371D01*
X100799097Y-139693145D01*
X100720168Y-139545481D01*
X100613948Y-139416052D01*
X100570019Y-139380000D01*
X103605887Y-139380000D01*
X103622299Y-139546629D01*
X103670902Y-139706855D01*
X103749831Y-139854520D01*
X103856051Y-139983949D01*
X103985480Y-140090169D01*
X104133145Y-140169098D01*
X104293371Y-140217701D01*
X104460000Y-140234113D01*
X105147500Y-140230000D01*
X105360000Y-140017500D01*
X105360000Y-138480000D01*
X105460000Y-138480000D01*
X105460000Y-140017500D01*
X105672500Y-140230000D01*
X106360000Y-140234113D01*
X106526629Y-140217701D01*
X106686855Y-140169098D01*
X106834520Y-140090169D01*
X106963949Y-139983949D01*
X107070169Y-139854520D01*
X107149098Y-139706855D01*
X107197701Y-139546629D01*
X107214113Y-139380000D01*
X107210000Y-138692500D01*
X106997500Y-138480000D01*
X105460000Y-138480000D01*
X105360000Y-138480000D01*
X103822500Y-138480000D01*
X103610000Y-138692500D01*
X103605887Y-139380000D01*
X100570019Y-139380000D01*
X100484519Y-139309832D01*
X100336855Y-139230903D01*
X100176629Y-139182300D01*
X100010000Y-139165888D01*
X98110000Y-139165888D01*
X97943371Y-139182300D01*
X97783145Y-139230903D01*
X97635481Y-139309832D01*
X97506052Y-139416052D01*
X97399832Y-139545481D01*
X97320903Y-139693145D01*
X97272300Y-139853371D01*
X97255888Y-140020000D01*
X95784113Y-140020000D01*
X95767701Y-139853371D01*
X95719098Y-139693145D01*
X95640169Y-139545480D01*
X95533949Y-139416051D01*
X95404520Y-139309831D01*
X95256855Y-139230902D01*
X95096629Y-139182299D01*
X94930000Y-139165887D01*
X94242500Y-139170000D01*
X94030000Y-139382500D01*
X93930000Y-139382500D01*
X93798344Y-139250844D01*
X94887697Y-138161491D01*
X94939213Y-138119213D01*
X95107915Y-137913649D01*
X95233272Y-137679122D01*
X95293675Y-137480000D01*
X103605887Y-137480000D01*
X103610000Y-138167500D01*
X103822500Y-138380000D01*
X105360000Y-138380000D01*
X105360000Y-136842500D01*
X105460000Y-136842500D01*
X105460000Y-138380000D01*
X106997500Y-138380000D01*
X107210000Y-138167500D01*
X107214113Y-137480000D01*
X107197701Y-137313371D01*
X107149098Y-137153145D01*
X107070169Y-137005480D01*
X106963949Y-136876051D01*
X106834520Y-136769831D01*
X106686855Y-136690902D01*
X106526629Y-136642299D01*
X106360000Y-136625887D01*
X105672500Y-136630000D01*
X105460000Y-136842500D01*
X105360000Y-136842500D01*
X105147500Y-136630000D01*
X104460000Y-136625887D01*
X104293371Y-136642299D01*
X104133145Y-136690902D01*
X103985480Y-136769831D01*
X103856051Y-136876051D01*
X103749831Y-137005480D01*
X103670902Y-137153145D01*
X103622299Y-137313371D01*
X103605887Y-137480000D01*
X95293675Y-137480000D01*
X95310467Y-137424646D01*
X95330000Y-137226321D01*
X95330000Y-137226312D01*
X95336531Y-137160001D01*
X95330000Y-137093690D01*
X95330000Y-135050000D01*
X95404519Y-135010168D01*
X95533948Y-134903948D01*
X95640168Y-134774519D01*
X95719097Y-134626855D01*
X95767700Y-134466629D01*
X95784112Y-134300000D01*
X95784112Y-132400000D01*
X95767700Y-132233371D01*
X95745444Y-132160000D01*
X102374556Y-132160000D01*
X102352300Y-132233371D01*
X102335888Y-132400000D01*
X102335888Y-134300000D01*
X102352300Y-134466629D01*
X102400903Y-134626855D01*
X102479832Y-134774519D01*
X102586052Y-134903948D01*
X102715481Y-135010168D01*
X102863145Y-135089097D01*
X103023371Y-135137700D01*
X103190000Y-135154112D01*
X105090000Y-135154112D01*
X105256629Y-135137700D01*
X105416855Y-135089097D01*
X105564519Y-135010168D01*
X105693948Y-134903948D01*
X105800168Y-134774519D01*
X105879097Y-134626855D01*
X105927700Y-134466629D01*
X105944112Y-134300000D01*
X105944112Y-132400000D01*
X105927700Y-132233371D01*
X105879097Y-132073145D01*
X105800168Y-131925481D01*
X105693948Y-131796052D01*
X105564519Y-131689832D01*
X105490000Y-131650000D01*
X105490000Y-130876321D01*
X105496532Y-130810000D01*
X105490000Y-130743679D01*
X105490000Y-130035444D01*
X105563371Y-130057700D01*
X105730000Y-130074112D01*
X107630000Y-130074112D01*
X107796629Y-130057700D01*
X107950000Y-130011176D01*
X108103371Y-130057700D01*
X108270000Y-130074112D01*
X110170000Y-130074112D01*
X110336629Y-130057700D01*
X110490000Y-130011176D01*
X110643371Y-130057700D01*
X110810000Y-130074112D01*
X112710000Y-130074112D01*
X112876629Y-130057700D01*
X113036855Y-130009097D01*
X113184519Y-129930168D01*
X113313948Y-129823948D01*
X113420168Y-129694519D01*
X113499097Y-129546855D01*
X113547700Y-129386629D01*
X113564112Y-129220000D01*
X113564112Y-127320000D01*
X115035888Y-127320000D01*
X115035888Y-129220000D01*
X115052300Y-129386629D01*
X115100903Y-129546855D01*
X115179832Y-129694519D01*
X115286052Y-129823948D01*
X115415481Y-129930168D01*
X115563145Y-130009097D01*
X115723371Y-130057700D01*
X115890000Y-130074112D01*
X117790000Y-130074112D01*
X117956629Y-130057700D01*
X118116855Y-130009097D01*
X118264519Y-129930168D01*
X118393948Y-129823948D01*
X118500168Y-129694519D01*
X118579097Y-129546855D01*
X118627700Y-129386629D01*
X118644112Y-129220000D01*
X125195887Y-129220000D01*
X125212299Y-129386629D01*
X125260902Y-129546855D01*
X125339831Y-129694520D01*
X125446051Y-129823949D01*
X125575480Y-129930169D01*
X125723145Y-130009098D01*
X125883371Y-130057701D01*
X126050000Y-130074113D01*
X126737500Y-130070000D01*
X126950000Y-129857500D01*
X126950000Y-128320000D01*
X127050000Y-128320000D01*
X127050000Y-129857500D01*
X127262500Y-130070000D01*
X127950000Y-130074113D01*
X128116629Y-130057701D01*
X128276855Y-130009098D01*
X128424520Y-129930169D01*
X128553949Y-129823949D01*
X128660169Y-129694520D01*
X128739098Y-129546855D01*
X128787701Y-129386629D01*
X128804113Y-129220000D01*
X128800000Y-128532500D01*
X128587500Y-128320000D01*
X127050000Y-128320000D01*
X126950000Y-128320000D01*
X125412500Y-128320000D01*
X125200000Y-128532500D01*
X125195887Y-129220000D01*
X118644112Y-129220000D01*
X118644112Y-127320000D01*
X125195887Y-127320000D01*
X125200000Y-128007500D01*
X125412500Y-128220000D01*
X126950000Y-128220000D01*
X126950000Y-126682500D01*
X127050000Y-126682500D01*
X127050000Y-128220000D01*
X128587500Y-128220000D01*
X128800000Y-128007500D01*
X128804113Y-127320000D01*
X128787701Y-127153371D01*
X128739098Y-126993145D01*
X128660169Y-126845480D01*
X128553949Y-126716051D01*
X128424520Y-126609831D01*
X128276855Y-126530902D01*
X128116629Y-126482299D01*
X127950000Y-126465887D01*
X127262500Y-126470000D01*
X127050000Y-126682500D01*
X126950000Y-126682500D01*
X126737500Y-126470000D01*
X126050000Y-126465887D01*
X125883371Y-126482299D01*
X125723145Y-126530902D01*
X125575480Y-126609831D01*
X125446051Y-126716051D01*
X125339831Y-126845480D01*
X125260902Y-126993145D01*
X125212299Y-127153371D01*
X125195887Y-127320000D01*
X118644112Y-127320000D01*
X118627700Y-127153371D01*
X118579097Y-126993145D01*
X118500168Y-126845481D01*
X118393948Y-126716052D01*
X118264519Y-126609832D01*
X118116855Y-126530903D01*
X117956629Y-126482300D01*
X117790000Y-126465888D01*
X115890000Y-126465888D01*
X115723371Y-126482300D01*
X115563145Y-126530903D01*
X115415481Y-126609832D01*
X115286052Y-126716052D01*
X115179832Y-126845481D01*
X115100903Y-126993145D01*
X115052300Y-127153371D01*
X115035888Y-127320000D01*
X113564112Y-127320000D01*
X113547700Y-127153371D01*
X113499097Y-126993145D01*
X113420168Y-126845481D01*
X113313948Y-126716052D01*
X113184519Y-126609832D01*
X113036855Y-126530903D01*
X112876629Y-126482300D01*
X112710000Y-126465888D01*
X110810000Y-126465888D01*
X110643371Y-126482300D01*
X110490000Y-126528824D01*
X110336629Y-126482300D01*
X110170000Y-126465888D01*
X108270000Y-126465888D01*
X108103371Y-126482300D01*
X107950000Y-126528824D01*
X107796629Y-126482300D01*
X107630000Y-126465888D01*
X105730000Y-126465888D01*
X105563371Y-126482300D01*
X105410000Y-126528824D01*
X105256629Y-126482300D01*
X105090000Y-126465888D01*
X103190000Y-126465888D01*
X103023371Y-126482300D01*
X102870000Y-126528824D01*
X102716629Y-126482300D01*
X102550000Y-126465888D01*
X100650000Y-126465888D01*
X100483371Y-126482300D01*
X100330000Y-126528824D01*
X100176629Y-126482300D01*
X100010000Y-126465888D01*
X98110000Y-126465888D01*
X97943371Y-126482300D01*
X97783145Y-126530903D01*
X97635481Y-126609832D01*
X97506052Y-126716052D01*
X97399832Y-126845481D01*
X97320903Y-126993145D01*
X97272300Y-127153371D01*
X97255888Y-127320000D01*
X97255888Y-129220000D01*
X97272300Y-129386629D01*
X97294556Y-129460000D01*
X92141319Y-129460000D01*
X92075000Y-129453468D01*
X92008681Y-129460000D01*
X92008679Y-129460000D01*
X91810354Y-129479533D01*
X91615105Y-129538761D01*
X91555877Y-129556728D01*
X91438614Y-129619407D01*
X91321351Y-129682085D01*
X91115787Y-129850787D01*
X91073505Y-129902308D01*
X90532300Y-130443513D01*
X90480788Y-130485787D01*
X90438514Y-130537298D01*
X90438510Y-130537302D01*
X90312085Y-130691351D01*
X90186729Y-130925878D01*
X90109534Y-131180354D01*
X90083468Y-131445000D01*
X90090001Y-131511328D01*
X90090001Y-131650000D01*
X90015481Y-131689832D01*
X89886052Y-131796052D01*
X89779832Y-131925481D01*
X89700903Y-132073145D01*
X89652300Y-132233371D01*
X89635888Y-132400000D01*
X89635888Y-134300000D01*
X89652300Y-134466629D01*
X89700903Y-134626855D01*
X89779832Y-134774519D01*
X89886052Y-134903948D01*
X90015481Y-135010168D01*
X90163145Y-135089097D01*
X90323371Y-135137700D01*
X90490000Y-135154112D01*
X92390000Y-135154112D01*
X92556629Y-135137700D01*
X92630000Y-135115443D01*
X92630001Y-136600811D01*
X90532299Y-138698513D01*
X90480787Y-138740788D01*
X90438513Y-138792299D01*
X90438510Y-138792302D01*
X90312085Y-138946351D01*
X90245081Y-139071708D01*
X90186728Y-139180879D01*
X90109533Y-139435355D01*
X90098687Y-139545480D01*
X90083468Y-139700000D01*
X90090000Y-139766319D01*
X90090001Y-153174557D01*
X90016629Y-153152300D01*
X89850000Y-153135888D01*
X87950000Y-153135888D01*
X87783371Y-153152300D01*
X87623145Y-153200903D01*
X87475481Y-153279832D01*
X87346052Y-153386052D01*
X87322334Y-153414952D01*
X87071537Y-153277127D01*
X86733455Y-153170265D01*
X86381021Y-153131413D01*
X86027779Y-153162064D01*
X85687305Y-153261039D01*
X85372682Y-153424537D01*
X85337724Y-153447893D01*
X85267219Y-153776508D01*
X82630000Y-153776508D01*
X82630000Y-142670000D01*
X82704519Y-142630168D01*
X82833948Y-142523948D01*
X82940168Y-142394519D01*
X83019097Y-142246855D01*
X83067700Y-142086629D01*
X83084112Y-141920000D01*
X83084112Y-140020000D01*
X84555888Y-140020000D01*
X84555888Y-141920000D01*
X84572300Y-142086629D01*
X84620903Y-142246855D01*
X84699832Y-142394519D01*
X84806052Y-142523948D01*
X84935481Y-142630168D01*
X85083145Y-142709097D01*
X85243371Y-142757700D01*
X85410000Y-142774112D01*
X87310000Y-142774112D01*
X87476629Y-142757700D01*
X87636855Y-142709097D01*
X87784519Y-142630168D01*
X87913948Y-142523948D01*
X88020168Y-142394519D01*
X88099097Y-142246855D01*
X88147700Y-142086629D01*
X88164112Y-141920000D01*
X88164112Y-140020000D01*
X88147700Y-139853371D01*
X88099097Y-139693145D01*
X88020168Y-139545481D01*
X87913948Y-139416052D01*
X87784519Y-139309832D01*
X87636855Y-139230903D01*
X87476629Y-139182300D01*
X87310000Y-139165888D01*
X85410000Y-139165888D01*
X85243371Y-139182300D01*
X85083145Y-139230903D01*
X84935481Y-139309832D01*
X84806052Y-139416052D01*
X84699832Y-139545481D01*
X84620903Y-139693145D01*
X84572300Y-139853371D01*
X84555888Y-140020000D01*
X83084112Y-140020000D01*
X83067700Y-139853371D01*
X83019097Y-139693145D01*
X82940168Y-139545481D01*
X82833948Y-139416052D01*
X82704519Y-139309832D01*
X82556855Y-139230903D01*
X82396629Y-139182300D01*
X82230000Y-139165888D01*
X80330000Y-139165888D01*
X80163371Y-139182300D01*
X80003145Y-139230903D01*
X79855481Y-139309832D01*
X79726052Y-139416052D01*
X79619832Y-139545481D01*
X79540903Y-139693145D01*
X79492300Y-139853371D01*
X79475888Y-140020000D01*
X79475888Y-141920000D01*
X79492300Y-142086629D01*
X79540903Y-142246855D01*
X79619832Y-142394519D01*
X79726052Y-142523948D01*
X79855481Y-142630168D01*
X79930000Y-142670000D01*
X79930001Y-171383671D01*
X79923468Y-171450000D01*
X79949534Y-171714646D01*
X80026729Y-171969122D01*
X80152085Y-172203649D01*
X80278510Y-172357698D01*
X80278514Y-172357702D01*
X80320788Y-172409213D01*
X80372299Y-172451487D01*
X81200000Y-173279189D01*
X81200001Y-186194557D01*
X81126629Y-186172300D01*
X80960000Y-186155888D01*
X79060000Y-186155888D01*
X78893371Y-186172300D01*
X78733145Y-186220903D01*
X78585481Y-186299832D01*
X78456052Y-186406052D01*
X78349832Y-186535481D01*
X78270903Y-186683145D01*
X78222300Y-186843371D01*
X78205888Y-187010000D01*
X78205888Y-188910000D01*
X78222300Y-189076629D01*
X78268824Y-189230000D01*
X78222300Y-189383371D01*
X78205888Y-189550000D01*
X78205888Y-191450000D01*
X78222300Y-191616629D01*
X78270903Y-191776855D01*
X78349832Y-191924519D01*
X78456052Y-192053948D01*
X78484952Y-192077666D01*
X78347127Y-192328463D01*
X78240265Y-192666545D01*
X78201413Y-193018979D01*
X77250000Y-193018979D01*
X77250000Y-134300000D01*
X79475887Y-134300000D01*
X79492299Y-134466629D01*
X79540902Y-134626855D01*
X79619831Y-134774520D01*
X79726051Y-134903949D01*
X79855480Y-135010169D01*
X80003145Y-135089098D01*
X80163371Y-135137701D01*
X80330000Y-135154113D01*
X81017500Y-135150000D01*
X81230000Y-134937500D01*
X81230000Y-133400000D01*
X81330000Y-133400000D01*
X81330000Y-134937500D01*
X81542500Y-135150000D01*
X82230000Y-135154113D01*
X82396629Y-135137701D01*
X82556855Y-135089098D01*
X82704520Y-135010169D01*
X82833949Y-134903949D01*
X82940169Y-134774520D01*
X83019098Y-134626855D01*
X83067701Y-134466629D01*
X83084113Y-134300000D01*
X83080000Y-133612500D01*
X82867500Y-133400000D01*
X81330000Y-133400000D01*
X81230000Y-133400000D01*
X79692500Y-133400000D01*
X79480000Y-133612500D01*
X79475887Y-134300000D01*
X77250000Y-134300000D01*
X77250000Y-132400000D01*
X79475887Y-132400000D01*
X79480000Y-133087500D01*
X79692500Y-133300000D01*
X81230000Y-133300000D01*
X81230000Y-131762500D01*
X81330000Y-131762500D01*
X81330000Y-133300000D01*
X82867500Y-133300000D01*
X83080000Y-133087500D01*
X83084113Y-132400000D01*
X83067701Y-132233371D01*
X83019098Y-132073145D01*
X82940169Y-131925480D01*
X82833949Y-131796051D01*
X82704520Y-131689831D01*
X82556855Y-131610902D01*
X82396629Y-131562299D01*
X82230000Y-131545887D01*
X81542500Y-131550000D01*
X81330000Y-131762500D01*
X81230000Y-131762500D01*
X81017500Y-131550000D01*
X80330000Y-131545887D01*
X80163371Y-131562299D01*
X80003145Y-131610902D01*
X79855480Y-131689831D01*
X79726051Y-131796051D01*
X79619831Y-131925480D01*
X79540902Y-132073145D01*
X79492299Y-132233371D01*
X79475887Y-132400000D01*
X77250000Y-132400000D01*
X77250000Y-125510000D01*
X133570000Y-125510000D01*
X133570001Y-195145075D01*
G37*
X133570001Y-195145075D02*
X127531562Y-201183515D01*
X127530000Y-200922500D01*
X127317500Y-200710000D01*
X125780000Y-200710000D01*
X125780000Y-202247500D01*
X125992500Y-202460000D01*
X126253515Y-202461562D01*
X124025077Y-204690000D01*
X86794924Y-204690000D01*
X82587640Y-200482716D01*
X102340000Y-200482716D01*
X102340000Y-200837284D01*
X102409173Y-201185041D01*
X102544861Y-201512620D01*
X102741849Y-201807433D01*
X102992567Y-202058151D01*
X103287380Y-202255139D01*
X103614959Y-202390827D01*
X103962716Y-202460000D01*
X104317284Y-202460000D01*
X104665041Y-202390827D01*
X104992620Y-202255139D01*
X105287433Y-202058151D01*
X105296068Y-202049516D01*
X105508806Y-202224106D01*
X105755016Y-202355708D01*
X106022170Y-202436748D01*
X106300000Y-202464112D01*
X107060000Y-202464112D01*
X107337830Y-202436748D01*
X107604984Y-202355708D01*
X107851194Y-202224106D01*
X108066999Y-202046999D01*
X108244106Y-201831194D01*
X108375708Y-201584984D01*
X108456748Y-201317830D01*
X108484112Y-201040000D01*
X108484112Y-200280000D01*
X108456748Y-200002170D01*
X108375708Y-199735016D01*
X108244106Y-199488806D01*
X108066999Y-199273001D01*
X107851194Y-199095894D01*
X107802750Y-199070000D01*
X113765887Y-199070000D01*
X113782299Y-199236629D01*
X113828823Y-199390002D01*
X113782300Y-199543371D01*
X113765888Y-199710000D01*
X113765888Y-201610000D01*
X113782300Y-201776629D01*
X113830903Y-201936855D01*
X113909832Y-202084519D01*
X114016052Y-202213948D01*
X114145481Y-202320168D01*
X114293145Y-202399097D01*
X114453371Y-202447700D01*
X114620000Y-202464112D01*
X116520000Y-202464112D01*
X116686629Y-202447700D01*
X116846855Y-202399097D01*
X116994519Y-202320168D01*
X117123948Y-202213948D01*
X117230168Y-202084519D01*
X117309097Y-201936855D01*
X117357700Y-201776629D01*
X117374112Y-201610000D01*
X123925887Y-201610000D01*
X123942299Y-201776629D01*
X123990902Y-201936855D01*
X124069831Y-202084520D01*
X124176051Y-202213949D01*
X124305480Y-202320169D01*
X124453145Y-202399098D01*
X124613371Y-202447701D01*
X124780000Y-202464113D01*
X125467500Y-202460000D01*
X125680000Y-202247500D01*
X125680000Y-200710000D01*
X124142500Y-200710000D01*
X123930000Y-200922500D01*
X123925887Y-201610000D01*
X117374112Y-201610000D01*
X117374112Y-199710000D01*
X123925887Y-199710000D01*
X123930000Y-200397500D01*
X124142500Y-200610000D01*
X125680000Y-200610000D01*
X125680000Y-200590000D01*
X125780000Y-200590000D01*
X125780000Y-200610000D01*
X127317500Y-200610000D01*
X127530000Y-200397500D01*
X127534113Y-199710000D01*
X127517701Y-199543371D01*
X127471177Y-199389998D01*
X127517700Y-199236629D01*
X127534112Y-199070000D01*
X127534112Y-197170000D01*
X127517700Y-197003371D01*
X127471176Y-196850000D01*
X127517700Y-196696629D01*
X127534112Y-196530000D01*
X127534112Y-194630000D01*
X127517700Y-194463371D01*
X127471176Y-194310000D01*
X127517700Y-194156629D01*
X127534112Y-193990000D01*
X127534112Y-192090000D01*
X127517700Y-191923371D01*
X127471176Y-191770000D01*
X127517700Y-191616629D01*
X127534112Y-191450000D01*
X127534112Y-189550000D01*
X127517700Y-189383371D01*
X127469097Y-189223145D01*
X127390168Y-189075481D01*
X127283948Y-188946052D01*
X127154519Y-188839832D01*
X127006855Y-188760903D01*
X126846629Y-188712300D01*
X126680000Y-188695888D01*
X124780000Y-188695888D01*
X124613371Y-188712300D01*
X124453145Y-188760903D01*
X124305481Y-188839832D01*
X124176052Y-188946052D01*
X124069832Y-189075481D01*
X123990903Y-189223145D01*
X123942300Y-189383371D01*
X123925888Y-189550000D01*
X123925888Y-191450000D01*
X123942300Y-191616629D01*
X123988824Y-191770000D01*
X123942300Y-191923371D01*
X123925888Y-192090000D01*
X123925888Y-193990000D01*
X123942300Y-194156629D01*
X123988824Y-194310000D01*
X123942300Y-194463371D01*
X123925888Y-194630000D01*
X123925888Y-196530000D01*
X123942300Y-196696629D01*
X123988824Y-196850000D01*
X123942300Y-197003371D01*
X123925888Y-197170000D01*
X123925888Y-199070000D01*
X123942300Y-199236629D01*
X123988823Y-199389998D01*
X123942299Y-199543371D01*
X123925887Y-199710000D01*
X117374112Y-199710000D01*
X117357700Y-199543371D01*
X117311177Y-199390002D01*
X117357701Y-199236629D01*
X117374113Y-199070000D01*
X117370000Y-198382500D01*
X117157500Y-198170000D01*
X115620000Y-198170000D01*
X115620000Y-198190000D01*
X115520000Y-198190000D01*
X115520000Y-198170000D01*
X113982500Y-198170000D01*
X113770000Y-198382500D01*
X113765887Y-199070000D01*
X107802750Y-199070000D01*
X107604984Y-198964292D01*
X107337830Y-198883252D01*
X107060000Y-198855888D01*
X106300000Y-198855888D01*
X106022170Y-198883252D01*
X105755016Y-198964292D01*
X105508806Y-199095894D01*
X105296068Y-199270484D01*
X105287433Y-199261849D01*
X104992620Y-199064861D01*
X104665041Y-198929173D01*
X104317284Y-198860000D01*
X103962716Y-198860000D01*
X103614959Y-198929173D01*
X103287380Y-199064861D01*
X102992567Y-199261849D01*
X102741849Y-199512567D01*
X102544861Y-199807380D01*
X102409173Y-200134959D01*
X102340000Y-200482716D01*
X82587640Y-200482716D01*
X77250000Y-195145077D01*
X77250000Y-194203492D01*
X78917219Y-194203492D01*
X78987724Y-194532107D01*
X79298463Y-194702873D01*
X79636545Y-194809735D01*
X79988979Y-194848587D01*
X80342221Y-194817936D01*
X80682695Y-194718961D01*
X80997318Y-194555463D01*
X81032276Y-194532107D01*
X81102781Y-194203492D01*
X80010000Y-193110711D01*
X78917219Y-194203492D01*
X77250000Y-194203492D01*
X77250000Y-193018979D01*
X78201413Y-193018979D01*
X78232064Y-193372221D01*
X78331039Y-193712695D01*
X78494537Y-194027318D01*
X78517893Y-194062276D01*
X78846508Y-194132781D01*
X79939289Y-193040000D01*
X79925147Y-193025858D01*
X79995858Y-192955147D01*
X80010000Y-192969289D01*
X80024142Y-192955147D01*
X80094853Y-193025858D01*
X80080711Y-193040000D01*
X81173492Y-194132781D01*
X81502107Y-194062276D01*
X81541826Y-193990000D01*
X83285887Y-193990000D01*
X83302299Y-194156629D01*
X83350902Y-194316855D01*
X83429831Y-194464520D01*
X83536051Y-194593949D01*
X83665480Y-194700169D01*
X83813145Y-194779098D01*
X83973371Y-194827701D01*
X84140000Y-194844113D01*
X84827500Y-194840000D01*
X85040000Y-194627500D01*
X85040000Y-193090000D01*
X85140000Y-193090000D01*
X85140000Y-194627500D01*
X85352500Y-194840000D01*
X86040000Y-194844113D01*
X86206629Y-194827701D01*
X86366855Y-194779098D01*
X86514520Y-194700169D01*
X86643949Y-194593949D01*
X86750169Y-194464520D01*
X86829098Y-194316855D01*
X86877701Y-194156629D01*
X86894113Y-193990000D01*
X86890000Y-193302500D01*
X86677500Y-193090000D01*
X85140000Y-193090000D01*
X85040000Y-193090000D01*
X83502500Y-193090000D01*
X83290000Y-193302500D01*
X83285887Y-193990000D01*
X81541826Y-193990000D01*
X81672873Y-193751537D01*
X81779735Y-193413455D01*
X81818587Y-193061021D01*
X81787936Y-192707779D01*
X81688961Y-192367305D01*
X81537430Y-192075711D01*
X81563948Y-192053948D01*
X81670168Y-191924519D01*
X81710000Y-191850000D01*
X81848681Y-191850000D01*
X81915000Y-191856532D01*
X81981319Y-191850000D01*
X81981321Y-191850000D01*
X82179646Y-191830467D01*
X82434122Y-191753272D01*
X82668649Y-191627915D01*
X82874213Y-191459213D01*
X82916492Y-191407696D01*
X83285888Y-191038299D01*
X83285888Y-191450000D01*
X83302300Y-191616629D01*
X83348823Y-191769998D01*
X83302299Y-191923371D01*
X83285887Y-192090000D01*
X83290000Y-192777500D01*
X83502500Y-192990000D01*
X85040000Y-192990000D01*
X85040000Y-192970000D01*
X85140000Y-192970000D01*
X85140000Y-192990000D01*
X86677500Y-192990000D01*
X86890000Y-192777500D01*
X86894113Y-192090000D01*
X86877701Y-191923371D01*
X86831177Y-191769998D01*
X86877700Y-191616629D01*
X86894112Y-191450000D01*
X86894112Y-189550000D01*
X86877700Y-189383371D01*
X86831176Y-189230000D01*
X86877700Y-189076629D01*
X86894112Y-188910000D01*
X86894112Y-187010000D01*
X93445888Y-187010000D01*
X93445888Y-188910000D01*
X93462300Y-189076629D01*
X93508824Y-189230000D01*
X93462300Y-189383371D01*
X93445888Y-189550000D01*
X93445888Y-191450000D01*
X93462300Y-191616629D01*
X93508824Y-191770000D01*
X93462300Y-191923371D01*
X93445888Y-192090000D01*
X93445888Y-193990000D01*
X93462300Y-194156629D01*
X93510903Y-194316855D01*
X93589832Y-194464519D01*
X93696052Y-194593948D01*
X93825481Y-194700168D01*
X93973145Y-194779097D01*
X94133371Y-194827700D01*
X94300000Y-194844112D01*
X96200000Y-194844112D01*
X96366629Y-194827700D01*
X96526855Y-194779097D01*
X96674519Y-194700168D01*
X96803948Y-194593948D01*
X96910168Y-194464519D01*
X96989097Y-194316855D01*
X97037700Y-194156629D01*
X97054112Y-193990000D01*
X97054112Y-192090000D01*
X98525888Y-192090000D01*
X98525888Y-193990000D01*
X98542300Y-194156629D01*
X98588824Y-194310000D01*
X98542300Y-194463371D01*
X98525888Y-194630000D01*
X98525888Y-196530000D01*
X98542300Y-196696629D01*
X98590903Y-196856855D01*
X98669832Y-197004519D01*
X98776052Y-197133948D01*
X98905481Y-197240168D01*
X99053145Y-197319097D01*
X99213371Y-197367700D01*
X99380000Y-197384112D01*
X101280000Y-197384112D01*
X101446629Y-197367700D01*
X101606855Y-197319097D01*
X101754519Y-197240168D01*
X101883948Y-197133948D01*
X101990168Y-197004519D01*
X102069097Y-196856855D01*
X102117700Y-196696629D01*
X102134112Y-196530000D01*
X102134112Y-194630000D01*
X102117700Y-194463371D01*
X102071176Y-194310000D01*
X102117700Y-194156629D01*
X102134112Y-193990000D01*
X102134112Y-192090000D01*
X102117700Y-191923371D01*
X102069097Y-191763145D01*
X101990168Y-191615481D01*
X101883948Y-191486052D01*
X101754519Y-191379832D01*
X101606855Y-191300903D01*
X101446629Y-191252300D01*
X101280000Y-191235888D01*
X99380000Y-191235888D01*
X99213371Y-191252300D01*
X99053145Y-191300903D01*
X98905481Y-191379832D01*
X98776052Y-191486052D01*
X98669832Y-191615481D01*
X98590903Y-191763145D01*
X98542300Y-191923371D01*
X98525888Y-192090000D01*
X97054112Y-192090000D01*
X97037700Y-191923371D01*
X96991176Y-191770000D01*
X97037700Y-191616629D01*
X97054112Y-191450000D01*
X97054112Y-189550000D01*
X97037700Y-189383371D01*
X96991176Y-189230000D01*
X97037700Y-189076629D01*
X97054112Y-188910000D01*
X97054112Y-187010000D01*
X97037700Y-186843371D01*
X96989097Y-186683145D01*
X96910168Y-186535481D01*
X96803948Y-186406052D01*
X96674519Y-186299832D01*
X96526855Y-186220903D01*
X96366629Y-186172300D01*
X96200000Y-186155888D01*
X94300000Y-186155888D01*
X94133371Y-186172300D01*
X93973145Y-186220903D01*
X93825481Y-186299832D01*
X93696052Y-186406052D01*
X93589832Y-186535481D01*
X93510903Y-186683145D01*
X93462300Y-186843371D01*
X93445888Y-187010000D01*
X86894112Y-187010000D01*
X86877700Y-186843371D01*
X86829097Y-186683145D01*
X86750168Y-186535481D01*
X86643948Y-186406052D01*
X86514519Y-186299832D01*
X86366855Y-186220903D01*
X86206629Y-186172300D01*
X86040000Y-186155888D01*
X84140000Y-186155888D01*
X83973371Y-186172300D01*
X83900000Y-186194556D01*
X83900000Y-172786310D01*
X83906531Y-172719999D01*
X83900000Y-172653688D01*
X83900000Y-172653679D01*
X83880467Y-172455354D01*
X83803272Y-172200878D01*
X83687409Y-171984113D01*
X83687409Y-171984112D01*
X84770000Y-171984112D01*
X84936629Y-171967700D01*
X85096855Y-171919097D01*
X85244519Y-171840168D01*
X85373948Y-171733948D01*
X85480168Y-171604519D01*
X85559097Y-171456855D01*
X85607700Y-171296629D01*
X85624112Y-171130000D01*
X85624112Y-169230000D01*
X87095888Y-169230000D01*
X87095888Y-171130000D01*
X87112300Y-171296629D01*
X87160903Y-171456855D01*
X87239832Y-171604519D01*
X87346052Y-171733948D01*
X87475481Y-171840168D01*
X87623145Y-171919097D01*
X87783371Y-171967700D01*
X87950000Y-171984112D01*
X89850000Y-171984112D01*
X90016629Y-171967700D01*
X90090000Y-171945444D01*
X90090000Y-172018680D01*
X90083468Y-172085000D01*
X90090000Y-172151319D01*
X90090000Y-172151320D01*
X90109533Y-172349645D01*
X90186728Y-172604121D01*
X90186729Y-172604122D01*
X90312085Y-172838649D01*
X90438510Y-172992698D01*
X90438513Y-172992701D01*
X90480787Y-173044212D01*
X90532300Y-173086488D01*
X91073505Y-173627692D01*
X91115787Y-173679213D01*
X91153009Y-173709760D01*
X91049832Y-173835481D01*
X90970903Y-173983145D01*
X90922300Y-174143371D01*
X90905888Y-174310000D01*
X90905888Y-176210000D01*
X90922300Y-176376629D01*
X90970903Y-176536855D01*
X91049832Y-176684519D01*
X91156052Y-176813948D01*
X91187030Y-176839371D01*
X91114861Y-176947380D01*
X90979173Y-177274959D01*
X90910000Y-177622716D01*
X90910000Y-177977284D01*
X90979173Y-178325041D01*
X91114861Y-178652620D01*
X91187030Y-178760629D01*
X91156052Y-178786052D01*
X91049832Y-178915481D01*
X90970903Y-179063145D01*
X90922300Y-179223371D01*
X90905888Y-179390000D01*
X90905888Y-181290000D01*
X90922300Y-181456629D01*
X90970903Y-181616855D01*
X91049832Y-181764519D01*
X91156052Y-181893948D01*
X91285481Y-182000168D01*
X91433145Y-182079097D01*
X91593371Y-182127700D01*
X91760000Y-182144112D01*
X93660000Y-182144112D01*
X93826629Y-182127700D01*
X93986855Y-182079097D01*
X94134519Y-182000168D01*
X94263948Y-181893948D01*
X94370168Y-181764519D01*
X94449097Y-181616855D01*
X94497700Y-181456629D01*
X94514112Y-181290000D01*
X94514112Y-179390000D01*
X94497700Y-179223371D01*
X94449097Y-179063145D01*
X94370168Y-178915481D01*
X94263948Y-178786052D01*
X94232970Y-178760629D01*
X94305139Y-178652620D01*
X94440827Y-178325041D01*
X94510000Y-177977284D01*
X94510000Y-177622716D01*
X94440827Y-177274959D01*
X94305139Y-176947380D01*
X94232970Y-176839371D01*
X94263948Y-176813948D01*
X94370168Y-176684519D01*
X94449097Y-176536855D01*
X94497700Y-176376629D01*
X94514112Y-176210000D01*
X94514112Y-174310000D01*
X94497700Y-174143371D01*
X94475444Y-174070000D01*
X96595812Y-174070000D01*
X98693509Y-176167697D01*
X98735787Y-176219213D01*
X98941351Y-176387915D01*
X99175878Y-176513272D01*
X99430354Y-176590467D01*
X99628679Y-176610000D01*
X99628688Y-176610000D01*
X99694999Y-176616531D01*
X99761310Y-176610000D01*
X100464416Y-176610000D01*
X100512567Y-176658151D01*
X100807380Y-176855139D01*
X101134959Y-176990827D01*
X101482716Y-177060000D01*
X101837284Y-177060000D01*
X102185041Y-176990827D01*
X102512620Y-176855139D01*
X102594795Y-176800231D01*
X102595149Y-176800663D01*
X101962299Y-177433513D01*
X101910788Y-177475787D01*
X101868514Y-177527298D01*
X101868510Y-177527302D01*
X101742085Y-177681351D01*
X101616729Y-177915878D01*
X101577291Y-178045888D01*
X99160000Y-178045888D01*
X98993371Y-178062300D01*
X98833145Y-178110903D01*
X98685481Y-178189832D01*
X98556052Y-178296052D01*
X98449832Y-178425481D01*
X98370903Y-178573145D01*
X98322300Y-178733371D01*
X98305888Y-178900000D01*
X98305888Y-181400000D01*
X98322300Y-181566629D01*
X98370903Y-181726855D01*
X98449832Y-181874519D01*
X98556052Y-182003948D01*
X98685481Y-182110168D01*
X98760001Y-182150000D01*
X98685481Y-182189832D01*
X98556052Y-182296052D01*
X98449832Y-182425481D01*
X98370903Y-182573145D01*
X98322300Y-182733371D01*
X98305888Y-182900000D01*
X98305888Y-185400000D01*
X98322300Y-185566629D01*
X98370903Y-185726855D01*
X98449832Y-185874519D01*
X98556052Y-186003948D01*
X98685481Y-186110168D01*
X98760001Y-186150000D01*
X98685481Y-186189832D01*
X98556052Y-186296052D01*
X98449832Y-186425481D01*
X98370903Y-186573145D01*
X98322300Y-186733371D01*
X98305888Y-186900000D01*
X98305888Y-189400000D01*
X98322300Y-189566629D01*
X98370903Y-189726855D01*
X98449832Y-189874519D01*
X98556052Y-190003948D01*
X98685481Y-190110168D01*
X98833145Y-190189097D01*
X98993371Y-190237700D01*
X99160000Y-190254112D01*
X101660000Y-190254112D01*
X101826629Y-190237700D01*
X101986855Y-190189097D01*
X102134519Y-190110168D01*
X102263948Y-190003948D01*
X102370168Y-189874519D01*
X102449097Y-189726855D01*
X102497700Y-189566629D01*
X102504263Y-189500000D01*
X103315737Y-189500000D01*
X103322300Y-189566629D01*
X103370903Y-189726855D01*
X103449832Y-189874519D01*
X103556052Y-190003948D01*
X103685481Y-190110168D01*
X103833145Y-190189097D01*
X103993371Y-190237700D01*
X104160000Y-190254112D01*
X106660000Y-190254112D01*
X106826629Y-190237700D01*
X106986855Y-190189097D01*
X107134519Y-190110168D01*
X107263948Y-190003948D01*
X107370168Y-189874519D01*
X107449097Y-189726855D01*
X107497700Y-189566629D01*
X107514112Y-189400000D01*
X107514112Y-186900000D01*
X107497700Y-186733371D01*
X107449097Y-186573145D01*
X107370168Y-186425481D01*
X107263948Y-186296052D01*
X107134519Y-186189832D01*
X107059999Y-186150000D01*
X107134519Y-186110168D01*
X107263948Y-186003948D01*
X107370168Y-185874519D01*
X107449097Y-185726855D01*
X107497700Y-185566629D01*
X107505467Y-185487773D01*
X107579646Y-185480467D01*
X107834122Y-185403272D01*
X108068649Y-185277915D01*
X108274213Y-185109213D01*
X108307266Y-185068938D01*
X108305887Y-185400000D01*
X108322299Y-185566629D01*
X108370902Y-185726855D01*
X108449831Y-185874520D01*
X108556051Y-186003949D01*
X108685480Y-186110169D01*
X108759999Y-186150001D01*
X108685481Y-186189832D01*
X108556052Y-186296052D01*
X108449832Y-186425481D01*
X108370903Y-186573145D01*
X108322300Y-186733371D01*
X108305888Y-186900000D01*
X108305888Y-189400000D01*
X108322300Y-189566629D01*
X108370903Y-189726855D01*
X108449832Y-189874519D01*
X108556052Y-190003948D01*
X108685481Y-190110168D01*
X108833145Y-190189097D01*
X108993371Y-190237700D01*
X109160000Y-190254112D01*
X111660000Y-190254112D01*
X111680001Y-190252142D01*
X111680001Y-191274557D01*
X111606629Y-191252300D01*
X111440000Y-191235888D01*
X109540000Y-191235888D01*
X109373371Y-191252300D01*
X109213145Y-191300903D01*
X109065481Y-191379832D01*
X108936052Y-191486052D01*
X108829832Y-191615481D01*
X108750903Y-191763145D01*
X108702300Y-191923371D01*
X108685888Y-192090000D01*
X108685888Y-193990000D01*
X108702300Y-194156629D01*
X108748824Y-194310000D01*
X108702300Y-194463371D01*
X108685888Y-194630000D01*
X108685888Y-196530000D01*
X108702300Y-196696629D01*
X108750903Y-196856855D01*
X108829832Y-197004519D01*
X108936052Y-197133948D01*
X109065481Y-197240168D01*
X109213145Y-197319097D01*
X109373371Y-197367700D01*
X109540000Y-197384112D01*
X111440000Y-197384112D01*
X111606629Y-197367700D01*
X111766855Y-197319097D01*
X111914519Y-197240168D01*
X112043948Y-197133948D01*
X112150168Y-197004519D01*
X112229097Y-196856855D01*
X112277700Y-196696629D01*
X112294112Y-196530000D01*
X112294112Y-194630000D01*
X112277700Y-194463371D01*
X112255444Y-194390000D01*
X112328681Y-194390000D01*
X112395000Y-194396532D01*
X112461319Y-194390000D01*
X112461321Y-194390000D01*
X112659646Y-194370467D01*
X112914122Y-194293272D01*
X113148649Y-194167915D01*
X113354213Y-193999213D01*
X113396492Y-193947696D01*
X113765888Y-193578299D01*
X113765888Y-193990000D01*
X113782300Y-194156629D01*
X113828824Y-194310000D01*
X113782300Y-194463371D01*
X113765888Y-194630000D01*
X113765888Y-196530000D01*
X113782300Y-196696629D01*
X113828823Y-196849998D01*
X113782299Y-197003371D01*
X113765887Y-197170000D01*
X113770000Y-197857500D01*
X113982500Y-198070000D01*
X115520000Y-198070000D01*
X115520000Y-198050000D01*
X115620000Y-198050000D01*
X115620000Y-198070000D01*
X117157500Y-198070000D01*
X117370000Y-197857500D01*
X117374113Y-197170000D01*
X117357701Y-197003371D01*
X117311177Y-196849998D01*
X117357700Y-196696629D01*
X117374112Y-196530000D01*
X117374112Y-194630000D01*
X117357700Y-194463371D01*
X117311176Y-194310000D01*
X117357700Y-194156629D01*
X117374112Y-193990000D01*
X117374112Y-192090000D01*
X117357700Y-191923371D01*
X117311177Y-191770002D01*
X117357701Y-191616629D01*
X117374113Y-191450000D01*
X117370000Y-190762500D01*
X117157500Y-190550000D01*
X115620000Y-190550000D01*
X115620000Y-190570000D01*
X115520000Y-190570000D01*
X115520000Y-190550000D01*
X115500000Y-190550000D01*
X115500000Y-190450000D01*
X115520000Y-190450000D01*
X115520000Y-188912500D01*
X115620000Y-188912500D01*
X115620000Y-190450000D01*
X117157500Y-190450000D01*
X117370000Y-190237500D01*
X117374113Y-189550000D01*
X117357701Y-189383371D01*
X117309098Y-189223145D01*
X117230169Y-189075480D01*
X117123949Y-188946051D01*
X116994520Y-188839831D01*
X116846855Y-188760902D01*
X116686629Y-188712299D01*
X116520000Y-188695887D01*
X115832500Y-188700000D01*
X115620000Y-188912500D01*
X115520000Y-188912500D01*
X115307500Y-188700000D01*
X114620000Y-188695887D01*
X114453371Y-188712299D01*
X114380000Y-188734555D01*
X114380000Y-184470000D01*
X116305888Y-184470000D01*
X116305888Y-186370000D01*
X116322300Y-186536629D01*
X116370903Y-186696855D01*
X116449832Y-186844519D01*
X116556052Y-186973948D01*
X116685481Y-187080168D01*
X116833145Y-187159097D01*
X116993371Y-187207700D01*
X117160000Y-187224112D01*
X119060000Y-187224112D01*
X119226629Y-187207700D01*
X119386855Y-187159097D01*
X119534519Y-187080168D01*
X119663948Y-186973948D01*
X119770168Y-186844519D01*
X119849097Y-186696855D01*
X119897700Y-186536629D01*
X119914112Y-186370000D01*
X119914112Y-184470000D01*
X121385888Y-184470000D01*
X121385888Y-186370000D01*
X121402300Y-186536629D01*
X121450903Y-186696855D01*
X121529832Y-186844519D01*
X121636052Y-186973948D01*
X121765481Y-187080168D01*
X121913145Y-187159097D01*
X122073371Y-187207700D01*
X122240000Y-187224112D01*
X124140000Y-187224112D01*
X124306629Y-187207700D01*
X124466855Y-187159097D01*
X124614519Y-187080168D01*
X124743948Y-186973948D01*
X124850168Y-186844519D01*
X124929097Y-186696855D01*
X124977700Y-186536629D01*
X124994112Y-186370000D01*
X124994112Y-184470000D01*
X124977700Y-184303371D01*
X124929097Y-184143145D01*
X124850168Y-183995481D01*
X124743948Y-183866052D01*
X124614519Y-183759832D01*
X124466855Y-183680903D01*
X124306629Y-183632300D01*
X124140000Y-183615888D01*
X122240000Y-183615888D01*
X122073371Y-183632300D01*
X121913145Y-183680903D01*
X121765481Y-183759832D01*
X121636052Y-183866052D01*
X121529832Y-183995481D01*
X121450903Y-184143145D01*
X121402300Y-184303371D01*
X121385888Y-184470000D01*
X119914112Y-184470000D01*
X119897700Y-184303371D01*
X119849097Y-184143145D01*
X119770168Y-183995481D01*
X119663948Y-183866052D01*
X119534519Y-183759832D01*
X119386855Y-183680903D01*
X119226629Y-183632300D01*
X119060000Y-183615888D01*
X117160000Y-183615888D01*
X116993371Y-183632300D01*
X116833145Y-183680903D01*
X116685481Y-183759832D01*
X116556052Y-183866052D01*
X116449832Y-183995481D01*
X116370903Y-184143145D01*
X116322300Y-184303371D01*
X116305888Y-184470000D01*
X114380000Y-184470000D01*
X114380000Y-181041310D01*
X114386531Y-180974999D01*
X114380000Y-180908688D01*
X114380000Y-180908679D01*
X114360467Y-180710354D01*
X114283272Y-180455878D01*
X114157916Y-180221352D01*
X114157915Y-180221350D01*
X114031490Y-180067302D01*
X114031487Y-180067299D01*
X113989212Y-180015787D01*
X113937701Y-179973513D01*
X113206491Y-179242303D01*
X113164213Y-179190787D01*
X112958649Y-179022085D01*
X112724122Y-178896728D01*
X112710897Y-178892716D01*
X123930000Y-178892716D01*
X123930000Y-179247284D01*
X123999173Y-179595041D01*
X124134861Y-179922620D01*
X124331849Y-180217433D01*
X124582567Y-180468151D01*
X124877380Y-180665139D01*
X125204959Y-180800827D01*
X125552716Y-180870000D01*
X125907284Y-180870000D01*
X126255041Y-180800827D01*
X126582620Y-180665139D01*
X126690628Y-180592971D01*
X126716051Y-180623949D01*
X126845480Y-180730169D01*
X126993145Y-180809098D01*
X127153371Y-180857701D01*
X127320000Y-180874113D01*
X128007500Y-180870000D01*
X128220000Y-180657500D01*
X128220000Y-179120000D01*
X128320000Y-179120000D01*
X128320000Y-180657500D01*
X128532500Y-180870000D01*
X129220000Y-180874113D01*
X129386629Y-180857701D01*
X129546855Y-180809098D01*
X129694520Y-180730169D01*
X129823949Y-180623949D01*
X129930169Y-180494520D01*
X130009098Y-180346855D01*
X130057701Y-180186629D01*
X130074113Y-180020000D01*
X130070000Y-179332500D01*
X129857500Y-179120000D01*
X128320000Y-179120000D01*
X128220000Y-179120000D01*
X128200000Y-179120000D01*
X128200000Y-179020000D01*
X128220000Y-179020000D01*
X128220000Y-177482500D01*
X128320000Y-177482500D01*
X128320000Y-179020000D01*
X129857500Y-179020000D01*
X130070000Y-178807500D01*
X130074113Y-178120000D01*
X130057701Y-177953371D01*
X130009098Y-177793145D01*
X129930169Y-177645480D01*
X129823949Y-177516051D01*
X129694520Y-177409831D01*
X129546855Y-177330902D01*
X129386629Y-177282299D01*
X129220000Y-177265887D01*
X128532500Y-177270000D01*
X128320000Y-177482500D01*
X128220000Y-177482500D01*
X128007500Y-177270000D01*
X127320000Y-177265887D01*
X127153371Y-177282299D01*
X126993145Y-177330902D01*
X126845480Y-177409831D01*
X126716051Y-177516051D01*
X126690628Y-177547029D01*
X126582620Y-177474861D01*
X126255041Y-177339173D01*
X125907284Y-177270000D01*
X125552716Y-177270000D01*
X125204959Y-177339173D01*
X124877380Y-177474861D01*
X124582567Y-177671849D01*
X124331849Y-177922567D01*
X124134861Y-178217380D01*
X123999173Y-178544959D01*
X123930000Y-178892716D01*
X112710897Y-178892716D01*
X112507312Y-178830959D01*
X112497700Y-178733371D01*
X112449097Y-178573145D01*
X112370168Y-178425481D01*
X112263948Y-178296052D01*
X112134519Y-178189832D01*
X111986855Y-178110903D01*
X111826629Y-178062300D01*
X111660000Y-178045888D01*
X109242710Y-178045888D01*
X109203272Y-177915878D01*
X109077915Y-177681351D01*
X108909213Y-177475787D01*
X108857697Y-177433509D01*
X108486646Y-177062458D01*
X108897500Y-177060000D01*
X109110000Y-176847500D01*
X109110000Y-175310000D01*
X109210000Y-175310000D01*
X109210000Y-176847500D01*
X109422500Y-177060000D01*
X110110000Y-177064113D01*
X110276629Y-177047701D01*
X110436855Y-176999098D01*
X110584520Y-176920169D01*
X110713949Y-176813949D01*
X110820169Y-176684520D01*
X110899098Y-176536855D01*
X110947701Y-176376629D01*
X110964113Y-176210000D01*
X110960000Y-175522500D01*
X110747500Y-175310000D01*
X109210000Y-175310000D01*
X109110000Y-175310000D01*
X109090000Y-175310000D01*
X109090000Y-175210000D01*
X109110000Y-175210000D01*
X109110000Y-173672500D01*
X109210000Y-173672500D01*
X109210000Y-175210000D01*
X110747500Y-175210000D01*
X110960000Y-174997500D01*
X110964113Y-174310000D01*
X110947701Y-174143371D01*
X110899098Y-173983145D01*
X110820169Y-173835480D01*
X110713949Y-173706051D01*
X110584520Y-173599831D01*
X110436855Y-173520902D01*
X110276629Y-173472299D01*
X110110000Y-173455887D01*
X109422500Y-173460000D01*
X109210000Y-173672500D01*
X109110000Y-173672500D01*
X108897500Y-173460000D01*
X108210000Y-173455887D01*
X108043371Y-173472299D01*
X107909998Y-173512756D01*
X107776629Y-173472300D01*
X107610000Y-173455888D01*
X105710000Y-173455888D01*
X105543371Y-173472300D01*
X105410000Y-173512757D01*
X105276629Y-173472300D01*
X105110000Y-173455888D01*
X103210000Y-173455888D01*
X103043371Y-173472300D01*
X102883145Y-173520903D01*
X102735481Y-173599832D01*
X102606052Y-173706052D01*
X102594795Y-173719769D01*
X102512620Y-173664861D01*
X102185041Y-173529173D01*
X101837284Y-173460000D01*
X101482716Y-173460000D01*
X101134959Y-173529173D01*
X100807380Y-173664861D01*
X100512567Y-173861849D01*
X100464416Y-173910000D01*
X100254188Y-173910000D01*
X98156489Y-171812301D01*
X98114213Y-171760787D01*
X98076991Y-171730240D01*
X98180168Y-171604519D01*
X98259097Y-171456855D01*
X98307700Y-171296629D01*
X98324112Y-171130000D01*
X103605887Y-171130000D01*
X103622299Y-171296629D01*
X103670902Y-171456855D01*
X103749831Y-171604520D01*
X103856051Y-171733949D01*
X103985480Y-171840169D01*
X104133145Y-171919098D01*
X104293371Y-171967701D01*
X104460000Y-171984113D01*
X105147500Y-171980000D01*
X105360000Y-171767500D01*
X105360000Y-170230000D01*
X105460000Y-170230000D01*
X105460000Y-171767500D01*
X105672500Y-171980000D01*
X106360000Y-171984113D01*
X106526629Y-171967701D01*
X106686855Y-171919098D01*
X106834520Y-171840169D01*
X106963949Y-171733949D01*
X107070169Y-171604520D01*
X107149098Y-171456855D01*
X107197701Y-171296629D01*
X107214113Y-171130000D01*
X107210000Y-170442500D01*
X106997500Y-170230000D01*
X105460000Y-170230000D01*
X105360000Y-170230000D01*
X103822500Y-170230000D01*
X103610000Y-170442500D01*
X103605887Y-171130000D01*
X98324112Y-171130000D01*
X98324112Y-169230000D01*
X103605887Y-169230000D01*
X103610000Y-169917500D01*
X103822500Y-170130000D01*
X105360000Y-170130000D01*
X105360000Y-168592500D01*
X105460000Y-168592500D01*
X105460000Y-170130000D01*
X106997500Y-170130000D01*
X107210000Y-169917500D01*
X107214113Y-169230000D01*
X112495888Y-169230000D01*
X112495888Y-171130000D01*
X112512300Y-171296629D01*
X112560903Y-171456855D01*
X112639832Y-171604519D01*
X112746052Y-171733948D01*
X112875481Y-171840168D01*
X113023145Y-171919097D01*
X113183371Y-171967700D01*
X113350000Y-171984112D01*
X115250000Y-171984112D01*
X115416629Y-171967700D01*
X115576855Y-171919097D01*
X115724519Y-171840168D01*
X115853948Y-171733948D01*
X115960168Y-171604519D01*
X116000000Y-171530000D01*
X117680000Y-171530000D01*
X117719832Y-171604519D01*
X117826052Y-171733948D01*
X117955481Y-171840168D01*
X118103145Y-171919097D01*
X118263371Y-171967700D01*
X118430000Y-171984112D01*
X120330000Y-171984112D01*
X120496629Y-171967700D01*
X120650000Y-171921176D01*
X120803371Y-171967700D01*
X120970000Y-171984112D01*
X122870000Y-171984112D01*
X123036629Y-171967700D01*
X123190000Y-171921176D01*
X123343371Y-171967700D01*
X123510000Y-171984112D01*
X125410000Y-171984112D01*
X125576629Y-171967700D01*
X125736855Y-171919097D01*
X125884519Y-171840168D01*
X126013948Y-171733948D01*
X126120168Y-171604519D01*
X126199097Y-171456855D01*
X126247700Y-171296629D01*
X126264112Y-171130000D01*
X126264112Y-169230000D01*
X126247700Y-169063371D01*
X126199097Y-168903145D01*
X126120168Y-168755481D01*
X126013948Y-168626052D01*
X125884519Y-168519832D01*
X125736855Y-168440903D01*
X125576629Y-168392300D01*
X125410000Y-168375888D01*
X123510000Y-168375888D01*
X123343371Y-168392300D01*
X123190000Y-168438824D01*
X123036629Y-168392300D01*
X122870000Y-168375888D01*
X120970000Y-168375888D01*
X120803371Y-168392300D01*
X120650000Y-168438824D01*
X120496629Y-168392300D01*
X120330000Y-168375888D01*
X118430000Y-168375888D01*
X118263371Y-168392300D01*
X118103145Y-168440903D01*
X117955481Y-168519832D01*
X117826052Y-168626052D01*
X117719832Y-168755481D01*
X117680000Y-168830000D01*
X116000000Y-168830000D01*
X115960168Y-168755481D01*
X115853948Y-168626052D01*
X115724519Y-168519832D01*
X115576855Y-168440903D01*
X115416629Y-168392300D01*
X115250000Y-168375888D01*
X113350000Y-168375888D01*
X113183371Y-168392300D01*
X113023145Y-168440903D01*
X112875481Y-168519832D01*
X112746052Y-168626052D01*
X112639832Y-168755481D01*
X112560903Y-168903145D01*
X112512300Y-169063371D01*
X112495888Y-169230000D01*
X107214113Y-169230000D01*
X107197701Y-169063371D01*
X107149098Y-168903145D01*
X107070169Y-168755480D01*
X106963949Y-168626051D01*
X106834520Y-168519831D01*
X106686855Y-168440902D01*
X106526629Y-168392299D01*
X106360000Y-168375887D01*
X105672500Y-168380000D01*
X105460000Y-168592500D01*
X105360000Y-168592500D01*
X105147500Y-168380000D01*
X104460000Y-168375887D01*
X104293371Y-168392299D01*
X104133145Y-168440902D01*
X103985480Y-168519831D01*
X103856051Y-168626051D01*
X103749831Y-168755480D01*
X103670902Y-168903145D01*
X103622299Y-169063371D01*
X103605887Y-169230000D01*
X98324112Y-169230000D01*
X98307700Y-169063371D01*
X98259097Y-168903145D01*
X98180168Y-168755481D01*
X98073948Y-168626052D01*
X97944519Y-168519832D01*
X97796855Y-168440903D01*
X97636629Y-168392300D01*
X97470000Y-168375888D01*
X95570000Y-168375888D01*
X95403371Y-168392300D01*
X95250000Y-168438824D01*
X95096629Y-168392300D01*
X94930000Y-168375888D01*
X93030000Y-168375888D01*
X92863371Y-168392300D01*
X92710000Y-168438824D01*
X92556629Y-168392300D01*
X92390000Y-168375888D01*
X90490000Y-168375888D01*
X90323371Y-168392300D01*
X90170000Y-168438824D01*
X90016629Y-168392300D01*
X89850000Y-168375888D01*
X87950000Y-168375888D01*
X87783371Y-168392300D01*
X87623145Y-168440903D01*
X87475481Y-168519832D01*
X87346052Y-168626052D01*
X87239832Y-168755481D01*
X87160903Y-168903145D01*
X87112300Y-169063371D01*
X87095888Y-169230000D01*
X85624112Y-169230000D01*
X85607700Y-169063371D01*
X85559097Y-168903145D01*
X85480168Y-168755481D01*
X85373948Y-168626052D01*
X85244519Y-168519832D01*
X85096855Y-168440903D01*
X84936629Y-168392300D01*
X84770000Y-168375888D01*
X82870000Y-168375888D01*
X82703371Y-168392300D01*
X82630000Y-168414556D01*
X82630000Y-166865444D01*
X82703371Y-166887700D01*
X82870000Y-166904112D01*
X84770000Y-166904112D01*
X84936629Y-166887700D01*
X85096855Y-166839097D01*
X85244519Y-166760168D01*
X85373948Y-166653948D01*
X85480168Y-166524519D01*
X85559097Y-166376855D01*
X85607700Y-166216629D01*
X85624112Y-166050000D01*
X85624112Y-164150000D01*
X85607700Y-163983371D01*
X85559097Y-163823145D01*
X85480168Y-163675481D01*
X85373948Y-163546052D01*
X85244519Y-163439832D01*
X85096855Y-163360903D01*
X84936629Y-163312300D01*
X84770000Y-163295888D01*
X82870000Y-163295888D01*
X82703371Y-163312300D01*
X82630000Y-163334556D01*
X82630000Y-159070000D01*
X87095888Y-159070000D01*
X87095888Y-160970000D01*
X87112300Y-161136629D01*
X87160903Y-161296855D01*
X87239832Y-161444519D01*
X87346052Y-161573948D01*
X87475481Y-161680168D01*
X87623145Y-161759097D01*
X87783371Y-161807700D01*
X87950000Y-161824112D01*
X89850000Y-161824112D01*
X90016629Y-161807700D01*
X90170000Y-161761176D01*
X90323371Y-161807700D01*
X90490000Y-161824112D01*
X92390000Y-161824112D01*
X92556629Y-161807700D01*
X92710000Y-161761176D01*
X92863371Y-161807700D01*
X93030000Y-161824112D01*
X94930000Y-161824112D01*
X95096629Y-161807700D01*
X95250000Y-161761176D01*
X95403371Y-161807700D01*
X95570000Y-161824112D01*
X97470000Y-161824112D01*
X97636629Y-161807700D01*
X97796855Y-161759097D01*
X97944519Y-161680168D01*
X98073948Y-161573948D01*
X98180168Y-161444519D01*
X98259097Y-161296855D01*
X98307700Y-161136629D01*
X98324112Y-160970000D01*
X98324112Y-160558300D01*
X98693505Y-160927692D01*
X98735787Y-160979213D01*
X98941351Y-161147915D01*
X99058614Y-161210593D01*
X99175877Y-161273272D01*
X99235105Y-161291239D01*
X99430354Y-161350467D01*
X99628679Y-161370000D01*
X99628681Y-161370000D01*
X99695000Y-161376532D01*
X99761319Y-161370000D01*
X99834556Y-161370000D01*
X99812300Y-161443371D01*
X99795888Y-161610000D01*
X99795888Y-163510000D01*
X99812300Y-163676629D01*
X99858824Y-163830000D01*
X99812300Y-163983371D01*
X99795888Y-164150000D01*
X99795888Y-166050000D01*
X99812300Y-166216629D01*
X99860903Y-166376855D01*
X99939832Y-166524519D01*
X100046052Y-166653948D01*
X100175481Y-166760168D01*
X100323145Y-166839097D01*
X100483371Y-166887700D01*
X100650000Y-166904112D01*
X102550000Y-166904112D01*
X102716629Y-166887700D01*
X102876855Y-166839097D01*
X103024519Y-166760168D01*
X103153948Y-166653948D01*
X103260168Y-166524519D01*
X103339097Y-166376855D01*
X103387700Y-166216629D01*
X103404112Y-166050000D01*
X103404112Y-164150000D01*
X103387700Y-163983371D01*
X103341176Y-163830000D01*
X103387700Y-163676629D01*
X103404112Y-163510000D01*
X103404112Y-161610000D01*
X103387700Y-161443371D01*
X103341176Y-161290000D01*
X103387700Y-161136629D01*
X103404112Y-160970000D01*
X103404112Y-159288300D01*
X105330000Y-161214189D01*
X105330001Y-166303671D01*
X105323468Y-166370000D01*
X105349534Y-166634646D01*
X105426729Y-166889122D01*
X105552085Y-167123649D01*
X105678510Y-167277698D01*
X105678514Y-167277702D01*
X105720788Y-167329213D01*
X105772299Y-167371487D01*
X106948513Y-168547702D01*
X106990787Y-168599213D01*
X107042298Y-168641487D01*
X107042301Y-168641490D01*
X107196350Y-168767915D01*
X107312504Y-168830000D01*
X107430878Y-168893272D01*
X107685354Y-168970467D01*
X107883679Y-168990000D01*
X107883688Y-168990000D01*
X107949999Y-168996531D01*
X108016310Y-168990000D01*
X110423681Y-168990000D01*
X110490000Y-168996532D01*
X110556319Y-168990000D01*
X110556321Y-168990000D01*
X110754646Y-168970467D01*
X111009122Y-168893272D01*
X111243649Y-168767915D01*
X111449213Y-168599213D01*
X111491491Y-168547697D01*
X112667706Y-167371483D01*
X112719212Y-167329213D01*
X112761483Y-167277706D01*
X112761490Y-167277699D01*
X112887915Y-167123650D01*
X112954919Y-166998293D01*
X113013272Y-166889122D01*
X113028000Y-166840570D01*
X113183371Y-166887700D01*
X113350000Y-166904112D01*
X115250000Y-166904112D01*
X115416629Y-166887700D01*
X115576855Y-166839097D01*
X115724519Y-166760168D01*
X115853948Y-166653948D01*
X115960168Y-166524519D01*
X116039097Y-166376855D01*
X116087700Y-166216629D01*
X116104112Y-166050000D01*
X116104112Y-164150000D01*
X116087700Y-163983371D01*
X116039097Y-163823145D01*
X115960168Y-163675481D01*
X115853948Y-163546052D01*
X115724519Y-163439832D01*
X115576855Y-163360903D01*
X115416629Y-163312300D01*
X115250000Y-163295888D01*
X114203300Y-163295888D01*
X116129188Y-161370000D01*
X117680000Y-161370000D01*
X117719832Y-161444519D01*
X117826052Y-161573948D01*
X117955481Y-161680168D01*
X118103145Y-161759097D01*
X118263371Y-161807700D01*
X118430000Y-161824112D01*
X120330000Y-161824112D01*
X120496629Y-161807700D01*
X120650000Y-161761176D01*
X120803371Y-161807700D01*
X120970000Y-161824112D01*
X122870000Y-161824112D01*
X123036629Y-161807700D01*
X123190000Y-161761176D01*
X123343371Y-161807700D01*
X123510000Y-161824112D01*
X125410000Y-161824112D01*
X125576629Y-161807700D01*
X125736855Y-161759097D01*
X125884519Y-161680168D01*
X126013948Y-161573948D01*
X126120168Y-161444519D01*
X126199097Y-161296855D01*
X126247700Y-161136629D01*
X126264112Y-160970000D01*
X126264112Y-159070000D01*
X126247700Y-158903371D01*
X126199097Y-158743145D01*
X126120168Y-158595481D01*
X126013948Y-158466052D01*
X125884519Y-158359832D01*
X125736855Y-158280903D01*
X125576629Y-158232300D01*
X125410000Y-158215888D01*
X123510000Y-158215888D01*
X123343371Y-158232300D01*
X123270000Y-158254556D01*
X123270000Y-156640000D01*
X123344519Y-156600168D01*
X123473948Y-156493948D01*
X123499371Y-156462970D01*
X123607380Y-156535139D01*
X123934959Y-156670827D01*
X124282716Y-156740000D01*
X124637284Y-156740000D01*
X124985041Y-156670827D01*
X125312620Y-156535139D01*
X125420629Y-156462970D01*
X125446052Y-156493948D01*
X125575481Y-156600168D01*
X125723145Y-156679097D01*
X125883371Y-156727700D01*
X126050000Y-156744112D01*
X127950000Y-156744112D01*
X128116629Y-156727700D01*
X128276855Y-156679097D01*
X128424519Y-156600168D01*
X128553948Y-156493948D01*
X128660168Y-156364519D01*
X128739097Y-156216855D01*
X128787700Y-156056629D01*
X128804112Y-155890000D01*
X128804112Y-153990000D01*
X128787700Y-153823371D01*
X128739097Y-153663145D01*
X128660168Y-153515481D01*
X128553948Y-153386052D01*
X128424519Y-153279832D01*
X128276855Y-153200903D01*
X128116629Y-153152300D01*
X127950000Y-153135888D01*
X126050000Y-153135888D01*
X125883371Y-153152300D01*
X125723145Y-153200903D01*
X125575481Y-153279832D01*
X125446052Y-153386052D01*
X125420629Y-153417030D01*
X125312620Y-153344861D01*
X124985041Y-153209173D01*
X124637284Y-153140000D01*
X124282716Y-153140000D01*
X123934959Y-153209173D01*
X123607380Y-153344861D01*
X123499371Y-153417030D01*
X123473948Y-153386052D01*
X123344519Y-153279832D01*
X123196855Y-153200903D01*
X123036629Y-153152300D01*
X122870000Y-153135888D01*
X120970000Y-153135888D01*
X120803371Y-153152300D01*
X120643145Y-153200903D01*
X120495481Y-153279832D01*
X120366052Y-153386052D01*
X120259832Y-153515481D01*
X120220000Y-153590000D01*
X107757217Y-153590000D01*
X107764112Y-153520000D01*
X107764112Y-150520000D01*
X107747700Y-150353371D01*
X107699097Y-150193145D01*
X107620168Y-150045481D01*
X107533920Y-149940387D01*
X110480324Y-149940387D01*
X110796718Y-150478915D01*
X111455903Y-150853908D01*
X112175580Y-151093096D01*
X112928092Y-151187286D01*
X113684521Y-151132858D01*
X114415796Y-150931905D01*
X115093816Y-150592148D01*
X115263282Y-150478915D01*
X115579676Y-149940387D01*
X113030000Y-147390711D01*
X110480324Y-149940387D01*
X107533920Y-149940387D01*
X107513948Y-149916052D01*
X107384519Y-149809832D01*
X107236855Y-149730903D01*
X107076629Y-149682300D01*
X106951749Y-149670000D01*
X107076629Y-149657700D01*
X107236855Y-149609097D01*
X107384519Y-149530168D01*
X107513948Y-149423948D01*
X107620168Y-149294519D01*
X107699097Y-149146855D01*
X107747700Y-148986629D01*
X107764112Y-148820000D01*
X107764112Y-148670000D01*
X107883681Y-148670000D01*
X107950000Y-148676532D01*
X108016319Y-148670000D01*
X108016321Y-148670000D01*
X108214646Y-148650467D01*
X108469122Y-148573272D01*
X108703649Y-148447915D01*
X108909213Y-148279213D01*
X108951492Y-148227696D01*
X109216305Y-147962883D01*
X109217142Y-147974521D01*
X109418095Y-148705796D01*
X109757852Y-149383816D01*
X109871085Y-149553282D01*
X110409613Y-149869676D01*
X112959289Y-147320000D01*
X113100711Y-147320000D01*
X115650387Y-149869676D01*
X116188915Y-149553282D01*
X116563908Y-148894097D01*
X116803096Y-148174420D01*
X116897286Y-147421908D01*
X116842858Y-146665479D01*
X116641905Y-145934204D01*
X116302148Y-145256184D01*
X116188915Y-145086718D01*
X115650387Y-144770324D01*
X113100711Y-147320000D01*
X112959289Y-147320000D01*
X110409613Y-144770324D01*
X109935000Y-145049167D01*
X109935000Y-144699613D01*
X110480324Y-144699613D01*
X113030000Y-147249289D01*
X115579676Y-144699613D01*
X115263282Y-144161085D01*
X114604097Y-143786092D01*
X113884420Y-143546904D01*
X113131908Y-143452714D01*
X112375479Y-143507142D01*
X111644204Y-143708095D01*
X110966184Y-144047852D01*
X110796718Y-144161085D01*
X110480324Y-144699613D01*
X109935000Y-144699613D01*
X109935000Y-140894188D01*
X109955888Y-140873300D01*
X109955888Y-141920000D01*
X109972300Y-142086629D01*
X110020903Y-142246855D01*
X110099832Y-142394519D01*
X110206052Y-142523948D01*
X110335481Y-142630168D01*
X110483145Y-142709097D01*
X110643371Y-142757700D01*
X110810000Y-142774112D01*
X112710000Y-142774112D01*
X112876629Y-142757700D01*
X113036855Y-142709097D01*
X113184519Y-142630168D01*
X113313948Y-142523948D01*
X113420168Y-142394519D01*
X113499097Y-142246855D01*
X113547700Y-142086629D01*
X113564112Y-141920000D01*
X115035887Y-141920000D01*
X115052299Y-142086629D01*
X115100902Y-142246855D01*
X115179831Y-142394520D01*
X115286051Y-142523949D01*
X115415480Y-142630169D01*
X115563145Y-142709098D01*
X115723371Y-142757701D01*
X115890000Y-142774113D01*
X116577500Y-142770000D01*
X116790000Y-142557500D01*
X116790000Y-141020000D01*
X116890000Y-141020000D01*
X116890000Y-142557500D01*
X117102500Y-142770000D01*
X117790000Y-142774113D01*
X117956629Y-142757701D01*
X118116855Y-142709098D01*
X118264520Y-142630169D01*
X118393949Y-142523949D01*
X118500169Y-142394520D01*
X118579098Y-142246855D01*
X118627701Y-142086629D01*
X118644113Y-141920000D01*
X118640000Y-141232500D01*
X118427500Y-141020000D01*
X116890000Y-141020000D01*
X116790000Y-141020000D01*
X115252500Y-141020000D01*
X115040000Y-141232500D01*
X115035887Y-141920000D01*
X113564112Y-141920000D01*
X113564112Y-140020000D01*
X115035887Y-140020000D01*
X115040000Y-140707500D01*
X115252500Y-140920000D01*
X116790000Y-140920000D01*
X116790000Y-139382500D01*
X116890000Y-139382500D01*
X116890000Y-140920000D01*
X118427500Y-140920000D01*
X118640000Y-140707500D01*
X118644113Y-140020000D01*
X120115888Y-140020000D01*
X120115888Y-141920000D01*
X120132300Y-142086629D01*
X120180903Y-142246855D01*
X120259832Y-142394519D01*
X120366052Y-142523948D01*
X120495481Y-142630168D01*
X120643145Y-142709097D01*
X120803371Y-142757700D01*
X120970000Y-142774112D01*
X122870000Y-142774112D01*
X123036629Y-142757700D01*
X123190000Y-142711176D01*
X123343371Y-142757700D01*
X123510000Y-142774112D01*
X125410000Y-142774112D01*
X125576629Y-142757700D01*
X125736855Y-142709097D01*
X125884519Y-142630168D01*
X126013948Y-142523948D01*
X126037666Y-142495048D01*
X126288463Y-142632873D01*
X126626545Y-142739735D01*
X126978979Y-142778587D01*
X127332221Y-142747936D01*
X127672695Y-142648961D01*
X127987318Y-142485463D01*
X128022276Y-142462107D01*
X128092781Y-142133492D01*
X127000000Y-141040711D01*
X126985858Y-141054853D01*
X126915147Y-140984142D01*
X126929289Y-140970000D01*
X127070711Y-140970000D01*
X128163492Y-142062781D01*
X128492107Y-141992276D01*
X128662873Y-141681537D01*
X128769735Y-141343455D01*
X128808587Y-140991021D01*
X128777936Y-140637779D01*
X128678961Y-140297305D01*
X128515463Y-139982682D01*
X128492107Y-139947724D01*
X128163492Y-139877219D01*
X127070711Y-140970000D01*
X126929289Y-140970000D01*
X126915147Y-140955858D01*
X126985858Y-140885147D01*
X127000000Y-140899289D01*
X128092781Y-139806508D01*
X128022276Y-139477893D01*
X127711537Y-139307127D01*
X127373455Y-139200265D01*
X127021021Y-139161413D01*
X126667779Y-139192064D01*
X126327305Y-139291039D01*
X126035711Y-139442570D01*
X126013948Y-139416052D01*
X125884519Y-139309832D01*
X125736855Y-139230903D01*
X125576629Y-139182300D01*
X125410000Y-139165888D01*
X123510000Y-139165888D01*
X123343371Y-139182300D01*
X123190000Y-139228824D01*
X123036629Y-139182300D01*
X122870000Y-139165888D01*
X120970000Y-139165888D01*
X120803371Y-139182300D01*
X120643145Y-139230903D01*
X120495481Y-139309832D01*
X120366052Y-139416052D01*
X120259832Y-139545481D01*
X120180903Y-139693145D01*
X120132300Y-139853371D01*
X120115888Y-140020000D01*
X118644113Y-140020000D01*
X118627701Y-139853371D01*
X118579098Y-139693145D01*
X118500169Y-139545480D01*
X118393949Y-139416051D01*
X118264520Y-139309831D01*
X118116855Y-139230902D01*
X117956629Y-139182299D01*
X117790000Y-139165887D01*
X117102500Y-139170000D01*
X116890000Y-139382500D01*
X116790000Y-139382500D01*
X116577500Y-139170000D01*
X115890000Y-139165887D01*
X115723371Y-139182299D01*
X115563145Y-139230902D01*
X115415480Y-139309831D01*
X115286051Y-139416051D01*
X115179831Y-139545480D01*
X115100902Y-139693145D01*
X115052299Y-139853371D01*
X115035887Y-140020000D01*
X113564112Y-140020000D01*
X113547700Y-139853371D01*
X113499097Y-139693145D01*
X113420168Y-139545481D01*
X113313948Y-139416052D01*
X113184519Y-139309832D01*
X113036855Y-139230903D01*
X112876629Y-139182300D01*
X112710000Y-139165888D01*
X111663300Y-139165888D01*
X113589188Y-137240000D01*
X115140000Y-137240000D01*
X115179832Y-137314519D01*
X115286052Y-137443948D01*
X115415481Y-137550168D01*
X115563145Y-137629097D01*
X115723371Y-137677700D01*
X115890000Y-137694112D01*
X117790000Y-137694112D01*
X117956629Y-137677700D01*
X118116855Y-137629097D01*
X118264519Y-137550168D01*
X118393948Y-137443948D01*
X118500168Y-137314519D01*
X118579097Y-137166855D01*
X118627700Y-137006629D01*
X118644112Y-136840000D01*
X118644112Y-134940000D01*
X118627700Y-134773371D01*
X118581176Y-134620000D01*
X118627700Y-134466629D01*
X118644112Y-134300000D01*
X118644112Y-132400000D01*
X125195888Y-132400000D01*
X125195888Y-134300000D01*
X125212300Y-134466629D01*
X125258824Y-134620000D01*
X125212300Y-134773371D01*
X125195888Y-134940000D01*
X125195888Y-136840000D01*
X125212300Y-137006629D01*
X125260903Y-137166855D01*
X125339832Y-137314519D01*
X125446052Y-137443948D01*
X125575481Y-137550168D01*
X125723145Y-137629097D01*
X125883371Y-137677700D01*
X126050000Y-137694112D01*
X127950000Y-137694112D01*
X128116629Y-137677700D01*
X128276855Y-137629097D01*
X128424519Y-137550168D01*
X128553948Y-137443948D01*
X128660168Y-137314519D01*
X128739097Y-137166855D01*
X128787700Y-137006629D01*
X128804112Y-136840000D01*
X128804112Y-134940000D01*
X128787700Y-134773371D01*
X128741176Y-134620000D01*
X128787700Y-134466629D01*
X128804112Y-134300000D01*
X128804112Y-132400000D01*
X128787700Y-132233371D01*
X128739097Y-132073145D01*
X128660168Y-131925481D01*
X128553948Y-131796052D01*
X128424519Y-131689832D01*
X128276855Y-131610903D01*
X128116629Y-131562300D01*
X127950000Y-131545888D01*
X126050000Y-131545888D01*
X125883371Y-131562300D01*
X125723145Y-131610903D01*
X125575481Y-131689832D01*
X125446052Y-131796052D01*
X125339832Y-131925481D01*
X125260903Y-132073145D01*
X125212300Y-132233371D01*
X125195888Y-132400000D01*
X118644112Y-132400000D01*
X118627700Y-132233371D01*
X118579097Y-132073145D01*
X118500168Y-131925481D01*
X118393948Y-131796052D01*
X118264519Y-131689832D01*
X118116855Y-131610903D01*
X117956629Y-131562300D01*
X117790000Y-131545888D01*
X115890000Y-131545888D01*
X115723371Y-131562300D01*
X115563145Y-131610903D01*
X115415481Y-131689832D01*
X115286052Y-131796052D01*
X115179832Y-131925481D01*
X115100903Y-132073145D01*
X115052300Y-132233371D01*
X115035888Y-132400000D01*
X115035888Y-134300000D01*
X115052300Y-134466629D01*
X115074556Y-134540000D01*
X113096310Y-134540000D01*
X113029999Y-134533469D01*
X112963688Y-134540000D01*
X112963679Y-134540000D01*
X112765354Y-134559533D01*
X112510878Y-134636728D01*
X112429048Y-134680467D01*
X112276350Y-134762085D01*
X112176343Y-134844159D01*
X112070787Y-134930787D01*
X112028509Y-134982303D01*
X107677299Y-139333513D01*
X107625788Y-139375787D01*
X107583514Y-139427298D01*
X107583510Y-139427302D01*
X107457085Y-139581351D01*
X107331729Y-139815878D01*
X107254534Y-140070354D01*
X107229103Y-140328552D01*
X107076629Y-140282300D01*
X106910000Y-140265888D01*
X103910000Y-140265888D01*
X103743371Y-140282300D01*
X103583145Y-140330903D01*
X103435481Y-140409832D01*
X103306052Y-140516052D01*
X103199832Y-140645481D01*
X103120903Y-140793145D01*
X103072300Y-140953371D01*
X103055888Y-141120000D01*
X103055888Y-144120000D01*
X103072300Y-144286629D01*
X103120903Y-144446855D01*
X103199832Y-144594519D01*
X103306052Y-144723948D01*
X103435481Y-144830168D01*
X103583145Y-144909097D01*
X103743371Y-144957700D01*
X103868251Y-144970000D01*
X103743371Y-144982300D01*
X103583145Y-145030903D01*
X103435481Y-145109832D01*
X103306052Y-145216052D01*
X103199832Y-145345481D01*
X103120903Y-145493145D01*
X103072300Y-145653371D01*
X103055888Y-145820000D01*
X103055888Y-148820000D01*
X103072300Y-148986629D01*
X103120903Y-149146855D01*
X103199832Y-149294519D01*
X103306052Y-149423948D01*
X103435481Y-149530168D01*
X103583145Y-149609097D01*
X103743371Y-149657700D01*
X103868251Y-149670000D01*
X103743371Y-149682300D01*
X103583145Y-149730903D01*
X103435481Y-149809832D01*
X103306052Y-149916052D01*
X103199832Y-150045481D01*
X103120903Y-150193145D01*
X103072300Y-150353371D01*
X103055888Y-150520000D01*
X103055888Y-153520000D01*
X103062783Y-153590000D01*
X100396310Y-153590000D01*
X100329999Y-153583469D01*
X100263688Y-153590000D01*
X100263679Y-153590000D01*
X100065354Y-153609533D01*
X99810878Y-153686728D01*
X99701707Y-153745081D01*
X99576350Y-153812085D01*
X99422301Y-153938510D01*
X99422298Y-153938513D01*
X99370787Y-153980787D01*
X99328513Y-154032298D01*
X98152299Y-155208513D01*
X98100788Y-155250787D01*
X98058514Y-155302298D01*
X98058510Y-155302302D01*
X97932085Y-155456351D01*
X97806729Y-155690878D01*
X97729534Y-155945354D01*
X97703468Y-156210000D01*
X97710001Y-156276329D01*
X97710000Y-158254556D01*
X97636629Y-158232300D01*
X97470000Y-158215888D01*
X95570000Y-158215888D01*
X95403371Y-158232300D01*
X95250000Y-158278824D01*
X95096629Y-158232300D01*
X94930000Y-158215888D01*
X93030000Y-158215888D01*
X92863371Y-158232300D01*
X92710000Y-158278824D01*
X92556629Y-158232300D01*
X92390000Y-158215888D01*
X90490000Y-158215888D01*
X90323371Y-158232300D01*
X90170000Y-158278824D01*
X90016629Y-158232300D01*
X89850000Y-158215888D01*
X87950000Y-158215888D01*
X87783371Y-158232300D01*
X87623145Y-158280903D01*
X87475481Y-158359832D01*
X87346052Y-158466052D01*
X87239832Y-158595481D01*
X87160903Y-158743145D01*
X87112300Y-158903371D01*
X87095888Y-159070000D01*
X82630000Y-159070000D01*
X82630000Y-154918979D01*
X84551413Y-154918979D01*
X84582064Y-155272221D01*
X84681039Y-155612695D01*
X84844537Y-155927318D01*
X84867893Y-155962276D01*
X85196508Y-156032781D01*
X86289289Y-154940000D01*
X85196508Y-153847219D01*
X84867893Y-153917724D01*
X84697127Y-154228463D01*
X84590265Y-154566545D01*
X84551413Y-154918979D01*
X82630000Y-154918979D01*
X82630000Y-153776508D01*
X85267219Y-153776508D01*
X86360000Y-154869289D01*
X86374142Y-154855147D01*
X86444853Y-154925858D01*
X86430711Y-154940000D01*
X86444853Y-154954142D01*
X86374142Y-155024853D01*
X86360000Y-155010711D01*
X85267219Y-156103492D01*
X85337724Y-156432107D01*
X85648463Y-156602873D01*
X85986545Y-156709735D01*
X86338979Y-156748587D01*
X86692221Y-156717936D01*
X87032695Y-156618961D01*
X87324289Y-156467430D01*
X87346052Y-156493948D01*
X87475481Y-156600168D01*
X87623145Y-156679097D01*
X87783371Y-156727700D01*
X87950000Y-156744112D01*
X89850000Y-156744112D01*
X90016629Y-156727700D01*
X90170000Y-156681176D01*
X90323371Y-156727700D01*
X90490000Y-156744112D01*
X92390000Y-156744112D01*
X92556629Y-156727700D01*
X92716855Y-156679097D01*
X92864519Y-156600168D01*
X92993948Y-156493948D01*
X93100168Y-156364519D01*
X93179097Y-156216855D01*
X93227700Y-156056629D01*
X93244112Y-155890000D01*
X93244112Y-153990000D01*
X93227700Y-153823371D01*
X93179097Y-153663145D01*
X93100168Y-153515481D01*
X92993948Y-153386052D01*
X92864519Y-153279832D01*
X92790000Y-153240000D01*
X92790000Y-149940387D01*
X95240324Y-149940387D01*
X95556718Y-150478915D01*
X96215903Y-150853908D01*
X96935580Y-151093096D01*
X97688092Y-151187286D01*
X98444521Y-151132858D01*
X99175796Y-150931905D01*
X99853816Y-150592148D01*
X100023282Y-150478915D01*
X100339676Y-149940387D01*
X97790000Y-147390711D01*
X95240324Y-149940387D01*
X92790000Y-149940387D01*
X92790000Y-147218092D01*
X93922714Y-147218092D01*
X93977142Y-147974521D01*
X94178095Y-148705796D01*
X94517852Y-149383816D01*
X94631085Y-149553282D01*
X95169613Y-149869676D01*
X97719289Y-147320000D01*
X97860711Y-147320000D01*
X100410387Y-149869676D01*
X100948915Y-149553282D01*
X101323908Y-148894097D01*
X101563096Y-148174420D01*
X101657286Y-147421908D01*
X101602858Y-146665479D01*
X101401905Y-145934204D01*
X101062148Y-145256184D01*
X100948915Y-145086718D01*
X100410387Y-144770324D01*
X97860711Y-147320000D01*
X97719289Y-147320000D01*
X95169613Y-144770324D01*
X94631085Y-145086718D01*
X94256092Y-145745903D01*
X94016904Y-146465580D01*
X93922714Y-147218092D01*
X92790000Y-147218092D01*
X92790000Y-144699613D01*
X95240324Y-144699613D01*
X97790000Y-147249289D01*
X100339676Y-144699613D01*
X100023282Y-144161085D01*
X99364097Y-143786092D01*
X98644420Y-143546904D01*
X97891908Y-143452714D01*
X97135479Y-143507142D01*
X96404204Y-143708095D01*
X95726184Y-144047852D01*
X95556718Y-144161085D01*
X95240324Y-144699613D01*
X92790000Y-144699613D01*
X92790000Y-142735445D01*
X92863371Y-142757701D01*
X93030000Y-142774113D01*
X93717500Y-142770000D01*
X93930000Y-142557500D01*
X93930000Y-141020000D01*
X94030000Y-141020000D01*
X94030000Y-142557500D01*
X94242500Y-142770000D01*
X94930000Y-142774113D01*
X95096629Y-142757701D01*
X95256855Y-142709098D01*
X95404520Y-142630169D01*
X95533949Y-142523949D01*
X95640169Y-142394520D01*
X95719098Y-142246855D01*
X95767701Y-142086629D01*
X95784113Y-141920000D01*
X95780000Y-141232500D01*
X95567500Y-141020000D01*
X94030000Y-141020000D01*
X93930000Y-141020000D01*
X93910000Y-141020000D01*
X93910000Y-140920000D01*
X93930000Y-140920000D01*
X93930000Y-139382500D01*
X94030000Y-139382500D01*
X94030000Y-140920000D01*
X95567500Y-140920000D01*
X95780000Y-140707500D01*
X95784113Y-140020000D01*
X97255888Y-140020000D01*
X97255888Y-141920000D01*
X97272300Y-142086629D01*
X97320903Y-142246855D01*
X97399832Y-142394519D01*
X97506052Y-142523948D01*
X97635481Y-142630168D01*
X97783145Y-142709097D01*
X97943371Y-142757700D01*
X98110000Y-142774112D01*
X100010000Y-142774112D01*
X100176629Y-142757700D01*
X100336855Y-142709097D01*
X100484519Y-142630168D01*
X100613948Y-142523948D01*
X100720168Y-142394519D01*
X100799097Y-142246855D01*
X100847700Y-142086629D01*
X100864112Y-141920000D01*
X100864112Y-140020000D01*
X100847700Y-139853371D01*
X100799097Y-139693145D01*
X100720168Y-139545481D01*
X100613948Y-139416052D01*
X100570019Y-139380000D01*
X103605887Y-139380000D01*
X103622299Y-139546629D01*
X103670902Y-139706855D01*
X103749831Y-139854520D01*
X103856051Y-139983949D01*
X103985480Y-140090169D01*
X104133145Y-140169098D01*
X104293371Y-140217701D01*
X104460000Y-140234113D01*
X105147500Y-140230000D01*
X105360000Y-140017500D01*
X105360000Y-138480000D01*
X105460000Y-138480000D01*
X105460000Y-140017500D01*
X105672500Y-140230000D01*
X106360000Y-140234113D01*
X106526629Y-140217701D01*
X106686855Y-140169098D01*
X106834520Y-140090169D01*
X106963949Y-139983949D01*
X107070169Y-139854520D01*
X107149098Y-139706855D01*
X107197701Y-139546629D01*
X107214113Y-139380000D01*
X107210000Y-138692500D01*
X106997500Y-138480000D01*
X105460000Y-138480000D01*
X105360000Y-138480000D01*
X103822500Y-138480000D01*
X103610000Y-138692500D01*
X103605887Y-139380000D01*
X100570019Y-139380000D01*
X100484519Y-139309832D01*
X100336855Y-139230903D01*
X100176629Y-139182300D01*
X100010000Y-139165888D01*
X98110000Y-139165888D01*
X97943371Y-139182300D01*
X97783145Y-139230903D01*
X97635481Y-139309832D01*
X97506052Y-139416052D01*
X97399832Y-139545481D01*
X97320903Y-139693145D01*
X97272300Y-139853371D01*
X97255888Y-140020000D01*
X95784113Y-140020000D01*
X95767701Y-139853371D01*
X95719098Y-139693145D01*
X95640169Y-139545480D01*
X95533949Y-139416051D01*
X95404520Y-139309831D01*
X95256855Y-139230902D01*
X95096629Y-139182299D01*
X94930000Y-139165887D01*
X94242500Y-139170000D01*
X94030000Y-139382500D01*
X93930000Y-139382500D01*
X93798344Y-139250844D01*
X94887697Y-138161491D01*
X94939213Y-138119213D01*
X95107915Y-137913649D01*
X95233272Y-137679122D01*
X95293675Y-137480000D01*
X103605887Y-137480000D01*
X103610000Y-138167500D01*
X103822500Y-138380000D01*
X105360000Y-138380000D01*
X105360000Y-136842500D01*
X105460000Y-136842500D01*
X105460000Y-138380000D01*
X106997500Y-138380000D01*
X107210000Y-138167500D01*
X107214113Y-137480000D01*
X107197701Y-137313371D01*
X107149098Y-137153145D01*
X107070169Y-137005480D01*
X106963949Y-136876051D01*
X106834520Y-136769831D01*
X106686855Y-136690902D01*
X106526629Y-136642299D01*
X106360000Y-136625887D01*
X105672500Y-136630000D01*
X105460000Y-136842500D01*
X105360000Y-136842500D01*
X105147500Y-136630000D01*
X104460000Y-136625887D01*
X104293371Y-136642299D01*
X104133145Y-136690902D01*
X103985480Y-136769831D01*
X103856051Y-136876051D01*
X103749831Y-137005480D01*
X103670902Y-137153145D01*
X103622299Y-137313371D01*
X103605887Y-137480000D01*
X95293675Y-137480000D01*
X95310467Y-137424646D01*
X95330000Y-137226321D01*
X95330000Y-137226312D01*
X95336531Y-137160001D01*
X95330000Y-137093690D01*
X95330000Y-135050000D01*
X95404519Y-135010168D01*
X95533948Y-134903948D01*
X95640168Y-134774519D01*
X95719097Y-134626855D01*
X95767700Y-134466629D01*
X95784112Y-134300000D01*
X95784112Y-132400000D01*
X95767700Y-132233371D01*
X95745444Y-132160000D01*
X102374556Y-132160000D01*
X102352300Y-132233371D01*
X102335888Y-132400000D01*
X102335888Y-134300000D01*
X102352300Y-134466629D01*
X102400903Y-134626855D01*
X102479832Y-134774519D01*
X102586052Y-134903948D01*
X102715481Y-135010168D01*
X102863145Y-135089097D01*
X103023371Y-135137700D01*
X103190000Y-135154112D01*
X105090000Y-135154112D01*
X105256629Y-135137700D01*
X105416855Y-135089097D01*
X105564519Y-135010168D01*
X105693948Y-134903948D01*
X105800168Y-134774519D01*
X105879097Y-134626855D01*
X105927700Y-134466629D01*
X105944112Y-134300000D01*
X105944112Y-132400000D01*
X105927700Y-132233371D01*
X105879097Y-132073145D01*
X105800168Y-131925481D01*
X105693948Y-131796052D01*
X105564519Y-131689832D01*
X105490000Y-131650000D01*
X105490000Y-130876321D01*
X105496532Y-130810000D01*
X105490000Y-130743679D01*
X105490000Y-130035444D01*
X105563371Y-130057700D01*
X105730000Y-130074112D01*
X107630000Y-130074112D01*
X107796629Y-130057700D01*
X107950000Y-130011176D01*
X108103371Y-130057700D01*
X108270000Y-130074112D01*
X110170000Y-130074112D01*
X110336629Y-130057700D01*
X110490000Y-130011176D01*
X110643371Y-130057700D01*
X110810000Y-130074112D01*
X112710000Y-130074112D01*
X112876629Y-130057700D01*
X113036855Y-130009097D01*
X113184519Y-129930168D01*
X113313948Y-129823948D01*
X113420168Y-129694519D01*
X113499097Y-129546855D01*
X113547700Y-129386629D01*
X113564112Y-129220000D01*
X113564112Y-127320000D01*
X115035888Y-127320000D01*
X115035888Y-129220000D01*
X115052300Y-129386629D01*
X115100903Y-129546855D01*
X115179832Y-129694519D01*
X115286052Y-129823948D01*
X115415481Y-129930168D01*
X115563145Y-130009097D01*
X115723371Y-130057700D01*
X115890000Y-130074112D01*
X117790000Y-130074112D01*
X117956629Y-130057700D01*
X118116855Y-130009097D01*
X118264519Y-129930168D01*
X118393948Y-129823948D01*
X118500168Y-129694519D01*
X118579097Y-129546855D01*
X118627700Y-129386629D01*
X118644112Y-129220000D01*
X125195887Y-129220000D01*
X125212299Y-129386629D01*
X125260902Y-129546855D01*
X125339831Y-129694520D01*
X125446051Y-129823949D01*
X125575480Y-129930169D01*
X125723145Y-130009098D01*
X125883371Y-130057701D01*
X126050000Y-130074113D01*
X126737500Y-130070000D01*
X126950000Y-129857500D01*
X126950000Y-128320000D01*
X127050000Y-128320000D01*
X127050000Y-129857500D01*
X127262500Y-130070000D01*
X127950000Y-130074113D01*
X128116629Y-130057701D01*
X128276855Y-130009098D01*
X128424520Y-129930169D01*
X128553949Y-129823949D01*
X128660169Y-129694520D01*
X128739098Y-129546855D01*
X128787701Y-129386629D01*
X128804113Y-129220000D01*
X128800000Y-128532500D01*
X128587500Y-128320000D01*
X127050000Y-128320000D01*
X126950000Y-128320000D01*
X125412500Y-128320000D01*
X125200000Y-128532500D01*
X125195887Y-129220000D01*
X118644112Y-129220000D01*
X118644112Y-127320000D01*
X125195887Y-127320000D01*
X125200000Y-128007500D01*
X125412500Y-128220000D01*
X126950000Y-128220000D01*
X126950000Y-126682500D01*
X127050000Y-126682500D01*
X127050000Y-128220000D01*
X128587500Y-128220000D01*
X128800000Y-128007500D01*
X128804113Y-127320000D01*
X128787701Y-127153371D01*
X128739098Y-126993145D01*
X128660169Y-126845480D01*
X128553949Y-126716051D01*
X128424520Y-126609831D01*
X128276855Y-126530902D01*
X128116629Y-126482299D01*
X127950000Y-126465887D01*
X127262500Y-126470000D01*
X127050000Y-126682500D01*
X126950000Y-126682500D01*
X126737500Y-126470000D01*
X126050000Y-126465887D01*
X125883371Y-126482299D01*
X125723145Y-126530902D01*
X125575480Y-126609831D01*
X125446051Y-126716051D01*
X125339831Y-126845480D01*
X125260902Y-126993145D01*
X125212299Y-127153371D01*
X125195887Y-127320000D01*
X118644112Y-127320000D01*
X118627700Y-127153371D01*
X118579097Y-126993145D01*
X118500168Y-126845481D01*
X118393948Y-126716052D01*
X118264519Y-126609832D01*
X118116855Y-126530903D01*
X117956629Y-126482300D01*
X117790000Y-126465888D01*
X115890000Y-126465888D01*
X115723371Y-126482300D01*
X115563145Y-126530903D01*
X115415481Y-126609832D01*
X115286052Y-126716052D01*
X115179832Y-126845481D01*
X115100903Y-126993145D01*
X115052300Y-127153371D01*
X115035888Y-127320000D01*
X113564112Y-127320000D01*
X113547700Y-127153371D01*
X113499097Y-126993145D01*
X113420168Y-126845481D01*
X113313948Y-126716052D01*
X113184519Y-126609832D01*
X113036855Y-126530903D01*
X112876629Y-126482300D01*
X112710000Y-126465888D01*
X110810000Y-126465888D01*
X110643371Y-126482300D01*
X110490000Y-126528824D01*
X110336629Y-126482300D01*
X110170000Y-126465888D01*
X108270000Y-126465888D01*
X108103371Y-126482300D01*
X107950000Y-126528824D01*
X107796629Y-126482300D01*
X107630000Y-126465888D01*
X105730000Y-126465888D01*
X105563371Y-126482300D01*
X105410000Y-126528824D01*
X105256629Y-126482300D01*
X105090000Y-126465888D01*
X103190000Y-126465888D01*
X103023371Y-126482300D01*
X102870000Y-126528824D01*
X102716629Y-126482300D01*
X102550000Y-126465888D01*
X100650000Y-126465888D01*
X100483371Y-126482300D01*
X100330000Y-126528824D01*
X100176629Y-126482300D01*
X100010000Y-126465888D01*
X98110000Y-126465888D01*
X97943371Y-126482300D01*
X97783145Y-126530903D01*
X97635481Y-126609832D01*
X97506052Y-126716052D01*
X97399832Y-126845481D01*
X97320903Y-126993145D01*
X97272300Y-127153371D01*
X97255888Y-127320000D01*
X97255888Y-129220000D01*
X97272300Y-129386629D01*
X97294556Y-129460000D01*
X92141319Y-129460000D01*
X92075000Y-129453468D01*
X92008681Y-129460000D01*
X92008679Y-129460000D01*
X91810354Y-129479533D01*
X91615105Y-129538761D01*
X91555877Y-129556728D01*
X91438614Y-129619407D01*
X91321351Y-129682085D01*
X91115787Y-129850787D01*
X91073505Y-129902308D01*
X90532300Y-130443513D01*
X90480788Y-130485787D01*
X90438514Y-130537298D01*
X90438510Y-130537302D01*
X90312085Y-130691351D01*
X90186729Y-130925878D01*
X90109534Y-131180354D01*
X90083468Y-131445000D01*
X90090001Y-131511328D01*
X90090001Y-131650000D01*
X90015481Y-131689832D01*
X89886052Y-131796052D01*
X89779832Y-131925481D01*
X89700903Y-132073145D01*
X89652300Y-132233371D01*
X89635888Y-132400000D01*
X89635888Y-134300000D01*
X89652300Y-134466629D01*
X89700903Y-134626855D01*
X89779832Y-134774519D01*
X89886052Y-134903948D01*
X90015481Y-135010168D01*
X90163145Y-135089097D01*
X90323371Y-135137700D01*
X90490000Y-135154112D01*
X92390000Y-135154112D01*
X92556629Y-135137700D01*
X92630000Y-135115443D01*
X92630001Y-136600811D01*
X90532299Y-138698513D01*
X90480787Y-138740788D01*
X90438513Y-138792299D01*
X90438510Y-138792302D01*
X90312085Y-138946351D01*
X90245081Y-139071708D01*
X90186728Y-139180879D01*
X90109533Y-139435355D01*
X90098687Y-139545480D01*
X90083468Y-139700000D01*
X90090000Y-139766319D01*
X90090001Y-153174557D01*
X90016629Y-153152300D01*
X89850000Y-153135888D01*
X87950000Y-153135888D01*
X87783371Y-153152300D01*
X87623145Y-153200903D01*
X87475481Y-153279832D01*
X87346052Y-153386052D01*
X87322334Y-153414952D01*
X87071537Y-153277127D01*
X86733455Y-153170265D01*
X86381021Y-153131413D01*
X86027779Y-153162064D01*
X85687305Y-153261039D01*
X85372682Y-153424537D01*
X85337724Y-153447893D01*
X85267219Y-153776508D01*
X82630000Y-153776508D01*
X82630000Y-142670000D01*
X82704519Y-142630168D01*
X82833948Y-142523948D01*
X82940168Y-142394519D01*
X83019097Y-142246855D01*
X83067700Y-142086629D01*
X83084112Y-141920000D01*
X83084112Y-140020000D01*
X84555888Y-140020000D01*
X84555888Y-141920000D01*
X84572300Y-142086629D01*
X84620903Y-142246855D01*
X84699832Y-142394519D01*
X84806052Y-142523948D01*
X84935481Y-142630168D01*
X85083145Y-142709097D01*
X85243371Y-142757700D01*
X85410000Y-142774112D01*
X87310000Y-142774112D01*
X87476629Y-142757700D01*
X87636855Y-142709097D01*
X87784519Y-142630168D01*
X87913948Y-142523948D01*
X88020168Y-142394519D01*
X88099097Y-142246855D01*
X88147700Y-142086629D01*
X88164112Y-141920000D01*
X88164112Y-140020000D01*
X88147700Y-139853371D01*
X88099097Y-139693145D01*
X88020168Y-139545481D01*
X87913948Y-139416052D01*
X87784519Y-139309832D01*
X87636855Y-139230903D01*
X87476629Y-139182300D01*
X87310000Y-139165888D01*
X85410000Y-139165888D01*
X85243371Y-139182300D01*
X85083145Y-139230903D01*
X84935481Y-139309832D01*
X84806052Y-139416052D01*
X84699832Y-139545481D01*
X84620903Y-139693145D01*
X84572300Y-139853371D01*
X84555888Y-140020000D01*
X83084112Y-140020000D01*
X83067700Y-139853371D01*
X83019097Y-139693145D01*
X82940168Y-139545481D01*
X82833948Y-139416052D01*
X82704519Y-139309832D01*
X82556855Y-139230903D01*
X82396629Y-139182300D01*
X82230000Y-139165888D01*
X80330000Y-139165888D01*
X80163371Y-139182300D01*
X80003145Y-139230903D01*
X79855481Y-139309832D01*
X79726052Y-139416052D01*
X79619832Y-139545481D01*
X79540903Y-139693145D01*
X79492300Y-139853371D01*
X79475888Y-140020000D01*
X79475888Y-141920000D01*
X79492300Y-142086629D01*
X79540903Y-142246855D01*
X79619832Y-142394519D01*
X79726052Y-142523948D01*
X79855481Y-142630168D01*
X79930000Y-142670000D01*
X79930001Y-171383671D01*
X79923468Y-171450000D01*
X79949534Y-171714646D01*
X80026729Y-171969122D01*
X80152085Y-172203649D01*
X80278510Y-172357698D01*
X80278514Y-172357702D01*
X80320788Y-172409213D01*
X80372299Y-172451487D01*
X81200000Y-173279189D01*
X81200001Y-186194557D01*
X81126629Y-186172300D01*
X80960000Y-186155888D01*
X79060000Y-186155888D01*
X78893371Y-186172300D01*
X78733145Y-186220903D01*
X78585481Y-186299832D01*
X78456052Y-186406052D01*
X78349832Y-186535481D01*
X78270903Y-186683145D01*
X78222300Y-186843371D01*
X78205888Y-187010000D01*
X78205888Y-188910000D01*
X78222300Y-189076629D01*
X78268824Y-189230000D01*
X78222300Y-189383371D01*
X78205888Y-189550000D01*
X78205888Y-191450000D01*
X78222300Y-191616629D01*
X78270903Y-191776855D01*
X78349832Y-191924519D01*
X78456052Y-192053948D01*
X78484952Y-192077666D01*
X78347127Y-192328463D01*
X78240265Y-192666545D01*
X78201413Y-193018979D01*
X77250000Y-193018979D01*
X77250000Y-134300000D01*
X79475887Y-134300000D01*
X79492299Y-134466629D01*
X79540902Y-134626855D01*
X79619831Y-134774520D01*
X79726051Y-134903949D01*
X79855480Y-135010169D01*
X80003145Y-135089098D01*
X80163371Y-135137701D01*
X80330000Y-135154113D01*
X81017500Y-135150000D01*
X81230000Y-134937500D01*
X81230000Y-133400000D01*
X81330000Y-133400000D01*
X81330000Y-134937500D01*
X81542500Y-135150000D01*
X82230000Y-135154113D01*
X82396629Y-135137701D01*
X82556855Y-135089098D01*
X82704520Y-135010169D01*
X82833949Y-134903949D01*
X82940169Y-134774520D01*
X83019098Y-134626855D01*
X83067701Y-134466629D01*
X83084113Y-134300000D01*
X83080000Y-133612500D01*
X82867500Y-133400000D01*
X81330000Y-133400000D01*
X81230000Y-133400000D01*
X79692500Y-133400000D01*
X79480000Y-133612500D01*
X79475887Y-134300000D01*
X77250000Y-134300000D01*
X77250000Y-132400000D01*
X79475887Y-132400000D01*
X79480000Y-133087500D01*
X79692500Y-133300000D01*
X81230000Y-133300000D01*
X81230000Y-131762500D01*
X81330000Y-131762500D01*
X81330000Y-133300000D01*
X82867500Y-133300000D01*
X83080000Y-133087500D01*
X83084113Y-132400000D01*
X83067701Y-132233371D01*
X83019098Y-132073145D01*
X82940169Y-131925480D01*
X82833949Y-131796051D01*
X82704520Y-131689831D01*
X82556855Y-131610902D01*
X82396629Y-131562299D01*
X82230000Y-131545887D01*
X81542500Y-131550000D01*
X81330000Y-131762500D01*
X81230000Y-131762500D01*
X81017500Y-131550000D01*
X80330000Y-131545887D01*
X80163371Y-131562299D01*
X80003145Y-131610902D01*
X79855480Y-131689831D01*
X79726051Y-131796051D01*
X79619831Y-131925480D01*
X79540902Y-132073145D01*
X79492299Y-132233371D01*
X79475887Y-132400000D01*
X77250000Y-132400000D01*
X77250000Y-125510000D01*
X133570000Y-125510000D01*
X133570001Y-195145075D01*
G36*
X110460000Y-184100000D02*
G01*
X110480000Y-184100000D01*
X110480000Y-184200000D01*
X110460000Y-184200000D01*
X110460000Y-184220000D01*
X110360000Y-184220000D01*
X110360000Y-184200000D01*
X110340000Y-184200000D01*
X110340000Y-184100000D01*
X110360000Y-184100000D01*
X110360000Y-184080000D01*
X110460000Y-184080000D01*
X110460000Y-184100000D01*
G37*
X110460000Y-184100000D02*
X110480000Y-184100000D01*
X110480000Y-184200000D01*
X110460000Y-184200000D01*
X110460000Y-184220000D01*
X110360000Y-184220000D01*
X110360000Y-184200000D01*
X110340000Y-184200000D01*
X110340000Y-184100000D01*
X110360000Y-184100000D01*
X110360000Y-184080000D01*
X110460000Y-184080000D01*
X110460000Y-184100000D01*
G36*
X107432299Y-156363371D02*
G01*
X107415887Y-156530000D01*
X107420000Y-157217500D01*
X107632500Y-157430000D01*
X109170000Y-157430000D01*
X109170000Y-157410000D01*
X109270000Y-157410000D01*
X109270000Y-157430000D01*
X110807500Y-157430000D01*
X111020000Y-157217500D01*
X111024113Y-156530000D01*
X111007701Y-156363371D01*
X110985445Y-156290000D01*
X120220000Y-156290000D01*
X120259832Y-156364519D01*
X120366052Y-156493948D01*
X120495481Y-156600168D01*
X120570000Y-156640000D01*
X120570001Y-158254557D01*
X120496629Y-158232300D01*
X120330000Y-158215888D01*
X118430000Y-158215888D01*
X118263371Y-158232300D01*
X118103145Y-158280903D01*
X117955481Y-158359832D01*
X117826052Y-158466052D01*
X117719832Y-158595481D01*
X117680000Y-158670000D01*
X115636319Y-158670000D01*
X115570000Y-158663468D01*
X115503681Y-158670000D01*
X115503679Y-158670000D01*
X115305354Y-158689533D01*
X115128620Y-158743145D01*
X115050877Y-158766728D01*
X114816350Y-158892085D01*
X114699813Y-158987725D01*
X114610787Y-159060787D01*
X114568509Y-159112303D01*
X111024112Y-162656700D01*
X111024112Y-161610000D01*
X111007700Y-161443371D01*
X110961176Y-161290000D01*
X111007700Y-161136629D01*
X111024112Y-160970000D01*
X111024112Y-159070000D01*
X111007700Y-158903371D01*
X110961177Y-158750002D01*
X111007701Y-158596629D01*
X111024113Y-158430000D01*
X111020000Y-157742500D01*
X110807500Y-157530000D01*
X109270000Y-157530000D01*
X109270000Y-157550000D01*
X109170000Y-157550000D01*
X109170000Y-157530000D01*
X107632500Y-157530000D01*
X107420000Y-157742500D01*
X107415887Y-158430000D01*
X107432299Y-158596629D01*
X107478823Y-158750002D01*
X107432300Y-158903371D01*
X107415888Y-159070000D01*
X107415888Y-159481699D01*
X104506491Y-156572303D01*
X104464213Y-156520787D01*
X104258649Y-156352085D01*
X104142496Y-156290000D01*
X107454555Y-156290000D01*
X107432299Y-156363371D01*
G37*
X107432299Y-156363371D02*
X107415887Y-156530000D01*
X107420000Y-157217500D01*
X107632500Y-157430000D01*
X109170000Y-157430000D01*
X109170000Y-157410000D01*
X109270000Y-157410000D01*
X109270000Y-157430000D01*
X110807500Y-157430000D01*
X111020000Y-157217500D01*
X111024113Y-156530000D01*
X111007701Y-156363371D01*
X110985445Y-156290000D01*
X120220000Y-156290000D01*
X120259832Y-156364519D01*
X120366052Y-156493948D01*
X120495481Y-156600168D01*
X120570000Y-156640000D01*
X120570001Y-158254557D01*
X120496629Y-158232300D01*
X120330000Y-158215888D01*
X118430000Y-158215888D01*
X118263371Y-158232300D01*
X118103145Y-158280903D01*
X117955481Y-158359832D01*
X117826052Y-158466052D01*
X117719832Y-158595481D01*
X117680000Y-158670000D01*
X115636319Y-158670000D01*
X115570000Y-158663468D01*
X115503681Y-158670000D01*
X115503679Y-158670000D01*
X115305354Y-158689533D01*
X115128620Y-158743145D01*
X115050877Y-158766728D01*
X114816350Y-158892085D01*
X114699813Y-158987725D01*
X114610787Y-159060787D01*
X114568509Y-159112303D01*
X111024112Y-162656700D01*
X111024112Y-161610000D01*
X111007700Y-161443371D01*
X110961176Y-161290000D01*
X111007700Y-161136629D01*
X111024112Y-160970000D01*
X111024112Y-159070000D01*
X111007700Y-158903371D01*
X110961177Y-158750002D01*
X111007701Y-158596629D01*
X111024113Y-158430000D01*
X111020000Y-157742500D01*
X110807500Y-157530000D01*
X109270000Y-157530000D01*
X109270000Y-157550000D01*
X109170000Y-157550000D01*
X109170000Y-157530000D01*
X107632500Y-157530000D01*
X107420000Y-157742500D01*
X107415887Y-158430000D01*
X107432299Y-158596629D01*
X107478823Y-158750002D01*
X107432300Y-158903371D01*
X107415888Y-159070000D01*
X107415888Y-159481699D01*
X104506491Y-156572303D01*
X104464213Y-156520787D01*
X104258649Y-156352085D01*
X104142496Y-156290000D01*
X107454555Y-156290000D01*
X107432299Y-156363371D01*
M02*
