G04 #@! TF.GenerationSoftware,KiCad,Pcbnew,5.1.12-84ad8e8a86~92~ubuntu20.04.1*
G04 #@! TF.CreationDate,2024-01-16T22:34:24+00:00*
G04 #@! TF.ProjectId,___-1.39.A-1,221a1f2d-312e-4333-992e-412d312e6b69,2A*
G04 #@! TF.SameCoordinates,Original*
G04 #@! TF.FileFunction,Legend,Top*
G04 #@! TF.FilePolarity,Positive*
%FSLAX46Y46*%
G04 Gerber Fmt 4.6, Leading zero omitted, Abs format (unit mm)*
G04 Created by KiCad (PCBNEW 5.1.12-84ad8e8a86~92~ubuntu20.04.1) date 2024-01-16 22:34:24*
%MOMM*%
%LPD*%
G01*
G04 APERTURE LIST*
%ADD10C,0.200000*%
G04 APERTURE END LIST*
D10*
X125730000Y-146540000D02*
X125730000Y-154940000D01*
X113030000Y-146540000D02*
X113030000Y-154940000D01*
X113030000Y-146540000D02*
X125730000Y-146540000D01*
X113030000Y-154940000D02*
X125730000Y-154940000D01*
X97790000Y-146540000D02*
X97790000Y-154940000D01*
X85090000Y-146540000D02*
X85090000Y-154940000D01*
X85090000Y-146540000D02*
X97790000Y-146540000D01*
X85090000Y-154940000D02*
X97790000Y-154940000D01*
X113910000Y-141525000D02*
X96910000Y-141525000D01*
X113910000Y-151025000D02*
X96910000Y-151025000D01*
X113910000Y-151025000D02*
X113910000Y-141525000D01*
X96910000Y-151025000D02*
X96910000Y-141525000D01*
X108910000Y-141525000D02*
X108910000Y-140970000D01*
X101910000Y-141525000D02*
X101910000Y-140970000D01*
X80890000Y-141525000D02*
X65405000Y-141525000D01*
X80890000Y-151025000D02*
X65405000Y-151025000D01*
X80890000Y-151025000D02*
X80890000Y-141525000D01*
X75890000Y-141525000D02*
X75890000Y-140970000D01*
X68890000Y-141525000D02*
X68890000Y-140970000D01*
X145415000Y-141525000D02*
X129930000Y-141525000D01*
X145415000Y-151025000D02*
X129930000Y-151025000D01*
X129930000Y-151025000D02*
X129930000Y-141525000D01*
X141930000Y-141525000D02*
X141930000Y-140970000D01*
X134930000Y-141525000D02*
X134930000Y-140970000D01*
X118094285Y-142644880D02*
X118760952Y-143644880D01*
X118760952Y-142644880D02*
X118094285Y-143644880D01*
X119094285Y-143597261D02*
X119237142Y-143644880D01*
X119475238Y-143644880D01*
X119570476Y-143597261D01*
X119618095Y-143549642D01*
X119665714Y-143454404D01*
X119665714Y-143359166D01*
X119618095Y-143263928D01*
X119570476Y-143216309D01*
X119475238Y-143168690D01*
X119284761Y-143121071D01*
X119189523Y-143073452D01*
X119141904Y-143025833D01*
X119094285Y-142930595D01*
X119094285Y-142835357D01*
X119141904Y-142740119D01*
X119189523Y-142692500D01*
X119284761Y-142644880D01*
X119522857Y-142644880D01*
X119665714Y-142692500D01*
X120618095Y-143644880D02*
X120046666Y-143644880D01*
X120332380Y-143644880D02*
X120332380Y-142644880D01*
X120237142Y-142787738D01*
X120141904Y-142882976D01*
X120046666Y-142930595D01*
X90154285Y-142644880D02*
X90820952Y-143644880D01*
X90820952Y-142644880D02*
X90154285Y-143644880D01*
X91154285Y-143597261D02*
X91297142Y-143644880D01*
X91535238Y-143644880D01*
X91630476Y-143597261D01*
X91678095Y-143549642D01*
X91725714Y-143454404D01*
X91725714Y-143359166D01*
X91678095Y-143263928D01*
X91630476Y-143216309D01*
X91535238Y-143168690D01*
X91344761Y-143121071D01*
X91249523Y-143073452D01*
X91201904Y-143025833D01*
X91154285Y-142930595D01*
X91154285Y-142835357D01*
X91201904Y-142740119D01*
X91249523Y-142692500D01*
X91344761Y-142644880D01*
X91582857Y-142644880D01*
X91725714Y-142692500D01*
X92106666Y-142740119D02*
X92154285Y-142692500D01*
X92249523Y-142644880D01*
X92487619Y-142644880D01*
X92582857Y-142692500D01*
X92630476Y-142740119D01*
X92678095Y-142835357D01*
X92678095Y-142930595D01*
X92630476Y-143073452D01*
X92059047Y-143644880D01*
X92678095Y-143644880D01*
X104743333Y-152852380D02*
X104410000Y-152376190D01*
X104171904Y-152852380D02*
X104171904Y-151852380D01*
X104552857Y-151852380D01*
X104648095Y-151900000D01*
X104695714Y-151947619D01*
X104743333Y-152042857D01*
X104743333Y-152185714D01*
X104695714Y-152280952D01*
X104648095Y-152328571D01*
X104552857Y-152376190D01*
X104171904Y-152376190D01*
X105171904Y-152852380D02*
X105171904Y-151852380D01*
X105552857Y-151852380D01*
X105648095Y-151900000D01*
X105695714Y-151947619D01*
X105743333Y-152042857D01*
X105743333Y-152185714D01*
X105695714Y-152280952D01*
X105648095Y-152328571D01*
X105552857Y-152376190D01*
X105171904Y-152376190D01*
X106124285Y-151947619D02*
X106171904Y-151900000D01*
X106267142Y-151852380D01*
X106505238Y-151852380D01*
X106600476Y-151900000D01*
X106648095Y-151947619D01*
X106695714Y-152042857D01*
X106695714Y-152138095D01*
X106648095Y-152280952D01*
X106076666Y-152852380D01*
X106695714Y-152852380D01*
X71723333Y-152852380D02*
X71390000Y-152376190D01*
X71151904Y-152852380D02*
X71151904Y-151852380D01*
X71532857Y-151852380D01*
X71628095Y-151900000D01*
X71675714Y-151947619D01*
X71723333Y-152042857D01*
X71723333Y-152185714D01*
X71675714Y-152280952D01*
X71628095Y-152328571D01*
X71532857Y-152376190D01*
X71151904Y-152376190D01*
X72151904Y-152852380D02*
X72151904Y-151852380D01*
X72532857Y-151852380D01*
X72628095Y-151900000D01*
X72675714Y-151947619D01*
X72723333Y-152042857D01*
X72723333Y-152185714D01*
X72675714Y-152280952D01*
X72628095Y-152328571D01*
X72532857Y-152376190D01*
X72151904Y-152376190D01*
X73056666Y-151852380D02*
X73675714Y-151852380D01*
X73342380Y-152233333D01*
X73485238Y-152233333D01*
X73580476Y-152280952D01*
X73628095Y-152328571D01*
X73675714Y-152423809D01*
X73675714Y-152661904D01*
X73628095Y-152757142D01*
X73580476Y-152804761D01*
X73485238Y-152852380D01*
X73199523Y-152852380D01*
X73104285Y-152804761D01*
X73056666Y-152757142D01*
X137763333Y-152852380D02*
X137430000Y-152376190D01*
X137191904Y-152852380D02*
X137191904Y-151852380D01*
X137572857Y-151852380D01*
X137668095Y-151900000D01*
X137715714Y-151947619D01*
X137763333Y-152042857D01*
X137763333Y-152185714D01*
X137715714Y-152280952D01*
X137668095Y-152328571D01*
X137572857Y-152376190D01*
X137191904Y-152376190D01*
X138191904Y-152852380D02*
X138191904Y-151852380D01*
X138572857Y-151852380D01*
X138668095Y-151900000D01*
X138715714Y-151947619D01*
X138763333Y-152042857D01*
X138763333Y-152185714D01*
X138715714Y-152280952D01*
X138668095Y-152328571D01*
X138572857Y-152376190D01*
X138191904Y-152376190D01*
X139715714Y-152852380D02*
X139144285Y-152852380D01*
X139430000Y-152852380D02*
X139430000Y-151852380D01*
X139334761Y-151995238D01*
X139239523Y-152090476D01*
X139144285Y-152138095D01*
M02*
