G04 #@! TF.GenerationSoftware,KiCad,Pcbnew,5.1.6-c6e7f7d~87~ubuntu19.10.1*
G04 #@! TF.CreationDate,2021-07-04T14:56:38+06:00*
G04 #@! TF.ProjectId,potentiometer_board_18_3x17_dual-single-single_r1,706f7465-6e74-4696-9f6d-657465725f62,1A*
G04 #@! TF.SameCoordinates,Original*
G04 #@! TF.FileFunction,Soldermask,Bot*
G04 #@! TF.FilePolarity,Negative*
%FSLAX46Y46*%
G04 Gerber Fmt 4.6, Leading zero omitted, Abs format (unit mm)*
G04 Created by KiCad (PCBNEW 5.1.6-c6e7f7d~87~ubuntu19.10.1) date 2021-07-04 14:56:38*
%MOMM*%
%LPD*%
G01*
G04 APERTURE LIST*
%ADD10C,0.100000*%
G04 APERTURE END LIST*
D10*
G36*
X144880000Y-149325000D02*
G01*
X141980000Y-149325000D01*
X141980000Y-146425000D01*
X144880000Y-146425000D01*
X144880000Y-149325000D01*
G37*
G36*
X134880000Y-149325000D02*
G01*
X131980000Y-149325000D01*
X131980000Y-146425000D01*
X134880000Y-146425000D01*
X134880000Y-149325000D01*
G37*
G36*
X139880000Y-149325000D02*
G01*
X136980000Y-149325000D01*
X136980000Y-146425000D01*
X139880000Y-146425000D01*
X139880000Y-149325000D01*
G37*
G36*
X91370000Y-145980000D02*
G01*
X88970000Y-145980000D01*
X88970000Y-143580000D01*
X91370000Y-143580000D01*
X91370000Y-145980000D01*
G37*
G36*
X96450000Y-145980000D02*
G01*
X94050000Y-145980000D01*
X94050000Y-143580000D01*
X96450000Y-143580000D01*
X96450000Y-145980000D01*
G37*
G36*
X93910000Y-145980000D02*
G01*
X91510000Y-145980000D01*
X91510000Y-143580000D01*
X93910000Y-143580000D01*
X93910000Y-145980000D01*
G37*
G36*
X82900025Y-143626115D02*
G01*
X82900028Y-143626116D01*
X82900027Y-143626116D01*
X83118413Y-143716574D01*
X83314955Y-143847899D01*
X83482101Y-144015045D01*
X83578939Y-144159974D01*
X83613427Y-144211589D01*
X83703885Y-144429975D01*
X83750000Y-144661809D01*
X83750000Y-144898191D01*
X83703885Y-145130025D01*
X83703884Y-145130027D01*
X83613426Y-145348413D01*
X83482101Y-145544955D01*
X83314955Y-145712101D01*
X83118413Y-145843426D01*
X83118412Y-145843427D01*
X83118411Y-145843427D01*
X82900025Y-145933885D01*
X82668191Y-145980000D01*
X82431809Y-145980000D01*
X82199975Y-145933885D01*
X81981589Y-145843427D01*
X81981588Y-145843427D01*
X81981587Y-145843426D01*
X81785045Y-145712101D01*
X81617899Y-145544955D01*
X81486574Y-145348413D01*
X81396116Y-145130027D01*
X81396115Y-145130025D01*
X81350000Y-144898191D01*
X81350000Y-144661809D01*
X81396115Y-144429975D01*
X81486573Y-144211589D01*
X81521061Y-144159974D01*
X81617899Y-144015045D01*
X81785045Y-143847899D01*
X81981587Y-143716574D01*
X82199973Y-143626116D01*
X82199972Y-143626116D01*
X82199975Y-143626115D01*
X82431809Y-143580000D01*
X82668191Y-143580000D01*
X82900025Y-143626115D01*
G37*
G36*
X86290000Y-145980000D02*
G01*
X83890000Y-145980000D01*
X83890000Y-143580000D01*
X86290000Y-143580000D01*
X86290000Y-145980000D01*
G37*
G36*
X88830000Y-145980000D02*
G01*
X86430000Y-145980000D01*
X86430000Y-143580000D01*
X88830000Y-143580000D01*
X88830000Y-145980000D01*
G37*
G36*
X129470000Y-145980000D02*
G01*
X127070000Y-145980000D01*
X127070000Y-143580000D01*
X129470000Y-143580000D01*
X129470000Y-145980000D01*
G37*
G36*
X126930000Y-145980000D02*
G01*
X124530000Y-145980000D01*
X124530000Y-143580000D01*
X126930000Y-143580000D01*
X126930000Y-145980000D01*
G37*
G36*
X124390000Y-145980000D02*
G01*
X121990000Y-145980000D01*
X121990000Y-143580000D01*
X124390000Y-143580000D01*
X124390000Y-145980000D01*
G37*
G36*
X115920025Y-143626115D02*
G01*
X115920028Y-143626116D01*
X115920027Y-143626116D01*
X116138413Y-143716574D01*
X116334955Y-143847899D01*
X116502101Y-144015045D01*
X116598939Y-144159974D01*
X116633427Y-144211589D01*
X116723885Y-144429975D01*
X116770000Y-144661809D01*
X116770000Y-144898191D01*
X116723885Y-145130025D01*
X116723884Y-145130027D01*
X116633426Y-145348413D01*
X116502101Y-145544955D01*
X116334955Y-145712101D01*
X116138413Y-145843426D01*
X116138412Y-145843427D01*
X116138411Y-145843427D01*
X115920025Y-145933885D01*
X115688191Y-145980000D01*
X115451809Y-145980000D01*
X115219975Y-145933885D01*
X115001589Y-145843427D01*
X115001588Y-145843427D01*
X115001587Y-145843426D01*
X114805045Y-145712101D01*
X114637899Y-145544955D01*
X114506574Y-145348413D01*
X114416116Y-145130027D01*
X114416115Y-145130025D01*
X114370000Y-144898191D01*
X114370000Y-144661809D01*
X114416115Y-144429975D01*
X114506573Y-144211589D01*
X114541061Y-144159974D01*
X114637899Y-144015045D01*
X114805045Y-143847899D01*
X115001587Y-143716574D01*
X115219973Y-143626116D01*
X115219972Y-143626116D01*
X115219975Y-143626115D01*
X115451809Y-143580000D01*
X115688191Y-143580000D01*
X115920025Y-143626115D01*
G37*
G36*
X119310000Y-145980000D02*
G01*
X116910000Y-145980000D01*
X116910000Y-143580000D01*
X119310000Y-143580000D01*
X119310000Y-145980000D01*
G37*
G36*
X121850000Y-145980000D02*
G01*
X119450000Y-145980000D01*
X119450000Y-143580000D01*
X121850000Y-143580000D01*
X121850000Y-145980000D01*
G37*
G36*
X106860000Y-144325000D02*
G01*
X103960000Y-144325000D01*
X103960000Y-141425000D01*
X106860000Y-141425000D01*
X106860000Y-144325000D01*
G37*
G36*
X143852948Y-141480722D02*
G01*
X144116831Y-141590026D01*
X144116833Y-141590027D01*
X144354321Y-141748711D01*
X144556289Y-141950679D01*
X144714973Y-142188167D01*
X144714974Y-142188169D01*
X144824278Y-142452052D01*
X144880000Y-142732186D01*
X144880000Y-143017814D01*
X144824278Y-143297948D01*
X144714974Y-143561831D01*
X144714973Y-143561833D01*
X144556289Y-143799321D01*
X144354321Y-144001289D01*
X144116833Y-144159973D01*
X144116832Y-144159974D01*
X144116831Y-144159974D01*
X143852948Y-144269278D01*
X143572814Y-144325000D01*
X143287186Y-144325000D01*
X143007052Y-144269278D01*
X142743169Y-144159974D01*
X142743168Y-144159974D01*
X142743167Y-144159973D01*
X142505679Y-144001289D01*
X142303711Y-143799321D01*
X142145027Y-143561833D01*
X142145026Y-143561831D01*
X142035722Y-143297948D01*
X141980000Y-143017814D01*
X141980000Y-142732186D01*
X142035722Y-142452052D01*
X142145026Y-142188169D01*
X142145027Y-142188167D01*
X142303711Y-141950679D01*
X142505679Y-141748711D01*
X142743167Y-141590027D01*
X142743169Y-141590026D01*
X143007052Y-141480722D01*
X143287186Y-141425000D01*
X143572814Y-141425000D01*
X143852948Y-141480722D01*
G37*
G36*
X139880000Y-144325000D02*
G01*
X136980000Y-144325000D01*
X136980000Y-141425000D01*
X139880000Y-141425000D01*
X139880000Y-144325000D01*
G37*
G36*
X68840000Y-144325000D02*
G01*
X65940000Y-144325000D01*
X65940000Y-141425000D01*
X68840000Y-141425000D01*
X68840000Y-144325000D01*
G37*
G36*
X77812948Y-141480722D02*
G01*
X78076831Y-141590026D01*
X78076833Y-141590027D01*
X78314321Y-141748711D01*
X78516289Y-141950679D01*
X78674973Y-142188167D01*
X78674974Y-142188169D01*
X78784278Y-142452052D01*
X78840000Y-142732186D01*
X78840000Y-143017814D01*
X78784278Y-143297948D01*
X78674974Y-143561831D01*
X78674973Y-143561833D01*
X78516289Y-143799321D01*
X78314321Y-144001289D01*
X78076833Y-144159973D01*
X78076832Y-144159974D01*
X78076831Y-144159974D01*
X77812948Y-144269278D01*
X77532814Y-144325000D01*
X77247186Y-144325000D01*
X76967052Y-144269278D01*
X76703169Y-144159974D01*
X76703168Y-144159974D01*
X76703167Y-144159973D01*
X76465679Y-144001289D01*
X76263711Y-143799321D01*
X76105027Y-143561833D01*
X76105026Y-143561831D01*
X75995722Y-143297948D01*
X75940000Y-143017814D01*
X75940000Y-142732186D01*
X75995722Y-142452052D01*
X76105026Y-142188169D01*
X76105027Y-142188167D01*
X76263711Y-141950679D01*
X76465679Y-141748711D01*
X76703167Y-141590027D01*
X76703169Y-141590026D01*
X76967052Y-141480722D01*
X77247186Y-141425000D01*
X77532814Y-141425000D01*
X77812948Y-141480722D01*
G37*
G36*
X73840000Y-144325000D02*
G01*
X70940000Y-144325000D01*
X70940000Y-141425000D01*
X73840000Y-141425000D01*
X73840000Y-144325000D01*
G37*
G36*
X101860000Y-144325000D02*
G01*
X98960000Y-144325000D01*
X98960000Y-141425000D01*
X101860000Y-141425000D01*
X101860000Y-144325000D01*
G37*
G36*
X110832948Y-141480722D02*
G01*
X111096831Y-141590026D01*
X111096833Y-141590027D01*
X111334321Y-141748711D01*
X111536289Y-141950679D01*
X111694973Y-142188167D01*
X111694974Y-142188169D01*
X111804278Y-142452052D01*
X111860000Y-142732186D01*
X111860000Y-143017814D01*
X111804278Y-143297948D01*
X111694974Y-143561831D01*
X111694973Y-143561833D01*
X111536289Y-143799321D01*
X111334321Y-144001289D01*
X111096833Y-144159973D01*
X111096832Y-144159974D01*
X111096831Y-144159974D01*
X110832948Y-144269278D01*
X110552814Y-144325000D01*
X110267186Y-144325000D01*
X109987052Y-144269278D01*
X109723169Y-144159974D01*
X109723168Y-144159974D01*
X109723167Y-144159973D01*
X109485679Y-144001289D01*
X109283711Y-143799321D01*
X109125027Y-143561833D01*
X109125026Y-143561831D01*
X109015722Y-143297948D01*
X108960000Y-143017814D01*
X108960000Y-142732186D01*
X109015722Y-142452052D01*
X109125026Y-142188169D01*
X109125027Y-142188167D01*
X109283711Y-141950679D01*
X109485679Y-141748711D01*
X109723167Y-141590027D01*
X109723169Y-141590026D01*
X109987052Y-141480722D01*
X110267186Y-141425000D01*
X110552814Y-141425000D01*
X110832948Y-141480722D01*
G37*
G36*
X134880000Y-144325000D02*
G01*
X131980000Y-144325000D01*
X131980000Y-141425000D01*
X134880000Y-141425000D01*
X134880000Y-144325000D01*
G37*
M02*
