G04 #@! TF.GenerationSoftware,KiCad,Pcbnew,5.1.6-c6e7f7d~87~ubuntu19.10.1*
G04 #@! TF.CreationDate,2023-01-31T04:16:23+06:00*
G04 #@! TF.ProjectId,1590N1_potentiometer_board_18_2x17_r2a,31353930-4e31-45f7-906f-74656e74696f,2A*
G04 #@! TF.SameCoordinates,Original*
G04 #@! TF.FileFunction,Copper,L2,Bot*
G04 #@! TF.FilePolarity,Positive*
%FSLAX46Y46*%
G04 Gerber Fmt 4.6, Leading zero omitted, Abs format (unit mm)*
G04 Created by KiCad (PCBNEW 5.1.6-c6e7f7d~87~ubuntu19.10.1) date 2023-01-31 04:16:23*
%MOMM*%
%LPD*%
G01*
G04 APERTURE LIST*
G04 #@! TA.AperFunction,ComponentPad*
%ADD10C,1.900000*%
G04 #@! TD*
G04 #@! TA.AperFunction,ComponentPad*
%ADD11C,2.500000*%
G04 #@! TD*
G04 #@! TA.AperFunction,Conductor*
%ADD12C,1.000000*%
G04 #@! TD*
G04 APERTURE END LIST*
D10*
X111760000Y-144780000D03*
X109220000Y-144780000D03*
X106680000Y-144780000D03*
X99060000Y-144780000D03*
X101600000Y-144780000D03*
X104140000Y-144780000D03*
D11*
X85170000Y-144875000D03*
X95170000Y-144875000D03*
X90170000Y-144875000D03*
X115650000Y-144875000D03*
X125650000Y-144875000D03*
X120650000Y-144875000D03*
D12*
X111760000Y-144780000D02*
X115650000Y-144875000D01*
X106680000Y-147320000D02*
X106680000Y-144780000D01*
X109220000Y-149860000D02*
X106680000Y-147320000D01*
X120665000Y-149860000D02*
X109220000Y-149860000D01*
X125650000Y-144875000D02*
X120665000Y-149860000D01*
X109220000Y-146685000D02*
X109220000Y-144780000D01*
X110490000Y-147955000D02*
X109220000Y-146685000D01*
X117570000Y-147955000D02*
X110490000Y-147955000D01*
X120650000Y-144875000D02*
X117570000Y-147955000D01*
X104140000Y-147320000D02*
X104140000Y-144780000D01*
X101600000Y-149860000D02*
X104140000Y-147320000D01*
X90155000Y-149860000D02*
X101600000Y-149860000D01*
X85170000Y-144875000D02*
X90155000Y-149860000D01*
X95170000Y-144875000D02*
X99060000Y-144780000D01*
X101600000Y-146685000D02*
X101600000Y-144780000D01*
X100330000Y-147955000D02*
X101600000Y-146685000D01*
X93250000Y-147955000D02*
X100330000Y-147955000D01*
X90170000Y-144875000D02*
X93250000Y-147955000D01*
M02*
