G04 #@! TF.GenerationSoftware,KiCad,Pcbnew,5.1.6-c6e7f7d~87~ubuntu19.10.1*
G04 #@! TF.CreationDate,2022-07-30T15:35:07+06:00*
G04 #@! TF.ProjectId,crumbwave_multiplexer_r1a,6372756d-6277-4617-9665-5f6d756c7469,1A*
G04 #@! TF.SameCoordinates,Original*
G04 #@! TF.FileFunction,Copper,L2,Bot*
G04 #@! TF.FilePolarity,Positive*
%FSLAX46Y46*%
G04 Gerber Fmt 4.6, Leading zero omitted, Abs format (unit mm)*
G04 Created by KiCad (PCBNEW 5.1.6-c6e7f7d~87~ubuntu19.10.1) date 2022-07-30 15:35:07*
%MOMM*%
%LPD*%
G01*
G04 APERTURE LIST*
G04 #@! TA.AperFunction,ComponentPad*
%ADD10C,1.900000*%
G04 #@! TD*
G04 #@! TA.AperFunction,ComponentPad*
%ADD11R,1.900000X1.900000*%
G04 #@! TD*
G04 #@! TA.AperFunction,ComponentPad*
%ADD12C,6.000000*%
G04 #@! TD*
G04 #@! TA.AperFunction,ComponentPad*
%ADD13R,2.500000X2.500000*%
G04 #@! TD*
G04 #@! TA.AperFunction,ViaPad*
%ADD14C,1.500000*%
G04 #@! TD*
G04 #@! TA.AperFunction,Conductor*
%ADD15C,1.000000*%
G04 #@! TD*
G04 #@! TA.AperFunction,Conductor*
%ADD16C,0.600000*%
G04 #@! TD*
G04 #@! TA.AperFunction,Conductor*
%ADD17C,0.500000*%
G04 #@! TD*
G04 APERTURE END LIST*
D10*
X124460000Y-139700000D03*
D11*
X124460000Y-147320000D03*
D10*
X134620000Y-185420000D03*
D11*
X142240000Y-185420000D03*
D10*
X121920000Y-165100000D03*
D11*
X129540000Y-165100000D03*
X114300000Y-129540000D03*
X116840000Y-129540000D03*
X119380000Y-129540000D03*
X121920000Y-129540000D03*
X124460000Y-129540000D03*
X96520000Y-129540000D03*
X88900000Y-129540000D03*
X91440000Y-129540000D03*
X86360000Y-129540000D03*
X93980000Y-129540000D03*
D12*
X93980000Y-144780000D03*
X116840000Y-144780000D03*
D13*
X105410000Y-147180000D03*
X110110000Y-147180000D03*
X100710000Y-147180000D03*
X110110000Y-142380000D03*
X105410000Y-142380000D03*
X100710000Y-142380000D03*
X110410000Y-189230000D03*
X110410000Y-193230000D03*
X110410000Y-185230000D03*
X105410000Y-189230000D03*
X105410000Y-193230000D03*
X105410000Y-185230000D03*
X100410000Y-185230000D03*
X100410000Y-189230000D03*
X100410000Y-193230000D03*
D11*
X100330000Y-137160000D03*
X110490000Y-137160000D03*
X104140000Y-154940000D03*
X114300000Y-154940000D03*
X105410000Y-134620000D03*
X110490000Y-180340000D03*
X100330000Y-180340000D03*
X119380000Y-200660000D03*
X119380000Y-190500000D03*
X121920000Y-200660000D03*
X121920000Y-190500000D03*
X93980000Y-200660000D03*
X93980000Y-190500000D03*
X96520000Y-180340000D03*
X96520000Y-175260000D03*
X130810000Y-198120000D03*
X130810000Y-195580000D03*
X130810000Y-193040000D03*
X144780000Y-182880000D03*
X134620000Y-182880000D03*
X134620000Y-177800000D03*
X144780000Y-177800000D03*
X130810000Y-182880000D03*
X130810000Y-187960000D03*
X124460000Y-200660000D03*
X124460000Y-190500000D03*
X86360000Y-187960000D03*
X86360000Y-177800000D03*
X91440000Y-172720000D03*
X91440000Y-162560000D03*
X99060000Y-167640000D03*
X93980000Y-167640000D03*
X104140000Y-167640000D03*
X109220000Y-167640000D03*
X114300000Y-162560000D03*
X104140000Y-162560000D03*
X99060000Y-154940000D03*
X88900000Y-154940000D03*
X86360000Y-172720000D03*
X86360000Y-162560000D03*
D10*
X81280000Y-177800000D03*
D11*
X81280000Y-175260000D03*
X81280000Y-172720000D03*
X81280000Y-170180000D03*
X73660000Y-170180000D03*
X73660000Y-172720000D03*
X73660000Y-175260000D03*
X73660000Y-177800000D03*
X81280000Y-167640000D03*
X81280000Y-162560000D03*
X81280000Y-165100000D03*
X73660000Y-165100000D03*
X73660000Y-167640000D03*
X73660000Y-162560000D03*
X137160000Y-134620000D03*
X127000000Y-134620000D03*
X91440000Y-187960000D03*
X91440000Y-177800000D03*
X88900000Y-177800000D03*
X88900000Y-187960000D03*
X110490000Y-129540000D03*
X100330000Y-129540000D03*
X71120000Y-152400000D03*
X81280000Y-152400000D03*
X81280000Y-157480000D03*
X71120000Y-157480000D03*
X137160000Y-142240000D03*
X142240000Y-142240000D03*
X81280000Y-182880000D03*
X76200000Y-182880000D03*
X116840000Y-134620000D03*
X121920000Y-134620000D03*
X78740000Y-134620000D03*
X78740000Y-139700000D03*
X82550000Y-139700000D03*
X82550000Y-134620000D03*
X71120000Y-134620000D03*
X71120000Y-139700000D03*
X78740000Y-200660000D03*
X78740000Y-190500000D03*
X76200000Y-200660000D03*
X76200000Y-190500000D03*
X116840000Y-187960000D03*
X116840000Y-182880000D03*
X71120000Y-149860000D03*
X81280000Y-149860000D03*
X66040000Y-157480000D03*
X66040000Y-147320000D03*
X81280000Y-147320000D03*
X71120000Y-147320000D03*
X81280000Y-144780000D03*
X71120000Y-144780000D03*
X66040000Y-182880000D03*
X66040000Y-172720000D03*
X127000000Y-187960000D03*
X127000000Y-182880000D03*
X74930000Y-139700000D03*
X74930000Y-134620000D03*
X66040000Y-167640000D03*
X66040000Y-162560000D03*
X66040000Y-187960000D03*
X71120000Y-187960000D03*
X144780000Y-180340000D03*
X134620000Y-180340000D03*
X88900000Y-157480000D03*
X99060000Y-157480000D03*
X99060000Y-160020000D03*
X88900000Y-160020000D03*
X134620000Y-139700000D03*
X134620000Y-149860000D03*
X144780000Y-149860000D03*
X144780000Y-139700000D03*
X129540000Y-152400000D03*
X129540000Y-154940000D03*
X129540000Y-157480000D03*
X129540000Y-160020000D03*
X121920000Y-160020000D03*
X121920000Y-157480000D03*
X121920000Y-154940000D03*
D10*
X121920000Y-152400000D03*
D11*
X129540000Y-170180000D03*
X129540000Y-172720000D03*
X129540000Y-175260000D03*
X129540000Y-177800000D03*
X121920000Y-177800000D03*
X121920000Y-175260000D03*
X121920000Y-172720000D03*
D10*
X121920000Y-170180000D03*
D11*
X142240000Y-146050000D03*
X137160000Y-146050000D03*
X137160000Y-152400000D03*
X142240000Y-152400000D03*
X86360000Y-198120000D03*
D10*
X86360000Y-193040000D03*
X129540000Y-142240000D03*
G04 #@! TA.AperFunction,ComponentPad*
G36*
G01*
X129920000Y-140650000D02*
X129160000Y-140650000D01*
G75*
G02*
X128590000Y-140080000I0J570000D01*
G01*
X128590000Y-139320000D01*
G75*
G02*
X129160000Y-138750000I570000J0D01*
G01*
X129920000Y-138750000D01*
G75*
G02*
X130490000Y-139320000I0J-570000D01*
G01*
X130490000Y-140080000D01*
G75*
G02*
X129920000Y-140650000I-570000J0D01*
G01*
G37*
G04 #@! TD.AperFunction*
X137160000Y-157480000D03*
D11*
X137160000Y-160020000D03*
X137160000Y-162560000D03*
X137160000Y-165100000D03*
X144780000Y-165100000D03*
X144780000Y-162560000D03*
X144780000Y-160020000D03*
X144780000Y-157480000D03*
X137160000Y-167640000D03*
X137160000Y-172720000D03*
X137160000Y-170180000D03*
X144780000Y-170180000D03*
X144780000Y-167640000D03*
X144780000Y-172720000D03*
X109160000Y-198755000D03*
X106660000Y-198755000D03*
X104160000Y-198755000D03*
D10*
X101660000Y-198755000D03*
D11*
X105410000Y-202565000D03*
G04 #@! TA.AperFunction,ComponentPad*
G36*
G01*
X105730000Y-174370000D02*
X105730000Y-173610000D01*
G75*
G02*
X106300000Y-173040000I570000J0D01*
G01*
X107060000Y-173040000D01*
G75*
G02*
X107630000Y-173610000I0J-570000D01*
G01*
X107630000Y-174370000D01*
G75*
G02*
X107060000Y-174940000I-570000J0D01*
G01*
X106300000Y-174940000D01*
G75*
G02*
X105730000Y-174370000I0J570000D01*
G01*
G37*
G04 #@! TD.AperFunction*
D10*
X104140000Y-173990000D03*
D14*
X104140000Y-152400000D03*
X87630000Y-147320000D03*
D15*
X102235000Y-180340000D02*
X100330000Y-180340000D01*
X104140000Y-178435000D02*
X102235000Y-180340000D01*
X104140000Y-173990000D02*
X104140000Y-178435000D01*
X139700000Y-180340000D02*
X144780000Y-180340000D01*
X127000000Y-187960000D02*
X130810000Y-187960000D01*
X139700000Y-185420000D02*
X142240000Y-185420000D01*
X139700000Y-180340000D02*
X139700000Y-185420000D01*
X127000000Y-195580000D02*
X130810000Y-195580000D01*
X127000000Y-187960000D02*
X127000000Y-195580000D01*
X126365000Y-200660000D02*
X127000000Y-200025000D01*
X127000000Y-195580000D02*
X127000000Y-200025000D01*
X124460000Y-200660000D02*
X126365000Y-200660000D01*
X139700000Y-185420000D02*
X137160000Y-187960000D01*
X130810000Y-187960000D02*
X137160000Y-187960000D01*
X86360000Y-187960000D02*
X86360000Y-190500000D01*
X129540000Y-137160000D02*
X129540000Y-139700000D01*
X86360000Y-190500000D02*
X86360000Y-193040000D01*
X78740000Y-139700000D02*
X78740000Y-144780000D01*
X78740000Y-144780000D02*
X81280000Y-144780000D01*
X99060000Y-154940000D02*
X104140000Y-154940000D01*
X112395000Y-140335000D02*
X112395000Y-149225000D01*
X106680000Y-154940000D02*
X112395000Y-149225000D01*
X104140000Y-154940000D02*
X106680000Y-154940000D01*
X142240000Y-142240000D02*
X144145000Y-142240000D01*
X144145000Y-142240000D02*
X144780000Y-141605000D01*
X144780000Y-141605000D02*
X144780000Y-139700000D01*
X139700000Y-142240000D02*
X139700000Y-180340000D01*
X139700000Y-142240000D02*
X142240000Y-142240000D01*
X135890000Y-137160000D02*
X129540000Y-137160000D01*
X139700000Y-140970000D02*
X135890000Y-137160000D01*
X139700000Y-142240000D02*
X139700000Y-140970000D01*
X110490000Y-137160000D02*
X129540000Y-137160000D01*
X110490000Y-137160000D02*
X110490000Y-139700000D01*
X111760000Y-139700000D02*
X112395000Y-140335000D01*
X110490000Y-139700000D02*
X111760000Y-139700000D01*
X91440000Y-129540000D02*
X91440000Y-137160000D01*
X78740000Y-137795000D02*
X79375000Y-137160000D01*
X79375000Y-137160000D02*
X91440000Y-137160000D01*
X78740000Y-139700000D02*
X78740000Y-137795000D01*
X86360000Y-187960000D02*
X78740000Y-187960000D01*
X71120000Y-187960000D02*
X78740000Y-187960000D01*
X81915000Y-193040000D02*
X86360000Y-193040000D01*
X76200000Y-198755000D02*
X81915000Y-193040000D01*
X76200000Y-200660000D02*
X76200000Y-198755000D01*
X91440000Y-189865000D02*
X91440000Y-187960000D01*
X90805000Y-190500000D02*
X91440000Y-189865000D01*
X86360000Y-190500000D02*
X90805000Y-190500000D01*
X78740000Y-179070000D02*
X78740000Y-187960000D01*
X76200000Y-176530000D02*
X78740000Y-179070000D01*
X76200000Y-147320000D02*
X76200000Y-176530000D01*
X78740000Y-144780000D02*
X76200000Y-147320000D01*
X98425000Y-139700000D02*
X110490000Y-139700000D01*
X95885000Y-137160000D02*
X98425000Y-139700000D01*
X91440000Y-137160000D02*
X95885000Y-137160000D01*
X131445000Y-170180000D02*
X132080000Y-169545000D01*
X129540000Y-170180000D02*
X131445000Y-170180000D01*
X131445000Y-152400000D02*
X132080000Y-153035000D01*
X132080000Y-153035000D02*
X132080000Y-169545000D01*
X129540000Y-152400000D02*
X131445000Y-152400000D01*
X85090000Y-175260000D02*
X92710000Y-175260000D01*
X83820000Y-173990000D02*
X85090000Y-175260000D01*
X92710000Y-175260000D02*
X96520000Y-171450000D01*
X96520000Y-171450000D02*
X106680000Y-171450000D01*
X106680000Y-171450000D02*
X106680000Y-173990000D01*
X129540000Y-142240000D02*
X129540000Y-149860000D01*
X129540000Y-149860000D02*
X129540000Y-152400000D01*
X117475000Y-149860000D02*
X129540000Y-149860000D01*
X114300000Y-153035000D02*
X117475000Y-149860000D01*
X114300000Y-154940000D02*
X114300000Y-153035000D01*
X114300000Y-156845000D02*
X106680000Y-164465000D01*
X106680000Y-164465000D02*
X106680000Y-171450000D01*
X114300000Y-154940000D02*
X114300000Y-156845000D01*
X99695000Y-198755000D02*
X101660000Y-198755000D01*
X97790000Y-196850000D02*
X99695000Y-198755000D01*
X97790000Y-183515000D02*
X97790000Y-196850000D01*
X98425000Y-182880000D02*
X97790000Y-183515000D01*
X102235000Y-182880000D02*
X98425000Y-182880000D01*
X106680000Y-178435000D02*
X102235000Y-182880000D01*
X106680000Y-173990000D02*
X106680000Y-178435000D01*
X83820000Y-170815000D02*
X83820000Y-173990000D01*
X83185000Y-170180000D02*
X83820000Y-170815000D01*
X81280000Y-170180000D02*
X83185000Y-170180000D01*
X107125000Y-185230000D02*
X105410000Y-185230000D01*
X107950000Y-192722500D02*
X107950000Y-186055000D01*
X108457500Y-193230000D02*
X107950000Y-192722500D01*
X107950000Y-186055000D02*
X107125000Y-185230000D01*
X110410000Y-193230000D02*
X108457500Y-193230000D01*
X100410000Y-193230000D02*
X105410000Y-193230000D01*
D16*
X73660000Y-147955000D02*
X73660000Y-162560000D01*
X73025000Y-147320000D02*
X73660000Y-147955000D01*
X71120000Y-147320000D02*
X73025000Y-147320000D01*
X66040000Y-147320000D02*
X71120000Y-147320000D01*
X81280000Y-157480000D02*
X81280000Y-162560000D01*
X93345000Y-165100000D02*
X95885000Y-162560000D01*
X95885000Y-162560000D02*
X104140000Y-162560000D01*
X86995000Y-165100000D02*
X93345000Y-165100000D01*
X86360000Y-164465000D02*
X86995000Y-165100000D01*
X86360000Y-162560000D02*
X86360000Y-164465000D01*
X127000000Y-174625000D02*
X127635000Y-175260000D01*
X129540000Y-175260000D02*
X127635000Y-175260000D01*
X127000000Y-160655000D02*
X127635000Y-160020000D01*
X127635000Y-160020000D02*
X129540000Y-160020000D01*
X127000000Y-174625000D02*
X127000000Y-160655000D01*
X127635000Y-177800000D02*
X129540000Y-177800000D01*
X123825000Y-154940000D02*
X125730000Y-156845000D01*
X125730000Y-175895000D02*
X127635000Y-177800000D01*
X125730000Y-156845000D02*
X125730000Y-175895000D01*
X121920000Y-154940000D02*
X123825000Y-154940000D01*
X71755000Y-165100000D02*
X73660000Y-165100000D01*
X68580000Y-161925000D02*
X71755000Y-165100000D01*
X68580000Y-158115000D02*
X68580000Y-161925000D01*
X67945000Y-157480000D02*
X68580000Y-158115000D01*
X66040000Y-157480000D02*
X67945000Y-157480000D01*
X88900000Y-180340000D02*
X88900000Y-187960000D01*
X90805000Y-180340000D02*
X91440000Y-179705000D01*
X91440000Y-177800000D02*
X91440000Y-179705000D01*
X88900000Y-180340000D02*
X90805000Y-180340000D01*
X84455000Y-180340000D02*
X88900000Y-180340000D01*
X83820000Y-179705000D02*
X84455000Y-180340000D01*
X83820000Y-175895000D02*
X83820000Y-179705000D01*
X83185000Y-175260000D02*
X83820000Y-175895000D01*
X81280000Y-175260000D02*
X83185000Y-175260000D01*
X101600000Y-152400000D02*
X104140000Y-152400000D01*
X100965000Y-153035000D02*
X101600000Y-152400000D01*
X86360000Y-153035000D02*
X100965000Y-153035000D01*
X83820000Y-155575000D02*
X86360000Y-153035000D01*
X78740000Y-156210000D02*
X79375000Y-155575000D01*
X79375000Y-155575000D02*
X83820000Y-155575000D01*
X78740000Y-172085000D02*
X78740000Y-156210000D01*
X79375000Y-172720000D02*
X78740000Y-172085000D01*
X81280000Y-172720000D02*
X79375000Y-172720000D01*
X105410000Y-142380000D02*
X110110000Y-142380000D01*
X105410000Y-144145000D02*
X105410000Y-142380000D01*
X104775000Y-144780000D02*
X105410000Y-144145000D01*
X98425000Y-145415000D02*
X99060000Y-144780000D01*
X96520000Y-149225000D02*
X98425000Y-147320000D01*
X99060000Y-144780000D02*
X104775000Y-144780000D01*
X98425000Y-147320000D02*
X98425000Y-145415000D01*
X89535000Y-149225000D02*
X96520000Y-149225000D01*
X87630000Y-147320000D02*
X89535000Y-149225000D01*
X85090000Y-147955000D02*
X83185000Y-149860000D01*
X85090000Y-146685000D02*
X85090000Y-147955000D01*
X83185000Y-149860000D02*
X81280000Y-149860000D01*
X91440000Y-140335000D02*
X85090000Y-146685000D01*
X96520000Y-140335000D02*
X91440000Y-140335000D01*
X98565000Y-142380000D02*
X96520000Y-140335000D01*
X100710000Y-142380000D02*
X98565000Y-142380000D01*
X142240000Y-170180000D02*
X144780000Y-170180000D01*
X142240000Y-163195000D02*
X142240000Y-170180000D01*
X142875000Y-162560000D02*
X142240000Y-163195000D01*
X144780000Y-162560000D02*
X142875000Y-162560000D01*
X142240000Y-177165000D02*
X142875000Y-177800000D01*
X142875000Y-177800000D02*
X144780000Y-177800000D01*
X142240000Y-170180000D02*
X142240000Y-177165000D01*
X119380000Y-174625000D02*
X120015000Y-175260000D01*
X120015000Y-175260000D02*
X121920000Y-175260000D01*
X119380000Y-158115000D02*
X120015000Y-157480000D01*
X120015000Y-157480000D02*
X121920000Y-157480000D01*
X119380000Y-158115000D02*
X119380000Y-174625000D01*
X91440000Y-172720000D02*
X93345000Y-172720000D01*
X93345000Y-172720000D02*
X95885000Y-170180000D01*
X104140000Y-169545000D02*
X104140000Y-167640000D01*
X103505000Y-170180000D02*
X104140000Y-169545000D01*
X95885000Y-170180000D02*
X103505000Y-170180000D01*
X100710000Y-149480000D02*
X100710000Y-147180000D01*
X99695000Y-150495000D02*
X100710000Y-149480000D01*
X85090000Y-150495000D02*
X99695000Y-150495000D01*
X83185000Y-152400000D02*
X85090000Y-150495000D01*
X81280000Y-152400000D02*
X83185000Y-152400000D01*
X116840000Y-132715000D02*
X117475000Y-132080000D01*
X116840000Y-134620000D02*
X116840000Y-132715000D01*
X126365000Y-132080000D02*
X127000000Y-132715000D01*
X127000000Y-132715000D02*
X127000000Y-134620000D01*
X117475000Y-132080000D02*
X126365000Y-132080000D01*
X110110000Y-147180000D02*
X110110000Y-148970000D01*
X110110000Y-148970000D02*
X108585000Y-150495000D01*
X100330000Y-151765000D02*
X101600000Y-150495000D01*
X83185000Y-154305000D02*
X85725000Y-151765000D01*
X85725000Y-151765000D02*
X100330000Y-151765000D01*
X78740000Y-154305000D02*
X83185000Y-154305000D01*
X101600000Y-150495000D02*
X108585000Y-150495000D01*
X77470000Y-155575000D02*
X78740000Y-154305000D01*
X79375000Y-177800000D02*
X77470000Y-175895000D01*
X77470000Y-175895000D02*
X77470000Y-155575000D01*
X81280000Y-177800000D02*
X79375000Y-177800000D01*
D17*
G36*
X147540001Y-195145075D02*
G01*
X139265077Y-203420000D01*
X107213545Y-203420000D01*
X107210000Y-202827500D01*
X106997500Y-202615000D01*
X105460000Y-202615000D01*
X105460000Y-202635000D01*
X105360000Y-202635000D01*
X105360000Y-202615000D01*
X103822500Y-202615000D01*
X103610000Y-202827500D01*
X103606455Y-203420000D01*
X71554924Y-203420000D01*
X63280000Y-195145077D01*
X63280000Y-187010000D01*
X64235888Y-187010000D01*
X64235888Y-188910000D01*
X64252300Y-189076629D01*
X64300903Y-189236855D01*
X64379832Y-189384519D01*
X64486052Y-189513948D01*
X64615481Y-189620168D01*
X64763145Y-189699097D01*
X64923371Y-189747700D01*
X65090000Y-189764112D01*
X66990000Y-189764112D01*
X67156629Y-189747700D01*
X67316855Y-189699097D01*
X67464519Y-189620168D01*
X67593948Y-189513948D01*
X67700168Y-189384519D01*
X67779097Y-189236855D01*
X67827700Y-189076629D01*
X67844112Y-188910000D01*
X67844112Y-187010000D01*
X67827700Y-186843371D01*
X67779097Y-186683145D01*
X67700168Y-186535481D01*
X67593948Y-186406052D01*
X67464519Y-186299832D01*
X67316855Y-186220903D01*
X67156629Y-186172300D01*
X66990000Y-186155888D01*
X65090000Y-186155888D01*
X64923371Y-186172300D01*
X64763145Y-186220903D01*
X64615481Y-186299832D01*
X64486052Y-186406052D01*
X64379832Y-186535481D01*
X64300903Y-186683145D01*
X64252300Y-186843371D01*
X64235888Y-187010000D01*
X63280000Y-187010000D01*
X63280000Y-181930000D01*
X64235888Y-181930000D01*
X64235888Y-183830000D01*
X64252300Y-183996629D01*
X64300903Y-184156855D01*
X64379832Y-184304519D01*
X64486052Y-184433948D01*
X64615481Y-184540168D01*
X64763145Y-184619097D01*
X64923371Y-184667700D01*
X65090000Y-184684112D01*
X66990000Y-184684112D01*
X67156629Y-184667700D01*
X67316855Y-184619097D01*
X67464519Y-184540168D01*
X67593948Y-184433948D01*
X67700168Y-184304519D01*
X67779097Y-184156855D01*
X67827700Y-183996629D01*
X67844112Y-183830000D01*
X67844112Y-181930000D01*
X67827700Y-181763371D01*
X67779097Y-181603145D01*
X67700168Y-181455481D01*
X67593948Y-181326052D01*
X67464519Y-181219832D01*
X67316855Y-181140903D01*
X67156629Y-181092300D01*
X66990000Y-181075888D01*
X65090000Y-181075888D01*
X64923371Y-181092300D01*
X64763145Y-181140903D01*
X64615481Y-181219832D01*
X64486052Y-181326052D01*
X64379832Y-181455481D01*
X64300903Y-181603145D01*
X64252300Y-181763371D01*
X64235888Y-181930000D01*
X63280000Y-181930000D01*
X63280000Y-171770000D01*
X64235888Y-171770000D01*
X64235888Y-173670000D01*
X64252300Y-173836629D01*
X64300903Y-173996855D01*
X64379832Y-174144519D01*
X64486052Y-174273948D01*
X64615481Y-174380168D01*
X64763145Y-174459097D01*
X64923371Y-174507700D01*
X65090000Y-174524112D01*
X66990000Y-174524112D01*
X67156629Y-174507700D01*
X67316855Y-174459097D01*
X67464519Y-174380168D01*
X67593948Y-174273948D01*
X67700168Y-174144519D01*
X67779097Y-173996855D01*
X67827700Y-173836629D01*
X67844112Y-173670000D01*
X67844112Y-171770000D01*
X67827700Y-171603371D01*
X67779097Y-171443145D01*
X67700168Y-171295481D01*
X67593948Y-171166052D01*
X67464519Y-171059832D01*
X67316855Y-170980903D01*
X67156629Y-170932300D01*
X66990000Y-170915888D01*
X65090000Y-170915888D01*
X64923371Y-170932300D01*
X64763145Y-170980903D01*
X64615481Y-171059832D01*
X64486052Y-171166052D01*
X64379832Y-171295481D01*
X64300903Y-171443145D01*
X64252300Y-171603371D01*
X64235888Y-171770000D01*
X63280000Y-171770000D01*
X63280000Y-166690000D01*
X64235888Y-166690000D01*
X64235888Y-168590000D01*
X64252300Y-168756629D01*
X64300903Y-168916855D01*
X64379832Y-169064519D01*
X64486052Y-169193948D01*
X64615481Y-169300168D01*
X64763145Y-169379097D01*
X64923371Y-169427700D01*
X65090000Y-169444112D01*
X66990000Y-169444112D01*
X67156629Y-169427700D01*
X67316855Y-169379097D01*
X67464519Y-169300168D01*
X67593948Y-169193948D01*
X67700168Y-169064519D01*
X67779097Y-168916855D01*
X67827700Y-168756629D01*
X67844112Y-168590000D01*
X67844112Y-166690000D01*
X67827700Y-166523371D01*
X67779097Y-166363145D01*
X67700168Y-166215481D01*
X67593948Y-166086052D01*
X67464519Y-165979832D01*
X67316855Y-165900903D01*
X67156629Y-165852300D01*
X66990000Y-165835888D01*
X65090000Y-165835888D01*
X64923371Y-165852300D01*
X64763145Y-165900903D01*
X64615481Y-165979832D01*
X64486052Y-166086052D01*
X64379832Y-166215481D01*
X64300903Y-166363145D01*
X64252300Y-166523371D01*
X64235888Y-166690000D01*
X63280000Y-166690000D01*
X63280000Y-146370000D01*
X64235888Y-146370000D01*
X64235888Y-148270000D01*
X64252300Y-148436629D01*
X64300903Y-148596855D01*
X64379832Y-148744519D01*
X64486052Y-148873948D01*
X64615481Y-148980168D01*
X64763145Y-149059097D01*
X64923371Y-149107700D01*
X65090000Y-149124112D01*
X66990000Y-149124112D01*
X67156629Y-149107700D01*
X67316855Y-149059097D01*
X67464519Y-148980168D01*
X67593948Y-148873948D01*
X67700168Y-148744519D01*
X67779097Y-148596855D01*
X67817577Y-148470000D01*
X69342423Y-148470000D01*
X69378823Y-148589998D01*
X69332299Y-148743371D01*
X69315887Y-148910000D01*
X69320000Y-149597500D01*
X69532500Y-149810000D01*
X71070000Y-149810000D01*
X71070000Y-149790000D01*
X71170000Y-149790000D01*
X71170000Y-149810000D01*
X71190000Y-149810000D01*
X71190000Y-149910000D01*
X71170000Y-149910000D01*
X71170000Y-149930000D01*
X71070000Y-149930000D01*
X71070000Y-149910000D01*
X69532500Y-149910000D01*
X69320000Y-150122500D01*
X69315887Y-150810000D01*
X69332299Y-150976629D01*
X69378823Y-151130002D01*
X69332300Y-151283371D01*
X69315888Y-151450000D01*
X69315888Y-153350000D01*
X69332300Y-153516629D01*
X69380903Y-153676855D01*
X69459832Y-153824519D01*
X69566052Y-153953948D01*
X69695481Y-154060168D01*
X69843145Y-154139097D01*
X70003371Y-154187700D01*
X70170000Y-154204112D01*
X72070000Y-154204112D01*
X72236629Y-154187700D01*
X72396855Y-154139097D01*
X72510000Y-154078619D01*
X72510001Y-155801381D01*
X72396855Y-155740903D01*
X72236629Y-155692300D01*
X72070000Y-155675888D01*
X70170000Y-155675888D01*
X70003371Y-155692300D01*
X69843145Y-155740903D01*
X69695481Y-155819832D01*
X69566052Y-155926052D01*
X69459832Y-156055481D01*
X69380903Y-156203145D01*
X69332300Y-156363371D01*
X69315888Y-156530000D01*
X69315888Y-157224544D01*
X68798125Y-156706781D01*
X68762107Y-156662893D01*
X68586997Y-156519184D01*
X68387215Y-156412398D01*
X68170439Y-156346640D01*
X68001492Y-156330000D01*
X68001482Y-156330000D01*
X67945000Y-156324437D01*
X67888518Y-156330000D01*
X67817577Y-156330000D01*
X67779097Y-156203145D01*
X67700168Y-156055481D01*
X67593948Y-155926052D01*
X67464519Y-155819832D01*
X67316855Y-155740903D01*
X67156629Y-155692300D01*
X66990000Y-155675888D01*
X65090000Y-155675888D01*
X64923371Y-155692300D01*
X64763145Y-155740903D01*
X64615481Y-155819832D01*
X64486052Y-155926052D01*
X64379832Y-156055481D01*
X64300903Y-156203145D01*
X64252300Y-156363371D01*
X64235888Y-156530000D01*
X64235888Y-158430000D01*
X64252300Y-158596629D01*
X64300903Y-158756855D01*
X64379832Y-158904519D01*
X64486052Y-159033948D01*
X64615481Y-159140168D01*
X64763145Y-159219097D01*
X64923371Y-159267700D01*
X65090000Y-159284112D01*
X66990000Y-159284112D01*
X67156629Y-159267700D01*
X67316855Y-159219097D01*
X67430000Y-159158619D01*
X67430001Y-160881381D01*
X67316855Y-160820903D01*
X67156629Y-160772300D01*
X66990000Y-160755888D01*
X65090000Y-160755888D01*
X64923371Y-160772300D01*
X64763145Y-160820903D01*
X64615481Y-160899832D01*
X64486052Y-161006052D01*
X64379832Y-161135481D01*
X64300903Y-161283145D01*
X64252300Y-161443371D01*
X64235888Y-161610000D01*
X64235888Y-163510000D01*
X64252300Y-163676629D01*
X64300903Y-163836855D01*
X64379832Y-163984519D01*
X64486052Y-164113948D01*
X64615481Y-164220168D01*
X64763145Y-164299097D01*
X64923371Y-164347700D01*
X65090000Y-164364112D01*
X66990000Y-164364112D01*
X67156629Y-164347700D01*
X67316855Y-164299097D01*
X67464519Y-164220168D01*
X67593948Y-164113948D01*
X67700168Y-163984519D01*
X67779097Y-163836855D01*
X67827700Y-163676629D01*
X67844112Y-163510000D01*
X67844112Y-162815456D01*
X70901880Y-165873225D01*
X70937893Y-165917107D01*
X71113003Y-166060816D01*
X71312785Y-166167602D01*
X71529561Y-166233360D01*
X71698508Y-166250000D01*
X71698517Y-166250000D01*
X71754999Y-166255563D01*
X71811481Y-166250000D01*
X71882423Y-166250000D01*
X71918824Y-166370000D01*
X71872300Y-166523371D01*
X71855888Y-166690000D01*
X71855888Y-168590000D01*
X71872300Y-168756629D01*
X71918823Y-168909998D01*
X71872299Y-169063371D01*
X71855887Y-169230000D01*
X71860000Y-169917500D01*
X72072500Y-170130000D01*
X73610000Y-170130000D01*
X73610000Y-170110000D01*
X73710000Y-170110000D01*
X73710000Y-170130000D01*
X73730000Y-170130000D01*
X73730000Y-170230000D01*
X73710000Y-170230000D01*
X73710000Y-170250000D01*
X73610000Y-170250000D01*
X73610000Y-170230000D01*
X72072500Y-170230000D01*
X71860000Y-170442500D01*
X71855887Y-171130000D01*
X71872299Y-171296629D01*
X71918823Y-171450002D01*
X71872300Y-171603371D01*
X71855888Y-171770000D01*
X71855888Y-173670000D01*
X71872300Y-173836629D01*
X71918824Y-173990000D01*
X71872300Y-174143371D01*
X71855888Y-174310000D01*
X71855888Y-176210000D01*
X71872300Y-176376629D01*
X71918824Y-176530000D01*
X71872300Y-176683371D01*
X71855888Y-176850000D01*
X71855888Y-178750000D01*
X71872300Y-178916629D01*
X71920903Y-179076855D01*
X71999832Y-179224519D01*
X72106052Y-179353948D01*
X72235481Y-179460168D01*
X72383145Y-179539097D01*
X72543371Y-179587700D01*
X72710000Y-179604112D01*
X74610000Y-179604112D01*
X74776629Y-179587700D01*
X74936855Y-179539097D01*
X75084519Y-179460168D01*
X75213948Y-179353948D01*
X75320168Y-179224519D01*
X75399097Y-179076855D01*
X75447700Y-178916629D01*
X75464112Y-178750000D01*
X75464112Y-177703300D01*
X77390000Y-179629188D01*
X77390000Y-181114556D01*
X77316629Y-181092300D01*
X77150000Y-181075888D01*
X75250000Y-181075888D01*
X75083371Y-181092300D01*
X74923145Y-181140903D01*
X74775481Y-181219832D01*
X74646052Y-181326052D01*
X74539832Y-181455481D01*
X74460903Y-181603145D01*
X74412300Y-181763371D01*
X74395888Y-181930000D01*
X74395888Y-183830000D01*
X74412300Y-183996629D01*
X74460903Y-184156855D01*
X74539832Y-184304519D01*
X74646052Y-184433948D01*
X74775481Y-184540168D01*
X74923145Y-184619097D01*
X75083371Y-184667700D01*
X75250000Y-184684112D01*
X77150000Y-184684112D01*
X77316629Y-184667700D01*
X77390001Y-184645443D01*
X77390001Y-186610000D01*
X72820000Y-186610000D01*
X72780168Y-186535481D01*
X72673948Y-186406052D01*
X72544519Y-186299832D01*
X72396855Y-186220903D01*
X72236629Y-186172300D01*
X72070000Y-186155888D01*
X70170000Y-186155888D01*
X70003371Y-186172300D01*
X69843145Y-186220903D01*
X69695481Y-186299832D01*
X69566052Y-186406052D01*
X69459832Y-186535481D01*
X69380903Y-186683145D01*
X69332300Y-186843371D01*
X69315888Y-187010000D01*
X69315888Y-188910000D01*
X69332300Y-189076629D01*
X69380903Y-189236855D01*
X69459832Y-189384519D01*
X69566052Y-189513948D01*
X69695481Y-189620168D01*
X69843145Y-189699097D01*
X70003371Y-189747700D01*
X70170000Y-189764112D01*
X72070000Y-189764112D01*
X72236629Y-189747700D01*
X72396855Y-189699097D01*
X72544519Y-189620168D01*
X72673948Y-189513948D01*
X72780168Y-189384519D01*
X72820000Y-189310000D01*
X74434556Y-189310000D01*
X74412300Y-189383371D01*
X74395888Y-189550000D01*
X74395888Y-191450000D01*
X74412300Y-191616629D01*
X74460903Y-191776855D01*
X74539832Y-191924519D01*
X74646052Y-192053948D01*
X74775481Y-192160168D01*
X74923145Y-192239097D01*
X75083371Y-192287700D01*
X75250000Y-192304112D01*
X77150000Y-192304112D01*
X77316629Y-192287700D01*
X77470000Y-192241176D01*
X77623371Y-192287700D01*
X77790000Y-192304112D01*
X79690000Y-192304112D01*
X79856629Y-192287700D01*
X80016855Y-192239097D01*
X80164519Y-192160168D01*
X80293948Y-192053948D01*
X80400168Y-191924519D01*
X80479097Y-191776855D01*
X80527700Y-191616629D01*
X80544112Y-191450000D01*
X80544112Y-189550000D01*
X80527700Y-189383371D01*
X80505444Y-189310000D01*
X84660000Y-189310000D01*
X84699832Y-189384519D01*
X84806052Y-189513948D01*
X84935481Y-189620168D01*
X85010001Y-189660000D01*
X85010001Y-190433669D01*
X85003468Y-190500000D01*
X85010000Y-190566321D01*
X85010000Y-191690000D01*
X81981321Y-191690000D01*
X81915000Y-191683468D01*
X81650354Y-191709533D01*
X81395877Y-191786728D01*
X81221378Y-191880000D01*
X81161351Y-191912085D01*
X80955787Y-192080787D01*
X80913509Y-192132303D01*
X75292299Y-197753513D01*
X75240788Y-197795787D01*
X75198514Y-197847298D01*
X75198510Y-197847302D01*
X75072085Y-198001351D01*
X74946729Y-198235878D01*
X74869534Y-198490354D01*
X74843468Y-198755000D01*
X74850001Y-198821328D01*
X74850001Y-198960000D01*
X74775481Y-198999832D01*
X74646052Y-199106052D01*
X74539832Y-199235481D01*
X74460903Y-199383145D01*
X74412300Y-199543371D01*
X74395888Y-199710000D01*
X74395888Y-201610000D01*
X74412300Y-201776629D01*
X74460903Y-201936855D01*
X74539832Y-202084519D01*
X74646052Y-202213948D01*
X74775481Y-202320168D01*
X74923145Y-202399097D01*
X75083371Y-202447700D01*
X75250000Y-202464112D01*
X77150000Y-202464112D01*
X77316629Y-202447700D01*
X77469998Y-202401177D01*
X77623371Y-202447701D01*
X77790000Y-202464113D01*
X78477500Y-202460000D01*
X78690000Y-202247500D01*
X78690000Y-200710000D01*
X78790000Y-200710000D01*
X78790000Y-202247500D01*
X79002500Y-202460000D01*
X79690000Y-202464113D01*
X79856629Y-202447701D01*
X80016855Y-202399098D01*
X80164520Y-202320169D01*
X80293949Y-202213949D01*
X80400169Y-202084520D01*
X80479098Y-201936855D01*
X80527701Y-201776629D01*
X80544113Y-201610000D01*
X92175887Y-201610000D01*
X92192299Y-201776629D01*
X92240902Y-201936855D01*
X92319831Y-202084520D01*
X92426051Y-202213949D01*
X92555480Y-202320169D01*
X92703145Y-202399098D01*
X92863371Y-202447701D01*
X93030000Y-202464113D01*
X93717500Y-202460000D01*
X93930000Y-202247500D01*
X93930000Y-200710000D01*
X94030000Y-200710000D01*
X94030000Y-202247500D01*
X94242500Y-202460000D01*
X94930000Y-202464113D01*
X95096629Y-202447701D01*
X95256855Y-202399098D01*
X95404520Y-202320169D01*
X95533949Y-202213949D01*
X95640169Y-202084520D01*
X95719098Y-201936855D01*
X95767701Y-201776629D01*
X95783620Y-201615000D01*
X103605887Y-201615000D01*
X103610000Y-202302500D01*
X103822500Y-202515000D01*
X105360000Y-202515000D01*
X105360000Y-200977500D01*
X105460000Y-200977500D01*
X105460000Y-202515000D01*
X106997500Y-202515000D01*
X107210000Y-202302500D01*
X107214113Y-201615000D01*
X107197701Y-201448371D01*
X107149098Y-201288145D01*
X107070169Y-201140480D01*
X106963949Y-201011051D01*
X106834520Y-200904831D01*
X106686855Y-200825902D01*
X106526629Y-200777299D01*
X106360000Y-200760887D01*
X105672500Y-200765000D01*
X105460000Y-200977500D01*
X105360000Y-200977500D01*
X105147500Y-200765000D01*
X104460000Y-200760887D01*
X104293371Y-200777299D01*
X104133145Y-200825902D01*
X103985480Y-200904831D01*
X103856051Y-201011051D01*
X103749831Y-201140480D01*
X103670902Y-201288145D01*
X103622299Y-201448371D01*
X103605887Y-201615000D01*
X95783620Y-201615000D01*
X95784113Y-201610000D01*
X95780000Y-200922500D01*
X95567500Y-200710000D01*
X94030000Y-200710000D01*
X93930000Y-200710000D01*
X92392500Y-200710000D01*
X92180000Y-200922500D01*
X92175887Y-201610000D01*
X80544113Y-201610000D01*
X80540000Y-200922500D01*
X80327500Y-200710000D01*
X78790000Y-200710000D01*
X78690000Y-200710000D01*
X78670000Y-200710000D01*
X78670000Y-200610000D01*
X78690000Y-200610000D01*
X78690000Y-199072500D01*
X78790000Y-199072500D01*
X78790000Y-200610000D01*
X80327500Y-200610000D01*
X80540000Y-200397500D01*
X80544113Y-199710000D01*
X80527701Y-199543371D01*
X80479098Y-199383145D01*
X80400169Y-199235480D01*
X80293949Y-199106051D01*
X80250021Y-199070000D01*
X84555887Y-199070000D01*
X84572299Y-199236629D01*
X84620902Y-199396855D01*
X84699831Y-199544520D01*
X84806051Y-199673949D01*
X84935480Y-199780169D01*
X85083145Y-199859098D01*
X85243371Y-199907701D01*
X85410000Y-199924113D01*
X86097500Y-199920000D01*
X86310000Y-199707500D01*
X86310000Y-198170000D01*
X86410000Y-198170000D01*
X86410000Y-199707500D01*
X86622500Y-199920000D01*
X87310000Y-199924113D01*
X87476629Y-199907701D01*
X87636855Y-199859098D01*
X87784520Y-199780169D01*
X87870020Y-199710000D01*
X92175887Y-199710000D01*
X92180000Y-200397500D01*
X92392500Y-200610000D01*
X93930000Y-200610000D01*
X93930000Y-199072500D01*
X94030000Y-199072500D01*
X94030000Y-200610000D01*
X95567500Y-200610000D01*
X95780000Y-200397500D01*
X95784113Y-199710000D01*
X95767701Y-199543371D01*
X95719098Y-199383145D01*
X95640169Y-199235480D01*
X95533949Y-199106051D01*
X95404520Y-198999831D01*
X95256855Y-198920902D01*
X95096629Y-198872299D01*
X94930000Y-198855887D01*
X94242500Y-198860000D01*
X94030000Y-199072500D01*
X93930000Y-199072500D01*
X93717500Y-198860000D01*
X93030000Y-198855887D01*
X92863371Y-198872299D01*
X92703145Y-198920902D01*
X92555480Y-198999831D01*
X92426051Y-199106051D01*
X92319831Y-199235480D01*
X92240902Y-199383145D01*
X92192299Y-199543371D01*
X92175887Y-199710000D01*
X87870020Y-199710000D01*
X87913949Y-199673949D01*
X88020169Y-199544520D01*
X88099098Y-199396855D01*
X88147701Y-199236629D01*
X88164113Y-199070000D01*
X88160000Y-198382500D01*
X87947500Y-198170000D01*
X86410000Y-198170000D01*
X86310000Y-198170000D01*
X84772500Y-198170000D01*
X84560000Y-198382500D01*
X84555887Y-199070000D01*
X80250021Y-199070000D01*
X80164520Y-198999831D01*
X80016855Y-198920902D01*
X79856629Y-198872299D01*
X79690000Y-198855887D01*
X79002500Y-198860000D01*
X78790000Y-199072500D01*
X78690000Y-199072500D01*
X78477500Y-198860000D01*
X78007003Y-198857185D01*
X79694188Y-197170000D01*
X84555887Y-197170000D01*
X84560000Y-197857500D01*
X84772500Y-198070000D01*
X86310000Y-198070000D01*
X86310000Y-196532500D01*
X86410000Y-196532500D01*
X86410000Y-198070000D01*
X87947500Y-198070000D01*
X88160000Y-197857500D01*
X88164113Y-197170000D01*
X88147701Y-197003371D01*
X88099098Y-196843145D01*
X88020169Y-196695480D01*
X87913949Y-196566051D01*
X87784520Y-196459831D01*
X87636855Y-196380902D01*
X87476629Y-196332299D01*
X87310000Y-196315887D01*
X86622500Y-196320000D01*
X86410000Y-196532500D01*
X86310000Y-196532500D01*
X86097500Y-196320000D01*
X85410000Y-196315887D01*
X85243371Y-196332299D01*
X85083145Y-196380902D01*
X84935480Y-196459831D01*
X84806051Y-196566051D01*
X84699831Y-196695480D01*
X84620902Y-196843145D01*
X84572299Y-197003371D01*
X84555887Y-197170000D01*
X79694188Y-197170000D01*
X82474188Y-194390000D01*
X85164416Y-194390000D01*
X85212567Y-194438151D01*
X85507380Y-194635139D01*
X85834959Y-194770827D01*
X86182716Y-194840000D01*
X86537284Y-194840000D01*
X86885041Y-194770827D01*
X87212620Y-194635139D01*
X87507433Y-194438151D01*
X87758151Y-194187433D01*
X87955139Y-193892620D01*
X88090827Y-193565041D01*
X88160000Y-193217284D01*
X88160000Y-192862716D01*
X88090827Y-192514959D01*
X87955139Y-192187380D01*
X87758151Y-191892567D01*
X87715584Y-191850000D01*
X90738681Y-191850000D01*
X90805000Y-191856532D01*
X90871319Y-191850000D01*
X90871321Y-191850000D01*
X91069646Y-191830467D01*
X91324122Y-191753272D01*
X91558649Y-191627915D01*
X91764213Y-191459213D01*
X91806492Y-191407696D01*
X92175888Y-191038299D01*
X92175888Y-191450000D01*
X92192300Y-191616629D01*
X92240903Y-191776855D01*
X92319832Y-191924519D01*
X92426052Y-192053948D01*
X92555481Y-192160168D01*
X92703145Y-192239097D01*
X92863371Y-192287700D01*
X93030000Y-192304112D01*
X94930000Y-192304112D01*
X95096629Y-192287700D01*
X95256855Y-192239097D01*
X95404519Y-192160168D01*
X95533948Y-192053948D01*
X95640168Y-191924519D01*
X95719097Y-191776855D01*
X95767700Y-191616629D01*
X95784112Y-191450000D01*
X95784112Y-189550000D01*
X95767700Y-189383371D01*
X95719097Y-189223145D01*
X95640168Y-189075481D01*
X95533948Y-188946052D01*
X95404519Y-188839832D01*
X95256855Y-188760903D01*
X95096629Y-188712300D01*
X94930000Y-188695888D01*
X93244112Y-188695888D01*
X93244112Y-187010000D01*
X93227700Y-186843371D01*
X93179097Y-186683145D01*
X93100168Y-186535481D01*
X92993948Y-186406052D01*
X92864519Y-186299832D01*
X92716855Y-186220903D01*
X92556629Y-186172300D01*
X92390000Y-186155888D01*
X90490000Y-186155888D01*
X90323371Y-186172300D01*
X90170000Y-186218824D01*
X90050000Y-186182423D01*
X90050000Y-181490000D01*
X90748518Y-181490000D01*
X90805000Y-181495563D01*
X90861482Y-181490000D01*
X90861492Y-181490000D01*
X91030439Y-181473360D01*
X91247215Y-181407602D01*
X91446997Y-181300816D01*
X91622107Y-181157107D01*
X91658125Y-181113219D01*
X92213219Y-180558125D01*
X92257107Y-180522107D01*
X92400816Y-180346997D01*
X92480503Y-180197914D01*
X92507602Y-180147216D01*
X92573360Y-179930439D01*
X92595564Y-179705000D01*
X92590000Y-179648508D01*
X92590000Y-179577577D01*
X92716855Y-179539097D01*
X92864519Y-179460168D01*
X92993948Y-179353948D01*
X93100168Y-179224519D01*
X93179097Y-179076855D01*
X93227700Y-178916629D01*
X93244112Y-178750000D01*
X93244112Y-176850000D01*
X93227700Y-176683371D01*
X93180570Y-176528000D01*
X93229122Y-176513272D01*
X93463649Y-176387915D01*
X93669213Y-176219213D01*
X93711491Y-176167697D01*
X94715888Y-175163300D01*
X94715888Y-176210000D01*
X94732300Y-176376629D01*
X94780903Y-176536855D01*
X94859832Y-176684519D01*
X94966052Y-176813948D01*
X95095481Y-176920168D01*
X95243145Y-176999097D01*
X95403371Y-177047700D01*
X95570000Y-177064112D01*
X97470000Y-177064112D01*
X97636629Y-177047700D01*
X97796855Y-176999097D01*
X97944519Y-176920168D01*
X98073948Y-176813948D01*
X98180168Y-176684519D01*
X98259097Y-176536855D01*
X98307700Y-176376629D01*
X98324112Y-176210000D01*
X98324112Y-174310000D01*
X98307700Y-174143371D01*
X98259097Y-173983145D01*
X98180168Y-173835481D01*
X98073948Y-173706052D01*
X97944519Y-173599832D01*
X97796855Y-173520903D01*
X97636629Y-173472300D01*
X97470000Y-173455888D01*
X96423300Y-173455888D01*
X97079188Y-172800000D01*
X102784416Y-172800000D01*
X102741849Y-172842567D01*
X102544861Y-173137380D01*
X102409173Y-173464959D01*
X102340000Y-173812716D01*
X102340000Y-174167284D01*
X102409173Y-174515041D01*
X102544861Y-174842620D01*
X102741849Y-175137433D01*
X102790000Y-175185584D01*
X102790001Y-177875810D01*
X101881648Y-178784164D01*
X101754519Y-178679832D01*
X101606855Y-178600903D01*
X101446629Y-178552300D01*
X101280000Y-178535888D01*
X99380000Y-178535888D01*
X99213371Y-178552300D01*
X99053145Y-178600903D01*
X98905481Y-178679832D01*
X98776052Y-178786052D01*
X98669832Y-178915481D01*
X98590903Y-179063145D01*
X98542300Y-179223371D01*
X98525888Y-179390000D01*
X98525888Y-181290000D01*
X98542300Y-181456629D01*
X98564556Y-181530000D01*
X98491319Y-181530000D01*
X98425000Y-181523468D01*
X98358681Y-181530000D01*
X98358679Y-181530000D01*
X98283188Y-181537435D01*
X98307700Y-181456629D01*
X98324112Y-181290000D01*
X98324112Y-179390000D01*
X98307700Y-179223371D01*
X98259097Y-179063145D01*
X98180168Y-178915481D01*
X98073948Y-178786052D01*
X97944519Y-178679832D01*
X97796855Y-178600903D01*
X97636629Y-178552300D01*
X97470000Y-178535888D01*
X95570000Y-178535888D01*
X95403371Y-178552300D01*
X95243145Y-178600903D01*
X95095481Y-178679832D01*
X94966052Y-178786052D01*
X94859832Y-178915481D01*
X94780903Y-179063145D01*
X94732300Y-179223371D01*
X94715888Y-179390000D01*
X94715888Y-181290000D01*
X94732300Y-181456629D01*
X94780903Y-181616855D01*
X94859832Y-181764519D01*
X94966052Y-181893948D01*
X95095481Y-182000168D01*
X95243145Y-182079097D01*
X95403371Y-182127700D01*
X95570000Y-182144112D01*
X97251701Y-182144112D01*
X96882300Y-182513512D01*
X96830787Y-182555788D01*
X96788513Y-182607299D01*
X96788510Y-182607302D01*
X96662085Y-182761351D01*
X96625392Y-182830000D01*
X96536728Y-182995879D01*
X96459533Y-183250355D01*
X96444881Y-183399122D01*
X96433468Y-183515000D01*
X96440000Y-183581319D01*
X96440001Y-196783671D01*
X96433468Y-196850000D01*
X96459534Y-197114646D01*
X96536729Y-197369122D01*
X96662085Y-197603649D01*
X96788510Y-197757698D01*
X96788514Y-197757702D01*
X96830788Y-197809213D01*
X96882299Y-197851487D01*
X98693513Y-199662702D01*
X98735787Y-199714213D01*
X98787298Y-199756487D01*
X98787301Y-199756490D01*
X98941350Y-199882915D01*
X98987722Y-199907701D01*
X99175878Y-200008272D01*
X99430354Y-200085467D01*
X99628679Y-200105000D01*
X99628681Y-200105000D01*
X99695000Y-200111532D01*
X99761319Y-200105000D01*
X100464416Y-200105000D01*
X100512567Y-200153151D01*
X100807380Y-200350139D01*
X101134959Y-200485827D01*
X101482716Y-200555000D01*
X101837284Y-200555000D01*
X102185041Y-200485827D01*
X102512620Y-200350139D01*
X102594795Y-200295231D01*
X102606052Y-200308948D01*
X102735481Y-200415168D01*
X102883145Y-200494097D01*
X103043371Y-200542700D01*
X103210000Y-200559112D01*
X105110000Y-200559112D01*
X105276629Y-200542700D01*
X105410000Y-200502243D01*
X105543371Y-200542700D01*
X105710000Y-200559112D01*
X107610000Y-200559112D01*
X107776629Y-200542700D01*
X107909998Y-200502244D01*
X108043371Y-200542701D01*
X108210000Y-200559113D01*
X108897500Y-200555000D01*
X109110000Y-200342500D01*
X109110000Y-198805000D01*
X109210000Y-198805000D01*
X109210000Y-200342500D01*
X109422500Y-200555000D01*
X110110000Y-200559113D01*
X110276629Y-200542701D01*
X110436855Y-200494098D01*
X110584520Y-200415169D01*
X110713949Y-200308949D01*
X110820169Y-200179520D01*
X110899098Y-200031855D01*
X110947701Y-199871629D01*
X110963620Y-199710000D01*
X117575888Y-199710000D01*
X117575888Y-201610000D01*
X117592300Y-201776629D01*
X117640903Y-201936855D01*
X117719832Y-202084519D01*
X117826052Y-202213948D01*
X117955481Y-202320168D01*
X118103145Y-202399097D01*
X118263371Y-202447700D01*
X118430000Y-202464112D01*
X120330000Y-202464112D01*
X120496629Y-202447700D01*
X120649998Y-202401177D01*
X120803371Y-202447701D01*
X120970000Y-202464113D01*
X121657500Y-202460000D01*
X121870000Y-202247500D01*
X121870000Y-200710000D01*
X121850000Y-200710000D01*
X121850000Y-200610000D01*
X121870000Y-200610000D01*
X121870000Y-199072500D01*
X121657500Y-198860000D01*
X120970000Y-198855887D01*
X120803371Y-198872299D01*
X120649998Y-198918823D01*
X120496629Y-198872300D01*
X120330000Y-198855888D01*
X118430000Y-198855888D01*
X118263371Y-198872300D01*
X118103145Y-198920903D01*
X117955481Y-198999832D01*
X117826052Y-199106052D01*
X117719832Y-199235481D01*
X117640903Y-199383145D01*
X117592300Y-199543371D01*
X117575888Y-199710000D01*
X110963620Y-199710000D01*
X110964113Y-199705000D01*
X110960000Y-199017500D01*
X110747500Y-198805000D01*
X109210000Y-198805000D01*
X109110000Y-198805000D01*
X109090000Y-198805000D01*
X109090000Y-198705000D01*
X109110000Y-198705000D01*
X109110000Y-197167500D01*
X109210000Y-197167500D01*
X109210000Y-198705000D01*
X110747500Y-198705000D01*
X110960000Y-198492500D01*
X110964113Y-197805000D01*
X110947701Y-197638371D01*
X110899098Y-197478145D01*
X110820169Y-197330480D01*
X110713949Y-197201051D01*
X110584520Y-197094831D01*
X110436855Y-197015902D01*
X110276629Y-196967299D01*
X110110000Y-196950887D01*
X109422500Y-196955000D01*
X109210000Y-197167500D01*
X109110000Y-197167500D01*
X108897500Y-196955000D01*
X108210000Y-196950887D01*
X108043371Y-196967299D01*
X107909998Y-197007756D01*
X107776629Y-196967300D01*
X107610000Y-196950888D01*
X105710000Y-196950888D01*
X105543371Y-196967300D01*
X105410000Y-197007757D01*
X105276629Y-196967300D01*
X105110000Y-196950888D01*
X103210000Y-196950888D01*
X103043371Y-196967300D01*
X102883145Y-197015903D01*
X102735481Y-197094832D01*
X102606052Y-197201052D01*
X102594795Y-197214769D01*
X102512620Y-197159861D01*
X102185041Y-197024173D01*
X101837284Y-196955000D01*
X101482716Y-196955000D01*
X101134959Y-197024173D01*
X100807380Y-197159861D01*
X100512567Y-197356849D01*
X100464416Y-197405000D01*
X100254189Y-197405000D01*
X99140000Y-196290812D01*
X99140000Y-195332142D01*
X99160000Y-195334112D01*
X101660000Y-195334112D01*
X101826629Y-195317700D01*
X101986855Y-195269097D01*
X102134519Y-195190168D01*
X102263948Y-195083948D01*
X102370168Y-194954519D01*
X102449097Y-194806855D01*
X102497700Y-194646629D01*
X102504263Y-194580000D01*
X103315737Y-194580000D01*
X103322300Y-194646629D01*
X103370903Y-194806855D01*
X103449832Y-194954519D01*
X103556052Y-195083948D01*
X103685481Y-195190168D01*
X103833145Y-195269097D01*
X103993371Y-195317700D01*
X104160000Y-195334112D01*
X106660000Y-195334112D01*
X106826629Y-195317700D01*
X106986855Y-195269097D01*
X107134519Y-195190168D01*
X107263948Y-195083948D01*
X107370168Y-194954519D01*
X107449097Y-194806855D01*
X107497700Y-194646629D01*
X107514112Y-194480000D01*
X107514112Y-194202200D01*
X107703851Y-194357915D01*
X107938378Y-194483272D01*
X108192854Y-194560467D01*
X108314998Y-194572497D01*
X108322300Y-194646629D01*
X108370903Y-194806855D01*
X108449832Y-194954519D01*
X108556052Y-195083948D01*
X108685481Y-195190168D01*
X108833145Y-195269097D01*
X108993371Y-195317700D01*
X109160000Y-195334112D01*
X111660000Y-195334112D01*
X111826629Y-195317700D01*
X111986855Y-195269097D01*
X112134519Y-195190168D01*
X112263948Y-195083948D01*
X112370168Y-194954519D01*
X112449097Y-194806855D01*
X112497700Y-194646629D01*
X112514112Y-194480000D01*
X112514112Y-191980000D01*
X112497700Y-191813371D01*
X112449097Y-191653145D01*
X112370168Y-191505481D01*
X112263948Y-191376052D01*
X112134519Y-191269832D01*
X112060001Y-191230001D01*
X112134520Y-191190169D01*
X112263949Y-191083949D01*
X112370169Y-190954520D01*
X112449098Y-190806855D01*
X112497701Y-190646629D01*
X112514113Y-190480000D01*
X112510000Y-189492500D01*
X112297500Y-189280000D01*
X110460000Y-189280000D01*
X110460000Y-189300000D01*
X110360000Y-189300000D01*
X110360000Y-189280000D01*
X110340000Y-189280000D01*
X110340000Y-189180000D01*
X110360000Y-189180000D01*
X110360000Y-189160000D01*
X110460000Y-189160000D01*
X110460000Y-189180000D01*
X112297500Y-189180000D01*
X112510000Y-188967500D01*
X112514113Y-187980000D01*
X112497701Y-187813371D01*
X112449098Y-187653145D01*
X112370169Y-187505480D01*
X112263949Y-187376051D01*
X112134520Y-187269831D01*
X112060001Y-187229999D01*
X112134519Y-187190168D01*
X112263948Y-187083948D01*
X112370168Y-186954519D01*
X112449097Y-186806855D01*
X112497700Y-186646629D01*
X112514112Y-186480000D01*
X112514112Y-183980000D01*
X112497700Y-183813371D01*
X112449097Y-183653145D01*
X112370168Y-183505481D01*
X112263948Y-183376052D01*
X112134519Y-183269832D01*
X111986855Y-183190903D01*
X111826629Y-183142300D01*
X111660000Y-183125888D01*
X109160000Y-183125888D01*
X108993371Y-183142300D01*
X108833145Y-183190903D01*
X108685481Y-183269832D01*
X108556052Y-183376052D01*
X108449832Y-183505481D01*
X108370903Y-183653145D01*
X108322300Y-183813371D01*
X108305888Y-183980000D01*
X108305888Y-184501700D01*
X108126491Y-184322303D01*
X108084213Y-184270787D01*
X107878649Y-184102085D01*
X107644122Y-183976728D01*
X107509776Y-183935974D01*
X107497700Y-183813371D01*
X107449097Y-183653145D01*
X107370168Y-183505481D01*
X107263948Y-183376052D01*
X107134519Y-183269832D01*
X106986855Y-183190903D01*
X106826629Y-183142300D01*
X106660000Y-183125888D01*
X104160000Y-183125888D01*
X103993371Y-183142300D01*
X103833346Y-183190842D01*
X107587697Y-179436491D01*
X107639213Y-179394213D01*
X107642670Y-179390000D01*
X108685888Y-179390000D01*
X108685888Y-181290000D01*
X108702300Y-181456629D01*
X108750903Y-181616855D01*
X108829832Y-181764519D01*
X108936052Y-181893948D01*
X109065481Y-182000168D01*
X109213145Y-182079097D01*
X109373371Y-182127700D01*
X109540000Y-182144112D01*
X111440000Y-182144112D01*
X111606629Y-182127700D01*
X111766855Y-182079097D01*
X111914519Y-182000168D01*
X112000018Y-181930000D01*
X115035888Y-181930000D01*
X115035888Y-183830000D01*
X115052300Y-183996629D01*
X115100903Y-184156855D01*
X115179832Y-184304519D01*
X115286052Y-184433948D01*
X115415481Y-184540168D01*
X115563145Y-184619097D01*
X115723371Y-184667700D01*
X115890000Y-184684112D01*
X117790000Y-184684112D01*
X117956629Y-184667700D01*
X118116855Y-184619097D01*
X118264519Y-184540168D01*
X118393948Y-184433948D01*
X118500168Y-184304519D01*
X118579097Y-184156855D01*
X118627700Y-183996629D01*
X118644112Y-183830000D01*
X118644112Y-181930000D01*
X125195888Y-181930000D01*
X125195888Y-183830000D01*
X125212300Y-183996629D01*
X125260903Y-184156855D01*
X125339832Y-184304519D01*
X125446052Y-184433948D01*
X125575481Y-184540168D01*
X125723145Y-184619097D01*
X125883371Y-184667700D01*
X126050000Y-184684112D01*
X127950000Y-184684112D01*
X128116629Y-184667700D01*
X128276855Y-184619097D01*
X128424519Y-184540168D01*
X128553948Y-184433948D01*
X128660168Y-184304519D01*
X128739097Y-184156855D01*
X128787700Y-183996629D01*
X128804112Y-183830000D01*
X128804112Y-181930000D01*
X129005888Y-181930000D01*
X129005888Y-183830000D01*
X129022300Y-183996629D01*
X129070903Y-184156855D01*
X129149832Y-184304519D01*
X129256052Y-184433948D01*
X129385481Y-184540168D01*
X129533145Y-184619097D01*
X129693371Y-184667700D01*
X129860000Y-184684112D01*
X131760000Y-184684112D01*
X131926629Y-184667700D01*
X132086855Y-184619097D01*
X132234519Y-184540168D01*
X132363948Y-184433948D01*
X132470168Y-184304519D01*
X132549097Y-184156855D01*
X132597700Y-183996629D01*
X132614112Y-183830000D01*
X132614112Y-181930000D01*
X132597700Y-181763371D01*
X132549097Y-181603145D01*
X132470168Y-181455481D01*
X132363948Y-181326052D01*
X132234519Y-181219832D01*
X132086855Y-181140903D01*
X131926629Y-181092300D01*
X131760000Y-181075888D01*
X129860000Y-181075888D01*
X129693371Y-181092300D01*
X129533145Y-181140903D01*
X129385481Y-181219832D01*
X129256052Y-181326052D01*
X129149832Y-181455481D01*
X129070903Y-181603145D01*
X129022300Y-181763371D01*
X129005888Y-181930000D01*
X128804112Y-181930000D01*
X128787700Y-181763371D01*
X128739097Y-181603145D01*
X128660168Y-181455481D01*
X128553948Y-181326052D01*
X128424519Y-181219832D01*
X128276855Y-181140903D01*
X128116629Y-181092300D01*
X127950000Y-181075888D01*
X126050000Y-181075888D01*
X125883371Y-181092300D01*
X125723145Y-181140903D01*
X125575481Y-181219832D01*
X125446052Y-181326052D01*
X125339832Y-181455481D01*
X125260903Y-181603145D01*
X125212300Y-181763371D01*
X125195888Y-181930000D01*
X118644112Y-181930000D01*
X118627700Y-181763371D01*
X118579097Y-181603145D01*
X118500168Y-181455481D01*
X118393948Y-181326052D01*
X118264519Y-181219832D01*
X118116855Y-181140903D01*
X117956629Y-181092300D01*
X117790000Y-181075888D01*
X115890000Y-181075888D01*
X115723371Y-181092300D01*
X115563145Y-181140903D01*
X115415481Y-181219832D01*
X115286052Y-181326052D01*
X115179832Y-181455481D01*
X115100903Y-181603145D01*
X115052300Y-181763371D01*
X115035888Y-181930000D01*
X112000018Y-181930000D01*
X112043948Y-181893948D01*
X112150168Y-181764519D01*
X112229097Y-181616855D01*
X112277700Y-181456629D01*
X112294112Y-181290000D01*
X112294112Y-179390000D01*
X112277700Y-179223371D01*
X112229097Y-179063145D01*
X112150168Y-178915481D01*
X112043948Y-178786052D01*
X112000019Y-178750000D01*
X120115887Y-178750000D01*
X120132299Y-178916629D01*
X120180902Y-179076855D01*
X120259831Y-179224520D01*
X120366051Y-179353949D01*
X120495480Y-179460169D01*
X120643145Y-179539098D01*
X120803371Y-179587701D01*
X120970000Y-179604113D01*
X121657500Y-179600000D01*
X121870000Y-179387500D01*
X121870000Y-177850000D01*
X121970000Y-177850000D01*
X121970000Y-179387500D01*
X122182500Y-179600000D01*
X122870000Y-179604113D01*
X123036629Y-179587701D01*
X123196855Y-179539098D01*
X123344520Y-179460169D01*
X123473949Y-179353949D01*
X123580169Y-179224520D01*
X123659098Y-179076855D01*
X123707701Y-178916629D01*
X123724113Y-178750000D01*
X123720000Y-178062500D01*
X123507500Y-177850000D01*
X121970000Y-177850000D01*
X121870000Y-177850000D01*
X120332500Y-177850000D01*
X120120000Y-178062500D01*
X120115887Y-178750000D01*
X112000019Y-178750000D01*
X111914519Y-178679832D01*
X111766855Y-178600903D01*
X111606629Y-178552300D01*
X111440000Y-178535888D01*
X109540000Y-178535888D01*
X109373371Y-178552300D01*
X109213145Y-178600903D01*
X109065481Y-178679832D01*
X108936052Y-178786052D01*
X108829832Y-178915481D01*
X108750903Y-179063145D01*
X108702300Y-179223371D01*
X108685888Y-179390000D01*
X107642670Y-179390000D01*
X107747073Y-179262785D01*
X107807915Y-179188650D01*
X107932501Y-178955564D01*
X107933272Y-178954122D01*
X108010467Y-178699646D01*
X108030000Y-178501321D01*
X108030000Y-178501312D01*
X108036531Y-178435001D01*
X108030000Y-178368690D01*
X108030000Y-175407363D01*
X108066999Y-175376999D01*
X108244106Y-175161194D01*
X108375708Y-174914984D01*
X108456748Y-174647830D01*
X108484112Y-174370000D01*
X108484112Y-173610000D01*
X108456748Y-173332170D01*
X108375708Y-173065016D01*
X108244106Y-172818806D01*
X108066999Y-172603001D01*
X108030000Y-172572637D01*
X108030000Y-171516321D01*
X108036532Y-171450000D01*
X108030000Y-171383679D01*
X108030000Y-169405444D01*
X108103371Y-169427700D01*
X108270000Y-169444112D01*
X110170000Y-169444112D01*
X110336629Y-169427700D01*
X110496855Y-169379097D01*
X110644519Y-169300168D01*
X110773948Y-169193948D01*
X110880168Y-169064519D01*
X110959097Y-168916855D01*
X111007700Y-168756629D01*
X111024112Y-168590000D01*
X111024112Y-166690000D01*
X111007700Y-166523371D01*
X110959097Y-166363145D01*
X110880168Y-166215481D01*
X110773948Y-166086052D01*
X110644519Y-165979832D01*
X110496855Y-165900903D01*
X110336629Y-165852300D01*
X110170000Y-165835888D01*
X108270000Y-165835888D01*
X108103371Y-165852300D01*
X108030000Y-165874556D01*
X108030000Y-165024188D01*
X109544188Y-163510000D01*
X112495887Y-163510000D01*
X112512299Y-163676629D01*
X112560902Y-163836855D01*
X112639831Y-163984520D01*
X112746051Y-164113949D01*
X112875480Y-164220169D01*
X113023145Y-164299098D01*
X113183371Y-164347701D01*
X113350000Y-164364113D01*
X114037500Y-164360000D01*
X114250000Y-164147500D01*
X114250000Y-162610000D01*
X114350000Y-162610000D01*
X114350000Y-164147500D01*
X114562500Y-164360000D01*
X115250000Y-164364113D01*
X115416629Y-164347701D01*
X115576855Y-164299098D01*
X115724520Y-164220169D01*
X115853949Y-164113949D01*
X115960169Y-163984520D01*
X116039098Y-163836855D01*
X116087701Y-163676629D01*
X116104113Y-163510000D01*
X116100000Y-162822500D01*
X115887500Y-162610000D01*
X114350000Y-162610000D01*
X114250000Y-162610000D01*
X112712500Y-162610000D01*
X112500000Y-162822500D01*
X112495887Y-163510000D01*
X109544188Y-163510000D01*
X111444188Y-161610000D01*
X112495887Y-161610000D01*
X112500000Y-162297500D01*
X112712500Y-162510000D01*
X114250000Y-162510000D01*
X114250000Y-160972500D01*
X114350000Y-160972500D01*
X114350000Y-162510000D01*
X115887500Y-162510000D01*
X116100000Y-162297500D01*
X116104113Y-161610000D01*
X116087701Y-161443371D01*
X116039098Y-161283145D01*
X115960169Y-161135480D01*
X115853949Y-161006051D01*
X115724520Y-160899831D01*
X115576855Y-160820902D01*
X115416629Y-160772299D01*
X115250000Y-160755887D01*
X114562500Y-160760000D01*
X114350000Y-160972500D01*
X114250000Y-160972500D01*
X114037500Y-160760000D01*
X113350000Y-160755887D01*
X113183371Y-160772299D01*
X113023145Y-160820902D01*
X112875480Y-160899831D01*
X112746051Y-161006051D01*
X112639831Y-161135480D01*
X112560902Y-161283145D01*
X112512299Y-161443371D01*
X112495887Y-161610000D01*
X111444188Y-161610000D01*
X115207697Y-157846491D01*
X115259213Y-157804213D01*
X115427915Y-157598649D01*
X115553272Y-157364122D01*
X115630467Y-157109646D01*
X115650000Y-156911321D01*
X115650000Y-156911312D01*
X115656531Y-156845001D01*
X115650000Y-156778690D01*
X115650000Y-156640000D01*
X115724519Y-156600168D01*
X115853948Y-156493948D01*
X115960168Y-156364519D01*
X116039097Y-156216855D01*
X116087700Y-156056629D01*
X116104112Y-155890000D01*
X116104112Y-153990000D01*
X116087700Y-153823371D01*
X116039097Y-153663145D01*
X115960168Y-153515481D01*
X115855836Y-153388352D01*
X118034189Y-151210000D01*
X120564416Y-151210000D01*
X120521849Y-151252567D01*
X120324861Y-151547380D01*
X120189173Y-151874959D01*
X120120000Y-152222716D01*
X120120000Y-152577284D01*
X120189173Y-152925041D01*
X120324861Y-153252620D01*
X120397030Y-153360629D01*
X120366052Y-153386052D01*
X120259832Y-153515481D01*
X120180903Y-153663145D01*
X120132300Y-153823371D01*
X120115888Y-153990000D01*
X120115888Y-155890000D01*
X120132300Y-156056629D01*
X120178824Y-156210000D01*
X120142423Y-156330000D01*
X120071492Y-156330000D01*
X120015000Y-156324436D01*
X119789561Y-156346640D01*
X119572784Y-156412398D01*
X119529678Y-156435439D01*
X119373003Y-156519184D01*
X119197893Y-156662893D01*
X119161875Y-156706781D01*
X118606781Y-157261875D01*
X118562893Y-157297893D01*
X118419184Y-157473004D01*
X118312398Y-157672786D01*
X118246640Y-157889562D01*
X118230000Y-158058509D01*
X118230000Y-158058518D01*
X118224437Y-158115000D01*
X118230000Y-158171482D01*
X118230001Y-174568508D01*
X118224437Y-174625000D01*
X118230001Y-174681491D01*
X118230001Y-174681492D01*
X118246641Y-174850439D01*
X118312399Y-175067215D01*
X118419185Y-175266997D01*
X118562894Y-175442107D01*
X118606776Y-175478120D01*
X119161875Y-176033219D01*
X119197893Y-176077107D01*
X119373003Y-176220816D01*
X119456328Y-176265354D01*
X119572784Y-176327602D01*
X119734406Y-176376629D01*
X119789561Y-176393360D01*
X119875751Y-176401849D01*
X120015000Y-176415564D01*
X120071492Y-176410000D01*
X120142423Y-176410000D01*
X120178823Y-176529998D01*
X120132299Y-176683371D01*
X120115887Y-176850000D01*
X120120000Y-177537500D01*
X120332500Y-177750000D01*
X121870000Y-177750000D01*
X121870000Y-177730000D01*
X121970000Y-177730000D01*
X121970000Y-177750000D01*
X123507500Y-177750000D01*
X123720000Y-177537500D01*
X123724113Y-176850000D01*
X123707701Y-176683371D01*
X123661177Y-176529998D01*
X123707700Y-176376629D01*
X123724112Y-176210000D01*
X123724112Y-174310000D01*
X123707700Y-174143371D01*
X123661176Y-173990000D01*
X123707700Y-173836629D01*
X123724112Y-173670000D01*
X123724112Y-171770000D01*
X123707700Y-171603371D01*
X123659097Y-171443145D01*
X123580168Y-171295481D01*
X123473948Y-171166052D01*
X123442970Y-171140629D01*
X123515139Y-171032620D01*
X123650827Y-170705041D01*
X123720000Y-170357284D01*
X123720000Y-170002716D01*
X123650827Y-169654959D01*
X123515139Y-169327380D01*
X123318151Y-169032567D01*
X123067433Y-168781849D01*
X122772620Y-168584861D01*
X122445041Y-168449173D01*
X122097284Y-168380000D01*
X121742716Y-168380000D01*
X121394959Y-168449173D01*
X121067380Y-168584861D01*
X120772567Y-168781849D01*
X120530000Y-169024416D01*
X120530000Y-166255584D01*
X120772567Y-166498151D01*
X121067380Y-166695139D01*
X121394959Y-166830827D01*
X121742716Y-166900000D01*
X122097284Y-166900000D01*
X122445041Y-166830827D01*
X122772620Y-166695139D01*
X123067433Y-166498151D01*
X123318151Y-166247433D01*
X123515139Y-165952620D01*
X123650827Y-165625041D01*
X123720000Y-165277284D01*
X123720000Y-164922716D01*
X123650827Y-164574959D01*
X123515139Y-164247380D01*
X123318151Y-163952567D01*
X123067433Y-163701849D01*
X122772620Y-163504861D01*
X122445041Y-163369173D01*
X122097284Y-163300000D01*
X121742716Y-163300000D01*
X121394959Y-163369173D01*
X121067380Y-163504861D01*
X120772567Y-163701849D01*
X120530000Y-163944416D01*
X120530000Y-161698620D01*
X120643145Y-161759098D01*
X120803371Y-161807701D01*
X120970000Y-161824113D01*
X121657500Y-161820000D01*
X121870000Y-161607500D01*
X121870000Y-160070000D01*
X121970000Y-160070000D01*
X121970000Y-161607500D01*
X122182500Y-161820000D01*
X122870000Y-161824113D01*
X123036629Y-161807701D01*
X123196855Y-161759098D01*
X123344520Y-161680169D01*
X123473949Y-161573949D01*
X123580169Y-161444520D01*
X123659098Y-161296855D01*
X123707701Y-161136629D01*
X123724113Y-160970000D01*
X123720000Y-160282500D01*
X123507500Y-160070000D01*
X121970000Y-160070000D01*
X121870000Y-160070000D01*
X121850000Y-160070000D01*
X121850000Y-159970000D01*
X121870000Y-159970000D01*
X121870000Y-159950000D01*
X121970000Y-159950000D01*
X121970000Y-159970000D01*
X123507500Y-159970000D01*
X123720000Y-159757500D01*
X123724113Y-159070000D01*
X123707701Y-158903371D01*
X123661177Y-158749998D01*
X123707700Y-158596629D01*
X123724112Y-158430000D01*
X123724112Y-156530000D01*
X123717060Y-156458405D01*
X124580000Y-157321345D01*
X124580001Y-175838508D01*
X124574437Y-175895000D01*
X124580001Y-175951491D01*
X124580001Y-175951492D01*
X124596641Y-176120439D01*
X124662399Y-176337215D01*
X124769185Y-176536997D01*
X124912894Y-176712107D01*
X124956774Y-176748118D01*
X126781880Y-178573225D01*
X126817893Y-178617107D01*
X126993003Y-178760816D01*
X127192785Y-178867602D01*
X127409561Y-178933360D01*
X127578508Y-178950000D01*
X127578516Y-178950000D01*
X127635000Y-178955563D01*
X127691484Y-178950000D01*
X127762423Y-178950000D01*
X127800903Y-179076855D01*
X127879832Y-179224519D01*
X127986052Y-179353948D01*
X128115481Y-179460168D01*
X128263145Y-179539097D01*
X128423371Y-179587700D01*
X128590000Y-179604112D01*
X130490000Y-179604112D01*
X130656629Y-179587700D01*
X130816855Y-179539097D01*
X130964519Y-179460168D01*
X131093948Y-179353948D01*
X131200168Y-179224519D01*
X131279097Y-179076855D01*
X131327700Y-178916629D01*
X131344112Y-178750000D01*
X131344112Y-176850000D01*
X131327700Y-176683371D01*
X131281176Y-176530000D01*
X131327700Y-176376629D01*
X131344112Y-176210000D01*
X131344112Y-174310000D01*
X131327700Y-174143371D01*
X131281176Y-173990000D01*
X131327700Y-173836629D01*
X131344112Y-173670000D01*
X135355887Y-173670000D01*
X135372299Y-173836629D01*
X135420902Y-173996855D01*
X135499831Y-174144520D01*
X135606051Y-174273949D01*
X135735480Y-174380169D01*
X135883145Y-174459098D01*
X136043371Y-174507701D01*
X136210000Y-174524113D01*
X136897500Y-174520000D01*
X137110000Y-174307500D01*
X137110000Y-172770000D01*
X135572500Y-172770000D01*
X135360000Y-172982500D01*
X135355887Y-173670000D01*
X131344112Y-173670000D01*
X131344112Y-171770000D01*
X131327700Y-171603371D01*
X131305444Y-171530000D01*
X131378681Y-171530000D01*
X131445000Y-171536532D01*
X131511319Y-171530000D01*
X131511321Y-171530000D01*
X131709646Y-171510467D01*
X131964122Y-171433272D01*
X132198649Y-171307915D01*
X132404213Y-171139213D01*
X132446492Y-171087696D01*
X132987692Y-170546495D01*
X133039213Y-170504213D01*
X133207915Y-170298649D01*
X133303654Y-170119534D01*
X133333272Y-170064123D01*
X133366507Y-169954561D01*
X133410467Y-169809646D01*
X133430000Y-169611321D01*
X133430000Y-169611319D01*
X133436532Y-169545000D01*
X133430000Y-169478681D01*
X133430000Y-153101319D01*
X133436532Y-153035000D01*
X133419956Y-152866703D01*
X133410467Y-152770354D01*
X133340052Y-152538228D01*
X133333272Y-152515877D01*
X133267594Y-152393003D01*
X133207915Y-152281351D01*
X133039212Y-152075787D01*
X132987696Y-152033509D01*
X132446492Y-151492304D01*
X132404213Y-151440787D01*
X132198649Y-151272085D01*
X131964122Y-151146728D01*
X131709646Y-151069533D01*
X131511321Y-151050000D01*
X131511319Y-151050000D01*
X131445000Y-151043468D01*
X131378681Y-151050000D01*
X131240000Y-151050000D01*
X131200168Y-150975481D01*
X131093948Y-150846052D01*
X130964519Y-150739832D01*
X130890000Y-150700000D01*
X130890000Y-149926321D01*
X130896532Y-149860000D01*
X130890000Y-149793679D01*
X130890000Y-143435584D01*
X130938151Y-143387433D01*
X131135139Y-143092620D01*
X131270827Y-142765041D01*
X131340000Y-142417284D01*
X131340000Y-142062716D01*
X131270827Y-141714959D01*
X131135139Y-141387380D01*
X130938151Y-141092567D01*
X130929516Y-141083932D01*
X131104106Y-140871194D01*
X131235708Y-140624984D01*
X131316748Y-140357830D01*
X131344112Y-140080000D01*
X131344112Y-139320000D01*
X131316748Y-139042170D01*
X131235708Y-138775016D01*
X131104106Y-138528806D01*
X131088672Y-138510000D01*
X132854556Y-138510000D01*
X132832300Y-138583371D01*
X132815888Y-138750000D01*
X132815888Y-140650000D01*
X132832300Y-140816629D01*
X132880903Y-140976855D01*
X132959832Y-141124519D01*
X133066052Y-141253948D01*
X133195481Y-141360168D01*
X133343145Y-141439097D01*
X133503371Y-141487700D01*
X133670000Y-141504112D01*
X135355888Y-141504112D01*
X135355888Y-143190000D01*
X135372300Y-143356629D01*
X135420903Y-143516855D01*
X135499832Y-143664519D01*
X135606052Y-143793948D01*
X135735481Y-143900168D01*
X135883145Y-143979097D01*
X136043371Y-144027700D01*
X136210000Y-144044112D01*
X138110000Y-144044112D01*
X138276629Y-144027700D01*
X138350000Y-144005444D01*
X138350000Y-144284556D01*
X138276629Y-144262300D01*
X138110000Y-144245888D01*
X136210000Y-144245888D01*
X136043371Y-144262300D01*
X135883145Y-144310903D01*
X135735481Y-144389832D01*
X135606052Y-144496052D01*
X135499832Y-144625481D01*
X135420903Y-144773145D01*
X135372300Y-144933371D01*
X135355888Y-145100000D01*
X135355888Y-147000000D01*
X135372300Y-147166629D01*
X135420903Y-147326855D01*
X135499832Y-147474519D01*
X135606052Y-147603948D01*
X135735481Y-147710168D01*
X135883145Y-147789097D01*
X136043371Y-147837700D01*
X136210000Y-147854112D01*
X138110000Y-147854112D01*
X138276629Y-147837700D01*
X138350000Y-147815444D01*
X138350000Y-150634556D01*
X138276629Y-150612300D01*
X138110000Y-150595888D01*
X136424112Y-150595888D01*
X136424112Y-148910000D01*
X136407700Y-148743371D01*
X136359097Y-148583145D01*
X136280168Y-148435481D01*
X136173948Y-148306052D01*
X136044519Y-148199832D01*
X135896855Y-148120903D01*
X135736629Y-148072300D01*
X135570000Y-148055888D01*
X133670000Y-148055888D01*
X133503371Y-148072300D01*
X133343145Y-148120903D01*
X133195481Y-148199832D01*
X133066052Y-148306052D01*
X132959832Y-148435481D01*
X132880903Y-148583145D01*
X132832300Y-148743371D01*
X132815888Y-148910000D01*
X132815888Y-150810000D01*
X132832300Y-150976629D01*
X132880903Y-151136855D01*
X132959832Y-151284519D01*
X133066052Y-151413948D01*
X133195481Y-151520168D01*
X133343145Y-151599097D01*
X133503371Y-151647700D01*
X133670000Y-151664112D01*
X135355888Y-151664112D01*
X135355888Y-153350000D01*
X135372300Y-153516629D01*
X135420903Y-153676855D01*
X135499832Y-153824519D01*
X135606052Y-153953948D01*
X135735481Y-154060168D01*
X135883145Y-154139097D01*
X136043371Y-154187700D01*
X136210000Y-154204112D01*
X138110000Y-154204112D01*
X138276629Y-154187700D01*
X138350000Y-154165444D01*
X138350000Y-156124416D01*
X138307433Y-156081849D01*
X138012620Y-155884861D01*
X137685041Y-155749173D01*
X137337284Y-155680000D01*
X136982716Y-155680000D01*
X136634959Y-155749173D01*
X136307380Y-155884861D01*
X136012567Y-156081849D01*
X135761849Y-156332567D01*
X135564861Y-156627380D01*
X135429173Y-156954959D01*
X135360000Y-157302716D01*
X135360000Y-157657284D01*
X135429173Y-158005041D01*
X135564861Y-158332620D01*
X135637030Y-158440629D01*
X135606052Y-158466052D01*
X135499832Y-158595481D01*
X135420903Y-158743145D01*
X135372300Y-158903371D01*
X135355888Y-159070000D01*
X135355888Y-160970000D01*
X135372300Y-161136629D01*
X135418823Y-161289998D01*
X135372299Y-161443371D01*
X135355887Y-161610000D01*
X135360000Y-162297500D01*
X135572500Y-162510000D01*
X137110000Y-162510000D01*
X137110000Y-162490000D01*
X137210000Y-162490000D01*
X137210000Y-162510000D01*
X137230000Y-162510000D01*
X137230000Y-162610000D01*
X137210000Y-162610000D01*
X137210000Y-162630000D01*
X137110000Y-162630000D01*
X137110000Y-162610000D01*
X135572500Y-162610000D01*
X135360000Y-162822500D01*
X135355887Y-163510000D01*
X135372299Y-163676629D01*
X135418823Y-163830002D01*
X135372300Y-163983371D01*
X135355888Y-164150000D01*
X135355888Y-166050000D01*
X135372300Y-166216629D01*
X135418823Y-166369998D01*
X135372299Y-166523371D01*
X135355887Y-166690000D01*
X135360000Y-167377500D01*
X135572500Y-167590000D01*
X137110000Y-167590000D01*
X137110000Y-167570000D01*
X137210000Y-167570000D01*
X137210000Y-167590000D01*
X137230000Y-167590000D01*
X137230000Y-167690000D01*
X137210000Y-167690000D01*
X137210000Y-167710000D01*
X137110000Y-167710000D01*
X137110000Y-167690000D01*
X135572500Y-167690000D01*
X135360000Y-167902500D01*
X135355887Y-168590000D01*
X135372299Y-168756629D01*
X135418823Y-168910002D01*
X135372300Y-169063371D01*
X135355888Y-169230000D01*
X135355888Y-171130000D01*
X135372300Y-171296629D01*
X135418823Y-171449998D01*
X135372299Y-171603371D01*
X135355887Y-171770000D01*
X135360000Y-172457500D01*
X135572500Y-172670000D01*
X137110000Y-172670000D01*
X137110000Y-172650000D01*
X137210000Y-172650000D01*
X137210000Y-172670000D01*
X137230000Y-172670000D01*
X137230000Y-172770000D01*
X137210000Y-172770000D01*
X137210000Y-174307500D01*
X137422500Y-174520000D01*
X138110000Y-174524113D01*
X138276629Y-174507701D01*
X138350001Y-174485444D01*
X138350001Y-180273668D01*
X138343468Y-180340000D01*
X138350000Y-180406321D01*
X138350001Y-184860811D01*
X136600812Y-186610000D01*
X135975584Y-186610000D01*
X136018151Y-186567433D01*
X136215139Y-186272620D01*
X136350827Y-185945041D01*
X136420000Y-185597284D01*
X136420000Y-185242716D01*
X136350827Y-184894959D01*
X136215139Y-184567380D01*
X136142970Y-184459371D01*
X136173948Y-184433948D01*
X136280168Y-184304519D01*
X136359097Y-184156855D01*
X136407700Y-183996629D01*
X136424112Y-183830000D01*
X136424112Y-181930000D01*
X136407700Y-181763371D01*
X136361176Y-181610000D01*
X136407700Y-181456629D01*
X136424112Y-181290000D01*
X136424112Y-179390000D01*
X136407700Y-179223371D01*
X136361176Y-179070000D01*
X136407700Y-178916629D01*
X136424112Y-178750000D01*
X136424112Y-176850000D01*
X136407700Y-176683371D01*
X136359097Y-176523145D01*
X136280168Y-176375481D01*
X136173948Y-176246052D01*
X136044519Y-176139832D01*
X135896855Y-176060903D01*
X135736629Y-176012300D01*
X135570000Y-175995888D01*
X133670000Y-175995888D01*
X133503371Y-176012300D01*
X133343145Y-176060903D01*
X133195481Y-176139832D01*
X133066052Y-176246052D01*
X132959832Y-176375481D01*
X132880903Y-176523145D01*
X132832300Y-176683371D01*
X132815888Y-176850000D01*
X132815888Y-178750000D01*
X132832300Y-178916629D01*
X132878824Y-179070000D01*
X132832300Y-179223371D01*
X132815888Y-179390000D01*
X132815888Y-181290000D01*
X132832300Y-181456629D01*
X132878824Y-181610000D01*
X132832300Y-181763371D01*
X132815888Y-181930000D01*
X132815888Y-183830000D01*
X132832300Y-183996629D01*
X132880903Y-184156855D01*
X132959832Y-184304519D01*
X133066052Y-184433948D01*
X133097030Y-184459371D01*
X133024861Y-184567380D01*
X132889173Y-184894959D01*
X132820000Y-185242716D01*
X132820000Y-185597284D01*
X132889173Y-185945041D01*
X133024861Y-186272620D01*
X133221849Y-186567433D01*
X133264416Y-186610000D01*
X132510000Y-186610000D01*
X132470168Y-186535481D01*
X132363948Y-186406052D01*
X132234519Y-186299832D01*
X132086855Y-186220903D01*
X131926629Y-186172300D01*
X131760000Y-186155888D01*
X129860000Y-186155888D01*
X129693371Y-186172300D01*
X129533145Y-186220903D01*
X129385481Y-186299832D01*
X129256052Y-186406052D01*
X129149832Y-186535481D01*
X129110000Y-186610000D01*
X128700000Y-186610000D01*
X128660168Y-186535481D01*
X128553948Y-186406052D01*
X128424519Y-186299832D01*
X128276855Y-186220903D01*
X128116629Y-186172300D01*
X127950000Y-186155888D01*
X126050000Y-186155888D01*
X125883371Y-186172300D01*
X125723145Y-186220903D01*
X125575481Y-186299832D01*
X125446052Y-186406052D01*
X125339832Y-186535481D01*
X125260903Y-186683145D01*
X125212300Y-186843371D01*
X125195888Y-187010000D01*
X125195888Y-188695888D01*
X123510000Y-188695888D01*
X123343371Y-188712300D01*
X123190000Y-188758824D01*
X123036629Y-188712300D01*
X122870000Y-188695888D01*
X120970000Y-188695888D01*
X120803371Y-188712300D01*
X120650000Y-188758824D01*
X120496629Y-188712300D01*
X120330000Y-188695888D01*
X118644112Y-188695888D01*
X118644112Y-187010000D01*
X118627700Y-186843371D01*
X118579097Y-186683145D01*
X118500168Y-186535481D01*
X118393948Y-186406052D01*
X118264519Y-186299832D01*
X118116855Y-186220903D01*
X117956629Y-186172300D01*
X117790000Y-186155888D01*
X115890000Y-186155888D01*
X115723371Y-186172300D01*
X115563145Y-186220903D01*
X115415481Y-186299832D01*
X115286052Y-186406052D01*
X115179832Y-186535481D01*
X115100903Y-186683145D01*
X115052300Y-186843371D01*
X115035888Y-187010000D01*
X115035888Y-188910000D01*
X115052300Y-189076629D01*
X115100903Y-189236855D01*
X115179832Y-189384519D01*
X115286052Y-189513948D01*
X115415481Y-189620168D01*
X115563145Y-189699097D01*
X115723371Y-189747700D01*
X115890000Y-189764112D01*
X117575888Y-189764112D01*
X117575888Y-191450000D01*
X117592300Y-191616629D01*
X117640903Y-191776855D01*
X117719832Y-191924519D01*
X117826052Y-192053948D01*
X117955481Y-192160168D01*
X118103145Y-192239097D01*
X118263371Y-192287700D01*
X118430000Y-192304112D01*
X120330000Y-192304112D01*
X120496629Y-192287700D01*
X120650000Y-192241176D01*
X120803371Y-192287700D01*
X120970000Y-192304112D01*
X122870000Y-192304112D01*
X123036629Y-192287700D01*
X123190000Y-192241176D01*
X123343371Y-192287700D01*
X123510000Y-192304112D01*
X125410000Y-192304112D01*
X125576629Y-192287700D01*
X125650001Y-192265443D01*
X125650001Y-195513669D01*
X125643468Y-195580000D01*
X125650000Y-195646321D01*
X125650001Y-198894557D01*
X125576629Y-198872300D01*
X125410000Y-198855888D01*
X123510000Y-198855888D01*
X123343371Y-198872300D01*
X123190002Y-198918823D01*
X123036629Y-198872299D01*
X122870000Y-198855887D01*
X122182500Y-198860000D01*
X121970000Y-199072500D01*
X121970000Y-200610000D01*
X121990000Y-200610000D01*
X121990000Y-200710000D01*
X121970000Y-200710000D01*
X121970000Y-202247500D01*
X122182500Y-202460000D01*
X122870000Y-202464113D01*
X123036629Y-202447701D01*
X123190002Y-202401177D01*
X123343371Y-202447700D01*
X123510000Y-202464112D01*
X125410000Y-202464112D01*
X125576629Y-202447700D01*
X125736855Y-202399097D01*
X125884519Y-202320168D01*
X126013948Y-202213948D01*
X126120168Y-202084519D01*
X126160000Y-202010000D01*
X126298681Y-202010000D01*
X126365000Y-202016532D01*
X126431319Y-202010000D01*
X126431321Y-202010000D01*
X126629646Y-201990467D01*
X126884122Y-201913272D01*
X127118649Y-201787915D01*
X127324213Y-201619213D01*
X127366492Y-201567696D01*
X127907692Y-201026495D01*
X127959213Y-200984213D01*
X128127915Y-200778649D01*
X128218060Y-200610000D01*
X128253272Y-200544123D01*
X128271239Y-200484895D01*
X128330467Y-200289646D01*
X128350000Y-200091321D01*
X128350000Y-200091319D01*
X128356532Y-200025000D01*
X128350000Y-199958681D01*
X128350000Y-196930000D01*
X129044556Y-196930000D01*
X129022300Y-197003371D01*
X129005888Y-197170000D01*
X129005888Y-199070000D01*
X129022300Y-199236629D01*
X129070903Y-199396855D01*
X129149832Y-199544519D01*
X129256052Y-199673948D01*
X129385481Y-199780168D01*
X129533145Y-199859097D01*
X129693371Y-199907700D01*
X129860000Y-199924112D01*
X131760000Y-199924112D01*
X131926629Y-199907700D01*
X132086855Y-199859097D01*
X132234519Y-199780168D01*
X132363948Y-199673948D01*
X132470168Y-199544519D01*
X132549097Y-199396855D01*
X132597700Y-199236629D01*
X132614112Y-199070000D01*
X132614112Y-197170000D01*
X132597700Y-197003371D01*
X132551176Y-196850000D01*
X132597700Y-196696629D01*
X132614112Y-196530000D01*
X132614112Y-194630000D01*
X132597700Y-194463371D01*
X132551176Y-194310000D01*
X132597700Y-194156629D01*
X132614112Y-193990000D01*
X132614112Y-192090000D01*
X132597700Y-191923371D01*
X132549097Y-191763145D01*
X132470168Y-191615481D01*
X132363948Y-191486052D01*
X132234519Y-191379832D01*
X132086855Y-191300903D01*
X131926629Y-191252300D01*
X131760000Y-191235888D01*
X129860000Y-191235888D01*
X129693371Y-191252300D01*
X129533145Y-191300903D01*
X129385481Y-191379832D01*
X129256052Y-191486052D01*
X129149832Y-191615481D01*
X129070903Y-191763145D01*
X129022300Y-191923371D01*
X129005888Y-192090000D01*
X129005888Y-193990000D01*
X129022300Y-194156629D01*
X129044556Y-194230000D01*
X128350000Y-194230000D01*
X128350000Y-189660000D01*
X128424519Y-189620168D01*
X128553948Y-189513948D01*
X128660168Y-189384519D01*
X128700000Y-189310000D01*
X129110000Y-189310000D01*
X129149832Y-189384519D01*
X129256052Y-189513948D01*
X129385481Y-189620168D01*
X129533145Y-189699097D01*
X129693371Y-189747700D01*
X129860000Y-189764112D01*
X131760000Y-189764112D01*
X131926629Y-189747700D01*
X132086855Y-189699097D01*
X132234519Y-189620168D01*
X132363948Y-189513948D01*
X132470168Y-189384519D01*
X132510000Y-189310000D01*
X137093681Y-189310000D01*
X137160000Y-189316532D01*
X137226319Y-189310000D01*
X137226321Y-189310000D01*
X137424646Y-189290467D01*
X137679122Y-189213272D01*
X137913649Y-189087915D01*
X138119213Y-188919213D01*
X138161491Y-188867697D01*
X140259188Y-186770000D01*
X140540000Y-186770000D01*
X140579832Y-186844519D01*
X140686052Y-186973948D01*
X140815481Y-187080168D01*
X140963145Y-187159097D01*
X141123371Y-187207700D01*
X141290000Y-187224112D01*
X143190000Y-187224112D01*
X143356629Y-187207700D01*
X143516855Y-187159097D01*
X143664519Y-187080168D01*
X143793948Y-186973948D01*
X143900168Y-186844519D01*
X143979097Y-186696855D01*
X144027700Y-186536629D01*
X144044112Y-186370000D01*
X144044112Y-184682832D01*
X144517500Y-184680000D01*
X144730000Y-184467500D01*
X144730000Y-182930000D01*
X144830000Y-182930000D01*
X144830000Y-184467500D01*
X145042500Y-184680000D01*
X145730000Y-184684113D01*
X145896629Y-184667701D01*
X146056855Y-184619098D01*
X146204520Y-184540169D01*
X146333949Y-184433949D01*
X146440169Y-184304520D01*
X146519098Y-184156855D01*
X146567701Y-183996629D01*
X146584113Y-183830000D01*
X146580000Y-183142500D01*
X146367500Y-182930000D01*
X144830000Y-182930000D01*
X144730000Y-182930000D01*
X143192500Y-182930000D01*
X142980000Y-183142500D01*
X142977168Y-183615888D01*
X141290000Y-183615888D01*
X141123371Y-183632300D01*
X141050000Y-183654556D01*
X141050000Y-181690000D01*
X143014555Y-181690000D01*
X142992299Y-181763371D01*
X142975887Y-181930000D01*
X142980000Y-182617500D01*
X143192500Y-182830000D01*
X144730000Y-182830000D01*
X144730000Y-182810000D01*
X144830000Y-182810000D01*
X144830000Y-182830000D01*
X146367500Y-182830000D01*
X146580000Y-182617500D01*
X146584113Y-181930000D01*
X146567701Y-181763371D01*
X146521177Y-181609998D01*
X146567700Y-181456629D01*
X146584112Y-181290000D01*
X146584112Y-179390000D01*
X146567700Y-179223371D01*
X146521176Y-179070000D01*
X146567700Y-178916629D01*
X146584112Y-178750000D01*
X146584112Y-176850000D01*
X146567700Y-176683371D01*
X146519097Y-176523145D01*
X146440168Y-176375481D01*
X146333948Y-176246052D01*
X146204519Y-176139832D01*
X146056855Y-176060903D01*
X145896629Y-176012300D01*
X145730000Y-175995888D01*
X143830000Y-175995888D01*
X143663371Y-176012300D01*
X143503145Y-176060903D01*
X143390000Y-176121381D01*
X143390000Y-174398620D01*
X143503145Y-174459098D01*
X143663371Y-174507701D01*
X143830000Y-174524113D01*
X144517500Y-174520000D01*
X144730000Y-174307500D01*
X144730000Y-172770000D01*
X144830000Y-172770000D01*
X144830000Y-174307500D01*
X145042500Y-174520000D01*
X145730000Y-174524113D01*
X145896629Y-174507701D01*
X146056855Y-174459098D01*
X146204520Y-174380169D01*
X146333949Y-174273949D01*
X146440169Y-174144520D01*
X146519098Y-173996855D01*
X146567701Y-173836629D01*
X146584113Y-173670000D01*
X146580000Y-172982500D01*
X146367500Y-172770000D01*
X144830000Y-172770000D01*
X144730000Y-172770000D01*
X144710000Y-172770000D01*
X144710000Y-172670000D01*
X144730000Y-172670000D01*
X144730000Y-172650000D01*
X144830000Y-172650000D01*
X144830000Y-172670000D01*
X146367500Y-172670000D01*
X146580000Y-172457500D01*
X146584113Y-171770000D01*
X146567701Y-171603371D01*
X146521177Y-171449998D01*
X146567700Y-171296629D01*
X146584112Y-171130000D01*
X146584112Y-169230000D01*
X146567700Y-169063371D01*
X146521177Y-168910002D01*
X146567701Y-168756629D01*
X146584113Y-168590000D01*
X146580000Y-167902500D01*
X146367500Y-167690000D01*
X144830000Y-167690000D01*
X144830000Y-167710000D01*
X144730000Y-167710000D01*
X144730000Y-167690000D01*
X144710000Y-167690000D01*
X144710000Y-167590000D01*
X144730000Y-167590000D01*
X144730000Y-167570000D01*
X144830000Y-167570000D01*
X144830000Y-167590000D01*
X146367500Y-167590000D01*
X146580000Y-167377500D01*
X146584113Y-166690000D01*
X146567701Y-166523371D01*
X146521177Y-166369998D01*
X146567700Y-166216629D01*
X146584112Y-166050000D01*
X146584112Y-164150000D01*
X146567700Y-163983371D01*
X146521176Y-163830000D01*
X146567700Y-163676629D01*
X146584112Y-163510000D01*
X146584112Y-161610000D01*
X146567700Y-161443371D01*
X146521176Y-161290000D01*
X146567700Y-161136629D01*
X146584112Y-160970000D01*
X146584112Y-159070000D01*
X146567700Y-158903371D01*
X146521176Y-158750000D01*
X146567700Y-158596629D01*
X146584112Y-158430000D01*
X146584112Y-156530000D01*
X146567700Y-156363371D01*
X146519097Y-156203145D01*
X146440168Y-156055481D01*
X146333948Y-155926052D01*
X146204519Y-155819832D01*
X146056855Y-155740903D01*
X145896629Y-155692300D01*
X145730000Y-155675888D01*
X143830000Y-155675888D01*
X143663371Y-155692300D01*
X143503145Y-155740903D01*
X143355481Y-155819832D01*
X143226052Y-155926052D01*
X143119832Y-156055481D01*
X143040903Y-156203145D01*
X142992300Y-156363371D01*
X142975888Y-156530000D01*
X142975888Y-158430000D01*
X142992300Y-158596629D01*
X143038824Y-158750000D01*
X142992300Y-158903371D01*
X142975888Y-159070000D01*
X142975888Y-160970000D01*
X142992300Y-161136629D01*
X143038824Y-161290000D01*
X143002423Y-161410000D01*
X142931492Y-161410000D01*
X142875000Y-161404436D01*
X142649561Y-161426640D01*
X142432784Y-161492398D01*
X142332894Y-161545791D01*
X142233003Y-161599184D01*
X142057893Y-161742893D01*
X142021875Y-161786781D01*
X141466781Y-162341875D01*
X141422893Y-162377893D01*
X141279184Y-162553004D01*
X141172398Y-162752786D01*
X141106640Y-162969562D01*
X141090000Y-163138509D01*
X141090000Y-163138518D01*
X141084437Y-163195000D01*
X141090000Y-163251482D01*
X141090001Y-170123498D01*
X141084436Y-170180000D01*
X141090000Y-170236492D01*
X141090001Y-177108508D01*
X141084437Y-177165000D01*
X141090001Y-177221492D01*
X141106641Y-177390439D01*
X141172399Y-177607215D01*
X141279185Y-177806997D01*
X141422894Y-177982107D01*
X141466776Y-178018120D01*
X142021875Y-178573219D01*
X142057893Y-178617107D01*
X142233003Y-178760816D01*
X142332894Y-178814209D01*
X142432784Y-178867602D01*
X142649561Y-178933360D01*
X142875000Y-178955564D01*
X142931492Y-178950000D01*
X143002423Y-178950000D01*
X143014556Y-178990000D01*
X141050000Y-178990000D01*
X141050000Y-154165444D01*
X141123371Y-154187700D01*
X141290000Y-154204112D01*
X143190000Y-154204112D01*
X143356629Y-154187700D01*
X143516855Y-154139097D01*
X143664519Y-154060168D01*
X143793948Y-153953948D01*
X143900168Y-153824519D01*
X143979097Y-153676855D01*
X144027700Y-153516629D01*
X144044112Y-153350000D01*
X144044112Y-151664112D01*
X145730000Y-151664112D01*
X145896629Y-151647700D01*
X146056855Y-151599097D01*
X146204519Y-151520168D01*
X146333948Y-151413948D01*
X146440168Y-151284519D01*
X146519097Y-151136855D01*
X146567700Y-150976629D01*
X146584112Y-150810000D01*
X146584112Y-148910000D01*
X146567700Y-148743371D01*
X146519097Y-148583145D01*
X146440168Y-148435481D01*
X146333948Y-148306052D01*
X146204519Y-148199832D01*
X146056855Y-148120903D01*
X145896629Y-148072300D01*
X145730000Y-148055888D01*
X143830000Y-148055888D01*
X143663371Y-148072300D01*
X143503145Y-148120903D01*
X143355481Y-148199832D01*
X143226052Y-148306052D01*
X143119832Y-148435481D01*
X143040903Y-148583145D01*
X142992300Y-148743371D01*
X142975888Y-148910000D01*
X142975888Y-150595888D01*
X141290000Y-150595888D01*
X141123371Y-150612300D01*
X141050000Y-150634556D01*
X141050000Y-147815444D01*
X141123371Y-147837700D01*
X141290000Y-147854112D01*
X143190000Y-147854112D01*
X143356629Y-147837700D01*
X143516855Y-147789097D01*
X143664519Y-147710168D01*
X143793948Y-147603948D01*
X143900168Y-147474519D01*
X143979097Y-147326855D01*
X144027700Y-147166629D01*
X144044112Y-147000000D01*
X144044112Y-145100000D01*
X144027700Y-144933371D01*
X143979097Y-144773145D01*
X143900168Y-144625481D01*
X143793948Y-144496052D01*
X143664519Y-144389832D01*
X143516855Y-144310903D01*
X143356629Y-144262300D01*
X143190000Y-144245888D01*
X141290000Y-144245888D01*
X141123371Y-144262300D01*
X141050000Y-144284556D01*
X141050000Y-144005444D01*
X141123371Y-144027700D01*
X141290000Y-144044112D01*
X143190000Y-144044112D01*
X143356629Y-144027700D01*
X143516855Y-143979097D01*
X143664519Y-143900168D01*
X143793948Y-143793948D01*
X143900168Y-143664519D01*
X143940000Y-143590000D01*
X144078681Y-143590000D01*
X144145000Y-143596532D01*
X144211319Y-143590000D01*
X144211321Y-143590000D01*
X144409646Y-143570467D01*
X144664122Y-143493272D01*
X144898649Y-143367915D01*
X145104213Y-143199213D01*
X145146492Y-143147696D01*
X145687696Y-142606491D01*
X145739212Y-142564213D01*
X145907915Y-142358649D01*
X146006783Y-142173680D01*
X146033272Y-142124123D01*
X146078400Y-141975355D01*
X146110467Y-141869646D01*
X146130000Y-141671321D01*
X146130000Y-141671319D01*
X146136532Y-141605000D01*
X146130000Y-141538681D01*
X146130000Y-141400000D01*
X146204519Y-141360168D01*
X146333948Y-141253948D01*
X146440168Y-141124519D01*
X146519097Y-140976855D01*
X146567700Y-140816629D01*
X146584112Y-140650000D01*
X146584112Y-138750000D01*
X146567700Y-138583371D01*
X146519097Y-138423145D01*
X146440168Y-138275481D01*
X146333948Y-138146052D01*
X146204519Y-138039832D01*
X146056855Y-137960903D01*
X145896629Y-137912300D01*
X145730000Y-137895888D01*
X143830000Y-137895888D01*
X143663371Y-137912300D01*
X143503145Y-137960903D01*
X143355481Y-138039832D01*
X143226052Y-138146052D01*
X143119832Y-138275481D01*
X143040903Y-138423145D01*
X142992300Y-138583371D01*
X142975888Y-138750000D01*
X142975888Y-140435888D01*
X141290000Y-140435888D01*
X141123371Y-140452300D01*
X140968000Y-140499430D01*
X140954113Y-140453649D01*
X140953272Y-140450877D01*
X140827915Y-140216350D01*
X140732275Y-140099813D01*
X140659213Y-140010787D01*
X140607697Y-139968509D01*
X136978344Y-136339156D01*
X137110000Y-136207500D01*
X137110000Y-134670000D01*
X137210000Y-134670000D01*
X137210000Y-136207500D01*
X137422500Y-136420000D01*
X138110000Y-136424113D01*
X138276629Y-136407701D01*
X138436855Y-136359098D01*
X138584520Y-136280169D01*
X138713949Y-136173949D01*
X138820169Y-136044520D01*
X138899098Y-135896855D01*
X138947701Y-135736629D01*
X138964113Y-135570000D01*
X138960000Y-134882500D01*
X138747500Y-134670000D01*
X137210000Y-134670000D01*
X137110000Y-134670000D01*
X135572500Y-134670000D01*
X135360000Y-134882500D01*
X135355887Y-135570000D01*
X135372299Y-135736629D01*
X135394555Y-135810000D01*
X129606321Y-135810000D01*
X129540000Y-135803468D01*
X129473679Y-135810000D01*
X128765444Y-135810000D01*
X128787700Y-135736629D01*
X128804112Y-135570000D01*
X128804112Y-133670000D01*
X135355887Y-133670000D01*
X135360000Y-134357500D01*
X135572500Y-134570000D01*
X137110000Y-134570000D01*
X137110000Y-133032500D01*
X137210000Y-133032500D01*
X137210000Y-134570000D01*
X138747500Y-134570000D01*
X138960000Y-134357500D01*
X138964113Y-133670000D01*
X138947701Y-133503371D01*
X138899098Y-133343145D01*
X138820169Y-133195480D01*
X138713949Y-133066051D01*
X138584520Y-132959831D01*
X138436855Y-132880902D01*
X138276629Y-132832299D01*
X138110000Y-132815887D01*
X137422500Y-132820000D01*
X137210000Y-133032500D01*
X137110000Y-133032500D01*
X136897500Y-132820000D01*
X136210000Y-132815887D01*
X136043371Y-132832299D01*
X135883145Y-132880902D01*
X135735480Y-132959831D01*
X135606051Y-133066051D01*
X135499831Y-133195480D01*
X135420902Y-133343145D01*
X135372299Y-133503371D01*
X135355887Y-133670000D01*
X128804112Y-133670000D01*
X128787700Y-133503371D01*
X128739097Y-133343145D01*
X128660168Y-133195481D01*
X128553948Y-133066052D01*
X128424519Y-132959832D01*
X128276855Y-132880903D01*
X128150000Y-132842423D01*
X128150000Y-132771492D01*
X128155564Y-132715000D01*
X128133360Y-132489561D01*
X128067602Y-132272784D01*
X128014209Y-132172894D01*
X127960816Y-132073003D01*
X127817107Y-131897893D01*
X127773221Y-131861877D01*
X127218125Y-131306781D01*
X127182107Y-131262893D01*
X127006997Y-131119184D01*
X126807215Y-131012398D01*
X126590439Y-130946640D01*
X126421492Y-130930000D01*
X126421482Y-130930000D01*
X126365000Y-130924437D01*
X126308518Y-130930000D01*
X126138619Y-130930000D01*
X126199097Y-130816855D01*
X126247700Y-130656629D01*
X126264112Y-130490000D01*
X126264112Y-128590000D01*
X126247700Y-128423371D01*
X126199097Y-128263145D01*
X126120168Y-128115481D01*
X126013948Y-127986052D01*
X125884519Y-127879832D01*
X125736855Y-127800903D01*
X125576629Y-127752300D01*
X125410000Y-127735888D01*
X123510000Y-127735888D01*
X123343371Y-127752300D01*
X123190000Y-127798824D01*
X123036629Y-127752300D01*
X122870000Y-127735888D01*
X120970000Y-127735888D01*
X120803371Y-127752300D01*
X120650000Y-127798824D01*
X120496629Y-127752300D01*
X120330000Y-127735888D01*
X118430000Y-127735888D01*
X118263371Y-127752300D01*
X118110000Y-127798824D01*
X117956629Y-127752300D01*
X117790000Y-127735888D01*
X115890000Y-127735888D01*
X115723371Y-127752300D01*
X115570000Y-127798824D01*
X115416629Y-127752300D01*
X115250000Y-127735888D01*
X113350000Y-127735888D01*
X113183371Y-127752300D01*
X113023145Y-127800903D01*
X112875481Y-127879832D01*
X112746052Y-127986052D01*
X112639832Y-128115481D01*
X112560903Y-128263145D01*
X112512300Y-128423371D01*
X112495888Y-128590000D01*
X112495888Y-130490000D01*
X112512300Y-130656629D01*
X112560903Y-130816855D01*
X112639832Y-130964519D01*
X112746052Y-131093948D01*
X112875481Y-131200168D01*
X113023145Y-131279097D01*
X113183371Y-131327700D01*
X113350000Y-131344112D01*
X115250000Y-131344112D01*
X115416629Y-131327700D01*
X115570000Y-131281176D01*
X115723371Y-131327700D01*
X115890000Y-131344112D01*
X116584544Y-131344112D01*
X116066776Y-131861880D01*
X116022894Y-131897893D01*
X115986882Y-131941774D01*
X115879185Y-132073003D01*
X115772399Y-132272785D01*
X115706641Y-132489561D01*
X115684437Y-132715000D01*
X115690001Y-132771491D01*
X115690001Y-132842422D01*
X115563145Y-132880903D01*
X115415481Y-132959832D01*
X115286052Y-133066052D01*
X115179832Y-133195481D01*
X115100903Y-133343145D01*
X115052300Y-133503371D01*
X115035888Y-133670000D01*
X115035888Y-135570000D01*
X115052300Y-135736629D01*
X115074556Y-135810000D01*
X112190000Y-135810000D01*
X112150168Y-135735481D01*
X112043948Y-135606052D01*
X111914519Y-135499832D01*
X111766855Y-135420903D01*
X111606629Y-135372300D01*
X111440000Y-135355888D01*
X109540000Y-135355888D01*
X109373371Y-135372300D01*
X109213145Y-135420903D01*
X109065481Y-135499832D01*
X108936052Y-135606052D01*
X108829832Y-135735481D01*
X108750903Y-135883145D01*
X108702300Y-136043371D01*
X108685888Y-136210000D01*
X108685888Y-138110000D01*
X108702300Y-138276629D01*
X108724556Y-138350000D01*
X102095445Y-138350000D01*
X102117701Y-138276629D01*
X102134113Y-138110000D01*
X102130000Y-137422500D01*
X101917500Y-137210000D01*
X100380000Y-137210000D01*
X100380000Y-137230000D01*
X100280000Y-137230000D01*
X100280000Y-137210000D01*
X98742500Y-137210000D01*
X98530000Y-137422500D01*
X98527185Y-137892997D01*
X96886491Y-136252303D01*
X96851774Y-136210000D01*
X98525887Y-136210000D01*
X98530000Y-136897500D01*
X98742500Y-137110000D01*
X100280000Y-137110000D01*
X100280000Y-135572500D01*
X100380000Y-135572500D01*
X100380000Y-137110000D01*
X101917500Y-137110000D01*
X102130000Y-136897500D01*
X102134113Y-136210000D01*
X102117701Y-136043371D01*
X102069098Y-135883145D01*
X101990169Y-135735480D01*
X101883949Y-135606051D01*
X101840021Y-135570000D01*
X103605887Y-135570000D01*
X103622299Y-135736629D01*
X103670902Y-135896855D01*
X103749831Y-136044520D01*
X103856051Y-136173949D01*
X103985480Y-136280169D01*
X104133145Y-136359098D01*
X104293371Y-136407701D01*
X104460000Y-136424113D01*
X105147500Y-136420000D01*
X105360000Y-136207500D01*
X105360000Y-134670000D01*
X105460000Y-134670000D01*
X105460000Y-136207500D01*
X105672500Y-136420000D01*
X106360000Y-136424113D01*
X106526629Y-136407701D01*
X106686855Y-136359098D01*
X106834520Y-136280169D01*
X106963949Y-136173949D01*
X107070169Y-136044520D01*
X107149098Y-135896855D01*
X107197701Y-135736629D01*
X107214113Y-135570000D01*
X107210000Y-134882500D01*
X106997500Y-134670000D01*
X105460000Y-134670000D01*
X105360000Y-134670000D01*
X103822500Y-134670000D01*
X103610000Y-134882500D01*
X103605887Y-135570000D01*
X101840021Y-135570000D01*
X101754520Y-135499831D01*
X101606855Y-135420902D01*
X101446629Y-135372299D01*
X101280000Y-135355887D01*
X100592500Y-135360000D01*
X100380000Y-135572500D01*
X100280000Y-135572500D01*
X100067500Y-135360000D01*
X99380000Y-135355887D01*
X99213371Y-135372299D01*
X99053145Y-135420902D01*
X98905480Y-135499831D01*
X98776051Y-135606051D01*
X98669831Y-135735480D01*
X98590902Y-135883145D01*
X98542299Y-136043371D01*
X98525887Y-136210000D01*
X96851774Y-136210000D01*
X96844213Y-136200787D01*
X96638649Y-136032085D01*
X96404122Y-135906728D01*
X96149646Y-135829533D01*
X95951321Y-135810000D01*
X95951319Y-135810000D01*
X95885000Y-135803468D01*
X95818681Y-135810000D01*
X92790000Y-135810000D01*
X92790000Y-133670000D01*
X103605887Y-133670000D01*
X103610000Y-134357500D01*
X103822500Y-134570000D01*
X105360000Y-134570000D01*
X105360000Y-133032500D01*
X105460000Y-133032500D01*
X105460000Y-134570000D01*
X106997500Y-134570000D01*
X107210000Y-134357500D01*
X107214113Y-133670000D01*
X107197701Y-133503371D01*
X107149098Y-133343145D01*
X107070169Y-133195480D01*
X106963949Y-133066051D01*
X106834520Y-132959831D01*
X106686855Y-132880902D01*
X106526629Y-132832299D01*
X106360000Y-132815887D01*
X105672500Y-132820000D01*
X105460000Y-133032500D01*
X105360000Y-133032500D01*
X105147500Y-132820000D01*
X104460000Y-132815887D01*
X104293371Y-132832299D01*
X104133145Y-132880902D01*
X103985480Y-132959831D01*
X103856051Y-133066051D01*
X103749831Y-133195480D01*
X103670902Y-133343145D01*
X103622299Y-133503371D01*
X103605887Y-133670000D01*
X92790000Y-133670000D01*
X92790000Y-131305444D01*
X92863371Y-131327700D01*
X93030000Y-131344112D01*
X94930000Y-131344112D01*
X95096629Y-131327700D01*
X95250000Y-131281176D01*
X95403371Y-131327700D01*
X95570000Y-131344112D01*
X97470000Y-131344112D01*
X97636629Y-131327700D01*
X97796855Y-131279097D01*
X97944519Y-131200168D01*
X98073948Y-131093948D01*
X98180168Y-130964519D01*
X98259097Y-130816855D01*
X98307700Y-130656629D01*
X98324112Y-130490000D01*
X98324112Y-128590000D01*
X98525888Y-128590000D01*
X98525888Y-130490000D01*
X98542300Y-130656629D01*
X98590903Y-130816855D01*
X98669832Y-130964519D01*
X98776052Y-131093948D01*
X98905481Y-131200168D01*
X99053145Y-131279097D01*
X99213371Y-131327700D01*
X99380000Y-131344112D01*
X101280000Y-131344112D01*
X101446629Y-131327700D01*
X101606855Y-131279097D01*
X101754519Y-131200168D01*
X101883948Y-131093948D01*
X101990168Y-130964519D01*
X102069097Y-130816855D01*
X102117700Y-130656629D01*
X102134112Y-130490000D01*
X102134112Y-128590000D01*
X108685888Y-128590000D01*
X108685888Y-130490000D01*
X108702300Y-130656629D01*
X108750903Y-130816855D01*
X108829832Y-130964519D01*
X108936052Y-131093948D01*
X109065481Y-131200168D01*
X109213145Y-131279097D01*
X109373371Y-131327700D01*
X109540000Y-131344112D01*
X111440000Y-131344112D01*
X111606629Y-131327700D01*
X111766855Y-131279097D01*
X111914519Y-131200168D01*
X112043948Y-131093948D01*
X112150168Y-130964519D01*
X112229097Y-130816855D01*
X112277700Y-130656629D01*
X112294112Y-130490000D01*
X112294112Y-128590000D01*
X112277700Y-128423371D01*
X112229097Y-128263145D01*
X112150168Y-128115481D01*
X112043948Y-127986052D01*
X111914519Y-127879832D01*
X111766855Y-127800903D01*
X111606629Y-127752300D01*
X111440000Y-127735888D01*
X109540000Y-127735888D01*
X109373371Y-127752300D01*
X109213145Y-127800903D01*
X109065481Y-127879832D01*
X108936052Y-127986052D01*
X108829832Y-128115481D01*
X108750903Y-128263145D01*
X108702300Y-128423371D01*
X108685888Y-128590000D01*
X102134112Y-128590000D01*
X102117700Y-128423371D01*
X102069097Y-128263145D01*
X101990168Y-128115481D01*
X101883948Y-127986052D01*
X101754519Y-127879832D01*
X101606855Y-127800903D01*
X101446629Y-127752300D01*
X101280000Y-127735888D01*
X99380000Y-127735888D01*
X99213371Y-127752300D01*
X99053145Y-127800903D01*
X98905481Y-127879832D01*
X98776052Y-127986052D01*
X98669832Y-128115481D01*
X98590903Y-128263145D01*
X98542300Y-128423371D01*
X98525888Y-128590000D01*
X98324112Y-128590000D01*
X98307700Y-128423371D01*
X98259097Y-128263145D01*
X98180168Y-128115481D01*
X98073948Y-127986052D01*
X97944519Y-127879832D01*
X97796855Y-127800903D01*
X97636629Y-127752300D01*
X97470000Y-127735888D01*
X95570000Y-127735888D01*
X95403371Y-127752300D01*
X95250000Y-127798824D01*
X95096629Y-127752300D01*
X94930000Y-127735888D01*
X93030000Y-127735888D01*
X92863371Y-127752300D01*
X92710000Y-127798824D01*
X92556629Y-127752300D01*
X92390000Y-127735888D01*
X90490000Y-127735888D01*
X90323371Y-127752300D01*
X90170000Y-127798824D01*
X90016629Y-127752300D01*
X89850000Y-127735888D01*
X87950000Y-127735888D01*
X87783371Y-127752300D01*
X87630000Y-127798824D01*
X87476629Y-127752300D01*
X87310000Y-127735888D01*
X85410000Y-127735888D01*
X85243371Y-127752300D01*
X85083145Y-127800903D01*
X84935481Y-127879832D01*
X84806052Y-127986052D01*
X84699832Y-128115481D01*
X84620903Y-128263145D01*
X84572300Y-128423371D01*
X84555888Y-128590000D01*
X84555888Y-130490000D01*
X84572300Y-130656629D01*
X84620903Y-130816855D01*
X84699832Y-130964519D01*
X84806052Y-131093948D01*
X84935481Y-131200168D01*
X85083145Y-131279097D01*
X85243371Y-131327700D01*
X85410000Y-131344112D01*
X87310000Y-131344112D01*
X87476629Y-131327700D01*
X87630000Y-131281176D01*
X87783371Y-131327700D01*
X87950000Y-131344112D01*
X89850000Y-131344112D01*
X90016629Y-131327700D01*
X90090000Y-131305444D01*
X90090001Y-135810000D01*
X84315444Y-135810000D01*
X84337700Y-135736629D01*
X84354112Y-135570000D01*
X84354112Y-133670000D01*
X84337700Y-133503371D01*
X84289097Y-133343145D01*
X84210168Y-133195481D01*
X84103948Y-133066052D01*
X83974519Y-132959832D01*
X83826855Y-132880903D01*
X83666629Y-132832300D01*
X83500000Y-132815888D01*
X81600000Y-132815888D01*
X81433371Y-132832300D01*
X81273145Y-132880903D01*
X81125481Y-132959832D01*
X80996052Y-133066052D01*
X80889832Y-133195481D01*
X80810903Y-133343145D01*
X80762300Y-133503371D01*
X80745888Y-133670000D01*
X80745888Y-135570000D01*
X80762300Y-135736629D01*
X80784556Y-135810000D01*
X80505444Y-135810000D01*
X80527700Y-135736629D01*
X80544112Y-135570000D01*
X80544112Y-133670000D01*
X80527700Y-133503371D01*
X80479097Y-133343145D01*
X80400168Y-133195481D01*
X80293948Y-133066052D01*
X80164519Y-132959832D01*
X80016855Y-132880903D01*
X79856629Y-132832300D01*
X79690000Y-132815888D01*
X77790000Y-132815888D01*
X77623371Y-132832300D01*
X77463145Y-132880903D01*
X77315481Y-132959832D01*
X77186052Y-133066052D01*
X77079832Y-133195481D01*
X77000903Y-133343145D01*
X76952300Y-133503371D01*
X76935888Y-133670000D01*
X76935888Y-135570000D01*
X76952300Y-135736629D01*
X77000903Y-135896855D01*
X77079832Y-136044519D01*
X77186052Y-136173948D01*
X77315481Y-136280168D01*
X77463145Y-136359097D01*
X77623371Y-136407700D01*
X77790000Y-136424112D01*
X78201701Y-136424112D01*
X77832300Y-136793513D01*
X77780788Y-136835787D01*
X77738514Y-136887298D01*
X77738510Y-136887302D01*
X77612085Y-137041351D01*
X77486729Y-137275878D01*
X77409534Y-137530354D01*
X77383468Y-137795000D01*
X77390001Y-137861328D01*
X77390001Y-138000000D01*
X77315481Y-138039832D01*
X77186052Y-138146052D01*
X77079832Y-138275481D01*
X77000903Y-138423145D01*
X76952300Y-138583371D01*
X76935888Y-138750000D01*
X76935888Y-140650000D01*
X76952300Y-140816629D01*
X77000903Y-140976855D01*
X77079832Y-141124519D01*
X77186052Y-141253948D01*
X77315481Y-141360168D01*
X77390000Y-141400000D01*
X77390001Y-144220811D01*
X75292299Y-146318513D01*
X75240787Y-146360788D01*
X75198513Y-146412299D01*
X75198510Y-146412302D01*
X75072085Y-146566351D01*
X75071364Y-146567700D01*
X74946728Y-146800879D01*
X74869533Y-147055355D01*
X74850000Y-147253679D01*
X74843468Y-147320000D01*
X74850000Y-147386319D01*
X74850000Y-160794557D01*
X74810000Y-160782423D01*
X74810000Y-148011492D01*
X74815564Y-147955000D01*
X74793360Y-147729561D01*
X74727602Y-147512784D01*
X74674209Y-147412894D01*
X74620816Y-147313003D01*
X74477107Y-147137893D01*
X74433221Y-147101877D01*
X73878125Y-146546781D01*
X73842107Y-146502893D01*
X73666997Y-146359184D01*
X73467215Y-146252398D01*
X73250439Y-146186640D01*
X73081492Y-146170000D01*
X73081482Y-146170000D01*
X73025000Y-146164437D01*
X72968518Y-146170000D01*
X72897577Y-146170000D01*
X72861176Y-146050000D01*
X72907700Y-145896629D01*
X72924112Y-145730000D01*
X72924112Y-143830000D01*
X72907700Y-143663371D01*
X72859097Y-143503145D01*
X72780168Y-143355481D01*
X72673948Y-143226052D01*
X72544519Y-143119832D01*
X72396855Y-143040903D01*
X72236629Y-142992300D01*
X72070000Y-142975888D01*
X70170000Y-142975888D01*
X70003371Y-142992300D01*
X69843145Y-143040903D01*
X69695481Y-143119832D01*
X69566052Y-143226052D01*
X69459832Y-143355481D01*
X69380903Y-143503145D01*
X69332300Y-143663371D01*
X69315888Y-143830000D01*
X69315888Y-145730000D01*
X69332300Y-145896629D01*
X69378824Y-146050000D01*
X69342423Y-146170000D01*
X67817577Y-146170000D01*
X67779097Y-146043145D01*
X67700168Y-145895481D01*
X67593948Y-145766052D01*
X67464519Y-145659832D01*
X67316855Y-145580903D01*
X67156629Y-145532300D01*
X66990000Y-145515888D01*
X65090000Y-145515888D01*
X64923371Y-145532300D01*
X64763145Y-145580903D01*
X64615481Y-145659832D01*
X64486052Y-145766052D01*
X64379832Y-145895481D01*
X64300903Y-146043145D01*
X64252300Y-146203371D01*
X64235888Y-146370000D01*
X63280000Y-146370000D01*
X63280000Y-138750000D01*
X69315888Y-138750000D01*
X69315888Y-140650000D01*
X69332300Y-140816629D01*
X69380903Y-140976855D01*
X69459832Y-141124519D01*
X69566052Y-141253948D01*
X69695481Y-141360168D01*
X69843145Y-141439097D01*
X70003371Y-141487700D01*
X70170000Y-141504112D01*
X72070000Y-141504112D01*
X72236629Y-141487700D01*
X72396855Y-141439097D01*
X72544519Y-141360168D01*
X72673948Y-141253948D01*
X72780168Y-141124519D01*
X72859097Y-140976855D01*
X72907700Y-140816629D01*
X72924112Y-140650000D01*
X72924112Y-138750000D01*
X73125888Y-138750000D01*
X73125888Y-140650000D01*
X73142300Y-140816629D01*
X73190903Y-140976855D01*
X73269832Y-141124519D01*
X73376052Y-141253948D01*
X73505481Y-141360168D01*
X73653145Y-141439097D01*
X73813371Y-141487700D01*
X73980000Y-141504112D01*
X75880000Y-141504112D01*
X76046629Y-141487700D01*
X76206855Y-141439097D01*
X76354519Y-141360168D01*
X76483948Y-141253948D01*
X76590168Y-141124519D01*
X76669097Y-140976855D01*
X76717700Y-140816629D01*
X76734112Y-140650000D01*
X76734112Y-138750000D01*
X76717700Y-138583371D01*
X76669097Y-138423145D01*
X76590168Y-138275481D01*
X76483948Y-138146052D01*
X76354519Y-138039832D01*
X76206855Y-137960903D01*
X76046629Y-137912300D01*
X75880000Y-137895888D01*
X73980000Y-137895888D01*
X73813371Y-137912300D01*
X73653145Y-137960903D01*
X73505481Y-138039832D01*
X73376052Y-138146052D01*
X73269832Y-138275481D01*
X73190903Y-138423145D01*
X73142300Y-138583371D01*
X73125888Y-138750000D01*
X72924112Y-138750000D01*
X72907700Y-138583371D01*
X72859097Y-138423145D01*
X72780168Y-138275481D01*
X72673948Y-138146052D01*
X72544519Y-138039832D01*
X72396855Y-137960903D01*
X72236629Y-137912300D01*
X72070000Y-137895888D01*
X70170000Y-137895888D01*
X70003371Y-137912300D01*
X69843145Y-137960903D01*
X69695481Y-138039832D01*
X69566052Y-138146052D01*
X69459832Y-138275481D01*
X69380903Y-138423145D01*
X69332300Y-138583371D01*
X69315888Y-138750000D01*
X63280000Y-138750000D01*
X63280000Y-133670000D01*
X69315888Y-133670000D01*
X69315888Y-135570000D01*
X69332300Y-135736629D01*
X69380903Y-135896855D01*
X69459832Y-136044519D01*
X69566052Y-136173948D01*
X69695481Y-136280168D01*
X69843145Y-136359097D01*
X70003371Y-136407700D01*
X70170000Y-136424112D01*
X72070000Y-136424112D01*
X72236629Y-136407700D01*
X72396855Y-136359097D01*
X72544519Y-136280168D01*
X72673948Y-136173948D01*
X72780168Y-136044519D01*
X72859097Y-135896855D01*
X72907700Y-135736629D01*
X72924112Y-135570000D01*
X72924112Y-133670000D01*
X73125888Y-133670000D01*
X73125888Y-135570000D01*
X73142300Y-135736629D01*
X73190903Y-135896855D01*
X73269832Y-136044519D01*
X73376052Y-136173948D01*
X73505481Y-136280168D01*
X73653145Y-136359097D01*
X73813371Y-136407700D01*
X73980000Y-136424112D01*
X75880000Y-136424112D01*
X76046629Y-136407700D01*
X76206855Y-136359097D01*
X76354519Y-136280168D01*
X76483948Y-136173948D01*
X76590168Y-136044519D01*
X76669097Y-135896855D01*
X76717700Y-135736629D01*
X76734112Y-135570000D01*
X76734112Y-133670000D01*
X76717700Y-133503371D01*
X76669097Y-133343145D01*
X76590168Y-133195481D01*
X76483948Y-133066052D01*
X76354519Y-132959832D01*
X76206855Y-132880903D01*
X76046629Y-132832300D01*
X75880000Y-132815888D01*
X73980000Y-132815888D01*
X73813371Y-132832300D01*
X73653145Y-132880903D01*
X73505481Y-132959832D01*
X73376052Y-133066052D01*
X73269832Y-133195481D01*
X73190903Y-133343145D01*
X73142300Y-133503371D01*
X73125888Y-133670000D01*
X72924112Y-133670000D01*
X72907700Y-133503371D01*
X72859097Y-133343145D01*
X72780168Y-133195481D01*
X72673948Y-133066052D01*
X72544519Y-132959832D01*
X72396855Y-132880903D01*
X72236629Y-132832300D01*
X72070000Y-132815888D01*
X70170000Y-132815888D01*
X70003371Y-132832300D01*
X69843145Y-132880903D01*
X69695481Y-132959832D01*
X69566052Y-133066052D01*
X69459832Y-133195481D01*
X69380903Y-133343145D01*
X69332300Y-133503371D01*
X69315888Y-133670000D01*
X63280000Y-133670000D01*
X63280000Y-126780000D01*
X147540000Y-126780000D01*
X147540001Y-195145075D01*
G37*
X147540001Y-195145075D02*
X139265077Y-203420000D01*
X107213545Y-203420000D01*
X107210000Y-202827500D01*
X106997500Y-202615000D01*
X105460000Y-202615000D01*
X105460000Y-202635000D01*
X105360000Y-202635000D01*
X105360000Y-202615000D01*
X103822500Y-202615000D01*
X103610000Y-202827500D01*
X103606455Y-203420000D01*
X71554924Y-203420000D01*
X63280000Y-195145077D01*
X63280000Y-187010000D01*
X64235888Y-187010000D01*
X64235888Y-188910000D01*
X64252300Y-189076629D01*
X64300903Y-189236855D01*
X64379832Y-189384519D01*
X64486052Y-189513948D01*
X64615481Y-189620168D01*
X64763145Y-189699097D01*
X64923371Y-189747700D01*
X65090000Y-189764112D01*
X66990000Y-189764112D01*
X67156629Y-189747700D01*
X67316855Y-189699097D01*
X67464519Y-189620168D01*
X67593948Y-189513948D01*
X67700168Y-189384519D01*
X67779097Y-189236855D01*
X67827700Y-189076629D01*
X67844112Y-188910000D01*
X67844112Y-187010000D01*
X67827700Y-186843371D01*
X67779097Y-186683145D01*
X67700168Y-186535481D01*
X67593948Y-186406052D01*
X67464519Y-186299832D01*
X67316855Y-186220903D01*
X67156629Y-186172300D01*
X66990000Y-186155888D01*
X65090000Y-186155888D01*
X64923371Y-186172300D01*
X64763145Y-186220903D01*
X64615481Y-186299832D01*
X64486052Y-186406052D01*
X64379832Y-186535481D01*
X64300903Y-186683145D01*
X64252300Y-186843371D01*
X64235888Y-187010000D01*
X63280000Y-187010000D01*
X63280000Y-181930000D01*
X64235888Y-181930000D01*
X64235888Y-183830000D01*
X64252300Y-183996629D01*
X64300903Y-184156855D01*
X64379832Y-184304519D01*
X64486052Y-184433948D01*
X64615481Y-184540168D01*
X64763145Y-184619097D01*
X64923371Y-184667700D01*
X65090000Y-184684112D01*
X66990000Y-184684112D01*
X67156629Y-184667700D01*
X67316855Y-184619097D01*
X67464519Y-184540168D01*
X67593948Y-184433948D01*
X67700168Y-184304519D01*
X67779097Y-184156855D01*
X67827700Y-183996629D01*
X67844112Y-183830000D01*
X67844112Y-181930000D01*
X67827700Y-181763371D01*
X67779097Y-181603145D01*
X67700168Y-181455481D01*
X67593948Y-181326052D01*
X67464519Y-181219832D01*
X67316855Y-181140903D01*
X67156629Y-181092300D01*
X66990000Y-181075888D01*
X65090000Y-181075888D01*
X64923371Y-181092300D01*
X64763145Y-181140903D01*
X64615481Y-181219832D01*
X64486052Y-181326052D01*
X64379832Y-181455481D01*
X64300903Y-181603145D01*
X64252300Y-181763371D01*
X64235888Y-181930000D01*
X63280000Y-181930000D01*
X63280000Y-171770000D01*
X64235888Y-171770000D01*
X64235888Y-173670000D01*
X64252300Y-173836629D01*
X64300903Y-173996855D01*
X64379832Y-174144519D01*
X64486052Y-174273948D01*
X64615481Y-174380168D01*
X64763145Y-174459097D01*
X64923371Y-174507700D01*
X65090000Y-174524112D01*
X66990000Y-174524112D01*
X67156629Y-174507700D01*
X67316855Y-174459097D01*
X67464519Y-174380168D01*
X67593948Y-174273948D01*
X67700168Y-174144519D01*
X67779097Y-173996855D01*
X67827700Y-173836629D01*
X67844112Y-173670000D01*
X67844112Y-171770000D01*
X67827700Y-171603371D01*
X67779097Y-171443145D01*
X67700168Y-171295481D01*
X67593948Y-171166052D01*
X67464519Y-171059832D01*
X67316855Y-170980903D01*
X67156629Y-170932300D01*
X66990000Y-170915888D01*
X65090000Y-170915888D01*
X64923371Y-170932300D01*
X64763145Y-170980903D01*
X64615481Y-171059832D01*
X64486052Y-171166052D01*
X64379832Y-171295481D01*
X64300903Y-171443145D01*
X64252300Y-171603371D01*
X64235888Y-171770000D01*
X63280000Y-171770000D01*
X63280000Y-166690000D01*
X64235888Y-166690000D01*
X64235888Y-168590000D01*
X64252300Y-168756629D01*
X64300903Y-168916855D01*
X64379832Y-169064519D01*
X64486052Y-169193948D01*
X64615481Y-169300168D01*
X64763145Y-169379097D01*
X64923371Y-169427700D01*
X65090000Y-169444112D01*
X66990000Y-169444112D01*
X67156629Y-169427700D01*
X67316855Y-169379097D01*
X67464519Y-169300168D01*
X67593948Y-169193948D01*
X67700168Y-169064519D01*
X67779097Y-168916855D01*
X67827700Y-168756629D01*
X67844112Y-168590000D01*
X67844112Y-166690000D01*
X67827700Y-166523371D01*
X67779097Y-166363145D01*
X67700168Y-166215481D01*
X67593948Y-166086052D01*
X67464519Y-165979832D01*
X67316855Y-165900903D01*
X67156629Y-165852300D01*
X66990000Y-165835888D01*
X65090000Y-165835888D01*
X64923371Y-165852300D01*
X64763145Y-165900903D01*
X64615481Y-165979832D01*
X64486052Y-166086052D01*
X64379832Y-166215481D01*
X64300903Y-166363145D01*
X64252300Y-166523371D01*
X64235888Y-166690000D01*
X63280000Y-166690000D01*
X63280000Y-146370000D01*
X64235888Y-146370000D01*
X64235888Y-148270000D01*
X64252300Y-148436629D01*
X64300903Y-148596855D01*
X64379832Y-148744519D01*
X64486052Y-148873948D01*
X64615481Y-148980168D01*
X64763145Y-149059097D01*
X64923371Y-149107700D01*
X65090000Y-149124112D01*
X66990000Y-149124112D01*
X67156629Y-149107700D01*
X67316855Y-149059097D01*
X67464519Y-148980168D01*
X67593948Y-148873948D01*
X67700168Y-148744519D01*
X67779097Y-148596855D01*
X67817577Y-148470000D01*
X69342423Y-148470000D01*
X69378823Y-148589998D01*
X69332299Y-148743371D01*
X69315887Y-148910000D01*
X69320000Y-149597500D01*
X69532500Y-149810000D01*
X71070000Y-149810000D01*
X71070000Y-149790000D01*
X71170000Y-149790000D01*
X71170000Y-149810000D01*
X71190000Y-149810000D01*
X71190000Y-149910000D01*
X71170000Y-149910000D01*
X71170000Y-149930000D01*
X71070000Y-149930000D01*
X71070000Y-149910000D01*
X69532500Y-149910000D01*
X69320000Y-150122500D01*
X69315887Y-150810000D01*
X69332299Y-150976629D01*
X69378823Y-151130002D01*
X69332300Y-151283371D01*
X69315888Y-151450000D01*
X69315888Y-153350000D01*
X69332300Y-153516629D01*
X69380903Y-153676855D01*
X69459832Y-153824519D01*
X69566052Y-153953948D01*
X69695481Y-154060168D01*
X69843145Y-154139097D01*
X70003371Y-154187700D01*
X70170000Y-154204112D01*
X72070000Y-154204112D01*
X72236629Y-154187700D01*
X72396855Y-154139097D01*
X72510000Y-154078619D01*
X72510001Y-155801381D01*
X72396855Y-155740903D01*
X72236629Y-155692300D01*
X72070000Y-155675888D01*
X70170000Y-155675888D01*
X70003371Y-155692300D01*
X69843145Y-155740903D01*
X69695481Y-155819832D01*
X69566052Y-155926052D01*
X69459832Y-156055481D01*
X69380903Y-156203145D01*
X69332300Y-156363371D01*
X69315888Y-156530000D01*
X69315888Y-157224544D01*
X68798125Y-156706781D01*
X68762107Y-156662893D01*
X68586997Y-156519184D01*
X68387215Y-156412398D01*
X68170439Y-156346640D01*
X68001492Y-156330000D01*
X68001482Y-156330000D01*
X67945000Y-156324437D01*
X67888518Y-156330000D01*
X67817577Y-156330000D01*
X67779097Y-156203145D01*
X67700168Y-156055481D01*
X67593948Y-155926052D01*
X67464519Y-155819832D01*
X67316855Y-155740903D01*
X67156629Y-155692300D01*
X66990000Y-155675888D01*
X65090000Y-155675888D01*
X64923371Y-155692300D01*
X64763145Y-155740903D01*
X64615481Y-155819832D01*
X64486052Y-155926052D01*
X64379832Y-156055481D01*
X64300903Y-156203145D01*
X64252300Y-156363371D01*
X64235888Y-156530000D01*
X64235888Y-158430000D01*
X64252300Y-158596629D01*
X64300903Y-158756855D01*
X64379832Y-158904519D01*
X64486052Y-159033948D01*
X64615481Y-159140168D01*
X64763145Y-159219097D01*
X64923371Y-159267700D01*
X65090000Y-159284112D01*
X66990000Y-159284112D01*
X67156629Y-159267700D01*
X67316855Y-159219097D01*
X67430000Y-159158619D01*
X67430001Y-160881381D01*
X67316855Y-160820903D01*
X67156629Y-160772300D01*
X66990000Y-160755888D01*
X65090000Y-160755888D01*
X64923371Y-160772300D01*
X64763145Y-160820903D01*
X64615481Y-160899832D01*
X64486052Y-161006052D01*
X64379832Y-161135481D01*
X64300903Y-161283145D01*
X64252300Y-161443371D01*
X64235888Y-161610000D01*
X64235888Y-163510000D01*
X64252300Y-163676629D01*
X64300903Y-163836855D01*
X64379832Y-163984519D01*
X64486052Y-164113948D01*
X64615481Y-164220168D01*
X64763145Y-164299097D01*
X64923371Y-164347700D01*
X65090000Y-164364112D01*
X66990000Y-164364112D01*
X67156629Y-164347700D01*
X67316855Y-164299097D01*
X67464519Y-164220168D01*
X67593948Y-164113948D01*
X67700168Y-163984519D01*
X67779097Y-163836855D01*
X67827700Y-163676629D01*
X67844112Y-163510000D01*
X67844112Y-162815456D01*
X70901880Y-165873225D01*
X70937893Y-165917107D01*
X71113003Y-166060816D01*
X71312785Y-166167602D01*
X71529561Y-166233360D01*
X71698508Y-166250000D01*
X71698517Y-166250000D01*
X71754999Y-166255563D01*
X71811481Y-166250000D01*
X71882423Y-166250000D01*
X71918824Y-166370000D01*
X71872300Y-166523371D01*
X71855888Y-166690000D01*
X71855888Y-168590000D01*
X71872300Y-168756629D01*
X71918823Y-168909998D01*
X71872299Y-169063371D01*
X71855887Y-169230000D01*
X71860000Y-169917500D01*
X72072500Y-170130000D01*
X73610000Y-170130000D01*
X73610000Y-170110000D01*
X73710000Y-170110000D01*
X73710000Y-170130000D01*
X73730000Y-170130000D01*
X73730000Y-170230000D01*
X73710000Y-170230000D01*
X73710000Y-170250000D01*
X73610000Y-170250000D01*
X73610000Y-170230000D01*
X72072500Y-170230000D01*
X71860000Y-170442500D01*
X71855887Y-171130000D01*
X71872299Y-171296629D01*
X71918823Y-171450002D01*
X71872300Y-171603371D01*
X71855888Y-171770000D01*
X71855888Y-173670000D01*
X71872300Y-173836629D01*
X71918824Y-173990000D01*
X71872300Y-174143371D01*
X71855888Y-174310000D01*
X71855888Y-176210000D01*
X71872300Y-176376629D01*
X71918824Y-176530000D01*
X71872300Y-176683371D01*
X71855888Y-176850000D01*
X71855888Y-178750000D01*
X71872300Y-178916629D01*
X71920903Y-179076855D01*
X71999832Y-179224519D01*
X72106052Y-179353948D01*
X72235481Y-179460168D01*
X72383145Y-179539097D01*
X72543371Y-179587700D01*
X72710000Y-179604112D01*
X74610000Y-179604112D01*
X74776629Y-179587700D01*
X74936855Y-179539097D01*
X75084519Y-179460168D01*
X75213948Y-179353948D01*
X75320168Y-179224519D01*
X75399097Y-179076855D01*
X75447700Y-178916629D01*
X75464112Y-178750000D01*
X75464112Y-177703300D01*
X77390000Y-179629188D01*
X77390000Y-181114556D01*
X77316629Y-181092300D01*
X77150000Y-181075888D01*
X75250000Y-181075888D01*
X75083371Y-181092300D01*
X74923145Y-181140903D01*
X74775481Y-181219832D01*
X74646052Y-181326052D01*
X74539832Y-181455481D01*
X74460903Y-181603145D01*
X74412300Y-181763371D01*
X74395888Y-181930000D01*
X74395888Y-183830000D01*
X74412300Y-183996629D01*
X74460903Y-184156855D01*
X74539832Y-184304519D01*
X74646052Y-184433948D01*
X74775481Y-184540168D01*
X74923145Y-184619097D01*
X75083371Y-184667700D01*
X75250000Y-184684112D01*
X77150000Y-184684112D01*
X77316629Y-184667700D01*
X77390001Y-184645443D01*
X77390001Y-186610000D01*
X72820000Y-186610000D01*
X72780168Y-186535481D01*
X72673948Y-186406052D01*
X72544519Y-186299832D01*
X72396855Y-186220903D01*
X72236629Y-186172300D01*
X72070000Y-186155888D01*
X70170000Y-186155888D01*
X70003371Y-186172300D01*
X69843145Y-186220903D01*
X69695481Y-186299832D01*
X69566052Y-186406052D01*
X69459832Y-186535481D01*
X69380903Y-186683145D01*
X69332300Y-186843371D01*
X69315888Y-187010000D01*
X69315888Y-188910000D01*
X69332300Y-189076629D01*
X69380903Y-189236855D01*
X69459832Y-189384519D01*
X69566052Y-189513948D01*
X69695481Y-189620168D01*
X69843145Y-189699097D01*
X70003371Y-189747700D01*
X70170000Y-189764112D01*
X72070000Y-189764112D01*
X72236629Y-189747700D01*
X72396855Y-189699097D01*
X72544519Y-189620168D01*
X72673948Y-189513948D01*
X72780168Y-189384519D01*
X72820000Y-189310000D01*
X74434556Y-189310000D01*
X74412300Y-189383371D01*
X74395888Y-189550000D01*
X74395888Y-191450000D01*
X74412300Y-191616629D01*
X74460903Y-191776855D01*
X74539832Y-191924519D01*
X74646052Y-192053948D01*
X74775481Y-192160168D01*
X74923145Y-192239097D01*
X75083371Y-192287700D01*
X75250000Y-192304112D01*
X77150000Y-192304112D01*
X77316629Y-192287700D01*
X77470000Y-192241176D01*
X77623371Y-192287700D01*
X77790000Y-192304112D01*
X79690000Y-192304112D01*
X79856629Y-192287700D01*
X80016855Y-192239097D01*
X80164519Y-192160168D01*
X80293948Y-192053948D01*
X80400168Y-191924519D01*
X80479097Y-191776855D01*
X80527700Y-191616629D01*
X80544112Y-191450000D01*
X80544112Y-189550000D01*
X80527700Y-189383371D01*
X80505444Y-189310000D01*
X84660000Y-189310000D01*
X84699832Y-189384519D01*
X84806052Y-189513948D01*
X84935481Y-189620168D01*
X85010001Y-189660000D01*
X85010001Y-190433669D01*
X85003468Y-190500000D01*
X85010000Y-190566321D01*
X85010000Y-191690000D01*
X81981321Y-191690000D01*
X81915000Y-191683468D01*
X81650354Y-191709533D01*
X81395877Y-191786728D01*
X81221378Y-191880000D01*
X81161351Y-191912085D01*
X80955787Y-192080787D01*
X80913509Y-192132303D01*
X75292299Y-197753513D01*
X75240788Y-197795787D01*
X75198514Y-197847298D01*
X75198510Y-197847302D01*
X75072085Y-198001351D01*
X74946729Y-198235878D01*
X74869534Y-198490354D01*
X74843468Y-198755000D01*
X74850001Y-198821328D01*
X74850001Y-198960000D01*
X74775481Y-198999832D01*
X74646052Y-199106052D01*
X74539832Y-199235481D01*
X74460903Y-199383145D01*
X74412300Y-199543371D01*
X74395888Y-199710000D01*
X74395888Y-201610000D01*
X74412300Y-201776629D01*
X74460903Y-201936855D01*
X74539832Y-202084519D01*
X74646052Y-202213948D01*
X74775481Y-202320168D01*
X74923145Y-202399097D01*
X75083371Y-202447700D01*
X75250000Y-202464112D01*
X77150000Y-202464112D01*
X77316629Y-202447700D01*
X77469998Y-202401177D01*
X77623371Y-202447701D01*
X77790000Y-202464113D01*
X78477500Y-202460000D01*
X78690000Y-202247500D01*
X78690000Y-200710000D01*
X78790000Y-200710000D01*
X78790000Y-202247500D01*
X79002500Y-202460000D01*
X79690000Y-202464113D01*
X79856629Y-202447701D01*
X80016855Y-202399098D01*
X80164520Y-202320169D01*
X80293949Y-202213949D01*
X80400169Y-202084520D01*
X80479098Y-201936855D01*
X80527701Y-201776629D01*
X80544113Y-201610000D01*
X92175887Y-201610000D01*
X92192299Y-201776629D01*
X92240902Y-201936855D01*
X92319831Y-202084520D01*
X92426051Y-202213949D01*
X92555480Y-202320169D01*
X92703145Y-202399098D01*
X92863371Y-202447701D01*
X93030000Y-202464113D01*
X93717500Y-202460000D01*
X93930000Y-202247500D01*
X93930000Y-200710000D01*
X94030000Y-200710000D01*
X94030000Y-202247500D01*
X94242500Y-202460000D01*
X94930000Y-202464113D01*
X95096629Y-202447701D01*
X95256855Y-202399098D01*
X95404520Y-202320169D01*
X95533949Y-202213949D01*
X95640169Y-202084520D01*
X95719098Y-201936855D01*
X95767701Y-201776629D01*
X95783620Y-201615000D01*
X103605887Y-201615000D01*
X103610000Y-202302500D01*
X103822500Y-202515000D01*
X105360000Y-202515000D01*
X105360000Y-200977500D01*
X105460000Y-200977500D01*
X105460000Y-202515000D01*
X106997500Y-202515000D01*
X107210000Y-202302500D01*
X107214113Y-201615000D01*
X107197701Y-201448371D01*
X107149098Y-201288145D01*
X107070169Y-201140480D01*
X106963949Y-201011051D01*
X106834520Y-200904831D01*
X106686855Y-200825902D01*
X106526629Y-200777299D01*
X106360000Y-200760887D01*
X105672500Y-200765000D01*
X105460000Y-200977500D01*
X105360000Y-200977500D01*
X105147500Y-200765000D01*
X104460000Y-200760887D01*
X104293371Y-200777299D01*
X104133145Y-200825902D01*
X103985480Y-200904831D01*
X103856051Y-201011051D01*
X103749831Y-201140480D01*
X103670902Y-201288145D01*
X103622299Y-201448371D01*
X103605887Y-201615000D01*
X95783620Y-201615000D01*
X95784113Y-201610000D01*
X95780000Y-200922500D01*
X95567500Y-200710000D01*
X94030000Y-200710000D01*
X93930000Y-200710000D01*
X92392500Y-200710000D01*
X92180000Y-200922500D01*
X92175887Y-201610000D01*
X80544113Y-201610000D01*
X80540000Y-200922500D01*
X80327500Y-200710000D01*
X78790000Y-200710000D01*
X78690000Y-200710000D01*
X78670000Y-200710000D01*
X78670000Y-200610000D01*
X78690000Y-200610000D01*
X78690000Y-199072500D01*
X78790000Y-199072500D01*
X78790000Y-200610000D01*
X80327500Y-200610000D01*
X80540000Y-200397500D01*
X80544113Y-199710000D01*
X80527701Y-199543371D01*
X80479098Y-199383145D01*
X80400169Y-199235480D01*
X80293949Y-199106051D01*
X80250021Y-199070000D01*
X84555887Y-199070000D01*
X84572299Y-199236629D01*
X84620902Y-199396855D01*
X84699831Y-199544520D01*
X84806051Y-199673949D01*
X84935480Y-199780169D01*
X85083145Y-199859098D01*
X85243371Y-199907701D01*
X85410000Y-199924113D01*
X86097500Y-199920000D01*
X86310000Y-199707500D01*
X86310000Y-198170000D01*
X86410000Y-198170000D01*
X86410000Y-199707500D01*
X86622500Y-199920000D01*
X87310000Y-199924113D01*
X87476629Y-199907701D01*
X87636855Y-199859098D01*
X87784520Y-199780169D01*
X87870020Y-199710000D01*
X92175887Y-199710000D01*
X92180000Y-200397500D01*
X92392500Y-200610000D01*
X93930000Y-200610000D01*
X93930000Y-199072500D01*
X94030000Y-199072500D01*
X94030000Y-200610000D01*
X95567500Y-200610000D01*
X95780000Y-200397500D01*
X95784113Y-199710000D01*
X95767701Y-199543371D01*
X95719098Y-199383145D01*
X95640169Y-199235480D01*
X95533949Y-199106051D01*
X95404520Y-198999831D01*
X95256855Y-198920902D01*
X95096629Y-198872299D01*
X94930000Y-198855887D01*
X94242500Y-198860000D01*
X94030000Y-199072500D01*
X93930000Y-199072500D01*
X93717500Y-198860000D01*
X93030000Y-198855887D01*
X92863371Y-198872299D01*
X92703145Y-198920902D01*
X92555480Y-198999831D01*
X92426051Y-199106051D01*
X92319831Y-199235480D01*
X92240902Y-199383145D01*
X92192299Y-199543371D01*
X92175887Y-199710000D01*
X87870020Y-199710000D01*
X87913949Y-199673949D01*
X88020169Y-199544520D01*
X88099098Y-199396855D01*
X88147701Y-199236629D01*
X88164113Y-199070000D01*
X88160000Y-198382500D01*
X87947500Y-198170000D01*
X86410000Y-198170000D01*
X86310000Y-198170000D01*
X84772500Y-198170000D01*
X84560000Y-198382500D01*
X84555887Y-199070000D01*
X80250021Y-199070000D01*
X80164520Y-198999831D01*
X80016855Y-198920902D01*
X79856629Y-198872299D01*
X79690000Y-198855887D01*
X79002500Y-198860000D01*
X78790000Y-199072500D01*
X78690000Y-199072500D01*
X78477500Y-198860000D01*
X78007003Y-198857185D01*
X79694188Y-197170000D01*
X84555887Y-197170000D01*
X84560000Y-197857500D01*
X84772500Y-198070000D01*
X86310000Y-198070000D01*
X86310000Y-196532500D01*
X86410000Y-196532500D01*
X86410000Y-198070000D01*
X87947500Y-198070000D01*
X88160000Y-197857500D01*
X88164113Y-197170000D01*
X88147701Y-197003371D01*
X88099098Y-196843145D01*
X88020169Y-196695480D01*
X87913949Y-196566051D01*
X87784520Y-196459831D01*
X87636855Y-196380902D01*
X87476629Y-196332299D01*
X87310000Y-196315887D01*
X86622500Y-196320000D01*
X86410000Y-196532500D01*
X86310000Y-196532500D01*
X86097500Y-196320000D01*
X85410000Y-196315887D01*
X85243371Y-196332299D01*
X85083145Y-196380902D01*
X84935480Y-196459831D01*
X84806051Y-196566051D01*
X84699831Y-196695480D01*
X84620902Y-196843145D01*
X84572299Y-197003371D01*
X84555887Y-197170000D01*
X79694188Y-197170000D01*
X82474188Y-194390000D01*
X85164416Y-194390000D01*
X85212567Y-194438151D01*
X85507380Y-194635139D01*
X85834959Y-194770827D01*
X86182716Y-194840000D01*
X86537284Y-194840000D01*
X86885041Y-194770827D01*
X87212620Y-194635139D01*
X87507433Y-194438151D01*
X87758151Y-194187433D01*
X87955139Y-193892620D01*
X88090827Y-193565041D01*
X88160000Y-193217284D01*
X88160000Y-192862716D01*
X88090827Y-192514959D01*
X87955139Y-192187380D01*
X87758151Y-191892567D01*
X87715584Y-191850000D01*
X90738681Y-191850000D01*
X90805000Y-191856532D01*
X90871319Y-191850000D01*
X90871321Y-191850000D01*
X91069646Y-191830467D01*
X91324122Y-191753272D01*
X91558649Y-191627915D01*
X91764213Y-191459213D01*
X91806492Y-191407696D01*
X92175888Y-191038299D01*
X92175888Y-191450000D01*
X92192300Y-191616629D01*
X92240903Y-191776855D01*
X92319832Y-191924519D01*
X92426052Y-192053948D01*
X92555481Y-192160168D01*
X92703145Y-192239097D01*
X92863371Y-192287700D01*
X93030000Y-192304112D01*
X94930000Y-192304112D01*
X95096629Y-192287700D01*
X95256855Y-192239097D01*
X95404519Y-192160168D01*
X95533948Y-192053948D01*
X95640168Y-191924519D01*
X95719097Y-191776855D01*
X95767700Y-191616629D01*
X95784112Y-191450000D01*
X95784112Y-189550000D01*
X95767700Y-189383371D01*
X95719097Y-189223145D01*
X95640168Y-189075481D01*
X95533948Y-188946052D01*
X95404519Y-188839832D01*
X95256855Y-188760903D01*
X95096629Y-188712300D01*
X94930000Y-188695888D01*
X93244112Y-188695888D01*
X93244112Y-187010000D01*
X93227700Y-186843371D01*
X93179097Y-186683145D01*
X93100168Y-186535481D01*
X92993948Y-186406052D01*
X92864519Y-186299832D01*
X92716855Y-186220903D01*
X92556629Y-186172300D01*
X92390000Y-186155888D01*
X90490000Y-186155888D01*
X90323371Y-186172300D01*
X90170000Y-186218824D01*
X90050000Y-186182423D01*
X90050000Y-181490000D01*
X90748518Y-181490000D01*
X90805000Y-181495563D01*
X90861482Y-181490000D01*
X90861492Y-181490000D01*
X91030439Y-181473360D01*
X91247215Y-181407602D01*
X91446997Y-181300816D01*
X91622107Y-181157107D01*
X91658125Y-181113219D01*
X92213219Y-180558125D01*
X92257107Y-180522107D01*
X92400816Y-180346997D01*
X92480503Y-180197914D01*
X92507602Y-180147216D01*
X92573360Y-179930439D01*
X92595564Y-179705000D01*
X92590000Y-179648508D01*
X92590000Y-179577577D01*
X92716855Y-179539097D01*
X92864519Y-179460168D01*
X92993948Y-179353948D01*
X93100168Y-179224519D01*
X93179097Y-179076855D01*
X93227700Y-178916629D01*
X93244112Y-178750000D01*
X93244112Y-176850000D01*
X93227700Y-176683371D01*
X93180570Y-176528000D01*
X93229122Y-176513272D01*
X93463649Y-176387915D01*
X93669213Y-176219213D01*
X93711491Y-176167697D01*
X94715888Y-175163300D01*
X94715888Y-176210000D01*
X94732300Y-176376629D01*
X94780903Y-176536855D01*
X94859832Y-176684519D01*
X94966052Y-176813948D01*
X95095481Y-176920168D01*
X95243145Y-176999097D01*
X95403371Y-177047700D01*
X95570000Y-177064112D01*
X97470000Y-177064112D01*
X97636629Y-177047700D01*
X97796855Y-176999097D01*
X97944519Y-176920168D01*
X98073948Y-176813948D01*
X98180168Y-176684519D01*
X98259097Y-176536855D01*
X98307700Y-176376629D01*
X98324112Y-176210000D01*
X98324112Y-174310000D01*
X98307700Y-174143371D01*
X98259097Y-173983145D01*
X98180168Y-173835481D01*
X98073948Y-173706052D01*
X97944519Y-173599832D01*
X97796855Y-173520903D01*
X97636629Y-173472300D01*
X97470000Y-173455888D01*
X96423300Y-173455888D01*
X97079188Y-172800000D01*
X102784416Y-172800000D01*
X102741849Y-172842567D01*
X102544861Y-173137380D01*
X102409173Y-173464959D01*
X102340000Y-173812716D01*
X102340000Y-174167284D01*
X102409173Y-174515041D01*
X102544861Y-174842620D01*
X102741849Y-175137433D01*
X102790000Y-175185584D01*
X102790001Y-177875810D01*
X101881648Y-178784164D01*
X101754519Y-178679832D01*
X101606855Y-178600903D01*
X101446629Y-178552300D01*
X101280000Y-178535888D01*
X99380000Y-178535888D01*
X99213371Y-178552300D01*
X99053145Y-178600903D01*
X98905481Y-178679832D01*
X98776052Y-178786052D01*
X98669832Y-178915481D01*
X98590903Y-179063145D01*
X98542300Y-179223371D01*
X98525888Y-179390000D01*
X98525888Y-181290000D01*
X98542300Y-181456629D01*
X98564556Y-181530000D01*
X98491319Y-181530000D01*
X98425000Y-181523468D01*
X98358681Y-181530000D01*
X98358679Y-181530000D01*
X98283188Y-181537435D01*
X98307700Y-181456629D01*
X98324112Y-181290000D01*
X98324112Y-179390000D01*
X98307700Y-179223371D01*
X98259097Y-179063145D01*
X98180168Y-178915481D01*
X98073948Y-178786052D01*
X97944519Y-178679832D01*
X97796855Y-178600903D01*
X97636629Y-178552300D01*
X97470000Y-178535888D01*
X95570000Y-178535888D01*
X95403371Y-178552300D01*
X95243145Y-178600903D01*
X95095481Y-178679832D01*
X94966052Y-178786052D01*
X94859832Y-178915481D01*
X94780903Y-179063145D01*
X94732300Y-179223371D01*
X94715888Y-179390000D01*
X94715888Y-181290000D01*
X94732300Y-181456629D01*
X94780903Y-181616855D01*
X94859832Y-181764519D01*
X94966052Y-181893948D01*
X95095481Y-182000168D01*
X95243145Y-182079097D01*
X95403371Y-182127700D01*
X95570000Y-182144112D01*
X97251701Y-182144112D01*
X96882300Y-182513512D01*
X96830787Y-182555788D01*
X96788513Y-182607299D01*
X96788510Y-182607302D01*
X96662085Y-182761351D01*
X96625392Y-182830000D01*
X96536728Y-182995879D01*
X96459533Y-183250355D01*
X96444881Y-183399122D01*
X96433468Y-183515000D01*
X96440000Y-183581319D01*
X96440001Y-196783671D01*
X96433468Y-196850000D01*
X96459534Y-197114646D01*
X96536729Y-197369122D01*
X96662085Y-197603649D01*
X96788510Y-197757698D01*
X96788514Y-197757702D01*
X96830788Y-197809213D01*
X96882299Y-197851487D01*
X98693513Y-199662702D01*
X98735787Y-199714213D01*
X98787298Y-199756487D01*
X98787301Y-199756490D01*
X98941350Y-199882915D01*
X98987722Y-199907701D01*
X99175878Y-200008272D01*
X99430354Y-200085467D01*
X99628679Y-200105000D01*
X99628681Y-200105000D01*
X99695000Y-200111532D01*
X99761319Y-200105000D01*
X100464416Y-200105000D01*
X100512567Y-200153151D01*
X100807380Y-200350139D01*
X101134959Y-200485827D01*
X101482716Y-200555000D01*
X101837284Y-200555000D01*
X102185041Y-200485827D01*
X102512620Y-200350139D01*
X102594795Y-200295231D01*
X102606052Y-200308948D01*
X102735481Y-200415168D01*
X102883145Y-200494097D01*
X103043371Y-200542700D01*
X103210000Y-200559112D01*
X105110000Y-200559112D01*
X105276629Y-200542700D01*
X105410000Y-200502243D01*
X105543371Y-200542700D01*
X105710000Y-200559112D01*
X107610000Y-200559112D01*
X107776629Y-200542700D01*
X107909998Y-200502244D01*
X108043371Y-200542701D01*
X108210000Y-200559113D01*
X108897500Y-200555000D01*
X109110000Y-200342500D01*
X109110000Y-198805000D01*
X109210000Y-198805000D01*
X109210000Y-200342500D01*
X109422500Y-200555000D01*
X110110000Y-200559113D01*
X110276629Y-200542701D01*
X110436855Y-200494098D01*
X110584520Y-200415169D01*
X110713949Y-200308949D01*
X110820169Y-200179520D01*
X110899098Y-200031855D01*
X110947701Y-199871629D01*
X110963620Y-199710000D01*
X117575888Y-199710000D01*
X117575888Y-201610000D01*
X117592300Y-201776629D01*
X117640903Y-201936855D01*
X117719832Y-202084519D01*
X117826052Y-202213948D01*
X117955481Y-202320168D01*
X118103145Y-202399097D01*
X118263371Y-202447700D01*
X118430000Y-202464112D01*
X120330000Y-202464112D01*
X120496629Y-202447700D01*
X120649998Y-202401177D01*
X120803371Y-202447701D01*
X120970000Y-202464113D01*
X121657500Y-202460000D01*
X121870000Y-202247500D01*
X121870000Y-200710000D01*
X121850000Y-200710000D01*
X121850000Y-200610000D01*
X121870000Y-200610000D01*
X121870000Y-199072500D01*
X121657500Y-198860000D01*
X120970000Y-198855887D01*
X120803371Y-198872299D01*
X120649998Y-198918823D01*
X120496629Y-198872300D01*
X120330000Y-198855888D01*
X118430000Y-198855888D01*
X118263371Y-198872300D01*
X118103145Y-198920903D01*
X117955481Y-198999832D01*
X117826052Y-199106052D01*
X117719832Y-199235481D01*
X117640903Y-199383145D01*
X117592300Y-199543371D01*
X117575888Y-199710000D01*
X110963620Y-199710000D01*
X110964113Y-199705000D01*
X110960000Y-199017500D01*
X110747500Y-198805000D01*
X109210000Y-198805000D01*
X109110000Y-198805000D01*
X109090000Y-198805000D01*
X109090000Y-198705000D01*
X109110000Y-198705000D01*
X109110000Y-197167500D01*
X109210000Y-197167500D01*
X109210000Y-198705000D01*
X110747500Y-198705000D01*
X110960000Y-198492500D01*
X110964113Y-197805000D01*
X110947701Y-197638371D01*
X110899098Y-197478145D01*
X110820169Y-197330480D01*
X110713949Y-197201051D01*
X110584520Y-197094831D01*
X110436855Y-197015902D01*
X110276629Y-196967299D01*
X110110000Y-196950887D01*
X109422500Y-196955000D01*
X109210000Y-197167500D01*
X109110000Y-197167500D01*
X108897500Y-196955000D01*
X108210000Y-196950887D01*
X108043371Y-196967299D01*
X107909998Y-197007756D01*
X107776629Y-196967300D01*
X107610000Y-196950888D01*
X105710000Y-196950888D01*
X105543371Y-196967300D01*
X105410000Y-197007757D01*
X105276629Y-196967300D01*
X105110000Y-196950888D01*
X103210000Y-196950888D01*
X103043371Y-196967300D01*
X102883145Y-197015903D01*
X102735481Y-197094832D01*
X102606052Y-197201052D01*
X102594795Y-197214769D01*
X102512620Y-197159861D01*
X102185041Y-197024173D01*
X101837284Y-196955000D01*
X101482716Y-196955000D01*
X101134959Y-197024173D01*
X100807380Y-197159861D01*
X100512567Y-197356849D01*
X100464416Y-197405000D01*
X100254189Y-197405000D01*
X99140000Y-196290812D01*
X99140000Y-195332142D01*
X99160000Y-195334112D01*
X101660000Y-195334112D01*
X101826629Y-195317700D01*
X101986855Y-195269097D01*
X102134519Y-195190168D01*
X102263948Y-195083948D01*
X102370168Y-194954519D01*
X102449097Y-194806855D01*
X102497700Y-194646629D01*
X102504263Y-194580000D01*
X103315737Y-194580000D01*
X103322300Y-194646629D01*
X103370903Y-194806855D01*
X103449832Y-194954519D01*
X103556052Y-195083948D01*
X103685481Y-195190168D01*
X103833145Y-195269097D01*
X103993371Y-195317700D01*
X104160000Y-195334112D01*
X106660000Y-195334112D01*
X106826629Y-195317700D01*
X106986855Y-195269097D01*
X107134519Y-195190168D01*
X107263948Y-195083948D01*
X107370168Y-194954519D01*
X107449097Y-194806855D01*
X107497700Y-194646629D01*
X107514112Y-194480000D01*
X107514112Y-194202200D01*
X107703851Y-194357915D01*
X107938378Y-194483272D01*
X108192854Y-194560467D01*
X108314998Y-194572497D01*
X108322300Y-194646629D01*
X108370903Y-194806855D01*
X108449832Y-194954519D01*
X108556052Y-195083948D01*
X108685481Y-195190168D01*
X108833145Y-195269097D01*
X108993371Y-195317700D01*
X109160000Y-195334112D01*
X111660000Y-195334112D01*
X111826629Y-195317700D01*
X111986855Y-195269097D01*
X112134519Y-195190168D01*
X112263948Y-195083948D01*
X112370168Y-194954519D01*
X112449097Y-194806855D01*
X112497700Y-194646629D01*
X112514112Y-194480000D01*
X112514112Y-191980000D01*
X112497700Y-191813371D01*
X112449097Y-191653145D01*
X112370168Y-191505481D01*
X112263948Y-191376052D01*
X112134519Y-191269832D01*
X112060001Y-191230001D01*
X112134520Y-191190169D01*
X112263949Y-191083949D01*
X112370169Y-190954520D01*
X112449098Y-190806855D01*
X112497701Y-190646629D01*
X112514113Y-190480000D01*
X112510000Y-189492500D01*
X112297500Y-189280000D01*
X110460000Y-189280000D01*
X110460000Y-189300000D01*
X110360000Y-189300000D01*
X110360000Y-189280000D01*
X110340000Y-189280000D01*
X110340000Y-189180000D01*
X110360000Y-189180000D01*
X110360000Y-189160000D01*
X110460000Y-189160000D01*
X110460000Y-189180000D01*
X112297500Y-189180000D01*
X112510000Y-188967500D01*
X112514113Y-187980000D01*
X112497701Y-187813371D01*
X112449098Y-187653145D01*
X112370169Y-187505480D01*
X112263949Y-187376051D01*
X112134520Y-187269831D01*
X112060001Y-187229999D01*
X112134519Y-187190168D01*
X112263948Y-187083948D01*
X112370168Y-186954519D01*
X112449097Y-186806855D01*
X112497700Y-186646629D01*
X112514112Y-186480000D01*
X112514112Y-183980000D01*
X112497700Y-183813371D01*
X112449097Y-183653145D01*
X112370168Y-183505481D01*
X112263948Y-183376052D01*
X112134519Y-183269832D01*
X111986855Y-183190903D01*
X111826629Y-183142300D01*
X111660000Y-183125888D01*
X109160000Y-183125888D01*
X108993371Y-183142300D01*
X108833145Y-183190903D01*
X108685481Y-183269832D01*
X108556052Y-183376052D01*
X108449832Y-183505481D01*
X108370903Y-183653145D01*
X108322300Y-183813371D01*
X108305888Y-183980000D01*
X108305888Y-184501700D01*
X108126491Y-184322303D01*
X108084213Y-184270787D01*
X107878649Y-184102085D01*
X107644122Y-183976728D01*
X107509776Y-183935974D01*
X107497700Y-183813371D01*
X107449097Y-183653145D01*
X107370168Y-183505481D01*
X107263948Y-183376052D01*
X107134519Y-183269832D01*
X106986855Y-183190903D01*
X106826629Y-183142300D01*
X106660000Y-183125888D01*
X104160000Y-183125888D01*
X103993371Y-183142300D01*
X103833346Y-183190842D01*
X107587697Y-179436491D01*
X107639213Y-179394213D01*
X107642670Y-179390000D01*
X108685888Y-179390000D01*
X108685888Y-181290000D01*
X108702300Y-181456629D01*
X108750903Y-181616855D01*
X108829832Y-181764519D01*
X108936052Y-181893948D01*
X109065481Y-182000168D01*
X109213145Y-182079097D01*
X109373371Y-182127700D01*
X109540000Y-182144112D01*
X111440000Y-182144112D01*
X111606629Y-182127700D01*
X111766855Y-182079097D01*
X111914519Y-182000168D01*
X112000018Y-181930000D01*
X115035888Y-181930000D01*
X115035888Y-183830000D01*
X115052300Y-183996629D01*
X115100903Y-184156855D01*
X115179832Y-184304519D01*
X115286052Y-184433948D01*
X115415481Y-184540168D01*
X115563145Y-184619097D01*
X115723371Y-184667700D01*
X115890000Y-184684112D01*
X117790000Y-184684112D01*
X117956629Y-184667700D01*
X118116855Y-184619097D01*
X118264519Y-184540168D01*
X118393948Y-184433948D01*
X118500168Y-184304519D01*
X118579097Y-184156855D01*
X118627700Y-183996629D01*
X118644112Y-183830000D01*
X118644112Y-181930000D01*
X125195888Y-181930000D01*
X125195888Y-183830000D01*
X125212300Y-183996629D01*
X125260903Y-184156855D01*
X125339832Y-184304519D01*
X125446052Y-184433948D01*
X125575481Y-184540168D01*
X125723145Y-184619097D01*
X125883371Y-184667700D01*
X126050000Y-184684112D01*
X127950000Y-184684112D01*
X128116629Y-184667700D01*
X128276855Y-184619097D01*
X128424519Y-184540168D01*
X128553948Y-184433948D01*
X128660168Y-184304519D01*
X128739097Y-184156855D01*
X128787700Y-183996629D01*
X128804112Y-183830000D01*
X128804112Y-181930000D01*
X129005888Y-181930000D01*
X129005888Y-183830000D01*
X129022300Y-183996629D01*
X129070903Y-184156855D01*
X129149832Y-184304519D01*
X129256052Y-184433948D01*
X129385481Y-184540168D01*
X129533145Y-184619097D01*
X129693371Y-184667700D01*
X129860000Y-184684112D01*
X131760000Y-184684112D01*
X131926629Y-184667700D01*
X132086855Y-184619097D01*
X132234519Y-184540168D01*
X132363948Y-184433948D01*
X132470168Y-184304519D01*
X132549097Y-184156855D01*
X132597700Y-183996629D01*
X132614112Y-183830000D01*
X132614112Y-181930000D01*
X132597700Y-181763371D01*
X132549097Y-181603145D01*
X132470168Y-181455481D01*
X132363948Y-181326052D01*
X132234519Y-181219832D01*
X132086855Y-181140903D01*
X131926629Y-181092300D01*
X131760000Y-181075888D01*
X129860000Y-181075888D01*
X129693371Y-181092300D01*
X129533145Y-181140903D01*
X129385481Y-181219832D01*
X129256052Y-181326052D01*
X129149832Y-181455481D01*
X129070903Y-181603145D01*
X129022300Y-181763371D01*
X129005888Y-181930000D01*
X128804112Y-181930000D01*
X128787700Y-181763371D01*
X128739097Y-181603145D01*
X128660168Y-181455481D01*
X128553948Y-181326052D01*
X128424519Y-181219832D01*
X128276855Y-181140903D01*
X128116629Y-181092300D01*
X127950000Y-181075888D01*
X126050000Y-181075888D01*
X125883371Y-181092300D01*
X125723145Y-181140903D01*
X125575481Y-181219832D01*
X125446052Y-181326052D01*
X125339832Y-181455481D01*
X125260903Y-181603145D01*
X125212300Y-181763371D01*
X125195888Y-181930000D01*
X118644112Y-181930000D01*
X118627700Y-181763371D01*
X118579097Y-181603145D01*
X118500168Y-181455481D01*
X118393948Y-181326052D01*
X118264519Y-181219832D01*
X118116855Y-181140903D01*
X117956629Y-181092300D01*
X117790000Y-181075888D01*
X115890000Y-181075888D01*
X115723371Y-181092300D01*
X115563145Y-181140903D01*
X115415481Y-181219832D01*
X115286052Y-181326052D01*
X115179832Y-181455481D01*
X115100903Y-181603145D01*
X115052300Y-181763371D01*
X115035888Y-181930000D01*
X112000018Y-181930000D01*
X112043948Y-181893948D01*
X112150168Y-181764519D01*
X112229097Y-181616855D01*
X112277700Y-181456629D01*
X112294112Y-181290000D01*
X112294112Y-179390000D01*
X112277700Y-179223371D01*
X112229097Y-179063145D01*
X112150168Y-178915481D01*
X112043948Y-178786052D01*
X112000019Y-178750000D01*
X120115887Y-178750000D01*
X120132299Y-178916629D01*
X120180902Y-179076855D01*
X120259831Y-179224520D01*
X120366051Y-179353949D01*
X120495480Y-179460169D01*
X120643145Y-179539098D01*
X120803371Y-179587701D01*
X120970000Y-179604113D01*
X121657500Y-179600000D01*
X121870000Y-179387500D01*
X121870000Y-177850000D01*
X121970000Y-177850000D01*
X121970000Y-179387500D01*
X122182500Y-179600000D01*
X122870000Y-179604113D01*
X123036629Y-179587701D01*
X123196855Y-179539098D01*
X123344520Y-179460169D01*
X123473949Y-179353949D01*
X123580169Y-179224520D01*
X123659098Y-179076855D01*
X123707701Y-178916629D01*
X123724113Y-178750000D01*
X123720000Y-178062500D01*
X123507500Y-177850000D01*
X121970000Y-177850000D01*
X121870000Y-177850000D01*
X120332500Y-177850000D01*
X120120000Y-178062500D01*
X120115887Y-178750000D01*
X112000019Y-178750000D01*
X111914519Y-178679832D01*
X111766855Y-178600903D01*
X111606629Y-178552300D01*
X111440000Y-178535888D01*
X109540000Y-178535888D01*
X109373371Y-178552300D01*
X109213145Y-178600903D01*
X109065481Y-178679832D01*
X108936052Y-178786052D01*
X108829832Y-178915481D01*
X108750903Y-179063145D01*
X108702300Y-179223371D01*
X108685888Y-179390000D01*
X107642670Y-179390000D01*
X107747073Y-179262785D01*
X107807915Y-179188650D01*
X107932501Y-178955564D01*
X107933272Y-178954122D01*
X108010467Y-178699646D01*
X108030000Y-178501321D01*
X108030000Y-178501312D01*
X108036531Y-178435001D01*
X108030000Y-178368690D01*
X108030000Y-175407363D01*
X108066999Y-175376999D01*
X108244106Y-175161194D01*
X108375708Y-174914984D01*
X108456748Y-174647830D01*
X108484112Y-174370000D01*
X108484112Y-173610000D01*
X108456748Y-173332170D01*
X108375708Y-173065016D01*
X108244106Y-172818806D01*
X108066999Y-172603001D01*
X108030000Y-172572637D01*
X108030000Y-171516321D01*
X108036532Y-171450000D01*
X108030000Y-171383679D01*
X108030000Y-169405444D01*
X108103371Y-169427700D01*
X108270000Y-169444112D01*
X110170000Y-169444112D01*
X110336629Y-169427700D01*
X110496855Y-169379097D01*
X110644519Y-169300168D01*
X110773948Y-169193948D01*
X110880168Y-169064519D01*
X110959097Y-168916855D01*
X111007700Y-168756629D01*
X111024112Y-168590000D01*
X111024112Y-166690000D01*
X111007700Y-166523371D01*
X110959097Y-166363145D01*
X110880168Y-166215481D01*
X110773948Y-166086052D01*
X110644519Y-165979832D01*
X110496855Y-165900903D01*
X110336629Y-165852300D01*
X110170000Y-165835888D01*
X108270000Y-165835888D01*
X108103371Y-165852300D01*
X108030000Y-165874556D01*
X108030000Y-165024188D01*
X109544188Y-163510000D01*
X112495887Y-163510000D01*
X112512299Y-163676629D01*
X112560902Y-163836855D01*
X112639831Y-163984520D01*
X112746051Y-164113949D01*
X112875480Y-164220169D01*
X113023145Y-164299098D01*
X113183371Y-164347701D01*
X113350000Y-164364113D01*
X114037500Y-164360000D01*
X114250000Y-164147500D01*
X114250000Y-162610000D01*
X114350000Y-162610000D01*
X114350000Y-164147500D01*
X114562500Y-164360000D01*
X115250000Y-164364113D01*
X115416629Y-164347701D01*
X115576855Y-164299098D01*
X115724520Y-164220169D01*
X115853949Y-164113949D01*
X115960169Y-163984520D01*
X116039098Y-163836855D01*
X116087701Y-163676629D01*
X116104113Y-163510000D01*
X116100000Y-162822500D01*
X115887500Y-162610000D01*
X114350000Y-162610000D01*
X114250000Y-162610000D01*
X112712500Y-162610000D01*
X112500000Y-162822500D01*
X112495887Y-163510000D01*
X109544188Y-163510000D01*
X111444188Y-161610000D01*
X112495887Y-161610000D01*
X112500000Y-162297500D01*
X112712500Y-162510000D01*
X114250000Y-162510000D01*
X114250000Y-160972500D01*
X114350000Y-160972500D01*
X114350000Y-162510000D01*
X115887500Y-162510000D01*
X116100000Y-162297500D01*
X116104113Y-161610000D01*
X116087701Y-161443371D01*
X116039098Y-161283145D01*
X115960169Y-161135480D01*
X115853949Y-161006051D01*
X115724520Y-160899831D01*
X115576855Y-160820902D01*
X115416629Y-160772299D01*
X115250000Y-160755887D01*
X114562500Y-160760000D01*
X114350000Y-160972500D01*
X114250000Y-160972500D01*
X114037500Y-160760000D01*
X113350000Y-160755887D01*
X113183371Y-160772299D01*
X113023145Y-160820902D01*
X112875480Y-160899831D01*
X112746051Y-161006051D01*
X112639831Y-161135480D01*
X112560902Y-161283145D01*
X112512299Y-161443371D01*
X112495887Y-161610000D01*
X111444188Y-161610000D01*
X115207697Y-157846491D01*
X115259213Y-157804213D01*
X115427915Y-157598649D01*
X115553272Y-157364122D01*
X115630467Y-157109646D01*
X115650000Y-156911321D01*
X115650000Y-156911312D01*
X115656531Y-156845001D01*
X115650000Y-156778690D01*
X115650000Y-156640000D01*
X115724519Y-156600168D01*
X115853948Y-156493948D01*
X115960168Y-156364519D01*
X116039097Y-156216855D01*
X116087700Y-156056629D01*
X116104112Y-155890000D01*
X116104112Y-153990000D01*
X116087700Y-153823371D01*
X116039097Y-153663145D01*
X115960168Y-153515481D01*
X115855836Y-153388352D01*
X118034189Y-151210000D01*
X120564416Y-151210000D01*
X120521849Y-151252567D01*
X120324861Y-151547380D01*
X120189173Y-151874959D01*
X120120000Y-152222716D01*
X120120000Y-152577284D01*
X120189173Y-152925041D01*
X120324861Y-153252620D01*
X120397030Y-153360629D01*
X120366052Y-153386052D01*
X120259832Y-153515481D01*
X120180903Y-153663145D01*
X120132300Y-153823371D01*
X120115888Y-153990000D01*
X120115888Y-155890000D01*
X120132300Y-156056629D01*
X120178824Y-156210000D01*
X120142423Y-156330000D01*
X120071492Y-156330000D01*
X120015000Y-156324436D01*
X119789561Y-156346640D01*
X119572784Y-156412398D01*
X119529678Y-156435439D01*
X119373003Y-156519184D01*
X119197893Y-156662893D01*
X119161875Y-156706781D01*
X118606781Y-157261875D01*
X118562893Y-157297893D01*
X118419184Y-157473004D01*
X118312398Y-157672786D01*
X118246640Y-157889562D01*
X118230000Y-158058509D01*
X118230000Y-158058518D01*
X118224437Y-158115000D01*
X118230000Y-158171482D01*
X118230001Y-174568508D01*
X118224437Y-174625000D01*
X118230001Y-174681491D01*
X118230001Y-174681492D01*
X118246641Y-174850439D01*
X118312399Y-175067215D01*
X118419185Y-175266997D01*
X118562894Y-175442107D01*
X118606776Y-175478120D01*
X119161875Y-176033219D01*
X119197893Y-176077107D01*
X119373003Y-176220816D01*
X119456328Y-176265354D01*
X119572784Y-176327602D01*
X119734406Y-176376629D01*
X119789561Y-176393360D01*
X119875751Y-176401849D01*
X120015000Y-176415564D01*
X120071492Y-176410000D01*
X120142423Y-176410000D01*
X120178823Y-176529998D01*
X120132299Y-176683371D01*
X120115887Y-176850000D01*
X120120000Y-177537500D01*
X120332500Y-177750000D01*
X121870000Y-177750000D01*
X121870000Y-177730000D01*
X121970000Y-177730000D01*
X121970000Y-177750000D01*
X123507500Y-177750000D01*
X123720000Y-177537500D01*
X123724113Y-176850000D01*
X123707701Y-176683371D01*
X123661177Y-176529998D01*
X123707700Y-176376629D01*
X123724112Y-176210000D01*
X123724112Y-174310000D01*
X123707700Y-174143371D01*
X123661176Y-173990000D01*
X123707700Y-173836629D01*
X123724112Y-173670000D01*
X123724112Y-171770000D01*
X123707700Y-171603371D01*
X123659097Y-171443145D01*
X123580168Y-171295481D01*
X123473948Y-171166052D01*
X123442970Y-171140629D01*
X123515139Y-171032620D01*
X123650827Y-170705041D01*
X123720000Y-170357284D01*
X123720000Y-170002716D01*
X123650827Y-169654959D01*
X123515139Y-169327380D01*
X123318151Y-169032567D01*
X123067433Y-168781849D01*
X122772620Y-168584861D01*
X122445041Y-168449173D01*
X122097284Y-168380000D01*
X121742716Y-168380000D01*
X121394959Y-168449173D01*
X121067380Y-168584861D01*
X120772567Y-168781849D01*
X120530000Y-169024416D01*
X120530000Y-166255584D01*
X120772567Y-166498151D01*
X121067380Y-166695139D01*
X121394959Y-166830827D01*
X121742716Y-166900000D01*
X122097284Y-166900000D01*
X122445041Y-166830827D01*
X122772620Y-166695139D01*
X123067433Y-166498151D01*
X123318151Y-166247433D01*
X123515139Y-165952620D01*
X123650827Y-165625041D01*
X123720000Y-165277284D01*
X123720000Y-164922716D01*
X123650827Y-164574959D01*
X123515139Y-164247380D01*
X123318151Y-163952567D01*
X123067433Y-163701849D01*
X122772620Y-163504861D01*
X122445041Y-163369173D01*
X122097284Y-163300000D01*
X121742716Y-163300000D01*
X121394959Y-163369173D01*
X121067380Y-163504861D01*
X120772567Y-163701849D01*
X120530000Y-163944416D01*
X120530000Y-161698620D01*
X120643145Y-161759098D01*
X120803371Y-161807701D01*
X120970000Y-161824113D01*
X121657500Y-161820000D01*
X121870000Y-161607500D01*
X121870000Y-160070000D01*
X121970000Y-160070000D01*
X121970000Y-161607500D01*
X122182500Y-161820000D01*
X122870000Y-161824113D01*
X123036629Y-161807701D01*
X123196855Y-161759098D01*
X123344520Y-161680169D01*
X123473949Y-161573949D01*
X123580169Y-161444520D01*
X123659098Y-161296855D01*
X123707701Y-161136629D01*
X123724113Y-160970000D01*
X123720000Y-160282500D01*
X123507500Y-160070000D01*
X121970000Y-160070000D01*
X121870000Y-160070000D01*
X121850000Y-160070000D01*
X121850000Y-159970000D01*
X121870000Y-159970000D01*
X121870000Y-159950000D01*
X121970000Y-159950000D01*
X121970000Y-159970000D01*
X123507500Y-159970000D01*
X123720000Y-159757500D01*
X123724113Y-159070000D01*
X123707701Y-158903371D01*
X123661177Y-158749998D01*
X123707700Y-158596629D01*
X123724112Y-158430000D01*
X123724112Y-156530000D01*
X123717060Y-156458405D01*
X124580000Y-157321345D01*
X124580001Y-175838508D01*
X124574437Y-175895000D01*
X124580001Y-175951491D01*
X124580001Y-175951492D01*
X124596641Y-176120439D01*
X124662399Y-176337215D01*
X124769185Y-176536997D01*
X124912894Y-176712107D01*
X124956774Y-176748118D01*
X126781880Y-178573225D01*
X126817893Y-178617107D01*
X126993003Y-178760816D01*
X127192785Y-178867602D01*
X127409561Y-178933360D01*
X127578508Y-178950000D01*
X127578516Y-178950000D01*
X127635000Y-178955563D01*
X127691484Y-178950000D01*
X127762423Y-178950000D01*
X127800903Y-179076855D01*
X127879832Y-179224519D01*
X127986052Y-179353948D01*
X128115481Y-179460168D01*
X128263145Y-179539097D01*
X128423371Y-179587700D01*
X128590000Y-179604112D01*
X130490000Y-179604112D01*
X130656629Y-179587700D01*
X130816855Y-179539097D01*
X130964519Y-179460168D01*
X131093948Y-179353948D01*
X131200168Y-179224519D01*
X131279097Y-179076855D01*
X131327700Y-178916629D01*
X131344112Y-178750000D01*
X131344112Y-176850000D01*
X131327700Y-176683371D01*
X131281176Y-176530000D01*
X131327700Y-176376629D01*
X131344112Y-176210000D01*
X131344112Y-174310000D01*
X131327700Y-174143371D01*
X131281176Y-173990000D01*
X131327700Y-173836629D01*
X131344112Y-173670000D01*
X135355887Y-173670000D01*
X135372299Y-173836629D01*
X135420902Y-173996855D01*
X135499831Y-174144520D01*
X135606051Y-174273949D01*
X135735480Y-174380169D01*
X135883145Y-174459098D01*
X136043371Y-174507701D01*
X136210000Y-174524113D01*
X136897500Y-174520000D01*
X137110000Y-174307500D01*
X137110000Y-172770000D01*
X135572500Y-172770000D01*
X135360000Y-172982500D01*
X135355887Y-173670000D01*
X131344112Y-173670000D01*
X131344112Y-171770000D01*
X131327700Y-171603371D01*
X131305444Y-171530000D01*
X131378681Y-171530000D01*
X131445000Y-171536532D01*
X131511319Y-171530000D01*
X131511321Y-171530000D01*
X131709646Y-171510467D01*
X131964122Y-171433272D01*
X132198649Y-171307915D01*
X132404213Y-171139213D01*
X132446492Y-171087696D01*
X132987692Y-170546495D01*
X133039213Y-170504213D01*
X133207915Y-170298649D01*
X133303654Y-170119534D01*
X133333272Y-170064123D01*
X133366507Y-169954561D01*
X133410467Y-169809646D01*
X133430000Y-169611321D01*
X133430000Y-169611319D01*
X133436532Y-169545000D01*
X133430000Y-169478681D01*
X133430000Y-153101319D01*
X133436532Y-153035000D01*
X133419956Y-152866703D01*
X133410467Y-152770354D01*
X133340052Y-152538228D01*
X133333272Y-152515877D01*
X133267594Y-152393003D01*
X133207915Y-152281351D01*
X133039212Y-152075787D01*
X132987696Y-152033509D01*
X132446492Y-151492304D01*
X132404213Y-151440787D01*
X132198649Y-151272085D01*
X131964122Y-151146728D01*
X131709646Y-151069533D01*
X131511321Y-151050000D01*
X131511319Y-151050000D01*
X131445000Y-151043468D01*
X131378681Y-151050000D01*
X131240000Y-151050000D01*
X131200168Y-150975481D01*
X131093948Y-150846052D01*
X130964519Y-150739832D01*
X130890000Y-150700000D01*
X130890000Y-149926321D01*
X130896532Y-149860000D01*
X130890000Y-149793679D01*
X130890000Y-143435584D01*
X130938151Y-143387433D01*
X131135139Y-143092620D01*
X131270827Y-142765041D01*
X131340000Y-142417284D01*
X131340000Y-142062716D01*
X131270827Y-141714959D01*
X131135139Y-141387380D01*
X130938151Y-141092567D01*
X130929516Y-141083932D01*
X131104106Y-140871194D01*
X131235708Y-140624984D01*
X131316748Y-140357830D01*
X131344112Y-140080000D01*
X131344112Y-139320000D01*
X131316748Y-139042170D01*
X131235708Y-138775016D01*
X131104106Y-138528806D01*
X131088672Y-138510000D01*
X132854556Y-138510000D01*
X132832300Y-138583371D01*
X132815888Y-138750000D01*
X132815888Y-140650000D01*
X132832300Y-140816629D01*
X132880903Y-140976855D01*
X132959832Y-141124519D01*
X133066052Y-141253948D01*
X133195481Y-141360168D01*
X133343145Y-141439097D01*
X133503371Y-141487700D01*
X133670000Y-141504112D01*
X135355888Y-141504112D01*
X135355888Y-143190000D01*
X135372300Y-143356629D01*
X135420903Y-143516855D01*
X135499832Y-143664519D01*
X135606052Y-143793948D01*
X135735481Y-143900168D01*
X135883145Y-143979097D01*
X136043371Y-144027700D01*
X136210000Y-144044112D01*
X138110000Y-144044112D01*
X138276629Y-144027700D01*
X138350000Y-144005444D01*
X138350000Y-144284556D01*
X138276629Y-144262300D01*
X138110000Y-144245888D01*
X136210000Y-144245888D01*
X136043371Y-144262300D01*
X135883145Y-144310903D01*
X135735481Y-144389832D01*
X135606052Y-144496052D01*
X135499832Y-144625481D01*
X135420903Y-144773145D01*
X135372300Y-144933371D01*
X135355888Y-145100000D01*
X135355888Y-147000000D01*
X135372300Y-147166629D01*
X135420903Y-147326855D01*
X135499832Y-147474519D01*
X135606052Y-147603948D01*
X135735481Y-147710168D01*
X135883145Y-147789097D01*
X136043371Y-147837700D01*
X136210000Y-147854112D01*
X138110000Y-147854112D01*
X138276629Y-147837700D01*
X138350000Y-147815444D01*
X138350000Y-150634556D01*
X138276629Y-150612300D01*
X138110000Y-150595888D01*
X136424112Y-150595888D01*
X136424112Y-148910000D01*
X136407700Y-148743371D01*
X136359097Y-148583145D01*
X136280168Y-148435481D01*
X136173948Y-148306052D01*
X136044519Y-148199832D01*
X135896855Y-148120903D01*
X135736629Y-148072300D01*
X135570000Y-148055888D01*
X133670000Y-148055888D01*
X133503371Y-148072300D01*
X133343145Y-148120903D01*
X133195481Y-148199832D01*
X133066052Y-148306052D01*
X132959832Y-148435481D01*
X132880903Y-148583145D01*
X132832300Y-148743371D01*
X132815888Y-148910000D01*
X132815888Y-150810000D01*
X132832300Y-150976629D01*
X132880903Y-151136855D01*
X132959832Y-151284519D01*
X133066052Y-151413948D01*
X133195481Y-151520168D01*
X133343145Y-151599097D01*
X133503371Y-151647700D01*
X133670000Y-151664112D01*
X135355888Y-151664112D01*
X135355888Y-153350000D01*
X135372300Y-153516629D01*
X135420903Y-153676855D01*
X135499832Y-153824519D01*
X135606052Y-153953948D01*
X135735481Y-154060168D01*
X135883145Y-154139097D01*
X136043371Y-154187700D01*
X136210000Y-154204112D01*
X138110000Y-154204112D01*
X138276629Y-154187700D01*
X138350000Y-154165444D01*
X138350000Y-156124416D01*
X138307433Y-156081849D01*
X138012620Y-155884861D01*
X137685041Y-155749173D01*
X137337284Y-155680000D01*
X136982716Y-155680000D01*
X136634959Y-155749173D01*
X136307380Y-155884861D01*
X136012567Y-156081849D01*
X135761849Y-156332567D01*
X135564861Y-156627380D01*
X135429173Y-156954959D01*
X135360000Y-157302716D01*
X135360000Y-157657284D01*
X135429173Y-158005041D01*
X135564861Y-158332620D01*
X135637030Y-158440629D01*
X135606052Y-158466052D01*
X135499832Y-158595481D01*
X135420903Y-158743145D01*
X135372300Y-158903371D01*
X135355888Y-159070000D01*
X135355888Y-160970000D01*
X135372300Y-161136629D01*
X135418823Y-161289998D01*
X135372299Y-161443371D01*
X135355887Y-161610000D01*
X135360000Y-162297500D01*
X135572500Y-162510000D01*
X137110000Y-162510000D01*
X137110000Y-162490000D01*
X137210000Y-162490000D01*
X137210000Y-162510000D01*
X137230000Y-162510000D01*
X137230000Y-162610000D01*
X137210000Y-162610000D01*
X137210000Y-162630000D01*
X137110000Y-162630000D01*
X137110000Y-162610000D01*
X135572500Y-162610000D01*
X135360000Y-162822500D01*
X135355887Y-163510000D01*
X135372299Y-163676629D01*
X135418823Y-163830002D01*
X135372300Y-163983371D01*
X135355888Y-164150000D01*
X135355888Y-166050000D01*
X135372300Y-166216629D01*
X135418823Y-166369998D01*
X135372299Y-166523371D01*
X135355887Y-166690000D01*
X135360000Y-167377500D01*
X135572500Y-167590000D01*
X137110000Y-167590000D01*
X137110000Y-167570000D01*
X137210000Y-167570000D01*
X137210000Y-167590000D01*
X137230000Y-167590000D01*
X137230000Y-167690000D01*
X137210000Y-167690000D01*
X137210000Y-167710000D01*
X137110000Y-167710000D01*
X137110000Y-167690000D01*
X135572500Y-167690000D01*
X135360000Y-167902500D01*
X135355887Y-168590000D01*
X135372299Y-168756629D01*
X135418823Y-168910002D01*
X135372300Y-169063371D01*
X135355888Y-169230000D01*
X135355888Y-171130000D01*
X135372300Y-171296629D01*
X135418823Y-171449998D01*
X135372299Y-171603371D01*
X135355887Y-171770000D01*
X135360000Y-172457500D01*
X135572500Y-172670000D01*
X137110000Y-172670000D01*
X137110000Y-172650000D01*
X137210000Y-172650000D01*
X137210000Y-172670000D01*
X137230000Y-172670000D01*
X137230000Y-172770000D01*
X137210000Y-172770000D01*
X137210000Y-174307500D01*
X137422500Y-174520000D01*
X138110000Y-174524113D01*
X138276629Y-174507701D01*
X138350001Y-174485444D01*
X138350001Y-180273668D01*
X138343468Y-180340000D01*
X138350000Y-180406321D01*
X138350001Y-184860811D01*
X136600812Y-186610000D01*
X135975584Y-186610000D01*
X136018151Y-186567433D01*
X136215139Y-186272620D01*
X136350827Y-185945041D01*
X136420000Y-185597284D01*
X136420000Y-185242716D01*
X136350827Y-184894959D01*
X136215139Y-184567380D01*
X136142970Y-184459371D01*
X136173948Y-184433948D01*
X136280168Y-184304519D01*
X136359097Y-184156855D01*
X136407700Y-183996629D01*
X136424112Y-183830000D01*
X136424112Y-181930000D01*
X136407700Y-181763371D01*
X136361176Y-181610000D01*
X136407700Y-181456629D01*
X136424112Y-181290000D01*
X136424112Y-179390000D01*
X136407700Y-179223371D01*
X136361176Y-179070000D01*
X136407700Y-178916629D01*
X136424112Y-178750000D01*
X136424112Y-176850000D01*
X136407700Y-176683371D01*
X136359097Y-176523145D01*
X136280168Y-176375481D01*
X136173948Y-176246052D01*
X136044519Y-176139832D01*
X135896855Y-176060903D01*
X135736629Y-176012300D01*
X135570000Y-175995888D01*
X133670000Y-175995888D01*
X133503371Y-176012300D01*
X133343145Y-176060903D01*
X133195481Y-176139832D01*
X133066052Y-176246052D01*
X132959832Y-176375481D01*
X132880903Y-176523145D01*
X132832300Y-176683371D01*
X132815888Y-176850000D01*
X132815888Y-178750000D01*
X132832300Y-178916629D01*
X132878824Y-179070000D01*
X132832300Y-179223371D01*
X132815888Y-179390000D01*
X132815888Y-181290000D01*
X132832300Y-181456629D01*
X132878824Y-181610000D01*
X132832300Y-181763371D01*
X132815888Y-181930000D01*
X132815888Y-183830000D01*
X132832300Y-183996629D01*
X132880903Y-184156855D01*
X132959832Y-184304519D01*
X133066052Y-184433948D01*
X133097030Y-184459371D01*
X133024861Y-184567380D01*
X132889173Y-184894959D01*
X132820000Y-185242716D01*
X132820000Y-185597284D01*
X132889173Y-185945041D01*
X133024861Y-186272620D01*
X133221849Y-186567433D01*
X133264416Y-186610000D01*
X132510000Y-186610000D01*
X132470168Y-186535481D01*
X132363948Y-186406052D01*
X132234519Y-186299832D01*
X132086855Y-186220903D01*
X131926629Y-186172300D01*
X131760000Y-186155888D01*
X129860000Y-186155888D01*
X129693371Y-186172300D01*
X129533145Y-186220903D01*
X129385481Y-186299832D01*
X129256052Y-186406052D01*
X129149832Y-186535481D01*
X129110000Y-186610000D01*
X128700000Y-186610000D01*
X128660168Y-186535481D01*
X128553948Y-186406052D01*
X128424519Y-186299832D01*
X128276855Y-186220903D01*
X128116629Y-186172300D01*
X127950000Y-186155888D01*
X126050000Y-186155888D01*
X125883371Y-186172300D01*
X125723145Y-186220903D01*
X125575481Y-186299832D01*
X125446052Y-186406052D01*
X125339832Y-186535481D01*
X125260903Y-186683145D01*
X125212300Y-186843371D01*
X125195888Y-187010000D01*
X125195888Y-188695888D01*
X123510000Y-188695888D01*
X123343371Y-188712300D01*
X123190000Y-188758824D01*
X123036629Y-188712300D01*
X122870000Y-188695888D01*
X120970000Y-188695888D01*
X120803371Y-188712300D01*
X120650000Y-188758824D01*
X120496629Y-188712300D01*
X120330000Y-188695888D01*
X118644112Y-188695888D01*
X118644112Y-187010000D01*
X118627700Y-186843371D01*
X118579097Y-186683145D01*
X118500168Y-186535481D01*
X118393948Y-186406052D01*
X118264519Y-186299832D01*
X118116855Y-186220903D01*
X117956629Y-186172300D01*
X117790000Y-186155888D01*
X115890000Y-186155888D01*
X115723371Y-186172300D01*
X115563145Y-186220903D01*
X115415481Y-186299832D01*
X115286052Y-186406052D01*
X115179832Y-186535481D01*
X115100903Y-186683145D01*
X115052300Y-186843371D01*
X115035888Y-187010000D01*
X115035888Y-188910000D01*
X115052300Y-189076629D01*
X115100903Y-189236855D01*
X115179832Y-189384519D01*
X115286052Y-189513948D01*
X115415481Y-189620168D01*
X115563145Y-189699097D01*
X115723371Y-189747700D01*
X115890000Y-189764112D01*
X117575888Y-189764112D01*
X117575888Y-191450000D01*
X117592300Y-191616629D01*
X117640903Y-191776855D01*
X117719832Y-191924519D01*
X117826052Y-192053948D01*
X117955481Y-192160168D01*
X118103145Y-192239097D01*
X118263371Y-192287700D01*
X118430000Y-192304112D01*
X120330000Y-192304112D01*
X120496629Y-192287700D01*
X120650000Y-192241176D01*
X120803371Y-192287700D01*
X120970000Y-192304112D01*
X122870000Y-192304112D01*
X123036629Y-192287700D01*
X123190000Y-192241176D01*
X123343371Y-192287700D01*
X123510000Y-192304112D01*
X125410000Y-192304112D01*
X125576629Y-192287700D01*
X125650001Y-192265443D01*
X125650001Y-195513669D01*
X125643468Y-195580000D01*
X125650000Y-195646321D01*
X125650001Y-198894557D01*
X125576629Y-198872300D01*
X125410000Y-198855888D01*
X123510000Y-198855888D01*
X123343371Y-198872300D01*
X123190002Y-198918823D01*
X123036629Y-198872299D01*
X122870000Y-198855887D01*
X122182500Y-198860000D01*
X121970000Y-199072500D01*
X121970000Y-200610000D01*
X121990000Y-200610000D01*
X121990000Y-200710000D01*
X121970000Y-200710000D01*
X121970000Y-202247500D01*
X122182500Y-202460000D01*
X122870000Y-202464113D01*
X123036629Y-202447701D01*
X123190002Y-202401177D01*
X123343371Y-202447700D01*
X123510000Y-202464112D01*
X125410000Y-202464112D01*
X125576629Y-202447700D01*
X125736855Y-202399097D01*
X125884519Y-202320168D01*
X126013948Y-202213948D01*
X126120168Y-202084519D01*
X126160000Y-202010000D01*
X126298681Y-202010000D01*
X126365000Y-202016532D01*
X126431319Y-202010000D01*
X126431321Y-202010000D01*
X126629646Y-201990467D01*
X126884122Y-201913272D01*
X127118649Y-201787915D01*
X127324213Y-201619213D01*
X127366492Y-201567696D01*
X127907692Y-201026495D01*
X127959213Y-200984213D01*
X128127915Y-200778649D01*
X128218060Y-200610000D01*
X128253272Y-200544123D01*
X128271239Y-200484895D01*
X128330467Y-200289646D01*
X128350000Y-200091321D01*
X128350000Y-200091319D01*
X128356532Y-200025000D01*
X128350000Y-199958681D01*
X128350000Y-196930000D01*
X129044556Y-196930000D01*
X129022300Y-197003371D01*
X129005888Y-197170000D01*
X129005888Y-199070000D01*
X129022300Y-199236629D01*
X129070903Y-199396855D01*
X129149832Y-199544519D01*
X129256052Y-199673948D01*
X129385481Y-199780168D01*
X129533145Y-199859097D01*
X129693371Y-199907700D01*
X129860000Y-199924112D01*
X131760000Y-199924112D01*
X131926629Y-199907700D01*
X132086855Y-199859097D01*
X132234519Y-199780168D01*
X132363948Y-199673948D01*
X132470168Y-199544519D01*
X132549097Y-199396855D01*
X132597700Y-199236629D01*
X132614112Y-199070000D01*
X132614112Y-197170000D01*
X132597700Y-197003371D01*
X132551176Y-196850000D01*
X132597700Y-196696629D01*
X132614112Y-196530000D01*
X132614112Y-194630000D01*
X132597700Y-194463371D01*
X132551176Y-194310000D01*
X132597700Y-194156629D01*
X132614112Y-193990000D01*
X132614112Y-192090000D01*
X132597700Y-191923371D01*
X132549097Y-191763145D01*
X132470168Y-191615481D01*
X132363948Y-191486052D01*
X132234519Y-191379832D01*
X132086855Y-191300903D01*
X131926629Y-191252300D01*
X131760000Y-191235888D01*
X129860000Y-191235888D01*
X129693371Y-191252300D01*
X129533145Y-191300903D01*
X129385481Y-191379832D01*
X129256052Y-191486052D01*
X129149832Y-191615481D01*
X129070903Y-191763145D01*
X129022300Y-191923371D01*
X129005888Y-192090000D01*
X129005888Y-193990000D01*
X129022300Y-194156629D01*
X129044556Y-194230000D01*
X128350000Y-194230000D01*
X128350000Y-189660000D01*
X128424519Y-189620168D01*
X128553948Y-189513948D01*
X128660168Y-189384519D01*
X128700000Y-189310000D01*
X129110000Y-189310000D01*
X129149832Y-189384519D01*
X129256052Y-189513948D01*
X129385481Y-189620168D01*
X129533145Y-189699097D01*
X129693371Y-189747700D01*
X129860000Y-189764112D01*
X131760000Y-189764112D01*
X131926629Y-189747700D01*
X132086855Y-189699097D01*
X132234519Y-189620168D01*
X132363948Y-189513948D01*
X132470168Y-189384519D01*
X132510000Y-189310000D01*
X137093681Y-189310000D01*
X137160000Y-189316532D01*
X137226319Y-189310000D01*
X137226321Y-189310000D01*
X137424646Y-189290467D01*
X137679122Y-189213272D01*
X137913649Y-189087915D01*
X138119213Y-188919213D01*
X138161491Y-188867697D01*
X140259188Y-186770000D01*
X140540000Y-186770000D01*
X140579832Y-186844519D01*
X140686052Y-186973948D01*
X140815481Y-187080168D01*
X140963145Y-187159097D01*
X141123371Y-187207700D01*
X141290000Y-187224112D01*
X143190000Y-187224112D01*
X143356629Y-187207700D01*
X143516855Y-187159097D01*
X143664519Y-187080168D01*
X143793948Y-186973948D01*
X143900168Y-186844519D01*
X143979097Y-186696855D01*
X144027700Y-186536629D01*
X144044112Y-186370000D01*
X144044112Y-184682832D01*
X144517500Y-184680000D01*
X144730000Y-184467500D01*
X144730000Y-182930000D01*
X144830000Y-182930000D01*
X144830000Y-184467500D01*
X145042500Y-184680000D01*
X145730000Y-184684113D01*
X145896629Y-184667701D01*
X146056855Y-184619098D01*
X146204520Y-184540169D01*
X146333949Y-184433949D01*
X146440169Y-184304520D01*
X146519098Y-184156855D01*
X146567701Y-183996629D01*
X146584113Y-183830000D01*
X146580000Y-183142500D01*
X146367500Y-182930000D01*
X144830000Y-182930000D01*
X144730000Y-182930000D01*
X143192500Y-182930000D01*
X142980000Y-183142500D01*
X142977168Y-183615888D01*
X141290000Y-183615888D01*
X141123371Y-183632300D01*
X141050000Y-183654556D01*
X141050000Y-181690000D01*
X143014555Y-181690000D01*
X142992299Y-181763371D01*
X142975887Y-181930000D01*
X142980000Y-182617500D01*
X143192500Y-182830000D01*
X144730000Y-182830000D01*
X144730000Y-182810000D01*
X144830000Y-182810000D01*
X144830000Y-182830000D01*
X146367500Y-182830000D01*
X146580000Y-182617500D01*
X146584113Y-181930000D01*
X146567701Y-181763371D01*
X146521177Y-181609998D01*
X146567700Y-181456629D01*
X146584112Y-181290000D01*
X146584112Y-179390000D01*
X146567700Y-179223371D01*
X146521176Y-179070000D01*
X146567700Y-178916629D01*
X146584112Y-178750000D01*
X146584112Y-176850000D01*
X146567700Y-176683371D01*
X146519097Y-176523145D01*
X146440168Y-176375481D01*
X146333948Y-176246052D01*
X146204519Y-176139832D01*
X146056855Y-176060903D01*
X145896629Y-176012300D01*
X145730000Y-175995888D01*
X143830000Y-175995888D01*
X143663371Y-176012300D01*
X143503145Y-176060903D01*
X143390000Y-176121381D01*
X143390000Y-174398620D01*
X143503145Y-174459098D01*
X143663371Y-174507701D01*
X143830000Y-174524113D01*
X144517500Y-174520000D01*
X144730000Y-174307500D01*
X144730000Y-172770000D01*
X144830000Y-172770000D01*
X144830000Y-174307500D01*
X145042500Y-174520000D01*
X145730000Y-174524113D01*
X145896629Y-174507701D01*
X146056855Y-174459098D01*
X146204520Y-174380169D01*
X146333949Y-174273949D01*
X146440169Y-174144520D01*
X146519098Y-173996855D01*
X146567701Y-173836629D01*
X146584113Y-173670000D01*
X146580000Y-172982500D01*
X146367500Y-172770000D01*
X144830000Y-172770000D01*
X144730000Y-172770000D01*
X144710000Y-172770000D01*
X144710000Y-172670000D01*
X144730000Y-172670000D01*
X144730000Y-172650000D01*
X144830000Y-172650000D01*
X144830000Y-172670000D01*
X146367500Y-172670000D01*
X146580000Y-172457500D01*
X146584113Y-171770000D01*
X146567701Y-171603371D01*
X146521177Y-171449998D01*
X146567700Y-171296629D01*
X146584112Y-171130000D01*
X146584112Y-169230000D01*
X146567700Y-169063371D01*
X146521177Y-168910002D01*
X146567701Y-168756629D01*
X146584113Y-168590000D01*
X146580000Y-167902500D01*
X146367500Y-167690000D01*
X144830000Y-167690000D01*
X144830000Y-167710000D01*
X144730000Y-167710000D01*
X144730000Y-167690000D01*
X144710000Y-167690000D01*
X144710000Y-167590000D01*
X144730000Y-167590000D01*
X144730000Y-167570000D01*
X144830000Y-167570000D01*
X144830000Y-167590000D01*
X146367500Y-167590000D01*
X146580000Y-167377500D01*
X146584113Y-166690000D01*
X146567701Y-166523371D01*
X146521177Y-166369998D01*
X146567700Y-166216629D01*
X146584112Y-166050000D01*
X146584112Y-164150000D01*
X146567700Y-163983371D01*
X146521176Y-163830000D01*
X146567700Y-163676629D01*
X146584112Y-163510000D01*
X146584112Y-161610000D01*
X146567700Y-161443371D01*
X146521176Y-161290000D01*
X146567700Y-161136629D01*
X146584112Y-160970000D01*
X146584112Y-159070000D01*
X146567700Y-158903371D01*
X146521176Y-158750000D01*
X146567700Y-158596629D01*
X146584112Y-158430000D01*
X146584112Y-156530000D01*
X146567700Y-156363371D01*
X146519097Y-156203145D01*
X146440168Y-156055481D01*
X146333948Y-155926052D01*
X146204519Y-155819832D01*
X146056855Y-155740903D01*
X145896629Y-155692300D01*
X145730000Y-155675888D01*
X143830000Y-155675888D01*
X143663371Y-155692300D01*
X143503145Y-155740903D01*
X143355481Y-155819832D01*
X143226052Y-155926052D01*
X143119832Y-156055481D01*
X143040903Y-156203145D01*
X142992300Y-156363371D01*
X142975888Y-156530000D01*
X142975888Y-158430000D01*
X142992300Y-158596629D01*
X143038824Y-158750000D01*
X142992300Y-158903371D01*
X142975888Y-159070000D01*
X142975888Y-160970000D01*
X142992300Y-161136629D01*
X143038824Y-161290000D01*
X143002423Y-161410000D01*
X142931492Y-161410000D01*
X142875000Y-161404436D01*
X142649561Y-161426640D01*
X142432784Y-161492398D01*
X142332894Y-161545791D01*
X142233003Y-161599184D01*
X142057893Y-161742893D01*
X142021875Y-161786781D01*
X141466781Y-162341875D01*
X141422893Y-162377893D01*
X141279184Y-162553004D01*
X141172398Y-162752786D01*
X141106640Y-162969562D01*
X141090000Y-163138509D01*
X141090000Y-163138518D01*
X141084437Y-163195000D01*
X141090000Y-163251482D01*
X141090001Y-170123498D01*
X141084436Y-170180000D01*
X141090000Y-170236492D01*
X141090001Y-177108508D01*
X141084437Y-177165000D01*
X141090001Y-177221492D01*
X141106641Y-177390439D01*
X141172399Y-177607215D01*
X141279185Y-177806997D01*
X141422894Y-177982107D01*
X141466776Y-178018120D01*
X142021875Y-178573219D01*
X142057893Y-178617107D01*
X142233003Y-178760816D01*
X142332894Y-178814209D01*
X142432784Y-178867602D01*
X142649561Y-178933360D01*
X142875000Y-178955564D01*
X142931492Y-178950000D01*
X143002423Y-178950000D01*
X143014556Y-178990000D01*
X141050000Y-178990000D01*
X141050000Y-154165444D01*
X141123371Y-154187700D01*
X141290000Y-154204112D01*
X143190000Y-154204112D01*
X143356629Y-154187700D01*
X143516855Y-154139097D01*
X143664519Y-154060168D01*
X143793948Y-153953948D01*
X143900168Y-153824519D01*
X143979097Y-153676855D01*
X144027700Y-153516629D01*
X144044112Y-153350000D01*
X144044112Y-151664112D01*
X145730000Y-151664112D01*
X145896629Y-151647700D01*
X146056855Y-151599097D01*
X146204519Y-151520168D01*
X146333948Y-151413948D01*
X146440168Y-151284519D01*
X146519097Y-151136855D01*
X146567700Y-150976629D01*
X146584112Y-150810000D01*
X146584112Y-148910000D01*
X146567700Y-148743371D01*
X146519097Y-148583145D01*
X146440168Y-148435481D01*
X146333948Y-148306052D01*
X146204519Y-148199832D01*
X146056855Y-148120903D01*
X145896629Y-148072300D01*
X145730000Y-148055888D01*
X143830000Y-148055888D01*
X143663371Y-148072300D01*
X143503145Y-148120903D01*
X143355481Y-148199832D01*
X143226052Y-148306052D01*
X143119832Y-148435481D01*
X143040903Y-148583145D01*
X142992300Y-148743371D01*
X142975888Y-148910000D01*
X142975888Y-150595888D01*
X141290000Y-150595888D01*
X141123371Y-150612300D01*
X141050000Y-150634556D01*
X141050000Y-147815444D01*
X141123371Y-147837700D01*
X141290000Y-147854112D01*
X143190000Y-147854112D01*
X143356629Y-147837700D01*
X143516855Y-147789097D01*
X143664519Y-147710168D01*
X143793948Y-147603948D01*
X143900168Y-147474519D01*
X143979097Y-147326855D01*
X144027700Y-147166629D01*
X144044112Y-147000000D01*
X144044112Y-145100000D01*
X144027700Y-144933371D01*
X143979097Y-144773145D01*
X143900168Y-144625481D01*
X143793948Y-144496052D01*
X143664519Y-144389832D01*
X143516855Y-144310903D01*
X143356629Y-144262300D01*
X143190000Y-144245888D01*
X141290000Y-144245888D01*
X141123371Y-144262300D01*
X141050000Y-144284556D01*
X141050000Y-144005444D01*
X141123371Y-144027700D01*
X141290000Y-144044112D01*
X143190000Y-144044112D01*
X143356629Y-144027700D01*
X143516855Y-143979097D01*
X143664519Y-143900168D01*
X143793948Y-143793948D01*
X143900168Y-143664519D01*
X143940000Y-143590000D01*
X144078681Y-143590000D01*
X144145000Y-143596532D01*
X144211319Y-143590000D01*
X144211321Y-143590000D01*
X144409646Y-143570467D01*
X144664122Y-143493272D01*
X144898649Y-143367915D01*
X145104213Y-143199213D01*
X145146492Y-143147696D01*
X145687696Y-142606491D01*
X145739212Y-142564213D01*
X145907915Y-142358649D01*
X146006783Y-142173680D01*
X146033272Y-142124123D01*
X146078400Y-141975355D01*
X146110467Y-141869646D01*
X146130000Y-141671321D01*
X146130000Y-141671319D01*
X146136532Y-141605000D01*
X146130000Y-141538681D01*
X146130000Y-141400000D01*
X146204519Y-141360168D01*
X146333948Y-141253948D01*
X146440168Y-141124519D01*
X146519097Y-140976855D01*
X146567700Y-140816629D01*
X146584112Y-140650000D01*
X146584112Y-138750000D01*
X146567700Y-138583371D01*
X146519097Y-138423145D01*
X146440168Y-138275481D01*
X146333948Y-138146052D01*
X146204519Y-138039832D01*
X146056855Y-137960903D01*
X145896629Y-137912300D01*
X145730000Y-137895888D01*
X143830000Y-137895888D01*
X143663371Y-137912300D01*
X143503145Y-137960903D01*
X143355481Y-138039832D01*
X143226052Y-138146052D01*
X143119832Y-138275481D01*
X143040903Y-138423145D01*
X142992300Y-138583371D01*
X142975888Y-138750000D01*
X142975888Y-140435888D01*
X141290000Y-140435888D01*
X141123371Y-140452300D01*
X140968000Y-140499430D01*
X140954113Y-140453649D01*
X140953272Y-140450877D01*
X140827915Y-140216350D01*
X140732275Y-140099813D01*
X140659213Y-140010787D01*
X140607697Y-139968509D01*
X136978344Y-136339156D01*
X137110000Y-136207500D01*
X137110000Y-134670000D01*
X137210000Y-134670000D01*
X137210000Y-136207500D01*
X137422500Y-136420000D01*
X138110000Y-136424113D01*
X138276629Y-136407701D01*
X138436855Y-136359098D01*
X138584520Y-136280169D01*
X138713949Y-136173949D01*
X138820169Y-136044520D01*
X138899098Y-135896855D01*
X138947701Y-135736629D01*
X138964113Y-135570000D01*
X138960000Y-134882500D01*
X138747500Y-134670000D01*
X137210000Y-134670000D01*
X137110000Y-134670000D01*
X135572500Y-134670000D01*
X135360000Y-134882500D01*
X135355887Y-135570000D01*
X135372299Y-135736629D01*
X135394555Y-135810000D01*
X129606321Y-135810000D01*
X129540000Y-135803468D01*
X129473679Y-135810000D01*
X128765444Y-135810000D01*
X128787700Y-135736629D01*
X128804112Y-135570000D01*
X128804112Y-133670000D01*
X135355887Y-133670000D01*
X135360000Y-134357500D01*
X135572500Y-134570000D01*
X137110000Y-134570000D01*
X137110000Y-133032500D01*
X137210000Y-133032500D01*
X137210000Y-134570000D01*
X138747500Y-134570000D01*
X138960000Y-134357500D01*
X138964113Y-133670000D01*
X138947701Y-133503371D01*
X138899098Y-133343145D01*
X138820169Y-133195480D01*
X138713949Y-133066051D01*
X138584520Y-132959831D01*
X138436855Y-132880902D01*
X138276629Y-132832299D01*
X138110000Y-132815887D01*
X137422500Y-132820000D01*
X137210000Y-133032500D01*
X137110000Y-133032500D01*
X136897500Y-132820000D01*
X136210000Y-132815887D01*
X136043371Y-132832299D01*
X135883145Y-132880902D01*
X135735480Y-132959831D01*
X135606051Y-133066051D01*
X135499831Y-133195480D01*
X135420902Y-133343145D01*
X135372299Y-133503371D01*
X135355887Y-133670000D01*
X128804112Y-133670000D01*
X128787700Y-133503371D01*
X128739097Y-133343145D01*
X128660168Y-133195481D01*
X128553948Y-133066052D01*
X128424519Y-132959832D01*
X128276855Y-132880903D01*
X128150000Y-132842423D01*
X128150000Y-132771492D01*
X128155564Y-132715000D01*
X128133360Y-132489561D01*
X128067602Y-132272784D01*
X128014209Y-132172894D01*
X127960816Y-132073003D01*
X127817107Y-131897893D01*
X127773221Y-131861877D01*
X127218125Y-131306781D01*
X127182107Y-131262893D01*
X127006997Y-131119184D01*
X126807215Y-131012398D01*
X126590439Y-130946640D01*
X126421492Y-130930000D01*
X126421482Y-130930000D01*
X126365000Y-130924437D01*
X126308518Y-130930000D01*
X126138619Y-130930000D01*
X126199097Y-130816855D01*
X126247700Y-130656629D01*
X126264112Y-130490000D01*
X126264112Y-128590000D01*
X126247700Y-128423371D01*
X126199097Y-128263145D01*
X126120168Y-128115481D01*
X126013948Y-127986052D01*
X125884519Y-127879832D01*
X125736855Y-127800903D01*
X125576629Y-127752300D01*
X125410000Y-127735888D01*
X123510000Y-127735888D01*
X123343371Y-127752300D01*
X123190000Y-127798824D01*
X123036629Y-127752300D01*
X122870000Y-127735888D01*
X120970000Y-127735888D01*
X120803371Y-127752300D01*
X120650000Y-127798824D01*
X120496629Y-127752300D01*
X120330000Y-127735888D01*
X118430000Y-127735888D01*
X118263371Y-127752300D01*
X118110000Y-127798824D01*
X117956629Y-127752300D01*
X117790000Y-127735888D01*
X115890000Y-127735888D01*
X115723371Y-127752300D01*
X115570000Y-127798824D01*
X115416629Y-127752300D01*
X115250000Y-127735888D01*
X113350000Y-127735888D01*
X113183371Y-127752300D01*
X113023145Y-127800903D01*
X112875481Y-127879832D01*
X112746052Y-127986052D01*
X112639832Y-128115481D01*
X112560903Y-128263145D01*
X112512300Y-128423371D01*
X112495888Y-128590000D01*
X112495888Y-130490000D01*
X112512300Y-130656629D01*
X112560903Y-130816855D01*
X112639832Y-130964519D01*
X112746052Y-131093948D01*
X112875481Y-131200168D01*
X113023145Y-131279097D01*
X113183371Y-131327700D01*
X113350000Y-131344112D01*
X115250000Y-131344112D01*
X115416629Y-131327700D01*
X115570000Y-131281176D01*
X115723371Y-131327700D01*
X115890000Y-131344112D01*
X116584544Y-131344112D01*
X116066776Y-131861880D01*
X116022894Y-131897893D01*
X115986882Y-131941774D01*
X115879185Y-132073003D01*
X115772399Y-132272785D01*
X115706641Y-132489561D01*
X115684437Y-132715000D01*
X115690001Y-132771491D01*
X115690001Y-132842422D01*
X115563145Y-132880903D01*
X115415481Y-132959832D01*
X115286052Y-133066052D01*
X115179832Y-133195481D01*
X115100903Y-133343145D01*
X115052300Y-133503371D01*
X115035888Y-133670000D01*
X115035888Y-135570000D01*
X115052300Y-135736629D01*
X115074556Y-135810000D01*
X112190000Y-135810000D01*
X112150168Y-135735481D01*
X112043948Y-135606052D01*
X111914519Y-135499832D01*
X111766855Y-135420903D01*
X111606629Y-135372300D01*
X111440000Y-135355888D01*
X109540000Y-135355888D01*
X109373371Y-135372300D01*
X109213145Y-135420903D01*
X109065481Y-135499832D01*
X108936052Y-135606052D01*
X108829832Y-135735481D01*
X108750903Y-135883145D01*
X108702300Y-136043371D01*
X108685888Y-136210000D01*
X108685888Y-138110000D01*
X108702300Y-138276629D01*
X108724556Y-138350000D01*
X102095445Y-138350000D01*
X102117701Y-138276629D01*
X102134113Y-138110000D01*
X102130000Y-137422500D01*
X101917500Y-137210000D01*
X100380000Y-137210000D01*
X100380000Y-137230000D01*
X100280000Y-137230000D01*
X100280000Y-137210000D01*
X98742500Y-137210000D01*
X98530000Y-137422500D01*
X98527185Y-137892997D01*
X96886491Y-136252303D01*
X96851774Y-136210000D01*
X98525887Y-136210000D01*
X98530000Y-136897500D01*
X98742500Y-137110000D01*
X100280000Y-137110000D01*
X100280000Y-135572500D01*
X100380000Y-135572500D01*
X100380000Y-137110000D01*
X101917500Y-137110000D01*
X102130000Y-136897500D01*
X102134113Y-136210000D01*
X102117701Y-136043371D01*
X102069098Y-135883145D01*
X101990169Y-135735480D01*
X101883949Y-135606051D01*
X101840021Y-135570000D01*
X103605887Y-135570000D01*
X103622299Y-135736629D01*
X103670902Y-135896855D01*
X103749831Y-136044520D01*
X103856051Y-136173949D01*
X103985480Y-136280169D01*
X104133145Y-136359098D01*
X104293371Y-136407701D01*
X104460000Y-136424113D01*
X105147500Y-136420000D01*
X105360000Y-136207500D01*
X105360000Y-134670000D01*
X105460000Y-134670000D01*
X105460000Y-136207500D01*
X105672500Y-136420000D01*
X106360000Y-136424113D01*
X106526629Y-136407701D01*
X106686855Y-136359098D01*
X106834520Y-136280169D01*
X106963949Y-136173949D01*
X107070169Y-136044520D01*
X107149098Y-135896855D01*
X107197701Y-135736629D01*
X107214113Y-135570000D01*
X107210000Y-134882500D01*
X106997500Y-134670000D01*
X105460000Y-134670000D01*
X105360000Y-134670000D01*
X103822500Y-134670000D01*
X103610000Y-134882500D01*
X103605887Y-135570000D01*
X101840021Y-135570000D01*
X101754520Y-135499831D01*
X101606855Y-135420902D01*
X101446629Y-135372299D01*
X101280000Y-135355887D01*
X100592500Y-135360000D01*
X100380000Y-135572500D01*
X100280000Y-135572500D01*
X100067500Y-135360000D01*
X99380000Y-135355887D01*
X99213371Y-135372299D01*
X99053145Y-135420902D01*
X98905480Y-135499831D01*
X98776051Y-135606051D01*
X98669831Y-135735480D01*
X98590902Y-135883145D01*
X98542299Y-136043371D01*
X98525887Y-136210000D01*
X96851774Y-136210000D01*
X96844213Y-136200787D01*
X96638649Y-136032085D01*
X96404122Y-135906728D01*
X96149646Y-135829533D01*
X95951321Y-135810000D01*
X95951319Y-135810000D01*
X95885000Y-135803468D01*
X95818681Y-135810000D01*
X92790000Y-135810000D01*
X92790000Y-133670000D01*
X103605887Y-133670000D01*
X103610000Y-134357500D01*
X103822500Y-134570000D01*
X105360000Y-134570000D01*
X105360000Y-133032500D01*
X105460000Y-133032500D01*
X105460000Y-134570000D01*
X106997500Y-134570000D01*
X107210000Y-134357500D01*
X107214113Y-133670000D01*
X107197701Y-133503371D01*
X107149098Y-133343145D01*
X107070169Y-133195480D01*
X106963949Y-133066051D01*
X106834520Y-132959831D01*
X106686855Y-132880902D01*
X106526629Y-132832299D01*
X106360000Y-132815887D01*
X105672500Y-132820000D01*
X105460000Y-133032500D01*
X105360000Y-133032500D01*
X105147500Y-132820000D01*
X104460000Y-132815887D01*
X104293371Y-132832299D01*
X104133145Y-132880902D01*
X103985480Y-132959831D01*
X103856051Y-133066051D01*
X103749831Y-133195480D01*
X103670902Y-133343145D01*
X103622299Y-133503371D01*
X103605887Y-133670000D01*
X92790000Y-133670000D01*
X92790000Y-131305444D01*
X92863371Y-131327700D01*
X93030000Y-131344112D01*
X94930000Y-131344112D01*
X95096629Y-131327700D01*
X95250000Y-131281176D01*
X95403371Y-131327700D01*
X95570000Y-131344112D01*
X97470000Y-131344112D01*
X97636629Y-131327700D01*
X97796855Y-131279097D01*
X97944519Y-131200168D01*
X98073948Y-131093948D01*
X98180168Y-130964519D01*
X98259097Y-130816855D01*
X98307700Y-130656629D01*
X98324112Y-130490000D01*
X98324112Y-128590000D01*
X98525888Y-128590000D01*
X98525888Y-130490000D01*
X98542300Y-130656629D01*
X98590903Y-130816855D01*
X98669832Y-130964519D01*
X98776052Y-131093948D01*
X98905481Y-131200168D01*
X99053145Y-131279097D01*
X99213371Y-131327700D01*
X99380000Y-131344112D01*
X101280000Y-131344112D01*
X101446629Y-131327700D01*
X101606855Y-131279097D01*
X101754519Y-131200168D01*
X101883948Y-131093948D01*
X101990168Y-130964519D01*
X102069097Y-130816855D01*
X102117700Y-130656629D01*
X102134112Y-130490000D01*
X102134112Y-128590000D01*
X108685888Y-128590000D01*
X108685888Y-130490000D01*
X108702300Y-130656629D01*
X108750903Y-130816855D01*
X108829832Y-130964519D01*
X108936052Y-131093948D01*
X109065481Y-131200168D01*
X109213145Y-131279097D01*
X109373371Y-131327700D01*
X109540000Y-131344112D01*
X111440000Y-131344112D01*
X111606629Y-131327700D01*
X111766855Y-131279097D01*
X111914519Y-131200168D01*
X112043948Y-131093948D01*
X112150168Y-130964519D01*
X112229097Y-130816855D01*
X112277700Y-130656629D01*
X112294112Y-130490000D01*
X112294112Y-128590000D01*
X112277700Y-128423371D01*
X112229097Y-128263145D01*
X112150168Y-128115481D01*
X112043948Y-127986052D01*
X111914519Y-127879832D01*
X111766855Y-127800903D01*
X111606629Y-127752300D01*
X111440000Y-127735888D01*
X109540000Y-127735888D01*
X109373371Y-127752300D01*
X109213145Y-127800903D01*
X109065481Y-127879832D01*
X108936052Y-127986052D01*
X108829832Y-128115481D01*
X108750903Y-128263145D01*
X108702300Y-128423371D01*
X108685888Y-128590000D01*
X102134112Y-128590000D01*
X102117700Y-128423371D01*
X102069097Y-128263145D01*
X101990168Y-128115481D01*
X101883948Y-127986052D01*
X101754519Y-127879832D01*
X101606855Y-127800903D01*
X101446629Y-127752300D01*
X101280000Y-127735888D01*
X99380000Y-127735888D01*
X99213371Y-127752300D01*
X99053145Y-127800903D01*
X98905481Y-127879832D01*
X98776052Y-127986052D01*
X98669832Y-128115481D01*
X98590903Y-128263145D01*
X98542300Y-128423371D01*
X98525888Y-128590000D01*
X98324112Y-128590000D01*
X98307700Y-128423371D01*
X98259097Y-128263145D01*
X98180168Y-128115481D01*
X98073948Y-127986052D01*
X97944519Y-127879832D01*
X97796855Y-127800903D01*
X97636629Y-127752300D01*
X97470000Y-127735888D01*
X95570000Y-127735888D01*
X95403371Y-127752300D01*
X95250000Y-127798824D01*
X95096629Y-127752300D01*
X94930000Y-127735888D01*
X93030000Y-127735888D01*
X92863371Y-127752300D01*
X92710000Y-127798824D01*
X92556629Y-127752300D01*
X92390000Y-127735888D01*
X90490000Y-127735888D01*
X90323371Y-127752300D01*
X90170000Y-127798824D01*
X90016629Y-127752300D01*
X89850000Y-127735888D01*
X87950000Y-127735888D01*
X87783371Y-127752300D01*
X87630000Y-127798824D01*
X87476629Y-127752300D01*
X87310000Y-127735888D01*
X85410000Y-127735888D01*
X85243371Y-127752300D01*
X85083145Y-127800903D01*
X84935481Y-127879832D01*
X84806052Y-127986052D01*
X84699832Y-128115481D01*
X84620903Y-128263145D01*
X84572300Y-128423371D01*
X84555888Y-128590000D01*
X84555888Y-130490000D01*
X84572300Y-130656629D01*
X84620903Y-130816855D01*
X84699832Y-130964519D01*
X84806052Y-131093948D01*
X84935481Y-131200168D01*
X85083145Y-131279097D01*
X85243371Y-131327700D01*
X85410000Y-131344112D01*
X87310000Y-131344112D01*
X87476629Y-131327700D01*
X87630000Y-131281176D01*
X87783371Y-131327700D01*
X87950000Y-131344112D01*
X89850000Y-131344112D01*
X90016629Y-131327700D01*
X90090000Y-131305444D01*
X90090001Y-135810000D01*
X84315444Y-135810000D01*
X84337700Y-135736629D01*
X84354112Y-135570000D01*
X84354112Y-133670000D01*
X84337700Y-133503371D01*
X84289097Y-133343145D01*
X84210168Y-133195481D01*
X84103948Y-133066052D01*
X83974519Y-132959832D01*
X83826855Y-132880903D01*
X83666629Y-132832300D01*
X83500000Y-132815888D01*
X81600000Y-132815888D01*
X81433371Y-132832300D01*
X81273145Y-132880903D01*
X81125481Y-132959832D01*
X80996052Y-133066052D01*
X80889832Y-133195481D01*
X80810903Y-133343145D01*
X80762300Y-133503371D01*
X80745888Y-133670000D01*
X80745888Y-135570000D01*
X80762300Y-135736629D01*
X80784556Y-135810000D01*
X80505444Y-135810000D01*
X80527700Y-135736629D01*
X80544112Y-135570000D01*
X80544112Y-133670000D01*
X80527700Y-133503371D01*
X80479097Y-133343145D01*
X80400168Y-133195481D01*
X80293948Y-133066052D01*
X80164519Y-132959832D01*
X80016855Y-132880903D01*
X79856629Y-132832300D01*
X79690000Y-132815888D01*
X77790000Y-132815888D01*
X77623371Y-132832300D01*
X77463145Y-132880903D01*
X77315481Y-132959832D01*
X77186052Y-133066052D01*
X77079832Y-133195481D01*
X77000903Y-133343145D01*
X76952300Y-133503371D01*
X76935888Y-133670000D01*
X76935888Y-135570000D01*
X76952300Y-135736629D01*
X77000903Y-135896855D01*
X77079832Y-136044519D01*
X77186052Y-136173948D01*
X77315481Y-136280168D01*
X77463145Y-136359097D01*
X77623371Y-136407700D01*
X77790000Y-136424112D01*
X78201701Y-136424112D01*
X77832300Y-136793513D01*
X77780788Y-136835787D01*
X77738514Y-136887298D01*
X77738510Y-136887302D01*
X77612085Y-137041351D01*
X77486729Y-137275878D01*
X77409534Y-137530354D01*
X77383468Y-137795000D01*
X77390001Y-137861328D01*
X77390001Y-138000000D01*
X77315481Y-138039832D01*
X77186052Y-138146052D01*
X77079832Y-138275481D01*
X77000903Y-138423145D01*
X76952300Y-138583371D01*
X76935888Y-138750000D01*
X76935888Y-140650000D01*
X76952300Y-140816629D01*
X77000903Y-140976855D01*
X77079832Y-141124519D01*
X77186052Y-141253948D01*
X77315481Y-141360168D01*
X77390000Y-141400000D01*
X77390001Y-144220811D01*
X75292299Y-146318513D01*
X75240787Y-146360788D01*
X75198513Y-146412299D01*
X75198510Y-146412302D01*
X75072085Y-146566351D01*
X75071364Y-146567700D01*
X74946728Y-146800879D01*
X74869533Y-147055355D01*
X74850000Y-147253679D01*
X74843468Y-147320000D01*
X74850000Y-147386319D01*
X74850000Y-160794557D01*
X74810000Y-160782423D01*
X74810000Y-148011492D01*
X74815564Y-147955000D01*
X74793360Y-147729561D01*
X74727602Y-147512784D01*
X74674209Y-147412894D01*
X74620816Y-147313003D01*
X74477107Y-147137893D01*
X74433221Y-147101877D01*
X73878125Y-146546781D01*
X73842107Y-146502893D01*
X73666997Y-146359184D01*
X73467215Y-146252398D01*
X73250439Y-146186640D01*
X73081492Y-146170000D01*
X73081482Y-146170000D01*
X73025000Y-146164437D01*
X72968518Y-146170000D01*
X72897577Y-146170000D01*
X72861176Y-146050000D01*
X72907700Y-145896629D01*
X72924112Y-145730000D01*
X72924112Y-143830000D01*
X72907700Y-143663371D01*
X72859097Y-143503145D01*
X72780168Y-143355481D01*
X72673948Y-143226052D01*
X72544519Y-143119832D01*
X72396855Y-143040903D01*
X72236629Y-142992300D01*
X72070000Y-142975888D01*
X70170000Y-142975888D01*
X70003371Y-142992300D01*
X69843145Y-143040903D01*
X69695481Y-143119832D01*
X69566052Y-143226052D01*
X69459832Y-143355481D01*
X69380903Y-143503145D01*
X69332300Y-143663371D01*
X69315888Y-143830000D01*
X69315888Y-145730000D01*
X69332300Y-145896629D01*
X69378824Y-146050000D01*
X69342423Y-146170000D01*
X67817577Y-146170000D01*
X67779097Y-146043145D01*
X67700168Y-145895481D01*
X67593948Y-145766052D01*
X67464519Y-145659832D01*
X67316855Y-145580903D01*
X67156629Y-145532300D01*
X66990000Y-145515888D01*
X65090000Y-145515888D01*
X64923371Y-145532300D01*
X64763145Y-145580903D01*
X64615481Y-145659832D01*
X64486052Y-145766052D01*
X64379832Y-145895481D01*
X64300903Y-146043145D01*
X64252300Y-146203371D01*
X64235888Y-146370000D01*
X63280000Y-146370000D01*
X63280000Y-138750000D01*
X69315888Y-138750000D01*
X69315888Y-140650000D01*
X69332300Y-140816629D01*
X69380903Y-140976855D01*
X69459832Y-141124519D01*
X69566052Y-141253948D01*
X69695481Y-141360168D01*
X69843145Y-141439097D01*
X70003371Y-141487700D01*
X70170000Y-141504112D01*
X72070000Y-141504112D01*
X72236629Y-141487700D01*
X72396855Y-141439097D01*
X72544519Y-141360168D01*
X72673948Y-141253948D01*
X72780168Y-141124519D01*
X72859097Y-140976855D01*
X72907700Y-140816629D01*
X72924112Y-140650000D01*
X72924112Y-138750000D01*
X73125888Y-138750000D01*
X73125888Y-140650000D01*
X73142300Y-140816629D01*
X73190903Y-140976855D01*
X73269832Y-141124519D01*
X73376052Y-141253948D01*
X73505481Y-141360168D01*
X73653145Y-141439097D01*
X73813371Y-141487700D01*
X73980000Y-141504112D01*
X75880000Y-141504112D01*
X76046629Y-141487700D01*
X76206855Y-141439097D01*
X76354519Y-141360168D01*
X76483948Y-141253948D01*
X76590168Y-141124519D01*
X76669097Y-140976855D01*
X76717700Y-140816629D01*
X76734112Y-140650000D01*
X76734112Y-138750000D01*
X76717700Y-138583371D01*
X76669097Y-138423145D01*
X76590168Y-138275481D01*
X76483948Y-138146052D01*
X76354519Y-138039832D01*
X76206855Y-137960903D01*
X76046629Y-137912300D01*
X75880000Y-137895888D01*
X73980000Y-137895888D01*
X73813371Y-137912300D01*
X73653145Y-137960903D01*
X73505481Y-138039832D01*
X73376052Y-138146052D01*
X73269832Y-138275481D01*
X73190903Y-138423145D01*
X73142300Y-138583371D01*
X73125888Y-138750000D01*
X72924112Y-138750000D01*
X72907700Y-138583371D01*
X72859097Y-138423145D01*
X72780168Y-138275481D01*
X72673948Y-138146052D01*
X72544519Y-138039832D01*
X72396855Y-137960903D01*
X72236629Y-137912300D01*
X72070000Y-137895888D01*
X70170000Y-137895888D01*
X70003371Y-137912300D01*
X69843145Y-137960903D01*
X69695481Y-138039832D01*
X69566052Y-138146052D01*
X69459832Y-138275481D01*
X69380903Y-138423145D01*
X69332300Y-138583371D01*
X69315888Y-138750000D01*
X63280000Y-138750000D01*
X63280000Y-133670000D01*
X69315888Y-133670000D01*
X69315888Y-135570000D01*
X69332300Y-135736629D01*
X69380903Y-135896855D01*
X69459832Y-136044519D01*
X69566052Y-136173948D01*
X69695481Y-136280168D01*
X69843145Y-136359097D01*
X70003371Y-136407700D01*
X70170000Y-136424112D01*
X72070000Y-136424112D01*
X72236629Y-136407700D01*
X72396855Y-136359097D01*
X72544519Y-136280168D01*
X72673948Y-136173948D01*
X72780168Y-136044519D01*
X72859097Y-135896855D01*
X72907700Y-135736629D01*
X72924112Y-135570000D01*
X72924112Y-133670000D01*
X73125888Y-133670000D01*
X73125888Y-135570000D01*
X73142300Y-135736629D01*
X73190903Y-135896855D01*
X73269832Y-136044519D01*
X73376052Y-136173948D01*
X73505481Y-136280168D01*
X73653145Y-136359097D01*
X73813371Y-136407700D01*
X73980000Y-136424112D01*
X75880000Y-136424112D01*
X76046629Y-136407700D01*
X76206855Y-136359097D01*
X76354519Y-136280168D01*
X76483948Y-136173948D01*
X76590168Y-136044519D01*
X76669097Y-135896855D01*
X76717700Y-135736629D01*
X76734112Y-135570000D01*
X76734112Y-133670000D01*
X76717700Y-133503371D01*
X76669097Y-133343145D01*
X76590168Y-133195481D01*
X76483948Y-133066052D01*
X76354519Y-132959832D01*
X76206855Y-132880903D01*
X76046629Y-132832300D01*
X75880000Y-132815888D01*
X73980000Y-132815888D01*
X73813371Y-132832300D01*
X73653145Y-132880903D01*
X73505481Y-132959832D01*
X73376052Y-133066052D01*
X73269832Y-133195481D01*
X73190903Y-133343145D01*
X73142300Y-133503371D01*
X73125888Y-133670000D01*
X72924112Y-133670000D01*
X72907700Y-133503371D01*
X72859097Y-133343145D01*
X72780168Y-133195481D01*
X72673948Y-133066052D01*
X72544519Y-132959832D01*
X72396855Y-132880903D01*
X72236629Y-132832300D01*
X72070000Y-132815888D01*
X70170000Y-132815888D01*
X70003371Y-132832300D01*
X69843145Y-132880903D01*
X69695481Y-132959832D01*
X69566052Y-133066052D01*
X69459832Y-133195481D01*
X69380903Y-133343145D01*
X69332300Y-133503371D01*
X69315888Y-133670000D01*
X63280000Y-133670000D01*
X63280000Y-126780000D01*
X147540000Y-126780000D01*
X147540001Y-195145075D01*
M02*
