G04 #@! TF.GenerationSoftware,KiCad,Pcbnew,5.1.6-c6e7f7d~87~ubuntu19.10.1*
G04 #@! TF.CreationDate,2022-07-30T16:29:43+06:00*
G04 #@! TF.ProjectId,crumbwave_multiplexer_r1a,6372756d-6277-4617-9665-5f6d756c7469,1A*
G04 #@! TF.SameCoordinates,Original*
G04 #@! TF.FileFunction,Soldermask,Top*
G04 #@! TF.FilePolarity,Negative*
%FSLAX46Y46*%
G04 Gerber Fmt 4.6, Leading zero omitted, Abs format (unit mm)*
G04 Created by KiCad (PCBNEW 5.1.6-c6e7f7d~87~ubuntu19.10.1) date 2022-07-30 16:29:43*
%MOMM*%
%LPD*%
G01*
G04 APERTURE LIST*
%ADD10C,0.100000*%
G04 APERTURE END LIST*
D10*
G36*
X106460000Y-203615000D02*
G01*
X104360000Y-203615000D01*
X104360000Y-201515000D01*
X106460000Y-201515000D01*
X106460000Y-203615000D01*
G37*
G36*
X125510000Y-201710000D02*
G01*
X123410000Y-201710000D01*
X123410000Y-199610000D01*
X125510000Y-199610000D01*
X125510000Y-201710000D01*
G37*
G36*
X120430000Y-201710000D02*
G01*
X118330000Y-201710000D01*
X118330000Y-199610000D01*
X120430000Y-199610000D01*
X120430000Y-201710000D01*
G37*
G36*
X122970000Y-201710000D02*
G01*
X120870000Y-201710000D01*
X120870000Y-199610000D01*
X122970000Y-199610000D01*
X122970000Y-201710000D01*
G37*
G36*
X95030000Y-201710000D02*
G01*
X92930000Y-201710000D01*
X92930000Y-199610000D01*
X95030000Y-199610000D01*
X95030000Y-201710000D01*
G37*
G36*
X79790000Y-201710000D02*
G01*
X77690000Y-201710000D01*
X77690000Y-199610000D01*
X79790000Y-199610000D01*
X79790000Y-201710000D01*
G37*
G36*
X77250000Y-201710000D02*
G01*
X75150000Y-201710000D01*
X75150000Y-199610000D01*
X77250000Y-199610000D01*
X77250000Y-201710000D01*
G37*
G36*
X101966274Y-197745350D02*
G01*
X102157362Y-197824502D01*
X102329336Y-197939411D01*
X102475589Y-198085664D01*
X102590498Y-198257638D01*
X102669650Y-198448726D01*
X102710000Y-198651584D01*
X102710000Y-198858416D01*
X102669650Y-199061274D01*
X102590498Y-199252362D01*
X102475589Y-199424336D01*
X102329336Y-199570589D01*
X102157362Y-199685498D01*
X101966274Y-199764650D01*
X101763416Y-199805000D01*
X101556584Y-199805000D01*
X101353726Y-199764650D01*
X101162638Y-199685498D01*
X100990664Y-199570589D01*
X100844411Y-199424336D01*
X100729502Y-199252362D01*
X100650350Y-199061274D01*
X100610000Y-198858416D01*
X100610000Y-198651584D01*
X100650350Y-198448726D01*
X100729502Y-198257638D01*
X100844411Y-198085664D01*
X100990664Y-197939411D01*
X101162638Y-197824502D01*
X101353726Y-197745350D01*
X101556584Y-197705000D01*
X101763416Y-197705000D01*
X101966274Y-197745350D01*
G37*
G36*
X110210000Y-199805000D02*
G01*
X108110000Y-199805000D01*
X108110000Y-197705000D01*
X110210000Y-197705000D01*
X110210000Y-199805000D01*
G37*
G36*
X107710000Y-199805000D02*
G01*
X105610000Y-199805000D01*
X105610000Y-197705000D01*
X107710000Y-197705000D01*
X107710000Y-199805000D01*
G37*
G36*
X105210000Y-199805000D02*
G01*
X103110000Y-199805000D01*
X103110000Y-197705000D01*
X105210000Y-197705000D01*
X105210000Y-199805000D01*
G37*
G36*
X131960000Y-199270000D02*
G01*
X129660000Y-199270000D01*
X129660000Y-196970000D01*
X131960000Y-196970000D01*
X131960000Y-199270000D01*
G37*
G36*
X87410000Y-199170000D02*
G01*
X85310000Y-199170000D01*
X85310000Y-197070000D01*
X87410000Y-197070000D01*
X87410000Y-199170000D01*
G37*
G36*
X131960000Y-196730000D02*
G01*
X129660000Y-196730000D01*
X129660000Y-194430000D01*
X131960000Y-194430000D01*
X131960000Y-196730000D01*
G37*
G36*
X133980000Y-194910000D02*
G01*
X132380000Y-194910000D01*
X132380000Y-193710000D01*
X133980000Y-193710000D01*
X133980000Y-194910000D01*
G37*
G36*
X101760000Y-194580000D02*
G01*
X99060000Y-194580000D01*
X99060000Y-191880000D01*
X101760000Y-191880000D01*
X101760000Y-194580000D01*
G37*
G36*
X106760000Y-194580000D02*
G01*
X104060000Y-194580000D01*
X104060000Y-191880000D01*
X106760000Y-191880000D01*
X106760000Y-194580000D01*
G37*
G36*
X111760000Y-194580000D02*
G01*
X109060000Y-194580000D01*
X109060000Y-191880000D01*
X111760000Y-191880000D01*
X111760000Y-194580000D01*
G37*
G36*
X131960000Y-194190000D02*
G01*
X129660000Y-194190000D01*
X129660000Y-191890000D01*
X131960000Y-191890000D01*
X131960000Y-194190000D01*
G37*
G36*
X86666274Y-192030350D02*
G01*
X86857362Y-192109502D01*
X87029336Y-192224411D01*
X87175589Y-192370664D01*
X87290498Y-192542638D01*
X87369650Y-192733726D01*
X87410000Y-192936584D01*
X87410000Y-193143416D01*
X87369650Y-193346274D01*
X87290498Y-193537362D01*
X87175589Y-193709336D01*
X87029336Y-193855589D01*
X86857362Y-193970498D01*
X86666274Y-194049650D01*
X86463416Y-194090000D01*
X86256584Y-194090000D01*
X86053726Y-194049650D01*
X85862638Y-193970498D01*
X85690664Y-193855589D01*
X85544411Y-193709336D01*
X85429502Y-193537362D01*
X85350350Y-193346274D01*
X85310000Y-193143416D01*
X85310000Y-192936584D01*
X85350350Y-192733726D01*
X85429502Y-192542638D01*
X85544411Y-192370664D01*
X85690664Y-192224411D01*
X85862638Y-192109502D01*
X86053726Y-192030350D01*
X86256584Y-191990000D01*
X86463416Y-191990000D01*
X86666274Y-192030350D01*
G37*
G36*
X95030000Y-191550000D02*
G01*
X92930000Y-191550000D01*
X92930000Y-189450000D01*
X95030000Y-189450000D01*
X95030000Y-191550000D01*
G37*
G36*
X120430000Y-191550000D02*
G01*
X118330000Y-191550000D01*
X118330000Y-189450000D01*
X120430000Y-189450000D01*
X120430000Y-191550000D01*
G37*
G36*
X122970000Y-191550000D02*
G01*
X120870000Y-191550000D01*
X120870000Y-189450000D01*
X122970000Y-189450000D01*
X122970000Y-191550000D01*
G37*
G36*
X77250000Y-191550000D02*
G01*
X75150000Y-191550000D01*
X75150000Y-189450000D01*
X77250000Y-189450000D01*
X77250000Y-191550000D01*
G37*
G36*
X125510000Y-191550000D02*
G01*
X123410000Y-191550000D01*
X123410000Y-189450000D01*
X125510000Y-189450000D01*
X125510000Y-191550000D01*
G37*
G36*
X79790000Y-191550000D02*
G01*
X77690000Y-191550000D01*
X77690000Y-189450000D01*
X79790000Y-189450000D01*
X79790000Y-191550000D01*
G37*
G36*
X101760000Y-190580000D02*
G01*
X99060000Y-190580000D01*
X99060000Y-187880000D01*
X101760000Y-187880000D01*
X101760000Y-190580000D01*
G37*
G36*
X106760000Y-190580000D02*
G01*
X104060000Y-190580000D01*
X104060000Y-187880000D01*
X106760000Y-187880000D01*
X106760000Y-190580000D01*
G37*
G36*
X111760000Y-190580000D02*
G01*
X109060000Y-190580000D01*
X109060000Y-187880000D01*
X111760000Y-187880000D01*
X111760000Y-190580000D01*
G37*
G36*
X92490000Y-189010000D02*
G01*
X90390000Y-189010000D01*
X90390000Y-186910000D01*
X92490000Y-186910000D01*
X92490000Y-189010000D01*
G37*
G36*
X87410000Y-189010000D02*
G01*
X85310000Y-189010000D01*
X85310000Y-186910000D01*
X87410000Y-186910000D01*
X87410000Y-189010000D01*
G37*
G36*
X89950000Y-189010000D02*
G01*
X87850000Y-189010000D01*
X87850000Y-186910000D01*
X89950000Y-186910000D01*
X89950000Y-189010000D01*
G37*
G36*
X131860000Y-189010000D02*
G01*
X129760000Y-189010000D01*
X129760000Y-186910000D01*
X131860000Y-186910000D01*
X131860000Y-189010000D01*
G37*
G36*
X72170000Y-189010000D02*
G01*
X70070000Y-189010000D01*
X70070000Y-186910000D01*
X72170000Y-186910000D01*
X72170000Y-189010000D01*
G37*
G36*
X67090000Y-189010000D02*
G01*
X64990000Y-189010000D01*
X64990000Y-186910000D01*
X67090000Y-186910000D01*
X67090000Y-189010000D01*
G37*
G36*
X128050000Y-189010000D02*
G01*
X125950000Y-189010000D01*
X125950000Y-186910000D01*
X128050000Y-186910000D01*
X128050000Y-189010000D01*
G37*
G36*
X117890000Y-189010000D02*
G01*
X115790000Y-189010000D01*
X115790000Y-186910000D01*
X117890000Y-186910000D01*
X117890000Y-189010000D01*
G37*
G36*
X111760000Y-186580000D02*
G01*
X109060000Y-186580000D01*
X109060000Y-183880000D01*
X111760000Y-183880000D01*
X111760000Y-186580000D01*
G37*
G36*
X106760000Y-186580000D02*
G01*
X104060000Y-186580000D01*
X104060000Y-183880000D01*
X106760000Y-183880000D01*
X106760000Y-186580000D01*
G37*
G36*
X101760000Y-186580000D02*
G01*
X99060000Y-186580000D01*
X99060000Y-183880000D01*
X101760000Y-183880000D01*
X101760000Y-186580000D01*
G37*
G36*
X134926274Y-184410350D02*
G01*
X135117362Y-184489502D01*
X135289336Y-184604411D01*
X135435589Y-184750664D01*
X135519046Y-184875566D01*
X135531475Y-184890711D01*
X135546629Y-184903147D01*
X135563917Y-184912388D01*
X135582676Y-184918079D01*
X135602185Y-184920000D01*
X137630000Y-184920000D01*
X137630000Y-185920000D01*
X135602185Y-185920000D01*
X135582676Y-185921921D01*
X135563917Y-185927612D01*
X135546629Y-185936853D01*
X135531475Y-185949289D01*
X135519046Y-185964434D01*
X135435589Y-186089336D01*
X135289336Y-186235589D01*
X135117362Y-186350498D01*
X134926274Y-186429650D01*
X134723416Y-186470000D01*
X134516584Y-186470000D01*
X134313726Y-186429650D01*
X134122638Y-186350498D01*
X133950664Y-186235589D01*
X133804411Y-186089336D01*
X133689502Y-185917362D01*
X133610350Y-185726274D01*
X133570000Y-185523416D01*
X133570000Y-185316584D01*
X133610350Y-185113726D01*
X133689502Y-184922638D01*
X133804411Y-184750664D01*
X133950664Y-184604411D01*
X134122638Y-184489502D01*
X134313726Y-184410350D01*
X134516584Y-184370000D01*
X134723416Y-184370000D01*
X134926274Y-184410350D01*
G37*
G36*
X143290000Y-186470000D02*
G01*
X141190000Y-186470000D01*
X141190000Y-186019999D01*
X141188079Y-186000490D01*
X141182388Y-185981731D01*
X141173147Y-185964443D01*
X141160711Y-185949289D01*
X141145557Y-185936853D01*
X141128269Y-185927612D01*
X141109510Y-185921921D01*
X141090001Y-185920000D01*
X139230000Y-185920000D01*
X139230000Y-184920000D01*
X141090001Y-184920000D01*
X141109510Y-184918079D01*
X141128269Y-184912388D01*
X141145557Y-184903147D01*
X141160711Y-184890711D01*
X141173147Y-184875557D01*
X141182388Y-184858269D01*
X141188079Y-184839510D01*
X141190000Y-184820001D01*
X141190000Y-184370000D01*
X143290000Y-184370000D01*
X143290000Y-186470000D01*
G37*
G36*
X117890000Y-183930000D02*
G01*
X115790000Y-183930000D01*
X115790000Y-181830000D01*
X117890000Y-181830000D01*
X117890000Y-183930000D01*
G37*
G36*
X128050000Y-183930000D02*
G01*
X125950000Y-183930000D01*
X125950000Y-181830000D01*
X128050000Y-181830000D01*
X128050000Y-183930000D01*
G37*
G36*
X82330000Y-183930000D02*
G01*
X80230000Y-183930000D01*
X80230000Y-181830000D01*
X82330000Y-181830000D01*
X82330000Y-183930000D01*
G37*
G36*
X77250000Y-183930000D02*
G01*
X75150000Y-183930000D01*
X75150000Y-181830000D01*
X77250000Y-181830000D01*
X77250000Y-183930000D01*
G37*
G36*
X145830000Y-183930000D02*
G01*
X143730000Y-183930000D01*
X143730000Y-181830000D01*
X145830000Y-181830000D01*
X145830000Y-183930000D01*
G37*
G36*
X135670000Y-183930000D02*
G01*
X133570000Y-183930000D01*
X133570000Y-181830000D01*
X135670000Y-181830000D01*
X135670000Y-183930000D01*
G37*
G36*
X131860000Y-183930000D02*
G01*
X129760000Y-183930000D01*
X129760000Y-181830000D01*
X131860000Y-181830000D01*
X131860000Y-183930000D01*
G37*
G36*
X67090000Y-183930000D02*
G01*
X64990000Y-183930000D01*
X64990000Y-181830000D01*
X67090000Y-181830000D01*
X67090000Y-183930000D01*
G37*
G36*
X145830000Y-181390000D02*
G01*
X143730000Y-181390000D01*
X143730000Y-179290000D01*
X145830000Y-179290000D01*
X145830000Y-181390000D01*
G37*
G36*
X97570000Y-181390000D02*
G01*
X95470000Y-181390000D01*
X95470000Y-179290000D01*
X97570000Y-179290000D01*
X97570000Y-181390000D01*
G37*
G36*
X101380000Y-181390000D02*
G01*
X99280000Y-181390000D01*
X99280000Y-179290000D01*
X101380000Y-179290000D01*
X101380000Y-181390000D01*
G37*
G36*
X111540000Y-181390000D02*
G01*
X109440000Y-181390000D01*
X109440000Y-179290000D01*
X111540000Y-179290000D01*
X111540000Y-181390000D01*
G37*
G36*
X135670000Y-181390000D02*
G01*
X133570000Y-181390000D01*
X133570000Y-179290000D01*
X135670000Y-179290000D01*
X135670000Y-181390000D01*
G37*
G36*
X81586274Y-176790350D02*
G01*
X81777362Y-176869502D01*
X81949336Y-176984411D01*
X82095589Y-177130664D01*
X82210498Y-177302638D01*
X82289650Y-177493726D01*
X82330000Y-177696584D01*
X82330000Y-177903416D01*
X82289650Y-178106274D01*
X82210498Y-178297362D01*
X82095589Y-178469336D01*
X81949336Y-178615589D01*
X81777362Y-178730498D01*
X81586274Y-178809650D01*
X81383416Y-178850000D01*
X81176584Y-178850000D01*
X80973726Y-178809650D01*
X80782638Y-178730498D01*
X80610664Y-178615589D01*
X80464411Y-178469336D01*
X80349502Y-178297362D01*
X80270350Y-178106274D01*
X80230000Y-177903416D01*
X80230000Y-177696584D01*
X80270350Y-177493726D01*
X80349502Y-177302638D01*
X80464411Y-177130664D01*
X80610664Y-176984411D01*
X80782638Y-176869502D01*
X80973726Y-176790350D01*
X81176584Y-176750000D01*
X81383416Y-176750000D01*
X81586274Y-176790350D01*
G37*
G36*
X145830000Y-178850000D02*
G01*
X143730000Y-178850000D01*
X143730000Y-176750000D01*
X145830000Y-176750000D01*
X145830000Y-178850000D01*
G37*
G36*
X87410000Y-178850000D02*
G01*
X85310000Y-178850000D01*
X85310000Y-176750000D01*
X87410000Y-176750000D01*
X87410000Y-178850000D01*
G37*
G36*
X74710000Y-178850000D02*
G01*
X72610000Y-178850000D01*
X72610000Y-176750000D01*
X74710000Y-176750000D01*
X74710000Y-178850000D01*
G37*
G36*
X89950000Y-178850000D02*
G01*
X87850000Y-178850000D01*
X87850000Y-176750000D01*
X89950000Y-176750000D01*
X89950000Y-178850000D01*
G37*
G36*
X135670000Y-178850000D02*
G01*
X133570000Y-178850000D01*
X133570000Y-176750000D01*
X135670000Y-176750000D01*
X135670000Y-178850000D01*
G37*
G36*
X122970000Y-178850000D02*
G01*
X120870000Y-178850000D01*
X120870000Y-176750000D01*
X122970000Y-176750000D01*
X122970000Y-178850000D01*
G37*
G36*
X130590000Y-178850000D02*
G01*
X128490000Y-178850000D01*
X128490000Y-176750000D01*
X130590000Y-176750000D01*
X130590000Y-178850000D01*
G37*
G36*
X92490000Y-178850000D02*
G01*
X90390000Y-178850000D01*
X90390000Y-176750000D01*
X92490000Y-176750000D01*
X92490000Y-178850000D01*
G37*
G36*
X122970000Y-176310000D02*
G01*
X120870000Y-176310000D01*
X120870000Y-174210000D01*
X122970000Y-174210000D01*
X122970000Y-176310000D01*
G37*
G36*
X97570000Y-176310000D02*
G01*
X95470000Y-176310000D01*
X95470000Y-174210000D01*
X97570000Y-174210000D01*
X97570000Y-176310000D01*
G37*
G36*
X82330000Y-176310000D02*
G01*
X80230000Y-176310000D01*
X80230000Y-174210000D01*
X82330000Y-174210000D01*
X82330000Y-176310000D01*
G37*
G36*
X130590000Y-176310000D02*
G01*
X128490000Y-176310000D01*
X128490000Y-174210000D01*
X130590000Y-174210000D01*
X130590000Y-176310000D01*
G37*
G36*
X74710000Y-176310000D02*
G01*
X72610000Y-176310000D01*
X72610000Y-174210000D01*
X74710000Y-174210000D01*
X74710000Y-176310000D01*
G37*
G36*
X104475443Y-172884194D02*
G01*
X104475446Y-172884195D01*
X104475445Y-172884195D01*
X104684728Y-172970883D01*
X104684729Y-172970884D01*
X104873082Y-173096737D01*
X105033263Y-173256918D01*
X105159117Y-173445272D01*
X105226167Y-173607145D01*
X105245806Y-173654557D01*
X105290000Y-173876735D01*
X105290000Y-174103265D01*
X105245806Y-174325443D01*
X105245805Y-174325445D01*
X105159117Y-174534728D01*
X105104336Y-174616713D01*
X105039297Y-174714052D01*
X105033262Y-174723083D01*
X104873083Y-174883262D01*
X104684728Y-175009117D01*
X104522855Y-175076167D01*
X104475443Y-175095806D01*
X104253265Y-175140000D01*
X104026735Y-175140000D01*
X103804557Y-175095806D01*
X103757145Y-175076167D01*
X103595272Y-175009117D01*
X103406917Y-174883262D01*
X103246738Y-174723083D01*
X103240704Y-174714052D01*
X103175664Y-174616713D01*
X103120883Y-174534728D01*
X103034195Y-174325445D01*
X103034194Y-174325443D01*
X102990000Y-174103265D01*
X102990000Y-173876735D01*
X103034194Y-173654557D01*
X103053833Y-173607145D01*
X103120883Y-173445272D01*
X103246737Y-173256918D01*
X103406918Y-173096737D01*
X103595271Y-172970884D01*
X103595272Y-172970883D01*
X103804555Y-172884195D01*
X103804554Y-172884195D01*
X103804557Y-172884194D01*
X104026735Y-172840000D01*
X104253265Y-172840000D01*
X104475443Y-172884194D01*
G37*
G36*
X107306713Y-172852964D02*
G01*
X107428557Y-172889924D01*
X107540852Y-172949948D01*
X107639277Y-173030723D01*
X107720052Y-173129148D01*
X107780076Y-173241443D01*
X107817036Y-173363287D01*
X107830000Y-173494908D01*
X107830000Y-174485092D01*
X107817036Y-174616713D01*
X107780076Y-174738557D01*
X107720052Y-174850852D01*
X107639277Y-174949277D01*
X107540852Y-175030052D01*
X107428557Y-175090076D01*
X107306713Y-175127036D01*
X107175092Y-175140000D01*
X106184908Y-175140000D01*
X106053287Y-175127036D01*
X105931443Y-175090076D01*
X105819148Y-175030052D01*
X105720723Y-174949277D01*
X105639948Y-174850852D01*
X105579924Y-174738557D01*
X105542964Y-174616713D01*
X105530000Y-174485092D01*
X105530000Y-173494908D01*
X105542964Y-173363287D01*
X105579924Y-173241443D01*
X105639948Y-173129148D01*
X105720723Y-173030723D01*
X105819148Y-172949948D01*
X105931443Y-172889924D01*
X106053287Y-172852964D01*
X106184908Y-172840000D01*
X107175092Y-172840000D01*
X107306713Y-172852964D01*
G37*
G36*
X145830000Y-173770000D02*
G01*
X143730000Y-173770000D01*
X143730000Y-171670000D01*
X145830000Y-171670000D01*
X145830000Y-173770000D01*
G37*
G36*
X67090000Y-173770000D02*
G01*
X64990000Y-173770000D01*
X64990000Y-171670000D01*
X67090000Y-171670000D01*
X67090000Y-173770000D01*
G37*
G36*
X92490000Y-173770000D02*
G01*
X90390000Y-173770000D01*
X90390000Y-171670000D01*
X92490000Y-171670000D01*
X92490000Y-173770000D01*
G37*
G36*
X138210000Y-173770000D02*
G01*
X136110000Y-173770000D01*
X136110000Y-171670000D01*
X138210000Y-171670000D01*
X138210000Y-173770000D01*
G37*
G36*
X87410000Y-173770000D02*
G01*
X85310000Y-173770000D01*
X85310000Y-171670000D01*
X87410000Y-171670000D01*
X87410000Y-173770000D01*
G37*
G36*
X122970000Y-173770000D02*
G01*
X120870000Y-173770000D01*
X120870000Y-171670000D01*
X122970000Y-171670000D01*
X122970000Y-173770000D01*
G37*
G36*
X74710000Y-173770000D02*
G01*
X72610000Y-173770000D01*
X72610000Y-171670000D01*
X74710000Y-171670000D01*
X74710000Y-173770000D01*
G37*
G36*
X130590000Y-173770000D02*
G01*
X128490000Y-173770000D01*
X128490000Y-171670000D01*
X130590000Y-171670000D01*
X130590000Y-173770000D01*
G37*
G36*
X82330000Y-173770000D02*
G01*
X80230000Y-173770000D01*
X80230000Y-171670000D01*
X82330000Y-171670000D01*
X82330000Y-173770000D01*
G37*
G36*
X74710000Y-171230000D02*
G01*
X72610000Y-171230000D01*
X72610000Y-169130000D01*
X74710000Y-169130000D01*
X74710000Y-171230000D01*
G37*
G36*
X82330000Y-171230000D02*
G01*
X80230000Y-171230000D01*
X80230000Y-169130000D01*
X82330000Y-169130000D01*
X82330000Y-171230000D01*
G37*
G36*
X122226274Y-169170350D02*
G01*
X122417362Y-169249502D01*
X122589336Y-169364411D01*
X122735589Y-169510664D01*
X122850498Y-169682638D01*
X122929650Y-169873726D01*
X122970000Y-170076584D01*
X122970000Y-170283416D01*
X122929650Y-170486274D01*
X122850498Y-170677362D01*
X122735589Y-170849336D01*
X122589336Y-170995589D01*
X122417362Y-171110498D01*
X122226274Y-171189650D01*
X122023416Y-171230000D01*
X121816584Y-171230000D01*
X121613726Y-171189650D01*
X121422638Y-171110498D01*
X121250664Y-170995589D01*
X121104411Y-170849336D01*
X120989502Y-170677362D01*
X120910350Y-170486274D01*
X120870000Y-170283416D01*
X120870000Y-170076584D01*
X120910350Y-169873726D01*
X120989502Y-169682638D01*
X121104411Y-169510664D01*
X121250664Y-169364411D01*
X121422638Y-169249502D01*
X121613726Y-169170350D01*
X121816584Y-169130000D01*
X122023416Y-169130000D01*
X122226274Y-169170350D01*
G37*
G36*
X130590000Y-171230000D02*
G01*
X128490000Y-171230000D01*
X128490000Y-169130000D01*
X130590000Y-169130000D01*
X130590000Y-171230000D01*
G37*
G36*
X138210000Y-171230000D02*
G01*
X136110000Y-171230000D01*
X136110000Y-169130000D01*
X138210000Y-169130000D01*
X138210000Y-171230000D01*
G37*
G36*
X145830000Y-171230000D02*
G01*
X143730000Y-171230000D01*
X143730000Y-169130000D01*
X145830000Y-169130000D01*
X145830000Y-171230000D01*
G37*
G36*
X110270000Y-168690000D02*
G01*
X108170000Y-168690000D01*
X108170000Y-166590000D01*
X110270000Y-166590000D01*
X110270000Y-168690000D01*
G37*
G36*
X145830000Y-168690000D02*
G01*
X143730000Y-168690000D01*
X143730000Y-166590000D01*
X145830000Y-166590000D01*
X145830000Y-168690000D01*
G37*
G36*
X138210000Y-168690000D02*
G01*
X136110000Y-168690000D01*
X136110000Y-166590000D01*
X138210000Y-166590000D01*
X138210000Y-168690000D01*
G37*
G36*
X67090000Y-168690000D02*
G01*
X64990000Y-168690000D01*
X64990000Y-166590000D01*
X67090000Y-166590000D01*
X67090000Y-168690000D01*
G37*
G36*
X74710000Y-168690000D02*
G01*
X72610000Y-168690000D01*
X72610000Y-166590000D01*
X74710000Y-166590000D01*
X74710000Y-168690000D01*
G37*
G36*
X100110000Y-168690000D02*
G01*
X98010000Y-168690000D01*
X98010000Y-166590000D01*
X100110000Y-166590000D01*
X100110000Y-168690000D01*
G37*
G36*
X95030000Y-168690000D02*
G01*
X92930000Y-168690000D01*
X92930000Y-166590000D01*
X95030000Y-166590000D01*
X95030000Y-168690000D01*
G37*
G36*
X105190000Y-168690000D02*
G01*
X103090000Y-168690000D01*
X103090000Y-166590000D01*
X105190000Y-166590000D01*
X105190000Y-168690000D01*
G37*
G36*
X82330000Y-168690000D02*
G01*
X80230000Y-168690000D01*
X80230000Y-166590000D01*
X82330000Y-166590000D01*
X82330000Y-168690000D01*
G37*
G36*
X138210000Y-166150000D02*
G01*
X136110000Y-166150000D01*
X136110000Y-164050000D01*
X138210000Y-164050000D01*
X138210000Y-166150000D01*
G37*
G36*
X74710000Y-166150000D02*
G01*
X72610000Y-166150000D01*
X72610000Y-164050000D01*
X74710000Y-164050000D01*
X74710000Y-166150000D01*
G37*
G36*
X82330000Y-166150000D02*
G01*
X80230000Y-166150000D01*
X80230000Y-164050000D01*
X82330000Y-164050000D01*
X82330000Y-166150000D01*
G37*
G36*
X130590000Y-166150000D02*
G01*
X128490000Y-166150000D01*
X128490000Y-165699999D01*
X128488079Y-165680490D01*
X128482388Y-165661731D01*
X128473147Y-165644443D01*
X128460711Y-165629289D01*
X128445557Y-165616853D01*
X128428269Y-165607612D01*
X128409510Y-165601921D01*
X128390001Y-165600000D01*
X126530000Y-165600000D01*
X126530000Y-164600000D01*
X128390001Y-164600000D01*
X128409510Y-164598079D01*
X128428269Y-164592388D01*
X128445557Y-164583147D01*
X128460711Y-164570711D01*
X128473147Y-164555557D01*
X128482388Y-164538269D01*
X128488079Y-164519510D01*
X128490000Y-164500001D01*
X128490000Y-164050000D01*
X130590000Y-164050000D01*
X130590000Y-166150000D01*
G37*
G36*
X145830000Y-166150000D02*
G01*
X143730000Y-166150000D01*
X143730000Y-164050000D01*
X145830000Y-164050000D01*
X145830000Y-166150000D01*
G37*
G36*
X122226274Y-164090350D02*
G01*
X122417362Y-164169502D01*
X122589336Y-164284411D01*
X122735589Y-164430664D01*
X122819046Y-164555566D01*
X122831475Y-164570711D01*
X122846629Y-164583147D01*
X122863917Y-164592388D01*
X122882676Y-164598079D01*
X122902185Y-164600000D01*
X124930000Y-164600000D01*
X124930000Y-165600000D01*
X122902185Y-165600000D01*
X122882676Y-165601921D01*
X122863917Y-165607612D01*
X122846629Y-165616853D01*
X122831475Y-165629289D01*
X122819046Y-165644434D01*
X122735589Y-165769336D01*
X122589336Y-165915589D01*
X122417362Y-166030498D01*
X122226274Y-166109650D01*
X122023416Y-166150000D01*
X121816584Y-166150000D01*
X121613726Y-166109650D01*
X121422638Y-166030498D01*
X121250664Y-165915589D01*
X121104411Y-165769336D01*
X120989502Y-165597362D01*
X120910350Y-165406274D01*
X120870000Y-165203416D01*
X120870000Y-164996584D01*
X120910350Y-164793726D01*
X120989502Y-164602638D01*
X121104411Y-164430664D01*
X121250664Y-164284411D01*
X121422638Y-164169502D01*
X121613726Y-164090350D01*
X121816584Y-164050000D01*
X122023416Y-164050000D01*
X122226274Y-164090350D01*
G37*
G36*
X138210000Y-163610000D02*
G01*
X136110000Y-163610000D01*
X136110000Y-161510000D01*
X138210000Y-161510000D01*
X138210000Y-163610000D01*
G37*
G36*
X105190000Y-163610000D02*
G01*
X103090000Y-163610000D01*
X103090000Y-161510000D01*
X105190000Y-161510000D01*
X105190000Y-163610000D01*
G37*
G36*
X67090000Y-163610000D02*
G01*
X64990000Y-163610000D01*
X64990000Y-161510000D01*
X67090000Y-161510000D01*
X67090000Y-163610000D01*
G37*
G36*
X74710000Y-163610000D02*
G01*
X72610000Y-163610000D01*
X72610000Y-161510000D01*
X74710000Y-161510000D01*
X74710000Y-163610000D01*
G37*
G36*
X145830000Y-163610000D02*
G01*
X143730000Y-163610000D01*
X143730000Y-161510000D01*
X145830000Y-161510000D01*
X145830000Y-163610000D01*
G37*
G36*
X82330000Y-163610000D02*
G01*
X80230000Y-163610000D01*
X80230000Y-161510000D01*
X82330000Y-161510000D01*
X82330000Y-163610000D01*
G37*
G36*
X92490000Y-163610000D02*
G01*
X90390000Y-163610000D01*
X90390000Y-161510000D01*
X92490000Y-161510000D01*
X92490000Y-163610000D01*
G37*
G36*
X115350000Y-163610000D02*
G01*
X113250000Y-163610000D01*
X113250000Y-161510000D01*
X115350000Y-161510000D01*
X115350000Y-163610000D01*
G37*
G36*
X87410000Y-163610000D02*
G01*
X85310000Y-163610000D01*
X85310000Y-161510000D01*
X87410000Y-161510000D01*
X87410000Y-163610000D01*
G37*
G36*
X138210000Y-161070000D02*
G01*
X136110000Y-161070000D01*
X136110000Y-158970000D01*
X138210000Y-158970000D01*
X138210000Y-161070000D01*
G37*
G36*
X89950000Y-161070000D02*
G01*
X87850000Y-161070000D01*
X87850000Y-158970000D01*
X89950000Y-158970000D01*
X89950000Y-161070000D01*
G37*
G36*
X100110000Y-161070000D02*
G01*
X98010000Y-161070000D01*
X98010000Y-158970000D01*
X100110000Y-158970000D01*
X100110000Y-161070000D01*
G37*
G36*
X122970000Y-161070000D02*
G01*
X120870000Y-161070000D01*
X120870000Y-158970000D01*
X122970000Y-158970000D01*
X122970000Y-161070000D01*
G37*
G36*
X145830000Y-161070000D02*
G01*
X143730000Y-161070000D01*
X143730000Y-158970000D01*
X145830000Y-158970000D01*
X145830000Y-161070000D01*
G37*
G36*
X130590000Y-161070000D02*
G01*
X128490000Y-161070000D01*
X128490000Y-158970000D01*
X130590000Y-158970000D01*
X130590000Y-161070000D01*
G37*
G36*
X130590000Y-158530000D02*
G01*
X128490000Y-158530000D01*
X128490000Y-156430000D01*
X130590000Y-156430000D01*
X130590000Y-158530000D01*
G37*
G36*
X72170000Y-158530000D02*
G01*
X70070000Y-158530000D01*
X70070000Y-156430000D01*
X72170000Y-156430000D01*
X72170000Y-158530000D01*
G37*
G36*
X122970000Y-158530000D02*
G01*
X120870000Y-158530000D01*
X120870000Y-156430000D01*
X122970000Y-156430000D01*
X122970000Y-158530000D01*
G37*
G36*
X137466274Y-156470350D02*
G01*
X137657362Y-156549502D01*
X137829336Y-156664411D01*
X137975589Y-156810664D01*
X138090498Y-156982638D01*
X138169650Y-157173726D01*
X138210000Y-157376584D01*
X138210000Y-157583416D01*
X138169650Y-157786274D01*
X138090498Y-157977362D01*
X137975589Y-158149336D01*
X137829336Y-158295589D01*
X137657362Y-158410498D01*
X137466274Y-158489650D01*
X137263416Y-158530000D01*
X137056584Y-158530000D01*
X136853726Y-158489650D01*
X136662638Y-158410498D01*
X136490664Y-158295589D01*
X136344411Y-158149336D01*
X136229502Y-157977362D01*
X136150350Y-157786274D01*
X136110000Y-157583416D01*
X136110000Y-157376584D01*
X136150350Y-157173726D01*
X136229502Y-156982638D01*
X136344411Y-156810664D01*
X136490664Y-156664411D01*
X136662638Y-156549502D01*
X136853726Y-156470350D01*
X137056584Y-156430000D01*
X137263416Y-156430000D01*
X137466274Y-156470350D01*
G37*
G36*
X82330000Y-158530000D02*
G01*
X80230000Y-158530000D01*
X80230000Y-156430000D01*
X82330000Y-156430000D01*
X82330000Y-158530000D01*
G37*
G36*
X67090000Y-158530000D02*
G01*
X64990000Y-158530000D01*
X64990000Y-156430000D01*
X67090000Y-156430000D01*
X67090000Y-158530000D01*
G37*
G36*
X100110000Y-158530000D02*
G01*
X98010000Y-158530000D01*
X98010000Y-156430000D01*
X100110000Y-156430000D01*
X100110000Y-158530000D01*
G37*
G36*
X89950000Y-158530000D02*
G01*
X87850000Y-158530000D01*
X87850000Y-156430000D01*
X89950000Y-156430000D01*
X89950000Y-158530000D01*
G37*
G36*
X145830000Y-158530000D02*
G01*
X143730000Y-158530000D01*
X143730000Y-156430000D01*
X145830000Y-156430000D01*
X145830000Y-158530000D01*
G37*
G36*
X130590000Y-155990000D02*
G01*
X128490000Y-155990000D01*
X128490000Y-153890000D01*
X130590000Y-153890000D01*
X130590000Y-155990000D01*
G37*
G36*
X122970000Y-155990000D02*
G01*
X120870000Y-155990000D01*
X120870000Y-153890000D01*
X122970000Y-153890000D01*
X122970000Y-155990000D01*
G37*
G36*
X100110000Y-155990000D02*
G01*
X98010000Y-155990000D01*
X98010000Y-153890000D01*
X100110000Y-153890000D01*
X100110000Y-155990000D01*
G37*
G36*
X89950000Y-155990000D02*
G01*
X87850000Y-155990000D01*
X87850000Y-153890000D01*
X89950000Y-153890000D01*
X89950000Y-155990000D01*
G37*
G36*
X115350000Y-155990000D02*
G01*
X113250000Y-155990000D01*
X113250000Y-153890000D01*
X115350000Y-153890000D01*
X115350000Y-155990000D01*
G37*
G36*
X105190000Y-155990000D02*
G01*
X103090000Y-155990000D01*
X103090000Y-153890000D01*
X105190000Y-153890000D01*
X105190000Y-155990000D01*
G37*
G36*
X72170000Y-153450000D02*
G01*
X70070000Y-153450000D01*
X70070000Y-151350000D01*
X72170000Y-151350000D01*
X72170000Y-153450000D01*
G37*
G36*
X122226274Y-151390350D02*
G01*
X122417362Y-151469502D01*
X122589336Y-151584411D01*
X122735589Y-151730664D01*
X122850498Y-151902638D01*
X122929650Y-152093726D01*
X122970000Y-152296584D01*
X122970000Y-152503416D01*
X122929650Y-152706274D01*
X122850498Y-152897362D01*
X122735589Y-153069336D01*
X122589336Y-153215589D01*
X122417362Y-153330498D01*
X122226274Y-153409650D01*
X122023416Y-153450000D01*
X121816584Y-153450000D01*
X121613726Y-153409650D01*
X121422638Y-153330498D01*
X121250664Y-153215589D01*
X121104411Y-153069336D01*
X120989502Y-152897362D01*
X120910350Y-152706274D01*
X120870000Y-152503416D01*
X120870000Y-152296584D01*
X120910350Y-152093726D01*
X120989502Y-151902638D01*
X121104411Y-151730664D01*
X121250664Y-151584411D01*
X121422638Y-151469502D01*
X121613726Y-151390350D01*
X121816584Y-151350000D01*
X122023416Y-151350000D01*
X122226274Y-151390350D01*
G37*
G36*
X143290000Y-153450000D02*
G01*
X141190000Y-153450000D01*
X141190000Y-151350000D01*
X143290000Y-151350000D01*
X143290000Y-153450000D01*
G37*
G36*
X138210000Y-153450000D02*
G01*
X136110000Y-153450000D01*
X136110000Y-151350000D01*
X138210000Y-151350000D01*
X138210000Y-153450000D01*
G37*
G36*
X82330000Y-153450000D02*
G01*
X80230000Y-153450000D01*
X80230000Y-151350000D01*
X82330000Y-151350000D01*
X82330000Y-153450000D01*
G37*
G36*
X130590000Y-153450000D02*
G01*
X128490000Y-153450000D01*
X128490000Y-151350000D01*
X130590000Y-151350000D01*
X130590000Y-153450000D01*
G37*
G36*
X135670000Y-150910000D02*
G01*
X133570000Y-150910000D01*
X133570000Y-148810000D01*
X135670000Y-148810000D01*
X135670000Y-150910000D01*
G37*
G36*
X72170000Y-150910000D02*
G01*
X70070000Y-150910000D01*
X70070000Y-148810000D01*
X72170000Y-148810000D01*
X72170000Y-150910000D01*
G37*
G36*
X82330000Y-150910000D02*
G01*
X80230000Y-150910000D01*
X80230000Y-148810000D01*
X82330000Y-148810000D01*
X82330000Y-150910000D01*
G37*
G36*
X145830000Y-150910000D02*
G01*
X143730000Y-150910000D01*
X143730000Y-148810000D01*
X145830000Y-148810000D01*
X145830000Y-150910000D01*
G37*
G36*
X102060000Y-148530000D02*
G01*
X99360000Y-148530000D01*
X99360000Y-145830000D01*
X102060000Y-145830000D01*
X102060000Y-148530000D01*
G37*
G36*
X111460000Y-148530000D02*
G01*
X108760000Y-148530000D01*
X108760000Y-145830000D01*
X111460000Y-145830000D01*
X111460000Y-148530000D01*
G37*
G36*
X106760000Y-148530000D02*
G01*
X104060000Y-148530000D01*
X104060000Y-145830000D01*
X106760000Y-145830000D01*
X106760000Y-148530000D01*
G37*
G36*
X72170000Y-148370000D02*
G01*
X70070000Y-148370000D01*
X70070000Y-146270000D01*
X72170000Y-146270000D01*
X72170000Y-148370000D01*
G37*
G36*
X67090000Y-148370000D02*
G01*
X64990000Y-148370000D01*
X64990000Y-146270000D01*
X67090000Y-146270000D01*
X67090000Y-148370000D01*
G37*
G36*
X124960000Y-146170001D02*
G01*
X124961921Y-146189510D01*
X124967612Y-146208269D01*
X124976853Y-146225557D01*
X124989289Y-146240711D01*
X125004443Y-146253147D01*
X125021731Y-146262388D01*
X125040490Y-146268079D01*
X125059999Y-146270000D01*
X125510000Y-146270000D01*
X125510000Y-148370000D01*
X123410000Y-148370000D01*
X123410000Y-146270000D01*
X123860001Y-146270000D01*
X123879510Y-146268079D01*
X123898269Y-146262388D01*
X123915557Y-146253147D01*
X123930711Y-146240711D01*
X123943147Y-146225557D01*
X123952388Y-146208269D01*
X123958079Y-146189510D01*
X123960000Y-146170001D01*
X123960000Y-144310000D01*
X124960000Y-144310000D01*
X124960000Y-146170001D01*
G37*
G36*
X82330000Y-148370000D02*
G01*
X80230000Y-148370000D01*
X80230000Y-146270000D01*
X82330000Y-146270000D01*
X82330000Y-148370000D01*
G37*
G36*
X94884237Y-141799131D02*
G01*
X95448401Y-142032815D01*
X95956135Y-142372072D01*
X96387928Y-142803865D01*
X96727185Y-143311599D01*
X96960869Y-143875763D01*
X97080000Y-144474677D01*
X97080000Y-145085323D01*
X96960869Y-145684237D01*
X96727185Y-146248401D01*
X96387928Y-146756135D01*
X95956135Y-147187928D01*
X95448401Y-147527185D01*
X94884237Y-147760869D01*
X94285323Y-147880000D01*
X93674677Y-147880000D01*
X93075763Y-147760869D01*
X92511599Y-147527185D01*
X92003865Y-147187928D01*
X91572072Y-146756135D01*
X91232815Y-146248401D01*
X90999131Y-145684237D01*
X90880000Y-145085323D01*
X90880000Y-144474677D01*
X90999131Y-143875763D01*
X91232815Y-143311599D01*
X91572072Y-142803865D01*
X92003865Y-142372072D01*
X92511599Y-142032815D01*
X93075763Y-141799131D01*
X93674677Y-141680000D01*
X94285323Y-141680000D01*
X94884237Y-141799131D01*
G37*
G36*
X117744237Y-141799131D02*
G01*
X118308401Y-142032815D01*
X118816135Y-142372072D01*
X119247928Y-142803865D01*
X119587185Y-143311599D01*
X119820869Y-143875763D01*
X119940000Y-144474677D01*
X119940000Y-145085323D01*
X119820869Y-145684237D01*
X119587185Y-146248401D01*
X119247928Y-146756135D01*
X118816135Y-147187928D01*
X118308401Y-147527185D01*
X117744237Y-147760869D01*
X117145323Y-147880000D01*
X116534677Y-147880000D01*
X115935763Y-147760869D01*
X115371599Y-147527185D01*
X114863865Y-147187928D01*
X114432072Y-146756135D01*
X114092815Y-146248401D01*
X113859131Y-145684237D01*
X113740000Y-145085323D01*
X113740000Y-144474677D01*
X113859131Y-143875763D01*
X114092815Y-143311599D01*
X114432072Y-142803865D01*
X114863865Y-142372072D01*
X115371599Y-142032815D01*
X115935763Y-141799131D01*
X116534677Y-141680000D01*
X117145323Y-141680000D01*
X117744237Y-141799131D01*
G37*
G36*
X143290000Y-147100000D02*
G01*
X141190000Y-147100000D01*
X141190000Y-145000000D01*
X143290000Y-145000000D01*
X143290000Y-147100000D01*
G37*
G36*
X138210000Y-147100000D02*
G01*
X136110000Y-147100000D01*
X136110000Y-145000000D01*
X138210000Y-145000000D01*
X138210000Y-147100000D01*
G37*
G36*
X82330000Y-145830000D02*
G01*
X80230000Y-145830000D01*
X80230000Y-143730000D01*
X82330000Y-143730000D01*
X82330000Y-145830000D01*
G37*
G36*
X72170000Y-145830000D02*
G01*
X70070000Y-145830000D01*
X70070000Y-143730000D01*
X72170000Y-143730000D01*
X72170000Y-145830000D01*
G37*
G36*
X106760000Y-143730000D02*
G01*
X104060000Y-143730000D01*
X104060000Y-141030000D01*
X106760000Y-141030000D01*
X106760000Y-143730000D01*
G37*
G36*
X111460000Y-143730000D02*
G01*
X108760000Y-143730000D01*
X108760000Y-141030000D01*
X111460000Y-141030000D01*
X111460000Y-143730000D01*
G37*
G36*
X102060000Y-143730000D02*
G01*
X99360000Y-143730000D01*
X99360000Y-141030000D01*
X102060000Y-141030000D01*
X102060000Y-143730000D01*
G37*
G36*
X143290000Y-143290000D02*
G01*
X141190000Y-143290000D01*
X141190000Y-141190000D01*
X143290000Y-141190000D01*
X143290000Y-143290000D01*
G37*
G36*
X138210000Y-143290000D02*
G01*
X136110000Y-143290000D01*
X136110000Y-141190000D01*
X138210000Y-141190000D01*
X138210000Y-143290000D01*
G37*
G36*
X129846274Y-141230350D02*
G01*
X130037362Y-141309502D01*
X130209336Y-141424411D01*
X130355589Y-141570664D01*
X130470498Y-141742638D01*
X130549650Y-141933726D01*
X130590000Y-142136584D01*
X130590000Y-142343416D01*
X130549650Y-142546274D01*
X130470498Y-142737362D01*
X130355589Y-142909336D01*
X130209336Y-143055589D01*
X130037362Y-143170498D01*
X129846274Y-143249650D01*
X129643416Y-143290000D01*
X129436584Y-143290000D01*
X129233726Y-143249650D01*
X129042638Y-143170498D01*
X128870664Y-143055589D01*
X128724411Y-142909336D01*
X128609502Y-142737362D01*
X128530350Y-142546274D01*
X128490000Y-142343416D01*
X128490000Y-142136584D01*
X128530350Y-141933726D01*
X128609502Y-141742638D01*
X128724411Y-141570664D01*
X128870664Y-141424411D01*
X129042638Y-141309502D01*
X129233726Y-141230350D01*
X129436584Y-141190000D01*
X129643416Y-141190000D01*
X129846274Y-141230350D01*
G37*
G36*
X124766274Y-138690350D02*
G01*
X124957362Y-138769502D01*
X125129336Y-138884411D01*
X125275589Y-139030664D01*
X125390498Y-139202638D01*
X125469650Y-139393726D01*
X125510000Y-139596584D01*
X125510000Y-139803416D01*
X125469650Y-140006274D01*
X125390498Y-140197362D01*
X125275589Y-140369336D01*
X125129336Y-140515589D01*
X125004434Y-140599046D01*
X124989289Y-140611475D01*
X124976853Y-140626629D01*
X124967612Y-140643917D01*
X124961921Y-140662676D01*
X124960000Y-140682185D01*
X124960000Y-142710000D01*
X123960000Y-142710000D01*
X123960000Y-140682185D01*
X123958079Y-140662676D01*
X123952388Y-140643917D01*
X123943147Y-140626629D01*
X123930711Y-140611475D01*
X123915566Y-140599046D01*
X123790664Y-140515589D01*
X123644411Y-140369336D01*
X123529502Y-140197362D01*
X123450350Y-140006274D01*
X123410000Y-139803416D01*
X123410000Y-139596584D01*
X123450350Y-139393726D01*
X123529502Y-139202638D01*
X123644411Y-139030664D01*
X123790664Y-138884411D01*
X123962638Y-138769502D01*
X124153726Y-138690350D01*
X124356584Y-138650000D01*
X124563416Y-138650000D01*
X124766274Y-138690350D01*
G37*
G36*
X130115007Y-138661811D02*
G01*
X130225599Y-138695358D01*
X130327517Y-138749834D01*
X130416851Y-138823149D01*
X130490166Y-138912483D01*
X130544642Y-139014401D01*
X130578189Y-139124993D01*
X130590000Y-139244908D01*
X130590000Y-140155092D01*
X130578189Y-140275007D01*
X130544642Y-140385599D01*
X130490166Y-140487517D01*
X130416851Y-140576851D01*
X130327517Y-140650166D01*
X130225599Y-140704642D01*
X130115007Y-140738189D01*
X129995092Y-140750000D01*
X129084908Y-140750000D01*
X128964993Y-140738189D01*
X128854401Y-140704642D01*
X128752483Y-140650166D01*
X128663149Y-140576851D01*
X128589834Y-140487517D01*
X128535358Y-140385599D01*
X128501811Y-140275007D01*
X128490000Y-140155092D01*
X128490000Y-139244908D01*
X128501811Y-139124993D01*
X128535358Y-139014401D01*
X128589834Y-138912483D01*
X128663149Y-138823149D01*
X128752483Y-138749834D01*
X128854401Y-138695358D01*
X128964993Y-138661811D01*
X129084908Y-138650000D01*
X129995092Y-138650000D01*
X130115007Y-138661811D01*
G37*
G36*
X145830000Y-140750000D02*
G01*
X143730000Y-140750000D01*
X143730000Y-138650000D01*
X145830000Y-138650000D01*
X145830000Y-140750000D01*
G37*
G36*
X79790000Y-140750000D02*
G01*
X77690000Y-140750000D01*
X77690000Y-138650000D01*
X79790000Y-138650000D01*
X79790000Y-140750000D01*
G37*
G36*
X135670000Y-140750000D02*
G01*
X133570000Y-140750000D01*
X133570000Y-138650000D01*
X135670000Y-138650000D01*
X135670000Y-140750000D01*
G37*
G36*
X83600000Y-140750000D02*
G01*
X81500000Y-140750000D01*
X81500000Y-138650000D01*
X83600000Y-138650000D01*
X83600000Y-140750000D01*
G37*
G36*
X72170000Y-140750000D02*
G01*
X70070000Y-140750000D01*
X70070000Y-138650000D01*
X72170000Y-138650000D01*
X72170000Y-140750000D01*
G37*
G36*
X75980000Y-140750000D02*
G01*
X73880000Y-140750000D01*
X73880000Y-138650000D01*
X75980000Y-138650000D01*
X75980000Y-140750000D01*
G37*
G36*
X111540000Y-138210000D02*
G01*
X109440000Y-138210000D01*
X109440000Y-136110000D01*
X111540000Y-136110000D01*
X111540000Y-138210000D01*
G37*
G36*
X101380000Y-138210000D02*
G01*
X99280000Y-138210000D01*
X99280000Y-136110000D01*
X101380000Y-136110000D01*
X101380000Y-138210000D01*
G37*
G36*
X128050000Y-135670000D02*
G01*
X125950000Y-135670000D01*
X125950000Y-133570000D01*
X128050000Y-133570000D01*
X128050000Y-135670000D01*
G37*
G36*
X138210000Y-135670000D02*
G01*
X136110000Y-135670000D01*
X136110000Y-133570000D01*
X138210000Y-133570000D01*
X138210000Y-135670000D01*
G37*
G36*
X117890000Y-135670000D02*
G01*
X115790000Y-135670000D01*
X115790000Y-133570000D01*
X117890000Y-133570000D01*
X117890000Y-135670000D01*
G37*
G36*
X122970000Y-135670000D02*
G01*
X120870000Y-135670000D01*
X120870000Y-133570000D01*
X122970000Y-133570000D01*
X122970000Y-135670000D01*
G37*
G36*
X79790000Y-135670000D02*
G01*
X77690000Y-135670000D01*
X77690000Y-133570000D01*
X79790000Y-133570000D01*
X79790000Y-135670000D01*
G37*
G36*
X83600000Y-135670000D02*
G01*
X81500000Y-135670000D01*
X81500000Y-133570000D01*
X83600000Y-133570000D01*
X83600000Y-135670000D01*
G37*
G36*
X72170000Y-135670000D02*
G01*
X70070000Y-135670000D01*
X70070000Y-133570000D01*
X72170000Y-133570000D01*
X72170000Y-135670000D01*
G37*
G36*
X106460000Y-135670000D02*
G01*
X104360000Y-135670000D01*
X104360000Y-133570000D01*
X106460000Y-133570000D01*
X106460000Y-135670000D01*
G37*
G36*
X75980000Y-135670000D02*
G01*
X73880000Y-135670000D01*
X73880000Y-133570000D01*
X75980000Y-133570000D01*
X75980000Y-135670000D01*
G37*
G36*
X125510000Y-130590000D02*
G01*
X123410000Y-130590000D01*
X123410000Y-128490000D01*
X125510000Y-128490000D01*
X125510000Y-130590000D01*
G37*
G36*
X117890000Y-130590000D02*
G01*
X115790000Y-130590000D01*
X115790000Y-128490000D01*
X117890000Y-128490000D01*
X117890000Y-130590000D01*
G37*
G36*
X115350000Y-130590000D02*
G01*
X113250000Y-130590000D01*
X113250000Y-128490000D01*
X115350000Y-128490000D01*
X115350000Y-130590000D01*
G37*
G36*
X97570000Y-130590000D02*
G01*
X95470000Y-130590000D01*
X95470000Y-128490000D01*
X97570000Y-128490000D01*
X97570000Y-130590000D01*
G37*
G36*
X95030000Y-130590000D02*
G01*
X92930000Y-130590000D01*
X92930000Y-128490000D01*
X95030000Y-128490000D01*
X95030000Y-130590000D01*
G37*
G36*
X101380000Y-130590000D02*
G01*
X99280000Y-130590000D01*
X99280000Y-128490000D01*
X101380000Y-128490000D01*
X101380000Y-130590000D01*
G37*
G36*
X111540000Y-130590000D02*
G01*
X109440000Y-130590000D01*
X109440000Y-128490000D01*
X111540000Y-128490000D01*
X111540000Y-130590000D01*
G37*
G36*
X92490000Y-130590000D02*
G01*
X90390000Y-130590000D01*
X90390000Y-128490000D01*
X92490000Y-128490000D01*
X92490000Y-130590000D01*
G37*
G36*
X89950000Y-130590000D02*
G01*
X87850000Y-130590000D01*
X87850000Y-128490000D01*
X89950000Y-128490000D01*
X89950000Y-130590000D01*
G37*
G36*
X87410000Y-130590000D02*
G01*
X85310000Y-130590000D01*
X85310000Y-128490000D01*
X87410000Y-128490000D01*
X87410000Y-130590000D01*
G37*
G36*
X120430000Y-130590000D02*
G01*
X118330000Y-130590000D01*
X118330000Y-128490000D01*
X120430000Y-128490000D01*
X120430000Y-130590000D01*
G37*
G36*
X122970000Y-130590000D02*
G01*
X120870000Y-130590000D01*
X120870000Y-128490000D01*
X122970000Y-128490000D01*
X122970000Y-130590000D01*
G37*
M02*
