<?xml version="1.0" encoding="utf-8"?>
<!-- Uploaded to: SVG Repo, www.svgrepo.com, Generator: SVG Repo Mixer Tools -->
<svg fill="#000000" height="800px" width="800px" version="1.2" baseProfile="tiny" id="Layer_1" xmlns="http://www.w3.org/2000/svg" xmlns:xlink="http://www.w3.org/1999/xlink"
	  viewBox="0 0 256 256" xml:space="preserve">
<path id="XMLID_9_" d="M136.5,65.2v-5.1h6.7v-3.2c0-5.8,5-10.4,11.3-10.4c6.2,0,11.3,4.7,11.3,10.4v3.2h6.6v5.1H136.5z M195.7,171.1
	c-13.2,0-24,10.7-24,24c0,13.2,10.7,24,24,24c13.2,0,23.9-10.7,23.9-24C219.6,181.8,208.9,171.1,195.7,171.1z M195.7,206.5
	c-6.3,0-11.5-5.1-11.5-11.5c0-6.3,5.1-11.5,11.5-11.5c6.3,0,11.5,5.1,11.5,11.5C207.1,201.4,202,206.5,195.7,206.5z M58.4,170.9
	c-13.2,0-24,10.7-24,24c0,13.2,10.7,24,24,24c13.2,0,24-10.7,24-24C82.4,181.6,71.7,170.9,58.4,170.9z M58.5,206.3
	c-6.3,0-11.5-5.1-11.5-11.5c0-6.3,5.1-11.5,11.5-11.5S70,188.5,70,194.9C70,201.2,64.8,206.3,58.5,206.3z M235.9,126.9
	c7.2,1.4,11.4,4.5,14.7,22.1l5.1,31.9c1.8,10.4-4,14.2-11.3,14.2h-17.6c0-17.2-13.9-31.2-31.1-31.2c-17.2,0-31.1,14-31.1,31.2h-75
	c0-17.2-13.9-31.2-31.1-31.2c-17.2,0-31.1,14-31.1,31.2H12.7c-5.1,0-9.1-3.9-9.1-8.9V81.4c0-5.7,4.5-10.3,10-10.3h161.9H202
	c7.2,0,12.4,3.6,15,9.8L235.9,126.9z M173.1,81.8v43.5h50.4l-17.7-43.5H173.1z M128,119.7V93h-26.7v26.7H74.6v26.7h26.7v26.7H128
	v-26.7h26.7v-26.7H128z"/>
</svg>