<?xml version="1.0" ?>
<!DOCTYPE svg  PUBLIC '-//W3C//DTD SVG 1.1//EN'  'http://www.w3.org/Graphics/SVG/1.1/DTD/svg11.dtd'>
<!-- Uploaded to: SVG Repo, www.svgrepo.com, Generator: SVG Repo Mixer Tools -->
<svg fill="#000000" width="800px" height="800px" viewBox="0 0 100 100" version="1.1" xml:space="preserve" xmlns="http://www.w3.org/2000/svg" xmlns:xlink="http://www.w3.org/1999/xlink">
<g id="_x31_"/>
<g id="_x32_"/>
<g id="_x33_"/>
<g id="_x34_"/>
<g id="_x35_"/>
<g id="_x36_"/>
<g id="_x37_"/>
<g id="_x38_"/>
<g id="_x39_"/>
<g id="_x31_0"/>
<g id="_x31_1"/>
<g id="_x31_2"/>
<g id="_x31_3"/>
<g id="_x31_4"/>
<g id="_x31_5"/>
<g id="_x31_6"/>
<g id="_x31_7"/>
<g id="_x31_8"/>
<g id="_x31_9"/>
<g id="_x32_0"/>
<g id="_x32_1"/>
<g id="_x32_2"/>
<g id="_x32_3"/>
<g id="_x32_4">
<path d="M71.6,89.2H28.4c-2.3,0-4.3-1.1-5.5-2.9c-1-1.6-1.1-3.7-0.3-5.4l11.9-24.2c0.4-0.7,1.2-1.2,2-1.1c3.6,0.3,7.4,1.4,11.2,3.1   c4.7,2.1,10.2,1.9,16.3-0.5c1-0.4,2.1,0,2.5,1l10.7,21.8c0.9,1.7,0.7,3.7-0.3,5.4C75.9,88.1,73.9,89.2,71.6,89.2z M37.6,59.6   l-11.3,23c-0.3,0.6-0.1,1.2,0.1,1.5c0.4,0.7,1.2,1,2.1,1h43.2c0.9,0,1.7-0.4,2.1-1c0.2-0.3,0.4-0.9,0.1-1.5l-9.9-20.2   c-6.5,2.2-12.4,2.1-17.7-0.2C43.2,60.9,40.3,60,37.6,59.6z M54.8,64c-3.1,0-6-0.6-8.7-1.8c-3.4-1.5-6.8-2.4-9.9-2.7   c-0.7-0.1-1.2-0.4-1.6-1c-0.3-0.6-0.3-1.3-0.1-1.9l3.2-6.5V21.3c0-1.1,0.9-2,2-2h20.5c1.1,0,2,0.9,2,2v28.8l4.4,8.9   c0.2,0.5,0.3,1.1,0.1,1.6c-0.2,0.5-0.6,0.9-1.1,1.1C61.8,63.3,58.2,64,54.8,64z M39.4,55.9c2.7,0.5,5.5,1.4,8.4,2.7   c4.2,1.9,9,1.9,14.3,0.2l-3.6-7.3c-0.1-0.3-0.2-0.6-0.2-0.9V23.3H41.8v27.3c0,0.3-0.1,0.6-0.2,0.9L39.4,55.9z M61.3,23.3H38.7   c-3.4,0-6.2-2.8-6.2-6.2s2.8-6.2,6.2-6.2h22.6c3.4,0,6.2,2.8,6.2,6.2S64.8,23.3,61.3,23.3z M38.7,14.8c-1.2,0-2.2,1-2.2,2.2   s1,2.2,2.2,2.2h22.6c1.2,0,2.2-1,2.2-2.2s-1-2.2-2.2-2.2H38.7z M57.4,79.3c-3.1,0-5.6-2.5-5.6-5.6s2.5-5.6,5.6-5.6   c3.1,0,5.6,2.5,5.6,5.6S60.5,79.3,57.4,79.3z M57.4,72.2c-0.9,0-1.6,0.7-1.6,1.6s0.7,1.6,1.6,1.6s1.6-0.7,1.6-1.6   S58.3,72.2,57.4,72.2z M40.8,71.7c0.4-0.4,0.6-0.9,0.6-1.4c0-0.5-0.2-1-0.6-1.4c-0.7-0.7-2.1-0.7-2.8,0c-0.4,0.4-0.6,0.9-0.6,1.4   c0,0.5,0.2,1,0.6,1.4c0.4,0.4,0.9,0.6,1.4,0.6C39.9,72.3,40.4,72.1,40.8,71.7z"/>
</g>
<g id="_x32_5"/>
</svg>