<?xml version="1.0" encoding="iso-8859-1"?>
<!-- Uploaded to: SVG Repo, www.svgrepo.com, Generator: SVG Repo Mixer Tools -->
<svg fill="#000000" height="800px" width="800px" version="1.1" id="Layer_1" xmlns="http://www.w3.org/2000/svg" xmlns:xlink="http://www.w3.org/1999/xlink" 
	 viewBox="0 0 512 512" xml:space="preserve">
<g>
	<g>
		<path d="M384,221.091h-62.836l-27.927-62.836c-2.327-4.655-5.818-6.982-10.473-6.982c-4.655,0-9.309,2.327-10.473,6.982
			l-51.2,116.364l-22.109-46.545c-2.327-3.491-5.818-6.982-10.473-6.982H128c-6.982,0-11.636,4.655-11.636,11.636
			s4.655,11.636,11.636,11.636h52.364l30.255,62.836c2.327,3.491,5.818,6.982,10.473,6.982s8.145-2.327,10.473-6.982l51.2-115.2
			l20.945,46.545c1.164,3.491,5.818,5.818,10.473,5.818H384c6.982,0,11.636-4.655,11.636-11.636S390.982,221.091,384,221.091z"/>
	</g>
</g>
<g>
	<g>
		<path d="M407.273,34.909h-69.818c0-6.982-4.655-11.636-11.636-11.636h-29.091c-4.655,0-8.145-2.327-9.309-4.655
			C280.436,6.982,268.8,0,256,0s-24.436,6.982-30.255,18.618c-2.327,2.327-5.818,4.655-10.473,4.655h-29.091
			c-6.982,0-11.636,4.655-11.636,11.636v58.182c0,6.982,4.655,11.636,11.636,11.636h139.636c6.982,0,11.636-4.655,11.636-11.636
			c0-6.982-4.655-11.636-11.636-11.636h-128V46.545h17.455c12.8,0,24.436-6.982,30.255-17.455c4.655-8.145,16.291-6.982,20.945,0
			c5.818,10.473,17.455,17.455,30.255,17.455h17.455c0,6.982,4.655,11.636,11.636,11.636h81.455c6.982,0,11.636,4.655,11.636,11.636
			v407.273c0,6.982-4.655,11.636-11.636,11.636H104.727c-6.982,0-11.636-4.655-11.636-11.636V69.818
			c0-6.982,4.655-11.636,11.636-11.636H128c6.982,0,11.636-4.655,11.636-11.636S134.982,34.909,128,34.909h-23.273
			c-19.782,0-34.909,15.127-34.909,34.909v407.273c0,19.782,15.127,34.909,34.909,34.909h302.545
			c19.782,0,34.909-15.127,34.909-34.909V69.818C442.182,50.036,427.055,34.909,407.273,34.909z"/>
	</g>
</g>
<g>
	<g>
		<path d="M279.273,372.364H128c-6.982,0-11.636,4.655-11.636,11.636s4.655,11.636,11.636,11.636h151.273
			c6.982,0,11.636-4.655,11.636-11.636S286.255,372.364,279.273,372.364z"/>
	</g>
</g>
<g>
	<g>
		<path d="M209.455,418.909H128c-6.982,0-11.636,4.655-11.636,11.636s4.655,11.636,11.636,11.636h81.455
			c6.982,0,11.636-4.655,11.636-11.636S216.436,418.909,209.455,418.909z"/>
	</g>
</g>
</svg>