  0
SECTION
  2
HEADER
  9
$ACADVER
  1
AC1014
  9
$HANDSEED
  5
FFFF
  9
$INSUNITS
 70
     4
  9
$MEASUREMENT
 70
     1
  0
ENDSEC
  0
SECTION
  2
TABLES
  0
TABLE
  2
VPORT
  5
8
330
0
100
AcDbSymbolTable
 70
     4
  0
VPORT
  5
2E
330
8
100
AcDbSymbolTableRecord
100
AcDbViewportTableRecord
  2
*ACTIVE
 70
     0
 10
0.0
 20
0.0
 11
1.0
 21
1.0
 12
210.0
 22
148.5
 13
0.0
 23
0.0
 14
10.0
 24
10.0
 15
10.0
 25
10.0
 16
0.0
 26
0.0
 36
1.0
 17
0.0
 27
0.0
 37
0.0
 40
341.0
 41
1.24
 42
50.0
 43
0.0
 44
0.0
 50
0.0
 51
0.0
 71
     0
 72
   100
 73
     1
 74
     3
 75
     0
 76
     0
 77
     0
 78
     0
  0
ENDTAB
  0
TABLE
  2
LTYPE
  5
5
330
0
100
AcDbSymbolTable
 70
     1
  0
LTYPE
  5
14
330
5
100
AcDbSymbolTableRecord
100
AcDbLinetypeTableRecord
  2
BYBLOCK
 70
     0
  3

 72
    65
 73
     0
 40
0.0
  0
LTYPE
  5
15
330
5
100
AcDbSymbolTableRecord
100
AcDbLinetypeTableRecord
  2
BYLAYER
 70
     0
  3

 72
    65
 73
     0
 40
0.0
  0
LTYPE
  5
16
330
5
100
AcDbSymbolTableRecord
100
AcDbLinetypeTableRecord
  2
CONTINUOUS
 70
     0
  3
Solid line
 72
    65
 73
     0
 40
0.0
  0
ENDTAB
  0
TABLE
  2
LAYER
  5
2
100
AcDbSymbolTable
 70
2
  0
LAYER
  5
50
100
AcDbSymbolTableRecord
100
AcDbLayerTableRecord
  2
0
 70
0
  6
CONTINUOUS
  0
LAYER
  5
51
100
AcDbSymbolTableRecord
100
AcDbLayerTableRecord
  2
Layer_1
 70
0
  6
CONTINUOUS
  0
ENDTAB
  0
TABLE
  2
STYLE
  5
3
330
0
100
AcDbSymbolTable
 70
     1
  0
STYLE
  5
11
330
3
100
AcDbSymbolTableRecord
100
AcDbTextStyleTableRecord
  2
STANDARD
 70
     0
 40
0.0
 41
1.0
 50
0.0
 71
     0
 42
2.5
  3
txt
  4

  0
ENDTAB
  0
TABLE
  2
VIEW
  5
6
330
0
100
AcDbSymbolTable
 70
     0
  0
ENDTAB
  0
TABLE
  2
UCS
  5
7
330
0
100
AcDbSymbolTable
 70
     0
  0
ENDTAB
  0
TABLE
  2
APPID
  5
9
330
0
100
AcDbSymbolTable
 70
     2
  0
APPID
  5
12
330
9
100
AcDbSymbolTableRecord
100
AcDbRegAppTableRecord
  2
ACAD
 70
     0
  0
ENDTAB
  0
TABLE
  2
DIMSTYLE
  5
A
330
0
100
AcDbSymbolTable
 70
     1
  0
DIMSTYLE
105
27
330
A
100
AcDbSymbolTableRecord
100
AcDbDimStyleTableRecord
  2
ISO-25
 70
     0
  3

  4

  5

  6

  7

 40
1.0
 41
2.5
 42
0.625
 43
3.75
 44
1.25
 45
0.0
 46
0.0
 47
0.0
 48
0.0
140
2.5
141
2.5
142
0.0
143
0.03937007874016
144
1.0
145
0.0
146
1.0
147
0.625
 71
     0
 72
     0
 73
     0
 74
     0
 75
     0
 76
     0
 77
     1
 78
     8
170
     0
171
     3
172
     1
173
     0
174
     0
175
     0
176
     0
177
     0
178
     0
270
     2
271
     2
272
     2
273
     2
274
     3
340
11
275
     0
280
     0
281
     0
282
     0
283
     0
284
     8
285
     0
286
     0
287
     3
288
     0
  0
ENDTAB
  0
TABLE
  2
BLOCK_RECORD
  5
1
330
0
100
AcDbSymbolTable
 70
     1
  0
BLOCK_RECORD
  5
1F
330
1
100
AcDbSymbolTableRecord
100
AcDbBlockTableRecord
  2
*MODEL_SPACE
  0
BLOCK_RECORD
  5
1B
330
1
100
AcDbSymbolTableRecord
100
AcDbBlockTableRecord
  2
*PAPER_SPACE
  0
ENDTAB
  0
ENDSEC
  0
SECTION
  2
BLOCKS
  0
BLOCK
  5
20
330
1F
100
AcDbEntity
  8
0
100
AcDbBlockBegin
  2
*MODEL_SPACE
 70
     0
 10
0.0
 20
0.0
 30
0.0
  3
*MODEL_SPACE
  1

  0
ENDBLK
  5
21
330
1F
100
AcDbEntity
  8
0
100
AcDbBlockEnd
  0
BLOCK
  5
1C
330
1B
100
AcDbEntity
 67
     1
  8
0
100
AcDbBlockBegin
  2
*PAPER_SPACE
  1

  0
ENDBLK
  5
1D
330
1B
100
AcDbEntity
 67
     1
  8
0
100
AcDbBlockEnd
  0
ENDSEC
  0
SECTION
  2
ENTITIES
  0
SPLINE
  5
100
100
AcDbEntity
  8
Layer_1
 62
7
100
AcDbSpline
 70
8
 71
3
 72
8
 73
4
 74
0
 40
0
 40
0
 40
0
 40
0
 40
1
 40
1
 40
1
 40
1
 10
32.470350
 20
48.929841
 30
0.0
 10
29.818129
 20
48.929953
 30
0.0
 10
27.274497
 20
47.876447
 30
0.0
 10
25.399044
 20
46.001093
 30
0.0
  0
SPLINE
  5
101
100
AcDbEntity
  8
Layer_1
 62
7
100
AcDbSpline
 70
8
 71
3
 72
8
 73
4
 74
0
 40
0
 40
0
 40
0
 40
0
 40
1
 40
1
 40
1
 40
1
 10
25.399044
 20
46.001093
 30
0.0
 10
23.523592
 20
44.125739
 30
0.0
 10
22.469955
 20
41.582161
 30
0.0
 10
22.469928
 20
38.929941
 30
0.0
  0
SPLINE
  5
102
100
AcDbEntity
  8
Layer_1
 62
7
100
AcDbSpline
 70
8
 71
3
 72
8
 73
4
 74
0
 40
0
 40
0
 40
0
 40
0
 40
1
 40
1
 40
1
 40
1
 10
22.469928
 20
38.929941
 30
0.0
 10
22.469952
 20
36.277718
 30
0.0
 10
23.523589
 20
33.734138
 30
0.0
 10
25.399041
 20
31.858782
 30
0.0
  0
SPLINE
  5
103
100
AcDbEntity
  8
Layer_1
 62
7
100
AcDbSpline
 70
8
 71
3
 72
8
 73
4
 74
0
 40
0
 40
0
 40
0
 40
0
 40
1
 40
1
 40
1
 40
1
 10
25.399041
 20
31.858782
 30
0.0
 10
27.274493
 20
29.983425
 30
0.0
 10
29.818127
 20
28.929918
 30
0.0
 10
32.470350
 20
28.930030
 30
0.0
  0
SPLINE
  5
104
100
AcDbEntity
  8
Layer_1
 62
7
100
AcDbSpline
 70
8
 71
3
 72
8
 73
4
 74
0
 40
0
 40
0
 40
0
 40
0
 40
1
 40
1
 40
1
 40
1
 10
32.470350
 20
28.930030
 30
0.0
 10
37.993125
 20
28.930082
 30
0.0
 10
42.470207
 20
33.407165
 30
0.0
 10
42.470256
 20
38.929941
 30
0.0
  0
SPLINE
  5
105
100
AcDbEntity
  8
Layer_1
 62
7
100
AcDbSpline
 70
8
 71
3
 72
8
 73
4
 74
0
 40
0
 40
0
 40
0
 40
0
 40
1
 40
1
 40
1
 40
1
 10
42.470256
 20
38.929941
 30
0.0
 10
42.470201
 20
44.452713
 30
0.0
 10
37.993122
 20
48.929789
 30
0.0
 10
32.470350
 20
48.929841
 30
0.0
  0
SPLINE
  5
106
100
AcDbEntity
  8
Layer_1
 62
7
100
AcDbSpline
 70
8
 71
3
 72
8
 73
4
 74
0
 40
0
 40
0
 40
0
 40
0
 40
1
 40
1
 40
1
 40
1
 10
32.470350
 20
44.429861
 30
0.0
 10
35.507851
 20
44.429818
 30
0.0
 10
37.970223
 20
41.967452
 30
0.0
 10
37.970273
 20
38.929951
 30
0.0
  0
SPLINE
  5
107
100
AcDbEntity
  8
Layer_1
 62
7
100
AcDbSpline
 70
8
 71
3
 72
8
 73
4
 74
0
 40
0
 40
0
 40
0
 40
0
 40
1
 40
1
 40
1
 40
1
 10
37.970273
 20
38.929951
 30
0.0
 10
37.970234
 20
35.892442
 30
0.0
 10
35.507858
 20
33.430063
 30
0.0
 10
32.470350
 20
33.430021
 30
0.0
  0
SPLINE
  5
108
100
AcDbEntity
  8
Layer_1
 62
7
100
AcDbSpline
 70
8
 71
3
 72
8
 73
4
 74
0
 40
0
 40
0
 40
0
 40
0
 40
1
 40
1
 40
1
 40
1
 10
32.470350
 20
33.430021
 30
0.0
 10
31.011595
 20
33.429904
 30
0.0
 10
29.612546
 20
34.009306
 30
0.0
 10
28.581004
 20
35.040753
 30
0.0
  0
SPLINE
  5
109
100
AcDbEntity
  8
Layer_1
 62
7
100
AcDbSpline
 70
8
 71
3
 72
8
 73
4
 74
0
 40
0
 40
0
 40
0
 40
0
 40
1
 40
1
 40
1
 40
1
 10
28.581004
 20
35.040753
 30
0.0
 10
27.549461
 20
36.072201
 30
0.0
 10
26.969930
 20
37.471196
 30
0.0
 10
26.969911
 20
38.929951
 30
0.0
  0
SPLINE
  5
10a
100
AcDbEntity
  8
Layer_1
 62
7
100
AcDbSpline
 70
8
 71
3
 72
8
 73
4
 74
0
 40
0
 40
0
 40
0
 40
0
 40
1
 40
1
 40
1
 40
1
 10
26.969911
 20
38.929951
 30
0.0
 10
26.969935
 20
40.388702
 30
0.0
 10
27.549468
 20
41.787692
 30
0.0
 10
28.581011
 20
42.819135
 30
0.0
  0
SPLINE
  5
10b
100
AcDbEntity
  8
Layer_1
 62
7
100
AcDbSpline
 70
8
 71
3
 72
8
 73
4
 74
0
 40
0
 40
0
 40
0
 40
0
 40
1
 40
1
 40
1
 40
1
 10
28.581011
 20
42.819135
 30
0.0
 10
29.612553
 20
43.850578
 30
0.0
 10
31.011598
 20
44.429977
 30
0.0
 10
32.470350
 20
44.429861
 30
0.0
  0
LWPOLYLINE
  5
10c
100
AcDbEntity
  8
Layer_1
 62
7
100
AcDbPolyline
 90
1
 70
1
 10
32.470350
 20
48.929841
 30
0.0
  0
SPLINE
  5
10d
100
AcDbEntity
  8
Layer_1
 62
7
100
AcDbSpline
 70
8
 71
3
 72
8
 73
4
 74
0
 40
0
 40
0
 40
0
 40
0
 40
1
 40
1
 40
1
 40
1
 10
23.579833
 20
112.179992
 30
0.0
 10
22.678080
 20
112.179937
 30
0.0
 10
21.813283
 20
111.821656
 30
0.0
 10
21.175695
 20
111.183972
 30
0.0
  0
SPLINE
  5
10e
100
AcDbEntity
  8
Layer_1
 62
7
100
AcDbSpline
 70
8
 71
3
 72
8
 73
4
 74
0
 40
0
 40
0
 40
0
 40
0
 40
1
 40
1
 40
1
 40
1
 10
21.175695
 20
111.183972
 30
0.0
 10
20.538108
 20
110.546287
 30
0.0
 10
20.179959
 20
109.681435
 30
0.0
 10
20.180041
 20
108.779682
 30
0.0
  0
SPLINE
  5
10f
100
AcDbEntity
  8
Layer_1
 62
7
100
AcDbSpline
 70
8
 71
3
 72
8
 73
4
 74
0
 40
0
 40
0
 40
0
 40
0
 40
1
 40
1
 40
1
 40
1
 10
20.180041
 20
108.779682
 30
0.0
 10
20.180152
 20
106.902073
 30
0.0
 10
21.702225
 20
105.379997
 30
0.0
 10
23.579833
 20
105.379882
 30
0.0
  0
SPLINE
  5
110
100
AcDbEntity
  8
Layer_1
 62
7
100
AcDbSpline
 70
8
 71
3
 72
8
 73
4
 74
0
 40
0
 40
0
 40
0
 40
0
 40
1
 40
1
 40
1
 40
1
 10
23.579833
 20
105.379882
 30
0.0
 10
24.481588
 20
105.379799
 30
0.0
 10
25.346441
 20
105.737949
 30
0.0
 10
25.984126
 20
106.375538
 30
0.0
  0
SPLINE
  5
111
100
AcDbEntity
  8
Layer_1
 62
7
100
AcDbSpline
 70
8
 71
3
 72
8
 73
4
 74
0
 40
0
 40
0
 40
0
 40
0
 40
1
 40
1
 40
1
 40
1
 10
25.984126
 20
106.375538
 30
0.0
 10
26.621811
 20
107.013128
 30
0.0
 10
26.980090
 20
107.877927
 30
0.0
 10
26.980143
 20
108.779682
 30
0.0
  0
SPLINE
  5
112
100
AcDbEntity
  8
Layer_1
 62
7
100
AcDbSpline
 70
8
 71
3
 72
8
 73
4
 74
0
 40
0
 40
0
 40
0
 40
0
 40
1
 40
1
 40
1
 40
1
 10
26.980143
 20
108.779682
 30
0.0
 10
26.980226
 20
109.681525
 30
0.0
 10
26.622006
 20
110.546455
 30
0.0
 10
25.984306
 20
111.184155
 30
0.0
  0
SPLINE
  5
113
100
AcDbEntity
  8
Layer_1
 62
7
100
AcDbSpline
 70
8
 71
3
 72
8
 73
4
 74
0
 40
0
 40
0
 40
0
 40
0
 40
1
 40
1
 40
1
 40
1
 10
25.984306
 20
111.184155
 30
0.0
 10
25.346607
 20
111.821854
 30
0.0
 10
24.481677
 20
112.180074
 30
0.0
 10
23.579833
 20
112.179992
 30
0.0
  0
LWPOLYLINE
  5
114
100
AcDbEntity
  8
Layer_1
 62
7
100
AcDbPolyline
 90
1
 70
1
 10
32.470350
 20
44.429861
 30
0.0
  0
SPLINE
  5
115
100
AcDbEntity
  8
Layer_1
 62
7
100
AcDbSpline
 70
8
 71
3
 72
8
 73
4
 74
0
 40
0
 40
0
 40
0
 40
0
 40
1
 40
1
 40
1
 40
1
 10
23.579833
 20
109.779622
 30
0.0
 10
23.845118
 20
109.779743
 30
0.0
 10
24.099580
 20
109.674447
 30
0.0
 10
24.287214
 20
109.486911
 30
0.0
  0
SPLINE
  5
116
100
AcDbEntity
  8
Layer_1
 62
7
100
AcDbSpline
 70
8
 71
3
 72
8
 73
4
 74
0
 40
0
 40
0
 40
0
 40
0
 40
1
 40
1
 40
1
 40
1
 10
24.287214
 20
109.486911
 30
0.0
 10
24.474847
 20
109.299374
 30
0.0
 10
24.580273
 20
109.044967
 30
0.0
 10
24.580289
 20
108.779682
 30
0.0
  0
SPLINE
  5
117
100
AcDbEntity
  8
Layer_1
 62
7
100
AcDbSpline
 70
8
 71
3
 72
8
 73
4
 74
0
 40
0
 40
0
 40
0
 40
0
 40
1
 40
1
 40
1
 40
1
 10
24.580289
 20
108.779682
 30
0.0
 10
24.580273
 20
108.514397
 30
0.0
 10
24.474847
 20
108.259989
 30
0.0
 10
24.287214
 20
108.072452
 30
0.0
  0
SPLINE
  5
118
100
AcDbEntity
  8
Layer_1
 62
7
100
AcDbSpline
 70
8
 71
3
 72
8
 73
4
 74
0
 40
0
 40
0
 40
0
 40
0
 40
1
 40
1
 40
1
 40
1
 10
24.287214
 20
108.072452
 30
0.0
 10
24.099580
 20
107.884916
 30
0.0
 10
23.845118
 20
107.779621
 30
0.0
 10
23.579833
 20
107.779742
 30
0.0
  0
SPLINE
  5
119
100
AcDbEntity
  8
Layer_1
 62
7
100
AcDbSpline
 70
8
 71
3
 72
8
 73
4
 74
0
 40
0
 40
0
 40
0
 40
0
 40
1
 40
1
 40
1
 40
1
 10
23.579833
 20
107.779742
 30
0.0
 10
23.027596
 20
107.779775
 30
0.0
 10
22.579927
 20
108.227444
 30
0.0
 10
22.579894
 20
108.779682
 30
0.0
  0
SPLINE
  5
11a
100
AcDbEntity
  8
Layer_1
 62
7
100
AcDbSpline
 70
8
 71
3
 72
8
 73
4
 74
0
 40
0
 40
0
 40
0
 40
0
 40
1
 40
1
 40
1
 40
1
 10
22.579894
 20
108.779682
 30
0.0
 10
22.579927
 20
109.331919
 30
0.0
 10
23.027596
 20
109.779588
 30
0.0
 10
23.579833
 20
109.779622
 30
0.0
  0
LWPOLYLINE
  5
11b
100
AcDbEntity
  8
Layer_1
 62
7
100
AcDbPolyline
 90
1
 70
1
 10
23.579833
 20
112.179992
 30
0.0
  0
SPLINE
  5
11c
100
AcDbEntity
  8
Layer_1
 62
7
100
AcDbSpline
 70
8
 71
3
 72
8
 73
4
 74
0
 40
0
 40
0
 40
0
 40
0
 40
1
 40
1
 40
1
 40
1
 10
41.359834
 20
112.179992
 30
0.0
 10
40.458080
 20
112.179937
 30
0.0
 10
39.593283
 20
111.821656
 30
0.0
 10
38.955695
 20
111.183972
 30
0.0
  0
SPLINE
  5
11d
100
AcDbEntity
  8
Layer_1
 62
7
100
AcDbSpline
 70
8
 71
3
 72
8
 73
4
 74
0
 40
0
 40
0
 40
0
 40
0
 40
1
 40
1
 40
1
 40
1
 10
38.955695
 20
111.183972
 30
0.0
 10
38.318108
 20
110.546287
 30
0.0
 10
37.959959
 20
109.681435
 30
0.0
 10
37.960042
 20
108.779682
 30
0.0
  0
SPLINE
  5
11e
100
AcDbEntity
  8
Layer_1
 62
7
100
AcDbSpline
 70
8
 71
3
 72
8
 73
4
 74
0
 40
0
 40
0
 40
0
 40
0
 40
1
 40
1
 40
1
 40
1
 10
37.960042
 20
108.779682
 30
0.0
 10
37.960152
 20
106.902073
 30
0.0
 10
39.482225
 20
105.379997
 30
0.0
 10
41.359834
 20
105.379882
 30
0.0
  0
SPLINE
  5
11f
100
AcDbEntity
  8
Layer_1
 62
7
100
AcDbSpline
 70
8
 71
3
 72
8
 73
4
 74
0
 40
0
 40
0
 40
0
 40
0
 40
1
 40
1
 40
1
 40
1
 10
41.359834
 20
105.379882
 30
0.0
 10
42.261589
 20
105.379799
 30
0.0
 10
43.126441
 20
105.737949
 30
0.0
 10
43.764126
 20
106.375538
 30
0.0
  0
SPLINE
  5
120
100
AcDbEntity
  8
Layer_1
 62
7
100
AcDbSpline
 70
8
 71
3
 72
8
 73
4
 74
0
 40
0
 40
0
 40
0
 40
0
 40
1
 40
1
 40
1
 40
1
 10
43.764126
 20
106.375538
 30
0.0
 10
44.401811
 20
107.013128
 30
0.0
 10
44.760091
 20
107.877927
 30
0.0
 10
44.760144
 20
108.779682
 30
0.0
  0
SPLINE
  5
121
100
AcDbEntity
  8
Layer_1
 62
7
100
AcDbSpline
 70
8
 71
3
 72
8
 73
4
 74
0
 40
0
 40
0
 40
0
 40
0
 40
1
 40
1
 40
1
 40
1
 10
44.760144
 20
108.779682
 30
0.0
 10
44.760226
 20
109.681525
 30
0.0
 10
44.402006
 20
110.546455
 30
0.0
 10
43.764307
 20
111.184155
 30
0.0
  0
SPLINE
  5
122
100
AcDbEntity
  8
Layer_1
 62
7
100
AcDbSpline
 70
8
 71
3
 72
8
 73
4
 74
0
 40
0
 40
0
 40
0
 40
0
 40
1
 40
1
 40
1
 40
1
 10
43.764307
 20
111.184155
 30
0.0
 10
43.126607
 20
111.821854
 30
0.0
 10
42.261677
 20
112.180074
 30
0.0
 10
41.359834
 20
112.179992
 30
0.0
  0
LWPOLYLINE
  5
123
100
AcDbEntity
  8
Layer_1
 62
7
100
AcDbPolyline
 90
1
 70
1
 10
23.579833
 20
109.779622
 30
0.0
  0
SPLINE
  5
124
100
AcDbEntity
  8
Layer_1
 62
7
100
AcDbSpline
 70
8
 71
3
 72
8
 73
4
 74
0
 40
0
 40
0
 40
0
 40
0
 40
1
 40
1
 40
1
 40
1
 10
41.359834
 20
109.779622
 30
0.0
 10
41.625119
 20
109.779743
 30
0.0
 10
41.879581
 20
109.674447
 30
0.0
 10
42.067214
 20
109.486911
 30
0.0
  0
SPLINE
  5
125
100
AcDbEntity
  8
Layer_1
 62
7
100
AcDbSpline
 70
8
 71
3
 72
8
 73
4
 74
0
 40
0
 40
0
 40
0
 40
0
 40
1
 40
1
 40
1
 40
1
 10
42.067214
 20
109.486911
 30
0.0
 10
42.254847
 20
109.299374
 30
0.0
 10
42.360274
 20
109.044967
 30
0.0
 10
42.360290
 20
108.779682
 30
0.0
  0
SPLINE
  5
126
100
AcDbEntity
  8
Layer_1
 62
7
100
AcDbSpline
 70
8
 71
3
 72
8
 73
4
 74
0
 40
0
 40
0
 40
0
 40
0
 40
1
 40
1
 40
1
 40
1
 10
42.360290
 20
108.779682
 30
0.0
 10
42.360274
 20
108.514397
 30
0.0
 10
42.254847
 20
108.259989
 30
0.0
 10
42.067214
 20
108.072452
 30
0.0
  0
SPLINE
  5
127
100
AcDbEntity
  8
Layer_1
 62
7
100
AcDbSpline
 70
8
 71
3
 72
8
 73
4
 74
0
 40
0
 40
0
 40
0
 40
0
 40
1
 40
1
 40
1
 40
1
 10
42.067214
 20
108.072452
 30
0.0
 10
41.879581
 20
107.884916
 30
0.0
 10
41.625119
 20
107.779621
 30
0.0
 10
41.359834
 20
107.779742
 30
0.0
  0
SPLINE
  5
128
100
AcDbEntity
  8
Layer_1
 62
7
100
AcDbSpline
 70
8
 71
3
 72
8
 73
4
 74
0
 40
0
 40
0
 40
0
 40
0
 40
1
 40
1
 40
1
 40
1
 10
41.359834
 20
107.779742
 30
0.0
 10
40.807596
 20
107.779775
 30
0.0
 10
40.359928
 20
108.227444
 30
0.0
 10
40.359895
 20
108.779682
 30
0.0
  0
SPLINE
  5
129
100
AcDbEntity
  8
Layer_1
 62
7
100
AcDbSpline
 70
8
 71
3
 72
8
 73
4
 74
0
 40
0
 40
0
 40
0
 40
0
 40
1
 40
1
 40
1
 40
1
 10
40.359895
 20
108.779682
 30
0.0
 10
40.359928
 20
109.331919
 30
0.0
 10
40.807596
 20
109.779588
 30
0.0
 10
41.359834
 20
109.779622
 30
0.0
  0
LWPOLYLINE
  5
12a
100
AcDbEntity
  8
Layer_1
 62
7
100
AcDbPolyline
 90
1
 70
1
 10
41.359834
 20
112.179992
 30
0.0
  0
SPLINE
  5
12b
100
AcDbEntity
  8
Layer_1
 62
7
100
AcDbSpline
 70
8
 71
3
 72
8
 73
4
 74
0
 40
0
 40
0
 40
0
 40
0
 40
1
 40
1
 40
1
 40
1
 10
13.419853
 20
104.839232
 30
0.0
 10
12.817893
 20
104.839232
 30
0.0
 10
12.216270
 20
104.754292
 30
0.0
 10
11.632365
 20
104.584472
 30
0.0
  0
LWPOLYLINE
  5
12c
100
AcDbEntity
  8
Layer_1
 62
7
100
AcDbPolyline
 90
1
 70
1
 10
41.359834
 20
109.779622
 30
0.0
  0
SPLINE
  5
12d
100
AcDbEntity
  8
Layer_1
 62
7
100
AcDbSpline
 70
8
 71
3
 72
8
 73
4
 74
0
 40
0
 40
0
 40
0
 40
0
 40
1
 40
1
 40
1
 40
1
 10
4.344954
 20
102.472452
 30
0.0
 10
0.982007
 20
101.497182
 30
0.0
 10
0.200992
 20
97.087021
 30
0.0
 10
3.024622
 20
95.016581
 30
0.0
  0
LWPOLYLINE
  5
12e
100
AcDbEntity
  8
Layer_1
 62
7
100
AcDbPolyline
 90
2
 70
0
 10
11.632365
 20
104.584472
 30
0.0
 10
4.344954
 20
102.472452
 30
0.0
  0
SPLINE
  5
12f
100
AcDbEntity
  8
Layer_1
 62
7
100
AcDbSpline
 70
8
 71
3
 72
8
 73
4
 74
0
 40
0
 40
0
 40
0
 40
0
 40
1
 40
1
 40
1
 40
1
 10
22.074622
 20
81.046371
 30
0.0
 10
28.421774
 20
77.025151
 30
0.0
 10
36.518486
 20
77.025151
 30
0.0
 10
42.865602
 20
81.046371
 30
0.0
  0
LWPOLYLINE
  5
130
100
AcDbEntity
  8
Layer_1
 62
7
100
AcDbPolyline
 90
2
 70
0
 10
3.024622
 20
95.016581
 30
0.0
 10
22.074622
 20
81.046371
 30
0.0
  0
SPLINE
  5
131
100
AcDbEntity
  8
Layer_1
 62
7
100
AcDbSpline
 70
8
 71
3
 72
8
 73
4
 74
0
 40
0
 40
0
 40
0
 40
0
 40
1
 40
1
 40
1
 40
1
 10
61.915602
 20
95.016581
 30
0.0
 10
64.739254
 20
97.087031
 30
0.0
 10
63.958233
 20
101.497212
 30
0.0
 10
60.595269
 20
102.472452
 30
0.0
  0
LWPOLYLINE
  5
132
100
AcDbEntity
  8
Layer_1
 62
7
100
AcDbPolyline
 90
2
 70
0
 10
42.865602
 20
81.046371
 30
0.0
 10
61.915602
 20
95.016581
 30
0.0
  0
SPLINE
  5
133
100
AcDbEntity
  8
Layer_1
 62
7
100
AcDbSpline
 70
8
 71
3
 72
8
 73
4
 74
0
 40
0
 40
0
 40
0
 40
0
 40
1
 40
1
 40
1
 40
1
 10
53.307858
 20
104.584982
 30
0.0
 10
52.140026
 20
104.923622
 30
0.0
 10
50.900176
 20
104.923622
 30
0.0
 10
49.732366
 20
104.584982
 30
0.0
  0
LWPOLYLINE
  5
134
100
AcDbEntity
  8
Layer_1
 62
7
100
AcDbPolyline
 90
2
 70
0
 10
60.595269
 20
102.472452
 30
0.0
 10
53.307858
 20
104.584982
 30
0.0
  0
SPLINE
  5
135
100
AcDbEntity
  8
Layer_1
 62
7
100
AcDbSpline
 70
8
 71
3
 72
8
 73
4
 74
0
 40
0
 40
0
 40
0
 40
0
 40
1
 40
1
 40
1
 40
1
 10
42.444955
 20
102.473482
 30
0.0
 10
40.641219
 20
101.950362
 30
0.0
 10
39.400188
 20
100.298052
 30
0.0
 10
39.400180
 20
98.419992
 30
0.0
  0
LWPOLYLINE
  5
136
100
AcDbEntity
  8
Layer_1
 62
7
100
AcDbPolyline
 90
2
 70
0
 10
49.732366
 20
104.584982
 30
0.0
 10
42.444955
 20
102.473482
 30
0.0
  0
SPLINE
  5
137
100
AcDbEntity
  8
Layer_1
 62
7
100
AcDbSpline
 70
8
 71
3
 72
8
 73
4
 74
0
 40
0
 40
0
 40
0
 40
0
 40
1
 40
1
 40
1
 40
1
 10
39.400180
 20
94.089501
 30
0.0
 10
39.400187
 20
92.311471
 30
0.0
 10
37.958585
 20
90.869031
 30
0.0
 10
36.180222
 20
90.869031
 30
0.0
  0
LWPOLYLINE
  5
138
100
AcDbEntity
  8
Layer_1
 62
7
100
AcDbPolyline
 90
2
 70
0
 10
39.400180
 20
98.419992
 30
0.0
 10
39.400180
 20
94.089501
 30
0.0
  0
SPLINE
  5
139
100
AcDbEntity
  8
Layer_1
 62
7
100
AcDbSpline
 70
8
 71
3
 72
8
 73
4
 74
0
 40
0
 40
0
 40
0
 40
0
 40
1
 40
1
 40
1
 40
1
 10
28.760002
 20
90.869031
 30
0.0
 10
26.981638
 20
90.869031
 30
0.0
 10
25.540036
 20
92.311281
 30
0.0
 10
25.540043
 20
94.088981
 30
0.0
  0
LWPOLYLINE
  5
13a
100
AcDbEntity
  8
Layer_1
 62
7
100
AcDbPolyline
 90
2
 70
0
 10
36.180222
 20
90.869031
 30
0.0
 10
28.760002
 20
90.869031
 30
0.0
  0
SPLINE
  5
13b
100
AcDbEntity
  8
Layer_1
 62
7
100
AcDbSpline
 70
8
 71
3
 72
8
 73
4
 74
0
 40
0
 40
0
 40
0
 40
0
 40
1
 40
1
 40
1
 40
1
 10
25.540043
 20
98.419472
 30
0.0
 10
25.540043
 20
100.297562
 30
0.0
 10
24.299010
 20
101.949842
 30
0.0
 10
22.495268
 20
102.472972
 30
0.0
  0
LWPOLYLINE
  5
13c
100
AcDbEntity
  8
Layer_1
 62
7
100
AcDbPolyline
 90
2
 70
0
 10
25.540043
 20
94.088981
 30
0.0
 10
25.540043
 20
98.419472
 30
0.0
  0
SPLINE
  5
13d
100
AcDbEntity
  8
Layer_1
 62
7
100
AcDbSpline
 70
8
 71
3
 72
8
 73
4
 74
0
 40
0
 40
0
 40
0
 40
0
 40
1
 40
1
 40
1
 40
1
 10
15.207857
 20
104.584472
 30
0.0
 10
14.623941
 20
104.754292
 30
0.0
 10
14.021812
 20
104.839232
 30
0.0
 10
13.419853
 20
104.839232
 30
0.0
  0
LWPOLYLINE
  5
13e
100
AcDbEntity
  8
Layer_1
 62
7
100
AcDbPolyline
 90
2
 70
0
 10
22.495268
 20
102.472972
 30
0.0
 10
15.207857
 20
104.584472
 30
0.0
  0
SPLINE
  5
13f
100
AcDbEntity
  8
Layer_1
 62
7
100
AcDbSpline
 70
8
 71
3
 72
8
 73
4
 74
0
 40
0
 40
0
 40
0
 40
0
 40
1
 40
1
 40
1
 40
1
 10
13.188342
 20
101.510752
 30
0.0
 10
14.048331
 20
101.575175
 30
0.0
 10
14.896287
 20
101.278448
 30
0.0
 10
15.528467
 20
100.691866
 30
0.0
  0
SPLINE
  5
140
100
AcDbEntity
  8
Layer_1
 62
7
100
AcDbSpline
 70
8
 71
3
 72
8
 73
4
 74
0
 40
0
 40
0
 40
0
 40
0
 40
1
 40
1
 40
1
 40
1
 10
15.528467
 20
100.691866
 30
0.0
 10
16.160647
 20
100.105283
 30
0.0
 10
16.519906
 20
99.281870
 30
0.0
 10
16.519922
 20
98.419472
 30
0.0
  0
SPLINE
  5
141
100
AcDbEntity
  8
Layer_1
 62
7
100
AcDbSpline
 70
8
 71
3
 72
8
 73
4
 74
0
 40
0
 40
0
 40
0
 40
0
 40
1
 40
1
 40
1
 40
1
 10
16.519922
 20
98.419472
 30
0.0
 10
16.519307
 20
96.707786
 30
0.0
 10
15.131539
 20
95.320516
 30
0.0
 10
13.419853
 20
95.320516
 30
0.0
  0
SPLINE
  5
142
100
AcDbEntity
  8
Layer_1
 62
7
100
AcDbSpline
 70
8
 71
3
 72
8
 73
4
 74
0
 40
0
 40
0
 40
0
 40
0
 40
1
 40
1
 40
1
 40
1
 10
13.419853
 20
95.320516
 30
0.0
 10
11.708167
 20
95.320516
 30
0.0
 10
10.320399
 20
96.707786
 30
0.0
 10
10.319784
 20
98.419472
 30
0.0
  0
SPLINE
  5
143
100
AcDbEntity
  8
Layer_1
 62
7
100
AcDbSpline
 70
8
 71
3
 72
8
 73
4
 74
0
 40
0
 40
0
 40
0
 40
0
 40
1
 40
1
 40
1
 40
1
 10
10.319784
 20
98.419472
 30
0.0
 10
10.319820
 20
100.041744
 30
0.0
 10
11.570597
 20
101.389635
 30
0.0
 10
13.188342
 20
101.510752
 30
0.0
  0
LWPOLYLINE
  5
144
100
AcDbEntity
  8
Layer_1
 62
7
100
AcDbPolyline
 90
1
 70
1
 10
13.419853
 20
104.839232
 30
0.0
  0
SPLINE
  5
145
100
AcDbEntity
  8
Layer_1
 62
7
100
AcDbSpline
 70
8
 71
3
 72
8
 73
4
 74
0
 40
0
 40
0
 40
0
 40
0
 40
1
 40
1
 40
1
 40
1
 10
51.288343
 20
101.510752
 30
0.0
 10
52.148331
 20
101.575175
 30
0.0
 10
52.996287
 20
101.278448
 30
0.0
 10
53.628468
 20
100.691866
 30
0.0
  0
SPLINE
  5
146
100
AcDbEntity
  8
Layer_1
 62
7
100
AcDbSpline
 70
8
 71
3
 72
8
 73
4
 74
0
 40
0
 40
0
 40
0
 40
0
 40
1
 40
1
 40
1
 40
1
 10
53.628468
 20
100.691866
 30
0.0
 10
54.260648
 20
100.105283
 30
0.0
 10
54.619907
 20
99.281870
 30
0.0
 10
54.619923
 20
98.419472
 30
0.0
  0
SPLINE
  5
147
100
AcDbEntity
  8
Layer_1
 62
7
100
AcDbSpline
 70
8
 71
3
 72
8
 73
4
 74
0
 40
0
 40
0
 40
0
 40
0
 40
1
 40
1
 40
1
 40
1
 10
54.619923
 20
98.419472
 30
0.0
 10
54.619308
 20
96.707786
 30
0.0
 10
53.231540
 20
95.320516
 30
0.0
 10
51.519854
 20
95.320516
 30
0.0
  0
SPLINE
  5
148
100
AcDbEntity
  8
Layer_1
 62
7
100
AcDbSpline
 70
8
 71
3
 72
8
 73
4
 74
0
 40
0
 40
0
 40
0
 40
0
 40
1
 40
1
 40
1
 40
1
 10
51.519854
 20
95.320516
 30
0.0
 10
49.808168
 20
95.320516
 30
0.0
 10
48.420400
 20
96.707786
 30
0.0
 10
48.419785
 20
98.419472
 30
0.0
  0
SPLINE
  5
149
100
AcDbEntity
  8
Layer_1
 62
7
100
AcDbSpline
 70
8
 71
3
 72
8
 73
4
 74
0
 40
0
 40
0
 40
0
 40
0
 40
1
 40
1
 40
1
 40
1
 10
48.419785
 20
98.419472
 30
0.0
 10
48.419821
 20
100.041744
 30
0.0
 10
49.670597
 20
101.389635
 30
0.0
 10
51.288343
 20
101.510752
 30
0.0
  0
LWPOLYLINE
  5
14a
100
AcDbEntity
  8
Layer_1
 62
7
100
AcDbPolyline
 90
1
 70
1
 10
13.188342
 20
101.510752
 30
0.0
  0
SPLINE
  5
14b
100
AcDbEntity
  8
Layer_1
 62
7
100
AcDbSpline
 70
8
 71
3
 72
8
 73
4
 74
0
 40
0
 40
0
 40
0
 40
0
 40
1
 40
1
 40
1
 40
1
 10
32.238342
 20
87.540551
 30
0.0
 10
33.098333
 20
87.604975
 30
0.0
 10
33.946290
 20
87.308247
 30
0.0
 10
34.578471
 20
86.721662
 30
0.0
  0
SPLINE
  5
14c
100
AcDbEntity
  8
Layer_1
 62
7
100
AcDbSpline
 70
8
 71
3
 72
8
 73
4
 74
0
 40
0
 40
0
 40
0
 40
0
 40
1
 40
1
 40
1
 40
1
 10
34.578471
 20
86.721662
 30
0.0
 10
35.210652
 20
86.135077
 30
0.0
 10
35.569909
 20
85.311661
 30
0.0
 10
35.569923
 20
84.449261
 30
0.0
  0
SPLINE
  5
14d
100
AcDbEntity
  8
Layer_1
 62
7
100
AcDbSpline
 70
8
 71
3
 72
8
 73
4
 74
0
 40
0
 40
0
 40
0
 40
0
 40
1
 40
1
 40
1
 40
1
 10
35.569923
 20
84.449261
 30
0.0
 10
35.569308
 20
82.737575
 30
0.0
 10
34.181540
 20
81.350306
 30
0.0
 10
32.469854
 20
81.350306
 30
0.0
  0
SPLINE
  5
14e
100
AcDbEntity
  8
Layer_1
 62
7
100
AcDbSpline
 70
8
 71
3
 72
8
 73
4
 74
0
 40
0
 40
0
 40
0
 40
0
 40
1
 40
1
 40
1
 40
1
 10
32.469854
 20
81.350306
 30
0.0
 10
30.758167
 20
81.350306
 30
0.0
 10
29.370399
 20
82.737575
 30
0.0
 10
29.369784
 20
84.449261
 30
0.0
  0
SPLINE
  5
14f
100
AcDbEntity
  8
Layer_1
 62
7
100
AcDbSpline
 70
8
 71
3
 72
8
 73
4
 74
0
 40
0
 40
0
 40
0
 40
0
 40
1
 40
1
 40
1
 40
1
 10
29.369784
 20
84.449261
 30
0.0
 10
29.369815
 20
86.071538
 30
0.0
 10
30.620593
 20
87.419434
 30
0.0
 10
32.238342
 20
87.540551
 30
0.0
  0
LWPOLYLINE
  5
150
100
AcDbEntity
  8
Layer_1
 62
7
100
AcDbPolyline
 90
1
 70
1
 10
51.288343
 20
101.510752
 30
0.0
  0
LWPOLYLINE
  5
151
100
AcDbEntity
  8
Layer_1
 62
7
100
AcDbPolyline
 90
1
 70
1
 10
32.238342
 20
87.540551
 30
0.0
  0
ENDSEC
  0
SECTION
  2
OBJECTS
  0
DICTIONARY
  5
C
330
0
100
AcDbDictionary
  3
ACAD_GROUP
350
D
  3
ACAD_MLINESTYLE
350
17
  0
DICTIONARY
  5
D
330
C
100
AcDbDictionary
  0
DICTIONARY
  5
1A
330
C
100
AcDbDictionary
  0
DICTIONARY
  5
17
330
C
100
AcDbDictionary
  3
STANDARD
350
18
  0
DICTIONARY
  5
19
330
C
100
AcDbDictionary
  0
ENDSEC
  0
EOF
