  0
SECTION
  2
HEADER
  9
$ACADVER
  1
AC1014
  9
$HANDSEED
  5
FFFF
  9
$INSUNITS
 70
     4
  9
$MEASUREMENT
 70
     1
  0
ENDSEC
  0
SECTION
  2
TABLES
  0
TABLE
  2
VPORT
  5
8
330
0
100
AcDbSymbolTable
 70
     4
  0
VPORT
  5
2E
330
8
100
AcDbSymbolTableRecord
100
AcDbViewportTableRecord
  2
*ACTIVE
 70
     0
 10
0.0
 20
0.0
 11
1.0
 21
1.0
 12
210.0
 22
148.5
 13
0.0
 23
0.0
 14
10.0
 24
10.0
 15
10.0
 25
10.0
 16
0.0
 26
0.0
 36
1.0
 17
0.0
 27
0.0
 37
0.0
 40
341.0
 41
1.24
 42
50.0
 43
0.0
 44
0.0
 50
0.0
 51
0.0
 71
     0
 72
   100
 73
     1
 74
     3
 75
     0
 76
     0
 77
     0
 78
     0
  0
ENDTAB
  0
TABLE
  2
LTYPE
  5
5
330
0
100
AcDbSymbolTable
 70
     1
  0
LTYPE
  5
14
330
5
100
AcDbSymbolTableRecord
100
AcDbLinetypeTableRecord
  2
BYBLOCK
 70
     0
  3

 72
    65
 73
     0
 40
0.0
  0
LTYPE
  5
15
330
5
100
AcDbSymbolTableRecord
100
AcDbLinetypeTableRecord
  2
BYLAYER
 70
     0
  3

 72
    65
 73
     0
 40
0.0
  0
LTYPE
  5
16
330
5
100
AcDbSymbolTableRecord
100
AcDbLinetypeTableRecord
  2
CONTINUOUS
 70
     0
  3
Solid line
 72
    65
 73
     0
 40
0.0
  0
ENDTAB
  0
TABLE
  2
LAYER
  5
2
100
AcDbSymbolTable
 70
2
  0
LAYER
  5
50
100
AcDbSymbolTableRecord
100
AcDbLayerTableRecord
  2
0
 70
0
  6
CONTINUOUS
  0
LAYER
  5
51
100
AcDbSymbolTableRecord
100
AcDbLayerTableRecord
  2
Layer_1
 70
0
  6
CONTINUOUS
  0
ENDTAB
  0
TABLE
  2
STYLE
  5
3
330
0
100
AcDbSymbolTable
 70
     1
  0
STYLE
  5
11
330
3
100
AcDbSymbolTableRecord
100
AcDbTextStyleTableRecord
  2
STANDARD
 70
     0
 40
0.0
 41
1.0
 50
0.0
 71
     0
 42
2.5
  3
txt
  4

  0
ENDTAB
  0
TABLE
  2
VIEW
  5
6
330
0
100
AcDbSymbolTable
 70
     0
  0
ENDTAB
  0
TABLE
  2
UCS
  5
7
330
0
100
AcDbSymbolTable
 70
     0
  0
ENDTAB
  0
TABLE
  2
APPID
  5
9
330
0
100
AcDbSymbolTable
 70
     2
  0
APPID
  5
12
330
9
100
AcDbSymbolTableRecord
100
AcDbRegAppTableRecord
  2
ACAD
 70
     0
  0
ENDTAB
  0
TABLE
  2
DIMSTYLE
  5
A
330
0
100
AcDbSymbolTable
 70
     1
  0
DIMSTYLE
105
27
330
A
100
AcDbSymbolTableRecord
100
AcDbDimStyleTableRecord
  2
ISO-25
 70
     0
  3

  4

  5

  6

  7

 40
1.0
 41
2.5
 42
0.625
 43
3.75
 44
1.25
 45
0.0
 46
0.0
 47
0.0
 48
0.0
140
2.5
141
2.5
142
0.0
143
0.03937007874016
144
1.0
145
0.0
146
1.0
147
0.625
 71
     0
 72
     0
 73
     0
 74
     0
 75
     0
 76
     0
 77
     1
 78
     8
170
     0
171
     3
172
     1
173
     0
174
     0
175
     0
176
     0
177
     0
178
     0
270
     2
271
     2
272
     2
273
     2
274
     3
340
11
275
     0
280
     0
281
     0
282
     0
283
     0
284
     8
285
     0
286
     0
287
     3
288
     0
  0
ENDTAB
  0
TABLE
  2
BLOCK_RECORD
  5
1
330
0
100
AcDbSymbolTable
 70
     1
  0
BLOCK_RECORD
  5
1F
330
1
100
AcDbSymbolTableRecord
100
AcDbBlockTableRecord
  2
*MODEL_SPACE
  0
BLOCK_RECORD
  5
1B
330
1
100
AcDbSymbolTableRecord
100
AcDbBlockTableRecord
  2
*PAPER_SPACE
  0
ENDTAB
  0
ENDSEC
  0
SECTION
  2
BLOCKS
  0
BLOCK
  5
20
330
1F
100
AcDbEntity
  8
0
100
AcDbBlockBegin
  2
*MODEL_SPACE
 70
     0
 10
0.0
 20
0.0
 30
0.0
  3
*MODEL_SPACE
  1

  0
ENDBLK
  5
21
330
1F
100
AcDbEntity
  8
0
100
AcDbBlockEnd
  0
BLOCK
  5
1C
330
1B
100
AcDbEntity
 67
     1
  8
0
100
AcDbBlockBegin
  2
*PAPER_SPACE
  1

  0
ENDBLK
  5
1D
330
1B
100
AcDbEntity
 67
     1
  8
0
100
AcDbBlockEnd
  0
ENDSEC
  0
SECTION
  2
ENTITIES
  0
SPLINE
  5
100
100
AcDbEntity
  8
Layer_1
 62
7
100
AcDbSpline
 70
8
 71
3
 72
8
 73
4
 74
0
 40
0
 40
0
 40
0
 40
0
 40
1
 40
1
 40
1
 40
1
 10
56.635388
 20
21.979913
 30
0.0
 10
53.983170
 20
21.980025
 30
0.0
 10
51.439539
 20
20.926520
 30
0.0
 10
49.564089
 20
19.051167
 30
0.0
  0
SPLINE
  5
101
100
AcDbEntity
  8
Layer_1
 62
7
100
AcDbSpline
 70
8
 71
3
 72
8
 73
4
 74
0
 40
0
 40
0
 40
0
 40
0
 40
1
 40
1
 40
1
 40
1
 10
49.564089
 20
19.051167
 30
0.0
 10
47.688639
 20
17.175814
 30
0.0
 10
46.635003
 20
14.632238
 30
0.0
 10
46.634979
 20
11.980019
 30
0.0
  0
SPLINE
  5
102
100
AcDbEntity
  8
Layer_1
 62
7
100
AcDbSpline
 70
8
 71
3
 72
8
 73
4
 74
0
 40
0
 40
0
 40
0
 40
0
 40
1
 40
1
 40
1
 40
1
 10
46.634979
 20
11.980019
 30
0.0
 10
46.641244
 20
8.155860
 30
0.0
 10
48.827924
 20
4.670131
 30
0.0
 10
52.268218
 20
3.000218
 30
0.0
  0
SPLINE
  5
103
100
AcDbEntity
  8
Layer_1
 62
7
100
AcDbSpline
 70
8
 71
3
 72
8
 73
4
 74
0
 40
0
 40
0
 40
0
 40
0
 40
1
 40
1
 40
1
 40
1
 10
61.002042
 20
3.000218
 30
0.0
 10
64.442336
 20
4.670131
 30
0.0
 10
66.629015
 20
8.155860
 30
0.0
 10
66.635281
 20
11.980019
 30
0.0
  0
SPLINE
  5
104
100
AcDbEntity
  8
Layer_1
 62
7
100
AcDbSpline
 70
8
 71
3
 72
8
 73
4
 74
0
 40
0
 40
0
 40
0
 40
0
 40
1
 40
1
 40
1
 40
1
 10
66.635281
 20
11.980019
 30
0.0
 10
66.635230
 20
17.502787
 30
0.0
 10
62.158155
 20
21.979861
 30
0.0
 10
56.635388
 20
21.979913
 30
0.0
  0
LWPOLYLINE
  5
105
100
AcDbEntity
  8
Layer_1
 62
7
100
AcDbPolyline
 90
2
 70
0
 10
52.268218
 20
3.000218
 30
0.0
 10
61.002042
 20
3.000218
 30
0.0
  0
SPLINE
  5
106
100
AcDbEntity
  8
Layer_1
 62
7
100
AcDbSpline
 70
8
 71
3
 72
8
 73
4
 74
0
 40
0
 40
0
 40
0
 40
0
 40
1
 40
1
 40
1
 40
1
 10
56.635388
 20
17.479935
 30
0.0
 10
59.672890
 20
17.479893
 30
0.0
 10
62.135261
 20
15.017522
 30
0.0
 10
62.135304
 20
11.980019
 30
0.0
  0
SPLINE
  5
107
100
AcDbEntity
  8
Layer_1
 62
7
100
AcDbSpline
 70
8
 71
3
 72
8
 73
4
 74
0
 40
0
 40
0
 40
0
 40
0
 40
1
 40
1
 40
1
 40
1
 10
62.135304
 20
11.980019
 30
0.0
 10
62.135261
 20
8.942517
 30
0.0
 10
59.672890
 20
6.480146
 30
0.0
 10
56.635388
 20
6.480103
 30
0.0
  0
SPLINE
  5
108
100
AcDbEntity
  8
Layer_1
 62
7
100
AcDbSpline
 70
8
 71
3
 72
8
 73
4
 74
0
 40
0
 40
0
 40
0
 40
0
 40
1
 40
1
 40
1
 40
1
 10
56.635388
 20
6.480103
 30
0.0
 10
55.176636
 20
6.479987
 30
0.0
 10
53.777591
 20
7.059387
 30
0.0
 10
52.746049
 20
8.090831
 30
0.0
  0
SPLINE
  5
109
100
AcDbEntity
  8
Layer_1
 62
7
100
AcDbSpline
 70
8
 71
3
 72
8
 73
4
 74
0
 40
0
 40
0
 40
0
 40
0
 40
1
 40
1
 40
1
 40
1
 10
52.746049
 20
8.090831
 30
0.0
 10
51.714508
 20
9.122276
 30
0.0
 10
51.134976
 20
10.521268
 30
0.0
 10
51.134956
 20
11.980019
 30
0.0
  0
SPLINE
  5
10a
100
AcDbEntity
  8
Layer_1
 62
7
100
AcDbSpline
 70
8
 71
3
 72
8
 73
4
 74
0
 40
0
 40
0
 40
0
 40
0
 40
1
 40
1
 40
1
 40
1
 10
51.134956
 20
11.980019
 30
0.0
 10
51.134976
 20
13.438771
 30
0.0
 10
51.714508
 20
14.837762
 30
0.0
 10
52.746049
 20
15.869207
 30
0.0
  0
SPLINE
  5
10b
100
AcDbEntity
  8
Layer_1
 62
7
100
AcDbSpline
 70
8
 71
3
 72
8
 73
4
 74
0
 40
0
 40
0
 40
0
 40
0
 40
1
 40
1
 40
1
 40
1
 10
52.746049
 20
15.869207
 30
0.0
 10
53.777591
 20
16.900652
 30
0.0
 10
55.176636
 20
17.480052
 30
0.0
 10
56.635388
 20
17.479935
 30
0.0
  0
LWPOLYLINE
  5
10c
100
AcDbEntity
  8
Layer_1
 62
7
100
AcDbPolyline
 90
1
 70
1
 10
56.635388
 20
21.979913
 30
0.0
  0
SPLINE
  5
10d
100
AcDbEntity
  8
Layer_1
 62
7
100
AcDbSpline
 70
8
 71
3
 72
8
 73
4
 74
0
 40
0
 40
0
 40
0
 40
0
 40
1
 40
1
 40
1
 40
1
 10
13.455030
 20
56.690259
 30
0.0
 10
10.417528
 20
56.690217
 30
0.0
 10
7.955156
 20
54.227845
 30
0.0
 10
7.955114
 20
51.190343
 30
0.0
  0
SPLINE
  5
10e
100
AcDbEntity
  8
Layer_1
 62
7
100
AcDbSpline
 70
8
 71
3
 72
8
 73
4
 74
0
 40
0
 40
0
 40
0
 40
0
 40
1
 40
1
 40
1
 40
1
 10
7.955114
 20
51.190343
 30
0.0
 10
7.954997
 20
49.731592
 30
0.0
 10
8.534397
 20
48.332546
 30
0.0
 10
9.565842
 20
47.301004
 30
0.0
  0
SPLINE
  5
10f
100
AcDbEntity
  8
Layer_1
 62
7
100
AcDbSpline
 70
8
 71
3
 72
8
 73
4
 74
0
 40
0
 40
0
 40
0
 40
0
 40
1
 40
1
 40
1
 40
1
 10
9.565842
 20
47.301004
 30
0.0
 10
10.597286
 20
46.269462
 30
0.0
 10
11.996278
 20
45.689931
 30
0.0
 10
13.455030
 20
45.689911
 30
0.0
  0
SPLINE
  5
110
100
AcDbEntity
  8
Layer_1
 62
7
100
AcDbSpline
 70
8
 71
3
 72
8
 73
4
 74
0
 40
0
 40
0
 40
0
 40
0
 40
1
 40
1
 40
1
 40
1
 10
13.455030
 20
45.689911
 30
0.0
 10
14.913781
 20
45.689931
 30
0.0
 10
16.312773
 20
46.269462
 30
0.0
 10
17.344218
 20
47.301004
 30
0.0
  0
SPLINE
  5
111
100
AcDbEntity
  8
Layer_1
 62
7
100
AcDbSpline
 70
8
 71
3
 72
8
 73
4
 74
0
 40
0
 40
0
 40
0
 40
0
 40
1
 40
1
 40
1
 40
1
 10
17.344218
 20
47.301004
 30
0.0
 10
18.375662
 20
48.332546
 30
0.0
 10
18.955062
 20
49.731592
 30
0.0
 10
18.954946
 20
51.190343
 30
0.0
  0
SPLINE
  5
112
100
AcDbEntity
  8
Layer_1
 62
7
100
AcDbSpline
 70
8
 71
3
 72
8
 73
4
 74
0
 40
0
 40
0
 40
0
 40
0
 40
1
 40
1
 40
1
 40
1
 10
18.954946
 20
51.190343
 30
0.0
 10
18.954903
 20
54.227845
 30
0.0
 10
16.492532
 20
56.690217
 30
0.0
 10
13.455030
 20
56.690259
 30
0.0
  0
LWPOLYLINE
  5
113
100
AcDbEntity
  8
Layer_1
 62
7
100
AcDbPolyline
 90
1
 70
1
 10
56.635388
 20
17.479935
 30
0.0
  0
SPLINE
  5
114
100
AcDbEntity
  8
Layer_1
 62
7
100
AcDbSpline
 70
8
 71
3
 72
8
 73
4
 74
0
 40
0
 40
0
 40
0
 40
0
 40
1
 40
1
 40
1
 40
1
 10
13.455030
 20
54.289892
 30
0.0
 10
15.166962
 20
54.289929
 30
0.0
 10
16.554846
 20
52.902275
 30
0.0
 10
16.555093
 20
51.190343
 30
0.0
  0
SPLINE
  5
115
100
AcDbEntity
  8
Layer_1
 62
7
100
AcDbSpline
 70
8
 71
3
 72
8
 73
4
 74
0
 40
0
 40
0
 40
0
 40
0
 40
1
 40
1
 40
1
 40
1
 10
16.555093
 20
51.190343
 30
0.0
 10
16.555111
 20
50.368150
 30
0.0
 10
16.228504
 20
49.579626
 30
0.0
 10
15.647126
 20
48.998247
 30
0.0
  0
SPLINE
  5
116
100
AcDbEntity
  8
Layer_1
 62
7
100
AcDbSpline
 70
8
 71
3
 72
8
 73
4
 74
0
 40
0
 40
0
 40
0
 40
0
 40
1
 40
1
 40
1
 40
1
 10
15.647126
 20
48.998247
 30
0.0
 10
15.065747
 20
48.416868
 30
0.0
 10
14.277223
 20
48.090260
 30
0.0
 10
13.455030
 20
48.090278
 30
0.0
  0
SPLINE
  5
117
100
AcDbEntity
  8
Layer_1
 62
7
100
AcDbSpline
 70
8
 71
3
 72
8
 73
4
 74
0
 40
0
 40
0
 40
0
 40
0
 40
1
 40
1
 40
1
 40
1
 10
13.455030
 20
48.090278
 30
0.0
 10
12.632835
 20
48.090260
 30
0.0
 10
11.844311
 20
48.416867
 30
0.0
 10
11.262932
 20
48.998246
 30
0.0
  0
SPLINE
  5
118
100
AcDbEntity
  8
Layer_1
 62
7
100
AcDbSpline
 70
8
 71
3
 72
8
 73
4
 74
0
 40
0
 40
0
 40
0
 40
0
 40
1
 40
1
 40
1
 40
1
 10
11.262932
 20
48.998246
 30
0.0
 10
10.681552
 20
49.579625
 30
0.0
 10
10.354945
 20
50.368149
 30
0.0
 10
10.354963
 20
51.190343
 30
0.0
  0
SPLINE
  5
119
100
AcDbEntity
  8
Layer_1
 62
7
100
AcDbSpline
 70
8
 71
3
 72
8
 73
4
 74
0
 40
0
 40
0
 40
0
 40
0
 40
1
 40
1
 40
1
 40
1
 10
10.354963
 20
51.190343
 30
0.0
 10
10.355211
 20
52.902276
 30
0.0
 10
11.743096
 20
54.289931
 30
0.0
 10
13.455030
 20
54.289892
 30
0.0
  0
LWPOLYLINE
  5
11a
100
AcDbEntity
  8
Layer_1
 62
7
100
AcDbPolyline
 90
1
 70
1
 10
13.455030
 20
56.690259
 30
0.0
  0
SPLINE
  5
11b
100
AcDbEntity
  8
Layer_1
 62
7
100
AcDbSpline
 70
8
 71
3
 72
8
 73
4
 74
0
 40
0
 40
0
 40
0
 40
0
 40
1
 40
1
 40
1
 40
1
 10
35.045002
 20
56.690259
 30
0.0
 10
32.007500
 20
56.690217
 30
0.0
 10
29.545129
 20
54.227845
 30
0.0
 10
29.545086
 20
51.190343
 30
0.0
  0
SPLINE
  5
11c
100
AcDbEntity
  8
Layer_1
 62
7
100
AcDbSpline
 70
8
 71
3
 72
8
 73
4
 74
0
 40
0
 40
0
 40
0
 40
0
 40
1
 40
1
 40
1
 40
1
 10
29.545086
 20
51.190343
 30
0.0
 10
29.544970
 20
49.731592
 30
0.0
 10
30.124370
 20
48.332546
 30
0.0
 10
31.155814
 20
47.301004
 30
0.0
  0
SPLINE
  5
11d
100
AcDbEntity
  8
Layer_1
 62
7
100
AcDbSpline
 70
8
 71
3
 72
8
 73
4
 74
0
 40
0
 40
0
 40
0
 40
0
 40
1
 40
1
 40
1
 40
1
 10
31.155814
 20
47.301004
 30
0.0
 10
32.187259
 20
46.269462
 30
0.0
 10
33.586251
 20
45.689931
 30
0.0
 10
35.045002
 20
45.689911
 30
0.0
  0
SPLINE
  5
11e
100
AcDbEntity
  8
Layer_1
 62
7
100
AcDbSpline
 70
8
 71
3
 72
8
 73
4
 74
0
 40
0
 40
0
 40
0
 40
0
 40
1
 40
1
 40
1
 40
1
 10
35.045002
 20
45.689911
 30
0.0
 10
36.503754
 20
45.689931
 30
0.0
 10
37.902746
 20
46.269462
 30
0.0
 10
38.934190
 20
47.301004
 30
0.0
  0
SPLINE
  5
11f
100
AcDbEntity
  8
Layer_1
 62
7
100
AcDbSpline
 70
8
 71
3
 72
8
 73
4
 74
0
 40
0
 40
0
 40
0
 40
0
 40
1
 40
1
 40
1
 40
1
 10
38.934190
 20
47.301004
 30
0.0
 10
39.965635
 20
48.332546
 30
0.0
 10
40.545035
 20
49.731592
 30
0.0
 10
40.544918
 20
51.190343
 30
0.0
  0
SPLINE
  5
120
100
AcDbEntity
  8
Layer_1
 62
7
100
AcDbSpline
 70
8
 71
3
 72
8
 73
4
 74
0
 40
0
 40
0
 40
0
 40
0
 40
1
 40
1
 40
1
 40
1
 10
40.544918
 20
51.190343
 30
0.0
 10
40.544876
 20
54.227845
 30
0.0
 10
38.082504
 20
56.690217
 30
0.0
 10
35.045002
 20
56.690259
 30
0.0
  0
LWPOLYLINE
  5
121
100
AcDbEntity
  8
Layer_1
 62
7
100
AcDbPolyline
 90
1
 70
1
 10
13.455030
 20
54.289892
 30
0.0
  0
SPLINE
  5
122
100
AcDbEntity
  8
Layer_1
 62
7
100
AcDbSpline
 70
8
 71
3
 72
8
 73
4
 74
0
 40
0
 40
0
 40
0
 40
0
 40
1
 40
1
 40
1
 40
1
 10
35.045002
 20
54.289892
 30
0.0
 10
36.756934
 20
54.289929
 30
0.0
 10
38.144819
 20
52.902275
 30
0.0
 10
38.145066
 20
51.190343
 30
0.0
  0
SPLINE
  5
123
100
AcDbEntity
  8
Layer_1
 62
7
100
AcDbSpline
 70
8
 71
3
 72
8
 73
4
 74
0
 40
0
 40
0
 40
0
 40
0
 40
1
 40
1
 40
1
 40
1
 10
38.145066
 20
51.190343
 30
0.0
 10
38.145084
 20
50.368150
 30
0.0
 10
37.818477
 20
49.579626
 30
0.0
 10
37.237099
 20
48.998247
 30
0.0
  0
SPLINE
  5
124
100
AcDbEntity
  8
Layer_1
 62
7
100
AcDbSpline
 70
8
 71
3
 72
8
 73
4
 74
0
 40
0
 40
0
 40
0
 40
0
 40
1
 40
1
 40
1
 40
1
 10
37.237099
 20
48.998247
 30
0.0
 10
36.655720
 20
48.416868
 30
0.0
 10
35.867196
 20
48.090260
 30
0.0
 10
35.045002
 20
48.090278
 30
0.0
  0
SPLINE
  5
125
100
AcDbEntity
  8
Layer_1
 62
7
100
AcDbSpline
 70
8
 71
3
 72
8
 73
4
 74
0
 40
0
 40
0
 40
0
 40
0
 40
1
 40
1
 40
1
 40
1
 10
35.045002
 20
48.090278
 30
0.0
 10
34.222808
 20
48.090260
 30
0.0
 10
33.434284
 20
48.416867
 30
0.0
 10
32.852904
 20
48.998246
 30
0.0
  0
SPLINE
  5
126
100
AcDbEntity
  8
Layer_1
 62
7
100
AcDbSpline
 70
8
 71
3
 72
8
 73
4
 74
0
 40
0
 40
0
 40
0
 40
0
 40
1
 40
1
 40
1
 40
1
 10
32.852904
 20
48.998246
 30
0.0
 10
32.271525
 20
49.579625
 30
0.0
 10
31.944918
 20
50.368149
 30
0.0
 10
31.944936
 20
51.190343
 30
0.0
  0
SPLINE
  5
127
100
AcDbEntity
  8
Layer_1
 62
7
100
AcDbSpline
 70
8
 71
3
 72
8
 73
4
 74
0
 40
0
 40
0
 40
0
 40
0
 40
1
 40
1
 40
1
 40
1
 10
31.944936
 20
51.190343
 30
0.0
 10
31.945184
 20
52.902276
 30
0.0
 10
33.333069
 20
54.289931
 30
0.0
 10
35.045002
 20
54.289892
 30
0.0
  0
LWPOLYLINE
  5
128
100
AcDbEntity
  8
Layer_1
 62
7
100
AcDbPolyline
 90
1
 70
1
 10
35.045002
 20
56.690259
 30
0.0
  0
SPLINE
  5
129
100
AcDbEntity
  8
Layer_1
 62
7
100
AcDbSpline
 70
8
 71
3
 72
8
 73
4
 74
0
 40
0
 40
0
 40
0
 40
0
 40
1
 40
1
 40
1
 40
1
 10
56.634975
 20
56.690259
 30
0.0
 10
53.597473
 20
56.690217
 30
0.0
 10
51.135102
 20
54.227845
 30
0.0
 10
51.135059
 20
51.190343
 30
0.0
  0
SPLINE
  5
12a
100
AcDbEntity
  8
Layer_1
 62
7
100
AcDbSpline
 70
8
 71
3
 72
8
 73
4
 74
0
 40
0
 40
0
 40
0
 40
0
 40
1
 40
1
 40
1
 40
1
 10
51.135059
 20
51.190343
 30
0.0
 10
51.134943
 20
49.731592
 30
0.0
 10
51.714342
 20
48.332546
 30
0.0
 10
52.745787
 20
47.301004
 30
0.0
  0
SPLINE
  5
12b
100
AcDbEntity
  8
Layer_1
 62
7
100
AcDbSpline
 70
8
 71
3
 72
8
 73
4
 74
0
 40
0
 40
0
 40
0
 40
0
 40
1
 40
1
 40
1
 40
1
 10
52.745787
 20
47.301004
 30
0.0
 10
53.777232
 20
46.269462
 30
0.0
 10
55.176224
 20
45.689931
 30
0.0
 10
56.634975
 20
45.689911
 30
0.0
  0
SPLINE
  5
12c
100
AcDbEntity
  8
Layer_1
 62
7
100
AcDbSpline
 70
8
 71
3
 72
8
 73
4
 74
0
 40
0
 40
0
 40
0
 40
0
 40
1
 40
1
 40
1
 40
1
 10
56.634975
 20
45.689911
 30
0.0
 10
58.093727
 20
45.689931
 30
0.0
 10
59.492718
 20
46.269462
 30
0.0
 10
60.524163
 20
47.301004
 30
0.0
  0
SPLINE
  5
12d
100
AcDbEntity
  8
Layer_1
 62
7
100
AcDbSpline
 70
8
 71
3
 72
8
 73
4
 74
0
 40
0
 40
0
 40
0
 40
0
 40
1
 40
1
 40
1
 40
1
 10
60.524163
 20
47.301004
 30
0.0
 10
61.555608
 20
48.332546
 30
0.0
 10
62.135008
 20
49.731592
 30
0.0
 10
62.134891
 20
51.190343
 30
0.0
  0
SPLINE
  5
12e
100
AcDbEntity
  8
Layer_1
 62
7
100
AcDbSpline
 70
8
 71
3
 72
8
 73
4
 74
0
 40
0
 40
0
 40
0
 40
0
 40
1
 40
1
 40
1
 40
1
 10
62.134891
 20
51.190343
 30
0.0
 10
62.134849
 20
54.227845
 30
0.0
 10
59.672477
 20
56.690217
 30
0.0
 10
56.634975
 20
56.690259
 30
0.0
  0
LWPOLYLINE
  5
12f
100
AcDbEntity
  8
Layer_1
 62
7
100
AcDbPolyline
 90
1
 70
1
 10
35.045002
 20
54.289892
 30
0.0
  0
SPLINE
  5
130
100
AcDbEntity
  8
Layer_1
 62
7
100
AcDbSpline
 70
8
 71
3
 72
8
 73
4
 74
0
 40
0
 40
0
 40
0
 40
0
 40
1
 40
1
 40
1
 40
1
 10
56.634975
 20
54.289892
 30
0.0
 10
58.346907
 20
54.289929
 30
0.0
 10
59.734791
 20
52.902275
 30
0.0
 10
59.735039
 20
51.190343
 30
0.0
  0
SPLINE
  5
131
100
AcDbEntity
  8
Layer_1
 62
7
100
AcDbSpline
 70
8
 71
3
 72
8
 73
4
 74
0
 40
0
 40
0
 40
0
 40
0
 40
1
 40
1
 40
1
 40
1
 10
59.735039
 20
51.190343
 30
0.0
 10
59.735057
 20
50.368150
 30
0.0
 10
59.408450
 20
49.579626
 30
0.0
 10
58.827071
 20
48.998247
 30
0.0
  0
SPLINE
  5
132
100
AcDbEntity
  8
Layer_1
 62
7
100
AcDbSpline
 70
8
 71
3
 72
8
 73
4
 74
0
 40
0
 40
0
 40
0
 40
0
 40
1
 40
1
 40
1
 40
1
 10
58.827071
 20
48.998247
 30
0.0
 10
58.245693
 20
48.416868
 30
0.0
 10
57.457169
 20
48.090260
 30
0.0
 10
56.634975
 20
48.090278
 30
0.0
  0
SPLINE
  5
133
100
AcDbEntity
  8
Layer_1
 62
7
100
AcDbSpline
 70
8
 71
3
 72
8
 73
4
 74
0
 40
0
 40
0
 40
0
 40
0
 40
1
 40
1
 40
1
 40
1
 10
56.634975
 20
48.090278
 30
0.0
 10
55.812781
 20
48.090260
 30
0.0
 10
55.024256
 20
48.416867
 30
0.0
 10
54.442877
 20
48.998246
 30
0.0
  0
SPLINE
  5
134
100
AcDbEntity
  8
Layer_1
 62
7
100
AcDbSpline
 70
8
 71
3
 72
8
 73
4
 74
0
 40
0
 40
0
 40
0
 40
0
 40
1
 40
1
 40
1
 40
1
 10
54.442877
 20
48.998246
 30
0.0
 10
53.861498
 20
49.579625
 30
0.0
 10
53.534891
 20
50.368149
 30
0.0
 10
53.534909
 20
51.190343
 30
0.0
  0
SPLINE
  5
135
100
AcDbEntity
  8
Layer_1
 62
7
100
AcDbSpline
 70
8
 71
3
 72
8
 73
4
 74
0
 40
0
 40
0
 40
0
 40
0
 40
1
 40
1
 40
1
 40
1
 10
53.534909
 20
51.190343
 30
0.0
 10
53.535156
 20
52.902276
 30
0.0
 10
54.923042
 20
54.289931
 30
0.0
 10
56.634975
 20
54.289892
 30
0.0
  0
LWPOLYLINE
  5
136
100
AcDbEntity
  8
Layer_1
 62
7
100
AcDbPolyline
 90
1
 70
1
 10
56.634975
 20
56.690259
 30
0.0
  0
SPLINE
  5
137
100
AcDbEntity
  8
Layer_1
 62
7
100
AcDbSpline
 70
8
 71
3
 72
8
 73
4
 74
0
 40
0
 40
0
 40
0
 40
0
 40
1
 40
1
 40
1
 40
1
 10
78.224948
 20
56.690259
 30
0.0
 10
75.187446
 20
56.690217
 30
0.0
 10
72.725075
 20
54.227845
 30
0.0
 10
72.725032
 20
51.190343
 30
0.0
  0
SPLINE
  5
138
100
AcDbEntity
  8
Layer_1
 62
7
100
AcDbSpline
 70
8
 71
3
 72
8
 73
4
 74
0
 40
0
 40
0
 40
0
 40
0
 40
1
 40
1
 40
1
 40
1
 10
72.725032
 20
51.190343
 30
0.0
 10
72.724915
 20
49.731592
 30
0.0
 10
73.304315
 20
48.332546
 30
0.0
 10
74.335760
 20
47.301004
 30
0.0
  0
SPLINE
  5
139
100
AcDbEntity
  8
Layer_1
 62
7
100
AcDbSpline
 70
8
 71
3
 72
8
 73
4
 74
0
 40
0
 40
0
 40
0
 40
0
 40
1
 40
1
 40
1
 40
1
 10
74.335760
 20
47.301004
 30
0.0
 10
75.367205
 20
46.269462
 30
0.0
 10
76.766196
 20
45.689931
 30
0.0
 10
78.224948
 20
45.689911
 30
0.0
  0
SPLINE
  5
13a
100
AcDbEntity
  8
Layer_1
 62
7
100
AcDbSpline
 70
8
 71
3
 72
8
 73
4
 74
0
 40
0
 40
0
 40
0
 40
0
 40
1
 40
1
 40
1
 40
1
 10
78.224948
 20
45.689911
 30
0.0
 10
79.683700
 20
45.689931
 30
0.0
 10
81.082691
 20
46.269462
 30
0.0
 10
82.114136
 20
47.301004
 30
0.0
  0
SPLINE
  5
13b
100
AcDbEntity
  8
Layer_1
 62
7
100
AcDbSpline
 70
8
 71
3
 72
8
 73
4
 74
0
 40
0
 40
0
 40
0
 40
0
 40
1
 40
1
 40
1
 40
1
 10
82.114136
 20
47.301004
 30
0.0
 10
83.145581
 20
48.332546
 30
0.0
 10
83.724981
 20
49.731592
 30
0.0
 10
83.724864
 20
51.190343
 30
0.0
  0
SPLINE
  5
13c
100
AcDbEntity
  8
Layer_1
 62
7
100
AcDbSpline
 70
8
 71
3
 72
8
 73
4
 74
0
 40
0
 40
0
 40
0
 40
0
 40
1
 40
1
 40
1
 40
1
 10
83.724864
 20
51.190343
 30
0.0
 10
83.724821
 20
54.227845
 30
0.0
 10
81.262450
 20
56.690217
 30
0.0
 10
78.224948
 20
56.690259
 30
0.0
  0
LWPOLYLINE
  5
13d
100
AcDbEntity
  8
Layer_1
 62
7
100
AcDbPolyline
 90
1
 70
1
 10
56.634975
 20
54.289892
 30
0.0
  0
SPLINE
  5
13e
100
AcDbEntity
  8
Layer_1
 62
7
100
AcDbSpline
 70
8
 71
3
 72
8
 73
4
 74
0
 40
0
 40
0
 40
0
 40
0
 40
1
 40
1
 40
1
 40
1
 10
78.224948
 20
54.289892
 30
0.0
 10
79.936880
 20
54.289929
 30
0.0
 10
81.324764
 20
52.902275
 30
0.0
 10
81.325011
 20
51.190343
 30
0.0
  0
SPLINE
  5
13f
100
AcDbEntity
  8
Layer_1
 62
7
100
AcDbSpline
 70
8
 71
3
 72
8
 73
4
 74
0
 40
0
 40
0
 40
0
 40
0
 40
1
 40
1
 40
1
 40
1
 10
81.325011
 20
51.190343
 30
0.0
 10
81.325030
 20
50.368150
 30
0.0
 10
80.998423
 20
49.579626
 30
0.0
 10
80.417044
 20
48.998247
 30
0.0
  0
SPLINE
  5
140
100
AcDbEntity
  8
Layer_1
 62
7
100
AcDbSpline
 70
8
 71
3
 72
8
 73
4
 74
0
 40
0
 40
0
 40
0
 40
0
 40
1
 40
1
 40
1
 40
1
 10
80.417044
 20
48.998247
 30
0.0
 10
79.835666
 20
48.416868
 30
0.0
 10
79.047142
 20
48.090260
 30
0.0
 10
78.224948
 20
48.090278
 30
0.0
  0
SPLINE
  5
141
100
AcDbEntity
  8
Layer_1
 62
7
100
AcDbSpline
 70
8
 71
3
 72
8
 73
4
 74
0
 40
0
 40
0
 40
0
 40
0
 40
1
 40
1
 40
1
 40
1
 10
78.224948
 20
48.090278
 30
0.0
 10
77.402754
 20
48.090260
 30
0.0
 10
76.614229
 20
48.416867
 30
0.0
 10
76.032850
 20
48.998246
 30
0.0
  0
SPLINE
  5
142
100
AcDbEntity
  8
Layer_1
 62
7
100
AcDbSpline
 70
8
 71
3
 72
8
 73
4
 74
0
 40
0
 40
0
 40
0
 40
0
 40
1
 40
1
 40
1
 40
1
 10
76.032850
 20
48.998246
 30
0.0
 10
75.451471
 20
49.579625
 30
0.0
 10
75.124864
 20
50.368149
 30
0.0
 10
75.124882
 20
51.190343
 30
0.0
  0
SPLINE
  5
143
100
AcDbEntity
  8
Layer_1
 62
7
100
AcDbSpline
 70
8
 71
3
 72
8
 73
4
 74
0
 40
0
 40
0
 40
0
 40
0
 40
1
 40
1
 40
1
 40
1
 10
75.124882
 20
51.190343
 30
0.0
 10
75.125129
 20
52.902276
 30
0.0
 10
76.513015
 20
54.289931
 30
0.0
 10
78.224948
 20
54.289892
 30
0.0
  0
LWPOLYLINE
  5
144
100
AcDbEntity
  8
Layer_1
 62
7
100
AcDbPolyline
 90
1
 70
1
 10
78.224948
 20
56.690259
 30
0.0
  0
SPLINE
  5
145
100
AcDbEntity
  8
Layer_1
 62
7
100
AcDbSpline
 70
8
 71
3
 72
8
 73
4
 74
0
 40
0
 40
0
 40
0
 40
0
 40
1
 40
1
 40
1
 40
1
 10
99.814921
 20
56.690259
 30
0.0
 10
96.777419
 20
56.690217
 30
0.0
 10
94.315047
 20
54.227845
 30
0.0
 10
94.315005
 20
51.190343
 30
0.0
  0
SPLINE
  5
146
100
AcDbEntity
  8
Layer_1
 62
7
100
AcDbSpline
 70
8
 71
3
 72
8
 73
4
 74
0
 40
0
 40
0
 40
0
 40
0
 40
1
 40
1
 40
1
 40
1
 10
94.315005
 20
51.190343
 30
0.0
 10
94.314888
 20
49.731592
 30
0.0
 10
94.894288
 20
48.332546
 30
0.0
 10
95.925733
 20
47.301004
 30
0.0
  0
SPLINE
  5
147
100
AcDbEntity
  8
Layer_1
 62
7
100
AcDbSpline
 70
8
 71
3
 72
8
 73
4
 74
0
 40
0
 40
0
 40
0
 40
0
 40
1
 40
1
 40
1
 40
1
 10
95.925733
 20
47.301004
 30
0.0
 10
96.957178
 20
46.269462
 30
0.0
 10
98.356169
 20
45.689931
 30
0.0
 10
99.814921
 20
45.689911
 30
0.0
  0
SPLINE
  5
148
100
AcDbEntity
  8
Layer_1
 62
7
100
AcDbSpline
 70
8
 71
3
 72
8
 73
4
 74
0
 40
0
 40
0
 40
0
 40
0
 40
1
 40
1
 40
1
 40
1
 10
99.814921
 20
45.689911
 30
0.0
 10
101.273672
 20
45.689931
 30
0.0
 10
102.672664
 20
46.269462
 30
0.0
 10
103.704109
 20
47.301004
 30
0.0
  0
SPLINE
  5
149
100
AcDbEntity
  8
Layer_1
 62
7
100
AcDbSpline
 70
8
 71
3
 72
8
 73
4
 74
0
 40
0
 40
0
 40
0
 40
0
 40
1
 40
1
 40
1
 40
1
 10
103.704109
 20
47.301004
 30
0.0
 10
104.735554
 20
48.332546
 30
0.0
 10
105.314953
 20
49.731592
 30
0.0
 10
105.314837
 20
51.190343
 30
0.0
  0
SPLINE
  5
14a
100
AcDbEntity
  8
Layer_1
 62
7
100
AcDbSpline
 70
8
 71
3
 72
8
 73
4
 74
0
 40
0
 40
0
 40
0
 40
0
 40
1
 40
1
 40
1
 40
1
 10
105.314837
 20
51.190343
 30
0.0
 10
105.314794
 20
54.227845
 30
0.0
 10
102.852423
 20
56.690217
 30
0.0
 10
99.814921
 20
56.690259
 30
0.0
  0
LWPOLYLINE
  5
14b
100
AcDbEntity
  8
Layer_1
 62
7
100
AcDbPolyline
 90
1
 70
1
 10
78.224948
 20
54.289892
 30
0.0
  0
SPLINE
  5
14c
100
AcDbEntity
  8
Layer_1
 62
7
100
AcDbSpline
 70
8
 71
3
 72
8
 73
4
 74
0
 40
0
 40
0
 40
0
 40
0
 40
1
 40
1
 40
1
 40
1
 10
99.814921
 20
54.289892
 30
0.0
 10
101.526853
 20
54.289929
 30
0.0
 10
102.914737
 20
52.902275
 30
0.0
 10
102.914984
 20
51.190343
 30
0.0
  0
SPLINE
  5
14d
100
AcDbEntity
  8
Layer_1
 62
7
100
AcDbSpline
 70
8
 71
3
 72
8
 73
4
 74
0
 40
0
 40
0
 40
0
 40
0
 40
1
 40
1
 40
1
 40
1
 10
102.914984
 20
51.190343
 30
0.0
 10
102.915003
 20
50.368150
 30
0.0
 10
102.588396
 20
49.579626
 30
0.0
 10
102.007017
 20
48.998247
 30
0.0
  0
SPLINE
  5
14e
100
AcDbEntity
  8
Layer_1
 62
7
100
AcDbSpline
 70
8
 71
3
 72
8
 73
4
 74
0
 40
0
 40
0
 40
0
 40
0
 40
1
 40
1
 40
1
 40
1
 10
102.007017
 20
48.998247
 30
0.0
 10
101.425638
 20
48.416868
 30
0.0
 10
100.637115
 20
48.090260
 30
0.0
 10
99.814921
 20
48.090278
 30
0.0
  0
SPLINE
  5
14f
100
AcDbEntity
  8
Layer_1
 62
7
100
AcDbSpline
 70
8
 71
3
 72
8
 73
4
 74
0
 40
0
 40
0
 40
0
 40
0
 40
1
 40
1
 40
1
 40
1
 10
99.814921
 20
48.090278
 30
0.0
 10
98.992727
 20
48.090260
 30
0.0
 10
98.204202
 20
48.416867
 30
0.0
 10
97.622823
 20
48.998246
 30
0.0
  0
SPLINE
  5
150
100
AcDbEntity
  8
Layer_1
 62
7
100
AcDbSpline
 70
8
 71
3
 72
8
 73
4
 74
0
 40
0
 40
0
 40
0
 40
0
 40
1
 40
1
 40
1
 40
1
 10
97.622823
 20
48.998246
 30
0.0
 10
97.041444
 20
49.579625
 30
0.0
 10
96.714836
 20
50.368149
 30
0.0
 10
96.714855
 20
51.190343
 30
0.0
  0
SPLINE
  5
151
100
AcDbEntity
  8
Layer_1
 62
7
100
AcDbSpline
 70
8
 71
3
 72
8
 73
4
 74
0
 40
0
 40
0
 40
0
 40
0
 40
1
 40
1
 40
1
 40
1
 10
96.714855
 20
51.190343
 30
0.0
 10
96.715102
 20
52.902276
 30
0.0
 10
98.102988
 20
54.289931
 30
0.0
 10
99.814921
 20
54.289892
 30
0.0
  0
LWPOLYLINE
  5
152
100
AcDbEntity
  8
Layer_1
 62
7
100
AcDbPolyline
 90
1
 70
1
 10
99.814921
 20
56.690259
 30
0.0
  0
LWPOLYLINE
  5
153
100
AcDbEntity
  8
Layer_1
 62
7
100
AcDbPolyline
 90
1
 70
1
 10
99.814921
 20
54.289892
 30
0.0
  0
ENDSEC
  0
SECTION
  2
OBJECTS
  0
DICTIONARY
  5
C
330
0
100
AcDbDictionary
  3
ACAD_GROUP
350
D
  3
ACAD_MLINESTYLE
350
17
  0
DICTIONARY
  5
D
330
C
100
AcDbDictionary
  0
DICTIONARY
  5
1A
330
C
100
AcDbDictionary
  0
DICTIONARY
  5
17
330
C
100
AcDbDictionary
  3
STANDARD
350
18
  0
DICTIONARY
  5
19
330
C
100
AcDbDictionary
  0
ENDSEC
  0
EOF
