  0
SECTION
  2
HEADER
  9
$ACADVER
  1
AC1014
  9
$HANDSEED
  5
FFFF
  9
$INSUNITS
 70
     4
  9
$MEASUREMENT
 70
     1
  0
ENDSEC
  0
SECTION
  2
TABLES
  0
TABLE
  2
VPORT
  5
8
330
0
100
AcDbSymbolTable
 70
     4
  0
VPORT
  5
2E
330
8
100
AcDbSymbolTableRecord
100
AcDbViewportTableRecord
  2
*ACTIVE
 70
     0
 10
0.0
 20
0.0
 11
1.0
 21
1.0
 12
210.0
 22
148.5
 13
0.0
 23
0.0
 14
10.0
 24
10.0
 15
10.0
 25
10.0
 16
0.0
 26
0.0
 36
1.0
 17
0.0
 27
0.0
 37
0.0
 40
341.0
 41
1.24
 42
50.0
 43
0.0
 44
0.0
 50
0.0
 51
0.0
 71
     0
 72
   100
 73
     1
 74
     3
 75
     0
 76
     0
 77
     0
 78
     0
  0
ENDTAB
  0
TABLE
  2
LTYPE
  5
5
330
0
100
AcDbSymbolTable
 70
     1
  0
LTYPE
  5
14
330
5
100
AcDbSymbolTableRecord
100
AcDbLinetypeTableRecord
  2
BYBLOCK
 70
     0
  3

 72
    65
 73
     0
 40
0.0
  0
LTYPE
  5
15
330
5
100
AcDbSymbolTableRecord
100
AcDbLinetypeTableRecord
  2
BYLAYER
 70
     0
  3

 72
    65
 73
     0
 40
0.0
  0
LTYPE
  5
16
330
5
100
AcDbSymbolTableRecord
100
AcDbLinetypeTableRecord
  2
CONTINUOUS
 70
     0
  3
Solid line
 72
    65
 73
     0
 40
0.0
  0
ENDTAB
  0
TABLE
  2
LAYER
  5
2
100
AcDbSymbolTable
 70
2
  0
LAYER
  5
50
100
AcDbSymbolTableRecord
100
AcDbLayerTableRecord
  2
0
 70
0
  6
CONTINUOUS
  0
LAYER
  5
51
100
AcDbSymbolTableRecord
100
AcDbLayerTableRecord
  2
Layer_1
 70
0
  6
CONTINUOUS
  0
ENDTAB
  0
TABLE
  2
STYLE
  5
3
330
0
100
AcDbSymbolTable
 70
     1
  0
STYLE
  5
11
330
3
100
AcDbSymbolTableRecord
100
AcDbTextStyleTableRecord
  2
STANDARD
 70
     0
 40
0.0
 41
1.0
 50
0.0
 71
     0
 42
2.5
  3
txt
  4

  0
ENDTAB
  0
TABLE
  2
VIEW
  5
6
330
0
100
AcDbSymbolTable
 70
     0
  0
ENDTAB
  0
TABLE
  2
UCS
  5
7
330
0
100
AcDbSymbolTable
 70
     0
  0
ENDTAB
  0
TABLE
  2
APPID
  5
9
330
0
100
AcDbSymbolTable
 70
     2
  0
APPID
  5
12
330
9
100
AcDbSymbolTableRecord
100
AcDbRegAppTableRecord
  2
ACAD
 70
     0
  0
ENDTAB
  0
TABLE
  2
DIMSTYLE
  5
A
330
0
100
AcDbSymbolTable
 70
     1
  0
DIMSTYLE
105
27
330
A
100
AcDbSymbolTableRecord
100
AcDbDimStyleTableRecord
  2
ISO-25
 70
     0
  3

  4

  5

  6

  7

 40
1.0
 41
2.5
 42
0.625
 43
3.75
 44
1.25
 45
0.0
 46
0.0
 47
0.0
 48
0.0
140
2.5
141
2.5
142
0.0
143
0.03937007874016
144
1.0
145
0.0
146
1.0
147
0.625
 71
     0
 72
     0
 73
     0
 74
     0
 75
     0
 76
     0
 77
     1
 78
     8
170
     0
171
     3
172
     1
173
     0
174
     0
175
     0
176
     0
177
     0
178
     0
270
     2
271
     2
272
     2
273
     2
274
     3
340
11
275
     0
280
     0
281
     0
282
     0
283
     0
284
     8
285
     0
286
     0
287
     3
288
     0
  0
ENDTAB
  0
TABLE
  2
BLOCK_RECORD
  5
1
330
0
100
AcDbSymbolTable
 70
     1
  0
BLOCK_RECORD
  5
1F
330
1
100
AcDbSymbolTableRecord
100
AcDbBlockTableRecord
  2
*MODEL_SPACE
  0
BLOCK_RECORD
  5
1B
330
1
100
AcDbSymbolTableRecord
100
AcDbBlockTableRecord
  2
*PAPER_SPACE
  0
ENDTAB
  0
ENDSEC
  0
SECTION
  2
BLOCKS
  0
BLOCK
  5
20
330
1F
100
AcDbEntity
  8
0
100
AcDbBlockBegin
  2
*MODEL_SPACE
 70
     0
 10
0.0
 20
0.0
 30
0.0
  3
*MODEL_SPACE
  1

  0
ENDBLK
  5
21
330
1F
100
AcDbEntity
  8
0
100
AcDbBlockEnd
  0
BLOCK
  5
1C
330
1B
100
AcDbEntity
 67
     1
  8
0
100
AcDbBlockBegin
  2
*PAPER_SPACE
  1

  0
ENDBLK
  5
1D
330
1B
100
AcDbEntity
 67
     1
  8
0
100
AcDbBlockEnd
  0
ENDSEC
  0
SECTION
  2
ENTITIES
  0
SPLINE
  5
100
100
AcDbEntity
  8
Layer_1
 62
7
100
AcDbSpline
 70
8
 71
3
 72
8
 73
4
 74
0
 40
0
 40
0
 40
0
 40
0
 40
1
 40
1
 40
1
 40
1
 10
47.000164
 20
24.029960
 30
0.0
 10
44.347943
 20
24.030072
 30
0.0
 10
41.804310
 20
22.976567
 30
0.0
 10
39.928858
 20
21.101213
 30
0.0
  0
SPLINE
  5
101
100
AcDbEntity
  8
Layer_1
 62
7
100
AcDbSpline
 70
8
 71
3
 72
8
 73
4
 74
0
 40
0
 40
0
 40
0
 40
0
 40
1
 40
1
 40
1
 40
1
 10
39.928858
 20
21.101213
 30
0.0
 10
38.053406
 20
19.225859
 30
0.0
 10
36.999768
 20
16.682281
 30
0.0
 10
36.999741
 20
14.030060
 30
0.0
  0
SPLINE
  5
102
100
AcDbEntity
  8
Layer_1
 62
7
100
AcDbSpline
 70
8
 71
3
 72
8
 73
4
 74
0
 40
0
 40
0
 40
0
 40
0
 40
1
 40
1
 40
1
 40
1
 10
36.999741
 20
14.030060
 30
0.0
 10
36.999765
 20
11.377838
 30
0.0
 10
38.053402
 20
8.834257
 30
0.0
 10
39.928854
 20
6.958901
 30
0.0
  0
SPLINE
  5
103
100
AcDbEntity
  8
Layer_1
 62
7
100
AcDbSpline
 70
8
 71
3
 72
8
 73
4
 74
0
 40
0
 40
0
 40
0
 40
0
 40
1
 40
1
 40
1
 40
1
 10
39.928854
 20
6.958901
 30
0.0
 10
41.804307
 20
5.083544
 30
0.0
 10
44.347941
 20
4.030038
 30
0.0
 10
47.000164
 20
4.030150
 30
0.0
  0
SPLINE
  5
104
100
AcDbEntity
  8
Layer_1
 62
7
100
AcDbSpline
 70
8
 71
3
 72
8
 73
4
 74
0
 40
0
 40
0
 40
0
 40
0
 40
1
 40
1
 40
1
 40
1
 10
47.000164
 20
4.030150
 30
0.0
 10
52.522939
 20
4.030202
 30
0.0
 10
57.000020
 20
8.507285
 30
0.0
 10
57.000069
 20
14.030060
 30
0.0
  0
SPLINE
  5
105
100
AcDbEntity
  8
Layer_1
 62
7
100
AcDbSpline
 70
8
 71
3
 72
8
 73
4
 74
0
 40
0
 40
0
 40
0
 40
0
 40
1
 40
1
 40
1
 40
1
 10
57.000069
 20
14.030060
 30
0.0
 10
57.000014
 20
19.552832
 30
0.0
 10
52.522935
 20
24.029908
 30
0.0
 10
47.000164
 20
24.029960
 30
0.0
  0
SPLINE
  5
106
100
AcDbEntity
  8
Layer_1
 62
7
100
AcDbSpline
 70
8
 71
3
 72
8
 73
4
 74
0
 40
0
 40
0
 40
0
 40
0
 40
1
 40
1
 40
1
 40
1
 10
47.000164
 20
19.529980
 30
0.0
 10
50.037668
 20
19.529937
 30
0.0
 10
52.500042
 20
17.067565
 30
0.0
 10
52.500086
 20
14.030060
 30
0.0
  0
SPLINE
  5
107
100
AcDbEntity
  8
Layer_1
 62
7
100
AcDbSpline
 70
8
 71
3
 72
8
 73
4
 74
0
 40
0
 40
0
 40
0
 40
0
 40
1
 40
1
 40
1
 40
1
 10
52.500086
 20
14.030060
 30
0.0
 10
52.500047
 20
10.992552
 30
0.0
 10
50.037672
 20
8.530173
 30
0.0
 10
47.000164
 20
8.530130
 30
0.0
  0
SPLINE
  5
108
100
AcDbEntity
  8
Layer_1
 62
7
100
AcDbSpline
 70
8
 71
3
 72
8
 73
4
 74
0
 40
0
 40
0
 40
0
 40
0
 40
1
 40
1
 40
1
 40
1
 10
47.000164
 20
8.530130
 30
0.0
 10
45.541409
 20
8.530014
 30
0.0
 10
44.142360
 20
9.109415
 30
0.0
 10
43.110817
 20
10.140863
 30
0.0
  0
SPLINE
  5
109
100
AcDbEntity
  8
Layer_1
 62
7
100
AcDbSpline
 70
8
 71
3
 72
8
 73
4
 74
0
 40
0
 40
0
 40
0
 40
0
 40
1
 40
1
 40
1
 40
1
 10
43.110817
 20
10.140863
 30
0.0
 10
42.079274
 20
11.172310
 30
0.0
 10
41.499743
 20
12.571305
 30
0.0
 10
41.499724
 20
14.030060
 30
0.0
  0
SPLINE
  5
10a
100
AcDbEntity
  8
Layer_1
 62
7
100
AcDbSpline
 70
8
 71
3
 72
8
 73
4
 74
0
 40
0
 40
0
 40
0
 40
0
 40
1
 40
1
 40
1
 40
1
 10
41.499724
 20
14.030060
 30
0.0
 10
41.499746
 20
15.488813
 30
0.0
 10
42.079278
 20
16.887806
 30
0.0
 10
43.110821
 20
17.919251
 30
0.0
  0
SPLINE
  5
10b
100
AcDbEntity
  8
Layer_1
 62
7
100
AcDbSpline
 70
8
 71
3
 72
8
 73
4
 74
0
 40
0
 40
0
 40
0
 40
0
 40
1
 40
1
 40
1
 40
1
 10
43.110821
 20
17.919251
 30
0.0
 10
44.142363
 20
18.950697
 30
0.0
 10
45.541411
 20
19.530097
 30
0.0
 10
47.000164
 20
19.529980
 30
0.0
  0
LWPOLYLINE
  5
10c
100
AcDbEntity
  8
Layer_1
 62
7
100
AcDbPolyline
 90
1
 70
1
 10
47.000164
 20
24.029960
 30
0.0
  0
SPLINE
  5
10d
100
AcDbEntity
  8
Layer_1
 62
7
100
AcDbSpline
 70
8
 71
3
 72
8
 73
4
 74
0
 40
0
 40
0
 40
0
 40
0
 40
1
 40
1
 40
1
 40
1
 10
17.789645
 20
115.220111
 30
0.0
 10
16.887892
 20
115.220056
 30
0.0
 10
16.023095
 20
114.861775
 30
0.0
 10
15.385508
 20
114.224090
 30
0.0
  0
SPLINE
  5
10e
100
AcDbEntity
  8
Layer_1
 62
7
100
AcDbSpline
 70
8
 71
3
 72
8
 73
4
 74
0
 40
0
 40
0
 40
0
 40
0
 40
1
 40
1
 40
1
 40
1
 10
15.385508
 20
114.224090
 30
0.0
 10
14.747921
 20
113.586406
 30
0.0
 10
14.389773
 20
112.721555
 30
0.0
 10
14.389855
 20
111.819801
 30
0.0
  0
SPLINE
  5
10f
100
AcDbEntity
  8
Layer_1
 62
7
100
AcDbSpline
 70
8
 71
3
 72
8
 73
4
 74
0
 40
0
 40
0
 40
0
 40
0
 40
1
 40
1
 40
1
 40
1
 10
14.389855
 20
111.819801
 30
0.0
 10
14.389966
 20
109.942193
 30
0.0
 10
15.912037
 20
108.420117
 30
0.0
 10
17.789645
 20
108.420001
 30
0.0
  0
SPLINE
  5
110
100
AcDbEntity
  8
Layer_1
 62
7
100
AcDbSpline
 70
8
 71
3
 72
8
 73
4
 74
0
 40
0
 40
0
 40
0
 40
0
 40
1
 40
1
 40
1
 40
1
 10
17.789645
 20
108.420001
 30
0.0
 10
18.691400
 20
108.419919
 30
0.0
 10
19.556253
 20
108.778068
 30
0.0
 10
20.193938
 20
109.415658
 30
0.0
  0
SPLINE
  5
111
100
AcDbEntity
  8
Layer_1
 62
7
100
AcDbSpline
 70
8
 71
3
 72
8
 73
4
 74
0
 40
0
 40
0
 40
0
 40
0
 40
1
 40
1
 40
1
 40
1
 10
20.193938
 20
109.415658
 30
0.0
 10
20.831623
 20
110.053247
 30
0.0
 10
21.189902
 20
110.918046
 30
0.0
 10
21.189955
 20
111.819801
 30
0.0
  0
SPLINE
  5
112
100
AcDbEntity
  8
Layer_1
 62
7
100
AcDbSpline
 70
8
 71
3
 72
8
 73
4
 74
0
 40
0
 40
0
 40
0
 40
0
 40
1
 40
1
 40
1
 40
1
 10
21.189955
 20
111.819801
 30
0.0
 10
21.190037
 20
112.721645
 30
0.0
 10
20.831818
 20
113.586575
 30
0.0
 10
20.194118
 20
114.224274
 30
0.0
  0
SPLINE
  5
113
100
AcDbEntity
  8
Layer_1
 62
7
100
AcDbSpline
 70
8
 71
3
 72
8
 73
4
 74
0
 40
0
 40
0
 40
0
 40
0
 40
1
 40
1
 40
1
 40
1
 10
20.194118
 20
114.224274
 30
0.0
 10
19.556419
 20
114.861974
 30
0.0
 10
18.691489
 20
115.220193
 30
0.0
 10
17.789645
 20
115.220111
 30
0.0
  0
LWPOLYLINE
  5
114
100
AcDbEntity
  8
Layer_1
 62
7
100
AcDbPolyline
 90
1
 70
1
 10
47.000164
 20
19.529980
 30
0.0
  0
SPLINE
  5
115
100
AcDbEntity
  8
Layer_1
 62
7
100
AcDbSpline
 70
8
 71
3
 72
8
 73
4
 74
0
 40
0
 40
0
 40
0
 40
0
 40
1
 40
1
 40
1
 40
1
 10
17.789645
 20
112.819741
 30
0.0
 10
18.054931
 20
112.819863
 30
0.0
 10
18.309394
 20
112.714569
 30
0.0
 10
18.497028
 20
112.527032
 30
0.0
  0
SPLINE
  5
116
100
AcDbEntity
  8
Layer_1
 62
7
100
AcDbSpline
 70
8
 71
3
 72
8
 73
4
 74
0
 40
0
 40
0
 40
0
 40
0
 40
1
 40
1
 40
1
 40
1
 10
18.497028
 20
112.527032
 30
0.0
 10
18.684662
 20
112.339495
 30
0.0
 10
18.790089
 20
112.085087
 30
0.0
 10
18.790105
 20
111.819801
 30
0.0
  0
SPLINE
  5
117
100
AcDbEntity
  8
Layer_1
 62
7
100
AcDbSpline
 70
8
 71
3
 72
8
 73
4
 74
0
 40
0
 40
0
 40
0
 40
0
 40
1
 40
1
 40
1
 40
1
 10
18.790105
 20
111.819801
 30
0.0
 10
18.790089
 20
111.554515
 30
0.0
 10
18.684662
 20
111.300107
 30
0.0
 10
18.497028
 20
111.112571
 30
0.0
  0
SPLINE
  5
118
100
AcDbEntity
  8
Layer_1
 62
7
100
AcDbSpline
 70
8
 71
3
 72
8
 73
4
 74
0
 40
0
 40
0
 40
0
 40
0
 40
1
 40
1
 40
1
 40
1
 10
18.497028
 20
111.112571
 30
0.0
 10
18.309394
 20
110.925034
 30
0.0
 10
18.054931
 20
110.819739
 30
0.0
 10
17.789645
 20
110.819861
 30
0.0
  0
SPLINE
  5
119
100
AcDbEntity
  8
Layer_1
 62
7
100
AcDbSpline
 70
8
 71
3
 72
8
 73
4
 74
0
 40
0
 40
0
 40
0
 40
0
 40
1
 40
1
 40
1
 40
1
 10
17.789645
 20
110.819861
 30
0.0
 10
17.237407
 20
110.819894
 30
0.0
 10
16.789738
 20
111.267563
 30
0.0
 10
16.789705
 20
111.819801
 30
0.0
  0
SPLINE
  5
11a
100
AcDbEntity
  8
Layer_1
 62
7
100
AcDbSpline
 70
8
 71
3
 72
8
 73
4
 74
0
 40
0
 40
0
 40
0
 40
0
 40
1
 40
1
 40
1
 40
1
 10
16.789705
 20
111.819801
 30
0.0
 10
16.789738
 20
112.372039
 30
0.0
 10
17.237407
 20
112.819708
 30
0.0
 10
17.789645
 20
112.819741
 30
0.0
  0
LWPOLYLINE
  5
11b
100
AcDbEntity
  8
Layer_1
 62
7
100
AcDbPolyline
 90
1
 70
1
 10
17.789645
 20
115.220111
 30
0.0
  0
SPLINE
  5
11c
100
AcDbEntity
  8
Layer_1
 62
7
100
AcDbSpline
 70
8
 71
3
 72
8
 73
4
 74
0
 40
0
 40
0
 40
0
 40
0
 40
1
 40
1
 40
1
 40
1
 10
38.109646
 20
115.220111
 30
0.0
 10
37.207893
 20
115.220056
 30
0.0
 10
36.343096
 20
114.861776
 30
0.0
 10
35.705508
 20
114.224091
 30
0.0
  0
SPLINE
  5
11d
100
AcDbEntity
  8
Layer_1
 62
7
100
AcDbSpline
 70
8
 71
3
 72
8
 73
4
 74
0
 40
0
 40
0
 40
0
 40
0
 40
1
 40
1
 40
1
 40
1
 10
35.705508
 20
114.224091
 30
0.0
 10
35.067921
 20
113.586406
 30
0.0
 10
34.709772
 20
112.721555
 30
0.0
 10
34.709854
 20
111.819801
 30
0.0
  0
SPLINE
  5
11e
100
AcDbEntity
  8
Layer_1
 62
7
100
AcDbSpline
 70
8
 71
3
 72
8
 73
4
 74
0
 40
0
 40
0
 40
0
 40
0
 40
1
 40
1
 40
1
 40
1
 10
34.709854
 20
111.819801
 30
0.0
 10
34.709965
 20
109.942192
 30
0.0
 10
36.232038
 20
108.420116
 30
0.0
 10
38.109646
 20
108.420001
 30
0.0
  0
SPLINE
  5
11f
100
AcDbEntity
  8
Layer_1
 62
7
100
AcDbSpline
 70
8
 71
3
 72
8
 73
4
 74
0
 40
0
 40
0
 40
0
 40
0
 40
1
 40
1
 40
1
 40
1
 10
38.109646
 20
108.420001
 30
0.0
 10
39.011402
 20
108.419919
 30
0.0
 10
39.876254
 20
108.778068
 30
0.0
 10
40.513939
 20
109.415658
 30
0.0
  0
SPLINE
  5
120
100
AcDbEntity
  8
Layer_1
 62
7
100
AcDbSpline
 70
8
 71
3
 72
8
 73
4
 74
0
 40
0
 40
0
 40
0
 40
0
 40
1
 40
1
 40
1
 40
1
 10
40.513939
 20
109.415658
 30
0.0
 10
41.151624
 20
110.053247
 30
0.0
 10
41.509903
 20
110.918046
 30
0.0
 10
41.509956
 20
111.819801
 30
0.0
  0
SPLINE
  5
121
100
AcDbEntity
  8
Layer_1
 62
7
100
AcDbSpline
 70
8
 71
3
 72
8
 73
4
 74
0
 40
0
 40
0
 40
0
 40
0
 40
1
 40
1
 40
1
 40
1
 10
41.509956
 20
111.819801
 30
0.0
 10
41.510039
 20
112.721645
 30
0.0
 10
41.151819
 20
113.586575
 30
0.0
 10
40.514119
 20
114.224274
 30
0.0
  0
SPLINE
  5
122
100
AcDbEntity
  8
Layer_1
 62
7
100
AcDbSpline
 70
8
 71
3
 72
8
 73
4
 74
0
 40
0
 40
0
 40
0
 40
0
 40
1
 40
1
 40
1
 40
1
 10
40.514119
 20
114.224274
 30
0.0
 10
39.876420
 20
114.861974
 30
0.0
 10
39.011490
 20
115.220193
 30
0.0
 10
38.109646
 20
115.220111
 30
0.0
  0
LWPOLYLINE
  5
123
100
AcDbEntity
  8
Layer_1
 62
7
100
AcDbPolyline
 90
1
 70
1
 10
17.789645
 20
112.819741
 30
0.0
  0
SPLINE
  5
124
100
AcDbEntity
  8
Layer_1
 62
7
100
AcDbSpline
 70
8
 71
3
 72
8
 73
4
 74
0
 40
0
 40
0
 40
0
 40
0
 40
1
 40
1
 40
1
 40
1
 10
38.109646
 20
112.819741
 30
0.0
 10
38.374932
 20
112.819862
 30
0.0
 10
38.629393
 20
112.714567
 30
0.0
 10
38.817027
 20
112.527030
 30
0.0
  0
SPLINE
  5
125
100
AcDbEntity
  8
Layer_1
 62
7
100
AcDbSpline
 70
8
 71
3
 72
8
 73
4
 74
0
 40
0
 40
0
 40
0
 40
0
 40
1
 40
1
 40
1
 40
1
 10
38.817027
 20
112.527030
 30
0.0
 10
39.004660
 20
112.339494
 30
0.0
 10
39.110087
 20
112.085086
 30
0.0
 10
39.110102
 20
111.819801
 30
0.0
  0
SPLINE
  5
126
100
AcDbEntity
  8
Layer_1
 62
7
100
AcDbSpline
 70
8
 71
3
 72
8
 73
4
 74
0
 40
0
 40
0
 40
0
 40
0
 40
1
 40
1
 40
1
 40
1
 10
39.110102
 20
111.819801
 30
0.0
 10
39.110087
 20
111.554516
 30
0.0
 10
39.004660
 20
111.300108
 30
0.0
 10
38.817027
 20
111.112572
 30
0.0
  0
SPLINE
  5
127
100
AcDbEntity
  8
Layer_1
 62
7
100
AcDbSpline
 70
8
 71
3
 72
8
 73
4
 74
0
 40
0
 40
0
 40
0
 40
0
 40
1
 40
1
 40
1
 40
1
 10
38.817027
 20
111.112572
 30
0.0
 10
38.629393
 20
110.925035
 30
0.0
 10
38.374932
 20
110.819740
 30
0.0
 10
38.109646
 20
110.819861
 30
0.0
  0
SPLINE
  5
128
100
AcDbEntity
  8
Layer_1
 62
7
100
AcDbSpline
 70
8
 71
3
 72
8
 73
4
 74
0
 40
0
 40
0
 40
0
 40
0
 40
1
 40
1
 40
1
 40
1
 10
38.109646
 20
110.819861
 30
0.0
 10
37.557409
 20
110.819895
 30
0.0
 10
37.109741
 20
111.267564
 30
0.0
 10
37.109707
 20
111.819801
 30
0.0
  0
SPLINE
  5
129
100
AcDbEntity
  8
Layer_1
 62
7
100
AcDbSpline
 70
8
 71
3
 72
8
 73
4
 74
0
 40
0
 40
0
 40
0
 40
0
 40
1
 40
1
 40
1
 40
1
 10
37.109707
 20
111.819801
 30
0.0
 10
37.109741
 20
112.372039
 30
0.0
 10
37.557409
 20
112.819708
 30
0.0
 10
38.109646
 20
112.819741
 30
0.0
  0
LWPOLYLINE
  5
12a
100
AcDbEntity
  8
Layer_1
 62
7
100
AcDbPolyline
 90
1
 70
1
 10
38.109646
 20
115.220111
 30
0.0
  0
SPLINE
  5
12b
100
AcDbEntity
  8
Layer_1
 62
7
100
AcDbSpline
 70
8
 71
3
 72
8
 73
4
 74
0
 40
0
 40
0
 40
0
 40
0
 40
1
 40
1
 40
1
 40
1
 10
55.889647
 20
115.220111
 30
0.0
 10
54.987893
 20
115.220056
 30
0.0
 10
54.123096
 20
114.861776
 30
0.0
 10
53.485508
 20
114.224091
 30
0.0
  0
SPLINE
  5
12c
100
AcDbEntity
  8
Layer_1
 62
7
100
AcDbSpline
 70
8
 71
3
 72
8
 73
4
 74
0
 40
0
 40
0
 40
0
 40
0
 40
1
 40
1
 40
1
 40
1
 10
53.485508
 20
114.224091
 30
0.0
 10
52.847921
 20
113.586406
 30
0.0
 10
52.489772
 20
112.721555
 30
0.0
 10
52.489855
 20
111.819801
 30
0.0
  0
SPLINE
  5
12d
100
AcDbEntity
  8
Layer_1
 62
7
100
AcDbSpline
 70
8
 71
3
 72
8
 73
4
 74
0
 40
0
 40
0
 40
0
 40
0
 40
1
 40
1
 40
1
 40
1
 10
52.489855
 20
111.819801
 30
0.0
 10
52.489965
 20
109.942192
 30
0.0
 10
54.012038
 20
108.420116
 30
0.0
 10
55.889647
 20
108.420001
 30
0.0
  0
SPLINE
  5
12e
100
AcDbEntity
  8
Layer_1
 62
7
100
AcDbSpline
 70
8
 71
3
 72
8
 73
4
 74
0
 40
0
 40
0
 40
0
 40
0
 40
1
 40
1
 40
1
 40
1
 10
55.889647
 20
108.420001
 30
0.0
 10
56.791402
 20
108.419919
 30
0.0
 10
57.656254
 20
108.778068
 30
0.0
 10
58.293939
 20
109.415658
 30
0.0
  0
SPLINE
  5
12f
100
AcDbEntity
  8
Layer_1
 62
7
100
AcDbSpline
 70
8
 71
3
 72
8
 73
4
 74
0
 40
0
 40
0
 40
0
 40
0
 40
1
 40
1
 40
1
 40
1
 10
58.293939
 20
109.415658
 30
0.0
 10
58.931624
 20
110.053247
 30
0.0
 10
59.289904
 20
110.918046
 30
0.0
 10
59.289957
 20
111.819801
 30
0.0
  0
SPLINE
  5
130
100
AcDbEntity
  8
Layer_1
 62
7
100
AcDbSpline
 70
8
 71
3
 72
8
 73
4
 74
0
 40
0
 40
0
 40
0
 40
0
 40
1
 40
1
 40
1
 40
1
 10
59.289957
 20
111.819801
 30
0.0
 10
59.290039
 20
112.721645
 30
0.0
 10
58.931819
 20
113.586575
 30
0.0
 10
58.294120
 20
114.224274
 30
0.0
  0
SPLINE
  5
131
100
AcDbEntity
  8
Layer_1
 62
7
100
AcDbSpline
 70
8
 71
3
 72
8
 73
4
 74
0
 40
0
 40
0
 40
0
 40
0
 40
1
 40
1
 40
1
 40
1
 10
58.294120
 20
114.224274
 30
0.0
 10
57.656420
 20
114.861974
 30
0.0
 10
56.791490
 20
115.220193
 30
0.0
 10
55.889647
 20
115.220111
 30
0.0
  0
LWPOLYLINE
  5
132
100
AcDbEntity
  8
Layer_1
 62
7
100
AcDbPolyline
 90
1
 70
1
 10
38.109646
 20
112.819741
 30
0.0
  0
SPLINE
  5
133
100
AcDbEntity
  8
Layer_1
 62
7
100
AcDbSpline
 70
8
 71
3
 72
8
 73
4
 74
0
 40
0
 40
0
 40
0
 40
0
 40
1
 40
1
 40
1
 40
1
 10
55.889647
 20
112.819741
 30
0.0
 10
56.154932
 20
112.819862
 30
0.0
 10
56.409394
 20
112.714567
 30
0.0
 10
56.597027
 20
112.527030
 30
0.0
  0
SPLINE
  5
134
100
AcDbEntity
  8
Layer_1
 62
7
100
AcDbSpline
 70
8
 71
3
 72
8
 73
4
 74
0
 40
0
 40
0
 40
0
 40
0
 40
1
 40
1
 40
1
 40
1
 10
56.597027
 20
112.527030
 30
0.0
 10
56.784660
 20
112.339494
 30
0.0
 10
56.890087
 20
112.085086
 30
0.0
 10
56.890103
 20
111.819801
 30
0.0
  0
SPLINE
  5
135
100
AcDbEntity
  8
Layer_1
 62
7
100
AcDbSpline
 70
8
 71
3
 72
8
 73
4
 74
0
 40
0
 40
0
 40
0
 40
0
 40
1
 40
1
 40
1
 40
1
 10
56.890103
 20
111.819801
 30
0.0
 10
56.890087
 20
111.554516
 30
0.0
 10
56.784660
 20
111.300108
 30
0.0
 10
56.597027
 20
111.112572
 30
0.0
  0
SPLINE
  5
136
100
AcDbEntity
  8
Layer_1
 62
7
100
AcDbSpline
 70
8
 71
3
 72
8
 73
4
 74
0
 40
0
 40
0
 40
0
 40
0
 40
1
 40
1
 40
1
 40
1
 10
56.597027
 20
111.112572
 30
0.0
 10
56.409394
 20
110.925035
 30
0.0
 10
56.154932
 20
110.819740
 30
0.0
 10
55.889647
 20
110.819861
 30
0.0
  0
SPLINE
  5
137
100
AcDbEntity
  8
Layer_1
 62
7
100
AcDbSpline
 70
8
 71
3
 72
8
 73
4
 74
0
 40
0
 40
0
 40
0
 40
0
 40
1
 40
1
 40
1
 40
1
 10
55.889647
 20
110.819861
 30
0.0
 10
55.337409
 20
110.819895
 30
0.0
 10
54.889741
 20
111.267564
 30
0.0
 10
54.889708
 20
111.819801
 30
0.0
  0
SPLINE
  5
138
100
AcDbEntity
  8
Layer_1
 62
7
100
AcDbSpline
 70
8
 71
3
 72
8
 73
4
 74
0
 40
0
 40
0
 40
0
 40
0
 40
1
 40
1
 40
1
 40
1
 10
54.889708
 20
111.819801
 30
0.0
 10
54.889741
 20
112.372039
 30
0.0
 10
55.337409
 20
112.819708
 30
0.0
 10
55.889647
 20
112.819741
 30
0.0
  0
LWPOLYLINE
  5
139
100
AcDbEntity
  8
Layer_1
 62
7
100
AcDbPolyline
 90
1
 70
1
 10
55.889647
 20
115.220111
 30
0.0
  0
SPLINE
  5
13a
100
AcDbEntity
  8
Layer_1
 62
7
100
AcDbSpline
 70
8
 71
3
 72
8
 73
4
 74
0
 40
0
 40
0
 40
0
 40
0
 40
1
 40
1
 40
1
 40
1
 10
76.209646
 20
115.220111
 30
0.0
 10
75.307892
 20
115.220056
 30
0.0
 10
74.443095
 20
114.861776
 30
0.0
 10
73.805508
 20
114.224091
 30
0.0
  0
SPLINE
  5
13b
100
AcDbEntity
  8
Layer_1
 62
7
100
AcDbSpline
 70
8
 71
3
 72
8
 73
4
 74
0
 40
0
 40
0
 40
0
 40
0
 40
1
 40
1
 40
1
 40
1
 10
73.805508
 20
114.224091
 30
0.0
 10
73.167920
 20
113.586406
 30
0.0
 10
72.809772
 20
112.721555
 30
0.0
 10
72.809854
 20
111.819801
 30
0.0
  0
SPLINE
  5
13c
100
AcDbEntity
  8
Layer_1
 62
7
100
AcDbSpline
 70
8
 71
3
 72
8
 73
4
 74
0
 40
0
 40
0
 40
0
 40
0
 40
1
 40
1
 40
1
 40
1
 10
72.809854
 20
111.819801
 30
0.0
 10
72.809964
 20
109.942192
 30
0.0
 10
74.332037
 20
108.420116
 30
0.0
 10
76.209646
 20
108.420001
 30
0.0
  0
SPLINE
  5
13d
100
AcDbEntity
  8
Layer_1
 62
7
100
AcDbSpline
 70
8
 71
3
 72
8
 73
4
 74
0
 40
0
 40
0
 40
0
 40
0
 40
1
 40
1
 40
1
 40
1
 10
76.209646
 20
108.420001
 30
0.0
 10
77.111401
 20
108.419919
 30
0.0
 10
77.976254
 20
108.778068
 30
0.0
 10
78.613939
 20
109.415658
 30
0.0
  0
SPLINE
  5
13e
100
AcDbEntity
  8
Layer_1
 62
7
100
AcDbSpline
 70
8
 71
3
 72
8
 73
4
 74
0
 40
0
 40
0
 40
0
 40
0
 40
1
 40
1
 40
1
 40
1
 10
78.613939
 20
109.415658
 30
0.0
 10
79.251624
 20
110.053247
 30
0.0
 10
79.609903
 20
110.918046
 30
0.0
 10
79.609956
 20
111.819801
 30
0.0
  0
SPLINE
  5
13f
100
AcDbEntity
  8
Layer_1
 62
7
100
AcDbSpline
 70
8
 71
3
 72
8
 73
4
 74
0
 40
0
 40
0
 40
0
 40
0
 40
1
 40
1
 40
1
 40
1
 10
79.609956
 20
111.819801
 30
0.0
 10
79.610038
 20
112.721645
 30
0.0
 10
79.251819
 20
113.586575
 30
0.0
 10
78.614119
 20
114.224274
 30
0.0
  0
SPLINE
  5
140
100
AcDbEntity
  8
Layer_1
 62
7
100
AcDbSpline
 70
8
 71
3
 72
8
 73
4
 74
0
 40
0
 40
0
 40
0
 40
0
 40
1
 40
1
 40
1
 40
1
 10
78.614119
 20
114.224274
 30
0.0
 10
77.976419
 20
114.861974
 30
0.0
 10
77.111489
 20
115.220193
 30
0.0
 10
76.209646
 20
115.220111
 30
0.0
  0
LWPOLYLINE
  5
141
100
AcDbEntity
  8
Layer_1
 62
7
100
AcDbPolyline
 90
1
 70
1
 10
55.889647
 20
112.819741
 30
0.0
  0
SPLINE
  5
142
100
AcDbEntity
  8
Layer_1
 62
7
100
AcDbSpline
 70
8
 71
3
 72
8
 73
4
 74
0
 40
0
 40
0
 40
0
 40
0
 40
1
 40
1
 40
1
 40
1
 10
76.209646
 20
112.819731
 30
0.0
 10
76.474931
 20
112.819852
 30
0.0
 10
76.729393
 20
112.714557
 30
0.0
 10
76.917026
 20
112.527020
 30
0.0
  0
SPLINE
  5
143
100
AcDbEntity
  8
Layer_1
 62
7
100
AcDbSpline
 70
8
 71
3
 72
8
 73
4
 74
0
 40
0
 40
0
 40
0
 40
0
 40
1
 40
1
 40
1
 40
1
 10
76.917026
 20
112.527020
 30
0.0
 10
77.104659
 20
112.339484
 30
0.0
 10
77.210086
 20
112.085076
 30
0.0
 10
77.210102
 20
111.819791
 30
0.0
  0
SPLINE
  5
144
100
AcDbEntity
  8
Layer_1
 62
7
100
AcDbSpline
 70
8
 71
3
 72
8
 73
4
 74
0
 40
0
 40
0
 40
0
 40
0
 40
1
 40
1
 40
1
 40
1
 10
77.210102
 20
111.819791
 30
0.0
 10
77.210086
 20
111.554506
 30
0.0
 10
77.104659
 20
111.300098
 30
0.0
 10
76.917026
 20
111.112562
 30
0.0
  0
SPLINE
  5
145
100
AcDbEntity
  8
Layer_1
 62
7
100
AcDbSpline
 70
8
 71
3
 72
8
 73
4
 74
0
 40
0
 40
0
 40
0
 40
0
 40
1
 40
1
 40
1
 40
1
 10
76.917026
 20
111.112562
 30
0.0
 10
76.729393
 20
110.925025
 30
0.0
 10
76.474931
 20
110.819730
 30
0.0
 10
76.209646
 20
110.819851
 30
0.0
  0
SPLINE
  5
146
100
AcDbEntity
  8
Layer_1
 62
7
100
AcDbSpline
 70
8
 71
3
 72
8
 73
4
 74
0
 40
0
 40
0
 40
0
 40
0
 40
1
 40
1
 40
1
 40
1
 10
76.209646
 20
110.819851
 30
0.0
 10
75.657408
 20
110.819885
 30
0.0
 10
75.209740
 20
111.267554
 30
0.0
 10
75.209707
 20
111.819791
 30
0.0
  0
SPLINE
  5
147
100
AcDbEntity
  8
Layer_1
 62
7
100
AcDbSpline
 70
8
 71
3
 72
8
 73
4
 74
0
 40
0
 40
0
 40
0
 40
0
 40
1
 40
1
 40
1
 40
1
 10
75.209707
 20
111.819791
 30
0.0
 10
75.209740
 20
112.372029
 30
0.0
 10
75.657408
 20
112.819698
 30
0.0
 10
76.209646
 20
112.819731
 30
0.0
  0
LWPOLYLINE
  5
148
100
AcDbEntity
  8
Layer_1
 62
7
100
AcDbPolyline
 90
1
 70
1
 10
76.209646
 20
115.220111
 30
0.0
  0
SPLINE
  5
149
100
AcDbEntity
  8
Layer_1
 62
7
100
AcDbSpline
 70
8
 71
3
 72
8
 73
4
 74
0
 40
0
 40
0
 40
0
 40
0
 40
1
 40
1
 40
1
 40
1
 10
27.949646
 20
52.790091
 30
0.0
 10
27.047893
 20
52.790035
 30
0.0
 10
26.183096
 20
52.431755
 30
0.0
 10
25.545508
 20
51.794070
 30
0.0
  0
SPLINE
  5
14a
100
AcDbEntity
  8
Layer_1
 62
7
100
AcDbSpline
 70
8
 71
3
 72
8
 73
4
 74
0
 40
0
 40
0
 40
0
 40
0
 40
1
 40
1
 40
1
 40
1
 10
25.545508
 20
51.794070
 30
0.0
 10
24.907920
 20
51.156386
 30
0.0
 10
24.549772
 20
50.291534
 30
0.0
 10
24.549854
 20
49.389781
 30
0.0
  0
SPLINE
  5
14b
100
AcDbEntity
  8
Layer_1
 62
7
100
AcDbSpline
 70
8
 71
3
 72
8
 73
4
 74
0
 40
0
 40
0
 40
0
 40
0
 40
1
 40
1
 40
1
 40
1
 10
24.549854
 20
49.389781
 30
0.0
 10
24.549965
 20
47.512172
 30
0.0
 10
26.072037
 20
45.990095
 30
0.0
 10
27.949646
 20
45.989980
 30
0.0
  0
SPLINE
  5
14c
100
AcDbEntity
  8
Layer_1
 62
7
100
AcDbSpline
 70
8
 71
3
 72
8
 73
4
 74
0
 40
0
 40
0
 40
0
 40
0
 40
1
 40
1
 40
1
 40
1
 10
27.949646
 20
45.989980
 30
0.0
 10
28.851401
 20
45.989898
 30
0.0
 10
29.716254
 20
46.348048
 30
0.0
 10
30.353939
 20
46.985637
 30
0.0
  0
SPLINE
  5
14d
100
AcDbEntity
  8
Layer_1
 62
7
100
AcDbSpline
 70
8
 71
3
 72
8
 73
4
 74
0
 40
0
 40
0
 40
0
 40
0
 40
1
 40
1
 40
1
 40
1
 10
30.353939
 20
46.985637
 30
0.0
 10
30.991624
 20
47.623226
 30
0.0
 10
31.349903
 20
48.488025
 30
0.0
 10
31.349956
 20
49.389781
 30
0.0
  0
SPLINE
  5
14e
100
AcDbEntity
  8
Layer_1
 62
7
100
AcDbSpline
 70
8
 71
3
 72
8
 73
4
 74
0
 40
0
 40
0
 40
0
 40
0
 40
1
 40
1
 40
1
 40
1
 10
31.349956
 20
49.389781
 30
0.0
 10
31.350039
 20
50.291624
 30
0.0
 10
30.991819
 20
51.156554
 30
0.0
 10
30.354119
 20
51.794254
 30
0.0
  0
SPLINE
  5
14f
100
AcDbEntity
  8
Layer_1
 62
7
100
AcDbSpline
 70
8
 71
3
 72
8
 73
4
 74
0
 40
0
 40
0
 40
0
 40
0
 40
1
 40
1
 40
1
 40
1
 10
30.354119
 20
51.794254
 30
0.0
 10
29.716420
 20
52.431953
 30
0.0
 10
28.851490
 20
52.790173
 30
0.0
 10
27.949646
 20
52.790091
 30
0.0
  0
LWPOLYLINE
  5
150
100
AcDbEntity
  8
Layer_1
 62
7
100
AcDbPolyline
 90
1
 70
1
 10
76.209646
 20
112.819731
 30
0.0
  0
SPLINE
  5
151
100
AcDbEntity
  8
Layer_1
 62
7
100
AcDbSpline
 70
8
 71
3
 72
8
 73
4
 74
0
 40
0
 40
0
 40
0
 40
0
 40
1
 40
1
 40
1
 40
1
 10
27.949646
 20
50.389721
 30
0.0
 10
28.214931
 20
50.389842
 30
0.0
 10
28.469393
 20
50.284546
 30
0.0
 10
28.657027
 20
50.097010
 30
0.0
  0
SPLINE
  5
152
100
AcDbEntity
  8
Layer_1
 62
7
100
AcDbSpline
 70
8
 71
3
 72
8
 73
4
 74
0
 40
0
 40
0
 40
0
 40
0
 40
1
 40
1
 40
1
 40
1
 10
28.657027
 20
50.097010
 30
0.0
 10
28.844660
 20
49.909473
 30
0.0
 10
28.950086
 20
49.655066
 30
0.0
 10
28.950102
 20
49.389781
 30
0.0
  0
SPLINE
  5
153
100
AcDbEntity
  8
Layer_1
 62
7
100
AcDbSpline
 70
8
 71
3
 72
8
 73
4
 74
0
 40
0
 40
0
 40
0
 40
0
 40
1
 40
1
 40
1
 40
1
 10
28.950102
 20
49.389781
 30
0.0
 10
28.950086
 20
49.124495
 30
0.0
 10
28.844660
 20
48.870088
 30
0.0
 10
28.657027
 20
48.682551
 30
0.0
  0
SPLINE
  5
154
100
AcDbEntity
  8
Layer_1
 62
7
100
AcDbSpline
 70
8
 71
3
 72
8
 73
4
 74
0
 40
0
 40
0
 40
0
 40
0
 40
1
 40
1
 40
1
 40
1
 10
28.657027
 20
48.682551
 30
0.0
 10
28.469393
 20
48.495015
 30
0.0
 10
28.214931
 20
48.389720
 30
0.0
 10
27.949646
 20
48.389841
 30
0.0
  0
SPLINE
  5
155
100
AcDbEntity
  8
Layer_1
 62
7
100
AcDbSpline
 70
8
 71
3
 72
8
 73
4
 74
0
 40
0
 40
0
 40
0
 40
0
 40
1
 40
1
 40
1
 40
1
 10
27.949646
 20
48.389841
 30
0.0
 10
27.397409
 20
48.389874
 30
0.0
 10
26.949740
 20
48.837543
 30
0.0
 10
26.949707
 20
49.389781
 30
0.0
  0
SPLINE
  5
156
100
AcDbEntity
  8
Layer_1
 62
7
100
AcDbSpline
 70
8
 71
3
 72
8
 73
4
 74
0
 40
0
 40
0
 40
0
 40
0
 40
1
 40
1
 40
1
 40
1
 10
26.949707
 20
49.389781
 30
0.0
 10
26.949740
 20
49.942018
 30
0.0
 10
27.397409
 20
50.389687
 30
0.0
 10
27.949646
 20
50.389721
 30
0.0
  0
LWPOLYLINE
  5
157
100
AcDbEntity
  8
Layer_1
 62
7
100
AcDbPolyline
 90
1
 70
1
 10
27.949646
 20
52.790091
 30
0.0
  0
SPLINE
  5
158
100
AcDbEntity
  8
Layer_1
 62
7
100
AcDbSpline
 70
8
 71
3
 72
8
 73
4
 74
0
 40
0
 40
0
 40
0
 40
0
 40
1
 40
1
 40
1
 40
1
 10
66.049646
 20
52.790091
 30
0.0
 10
65.147892
 20
52.790035
 30
0.0
 10
64.283095
 20
52.431755
 30
0.0
 10
63.645508
 20
51.794070
 30
0.0
  0
SPLINE
  5
159
100
AcDbEntity
  8
Layer_1
 62
7
100
AcDbSpline
 70
8
 71
3
 72
8
 73
4
 74
0
 40
0
 40
0
 40
0
 40
0
 40
1
 40
1
 40
1
 40
1
 10
63.645508
 20
51.794070
 30
0.0
 10
63.007920
 20
51.156386
 30
0.0
 10
62.649771
 20
50.291534
 30
0.0
 10
62.649854
 20
49.389781
 30
0.0
  0
SPLINE
  5
15a
100
AcDbEntity
  8
Layer_1
 62
7
100
AcDbSpline
 70
8
 71
3
 72
8
 73
4
 74
0
 40
0
 40
0
 40
0
 40
0
 40
1
 40
1
 40
1
 40
1
 10
62.649854
 20
49.389781
 30
0.0
 10
62.649964
 20
47.512172
 30
0.0
 10
64.172037
 20
45.990095
 30
0.0
 10
66.049646
 20
45.989980
 30
0.0
  0
SPLINE
  5
15b
100
AcDbEntity
  8
Layer_1
 62
7
100
AcDbSpline
 70
8
 71
3
 72
8
 73
4
 74
0
 40
0
 40
0
 40
0
 40
0
 40
1
 40
1
 40
1
 40
1
 10
66.049646
 20
45.989980
 30
0.0
 10
66.951401
 20
45.989898
 30
0.0
 10
67.816253
 20
46.348048
 30
0.0
 10
68.453938
 20
46.985637
 30
0.0
  0
SPLINE
  5
15c
100
AcDbEntity
  8
Layer_1
 62
7
100
AcDbSpline
 70
8
 71
3
 72
8
 73
4
 74
0
 40
0
 40
0
 40
0
 40
0
 40
1
 40
1
 40
1
 40
1
 10
68.453938
 20
46.985637
 30
0.0
 10
69.091623
 20
47.623226
 30
0.0
 10
69.449903
 20
48.488025
 30
0.0
 10
69.449956
 20
49.389781
 30
0.0
  0
SPLINE
  5
15d
100
AcDbEntity
  8
Layer_1
 62
7
100
AcDbSpline
 70
8
 71
3
 72
8
 73
4
 74
0
 40
0
 40
0
 40
0
 40
0
 40
1
 40
1
 40
1
 40
1
 10
69.449956
 20
49.389781
 30
0.0
 10
69.450038
 20
50.291624
 30
0.0
 10
69.091818
 20
51.156554
 30
0.0
 10
68.454119
 20
51.794254
 30
0.0
  0
SPLINE
  5
15e
100
AcDbEntity
  8
Layer_1
 62
7
100
AcDbSpline
 70
8
 71
3
 72
8
 73
4
 74
0
 40
0
 40
0
 40
0
 40
0
 40
1
 40
1
 40
1
 40
1
 10
68.454119
 20
51.794254
 30
0.0
 10
67.816419
 20
52.431953
 30
0.0
 10
66.951489
 20
52.790173
 30
0.0
 10
66.049646
 20
52.790091
 30
0.0
  0
LWPOLYLINE
  5
15f
100
AcDbEntity
  8
Layer_1
 62
7
100
AcDbPolyline
 90
1
 70
1
 10
27.949646
 20
50.389721
 30
0.0
  0
SPLINE
  5
160
100
AcDbEntity
  8
Layer_1
 62
7
100
AcDbSpline
 70
8
 71
3
 72
8
 73
4
 74
0
 40
0
 40
0
 40
0
 40
0
 40
1
 40
1
 40
1
 40
1
 10
66.049646
 20
50.389721
 30
0.0
 10
66.314931
 20
50.389842
 30
0.0
 10
66.569393
 20
50.284546
 30
0.0
 10
66.757026
 20
50.097010
 30
0.0
  0
SPLINE
  5
161
100
AcDbEntity
  8
Layer_1
 62
7
100
AcDbSpline
 70
8
 71
3
 72
8
 73
4
 74
0
 40
0
 40
0
 40
0
 40
0
 40
1
 40
1
 40
1
 40
1
 10
66.757026
 20
50.097010
 30
0.0
 10
66.944659
 20
49.909473
 30
0.0
 10
67.050086
 20
49.655066
 30
0.0
 10
67.050102
 20
49.389781
 30
0.0
  0
SPLINE
  5
162
100
AcDbEntity
  8
Layer_1
 62
7
100
AcDbSpline
 70
8
 71
3
 72
8
 73
4
 74
0
 40
0
 40
0
 40
0
 40
0
 40
1
 40
1
 40
1
 40
1
 10
67.050102
 20
49.389781
 30
0.0
 10
67.050086
 20
49.124495
 30
0.0
 10
66.944659
 20
48.870088
 30
0.0
 10
66.757026
 20
48.682551
 30
0.0
  0
SPLINE
  5
163
100
AcDbEntity
  8
Layer_1
 62
7
100
AcDbSpline
 70
8
 71
3
 72
8
 73
4
 74
0
 40
0
 40
0
 40
0
 40
0
 40
1
 40
1
 40
1
 40
1
 10
66.757026
 20
48.682551
 30
0.0
 10
66.569393
 20
48.495015
 30
0.0
 10
66.314931
 20
48.389720
 30
0.0
 10
66.049646
 20
48.389841
 30
0.0
  0
SPLINE
  5
164
100
AcDbEntity
  8
Layer_1
 62
7
100
AcDbSpline
 70
8
 71
3
 72
8
 73
4
 74
0
 40
0
 40
0
 40
0
 40
0
 40
1
 40
1
 40
1
 40
1
 10
66.049646
 20
48.389841
 30
0.0
 10
65.497408
 20
48.389874
 30
0.0
 10
65.049740
 20
48.837543
 30
0.0
 10
65.049707
 20
49.389781
 30
0.0
  0
SPLINE
  5
165
100
AcDbEntity
  8
Layer_1
 62
7
100
AcDbSpline
 70
8
 71
3
 72
8
 73
4
 74
0
 40
0
 40
0
 40
0
 40
0
 40
1
 40
1
 40
1
 40
1
 10
65.049707
 20
49.389781
 30
0.0
 10
65.049740
 20
49.942018
 30
0.0
 10
65.497408
 20
50.389687
 30
0.0
 10
66.049646
 20
50.389721
 30
0.0
  0
LWPOLYLINE
  5
166
100
AcDbEntity
  8
Layer_1
 62
7
100
AcDbPolyline
 90
1
 70
1
 10
66.049646
 20
52.790091
 30
0.0
  0
SPLINE
  5
167
100
AcDbEntity
  8
Layer_1
 62
7
100
AcDbSpline
 70
8
 71
3
 72
8
 73
4
 74
0
 40
0
 40
0
 40
0
 40
0
 40
1
 40
1
 40
1
 40
1
 10
5.302519
 20
97.402642
 30
0.0
 10
3.308115
 20
97.402642
 30
0.0
 10
1.702738
 20
95.797265
 30
0.0
 10
1.702738
 20
93.802862
 30
0.0
  0
LWPOLYLINE
  5
168
100
AcDbEntity
  8
Layer_1
 62
7
100
AcDbPolyline
 90
1
 70
1
 10
66.049646
 20
50.389721
 30
0.0
  0
SPLINE
  5
169
100
AcDbEntity
  8
Layer_1
 62
7
100
AcDbSpline
 70
8
 71
3
 72
8
 73
4
 74
0
 40
0
 40
0
 40
0
 40
0
 40
1
 40
1
 40
1
 40
1
 10
1.702738
 20
88.802651
 30
0.0
 10
1.702738
 20
86.808246
 30
0.0
 10
3.308115
 20
85.202871
 30
0.0
 10
5.302519
 20
85.202871
 30
0.0
  0
LWPOLYLINE
  5
16a
100
AcDbEntity
  8
Layer_1
 62
7
100
AcDbPolyline
 90
2
 70
0
 10
1.702738
 20
93.802862
 30
0.0
 10
1.702738
 20
88.802651
 30
0.0
  0
SPLINE
  5
16b
100
AcDbEntity
  8
Layer_1
 62
7
100
AcDbSpline
 70
8
 71
3
 72
8
 73
4
 74
0
 40
0
 40
0
 40
0
 40
0
 40
1
 40
1
 40
1
 40
1
 10
88.702597
 20
85.202871
 30
0.0
 10
90.697000
 20
85.202871
 30
0.0
 10
92.302893
 20
86.808246
 30
0.0
 10
92.302893
 20
88.802651
 30
0.0
  0
LWPOLYLINE
  5
16c
100
AcDbEntity
  8
Layer_1
 62
7
100
AcDbPolyline
 90
2
 70
0
 10
5.302519
 20
85.202871
 30
0.0
 10
88.702597
 20
85.202871
 30
0.0
  0
SPLINE
  5
16d
100
AcDbEntity
  8
Layer_1
 62
7
100
AcDbSpline
 70
8
 71
3
 72
8
 73
4
 74
0
 40
0
 40
0
 40
0
 40
0
 40
1
 40
1
 40
1
 40
1
 10
92.302893
 20
93.802862
 30
0.0
 10
92.302893
 20
95.797265
 30
0.0
 10
90.697000
 20
97.402642
 30
0.0
 10
88.702597
 20
97.402642
 30
0.0
  0
LWPOLYLINE
  5
16e
100
AcDbEntity
  8
Layer_1
 62
7
100
AcDbPolyline
 90
2
 70
0
 10
92.302893
 20
88.802651
 30
0.0
 10
92.302893
 20
93.802862
 30
0.0
  0
SPLINE
  5
16f
100
AcDbEntity
  8
Layer_1
 62
7
100
AcDbSpline
 70
8
 71
3
 72
8
 73
4
 74
0
 40
0
 40
0
 40
0
 40
0
 40
1
 40
1
 40
1
 40
1
 10
13.982609
 20
94.402825
 30
0.0
 10
14.804804
 20
94.402844
 30
0.0
 10
15.593330
 20
94.076236
 30
0.0
 10
16.174710
 20
93.494856
 30
0.0
  0
SPLINE
  5
170
100
AcDbEntity
  8
Layer_1
 62
7
100
AcDbSpline
 70
8
 71
3
 72
8
 73
4
 74
0
 40
0
 40
0
 40
0
 40
0
 40
1
 40
1
 40
1
 40
1
 10
16.174710
 20
93.494856
 30
0.0
 10
16.756089
 20
92.913476
 30
0.0
 10
17.082697
 20
92.124950
 30
0.0
 10
17.082678
 20
91.302755
 30
0.0
  0
SPLINE
  5
171
100
AcDbEntity
  8
Layer_1
 62
7
100
AcDbSpline
 70
8
 71
3
 72
8
 73
4
 74
0
 40
0
 40
0
 40
0
 40
0
 40
1
 40
1
 40
1
 40
1
 10
17.082678
 20
91.302755
 30
0.0
 10
17.082696
 20
90.480560
 30
0.0
 10
16.756088
 20
89.692035
 30
0.0
 10
16.174709
 20
89.110656
 30
0.0
  0
SPLINE
  5
172
100
AcDbEntity
  8
Layer_1
 62
7
100
AcDbSpline
 70
8
 71
3
 72
8
 73
4
 74
0
 40
0
 40
0
 40
0
 40
0
 40
1
 40
1
 40
1
 40
1
 10
16.174709
 20
89.110656
 30
0.0
 10
15.593329
 20
88.529276
 30
0.0
 10
14.804804
 20
88.202669
 30
0.0
 10
13.982609
 20
88.202688
 30
0.0
  0
SPLINE
  5
173
100
AcDbEntity
  8
Layer_1
 62
7
100
AcDbSpline
 70
8
 71
3
 72
8
 73
4
 74
0
 40
0
 40
0
 40
0
 40
0
 40
1
 40
1
 40
1
 40
1
 10
13.982609
 20
88.202688
 30
0.0
 10
13.160414
 20
88.202669
 30
0.0
 10
12.371889
 20
88.529276
 30
0.0
 10
11.790509
 20
89.110656
 30
0.0
  0
SPLINE
  5
174
100
AcDbEntity
  8
Layer_1
 62
7
100
AcDbSpline
 70
8
 71
3
 72
8
 73
4
 74
0
 40
0
 40
0
 40
0
 40
0
 40
1
 40
1
 40
1
 40
1
 10
11.790509
 20
89.110656
 30
0.0
 10
11.209130
 20
89.692035
 30
0.0
 10
10.882522
 20
90.480560
 30
0.0
 10
10.882540
 20
91.302755
 30
0.0
  0
SPLINE
  5
175
100
AcDbEntity
  8
Layer_1
 62
7
100
AcDbSpline
 70
8
 71
3
 72
8
 73
4
 74
0
 40
0
 40
0
 40
0
 40
0
 40
1
 40
1
 40
1
 40
1
 10
10.882540
 20
91.302755
 30
0.0
 10
10.882521
 20
92.124950
 30
0.0
 10
11.209129
 20
92.913476
 30
0.0
 10
11.790508
 20
93.494856
 30
0.0
  0
SPLINE
  5
176
100
AcDbEntity
  8
Layer_1
 62
7
100
AcDbSpline
 70
8
 71
3
 72
8
 73
4
 74
0
 40
0
 40
0
 40
0
 40
0
 40
1
 40
1
 40
1
 40
1
 10
11.790508
 20
93.494856
 30
0.0
 10
12.371888
 20
94.076236
 30
0.0
 10
13.160414
 20
94.402844
 30
0.0
 10
13.982609
 20
94.402825
 30
0.0
  0
LWPOLYLINE
  5
177
100
AcDbEntity
  8
Layer_1
 62
7
100
AcDbPolyline
 90
2
 70
0
 10
88.702597
 20
97.402642
 30
0.0
 10
5.302519
 20
97.402642
 30
0.0
  0
SPLINE
  5
178
100
AcDbEntity
  8
Layer_1
 62
7
100
AcDbSpline
 70
8
 71
3
 72
8
 73
4
 74
0
 40
0
 40
0
 40
0
 40
0
 40
1
 40
1
 40
1
 40
1
 10
47.002816
 20
94.402825
 30
0.0
 10
47.825011
 20
94.402843
 30
0.0
 10
48.613536
 20
94.076235
 30
0.0
 10
49.194916
 20
93.494855
 30
0.0
  0
SPLINE
  5
179
100
AcDbEntity
  8
Layer_1
 62
7
100
AcDbSpline
 70
8
 71
3
 72
8
 73
4
 74
0
 40
0
 40
0
 40
0
 40
0
 40
1
 40
1
 40
1
 40
1
 10
49.194916
 20
93.494855
 30
0.0
 10
49.776295
 20
92.913475
 30
0.0
 10
50.102902
 20
92.124950
 30
0.0
 10
50.102884
 20
91.302755
 30
0.0
  0
SPLINE
  5
17a
100
AcDbEntity
  8
Layer_1
 62
7
100
AcDbSpline
 70
8
 71
3
 72
8
 73
4
 74
0
 40
0
 40
0
 40
0
 40
0
 40
1
 40
1
 40
1
 40
1
 10
50.102884
 20
91.302755
 30
0.0
 10
50.102902
 20
90.480560
 30
0.0
 10
49.776294
 20
89.692036
 30
0.0
 10
49.194915
 20
89.110656
 30
0.0
  0
SPLINE
  5
17b
100
AcDbEntity
  8
Layer_1
 62
7
100
AcDbSpline
 70
8
 71
3
 72
8
 73
4
 74
0
 40
0
 40
0
 40
0
 40
0
 40
1
 40
1
 40
1
 40
1
 10
49.194915
 20
89.110656
 30
0.0
 10
48.613535
 20
88.529277
 30
0.0
 10
47.825011
 20
88.202670
 30
0.0
 10
47.002816
 20
88.202688
 30
0.0
  0
SPLINE
  5
17c
100
AcDbEntity
  8
Layer_1
 62
7
100
AcDbSpline
 70
8
 71
3
 72
8
 73
4
 74
0
 40
0
 40
0
 40
0
 40
0
 40
1
 40
1
 40
1
 40
1
 10
47.002816
 20
88.202688
 30
0.0
 10
46.180621
 20
88.202669
 30
0.0
 10
45.392096
 20
88.529276
 30
0.0
 10
44.810716
 20
89.110656
 30
0.0
  0
SPLINE
  5
17d
100
AcDbEntity
  8
Layer_1
 62
7
100
AcDbSpline
 70
8
 71
3
 72
8
 73
4
 74
0
 40
0
 40
0
 40
0
 40
0
 40
1
 40
1
 40
1
 40
1
 10
44.810716
 20
89.110656
 30
0.0
 10
44.229336
 20
89.692035
 30
0.0
 10
43.902728
 20
90.480560
 30
0.0
 10
43.902746
 20
91.302755
 30
0.0
  0
SPLINE
  5
17e
100
AcDbEntity
  8
Layer_1
 62
7
100
AcDbSpline
 70
8
 71
3
 72
8
 73
4
 74
0
 40
0
 40
0
 40
0
 40
0
 40
1
 40
1
 40
1
 40
1
 10
43.902746
 20
91.302755
 30
0.0
 10
43.902728
 20
92.124950
 30
0.0
 10
44.229335
 20
92.913476
 30
0.0
 10
44.810715
 20
93.494856
 30
0.0
  0
SPLINE
  5
17f
100
AcDbEntity
  8
Layer_1
 62
7
100
AcDbSpline
 70
8
 71
3
 72
8
 73
4
 74
0
 40
0
 40
0
 40
0
 40
0
 40
1
 40
1
 40
1
 40
1
 10
44.810715
 20
93.494856
 30
0.0
 10
45.392095
 20
94.076236
 30
0.0
 10
46.180621
 20
94.402844
 30
0.0
 10
47.002816
 20
94.402825
 30
0.0
  0
LWPOLYLINE
  5
180
100
AcDbEntity
  8
Layer_1
 62
7
100
AcDbPolyline
 90
1
 70
1
 10
13.982609
 20
94.402825
 30
0.0
  0
SPLINE
  5
181
100
AcDbEntity
  8
Layer_1
 62
7
100
AcDbSpline
 70
8
 71
3
 72
8
 73
4
 74
0
 40
0
 40
0
 40
0
 40
0
 40
1
 40
1
 40
1
 40
1
 10
80.022507
 20
94.402825
 30
0.0
 10
80.844702
 20
94.402843
 30
0.0
 10
81.633227
 20
94.076235
 30
0.0
 10
82.214606
 20
93.494855
 30
0.0
  0
SPLINE
  5
182
100
AcDbEntity
  8
Layer_1
 62
7
100
AcDbSpline
 70
8
 71
3
 72
8
 73
4
 74
0
 40
0
 40
0
 40
0
 40
0
 40
1
 40
1
 40
1
 40
1
 10
82.214606
 20
93.494855
 30
0.0
 10
82.795985
 20
92.913475
 30
0.0
 10
83.122593
 20
92.124950
 30
0.0
 10
83.122574
 20
91.302755
 30
0.0
  0
SPLINE
  5
183
100
AcDbEntity
  8
Layer_1
 62
7
100
AcDbSpline
 70
8
 71
3
 72
8
 73
4
 74
0
 40
0
 40
0
 40
0
 40
0
 40
1
 40
1
 40
1
 40
1
 10
83.122574
 20
91.302755
 30
0.0
 10
83.122592
 20
90.480560
 30
0.0
 10
82.795984
 20
89.692036
 30
0.0
 10
82.214605
 20
89.110656
 30
0.0
  0
SPLINE
  5
184
100
AcDbEntity
  8
Layer_1
 62
7
100
AcDbSpline
 70
8
 71
3
 72
8
 73
4
 74
0
 40
0
 40
0
 40
0
 40
0
 40
1
 40
1
 40
1
 40
1
 10
82.214605
 20
89.110656
 30
0.0
 10
81.633226
 20
88.529277
 30
0.0
 10
80.844701
 20
88.202670
 30
0.0
 10
80.022507
 20
88.202688
 30
0.0
  0
SPLINE
  5
185
100
AcDbEntity
  8
Layer_1
 62
7
100
AcDbSpline
 70
8
 71
3
 72
8
 73
4
 74
0
 40
0
 40
0
 40
0
 40
0
 40
1
 40
1
 40
1
 40
1
 10
80.022507
 20
88.202688
 30
0.0
 10
78.310572
 20
88.202934
 30
0.0
 10
76.922915
 20
89.590820
 30
0.0
 10
76.922953
 20
91.302755
 30
0.0
  0
SPLINE
  5
186
100
AcDbEntity
  8
Layer_1
 62
7
100
AcDbSpline
 70
8
 71
3
 72
8
 73
4
 74
0
 40
0
 40
0
 40
0
 40
0
 40
1
 40
1
 40
1
 40
1
 10
76.922953
 20
91.302755
 30
0.0
 10
76.922914
 20
93.014691
 30
0.0
 10
78.310571
 20
94.402579
 30
0.0
 10
80.022507
 20
94.402825
 30
0.0
  0
LWPOLYLINE
  5
187
100
AcDbEntity
  8
Layer_1
 62
7
100
AcDbPolyline
 90
1
 70
1
 10
47.002816
 20
94.402825
 30
0.0
  0
LWPOLYLINE
  5
188
100
AcDbEntity
  8
Layer_1
 62
7
100
AcDbPolyline
 90
1
 70
1
 10
80.022507
 20
94.402825
 30
0.0
  0
ENDSEC
  0
SECTION
  2
OBJECTS
  0
DICTIONARY
  5
C
330
0
100
AcDbDictionary
  3
ACAD_GROUP
350
D
  3
ACAD_MLINESTYLE
350
17
  0
DICTIONARY
  5
D
330
C
100
AcDbDictionary
  0
DICTIONARY
  5
1A
330
C
100
AcDbDictionary
  0
DICTIONARY
  5
17
330
C
100
AcDbDictionary
  3
STANDARD
350
18
  0
DICTIONARY
  5
19
330
C
100
AcDbDictionary
  0
ENDSEC
  0
EOF
