  0
SECTION
  2
HEADER
  9
$ACADVER
  1
AC1014
  9
$HANDSEED
  5
FFFF
  9
$INSUNITS
 70
     4
  9
$MEASUREMENT
 70
     1
  0
ENDSEC
  0
SECTION
  2
TABLES
  0
TABLE
  2
VPORT
  5
8
330
0
100
AcDbSymbolTable
 70
     4
  0
VPORT
  5
2E
330
8
100
AcDbSymbolTableRecord
100
AcDbViewportTableRecord
  2
*ACTIVE
 70
     0
 10
0.0
 20
0.0
 11
1.0
 21
1.0
 12
210.0
 22
148.5
 13
0.0
 23
0.0
 14
10.0
 24
10.0
 15
10.0
 25
10.0
 16
0.0
 26
0.0
 36
1.0
 17
0.0
 27
0.0
 37
0.0
 40
341.0
 41
1.24
 42
50.0
 43
0.0
 44
0.0
 50
0.0
 51
0.0
 71
     0
 72
   100
 73
     1
 74
     3
 75
     0
 76
     0
 77
     0
 78
     0
  0
ENDTAB
  0
TABLE
  2
LTYPE
  5
5
330
0
100
AcDbSymbolTable
 70
     1
  0
LTYPE
  5
14
330
5
100
AcDbSymbolTableRecord
100
AcDbLinetypeTableRecord
  2
BYBLOCK
 70
     0
  3

 72
    65
 73
     0
 40
0.0
  0
LTYPE
  5
15
330
5
100
AcDbSymbolTableRecord
100
AcDbLinetypeTableRecord
  2
BYLAYER
 70
     0
  3

 72
    65
 73
     0
 40
0.0
  0
LTYPE
  5
16
330
5
100
AcDbSymbolTableRecord
100
AcDbLinetypeTableRecord
  2
CONTINUOUS
 70
     0
  3
Solid line
 72
    65
 73
     0
 40
0.0
  0
ENDTAB
  0
TABLE
  2
LAYER
  5
2
100
AcDbSymbolTable
 70
2
  0
LAYER
  5
50
100
AcDbSymbolTableRecord
100
AcDbLayerTableRecord
  2
0
 70
0
  6
CONTINUOUS
  0
LAYER
  5
51
100
AcDbSymbolTableRecord
100
AcDbLayerTableRecord
  2
Layer_1
 70
0
  6
CONTINUOUS
  0
ENDTAB
  0
TABLE
  2
STYLE
  5
3
330
0
100
AcDbSymbolTable
 70
     1
  0
STYLE
  5
11
330
3
100
AcDbSymbolTableRecord
100
AcDbTextStyleTableRecord
  2
STANDARD
 70
     0
 40
0.0
 41
1.0
 50
0.0
 71
     0
 42
2.5
  3
txt
  4

  0
ENDTAB
  0
TABLE
  2
VIEW
  5
6
330
0
100
AcDbSymbolTable
 70
     0
  0
ENDTAB
  0
TABLE
  2
UCS
  5
7
330
0
100
AcDbSymbolTable
 70
     0
  0
ENDTAB
  0
TABLE
  2
APPID
  5
9
330
0
100
AcDbSymbolTable
 70
     2
  0
APPID
  5
12
330
9
100
AcDbSymbolTableRecord
100
AcDbRegAppTableRecord
  2
ACAD
 70
     0
  0
ENDTAB
  0
TABLE
  2
DIMSTYLE
  5
A
330
0
100
AcDbSymbolTable
 70
     1
  0
DIMSTYLE
105
27
330
A
100
AcDbSymbolTableRecord
100
AcDbDimStyleTableRecord
  2
ISO-25
 70
     0
  3

  4

  5

  6

  7

 40
1.0
 41
2.5
 42
0.625
 43
3.75
 44
1.25
 45
0.0
 46
0.0
 47
0.0
 48
0.0
140
2.5
141
2.5
142
0.0
143
0.03937007874016
144
1.0
145
0.0
146
1.0
147
0.625
 71
     0
 72
     0
 73
     0
 74
     0
 75
     0
 76
     0
 77
     1
 78
     8
170
     0
171
     3
172
     1
173
     0
174
     0
175
     0
176
     0
177
     0
178
     0
270
     2
271
     2
272
     2
273
     2
274
     3
340
11
275
     0
280
     0
281
     0
282
     0
283
     0
284
     8
285
     0
286
     0
287
     3
288
     0
  0
ENDTAB
  0
TABLE
  2
BLOCK_RECORD
  5
1
330
0
100
AcDbSymbolTable
 70
     1
  0
BLOCK_RECORD
  5
1F
330
1
100
AcDbSymbolTableRecord
100
AcDbBlockTableRecord
  2
*MODEL_SPACE
  0
BLOCK_RECORD
  5
1B
330
1
100
AcDbSymbolTableRecord
100
AcDbBlockTableRecord
  2
*PAPER_SPACE
  0
ENDTAB
  0
ENDSEC
  0
SECTION
  2
BLOCKS
  0
BLOCK
  5
20
330
1F
100
AcDbEntity
  8
0
100
AcDbBlockBegin
  2
*MODEL_SPACE
 70
     0
 10
0.0
 20
0.0
 30
0.0
  3
*MODEL_SPACE
  1

  0
ENDBLK
  5
21
330
1F
100
AcDbEntity
  8
0
100
AcDbBlockEnd
  0
BLOCK
  5
1C
330
1B
100
AcDbEntity
 67
     1
  8
0
100
AcDbBlockBegin
  2
*PAPER_SPACE
  1

  0
ENDBLK
  5
1D
330
1B
100
AcDbEntity
 67
     1
  8
0
100
AcDbBlockEnd
  0
ENDSEC
  0
SECTION
  2
ENTITIES
  0
SPLINE
  5
100
100
AcDbEntity
  8
Layer_1
 62
7
100
AcDbSpline
 70
8
 71
3
 72
8
 73
4
 74
0
 40
0
 40
0
 40
0
 40
0
 40
1
 40
1
 40
1
 40
1
 10
32.470889
 20
23.530027
 30
0.0
 10
29.818670
 20
23.530141
 30
0.0
 10
27.275038
 20
22.476638
 30
0.0
 10
25.399587
 20
20.601286
 30
0.0
  0
SPLINE
  5
101
100
AcDbEntity
  8
Layer_1
 62
7
100
AcDbSpline
 70
8
 71
3
 72
8
 73
4
 74
0
 40
0
 40
0
 40
0
 40
0
 40
1
 40
1
 40
1
 40
1
 10
25.399587
 20
20.601286
 30
0.0
 10
23.524135
 20
18.725934
 30
0.0
 10
22.470498
 20
16.182358
 30
0.0
 10
22.470472
 20
13.530139
 30
0.0
  0
SPLINE
  5
102
100
AcDbEntity
  8
Layer_1
 62
7
100
AcDbSpline
 70
8
 71
3
 72
8
 73
4
 74
0
 40
0
 40
0
 40
0
 40
0
 40
1
 40
1
 40
1
 40
1
 10
22.470472
 20
13.530139
 30
0.0
 10
22.470495
 20
10.877918
 30
0.0
 10
23.524131
 20
8.334340
 30
0.0
 10
25.399583
 20
6.458985
 30
0.0
  0
SPLINE
  5
103
100
AcDbEntity
  8
Layer_1
 62
7
100
AcDbSpline
 70
8
 71
3
 72
8
 73
4
 74
0
 40
0
 40
0
 40
0
 40
0
 40
1
 40
1
 40
1
 40
1
 10
25.399583
 20
6.458985
 30
0.0
 10
27.275035
 20
4.583631
 30
0.0
 10
29.818668
 20
3.530126
 30
0.0
 10
32.470889
 20
3.530240
 30
0.0
  0
SPLINE
  5
104
100
AcDbEntity
  8
Layer_1
 62
7
100
AcDbSpline
 70
8
 71
3
 72
8
 73
4
 74
0
 40
0
 40
0
 40
0
 40
0
 40
1
 40
1
 40
1
 40
1
 10
32.470889
 20
3.530240
 30
0.0
 10
37.993656
 20
3.530295
 30
0.0
 10
42.470728
 20
8.007372
 30
0.0
 10
42.470777
 20
13.530139
 30
0.0
  0
SPLINE
  5
105
100
AcDbEntity
  8
Layer_1
 62
7
100
AcDbSpline
 70
8
 71
3
 72
8
 73
4
 74
0
 40
0
 40
0
 40
0
 40
0
 40
1
 40
1
 40
1
 40
1
 10
42.470777
 20
13.530139
 30
0.0
 10
42.470722
 20
19.052902
 30
0.0
 10
37.993652
 20
23.529973
 30
0.0
 10
32.470889
 20
23.530027
 30
0.0
  0
SPLINE
  5
106
100
AcDbEntity
  8
Layer_1
 62
7
100
AcDbSpline
 70
8
 71
3
 72
8
 73
4
 74
0
 40
0
 40
0
 40
0
 40
0
 40
1
 40
1
 40
1
 40
1
 10
32.470889
 20
19.030052
 30
0.0
 10
35.508385
 20
19.030009
 30
0.0
 10
37.970752
 20
16.567646
 30
0.0
 10
37.970802
 20
13.530150
 30
0.0
  0
SPLINE
  5
107
100
AcDbEntity
  8
Layer_1
 62
7
100
AcDbSpline
 70
8
 71
3
 72
8
 73
4
 74
0
 40
0
 40
0
 40
0
 40
0
 40
1
 40
1
 40
1
 40
1
 10
37.970802
 20
13.530150
 30
0.0
 10
37.970764
 20
10.492645
 30
0.0
 10
35.508393
 20
8.030269
 30
0.0
 10
32.470889
 20
8.030226
 30
0.0
  0
SPLINE
  5
108
100
AcDbEntity
  8
Layer_1
 62
7
100
AcDbSpline
 70
8
 71
3
 72
8
 73
4
 74
0
 40
0
 40
0
 40
0
 40
0
 40
1
 40
1
 40
1
 40
1
 10
32.470889
 20
8.030226
 30
0.0
 10
31.012134
 20
8.030106
 30
0.0
 10
29.613084
 20
8.609506
 30
0.0
 10
28.581540
 20
9.640953
 30
0.0
  0
SPLINE
  5
109
100
AcDbEntity
  8
Layer_1
 62
7
100
AcDbSpline
 70
8
 71
3
 72
8
 73
4
 74
0
 40
0
 40
0
 40
0
 40
0
 40
1
 40
1
 40
1
 40
1
 10
28.581540
 20
9.640953
 30
0.0
 10
27.549996
 20
10.672400
 30
0.0
 10
26.970465
 20
12.071395
 30
0.0
 10
26.970446
 20
13.530150
 30
0.0
  0
SPLINE
  5
10a
100
AcDbEntity
  8
Layer_1
 62
7
100
AcDbSpline
 70
8
 71
3
 72
8
 73
4
 74
0
 40
0
 40
0
 40
0
 40
0
 40
1
 40
1
 40
1
 40
1
 10
26.970446
 20
13.530150
 30
0.0
 10
26.970470
 20
14.988901
 30
0.0
 10
27.550004
 20
16.387891
 30
0.0
 10
28.581548
 20
17.419333
 30
0.0
  0
SPLINE
  5
10b
100
AcDbEntity
  8
Layer_1
 62
7
100
AcDbSpline
 70
8
 71
3
 72
8
 73
4
 74
0
 40
0
 40
0
 40
0
 40
0
 40
1
 40
1
 40
1
 40
1
 10
28.581548
 20
17.419333
 30
0.0
 10
29.613091
 20
18.450775
 30
0.0
 10
31.012138
 20
19.030172
 30
0.0
 10
32.470889
 20
19.030052
 30
0.0
  0
LWPOLYLINE
  5
10c
100
AcDbEntity
  8
Layer_1
 62
7
100
AcDbPolyline
 90
1
 70
1
 10
32.470889
 20
23.530027
 30
0.0
  0
SPLINE
  5
10d
100
AcDbEntity
  8
Layer_1
 62
7
100
AcDbSpline
 70
8
 71
3
 72
8
 73
4
 74
0
 40
0
 40
0
 40
0
 40
0
 40
1
 40
1
 40
1
 40
1
 10
23.580371
 20
112.180056
 30
0.0
 10
22.678618
 20
112.180000
 30
0.0
 10
21.813823
 20
111.821720
 30
0.0
 10
21.176236
 20
111.184036
 30
0.0
  0
SPLINE
  5
10e
100
AcDbEntity
  8
Layer_1
 62
7
100
AcDbSpline
 70
8
 71
3
 72
8
 73
4
 74
0
 40
0
 40
0
 40
0
 40
0
 40
1
 40
1
 40
1
 40
1
 10
21.176236
 20
111.184036
 30
0.0
 10
20.538650
 20
110.546352
 30
0.0
 10
20.180503
 20
109.681502
 30
0.0
 10
20.180585
 20
108.779749
 30
0.0
  0
SPLINE
  5
10f
100
AcDbEntity
  8
Layer_1
 62
7
100
AcDbSpline
 70
8
 71
3
 72
8
 73
4
 74
0
 40
0
 40
0
 40
0
 40
0
 40
1
 40
1
 40
1
 40
1
 10
20.180585
 20
108.779749
 30
0.0
 10
20.180695
 20
106.902143
 30
0.0
 10
21.702765
 20
105.380069
 30
0.0
 10
23.580371
 20
105.379953
 30
0.0
  0
SPLINE
  5
110
100
AcDbEntity
  8
Layer_1
 62
7
100
AcDbSpline
 70
8
 71
3
 72
8
 73
4
 74
0
 40
0
 40
0
 40
0
 40
0
 40
1
 40
1
 40
1
 40
1
 10
23.580371
 20
105.379953
 30
0.0
 10
24.482126
 20
105.379868
 30
0.0
 10
25.346980
 20
105.738016
 30
0.0
 10
25.984667
 20
106.375605
 30
0.0
  0
SPLINE
  5
111
100
AcDbEntity
  8
Layer_1
 62
7
100
AcDbSpline
 70
8
 71
3
 72
8
 73
4
 74
0
 40
0
 40
0
 40
0
 40
0
 40
1
 40
1
 40
1
 40
1
 10
25.984667
 20
106.375605
 30
0.0
 10
26.622353
 20
107.013194
 30
0.0
 10
26.980633
 20
107.877994
 30
0.0
 10
26.980686
 20
108.779749
 30
0.0
  0
SPLINE
  5
112
100
AcDbEntity
  8
Layer_1
 62
7
100
AcDbSpline
 70
8
 71
3
 72
8
 73
4
 74
0
 40
0
 40
0
 40
0
 40
0
 40
1
 40
1
 40
1
 40
1
 10
26.980686
 20
108.779749
 30
0.0
 10
26.980768
 20
109.681593
 30
0.0
 10
26.622548
 20
110.546524
 30
0.0
 10
25.984847
 20
111.184223
 30
0.0
  0
SPLINE
  5
113
100
AcDbEntity
  8
Layer_1
 62
7
100
AcDbSpline
 70
8
 71
3
 72
8
 73
4
 74
0
 40
0
 40
0
 40
0
 40
0
 40
1
 40
1
 40
1
 40
1
 10
25.984847
 20
111.184223
 30
0.0
 10
25.347146
 20
111.821923
 30
0.0
 10
24.482215
 20
112.180141
 30
0.0
 10
23.580371
 20
112.180056
 30
0.0
  0
LWPOLYLINE
  5
114
100
AcDbEntity
  8
Layer_1
 62
7
100
AcDbPolyline
 90
1
 70
1
 10
32.470889
 20
19.030052
 30
0.0
  0
SPLINE
  5
115
100
AcDbEntity
  8
Layer_1
 62
7
100
AcDbSpline
 70
8
 71
3
 72
8
 73
4
 74
0
 40
0
 40
0
 40
0
 40
0
 40
1
 40
1
 40
1
 40
1
 10
23.580371
 20
109.779688
 30
0.0
 10
23.845658
 20
109.779812
 30
0.0
 10
24.100123
 20
109.674519
 30
0.0
 10
24.287759
 20
109.486982
 30
0.0
  0
SPLINE
  5
116
100
AcDbEntity
  8
Layer_1
 62
7
100
AcDbSpline
 70
8
 71
3
 72
8
 73
4
 74
0
 40
0
 40
0
 40
0
 40
0
 40
1
 40
1
 40
1
 40
1
 10
24.287759
 20
109.486982
 30
0.0
 10
24.475394
 20
109.299445
 30
0.0
 10
24.580822
 20
109.045036
 30
0.0
 10
24.580838
 20
108.779749
 30
0.0
  0
SPLINE
  5
117
100
AcDbEntity
  8
Layer_1
 62
7
100
AcDbSpline
 70
8
 71
3
 72
8
 73
4
 74
0
 40
0
 40
0
 40
0
 40
0
 40
1
 40
1
 40
1
 40
1
 10
24.580838
 20
108.779749
 30
0.0
 10
24.580822
 20
108.514462
 30
0.0
 10
24.475394
 20
108.260053
 30
0.0
 10
24.287759
 20
108.072516
 30
0.0
  0
SPLINE
  5
118
100
AcDbEntity
  8
Layer_1
 62
7
100
AcDbSpline
 70
8
 71
3
 72
8
 73
4
 74
0
 40
0
 40
0
 40
0
 40
0
 40
1
 40
1
 40
1
 40
1
 10
24.287759
 20
108.072516
 30
0.0
 10
24.100123
 20
107.884980
 30
0.0
 10
23.845658
 20
107.779686
 30
0.0
 10
23.580371
 20
107.779811
 30
0.0
  0
SPLINE
  5
119
100
AcDbEntity
  8
Layer_1
 62
7
100
AcDbSpline
 70
8
 71
3
 72
8
 73
4
 74
0
 40
0
 40
0
 40
0
 40
0
 40
1
 40
1
 40
1
 40
1
 10
23.580371
 20
107.779811
 30
0.0
 10
23.028134
 20
107.779844
 30
0.0
 10
22.580465
 20
108.227512
 30
0.0
 10
22.580432
 20
108.779749
 30
0.0
  0
SPLINE
  5
11a
100
AcDbEntity
  8
Layer_1
 62
7
100
AcDbSpline
 70
8
 71
3
 72
8
 73
4
 74
0
 40
0
 40
0
 40
0
 40
0
 40
1
 40
1
 40
1
 40
1
 10
22.580432
 20
108.779749
 30
0.0
 10
22.580465
 20
109.331986
 30
0.0
 10
23.028134
 20
109.779654
 30
0.0
 10
23.580371
 20
109.779688
 30
0.0
  0
LWPOLYLINE
  5
11b
100
AcDbEntity
  8
Layer_1
 62
7
100
AcDbPolyline
 90
1
 70
1
 10
23.580371
 20
112.180056
 30
0.0
  0
SPLINE
  5
11c
100
AcDbEntity
  8
Layer_1
 62
7
100
AcDbSpline
 70
8
 71
3
 72
8
 73
4
 74
0
 40
0
 40
0
 40
0
 40
0
 40
1
 40
1
 40
1
 40
1
 10
41.360348
 20
112.180056
 30
0.0
 10
40.458596
 20
112.180000
 30
0.0
 10
39.593800
 20
111.821720
 30
0.0
 10
38.956214
 20
111.184036
 30
0.0
  0
SPLINE
  5
11d
100
AcDbEntity
  8
Layer_1
 62
7
100
AcDbSpline
 70
8
 71
3
 72
8
 73
4
 74
0
 40
0
 40
0
 40
0
 40
0
 40
1
 40
1
 40
1
 40
1
 10
38.956214
 20
111.184036
 30
0.0
 10
38.318628
 20
110.546352
 30
0.0
 10
37.960480
 20
109.681502
 30
0.0
 10
37.960563
 20
108.779749
 30
0.0
  0
SPLINE
  5
11e
100
AcDbEntity
  8
Layer_1
 62
7
100
AcDbSpline
 70
8
 71
3
 72
8
 73
4
 74
0
 40
0
 40
0
 40
0
 40
0
 40
1
 40
1
 40
1
 40
1
 10
37.960563
 20
108.779749
 30
0.0
 10
37.960673
 20
106.902143
 30
0.0
 10
39.482742
 20
105.380069
 30
0.0
 10
41.360348
 20
105.379953
 30
0.0
  0
SPLINE
  5
11f
100
AcDbEntity
  8
Layer_1
 62
7
100
AcDbSpline
 70
8
 71
3
 72
8
 73
4
 74
0
 40
0
 40
0
 40
0
 40
0
 40
1
 40
1
 40
1
 40
1
 10
41.360348
 20
105.379953
 30
0.0
 10
42.262104
 20
105.379868
 30
0.0
 10
43.126958
 20
105.738016
 30
0.0
 10
43.764644
 20
106.375605
 30
0.0
  0
SPLINE
  5
120
100
AcDbEntity
  8
Layer_1
 62
7
100
AcDbSpline
 70
8
 71
3
 72
8
 73
4
 74
0
 40
0
 40
0
 40
0
 40
0
 40
1
 40
1
 40
1
 40
1
 10
43.764644
 20
106.375605
 30
0.0
 10
44.402330
 20
107.013194
 30
0.0
 10
44.760610
 20
107.877994
 30
0.0
 10
44.760663
 20
108.779749
 30
0.0
  0
SPLINE
  5
121
100
AcDbEntity
  8
Layer_1
 62
7
100
AcDbSpline
 70
8
 71
3
 72
8
 73
4
 74
0
 40
0
 40
0
 40
0
 40
0
 40
1
 40
1
 40
1
 40
1
 10
44.760663
 20
108.779749
 30
0.0
 10
44.760746
 20
109.681593
 30
0.0
 10
44.402526
 20
110.546524
 30
0.0
 10
43.764825
 20
111.184223
 30
0.0
  0
SPLINE
  5
122
100
AcDbEntity
  8
Layer_1
 62
7
100
AcDbSpline
 70
8
 71
3
 72
8
 73
4
 74
0
 40
0
 40
0
 40
0
 40
0
 40
1
 40
1
 40
1
 40
1
 10
43.764825
 20
111.184223
 30
0.0
 10
43.127124
 20
111.821923
 30
0.0
 10
42.262192
 20
112.180141
 30
0.0
 10
41.360348
 20
112.180056
 30
0.0
  0
LWPOLYLINE
  5
123
100
AcDbEntity
  8
Layer_1
 62
7
100
AcDbPolyline
 90
1
 70
1
 10
23.580371
 20
109.779688
 30
0.0
  0
SPLINE
  5
124
100
AcDbEntity
  8
Layer_1
 62
7
100
AcDbSpline
 70
8
 71
3
 72
8
 73
4
 74
0
 40
0
 40
0
 40
0
 40
0
 40
1
 40
1
 40
1
 40
1
 10
41.360348
 20
109.779688
 30
0.0
 10
41.625635
 20
109.779812
 30
0.0
 10
41.880100
 20
109.674519
 30
0.0
 10
42.067736
 20
109.486982
 30
0.0
  0
SPLINE
  5
125
100
AcDbEntity
  8
Layer_1
 62
7
100
AcDbSpline
 70
8
 71
3
 72
8
 73
4
 74
0
 40
0
 40
0
 40
0
 40
0
 40
1
 40
1
 40
1
 40
1
 10
42.067736
 20
109.486982
 30
0.0
 10
42.255372
 20
109.299445
 30
0.0
 10
42.360800
 20
109.045036
 30
0.0
 10
42.360816
 20
108.779749
 30
0.0
  0
SPLINE
  5
126
100
AcDbEntity
  8
Layer_1
 62
7
100
AcDbSpline
 70
8
 71
3
 72
8
 73
4
 74
0
 40
0
 40
0
 40
0
 40
0
 40
1
 40
1
 40
1
 40
1
 10
42.360816
 20
108.779749
 30
0.0
 10
42.360800
 20
108.514462
 30
0.0
 10
42.255372
 20
108.260053
 30
0.0
 10
42.067736
 20
108.072516
 30
0.0
  0
SPLINE
  5
127
100
AcDbEntity
  8
Layer_1
 62
7
100
AcDbSpline
 70
8
 71
3
 72
8
 73
4
 74
0
 40
0
 40
0
 40
0
 40
0
 40
1
 40
1
 40
1
 40
1
 10
42.067736
 20
108.072516
 30
0.0
 10
41.880100
 20
107.884980
 30
0.0
 10
41.625635
 20
107.779686
 30
0.0
 10
41.360348
 20
107.779811
 30
0.0
  0
SPLINE
  5
128
100
AcDbEntity
  8
Layer_1
 62
7
100
AcDbSpline
 70
8
 71
3
 72
8
 73
4
 74
0
 40
0
 40
0
 40
0
 40
0
 40
1
 40
1
 40
1
 40
1
 10
41.360348
 20
107.779811
 30
0.0
 10
40.808111
 20
107.779844
 30
0.0
 10
40.360443
 20
108.227512
 30
0.0
 10
40.360410
 20
108.779749
 30
0.0
  0
SPLINE
  5
129
100
AcDbEntity
  8
Layer_1
 62
7
100
AcDbSpline
 70
8
 71
3
 72
8
 73
4
 74
0
 40
0
 40
0
 40
0
 40
0
 40
1
 40
1
 40
1
 40
1
 10
40.360410
 20
108.779749
 30
0.0
 10
40.360443
 20
109.331986
 30
0.0
 10
40.808111
 20
109.779654
 30
0.0
 10
41.360348
 20
109.779688
 30
0.0
  0
LWPOLYLINE
  5
12a
100
AcDbEntity
  8
Layer_1
 62
7
100
AcDbPolyline
 90
1
 70
1
 10
41.360348
 20
112.180056
 30
0.0
  0
SPLINE
  5
12b
100
AcDbEntity
  8
Layer_1
 62
7
100
AcDbSpline
 70
8
 71
3
 72
8
 73
4
 74
0
 40
0
 40
0
 40
0
 40
0
 40
1
 40
1
 40
1
 40
1
 10
13.420384
 20
104.839375
 30
0.0
 10
12.818404
 20
104.839375
 30
0.0
 10
12.216795
 20
104.754473
 30
0.0
 10
11.632887
 20
104.584614
 30
0.0
  0
LWPOLYLINE
  5
12c
100
AcDbEntity
  8
Layer_1
 62
7
100
AcDbPolyline
 90
1
 70
1
 10
41.360348
 20
109.779688
 30
0.0
  0
SPLINE
  5
12d
100
AcDbEntity
  8
Layer_1
 62
7
100
AcDbSpline
 70
8
 71
3
 72
8
 73
4
 74
0
 40
0
 40
0
 40
0
 40
0
 40
1
 40
1
 40
1
 40
1
 10
4.345478
 20
102.472598
 30
0.0
 10
0.982548
 20
101.497330
 30
0.0
 10
0.201526
 20
97.087173
 30
0.0
 10
3.025156
 20
95.016737
 30
0.0
  0
LWPOLYLINE
  5
12e
100
AcDbEntity
  8
Layer_1
 62
7
100
AcDbPolyline
 90
2
 70
0
 10
11.632887
 20
104.584614
 30
0.0
 10
4.345478
 20
102.472598
 30
0.0
  0
SPLINE
  5
12f
100
AcDbEntity
  8
Layer_1
 62
7
100
AcDbSpline
 70
8
 71
3
 72
8
 73
4
 74
0
 40
0
 40
0
 40
0
 40
0
 40
1
 40
1
 40
1
 40
1
 10
22.075132
 20
81.046545
 30
0.0
 10
28.422266
 20
77.025328
 30
0.0
 10
36.518982
 20
77.025328
 30
0.0
 10
42.866090
 20
81.046545
 30
0.0
  0
LWPOLYLINE
  5
130
100
AcDbEntity
  8
Layer_1
 62
7
100
AcDbPolyline
 90
2
 70
0
 10
3.025156
 20
95.016737
 30
0.0
 10
22.075132
 20
81.046545
 30
0.0
  0
SPLINE
  5
131
100
AcDbEntity
  8
Layer_1
 62
7
100
AcDbSpline
 70
8
 71
3
 72
8
 73
4
 74
0
 40
0
 40
0
 40
0
 40
0
 40
1
 40
1
 40
1
 40
1
 10
61.916066
 20
95.016737
 30
0.0
 10
64.739722
 20
97.087183
 30
0.0
 10
63.958700
 20
101.497359
 30
0.0
 10
60.595718
 20
102.472598
 30
0.0
  0
LWPOLYLINE
  5
132
100
AcDbEntity
  8
Layer_1
 62
7
100
AcDbPolyline
 90
2
 70
0
 10
42.866090
 20
81.046545
 30
0.0
 10
61.916066
 20
95.016737
 30
0.0
  0
SPLINE
  5
133
100
AcDbEntity
  8
Layer_1
 62
7
100
AcDbSpline
 70
8
 71
3
 72
8
 73
4
 74
0
 40
0
 40
0
 40
0
 40
0
 40
1
 40
1
 40
1
 40
1
 10
53.308335
 20
104.585124
 30
0.0
 10
52.140492
 20
104.923764
 30
0.0
 10
50.900656
 20
104.923764
 30
0.0
 10
49.732839
 20
104.585124
 30
0.0
  0
LWPOLYLINE
  5
134
100
AcDbEntity
  8
Layer_1
 62
7
100
AcDbPolyline
 90
2
 70
0
 10
60.595718
 20
102.472598
 30
0.0
 10
53.308335
 20
104.585124
 30
0.0
  0
SPLINE
  5
135
100
AcDbEntity
  8
Layer_1
 62
7
100
AcDbSpline
 70
8
 71
3
 72
8
 73
4
 74
0
 40
0
 40
0
 40
0
 40
0
 40
1
 40
1
 40
1
 40
1
 10
42.445430
 20
102.473628
 30
0.0
 10
40.641688
 20
101.950507
 30
0.0
 10
39.400661
 20
100.298200
 30
0.0
 10
39.400661
 20
98.420142
 30
0.0
  0
LWPOLYLINE
  5
136
100
AcDbEntity
  8
Layer_1
 62
7
100
AcDbPolyline
 90
2
 70
0
 10
49.732839
 20
104.585124
 30
0.0
 10
42.445430
 20
102.473628
 30
0.0
  0
SPLINE
  5
137
100
AcDbEntity
  8
Layer_1
 62
7
100
AcDbSpline
 70
8
 71
3
 72
8
 73
4
 74
0
 40
0
 40
0
 40
0
 40
0
 40
1
 40
1
 40
1
 40
1
 10
39.400661
 20
94.089659
 30
0.0
 10
39.400661
 20
92.311630
 30
0.0
 10
37.959081
 20
90.869192
 30
0.0
 10
36.180713
 20
90.869192
 30
0.0
  0
LWPOLYLINE
  5
138
100
AcDbEntity
  8
Layer_1
 62
7
100
AcDbPolyline
 90
2
 70
0
 10
39.400661
 20
98.420142
 30
0.0
 10
39.400661
 20
94.089659
 30
0.0
  0
SPLINE
  5
139
100
AcDbEntity
  8
Layer_1
 62
7
100
AcDbSpline
 70
8
 71
3
 72
8
 73
4
 74
0
 40
0
 40
0
 40
0
 40
0
 40
1
 40
1
 40
1
 40
1
 10
28.760509
 20
90.869192
 30
0.0
 10
26.982141
 20
90.869192
 30
0.0
 10
25.540534
 20
92.311439
 30
0.0
 10
25.540560
 20
94.089138
 30
0.0
  0
LWPOLYLINE
  5
13a
100
AcDbEntity
  8
Layer_1
 62
7
100
AcDbPolyline
 90
2
 70
0
 10
36.180713
 20
90.869192
 30
0.0
 10
28.760509
 20
90.869192
 30
0.0
  0
SPLINE
  5
13b
100
AcDbEntity
  8
Layer_1
 62
7
100
AcDbSpline
 70
8
 71
3
 72
8
 73
4
 74
0
 40
0
 40
0
 40
0
 40
0
 40
1
 40
1
 40
1
 40
1
 10
25.540560
 20
98.419623
 30
0.0
 10
25.540560
 20
100.297710
 30
0.0
 10
24.299507
 20
101.949989
 30
0.0
 10
22.495766
 20
102.473117
 30
0.0
  0
LWPOLYLINE
  5
13c
100
AcDbEntity
  8
Layer_1
 62
7
100
AcDbPolyline
 90
2
 70
0
 10
25.540560
 20
94.089138
 30
0.0
 10
25.540560
 20
98.419623
 30
0.0
  0
SPLINE
  5
13d
100
AcDbEntity
  8
Layer_1
 62
7
100
AcDbSpline
 70
8
 71
3
 72
8
 73
4
 74
0
 40
0
 40
0
 40
0
 40
0
 40
1
 40
1
 40
1
 40
1
 10
15.208383
 20
104.584614
 30
0.0
 10
14.624448
 20
104.754434
 30
0.0
 10
14.022336
 20
104.839375
 30
0.0
 10
13.420384
 20
104.839375
 30
0.0
  0
LWPOLYLINE
  5
13e
100
AcDbEntity
  8
Layer_1
 62
7
100
AcDbPolyline
 90
2
 70
0
 10
22.495766
 20
102.473117
 30
0.0
 10
15.208383
 20
104.584614
 30
0.0
  0
SPLINE
  5
13f
100
AcDbEntity
  8
Layer_1
 62
7
100
AcDbSpline
 70
8
 71
3
 72
8
 73
4
 74
0
 40
0
 40
0
 40
0
 40
0
 40
1
 40
1
 40
1
 40
1
 10
13.188873
 20
101.510897
 30
0.0
 10
14.048861
 20
101.575321
 30
0.0
 10
14.896815
 20
101.278595
 30
0.0
 10
15.528995
 20
100.692014
 30
0.0
  0
SPLINE
  5
140
100
AcDbEntity
  8
Layer_1
 62
7
100
AcDbSpline
 70
8
 71
3
 72
8
 73
4
 74
0
 40
0
 40
0
 40
0
 40
0
 40
1
 40
1
 40
1
 40
1
 10
15.528995
 20
100.692014
 30
0.0
 10
16.161174
 20
100.105432
 30
0.0
 10
16.520433
 20
99.282020
 30
0.0
 10
16.520450
 20
98.419623
 30
0.0
  0
SPLINE
  5
141
100
AcDbEntity
  8
Layer_1
 62
7
100
AcDbSpline
 70
8
 71
3
 72
8
 73
4
 74
0
 40
0
 40
0
 40
0
 40
0
 40
1
 40
1
 40
1
 40
1
 10
16.520450
 20
98.419623
 30
0.0
 10
16.520449
 20
96.707504
 30
0.0
 10
15.132503
 20
95.319558
 30
0.0
 10
13.420384
 20
95.319558
 30
0.0
  0
SPLINE
  5
142
100
AcDbEntity
  8
Layer_1
 62
7
100
AcDbSpline
 70
8
 71
3
 72
8
 73
4
 74
0
 40
0
 40
0
 40
0
 40
0
 40
1
 40
1
 40
1
 40
1
 10
13.420384
 20
95.319558
 30
0.0
 10
11.708265
 20
95.319558
 30
0.0
 10
10.320318
 20
96.707504
 30
0.0
 10
10.320317
 20
98.419623
 30
0.0
  0
SPLINE
  5
143
100
AcDbEntity
  8
Layer_1
 62
7
100
AcDbSpline
 70
8
 71
3
 72
8
 73
4
 74
0
 40
0
 40
0
 40
0
 40
0
 40
1
 40
1
 40
1
 40
1
 10
10.320317
 20
98.419623
 30
0.0
 10
10.320354
 20
100.041894
 30
0.0
 10
11.571130
 20
101.389782
 30
0.0
 10
13.188873
 20
101.510897
 30
0.0
  0
LWPOLYLINE
  5
144
100
AcDbEntity
  8
Layer_1
 62
7
100
AcDbPolyline
 90
1
 70
1
 10
13.420384
 20
104.839375
 30
0.0
  0
SPLINE
  5
145
100
AcDbEntity
  8
Layer_1
 62
7
100
AcDbSpline
 70
8
 71
3
 72
8
 73
4
 74
0
 40
0
 40
0
 40
0
 40
0
 40
1
 40
1
 40
1
 40
1
 10
51.288825
 20
101.510897
 30
0.0
 10
52.148813
 20
101.575321
 30
0.0
 10
52.996767
 20
101.278595
 30
0.0
 10
53.628947
 20
100.692014
 30
0.0
  0
SPLINE
  5
146
100
AcDbEntity
  8
Layer_1
 62
7
100
AcDbSpline
 70
8
 71
3
 72
8
 73
4
 74
0
 40
0
 40
0
 40
0
 40
0
 40
1
 40
1
 40
1
 40
1
 10
53.628947
 20
100.692014
 30
0.0
 10
54.261126
 20
100.105432
 30
0.0
 10
54.620385
 20
99.282020
 30
0.0
 10
54.620402
 20
98.419623
 30
0.0
  0
SPLINE
  5
147
100
AcDbEntity
  8
Layer_1
 62
7
100
AcDbSpline
 70
8
 71
3
 72
8
 73
4
 74
0
 40
0
 40
0
 40
0
 40
0
 40
1
 40
1
 40
1
 40
1
 10
54.620402
 20
98.419623
 30
0.0
 10
54.620402
 20
97.312077
 30
0.0
 10
54.029532
 20
96.288661
 30
0.0
 10
53.070369
 20
95.734887
 30
0.0
  0
SPLINE
  5
148
100
AcDbEntity
  8
Layer_1
 62
7
100
AcDbSpline
 70
8
 71
3
 72
8
 73
4
 74
0
 40
0
 40
0
 40
0
 40
0
 40
1
 40
1
 40
1
 40
1
 10
53.070369
 20
95.734887
 30
0.0
 10
52.111205
 20
95.181114
 30
0.0
 10
50.929466
 20
95.181114
 30
0.0
 10
49.970303
 20
95.734887
 30
0.0
  0
SPLINE
  5
149
100
AcDbEntity
  8
Layer_1
 62
7
100
AcDbSpline
 70
8
 71
3
 72
8
 73
4
 74
0
 40
0
 40
0
 40
0
 40
0
 40
1
 40
1
 40
1
 40
1
 10
49.970303
 20
95.734887
 30
0.0
 10
49.011139
 20
96.288661
 30
0.0
 10
48.420269
 20
97.312077
 30
0.0
 10
48.420269
 20
98.419623
 30
0.0
  0
SPLINE
  5
14a
100
AcDbEntity
  8
Layer_1
 62
7
100
AcDbSpline
 70
8
 71
3
 72
8
 73
4
 74
0
 40
0
 40
0
 40
0
 40
0
 40
1
 40
1
 40
1
 40
1
 10
48.420269
 20
98.419623
 30
0.0
 10
48.420306
 20
100.041894
 30
0.0
 10
49.671082
 20
101.389782
 30
0.0
 10
51.288825
 20
101.510897
 30
0.0
  0
LWPOLYLINE
  5
14b
100
AcDbEntity
  8
Layer_1
 62
7
100
AcDbPolyline
 90
1
 70
1
 10
13.188873
 20
101.510897
 30
0.0
  0
SPLINE
  5
14c
100
AcDbEntity
  8
Layer_1
 62
7
100
AcDbSpline
 70
8
 71
3
 72
8
 73
4
 74
0
 40
0
 40
0
 40
0
 40
0
 40
1
 40
1
 40
1
 40
1
 10
32.238849
 20
87.540717
 30
0.0
 10
33.098839
 20
87.605141
 30
0.0
 10
33.946796
 20
87.308412
 30
0.0
 10
34.578976
 20
86.721828
 30
0.0
  0
SPLINE
  5
14d
100
AcDbEntity
  8
Layer_1
 62
7
100
AcDbSpline
 70
8
 71
3
 72
8
 73
4
 74
0
 40
0
 40
0
 40
0
 40
0
 40
1
 40
1
 40
1
 40
1
 10
34.578976
 20
86.721828
 30
0.0
 10
35.211155
 20
86.135244
 30
0.0
 10
35.570413
 20
85.311829
 30
0.0
 10
35.570426
 20
84.449429
 30
0.0
  0
SPLINE
  5
14e
100
AcDbEntity
  8
Layer_1
 62
7
100
AcDbSpline
 70
8
 71
3
 72
8
 73
4
 74
0
 40
0
 40
0
 40
0
 40
0
 40
1
 40
1
 40
1
 40
1
 10
35.570426
 20
84.449429
 30
0.0
 10
35.570426
 20
83.341882
 30
0.0
 10
34.979556
 20
82.318467
 30
0.0
 10
34.020393
 20
81.764693
 30
0.0
  0
SPLINE
  5
14f
100
AcDbEntity
  8
Layer_1
 62
7
100
AcDbSpline
 70
8
 71
3
 72
8
 73
4
 74
0
 40
0
 40
0
 40
0
 40
0
 40
1
 40
1
 40
1
 40
1
 10
34.020393
 20
81.764693
 30
0.0
 10
33.061229
 20
81.210920
 30
0.0
 10
31.879490
 20
81.210920
 30
0.0
 10
30.920327
 20
81.764693
 30
0.0
  0
SPLINE
  5
150
100
AcDbEntity
  8
Layer_1
 62
7
100
AcDbSpline
 70
8
 71
3
 72
8
 73
4
 74
0
 40
0
 40
0
 40
0
 40
0
 40
1
 40
1
 40
1
 40
1
 10
30.920327
 20
81.764693
 30
0.0
 10
29.961163
 20
82.318467
 30
0.0
 10
29.370293
 20
83.341882
 30
0.0
 10
29.370293
 20
84.449429
 30
0.0
  0
SPLINE
  5
151
100
AcDbEntity
  8
Layer_1
 62
7
100
AcDbSpline
 70
8
 71
3
 72
8
 73
4
 74
0
 40
0
 40
0
 40
0
 40
0
 40
1
 40
1
 40
1
 40
1
 10
29.370293
 20
84.449429
 30
0.0
 10
29.370324
 20
86.071705
 30
0.0
 10
30.621101
 20
87.419601
 30
0.0
 10
32.238849
 20
87.540717
 30
0.0
  0
LWPOLYLINE
  5
152
100
AcDbEntity
  8
Layer_1
 62
7
100
AcDbPolyline
 90
1
 70
1
 10
51.288825
 20
101.510897
 30
0.0
  0
SPLINE
  5
153
100
AcDbEntity
  8
Layer_1
 62
7
100
AcDbSpline
 70
8
 71
3
 72
8
 73
4
 74
0
 40
0
 40
0
 40
0
 40
0
 40
1
 40
1
 40
1
 40
1
 10
13.420384
 20
76.899419
 30
0.0
 10
12.818404
 20
76.899419
 30
0.0
 10
12.216795
 20
76.814519
 30
0.0
 10
11.632887
 20
76.644660
 30
0.0
  0
LWPOLYLINE
  5
154
100
AcDbEntity
  8
Layer_1
 62
7
100
AcDbPolyline
 90
1
 70
1
 10
32.238849
 20
87.540717
 30
0.0
  0
SPLINE
  5
155
100
AcDbEntity
  8
Layer_1
 62
7
100
AcDbSpline
 70
8
 71
3
 72
8
 73
4
 74
0
 40
0
 40
0
 40
0
 40
0
 40
1
 40
1
 40
1
 40
1
 10
4.345478
 20
74.532642
 30
0.0
 10
0.982548
 20
73.557373
 30
0.0
 10
0.201526
 20
69.147219
 30
0.0
 10
3.025156
 20
67.076783
 30
0.0
  0
LWPOLYLINE
  5
156
100
AcDbEntity
  8
Layer_1
 62
7
100
AcDbPolyline
 90
2
 70
0
 10
11.632887
 20
76.644660
 30
0.0
 10
4.345478
 20
74.532642
 30
0.0
  0
SPLINE
  5
157
100
AcDbEntity
  8
Layer_1
 62
7
100
AcDbSpline
 70
8
 71
3
 72
8
 73
4
 74
0
 40
0
 40
0
 40
0
 40
0
 40
1
 40
1
 40
1
 40
1
 10
22.075132
 20
53.106589
 30
0.0
 10
28.422266
 20
49.085374
 30
0.0
 10
36.518982
 20
49.085374
 30
0.0
 10
42.866090
 20
53.106589
 30
0.0
  0
LWPOLYLINE
  5
158
100
AcDbEntity
  8
Layer_1
 62
7
100
AcDbPolyline
 90
2
 70
0
 10
3.025156
 20
67.076783
 30
0.0
 10
22.075132
 20
53.106589
 30
0.0
  0
SPLINE
  5
159
100
AcDbEntity
  8
Layer_1
 62
7
100
AcDbSpline
 70
8
 71
3
 72
8
 73
4
 74
0
 40
0
 40
0
 40
0
 40
0
 40
1
 40
1
 40
1
 40
1
 10
61.916066
 20
67.076783
 30
0.0
 10
64.739722
 20
69.147229
 30
0.0
 10
63.958700
 20
73.557405
 30
0.0
 10
60.595718
 20
74.532642
 30
0.0
  0
LWPOLYLINE
  5
15a
100
AcDbEntity
  8
Layer_1
 62
7
100
AcDbPolyline
 90
2
 70
0
 10
42.866090
 20
53.106589
 30
0.0
 10
61.916066
 20
67.076783
 30
0.0
  0
SPLINE
  5
15b
100
AcDbEntity
  8
Layer_1
 62
7
100
AcDbSpline
 70
8
 71
3
 72
8
 73
4
 74
0
 40
0
 40
0
 40
0
 40
0
 40
1
 40
1
 40
1
 40
1
 10
53.308335
 20
76.645170
 30
0.0
 10
52.140492
 20
76.983810
 30
0.0
 10
50.900656
 20
76.983810
 30
0.0
 10
49.732839
 20
76.645170
 30
0.0
  0
LWPOLYLINE
  5
15c
100
AcDbEntity
  8
Layer_1
 62
7
100
AcDbPolyline
 90
2
 70
0
 10
60.595718
 20
74.532642
 30
0.0
 10
53.308335
 20
76.645170
 30
0.0
  0
SPLINE
  5
15d
100
AcDbEntity
  8
Layer_1
 62
7
100
AcDbSpline
 70
8
 71
3
 72
8
 73
4
 74
0
 40
0
 40
0
 40
0
 40
0
 40
1
 40
1
 40
1
 40
1
 10
42.445430
 20
74.533673
 30
0.0
 10
40.641714
 20
74.010553
 30
0.0
 10
39.400661
 20
72.358246
 30
0.0
 10
39.400661
 20
70.480188
 30
0.0
  0
LWPOLYLINE
  5
15e
100
AcDbEntity
  8
Layer_1
 62
7
100
AcDbPolyline
 90
2
 70
0
 10
49.732839
 20
76.645170
 30
0.0
 10
42.445430
 20
74.533673
 30
0.0
  0
SPLINE
  5
15f
100
AcDbEntity
  8
Layer_1
 62
7
100
AcDbSpline
 70
8
 71
3
 72
8
 73
4
 74
0
 40
0
 40
0
 40
0
 40
0
 40
1
 40
1
 40
1
 40
1
 10
39.400661
 20
66.149702
 30
0.0
 10
39.400661
 20
64.371675
 30
0.0
 10
37.959081
 20
62.929238
 30
0.0
 10
36.180713
 20
62.929238
 30
0.0
  0
LWPOLYLINE
  5
160
100
AcDbEntity
  8
Layer_1
 62
7
100
AcDbPolyline
 90
2
 70
0
 10
39.400661
 20
70.480188
 30
0.0
 10
39.400661
 20
66.149702
 30
0.0
  0
SPLINE
  5
161
100
AcDbEntity
  8
Layer_1
 62
7
100
AcDbSpline
 70
8
 71
3
 72
8
 73
4
 74
0
 40
0
 40
0
 40
0
 40
0
 40
1
 40
1
 40
1
 40
1
 10
28.760509
 20
62.929238
 30
0.0
 10
26.982141
 20
62.929238
 30
0.0
 10
25.540534
 20
64.371485
 30
0.0
 10
25.540560
 20
66.149184
 30
0.0
  0
LWPOLYLINE
  5
162
100
AcDbEntity
  8
Layer_1
 62
7
100
AcDbPolyline
 90
2
 70
0
 10
36.180713
 20
62.929238
 30
0.0
 10
28.760509
 20
62.929238
 30
0.0
  0
SPLINE
  5
163
100
AcDbEntity
  8
Layer_1
 62
7
100
AcDbSpline
 70
8
 71
3
 72
8
 73
4
 74
0
 40
0
 40
0
 40
0
 40
0
 40
1
 40
1
 40
1
 40
1
 10
25.540560
 20
70.479667
 30
0.0
 10
25.540560
 20
72.357756
 30
0.0
 10
24.299507
 20
74.010032
 30
0.0
 10
22.495766
 20
74.533163
 30
0.0
  0
LWPOLYLINE
  5
164
100
AcDbEntity
  8
Layer_1
 62
7
100
AcDbPolyline
 90
2
 70
0
 10
25.540560
 20
66.149184
 30
0.0
 10
25.540560
 20
70.479667
 30
0.0
  0
SPLINE
  5
165
100
AcDbEntity
  8
Layer_1
 62
7
100
AcDbSpline
 70
8
 71
3
 72
8
 73
4
 74
0
 40
0
 40
0
 40
0
 40
0
 40
1
 40
1
 40
1
 40
1
 10
15.208383
 20
76.644660
 30
0.0
 10
14.624448
 20
76.814479
 30
0.0
 10
14.022336
 20
76.899419
 30
0.0
 10
13.420384
 20
76.899419
 30
0.0
  0
LWPOLYLINE
  5
166
100
AcDbEntity
  8
Layer_1
 62
7
100
AcDbPolyline
 90
2
 70
0
 10
22.495766
 20
74.533163
 30
0.0
 10
15.208383
 20
76.644660
 30
0.0
  0
SPLINE
  5
167
100
AcDbEntity
  8
Layer_1
 62
7
100
AcDbSpline
 70
8
 71
3
 72
8
 73
4
 74
0
 40
0
 40
0
 40
0
 40
0
 40
1
 40
1
 40
1
 40
1
 10
13.188873
 20
73.570943
 30
0.0
 10
14.048861
 20
73.635367
 30
0.0
 10
14.896816
 20
73.338640
 30
0.0
 10
15.528996
 20
72.752058
 30
0.0
  0
SPLINE
  5
168
100
AcDbEntity
  8
Layer_1
 62
7
100
AcDbSpline
 70
8
 71
3
 72
8
 73
4
 74
0
 40
0
 40
0
 40
0
 40
0
 40
1
 40
1
 40
1
 40
1
 10
15.528996
 20
72.752058
 30
0.0
 10
16.161175
 20
72.165477
 30
0.0
 10
16.520434
 20
71.342064
 30
0.0
 10
16.520450
 20
70.479667
 30
0.0
  0
SPLINE
  5
169
100
AcDbEntity
  8
Layer_1
 62
7
100
AcDbSpline
 70
8
 71
3
 72
8
 73
4
 74
0
 40
0
 40
0
 40
0
 40
0
 40
1
 40
1
 40
1
 40
1
 10
16.520450
 20
70.479667
 30
0.0
 10
16.520450
 20
69.372120
 30
0.0
 10
15.929580
 20
68.348704
 30
0.0
 10
14.970417
 20
67.794931
 30
0.0
  0
SPLINE
  5
16a
100
AcDbEntity
  8
Layer_1
 62
7
100
AcDbSpline
 70
8
 71
3
 72
8
 73
4
 74
0
 40
0
 40
0
 40
0
 40
0
 40
1
 40
1
 40
1
 40
1
 10
14.970417
 20
67.794931
 30
0.0
 10
14.011253
 20
67.241157
 30
0.0
 10
12.829514
 20
67.241157
 30
0.0
 10
11.870351
 20
67.794931
 30
0.0
  0
SPLINE
  5
16b
100
AcDbEntity
  8
Layer_1
 62
7
100
AcDbSpline
 70
8
 71
3
 72
8
 73
4
 74
0
 40
0
 40
0
 40
0
 40
0
 40
1
 40
1
 40
1
 40
1
 10
11.870351
 20
67.794931
 30
0.0
 10
10.911187
 20
68.348704
 30
0.0
 10
10.320317
 20
69.372120
 30
0.0
 10
10.320317
 20
70.479667
 30
0.0
  0
SPLINE
  5
16c
100
AcDbEntity
  8
Layer_1
 62
7
100
AcDbSpline
 70
8
 71
3
 72
8
 73
4
 74
0
 40
0
 40
0
 40
0
 40
0
 40
1
 40
1
 40
1
 40
1
 10
10.320317
 20
70.479667
 30
0.0
 10
10.320353
 20
72.101938
 30
0.0
 10
11.571129
 20
73.449827
 30
0.0
 10
13.188873
 20
73.570943
 30
0.0
  0
LWPOLYLINE
  5
16d
100
AcDbEntity
  8
Layer_1
 62
7
100
AcDbPolyline
 90
1
 70
1
 10
13.420384
 20
76.899419
 30
0.0
  0
SPLINE
  5
16e
100
AcDbEntity
  8
Layer_1
 62
7
100
AcDbSpline
 70
8
 71
3
 72
8
 73
4
 74
0
 40
0
 40
0
 40
0
 40
0
 40
1
 40
1
 40
1
 40
1
 10
51.288825
 20
73.570943
 30
0.0
 10
52.148813
 20
73.635367
 30
0.0
 10
52.996768
 20
73.338640
 30
0.0
 10
53.628948
 20
72.752058
 30
0.0
  0
SPLINE
  5
16f
100
AcDbEntity
  8
Layer_1
 62
7
100
AcDbSpline
 70
8
 71
3
 72
8
 73
4
 74
0
 40
0
 40
0
 40
0
 40
0
 40
1
 40
1
 40
1
 40
1
 10
53.628948
 20
72.752058
 30
0.0
 10
54.261127
 20
72.165477
 30
0.0
 10
54.620386
 20
71.342064
 30
0.0
 10
54.620402
 20
70.479667
 30
0.0
  0
SPLINE
  5
170
100
AcDbEntity
  8
Layer_1
 62
7
100
AcDbSpline
 70
8
 71
3
 72
8
 73
4
 74
0
 40
0
 40
0
 40
0
 40
0
 40
1
 40
1
 40
1
 40
1
 10
54.620402
 20
70.479667
 30
0.0
 10
54.620402
 20
69.372120
 30
0.0
 10
54.029532
 20
68.348704
 30
0.0
 10
53.070369
 20
67.794931
 30
0.0
  0
SPLINE
  5
171
100
AcDbEntity
  8
Layer_1
 62
7
100
AcDbSpline
 70
8
 71
3
 72
8
 73
4
 74
0
 40
0
 40
0
 40
0
 40
0
 40
1
 40
1
 40
1
 40
1
 10
53.070369
 20
67.794931
 30
0.0
 10
52.111205
 20
67.241157
 30
0.0
 10
50.929466
 20
67.241157
 30
0.0
 10
49.970303
 20
67.794931
 30
0.0
  0
SPLINE
  5
172
100
AcDbEntity
  8
Layer_1
 62
7
100
AcDbSpline
 70
8
 71
3
 72
8
 73
4
 74
0
 40
0
 40
0
 40
0
 40
0
 40
1
 40
1
 40
1
 40
1
 10
49.970303
 20
67.794931
 30
0.0
 10
49.011139
 20
68.348704
 30
0.0
 10
48.420269
 20
69.372120
 30
0.0
 10
48.420269
 20
70.479667
 30
0.0
  0
SPLINE
  5
173
100
AcDbEntity
  8
Layer_1
 62
7
100
AcDbSpline
 70
8
 71
3
 72
8
 73
4
 74
0
 40
0
 40
0
 40
0
 40
0
 40
1
 40
1
 40
1
 40
1
 10
48.420269
 20
70.479667
 30
0.0
 10
48.420305
 20
72.101938
 30
0.0
 10
49.671081
 20
73.449827
 30
0.0
 10
51.288825
 20
73.570943
 30
0.0
  0
LWPOLYLINE
  5
174
100
AcDbEntity
  8
Layer_1
 62
7
100
AcDbPolyline
 90
1
 70
1
 10
13.188873
 20
73.570943
 30
0.0
  0
SPLINE
  5
175
100
AcDbEntity
  8
Layer_1
 62
7
100
AcDbSpline
 70
8
 71
3
 72
8
 73
4
 74
0
 40
0
 40
0
 40
0
 40
0
 40
1
 40
1
 40
1
 40
1
 10
32.238849
 20
59.600760
 30
0.0
 10
33.098838
 20
59.665184
 30
0.0
 10
33.946795
 20
59.368456
 30
0.0
 10
34.578975
 20
58.781872
 30
0.0
  0
SPLINE
  5
176
100
AcDbEntity
  8
Layer_1
 62
7
100
AcDbSpline
 70
8
 71
3
 72
8
 73
4
 74
0
 40
0
 40
0
 40
0
 40
0
 40
1
 40
1
 40
1
 40
1
 10
34.578975
 20
58.781872
 30
0.0
 10
35.211154
 20
58.195289
 30
0.0
 10
35.570412
 20
57.371874
 30
0.0
 10
35.570426
 20
56.509475
 30
0.0
  0
SPLINE
  5
177
100
AcDbEntity
  8
Layer_1
 62
7
100
AcDbSpline
 70
8
 71
3
 72
8
 73
4
 74
0
 40
0
 40
0
 40
0
 40
0
 40
1
 40
1
 40
1
 40
1
 10
35.570426
 20
56.509475
 30
0.0
 10
35.568845
 20
54.798474
 30
0.0
 10
34.181361
 20
53.412271
 30
0.0
 10
32.470360
 20
53.412271
 30
0.0
  0
SPLINE
  5
178
100
AcDbEntity
  8
Layer_1
 62
7
100
AcDbSpline
 70
8
 71
3
 72
8
 73
4
 74
0
 40
0
 40
0
 40
0
 40
0
 40
1
 40
1
 40
1
 40
1
 10
32.470360
 20
53.412271
 30
0.0
 10
30.759358
 20
53.412271
 30
0.0
 10
29.371874
 20
54.798474
 30
0.0
 10
29.370293
 20
56.509475
 30
0.0
  0
SPLINE
  5
179
100
AcDbEntity
  8
Layer_1
 62
7
100
AcDbSpline
 70
8
 71
3
 72
8
 73
4
 74
0
 40
0
 40
0
 40
0
 40
0
 40
1
 40
1
 40
1
 40
1
 10
29.370293
 20
56.509475
 30
0.0
 10
29.370325
 20
58.131750
 30
0.0
 10
30.621102
 20
59.479644
 30
0.0
 10
32.238849
 20
59.600760
 30
0.0
  0
LWPOLYLINE
  5
17a
100
AcDbEntity
  8
Layer_1
 62
7
100
AcDbPolyline
 90
1
 70
1
 10
51.288825
 20
73.570943
 30
0.0
  0
LWPOLYLINE
  5
17b
100
AcDbEntity
  8
Layer_1
 62
7
100
AcDbPolyline
 90
1
 70
1
 10
32.238849
 20
59.600760
 30
0.0
  0
ENDSEC
  0
SECTION
  2
OBJECTS
  0
DICTIONARY
  5
C
330
0
100
AcDbDictionary
  3
ACAD_GROUP
350
D
  3
ACAD_MLINESTYLE
350
17
  0
DICTIONARY
  5
D
330
C
100
AcDbDictionary
  0
DICTIONARY
  5
1A
330
C
100
AcDbDictionary
  0
DICTIONARY
  5
17
330
C
100
AcDbDictionary
  3
STANDARD
350
18
  0
DICTIONARY
  5
19
330
C
100
AcDbDictionary
  0
ENDSEC
  0
EOF
