G04 #@! TF.GenerationSoftware,KiCad,Pcbnew,5.1.6-c6e7f7d~87~ubuntu19.10.1*
G04 #@! TF.CreationDate,2021-07-04T18:41:33+06:00*
G04 #@! TF.ProjectId,distortion_+_r2a,64697374-6f72-4746-996f-6e5f2b5f7232,2A*
G04 #@! TF.SameCoordinates,Original*
G04 #@! TF.FileFunction,Soldermask,Bot*
G04 #@! TF.FilePolarity,Negative*
%FSLAX46Y46*%
G04 Gerber Fmt 4.6, Leading zero omitted, Abs format (unit mm)*
G04 Created by KiCad (PCBNEW 5.1.6-c6e7f7d~87~ubuntu19.10.1) date 2021-07-04 18:41:33*
%MOMM*%
%LPD*%
G01*
G04 APERTURE LIST*
%ADD10C,0.100000*%
G04 APERTURE END LIST*
D10*
G36*
X102110000Y-173340000D02*
G01*
X98710000Y-173340000D01*
X98710000Y-169940000D01*
X102110000Y-169940000D01*
X102110000Y-173340000D01*
G37*
G36*
X107110000Y-173340000D02*
G01*
X103710000Y-173340000D01*
X103710000Y-169940000D01*
X107110000Y-169940000D01*
X107110000Y-173340000D01*
G37*
G36*
X112110000Y-173340000D02*
G01*
X108710000Y-173340000D01*
X108710000Y-169940000D01*
X112110000Y-169940000D01*
X112110000Y-173340000D01*
G37*
G36*
X102110000Y-169340000D02*
G01*
X98710000Y-169340000D01*
X98710000Y-165940000D01*
X102110000Y-165940000D01*
X102110000Y-169340000D01*
G37*
G36*
X107110000Y-169340000D02*
G01*
X103710000Y-169340000D01*
X103710000Y-165940000D01*
X107110000Y-165940000D01*
X107110000Y-169340000D01*
G37*
G36*
X112110000Y-169340000D02*
G01*
X108710000Y-169340000D01*
X108710000Y-165940000D01*
X112110000Y-165940000D01*
X112110000Y-169340000D01*
G37*
G36*
X121850000Y-168840000D02*
G01*
X119450000Y-168840000D01*
X119450000Y-166440000D01*
X121850000Y-166440000D01*
X121850000Y-168840000D01*
G37*
G36*
X102110000Y-165340000D02*
G01*
X98710000Y-165340000D01*
X98710000Y-161940000D01*
X102110000Y-161940000D01*
X102110000Y-165340000D01*
G37*
G36*
X107110000Y-165340000D02*
G01*
X103710000Y-165340000D01*
X103710000Y-161940000D01*
X107110000Y-161940000D01*
X107110000Y-165340000D01*
G37*
G36*
X112110000Y-165340000D02*
G01*
X108710000Y-165340000D01*
X108710000Y-161940000D01*
X112110000Y-161940000D01*
X112110000Y-165340000D01*
G37*
G36*
X116770000Y-163760000D02*
G01*
X114370000Y-163760000D01*
X114370000Y-161360000D01*
X116770000Y-161360000D01*
X116770000Y-163760000D01*
G37*
G36*
X125660000Y-163760000D02*
G01*
X123260000Y-163760000D01*
X123260000Y-161360000D01*
X125660000Y-161360000D01*
X125660000Y-163760000D01*
G37*
G36*
X121850000Y-163760000D02*
G01*
X119450000Y-163760000D01*
X119450000Y-161360000D01*
X121850000Y-161360000D01*
X121850000Y-163760000D01*
G37*
G36*
X129780000Y-159810000D02*
G01*
X126380000Y-159810000D01*
X126380000Y-156410000D01*
X129780000Y-156410000D01*
X129780000Y-159810000D01*
G37*
G36*
X117080000Y-159810000D02*
G01*
X113680000Y-159810000D01*
X113680000Y-156410000D01*
X117080000Y-156410000D01*
X117080000Y-159810000D01*
G37*
G36*
X97140000Y-159810000D02*
G01*
X93740000Y-159810000D01*
X93740000Y-156410000D01*
X97140000Y-156410000D01*
X97140000Y-159810000D01*
G37*
G36*
X84440000Y-159810000D02*
G01*
X81040000Y-159810000D01*
X81040000Y-156410000D01*
X84440000Y-156410000D01*
X84440000Y-159810000D01*
G37*
G36*
X123430000Y-159810000D02*
G01*
X120030000Y-159810000D01*
X120030000Y-156410000D01*
X123430000Y-156410000D01*
X123430000Y-159810000D01*
G37*
G36*
X105760026Y-138546115D02*
G01*
X105978411Y-138636573D01*
X105978413Y-138636574D01*
X106174955Y-138767899D01*
X106342101Y-138935045D01*
X106473427Y-139131589D01*
X106563885Y-139349974D01*
X106610000Y-139581809D01*
X106610000Y-139818191D01*
X106563885Y-140050026D01*
X106473427Y-140268411D01*
X106342101Y-140464955D01*
X106174955Y-140632101D01*
X105978412Y-140763427D01*
X105891282Y-140799517D01*
X105869671Y-140811068D01*
X105850729Y-140826613D01*
X105835184Y-140845555D01*
X105823633Y-140867166D01*
X105816520Y-140890615D01*
X105814118Y-140915001D01*
X105816520Y-140939387D01*
X105823633Y-140962836D01*
X105835184Y-140984447D01*
X105850729Y-141003389D01*
X105869671Y-141018934D01*
X105891282Y-141030485D01*
X105914731Y-141037598D01*
X105939117Y-141040000D01*
X106610000Y-141040000D01*
X106610000Y-143440000D01*
X104210000Y-143440000D01*
X104210000Y-141040000D01*
X104880883Y-141040000D01*
X104905269Y-141037598D01*
X104928718Y-141030485D01*
X104950329Y-141018934D01*
X104969271Y-141003389D01*
X104984816Y-140984447D01*
X104996367Y-140962836D01*
X105003480Y-140939387D01*
X105005882Y-140915001D01*
X105003480Y-140890615D01*
X104996367Y-140867166D01*
X104984816Y-140845555D01*
X104969271Y-140826613D01*
X104950329Y-140811068D01*
X104928718Y-140799517D01*
X104841588Y-140763427D01*
X104645045Y-140632101D01*
X104477899Y-140464955D01*
X104346573Y-140268411D01*
X104256115Y-140050026D01*
X104210000Y-139818191D01*
X104210000Y-139581809D01*
X104256115Y-139349974D01*
X104346573Y-139131589D01*
X104477899Y-138935045D01*
X104645045Y-138767899D01*
X104841587Y-138636574D01*
X104841589Y-138636573D01*
X105059974Y-138546115D01*
X105291809Y-138500000D01*
X105528191Y-138500000D01*
X105760026Y-138546115D01*
G37*
G36*
X123430000Y-143310000D02*
G01*
X120030000Y-143310000D01*
X120030000Y-139910000D01*
X123430000Y-139910000D01*
X123430000Y-143310000D01*
G37*
G36*
X84440000Y-143310000D02*
G01*
X81040000Y-143310000D01*
X81040000Y-139910000D01*
X84440000Y-139910000D01*
X84440000Y-143310000D01*
G37*
G36*
X97140000Y-143310000D02*
G01*
X93740000Y-143310000D01*
X93740000Y-139910000D01*
X97140000Y-139910000D01*
X97140000Y-143310000D01*
G37*
G36*
X129780000Y-143310000D02*
G01*
X126380000Y-143310000D01*
X126380000Y-139910000D01*
X129780000Y-139910000D01*
X129780000Y-143310000D01*
G37*
G36*
X117080000Y-143310000D02*
G01*
X113680000Y-143310000D01*
X113680000Y-139910000D01*
X117080000Y-139910000D01*
X117080000Y-143310000D01*
G37*
G36*
X105340000Y-137090000D02*
G01*
X102940000Y-137090000D01*
X102940000Y-129610000D01*
X105340000Y-129610000D01*
X105340000Y-137090000D01*
G37*
G36*
X87560000Y-137090000D02*
G01*
X85160000Y-137090000D01*
X85160000Y-134690000D01*
X87560000Y-134690000D01*
X87560000Y-137090000D01*
G37*
G36*
X95180000Y-137090000D02*
G01*
X90240000Y-137090000D01*
X90240000Y-134690000D01*
X95180000Y-134690000D01*
X95180000Y-137090000D01*
G37*
G36*
X124390000Y-137090000D02*
G01*
X121990000Y-137090000D01*
X121990000Y-134690000D01*
X124390000Y-134690000D01*
X124390000Y-137090000D01*
G37*
G36*
X119310000Y-137090000D02*
G01*
X116910000Y-137090000D01*
X116910000Y-134690000D01*
X119310000Y-134690000D01*
X119310000Y-137090000D01*
G37*
G36*
X115500000Y-134550000D02*
G01*
X113100000Y-134550000D01*
X113100000Y-129610000D01*
X115500000Y-129610000D01*
X115500000Y-134550000D01*
G37*
G36*
X124390000Y-132010000D02*
G01*
X121990000Y-132010000D01*
X121990000Y-129610000D01*
X124390000Y-129610000D01*
X124390000Y-132010000D01*
G37*
G36*
X98990000Y-132010000D02*
G01*
X96590000Y-132010000D01*
X96590000Y-129610000D01*
X98990000Y-129610000D01*
X98990000Y-132010000D01*
G37*
G36*
X95180000Y-132010000D02*
G01*
X92780000Y-132010000D01*
X92780000Y-129610000D01*
X95180000Y-129610000D01*
X95180000Y-132010000D01*
G37*
G36*
X119310000Y-132010000D02*
G01*
X116910000Y-132010000D01*
X116910000Y-129610000D01*
X119310000Y-129610000D01*
X119310000Y-132010000D01*
G37*
G36*
X101950026Y-119496115D02*
G01*
X102168411Y-119586573D01*
X102168413Y-119586574D01*
X102364955Y-119717899D01*
X102532101Y-119885045D01*
X102663427Y-120081589D01*
X102753885Y-120299974D01*
X102800000Y-120531809D01*
X102800000Y-120768191D01*
X102753885Y-121000026D01*
X102663427Y-121218411D01*
X102532101Y-121414955D01*
X102364955Y-121582101D01*
X102168412Y-121713427D01*
X102081282Y-121749517D01*
X102059671Y-121761068D01*
X102040729Y-121776613D01*
X102025184Y-121795555D01*
X102013633Y-121817166D01*
X102006520Y-121840615D01*
X102004118Y-121865001D01*
X102006520Y-121889387D01*
X102013633Y-121912836D01*
X102025184Y-121934447D01*
X102040729Y-121953389D01*
X102059671Y-121968934D01*
X102081282Y-121980485D01*
X102104731Y-121987598D01*
X102129117Y-121990000D01*
X102800000Y-121990000D01*
X102800000Y-129470000D01*
X100400000Y-129470000D01*
X100400000Y-121990000D01*
X101070883Y-121990000D01*
X101095269Y-121987598D01*
X101118718Y-121980485D01*
X101140329Y-121968934D01*
X101159271Y-121953389D01*
X101174816Y-121934447D01*
X101186367Y-121912836D01*
X101193480Y-121889387D01*
X101195882Y-121865001D01*
X101193480Y-121840615D01*
X101186367Y-121817166D01*
X101174816Y-121795555D01*
X101159271Y-121776613D01*
X101140329Y-121761068D01*
X101118718Y-121749517D01*
X101031588Y-121713427D01*
X100835045Y-121582101D01*
X100667899Y-121414955D01*
X100536573Y-121218411D01*
X100446115Y-121000026D01*
X100400000Y-120768191D01*
X100400000Y-120531809D01*
X100446115Y-120299974D01*
X100536573Y-120081589D01*
X100667899Y-119885045D01*
X100835045Y-119717899D01*
X101031587Y-119586574D01*
X101031589Y-119586573D01*
X101249974Y-119496115D01*
X101481809Y-119450000D01*
X101718191Y-119450000D01*
X101950026Y-119496115D01*
G37*
G36*
X110420000Y-129470000D02*
G01*
X108020000Y-129470000D01*
X108020000Y-116910000D01*
X110420000Y-116910000D01*
X110420000Y-129470000D01*
G37*
G36*
X95180000Y-126930000D02*
G01*
X92780000Y-126930000D01*
X92780000Y-124530000D01*
X95180000Y-124530000D01*
X95180000Y-126930000D01*
G37*
G36*
X98990000Y-126930000D02*
G01*
X96590000Y-126930000D01*
X96590000Y-124530000D01*
X98990000Y-124530000D01*
X98990000Y-126930000D01*
G37*
G36*
X84170026Y-113146115D02*
G01*
X84388411Y-113236573D01*
X84388413Y-113236574D01*
X84584955Y-113367899D01*
X84752101Y-113535045D01*
X84883427Y-113731589D01*
X84973885Y-113949974D01*
X85020000Y-114181809D01*
X85020000Y-114418191D01*
X84973885Y-114650026D01*
X84883427Y-114868411D01*
X84752101Y-115064955D01*
X84584955Y-115232101D01*
X84388412Y-115363427D01*
X84301282Y-115399517D01*
X84279671Y-115411068D01*
X84260729Y-115426613D01*
X84245184Y-115445555D01*
X84233633Y-115467166D01*
X84226520Y-115490615D01*
X84224118Y-115515001D01*
X84226520Y-115539387D01*
X84233633Y-115562836D01*
X84245184Y-115584447D01*
X84260729Y-115603389D01*
X84279671Y-115618934D01*
X84301282Y-115630485D01*
X84324731Y-115637598D01*
X84349117Y-115640000D01*
X85020000Y-115640000D01*
X85020000Y-118055001D01*
X85022402Y-118079387D01*
X85029515Y-118102836D01*
X85041066Y-118124447D01*
X85056611Y-118143389D01*
X85075553Y-118158934D01*
X85097164Y-118170485D01*
X85120613Y-118177598D01*
X85144999Y-118180000D01*
X93450883Y-118180000D01*
X93475269Y-118177598D01*
X93498718Y-118170485D01*
X93520329Y-118158934D01*
X93539271Y-118143389D01*
X93554816Y-118124447D01*
X93566367Y-118102836D01*
X93573480Y-118079387D01*
X93575882Y-118055001D01*
X93573480Y-118030615D01*
X93566367Y-118007166D01*
X93554816Y-117985555D01*
X93539271Y-117966613D01*
X93520329Y-117951068D01*
X93498718Y-117939517D01*
X93411588Y-117903427D01*
X93215045Y-117772101D01*
X93047899Y-117604955D01*
X92916573Y-117408411D01*
X92826115Y-117190026D01*
X92780000Y-116958191D01*
X92780000Y-116721809D01*
X92826115Y-116489974D01*
X92916573Y-116271589D01*
X93047899Y-116075045D01*
X93215045Y-115907899D01*
X93411588Y-115776573D01*
X93498718Y-115740483D01*
X93520329Y-115728932D01*
X93539271Y-115713387D01*
X93554816Y-115694445D01*
X93566367Y-115672834D01*
X93573480Y-115649385D01*
X93575882Y-115624999D01*
X93573480Y-115600613D01*
X93566367Y-115577164D01*
X93554816Y-115555553D01*
X93539271Y-115536611D01*
X93520329Y-115521066D01*
X93498718Y-115509515D01*
X93475269Y-115502402D01*
X93450883Y-115500000D01*
X92780000Y-115500000D01*
X92780000Y-113100000D01*
X95180000Y-113100000D01*
X95180000Y-115500000D01*
X94509117Y-115500000D01*
X94484731Y-115502402D01*
X94461282Y-115509515D01*
X94439671Y-115521066D01*
X94420729Y-115536611D01*
X94405184Y-115555553D01*
X94393633Y-115577164D01*
X94386520Y-115600613D01*
X94384118Y-115624999D01*
X94386520Y-115649385D01*
X94393633Y-115672834D01*
X94405184Y-115694445D01*
X94420729Y-115713387D01*
X94439671Y-115728932D01*
X94461282Y-115740483D01*
X94548412Y-115776573D01*
X94744955Y-115907899D01*
X94912101Y-116075045D01*
X95043427Y-116271589D01*
X95133885Y-116489974D01*
X95180000Y-116721809D01*
X95180000Y-116958191D01*
X95133885Y-117190026D01*
X95043427Y-117408411D01*
X94912101Y-117604955D01*
X94744955Y-117772101D01*
X94548412Y-117903427D01*
X94461282Y-117939517D01*
X94439671Y-117951068D01*
X94420729Y-117966613D01*
X94405184Y-117985555D01*
X94393633Y-118007166D01*
X94386520Y-118030615D01*
X94384118Y-118055001D01*
X94386520Y-118079387D01*
X94393633Y-118102836D01*
X94405184Y-118124447D01*
X94420729Y-118143389D01*
X94439671Y-118158934D01*
X94461282Y-118170485D01*
X94484731Y-118177598D01*
X94509117Y-118180000D01*
X95180000Y-118180000D01*
X95180000Y-120580000D01*
X82620000Y-120580000D01*
X82620000Y-115640000D01*
X83290883Y-115640000D01*
X83315269Y-115637598D01*
X83338718Y-115630485D01*
X83360329Y-115618934D01*
X83379271Y-115603389D01*
X83394816Y-115584447D01*
X83406367Y-115562836D01*
X83413480Y-115539387D01*
X83415882Y-115515001D01*
X83413480Y-115490615D01*
X83406367Y-115467166D01*
X83394816Y-115445555D01*
X83379271Y-115426613D01*
X83360329Y-115411068D01*
X83338718Y-115399517D01*
X83251588Y-115363427D01*
X83055045Y-115232101D01*
X82887899Y-115064955D01*
X82756573Y-114868411D01*
X82666115Y-114650026D01*
X82620000Y-114418191D01*
X82620000Y-114181809D01*
X82666115Y-113949974D01*
X82756573Y-113731589D01*
X82887899Y-113535045D01*
X83055045Y-113367899D01*
X83251587Y-113236574D01*
X83251589Y-113236573D01*
X83469974Y-113146115D01*
X83701809Y-113100000D01*
X83938191Y-113100000D01*
X84170026Y-113146115D01*
G37*
G36*
X128200000Y-120580000D02*
G01*
X115640000Y-120580000D01*
X115640000Y-118180000D01*
X128200000Y-118180000D01*
X128200000Y-120580000D01*
G37*
G36*
X100260000Y-119310000D02*
G01*
X97860000Y-119310000D01*
X97860000Y-116910000D01*
X100260000Y-116910000D01*
X100260000Y-119310000D01*
G37*
G36*
X100260000Y-114230000D02*
G01*
X97860000Y-114230000D01*
X97860000Y-111830000D01*
X100260000Y-111830000D01*
X100260000Y-114230000D01*
G37*
G36*
X129470000Y-114230000D02*
G01*
X127070000Y-114230000D01*
X127070000Y-111830000D01*
X129470000Y-111830000D01*
X129470000Y-114230000D01*
G37*
G36*
X118040000Y-114230000D02*
G01*
X115640000Y-114230000D01*
X115640000Y-111830000D01*
X118040000Y-111830000D01*
X118040000Y-114230000D01*
G37*
G36*
X112960000Y-114230000D02*
G01*
X108020000Y-114230000D01*
X108020000Y-111830000D01*
X112960000Y-111830000D01*
X112960000Y-114230000D01*
G37*
G36*
X125660000Y-114230000D02*
G01*
X120720000Y-114230000D01*
X120720000Y-111830000D01*
X125660000Y-111830000D01*
X125660000Y-114230000D01*
G37*
G36*
X119730026Y-109336115D02*
G01*
X119948411Y-109426573D01*
X119948413Y-109426574D01*
X120144955Y-109557899D01*
X120312101Y-109725045D01*
X120443427Y-109921589D01*
X120533885Y-110139974D01*
X120580000Y-110371809D01*
X120580000Y-110608191D01*
X120533885Y-110840026D01*
X120443427Y-111058411D01*
X120443426Y-111058413D01*
X120312101Y-111254955D01*
X120144955Y-111422101D01*
X119948413Y-111553426D01*
X119948412Y-111553427D01*
X119948411Y-111553427D01*
X119730026Y-111643885D01*
X119498191Y-111690000D01*
X119261809Y-111690000D01*
X119029974Y-111643885D01*
X118811589Y-111553427D01*
X118811588Y-111553427D01*
X118811587Y-111553426D01*
X118615045Y-111422101D01*
X118447899Y-111254955D01*
X118316574Y-111058413D01*
X118316573Y-111058411D01*
X118226115Y-110840026D01*
X118180000Y-110608191D01*
X118180000Y-110371809D01*
X118226115Y-110139974D01*
X118316573Y-109921589D01*
X118447899Y-109725045D01*
X118615045Y-109557899D01*
X118811587Y-109426574D01*
X118811589Y-109426573D01*
X119029974Y-109336115D01*
X119261809Y-109290000D01*
X119498191Y-109290000D01*
X119730026Y-109336115D01*
G37*
G36*
X110660000Y-109890000D02*
G01*
X106760000Y-109890000D01*
X106760000Y-105990000D01*
X110660000Y-105990000D01*
X110660000Y-109890000D01*
G37*
G36*
X104060000Y-109890000D02*
G01*
X100160000Y-109890000D01*
X100160000Y-105990000D01*
X104060000Y-105990000D01*
X104060000Y-109890000D01*
G37*
G36*
X98990000Y-109150000D02*
G01*
X96590000Y-109150000D01*
X96590000Y-106750000D01*
X98990000Y-106750000D01*
X98990000Y-109150000D01*
G37*
G36*
X129470000Y-109150000D02*
G01*
X127070000Y-109150000D01*
X127070000Y-106750000D01*
X129470000Y-106750000D01*
X129470000Y-109150000D01*
G37*
G36*
X107360000Y-104290000D02*
G01*
X103460000Y-104290000D01*
X103460000Y-100390000D01*
X107360000Y-100390000D01*
X107360000Y-104290000D01*
G37*
G36*
X125660000Y-104070000D02*
G01*
X118180000Y-104070000D01*
X118180000Y-101670000D01*
X125660000Y-101670000D01*
X125660000Y-104070000D01*
G37*
G36*
X98990000Y-102800000D02*
G01*
X96590000Y-102800000D01*
X96590000Y-100400000D01*
X98990000Y-100400000D01*
X98990000Y-102800000D01*
G37*
G36*
X94330026Y-96636115D02*
G01*
X94548411Y-96726573D01*
X94548413Y-96726574D01*
X94744955Y-96857899D01*
X94912101Y-97025045D01*
X95043427Y-97221589D01*
X95133885Y-97439974D01*
X95180000Y-97671809D01*
X95180000Y-97908191D01*
X95133885Y-98140026D01*
X95043427Y-98358411D01*
X95043426Y-98358413D01*
X94912101Y-98554955D01*
X94744955Y-98722101D01*
X94548413Y-98853426D01*
X94548412Y-98853427D01*
X94548411Y-98853427D01*
X94330026Y-98943885D01*
X94098191Y-98990000D01*
X93861809Y-98990000D01*
X93629974Y-98943885D01*
X93411589Y-98853427D01*
X93411588Y-98853427D01*
X93411587Y-98853426D01*
X93215045Y-98722101D01*
X93047899Y-98554955D01*
X92916574Y-98358413D01*
X92916573Y-98358411D01*
X92826115Y-98140026D01*
X92780000Y-97908191D01*
X92780000Y-97671809D01*
X92826115Y-97439974D01*
X92916573Y-97221589D01*
X93047899Y-97025045D01*
X93215045Y-96857899D01*
X93411587Y-96726574D01*
X93411589Y-96726573D01*
X93629974Y-96636115D01*
X93861809Y-96590000D01*
X94098191Y-96590000D01*
X94330026Y-96636115D01*
G37*
G36*
X90100000Y-98990000D02*
G01*
X87700000Y-98990000D01*
X87700000Y-96590000D01*
X90100000Y-96590000D01*
X90100000Y-98990000D01*
G37*
G36*
X98990000Y-97720000D02*
G01*
X96590000Y-97720000D01*
X96590000Y-95320000D01*
X98990000Y-95320000D01*
X98990000Y-97720000D01*
G37*
M02*
