G04 #@! TF.GenerationSoftware,KiCad,Pcbnew,5.1.6-c6e7f7d~87~ubuntu19.10.1*
G04 #@! TF.CreationDate,2022-07-30T16:19:44+06:00*
G04 #@! TF.ProjectId,potentiometer_board_18_1x17_r1a,706f7465-6e74-4696-9f6d-657465725f62,1A*
G04 #@! TF.SameCoordinates,Original*
G04 #@! TF.FileFunction,Soldermask,Bot*
G04 #@! TF.FilePolarity,Negative*
%FSLAX46Y46*%
G04 Gerber Fmt 4.6, Leading zero omitted, Abs format (unit mm)*
G04 Created by KiCad (PCBNEW 5.1.6-c6e7f7d~87~ubuntu19.10.1) date 2022-07-30 16:19:44*
%MOMM*%
%LPD*%
G01*
G04 APERTURE LIST*
%ADD10C,1.700000*%
%ADD11C,0.100000*%
G04 APERTURE END LIST*
D10*
X110410000Y-142875000D02*
X110490000Y-144780000D01*
X105410000Y-142875000D02*
X105410000Y-144780000D01*
X100410000Y-142875000D02*
X100330000Y-144780000D01*
D11*
G36*
X103150000Y-149440000D02*
G01*
X100050000Y-149440000D01*
X100050000Y-147740000D01*
X103150000Y-147740000D01*
X103150000Y-149440000D01*
G37*
G36*
X110770000Y-149440000D02*
G01*
X107670000Y-149440000D01*
X107670000Y-147740000D01*
X110770000Y-147740000D01*
X110770000Y-149440000D01*
G37*
G36*
X103176274Y-143770350D02*
G01*
X103367362Y-143849502D01*
X103539336Y-143964411D01*
X103685589Y-144110664D01*
X103800498Y-144282638D01*
X103879650Y-144473726D01*
X103920000Y-144676584D01*
X103920000Y-144883416D01*
X103879650Y-145086274D01*
X103800498Y-145277362D01*
X103685589Y-145449336D01*
X103539336Y-145595589D01*
X103367362Y-145710498D01*
X103176274Y-145789650D01*
X102973416Y-145830000D01*
X102766584Y-145830000D01*
X102563726Y-145789650D01*
X102372638Y-145710498D01*
X102200664Y-145595589D01*
X102054411Y-145449336D01*
X101939502Y-145277362D01*
X101860350Y-145086274D01*
X101820000Y-144883416D01*
X101820000Y-144676584D01*
X101860350Y-144473726D01*
X101939502Y-144282638D01*
X102054411Y-144110664D01*
X102200664Y-143964411D01*
X102372638Y-143849502D01*
X102563726Y-143770350D01*
X102766584Y-143730000D01*
X102973416Y-143730000D01*
X103176274Y-143770350D01*
G37*
G36*
X100803780Y-141576880D02*
G01*
X100803782Y-141576881D01*
X100803783Y-141576881D01*
X101049467Y-141678646D01*
X101270574Y-141826385D01*
X101458615Y-142014426D01*
X101606354Y-142235533D01*
X101708119Y-142481217D01*
X101708120Y-142481220D01*
X101760000Y-142742037D01*
X101760000Y-143007963D01*
X101708120Y-143268780D01*
X101708119Y-143268783D01*
X101606354Y-143514467D01*
X101458615Y-143735574D01*
X101270576Y-143923613D01*
X101180906Y-143983529D01*
X101165753Y-143995965D01*
X101153317Y-144011119D01*
X101144076Y-144028407D01*
X101138385Y-144047166D01*
X101136464Y-144066675D01*
X101138386Y-144086184D01*
X101144076Y-144104943D01*
X101153311Y-144122221D01*
X101260498Y-144282638D01*
X101339650Y-144473726D01*
X101380000Y-144676584D01*
X101380000Y-144883416D01*
X101339650Y-145086274D01*
X101260498Y-145277362D01*
X101145589Y-145449336D01*
X100999336Y-145595589D01*
X100827362Y-145710498D01*
X100636274Y-145789650D01*
X100433416Y-145830000D01*
X100226584Y-145830000D01*
X100023726Y-145789650D01*
X99832638Y-145710498D01*
X99660664Y-145595589D01*
X99514411Y-145449336D01*
X99399502Y-145277362D01*
X99320350Y-145086274D01*
X99280000Y-144883416D01*
X99280000Y-144676584D01*
X99320350Y-144473726D01*
X99399502Y-144282638D01*
X99514411Y-144110664D01*
X99554743Y-144070332D01*
X99567170Y-144055189D01*
X99576411Y-144037901D01*
X99582102Y-144019142D01*
X99584023Y-143999633D01*
X99582102Y-143980124D01*
X99576411Y-143961365D01*
X99567170Y-143944077D01*
X99554734Y-143928923D01*
X99361385Y-143735574D01*
X99213646Y-143514467D01*
X99111881Y-143268783D01*
X99111880Y-143268780D01*
X99060000Y-143007963D01*
X99060000Y-142742037D01*
X99111880Y-142481220D01*
X99111881Y-142481217D01*
X99213646Y-142235533D01*
X99361385Y-142014426D01*
X99549426Y-141826385D01*
X99770533Y-141678646D01*
X100016217Y-141576881D01*
X100016218Y-141576881D01*
X100016220Y-141576880D01*
X100277037Y-141525000D01*
X100542963Y-141525000D01*
X100803780Y-141576880D01*
G37*
G36*
X105803780Y-141576880D02*
G01*
X105803782Y-141576881D01*
X105803783Y-141576881D01*
X106049467Y-141678646D01*
X106270574Y-141826385D01*
X106458615Y-142014426D01*
X106606354Y-142235533D01*
X106708119Y-142481217D01*
X106708120Y-142481220D01*
X106760000Y-142742037D01*
X106760000Y-143007963D01*
X106708120Y-143268780D01*
X106708119Y-143268783D01*
X106606354Y-143514467D01*
X106458615Y-143735574D01*
X106270576Y-143923613D01*
X106232792Y-143948860D01*
X106217639Y-143961297D01*
X106205202Y-143976450D01*
X106195962Y-143993739D01*
X106190271Y-144012498D01*
X106188350Y-144032007D01*
X106190272Y-144051516D01*
X106195962Y-144070275D01*
X106205203Y-144087563D01*
X106217630Y-144102705D01*
X106225589Y-144110664D01*
X106340498Y-144282638D01*
X106419650Y-144473726D01*
X106460000Y-144676584D01*
X106460000Y-144883416D01*
X106419650Y-145086274D01*
X106340498Y-145277362D01*
X106225589Y-145449336D01*
X106079336Y-145595589D01*
X105907362Y-145710498D01*
X105716274Y-145789650D01*
X105513416Y-145830000D01*
X105306584Y-145830000D01*
X105103726Y-145789650D01*
X104912638Y-145710498D01*
X104740664Y-145595589D01*
X104594411Y-145449336D01*
X104479502Y-145277362D01*
X104400350Y-145086274D01*
X104360000Y-144883416D01*
X104360000Y-144676584D01*
X104400350Y-144473726D01*
X104479502Y-144282638D01*
X104594411Y-144110664D01*
X104602370Y-144102705D01*
X104614797Y-144087562D01*
X104624038Y-144070274D01*
X104629729Y-144051515D01*
X104631650Y-144032006D01*
X104629729Y-144012497D01*
X104624038Y-143993738D01*
X104614797Y-143976450D01*
X104602361Y-143961296D01*
X104587208Y-143948860D01*
X104549424Y-143923613D01*
X104361385Y-143735574D01*
X104213646Y-143514467D01*
X104111881Y-143268783D01*
X104111880Y-143268780D01*
X104060000Y-143007963D01*
X104060000Y-142742037D01*
X104111880Y-142481220D01*
X104111881Y-142481217D01*
X104213646Y-142235533D01*
X104361385Y-142014426D01*
X104549426Y-141826385D01*
X104770533Y-141678646D01*
X105016217Y-141576881D01*
X105016218Y-141576881D01*
X105016220Y-141576880D01*
X105277037Y-141525000D01*
X105542963Y-141525000D01*
X105803780Y-141576880D01*
G37*
G36*
X108256274Y-143770350D02*
G01*
X108447362Y-143849502D01*
X108619336Y-143964411D01*
X108765589Y-144110664D01*
X108880498Y-144282638D01*
X108959650Y-144473726D01*
X109000000Y-144676584D01*
X109000000Y-144883416D01*
X108959650Y-145086274D01*
X108880498Y-145277362D01*
X108765589Y-145449336D01*
X108619336Y-145595589D01*
X108447362Y-145710498D01*
X108256274Y-145789650D01*
X108053416Y-145830000D01*
X107846584Y-145830000D01*
X107643726Y-145789650D01*
X107452638Y-145710498D01*
X107280664Y-145595589D01*
X107134411Y-145449336D01*
X107019502Y-145277362D01*
X106940350Y-145086274D01*
X106900000Y-144883416D01*
X106900000Y-144676584D01*
X106940350Y-144473726D01*
X107019502Y-144282638D01*
X107134411Y-144110664D01*
X107280664Y-143964411D01*
X107452638Y-143849502D01*
X107643726Y-143770350D01*
X107846584Y-143730000D01*
X108053416Y-143730000D01*
X108256274Y-143770350D01*
G37*
G36*
X110803780Y-141576880D02*
G01*
X110803782Y-141576881D01*
X110803783Y-141576881D01*
X111049467Y-141678646D01*
X111270574Y-141826385D01*
X111458615Y-142014426D01*
X111606354Y-142235533D01*
X111708119Y-142481217D01*
X111708120Y-142481220D01*
X111760000Y-142742037D01*
X111760000Y-143007963D01*
X111708120Y-143268780D01*
X111708119Y-143268783D01*
X111606354Y-143514467D01*
X111458615Y-143735574D01*
X111265266Y-143928923D01*
X111252830Y-143944077D01*
X111243589Y-143961365D01*
X111237898Y-143980124D01*
X111235977Y-143999633D01*
X111237898Y-144019142D01*
X111243589Y-144037901D01*
X111252830Y-144055189D01*
X111265257Y-144070332D01*
X111305589Y-144110664D01*
X111420498Y-144282638D01*
X111499650Y-144473726D01*
X111540000Y-144676584D01*
X111540000Y-144883416D01*
X111499650Y-145086274D01*
X111420498Y-145277362D01*
X111305589Y-145449336D01*
X111159336Y-145595589D01*
X110987362Y-145710498D01*
X110796274Y-145789650D01*
X110593416Y-145830000D01*
X110386584Y-145830000D01*
X110183726Y-145789650D01*
X109992638Y-145710498D01*
X109820664Y-145595589D01*
X109674411Y-145449336D01*
X109559502Y-145277362D01*
X109480350Y-145086274D01*
X109440000Y-144883416D01*
X109440000Y-144676584D01*
X109480350Y-144473726D01*
X109559502Y-144282638D01*
X109666689Y-144122221D01*
X109675924Y-144104943D01*
X109681614Y-144086184D01*
X109683536Y-144066675D01*
X109681615Y-144047166D01*
X109675924Y-144028407D01*
X109666683Y-144011119D01*
X109654247Y-143995965D01*
X109639094Y-143983529D01*
X109549424Y-143923613D01*
X109361385Y-143735574D01*
X109213646Y-143514467D01*
X109111881Y-143268783D01*
X109111880Y-143268780D01*
X109060000Y-143007963D01*
X109060000Y-142742037D01*
X109111880Y-142481220D01*
X109111881Y-142481217D01*
X109213646Y-142235533D01*
X109361385Y-142014426D01*
X109549426Y-141826385D01*
X109770533Y-141678646D01*
X110016217Y-141576881D01*
X110016218Y-141576881D01*
X110016220Y-141576880D01*
X110277037Y-141525000D01*
X110542963Y-141525000D01*
X110803780Y-141576880D01*
G37*
M02*
