<?xml version="1.0" encoding="UTF-8" standalone="no"?>
<!-- Created with Inkscape (http://www.inkscape.org/) -->

<svg
   xmlns:dc="http://purl.org/dc/elements/1.1/"
   xmlns:cc="http://creativecommons.org/ns#"
   xmlns:rdf="http://www.w3.org/1999/02/22-rdf-syntax-ns#"
   xmlns:svg="http://www.w3.org/2000/svg"
   xmlns="http://www.w3.org/2000/svg"
   xmlns:sodipodi="http://sodipodi.sourceforge.net/DTD/sodipodi-0.dtd"
   xmlns:inkscape="http://www.inkscape.org/namespaces/inkscape"
   width="63.599998mm"
   height="114.5mm"
   viewBox="0 0 63.599998 114.5"
   version="1.1"
   id="svg8"
   inkscape:version="0.92.5 (2060ec1f9f, 2020-04-08)"
   sodipodi:docname="big_muff_r2_bass_1.svg">
  <title
     id="title16">Big Muff [REV2] Bass V1</title>
  <defs
     id="defs2" />
  <sodipodi:namedview
     id="base"
     pagecolor="#ffffff"
     bordercolor="#666666"
     borderopacity="1.0"
     inkscape:pageopacity="0.0"
     inkscape:pageshadow="2"
     inkscape:zoom="0.7"
     inkscape:cx="-138.71871"
     inkscape:cy="203.58664"
     inkscape:document-units="mm"
     inkscape:current-layer="g3823"
     showgrid="false"
     inkscape:window-width="1600"
     inkscape:window-height="876"
     inkscape:window-x="0"
     inkscape:window-y="0"
     inkscape:window-maximized="0" />
  <metadata
     id="metadata5">
    <rdf:RDF>
      <cc:Work
         rdf:about="">
        <dc:format>image/svg+xml</dc:format>
        <dc:type
           rdf:resource="http://purl.org/dc/dcmitype/StillImage" />
        <dc:title>Big Muff [REV2] Bass V1</dc:title>
        <cc:license
           rdf:resource="http://creativecommons.org/licenses/by-sa/4.0/" />
        <dc:creator>
          <cc:Agent>
            <dc:title>Igor Ivanov</dc:title>
          </cc:Agent>
        </dc:creator>
        <dc:date>21.05.2021</dc:date>
      </cc:Work>
      <cc:License
         rdf:about="http://creativecommons.org/licenses/by-sa/4.0/">
        <cc:permits
           rdf:resource="http://creativecommons.org/ns#Reproduction" />
        <cc:permits
           rdf:resource="http://creativecommons.org/ns#Distribution" />
        <cc:requires
           rdf:resource="http://creativecommons.org/ns#Notice" />
        <cc:requires
           rdf:resource="http://creativecommons.org/ns#Attribution" />
        <cc:permits
           rdf:resource="http://creativecommons.org/ns#DerivativeWorks" />
        <cc:requires
           rdf:resource="http://creativecommons.org/ns#ShareAlike" />
      </cc:License>
    </rdf:RDF>
  </metadata>
  <g
     inkscape:label="Layer 1"
     inkscape:groupmode="layer"
     id="layer1"
     transform="translate(0,-182.5)">
    <g
       transform="matrix(0.00254,0,0,-0.00254,-73.607114,388.15928)"
       inkscape:label="big_muff_r2_bass_1"
       id="g3823">
      <g
         transform="translate(40494.1,78089.4)"
         id="g3833" />
      <path
         inkscape:connector-curvature="0"
         id="path3835"
         style="fill:none;stroke:#e2e2e2;stroke-width:196.8500061;stroke-linecap:round;stroke-linejoin:round;stroke-miterlimit:10;stroke-dasharray:none;stroke-opacity:1"
         d="m 39700.2,78145.7 v 899.9" />
      <path
         inkscape:connector-curvature="0"
         id="path3837"
         style="fill:none;stroke:#e2e2e2;stroke-width:196.8500061;stroke-linecap:round;stroke-linejoin:round;stroke-miterlimit:10;stroke-dasharray:none;stroke-opacity:1"
         d="m 39475.3,78820.6 224.9,225 225,-225" />
      <path
         inkscape:connector-curvature="0"
         id="path3839"
         style="fill:none;stroke:#e2e2e2;stroke-width:196.8500061;stroke-linecap:round;stroke-linejoin:round;stroke-miterlimit:10;stroke-dasharray:none;stroke-opacity:1"
         d="m 40768.8,78145.7 h 225 l 112.5,56.2 56.2,56.3 112.5,168.7 56.3,225 v 449.9 l -56.3,112.5 -56.2,56.3 -112.5,56.2 h -225 l -112.5,-56.2 -56.2,-56.3 -56.2,-112.5 v -281.2 l 56.2,-112.5 56.2,-56.2 112.5,-56.3 h 225 l 112.5,56.3 56.2,56.2 56.3,112.5" />
      <path
         inkscape:connector-curvature="0"
         id="path3841"
         style="fill:none;stroke:#e2e2e2;stroke-width:196.8500061;stroke-linecap:round;stroke-linejoin:round;stroke-miterlimit:10;stroke-dasharray:none;stroke-opacity:1"
         d="m 41668.7,79326.8 393.7,-1181.1 393.7,1181.1" />
      <path
         inkscape:connector-curvature="0"
         id="path3843"
         style="fill:none;stroke:#e2e2e2;stroke-width:196.8500061;stroke-linecap:round;stroke-linejoin:round;stroke-miterlimit:10;stroke-dasharray:none;stroke-opacity:1"
         d="m 43299.8,78145.7 v 899.9" />
      <path
         inkscape:connector-curvature="0"
         id="path3845"
         style="fill:none;stroke:#e2e2e2;stroke-width:196.8500061;stroke-linecap:round;stroke-linejoin:round;stroke-miterlimit:10;stroke-dasharray:none;stroke-opacity:1"
         d="m 43074.8,78820.6 225,225 224.9,-225" />
      <g
         transform="translate(30481.4,68589.4)"
         id="g3847" />
      <path
         inkscape:connector-curvature="0"
         id="path3849"
         style="fill:none;stroke:#e2e2e2;stroke-width:196.8500061;stroke-linecap:round;stroke-linejoin:round;stroke-miterlimit:10;stroke-dasharray:none;stroke-opacity:1"
         d="m 30681.7,69826.8 393.7,-1181.1 393.7,1181.1" />
      <path
         inkscape:connector-curvature="0"
         id="path3851"
         style="fill:none;stroke:#e2e2e2;stroke-width:196.8500061;stroke-linecap:round;stroke-linejoin:round;stroke-miterlimit:10;stroke-dasharray:none;stroke-opacity:1"
         d="m 32087.7,69826.8 h 225 l 112.5,-56.2 112.5,-112.5 56.2,-225 v -393.7 l -56.2,-225 -112.5,-112.5 -112.5,-56.2 h -225 l -112.4,56.2 -112.5,112.5 -56.3,225 v 393.7 l 56.3,225 112.5,112.5 112.4,56.2" />
      <path
         inkscape:connector-curvature="0"
         id="path3853"
         style="fill:none;stroke:#e2e2e2;stroke-width:196.8500061;stroke-linecap:round;stroke-linejoin:round;stroke-miterlimit:10;stroke-dasharray:none;stroke-opacity:1"
         d="m 33662.5,68645.7 h -562.4 v 1181.1" />
      <path
         inkscape:connector-curvature="0"
         id="path3855"
         style="fill:none;stroke:#e2e2e2;stroke-width:196.8500061;stroke-linecap:round;stroke-linejoin:round;stroke-miterlimit:10;stroke-dasharray:none;stroke-opacity:1"
         d="m 34056.2,69826.8 v -956.1 l 56.3,-112.5 56.2,-56.3 112.5,-56.2 h 225 l 112.5,56.2 56.2,56.3 56.3,112.5 v 956.1" />
      <path
         inkscape:connector-curvature="0"
         id="path3857"
         style="fill:none;stroke:#e2e2e2;stroke-width:196.8500061;stroke-linecap:round;stroke-linejoin:round;stroke-miterlimit:10;stroke-dasharray:none;stroke-opacity:1"
         d="m 35293.6,68645.7 v 1181.1 l 393.7,-843.7 393.7,843.7 v -1181.1" />
      <path
         inkscape:connector-curvature="0"
         id="path3859"
         style="fill:none;stroke:#e2e2e2;stroke-width:196.8500061;stroke-linecap:round;stroke-linejoin:round;stroke-miterlimit:10;stroke-dasharray:none;stroke-opacity:1"
         d="m 36643.4,69264.4 h 393.7" />
      <path
         inkscape:connector-curvature="0"
         id="path3861"
         style="fill:none;stroke:#e2e2e2;stroke-width:196.8500061;stroke-linecap:round;stroke-linejoin:round;stroke-miterlimit:10;stroke-dasharray:none;stroke-opacity:1"
         d="m 37205.8,68645.7 h -562.4 v 1181.1 h 562.4" />
      <g
         transform="translate(39215.1,63168.2)"
         id="g3863" />
      <path
         inkscape:connector-curvature="0"
         id="path3865"
         style="fill:none;stroke:#e2e2e2;stroke-width:196.8500061;stroke-linecap:round;stroke-linejoin:round;stroke-miterlimit:10;stroke-dasharray:none;stroke-opacity:1"
         d="m 39390.9,64405.5 h 674.9" />
      <path
         inkscape:connector-curvature="0"
         id="path3867"
         style="fill:none;stroke:#e2e2e2;stroke-width:196.8500061;stroke-linecap:round;stroke-linejoin:round;stroke-miterlimit:10;stroke-dasharray:none;stroke-opacity:1"
         d="m 39728.3,63224.4 v 1181.1" />
      <path
         inkscape:connector-curvature="0"
         id="path3869"
         style="fill:none;stroke:#e2e2e2;stroke-width:196.8500061;stroke-linecap:round;stroke-linejoin:round;stroke-miterlimit:10;stroke-dasharray:none;stroke-opacity:1"
         d="m 40684.5,64405.5 h 224.9 l 112.5,-56.2 112.5,-112.5 56.3,-225 v -393.7 l -56.3,-224.9 -112.5,-112.5 -112.5,-56.3 h -224.9 l -112.5,56.3 -112.5,112.5 -56.2,224.9 v 393.7 l 56.2,225 112.5,112.5 112.5,56.2" />
      <path
         inkscape:connector-curvature="0"
         id="path3871"
         style="fill:none;stroke:#e2e2e2;stroke-width:196.8500061;stroke-linecap:round;stroke-linejoin:round;stroke-miterlimit:10;stroke-dasharray:none;stroke-opacity:1"
         d="m 41696.9,63224.4 v 1181.1 l 674.9,-1181.1 v 1181.1" />
      <path
         inkscape:connector-curvature="0"
         id="path3873"
         style="fill:none;stroke:#e2e2e2;stroke-width:196.8500061;stroke-linecap:round;stroke-linejoin:round;stroke-miterlimit:10;stroke-dasharray:none;stroke-opacity:1"
         d="m 42934.2,63843.1 h 393.7" />
      <path
         inkscape:connector-curvature="0"
         id="path3875"
         style="fill:none;stroke:#e2e2e2;stroke-width:196.8500061;stroke-linecap:round;stroke-linejoin:round;stroke-miterlimit:10;stroke-dasharray:none;stroke-opacity:1"
         d="m 43496.6,63224.4 h -562.4 v 1181.1 h 562.4" />
      <g
         transform="translate(45390.1,68589.4)"
         id="g3877" />
      <path
         inkscape:connector-curvature="0"
         id="path3879"
         style="fill:none;stroke:#e2e2e2;stroke-width:196.8500061;stroke-linecap:round;stroke-linejoin:round;stroke-miterlimit:10;stroke-dasharray:none;stroke-opacity:1"
         d="m 45625.4,68701.9 168.8,-56.2 h 281.2 l 112.5,56.2 56.2,56.3 56.2,112.5 v 112.4 l -56.2,112.5 -56.2,56.3 -112.5,56.2 -225,56.3 -112.5,56.2 -56.2,56.3 -56.3,112.4 v 112.5 l 56.3,112.5 56.2,56.3 112.5,56.2 h 281.2 l 168.7,-56.2" />
      <path
         inkscape:connector-curvature="0"
         id="path3881"
         style="fill:none;stroke:#e2e2e2;stroke-width:196.8500061;stroke-linecap:round;stroke-linejoin:round;stroke-miterlimit:10;stroke-dasharray:none;stroke-opacity:1"
         d="m 46806.5,69826.8 v -956.1 l 56.3,-112.5 56.2,-56.3 112.5,-56.2 h 225 l 112.5,56.2 56.2,56.3 56.2,112.5 v 956.1" />
      <path
         inkscape:connector-curvature="0"
         id="path3883"
         style="fill:none;stroke:#e2e2e2;stroke-width:196.8500061;stroke-linecap:round;stroke-linejoin:round;stroke-miterlimit:10;stroke-dasharray:none;stroke-opacity:1"
         d="m 47987.6,68701.9 168.8,-56.2 h 281.2 l 112.5,56.2 56.2,56.3 56.2,112.5 v 112.4 l -56.2,112.5 -56.2,56.3 -112.5,56.2 -225,56.3 -112.5,56.2 -56.2,56.3 -56.3,112.4 v 112.5 l 56.3,112.5 56.2,56.3 112.5,56.2 h 281.2 l 168.7,-56.2" />
      <path
         inkscape:connector-curvature="0"
         id="path3885"
         style="fill:none;stroke:#e2e2e2;stroke-width:196.8500061;stroke-linecap:round;stroke-linejoin:round;stroke-miterlimit:10;stroke-dasharray:none;stroke-opacity:1"
         d="m 49000,69826.8 h 674.9" />
      <path
         inkscape:connector-curvature="0"
         id="path3887"
         style="fill:none;stroke:#e2e2e2;stroke-width:196.8500061;stroke-linecap:round;stroke-linejoin:round;stroke-miterlimit:10;stroke-dasharray:none;stroke-opacity:1"
         d="m 49337.5,68645.7 v 1181.1" />
      <path
         inkscape:connector-curvature="0"
         id="path3889"
         style="fill:none;stroke:#e2e2e2;stroke-width:196.8500061;stroke-linecap:round;stroke-linejoin:round;stroke-miterlimit:10;stroke-dasharray:none;stroke-opacity:1"
         d="m 50012.4,68983.1 h 562.4" />
      <path
         inkscape:connector-curvature="0"
         id="path3891"
         style="fill:none;stroke:#e2e2e2;stroke-width:196.8500061;stroke-linecap:round;stroke-linejoin:round;stroke-miterlimit:10;stroke-dasharray:none;stroke-opacity:1"
         d="m 49899.9,68645.7 393.7,1181.1 393.7,-1181.1" />
      <path
         inkscape:connector-curvature="0"
         id="path3893"
         style="fill:none;stroke:#e2e2e2;stroke-width:196.8500061;stroke-linecap:round;stroke-linejoin:round;stroke-miterlimit:10;stroke-dasharray:none;stroke-opacity:1"
         d="m 51081,68645.7 v 1181.1" />
      <path
         inkscape:connector-curvature="0"
         id="path3895"
         style="fill:none;stroke:#e2e2e2;stroke-width:196.8500061;stroke-linecap:round;stroke-linejoin:round;stroke-miterlimit:10;stroke-dasharray:none;stroke-opacity:1"
         d="m 51643.4,68645.7 v 1181.1 l 674.9,-1181.1 v 1181.1" />
      <g
         transform="translate(30250,57339.4)"
         id="g3897" />
      <path
         inkscape:connector-curvature="0"
         id="path3899"
         style="fill:none;stroke:#e2e2e2;stroke-width:196.8500061;stroke-linecap:round;stroke-linejoin:round;stroke-miterlimit:10;stroke-dasharray:none;stroke-opacity:1"
         d="m 31559.1,57845.6 h -899.9" />
      <path
         inkscape:connector-curvature="0"
         id="path3901"
         style="fill:none;stroke:#e2e2e2;stroke-width:196.8500061;stroke-linecap:round;stroke-linejoin:round;stroke-miterlimit:10;stroke-dasharray:none;stroke-opacity:1"
         d="m 30884.1,57620.7 -224.9,224.9 224.9,225" />
      <path
         inkscape:connector-curvature="0"
         id="path3903"
         style="fill:none;stroke:#e2e2e2;stroke-width:196.8500061;stroke-linecap:round;stroke-linejoin:round;stroke-miterlimit:10;stroke-dasharray:none;stroke-opacity:1"
         d="m 32346.5,58576.8 h 224.9 l 112.5,-56.2 112.5,-112.5 56.2,-225 v -393.7 l -56.2,-225 -112.5,-112.5 -112.5,-56.2 h -224.9 l -112.5,56.2 -112.5,112.5 -56.3,225 v 393.7 l 56.3,225 112.5,112.5 112.5,56.2" />
      <path
         inkscape:connector-curvature="0"
         id="path3905"
         style="fill:none;stroke:#e2e2e2;stroke-width:196.8500061;stroke-linecap:round;stroke-linejoin:round;stroke-miterlimit:10;stroke-dasharray:none;stroke-opacity:1"
         d="m 33358.8,58576.8 v -956.1 l 56.3,-112.5 56.2,-56.3 112.5,-56.2 h 225 l 112.5,56.2 56.2,56.3 56.2,112.5 v 956.1" />
      <path
         inkscape:connector-curvature="0"
         id="path3907"
         style="fill:none;stroke:#e2e2e2;stroke-width:196.8500061;stroke-linecap:round;stroke-linejoin:round;stroke-miterlimit:10;stroke-dasharray:none;stroke-opacity:1"
         d="m 34427.4,58576.8 h 675" />
      <path
         inkscape:connector-curvature="0"
         id="path3909"
         style="fill:none;stroke:#e2e2e2;stroke-width:196.8500061;stroke-linecap:round;stroke-linejoin:round;stroke-miterlimit:10;stroke-dasharray:none;stroke-opacity:1"
         d="m 34764.9,57395.7 v 1181.1" />
      <g
         transform="translate(51105,57339.4)"
         id="g3911" />
      <path
         inkscape:connector-curvature="0"
         id="path3913"
         style="fill:none;stroke:#e2e2e2;stroke-width:196.8500061;stroke-linecap:round;stroke-linejoin:round;stroke-miterlimit:10;stroke-dasharray:none;stroke-opacity:1"
         d="m 49641.2,57395.7 v 1181.1" />
      <path
         inkscape:connector-curvature="0"
         id="path3915"
         style="fill:none;stroke:#e2e2e2;stroke-width:196.8500061;stroke-linecap:round;stroke-linejoin:round;stroke-miterlimit:10;stroke-dasharray:none;stroke-opacity:1"
         d="m 50203.6,57395.7 v 1181.1 l 674.9,-1181.1 v 1181.1" />
      <path
         inkscape:connector-curvature="0"
         id="path3917"
         style="fill:none;stroke:#e2e2e2;stroke-width:196.8500061;stroke-linecap:round;stroke-linejoin:round;stroke-miterlimit:10;stroke-dasharray:none;stroke-opacity:1"
         d="m 51440.9,57845.6 h 899.9" />
      <path
         inkscape:connector-curvature="0"
         id="path3919"
         style="fill:none;stroke:#e2e2e2;stroke-width:196.8500061;stroke-linecap:round;stroke-linejoin:round;stroke-miterlimit:10;stroke-dasharray:none;stroke-opacity:1"
         d="m 52115.9,57620.7 224.9,224.9 -224.9,225" />
      <g
         transform="translate(31400.6,41089.4)"
         id="g3921" />
      <path
         inkscape:connector-curvature="0"
         id="path3923"
         style="fill:none;stroke:#e2e2e2;stroke-width:196.8500061;stroke-linecap:round;stroke-linejoin:round;stroke-miterlimit:10;stroke-dasharray:none;stroke-opacity:1"
         d="m 35763.2,44548.4 h 899.9" />
      <path
         inkscape:connector-curvature="0"
         id="path3925"
         style="fill:none;stroke:#e2e2e2;stroke-width:196.8500061;stroke-linecap:round;stroke-linejoin:round;stroke-miterlimit:10;stroke-dasharray:none;stroke-opacity:1"
         d="m 37056.8,45279.6 h 674.9" />
      <path
         inkscape:connector-curvature="0"
         id="path3927"
         style="fill:none;stroke:#e2e2e2;stroke-width:196.8500061;stroke-linecap:round;stroke-linejoin:round;stroke-miterlimit:10;stroke-dasharray:none;stroke-opacity:1"
         d="m 37394.3,44098.4 v 1181.2" />
      <path
         inkscape:connector-curvature="0"
         id="path3929"
         style="fill:none;stroke:#e2e2e2;stroke-width:196.8500061;stroke-linecap:round;stroke-linejoin:round;stroke-miterlimit:10;stroke-dasharray:none;stroke-opacity:1"
         d="m 37956.7,45279.6 h 674.9" />
      <path
         inkscape:connector-curvature="0"
         id="path3931"
         style="fill:none;stroke:#e2e2e2;stroke-width:196.8500061;stroke-linecap:round;stroke-linejoin:round;stroke-miterlimit:10;stroke-dasharray:none;stroke-opacity:1"
         d="m 38294.2,44098.4 v 1181.2" />
      <path
         inkscape:connector-curvature="0"
         id="path3933"
         style="fill:none;stroke:#e2e2e2;stroke-width:196.8500061;stroke-linecap:round;stroke-linejoin:round;stroke-miterlimit:10;stroke-dasharray:none;stroke-opacity:1"
         d="m 39025.3,44098.4 v 1181.2" />
      <path
         inkscape:connector-curvature="0"
         id="path3935"
         style="fill:none;stroke:#e2e2e2;stroke-width:196.8500061;stroke-linecap:round;stroke-linejoin:round;stroke-miterlimit:10;stroke-dasharray:none;stroke-opacity:1"
         d="m 39700.2,44098.4 -506.2,675" />
      <path
         inkscape:connector-curvature="0"
         id="path3937"
         style="fill:none;stroke:#e2e2e2;stroke-width:196.8500061;stroke-linecap:round;stroke-linejoin:round;stroke-miterlimit:10;stroke-dasharray:none;stroke-opacity:1"
         d="m 39700.2,45279.6 -674.9,-675" />
      <path
         inkscape:connector-curvature="0"
         id="path3939"
         style="fill:none;stroke:#e2e2e2;stroke-width:196.8500061;stroke-linecap:round;stroke-linejoin:round;stroke-miterlimit:10;stroke-dasharray:none;stroke-opacity:1"
         d="m 40206.4,44098.4 v 1181.2 h 450 l 112.4,-56.3 56.3,-56.2 56.2,-112.5 v -168.8 l -56.2,-112.4 -56.3,-56.3 -112.4,-56.2 h -450" />
      <path
         inkscape:connector-curvature="0"
         id="path3941"
         style="fill:none;stroke:#e2e2e2;stroke-width:196.8500061;stroke-linecap:round;stroke-linejoin:round;stroke-miterlimit:10;stroke-dasharray:none;stroke-opacity:1"
         d="M 41949.9,45279.6 V 44098.4" />
      <path
         inkscape:connector-curvature="0"
         id="path3943"
         style="fill:none;stroke:#e2e2e2;stroke-width:196.8500061;stroke-linecap:round;stroke-linejoin:round;stroke-miterlimit:10;stroke-dasharray:none;stroke-opacity:1"
         d="m 41331.3,45279.6 v -450 l 56.2,-112.5 56.3,-56.2 112.4,-56.3 h 393.7" />
      <path
         inkscape:connector-curvature="0"
         id="path3945"
         style="fill:none;stroke:#e2e2e2;stroke-width:196.8500061;stroke-linecap:round;stroke-linejoin:round;stroke-miterlimit:10;stroke-dasharray:none;stroke-opacity:1"
         d="m 42512.4,44098.4 v 1181.2 h 674.9 v -1181.2" />
      <path
         inkscape:connector-curvature="0"
         id="path3947"
         style="fill:none;stroke:#e2e2e2;stroke-width:196.8500061;stroke-linecap:round;stroke-linejoin:round;stroke-miterlimit:10;stroke-dasharray:none;stroke-opacity:1"
         d="m 44649.6,43817.2 v 281.2 h -1012.4 v -281.2" />
      <path
         inkscape:connector-curvature="0"
         id="path3949"
         style="fill:none;stroke:#e2e2e2;stroke-width:196.8500061;stroke-linecap:round;stroke-linejoin:round;stroke-miterlimit:10;stroke-dasharray:none;stroke-opacity:1"
         d="m 44424.6,44098.4 v 1181.2 h -281.2 l -112.5,-56.3 -56.2,-56.2 -56.3,-112.5 -112.4,-956.2" />
      <path
         inkscape:connector-curvature="0"
         id="path3951"
         style="fill:none;stroke:#e2e2e2;stroke-width:196.8500061;stroke-linecap:round;stroke-linejoin:round;stroke-miterlimit:10;stroke-dasharray:none;stroke-opacity:1"
         d="m 45774.5,44098.4 v 1181.2 h -168.8 l -168.7,-56.3 -112.5,-112.5 -56.2,-168.7 -112.5,-674.9 -56.2,-112.5 -112.5,-56.3 h -56.3" />
      <path
         inkscape:connector-curvature="0"
         id="path3953"
         style="fill:none;stroke:#e2e2e2;stroke-width:196.8500061;stroke-linecap:round;stroke-linejoin:round;stroke-miterlimit:10;stroke-dasharray:none;stroke-opacity:1"
         d="m 46336.9,44548.4 h 899.9" />
      <path
         inkscape:connector-curvature="0"
         id="path3955"
         style="fill:none;stroke:#e2e2e2;stroke-width:196.8500061;stroke-linecap:round;stroke-linejoin:round;stroke-miterlimit:10;stroke-dasharray:none;stroke-opacity:1"
         d="m 37956.7,42748.6 168.7,-56.2 56.3,-56.3 56.2,-112.5 v -168.7 l -56.2,-112.5 -56.3,-56.2 -112.5,-56.3 H 37563 V 43311 h 393.7 l 112.5,-56.2 56.2,-56.2 56.3,-112.5 v -112.5 l -56.3,-112.5 -56.2,-56.2 -112.5,-56.3 H 37563" />
      <path
         inkscape:connector-curvature="0"
         id="path3957"
         style="fill:none;stroke:#e2e2e2;stroke-width:196.8500061;stroke-linecap:round;stroke-linejoin:round;stroke-miterlimit:10;stroke-dasharray:none;stroke-opacity:1"
         d="M 38744.1,42129.9 V 43311" />
      <path
         inkscape:connector-curvature="0"
         id="path3959"
         style="fill:none;stroke:#e2e2e2;stroke-width:196.8500061;stroke-linecap:round;stroke-linejoin:round;stroke-miterlimit:10;stroke-dasharray:none;stroke-opacity:1"
         d="m 39925.2,43254.8 -112.5,56.2 H 39644 l -168.7,-56.2 -112.5,-112.5 -56.3,-112.5 -56.2,-224.9 v -168.8 l 56.2,-224.9 56.3,-112.5 112.5,-112.5 168.7,-56.3 h 112.5 l 168.7,56.3 56.2,56.2 v 393.7 h -224.9" />
      <path
         inkscape:connector-curvature="0"
         id="path3961"
         style="fill:none;stroke:#e2e2e2;stroke-width:196.8500061;stroke-linecap:round;stroke-linejoin:round;stroke-miterlimit:10;stroke-dasharray:none;stroke-opacity:1"
         d="M 41387.5,42129.9 V 43311 l 393.7,-843.6 393.7,843.6 v -1181.1" />
      <path
         inkscape:connector-curvature="0"
         id="path3963"
         style="fill:none;stroke:#e2e2e2;stroke-width:196.8500061;stroke-linecap:round;stroke-linejoin:round;stroke-miterlimit:10;stroke-dasharray:none;stroke-opacity:1"
         d="m 42737.3,43311 v -956.1 l 56.3,-112.5 56.2,-56.2 112.5,-56.3 h 225 l 112.5,56.3 56.2,56.2 56.3,112.5 v 956.1" />
      <path
         inkscape:connector-curvature="0"
         id="path3965"
         style="fill:none;stroke:#e2e2e2;stroke-width:196.8500061;stroke-linecap:round;stroke-linejoin:round;stroke-miterlimit:10;stroke-dasharray:none;stroke-opacity:1"
         d="m 44368.4,42748.6 h -393.7" />
      <path
         inkscape:connector-curvature="0"
         id="path3967"
         style="fill:none;stroke:#e2e2e2;stroke-width:196.8500061;stroke-linecap:round;stroke-linejoin:round;stroke-miterlimit:10;stroke-dasharray:none;stroke-opacity:1"
         d="M 43974.7,42129.9 V 43311 h 562.4" />
      <path
         inkscape:connector-curvature="0"
         id="path3969"
         style="fill:none;stroke:#e2e2e2;stroke-width:196.8500061;stroke-linecap:round;stroke-linejoin:round;stroke-miterlimit:10;stroke-dasharray:none;stroke-opacity:1"
         d="m 45380.8,42748.6 h -393.7" />
      <path
         inkscape:connector-curvature="0"
         id="path3971"
         style="fill:none;stroke:#e2e2e2;stroke-width:196.8500061;stroke-linecap:round;stroke-linejoin:round;stroke-miterlimit:10;stroke-dasharray:none;stroke-opacity:1"
         d="M 44987.1,42129.9 V 43311 h 562.4" />
      <path
         inkscape:connector-curvature="0"
         id="path3973"
         style="fill:none;stroke:#e2e2e2;stroke-width:196.8500061;stroke-linecap:round;stroke-linejoin:round;stroke-miterlimit:10;stroke-dasharray:none;stroke-opacity:1"
         d="m 39953.3,40780.1 168.7,-56.2 56.3,-56.3 56.2,-112.5 v -168.7 l -56.2,-112.5 -56.3,-56.2 -112.4,-56.3 h -450 v 1181.1 h 393.7 l 112.5,-56.2 56.2,-56.2 56.3,-112.5 v -112.5 l -56.3,-112.5 -56.2,-56.2 -112.5,-56.3 h -393.7" />
      <path
         inkscape:connector-curvature="0"
         id="path3975"
         style="fill:none;stroke:#e2e2e2;stroke-width:196.8500061;stroke-linecap:round;stroke-linejoin:round;stroke-miterlimit:10;stroke-dasharray:none;stroke-opacity:1"
         d="m 40684.5,40498.9 h 562.4" />
      <path
         inkscape:connector-curvature="0"
         id="path3977"
         style="fill:none;stroke:#e2e2e2;stroke-width:196.8500061;stroke-linecap:round;stroke-linejoin:round;stroke-miterlimit:10;stroke-dasharray:none;stroke-opacity:1"
         d="m 40572,40161.4 393.7,1181.1 393.7,-1181.1" />
      <path
         inkscape:connector-curvature="0"
         id="path3979"
         style="fill:none;stroke:#e2e2e2;stroke-width:196.8500061;stroke-linecap:round;stroke-linejoin:round;stroke-miterlimit:10;stroke-dasharray:none;stroke-opacity:1"
         d="m 41696.9,40217.7 168.7,-56.3 h 281.2 l 112.5,56.3 56.2,56.2 56.3,112.5 v 112.5 l -56.3,112.5 -56.2,56.2 -112.5,56.3 -225,56.2 -112.5,56.3 -56.2,56.2 -56.2,112.5 v 112.5 l 56.2,112.5 56.2,56.2 112.5,56.2 h 281.2 l 168.8,-56.2" />
      <path
         inkscape:connector-curvature="0"
         id="path3981"
         style="fill:none;stroke:#e2e2e2;stroke-width:196.8500061;stroke-linecap:round;stroke-linejoin:round;stroke-miterlimit:10;stroke-dasharray:none;stroke-opacity:1"
         d="m 42821.7,40217.7 168.7,-56.3 h 281.3 l 112.4,56.3 56.3,56.2 56.2,112.5 v 112.5 l -56.2,112.5 -56.3,56.2 -112.4,56.3 -225,56.2 -112.5,56.3 -56.2,56.2 -56.3,112.5 v 112.5 l 56.3,112.5 56.2,56.2 112.5,56.2 h 281.2 l 168.7,-56.2" />
      <path
         inkscape:connector-curvature="0"
         id="path3983"
         style="fill:none;stroke:#e2e2e2;stroke-width:196.8500061;stroke-linecap:round;stroke-linejoin:round;stroke-miterlimit:10;stroke-dasharray:none;stroke-opacity:1"
         d="m 39531.5,38192.9 -393.7,562.5" />
      <path
         inkscape:connector-curvature="0"
         id="path3985"
         style="fill:none;stroke:#e2e2e2;stroke-width:196.8500061;stroke-linecap:round;stroke-linejoin:round;stroke-miterlimit:10;stroke-dasharray:none;stroke-opacity:1"
         d="M 38856.6,38192.9 V 39374 h 449.9 l 112.5,-56.2 56.3,-56.2 56.2,-112.5 v -168.8 l -56.2,-112.4 -56.3,-56.3 -112.5,-56.2 h -449.9" />
      <path
         inkscape:connector-curvature="0"
         id="path3987"
         style="fill:none;stroke:#e2e2e2;stroke-width:196.8500061;stroke-linecap:round;stroke-linejoin:round;stroke-miterlimit:10;stroke-dasharray:none;stroke-opacity:1"
         d="m 40037.7,38811.6 h 393.7" />
      <path
         inkscape:connector-curvature="0"
         id="path3989"
         style="fill:none;stroke:#e2e2e2;stroke-width:196.8500061;stroke-linecap:round;stroke-linejoin:round;stroke-miterlimit:10;stroke-dasharray:none;stroke-opacity:1"
         d="m 40600.1,38192.9 h -562.4 V 39374 h 562.4" />
      <path
         inkscape:connector-curvature="0"
         id="path3991"
         style="fill:none;stroke:#e2e2e2;stroke-width:196.8500061;stroke-linecap:round;stroke-linejoin:round;stroke-miterlimit:10;stroke-dasharray:none;stroke-opacity:1"
         d="m 40937.6,39374 393.7,-1181.1 393.7,1181.1" />
      <path
         inkscape:connector-curvature="0"
         id="path3993"
         style="fill:none;stroke:#e2e2e2;stroke-width:196.8500061;stroke-linecap:round;stroke-linejoin:round;stroke-miterlimit:10;stroke-dasharray:none;stroke-opacity:1"
         d="m 42118.7,38305.4 56.2,-56.2 -56.2,-56.3 -56.3,56.3 56.3,56.2 v -112.5" />
      <path
         inkscape:connector-curvature="0"
         id="path3995"
         style="fill:none;stroke:#e2e2e2;stroke-width:196.8500061;stroke-linecap:round;stroke-linejoin:round;stroke-miterlimit:10;stroke-dasharray:none;stroke-opacity:1"
         d="m 43524.7,39261.6 56.3,56.2 112.5,56.2 h 281.2 l 112.5,-56.2 56.2,-56.2 56.3,-112.5 v -112.5 l -56.3,-168.7 -674.9,-675 h 731.2" />
    </g>
  </g>
</svg>
