<?xml version="1.0" encoding="UTF-8" standalone="no"?>
<!-- Created with Inkscape (http://www.inkscape.org/) -->

<svg
   width="65.5mm"
   height="121.2mm"
   viewBox="0 0 65.499999 121.2"
   version="1.1"
   id="svg8"
   inkscape:version="1.4 (e7c3feb100, 2024-10-09)"
   sodipodi:docname="great_depression_phaser_r1_1.svg"
   xmlns:inkscape="http://www.inkscape.org/namespaces/inkscape"
   xmlns:sodipodi="http://sodipodi.sourceforge.net/DTD/sodipodi-0.dtd"
   xmlns="http://www.w3.org/2000/svg"
   xmlns:svg="http://www.w3.org/2000/svg"
   xmlns:rdf="http://www.w3.org/1999/02/22-rdf-syntax-ns#"
   xmlns:cc="http://creativecommons.org/ns#"
   xmlns:dc="http://purl.org/dc/elements/1.1/">
  <title
     id="title16">Great Depression Phaser [REV1] V1</title>
  <defs
     id="defs2" />
  <sodipodi:namedview
     id="base"
     pagecolor="#ffffff"
     bordercolor="#666666"
     borderopacity="1.0"
     inkscape:pageopacity="0.0"
     inkscape:pageshadow="2"
     inkscape:zoom="1.842478"
     inkscape:cx="124.01776"
     inkscape:cy="229.03936"
     inkscape:document-units="mm"
     inkscape:current-layer="layer1"
     showgrid="false"
     inkscape:window-width="1920"
     inkscape:window-height="1053"
     inkscape:window-x="0"
     inkscape:window-y="0"
     inkscape:window-maximized="1"
     inkscape:showpageshadow="0"
     inkscape:pagecheckerboard="1"
     inkscape:deskcolor="#505050" />
  <metadata
     id="metadata5">
    <rdf:RDF>
      <cc:Work
         rdf:about="">
        <dc:format>image/svg+xml</dc:format>
        <dc:type
           rdf:resource="http://purl.org/dc/dcmitype/StillImage" />
        <dc:title>Great Depression Phaser [REV1] V1</dc:title>
        <cc:license
           rdf:resource="http://creativecommons.org/licenses/by-sa/4.0/" />
        <dc:creator>
          <cc:Agent>
            <dc:title>Igor Ivanov</dc:title>
          </cc:Agent>
        </dc:creator>
        <dc:date>25.01.2025</dc:date>
        <dc:contributor>
          <cc:Agent>
            <dc:title>Denis Ignatov (http://mutno.me)
Indian Type Foundry (http://indiantypefoundry.com)</dc:title>
          </cc:Agent>
        </dc:contributor>
      </cc:Work>
      <cc:License
         rdf:about="http://creativecommons.org/licenses/by-sa/4.0/">
        <cc:permits
           rdf:resource="http://creativecommons.org/ns#Reproduction" />
        <cc:permits
           rdf:resource="http://creativecommons.org/ns#Distribution" />
        <cc:requires
           rdf:resource="http://creativecommons.org/ns#Notice" />
        <cc:requires
           rdf:resource="http://creativecommons.org/ns#Attribution" />
        <cc:permits
           rdf:resource="http://creativecommons.org/ns#DerivativeWorks" />
        <cc:requires
           rdf:resource="http://creativecommons.org/ns#ShareAlike" />
      </cc:License>
    </rdf:RDF>
  </metadata>
  <g
     inkscape:label="Layer 1"
     inkscape:groupmode="layer"
     id="layer1"
     transform="translate(0,-175.8)">
    <path
       style="stroke-width:0.999602;stroke-linecap:round;stroke-linejoin:round;stroke-miterlimit:10;fill:#e2e2e2;fill-opacity:1"
       d="m 17.509999,180.27009 c -0.09441,4.5e-4 -0.180518,0.0541 -0.222569,0.13861 l -1.270978,2.54001 c -0.08274,0.16643 0.03867,0.36173 0.22452,0.36119 h 2.538052 c 0.185859,5.4e-4 0.307261,-0.19476 0.22452,-0.36119 l -1.269026,-2.54001 c -0.04236,-0.0852 -0.129399,-0.1389 -0.224519,-0.13861 z"
       id="out"
       sodipodi:nodetypes="cccccccc" />
    <path
       style="stroke-width:0.999602;stroke-linecap:round;stroke-linejoin:round;stroke-miterlimit:10;fill:#e2e2e2;fill-opacity:1"
       d="m 47.99,183.3099 c -0.09441,-4.5e-4 -0.180518,-0.0541 -0.222569,-0.13861 l -1.270978,-2.54001 c -0.08274,-0.16643 0.03867,-0.36173 0.22452,-0.36119 h 2.538052 c 0.185859,-5.4e-4 0.307261,0.19476 0.22452,0.36119 l -1.269026,2.54001 c -0.04236,0.0852 -0.129399,0.1389 -0.224519,0.13861 z"
       id="in"
       sodipodi:nodetypes="cccccccc" />
    <g
       transform="matrix(0.00254,0,0,-0.00254,-72.660076,391.16223)"
       id="power"
       style="fill:#e2e2e2;fill-opacity:1">
      <path
         id="plus_frame"
         style="color:#000000;fill:#e2e2e2;stroke-linecap:round;stroke-linejoin:round;stroke-miterlimit:10;-inkscape-stroke:none;fill-opacity:1"
         d="m 39500.009,77028.461 c -329.197,0 -598.348,-269.355 -598.348,-598.552 0,-329.197 269.151,-598.348 598.348,-598.348 295.705,0 542.744,217.283 590.006,500.082 h 819.703 l 0.203,-1.221 a 98.434846,98.434846 0 0 1 1.628,-8.342 l 9.358,-42.724 a 98.434846,98.434846 0 0 1 2.238,-8.545 l 13.225,-41.504 a 98.434846,98.434846 0 0 1 2.848,-7.731 l 16.479,-40.283 a 98.434846,98.434846 0 0 1 3.866,-8.138 l 20.141,-38.656 a 98.434846,98.434846 0 0 1 4.273,-7.324 l 23.397,-36.825 a 98.434846,98.434846 0 0 1 5.086,-7.121 l 26.449,-34.586 a 98.434846,98.434846 0 0 1 5.493,-6.511 l 29.297,-32.145 a 98.434846,98.434846 0 0 1 6.307,-6.307 l 32.145,-29.297 a 98.434846,98.434846 0 0 1 6.51,-5.493 l 34.587,-26.448 a 98.434846,98.434846 0 0 1 7.121,-5.087 l 36.824,-23.396 a 98.434846,98.434846 0 0 1 7.324,-4.273 l 38.656,-20.141 a 98.434846,98.434846 0 0 1 8.138,-3.663 l 40.283,-16.682 a 98.434846,98.434846 0 0 1 7.731,-2.849 l 41.504,-13.224 a 98.434846,98.434846 0 0 1 8.545,-2.238 l 42.521,-9.359 a 98.434846,98.434846 0 0 1 8.342,-1.424 l 43.335,-5.697 a 98.434846,98.434846 0 0 1 8.545,-0.813 l 43.538,-1.831 a 98.425003,98.425003 0 0 1 102.743,93.994 98.425003,98.425003 0 0 1 -94.198,102.539 l -39.266,1.831 -34.587,4.476 -34.179,7.527 -33.57,10.58 -32.348,13.428 -30.925,16.072 -29.704,18.921 -27.669,21.362 -25.838,23.601 -23.6,25.838 -21.363,27.873 -18.92,29.5 -16.073,30.924 -13.428,32.552 -10.579,33.366 -7.528,34.18 -4.679,34.587 -1.424,34.993 1.424,34.994 4.679,34.79 7.528,34.179 10.579,33.366 13.428,32.552 16.073,30.925 18.92,29.5 21.363,27.873 23.6,25.838 25.838,23.6 27.669,21.363 29.704,18.717 30.925,16.276 32.348,13.428 33.57,10.579 34.179,7.528 34.587,4.476 39.266,1.831 a 98.425003,98.425003 0 0 1 94.198,102.539 98.425003,98.425003 0 0 1 -102.743,93.994 l -43.538,-1.831 a 98.434846,98.434846 0 0 1 -8.545,-0.814 l -43.335,-5.696 a 98.434846,98.434846 0 0 1 -8.342,-1.425 l -42.521,-9.358 a 98.434846,98.434846 0 0 1 -8.545,-2.238 l -41.504,-13.224 a 98.434846,98.434846 0 0 1 -7.731,-2.849 l -40.283,-16.683 a 98.434846,98.434846 0 0 1 -8.138,-3.662 l -38.656,-20.141 a 98.434846,98.434846 0 0 1 -7.324,-4.273 l -36.824,-23.397 a 98.434846,98.434846 0 0 1 -7.121,-5.086 l -34.587,-26.449 a 98.434846,98.434846 0 0 1 -6.51,-5.493 l -32.145,-29.297 a 98.434846,98.434846 0 0 1 -6.307,-6.307 l -29.297,-32.348 a 98.434846,98.434846 0 0 1 -5.493,-6.307 l -26.449,-34.587 a 98.434846,98.434846 0 0 1 -5.086,-7.12 l -23.397,-36.825 a 98.434846,98.434846 0 0 1 -4.273,-7.324 l -20.141,-38.656 a 98.434846,98.434846 0 0 1 -3.866,-8.138 l -16.479,-40.283 a 98.434846,98.434846 0 0 1 -2.848,-7.731 l -13.225,-41.504 a 98.434846,98.434846 0 0 1 -2.238,-8.545 l -9.358,-42.725 a 98.434846,98.434846 0 0 1 -1.628,-8.341 l -0.203,-1.221 h -819.703 c -47.283,282.774 -294.319,500.082 -590.006,500.082 z m 0,-196.941 c 222.603,0 401.611,-179.008 401.611,-401.611 0,-222.603 -179.008,-401.408 -401.611,-401.408 -222.603,0 -401.611,178.805 -401.611,401.408 0,222.603 179.008,401.611 401.611,401.611 z" />
      <path
         id="plus"
         style="color:#000000;fill:#e2e2e2;stroke-linecap:round;stroke-linejoin:round;stroke-miterlimit:10;-inkscape-stroke:none;fill-opacity:1"
         d="m 39500.009,76729.185 a 49.212601,49.212601 0 0 1 -49.235,-49.235 v -200.806 h -200.806 a 49.212601,49.212601 0 0 1 -49.235,-49.235 49.212601,49.212601 0 0 1 49.235,-49.031 h 200.806 v -200.806 a 49.212601,49.212601 0 0 1 49.235,-49.235 49.212601,49.212601 0 0 1 49.235,49.235 v 200.806 h 200.806 a 49.212601,49.212601 0 0 1 49.235,49.031 49.212601,49.212601 0 0 1 -49.235,49.235 h -200.806 v 200.806 a 49.212601,49.212601 0 0 1 -49.235,49.235 z"
         transform="translate(2.460631e-5,7.3818912e-5)" />
      <path
         id="minus_frame"
         style="color:#000000;fill:#e2e2e2;stroke-linecap:round;stroke-linejoin:round;stroke-miterlimit:10;-inkscape-stroke:none;fill-opacity:1"
         d="m 43500.05,77028.461 c -295.688,0 -542.927,-217.308 -590.21,-500.082 h -1240.031 c -34.35,58.556 -97.976,98.47 -169.882,98.47 -107.59,0 -196.736,-89.349 -196.736,-196.94 0,-107.591 89.146,-196.737 196.736,-196.737 71.906,0 135.532,39.915 169.882,98.471 h 1240.031 c 47.262,-282.799 294.505,-500.082 590.21,-500.082 329.196,0 598.348,269.151 598.348,598.348 0,329.197 -269.152,598.552 -598.348,598.552 z m 0,-196.941 c 222.602,0 401.611,-179.008 401.611,-401.611 0,-222.603 -179.009,-401.408 -401.611,-401.408 -222.603,0 -401.612,178.805 -401.612,401.408 0,222.603 179.009,401.611 401.612,401.611 z"
         transform="translate(2.460631e-5,7.3818912e-5)" />
      <path
         style="color:#000000;fill:#e2e2e2;stroke-linecap:round;stroke-linejoin:round;stroke-miterlimit:10;-inkscape-stroke:none;fill-opacity:1"
         d="m 43250,76380.787 a 49.212601,49.212601 0 0 0 -49.213,49.213 49.212601,49.212601 0 0 0 49.213,49.213 h 500 a 49.212601,49.212601 0 0 0 49.213,-49.213 49.212601,49.212601 0 0 0 -49.213,-49.213 z"
         id="minus" />
    </g>
    <g
       id="skyscraper_left"
       transform="translate(1.0049993,-0.0999971)"
       style="fill:#e2e2e2;fill-opacity:1">
      <path
         d="m 18.181075,249.69606 h -0.833538 l 0.229643,-1.94851 c 0.02738,-0.23222 -0.04585,-0.46523 -0.201299,-0.64003 -0.15537,-0.1748 -0.378108,-0.27477 -0.612006,-0.27477 h -1.737736 l -1.032509,-2.61038 c -0.123573,-0.31243 -0.425481,-0.51774 -0.761514,-0.51774 h -0.913191 v -1.93671 c 0,-0.45229 -0.366625,-0.81892 -0.818925,-0.81892 -0.452299,0 -0.818925,0.36663 -0.818925,0.81892 v 1.93671 H 9.7678844 c -0.336033,0 -0.6379408,0.20523 -0.7615142,0.51774 l -1.0324284,2.61038 H 6.2362054 c -0.2338982,0 -0.4566355,0.1 -0.6120057,0.27477 -0.1554504,0.1748 -0.2286791,0.40773 -0.2012986,0.64003 l 0.2296427,1.94851 H 4.8190052 c -0.4522997,0 -0.8189249,0.36662 -0.8189249,0.81892 v 30.72595 H 4 c 0,0.4523 0.3666253,0.81892 0.8189249,0.81892 H 18.181075 c 0.4523,0 0.818925,-0.36662 0.818925,-0.81892 v -30.72595 c 0,-0.4523 -0.366625,-0.81892 -0.818925,-0.81892 z m -7.856508,-4.3535 h 2.350786 l 0.589363,1.49011 H 9.7351242 Z m 5.518168,3.12804 -0.14437,1.22538 H 7.3016349 L 7.1572651,248.4706 Z m 1.519416,31.9514 H 5.6378498 v -2.01154 H 17.362151 Z m 0,-3.64939 H 5.6378498 v -25.4387 H 17.362151 Z"
         id="path1-0"
         style="fill:#e2e2e2;stroke-width:0.0802147;stroke-dasharray:none;fill-opacity:1" />
      <path
         d="m 7.3665129,272.88515 c -0.4522996,0 -0.8189249,0.36662 -0.8189249,0.81892 v 1.05724 c 0,0.4523 0.3666253,0.81892 0.8189249,0.81892 0.4522997,0 0.818925,-0.36662 0.818925,-0.81892 v -1.05724 c 0,-0.45222 -0.3666253,-0.81892 -0.818925,-0.81892 z"
         id="path2-0"
         style="fill:#e2e2e2;stroke-width:0.0802147;stroke-dasharray:none;fill-opacity:1" />
      <path
         d="m 10.122144,272.88515 c -0.4522993,0 -0.8189246,0.36662 -0.8189246,0.81892 v 1.05724 c 0,0.4523 0.3666253,0.81892 0.8189246,0.81892 0.4523,0 0.818925,-0.36662 0.818925,-0.81892 v -1.05724 c 0,-0.45222 -0.366625,-0.81892 -0.818925,-0.81892 z"
         id="path4-5"
         style="fill:#e2e2e2;stroke-width:0.0802147;stroke-dasharray:none;fill-opacity:1" />
      <path
         d="m 12.877856,272.88515 c -0.4523,0 -0.818925,0.36662 -0.818925,0.81892 v 1.05724 c 0,0.4523 0.366625,0.81892 0.818925,0.81892 0.4523,0 0.818925,-0.36662 0.818925,-0.81892 v -1.05724 c 0,-0.45222 -0.366625,-0.81892 -0.818925,-0.81892 z"
         id="path6-0"
         style="fill:#e2e2e2;stroke-width:0.0802147;stroke-dasharray:none;fill-opacity:1" />
      <path
         d="m 15.633487,272.88515 c -0.452299,0 -0.818924,0.36662 -0.818924,0.81892 v 1.05724 c 0,0.4523 0.366625,0.81892 0.818924,0.81892 0.4523,0 0.818925,-0.36662 0.818925,-0.81892 v -1.05724 c 8.1e-5,-0.45222 -0.366625,-0.81892 -0.818925,-0.81892 z"
         id="path8-3"
         style="fill:#e2e2e2;stroke-width:0.0802147;stroke-dasharray:none;fill-opacity:1" />
      <path
         d="m 7.3665129,268.90028 c -0.4522996,0 -0.8189249,0.36663 -0.8189249,0.81893 v 1.05724 c 0,0.4523 0.3666253,0.81892 0.8189249,0.81892 0.4522997,0 0.818925,-0.36662 0.818925,-0.81892 v -1.05724 c 0,-0.4523 -0.3666253,-0.81893 -0.818925,-0.81893 z"
         id="path10-1"
         style="fill:#e2e2e2;stroke-width:0.0802147;stroke-dasharray:none;fill-opacity:1" />
      <path
         d="m 10.122144,268.90028 c -0.4522993,0 -0.8189246,0.36663 -0.8189246,0.81893 v 1.05724 c 0,0.4523 0.3666253,0.81892 0.8189246,0.81892 0.4523,0 0.818925,-0.36662 0.818925,-0.81892 v -1.05724 c 0,-0.4523 -0.366625,-0.81893 -0.818925,-0.81893 z"
         id="path12-8"
         style="fill:#e2e2e2;stroke-width:0.0802147;stroke-dasharray:none;fill-opacity:1" />
      <path
         d="m 12.877856,268.90028 c -0.4523,0 -0.818925,0.36663 -0.818925,0.81893 v 1.05724 c 0,0.4523 0.366625,0.81892 0.818925,0.81892 0.4523,0 0.818925,-0.36662 0.818925,-0.81892 v -1.05724 c 0,-0.4523 -0.366625,-0.81893 -0.818925,-0.81893 z"
         id="path14-0"
         style="fill:#e2e2e2;stroke-width:0.0802147;stroke-dasharray:none;fill-opacity:1" />
      <path
         d="m 15.633487,268.90028 c -0.452299,0 -0.818924,0.36663 -0.818924,0.81893 v 1.05724 c 0,0.4523 0.366625,0.81892 0.818924,0.81892 0.4523,0 0.818925,-0.36662 0.818925,-0.81892 v -1.05724 c 8.1e-5,-0.4523 -0.366625,-0.81893 -0.818925,-0.81893 z"
         id="path16-1"
         style="fill:#e2e2e2;stroke-width:0.0802147;stroke-dasharray:none;fill-opacity:1" />
      <path
         d="m 7.3665129,264.834 c -0.4522996,0 -0.8189249,0.36663 -0.8189249,0.81893 v 1.05724 c 0,0.4523 0.3666253,0.81892 0.8189249,0.81892 0.4522997,0 0.818925,-0.36662 0.818925,-0.81892 v -1.05724 c 0,-0.4523 -0.3666253,-0.81893 -0.818925,-0.81893 z"
         id="path18-7"
         style="fill:#e2e2e2;stroke-width:0.0802147;stroke-dasharray:none;fill-opacity:1" />
      <path
         d="m 10.122144,264.834 c -0.4522993,0 -0.8189246,0.36663 -0.8189246,0.81893 v 1.05724 c 0,0.4523 0.3666253,0.81892 0.8189246,0.81892 0.4523,0 0.818925,-0.36662 0.818925,-0.81892 v -1.05724 c 0,-0.4523 -0.366625,-0.81893 -0.818925,-0.81893 z"
         id="path20-9"
         style="fill:#e2e2e2;stroke-width:0.0802147;stroke-dasharray:none;fill-opacity:1" />
      <path
         d="m 12.877856,264.834 c -0.4523,0 -0.818925,0.36663 -0.818925,0.81893 v 1.05724 c 0,0.4523 0.366625,0.81892 0.818925,0.81892 0.4523,0 0.818925,-0.36662 0.818925,-0.81892 v -1.05724 c 0,-0.4523 -0.366625,-0.81893 -0.818925,-0.81893 z"
         id="path22-1"
         style="fill:#e2e2e2;stroke-width:0.0802147;stroke-dasharray:none;fill-opacity:1" />
      <path
         d="m 15.633487,264.834 c -0.452299,0 -0.818924,0.36663 -0.818924,0.81893 v 1.05724 c 0,0.4523 0.366625,0.81892 0.818924,0.81892 0.4523,0 0.818925,-0.36662 0.818925,-0.81892 v -1.05724 c 8.1e-5,-0.4523 -0.366625,-0.81893 -0.818925,-0.81893 z"
         id="path24-0"
         style="fill:#e2e2e2;stroke-width:0.0802147;stroke-dasharray:none;fill-opacity:1" />
      <path
         d="m 7.3665129,260.84906 c -0.4522996,0 -0.8189249,0.36663 -0.8189249,0.81893 v 1.05723 c 0,0.4523 0.3666253,0.81893 0.8189249,0.81893 0.4522997,0 0.818925,-0.36663 0.818925,-0.81893 v -1.05723 c 0,-0.4523 -0.3666253,-0.81893 -0.818925,-0.81893 z"
         id="path26-3"
         style="fill:#e2e2e2;stroke-width:0.0802147;stroke-dasharray:none;fill-opacity:1" />
      <path
         d="m 10.122144,260.84906 c -0.4522993,0 -0.8189246,0.36663 -0.8189246,0.81893 v 1.05723 c 0,0.4523 0.3666253,0.81893 0.8189246,0.81893 0.4523,0 0.818925,-0.36663 0.818925,-0.81893 v -1.05723 c 0,-0.4523 -0.366625,-0.81893 -0.818925,-0.81893 z"
         id="path28"
         style="fill:#e2e2e2;stroke-width:0.0802147;stroke-dasharray:none;fill-opacity:1" />
      <path
         d="m 12.877856,260.84906 c -0.4523,0 -0.818925,0.36663 -0.818925,0.81893 v 1.05723 c 0,0.4523 0.366625,0.81893 0.818925,0.81893 0.4523,0 0.818925,-0.36663 0.818925,-0.81893 v -1.05723 c 0,-0.4523 -0.366625,-0.81893 -0.818925,-0.81893 z"
         id="path30"
         style="fill:#e2e2e2;stroke-width:0.0802147;stroke-dasharray:none;fill-opacity:1" />
      <path
         d="m 15.633487,260.84906 c -0.452299,0 -0.818924,0.36663 -0.818924,0.81893 v 1.05723 c 0,0.4523 0.366625,0.81893 0.818924,0.81893 0.4523,0 0.818925,-0.36663 0.818925,-0.81893 v -1.05723 c 8.1e-5,-0.4523 -0.366625,-0.81893 -0.818925,-0.81893 z"
         id="path32"
         style="fill:#e2e2e2;stroke-width:0.0802147;stroke-dasharray:none;fill-opacity:1" />
      <path
         d="m 7.3665129,256.70144 c -0.4522996,0 -0.8189249,0.36663 -0.8189249,0.81893 v 1.05724 c 0,0.4523 0.3666253,0.81892 0.8189249,0.81892 0.4522997,0 0.818925,-0.36662 0.818925,-0.81892 v -1.05724 c 0,-0.4523 -0.3666253,-0.81893 -0.818925,-0.81893 z"
         id="path34"
         style="fill:#e2e2e2;stroke-width:0.0802147;stroke-dasharray:none;fill-opacity:1" />
      <path
         d="m 10.122144,256.70144 c -0.4522993,0 -0.8189246,0.36663 -0.8189246,0.81893 v 1.05724 c 0,0.4523 0.3666253,0.81892 0.8189246,0.81892 0.4523,0 0.818925,-0.36662 0.818925,-0.81892 v -1.05724 c 0,-0.4523 -0.366625,-0.81893 -0.818925,-0.81893 z"
         id="path36"
         style="fill:#e2e2e2;stroke-width:0.0802147;stroke-dasharray:none;fill-opacity:1" />
      <path
         d="m 12.877856,256.70144 c -0.4523,0 -0.818925,0.36663 -0.818925,0.81893 v 1.05724 c 0,0.4523 0.366625,0.81892 0.818925,0.81892 0.4523,0 0.818925,-0.36662 0.818925,-0.81892 v -1.05724 c 0,-0.4523 -0.366625,-0.81893 -0.818925,-0.81893 z"
         id="path38"
         style="fill:#e2e2e2;stroke-width:0.0802147;stroke-dasharray:none;fill-opacity:1" />
      <path
         d="m 15.633487,256.70144 c -0.452299,0 -0.818924,0.36663 -0.818924,0.81893 v 1.05724 c 0,0.4523 0.366625,0.81892 0.818924,0.81892 0.4523,0 0.818925,-0.36662 0.818925,-0.81892 v -1.05724 c 8.1e-5,-0.4523 -0.366625,-0.81893 -0.818925,-0.81893 z"
         id="path40"
         style="fill:#e2e2e2;stroke-width:0.0802147;stroke-dasharray:none;fill-opacity:1" />
      <path
         d="m 7.3665129,252.71634 c -0.4522996,0 -0.8189249,0.36662 -0.8189249,0.81892 v 1.05724 c 0,0.4523 0.3666253,0.81893 0.8189249,0.81893 0.4522997,0 0.818925,-0.36663 0.818925,-0.81893 v -1.05724 c 0,-0.45222 -0.3666253,-0.81892 -0.818925,-0.81892 z"
         id="path42"
         style="fill:#e2e2e2;stroke-width:0.0802147;stroke-dasharray:none;fill-opacity:1" />
      <path
         d="m 10.122144,252.71634 c -0.4522993,0 -0.8189246,0.36662 -0.8189246,0.81892 v 1.05724 c 0,0.4523 0.3666253,0.81893 0.8189246,0.81893 0.4523,0 0.818925,-0.36663 0.818925,-0.81893 v -1.05724 c 0,-0.45222 -0.366625,-0.81892 -0.818925,-0.81892 z"
         id="path44"
         style="fill:#e2e2e2;stroke-width:0.0802147;stroke-dasharray:none;fill-opacity:1" />
      <path
         d="m 12.877856,252.71634 c -0.4523,0 -0.818925,0.36662 -0.818925,0.81892 v 1.05724 c 0,0.4523 0.366625,0.81893 0.818925,0.81893 0.4523,0 0.818925,-0.36663 0.818925,-0.81893 v -1.05724 c 0,-0.45222 -0.366625,-0.81892 -0.818925,-0.81892 z"
         id="path46"
         style="fill:#e2e2e2;stroke-width:0.0802147;stroke-dasharray:none;fill-opacity:1" />
      <path
         d="m 15.633487,252.71634 c -0.452299,0 -0.818924,0.36662 -0.818924,0.81892 v 1.05724 c 0,0.4523 0.366625,0.81893 0.818924,0.81893 0.4523,0 0.818925,-0.36663 0.818925,-0.81893 v -1.05724 c 8.1e-5,-0.45222 -0.366625,-0.81892 -0.818925,-0.81892 z"
         id="path48"
         style="fill:#e2e2e2;stroke-width:0.0802147;stroke-dasharray:none;fill-opacity:1" />
    </g>
    <g
       id="skyscraper_right"
       transform="translate(41.494998,-0.0999971)"
       style="fill:#e2e2e2;fill-opacity:1">
      <path
         d="m 18.181075,249.69606 h -0.833538 l 0.229643,-1.94851 c 0.02738,-0.23222 -0.04585,-0.46523 -0.201299,-0.64003 -0.15537,-0.1748 -0.378108,-0.27477 -0.612006,-0.27477 h -1.737736 l -1.032509,-2.61038 c -0.123573,-0.31243 -0.425481,-0.51774 -0.761514,-0.51774 h -0.913191 v -1.93671 c 0,-0.45229 -0.366625,-0.81892 -0.818925,-0.81892 -0.452299,0 -0.818925,0.36663 -0.818925,0.81892 v 1.93671 H 9.7678844 c -0.336033,0 -0.6379408,0.20523 -0.7615142,0.51774 l -1.0324284,2.61038 H 6.2362054 c -0.2338982,0 -0.4566355,0.1 -0.6120057,0.27477 -0.1554504,0.1748 -0.2286791,0.40773 -0.2012986,0.64003 l 0.2296427,1.94851 H 4.8190052 c -0.4522997,0 -0.8189249,0.36662 -0.8189249,0.81892 v 30.72595 H 4 c 0,0.4523 0.3666253,0.81892 0.8189249,0.81892 H 18.181075 c 0.4523,0 0.818925,-0.36662 0.818925,-0.81892 v -30.72595 c 0,-0.4523 -0.366625,-0.81892 -0.818925,-0.81892 z m -7.856508,-4.3535 h 2.350786 l 0.589363,1.49011 H 9.7351242 Z m 5.518168,3.12804 -0.14437,1.22538 H 7.3016349 L 7.1572651,248.4706 Z m 1.519416,31.9514 H 5.6378498 v -2.01154 H 17.362151 Z m 0,-3.64939 H 5.6378498 v -25.4387 H 17.362151 Z"
         id="path1-0-7"
         style="fill:#e2e2e2;stroke-width:0.0802147;stroke-dasharray:none;fill-opacity:1" />
      <path
         d="m 7.3665129,272.88515 c -0.4522996,0 -0.8189249,0.36662 -0.8189249,0.81892 v 1.05724 c 0,0.4523 0.3666253,0.81892 0.8189249,0.81892 0.4522997,0 0.818925,-0.36662 0.818925,-0.81892 v -1.05724 c 0,-0.45222 -0.3666253,-0.81892 -0.818925,-0.81892 z"
         id="path2-0-5"
         style="fill:#e2e2e2;stroke-width:0.0802147;stroke-dasharray:none;fill-opacity:1" />
      <path
         d="m 10.122144,272.88515 c -0.4522993,0 -0.8189246,0.36662 -0.8189246,0.81892 v 1.05724 c 0,0.4523 0.3666253,0.81892 0.8189246,0.81892 0.4523,0 0.818925,-0.36662 0.818925,-0.81892 v -1.05724 c 0,-0.45222 -0.366625,-0.81892 -0.818925,-0.81892 z"
         id="path4-5-35"
         style="fill:#e2e2e2;stroke-width:0.0802147;stroke-dasharray:none;fill-opacity:1" />
      <path
         d="m 12.877856,272.88515 c -0.4523,0 -0.818925,0.36662 -0.818925,0.81892 v 1.05724 c 0,0.4523 0.366625,0.81892 0.818925,0.81892 0.4523,0 0.818925,-0.36662 0.818925,-0.81892 v -1.05724 c 0,-0.45222 -0.366625,-0.81892 -0.818925,-0.81892 z"
         id="path6-0-6"
         style="fill:#e2e2e2;stroke-width:0.0802147;stroke-dasharray:none;fill-opacity:1" />
      <path
         d="m 15.633487,272.88515 c -0.452299,0 -0.818924,0.36662 -0.818924,0.81892 v 1.05724 c 0,0.4523 0.366625,0.81892 0.818924,0.81892 0.4523,0 0.818925,-0.36662 0.818925,-0.81892 v -1.05724 c 8.1e-5,-0.45222 -0.366625,-0.81892 -0.818925,-0.81892 z"
         id="path8-3-2"
         style="fill:#e2e2e2;stroke-width:0.0802147;stroke-dasharray:none;fill-opacity:1" />
      <path
         d="m 7.3665129,268.90028 c -0.4522996,0 -0.8189249,0.36663 -0.8189249,0.81893 v 1.05724 c 0,0.4523 0.3666253,0.81892 0.8189249,0.81892 0.4522997,0 0.818925,-0.36662 0.818925,-0.81892 v -1.05724 c 0,-0.4523 -0.3666253,-0.81893 -0.818925,-0.81893 z"
         id="path10-1-9"
         style="fill:#e2e2e2;stroke-width:0.0802147;stroke-dasharray:none;fill-opacity:1" />
      <path
         d="m 10.122144,268.90028 c -0.4522993,0 -0.8189246,0.36663 -0.8189246,0.81893 v 1.05724 c 0,0.4523 0.3666253,0.81892 0.8189246,0.81892 0.4523,0 0.818925,-0.36662 0.818925,-0.81892 v -1.05724 c 0,-0.4523 -0.366625,-0.81893 -0.818925,-0.81893 z"
         id="path12-8-1"
         style="fill:#e2e2e2;stroke-width:0.0802147;stroke-dasharray:none;fill-opacity:1" />
      <path
         d="m 12.877856,268.90028 c -0.4523,0 -0.818925,0.36663 -0.818925,0.81893 v 1.05724 c 0,0.4523 0.366625,0.81892 0.818925,0.81892 0.4523,0 0.818925,-0.36662 0.818925,-0.81892 v -1.05724 c 0,-0.4523 -0.366625,-0.81893 -0.818925,-0.81893 z"
         id="path14-0-2"
         style="fill:#e2e2e2;stroke-width:0.0802147;stroke-dasharray:none;fill-opacity:1" />
      <path
         d="m 15.633487,268.90028 c -0.452299,0 -0.818924,0.36663 -0.818924,0.81893 v 1.05724 c 0,0.4523 0.366625,0.81892 0.818924,0.81892 0.4523,0 0.818925,-0.36662 0.818925,-0.81892 v -1.05724 c 8.1e-5,-0.4523 -0.366625,-0.81893 -0.818925,-0.81893 z"
         id="path16-1-7"
         style="fill:#e2e2e2;stroke-width:0.0802147;stroke-dasharray:none;fill-opacity:1" />
      <path
         d="m 7.3665129,264.834 c -0.4522996,0 -0.8189249,0.36663 -0.8189249,0.81893 v 1.05724 c 0,0.4523 0.3666253,0.81892 0.8189249,0.81892 0.4522997,0 0.818925,-0.36662 0.818925,-0.81892 v -1.05724 c 0,-0.4523 -0.3666253,-0.81893 -0.818925,-0.81893 z"
         id="path18-7-0"
         style="fill:#e2e2e2;stroke-width:0.0802147;stroke-dasharray:none;fill-opacity:1" />
      <path
         d="m 10.122144,264.834 c -0.4522993,0 -0.8189246,0.36663 -0.8189246,0.81893 v 1.05724 c 0,0.4523 0.3666253,0.81892 0.8189246,0.81892 0.4523,0 0.818925,-0.36662 0.818925,-0.81892 v -1.05724 c 0,-0.4523 -0.366625,-0.81893 -0.818925,-0.81893 z"
         id="path20-9-9"
         style="fill:#e2e2e2;stroke-width:0.0802147;stroke-dasharray:none;fill-opacity:1" />
      <path
         d="m 12.877856,264.834 c -0.4523,0 -0.818925,0.36663 -0.818925,0.81893 v 1.05724 c 0,0.4523 0.366625,0.81892 0.818925,0.81892 0.4523,0 0.818925,-0.36662 0.818925,-0.81892 v -1.05724 c 0,-0.4523 -0.366625,-0.81893 -0.818925,-0.81893 z"
         id="path22-1-36"
         style="fill:#e2e2e2;stroke-width:0.0802147;stroke-dasharray:none;fill-opacity:1" />
      <path
         d="m 15.633487,264.834 c -0.452299,0 -0.818924,0.36663 -0.818924,0.81893 v 1.05724 c 0,0.4523 0.366625,0.81892 0.818924,0.81892 0.4523,0 0.818925,-0.36662 0.818925,-0.81892 v -1.05724 c 8.1e-5,-0.4523 -0.366625,-0.81893 -0.818925,-0.81893 z"
         id="path24-0-0"
         style="fill:#e2e2e2;stroke-width:0.0802147;stroke-dasharray:none;fill-opacity:1" />
      <path
         d="m 7.3665129,260.84906 c -0.4522996,0 -0.8189249,0.36663 -0.8189249,0.81893 v 1.05723 c 0,0.4523 0.3666253,0.81893 0.8189249,0.81893 0.4522997,0 0.818925,-0.36663 0.818925,-0.81893 v -1.05723 c 0,-0.4523 -0.3666253,-0.81893 -0.818925,-0.81893 z"
         id="path26-3-6"
         style="fill:#e2e2e2;stroke-width:0.0802147;stroke-dasharray:none;fill-opacity:1" />
      <path
         d="m 10.122144,260.84906 c -0.4522993,0 -0.8189246,0.36663 -0.8189246,0.81893 v 1.05723 c 0,0.4523 0.3666253,0.81893 0.8189246,0.81893 0.4523,0 0.818925,-0.36663 0.818925,-0.81893 v -1.05723 c 0,-0.4523 -0.366625,-0.81893 -0.818925,-0.81893 z"
         id="path28-2"
         style="fill:#e2e2e2;stroke-width:0.0802147;stroke-dasharray:none;fill-opacity:1" />
      <path
         d="m 12.877856,260.84906 c -0.4523,0 -0.818925,0.36663 -0.818925,0.81893 v 1.05723 c 0,0.4523 0.366625,0.81893 0.818925,0.81893 0.4523,0 0.818925,-0.36663 0.818925,-0.81893 v -1.05723 c 0,-0.4523 -0.366625,-0.81893 -0.818925,-0.81893 z"
         id="path30-6"
         style="fill:#e2e2e2;stroke-width:0.0802147;stroke-dasharray:none;fill-opacity:1" />
      <path
         d="m 15.633487,260.84906 c -0.452299,0 -0.818924,0.36663 -0.818924,0.81893 v 1.05723 c 0,0.4523 0.366625,0.81893 0.818924,0.81893 0.4523,0 0.818925,-0.36663 0.818925,-0.81893 v -1.05723 c 8.1e-5,-0.4523 -0.366625,-0.81893 -0.818925,-0.81893 z"
         id="path32-1"
         style="fill:#e2e2e2;stroke-width:0.0802147;stroke-dasharray:none;fill-opacity:1" />
      <path
         d="m 7.3665129,256.70144 c -0.4522996,0 -0.8189249,0.36663 -0.8189249,0.81893 v 1.05724 c 0,0.4523 0.3666253,0.81892 0.8189249,0.81892 0.4522997,0 0.818925,-0.36662 0.818925,-0.81892 v -1.05724 c 0,-0.4523 -0.3666253,-0.81893 -0.818925,-0.81893 z"
         id="path34-8"
         style="fill:#e2e2e2;stroke-width:0.0802147;stroke-dasharray:none;fill-opacity:1" />
      <path
         d="m 10.122144,256.70144 c -0.4522993,0 -0.8189246,0.36663 -0.8189246,0.81893 v 1.05724 c 0,0.4523 0.3666253,0.81892 0.8189246,0.81892 0.4523,0 0.818925,-0.36662 0.818925,-0.81892 v -1.05724 c 0,-0.4523 -0.366625,-0.81893 -0.818925,-0.81893 z"
         id="path36-79"
         style="fill:#e2e2e2;stroke-width:0.0802147;stroke-dasharray:none;fill-opacity:1" />
      <path
         d="m 12.877856,256.70144 c -0.4523,0 -0.818925,0.36663 -0.818925,0.81893 v 1.05724 c 0,0.4523 0.366625,0.81892 0.818925,0.81892 0.4523,0 0.818925,-0.36662 0.818925,-0.81892 v -1.05724 c 0,-0.4523 -0.366625,-0.81893 -0.818925,-0.81893 z"
         id="path38-2"
         style="fill:#e2e2e2;stroke-width:0.0802147;stroke-dasharray:none;fill-opacity:1" />
      <path
         d="m 15.633487,256.70144 c -0.452299,0 -0.818924,0.36663 -0.818924,0.81893 v 1.05724 c 0,0.4523 0.366625,0.81892 0.818924,0.81892 0.4523,0 0.818925,-0.36662 0.818925,-0.81892 v -1.05724 c 8.1e-5,-0.4523 -0.366625,-0.81893 -0.818925,-0.81893 z"
         id="path40-0"
         style="fill:#e2e2e2;stroke-width:0.0802147;stroke-dasharray:none;fill-opacity:1" />
      <path
         d="m 7.3665129,252.71634 c -0.4522996,0 -0.8189249,0.36662 -0.8189249,0.81892 v 1.05724 c 0,0.4523 0.3666253,0.81893 0.8189249,0.81893 0.4522997,0 0.818925,-0.36663 0.818925,-0.81893 v -1.05724 c 0,-0.45222 -0.3666253,-0.81892 -0.818925,-0.81892 z"
         id="path42-2"
         style="fill:#e2e2e2;stroke-width:0.0802147;stroke-dasharray:none;fill-opacity:1" />
      <path
         d="m 10.122144,252.71634 c -0.4522993,0 -0.8189246,0.36662 -0.8189246,0.81892 v 1.05724 c 0,0.4523 0.3666253,0.81893 0.8189246,0.81893 0.4523,0 0.818925,-0.36663 0.818925,-0.81893 v -1.05724 c 0,-0.45222 -0.366625,-0.81892 -0.818925,-0.81892 z"
         id="path44-3"
         style="fill:#e2e2e2;stroke-width:0.0802147;stroke-dasharray:none;fill-opacity:1" />
      <path
         d="m 12.877856,252.71634 c -0.4523,0 -0.818925,0.36662 -0.818925,0.81892 v 1.05724 c 0,0.4523 0.366625,0.81893 0.818925,0.81893 0.4523,0 0.818925,-0.36663 0.818925,-0.81893 v -1.05724 c 0,-0.45222 -0.366625,-0.81892 -0.818925,-0.81892 z"
         id="path46-7"
         style="fill:#e2e2e2;stroke-width:0.0802147;stroke-dasharray:none;fill-opacity:1" />
      <path
         d="m 15.633487,252.71634 c -0.452299,0 -0.818924,0.36662 -0.818924,0.81892 v 1.05724 c 0,0.4523 0.366625,0.81893 0.818924,0.81893 0.4523,0 0.818925,-0.36663 0.818925,-0.81893 v -1.05724 c 8.1e-5,-0.45222 -0.366625,-0.81892 -0.818925,-0.81892 z"
         id="path48-5"
         style="fill:#e2e2e2;stroke-width:0.0802147;stroke-dasharray:none;fill-opacity:1" />
    </g>
    <path
       id="moon"
       style="fill:#e2e2e2;fill-opacity:1;stroke-width:0.0718746"
       d="m 32.749759,221.15977 c -4.9148,0 -9.5354,1.91397 -13.0106,5.38933 -2.7155,2.71539 -4.472,6.13174 -5.1129,9.83971 0.071,-0.006 0.1419,-0.0218 0.2129,-0.0258 1.1948,-0.0683 2.5135,-0.0733 3.992,0.8263 0.1341,0.0816 0.33,0.21389 0.5198,0.36949 0.013,-0.0222 0.034,-0.0462 0.048,-0.0687 -0.048,-0.28577 -0.08,-0.57423 -0.08,-0.8661 0,-2.91423 2.3708,-5.28495 5.2851,-5.28495 1.1623,0 2.2348,0.38176 3.1083,1.0201 0.3207,-0.26522 0.6573,-0.50968 1.0154,-0.73226 1.2128,-0.75379 2.6126,-1.15652 4.0148,-1.15652 1.315,0 2.3665,0.15002 3.3424,0.53589 0.072,-1.55526 1.3567,-2.79932 2.9295,-2.79932 1.6189,0 2.9358,1.31728 2.9358,2.93626 0,1.33534 -0.8965,2.46351 -2.1188,2.81843 0.5853,0.74305 0.9826,1.42859 1.3963,2.21382 1.2572,-0.40135 1.725,-0.40577 2.7937,-0.31057 1.7297,0.15416 2.838,0.90703 3.7165,1.89755 0.1962,-0.13547 0.3729,-0.25847 0.5881,-0.37827 0.8919,-0.49654 1.7455,-0.70181 2.5961,-0.71933 -0.5995,-3.8146 -2.378,-7.33292 -5.1609,-10.11567 -3.4753,-3.47536 -8.0963,-5.38933 -13.0111,-5.38933 z m 0,3.91552 c 1.1873,0 2.1534,0.96555 2.1534,2.15284 0,1.1873 -0.9662,2.15336 -2.1534,2.15336 -1.1873,0 -2.1528,-0.96606 -2.1528,-2.15336 0,-1.18729 0.9655,-2.15284 2.1528,-2.15284 z m 0,1.17409 c -0.5397,0 -0.9787,0.43905 -0.9787,0.97875 0,0.53971 0.439,0.97875 0.9787,0.97875 0.5397,0 0.9788,-0.43904 0.9788,-0.97875 0,-0.5397 -0.4391,-0.97875 -0.9788,-0.97875 z m 6.2637,3.13211 c -0.9713,2.9e-4 -1.7616,0.79036 -1.7616,1.76165 0,0.18232 0.036,0.35485 0.087,0.52038 0.5639,0.3748 1.0697,0.78191 1.5296,1.2268 0.049,0.004 0.095,0.0145 0.1452,0.0145 0.9713,0 1.7617,-0.79019 1.7617,-1.76165 0,-0.97129 -0.79,-1.76137 -1.7612,-1.76165 z m -14.4101,3.13211 c -2.1749,0 -3.9556,1.69903 -4.0963,3.83904 0.2107,-0.13989 0.4407,-0.26928 0.7049,-0.37414 0.1982,-0.0787 0.391,-0.14208 0.5798,-0.1943 0.3622,-1.21087 1.4846,-2.09651 2.8116,-2.09651 0.5387,0 1.042,0.14847 1.4764,0.40256 0.2429,-0.32377 0.495,-0.62809 0.7602,-0.91054 -0.6443,-0.41976 -1.4119,-0.66611 -2.2366,-0.66611 z m 0,2.34869 c -0.5939,0 -1.1178,0.29714 -1.4371,0.74879 0.6548,0.0172 1.2317,0.17726 1.7198,0.40411 0.1713,-0.31648 0.338,-0.64446 0.5251,-0.94774 -0.243,-0.12672 -0.5152,-0.20516 -0.8078,-0.20516 z m 17.077,17.82682 c -0.2657,0.23957 -0.5209,0.4035 -0.7482,0.53899 -0.5445,0.3248 -1.0843,0.42875 -1.5488,0.46095 -0.5037,0.0349 -1.3371,-0.0139 -2.1776,-0.49351 -0.1827,0.20618 -0.3835,0.41454 -0.5432,0.57568 -0.3495,0.35283 -0.7411,0.72563 -1.248,1.06815 -0.5544,0.37486 -1.7262,1.08985 -3.2908,1.08985 -1.3295,0 -2.3169,-0.2239 -3.0334,-0.58601 -0.8685,-0.43892 -1.0844,-0.57438 -1.9374,-1.37666 -0.3879,-0.36482 -0.6614,-0.73868 -0.8976,-1.12344 -0.1596,0.0276 -0.2809,0.0434 -0.5456,0.0434 -0.2053,0 -0.3835,-0.007 -0.5519,-0.0362 -0.1048,0.14262 -0.1767,0.21968 -0.3503,0.39326 -0.8699,0.8699 -2.0108,1.00821 -2.6873,1.00821 -0.1433,0 -0.3062,-0.0135 -0.4754,-0.0341 v 0.0119 c 3.1803,2.41789 7.0403,3.73052 11.1042,3.73052 4.0637,0 7.9243,-1.31182 11.1047,-3.72949 V 252.84 c -0.1246,0.0317 -0.253,0.0589 -0.3901,0.0754 -0.6651,0.0802 -1.2212,0.0185 -1.7834,-0.22634 z"
       sodipodi:nodetypes="ssccsccsscsscssccscscsssssssssssssssccssssscscsccsscccscsscssssscscssccsccsc" />
    <path
       id="cloud_upper"
       style="fill:#e2e2e2;fill-opacity:1;stroke:none;stroke-width:0.82;stroke-linecap:square;stroke-dasharray:none;stroke-dashoffset:2.26772;stroke-opacity:0.932235;paint-order:fill markers stroke"
       d="m 32.748259,231.2899 c -1.1006,0 -2.2346,0.2766 -3.279,0.85215 -1.7043,0.93934 -2.7109,2.3006 -3.3635,3.35741 v 0 c -0.2159,0.3495 -0.4533,0.82715 -0.9033,1.63763 -0.158,-0.10067 -0.3647,-0.23733 -0.6614,-0.37569 -0.7205,-0.33611 -1.7208,-0.54096 -3.0293,-0.0217 -0.9525,0.37802 -1.445,1.11621 -1.7048,1.711 -0.088,0.20038 -0.1344,0.33892 -0.184,0.49196 -0.046,-0.0475 -0.07,-0.0719 -0.123,-0.1266 -0.2755,-0.2842 -0.6406,-0.64794 -1.0976,-0.92605 -1.3012,-0.79169 -2.491,-0.76726 -3.5196,-0.70848 -1.1088,0.0634 -2.2834,0.43581 -3.158,1.04852 -1.2694,0.88929 -1.8779997,1.9874 -2.2540987,2.88302 -0.1501,0.3576 -0.325101,0.84326 -0.5312,1.29502 -0.206201,0.45176 -0.4572,0.86473 -0.652201,1.03507 -0.4051,0.35393 -0.9469,0.60594 -1.5121,0.65785 -0.2889,0.0266 -1.1411,0.0654 -1.912,0.15244 -0.3855,0.0435 -0.7532,0.0974 -1.0547,0.17983 -0.1507,0.0412 -0.2848,0.0869 -0.416,0.16589 -0.1312,0.079 -0.3142,0.23809 -0.3142,0.50022 0,0.21743 0.1502,0.36346 0.246,0.42375 0.096,0.0603 0.1797,0.0854 0.2697,0.10955 0.1799,0.0484 0.3875,0.0756 0.6346,0.0977 0.4943,0.0441 1.1328,0.0583 1.7891,0.0584 1.014,1.5e-4 1.9219,-0.0296 2.4706,-0.0475 l 0.7581,-1.91875 c 0.2464,-0.62333 0.8555997,-1.03715 1.5254997,-1.03715 h 0.092 v -1.11724 c 0,-0.89523 0.7448,-1.63837 1.6402,-1.63866 h 5e-4 c 0.8952,2.9e-4 1.6382,0.74344 1.6382,1.63866 v 1.11724 h 0.092 c 0.4671,0 0.9014,0.20409 1.2072,0.53692 0.6768,-0.88423 1.4568,-1.31992 2.2536,-1.60404 0.7444,-0.26543 1.5046,-0.3571 2.2267,-0.34158 0.7197,0.0155 1.4494,0.14912 1.9979,0.447 1.167,0.6337 1.7437,1.32122 2.082,2.13114 0.044,0.10509 0.1292,0.31626 0.1292,0.31626 l 0.3359,-0.0703 c 0.4244,-0.0894 0.9152,-0.14574 1.5193,-0.0393 0.5237,0.0924 0.8947,0.25091 1.1896,0.40462 l 0.2599,0.13643 0.2129,-0.20309 c 0.253,-0.2417 1.2425,-1.18507 2.4552,-1.52342 0.5919,-0.16512 1.232,-0.28319 1.8882,-0.28319 0.8687,0 1.6398,0.13166 2.3399,0.47284 l 0.3204,0.15606 0.1995,-0.29455 c 0.3141,-0.46238 0.7008,-0.90727 1.3007,-1.39268 1.3027,-1.05414 3.1006,-1.17202 3.6814,-1.17202 1.5082,0 2.9555,0.62432 3.9589,1.47846 0.5772,0.49134 1.0699,1.07625 1.4031,1.68402 0.4245,0.77412 0.5603,1.40004 0.7565,2.04448 0.3165,0.12211 0.7247,0.26214 1.0914,0.39584 0.2127,-0.0977 0.4451,-0.1509 0.6842,-0.1509 h 1.1818 l 0.8263,-2.09186 v -0.002 c 0.2466,-0.6224 0.8556,-1.03508 1.525,-1.03508 h 0.092 v -1.11724 c 0,-0.89522 0.7429,-1.63837 1.6381,-1.63866 h 6e-4 c 0.8953,2.9e-4 1.6402,0.74344 1.6402,1.63866 v 1.11724 h 0.092 c 0.67,0 1.279,0.41382 1.5254,1.03715 l 0.8155,2.06447 c 0.5492,-0.0882 1.2799,-0.16071 2.3999,-0.16071 0.1619,0 0.8335,0.0469 1.4376,0.0429 0.302,-0.002 0.5925,-0.0139 0.8454,-0.0625 0.1225,-0.0235 0.229,-0.0515 0.3711,-0.12661 0.1493,-0.0789 0.2971,-0.25208 0.2971,-0.48059 0,-0.15923 -0.085,-0.29075 -0.1581,-0.36328 -0.073,-0.0725 -0.1421,-0.11135 -0.2114,-0.1447 -0.1384,-0.0667 -0.2852,-0.10706 -0.4547,-0.14624 -0.339,-0.0784 -0.7653,-0.1371 -1.2129,-0.18965 -0.8952,-0.1051 -1.918,-0.19515 -2.1838,-0.25787 -0.8684,-0.20488 -1.3629,-0.94267 -1.7069,-1.7849 v -0.002 c -0.2329,-0.57475 -0.6204,-1.50544 -1.0062,-2.17196 -0.472,-0.81546 -1.3747,-1.71226 -2.2691,-2.10168 -0.4322,-0.1882 -1.3697,-0.45888 -2.1761,-0.45889 -0.7598,0 -1.5277,0.18522 -2.3145,0.62322 -0.1914,0.10654 -0.427,0.26843 -0.6579,0.42788 -0.1991,0.1375 -0.3675,0.25227 -0.4806,0.32608 -0.083,-0.0818 -0.2151,-0.2655 -0.3788,-0.4532 -0.9077,-1.04084 -1.8749,-1.59759 -3.2576,-1.72083 -1.3091,-0.11668 -1.6438,-0.0136 -3.0929,0.48369 -0.023,-0.0244 -0.044,-0.0497 -0.1008,-0.14004 -0.1278,-0.20367 -0.289,-0.54995 -0.494,-0.89814 -0.5673,-1.12461 -1.7848,-2.85624 -3.6297,-3.94704 -1.3769,-0.81406 -2.7834,-0.88987 -3.884,-0.88987 z m 0,0.82011 c 1.3053,-0.0133 2.5504,0.19583 3.5625,0.83509 0.558,0.35233 2.0647,1.38288 3.2246,3.55895 0.1718,0.32227 0.3406,0.64332 0.5256,0.95705 0.091,0.14527 0.1893,0.28363 0.3458,0.39946 0.1819,0.13466 0.4115,0.18554 0.6386,0.10852 1.5067,-0.51092 1.6832,-0.5732 2.8324,-0.47077 1.1121,0.0991 1.8976,0.50874 2.7126,1.44332 0.1213,0.13909 0.2496,0.3345 0.4336,0.5116 0.092,0.0886 0.2037,0.18098 0.3715,0.23047 0.1953,0.0576 0.389,0.0193 0.5467,-0.078 0.1499,-0.0926 0.3628,-0.24383 0.5897,-0.40049 0.2269,-0.15666 0.4666,-0.31687 0.5917,-0.38654 0.6781,-0.3775 1.286,-0.52142 1.9161,-0.52142 0.5898,0 1.5989,0.28309 1.8495,0.39223 0.2858,0.1244 0.6294,0.38073 0.954,0.67489 -0.2661,-0.0987 -0.5516,-0.15503 -0.8491,-0.15503 h -0.01 c -1.3385,0 -2.4593,1.09391 -2.4593,2.45877 v 0.40152 c -0.6961,0.21059 -1.2881,0.76202 -1.5601,1.45005 l -0.6212,1.57406 h -0.6232 c -0.2323,0 -0.4608,0.0335 -0.6801,0.0966 -0.1422,-0.0511 -0.2666,-0.0949 -0.4201,-0.14986 -0.3402,-1.41982 -0.8855,-2.52175 -2.3001,-3.7238 -0.8933,-0.75909 -2.4365,-1.67432 -4.4902,-1.67432 -0.674,0 -2.6399,0.0955 -4.1971,1.35548 -0.5716,0.46249 -0.9208,0.83924 -1.264,1.28932 -0.7518,-0.30476 -1.5444,-0.41393 -2.3808,-0.41393 -0.7544,0 -1.4685,0.13539 -2.1094,0.3142 -1.2592,0.35132 -2.1882,1.15665 -2.5926,1.52342 -0.3146,-0.14605 -0.6658,-0.26936 -1.1632,-0.35709 -0.6108,-0.10767 -1.0506,-0.0796 -1.5023,-0.0139 -0.4304,-0.8833 -1.1468,-1.6006 -2.3141,-2.23449 -0.7188,-0.3903 -1.5648,-0.53147 -2.3709,-0.5488 -0.8038,-0.0173 -1.6656,0.084 -2.5197,0.38861 -0.7591,0.27067 -1.4707,0.65742 -2.1053,1.27589 -0.1132,-0.0563 -0.2305,-0.10504 -0.3519,-0.14315 v -0.40979 c 0,-1.3707 -1.1208,-2.45877 -2.4593,-2.45877 h -0.01 c -0.3105,0 -0.6089,0.0595 -0.8847,0.16692 0.1749,-0.16178 0.3638,-0.3211 0.5819,-0.47387 0.7131,-0.49951 1.781,-0.84575 2.7342,-0.90021 1.0107,-0.0578 1.9347,-0.087 3.0468,0.58963 0.3489,0.21228 0.6726,0.52322 0.9359,0.79478 0.1317,0.13578 0.2467,0.26066 0.3571,0.36536 0.055,0.0523 0.1085,0.10099 0.1741,0.14676 0.066,0.0458 0.1412,0.10558 0.3049,0.11524 0.146,0.008 0.2831,-0.069 0.3494,-0.13281 0.067,-0.0641 0.095,-0.11859 0.1193,-0.1664 0.049,-0.0956 0.075,-0.17827 0.1055,-0.27337 0.062,-0.19021 0.1303,-0.41971 0.2361,-0.66197 0.2117,-0.48453 0.546,-0.9937 1.2558,-1.27538 1.1054,-0.43871 1.8405,-0.25197 2.3807,0 0.2701,0.12598 0.4817,0.27094 0.6682,0.38654 0.093,0.0578 0.1707,0.11444 0.3105,0.15451 0.07,0.02 0.1682,0.039 0.291,0.006 0.1227,-0.0335 0.2415,-0.13797 0.295,-0.23203 0.6686,-1.17681 0.8373,-1.53662 1.0429,-1.88671 0.3058,-0.52055 1.1253,-1.67321 2.1115,-2.44326 0.9862,-0.77006 2.2595,-1.36268 3.8333,-1.37872 z"
       sodipodi:nodetypes="cssscssccssssssssssssssssccscsssscscssssccsccssssccssssccscccscsssscsccssssssssssccssssscsscscscccsscssssssssssscssscccsccssscsscscsssccssscssssssccccsssssccsscc" />
    <path
       id="cloud_lower"
       style="fill:#e2e2e2;fill-opacity:1;stroke:none;stroke-width:0.82;stroke-linecap:square;stroke-dasharray:none;stroke-dashoffset:2.26772;stroke-opacity:0.933333;paint-order:fill markers stroke"
       d="m 39.836159,241.28257 c -0.6723,0 -2.139,0.15946 -3.1662,0.99064 -0.833,0.67398 -1.2173,1.30728 -1.4278,1.67948 -0.097,0.17094 -0.2041,0.37782 -0.3008,0.47388 -0.067,-0.0247 -0.1932,-0.0868 -0.3199,-0.15917 -0.2533,-0.14485 -0.5533,-0.34636 -0.8774,-0.46508 -1.162,-0.42574 -2.3473,-0.33384 -3.4179,-0.0351 -0.7959,0.22201 -1.4544,0.7247 -2.0056,1.22473 v 0.002 c -0.1986,0.18033 -0.3761,0.37423 -0.5333,0.51935 -0.096,0.0887 -0.221,0.1883 -0.3007,0.21963 -0.06,-0.0375 -0.2375,-0.16116 -0.3204,-0.21756 -0.2778,-0.18885 -0.7013,-0.43602 -1.3204,-0.54519 -0.6378,-0.11248 -1.1761,0.0128 -1.5683,0.12506 -0.1961,0.0562 -0.3582,0.10657 -0.4687,0.12919 -0.1156,0.0237 -0.146,0.0192 -0.1918,-0.0103 -0.054,-0.0347 -0.082,-0.0805 -0.1028,-0.13075 -0.04,-0.0974 -0.073,-0.29172 -0.1586,-0.53743 -0.25,-0.71904 -0.6264,-1.35149 -1.8242,-2.00195 -0.4299,-0.23343 -0.9969,-0.33587 -1.6247,-0.34933 -0.6278,-0.0135 -1.3108,0.0737 -1.9317,0.29507 -0.8244,0.29396 -1.5182,0.73206 -2.0965,1.62678 l 0.7095,1.79782 h 1.1819 c 0.4675,0 0.914,0.19929 1.2247,0.5488 0.3114,0.34991 0.4559,0.81585 0.402,1.279 v 0.002 l -0.1204,1.03767 c 0.856,0.0372 1.5482,0.75267 1.5482,1.63452 v 2.75849 c 0.4354,0.17294 0.9666,0.25631 1.3089,0.25631 0.5226,0 1.406,-0.0891 2.1059,-0.77359 0.2041,-0.19972 0.361,-0.42391 0.4449,-0.54725 0.082,-0.1206 0.097,-0.14645 0.1204,-0.17881 0.172,0.0641 0.4245,0.13436 0.9091,0.13436 0.4692,0 0.7385,-0.10287 0.9088,-0.18448 0.3146,0.4948 0.5795,1.00213 1.0971,1.48725 0.4056,0.38014 0.6343,0.58672 0.8838,0.76274 0.2157,0.15226 0.4464,0.2725 0.8624,0.47904 0.5372,0.26668 1.4403,0.50023 2.6619,0.50023 1.2999,0 2.3372,-0.61699 2.8318,-0.95136 0.4413,-0.29824 0.787,-0.62875 1.125,-0.96687 0.3455,-0.3455 0.682,-0.71515 0.9694,-1.10949 0.1057,0.0859 0.1847,0.14716 0.3297,0.25218 0.723,0.52346 1.52,0.56498 1.9472,0.53537 0.3934,-0.0273 0.7734,-0.10114 1.1834,-0.34572 0.2743,-0.16361 0.5805,-0.37208 0.8536,-0.67593 0.073,-0.0811 0.091,-0.10224 0.138,-0.16691 0.185,0.13124 0.621,0.31633 0.8025,0.36638 0.3259,0.0898 0.6077,0.10589 1.0614,0.0527 0.5659,-0.0663 0.9945,-0.34262 1.3059,-0.61133 v -1.07332 c 0,-0.88185 0.6928,-1.59731 1.5488,-1.63452 l -0.1209,-1.03767 v -0.002 c -0.043,-0.37282 0.048,-0.74432 0.245,-1.05885 -0.1489,-0.0532 -0.2805,-0.10038 -0.4399,-0.15658 -0.3284,-0.11577 -0.4707,-0.18275 -0.5524,-0.26562 -0.082,-0.0829 -0.1712,-0.24836 -0.2817,-0.66818 -0.3155,-1.19916 -0.5619,-1.96851 -1.8102,-3.02927 -0.97,-0.81967 -2.2688,-1.28106 -3.428,-1.28106 z m 0,0.82062 c 1.0353,0 2.1599,0.45976 2.8965,1.08573 1.0654,0.90547 1.2619,1.52149 1.5487,2.61172 0.1231,0.46776 0.249,0.79182 0.4904,1.03663 0.1549,0.157 0.3358,0.24987 0.5291,0.33073 -0.035,0.22025 -0.042,0.44608 -0.015,0.67179 l 0.031,0.26097 0.01,0.0646 c -0.9024,0.3913 -1.4721,1.24982 -1.4721,2.25102 v 0.66043 c -0.1703,0.10319 -0.3599,0.18291 -0.583,0.2098 -0.6742,0.0813 -0.8161,-0.0625 -1.1679,-0.20515 -0.033,-0.0135 -0.1329,-0.07 -0.2655,-0.1695 -0.041,-0.031 -0.081,-0.0641 -0.137,-0.0997 -0.055,-0.0356 -0.1766,-0.10618 -0.3317,-0.092 -0.1265,0.0116 -0.2418,0.0716 -0.3303,0.18345 -0.051,0.0648 -0.064,0.0955 -0.082,0.12712 -0.037,0.0634 -0.081,0.13759 -0.2011,0.27131 -0.1953,0.21713 -0.421,0.37419 -0.6619,0.51779 -0.2657,0.15848 -0.4983,0.21022 -0.8206,0.23255 -0.2884,0.02 -0.8944,-0.0101 -1.4098,-0.38292 -0.205,-0.14845 -0.3693,-0.28642 -0.5059,-0.39843 -0.056,-0.0458 -0.1289,-0.0951 -0.2346,-0.12092 -0.1205,-0.0294 -0.2272,-0.0161 -0.3318,0.031 -0.1575,0.0709 -0.2439,0.19202 -0.3105,0.28887 -0.3194,0.46474 -0.6556,0.81818 -0.9809,1.1467 -0.3235,0.32671 -0.6242,0.60957 -0.9999,0.86352 -0.4348,0.2939 -1.3378,0.81028 -2.373,0.81028 -1.1135,0 -1.9388,-0.2329 -2.2929,-0.41186 -0.642,-0.32446 -0.7387,-0.3399 -1.5549,-1.10742 -0.4653,-0.43759 -0.7093,-0.94584 -1.0444,-1.45004 -0.085,-0.12773 -0.2172,-0.29244 -0.4439,-0.32557 -0.1914,-0.028 -0.3464,0.0589 -0.4217,0.0977 -0.095,0.0487 -0.2613,0.15245 -0.6563,0.15245 -0.3796,0 -0.5227,-0.0476 -0.6583,-0.0956 -0.042,-0.0148 -0.1347,-0.0702 -0.2848,-0.0765 -0.183,-0.008 -0.3139,0.0704 -0.4103,0.14262 -0.1424,0.1065 -0.2523,0.2805 -0.3498,0.42375 -0.098,0.14326 -0.204,0.29334 -0.3457,0.43201 -0.4018,0.39298 -1.0012,0.54979 -1.5235,0.53899 -0.142,-0.003 -0.3132,-0.0209 -0.495,-0.0537 v -2.14096 c 0,-0.92459 -0.5244,-1.82626 -1.4743,-2.25412 l 0.01,-0.0615 c 0.012,-0.0867 0.03,-0.26097 0.03,-0.26097 0.082,-0.69663 -0.1366,-1.39736 -0.603,-1.92184 -0.4662,-0.52445 -1.1369,-0.82424 -1.8381,-0.82424 h -0.6233 l -0.3384,-0.85835 c 0.3996,-0.48433 0.8651,-0.76833 1.4422,-0.9741 0.502,-0.17905 1.1009,-0.2575 1.6387,-0.24598 0.5377,0.0115 1.0194,0.12519 1.2495,0.25012 0.9559,0.5191 1.239,0.96772 1.4418,1.55081 0.057,0.16509 0.083,0.35168 0.1736,0.57619 0.091,0.2245 0.2558,0.46194 0.6016,0.60513 0.2229,0.0923 0.4358,0.0687 0.6175,0.0315 0.1816,-0.0372 0.3503,-0.0955 0.5292,-0.14676 0.358,-0.10249 0.74,-0.18671 1.2009,-0.10542 0.4798,0.0846 0.7612,0.25439 1.002,0.41806 0.1203,0.0818 0.227,0.1649 0.3612,0.2403 0.1342,0.0754 0.3206,0.15068 0.5452,0.10904 0.3149,-0.0584 0.5637,-0.27368 0.7302,-0.42737 0.196,-0.18099 0.3741,-0.37656 0.5297,-0.5178 0.5094,-0.46215 1.0819,-0.87729 1.6754,-1.04283 0.9625,-0.26859 1.9585,-0.3353 2.9161,0.0155 0.1737,0.0636 0.4679,0.2447 0.7503,0.40617 0.1412,0.0807 0.2808,0.1571 0.4336,0.21291 0.1527,0.0558 0.3694,0.10882 0.5818,0.0119 0.2121,-0.0968 0.34,-0.23155 0.4455,-0.37724 0.1055,-0.14568 0.1818,-0.29407 0.2811,-0.46871 0.1757,-0.30909 0.5108,-0.86465 1.2304,-1.44694 0.7588,-0.61394 1.9778,-0.80667 2.6505,-0.80667 z"
       sodipodi:nodetypes="ssccsssccscsssssccsssccsccccscssscscsssssscsssscsscsccscssscsssssccccscssscsscssssssscsssssssssscscsscscccssccssscsssssssssssssssssss" />
    <text
       xml:space="preserve"
       style="font-style:normal;font-variant:normal;font-weight:normal;font-stretch:normal;font-size:4.23333px;line-height:1.25;font-family:'Kumar One Cyrillic';-inkscape-font-specification:'Kumar One Cyrillic';text-align:start;letter-spacing:0px;word-spacing:0px;writing-mode:lr-tb;direction:ltr;text-anchor:start;fill:#e2e2e2;stroke-width:2.5;stroke-linecap:square;stroke-dashoffset:2.26772;paint-order:fill markers stroke;fill-opacity:1"
       x="13.357106"
       y="290.16336"
       id="text_mnf_left"><tspan
         sodipodi:role="line"
         id="tspan1-5-9"
         style="line-height:1.25;letter-spacing:0px;word-spacing:0px;stroke-width:2.5;fill:#e2e2e2;fill-opacity:1"
         x="13.357106"
         y="290.16336"
         rotate="0 0 0 0 0 0">-ТТКР</tspan></text>
    <text
       xml:space="preserve"
       style="font-style:normal;font-variant:normal;font-weight:normal;font-stretch:normal;font-size:4.23333px;line-height:1.25;font-family:'Kumar One Cyrillic';-inkscape-font-specification:'Kumar One Cyrillic';text-align:start;letter-spacing:0px;word-spacing:0px;writing-mode:lr-tb;direction:ltr;text-anchor:start;fill:#e2e2e2;stroke-width:2.5;stroke-linecap:square;stroke-dashoffset:2.26772;paint-order:fill markers stroke;fill-opacity:1"
       x="36.855"
       y="290.16336"
       id="text_mnf_right"><tspan
         sodipodi:role="line"
         id="tspan1-5-3"
         style="line-height:1.25;letter-spacing:0px;word-spacing:0px;stroke-width:2.5;fill:#e2e2e2;fill-opacity:1"
         x="36.855"
         y="290.16336"
         rotate="0 0 0 0 0 0">ЧПДЛ-</tspan></text>
    <text
       xml:space="preserve"
       style="font-style:normal;font-variant:normal;font-weight:normal;font-stretch:normal;font-size:4.23333px;line-height:1.25;font-family:'Kumar One Cyrillic';-inkscape-font-specification:'Kumar One Cyrillic';text-align:start;letter-spacing:0px;word-spacing:0px;writing-mode:lr-tb;direction:ltr;text-anchor:start;fill:#e2e2e2;stroke-width:2.5;stroke-linecap:square;stroke-dashoffset:2.26772;paint-order:fill markers stroke;fill-opacity:1"
       x="24.378588"
       y="183.48334"
       id="text_title_1"><tspan
         sodipodi:role="line"
         id="tspan1"
         style="line-height:1.25;letter-spacing:0px;word-spacing:0px;stroke-width:2.5;fill:#e2e2e2;fill-opacity:1"
         x="24.378588"
         y="183.48334"
         rotate="0 0 0 0 0 0">GRE<tspan
   style="letter-spacing:-0.5715px;fill:#e2e2e2;fill-opacity:1"
   id="tspan2">A</tspan>T</tspan></text>
    <text
       xml:space="preserve"
       style="font-style:normal;font-variant:normal;font-weight:normal;font-stretch:normal;font-size:4.23333px;line-height:1.25;font-family:'Kumar One Cyrillic';-inkscape-font-specification:'Kumar One Cyrillic';text-align:start;letter-spacing:0px;word-spacing:0px;writing-mode:lr-tb;direction:ltr;text-anchor:start;fill:#e2e2e2;stroke-width:2.5;stroke-linecap:square;stroke-dashoffset:2.26772;paint-order:fill markers stroke;fill-opacity:1"
       x="17.037994"
       y="188.56334"
       id="text_title_2"><tspan
         sodipodi:role="line"
         id="tspan1-5"
         style="line-height:1.25;letter-spacing:0px;word-spacing:0px;stroke-width:2.5;fill:#e2e2e2;fill-opacity:1"
         x="17.037994"
         y="188.56334"
         rotate="0 0 0 0 0 0 0 0 0 0 0">DEPRESSION</tspan></text>
    <text
       xml:space="preserve"
       style="font-style:normal;font-variant:normal;font-weight:normal;font-stretch:normal;font-size:4.23333px;line-height:1.25;font-family:'Kumar One Cyrillic';-inkscape-font-specification:'Kumar One Cyrillic';text-align:start;letter-spacing:0px;word-spacing:0px;writing-mode:lr-tb;direction:ltr;text-anchor:start;fill:#e2e2e2;stroke-width:2.5;stroke-linecap:square;stroke-dashoffset:2.26772;paint-order:fill markers stroke;fill-opacity:1"
       x="22.316961"
       y="193.64334"
       id="text_title_3"><tspan
         sodipodi:role="line"
         id="tspan1-2"
         style="line-height:1.25;letter-spacing:0px;word-spacing:0px;stroke-width:2.5;fill:#e2e2e2;fill-opacity:1"
         x="22.316961"
         y="193.64334"
         rotate="0 0 0 0 0 0 0">PHASER</tspan></text>
    <text
       xml:space="preserve"
       style="font-style:normal;font-variant:normal;font-weight:normal;font-stretch:normal;font-size:4.23333px;line-height:1.25;font-family:'Kumar One Cyrillic';-inkscape-font-specification:'Kumar One Cyrillic';text-align:start;letter-spacing:0px;word-spacing:0px;writing-mode:lr-tb;direction:ltr;text-anchor:start;fill:#e2e2e2;stroke-width:2.5;stroke-linecap:square;stroke-dashoffset:2.26772;paint-order:fill markers stroke;fill-opacity:1"
       x="9.5090075"
       y="219.67834"
       id="text_rp1"><tspan
         sodipodi:role="line"
         id="tspan1-5-2"
         style="line-height:1.25;letter-spacing:0px;word-spacing:0px;stroke-width:2.5;fill:#e2e2e2;fill-opacity:1"
         x="9.5090075"
         y="219.67834"
         rotate="0 0 0 0 0 0">SPEED</tspan></text>
    <text
       xml:space="preserve"
       style="font-style:normal;font-variant:normal;font-weight:normal;font-stretch:normal;font-size:4.23333px;line-height:1.25;font-family:'Kumar One Cyrillic';-inkscape-font-specification:'Kumar One Cyrillic';text-align:start;letter-spacing:0px;word-spacing:0px;writing-mode:lr-tb;direction:ltr;text-anchor:start;fill:#e2e2e2;stroke-width:2.5;stroke-linecap:square;stroke-dashoffset:2.26772;paint-order:fill markers stroke;fill-opacity:1"
       x="41.419868"
       y="219.67834"
       id="text_rp2"><tspan
         sodipodi:role="line"
         id="tspan1-5-31"
         style="line-height:1.25;letter-spacing:0px;word-spacing:0px;stroke-width:2.5;fill:#e2e2e2;fill-opacity:1"
         x="41.419868"
         y="219.67834"
         rotate="0 0 0 0 0">FDBK</tspan></text>
  </g>
</svg>
