G04 #@! TF.GenerationSoftware,KiCad,Pcbnew,5.1.6-c6e7f7d~87~ubuntu19.10.1*
G04 #@! TF.CreationDate,2022-08-02T14:22:49+06:00*
G04 #@! TF.ProjectId,1590BB2_connector_board_extended_r1a,31353930-4242-4325-9f63-6f6e6e656374,1A*
G04 #@! TF.SameCoordinates,Original*
G04 #@! TF.FileFunction,Copper,L1,Top*
G04 #@! TF.FilePolarity,Positive*
%FSLAX46Y46*%
G04 Gerber Fmt 4.6, Leading zero omitted, Abs format (unit mm)*
G04 Created by KiCad (PCBNEW 5.1.6-c6e7f7d~87~ubuntu19.10.1) date 2022-08-02 14:22:49*
%MOMM*%
%LPD*%
G01*
G04 APERTURE LIST*
G04 #@! TA.AperFunction,SMDPad,CuDef*
%ADD10R,1.800000X1.600000*%
G04 #@! TD*
G04 #@! TA.AperFunction,SMDPad,CuDef*
%ADD11R,1.600000X1.800000*%
G04 #@! TD*
G04 #@! TA.AperFunction,SMDPad,CuDef*
%ADD12R,2.400000X2.600000*%
G04 #@! TD*
G04 #@! TA.AperFunction,SMDPad,CuDef*
%ADD13R,2.200000X0.600000*%
G04 #@! TD*
G04 #@! TA.AperFunction,SMDPad,CuDef*
%ADD14R,2.200000X2.600000*%
G04 #@! TD*
G04 #@! TA.AperFunction,ComponentPad*
%ADD15R,2.500000X2.500000*%
G04 #@! TD*
G04 #@! TA.AperFunction,ComponentPad*
%ADD16O,2.700000X4.000000*%
G04 #@! TD*
G04 #@! TA.AperFunction,ComponentPad*
%ADD17O,2.500000X3.900000*%
G04 #@! TD*
G04 #@! TA.AperFunction,ComponentPad*
%ADD18O,5.500000X3.000000*%
G04 #@! TD*
G04 #@! TA.AperFunction,ComponentPad*
%ADD19O,3.000000X5.000000*%
G04 #@! TD*
G04 #@! TA.AperFunction,ComponentPad*
%ADD20O,5.000000X3.000000*%
G04 #@! TD*
G04 #@! TA.AperFunction,ComponentPad*
%ADD21C,1.900000*%
G04 #@! TD*
G04 #@! TA.AperFunction,ComponentPad*
%ADD22R,1.900000X1.900000*%
G04 #@! TD*
G04 #@! TA.AperFunction,Conductor*
%ADD23C,1.000000*%
G04 #@! TD*
G04 #@! TA.AperFunction,Conductor*
%ADD24C,0.600000*%
G04 #@! TD*
G04 #@! TA.AperFunction,Conductor*
%ADD25C,0.500000*%
G04 #@! TD*
G04 APERTURE END LIST*
D10*
X113030000Y-141925000D03*
X113030000Y-143825000D03*
D11*
X138110000Y-150495000D03*
X136210000Y-150495000D03*
X131130000Y-150495000D03*
X133030000Y-150495000D03*
D10*
X129540000Y-141285000D03*
X129540000Y-139385000D03*
D12*
X108585000Y-139675000D03*
X108585000Y-146075000D03*
D10*
X97790000Y-156715000D03*
X97790000Y-159515000D03*
X80010000Y-153165000D03*
X80010000Y-150365000D03*
D11*
X105280000Y-150495000D03*
X108080000Y-150495000D03*
D10*
X82550000Y-156715000D03*
X82550000Y-159515000D03*
D13*
X87570000Y-142875000D03*
X87570000Y-144145000D03*
X87570000Y-145415000D03*
X87570000Y-146685000D03*
X92770000Y-146685000D03*
X92770000Y-145415000D03*
X92770000Y-144145000D03*
X92770000Y-142875000D03*
D14*
X97790000Y-147995000D03*
X97790000Y-152995000D03*
D10*
X82550000Y-150365000D03*
X82550000Y-153165000D03*
D15*
X92670000Y-139075000D03*
X87670000Y-139075000D03*
X87770000Y-151775000D03*
X87770000Y-155575000D03*
X87770000Y-159375000D03*
X92570000Y-151775000D03*
X92570000Y-159375000D03*
X92570000Y-155575000D03*
D10*
X125730000Y-141735000D03*
X125730000Y-138935000D03*
D11*
X105280000Y-153035000D03*
X108080000Y-153035000D03*
D16*
X104140000Y-142755000D03*
D17*
X106640000Y-157755000D03*
X101640000Y-157755000D03*
D16*
X134620000Y-142755000D03*
D17*
X137120000Y-157755000D03*
X132120000Y-157755000D03*
X73700000Y-157755000D03*
X78700000Y-157755000D03*
D16*
X76200000Y-142755000D03*
D18*
X119380000Y-148755000D03*
D19*
X124180000Y-146255000D03*
D20*
X119380000Y-142755000D03*
D21*
X113030000Y-139065000D03*
D22*
X113030000Y-146685000D03*
X112455000Y-158115000D03*
X114955000Y-158115000D03*
X117455000Y-158115000D03*
D21*
X119955000Y-158115000D03*
D22*
X118110000Y-153035000D03*
X113030000Y-153035000D03*
X124460000Y-157480000D03*
D21*
X124460000Y-153035000D03*
G04 #@! TA.AperFunction,ComponentPad*
G36*
G01*
X122870000Y-152655000D02*
X122870000Y-153415000D01*
G75*
G02*
X122300000Y-153985000I-570000J0D01*
G01*
X121540000Y-153985000D01*
G75*
G02*
X120970000Y-153415000I0J570000D01*
G01*
X120970000Y-152655000D01*
G75*
G02*
X121540000Y-152085000I570000J0D01*
G01*
X122300000Y-152085000D01*
G75*
G02*
X122870000Y-152655000I0J-570000D01*
G01*
G37*
G04 #@! TD.AperFunction*
D22*
X127000000Y-157480000D03*
D23*
X127000000Y-146685000D02*
X127000000Y-150495000D01*
X126570000Y-146255000D02*
X127000000Y-146685000D01*
X124180000Y-146255000D02*
X126570000Y-146255000D01*
X124460000Y-155575000D02*
X124460000Y-157480000D01*
X125095000Y-154940000D02*
X124460000Y-155575000D01*
X125730000Y-154940000D02*
X125095000Y-154940000D01*
X127000000Y-153670000D02*
X125730000Y-154940000D01*
X127000000Y-150495000D02*
X127000000Y-153670000D01*
X131030000Y-150495000D02*
X127000000Y-150495000D01*
X138210000Y-152620000D02*
X138210000Y-150495000D01*
X136525000Y-154305000D02*
X138210000Y-152620000D01*
X132715000Y-154305000D02*
X136525000Y-154305000D01*
X132120000Y-154900000D02*
X132715000Y-154305000D01*
X132120000Y-157755000D02*
X132120000Y-154900000D01*
X129815000Y-157755000D02*
X132120000Y-157755000D01*
X129540000Y-157480000D02*
X129815000Y-157755000D01*
X127000000Y-157480000D02*
X129540000Y-157480000D01*
X113030000Y-143925000D02*
X113030000Y-146685000D01*
X113030000Y-153035000D02*
X113030000Y-155575000D01*
X112455000Y-156150000D02*
X113030000Y-155575000D01*
X112455000Y-158115000D02*
X112455000Y-156150000D01*
X113030000Y-150495000D02*
X113030000Y-153035000D01*
X113030000Y-146685000D02*
X113030000Y-150495000D01*
X124460000Y-151447500D02*
X124460000Y-153035000D01*
X124142500Y-151130000D02*
X124460000Y-151447500D01*
X116840000Y-151130000D02*
X124142500Y-151130000D01*
X108080000Y-150495000D02*
X108080000Y-153035000D01*
X113030000Y-150495000D02*
X116205000Y-150495000D01*
X116205000Y-150495000D02*
X116840000Y-151130000D01*
X108080000Y-150495000D02*
X113030000Y-150495000D01*
D24*
X97155000Y-142875000D02*
X92770000Y-142875000D01*
X100355000Y-146075000D02*
X97155000Y-142875000D01*
X108585000Y-146075000D02*
X100355000Y-146075000D01*
D23*
X108585000Y-146075000D02*
X110515000Y-146075000D01*
X110515000Y-146075000D02*
X111125000Y-146685000D01*
X111125000Y-146685000D02*
X113030000Y-146685000D01*
X113030000Y-141825000D02*
X113030000Y-139065000D01*
X125730000Y-138935000D02*
X127505000Y-138935000D01*
X127855000Y-139285000D02*
X127505000Y-138935000D01*
X129540000Y-139285000D02*
X127855000Y-139285000D01*
X125730000Y-138935000D02*
X123320000Y-138935000D01*
X123190000Y-139065000D02*
X113030000Y-139065000D01*
X123320000Y-138935000D02*
X123190000Y-139065000D01*
X125730000Y-141735000D02*
X127505000Y-141735000D01*
X129540000Y-141385000D02*
X127855000Y-141385000D01*
X127855000Y-141385000D02*
X127505000Y-141735000D01*
X119380000Y-142755000D02*
X122675000Y-142755000D01*
X123695000Y-141735000D02*
X122675000Y-142755000D01*
X125730000Y-141735000D02*
X123695000Y-141735000D01*
D24*
X80010000Y-150365000D02*
X82550000Y-150365000D01*
X92770000Y-146685000D02*
X92770000Y-147955000D01*
X83185000Y-147955000D02*
X92770000Y-147955000D01*
X82550000Y-148590000D02*
X83185000Y-147955000D01*
X82550000Y-150365000D02*
X82550000Y-148590000D01*
X95310000Y-150495000D02*
X92770000Y-147955000D01*
X105280000Y-150495000D02*
X95310000Y-150495000D01*
X82550000Y-156715000D02*
X84325000Y-156715000D01*
X84325000Y-156715000D02*
X85090000Y-157480000D01*
X87770000Y-159375000D02*
X85715000Y-159375000D01*
X85715000Y-159375000D02*
X85090000Y-158750000D01*
X85090000Y-157480000D02*
X85090000Y-158750000D01*
X82550000Y-153165000D02*
X82550000Y-156715000D01*
X97790000Y-152995000D02*
X97790000Y-156715000D01*
X92570000Y-159375000D02*
X94625000Y-159375000D01*
X94625000Y-159375000D02*
X95250000Y-158750000D01*
X97790000Y-156715000D02*
X96015000Y-156715000D01*
X96015000Y-156715000D02*
X95250000Y-157480000D01*
X95250000Y-157480000D02*
X95250000Y-158750000D01*
X92770000Y-144145000D02*
X92770000Y-145415000D01*
X92770000Y-145415000D02*
X97155000Y-145415000D01*
X97155000Y-145415000D02*
X97790000Y-146050000D01*
X97790000Y-147995000D02*
X97790000Y-146050000D01*
X87570000Y-142875000D02*
X87570000Y-144145000D01*
D25*
G36*
X139920001Y-160875000D02*
G01*
X128714034Y-160875000D01*
X128837325Y-160577347D01*
X128910755Y-160208193D01*
X128910755Y-159831807D01*
X128837325Y-159462653D01*
X128693289Y-159114918D01*
X128600933Y-158976697D01*
X128660168Y-158904519D01*
X128700000Y-158830000D01*
X128996874Y-158830000D01*
X129061351Y-158882915D01*
X129295878Y-159008272D01*
X129550354Y-159085467D01*
X129748679Y-159105000D01*
X129748681Y-159105000D01*
X129815000Y-159111532D01*
X129881319Y-159105000D01*
X130122681Y-159105000D01*
X130170466Y-159262524D01*
X130365466Y-159627343D01*
X130627892Y-159947109D01*
X130947658Y-160209535D01*
X131312477Y-160404535D01*
X131708329Y-160524615D01*
X132120000Y-160565161D01*
X132531672Y-160524615D01*
X132927524Y-160404535D01*
X133292343Y-160209535D01*
X133612109Y-159947109D01*
X133874535Y-159627343D01*
X134069535Y-159262524D01*
X134189615Y-158866671D01*
X134220000Y-158558166D01*
X134220000Y-156951833D01*
X134189615Y-156643328D01*
X134069535Y-156247476D01*
X133874535Y-155882657D01*
X133687701Y-155655000D01*
X135552299Y-155655000D01*
X135365465Y-155882657D01*
X135170465Y-156247477D01*
X135050385Y-156643329D01*
X135020000Y-156951834D01*
X135020000Y-158558167D01*
X135050385Y-158866672D01*
X135170466Y-159262524D01*
X135365466Y-159627343D01*
X135627892Y-159947109D01*
X135947658Y-160209535D01*
X136312477Y-160404535D01*
X136708329Y-160524615D01*
X137120000Y-160565161D01*
X137531672Y-160524615D01*
X137927524Y-160404535D01*
X138292343Y-160209535D01*
X138612109Y-159947109D01*
X138874535Y-159627343D01*
X139069535Y-159262524D01*
X139189615Y-158866671D01*
X139220000Y-158558166D01*
X139220000Y-156951833D01*
X139189615Y-156643328D01*
X139069535Y-156247476D01*
X138874535Y-155882657D01*
X138612109Y-155562891D01*
X138292343Y-155300465D01*
X137927523Y-155105465D01*
X137702103Y-155037085D01*
X139117706Y-153621483D01*
X139169212Y-153579213D01*
X139211483Y-153527706D01*
X139211490Y-153527699D01*
X139337915Y-153373650D01*
X139463271Y-153139123D01*
X139463272Y-153139122D01*
X139540467Y-152884646D01*
X139560000Y-152686321D01*
X139560000Y-152686319D01*
X139566532Y-152620000D01*
X139560000Y-152553681D01*
X139560000Y-151942834D01*
X139620168Y-151869519D01*
X139699097Y-151721855D01*
X139747700Y-151561629D01*
X139764112Y-151395000D01*
X139764112Y-149595000D01*
X139747700Y-149428371D01*
X139699097Y-149268145D01*
X139620168Y-149120481D01*
X139513948Y-148991052D01*
X139384519Y-148884832D01*
X139236855Y-148805903D01*
X139076629Y-148757300D01*
X138910000Y-148740888D01*
X137310000Y-148740888D01*
X137160005Y-148755662D01*
X137010000Y-148740887D01*
X136472500Y-148745000D01*
X136260000Y-148957500D01*
X136260000Y-150445000D01*
X136280000Y-150445000D01*
X136280000Y-150545000D01*
X136260000Y-150545000D01*
X136260000Y-152032500D01*
X136472500Y-152245000D01*
X136674267Y-152246544D01*
X135965812Y-152955000D01*
X132781310Y-152955000D01*
X132714999Y-152948469D01*
X132648688Y-152955000D01*
X132648679Y-152955000D01*
X132450354Y-152974533D01*
X132195878Y-153051728D01*
X131961351Y-153177085D01*
X131755787Y-153345787D01*
X131713510Y-153397302D01*
X131212299Y-153898513D01*
X131160788Y-153940787D01*
X131118514Y-153992298D01*
X131118510Y-153992302D01*
X130992085Y-154146351D01*
X130866729Y-154380878D01*
X130789534Y-154635354D01*
X130763468Y-154900000D01*
X130770001Y-154966329D01*
X130770001Y-155446264D01*
X130627891Y-155562891D01*
X130365465Y-155882657D01*
X130170465Y-156247477D01*
X130160346Y-156280833D01*
X130059122Y-156226728D01*
X129804646Y-156149533D01*
X129606321Y-156130000D01*
X129606319Y-156130000D01*
X129540000Y-156123468D01*
X129473681Y-156130000D01*
X128700000Y-156130000D01*
X128660168Y-156055481D01*
X128553948Y-155926052D01*
X128424519Y-155819832D01*
X128276855Y-155740903D01*
X128116629Y-155692300D01*
X127950000Y-155675888D01*
X126903300Y-155675888D01*
X127907702Y-154671487D01*
X127959213Y-154629213D01*
X128001487Y-154577702D01*
X128001490Y-154577699D01*
X128127915Y-154423650D01*
X128253271Y-154189123D01*
X128253272Y-154189122D01*
X128330467Y-153934646D01*
X128350000Y-153736321D01*
X128350000Y-153736312D01*
X128356531Y-153670001D01*
X128350000Y-153603690D01*
X128350000Y-151845000D01*
X129606726Y-151845000D01*
X129619832Y-151869519D01*
X129726052Y-151998948D01*
X129855481Y-152105168D01*
X130003145Y-152184097D01*
X130163371Y-152232700D01*
X130330000Y-152249112D01*
X131930000Y-152249112D01*
X132079995Y-152234338D01*
X132230000Y-152249113D01*
X132767500Y-152245000D01*
X132980000Y-152032500D01*
X132980000Y-150545000D01*
X133080000Y-150545000D01*
X133080000Y-152032500D01*
X133292500Y-152245000D01*
X133830000Y-152249113D01*
X133996629Y-152232701D01*
X134156855Y-152184098D01*
X134304520Y-152105169D01*
X134433949Y-151998949D01*
X134540169Y-151869520D01*
X134619098Y-151721855D01*
X134620000Y-151718881D01*
X134620902Y-151721855D01*
X134699831Y-151869520D01*
X134806051Y-151998949D01*
X134935480Y-152105169D01*
X135083145Y-152184098D01*
X135243371Y-152232701D01*
X135410000Y-152249113D01*
X135947500Y-152245000D01*
X136160000Y-152032500D01*
X136160000Y-150545000D01*
X134772500Y-150545000D01*
X134620000Y-150697500D01*
X134467500Y-150545000D01*
X133080000Y-150545000D01*
X132980000Y-150545000D01*
X132960000Y-150545000D01*
X132960000Y-150445000D01*
X132980000Y-150445000D01*
X132980000Y-148957500D01*
X133080000Y-148957500D01*
X133080000Y-150445000D01*
X134467500Y-150445000D01*
X134620000Y-150292500D01*
X134772500Y-150445000D01*
X136160000Y-150445000D01*
X136160000Y-148957500D01*
X135947500Y-148745000D01*
X135410000Y-148740887D01*
X135243371Y-148757299D01*
X135083145Y-148805902D01*
X134935480Y-148884831D01*
X134806051Y-148991051D01*
X134699831Y-149120480D01*
X134620902Y-149268145D01*
X134620000Y-149271119D01*
X134619098Y-149268145D01*
X134540169Y-149120480D01*
X134433949Y-148991051D01*
X134304520Y-148884831D01*
X134156855Y-148805902D01*
X133996629Y-148757299D01*
X133830000Y-148740887D01*
X133292500Y-148745000D01*
X133080000Y-148957500D01*
X132980000Y-148957500D01*
X132767500Y-148745000D01*
X132230000Y-148740887D01*
X132079995Y-148755662D01*
X131930000Y-148740888D01*
X130330000Y-148740888D01*
X130163371Y-148757300D01*
X130003145Y-148805903D01*
X129855481Y-148884832D01*
X129726052Y-148991052D01*
X129619832Y-149120481D01*
X129606726Y-149145000D01*
X128350000Y-149145000D01*
X128350000Y-146751319D01*
X128356532Y-146685000D01*
X128344713Y-146565000D01*
X128330467Y-146420354D01*
X128253272Y-146165878D01*
X128127915Y-145931351D01*
X128067073Y-145857215D01*
X128001490Y-145777302D01*
X128001487Y-145777299D01*
X127959212Y-145725787D01*
X127907701Y-145683513D01*
X127571491Y-145347303D01*
X127529213Y-145295787D01*
X127323649Y-145127085D01*
X127089122Y-145001728D01*
X126834646Y-144924533D01*
X126636321Y-144905000D01*
X126636319Y-144905000D01*
X126570000Y-144898468D01*
X126506867Y-144904686D01*
X126495997Y-144794320D01*
X126361621Y-144351343D01*
X126143407Y-143943093D01*
X125849741Y-143585259D01*
X125610734Y-143389112D01*
X126630000Y-143389112D01*
X126796629Y-143372700D01*
X126956855Y-143324097D01*
X127104519Y-143245168D01*
X127233948Y-143138948D01*
X127278222Y-143085000D01*
X127438681Y-143085000D01*
X127505000Y-143091532D01*
X127571319Y-143085000D01*
X127571321Y-143085000D01*
X127769646Y-143065467D01*
X128024122Y-142988272D01*
X128258649Y-142862915D01*
X128271892Y-142852047D01*
X128313145Y-142874097D01*
X128473371Y-142922700D01*
X128640000Y-142939112D01*
X130440000Y-142939112D01*
X130606629Y-142922700D01*
X130766855Y-142874097D01*
X130896124Y-142805000D01*
X132420000Y-142805000D01*
X132420000Y-143455000D01*
X132472027Y-143883238D01*
X132606599Y-144293098D01*
X132818545Y-144668828D01*
X133099720Y-144995990D01*
X133439319Y-145262011D01*
X133824290Y-145456668D01*
X134226549Y-145569532D01*
X134570000Y-145391871D01*
X134570000Y-142805000D01*
X134670000Y-142805000D01*
X134670000Y-145391871D01*
X135013451Y-145569532D01*
X135415710Y-145456668D01*
X135800681Y-145262011D01*
X136140280Y-144995990D01*
X136421455Y-144668828D01*
X136633401Y-144293098D01*
X136767973Y-143883238D01*
X136820000Y-143455000D01*
X136820000Y-142805000D01*
X134670000Y-142805000D01*
X134570000Y-142805000D01*
X132420000Y-142805000D01*
X130896124Y-142805000D01*
X130914519Y-142795168D01*
X131043948Y-142688948D01*
X131150168Y-142559519D01*
X131229097Y-142411855D01*
X131277700Y-142251629D01*
X131294112Y-142085000D01*
X131294112Y-142055000D01*
X132420000Y-142055000D01*
X132420000Y-142705000D01*
X134570000Y-142705000D01*
X134570000Y-140118129D01*
X134670000Y-140118129D01*
X134670000Y-142705000D01*
X136820000Y-142705000D01*
X136820000Y-142055000D01*
X136767973Y-141626762D01*
X136633401Y-141216902D01*
X136421455Y-140841172D01*
X136140280Y-140514010D01*
X135800681Y-140247989D01*
X135415710Y-140053332D01*
X135013451Y-139940468D01*
X134670000Y-140118129D01*
X134570000Y-140118129D01*
X134226549Y-139940468D01*
X133824290Y-140053332D01*
X133439319Y-140247989D01*
X133099720Y-140514010D01*
X132818545Y-140841172D01*
X132606599Y-141216902D01*
X132472027Y-141626762D01*
X132420000Y-142055000D01*
X131294112Y-142055000D01*
X131294112Y-140485000D01*
X131279338Y-140335000D01*
X131294112Y-140185000D01*
X131294112Y-138585000D01*
X131277700Y-138418371D01*
X131229097Y-138258145D01*
X131150168Y-138110481D01*
X131043948Y-137981052D01*
X130914519Y-137874832D01*
X130766855Y-137795903D01*
X130606629Y-137747300D01*
X130440000Y-137730888D01*
X128640000Y-137730888D01*
X128473371Y-137747300D01*
X128313145Y-137795903D01*
X128271892Y-137817953D01*
X128258649Y-137807085D01*
X128024122Y-137681728D01*
X127769646Y-137604533D01*
X127571321Y-137585000D01*
X127571319Y-137585000D01*
X127505000Y-137578468D01*
X127438681Y-137585000D01*
X127278222Y-137585000D01*
X127233948Y-137531052D01*
X127104519Y-137424832D01*
X126956855Y-137345903D01*
X126796629Y-137297300D01*
X126630000Y-137280888D01*
X124830000Y-137280888D01*
X124663371Y-137297300D01*
X124503145Y-137345903D01*
X124355481Y-137424832D01*
X124226052Y-137531052D01*
X124181778Y-137585000D01*
X123386319Y-137585000D01*
X123320000Y-137578468D01*
X123253681Y-137585000D01*
X123253679Y-137585000D01*
X123055354Y-137604533D01*
X122800878Y-137681728D01*
X122738630Y-137715000D01*
X114225584Y-137715000D01*
X114177433Y-137666849D01*
X113882620Y-137469861D01*
X113555041Y-137334173D01*
X113207284Y-137265000D01*
X112852716Y-137265000D01*
X112504959Y-137334173D01*
X112177380Y-137469861D01*
X111882567Y-137666849D01*
X111631849Y-137917567D01*
X111434861Y-138212380D01*
X111299173Y-138539959D01*
X111230000Y-138887716D01*
X111230000Y-139242284D01*
X111299173Y-139590041D01*
X111434861Y-139917620D01*
X111631849Y-140212433D01*
X111680001Y-140260585D01*
X111680001Y-140401726D01*
X111655481Y-140414832D01*
X111526052Y-140521052D01*
X111419832Y-140650481D01*
X111340903Y-140798145D01*
X111292300Y-140958371D01*
X111275888Y-141125000D01*
X111275888Y-142725000D01*
X111290662Y-142875000D01*
X111275888Y-143025000D01*
X111275888Y-144625000D01*
X111292300Y-144791629D01*
X111340903Y-144951855D01*
X111392826Y-145048994D01*
X111268649Y-144947085D01*
X111034122Y-144821728D01*
X110779646Y-144744533D01*
X110634705Y-144730258D01*
X110622700Y-144608371D01*
X110574097Y-144448145D01*
X110495168Y-144300481D01*
X110388948Y-144171052D01*
X110259519Y-144064832D01*
X110111855Y-143985903D01*
X109951629Y-143937300D01*
X109785000Y-143920888D01*
X107385000Y-143920888D01*
X107218371Y-143937300D01*
X107058145Y-143985903D01*
X106910481Y-144064832D01*
X106781052Y-144171052D01*
X106674832Y-144300481D01*
X106595903Y-144448145D01*
X106547300Y-144608371D01*
X106530888Y-144775000D01*
X106530888Y-144925000D01*
X105721291Y-144925000D01*
X105941455Y-144668828D01*
X106153401Y-144293098D01*
X106287973Y-143883238D01*
X106340000Y-143455000D01*
X106340000Y-142805000D01*
X104190000Y-142805000D01*
X104190000Y-142825000D01*
X104090000Y-142825000D01*
X104090000Y-142805000D01*
X101940000Y-142805000D01*
X101940000Y-143455000D01*
X101992027Y-143883238D01*
X102126599Y-144293098D01*
X102338545Y-144668828D01*
X102558709Y-144925000D01*
X100831346Y-144925000D01*
X98008124Y-142101780D01*
X97972107Y-142057893D01*
X97968582Y-142055000D01*
X101940000Y-142055000D01*
X101940000Y-142705000D01*
X104090000Y-142705000D01*
X104090000Y-140118129D01*
X104190000Y-140118129D01*
X104190000Y-142705000D01*
X106340000Y-142705000D01*
X106340000Y-142055000D01*
X106287973Y-141626762D01*
X106153401Y-141216902D01*
X106016947Y-140975000D01*
X106530887Y-140975000D01*
X106547299Y-141141629D01*
X106595902Y-141301855D01*
X106674831Y-141449520D01*
X106781051Y-141578949D01*
X106910480Y-141685169D01*
X107058145Y-141764098D01*
X107218371Y-141812701D01*
X107385000Y-141829113D01*
X108322500Y-141825000D01*
X108535000Y-141612500D01*
X108535000Y-139725000D01*
X108635000Y-139725000D01*
X108635000Y-141612500D01*
X108847500Y-141825000D01*
X109785000Y-141829113D01*
X109951629Y-141812701D01*
X110111855Y-141764098D01*
X110259520Y-141685169D01*
X110388949Y-141578949D01*
X110495169Y-141449520D01*
X110574098Y-141301855D01*
X110622701Y-141141629D01*
X110639113Y-140975000D01*
X110635000Y-139937500D01*
X110422500Y-139725000D01*
X108635000Y-139725000D01*
X108535000Y-139725000D01*
X106747500Y-139725000D01*
X106535000Y-139937500D01*
X106530887Y-140975000D01*
X106016947Y-140975000D01*
X105941455Y-140841172D01*
X105660280Y-140514010D01*
X105320681Y-140247989D01*
X104935710Y-140053332D01*
X104533451Y-139940468D01*
X104190000Y-140118129D01*
X104090000Y-140118129D01*
X103746549Y-139940468D01*
X103344290Y-140053332D01*
X102959319Y-140247989D01*
X102619720Y-140514010D01*
X102338545Y-140841172D01*
X102126599Y-141216902D01*
X101992027Y-141626762D01*
X101940000Y-142055000D01*
X97968582Y-142055000D01*
X97796997Y-141914184D01*
X97597215Y-141807398D01*
X97380439Y-141741640D01*
X97211492Y-141725000D01*
X97211482Y-141725000D01*
X97155000Y-141719437D01*
X97098518Y-141725000D01*
X93911749Y-141725000D01*
X93870000Y-141720888D01*
X91670000Y-141720888D01*
X91503371Y-141737300D01*
X91343145Y-141785903D01*
X91195481Y-141864832D01*
X91066052Y-141971052D01*
X90959832Y-142100481D01*
X90880903Y-142248145D01*
X90832300Y-142408371D01*
X90815888Y-142575000D01*
X90815888Y-143175000D01*
X90832300Y-143341629D01*
X90880903Y-143501855D01*
X90885257Y-143510000D01*
X90880903Y-143518145D01*
X90832300Y-143678371D01*
X90815888Y-143845000D01*
X90815888Y-144445000D01*
X90832300Y-144611629D01*
X90880903Y-144771855D01*
X90885257Y-144780000D01*
X90880903Y-144788145D01*
X90832300Y-144948371D01*
X90815888Y-145115000D01*
X90815888Y-145715000D01*
X90832300Y-145881629D01*
X90880903Y-146041855D01*
X90885257Y-146050000D01*
X90880903Y-146058145D01*
X90832300Y-146218371D01*
X90815888Y-146385000D01*
X90815888Y-146805000D01*
X89377500Y-146805000D01*
X89307500Y-146735000D01*
X87620000Y-146735000D01*
X87620000Y-146755000D01*
X87520000Y-146755000D01*
X87520000Y-146735000D01*
X85832500Y-146735000D01*
X85762500Y-146805000D01*
X83241492Y-146805000D01*
X83185000Y-146799436D01*
X82959561Y-146821640D01*
X82742784Y-146887398D01*
X82666603Y-146928118D01*
X82543003Y-146994184D01*
X82367893Y-147137893D01*
X82331875Y-147181781D01*
X81776776Y-147736880D01*
X81732894Y-147772893D01*
X81589185Y-147948003D01*
X81482399Y-148147785D01*
X81416641Y-148364561D01*
X81400000Y-148533508D01*
X81400000Y-148533518D01*
X81394437Y-148590000D01*
X81400000Y-148646482D01*
X81400000Y-148752590D01*
X81323145Y-148775903D01*
X81280000Y-148798965D01*
X81236855Y-148775903D01*
X81076629Y-148727300D01*
X80910000Y-148710888D01*
X79110000Y-148710888D01*
X78943371Y-148727300D01*
X78783145Y-148775903D01*
X78635481Y-148854832D01*
X78506052Y-148961052D01*
X78399832Y-149090481D01*
X78320903Y-149238145D01*
X78272300Y-149398371D01*
X78255888Y-149565000D01*
X78255888Y-151165000D01*
X78272300Y-151331629D01*
X78320903Y-151491855D01*
X78399832Y-151639519D01*
X78502811Y-151764999D01*
X78399831Y-151890480D01*
X78320902Y-152038145D01*
X78272299Y-152198371D01*
X78255887Y-152365000D01*
X78260000Y-152902500D01*
X78472500Y-153115000D01*
X79960000Y-153115000D01*
X79960000Y-153095000D01*
X80060000Y-153095000D01*
X80060000Y-153115000D01*
X80080000Y-153115000D01*
X80080000Y-153215000D01*
X80060000Y-153215000D01*
X80060000Y-154602500D01*
X80272500Y-154815000D01*
X80910000Y-154819113D01*
X81076629Y-154802701D01*
X81236855Y-154754098D01*
X81280001Y-154731036D01*
X81323145Y-154754097D01*
X81400000Y-154777410D01*
X81400001Y-155102590D01*
X81323145Y-155125903D01*
X81175481Y-155204832D01*
X81046052Y-155311052D01*
X81034605Y-155325000D01*
X79902239Y-155325000D01*
X79872343Y-155300465D01*
X79507523Y-155105465D01*
X79111671Y-154985385D01*
X78700000Y-154944839D01*
X78288328Y-154985385D01*
X77892476Y-155105465D01*
X77527657Y-155300465D01*
X77207891Y-155562891D01*
X76945465Y-155882657D01*
X76750465Y-156247477D01*
X76630385Y-156643329D01*
X76600000Y-156951834D01*
X76600000Y-158558167D01*
X76630385Y-158866672D01*
X76750466Y-159262524D01*
X76945466Y-159627343D01*
X77207892Y-159947109D01*
X77527658Y-160209535D01*
X77892477Y-160404535D01*
X78288329Y-160524615D01*
X78700000Y-160565161D01*
X79111672Y-160524615D01*
X79507524Y-160404535D01*
X79872343Y-160209535D01*
X80192109Y-159947109D01*
X80454535Y-159627343D01*
X80649535Y-159262524D01*
X80769615Y-158866671D01*
X80800000Y-158558166D01*
X80800000Y-157556749D01*
X80812300Y-157681629D01*
X80860903Y-157841855D01*
X80939832Y-157989519D01*
X81042811Y-158114999D01*
X80939831Y-158240480D01*
X80860902Y-158388145D01*
X80812299Y-158548371D01*
X80795887Y-158715000D01*
X80800000Y-159252500D01*
X81012500Y-159465000D01*
X82500000Y-159465000D01*
X82500000Y-159445000D01*
X82600000Y-159445000D01*
X82600000Y-159465000D01*
X82620000Y-159465000D01*
X82620000Y-159565000D01*
X82600000Y-159565000D01*
X82600000Y-159585000D01*
X82500000Y-159585000D01*
X82500000Y-159565000D01*
X81012500Y-159565000D01*
X80800000Y-159777500D01*
X80795887Y-160315000D01*
X80812299Y-160481629D01*
X80860902Y-160641855D01*
X80939831Y-160789520D01*
X81009983Y-160875000D01*
X70900000Y-160875000D01*
X70900000Y-157805000D01*
X71600000Y-157805000D01*
X71600000Y-158505000D01*
X71650105Y-158913729D01*
X71778987Y-159304829D01*
X71981692Y-159663271D01*
X72250431Y-159975280D01*
X72574876Y-160228865D01*
X72942559Y-160414281D01*
X73322196Y-160520736D01*
X73650000Y-160341838D01*
X73650000Y-157805000D01*
X73750000Y-157805000D01*
X73750000Y-160341838D01*
X74077804Y-160520736D01*
X74457441Y-160414281D01*
X74825124Y-160228865D01*
X75149569Y-159975280D01*
X75418308Y-159663271D01*
X75621013Y-159304829D01*
X75749895Y-158913729D01*
X75800000Y-158505000D01*
X75800000Y-157805000D01*
X73750000Y-157805000D01*
X73650000Y-157805000D01*
X71600000Y-157805000D01*
X70900000Y-157805000D01*
X70900000Y-157005000D01*
X71600000Y-157005000D01*
X71600000Y-157705000D01*
X73650000Y-157705000D01*
X73650000Y-155168162D01*
X73750000Y-155168162D01*
X73750000Y-157705000D01*
X75800000Y-157705000D01*
X75800000Y-157005000D01*
X75749895Y-156596271D01*
X75621013Y-156205171D01*
X75418308Y-155846729D01*
X75149569Y-155534720D01*
X74825124Y-155281135D01*
X74457441Y-155095719D01*
X74077804Y-154989264D01*
X73750000Y-155168162D01*
X73650000Y-155168162D01*
X73322196Y-154989264D01*
X72942559Y-155095719D01*
X72574876Y-155281135D01*
X72250431Y-155534720D01*
X71981692Y-155846729D01*
X71778987Y-156205171D01*
X71650105Y-156596271D01*
X71600000Y-157005000D01*
X70900000Y-157005000D01*
X70900000Y-153965000D01*
X78255887Y-153965000D01*
X78272299Y-154131629D01*
X78320902Y-154291855D01*
X78399831Y-154439520D01*
X78506051Y-154568949D01*
X78635480Y-154675169D01*
X78783145Y-154754098D01*
X78943371Y-154802701D01*
X79110000Y-154819113D01*
X79747500Y-154815000D01*
X79960000Y-154602500D01*
X79960000Y-153215000D01*
X78472500Y-153215000D01*
X78260000Y-153427500D01*
X78255887Y-153965000D01*
X70900000Y-153965000D01*
X70900000Y-146385000D01*
X85615887Y-146385000D01*
X85620000Y-146422500D01*
X85832500Y-146635000D01*
X87520000Y-146635000D01*
X87520000Y-146615000D01*
X87620000Y-146615000D01*
X87620000Y-146635000D01*
X89307500Y-146635000D01*
X89520000Y-146422500D01*
X89524113Y-146385000D01*
X89507701Y-146218371D01*
X89459098Y-146058145D01*
X89454744Y-146049999D01*
X89459097Y-146041855D01*
X89507700Y-145881629D01*
X89524112Y-145715000D01*
X89524112Y-145115000D01*
X89507700Y-144948371D01*
X89459097Y-144788145D01*
X89454743Y-144780000D01*
X89459097Y-144771855D01*
X89507700Y-144611629D01*
X89524112Y-144445000D01*
X89524112Y-143845000D01*
X89507700Y-143678371D01*
X89459097Y-143518145D01*
X89454743Y-143510000D01*
X89459097Y-143501855D01*
X89507700Y-143341629D01*
X89524112Y-143175000D01*
X89524112Y-142575000D01*
X89507700Y-142408371D01*
X89459097Y-142248145D01*
X89380168Y-142100481D01*
X89273948Y-141971052D01*
X89144519Y-141864832D01*
X88996855Y-141785903D01*
X88836629Y-141737300D01*
X88670000Y-141720888D01*
X87584742Y-141720888D01*
X87570000Y-141719436D01*
X87555258Y-141720888D01*
X86470000Y-141720888D01*
X86303371Y-141737300D01*
X86143145Y-141785903D01*
X85995481Y-141864832D01*
X85866052Y-141971052D01*
X85759832Y-142100481D01*
X85680903Y-142248145D01*
X85632300Y-142408371D01*
X85615888Y-142575000D01*
X85615888Y-143175000D01*
X85632300Y-143341629D01*
X85680903Y-143501855D01*
X85685257Y-143510000D01*
X85680903Y-143518145D01*
X85632300Y-143678371D01*
X85615888Y-143845000D01*
X85615888Y-144445000D01*
X85632300Y-144611629D01*
X85680903Y-144771855D01*
X85685257Y-144780000D01*
X85680903Y-144788145D01*
X85632300Y-144948371D01*
X85615888Y-145115000D01*
X85615888Y-145715000D01*
X85632300Y-145881629D01*
X85680903Y-146041855D01*
X85685256Y-146049999D01*
X85680902Y-146058145D01*
X85632299Y-146218371D01*
X85615887Y-146385000D01*
X70900000Y-146385000D01*
X70900000Y-142805000D01*
X74000000Y-142805000D01*
X74000000Y-143455000D01*
X74052027Y-143883238D01*
X74186599Y-144293098D01*
X74398545Y-144668828D01*
X74679720Y-144995990D01*
X75019319Y-145262011D01*
X75404290Y-145456668D01*
X75806549Y-145569532D01*
X76150000Y-145391871D01*
X76150000Y-142805000D01*
X76250000Y-142805000D01*
X76250000Y-145391871D01*
X76593451Y-145569532D01*
X76995710Y-145456668D01*
X77380681Y-145262011D01*
X77720280Y-144995990D01*
X78001455Y-144668828D01*
X78213401Y-144293098D01*
X78347973Y-143883238D01*
X78400000Y-143455000D01*
X78400000Y-142805000D01*
X76250000Y-142805000D01*
X76150000Y-142805000D01*
X74000000Y-142805000D01*
X70900000Y-142805000D01*
X70900000Y-142055000D01*
X74000000Y-142055000D01*
X74000000Y-142705000D01*
X76150000Y-142705000D01*
X76150000Y-140118129D01*
X76250000Y-140118129D01*
X76250000Y-142705000D01*
X78400000Y-142705000D01*
X78400000Y-142055000D01*
X78347973Y-141626762D01*
X78213401Y-141216902D01*
X78001455Y-140841172D01*
X77720280Y-140514010D01*
X77478993Y-140325000D01*
X85565887Y-140325000D01*
X85582299Y-140491629D01*
X85630902Y-140651855D01*
X85709831Y-140799520D01*
X85816051Y-140928949D01*
X85945480Y-141035169D01*
X86093145Y-141114098D01*
X86253371Y-141162701D01*
X86420000Y-141179113D01*
X87407500Y-141175000D01*
X87620000Y-140962500D01*
X87620000Y-139125000D01*
X87720000Y-139125000D01*
X87720000Y-140962500D01*
X87932500Y-141175000D01*
X88920000Y-141179113D01*
X89086629Y-141162701D01*
X89246855Y-141114098D01*
X89394520Y-141035169D01*
X89523949Y-140928949D01*
X89630169Y-140799520D01*
X89709098Y-140651855D01*
X89757701Y-140491629D01*
X89774113Y-140325000D01*
X90565887Y-140325000D01*
X90582299Y-140491629D01*
X90630902Y-140651855D01*
X90709831Y-140799520D01*
X90816051Y-140928949D01*
X90945480Y-141035169D01*
X91093145Y-141114098D01*
X91253371Y-141162701D01*
X91420000Y-141179113D01*
X92407500Y-141175000D01*
X92620000Y-140962500D01*
X92620000Y-139125000D01*
X92720000Y-139125000D01*
X92720000Y-140962500D01*
X92932500Y-141175000D01*
X93920000Y-141179113D01*
X94086629Y-141162701D01*
X94246855Y-141114098D01*
X94394520Y-141035169D01*
X94523949Y-140928949D01*
X94630169Y-140799520D01*
X94709098Y-140651855D01*
X94757701Y-140491629D01*
X94774113Y-140325000D01*
X94770000Y-139337500D01*
X94557500Y-139125000D01*
X92720000Y-139125000D01*
X92620000Y-139125000D01*
X90782500Y-139125000D01*
X90570000Y-139337500D01*
X90565887Y-140325000D01*
X89774113Y-140325000D01*
X89770000Y-139337500D01*
X89557500Y-139125000D01*
X87720000Y-139125000D01*
X87620000Y-139125000D01*
X85782500Y-139125000D01*
X85570000Y-139337500D01*
X85565887Y-140325000D01*
X77478993Y-140325000D01*
X77380681Y-140247989D01*
X76995710Y-140053332D01*
X76593451Y-139940468D01*
X76250000Y-140118129D01*
X76150000Y-140118129D01*
X75806549Y-139940468D01*
X75404290Y-140053332D01*
X75019319Y-140247989D01*
X74679720Y-140514010D01*
X74398545Y-140841172D01*
X74186599Y-141216902D01*
X74052027Y-141626762D01*
X74000000Y-142055000D01*
X70900000Y-142055000D01*
X70900000Y-137825000D01*
X85565887Y-137825000D01*
X85570000Y-138812500D01*
X85782500Y-139025000D01*
X87620000Y-139025000D01*
X87620000Y-137187500D01*
X87720000Y-137187500D01*
X87720000Y-139025000D01*
X89557500Y-139025000D01*
X89770000Y-138812500D01*
X89774113Y-137825000D01*
X90565887Y-137825000D01*
X90570000Y-138812500D01*
X90782500Y-139025000D01*
X92620000Y-139025000D01*
X92620000Y-137187500D01*
X92720000Y-137187500D01*
X92720000Y-139025000D01*
X94557500Y-139025000D01*
X94770000Y-138812500D01*
X94771822Y-138375000D01*
X106530887Y-138375000D01*
X106535000Y-139412500D01*
X106747500Y-139625000D01*
X108535000Y-139625000D01*
X108535000Y-137737500D01*
X108635000Y-137737500D01*
X108635000Y-139625000D01*
X110422500Y-139625000D01*
X110635000Y-139412500D01*
X110639113Y-138375000D01*
X110622701Y-138208371D01*
X110574098Y-138048145D01*
X110495169Y-137900480D01*
X110388949Y-137771051D01*
X110259520Y-137664831D01*
X110111855Y-137585902D01*
X109951629Y-137537299D01*
X109785000Y-137520887D01*
X108847500Y-137525000D01*
X108635000Y-137737500D01*
X108535000Y-137737500D01*
X108322500Y-137525000D01*
X107385000Y-137520887D01*
X107218371Y-137537299D01*
X107058145Y-137585902D01*
X106910480Y-137664831D01*
X106781051Y-137771051D01*
X106674831Y-137900480D01*
X106595902Y-138048145D01*
X106547299Y-138208371D01*
X106530887Y-138375000D01*
X94771822Y-138375000D01*
X94774113Y-137825000D01*
X94757701Y-137658371D01*
X94709098Y-137498145D01*
X94630169Y-137350480D01*
X94523949Y-137221051D01*
X94394520Y-137114831D01*
X94246855Y-137035902D01*
X94086629Y-136987299D01*
X93920000Y-136970887D01*
X92932500Y-136975000D01*
X92720000Y-137187500D01*
X92620000Y-137187500D01*
X92407500Y-136975000D01*
X91420000Y-136970887D01*
X91253371Y-136987299D01*
X91093145Y-137035902D01*
X90945480Y-137114831D01*
X90816051Y-137221051D01*
X90709831Y-137350480D01*
X90630902Y-137498145D01*
X90582299Y-137658371D01*
X90565887Y-137825000D01*
X89774113Y-137825000D01*
X89757701Y-137658371D01*
X89709098Y-137498145D01*
X89630169Y-137350480D01*
X89523949Y-137221051D01*
X89394520Y-137114831D01*
X89246855Y-137035902D01*
X89086629Y-136987299D01*
X88920000Y-136970887D01*
X87932500Y-136975000D01*
X87720000Y-137187500D01*
X87620000Y-137187500D01*
X87407500Y-136975000D01*
X86420000Y-136970887D01*
X86253371Y-136987299D01*
X86093145Y-137035902D01*
X85945480Y-137114831D01*
X85816051Y-137221051D01*
X85709831Y-137350480D01*
X85630902Y-137498145D01*
X85582299Y-137658371D01*
X85565887Y-137825000D01*
X70900000Y-137825000D01*
X70900000Y-136305000D01*
X139920000Y-136305000D01*
X139920001Y-160875000D01*
G37*
X139920001Y-160875000D02*
X128714034Y-160875000D01*
X128837325Y-160577347D01*
X128910755Y-160208193D01*
X128910755Y-159831807D01*
X128837325Y-159462653D01*
X128693289Y-159114918D01*
X128600933Y-158976697D01*
X128660168Y-158904519D01*
X128700000Y-158830000D01*
X128996874Y-158830000D01*
X129061351Y-158882915D01*
X129295878Y-159008272D01*
X129550354Y-159085467D01*
X129748679Y-159105000D01*
X129748681Y-159105000D01*
X129815000Y-159111532D01*
X129881319Y-159105000D01*
X130122681Y-159105000D01*
X130170466Y-159262524D01*
X130365466Y-159627343D01*
X130627892Y-159947109D01*
X130947658Y-160209535D01*
X131312477Y-160404535D01*
X131708329Y-160524615D01*
X132120000Y-160565161D01*
X132531672Y-160524615D01*
X132927524Y-160404535D01*
X133292343Y-160209535D01*
X133612109Y-159947109D01*
X133874535Y-159627343D01*
X134069535Y-159262524D01*
X134189615Y-158866671D01*
X134220000Y-158558166D01*
X134220000Y-156951833D01*
X134189615Y-156643328D01*
X134069535Y-156247476D01*
X133874535Y-155882657D01*
X133687701Y-155655000D01*
X135552299Y-155655000D01*
X135365465Y-155882657D01*
X135170465Y-156247477D01*
X135050385Y-156643329D01*
X135020000Y-156951834D01*
X135020000Y-158558167D01*
X135050385Y-158866672D01*
X135170466Y-159262524D01*
X135365466Y-159627343D01*
X135627892Y-159947109D01*
X135947658Y-160209535D01*
X136312477Y-160404535D01*
X136708329Y-160524615D01*
X137120000Y-160565161D01*
X137531672Y-160524615D01*
X137927524Y-160404535D01*
X138292343Y-160209535D01*
X138612109Y-159947109D01*
X138874535Y-159627343D01*
X139069535Y-159262524D01*
X139189615Y-158866671D01*
X139220000Y-158558166D01*
X139220000Y-156951833D01*
X139189615Y-156643328D01*
X139069535Y-156247476D01*
X138874535Y-155882657D01*
X138612109Y-155562891D01*
X138292343Y-155300465D01*
X137927523Y-155105465D01*
X137702103Y-155037085D01*
X139117706Y-153621483D01*
X139169212Y-153579213D01*
X139211483Y-153527706D01*
X139211490Y-153527699D01*
X139337915Y-153373650D01*
X139463271Y-153139123D01*
X139463272Y-153139122D01*
X139540467Y-152884646D01*
X139560000Y-152686321D01*
X139560000Y-152686319D01*
X139566532Y-152620000D01*
X139560000Y-152553681D01*
X139560000Y-151942834D01*
X139620168Y-151869519D01*
X139699097Y-151721855D01*
X139747700Y-151561629D01*
X139764112Y-151395000D01*
X139764112Y-149595000D01*
X139747700Y-149428371D01*
X139699097Y-149268145D01*
X139620168Y-149120481D01*
X139513948Y-148991052D01*
X139384519Y-148884832D01*
X139236855Y-148805903D01*
X139076629Y-148757300D01*
X138910000Y-148740888D01*
X137310000Y-148740888D01*
X137160005Y-148755662D01*
X137010000Y-148740887D01*
X136472500Y-148745000D01*
X136260000Y-148957500D01*
X136260000Y-150445000D01*
X136280000Y-150445000D01*
X136280000Y-150545000D01*
X136260000Y-150545000D01*
X136260000Y-152032500D01*
X136472500Y-152245000D01*
X136674267Y-152246544D01*
X135965812Y-152955000D01*
X132781310Y-152955000D01*
X132714999Y-152948469D01*
X132648688Y-152955000D01*
X132648679Y-152955000D01*
X132450354Y-152974533D01*
X132195878Y-153051728D01*
X131961351Y-153177085D01*
X131755787Y-153345787D01*
X131713510Y-153397302D01*
X131212299Y-153898513D01*
X131160788Y-153940787D01*
X131118514Y-153992298D01*
X131118510Y-153992302D01*
X130992085Y-154146351D01*
X130866729Y-154380878D01*
X130789534Y-154635354D01*
X130763468Y-154900000D01*
X130770001Y-154966329D01*
X130770001Y-155446264D01*
X130627891Y-155562891D01*
X130365465Y-155882657D01*
X130170465Y-156247477D01*
X130160346Y-156280833D01*
X130059122Y-156226728D01*
X129804646Y-156149533D01*
X129606321Y-156130000D01*
X129606319Y-156130000D01*
X129540000Y-156123468D01*
X129473681Y-156130000D01*
X128700000Y-156130000D01*
X128660168Y-156055481D01*
X128553948Y-155926052D01*
X128424519Y-155819832D01*
X128276855Y-155740903D01*
X128116629Y-155692300D01*
X127950000Y-155675888D01*
X126903300Y-155675888D01*
X127907702Y-154671487D01*
X127959213Y-154629213D01*
X128001487Y-154577702D01*
X128001490Y-154577699D01*
X128127915Y-154423650D01*
X128253271Y-154189123D01*
X128253272Y-154189122D01*
X128330467Y-153934646D01*
X128350000Y-153736321D01*
X128350000Y-153736312D01*
X128356531Y-153670001D01*
X128350000Y-153603690D01*
X128350000Y-151845000D01*
X129606726Y-151845000D01*
X129619832Y-151869519D01*
X129726052Y-151998948D01*
X129855481Y-152105168D01*
X130003145Y-152184097D01*
X130163371Y-152232700D01*
X130330000Y-152249112D01*
X131930000Y-152249112D01*
X132079995Y-152234338D01*
X132230000Y-152249113D01*
X132767500Y-152245000D01*
X132980000Y-152032500D01*
X132980000Y-150545000D01*
X133080000Y-150545000D01*
X133080000Y-152032500D01*
X133292500Y-152245000D01*
X133830000Y-152249113D01*
X133996629Y-152232701D01*
X134156855Y-152184098D01*
X134304520Y-152105169D01*
X134433949Y-151998949D01*
X134540169Y-151869520D01*
X134619098Y-151721855D01*
X134620000Y-151718881D01*
X134620902Y-151721855D01*
X134699831Y-151869520D01*
X134806051Y-151998949D01*
X134935480Y-152105169D01*
X135083145Y-152184098D01*
X135243371Y-152232701D01*
X135410000Y-152249113D01*
X135947500Y-152245000D01*
X136160000Y-152032500D01*
X136160000Y-150545000D01*
X134772500Y-150545000D01*
X134620000Y-150697500D01*
X134467500Y-150545000D01*
X133080000Y-150545000D01*
X132980000Y-150545000D01*
X132960000Y-150545000D01*
X132960000Y-150445000D01*
X132980000Y-150445000D01*
X132980000Y-148957500D01*
X133080000Y-148957500D01*
X133080000Y-150445000D01*
X134467500Y-150445000D01*
X134620000Y-150292500D01*
X134772500Y-150445000D01*
X136160000Y-150445000D01*
X136160000Y-148957500D01*
X135947500Y-148745000D01*
X135410000Y-148740887D01*
X135243371Y-148757299D01*
X135083145Y-148805902D01*
X134935480Y-148884831D01*
X134806051Y-148991051D01*
X134699831Y-149120480D01*
X134620902Y-149268145D01*
X134620000Y-149271119D01*
X134619098Y-149268145D01*
X134540169Y-149120480D01*
X134433949Y-148991051D01*
X134304520Y-148884831D01*
X134156855Y-148805902D01*
X133996629Y-148757299D01*
X133830000Y-148740887D01*
X133292500Y-148745000D01*
X133080000Y-148957500D01*
X132980000Y-148957500D01*
X132767500Y-148745000D01*
X132230000Y-148740887D01*
X132079995Y-148755662D01*
X131930000Y-148740888D01*
X130330000Y-148740888D01*
X130163371Y-148757300D01*
X130003145Y-148805903D01*
X129855481Y-148884832D01*
X129726052Y-148991052D01*
X129619832Y-149120481D01*
X129606726Y-149145000D01*
X128350000Y-149145000D01*
X128350000Y-146751319D01*
X128356532Y-146685000D01*
X128344713Y-146565000D01*
X128330467Y-146420354D01*
X128253272Y-146165878D01*
X128127915Y-145931351D01*
X128067073Y-145857215D01*
X128001490Y-145777302D01*
X128001487Y-145777299D01*
X127959212Y-145725787D01*
X127907701Y-145683513D01*
X127571491Y-145347303D01*
X127529213Y-145295787D01*
X127323649Y-145127085D01*
X127089122Y-145001728D01*
X126834646Y-144924533D01*
X126636321Y-144905000D01*
X126636319Y-144905000D01*
X126570000Y-144898468D01*
X126506867Y-144904686D01*
X126495997Y-144794320D01*
X126361621Y-144351343D01*
X126143407Y-143943093D01*
X125849741Y-143585259D01*
X125610734Y-143389112D01*
X126630000Y-143389112D01*
X126796629Y-143372700D01*
X126956855Y-143324097D01*
X127104519Y-143245168D01*
X127233948Y-143138948D01*
X127278222Y-143085000D01*
X127438681Y-143085000D01*
X127505000Y-143091532D01*
X127571319Y-143085000D01*
X127571321Y-143085000D01*
X127769646Y-143065467D01*
X128024122Y-142988272D01*
X128258649Y-142862915D01*
X128271892Y-142852047D01*
X128313145Y-142874097D01*
X128473371Y-142922700D01*
X128640000Y-142939112D01*
X130440000Y-142939112D01*
X130606629Y-142922700D01*
X130766855Y-142874097D01*
X130896124Y-142805000D01*
X132420000Y-142805000D01*
X132420000Y-143455000D01*
X132472027Y-143883238D01*
X132606599Y-144293098D01*
X132818545Y-144668828D01*
X133099720Y-144995990D01*
X133439319Y-145262011D01*
X133824290Y-145456668D01*
X134226549Y-145569532D01*
X134570000Y-145391871D01*
X134570000Y-142805000D01*
X134670000Y-142805000D01*
X134670000Y-145391871D01*
X135013451Y-145569532D01*
X135415710Y-145456668D01*
X135800681Y-145262011D01*
X136140280Y-144995990D01*
X136421455Y-144668828D01*
X136633401Y-144293098D01*
X136767973Y-143883238D01*
X136820000Y-143455000D01*
X136820000Y-142805000D01*
X134670000Y-142805000D01*
X134570000Y-142805000D01*
X132420000Y-142805000D01*
X130896124Y-142805000D01*
X130914519Y-142795168D01*
X131043948Y-142688948D01*
X131150168Y-142559519D01*
X131229097Y-142411855D01*
X131277700Y-142251629D01*
X131294112Y-142085000D01*
X131294112Y-142055000D01*
X132420000Y-142055000D01*
X132420000Y-142705000D01*
X134570000Y-142705000D01*
X134570000Y-140118129D01*
X134670000Y-140118129D01*
X134670000Y-142705000D01*
X136820000Y-142705000D01*
X136820000Y-142055000D01*
X136767973Y-141626762D01*
X136633401Y-141216902D01*
X136421455Y-140841172D01*
X136140280Y-140514010D01*
X135800681Y-140247989D01*
X135415710Y-140053332D01*
X135013451Y-139940468D01*
X134670000Y-140118129D01*
X134570000Y-140118129D01*
X134226549Y-139940468D01*
X133824290Y-140053332D01*
X133439319Y-140247989D01*
X133099720Y-140514010D01*
X132818545Y-140841172D01*
X132606599Y-141216902D01*
X132472027Y-141626762D01*
X132420000Y-142055000D01*
X131294112Y-142055000D01*
X131294112Y-140485000D01*
X131279338Y-140335000D01*
X131294112Y-140185000D01*
X131294112Y-138585000D01*
X131277700Y-138418371D01*
X131229097Y-138258145D01*
X131150168Y-138110481D01*
X131043948Y-137981052D01*
X130914519Y-137874832D01*
X130766855Y-137795903D01*
X130606629Y-137747300D01*
X130440000Y-137730888D01*
X128640000Y-137730888D01*
X128473371Y-137747300D01*
X128313145Y-137795903D01*
X128271892Y-137817953D01*
X128258649Y-137807085D01*
X128024122Y-137681728D01*
X127769646Y-137604533D01*
X127571321Y-137585000D01*
X127571319Y-137585000D01*
X127505000Y-137578468D01*
X127438681Y-137585000D01*
X127278222Y-137585000D01*
X127233948Y-137531052D01*
X127104519Y-137424832D01*
X126956855Y-137345903D01*
X126796629Y-137297300D01*
X126630000Y-137280888D01*
X124830000Y-137280888D01*
X124663371Y-137297300D01*
X124503145Y-137345903D01*
X124355481Y-137424832D01*
X124226052Y-137531052D01*
X124181778Y-137585000D01*
X123386319Y-137585000D01*
X123320000Y-137578468D01*
X123253681Y-137585000D01*
X123253679Y-137585000D01*
X123055354Y-137604533D01*
X122800878Y-137681728D01*
X122738630Y-137715000D01*
X114225584Y-137715000D01*
X114177433Y-137666849D01*
X113882620Y-137469861D01*
X113555041Y-137334173D01*
X113207284Y-137265000D01*
X112852716Y-137265000D01*
X112504959Y-137334173D01*
X112177380Y-137469861D01*
X111882567Y-137666849D01*
X111631849Y-137917567D01*
X111434861Y-138212380D01*
X111299173Y-138539959D01*
X111230000Y-138887716D01*
X111230000Y-139242284D01*
X111299173Y-139590041D01*
X111434861Y-139917620D01*
X111631849Y-140212433D01*
X111680001Y-140260585D01*
X111680001Y-140401726D01*
X111655481Y-140414832D01*
X111526052Y-140521052D01*
X111419832Y-140650481D01*
X111340903Y-140798145D01*
X111292300Y-140958371D01*
X111275888Y-141125000D01*
X111275888Y-142725000D01*
X111290662Y-142875000D01*
X111275888Y-143025000D01*
X111275888Y-144625000D01*
X111292300Y-144791629D01*
X111340903Y-144951855D01*
X111392826Y-145048994D01*
X111268649Y-144947085D01*
X111034122Y-144821728D01*
X110779646Y-144744533D01*
X110634705Y-144730258D01*
X110622700Y-144608371D01*
X110574097Y-144448145D01*
X110495168Y-144300481D01*
X110388948Y-144171052D01*
X110259519Y-144064832D01*
X110111855Y-143985903D01*
X109951629Y-143937300D01*
X109785000Y-143920888D01*
X107385000Y-143920888D01*
X107218371Y-143937300D01*
X107058145Y-143985903D01*
X106910481Y-144064832D01*
X106781052Y-144171052D01*
X106674832Y-144300481D01*
X106595903Y-144448145D01*
X106547300Y-144608371D01*
X106530888Y-144775000D01*
X106530888Y-144925000D01*
X105721291Y-144925000D01*
X105941455Y-144668828D01*
X106153401Y-144293098D01*
X106287973Y-143883238D01*
X106340000Y-143455000D01*
X106340000Y-142805000D01*
X104190000Y-142805000D01*
X104190000Y-142825000D01*
X104090000Y-142825000D01*
X104090000Y-142805000D01*
X101940000Y-142805000D01*
X101940000Y-143455000D01*
X101992027Y-143883238D01*
X102126599Y-144293098D01*
X102338545Y-144668828D01*
X102558709Y-144925000D01*
X100831346Y-144925000D01*
X98008124Y-142101780D01*
X97972107Y-142057893D01*
X97968582Y-142055000D01*
X101940000Y-142055000D01*
X101940000Y-142705000D01*
X104090000Y-142705000D01*
X104090000Y-140118129D01*
X104190000Y-140118129D01*
X104190000Y-142705000D01*
X106340000Y-142705000D01*
X106340000Y-142055000D01*
X106287973Y-141626762D01*
X106153401Y-141216902D01*
X106016947Y-140975000D01*
X106530887Y-140975000D01*
X106547299Y-141141629D01*
X106595902Y-141301855D01*
X106674831Y-141449520D01*
X106781051Y-141578949D01*
X106910480Y-141685169D01*
X107058145Y-141764098D01*
X107218371Y-141812701D01*
X107385000Y-141829113D01*
X108322500Y-141825000D01*
X108535000Y-141612500D01*
X108535000Y-139725000D01*
X108635000Y-139725000D01*
X108635000Y-141612500D01*
X108847500Y-141825000D01*
X109785000Y-141829113D01*
X109951629Y-141812701D01*
X110111855Y-141764098D01*
X110259520Y-141685169D01*
X110388949Y-141578949D01*
X110495169Y-141449520D01*
X110574098Y-141301855D01*
X110622701Y-141141629D01*
X110639113Y-140975000D01*
X110635000Y-139937500D01*
X110422500Y-139725000D01*
X108635000Y-139725000D01*
X108535000Y-139725000D01*
X106747500Y-139725000D01*
X106535000Y-139937500D01*
X106530887Y-140975000D01*
X106016947Y-140975000D01*
X105941455Y-140841172D01*
X105660280Y-140514010D01*
X105320681Y-140247989D01*
X104935710Y-140053332D01*
X104533451Y-139940468D01*
X104190000Y-140118129D01*
X104090000Y-140118129D01*
X103746549Y-139940468D01*
X103344290Y-140053332D01*
X102959319Y-140247989D01*
X102619720Y-140514010D01*
X102338545Y-140841172D01*
X102126599Y-141216902D01*
X101992027Y-141626762D01*
X101940000Y-142055000D01*
X97968582Y-142055000D01*
X97796997Y-141914184D01*
X97597215Y-141807398D01*
X97380439Y-141741640D01*
X97211492Y-141725000D01*
X97211482Y-141725000D01*
X97155000Y-141719437D01*
X97098518Y-141725000D01*
X93911749Y-141725000D01*
X93870000Y-141720888D01*
X91670000Y-141720888D01*
X91503371Y-141737300D01*
X91343145Y-141785903D01*
X91195481Y-141864832D01*
X91066052Y-141971052D01*
X90959832Y-142100481D01*
X90880903Y-142248145D01*
X90832300Y-142408371D01*
X90815888Y-142575000D01*
X90815888Y-143175000D01*
X90832300Y-143341629D01*
X90880903Y-143501855D01*
X90885257Y-143510000D01*
X90880903Y-143518145D01*
X90832300Y-143678371D01*
X90815888Y-143845000D01*
X90815888Y-144445000D01*
X90832300Y-144611629D01*
X90880903Y-144771855D01*
X90885257Y-144780000D01*
X90880903Y-144788145D01*
X90832300Y-144948371D01*
X90815888Y-145115000D01*
X90815888Y-145715000D01*
X90832300Y-145881629D01*
X90880903Y-146041855D01*
X90885257Y-146050000D01*
X90880903Y-146058145D01*
X90832300Y-146218371D01*
X90815888Y-146385000D01*
X90815888Y-146805000D01*
X89377500Y-146805000D01*
X89307500Y-146735000D01*
X87620000Y-146735000D01*
X87620000Y-146755000D01*
X87520000Y-146755000D01*
X87520000Y-146735000D01*
X85832500Y-146735000D01*
X85762500Y-146805000D01*
X83241492Y-146805000D01*
X83185000Y-146799436D01*
X82959561Y-146821640D01*
X82742784Y-146887398D01*
X82666603Y-146928118D01*
X82543003Y-146994184D01*
X82367893Y-147137893D01*
X82331875Y-147181781D01*
X81776776Y-147736880D01*
X81732894Y-147772893D01*
X81589185Y-147948003D01*
X81482399Y-148147785D01*
X81416641Y-148364561D01*
X81400000Y-148533508D01*
X81400000Y-148533518D01*
X81394437Y-148590000D01*
X81400000Y-148646482D01*
X81400000Y-148752590D01*
X81323145Y-148775903D01*
X81280000Y-148798965D01*
X81236855Y-148775903D01*
X81076629Y-148727300D01*
X80910000Y-148710888D01*
X79110000Y-148710888D01*
X78943371Y-148727300D01*
X78783145Y-148775903D01*
X78635481Y-148854832D01*
X78506052Y-148961052D01*
X78399832Y-149090481D01*
X78320903Y-149238145D01*
X78272300Y-149398371D01*
X78255888Y-149565000D01*
X78255888Y-151165000D01*
X78272300Y-151331629D01*
X78320903Y-151491855D01*
X78399832Y-151639519D01*
X78502811Y-151764999D01*
X78399831Y-151890480D01*
X78320902Y-152038145D01*
X78272299Y-152198371D01*
X78255887Y-152365000D01*
X78260000Y-152902500D01*
X78472500Y-153115000D01*
X79960000Y-153115000D01*
X79960000Y-153095000D01*
X80060000Y-153095000D01*
X80060000Y-153115000D01*
X80080000Y-153115000D01*
X80080000Y-153215000D01*
X80060000Y-153215000D01*
X80060000Y-154602500D01*
X80272500Y-154815000D01*
X80910000Y-154819113D01*
X81076629Y-154802701D01*
X81236855Y-154754098D01*
X81280001Y-154731036D01*
X81323145Y-154754097D01*
X81400000Y-154777410D01*
X81400001Y-155102590D01*
X81323145Y-155125903D01*
X81175481Y-155204832D01*
X81046052Y-155311052D01*
X81034605Y-155325000D01*
X79902239Y-155325000D01*
X79872343Y-155300465D01*
X79507523Y-155105465D01*
X79111671Y-154985385D01*
X78700000Y-154944839D01*
X78288328Y-154985385D01*
X77892476Y-155105465D01*
X77527657Y-155300465D01*
X77207891Y-155562891D01*
X76945465Y-155882657D01*
X76750465Y-156247477D01*
X76630385Y-156643329D01*
X76600000Y-156951834D01*
X76600000Y-158558167D01*
X76630385Y-158866672D01*
X76750466Y-159262524D01*
X76945466Y-159627343D01*
X77207892Y-159947109D01*
X77527658Y-160209535D01*
X77892477Y-160404535D01*
X78288329Y-160524615D01*
X78700000Y-160565161D01*
X79111672Y-160524615D01*
X79507524Y-160404535D01*
X79872343Y-160209535D01*
X80192109Y-159947109D01*
X80454535Y-159627343D01*
X80649535Y-159262524D01*
X80769615Y-158866671D01*
X80800000Y-158558166D01*
X80800000Y-157556749D01*
X80812300Y-157681629D01*
X80860903Y-157841855D01*
X80939832Y-157989519D01*
X81042811Y-158114999D01*
X80939831Y-158240480D01*
X80860902Y-158388145D01*
X80812299Y-158548371D01*
X80795887Y-158715000D01*
X80800000Y-159252500D01*
X81012500Y-159465000D01*
X82500000Y-159465000D01*
X82500000Y-159445000D01*
X82600000Y-159445000D01*
X82600000Y-159465000D01*
X82620000Y-159465000D01*
X82620000Y-159565000D01*
X82600000Y-159565000D01*
X82600000Y-159585000D01*
X82500000Y-159585000D01*
X82500000Y-159565000D01*
X81012500Y-159565000D01*
X80800000Y-159777500D01*
X80795887Y-160315000D01*
X80812299Y-160481629D01*
X80860902Y-160641855D01*
X80939831Y-160789520D01*
X81009983Y-160875000D01*
X70900000Y-160875000D01*
X70900000Y-157805000D01*
X71600000Y-157805000D01*
X71600000Y-158505000D01*
X71650105Y-158913729D01*
X71778987Y-159304829D01*
X71981692Y-159663271D01*
X72250431Y-159975280D01*
X72574876Y-160228865D01*
X72942559Y-160414281D01*
X73322196Y-160520736D01*
X73650000Y-160341838D01*
X73650000Y-157805000D01*
X73750000Y-157805000D01*
X73750000Y-160341838D01*
X74077804Y-160520736D01*
X74457441Y-160414281D01*
X74825124Y-160228865D01*
X75149569Y-159975280D01*
X75418308Y-159663271D01*
X75621013Y-159304829D01*
X75749895Y-158913729D01*
X75800000Y-158505000D01*
X75800000Y-157805000D01*
X73750000Y-157805000D01*
X73650000Y-157805000D01*
X71600000Y-157805000D01*
X70900000Y-157805000D01*
X70900000Y-157005000D01*
X71600000Y-157005000D01*
X71600000Y-157705000D01*
X73650000Y-157705000D01*
X73650000Y-155168162D01*
X73750000Y-155168162D01*
X73750000Y-157705000D01*
X75800000Y-157705000D01*
X75800000Y-157005000D01*
X75749895Y-156596271D01*
X75621013Y-156205171D01*
X75418308Y-155846729D01*
X75149569Y-155534720D01*
X74825124Y-155281135D01*
X74457441Y-155095719D01*
X74077804Y-154989264D01*
X73750000Y-155168162D01*
X73650000Y-155168162D01*
X73322196Y-154989264D01*
X72942559Y-155095719D01*
X72574876Y-155281135D01*
X72250431Y-155534720D01*
X71981692Y-155846729D01*
X71778987Y-156205171D01*
X71650105Y-156596271D01*
X71600000Y-157005000D01*
X70900000Y-157005000D01*
X70900000Y-153965000D01*
X78255887Y-153965000D01*
X78272299Y-154131629D01*
X78320902Y-154291855D01*
X78399831Y-154439520D01*
X78506051Y-154568949D01*
X78635480Y-154675169D01*
X78783145Y-154754098D01*
X78943371Y-154802701D01*
X79110000Y-154819113D01*
X79747500Y-154815000D01*
X79960000Y-154602500D01*
X79960000Y-153215000D01*
X78472500Y-153215000D01*
X78260000Y-153427500D01*
X78255887Y-153965000D01*
X70900000Y-153965000D01*
X70900000Y-146385000D01*
X85615887Y-146385000D01*
X85620000Y-146422500D01*
X85832500Y-146635000D01*
X87520000Y-146635000D01*
X87520000Y-146615000D01*
X87620000Y-146615000D01*
X87620000Y-146635000D01*
X89307500Y-146635000D01*
X89520000Y-146422500D01*
X89524113Y-146385000D01*
X89507701Y-146218371D01*
X89459098Y-146058145D01*
X89454744Y-146049999D01*
X89459097Y-146041855D01*
X89507700Y-145881629D01*
X89524112Y-145715000D01*
X89524112Y-145115000D01*
X89507700Y-144948371D01*
X89459097Y-144788145D01*
X89454743Y-144780000D01*
X89459097Y-144771855D01*
X89507700Y-144611629D01*
X89524112Y-144445000D01*
X89524112Y-143845000D01*
X89507700Y-143678371D01*
X89459097Y-143518145D01*
X89454743Y-143510000D01*
X89459097Y-143501855D01*
X89507700Y-143341629D01*
X89524112Y-143175000D01*
X89524112Y-142575000D01*
X89507700Y-142408371D01*
X89459097Y-142248145D01*
X89380168Y-142100481D01*
X89273948Y-141971052D01*
X89144519Y-141864832D01*
X88996855Y-141785903D01*
X88836629Y-141737300D01*
X88670000Y-141720888D01*
X87584742Y-141720888D01*
X87570000Y-141719436D01*
X87555258Y-141720888D01*
X86470000Y-141720888D01*
X86303371Y-141737300D01*
X86143145Y-141785903D01*
X85995481Y-141864832D01*
X85866052Y-141971052D01*
X85759832Y-142100481D01*
X85680903Y-142248145D01*
X85632300Y-142408371D01*
X85615888Y-142575000D01*
X85615888Y-143175000D01*
X85632300Y-143341629D01*
X85680903Y-143501855D01*
X85685257Y-143510000D01*
X85680903Y-143518145D01*
X85632300Y-143678371D01*
X85615888Y-143845000D01*
X85615888Y-144445000D01*
X85632300Y-144611629D01*
X85680903Y-144771855D01*
X85685257Y-144780000D01*
X85680903Y-144788145D01*
X85632300Y-144948371D01*
X85615888Y-145115000D01*
X85615888Y-145715000D01*
X85632300Y-145881629D01*
X85680903Y-146041855D01*
X85685256Y-146049999D01*
X85680902Y-146058145D01*
X85632299Y-146218371D01*
X85615887Y-146385000D01*
X70900000Y-146385000D01*
X70900000Y-142805000D01*
X74000000Y-142805000D01*
X74000000Y-143455000D01*
X74052027Y-143883238D01*
X74186599Y-144293098D01*
X74398545Y-144668828D01*
X74679720Y-144995990D01*
X75019319Y-145262011D01*
X75404290Y-145456668D01*
X75806549Y-145569532D01*
X76150000Y-145391871D01*
X76150000Y-142805000D01*
X76250000Y-142805000D01*
X76250000Y-145391871D01*
X76593451Y-145569532D01*
X76995710Y-145456668D01*
X77380681Y-145262011D01*
X77720280Y-144995990D01*
X78001455Y-144668828D01*
X78213401Y-144293098D01*
X78347973Y-143883238D01*
X78400000Y-143455000D01*
X78400000Y-142805000D01*
X76250000Y-142805000D01*
X76150000Y-142805000D01*
X74000000Y-142805000D01*
X70900000Y-142805000D01*
X70900000Y-142055000D01*
X74000000Y-142055000D01*
X74000000Y-142705000D01*
X76150000Y-142705000D01*
X76150000Y-140118129D01*
X76250000Y-140118129D01*
X76250000Y-142705000D01*
X78400000Y-142705000D01*
X78400000Y-142055000D01*
X78347973Y-141626762D01*
X78213401Y-141216902D01*
X78001455Y-140841172D01*
X77720280Y-140514010D01*
X77478993Y-140325000D01*
X85565887Y-140325000D01*
X85582299Y-140491629D01*
X85630902Y-140651855D01*
X85709831Y-140799520D01*
X85816051Y-140928949D01*
X85945480Y-141035169D01*
X86093145Y-141114098D01*
X86253371Y-141162701D01*
X86420000Y-141179113D01*
X87407500Y-141175000D01*
X87620000Y-140962500D01*
X87620000Y-139125000D01*
X87720000Y-139125000D01*
X87720000Y-140962500D01*
X87932500Y-141175000D01*
X88920000Y-141179113D01*
X89086629Y-141162701D01*
X89246855Y-141114098D01*
X89394520Y-141035169D01*
X89523949Y-140928949D01*
X89630169Y-140799520D01*
X89709098Y-140651855D01*
X89757701Y-140491629D01*
X89774113Y-140325000D01*
X90565887Y-140325000D01*
X90582299Y-140491629D01*
X90630902Y-140651855D01*
X90709831Y-140799520D01*
X90816051Y-140928949D01*
X90945480Y-141035169D01*
X91093145Y-141114098D01*
X91253371Y-141162701D01*
X91420000Y-141179113D01*
X92407500Y-141175000D01*
X92620000Y-140962500D01*
X92620000Y-139125000D01*
X92720000Y-139125000D01*
X92720000Y-140962500D01*
X92932500Y-141175000D01*
X93920000Y-141179113D01*
X94086629Y-141162701D01*
X94246855Y-141114098D01*
X94394520Y-141035169D01*
X94523949Y-140928949D01*
X94630169Y-140799520D01*
X94709098Y-140651855D01*
X94757701Y-140491629D01*
X94774113Y-140325000D01*
X94770000Y-139337500D01*
X94557500Y-139125000D01*
X92720000Y-139125000D01*
X92620000Y-139125000D01*
X90782500Y-139125000D01*
X90570000Y-139337500D01*
X90565887Y-140325000D01*
X89774113Y-140325000D01*
X89770000Y-139337500D01*
X89557500Y-139125000D01*
X87720000Y-139125000D01*
X87620000Y-139125000D01*
X85782500Y-139125000D01*
X85570000Y-139337500D01*
X85565887Y-140325000D01*
X77478993Y-140325000D01*
X77380681Y-140247989D01*
X76995710Y-140053332D01*
X76593451Y-139940468D01*
X76250000Y-140118129D01*
X76150000Y-140118129D01*
X75806549Y-139940468D01*
X75404290Y-140053332D01*
X75019319Y-140247989D01*
X74679720Y-140514010D01*
X74398545Y-140841172D01*
X74186599Y-141216902D01*
X74052027Y-141626762D01*
X74000000Y-142055000D01*
X70900000Y-142055000D01*
X70900000Y-137825000D01*
X85565887Y-137825000D01*
X85570000Y-138812500D01*
X85782500Y-139025000D01*
X87620000Y-139025000D01*
X87620000Y-137187500D01*
X87720000Y-137187500D01*
X87720000Y-139025000D01*
X89557500Y-139025000D01*
X89770000Y-138812500D01*
X89774113Y-137825000D01*
X90565887Y-137825000D01*
X90570000Y-138812500D01*
X90782500Y-139025000D01*
X92620000Y-139025000D01*
X92620000Y-137187500D01*
X92720000Y-137187500D01*
X92720000Y-139025000D01*
X94557500Y-139025000D01*
X94770000Y-138812500D01*
X94771822Y-138375000D01*
X106530887Y-138375000D01*
X106535000Y-139412500D01*
X106747500Y-139625000D01*
X108535000Y-139625000D01*
X108535000Y-137737500D01*
X108635000Y-137737500D01*
X108635000Y-139625000D01*
X110422500Y-139625000D01*
X110635000Y-139412500D01*
X110639113Y-138375000D01*
X110622701Y-138208371D01*
X110574098Y-138048145D01*
X110495169Y-137900480D01*
X110388949Y-137771051D01*
X110259520Y-137664831D01*
X110111855Y-137585902D01*
X109951629Y-137537299D01*
X109785000Y-137520887D01*
X108847500Y-137525000D01*
X108635000Y-137737500D01*
X108535000Y-137737500D01*
X108322500Y-137525000D01*
X107385000Y-137520887D01*
X107218371Y-137537299D01*
X107058145Y-137585902D01*
X106910480Y-137664831D01*
X106781051Y-137771051D01*
X106674831Y-137900480D01*
X106595902Y-138048145D01*
X106547299Y-138208371D01*
X106530887Y-138375000D01*
X94771822Y-138375000D01*
X94774113Y-137825000D01*
X94757701Y-137658371D01*
X94709098Y-137498145D01*
X94630169Y-137350480D01*
X94523949Y-137221051D01*
X94394520Y-137114831D01*
X94246855Y-137035902D01*
X94086629Y-136987299D01*
X93920000Y-136970887D01*
X92932500Y-136975000D01*
X92720000Y-137187500D01*
X92620000Y-137187500D01*
X92407500Y-136975000D01*
X91420000Y-136970887D01*
X91253371Y-136987299D01*
X91093145Y-137035902D01*
X90945480Y-137114831D01*
X90816051Y-137221051D01*
X90709831Y-137350480D01*
X90630902Y-137498145D01*
X90582299Y-137658371D01*
X90565887Y-137825000D01*
X89774113Y-137825000D01*
X89757701Y-137658371D01*
X89709098Y-137498145D01*
X89630169Y-137350480D01*
X89523949Y-137221051D01*
X89394520Y-137114831D01*
X89246855Y-137035902D01*
X89086629Y-136987299D01*
X88920000Y-136970887D01*
X87932500Y-136975000D01*
X87720000Y-137187500D01*
X87620000Y-137187500D01*
X87407500Y-136975000D01*
X86420000Y-136970887D01*
X86253371Y-136987299D01*
X86093145Y-137035902D01*
X85945480Y-137114831D01*
X85816051Y-137221051D01*
X85709831Y-137350480D01*
X85630902Y-137498145D01*
X85582299Y-137658371D01*
X85565887Y-137825000D01*
X70900000Y-137825000D01*
X70900000Y-136305000D01*
X139920000Y-136305000D01*
X139920001Y-160875000D01*
G36*
X103690903Y-151721855D02*
G01*
X103713964Y-151764999D01*
X103690902Y-151808145D01*
X103642299Y-151968371D01*
X103625887Y-152135000D01*
X103630000Y-152772500D01*
X103842500Y-152985000D01*
X105230000Y-152985000D01*
X105230000Y-152965000D01*
X105330000Y-152965000D01*
X105330000Y-152985000D01*
X105350000Y-152985000D01*
X105350000Y-153085000D01*
X105330000Y-153085000D01*
X105330000Y-154572500D01*
X105542500Y-154785000D01*
X106080000Y-154789113D01*
X106246629Y-154772701D01*
X106406855Y-154724098D01*
X106554520Y-154645169D01*
X106680001Y-154542189D01*
X106805481Y-154645168D01*
X106953145Y-154724097D01*
X107113371Y-154772700D01*
X107280000Y-154789112D01*
X108880000Y-154789112D01*
X109046629Y-154772700D01*
X109206855Y-154724097D01*
X109354519Y-154645168D01*
X109483948Y-154538948D01*
X109590168Y-154409519D01*
X109669097Y-154261855D01*
X109717700Y-154101629D01*
X109734112Y-153935000D01*
X109734112Y-152135000D01*
X109717700Y-151968371D01*
X109680277Y-151845000D01*
X111264556Y-151845000D01*
X111242300Y-151918371D01*
X111225888Y-152085000D01*
X111225888Y-153985000D01*
X111242300Y-154151629D01*
X111290903Y-154311855D01*
X111369832Y-154459519D01*
X111476052Y-154588948D01*
X111605481Y-154695168D01*
X111680001Y-154735000D01*
X111680001Y-155015812D01*
X111547300Y-155148512D01*
X111495788Y-155190787D01*
X111453514Y-155242298D01*
X111453510Y-155242302D01*
X111327085Y-155396351D01*
X111201729Y-155630878D01*
X111124534Y-155885354D01*
X111098468Y-156150000D01*
X111105001Y-156216328D01*
X111105001Y-156415000D01*
X111030481Y-156454832D01*
X110901052Y-156561052D01*
X110794832Y-156690481D01*
X110715903Y-156838145D01*
X110667300Y-156998371D01*
X110650888Y-157165000D01*
X110650888Y-159065000D01*
X110667300Y-159231629D01*
X110715903Y-159391855D01*
X110794832Y-159539519D01*
X110901052Y-159668948D01*
X111030481Y-159775168D01*
X111178145Y-159854097D01*
X111338371Y-159902700D01*
X111505000Y-159919112D01*
X113405000Y-159919112D01*
X113571629Y-159902700D01*
X113705000Y-159862243D01*
X113838371Y-159902700D01*
X114005000Y-159919112D01*
X115905000Y-159919112D01*
X116071629Y-159902700D01*
X116205000Y-159862243D01*
X116338371Y-159902700D01*
X116505000Y-159919112D01*
X118405000Y-159919112D01*
X118571629Y-159902700D01*
X118731855Y-159854097D01*
X118879519Y-159775168D01*
X119008948Y-159668948D01*
X119020233Y-159655197D01*
X119243463Y-159777873D01*
X119581545Y-159884735D01*
X119933979Y-159923587D01*
X120287221Y-159892936D01*
X120627695Y-159793961D01*
X120942318Y-159630463D01*
X120977276Y-159607107D01*
X121047781Y-159278492D01*
X119955000Y-158185711D01*
X119940858Y-158199853D01*
X119870147Y-158129142D01*
X119884289Y-158115000D01*
X120025711Y-158115000D01*
X121118492Y-159207781D01*
X121447107Y-159137276D01*
X121617873Y-158826537D01*
X121724735Y-158488455D01*
X121763587Y-158136021D01*
X121732936Y-157782779D01*
X121633961Y-157442305D01*
X121470463Y-157127682D01*
X121447107Y-157092724D01*
X121118492Y-157022219D01*
X120025711Y-158115000D01*
X119884289Y-158115000D01*
X119870147Y-158100858D01*
X119940858Y-158030147D01*
X119955000Y-158044289D01*
X121047781Y-156951508D01*
X120977276Y-156622893D01*
X120666537Y-156452127D01*
X120328455Y-156345265D01*
X119976021Y-156306413D01*
X119622779Y-156337064D01*
X119282305Y-156436039D01*
X119018752Y-156572998D01*
X119008948Y-156561052D01*
X118879519Y-156454832D01*
X118731855Y-156375903D01*
X118571629Y-156327300D01*
X118405000Y-156310888D01*
X116505000Y-156310888D01*
X116338371Y-156327300D01*
X116205000Y-156367757D01*
X116071629Y-156327300D01*
X115905000Y-156310888D01*
X114167408Y-156310888D01*
X114283272Y-156094122D01*
X114360467Y-155839646D01*
X114380000Y-155641321D01*
X114380000Y-155641319D01*
X114386532Y-155575000D01*
X114380000Y-155508679D01*
X114380000Y-154735000D01*
X114454519Y-154695168D01*
X114583948Y-154588948D01*
X114690168Y-154459519D01*
X114769097Y-154311855D01*
X114817700Y-154151629D01*
X114834112Y-153985000D01*
X116305887Y-153985000D01*
X116322299Y-154151629D01*
X116370902Y-154311855D01*
X116449831Y-154459520D01*
X116556051Y-154588949D01*
X116685480Y-154695169D01*
X116833145Y-154774098D01*
X116993371Y-154822701D01*
X117160000Y-154839113D01*
X117847500Y-154835000D01*
X118060000Y-154622500D01*
X118060000Y-153085000D01*
X118160000Y-153085000D01*
X118160000Y-154622500D01*
X118372500Y-154835000D01*
X119060000Y-154839113D01*
X119226629Y-154822701D01*
X119386855Y-154774098D01*
X119534520Y-154695169D01*
X119663949Y-154588949D01*
X119770169Y-154459520D01*
X119849098Y-154311855D01*
X119897701Y-154151629D01*
X119914113Y-153985000D01*
X120115887Y-153985000D01*
X120132299Y-154151629D01*
X120180902Y-154311855D01*
X120259831Y-154459520D01*
X120366051Y-154588949D01*
X120495480Y-154695169D01*
X120643145Y-154774098D01*
X120803371Y-154822701D01*
X120970000Y-154839113D01*
X121657500Y-154835000D01*
X121870000Y-154622500D01*
X121870000Y-153085000D01*
X120332500Y-153085000D01*
X120120000Y-153297500D01*
X120115887Y-153985000D01*
X119914113Y-153985000D01*
X119910000Y-153297500D01*
X119697500Y-153085000D01*
X118160000Y-153085000D01*
X118060000Y-153085000D01*
X116522500Y-153085000D01*
X116310000Y-153297500D01*
X116305887Y-153985000D01*
X114834112Y-153985000D01*
X114834112Y-152085000D01*
X114817700Y-151918371D01*
X114795444Y-151845000D01*
X115645813Y-151845000D01*
X115838505Y-152037692D01*
X115880787Y-152089213D01*
X116086351Y-152257915D01*
X116203614Y-152320593D01*
X116307629Y-152376191D01*
X116310000Y-152772500D01*
X116522500Y-152985000D01*
X118060000Y-152985000D01*
X118060000Y-152965000D01*
X118160000Y-152965000D01*
X118160000Y-152985000D01*
X119697500Y-152985000D01*
X119910000Y-152772500D01*
X119911750Y-152480000D01*
X120118250Y-152480000D01*
X120120000Y-152772500D01*
X120332500Y-152985000D01*
X121870000Y-152985000D01*
X121870000Y-152965000D01*
X121970000Y-152965000D01*
X121970000Y-152985000D01*
X121990000Y-152985000D01*
X121990000Y-153085000D01*
X121970000Y-153085000D01*
X121970000Y-154622500D01*
X122182500Y-154835000D01*
X122870000Y-154839113D01*
X123036629Y-154822701D01*
X123196855Y-154774098D01*
X123344520Y-154695169D01*
X123473949Y-154588949D01*
X123499372Y-154557971D01*
X123538985Y-154584439D01*
X123500787Y-154615788D01*
X123458513Y-154667299D01*
X123458510Y-154667302D01*
X123332085Y-154821351D01*
X123291796Y-154896728D01*
X123206728Y-155055879D01*
X123129533Y-155310355D01*
X123120879Y-155398223D01*
X123103468Y-155575000D01*
X123110000Y-155641320D01*
X123110000Y-155780000D01*
X123035481Y-155819832D01*
X122906052Y-155926052D01*
X122799832Y-156055481D01*
X122720903Y-156203145D01*
X122672300Y-156363371D01*
X122655888Y-156530000D01*
X122655888Y-158430000D01*
X122672300Y-158596629D01*
X122720903Y-158756855D01*
X122799832Y-158904519D01*
X122859067Y-158976697D01*
X122766711Y-159114918D01*
X122622675Y-159462653D01*
X122549245Y-159831807D01*
X122549245Y-160208193D01*
X122622675Y-160577347D01*
X122745966Y-160875000D01*
X99330017Y-160875000D01*
X99400169Y-160789520D01*
X99479098Y-160641855D01*
X99527701Y-160481629D01*
X99544113Y-160315000D01*
X99540000Y-159777500D01*
X99327500Y-159565000D01*
X97840000Y-159565000D01*
X97840000Y-159585000D01*
X97740000Y-159585000D01*
X97740000Y-159565000D01*
X97720000Y-159565000D01*
X97720000Y-159465000D01*
X97740000Y-159465000D01*
X97740000Y-159445000D01*
X97840000Y-159445000D01*
X97840000Y-159465000D01*
X99327500Y-159465000D01*
X99540000Y-159252500D01*
X99544113Y-158715000D01*
X99527701Y-158548371D01*
X99479098Y-158388145D01*
X99400169Y-158240480D01*
X99297189Y-158114999D01*
X99400168Y-157989519D01*
X99479097Y-157841855D01*
X99490276Y-157805000D01*
X99540000Y-157805000D01*
X99540000Y-158505000D01*
X99590105Y-158913729D01*
X99718987Y-159304829D01*
X99921692Y-159663271D01*
X100190431Y-159975280D01*
X100514876Y-160228865D01*
X100882559Y-160414281D01*
X101262196Y-160520736D01*
X101590000Y-160341838D01*
X101590000Y-157805000D01*
X101690000Y-157805000D01*
X101690000Y-160341838D01*
X102017804Y-160520736D01*
X102397441Y-160414281D01*
X102765124Y-160228865D01*
X103089569Y-159975280D01*
X103358308Y-159663271D01*
X103561013Y-159304829D01*
X103689895Y-158913729D01*
X103740000Y-158505000D01*
X103740000Y-157805000D01*
X101690000Y-157805000D01*
X101590000Y-157805000D01*
X99540000Y-157805000D01*
X99490276Y-157805000D01*
X99527700Y-157681629D01*
X99540000Y-157556749D01*
X99540000Y-157705000D01*
X101590000Y-157705000D01*
X101590000Y-155168162D01*
X101690000Y-155168162D01*
X101690000Y-157705000D01*
X103740000Y-157705000D01*
X103740000Y-157005000D01*
X103733483Y-156951834D01*
X104540000Y-156951834D01*
X104540000Y-158558167D01*
X104570385Y-158866672D01*
X104690466Y-159262524D01*
X104885466Y-159627343D01*
X105147892Y-159947109D01*
X105467658Y-160209535D01*
X105832477Y-160404535D01*
X106228329Y-160524615D01*
X106640000Y-160565161D01*
X107051672Y-160524615D01*
X107447524Y-160404535D01*
X107812343Y-160209535D01*
X108132109Y-159947109D01*
X108394535Y-159627343D01*
X108589535Y-159262524D01*
X108709615Y-158866671D01*
X108740000Y-158558166D01*
X108740000Y-156951833D01*
X108709615Y-156643328D01*
X108589535Y-156247476D01*
X108394535Y-155882657D01*
X108132109Y-155562891D01*
X107812343Y-155300465D01*
X107447523Y-155105465D01*
X107051671Y-154985385D01*
X106640000Y-154944839D01*
X106228328Y-154985385D01*
X105832476Y-155105465D01*
X105467657Y-155300465D01*
X105147891Y-155562891D01*
X104885465Y-155882657D01*
X104690465Y-156247477D01*
X104570385Y-156643329D01*
X104540000Y-156951834D01*
X103733483Y-156951834D01*
X103689895Y-156596271D01*
X103561013Y-156205171D01*
X103358308Y-155846729D01*
X103089569Y-155534720D01*
X102765124Y-155281135D01*
X102397441Y-155095719D01*
X102017804Y-154989264D01*
X101690000Y-155168162D01*
X101590000Y-155168162D01*
X101262196Y-154989264D01*
X100882559Y-155095719D01*
X100514876Y-155281135D01*
X100458754Y-155325000D01*
X99305395Y-155325000D01*
X99293948Y-155311052D01*
X99164519Y-155204832D01*
X99033781Y-155134950D01*
X99056629Y-155132700D01*
X99216855Y-155084097D01*
X99364519Y-155005168D01*
X99493948Y-154898948D01*
X99600168Y-154769519D01*
X99679097Y-154621855D01*
X99727700Y-154461629D01*
X99744112Y-154295000D01*
X99744112Y-153935000D01*
X103625887Y-153935000D01*
X103642299Y-154101629D01*
X103690902Y-154261855D01*
X103769831Y-154409520D01*
X103876051Y-154538949D01*
X104005480Y-154645169D01*
X104153145Y-154724098D01*
X104313371Y-154772701D01*
X104480000Y-154789113D01*
X105017500Y-154785000D01*
X105230000Y-154572500D01*
X105230000Y-153085000D01*
X103842500Y-153085000D01*
X103630000Y-153297500D01*
X103625887Y-153935000D01*
X99744112Y-153935000D01*
X99744112Y-151695000D01*
X99739187Y-151645000D01*
X103667590Y-151645000D01*
X103690903Y-151721855D01*
G37*
X103690903Y-151721855D02*
X103713964Y-151764999D01*
X103690902Y-151808145D01*
X103642299Y-151968371D01*
X103625887Y-152135000D01*
X103630000Y-152772500D01*
X103842500Y-152985000D01*
X105230000Y-152985000D01*
X105230000Y-152965000D01*
X105330000Y-152965000D01*
X105330000Y-152985000D01*
X105350000Y-152985000D01*
X105350000Y-153085000D01*
X105330000Y-153085000D01*
X105330000Y-154572500D01*
X105542500Y-154785000D01*
X106080000Y-154789113D01*
X106246629Y-154772701D01*
X106406855Y-154724098D01*
X106554520Y-154645169D01*
X106680001Y-154542189D01*
X106805481Y-154645168D01*
X106953145Y-154724097D01*
X107113371Y-154772700D01*
X107280000Y-154789112D01*
X108880000Y-154789112D01*
X109046629Y-154772700D01*
X109206855Y-154724097D01*
X109354519Y-154645168D01*
X109483948Y-154538948D01*
X109590168Y-154409519D01*
X109669097Y-154261855D01*
X109717700Y-154101629D01*
X109734112Y-153935000D01*
X109734112Y-152135000D01*
X109717700Y-151968371D01*
X109680277Y-151845000D01*
X111264556Y-151845000D01*
X111242300Y-151918371D01*
X111225888Y-152085000D01*
X111225888Y-153985000D01*
X111242300Y-154151629D01*
X111290903Y-154311855D01*
X111369832Y-154459519D01*
X111476052Y-154588948D01*
X111605481Y-154695168D01*
X111680001Y-154735000D01*
X111680001Y-155015812D01*
X111547300Y-155148512D01*
X111495788Y-155190787D01*
X111453514Y-155242298D01*
X111453510Y-155242302D01*
X111327085Y-155396351D01*
X111201729Y-155630878D01*
X111124534Y-155885354D01*
X111098468Y-156150000D01*
X111105001Y-156216328D01*
X111105001Y-156415000D01*
X111030481Y-156454832D01*
X110901052Y-156561052D01*
X110794832Y-156690481D01*
X110715903Y-156838145D01*
X110667300Y-156998371D01*
X110650888Y-157165000D01*
X110650888Y-159065000D01*
X110667300Y-159231629D01*
X110715903Y-159391855D01*
X110794832Y-159539519D01*
X110901052Y-159668948D01*
X111030481Y-159775168D01*
X111178145Y-159854097D01*
X111338371Y-159902700D01*
X111505000Y-159919112D01*
X113405000Y-159919112D01*
X113571629Y-159902700D01*
X113705000Y-159862243D01*
X113838371Y-159902700D01*
X114005000Y-159919112D01*
X115905000Y-159919112D01*
X116071629Y-159902700D01*
X116205000Y-159862243D01*
X116338371Y-159902700D01*
X116505000Y-159919112D01*
X118405000Y-159919112D01*
X118571629Y-159902700D01*
X118731855Y-159854097D01*
X118879519Y-159775168D01*
X119008948Y-159668948D01*
X119020233Y-159655197D01*
X119243463Y-159777873D01*
X119581545Y-159884735D01*
X119933979Y-159923587D01*
X120287221Y-159892936D01*
X120627695Y-159793961D01*
X120942318Y-159630463D01*
X120977276Y-159607107D01*
X121047781Y-159278492D01*
X119955000Y-158185711D01*
X119940858Y-158199853D01*
X119870147Y-158129142D01*
X119884289Y-158115000D01*
X120025711Y-158115000D01*
X121118492Y-159207781D01*
X121447107Y-159137276D01*
X121617873Y-158826537D01*
X121724735Y-158488455D01*
X121763587Y-158136021D01*
X121732936Y-157782779D01*
X121633961Y-157442305D01*
X121470463Y-157127682D01*
X121447107Y-157092724D01*
X121118492Y-157022219D01*
X120025711Y-158115000D01*
X119884289Y-158115000D01*
X119870147Y-158100858D01*
X119940858Y-158030147D01*
X119955000Y-158044289D01*
X121047781Y-156951508D01*
X120977276Y-156622893D01*
X120666537Y-156452127D01*
X120328455Y-156345265D01*
X119976021Y-156306413D01*
X119622779Y-156337064D01*
X119282305Y-156436039D01*
X119018752Y-156572998D01*
X119008948Y-156561052D01*
X118879519Y-156454832D01*
X118731855Y-156375903D01*
X118571629Y-156327300D01*
X118405000Y-156310888D01*
X116505000Y-156310888D01*
X116338371Y-156327300D01*
X116205000Y-156367757D01*
X116071629Y-156327300D01*
X115905000Y-156310888D01*
X114167408Y-156310888D01*
X114283272Y-156094122D01*
X114360467Y-155839646D01*
X114380000Y-155641321D01*
X114380000Y-155641319D01*
X114386532Y-155575000D01*
X114380000Y-155508679D01*
X114380000Y-154735000D01*
X114454519Y-154695168D01*
X114583948Y-154588948D01*
X114690168Y-154459519D01*
X114769097Y-154311855D01*
X114817700Y-154151629D01*
X114834112Y-153985000D01*
X116305887Y-153985000D01*
X116322299Y-154151629D01*
X116370902Y-154311855D01*
X116449831Y-154459520D01*
X116556051Y-154588949D01*
X116685480Y-154695169D01*
X116833145Y-154774098D01*
X116993371Y-154822701D01*
X117160000Y-154839113D01*
X117847500Y-154835000D01*
X118060000Y-154622500D01*
X118060000Y-153085000D01*
X118160000Y-153085000D01*
X118160000Y-154622500D01*
X118372500Y-154835000D01*
X119060000Y-154839113D01*
X119226629Y-154822701D01*
X119386855Y-154774098D01*
X119534520Y-154695169D01*
X119663949Y-154588949D01*
X119770169Y-154459520D01*
X119849098Y-154311855D01*
X119897701Y-154151629D01*
X119914113Y-153985000D01*
X120115887Y-153985000D01*
X120132299Y-154151629D01*
X120180902Y-154311855D01*
X120259831Y-154459520D01*
X120366051Y-154588949D01*
X120495480Y-154695169D01*
X120643145Y-154774098D01*
X120803371Y-154822701D01*
X120970000Y-154839113D01*
X121657500Y-154835000D01*
X121870000Y-154622500D01*
X121870000Y-153085000D01*
X120332500Y-153085000D01*
X120120000Y-153297500D01*
X120115887Y-153985000D01*
X119914113Y-153985000D01*
X119910000Y-153297500D01*
X119697500Y-153085000D01*
X118160000Y-153085000D01*
X118060000Y-153085000D01*
X116522500Y-153085000D01*
X116310000Y-153297500D01*
X116305887Y-153985000D01*
X114834112Y-153985000D01*
X114834112Y-152085000D01*
X114817700Y-151918371D01*
X114795444Y-151845000D01*
X115645813Y-151845000D01*
X115838505Y-152037692D01*
X115880787Y-152089213D01*
X116086351Y-152257915D01*
X116203614Y-152320593D01*
X116307629Y-152376191D01*
X116310000Y-152772500D01*
X116522500Y-152985000D01*
X118060000Y-152985000D01*
X118060000Y-152965000D01*
X118160000Y-152965000D01*
X118160000Y-152985000D01*
X119697500Y-152985000D01*
X119910000Y-152772500D01*
X119911750Y-152480000D01*
X120118250Y-152480000D01*
X120120000Y-152772500D01*
X120332500Y-152985000D01*
X121870000Y-152985000D01*
X121870000Y-152965000D01*
X121970000Y-152965000D01*
X121970000Y-152985000D01*
X121990000Y-152985000D01*
X121990000Y-153085000D01*
X121970000Y-153085000D01*
X121970000Y-154622500D01*
X122182500Y-154835000D01*
X122870000Y-154839113D01*
X123036629Y-154822701D01*
X123196855Y-154774098D01*
X123344520Y-154695169D01*
X123473949Y-154588949D01*
X123499372Y-154557971D01*
X123538985Y-154584439D01*
X123500787Y-154615788D01*
X123458513Y-154667299D01*
X123458510Y-154667302D01*
X123332085Y-154821351D01*
X123291796Y-154896728D01*
X123206728Y-155055879D01*
X123129533Y-155310355D01*
X123120879Y-155398223D01*
X123103468Y-155575000D01*
X123110000Y-155641320D01*
X123110000Y-155780000D01*
X123035481Y-155819832D01*
X122906052Y-155926052D01*
X122799832Y-156055481D01*
X122720903Y-156203145D01*
X122672300Y-156363371D01*
X122655888Y-156530000D01*
X122655888Y-158430000D01*
X122672300Y-158596629D01*
X122720903Y-158756855D01*
X122799832Y-158904519D01*
X122859067Y-158976697D01*
X122766711Y-159114918D01*
X122622675Y-159462653D01*
X122549245Y-159831807D01*
X122549245Y-160208193D01*
X122622675Y-160577347D01*
X122745966Y-160875000D01*
X99330017Y-160875000D01*
X99400169Y-160789520D01*
X99479098Y-160641855D01*
X99527701Y-160481629D01*
X99544113Y-160315000D01*
X99540000Y-159777500D01*
X99327500Y-159565000D01*
X97840000Y-159565000D01*
X97840000Y-159585000D01*
X97740000Y-159585000D01*
X97740000Y-159565000D01*
X97720000Y-159565000D01*
X97720000Y-159465000D01*
X97740000Y-159465000D01*
X97740000Y-159445000D01*
X97840000Y-159445000D01*
X97840000Y-159465000D01*
X99327500Y-159465000D01*
X99540000Y-159252500D01*
X99544113Y-158715000D01*
X99527701Y-158548371D01*
X99479098Y-158388145D01*
X99400169Y-158240480D01*
X99297189Y-158114999D01*
X99400168Y-157989519D01*
X99479097Y-157841855D01*
X99490276Y-157805000D01*
X99540000Y-157805000D01*
X99540000Y-158505000D01*
X99590105Y-158913729D01*
X99718987Y-159304829D01*
X99921692Y-159663271D01*
X100190431Y-159975280D01*
X100514876Y-160228865D01*
X100882559Y-160414281D01*
X101262196Y-160520736D01*
X101590000Y-160341838D01*
X101590000Y-157805000D01*
X101690000Y-157805000D01*
X101690000Y-160341838D01*
X102017804Y-160520736D01*
X102397441Y-160414281D01*
X102765124Y-160228865D01*
X103089569Y-159975280D01*
X103358308Y-159663271D01*
X103561013Y-159304829D01*
X103689895Y-158913729D01*
X103740000Y-158505000D01*
X103740000Y-157805000D01*
X101690000Y-157805000D01*
X101590000Y-157805000D01*
X99540000Y-157805000D01*
X99490276Y-157805000D01*
X99527700Y-157681629D01*
X99540000Y-157556749D01*
X99540000Y-157705000D01*
X101590000Y-157705000D01*
X101590000Y-155168162D01*
X101690000Y-155168162D01*
X101690000Y-157705000D01*
X103740000Y-157705000D01*
X103740000Y-157005000D01*
X103733483Y-156951834D01*
X104540000Y-156951834D01*
X104540000Y-158558167D01*
X104570385Y-158866672D01*
X104690466Y-159262524D01*
X104885466Y-159627343D01*
X105147892Y-159947109D01*
X105467658Y-160209535D01*
X105832477Y-160404535D01*
X106228329Y-160524615D01*
X106640000Y-160565161D01*
X107051672Y-160524615D01*
X107447524Y-160404535D01*
X107812343Y-160209535D01*
X108132109Y-159947109D01*
X108394535Y-159627343D01*
X108589535Y-159262524D01*
X108709615Y-158866671D01*
X108740000Y-158558166D01*
X108740000Y-156951833D01*
X108709615Y-156643328D01*
X108589535Y-156247476D01*
X108394535Y-155882657D01*
X108132109Y-155562891D01*
X107812343Y-155300465D01*
X107447523Y-155105465D01*
X107051671Y-154985385D01*
X106640000Y-154944839D01*
X106228328Y-154985385D01*
X105832476Y-155105465D01*
X105467657Y-155300465D01*
X105147891Y-155562891D01*
X104885465Y-155882657D01*
X104690465Y-156247477D01*
X104570385Y-156643329D01*
X104540000Y-156951834D01*
X103733483Y-156951834D01*
X103689895Y-156596271D01*
X103561013Y-156205171D01*
X103358308Y-155846729D01*
X103089569Y-155534720D01*
X102765124Y-155281135D01*
X102397441Y-155095719D01*
X102017804Y-154989264D01*
X101690000Y-155168162D01*
X101590000Y-155168162D01*
X101262196Y-154989264D01*
X100882559Y-155095719D01*
X100514876Y-155281135D01*
X100458754Y-155325000D01*
X99305395Y-155325000D01*
X99293948Y-155311052D01*
X99164519Y-155204832D01*
X99033781Y-155134950D01*
X99056629Y-155132700D01*
X99216855Y-155084097D01*
X99364519Y-155005168D01*
X99493948Y-154898948D01*
X99600168Y-154769519D01*
X99679097Y-154621855D01*
X99727700Y-154461629D01*
X99744112Y-154295000D01*
X99744112Y-153935000D01*
X103625887Y-153935000D01*
X103642299Y-154101629D01*
X103690902Y-154261855D01*
X103769831Y-154409520D01*
X103876051Y-154538949D01*
X104005480Y-154645169D01*
X104153145Y-154724098D01*
X104313371Y-154772701D01*
X104480000Y-154789113D01*
X105017500Y-154785000D01*
X105230000Y-154572500D01*
X105230000Y-153085000D01*
X103842500Y-153085000D01*
X103630000Y-153297500D01*
X103625887Y-153935000D01*
X99744112Y-153935000D01*
X99744112Y-151695000D01*
X99739187Y-151645000D01*
X103667590Y-151645000D01*
X103690903Y-151721855D01*
G36*
X117919320Y-140439003D02*
G01*
X117476343Y-140573379D01*
X117068093Y-140791593D01*
X116710259Y-141085259D01*
X116416593Y-141443093D01*
X116198379Y-141851343D01*
X116064003Y-142294320D01*
X116018630Y-142755000D01*
X116064003Y-143215680D01*
X116198379Y-143658657D01*
X116416593Y-144066907D01*
X116710259Y-144424741D01*
X117068093Y-144718407D01*
X117476343Y-144936621D01*
X117919320Y-145070997D01*
X118264558Y-145105000D01*
X120495442Y-145105000D01*
X120840680Y-145070997D01*
X121283657Y-144936621D01*
X121691907Y-144718407D01*
X121951709Y-144505193D01*
X121864003Y-144794321D01*
X121830000Y-145139559D01*
X121830000Y-146746092D01*
X121575501Y-146603017D01*
X121137502Y-146459909D01*
X120680000Y-146405000D01*
X119430000Y-146405000D01*
X119430000Y-148705000D01*
X119450000Y-148705000D01*
X119450000Y-148805000D01*
X119430000Y-148805000D01*
X119430000Y-148825000D01*
X119330000Y-148825000D01*
X119330000Y-148805000D01*
X115993085Y-148805000D01*
X115830179Y-149145000D01*
X114380000Y-149145000D01*
X114380000Y-148385000D01*
X114454519Y-148345168D01*
X114463158Y-148338078D01*
X115817280Y-148338078D01*
X115993085Y-148705000D01*
X119330000Y-148705000D01*
X119330000Y-146405000D01*
X118080000Y-146405000D01*
X117622498Y-146459909D01*
X117184499Y-146603017D01*
X116782835Y-146828825D01*
X116432942Y-147128655D01*
X116148266Y-147490984D01*
X115939747Y-147901889D01*
X115817280Y-148338078D01*
X114463158Y-148338078D01*
X114583948Y-148238948D01*
X114690168Y-148109519D01*
X114769097Y-147961855D01*
X114817700Y-147801629D01*
X114834112Y-147635000D01*
X114834112Y-145735000D01*
X114817700Y-145568371D01*
X114769097Y-145408145D01*
X114690168Y-145260481D01*
X114599119Y-145149538D01*
X114640168Y-145099519D01*
X114719097Y-144951855D01*
X114767700Y-144791629D01*
X114784112Y-144625000D01*
X114784112Y-143025000D01*
X114769338Y-142875000D01*
X114784112Y-142725000D01*
X114784112Y-141125000D01*
X114767700Y-140958371D01*
X114719097Y-140798145D01*
X114640168Y-140650481D01*
X114533948Y-140521052D01*
X114404724Y-140415000D01*
X118163026Y-140415000D01*
X117919320Y-140439003D01*
G37*
X117919320Y-140439003D02*
X117476343Y-140573379D01*
X117068093Y-140791593D01*
X116710259Y-141085259D01*
X116416593Y-141443093D01*
X116198379Y-141851343D01*
X116064003Y-142294320D01*
X116018630Y-142755000D01*
X116064003Y-143215680D01*
X116198379Y-143658657D01*
X116416593Y-144066907D01*
X116710259Y-144424741D01*
X117068093Y-144718407D01*
X117476343Y-144936621D01*
X117919320Y-145070997D01*
X118264558Y-145105000D01*
X120495442Y-145105000D01*
X120840680Y-145070997D01*
X121283657Y-144936621D01*
X121691907Y-144718407D01*
X121951709Y-144505193D01*
X121864003Y-144794321D01*
X121830000Y-145139559D01*
X121830000Y-146746092D01*
X121575501Y-146603017D01*
X121137502Y-146459909D01*
X120680000Y-146405000D01*
X119430000Y-146405000D01*
X119430000Y-148705000D01*
X119450000Y-148705000D01*
X119450000Y-148805000D01*
X119430000Y-148805000D01*
X119430000Y-148825000D01*
X119330000Y-148825000D01*
X119330000Y-148805000D01*
X115993085Y-148805000D01*
X115830179Y-149145000D01*
X114380000Y-149145000D01*
X114380000Y-148385000D01*
X114454519Y-148345168D01*
X114463158Y-148338078D01*
X115817280Y-148338078D01*
X115993085Y-148705000D01*
X119330000Y-148705000D01*
X119330000Y-146405000D01*
X118080000Y-146405000D01*
X117622498Y-146459909D01*
X117184499Y-146603017D01*
X116782835Y-146828825D01*
X116432942Y-147128655D01*
X116148266Y-147490984D01*
X115939747Y-147901889D01*
X115817280Y-148338078D01*
X114463158Y-148338078D01*
X114583948Y-148238948D01*
X114690168Y-148109519D01*
X114769097Y-147961855D01*
X114817700Y-147801629D01*
X114834112Y-147635000D01*
X114834112Y-145735000D01*
X114817700Y-145568371D01*
X114769097Y-145408145D01*
X114690168Y-145260481D01*
X114599119Y-145149538D01*
X114640168Y-145099519D01*
X114719097Y-144951855D01*
X114767700Y-144791629D01*
X114784112Y-144625000D01*
X114784112Y-143025000D01*
X114769338Y-142875000D01*
X114784112Y-142725000D01*
X114784112Y-141125000D01*
X114767700Y-140958371D01*
X114719097Y-140798145D01*
X114640168Y-140650481D01*
X114533948Y-140521052D01*
X114404724Y-140415000D01*
X118163026Y-140415000D01*
X117919320Y-140439003D01*
M02*
