G04 #@! TF.GenerationSoftware,KiCad,Pcbnew,5.1.6-c6e7f7d~87~ubuntu19.10.1*
G04 #@! TF.CreationDate,2023-02-10T05:04:09+06:00*
G04 #@! TF.ProjectId,1590BB_potentiometer_board_18_3x17_dual-single-single_r1b,31353930-4242-45f7-906f-74656e74696f,1B*
G04 #@! TF.SameCoordinates,Original*
G04 #@! TF.FileFunction,Soldermask,Bot*
G04 #@! TF.FilePolarity,Negative*
%FSLAX46Y46*%
G04 Gerber Fmt 4.6, Leading zero omitted, Abs format (unit mm)*
G04 Created by KiCad (PCBNEW 5.1.6-c6e7f7d~87~ubuntu19.10.1) date 2023-02-10 05:04:09*
%MOMM*%
%LPD*%
G01*
G04 APERTURE LIST*
%ADD10C,0.100000*%
G04 APERTURE END LIST*
D10*
G36*
X144780000Y-149225000D02*
G01*
X142080000Y-149225000D01*
X142080000Y-146525000D01*
X144780000Y-146525000D01*
X144780000Y-149225000D01*
G37*
G36*
X134780000Y-149225000D02*
G01*
X132080000Y-149225000D01*
X132080000Y-146525000D01*
X134780000Y-146525000D01*
X134780000Y-149225000D01*
G37*
G36*
X139780000Y-149225000D02*
G01*
X137080000Y-149225000D01*
X137080000Y-146525000D01*
X139780000Y-146525000D01*
X139780000Y-149225000D01*
G37*
G36*
X126780000Y-145830000D02*
G01*
X124680000Y-145830000D01*
X124680000Y-143730000D01*
X126780000Y-143730000D01*
X126780000Y-145830000D01*
G37*
G36*
X88680000Y-145830000D02*
G01*
X86580000Y-145830000D01*
X86580000Y-143730000D01*
X88680000Y-143730000D01*
X88680000Y-145830000D01*
G37*
G36*
X129320000Y-145830000D02*
G01*
X127220000Y-145830000D01*
X127220000Y-143730000D01*
X129320000Y-143730000D01*
X129320000Y-145830000D01*
G37*
G36*
X124240000Y-145830000D02*
G01*
X122140000Y-145830000D01*
X122140000Y-143730000D01*
X124240000Y-143730000D01*
X124240000Y-145830000D01*
G37*
G36*
X115876274Y-143770350D02*
G01*
X116067362Y-143849502D01*
X116239336Y-143964411D01*
X116385589Y-144110664D01*
X116500498Y-144282638D01*
X116579650Y-144473726D01*
X116620000Y-144676584D01*
X116620000Y-144883416D01*
X116579650Y-145086274D01*
X116500498Y-145277362D01*
X116385589Y-145449336D01*
X116239336Y-145595589D01*
X116067362Y-145710498D01*
X115876274Y-145789650D01*
X115673416Y-145830000D01*
X115466584Y-145830000D01*
X115263726Y-145789650D01*
X115072638Y-145710498D01*
X114900664Y-145595589D01*
X114754411Y-145449336D01*
X114639502Y-145277362D01*
X114560350Y-145086274D01*
X114520000Y-144883416D01*
X114520000Y-144676584D01*
X114560350Y-144473726D01*
X114639502Y-144282638D01*
X114754411Y-144110664D01*
X114900664Y-143964411D01*
X115072638Y-143849502D01*
X115263726Y-143770350D01*
X115466584Y-143730000D01*
X115673416Y-143730000D01*
X115876274Y-143770350D01*
G37*
G36*
X119160000Y-145830000D02*
G01*
X117060000Y-145830000D01*
X117060000Y-143730000D01*
X119160000Y-143730000D01*
X119160000Y-145830000D01*
G37*
G36*
X121700000Y-145830000D02*
G01*
X119600000Y-145830000D01*
X119600000Y-143730000D01*
X121700000Y-143730000D01*
X121700000Y-145830000D01*
G37*
G36*
X96300000Y-145830000D02*
G01*
X94200000Y-145830000D01*
X94200000Y-143730000D01*
X96300000Y-143730000D01*
X96300000Y-145830000D01*
G37*
G36*
X93760000Y-145830000D02*
G01*
X91660000Y-145830000D01*
X91660000Y-143730000D01*
X93760000Y-143730000D01*
X93760000Y-145830000D01*
G37*
G36*
X91220000Y-145830000D02*
G01*
X89120000Y-145830000D01*
X89120000Y-143730000D01*
X91220000Y-143730000D01*
X91220000Y-145830000D01*
G37*
G36*
X82856274Y-143770350D02*
G01*
X83047362Y-143849502D01*
X83219336Y-143964411D01*
X83365589Y-144110664D01*
X83480498Y-144282638D01*
X83559650Y-144473726D01*
X83600000Y-144676584D01*
X83600000Y-144883416D01*
X83559650Y-145086274D01*
X83480498Y-145277362D01*
X83365589Y-145449336D01*
X83219336Y-145595589D01*
X83047362Y-145710498D01*
X82856274Y-145789650D01*
X82653416Y-145830000D01*
X82446584Y-145830000D01*
X82243726Y-145789650D01*
X82052638Y-145710498D01*
X81880664Y-145595589D01*
X81734411Y-145449336D01*
X81619502Y-145277362D01*
X81540350Y-145086274D01*
X81500000Y-144883416D01*
X81500000Y-144676584D01*
X81540350Y-144473726D01*
X81619502Y-144282638D01*
X81734411Y-144110664D01*
X81880664Y-143964411D01*
X82052638Y-143849502D01*
X82243726Y-143770350D01*
X82446584Y-143730000D01*
X82653416Y-143730000D01*
X82856274Y-143770350D01*
G37*
G36*
X86140000Y-145830000D02*
G01*
X84040000Y-145830000D01*
X84040000Y-143730000D01*
X86140000Y-143730000D01*
X86140000Y-145830000D01*
G37*
G36*
X134780000Y-144225000D02*
G01*
X132080000Y-144225000D01*
X132080000Y-141525000D01*
X134780000Y-141525000D01*
X134780000Y-144225000D01*
G37*
G36*
X139780000Y-144225000D02*
G01*
X137080000Y-144225000D01*
X137080000Y-141525000D01*
X139780000Y-141525000D01*
X139780000Y-144225000D01*
G37*
G36*
X143823780Y-141576880D02*
G01*
X143823782Y-141576881D01*
X143823783Y-141576881D01*
X144069467Y-141678646D01*
X144290574Y-141826385D01*
X144478615Y-142014426D01*
X144626354Y-142235533D01*
X144728119Y-142481217D01*
X144728120Y-142481220D01*
X144780000Y-142742037D01*
X144780000Y-143007963D01*
X144728120Y-143268780D01*
X144728119Y-143268783D01*
X144626354Y-143514467D01*
X144478615Y-143735574D01*
X144290574Y-143923615D01*
X144069467Y-144071354D01*
X143823783Y-144173119D01*
X143823782Y-144173119D01*
X143823780Y-144173120D01*
X143562963Y-144225000D01*
X143297037Y-144225000D01*
X143036220Y-144173120D01*
X143036218Y-144173119D01*
X143036217Y-144173119D01*
X142790533Y-144071354D01*
X142569426Y-143923615D01*
X142381385Y-143735574D01*
X142233646Y-143514467D01*
X142131881Y-143268783D01*
X142131880Y-143268780D01*
X142080000Y-143007963D01*
X142080000Y-142742037D01*
X142131880Y-142481220D01*
X142131881Y-142481217D01*
X142233646Y-142235533D01*
X142381385Y-142014426D01*
X142569426Y-141826385D01*
X142790533Y-141678646D01*
X143036217Y-141576881D01*
X143036218Y-141576881D01*
X143036220Y-141576880D01*
X143297037Y-141525000D01*
X143562963Y-141525000D01*
X143823780Y-141576880D01*
G37*
G36*
X110803780Y-141576880D02*
G01*
X110803782Y-141576881D01*
X110803783Y-141576881D01*
X111049467Y-141678646D01*
X111270574Y-141826385D01*
X111458615Y-142014426D01*
X111606354Y-142235533D01*
X111708119Y-142481217D01*
X111708120Y-142481220D01*
X111760000Y-142742037D01*
X111760000Y-143007963D01*
X111708120Y-143268780D01*
X111708119Y-143268783D01*
X111606354Y-143514467D01*
X111458615Y-143735574D01*
X111270574Y-143923615D01*
X111049467Y-144071354D01*
X110803783Y-144173119D01*
X110803782Y-144173119D01*
X110803780Y-144173120D01*
X110542963Y-144225000D01*
X110277037Y-144225000D01*
X110016220Y-144173120D01*
X110016218Y-144173119D01*
X110016217Y-144173119D01*
X109770533Y-144071354D01*
X109549426Y-143923615D01*
X109361385Y-143735574D01*
X109213646Y-143514467D01*
X109111881Y-143268783D01*
X109111880Y-143268780D01*
X109060000Y-143007963D01*
X109060000Y-142742037D01*
X109111880Y-142481220D01*
X109111881Y-142481217D01*
X109213646Y-142235533D01*
X109361385Y-142014426D01*
X109549426Y-141826385D01*
X109770533Y-141678646D01*
X110016217Y-141576881D01*
X110016218Y-141576881D01*
X110016220Y-141576880D01*
X110277037Y-141525000D01*
X110542963Y-141525000D01*
X110803780Y-141576880D01*
G37*
G36*
X73740000Y-144225000D02*
G01*
X71040000Y-144225000D01*
X71040000Y-141525000D01*
X73740000Y-141525000D01*
X73740000Y-144225000D01*
G37*
G36*
X77783780Y-141576880D02*
G01*
X77783782Y-141576881D01*
X77783783Y-141576881D01*
X78029467Y-141678646D01*
X78250574Y-141826385D01*
X78438615Y-142014426D01*
X78586354Y-142235533D01*
X78688119Y-142481217D01*
X78688120Y-142481220D01*
X78740000Y-142742037D01*
X78740000Y-143007963D01*
X78688120Y-143268780D01*
X78688119Y-143268783D01*
X78586354Y-143514467D01*
X78438615Y-143735574D01*
X78250574Y-143923615D01*
X78029467Y-144071354D01*
X77783783Y-144173119D01*
X77783782Y-144173119D01*
X77783780Y-144173120D01*
X77522963Y-144225000D01*
X77257037Y-144225000D01*
X76996220Y-144173120D01*
X76996218Y-144173119D01*
X76996217Y-144173119D01*
X76750533Y-144071354D01*
X76529426Y-143923615D01*
X76341385Y-143735574D01*
X76193646Y-143514467D01*
X76091881Y-143268783D01*
X76091880Y-143268780D01*
X76040000Y-143007963D01*
X76040000Y-142742037D01*
X76091880Y-142481220D01*
X76091881Y-142481217D01*
X76193646Y-142235533D01*
X76341385Y-142014426D01*
X76529426Y-141826385D01*
X76750533Y-141678646D01*
X76996217Y-141576881D01*
X76996218Y-141576881D01*
X76996220Y-141576880D01*
X77257037Y-141525000D01*
X77522963Y-141525000D01*
X77783780Y-141576880D01*
G37*
G36*
X68740000Y-144225000D02*
G01*
X66040000Y-144225000D01*
X66040000Y-141525000D01*
X68740000Y-141525000D01*
X68740000Y-144225000D01*
G37*
G36*
X106760000Y-144225000D02*
G01*
X104060000Y-144225000D01*
X104060000Y-141525000D01*
X106760000Y-141525000D01*
X106760000Y-144225000D01*
G37*
G36*
X101760000Y-144225000D02*
G01*
X99060000Y-144225000D01*
X99060000Y-141525000D01*
X101760000Y-141525000D01*
X101760000Y-144225000D01*
G37*
M02*
