G04 #@! TF.GenerationSoftware,KiCad,Pcbnew,5.1.6-c6e7f7d~87~ubuntu19.10.1*
G04 #@! TF.CreationDate,2022-03-20T14:59:11+06:00*
G04 #@! TF.ProjectId,good_grief_overdrive_r1a,676f6f64-5f67-4726-9965-665f6f766572,1A*
G04 #@! TF.SameCoordinates,Original*
G04 #@! TF.FileFunction,Soldermask,Bot*
G04 #@! TF.FilePolarity,Negative*
%FSLAX46Y46*%
G04 Gerber Fmt 4.6, Leading zero omitted, Abs format (unit mm)*
G04 Created by KiCad (PCBNEW 5.1.6-c6e7f7d~87~ubuntu19.10.1) date 2022-03-20 14:59:11*
%MOMM*%
%LPD*%
G01*
G04 APERTURE LIST*
%ADD10C,0.100000*%
G04 APERTURE END LIST*
D10*
G36*
X106610000Y-187255000D02*
G01*
X104210000Y-187255000D01*
X104210000Y-184855000D01*
X106610000Y-184855000D01*
X106610000Y-187255000D01*
G37*
G36*
X96450000Y-185350000D02*
G01*
X94050000Y-185350000D01*
X94050000Y-182950000D01*
X96450000Y-182950000D01*
X96450000Y-185350000D01*
G37*
G36*
X126930000Y-185350000D02*
G01*
X124530000Y-185350000D01*
X124530000Y-182950000D01*
X126930000Y-182950000D01*
X126930000Y-185350000D01*
G37*
G36*
X116770000Y-185350000D02*
G01*
X114370000Y-185350000D01*
X114370000Y-182950000D01*
X116770000Y-182950000D01*
X116770000Y-185350000D01*
G37*
G36*
X101860000Y-183250000D02*
G01*
X98960000Y-183250000D01*
X98960000Y-180350000D01*
X101860000Y-180350000D01*
X101860000Y-183250000D01*
G37*
G36*
X111860000Y-183250000D02*
G01*
X108960000Y-183250000D01*
X108960000Y-180350000D01*
X111860000Y-180350000D01*
X111860000Y-183250000D01*
G37*
G36*
X106860000Y-183250000D02*
G01*
X103960000Y-183250000D01*
X103960000Y-180350000D01*
X106860000Y-180350000D01*
X106860000Y-183250000D01*
G37*
G36*
X121850000Y-180270000D02*
G01*
X119450000Y-180270000D01*
X119450000Y-177870000D01*
X121850000Y-177870000D01*
X121850000Y-180270000D01*
G37*
G36*
X116770000Y-180270000D02*
G01*
X114370000Y-180270000D01*
X114370000Y-177870000D01*
X116770000Y-177870000D01*
X116770000Y-180270000D01*
G37*
G36*
X126930000Y-180270000D02*
G01*
X124530000Y-180270000D01*
X124530000Y-177870000D01*
X126930000Y-177870000D01*
X126930000Y-180270000D01*
G37*
G36*
X124390000Y-180270000D02*
G01*
X121990000Y-180270000D01*
X121990000Y-177870000D01*
X124390000Y-177870000D01*
X124390000Y-180270000D01*
G37*
G36*
X101860000Y-179250000D02*
G01*
X98960000Y-179250000D01*
X98960000Y-176350000D01*
X101860000Y-176350000D01*
X101860000Y-179250000D01*
G37*
G36*
X106860000Y-179250000D02*
G01*
X103960000Y-179250000D01*
X103960000Y-176350000D01*
X106860000Y-176350000D01*
X106860000Y-179250000D01*
G37*
G36*
X111860000Y-179250000D02*
G01*
X108960000Y-179250000D01*
X108960000Y-176350000D01*
X111860000Y-176350000D01*
X111860000Y-179250000D01*
G37*
G36*
X101860000Y-175250000D02*
G01*
X98960000Y-175250000D01*
X98960000Y-172350000D01*
X101860000Y-172350000D01*
X101860000Y-175250000D01*
G37*
G36*
X111860000Y-175250000D02*
G01*
X108960000Y-175250000D01*
X108960000Y-172350000D01*
X111860000Y-172350000D01*
X111860000Y-175250000D01*
G37*
G36*
X106860000Y-175250000D02*
G01*
X103960000Y-175250000D01*
X103960000Y-172350000D01*
X106860000Y-172350000D01*
X106860000Y-175250000D01*
G37*
G36*
X67240000Y-175190000D02*
G01*
X64840000Y-175190000D01*
X64840000Y-172790000D01*
X67240000Y-172790000D01*
X67240000Y-175190000D01*
G37*
G36*
X96450000Y-175190000D02*
G01*
X94050000Y-175190000D01*
X94050000Y-172790000D01*
X96450000Y-172790000D01*
X96450000Y-175190000D01*
G37*
G36*
X77400000Y-175190000D02*
G01*
X75000000Y-175190000D01*
X75000000Y-172790000D01*
X77400000Y-172790000D01*
X77400000Y-175190000D01*
G37*
G36*
X85020000Y-175190000D02*
G01*
X82620000Y-175190000D01*
X82620000Y-172790000D01*
X85020000Y-172790000D01*
X85020000Y-175190000D01*
G37*
G36*
X116770000Y-175190000D02*
G01*
X114370000Y-175190000D01*
X114370000Y-172790000D01*
X116770000Y-172790000D01*
X116770000Y-175190000D01*
G37*
G36*
X79940000Y-175190000D02*
G01*
X77540000Y-175190000D01*
X77540000Y-172790000D01*
X79940000Y-172790000D01*
X79940000Y-175190000D01*
G37*
G36*
X67240000Y-172650000D02*
G01*
X64840000Y-172650000D01*
X64840000Y-170250000D01*
X67240000Y-170250000D01*
X67240000Y-172650000D01*
G37*
G36*
X93060025Y-170296115D02*
G01*
X93060028Y-170296116D01*
X93060027Y-170296116D01*
X93278413Y-170386574D01*
X93474955Y-170517899D01*
X93642101Y-170685045D01*
X93773426Y-170881587D01*
X93773427Y-170881589D01*
X93863885Y-171099975D01*
X93910000Y-171331809D01*
X93910000Y-171568191D01*
X93863885Y-171800025D01*
X93863884Y-171800027D01*
X93773426Y-172018413D01*
X93642101Y-172214955D01*
X93474955Y-172382101D01*
X93278413Y-172513426D01*
X93278412Y-172513427D01*
X93278411Y-172513427D01*
X93060025Y-172603885D01*
X92828191Y-172650000D01*
X92591809Y-172650000D01*
X92359975Y-172603885D01*
X92141589Y-172513427D01*
X92141588Y-172513427D01*
X92141587Y-172513426D01*
X91945045Y-172382101D01*
X91777899Y-172214955D01*
X91646574Y-172018413D01*
X91556116Y-171800027D01*
X91556115Y-171800025D01*
X91510000Y-171568191D01*
X91510000Y-171331809D01*
X91556115Y-171099975D01*
X91646573Y-170881589D01*
X91646574Y-170881587D01*
X91777899Y-170685045D01*
X91945045Y-170517899D01*
X92141587Y-170386574D01*
X92359973Y-170296116D01*
X92359972Y-170296116D01*
X92359975Y-170296115D01*
X92591809Y-170250000D01*
X92828191Y-170250000D01*
X93060025Y-170296115D01*
G37*
G36*
X90100000Y-172650000D02*
G01*
X87700000Y-172650000D01*
X87700000Y-170250000D01*
X90100000Y-170250000D01*
X90100000Y-172650000D01*
G37*
G36*
X79940000Y-172650000D02*
G01*
X77540000Y-172650000D01*
X77540000Y-170250000D01*
X79940000Y-170250000D01*
X79940000Y-172650000D01*
G37*
G36*
X77400000Y-172650000D02*
G01*
X75000000Y-172650000D01*
X75000000Y-170250000D01*
X77400000Y-170250000D01*
X77400000Y-172650000D01*
G37*
G36*
X126930000Y-170110000D02*
G01*
X124530000Y-170110000D01*
X124530000Y-167710000D01*
X126930000Y-167710000D01*
X126930000Y-170110000D01*
G37*
G36*
X79940000Y-170110000D02*
G01*
X77540000Y-170110000D01*
X77540000Y-167710000D01*
X79940000Y-167710000D01*
X79940000Y-170110000D01*
G37*
G36*
X124390000Y-170110000D02*
G01*
X121990000Y-170110000D01*
X121990000Y-167710000D01*
X124390000Y-167710000D01*
X124390000Y-170110000D01*
G37*
G36*
X90100000Y-170110000D02*
G01*
X87700000Y-170110000D01*
X87700000Y-167710000D01*
X90100000Y-167710000D01*
X90100000Y-170110000D01*
G37*
G36*
X93910000Y-170110000D02*
G01*
X91510000Y-170110000D01*
X91510000Y-167710000D01*
X93910000Y-167710000D01*
X93910000Y-170110000D01*
G37*
G36*
X129470000Y-167570000D02*
G01*
X127070000Y-167570000D01*
X127070000Y-165170000D01*
X129470000Y-165170000D01*
X129470000Y-167570000D01*
G37*
G36*
X119310000Y-167570000D02*
G01*
X116910000Y-167570000D01*
X116910000Y-165170000D01*
X119310000Y-165170000D01*
X119310000Y-167570000D01*
G37*
G36*
X76550025Y-163946115D02*
G01*
X76555037Y-163948191D01*
X76768413Y-164036574D01*
X76964955Y-164167899D01*
X77132101Y-164335045D01*
X77174442Y-164398413D01*
X77263427Y-164531589D01*
X77353885Y-164749975D01*
X77400000Y-164981809D01*
X77400000Y-165218191D01*
X77353885Y-165450025D01*
X77353884Y-165450027D01*
X77263426Y-165668413D01*
X77132101Y-165864955D01*
X76964955Y-166032101D01*
X76768413Y-166163426D01*
X76768412Y-166163427D01*
X76768411Y-166163427D01*
X76550025Y-166253885D01*
X76318191Y-166300000D01*
X76081809Y-166300000D01*
X75849975Y-166253885D01*
X75631589Y-166163427D01*
X75631588Y-166163427D01*
X75631587Y-166163426D01*
X75435045Y-166032101D01*
X75267899Y-165864955D01*
X75136574Y-165668413D01*
X75046116Y-165450027D01*
X75046115Y-165450025D01*
X75000000Y-165218191D01*
X75000000Y-164981809D01*
X75046115Y-164749975D01*
X75136573Y-164531589D01*
X75225558Y-164398413D01*
X75267899Y-164335045D01*
X75435045Y-164167899D01*
X75631587Y-164036574D01*
X75844963Y-163948191D01*
X75849975Y-163946115D01*
X76081809Y-163900000D01*
X76318191Y-163900000D01*
X76550025Y-163946115D01*
G37*
G36*
X82480000Y-166300000D02*
G01*
X80080000Y-166300000D01*
X80080000Y-163900000D01*
X82480000Y-163900000D01*
X82480000Y-166300000D01*
G37*
G36*
X79940000Y-166300000D02*
G01*
X77540000Y-166300000D01*
X77540000Y-163900000D01*
X79940000Y-163900000D01*
X79940000Y-166300000D01*
G37*
G36*
X105760025Y-162676115D02*
G01*
X105760028Y-162676116D01*
X105760027Y-162676116D01*
X105978413Y-162766574D01*
X106174955Y-162897899D01*
X106342101Y-163065045D01*
X106473426Y-163261587D01*
X106473427Y-163261589D01*
X106563885Y-163479975D01*
X106610000Y-163711809D01*
X106610000Y-163948191D01*
X106563885Y-164180025D01*
X106473427Y-164398411D01*
X106473426Y-164398413D01*
X106342101Y-164594955D01*
X106174955Y-164762101D01*
X105978413Y-164893426D01*
X105978412Y-164893427D01*
X105978411Y-164893427D01*
X105760025Y-164983885D01*
X105528191Y-165030000D01*
X105291809Y-165030000D01*
X105059975Y-164983885D01*
X104841589Y-164893427D01*
X104841588Y-164893427D01*
X104841587Y-164893426D01*
X104645045Y-164762101D01*
X104477899Y-164594955D01*
X104346574Y-164398413D01*
X104346573Y-164398411D01*
X104256115Y-164180025D01*
X104210000Y-163948191D01*
X104210000Y-163711809D01*
X104256115Y-163479975D01*
X104346573Y-163261589D01*
X104346574Y-163261587D01*
X104477899Y-163065045D01*
X104645045Y-162897899D01*
X104841587Y-162766574D01*
X105059973Y-162676116D01*
X105059972Y-162676116D01*
X105059975Y-162676115D01*
X105291809Y-162630000D01*
X105528191Y-162630000D01*
X105760025Y-162676115D01*
G37*
G36*
X116770000Y-165030000D02*
G01*
X114370000Y-165030000D01*
X114370000Y-162630000D01*
X116770000Y-162630000D01*
X116770000Y-165030000D01*
G37*
G36*
X119310000Y-165030000D02*
G01*
X116910000Y-165030000D01*
X116910000Y-162630000D01*
X119310000Y-162630000D01*
X119310000Y-165030000D01*
G37*
G36*
X129470000Y-165030000D02*
G01*
X127070000Y-165030000D01*
X127070000Y-162630000D01*
X129470000Y-162630000D01*
X129470000Y-165030000D01*
G37*
G36*
X106610000Y-162490000D02*
G01*
X104210000Y-162490000D01*
X104210000Y-160090000D01*
X106610000Y-160090000D01*
X106610000Y-162490000D01*
G37*
G36*
X124390000Y-161220000D02*
G01*
X121990000Y-161220000D01*
X121990000Y-158820000D01*
X124390000Y-158820000D01*
X124390000Y-161220000D01*
G37*
G36*
X91370000Y-161220000D02*
G01*
X88970000Y-161220000D01*
X88970000Y-158820000D01*
X91370000Y-158820000D01*
X91370000Y-161220000D01*
G37*
G36*
X85020000Y-161220000D02*
G01*
X82620000Y-161220000D01*
X82620000Y-158820000D01*
X85020000Y-158820000D01*
X85020000Y-161220000D01*
G37*
G36*
X77400000Y-161220000D02*
G01*
X75000000Y-161220000D01*
X75000000Y-158820000D01*
X77400000Y-158820000D01*
X77400000Y-161220000D01*
G37*
G36*
X101530000Y-161220000D02*
G01*
X99130000Y-161220000D01*
X99130000Y-158820000D01*
X101530000Y-158820000D01*
X101530000Y-161220000D01*
G37*
G36*
X121850000Y-161220000D02*
G01*
X119450000Y-161220000D01*
X119450000Y-158820000D01*
X121850000Y-158820000D01*
X121850000Y-161220000D01*
G37*
G36*
X126080025Y-158866115D02*
G01*
X126080028Y-158866116D01*
X126080027Y-158866116D01*
X126298413Y-158956574D01*
X126494955Y-159087899D01*
X126662101Y-159255045D01*
X126793426Y-159451587D01*
X126793427Y-159451589D01*
X126883885Y-159669975D01*
X126930000Y-159901809D01*
X126930000Y-160138191D01*
X126883885Y-160370025D01*
X126883884Y-160370027D01*
X126793426Y-160588413D01*
X126662101Y-160784955D01*
X126494955Y-160952101D01*
X126298413Y-161083426D01*
X126298412Y-161083427D01*
X126298411Y-161083427D01*
X126080025Y-161173885D01*
X125848191Y-161220000D01*
X125611809Y-161220000D01*
X125379975Y-161173885D01*
X125161589Y-161083427D01*
X125161588Y-161083427D01*
X125161587Y-161083426D01*
X124965045Y-160952101D01*
X124797899Y-160784955D01*
X124666574Y-160588413D01*
X124576116Y-160370027D01*
X124576115Y-160370025D01*
X124530000Y-160138191D01*
X124530000Y-159901809D01*
X124576115Y-159669975D01*
X124666573Y-159451589D01*
X124666574Y-159451587D01*
X124797899Y-159255045D01*
X124965045Y-159087899D01*
X125161587Y-158956574D01*
X125379973Y-158866116D01*
X125379972Y-158866116D01*
X125379975Y-158866115D01*
X125611809Y-158820000D01*
X125848191Y-158820000D01*
X126080025Y-158866115D01*
G37*
G36*
X115500000Y-158680000D02*
G01*
X113100000Y-158680000D01*
X113100000Y-156280000D01*
X115500000Y-156280000D01*
X115500000Y-158680000D01*
G37*
G36*
X110420000Y-158680000D02*
G01*
X108020000Y-158680000D01*
X108020000Y-156280000D01*
X110420000Y-156280000D01*
X110420000Y-158680000D01*
G37*
G36*
X85020000Y-158680000D02*
G01*
X82620000Y-158680000D01*
X82620000Y-156280000D01*
X85020000Y-156280000D01*
X85020000Y-158680000D01*
G37*
G36*
X88830000Y-158680000D02*
G01*
X86430000Y-158680000D01*
X86430000Y-156280000D01*
X88830000Y-156280000D01*
X88830000Y-158680000D01*
G37*
G36*
X101530000Y-158680000D02*
G01*
X99130000Y-158680000D01*
X99130000Y-156280000D01*
X101530000Y-156280000D01*
X101530000Y-158680000D01*
G37*
G36*
X74860000Y-158680000D02*
G01*
X72460000Y-158680000D01*
X72460000Y-156280000D01*
X74860000Y-156280000D01*
X74860000Y-158680000D01*
G37*
G36*
X106610000Y-158680000D02*
G01*
X104210000Y-158680000D01*
X104210000Y-156280000D01*
X106610000Y-156280000D01*
X106610000Y-158680000D01*
G37*
G36*
X104070000Y-158680000D02*
G01*
X101670000Y-158680000D01*
X101670000Y-156280000D01*
X104070000Y-156280000D01*
X104070000Y-158680000D01*
G37*
G36*
X98990000Y-158680000D02*
G01*
X96590000Y-158680000D01*
X96590000Y-156280000D01*
X98990000Y-156280000D01*
X98990000Y-158680000D01*
G37*
G36*
X96450000Y-156140000D02*
G01*
X94050000Y-156140000D01*
X94050000Y-153740000D01*
X96450000Y-153740000D01*
X96450000Y-156140000D01*
G37*
G36*
X121000025Y-151246115D02*
G01*
X121000028Y-151246116D01*
X121000027Y-151246116D01*
X121218413Y-151336574D01*
X121414955Y-151467899D01*
X121582101Y-151635045D01*
X121713426Y-151831587D01*
X121713427Y-151831589D01*
X121803885Y-152049975D01*
X121850000Y-152281809D01*
X121850000Y-152518191D01*
X121803885Y-152750025D01*
X121803884Y-152750027D01*
X121713426Y-152968413D01*
X121582101Y-153164955D01*
X121414955Y-153332101D01*
X121218413Y-153463426D01*
X121218412Y-153463427D01*
X121218411Y-153463427D01*
X121000025Y-153553885D01*
X120768191Y-153600000D01*
X120531809Y-153600000D01*
X120299975Y-153553885D01*
X120081589Y-153463427D01*
X120081588Y-153463427D01*
X120081587Y-153463426D01*
X119885045Y-153332101D01*
X119717899Y-153164955D01*
X119586574Y-152968413D01*
X119496116Y-152750027D01*
X119496115Y-152750025D01*
X119450000Y-152518191D01*
X119450000Y-152281809D01*
X119496115Y-152049975D01*
X119586573Y-151831589D01*
X119586574Y-151831587D01*
X119717899Y-151635045D01*
X119885045Y-151467899D01*
X120081587Y-151336574D01*
X120299973Y-151246116D01*
X120299972Y-151246116D01*
X120299975Y-151246115D01*
X120531809Y-151200000D01*
X120768191Y-151200000D01*
X121000025Y-151246115D01*
G37*
G36*
X115500000Y-153600000D02*
G01*
X113100000Y-153600000D01*
X113100000Y-151200000D01*
X115500000Y-151200000D01*
X115500000Y-153600000D01*
G37*
G36*
X88830000Y-153600000D02*
G01*
X86430000Y-153600000D01*
X86430000Y-151200000D01*
X88830000Y-151200000D01*
X88830000Y-153600000D01*
G37*
G36*
X74860000Y-153600000D02*
G01*
X72460000Y-153600000D01*
X72460000Y-151200000D01*
X74860000Y-151200000D01*
X74860000Y-153600000D01*
G37*
G36*
X85020000Y-153600000D02*
G01*
X82620000Y-153600000D01*
X82620000Y-151200000D01*
X85020000Y-151200000D01*
X85020000Y-153600000D01*
G37*
G36*
X98990000Y-151060000D02*
G01*
X96590000Y-151060000D01*
X96590000Y-148660000D01*
X98990000Y-148660000D01*
X98990000Y-151060000D01*
G37*
G36*
X74860000Y-151060000D02*
G01*
X72460000Y-151060000D01*
X72460000Y-148660000D01*
X74860000Y-148660000D01*
X74860000Y-151060000D01*
G37*
G36*
X130740000Y-151060000D02*
G01*
X128340000Y-151060000D01*
X128340000Y-148660000D01*
X130740000Y-148660000D01*
X130740000Y-151060000D01*
G37*
G36*
X104070000Y-151060000D02*
G01*
X101670000Y-151060000D01*
X101670000Y-148660000D01*
X104070000Y-148660000D01*
X104070000Y-151060000D01*
G37*
G36*
X101530000Y-151060000D02*
G01*
X99130000Y-151060000D01*
X99130000Y-148660000D01*
X101530000Y-148660000D01*
X101530000Y-151060000D01*
G37*
G36*
X135820000Y-151060000D02*
G01*
X133420000Y-151060000D01*
X133420000Y-148660000D01*
X135820000Y-148660000D01*
X135820000Y-151060000D01*
G37*
G36*
X115500000Y-151060000D02*
G01*
X113100000Y-151060000D01*
X113100000Y-148660000D01*
X115500000Y-148660000D01*
X115500000Y-151060000D01*
G37*
G36*
X105760025Y-148706115D02*
G01*
X105760028Y-148706116D01*
X105760027Y-148706116D01*
X105978413Y-148796574D01*
X106174955Y-148927899D01*
X106342101Y-149095045D01*
X106473426Y-149291587D01*
X106473427Y-149291589D01*
X106563885Y-149509975D01*
X106610000Y-149741809D01*
X106610000Y-149978191D01*
X106563885Y-150210025D01*
X106563884Y-150210027D01*
X106473426Y-150428413D01*
X106342101Y-150624955D01*
X106174955Y-150792101D01*
X105978413Y-150923426D01*
X105978412Y-150923427D01*
X105978411Y-150923427D01*
X105760025Y-151013885D01*
X105528191Y-151060000D01*
X105291809Y-151060000D01*
X105059975Y-151013885D01*
X104841589Y-150923427D01*
X104841588Y-150923427D01*
X104841587Y-150923426D01*
X104645045Y-150792101D01*
X104477899Y-150624955D01*
X104346574Y-150428413D01*
X104256116Y-150210027D01*
X104256115Y-150210025D01*
X104210000Y-149978191D01*
X104210000Y-149741809D01*
X104256115Y-149509975D01*
X104346573Y-149291589D01*
X104346574Y-149291587D01*
X104477899Y-149095045D01*
X104645045Y-148927899D01*
X104841587Y-148796574D01*
X105059973Y-148706116D01*
X105059972Y-148706116D01*
X105059975Y-148706115D01*
X105291809Y-148660000D01*
X105528191Y-148660000D01*
X105760025Y-148706115D01*
G37*
G36*
X85020000Y-151060000D02*
G01*
X82620000Y-151060000D01*
X82620000Y-148660000D01*
X85020000Y-148660000D01*
X85020000Y-151060000D01*
G37*
G36*
X121850000Y-151060000D02*
G01*
X119450000Y-151060000D01*
X119450000Y-148660000D01*
X121850000Y-148660000D01*
X121850000Y-151060000D01*
G37*
G36*
X114650025Y-146166115D02*
G01*
X114650028Y-146166116D01*
X114650027Y-146166116D01*
X114868413Y-146256574D01*
X115064955Y-146387899D01*
X115232101Y-146555045D01*
X115335638Y-146710000D01*
X115363427Y-146751589D01*
X115453885Y-146969975D01*
X115500000Y-147201809D01*
X115500000Y-147438191D01*
X115453885Y-147670025D01*
X115453884Y-147670027D01*
X115363426Y-147888413D01*
X115232101Y-148084955D01*
X115064955Y-148252101D01*
X114868413Y-148383426D01*
X114868412Y-148383427D01*
X114868411Y-148383427D01*
X114650025Y-148473885D01*
X114418191Y-148520000D01*
X114181809Y-148520000D01*
X113949975Y-148473885D01*
X113731589Y-148383427D01*
X113731588Y-148383427D01*
X113731587Y-148383426D01*
X113535045Y-148252101D01*
X113367899Y-148084955D01*
X113236574Y-147888413D01*
X113146116Y-147670027D01*
X113146115Y-147670025D01*
X113100000Y-147438191D01*
X113100000Y-147201809D01*
X113146115Y-146969975D01*
X113236573Y-146751589D01*
X113264362Y-146710000D01*
X113367899Y-146555045D01*
X113535045Y-146387899D01*
X113731587Y-146256574D01*
X113949973Y-146166116D01*
X113949972Y-146166116D01*
X113949975Y-146166115D01*
X114181809Y-146120000D01*
X114418191Y-146120000D01*
X114650025Y-146166115D01*
G37*
G36*
X121850000Y-148520000D02*
G01*
X119450000Y-148520000D01*
X119450000Y-146120000D01*
X121850000Y-146120000D01*
X121850000Y-148520000D01*
G37*
G36*
X96450000Y-148520000D02*
G01*
X94050000Y-148520000D01*
X94050000Y-146120000D01*
X96450000Y-146120000D01*
X96450000Y-148520000D01*
G37*
G36*
X145713404Y-140432974D02*
G01*
X146054545Y-140574279D01*
X146295768Y-140674197D01*
X146819881Y-141024398D01*
X147265602Y-141470119D01*
X147615803Y-141994232D01*
X147615803Y-141994233D01*
X147857026Y-142576596D01*
X147980000Y-143194826D01*
X147980000Y-143825174D01*
X147857026Y-144443404D01*
X147746598Y-144710000D01*
X147615803Y-145025768D01*
X147265602Y-145549881D01*
X146819881Y-145995602D01*
X146295768Y-146345803D01*
X146054545Y-146445721D01*
X145713404Y-146587026D01*
X145095174Y-146710000D01*
X144464826Y-146710000D01*
X143846596Y-146587026D01*
X143505455Y-146445721D01*
X143264232Y-146345803D01*
X142740119Y-145995602D01*
X142294398Y-145549881D01*
X141944197Y-145025768D01*
X141813402Y-144710000D01*
X141702974Y-144443404D01*
X141580000Y-143825174D01*
X141580000Y-143194826D01*
X141702974Y-142576596D01*
X141944197Y-141994233D01*
X141944197Y-141994232D01*
X142294398Y-141470119D01*
X142740119Y-141024398D01*
X143264232Y-140674197D01*
X143505455Y-140574279D01*
X143846596Y-140432974D01*
X144464826Y-140310000D01*
X145095174Y-140310000D01*
X145713404Y-140432974D01*
G37*
G36*
X66973404Y-140432974D02*
G01*
X67314545Y-140574279D01*
X67555768Y-140674197D01*
X68079881Y-141024398D01*
X68525602Y-141470119D01*
X68875803Y-141994232D01*
X68875803Y-141994233D01*
X69117026Y-142576596D01*
X69240000Y-143194826D01*
X69240000Y-143825174D01*
X69117026Y-144443404D01*
X69006598Y-144710000D01*
X68875803Y-145025768D01*
X68525602Y-145549881D01*
X68079881Y-145995602D01*
X67555768Y-146345803D01*
X67314545Y-146445721D01*
X66973404Y-146587026D01*
X66355174Y-146710000D01*
X65724826Y-146710000D01*
X65106596Y-146587026D01*
X64765455Y-146445721D01*
X64524232Y-146345803D01*
X64000119Y-145995602D01*
X63554398Y-145549881D01*
X63204197Y-145025768D01*
X63073402Y-144710000D01*
X62962974Y-144443404D01*
X62840000Y-143825174D01*
X62840000Y-143194826D01*
X62962974Y-142576596D01*
X63204197Y-141994233D01*
X63204197Y-141994232D01*
X63554398Y-141470119D01*
X64000119Y-141024398D01*
X64524232Y-140674197D01*
X64765455Y-140574279D01*
X65106596Y-140432974D01*
X65724826Y-140310000D01*
X66355174Y-140310000D01*
X66973404Y-140432974D01*
G37*
G36*
X111560000Y-144960000D02*
G01*
X108660000Y-144960000D01*
X108660000Y-142060000D01*
X111560000Y-142060000D01*
X111560000Y-144960000D01*
G37*
G36*
X106860000Y-144960000D02*
G01*
X103960000Y-144960000D01*
X103960000Y-142060000D01*
X106860000Y-142060000D01*
X106860000Y-144960000D01*
G37*
G36*
X102160000Y-144960000D02*
G01*
X99260000Y-144960000D01*
X99260000Y-142060000D01*
X102160000Y-142060000D01*
X102160000Y-144960000D01*
G37*
G36*
X128830000Y-144960000D02*
G01*
X125930000Y-144960000D01*
X125930000Y-142060000D01*
X128830000Y-142060000D01*
X128830000Y-144960000D01*
G37*
G36*
X133530000Y-144960000D02*
G01*
X130630000Y-144960000D01*
X130630000Y-142060000D01*
X133530000Y-142060000D01*
X133530000Y-144960000D01*
G37*
G36*
X84890000Y-144960000D02*
G01*
X81990000Y-144960000D01*
X81990000Y-142060000D01*
X84890000Y-142060000D01*
X84890000Y-144960000D01*
G37*
G36*
X75490000Y-144960000D02*
G01*
X72590000Y-144960000D01*
X72590000Y-142060000D01*
X75490000Y-142060000D01*
X75490000Y-144960000D01*
G37*
G36*
X80190000Y-144960000D02*
G01*
X77290000Y-144960000D01*
X77290000Y-142060000D01*
X80190000Y-142060000D01*
X80190000Y-144960000D01*
G37*
G36*
X138230000Y-144960000D02*
G01*
X135330000Y-144960000D01*
X135330000Y-142060000D01*
X138230000Y-142060000D01*
X138230000Y-144960000D01*
G37*
G36*
X117825025Y-142356115D02*
G01*
X117825028Y-142356116D01*
X117825027Y-142356116D01*
X118043413Y-142446574D01*
X118239955Y-142577899D01*
X118407101Y-142745045D01*
X118538426Y-142941587D01*
X118538427Y-142941589D01*
X118628885Y-143159975D01*
X118675000Y-143391809D01*
X118675000Y-143628191D01*
X118628885Y-143860025D01*
X118628884Y-143860027D01*
X118538426Y-144078413D01*
X118407101Y-144274955D01*
X118239955Y-144442101D01*
X118043413Y-144573426D01*
X118043412Y-144573427D01*
X118043411Y-144573427D01*
X117825025Y-144663885D01*
X117593191Y-144710000D01*
X117356809Y-144710000D01*
X117124975Y-144663885D01*
X116906589Y-144573427D01*
X116906588Y-144573427D01*
X116906587Y-144573426D01*
X116710045Y-144442101D01*
X116542899Y-144274955D01*
X116411574Y-144078413D01*
X116321116Y-143860027D01*
X116321115Y-143860025D01*
X116275000Y-143628191D01*
X116275000Y-143391809D01*
X116321115Y-143159975D01*
X116411573Y-142941589D01*
X116411574Y-142941587D01*
X116542899Y-142745045D01*
X116710045Y-142577899D01*
X116906587Y-142446574D01*
X117124973Y-142356116D01*
X117124972Y-142356116D01*
X117124975Y-142356115D01*
X117356809Y-142310000D01*
X117593191Y-142310000D01*
X117825025Y-142356115D01*
G37*
G36*
X121215000Y-144710000D02*
G01*
X118815000Y-144710000D01*
X118815000Y-142310000D01*
X121215000Y-142310000D01*
X121215000Y-144710000D01*
G37*
G36*
X88830000Y-142170000D02*
G01*
X86430000Y-142170000D01*
X86430000Y-139770000D01*
X88830000Y-139770000D01*
X88830000Y-142170000D01*
G37*
G36*
X124390000Y-138360000D02*
G01*
X121990000Y-138360000D01*
X121990000Y-135960000D01*
X124390000Y-135960000D01*
X124390000Y-138360000D01*
G37*
G36*
X69780000Y-138360000D02*
G01*
X67380000Y-138360000D01*
X67380000Y-135960000D01*
X69780000Y-135960000D01*
X69780000Y-138360000D01*
G37*
G36*
X74860000Y-138360000D02*
G01*
X72460000Y-138360000D01*
X72460000Y-135960000D01*
X74860000Y-135960000D01*
X74860000Y-138360000D01*
G37*
G36*
X77400000Y-138360000D02*
G01*
X75000000Y-138360000D01*
X75000000Y-135960000D01*
X77400000Y-135960000D01*
X77400000Y-138360000D01*
G37*
G36*
X115920025Y-136006115D02*
G01*
X115920028Y-136006116D01*
X115920027Y-136006116D01*
X116138413Y-136096574D01*
X116334955Y-136227899D01*
X116502101Y-136395045D01*
X116633426Y-136591587D01*
X116633427Y-136591589D01*
X116723885Y-136809975D01*
X116770000Y-137041809D01*
X116770000Y-137278191D01*
X116723885Y-137510025D01*
X116723884Y-137510027D01*
X116633426Y-137728413D01*
X116502101Y-137924955D01*
X116334955Y-138092101D01*
X116138413Y-138223426D01*
X116138412Y-138223427D01*
X116138411Y-138223427D01*
X115920025Y-138313885D01*
X115688191Y-138360000D01*
X115451809Y-138360000D01*
X115219975Y-138313885D01*
X115001589Y-138223427D01*
X115001588Y-138223427D01*
X115001587Y-138223426D01*
X114805045Y-138092101D01*
X114637899Y-137924955D01*
X114506574Y-137728413D01*
X114416116Y-137510027D01*
X114416115Y-137510025D01*
X114370000Y-137278191D01*
X114370000Y-137041809D01*
X114416115Y-136809975D01*
X114506573Y-136591589D01*
X114506574Y-136591587D01*
X114637899Y-136395045D01*
X114805045Y-136227899D01*
X115001587Y-136096574D01*
X115219973Y-136006116D01*
X115219972Y-136006116D01*
X115219975Y-136006115D01*
X115451809Y-135960000D01*
X115688191Y-135960000D01*
X115920025Y-136006115D01*
G37*
G36*
X82480000Y-138360000D02*
G01*
X80080000Y-138360000D01*
X80080000Y-135960000D01*
X82480000Y-135960000D01*
X82480000Y-138360000D01*
G37*
G36*
X126930000Y-138360000D02*
G01*
X124530000Y-138360000D01*
X124530000Y-135960000D01*
X126930000Y-135960000D01*
X126930000Y-138360000D01*
G37*
G36*
X133700025Y-136006115D02*
G01*
X133700028Y-136006116D01*
X133700027Y-136006116D01*
X133918413Y-136096574D01*
X134114955Y-136227899D01*
X134282101Y-136395045D01*
X134413426Y-136591587D01*
X134413427Y-136591589D01*
X134503885Y-136809975D01*
X134550000Y-137041809D01*
X134550000Y-137278191D01*
X134503885Y-137510025D01*
X134503884Y-137510027D01*
X134413426Y-137728413D01*
X134282101Y-137924955D01*
X134114955Y-138092101D01*
X133918413Y-138223426D01*
X133918412Y-138223427D01*
X133918411Y-138223427D01*
X133700025Y-138313885D01*
X133468191Y-138360000D01*
X133231809Y-138360000D01*
X132999975Y-138313885D01*
X132781589Y-138223427D01*
X132781588Y-138223427D01*
X132781587Y-138223426D01*
X132585045Y-138092101D01*
X132417899Y-137924955D01*
X132286574Y-137728413D01*
X132196116Y-137510027D01*
X132196115Y-137510025D01*
X132150000Y-137278191D01*
X132150000Y-137041809D01*
X132196115Y-136809975D01*
X132286573Y-136591589D01*
X132286574Y-136591587D01*
X132417899Y-136395045D01*
X132585045Y-136227899D01*
X132781587Y-136096574D01*
X132999973Y-136006116D01*
X132999972Y-136006116D01*
X132999975Y-136006115D01*
X133231809Y-135960000D01*
X133468191Y-135960000D01*
X133700025Y-136006115D01*
G37*
G36*
X145980000Y-137090000D02*
G01*
X143580000Y-137090000D01*
X143580000Y-134690000D01*
X145980000Y-134690000D01*
X145980000Y-137090000D01*
G37*
G36*
X139630000Y-137090000D02*
G01*
X137230000Y-137090000D01*
X137230000Y-134690000D01*
X139630000Y-134690000D01*
X139630000Y-137090000D01*
G37*
G36*
X88830000Y-137090000D02*
G01*
X86430000Y-137090000D01*
X86430000Y-134690000D01*
X88830000Y-134690000D01*
X88830000Y-137090000D01*
G37*
G36*
X123540025Y-133466115D02*
G01*
X123545037Y-133468191D01*
X123758413Y-133556574D01*
X123954955Y-133687899D01*
X124122101Y-133855045D01*
X124164442Y-133918413D01*
X124253427Y-134051589D01*
X124343885Y-134269975D01*
X124390000Y-134501809D01*
X124390000Y-134738191D01*
X124343885Y-134970025D01*
X124343884Y-134970027D01*
X124253426Y-135188413D01*
X124122101Y-135384955D01*
X123954955Y-135552101D01*
X123758413Y-135683426D01*
X123758412Y-135683427D01*
X123758411Y-135683427D01*
X123540025Y-135773885D01*
X123308191Y-135820000D01*
X123071809Y-135820000D01*
X122839975Y-135773885D01*
X122621589Y-135683427D01*
X122621588Y-135683427D01*
X122621587Y-135683426D01*
X122425045Y-135552101D01*
X122257899Y-135384955D01*
X122126574Y-135188413D01*
X122036116Y-134970027D01*
X122036115Y-134970025D01*
X121990000Y-134738191D01*
X121990000Y-134501809D01*
X122036115Y-134269975D01*
X122126573Y-134051589D01*
X122215558Y-133918413D01*
X122257899Y-133855045D01*
X122425045Y-133687899D01*
X122621587Y-133556574D01*
X122834963Y-133468191D01*
X122839975Y-133466115D01*
X123071809Y-133420000D01*
X123308191Y-133420000D01*
X123540025Y-133466115D01*
G37*
G36*
X116770000Y-135820000D02*
G01*
X114370000Y-135820000D01*
X114370000Y-133420000D01*
X116770000Y-133420000D01*
X116770000Y-135820000D01*
G37*
G36*
X129470000Y-134550000D02*
G01*
X127070000Y-134550000D01*
X127070000Y-132150000D01*
X129470000Y-132150000D01*
X129470000Y-134550000D01*
G37*
G36*
X87560000Y-134550000D02*
G01*
X85160000Y-134550000D01*
X85160000Y-132150000D01*
X87560000Y-132150000D01*
X87560000Y-134550000D01*
G37*
G36*
X97720000Y-134550000D02*
G01*
X95320000Y-134550000D01*
X95320000Y-132150000D01*
X97720000Y-132150000D01*
X97720000Y-134550000D01*
G37*
G36*
X138780025Y-132196115D02*
G01*
X138780028Y-132196116D01*
X138780027Y-132196116D01*
X138998413Y-132286574D01*
X139194955Y-132417899D01*
X139362101Y-132585045D01*
X139493426Y-132781587D01*
X139493427Y-132781589D01*
X139583885Y-132999975D01*
X139630000Y-133231809D01*
X139630000Y-133468191D01*
X139583885Y-133700025D01*
X139493427Y-133918411D01*
X139493426Y-133918413D01*
X139362101Y-134114955D01*
X139194955Y-134282101D01*
X138998413Y-134413426D01*
X138998412Y-134413427D01*
X138998411Y-134413427D01*
X138780025Y-134503885D01*
X138548191Y-134550000D01*
X138311809Y-134550000D01*
X138079975Y-134503885D01*
X137861589Y-134413427D01*
X137861588Y-134413427D01*
X137861587Y-134413426D01*
X137665045Y-134282101D01*
X137497899Y-134114955D01*
X137366574Y-133918413D01*
X137366573Y-133918411D01*
X137276115Y-133700025D01*
X137230000Y-133468191D01*
X137230000Y-133231809D01*
X137276115Y-132999975D01*
X137366573Y-132781589D01*
X137366574Y-132781587D01*
X137497899Y-132585045D01*
X137665045Y-132417899D01*
X137861587Y-132286574D01*
X138079973Y-132196116D01*
X138079972Y-132196116D01*
X138079975Y-132196115D01*
X138311809Y-132150000D01*
X138548191Y-132150000D01*
X138780025Y-132196115D01*
G37*
G36*
X134550000Y-134550000D02*
G01*
X132150000Y-134550000D01*
X132150000Y-132150000D01*
X134550000Y-132150000D01*
X134550000Y-134550000D01*
G37*
G36*
X120580000Y-129470000D02*
G01*
X118180000Y-129470000D01*
X118180000Y-127070000D01*
X120580000Y-127070000D01*
X120580000Y-129470000D01*
G37*
G36*
X123120000Y-129470000D02*
G01*
X120720000Y-129470000D01*
X120720000Y-127070000D01*
X123120000Y-127070000D01*
X123120000Y-129470000D01*
G37*
G36*
X95180000Y-129470000D02*
G01*
X92780000Y-129470000D01*
X92780000Y-127070000D01*
X95180000Y-127070000D01*
X95180000Y-129470000D01*
G37*
G36*
X87560000Y-129470000D02*
G01*
X85160000Y-129470000D01*
X85160000Y-127070000D01*
X87560000Y-127070000D01*
X87560000Y-129470000D01*
G37*
G36*
X90100000Y-129470000D02*
G01*
X87700000Y-129470000D01*
X87700000Y-127070000D01*
X90100000Y-127070000D01*
X90100000Y-129470000D01*
G37*
G36*
X92640000Y-129470000D02*
G01*
X90240000Y-129470000D01*
X90240000Y-127070000D01*
X92640000Y-127070000D01*
X92640000Y-129470000D01*
G37*
G36*
X115500000Y-129470000D02*
G01*
X113100000Y-129470000D01*
X113100000Y-127070000D01*
X115500000Y-127070000D01*
X115500000Y-129470000D01*
G37*
G36*
X118040000Y-129470000D02*
G01*
X115640000Y-129470000D01*
X115640000Y-127070000D01*
X118040000Y-127070000D01*
X118040000Y-129470000D01*
G37*
G36*
X97720000Y-129470000D02*
G01*
X95320000Y-129470000D01*
X95320000Y-127070000D01*
X97720000Y-127070000D01*
X97720000Y-129470000D01*
G37*
G36*
X139630000Y-129470000D02*
G01*
X137230000Y-129470000D01*
X137230000Y-127070000D01*
X139630000Y-127070000D01*
X139630000Y-129470000D01*
G37*
G36*
X129470000Y-129470000D02*
G01*
X127070000Y-129470000D01*
X127070000Y-127070000D01*
X129470000Y-127070000D01*
X129470000Y-129470000D01*
G37*
G36*
X125660000Y-129470000D02*
G01*
X123260000Y-129470000D01*
X123260000Y-127070000D01*
X125660000Y-127070000D01*
X125660000Y-129470000D01*
G37*
G36*
X110420000Y-126930000D02*
G01*
X108020000Y-126930000D01*
X108020000Y-124530000D01*
X110420000Y-124530000D01*
X110420000Y-126930000D01*
G37*
G36*
X100260000Y-126930000D02*
G01*
X97860000Y-126930000D01*
X97860000Y-124530000D01*
X100260000Y-124530000D01*
X100260000Y-126930000D01*
G37*
G36*
X115500000Y-126930000D02*
G01*
X113100000Y-126930000D01*
X113100000Y-124530000D01*
X115500000Y-124530000D01*
X115500000Y-126930000D01*
G37*
G36*
X90310000Y-126030000D02*
G01*
X87410000Y-126030000D01*
X87410000Y-121630000D01*
X90310000Y-121630000D01*
X90310000Y-126030000D01*
G37*
G36*
X128410000Y-125030000D02*
G01*
X125510000Y-125030000D01*
X125510000Y-120630000D01*
X128410000Y-120630000D01*
X128410000Y-125030000D01*
G37*
G36*
X123410000Y-125030000D02*
G01*
X120510000Y-125030000D01*
X120510000Y-120630000D01*
X123410000Y-120630000D01*
X123410000Y-125030000D01*
G37*
G36*
X85310000Y-125030000D02*
G01*
X82410000Y-125030000D01*
X82410000Y-120630000D01*
X85310000Y-120630000D01*
X85310000Y-125030000D01*
G37*
G36*
X94330025Y-122036115D02*
G01*
X94330028Y-122036116D01*
X94330027Y-122036116D01*
X94548413Y-122126574D01*
X94744955Y-122257899D01*
X94912101Y-122425045D01*
X95043426Y-122621587D01*
X95043427Y-122621589D01*
X95133885Y-122839975D01*
X95180000Y-123071809D01*
X95180000Y-123308191D01*
X95133885Y-123540025D01*
X95133884Y-123540027D01*
X95043426Y-123758413D01*
X94912101Y-123954955D01*
X94744955Y-124122101D01*
X94548413Y-124253426D01*
X94548412Y-124253427D01*
X94548411Y-124253427D01*
X94330025Y-124343885D01*
X94098191Y-124390000D01*
X93861809Y-124390000D01*
X93629975Y-124343885D01*
X93411589Y-124253427D01*
X93411588Y-124253427D01*
X93411587Y-124253426D01*
X93215045Y-124122101D01*
X93047899Y-123954955D01*
X92916574Y-123758413D01*
X92826116Y-123540027D01*
X92826115Y-123540025D01*
X92780000Y-123308191D01*
X92780000Y-123071809D01*
X92826115Y-122839975D01*
X92916573Y-122621589D01*
X92916574Y-122621587D01*
X93047899Y-122425045D01*
X93215045Y-122257899D01*
X93411587Y-122126574D01*
X93629973Y-122036116D01*
X93629972Y-122036116D01*
X93629975Y-122036115D01*
X93861809Y-121990000D01*
X94098191Y-121990000D01*
X94330025Y-122036115D01*
G37*
G36*
X97720000Y-124390000D02*
G01*
X95320000Y-124390000D01*
X95320000Y-121990000D01*
X97720000Y-121990000D01*
X97720000Y-124390000D01*
G37*
G36*
X115500000Y-121850000D02*
G01*
X113100000Y-121850000D01*
X113100000Y-119450000D01*
X115500000Y-119450000D01*
X115500000Y-121850000D01*
G37*
G36*
X105340000Y-119310000D02*
G01*
X102940000Y-119310000D01*
X102940000Y-116910000D01*
X105340000Y-116910000D01*
X105340000Y-119310000D01*
G37*
G36*
X115500000Y-119310000D02*
G01*
X113100000Y-119310000D01*
X113100000Y-116910000D01*
X115500000Y-116910000D01*
X115500000Y-119310000D01*
G37*
G36*
X102800000Y-115500000D02*
G01*
X100400000Y-115500000D01*
X100400000Y-113100000D01*
X102800000Y-113100000D01*
X102800000Y-115500000D01*
G37*
G36*
X107880000Y-115500000D02*
G01*
X105480000Y-115500000D01*
X105480000Y-113100000D01*
X107880000Y-113100000D01*
X107880000Y-115500000D01*
G37*
G36*
X95180000Y-111690000D02*
G01*
X92780000Y-111690000D01*
X92780000Y-109290000D01*
X95180000Y-109290000D01*
X95180000Y-111690000D01*
G37*
G36*
X109570025Y-109336115D02*
G01*
X109570028Y-109336116D01*
X109570027Y-109336116D01*
X109788413Y-109426574D01*
X109984955Y-109557899D01*
X110152101Y-109725045D01*
X110283426Y-109921587D01*
X110283427Y-109921589D01*
X110373885Y-110139975D01*
X110420000Y-110371809D01*
X110420000Y-110608191D01*
X110373885Y-110840025D01*
X110373884Y-110840027D01*
X110283426Y-111058413D01*
X110152101Y-111254955D01*
X109984955Y-111422101D01*
X109788413Y-111553426D01*
X109788412Y-111553427D01*
X109788411Y-111553427D01*
X109570025Y-111643885D01*
X109338191Y-111690000D01*
X109101809Y-111690000D01*
X108869975Y-111643885D01*
X108651589Y-111553427D01*
X108651588Y-111553427D01*
X108651587Y-111553426D01*
X108455045Y-111422101D01*
X108287899Y-111254955D01*
X108156574Y-111058413D01*
X108066116Y-110840027D01*
X108066115Y-110840025D01*
X108020000Y-110608191D01*
X108020000Y-110371809D01*
X108066115Y-110139975D01*
X108156573Y-109921589D01*
X108156574Y-109921587D01*
X108287899Y-109725045D01*
X108455045Y-109557899D01*
X108651587Y-109426574D01*
X108869973Y-109336116D01*
X108869972Y-109336116D01*
X108869975Y-109336115D01*
X109101809Y-109290000D01*
X109338191Y-109290000D01*
X109570025Y-109336115D01*
G37*
G36*
X102800000Y-111690000D02*
G01*
X100400000Y-111690000D01*
X100400000Y-109290000D01*
X102800000Y-109290000D01*
X102800000Y-111690000D01*
G37*
G36*
X96870025Y-109336115D02*
G01*
X96870028Y-109336116D01*
X96870027Y-109336116D01*
X97088413Y-109426574D01*
X97284955Y-109557899D01*
X97452101Y-109725045D01*
X97583426Y-109921587D01*
X97583427Y-109921589D01*
X97673885Y-110139975D01*
X97720000Y-110371809D01*
X97720000Y-110608191D01*
X97673885Y-110840025D01*
X97673884Y-110840027D01*
X97583426Y-111058413D01*
X97452101Y-111254955D01*
X97284955Y-111422101D01*
X97088413Y-111553426D01*
X97088412Y-111553427D01*
X97088411Y-111553427D01*
X96870025Y-111643885D01*
X96638191Y-111690000D01*
X96401809Y-111690000D01*
X96169975Y-111643885D01*
X95951589Y-111553427D01*
X95951588Y-111553427D01*
X95951587Y-111553426D01*
X95755045Y-111422101D01*
X95587899Y-111254955D01*
X95456574Y-111058413D01*
X95366116Y-110840027D01*
X95366115Y-110840025D01*
X95320000Y-110608191D01*
X95320000Y-110371809D01*
X95366115Y-110139975D01*
X95456573Y-109921589D01*
X95456574Y-109921587D01*
X95587899Y-109725045D01*
X95755045Y-109557899D01*
X95951587Y-109426574D01*
X96169973Y-109336116D01*
X96169972Y-109336116D01*
X96169975Y-109336115D01*
X96401809Y-109290000D01*
X96638191Y-109290000D01*
X96870025Y-109336115D01*
G37*
G36*
X87810000Y-110030000D02*
G01*
X84910000Y-110030000D01*
X84910000Y-105630000D01*
X87810000Y-105630000D01*
X87810000Y-110030000D01*
G37*
G36*
X125910000Y-110030000D02*
G01*
X123010000Y-110030000D01*
X123010000Y-105630000D01*
X125910000Y-105630000D01*
X125910000Y-110030000D01*
G37*
G36*
X108110000Y-107910000D02*
G01*
X102710000Y-107910000D01*
X102710000Y-104510000D01*
X108110000Y-104510000D01*
X108110000Y-107910000D01*
G37*
G36*
X112960000Y-106610000D02*
G01*
X110560000Y-106610000D01*
X110560000Y-104210000D01*
X112960000Y-104210000D01*
X112960000Y-106610000D01*
G37*
G36*
X118040000Y-106610000D02*
G01*
X115640000Y-106610000D01*
X115640000Y-104210000D01*
X118040000Y-104210000D01*
X118040000Y-106610000D01*
G37*
G36*
X102310000Y-106410000D02*
G01*
X98910000Y-106410000D01*
X98910000Y-101010000D01*
X102310000Y-101010000D01*
X102310000Y-106410000D01*
G37*
G36*
X108110000Y-101910000D02*
G01*
X102710000Y-101910000D01*
X102710000Y-98510000D01*
X108110000Y-98510000D01*
X108110000Y-101910000D01*
G37*
G36*
X77133404Y-93442974D02*
G01*
X77474545Y-93584279D01*
X77715768Y-93684197D01*
X78239881Y-94034398D01*
X78685602Y-94480119D01*
X79035803Y-95004232D01*
X79035803Y-95004233D01*
X79277026Y-95586596D01*
X79400000Y-96204826D01*
X79400000Y-96835174D01*
X79277026Y-97453404D01*
X79135721Y-97794545D01*
X79035803Y-98035768D01*
X78685602Y-98559881D01*
X78239881Y-99005602D01*
X77715768Y-99355803D01*
X77474545Y-99455721D01*
X77133404Y-99597026D01*
X76515174Y-99720000D01*
X75884826Y-99720000D01*
X75266596Y-99597026D01*
X74925455Y-99455721D01*
X74684232Y-99355803D01*
X74160119Y-99005602D01*
X73714398Y-98559881D01*
X73364197Y-98035768D01*
X73264279Y-97794545D01*
X73122974Y-97453404D01*
X73000000Y-96835174D01*
X73000000Y-96204826D01*
X73122974Y-95586596D01*
X73364197Y-95004233D01*
X73364197Y-95004232D01*
X73714398Y-94480119D01*
X74160119Y-94034398D01*
X74684232Y-93684197D01*
X74925455Y-93584279D01*
X75266596Y-93442974D01*
X75884826Y-93320000D01*
X76515174Y-93320000D01*
X77133404Y-93442974D01*
G37*
G36*
X135553404Y-93442974D02*
G01*
X135894545Y-93584279D01*
X136135768Y-93684197D01*
X136659881Y-94034398D01*
X137105602Y-94480119D01*
X137455803Y-95004232D01*
X137455803Y-95004233D01*
X137697026Y-95586596D01*
X137820000Y-96204826D01*
X137820000Y-96835174D01*
X137697026Y-97453404D01*
X137555721Y-97794545D01*
X137455803Y-98035768D01*
X137105602Y-98559881D01*
X136659881Y-99005602D01*
X136135768Y-99355803D01*
X135894545Y-99455721D01*
X135553404Y-99597026D01*
X134935174Y-99720000D01*
X134304826Y-99720000D01*
X133686596Y-99597026D01*
X133345455Y-99455721D01*
X133104232Y-99355803D01*
X132580119Y-99005602D01*
X132134398Y-98559881D01*
X131784197Y-98035768D01*
X131684279Y-97794545D01*
X131542974Y-97453404D01*
X131420000Y-96835174D01*
X131420000Y-96204826D01*
X131542974Y-95586596D01*
X131784197Y-95004233D01*
X131784197Y-95004232D01*
X132134398Y-94480119D01*
X132580119Y-94034398D01*
X133104232Y-93684197D01*
X133345455Y-93584279D01*
X133686596Y-93442974D01*
X134304826Y-93320000D01*
X134935174Y-93320000D01*
X135553404Y-93442974D01*
G37*
G36*
X115233404Y-93442974D02*
G01*
X115574545Y-93584279D01*
X115815768Y-93684197D01*
X116339881Y-94034398D01*
X116785602Y-94480119D01*
X117135803Y-95004232D01*
X117135803Y-95004233D01*
X117377026Y-95586596D01*
X117500000Y-96204826D01*
X117500000Y-96835174D01*
X117377026Y-97453404D01*
X117235721Y-97794545D01*
X117135803Y-98035768D01*
X116785602Y-98559881D01*
X116339881Y-99005602D01*
X115815768Y-99355803D01*
X115574545Y-99455721D01*
X115233404Y-99597026D01*
X114615174Y-99720000D01*
X113984826Y-99720000D01*
X113366596Y-99597026D01*
X113025455Y-99455721D01*
X112784232Y-99355803D01*
X112260119Y-99005602D01*
X111814398Y-98559881D01*
X111464197Y-98035768D01*
X111364279Y-97794545D01*
X111222974Y-97453404D01*
X111100000Y-96835174D01*
X111100000Y-96204826D01*
X111222974Y-95586596D01*
X111464197Y-95004233D01*
X111464197Y-95004232D01*
X111814398Y-94480119D01*
X112260119Y-94034398D01*
X112784232Y-93684197D01*
X113025455Y-93584279D01*
X113366596Y-93442974D01*
X113984826Y-93320000D01*
X114615174Y-93320000D01*
X115233404Y-93442974D01*
G37*
G36*
X97453404Y-93442974D02*
G01*
X97794545Y-93584279D01*
X98035768Y-93684197D01*
X98559881Y-94034398D01*
X99005602Y-94480119D01*
X99355803Y-95004232D01*
X99355803Y-95004233D01*
X99597026Y-95586596D01*
X99720000Y-96204826D01*
X99720000Y-96835174D01*
X99597026Y-97453404D01*
X99455721Y-97794545D01*
X99355803Y-98035768D01*
X99005602Y-98559881D01*
X98559881Y-99005602D01*
X98035768Y-99355803D01*
X97794545Y-99455721D01*
X97453404Y-99597026D01*
X96835174Y-99720000D01*
X96204826Y-99720000D01*
X95586596Y-99597026D01*
X95245455Y-99455721D01*
X95004232Y-99355803D01*
X94480119Y-99005602D01*
X94034398Y-98559881D01*
X93684197Y-98035768D01*
X93584279Y-97794545D01*
X93442974Y-97453404D01*
X93320000Y-96835174D01*
X93320000Y-96204826D01*
X93442974Y-95586596D01*
X93684197Y-95004233D01*
X93684197Y-95004232D01*
X94034398Y-94480119D01*
X94480119Y-94034398D01*
X95004232Y-93684197D01*
X95245455Y-93584279D01*
X95586596Y-93442974D01*
X96204826Y-93320000D01*
X96835174Y-93320000D01*
X97453404Y-93442974D01*
G37*
M02*
