G04 #@! TF.GenerationSoftware,KiCad,Pcbnew,5.1.12-84ad8e8a86~92~ubuntu20.04.1*
G04 #@! TF.CreationDate,2024-08-07T09:29:16+00:00*
G04 #@! TF.ProjectId,___-1.17.C-1,221a1f2d-312e-4313-972e-432d312e6b69,3C*
G04 #@! TF.SameCoordinates,Original*
G04 #@! TF.FileFunction,Copper,L2,Bot*
G04 #@! TF.FilePolarity,Positive*
%FSLAX46Y46*%
G04 Gerber Fmt 4.6, Leading zero omitted, Abs format (unit mm)*
G04 Created by KiCad (PCBNEW 5.1.12-84ad8e8a86~92~ubuntu20.04.1) date 2024-08-07 09:29:16*
%MOMM*%
%LPD*%
G01*
G04 APERTURE LIST*
G04 #@! TA.AperFunction,ComponentPad*
%ADD10C,1.900000*%
G04 #@! TD*
G04 #@! TA.AperFunction,ComponentPad*
%ADD11R,1.900000X1.900000*%
G04 #@! TD*
G04 #@! TA.AperFunction,ComponentPad*
%ADD12R,2.500000X2.500000*%
G04 #@! TD*
G04 #@! TA.AperFunction,ComponentPad*
%ADD13C,6.000000*%
G04 #@! TD*
G04 #@! TA.AperFunction,ComponentPad*
%ADD14O,5.000000X3.000000*%
G04 #@! TD*
G04 #@! TA.AperFunction,ComponentPad*
%ADD15O,3.000000X5.000000*%
G04 #@! TD*
G04 #@! TA.AperFunction,ComponentPad*
%ADD16O,5.500000X3.000000*%
G04 #@! TD*
G04 #@! TA.AperFunction,ComponentPad*
%ADD17R,3.000000X3.000000*%
G04 #@! TD*
G04 #@! TA.AperFunction,ViaPad*
%ADD18C,1.500000*%
G04 #@! TD*
G04 #@! TA.AperFunction,Conductor*
%ADD19C,0.600000*%
G04 #@! TD*
G04 #@! TA.AperFunction,Conductor*
%ADD20C,1.000000*%
G04 #@! TD*
G04 #@! TA.AperFunction,Conductor*
%ADD21C,0.500000*%
G04 #@! TD*
G04 #@! TA.AperFunction,Conductor*
%ADD22C,0.100000*%
G04 #@! TD*
G04 APERTURE END LIST*
D10*
X110490000Y-133350000D03*
D11*
X107950000Y-133350000D03*
D10*
X105410000Y-133350000D03*
D11*
X102870000Y-133350000D03*
D10*
X100330000Y-133350000D03*
X91440000Y-119380000D03*
D11*
X88900000Y-119380000D03*
D10*
X86360000Y-119380000D03*
D11*
X83820000Y-119380000D03*
D10*
X81280000Y-119380000D03*
X129540000Y-119380000D03*
D11*
X127000000Y-119380000D03*
D10*
X124460000Y-119380000D03*
D11*
X121920000Y-119380000D03*
D10*
X119380000Y-119380000D03*
X90170000Y-161925000D03*
D11*
X81280000Y-161925000D03*
D12*
X110410000Y-167640000D03*
X110410000Y-171640000D03*
X110410000Y-163640000D03*
X105410000Y-167640000D03*
X105410000Y-171640000D03*
X105410000Y-163640000D03*
X100410000Y-163640000D03*
X100410000Y-167640000D03*
X100410000Y-171640000D03*
D11*
X81280000Y-110490000D03*
X83820000Y-110490000D03*
D10*
X86360000Y-110490000D03*
D11*
X111760000Y-121920000D03*
X114300000Y-121920000D03*
X106680000Y-121920000D03*
X109220000Y-121920000D03*
X114300000Y-129540000D03*
X109220000Y-129540000D03*
X111760000Y-129540000D03*
X106680000Y-129540000D03*
X96520000Y-121920000D03*
X99060000Y-121920000D03*
X101600000Y-121920000D03*
X104140000Y-121920000D03*
X104140000Y-129540000D03*
X101600000Y-129540000D03*
X99060000Y-129540000D03*
D10*
X96520000Y-129540000D03*
D13*
X114300000Y-97790000D03*
X96520000Y-97790000D03*
D10*
X105410000Y-142240000D03*
G04 #@! TA.AperFunction,ComponentPad*
G36*
G01*
X105790000Y-140650000D02*
X105030000Y-140650000D01*
G75*
G02*
X104460000Y-140080000I0J570000D01*
G01*
X104460000Y-139320000D01*
G75*
G02*
X105030000Y-138750000I570000J0D01*
G01*
X105790000Y-138750000D01*
G75*
G02*
X106360000Y-139320000I0J-570000D01*
G01*
X106360000Y-140080000D01*
G75*
G02*
X105790000Y-140650000I-570000J0D01*
G01*
G37*
G04 #@! TD.AperFunction*
D11*
X96520000Y-104140000D03*
X123190000Y-162560000D03*
X105410000Y-176530000D03*
D14*
X105410000Y-101480000D03*
D15*
X100610000Y-104980000D03*
D16*
X105410000Y-107480000D03*
D17*
X95540000Y-141760000D03*
X89240000Y-141760000D03*
X82940000Y-141760000D03*
X95540000Y-157960000D03*
X89240000Y-157960000D03*
X82940000Y-157960000D03*
X115280000Y-157960000D03*
X121580000Y-157960000D03*
X127880000Y-157960000D03*
X115280000Y-141760000D03*
X121580000Y-141760000D03*
X127880000Y-141760000D03*
D18*
X82550000Y-128905000D03*
X119380000Y-106680000D03*
X121920000Y-124460000D03*
X125730000Y-135255000D03*
X97155000Y-110490000D03*
X86360000Y-174625000D03*
X93345000Y-146050000D03*
X124460000Y-137795000D03*
X119380000Y-132715000D03*
X86360000Y-170815000D03*
X80010000Y-146050000D03*
X123190000Y-135890000D03*
X110490000Y-140970000D03*
X98425000Y-111760000D03*
X95885000Y-118110000D03*
X94615000Y-119380000D03*
X124460000Y-173990000D03*
X103505000Y-112395000D03*
X86360000Y-125095000D03*
X124460000Y-171450000D03*
X88900000Y-125730000D03*
X112395000Y-111760000D03*
X113665000Y-113030000D03*
X118110000Y-110490000D03*
X112395000Y-115570000D03*
X113665000Y-116840000D03*
X120650000Y-110490000D03*
X112395000Y-118110000D03*
X97155000Y-116840000D03*
X124460000Y-124460000D03*
X108585000Y-140970000D03*
X121920000Y-134620000D03*
X119380000Y-134620000D03*
X112395000Y-151130000D03*
X103505000Y-151130000D03*
D19*
X119380000Y-119380000D02*
X121920000Y-119380000D01*
D20*
X110410000Y-174140000D02*
X110410000Y-171640000D01*
X109925000Y-174625000D02*
X110410000Y-174140000D01*
X100410000Y-171640000D02*
X100410000Y-174140000D01*
X100895000Y-174625000D02*
X109925000Y-174625000D01*
X100410000Y-174140000D02*
X100895000Y-174625000D01*
X115570000Y-167640000D02*
X110410000Y-167640000D01*
X123825000Y-175895000D02*
X115570000Y-167640000D01*
X125095000Y-175895000D02*
X123825000Y-175895000D01*
X126365000Y-161925000D02*
X126365000Y-174625000D01*
X124460000Y-160020000D02*
X126365000Y-161925000D01*
X124460000Y-154940000D02*
X124460000Y-160020000D01*
X115280000Y-145760000D02*
X124460000Y-154940000D01*
X126365000Y-174625000D02*
X125095000Y-175895000D01*
X115280000Y-141760000D02*
X115280000Y-145760000D01*
X95540000Y-157960000D02*
X95540000Y-165390000D01*
X95540000Y-165390000D02*
X97790000Y-167640000D01*
X100410000Y-167640000D02*
X97790000Y-167640000D01*
X96520000Y-104140000D02*
X100610000Y-104140000D01*
X100610000Y-104980000D02*
X100610000Y-104140000D01*
X121580000Y-157960000D02*
X121580000Y-159997500D01*
X122237500Y-160655000D02*
X122872500Y-160655000D01*
X123190000Y-160972500D02*
X122872500Y-160655000D01*
X123190000Y-162560000D02*
X123190000Y-160972500D01*
X121580000Y-159997500D02*
X122237500Y-160655000D01*
X123825000Y-122555000D02*
X121920000Y-124460000D01*
X125730000Y-135255000D02*
X125730000Y-125730000D01*
X125095000Y-122555000D02*
X123825000Y-122555000D01*
X125730000Y-125730000D02*
X126365000Y-125095000D01*
X126365000Y-125095000D02*
X126365000Y-123825000D01*
X126365000Y-123825000D02*
X125095000Y-122555000D01*
X122555000Y-111125000D02*
X116205000Y-117475000D01*
X122555000Y-109855000D02*
X122555000Y-111125000D01*
X114935000Y-106680000D02*
X119380000Y-106680000D01*
X111125000Y-110490000D02*
X114935000Y-106680000D01*
X99695000Y-110490000D02*
X111125000Y-110490000D01*
X97790000Y-108585000D02*
X99695000Y-110490000D01*
X88265000Y-108585000D02*
X97790000Y-108585000D01*
X87630000Y-107950000D02*
X88265000Y-108585000D01*
X81915000Y-107950000D02*
X87630000Y-107950000D01*
X81280000Y-108585000D02*
X81915000Y-107950000D01*
X81280000Y-110490000D02*
X81280000Y-108585000D01*
X119380000Y-106680000D02*
X122555000Y-109855000D01*
X116205000Y-124460000D02*
X121920000Y-124460000D01*
X116205000Y-117475000D02*
X116205000Y-124460000D01*
X116205000Y-130810000D02*
X116205000Y-124460000D01*
X108585000Y-135890000D02*
X111125000Y-135890000D01*
X111125000Y-135890000D02*
X116205000Y-130810000D01*
X107950000Y-135255000D02*
X108585000Y-135890000D01*
X107950000Y-133350000D02*
X107950000Y-135255000D01*
X86360000Y-110490000D02*
X97155000Y-110490000D01*
X86360000Y-112395000D02*
X86360000Y-110490000D01*
X81280000Y-117475000D02*
X86360000Y-112395000D01*
X79375000Y-118110000D02*
X80010000Y-117475000D01*
X79375000Y-120650000D02*
X79375000Y-118110000D01*
X80010000Y-121285000D02*
X79375000Y-120650000D01*
X81915000Y-121285000D02*
X80010000Y-121285000D01*
X84137500Y-123507500D02*
X81915000Y-121285000D01*
X87630000Y-124142500D02*
X86995000Y-123507500D01*
X86995000Y-123507500D02*
X84137500Y-123507500D01*
X89535000Y-124142500D02*
X87630000Y-124142500D01*
X80010000Y-117475000D02*
X81280000Y-117475000D01*
X94932500Y-129540000D02*
X89535000Y-124142500D01*
X96520000Y-129540000D02*
X94932500Y-129540000D01*
D19*
X93345000Y-168910000D02*
X87630000Y-174625000D01*
X93345000Y-146050000D02*
X93345000Y-168910000D01*
X87630000Y-174625000D02*
X86360000Y-174625000D01*
X124460000Y-134620000D02*
X124460000Y-137795000D01*
X122555000Y-132715000D02*
X124460000Y-134620000D01*
X119380000Y-132715000D02*
X122555000Y-132715000D01*
X86360000Y-170815000D02*
X86360000Y-169545000D01*
X86360000Y-169545000D02*
X85725000Y-168910000D01*
X85725000Y-168910000D02*
X85725000Y-151765000D01*
X85725000Y-151765000D02*
X80010000Y-146050000D01*
D20*
X110490000Y-140970000D02*
X111760000Y-140970000D01*
X111760000Y-140970000D02*
X115887500Y-136842500D01*
X115887500Y-136842500D02*
X122237500Y-136842500D01*
X122237500Y-136842500D02*
X123190000Y-135890000D01*
D19*
X124460000Y-119380000D02*
X124460000Y-117475000D01*
X124460000Y-117475000D02*
X125095000Y-116840000D01*
X125095000Y-116840000D02*
X128905000Y-116840000D01*
X128905000Y-116840000D02*
X129540000Y-117475000D01*
X129540000Y-117475000D02*
X129540000Y-119380000D01*
X107950000Y-164465000D02*
X107950000Y-170815000D01*
X108775000Y-163640000D02*
X107950000Y-164465000D01*
X110410000Y-163640000D02*
X108775000Y-163640000D01*
X107125000Y-171640000D02*
X107950000Y-170815000D01*
X105410000Y-171640000D02*
X107125000Y-171640000D01*
X83820000Y-117475000D02*
X83820000Y-119380000D01*
X85725000Y-115570000D02*
X83820000Y-117475000D01*
X94615000Y-115570000D02*
X85725000Y-115570000D01*
X98425000Y-111760000D02*
X94615000Y-115570000D01*
X99060000Y-127952500D02*
X99060000Y-129540000D01*
X94932500Y-127635000D02*
X98742500Y-127635000D01*
X90170000Y-122872500D02*
X94932500Y-127635000D01*
X98742500Y-127635000D02*
X99060000Y-127952500D01*
X88582500Y-122872500D02*
X90170000Y-122872500D01*
X87630000Y-121920000D02*
X88582500Y-122872500D01*
X84455000Y-121920000D02*
X87630000Y-121920000D01*
X83820000Y-121285000D02*
X84455000Y-121920000D01*
X83820000Y-119380000D02*
X83820000Y-121285000D01*
X111760000Y-127952500D02*
X111760000Y-129540000D01*
X108902500Y-125095000D02*
X111760000Y-127952500D01*
X95250000Y-125095000D02*
X108902500Y-125095000D01*
X93345000Y-123190000D02*
X95250000Y-125095000D01*
X93980000Y-118110000D02*
X93345000Y-118745000D01*
X93345000Y-118745000D02*
X93345000Y-123190000D01*
X95885000Y-118110000D02*
X93980000Y-118110000D01*
X114300000Y-127952500D02*
X114300000Y-129540000D01*
X110172500Y-123825000D02*
X114300000Y-127952500D01*
X95250000Y-123825000D02*
X110172500Y-123825000D01*
X94615000Y-123190000D02*
X95250000Y-123825000D01*
X94615000Y-119380000D02*
X94615000Y-123190000D01*
X96520000Y-121920000D02*
X96520000Y-120015000D01*
X99060000Y-117475000D02*
X99060000Y-116840000D01*
X96520000Y-120015000D02*
X99060000Y-117475000D01*
X99060000Y-116840000D02*
X103505000Y-112395000D01*
X118110000Y-152400000D02*
X118110000Y-167640000D01*
X111125000Y-145415000D02*
X118110000Y-152400000D01*
X104140000Y-145415000D02*
X111125000Y-145415000D01*
X102235000Y-143510000D02*
X104140000Y-145415000D01*
X102235000Y-140970000D02*
X102235000Y-143510000D01*
X86360000Y-125095000D02*
X102235000Y-140970000D01*
X118110000Y-167640000D02*
X124460000Y-173990000D01*
X99060000Y-120015000D02*
X99060000Y-121920000D01*
X107315000Y-111760000D02*
X99060000Y-120015000D01*
X112395000Y-111760000D02*
X107315000Y-111760000D01*
X111760000Y-144145000D02*
X119380000Y-151765000D01*
X104775000Y-144145000D02*
X111760000Y-144145000D01*
X103505000Y-142875000D02*
X104775000Y-144145000D01*
X103505000Y-140335000D02*
X103505000Y-142875000D01*
X119380000Y-151765000D02*
X119380000Y-166370000D01*
X88900000Y-125730000D02*
X103505000Y-140335000D01*
X119380000Y-166370000D02*
X124460000Y-171450000D01*
X101600000Y-120015000D02*
X101600000Y-121920000D01*
X108585000Y-113030000D02*
X101600000Y-120015000D01*
X113665000Y-113030000D02*
X108585000Y-113030000D01*
X112395000Y-115570000D02*
X111125000Y-115570000D01*
X111125000Y-115570000D02*
X106680000Y-120015000D01*
X106680000Y-120015000D02*
X106680000Y-121920000D01*
X118110000Y-110490000D02*
X115570000Y-113030000D01*
X115570000Y-113030000D02*
X115570000Y-113665000D01*
X113665000Y-115570000D02*
X112395000Y-115570000D01*
X115570000Y-113665000D02*
X113665000Y-115570000D01*
X111760000Y-116840000D02*
X113665000Y-116840000D01*
X110490000Y-118110000D02*
X111760000Y-116840000D01*
X110490000Y-118745000D02*
X110490000Y-118110000D01*
X109220000Y-120015000D02*
X110490000Y-118745000D01*
X109220000Y-121920000D02*
X109220000Y-120015000D01*
X112395000Y-119380000D02*
X111760000Y-120015000D01*
X112395000Y-118110000D02*
X112395000Y-119380000D01*
X111760000Y-121920000D02*
X111760000Y-120015000D01*
X114935000Y-116205000D02*
X114935000Y-117475000D01*
X114300000Y-118110000D02*
X112395000Y-118110000D01*
X114935000Y-117475000D02*
X114300000Y-118110000D01*
X120650000Y-110490000D02*
X114935000Y-116205000D01*
X89535000Y-116840000D02*
X88900000Y-117475000D01*
X97155000Y-116840000D02*
X89535000Y-116840000D01*
X88900000Y-117475000D02*
X88900000Y-119380000D01*
X107632500Y-126365000D02*
X109220000Y-127952500D01*
X95250000Y-126365000D02*
X107632500Y-126365000D01*
X90805000Y-121920000D02*
X95250000Y-126365000D01*
X89535000Y-121920000D02*
X90805000Y-121920000D01*
X88900000Y-121285000D02*
X89535000Y-121920000D01*
X109220000Y-127952500D02*
X109220000Y-129540000D01*
X88900000Y-119380000D02*
X88900000Y-121285000D01*
D20*
X108585000Y-139700000D02*
X108585000Y-140970000D01*
X109220000Y-139065000D02*
X108585000Y-139700000D01*
X118110000Y-131445000D02*
X110490000Y-139065000D01*
X118110000Y-130810000D02*
X118110000Y-131445000D01*
X110490000Y-139065000D02*
X109220000Y-139065000D01*
X124460000Y-124460000D02*
X118110000Y-130810000D01*
X119380000Y-134620000D02*
X121920000Y-134620000D01*
X112395000Y-151130000D02*
X103505000Y-151130000D01*
D21*
X93970324Y-95169613D02*
X96520000Y-97719289D01*
X99069676Y-95169613D01*
X98987651Y-95030000D01*
X111832349Y-95030000D01*
X111750324Y-95169613D01*
X114300000Y-97719289D01*
X116849676Y-95169613D01*
X116767651Y-95030000D01*
X122755077Y-95030000D01*
X133570000Y-105844924D01*
X133570001Y-178020000D01*
X107016431Y-178020000D01*
X107070169Y-177954520D01*
X107149098Y-177806855D01*
X107197701Y-177646629D01*
X107214113Y-177480000D01*
X107210000Y-176792500D01*
X106997500Y-176580000D01*
X105460000Y-176580000D01*
X105460000Y-176600000D01*
X105360000Y-176600000D01*
X105360000Y-176580000D01*
X103822500Y-176580000D01*
X103610000Y-176792500D01*
X103605887Y-177480000D01*
X103622299Y-177646629D01*
X103670902Y-177806855D01*
X103749831Y-177954520D01*
X103803569Y-178020000D01*
X77250000Y-178020000D01*
X77250000Y-160975000D01*
X79475888Y-160975000D01*
X79475888Y-162875000D01*
X79492300Y-163041629D01*
X79540903Y-163201855D01*
X79619832Y-163349519D01*
X79726052Y-163478948D01*
X79855481Y-163585168D01*
X80003145Y-163664097D01*
X80163371Y-163712700D01*
X80330000Y-163729112D01*
X82230000Y-163729112D01*
X82396629Y-163712700D01*
X82556855Y-163664097D01*
X82704519Y-163585168D01*
X82833948Y-163478948D01*
X82940168Y-163349519D01*
X83019097Y-163201855D01*
X83067700Y-163041629D01*
X83084112Y-162875000D01*
X83084112Y-160975000D01*
X83067700Y-160808371D01*
X83019097Y-160648145D01*
X82940168Y-160500481D01*
X82833948Y-160371052D01*
X82714487Y-160273013D01*
X82890000Y-160097500D01*
X82890000Y-158010000D01*
X80802500Y-158010000D01*
X80590000Y-158222500D01*
X80585887Y-159460000D01*
X80602299Y-159626629D01*
X80650902Y-159786855D01*
X80729831Y-159934520D01*
X80836051Y-160063949D01*
X80905431Y-160120888D01*
X80330000Y-160120888D01*
X80163371Y-160137300D01*
X80003145Y-160185903D01*
X79855481Y-160264832D01*
X79726052Y-160371052D01*
X79619832Y-160500481D01*
X79540903Y-160648145D01*
X79492300Y-160808371D01*
X79475888Y-160975000D01*
X77250000Y-160975000D01*
X77250000Y-156460000D01*
X80585887Y-156460000D01*
X80590000Y-157697500D01*
X80802500Y-157910000D01*
X82890000Y-157910000D01*
X82890000Y-155822500D01*
X82677500Y-155610000D01*
X81440000Y-155605887D01*
X81273371Y-155622299D01*
X81113145Y-155670902D01*
X80965480Y-155749831D01*
X80836051Y-155856051D01*
X80729831Y-155985480D01*
X80650902Y-156133145D01*
X80602299Y-156293371D01*
X80585887Y-156460000D01*
X77250000Y-156460000D01*
X77250000Y-145892414D01*
X78410000Y-145892414D01*
X78410000Y-146207586D01*
X78471487Y-146516703D01*
X78592098Y-146807884D01*
X78767199Y-147069941D01*
X78990059Y-147292801D01*
X79252116Y-147467902D01*
X79543297Y-147588513D01*
X79852414Y-147650000D01*
X79983656Y-147650000D01*
X84575001Y-152241347D01*
X84575001Y-155619184D01*
X84440000Y-155605887D01*
X83202500Y-155610000D01*
X82990000Y-155822500D01*
X82990000Y-157910000D01*
X83010000Y-157910000D01*
X83010000Y-158010000D01*
X82990000Y-158010000D01*
X82990000Y-160097500D01*
X83202500Y-160310000D01*
X84440000Y-160314113D01*
X84575001Y-160300816D01*
X84575000Y-168853518D01*
X84569437Y-168910000D01*
X84575000Y-168966482D01*
X84575000Y-168966491D01*
X84591640Y-169135438D01*
X84657398Y-169352214D01*
X84764184Y-169551996D01*
X84907893Y-169727107D01*
X84951781Y-169763125D01*
X85063733Y-169875077D01*
X84942098Y-170057116D01*
X84821487Y-170348297D01*
X84760000Y-170657414D01*
X84760000Y-170972586D01*
X84821487Y-171281703D01*
X84942098Y-171572884D01*
X85117199Y-171834941D01*
X85340059Y-172057801D01*
X85602116Y-172232902D01*
X85893297Y-172353513D01*
X86202414Y-172415000D01*
X86517586Y-172415000D01*
X86826703Y-172353513D01*
X87117884Y-172232902D01*
X87379941Y-172057801D01*
X87602801Y-171834941D01*
X87777902Y-171572884D01*
X87898513Y-171281703D01*
X87960000Y-170972586D01*
X87960000Y-170657414D01*
X87898513Y-170348297D01*
X87777902Y-170057116D01*
X87602801Y-169795059D01*
X87510000Y-169702258D01*
X87510000Y-169601492D01*
X87515564Y-169545000D01*
X87493360Y-169319561D01*
X87427602Y-169102784D01*
X87356876Y-168970467D01*
X87320816Y-168903003D01*
X87177107Y-168727893D01*
X87133219Y-168691875D01*
X86875000Y-168433656D01*
X86875000Y-161747716D01*
X88370000Y-161747716D01*
X88370000Y-162102284D01*
X88439173Y-162450041D01*
X88574861Y-162777620D01*
X88771849Y-163072433D01*
X89022567Y-163323151D01*
X89317380Y-163520139D01*
X89644959Y-163655827D01*
X89992716Y-163725000D01*
X90347284Y-163725000D01*
X90695041Y-163655827D01*
X91022620Y-163520139D01*
X91317433Y-163323151D01*
X91568151Y-163072433D01*
X91765139Y-162777620D01*
X91900827Y-162450041D01*
X91970000Y-162102284D01*
X91970000Y-161747716D01*
X91900827Y-161399959D01*
X91765139Y-161072380D01*
X91568151Y-160777567D01*
X91317433Y-160526849D01*
X91022620Y-160329861D01*
X90928767Y-160290986D01*
X91066855Y-160249098D01*
X91214520Y-160170169D01*
X91343949Y-160063949D01*
X91450169Y-159934520D01*
X91529098Y-159786855D01*
X91577701Y-159626629D01*
X91594113Y-159460000D01*
X91590000Y-158222500D01*
X91377500Y-158010000D01*
X89290000Y-158010000D01*
X89290000Y-160097500D01*
X89462323Y-160269823D01*
X89317380Y-160329861D01*
X89022567Y-160526849D01*
X88771849Y-160777567D01*
X88574861Y-161072380D01*
X88439173Y-161399959D01*
X88370000Y-161747716D01*
X86875000Y-161747716D01*
X86875000Y-159460000D01*
X86885887Y-159460000D01*
X86902299Y-159626629D01*
X86950902Y-159786855D01*
X87029831Y-159934520D01*
X87136051Y-160063949D01*
X87265480Y-160170169D01*
X87413145Y-160249098D01*
X87573371Y-160297701D01*
X87740000Y-160314113D01*
X88977500Y-160310000D01*
X89190000Y-160097500D01*
X89190000Y-158010000D01*
X87102500Y-158010000D01*
X86890000Y-158222500D01*
X86885887Y-159460000D01*
X86875000Y-159460000D01*
X86875000Y-156460000D01*
X86885887Y-156460000D01*
X86890000Y-157697500D01*
X87102500Y-157910000D01*
X89190000Y-157910000D01*
X89190000Y-155822500D01*
X89290000Y-155822500D01*
X89290000Y-157910000D01*
X91377500Y-157910000D01*
X91590000Y-157697500D01*
X91594113Y-156460000D01*
X91577701Y-156293371D01*
X91529098Y-156133145D01*
X91450169Y-155985480D01*
X91343949Y-155856051D01*
X91214520Y-155749831D01*
X91066855Y-155670902D01*
X90906629Y-155622299D01*
X90740000Y-155605887D01*
X89502500Y-155610000D01*
X89290000Y-155822500D01*
X89190000Y-155822500D01*
X88977500Y-155610000D01*
X87740000Y-155605887D01*
X87573371Y-155622299D01*
X87413145Y-155670902D01*
X87265480Y-155749831D01*
X87136051Y-155856051D01*
X87029831Y-155985480D01*
X86950902Y-156133145D01*
X86902299Y-156293371D01*
X86885887Y-156460000D01*
X86875000Y-156460000D01*
X86875000Y-151821492D01*
X86880564Y-151765000D01*
X86858360Y-151539561D01*
X86792602Y-151322784D01*
X86685816Y-151123003D01*
X86578119Y-150991773D01*
X86578115Y-150991769D01*
X86542107Y-150947893D01*
X86498230Y-150911884D01*
X81610000Y-146023656D01*
X81610000Y-145892414D01*
X81548513Y-145583297D01*
X81427902Y-145292116D01*
X81252801Y-145030059D01*
X81029941Y-144807199D01*
X80767884Y-144632098D01*
X80476703Y-144511487D01*
X80167586Y-144450000D01*
X79852414Y-144450000D01*
X79543297Y-144511487D01*
X79252116Y-144632098D01*
X78990059Y-144807199D01*
X78767199Y-145030059D01*
X78592098Y-145292116D01*
X78471487Y-145583297D01*
X78410000Y-145892414D01*
X77250000Y-145892414D01*
X77250000Y-143260000D01*
X80585887Y-143260000D01*
X80602299Y-143426629D01*
X80650902Y-143586855D01*
X80729831Y-143734520D01*
X80836051Y-143863949D01*
X80965480Y-143970169D01*
X81113145Y-144049098D01*
X81273371Y-144097701D01*
X81440000Y-144114113D01*
X82677500Y-144110000D01*
X82890000Y-143897500D01*
X82890000Y-141810000D01*
X82990000Y-141810000D01*
X82990000Y-143897500D01*
X83202500Y-144110000D01*
X84440000Y-144114113D01*
X84606629Y-144097701D01*
X84766855Y-144049098D01*
X84914520Y-143970169D01*
X85043949Y-143863949D01*
X85150169Y-143734520D01*
X85229098Y-143586855D01*
X85277701Y-143426629D01*
X85294113Y-143260000D01*
X86885887Y-143260000D01*
X86902299Y-143426629D01*
X86950902Y-143586855D01*
X87029831Y-143734520D01*
X87136051Y-143863949D01*
X87265480Y-143970169D01*
X87413145Y-144049098D01*
X87573371Y-144097701D01*
X87740000Y-144114113D01*
X88977500Y-144110000D01*
X89190000Y-143897500D01*
X89190000Y-141810000D01*
X89290000Y-141810000D01*
X89290000Y-143897500D01*
X89502500Y-144110000D01*
X90740000Y-144114113D01*
X90906629Y-144097701D01*
X91066855Y-144049098D01*
X91214520Y-143970169D01*
X91343949Y-143863949D01*
X91450169Y-143734520D01*
X91529098Y-143586855D01*
X91577701Y-143426629D01*
X91594113Y-143260000D01*
X91590000Y-142022500D01*
X91377500Y-141810000D01*
X89290000Y-141810000D01*
X89190000Y-141810000D01*
X87102500Y-141810000D01*
X86890000Y-142022500D01*
X86885887Y-143260000D01*
X85294113Y-143260000D01*
X85290000Y-142022500D01*
X85077500Y-141810000D01*
X82990000Y-141810000D01*
X82890000Y-141810000D01*
X80802500Y-141810000D01*
X80590000Y-142022500D01*
X80585887Y-143260000D01*
X77250000Y-143260000D01*
X77250000Y-140260000D01*
X80585887Y-140260000D01*
X80590000Y-141497500D01*
X80802500Y-141710000D01*
X82890000Y-141710000D01*
X82890000Y-139622500D01*
X82990000Y-139622500D01*
X82990000Y-141710000D01*
X85077500Y-141710000D01*
X85290000Y-141497500D01*
X85294113Y-140260000D01*
X86885887Y-140260000D01*
X86890000Y-141497500D01*
X87102500Y-141710000D01*
X89190000Y-141710000D01*
X89190000Y-139622500D01*
X89290000Y-139622500D01*
X89290000Y-141710000D01*
X91377500Y-141710000D01*
X91590000Y-141497500D01*
X91594113Y-140260000D01*
X93185888Y-140260000D01*
X93185888Y-143260000D01*
X93202300Y-143426629D01*
X93250903Y-143586855D01*
X93329832Y-143734519D01*
X93436052Y-143863948D01*
X93565481Y-143970168D01*
X93713145Y-144049097D01*
X93873371Y-144097700D01*
X94040000Y-144114112D01*
X97040000Y-144114112D01*
X97206629Y-144097700D01*
X97366855Y-144049097D01*
X97514519Y-143970168D01*
X97643948Y-143863948D01*
X97750168Y-143734519D01*
X97829097Y-143586855D01*
X97877700Y-143426629D01*
X97894112Y-143260000D01*
X97894112Y-140260000D01*
X97877700Y-140093371D01*
X97829097Y-139933145D01*
X97750168Y-139785481D01*
X97643948Y-139656052D01*
X97514519Y-139549832D01*
X97366855Y-139470903D01*
X97206629Y-139422300D01*
X97040000Y-139405888D01*
X94040000Y-139405888D01*
X93873371Y-139422300D01*
X93713145Y-139470903D01*
X93565481Y-139549832D01*
X93436052Y-139656052D01*
X93329832Y-139785481D01*
X93250903Y-139933145D01*
X93202300Y-140093371D01*
X93185888Y-140260000D01*
X91594113Y-140260000D01*
X91577701Y-140093371D01*
X91529098Y-139933145D01*
X91450169Y-139785480D01*
X91343949Y-139656051D01*
X91214520Y-139549831D01*
X91066855Y-139470902D01*
X90906629Y-139422299D01*
X90740000Y-139405887D01*
X89502500Y-139410000D01*
X89290000Y-139622500D01*
X89190000Y-139622500D01*
X88977500Y-139410000D01*
X87740000Y-139405887D01*
X87573371Y-139422299D01*
X87413145Y-139470902D01*
X87265480Y-139549831D01*
X87136051Y-139656051D01*
X87029831Y-139785480D01*
X86950902Y-139933145D01*
X86902299Y-140093371D01*
X86885887Y-140260000D01*
X85294113Y-140260000D01*
X85277701Y-140093371D01*
X85229098Y-139933145D01*
X85150169Y-139785480D01*
X85043949Y-139656051D01*
X84914520Y-139549831D01*
X84766855Y-139470902D01*
X84606629Y-139422299D01*
X84440000Y-139405887D01*
X83202500Y-139410000D01*
X82990000Y-139622500D01*
X82890000Y-139622500D01*
X82677500Y-139410000D01*
X81440000Y-139405887D01*
X81273371Y-139422299D01*
X81113145Y-139470902D01*
X80965480Y-139549831D01*
X80836051Y-139656051D01*
X80729831Y-139785480D01*
X80650902Y-139933145D01*
X80602299Y-140093371D01*
X80585887Y-140260000D01*
X77250000Y-140260000D01*
X77250000Y-118110000D01*
X78018468Y-118110000D01*
X78025001Y-118176329D01*
X78025000Y-120583681D01*
X78018468Y-120650000D01*
X78025000Y-120716319D01*
X78025000Y-120716320D01*
X78044533Y-120914645D01*
X78121728Y-121169121D01*
X78140906Y-121205000D01*
X78247085Y-121403649D01*
X78373510Y-121557698D01*
X78373513Y-121557701D01*
X78415787Y-121609212D01*
X78467300Y-121651488D01*
X79008505Y-122192692D01*
X79050787Y-122244213D01*
X79256351Y-122412915D01*
X79308079Y-122440564D01*
X79490877Y-122538272D01*
X79523896Y-122548288D01*
X79745354Y-122615467D01*
X79943679Y-122635000D01*
X79943681Y-122635000D01*
X80010000Y-122641532D01*
X80076319Y-122635000D01*
X81355812Y-122635000D01*
X83136009Y-124415197D01*
X83178287Y-124466713D01*
X83229802Y-124508990D01*
X83383850Y-124635415D01*
X83618377Y-124760772D01*
X83677605Y-124778739D01*
X83872854Y-124837967D01*
X84071179Y-124857500D01*
X84071181Y-124857500D01*
X84137500Y-124864032D01*
X84203819Y-124857500D01*
X84775896Y-124857500D01*
X84760000Y-124937414D01*
X84760000Y-125252586D01*
X84821487Y-125561703D01*
X84942098Y-125852884D01*
X85117199Y-126114941D01*
X85340059Y-126337801D01*
X85602116Y-126512902D01*
X85893297Y-126633513D01*
X86202414Y-126695000D01*
X86333656Y-126695000D01*
X101085000Y-141446346D01*
X101085001Y-143453509D01*
X101079437Y-143510000D01*
X101085001Y-143566492D01*
X101101641Y-143735439D01*
X101167399Y-143952215D01*
X101274185Y-144151997D01*
X101417894Y-144327107D01*
X101461776Y-144363120D01*
X103286880Y-146188225D01*
X103322893Y-146232107D01*
X103498003Y-146375816D01*
X103697785Y-146482602D01*
X103914561Y-146548360D01*
X104083508Y-146565000D01*
X104083516Y-146565000D01*
X104140000Y-146570563D01*
X104196484Y-146565000D01*
X110648656Y-146565000D01*
X116960000Y-152876345D01*
X116960000Y-155626355D01*
X116946629Y-155622299D01*
X116780000Y-155605887D01*
X115542500Y-155610000D01*
X115330000Y-155822500D01*
X115330000Y-157910000D01*
X115350000Y-157910000D01*
X115350000Y-158010000D01*
X115330000Y-158010000D01*
X115330000Y-160097500D01*
X115542500Y-160310000D01*
X116780000Y-160314113D01*
X116946629Y-160297701D01*
X116960001Y-160293645D01*
X116960001Y-167120813D01*
X116571490Y-166732302D01*
X116529213Y-166680787D01*
X116323649Y-166512085D01*
X116089122Y-166386728D01*
X115834646Y-166309533D01*
X115636321Y-166290000D01*
X115636319Y-166290000D01*
X115570000Y-166283468D01*
X115503681Y-166290000D01*
X112504263Y-166290000D01*
X112497700Y-166223371D01*
X112449097Y-166063145D01*
X112370168Y-165915481D01*
X112263948Y-165786052D01*
X112134519Y-165679832D01*
X112059999Y-165640000D01*
X112134519Y-165600168D01*
X112263948Y-165493948D01*
X112370168Y-165364519D01*
X112449097Y-165216855D01*
X112497700Y-165056629D01*
X112514112Y-164890000D01*
X112514112Y-162390000D01*
X112497700Y-162223371D01*
X112449097Y-162063145D01*
X112370168Y-161915481D01*
X112263948Y-161786052D01*
X112134519Y-161679832D01*
X111986855Y-161600903D01*
X111826629Y-161552300D01*
X111660000Y-161535888D01*
X109160000Y-161535888D01*
X108993371Y-161552300D01*
X108833145Y-161600903D01*
X108685481Y-161679832D01*
X108556052Y-161786052D01*
X108449832Y-161915481D01*
X108370903Y-162063145D01*
X108322300Y-162223371D01*
X108305888Y-162390000D01*
X108305888Y-162586775D01*
X108133003Y-162679184D01*
X108133001Y-162679185D01*
X108133002Y-162679185D01*
X108001772Y-162786882D01*
X108001769Y-162786885D01*
X107957893Y-162822893D01*
X107921884Y-162866770D01*
X107514112Y-163274543D01*
X107514112Y-162390000D01*
X107497700Y-162223371D01*
X107449097Y-162063145D01*
X107370168Y-161915481D01*
X107263948Y-161786052D01*
X107134519Y-161679832D01*
X106986855Y-161600903D01*
X106826629Y-161552300D01*
X106660000Y-161535888D01*
X104160000Y-161535888D01*
X103993371Y-161552300D01*
X103833145Y-161600903D01*
X103685481Y-161679832D01*
X103556052Y-161786052D01*
X103449832Y-161915481D01*
X103370903Y-162063145D01*
X103322300Y-162223371D01*
X103305888Y-162390000D01*
X103305888Y-164890000D01*
X103322300Y-165056629D01*
X103370903Y-165216855D01*
X103449832Y-165364519D01*
X103556052Y-165493948D01*
X103685481Y-165600168D01*
X103759999Y-165639999D01*
X103685480Y-165679831D01*
X103556051Y-165786051D01*
X103449831Y-165915480D01*
X103370902Y-166063145D01*
X103322299Y-166223371D01*
X103305887Y-166390000D01*
X103310000Y-167377500D01*
X103522500Y-167590000D01*
X105360000Y-167590000D01*
X105360000Y-167570000D01*
X105460000Y-167570000D01*
X105460000Y-167590000D01*
X105480000Y-167590000D01*
X105480000Y-167690000D01*
X105460000Y-167690000D01*
X105460000Y-167710000D01*
X105360000Y-167710000D01*
X105360000Y-167690000D01*
X103522500Y-167690000D01*
X103310000Y-167902500D01*
X103305887Y-168890000D01*
X103322299Y-169056629D01*
X103370902Y-169216855D01*
X103449831Y-169364520D01*
X103556051Y-169493949D01*
X103685480Y-169600169D01*
X103759999Y-169640001D01*
X103685481Y-169679832D01*
X103556052Y-169786052D01*
X103449832Y-169915481D01*
X103370903Y-170063145D01*
X103322300Y-170223371D01*
X103305888Y-170390000D01*
X103305888Y-172890000D01*
X103322300Y-173056629D01*
X103370903Y-173216855D01*
X103401983Y-173275000D01*
X102418017Y-173275000D01*
X102449097Y-173216855D01*
X102497700Y-173056629D01*
X102514112Y-172890000D01*
X102514112Y-170390000D01*
X102497700Y-170223371D01*
X102449097Y-170063145D01*
X102370168Y-169915481D01*
X102263948Y-169786052D01*
X102134519Y-169679832D01*
X102059999Y-169640000D01*
X102134519Y-169600168D01*
X102263948Y-169493948D01*
X102370168Y-169364519D01*
X102449097Y-169216855D01*
X102497700Y-169056629D01*
X102514112Y-168890000D01*
X102514112Y-166390000D01*
X102497700Y-166223371D01*
X102449097Y-166063145D01*
X102370168Y-165915481D01*
X102263948Y-165786052D01*
X102134519Y-165679832D01*
X102059999Y-165640000D01*
X102134519Y-165600168D01*
X102263948Y-165493948D01*
X102370168Y-165364519D01*
X102449097Y-165216855D01*
X102497700Y-165056629D01*
X102514112Y-164890000D01*
X102514112Y-162390000D01*
X102497700Y-162223371D01*
X102449097Y-162063145D01*
X102370168Y-161915481D01*
X102263948Y-161786052D01*
X102134519Y-161679832D01*
X101986855Y-161600903D01*
X101826629Y-161552300D01*
X101660000Y-161535888D01*
X99160000Y-161535888D01*
X98993371Y-161552300D01*
X98833145Y-161600903D01*
X98685481Y-161679832D01*
X98556052Y-161786052D01*
X98449832Y-161915481D01*
X98370903Y-162063145D01*
X98322300Y-162223371D01*
X98305888Y-162390000D01*
X98305888Y-164890000D01*
X98322300Y-165056629D01*
X98370903Y-165216855D01*
X98449832Y-165364519D01*
X98556052Y-165493948D01*
X98685481Y-165600168D01*
X98760001Y-165640000D01*
X98685481Y-165679832D01*
X98556052Y-165786052D01*
X98449832Y-165915481D01*
X98370903Y-166063145D01*
X98322300Y-166223371D01*
X98318737Y-166259549D01*
X96890000Y-164830812D01*
X96890000Y-160314112D01*
X97040000Y-160314112D01*
X97206629Y-160297700D01*
X97366855Y-160249097D01*
X97514519Y-160170168D01*
X97643948Y-160063948D01*
X97750168Y-159934519D01*
X97829097Y-159786855D01*
X97877700Y-159626629D01*
X97894112Y-159460000D01*
X112925887Y-159460000D01*
X112942299Y-159626629D01*
X112990902Y-159786855D01*
X113069831Y-159934520D01*
X113176051Y-160063949D01*
X113305480Y-160170169D01*
X113453145Y-160249098D01*
X113613371Y-160297701D01*
X113780000Y-160314113D01*
X115017500Y-160310000D01*
X115230000Y-160097500D01*
X115230000Y-158010000D01*
X113142500Y-158010000D01*
X112930000Y-158222500D01*
X112925887Y-159460000D01*
X97894112Y-159460000D01*
X97894112Y-156460000D01*
X112925887Y-156460000D01*
X112930000Y-157697500D01*
X113142500Y-157910000D01*
X115230000Y-157910000D01*
X115230000Y-155822500D01*
X115017500Y-155610000D01*
X113780000Y-155605887D01*
X113613371Y-155622299D01*
X113453145Y-155670902D01*
X113305480Y-155749831D01*
X113176051Y-155856051D01*
X113069831Y-155985480D01*
X112990902Y-156133145D01*
X112942299Y-156293371D01*
X112925887Y-156460000D01*
X97894112Y-156460000D01*
X97877700Y-156293371D01*
X97829097Y-156133145D01*
X97750168Y-155985481D01*
X97643948Y-155856052D01*
X97514519Y-155749832D01*
X97366855Y-155670903D01*
X97206629Y-155622300D01*
X97040000Y-155605888D01*
X94495000Y-155605888D01*
X94495000Y-150972414D01*
X101905000Y-150972414D01*
X101905000Y-151287586D01*
X101966487Y-151596703D01*
X102087098Y-151887884D01*
X102262199Y-152149941D01*
X102485059Y-152372801D01*
X102747116Y-152547902D01*
X103038297Y-152668513D01*
X103347414Y-152730000D01*
X103662586Y-152730000D01*
X103971703Y-152668513D01*
X104262884Y-152547902D01*
X104364506Y-152480000D01*
X111535494Y-152480000D01*
X111637116Y-152547902D01*
X111928297Y-152668513D01*
X112237414Y-152730000D01*
X112552586Y-152730000D01*
X112861703Y-152668513D01*
X113152884Y-152547902D01*
X113414941Y-152372801D01*
X113637801Y-152149941D01*
X113812902Y-151887884D01*
X113933513Y-151596703D01*
X113995000Y-151287586D01*
X113995000Y-150972414D01*
X113933513Y-150663297D01*
X113812902Y-150372116D01*
X113637801Y-150110059D01*
X113414941Y-149887199D01*
X113152884Y-149712098D01*
X112861703Y-149591487D01*
X112552586Y-149530000D01*
X112237414Y-149530000D01*
X111928297Y-149591487D01*
X111637116Y-149712098D01*
X111535494Y-149780000D01*
X104364506Y-149780000D01*
X104262884Y-149712098D01*
X103971703Y-149591487D01*
X103662586Y-149530000D01*
X103347414Y-149530000D01*
X103038297Y-149591487D01*
X102747116Y-149712098D01*
X102485059Y-149887199D01*
X102262199Y-150110059D01*
X102087098Y-150372116D01*
X101966487Y-150663297D01*
X101905000Y-150972414D01*
X94495000Y-150972414D01*
X94495000Y-147162742D01*
X94587801Y-147069941D01*
X94762902Y-146807884D01*
X94883513Y-146516703D01*
X94945000Y-146207586D01*
X94945000Y-145892414D01*
X94883513Y-145583297D01*
X94762902Y-145292116D01*
X94587801Y-145030059D01*
X94364941Y-144807199D01*
X94102884Y-144632098D01*
X93811703Y-144511487D01*
X93502586Y-144450000D01*
X93187414Y-144450000D01*
X92878297Y-144511487D01*
X92587116Y-144632098D01*
X92325059Y-144807199D01*
X92102199Y-145030059D01*
X91927098Y-145292116D01*
X91806487Y-145583297D01*
X91745000Y-145892414D01*
X91745000Y-146207586D01*
X91806487Y-146516703D01*
X91927098Y-146807884D01*
X92102199Y-147069941D01*
X92195000Y-147162742D01*
X92195001Y-168433653D01*
X87299923Y-173328733D01*
X87117884Y-173207098D01*
X86826703Y-173086487D01*
X86517586Y-173025000D01*
X86202414Y-173025000D01*
X85893297Y-173086487D01*
X85602116Y-173207098D01*
X85340059Y-173382199D01*
X85117199Y-173605059D01*
X84942098Y-173867116D01*
X84821487Y-174158297D01*
X84760000Y-174467414D01*
X84760000Y-174782586D01*
X84821487Y-175091703D01*
X84942098Y-175382884D01*
X85117199Y-175644941D01*
X85340059Y-175867801D01*
X85602116Y-176042902D01*
X85893297Y-176163513D01*
X86202414Y-176225000D01*
X86517586Y-176225000D01*
X86826703Y-176163513D01*
X87117884Y-176042902D01*
X87379941Y-175867801D01*
X87472742Y-175775000D01*
X87573518Y-175775000D01*
X87630000Y-175780563D01*
X87686482Y-175775000D01*
X87686492Y-175775000D01*
X87855439Y-175758360D01*
X88072215Y-175692602D01*
X88271997Y-175585816D01*
X88447107Y-175442107D01*
X88483125Y-175398220D01*
X94118230Y-169763116D01*
X94162107Y-169727107D01*
X94198115Y-169683231D01*
X94198119Y-169683227D01*
X94305816Y-169551997D01*
X94412602Y-169352216D01*
X94478360Y-169135439D01*
X94500564Y-168910000D01*
X94495000Y-168853508D01*
X94495000Y-166244681D01*
X94538510Y-166297698D01*
X94538514Y-166297702D01*
X94580788Y-166349213D01*
X94632299Y-166391487D01*
X96788509Y-168547697D01*
X96830787Y-168599213D01*
X96987584Y-168727893D01*
X97036351Y-168767915D01*
X97270877Y-168893272D01*
X97525354Y-168970467D01*
X97790000Y-168996532D01*
X97856321Y-168990000D01*
X98315737Y-168990000D01*
X98322300Y-169056629D01*
X98370903Y-169216855D01*
X98449832Y-169364519D01*
X98556052Y-169493948D01*
X98685481Y-169600168D01*
X98760001Y-169640000D01*
X98685481Y-169679832D01*
X98556052Y-169786052D01*
X98449832Y-169915481D01*
X98370903Y-170063145D01*
X98322300Y-170223371D01*
X98305888Y-170390000D01*
X98305888Y-172890000D01*
X98322300Y-173056629D01*
X98370903Y-173216855D01*
X98449832Y-173364519D01*
X98556052Y-173493948D01*
X98685481Y-173600168D01*
X98833145Y-173679097D01*
X98993371Y-173727700D01*
X99060001Y-173734263D01*
X99060001Y-174073671D01*
X99053468Y-174140000D01*
X99079534Y-174404646D01*
X99156729Y-174659122D01*
X99282085Y-174893649D01*
X99408510Y-175047698D01*
X99408514Y-175047702D01*
X99450788Y-175099213D01*
X99502300Y-175141488D01*
X99893505Y-175532692D01*
X99935787Y-175584213D01*
X100141351Y-175752915D01*
X100375878Y-175878272D01*
X100630354Y-175955467D01*
X100828679Y-175975000D01*
X100828681Y-175975000D01*
X100895000Y-175981532D01*
X100961319Y-175975000D01*
X103608250Y-175975000D01*
X103610000Y-176267500D01*
X103822500Y-176480000D01*
X105360000Y-176480000D01*
X105360000Y-176460000D01*
X105460000Y-176460000D01*
X105460000Y-176480000D01*
X106997500Y-176480000D01*
X107210000Y-176267500D01*
X107211750Y-175975000D01*
X109858681Y-175975000D01*
X109925000Y-175981532D01*
X109991319Y-175975000D01*
X109991321Y-175975000D01*
X110189646Y-175955467D01*
X110444122Y-175878272D01*
X110678649Y-175752915D01*
X110884213Y-175584213D01*
X110926492Y-175532696D01*
X111317696Y-175141491D01*
X111369212Y-175099213D01*
X111537915Y-174893649D01*
X111663272Y-174659122D01*
X111740467Y-174404646D01*
X111760000Y-174206321D01*
X111760000Y-174206319D01*
X111766532Y-174140000D01*
X111760000Y-174073681D01*
X111760000Y-173734263D01*
X111826629Y-173727700D01*
X111986855Y-173679097D01*
X112134519Y-173600168D01*
X112263948Y-173493948D01*
X112370168Y-173364519D01*
X112449097Y-173216855D01*
X112497700Y-173056629D01*
X112514112Y-172890000D01*
X112514112Y-170390000D01*
X112497700Y-170223371D01*
X112449097Y-170063145D01*
X112370168Y-169915481D01*
X112263948Y-169786052D01*
X112134519Y-169679832D01*
X112059999Y-169640000D01*
X112134519Y-169600168D01*
X112263948Y-169493948D01*
X112370168Y-169364519D01*
X112449097Y-169216855D01*
X112497700Y-169056629D01*
X112504263Y-168990000D01*
X115010812Y-168990000D01*
X122823513Y-176802702D01*
X122865787Y-176854213D01*
X122917298Y-176896487D01*
X122917301Y-176896490D01*
X123071350Y-177022915D01*
X123196707Y-177089919D01*
X123305878Y-177148272D01*
X123560354Y-177225467D01*
X123758679Y-177245000D01*
X123758681Y-177245000D01*
X123825000Y-177251532D01*
X123891319Y-177245000D01*
X125028681Y-177245000D01*
X125095000Y-177251532D01*
X125161319Y-177245000D01*
X125161321Y-177245000D01*
X125359646Y-177225467D01*
X125614122Y-177148272D01*
X125848649Y-177022915D01*
X126054213Y-176854213D01*
X126096491Y-176802697D01*
X127272702Y-175626487D01*
X127324213Y-175584213D01*
X127366487Y-175532702D01*
X127366490Y-175532699D01*
X127492915Y-175378650D01*
X127570872Y-175232801D01*
X127618272Y-175144122D01*
X127695467Y-174889646D01*
X127715000Y-174691321D01*
X127715000Y-174691312D01*
X127721531Y-174625001D01*
X127715000Y-174558690D01*
X127715000Y-161991319D01*
X127721532Y-161925000D01*
X127715000Y-161858679D01*
X127695467Y-161660354D01*
X127618272Y-161405878D01*
X127547393Y-161273272D01*
X127492915Y-161171350D01*
X127366490Y-161017301D01*
X127366483Y-161017294D01*
X127324212Y-160965787D01*
X127272706Y-160923517D01*
X126662363Y-160313175D01*
X127617500Y-160310000D01*
X127830000Y-160097500D01*
X127830000Y-158010000D01*
X127930000Y-158010000D01*
X127930000Y-160097500D01*
X128142500Y-160310000D01*
X129380000Y-160314113D01*
X129546629Y-160297701D01*
X129706855Y-160249098D01*
X129854520Y-160170169D01*
X129983949Y-160063949D01*
X130090169Y-159934520D01*
X130169098Y-159786855D01*
X130217701Y-159626629D01*
X130234113Y-159460000D01*
X130230000Y-158222500D01*
X130017500Y-158010000D01*
X127930000Y-158010000D01*
X127830000Y-158010000D01*
X127810000Y-158010000D01*
X127810000Y-157910000D01*
X127830000Y-157910000D01*
X127830000Y-155822500D01*
X127930000Y-155822500D01*
X127930000Y-157910000D01*
X130017500Y-157910000D01*
X130230000Y-157697500D01*
X130234113Y-156460000D01*
X130217701Y-156293371D01*
X130169098Y-156133145D01*
X130090169Y-155985480D01*
X129983949Y-155856051D01*
X129854520Y-155749831D01*
X129706855Y-155670902D01*
X129546629Y-155622299D01*
X129380000Y-155605887D01*
X128142500Y-155610000D01*
X127930000Y-155822500D01*
X127830000Y-155822500D01*
X127617500Y-155610000D01*
X126380000Y-155605887D01*
X126213371Y-155622299D01*
X126053145Y-155670902D01*
X125905480Y-155749831D01*
X125810000Y-155828190D01*
X125810000Y-155006321D01*
X125816532Y-154940000D01*
X125790467Y-154675354D01*
X125713272Y-154420877D01*
X125587915Y-154186351D01*
X125461490Y-154032302D01*
X125461487Y-154032299D01*
X125419212Y-153980787D01*
X125367701Y-153938513D01*
X116630000Y-145200812D01*
X116630000Y-144114112D01*
X116780000Y-144114112D01*
X116946629Y-144097700D01*
X117106855Y-144049097D01*
X117254519Y-143970168D01*
X117383948Y-143863948D01*
X117490168Y-143734519D01*
X117569097Y-143586855D01*
X117617700Y-143426629D01*
X117634112Y-143260000D01*
X117634112Y-140260000D01*
X119225888Y-140260000D01*
X119225888Y-143260000D01*
X119242300Y-143426629D01*
X119290903Y-143586855D01*
X119369832Y-143734519D01*
X119476052Y-143863948D01*
X119605481Y-143970168D01*
X119753145Y-144049097D01*
X119913371Y-144097700D01*
X120080000Y-144114112D01*
X123080000Y-144114112D01*
X123246629Y-144097700D01*
X123406855Y-144049097D01*
X123554519Y-143970168D01*
X123683948Y-143863948D01*
X123790168Y-143734519D01*
X123869097Y-143586855D01*
X123917700Y-143426629D01*
X123934112Y-143260000D01*
X125525887Y-143260000D01*
X125542299Y-143426629D01*
X125590902Y-143586855D01*
X125669831Y-143734520D01*
X125776051Y-143863949D01*
X125905480Y-143970169D01*
X126053145Y-144049098D01*
X126213371Y-144097701D01*
X126380000Y-144114113D01*
X127617500Y-144110000D01*
X127830000Y-143897500D01*
X127830000Y-141810000D01*
X127930000Y-141810000D01*
X127930000Y-143897500D01*
X128142500Y-144110000D01*
X129380000Y-144114113D01*
X129546629Y-144097701D01*
X129706855Y-144049098D01*
X129854520Y-143970169D01*
X129983949Y-143863949D01*
X130090169Y-143734520D01*
X130169098Y-143586855D01*
X130217701Y-143426629D01*
X130234113Y-143260000D01*
X130230000Y-142022500D01*
X130017500Y-141810000D01*
X127930000Y-141810000D01*
X127830000Y-141810000D01*
X125742500Y-141810000D01*
X125530000Y-142022500D01*
X125525887Y-143260000D01*
X123934112Y-143260000D01*
X123934112Y-140260000D01*
X125525887Y-140260000D01*
X125530000Y-141497500D01*
X125742500Y-141710000D01*
X127830000Y-141710000D01*
X127830000Y-139622500D01*
X127930000Y-139622500D01*
X127930000Y-141710000D01*
X130017500Y-141710000D01*
X130230000Y-141497500D01*
X130234113Y-140260000D01*
X130217701Y-140093371D01*
X130169098Y-139933145D01*
X130090169Y-139785480D01*
X129983949Y-139656051D01*
X129854520Y-139549831D01*
X129706855Y-139470902D01*
X129546629Y-139422299D01*
X129380000Y-139405887D01*
X128142500Y-139410000D01*
X127930000Y-139622500D01*
X127830000Y-139622500D01*
X127617500Y-139410000D01*
X126380000Y-139405887D01*
X126213371Y-139422299D01*
X126053145Y-139470902D01*
X125905480Y-139549831D01*
X125776051Y-139656051D01*
X125669831Y-139785480D01*
X125590902Y-139933145D01*
X125542299Y-140093371D01*
X125525887Y-140260000D01*
X123934112Y-140260000D01*
X123917700Y-140093371D01*
X123869097Y-139933145D01*
X123790168Y-139785481D01*
X123683948Y-139656052D01*
X123554519Y-139549832D01*
X123406855Y-139470903D01*
X123246629Y-139422300D01*
X123080000Y-139405888D01*
X120080000Y-139405888D01*
X119913371Y-139422300D01*
X119753145Y-139470903D01*
X119605481Y-139549832D01*
X119476052Y-139656052D01*
X119369832Y-139785481D01*
X119290903Y-139933145D01*
X119242300Y-140093371D01*
X119225888Y-140260000D01*
X117634112Y-140260000D01*
X117617700Y-140093371D01*
X117569097Y-139933145D01*
X117490168Y-139785481D01*
X117383948Y-139656052D01*
X117254519Y-139549832D01*
X117106855Y-139470903D01*
X116946629Y-139422300D01*
X116780000Y-139405888D01*
X115233300Y-139405888D01*
X116446688Y-138192500D01*
X122171181Y-138192500D01*
X122237500Y-138199032D01*
X122303819Y-138192500D01*
X122303821Y-138192500D01*
X122502146Y-138172967D01*
X122756622Y-138095772D01*
X122875809Y-138032065D01*
X122921487Y-138261703D01*
X123042098Y-138552884D01*
X123217199Y-138814941D01*
X123440059Y-139037801D01*
X123702116Y-139212902D01*
X123993297Y-139333513D01*
X124302414Y-139395000D01*
X124617586Y-139395000D01*
X124926703Y-139333513D01*
X125217884Y-139212902D01*
X125479941Y-139037801D01*
X125702801Y-138814941D01*
X125877902Y-138552884D01*
X125998513Y-138261703D01*
X126060000Y-137952586D01*
X126060000Y-137637414D01*
X125998513Y-137328297D01*
X125877902Y-137037116D01*
X125756216Y-136855000D01*
X125887586Y-136855000D01*
X126196703Y-136793513D01*
X126487884Y-136672902D01*
X126749941Y-136497801D01*
X126972801Y-136274941D01*
X127147902Y-136012884D01*
X127268513Y-135721703D01*
X127330000Y-135412586D01*
X127330000Y-135097414D01*
X127268513Y-134788297D01*
X127147902Y-134497116D01*
X127080000Y-134395494D01*
X127080000Y-126289187D01*
X127272696Y-126096491D01*
X127324212Y-126054213D01*
X127492915Y-125848649D01*
X127570872Y-125702801D01*
X127618272Y-125614123D01*
X127655166Y-125492500D01*
X127695467Y-125359646D01*
X127715000Y-125161321D01*
X127715000Y-125161319D01*
X127721532Y-125095000D01*
X127715000Y-125028681D01*
X127715000Y-123891310D01*
X127721531Y-123824999D01*
X127715000Y-123758688D01*
X127715000Y-123758679D01*
X127695467Y-123560354D01*
X127618272Y-123305878D01*
X127552594Y-123183003D01*
X127492915Y-123071350D01*
X127366490Y-122917301D01*
X127366487Y-122917298D01*
X127324213Y-122865787D01*
X127272702Y-122823513D01*
X126096491Y-121647303D01*
X126054213Y-121595787D01*
X125848649Y-121427085D01*
X125614122Y-121301728D01*
X125359646Y-121224533D01*
X125161321Y-121205000D01*
X125161319Y-121205000D01*
X125095000Y-121198468D01*
X125028681Y-121205000D01*
X123891319Y-121205000D01*
X123825000Y-121198468D01*
X123758681Y-121205000D01*
X123758679Y-121205000D01*
X123560354Y-121224533D01*
X123305878Y-121301728D01*
X123231485Y-121341492D01*
X123071350Y-121427085D01*
X122917301Y-121553510D01*
X122917298Y-121553513D01*
X122865787Y-121595787D01*
X122823513Y-121647298D01*
X121573169Y-122897643D01*
X121453297Y-122921487D01*
X121162116Y-123042098D01*
X121060494Y-123110000D01*
X117555000Y-123110000D01*
X117555000Y-119358979D01*
X117571413Y-119358979D01*
X117602064Y-119712221D01*
X117701039Y-120052695D01*
X117864537Y-120367318D01*
X117887893Y-120402276D01*
X118216508Y-120472781D01*
X119309289Y-119380000D01*
X118216508Y-118287219D01*
X117887893Y-118357724D01*
X117717127Y-118668463D01*
X117610265Y-119006545D01*
X117571413Y-119358979D01*
X117555000Y-119358979D01*
X117555000Y-118216508D01*
X118287219Y-118216508D01*
X119380000Y-119309289D01*
X119394142Y-119295147D01*
X119464853Y-119365858D01*
X119450711Y-119380000D01*
X119464853Y-119394142D01*
X119394142Y-119464853D01*
X119380000Y-119450711D01*
X118287219Y-120543492D01*
X118357724Y-120872107D01*
X118668463Y-121042873D01*
X119006545Y-121149735D01*
X119358979Y-121188587D01*
X119712221Y-121157936D01*
X120052695Y-121058961D01*
X120344288Y-120907431D01*
X120366051Y-120933949D01*
X120495480Y-121040169D01*
X120643145Y-121119098D01*
X120803371Y-121167701D01*
X120970000Y-121184113D01*
X121657500Y-121180000D01*
X121870000Y-120967500D01*
X121870000Y-119430000D01*
X121850000Y-119430000D01*
X121850000Y-119330000D01*
X121870000Y-119330000D01*
X121870000Y-117792500D01*
X121970000Y-117792500D01*
X121970000Y-119330000D01*
X121990000Y-119330000D01*
X121990000Y-119430000D01*
X121970000Y-119430000D01*
X121970000Y-120967500D01*
X122182500Y-121180000D01*
X122870000Y-121184113D01*
X123036629Y-121167701D01*
X123196855Y-121119098D01*
X123344520Y-121040169D01*
X123473949Y-120933949D01*
X123499372Y-120902971D01*
X123607380Y-120975139D01*
X123934959Y-121110827D01*
X124282716Y-121180000D01*
X124637284Y-121180000D01*
X124985041Y-121110827D01*
X125312620Y-120975139D01*
X125420628Y-120902971D01*
X125446051Y-120933949D01*
X125575480Y-121040169D01*
X125723145Y-121119098D01*
X125883371Y-121167701D01*
X126050000Y-121184113D01*
X126737500Y-121180000D01*
X126950000Y-120967500D01*
X126950000Y-119430000D01*
X126930000Y-119430000D01*
X126930000Y-119330000D01*
X126950000Y-119330000D01*
X126950000Y-119310000D01*
X127050000Y-119310000D01*
X127050000Y-119330000D01*
X127070000Y-119330000D01*
X127070000Y-119430000D01*
X127050000Y-119430000D01*
X127050000Y-120967500D01*
X127262500Y-121180000D01*
X127950000Y-121184113D01*
X128116629Y-121167701D01*
X128276855Y-121119098D01*
X128424520Y-121040169D01*
X128553949Y-120933949D01*
X128579372Y-120902971D01*
X128687380Y-120975139D01*
X129014959Y-121110827D01*
X129362716Y-121180000D01*
X129717284Y-121180000D01*
X130065041Y-121110827D01*
X130392620Y-120975139D01*
X130687433Y-120778151D01*
X130938151Y-120527433D01*
X131135139Y-120232620D01*
X131270827Y-119905041D01*
X131340000Y-119557284D01*
X131340000Y-119202716D01*
X131270827Y-118854959D01*
X131135139Y-118527380D01*
X130938151Y-118232567D01*
X130690000Y-117984416D01*
X130690000Y-117531491D01*
X130695564Y-117475000D01*
X130673360Y-117249561D01*
X130607602Y-117032784D01*
X130508296Y-116846997D01*
X130500816Y-116833003D01*
X130357107Y-116657893D01*
X130313221Y-116621877D01*
X129758125Y-116066781D01*
X129722107Y-116022893D01*
X129546997Y-115879184D01*
X129347215Y-115772398D01*
X129130439Y-115706640D01*
X128961492Y-115690000D01*
X128961482Y-115690000D01*
X128905000Y-115684437D01*
X128848518Y-115690000D01*
X125151492Y-115690000D01*
X125095000Y-115684436D01*
X124869561Y-115706640D01*
X124652784Y-115772398D01*
X124563618Y-115820059D01*
X124453003Y-115879184D01*
X124277893Y-116022893D01*
X124241875Y-116066781D01*
X123686776Y-116621880D01*
X123642894Y-116657893D01*
X123539804Y-116783509D01*
X123499185Y-116833003D01*
X123392399Y-117032785D01*
X123326641Y-117249561D01*
X123304437Y-117475000D01*
X123310001Y-117531491D01*
X123310001Y-117701380D01*
X123196855Y-117640902D01*
X123036629Y-117592299D01*
X122870000Y-117575887D01*
X122182500Y-117580000D01*
X121970000Y-117792500D01*
X121870000Y-117792500D01*
X121657500Y-117580000D01*
X120970000Y-117575887D01*
X120803371Y-117592299D01*
X120643145Y-117640902D01*
X120495480Y-117719831D01*
X120366051Y-117826051D01*
X120342333Y-117854951D01*
X120091537Y-117717127D01*
X119753455Y-117610265D01*
X119401021Y-117571413D01*
X119047779Y-117602064D01*
X118707305Y-117701039D01*
X118392682Y-117864537D01*
X118357724Y-117887893D01*
X118287219Y-118216508D01*
X117555000Y-118216508D01*
X117555000Y-118034188D01*
X123462702Y-112126487D01*
X123514213Y-112084213D01*
X123556487Y-112032702D01*
X123556490Y-112032699D01*
X123682915Y-111878650D01*
X123808271Y-111644123D01*
X123808272Y-111644122D01*
X123885467Y-111389646D01*
X123905000Y-111191321D01*
X123905000Y-111191312D01*
X123911531Y-111125001D01*
X123905000Y-111058690D01*
X123905000Y-109921310D01*
X123911531Y-109854999D01*
X123905000Y-109788688D01*
X123905000Y-109788679D01*
X123885467Y-109590354D01*
X123808272Y-109335878D01*
X123714014Y-109159533D01*
X123682915Y-109101350D01*
X123556490Y-108947301D01*
X123556483Y-108947294D01*
X123514212Y-108895787D01*
X123462707Y-108853518D01*
X120942357Y-106333169D01*
X120918513Y-106213297D01*
X120797902Y-105922116D01*
X120622801Y-105660059D01*
X120399941Y-105437199D01*
X120137884Y-105262098D01*
X119846703Y-105141487D01*
X119537586Y-105080000D01*
X119222414Y-105080000D01*
X118913297Y-105141487D01*
X118622116Y-105262098D01*
X118520494Y-105330000D01*
X115001319Y-105330000D01*
X114935000Y-105323468D01*
X114868681Y-105330000D01*
X114868679Y-105330000D01*
X114670354Y-105349533D01*
X114475105Y-105408761D01*
X114415877Y-105426728D01*
X114181350Y-105552085D01*
X114103671Y-105615835D01*
X113975787Y-105720787D01*
X113933509Y-105772303D01*
X110565812Y-109140000D01*
X108317784Y-109140000D01*
X108357058Y-109106345D01*
X108641734Y-108744016D01*
X108850253Y-108333111D01*
X108972720Y-107896922D01*
X108796915Y-107530000D01*
X105460000Y-107530000D01*
X105460000Y-107550000D01*
X105360000Y-107550000D01*
X105360000Y-107530000D01*
X105340000Y-107530000D01*
X105340000Y-107430000D01*
X105360000Y-107430000D01*
X105360000Y-105130000D01*
X105460000Y-105130000D01*
X105460000Y-107430000D01*
X108796915Y-107430000D01*
X108972720Y-107063078D01*
X108850253Y-106626889D01*
X108641734Y-106215984D01*
X108357058Y-105853655D01*
X108007165Y-105553825D01*
X107605501Y-105328017D01*
X107167502Y-105184909D01*
X106710000Y-105130000D01*
X105460000Y-105130000D01*
X105360000Y-105130000D01*
X104110000Y-105130000D01*
X103652498Y-105184909D01*
X103214499Y-105328017D01*
X102960000Y-105471092D01*
X102960000Y-103864558D01*
X102925997Y-103519320D01*
X102838291Y-103230194D01*
X103098093Y-103443407D01*
X103506343Y-103661621D01*
X103949320Y-103795997D01*
X104294558Y-103830000D01*
X106525442Y-103830000D01*
X106870680Y-103795997D01*
X107313657Y-103661621D01*
X107721907Y-103443407D01*
X108079741Y-103149741D01*
X108373407Y-102791907D01*
X108591621Y-102383657D01*
X108725997Y-101940680D01*
X108771370Y-101480000D01*
X108725997Y-101019320D01*
X108591621Y-100576343D01*
X108502916Y-100410387D01*
X111750324Y-100410387D01*
X112066718Y-100948915D01*
X112725903Y-101323908D01*
X113445580Y-101563096D01*
X114198092Y-101657286D01*
X114954521Y-101602858D01*
X115685796Y-101401905D01*
X116363816Y-101062148D01*
X116533282Y-100948915D01*
X116849676Y-100410387D01*
X114300000Y-97860711D01*
X111750324Y-100410387D01*
X108502916Y-100410387D01*
X108373407Y-100168093D01*
X108079741Y-99810259D01*
X107721907Y-99516593D01*
X107313657Y-99298379D01*
X106870680Y-99164003D01*
X106525442Y-99130000D01*
X104294558Y-99130000D01*
X103949320Y-99164003D01*
X103506343Y-99298379D01*
X103098093Y-99516593D01*
X102740259Y-99810259D01*
X102446593Y-100168093D01*
X102228379Y-100576343D01*
X102094003Y-101019320D01*
X102048630Y-101480000D01*
X102094003Y-101940680D01*
X102181709Y-102229806D01*
X101921907Y-102016593D01*
X101513657Y-101798379D01*
X101070680Y-101664003D01*
X100610000Y-101618630D01*
X100149321Y-101664003D01*
X99706344Y-101798379D01*
X99298094Y-102016593D01*
X98940260Y-102310259D01*
X98646594Y-102668093D01*
X98581433Y-102790000D01*
X98220000Y-102790000D01*
X98180168Y-102715481D01*
X98073948Y-102586052D01*
X97944519Y-102479832D01*
X97796855Y-102400903D01*
X97636629Y-102352300D01*
X97470000Y-102335888D01*
X95570000Y-102335888D01*
X95403371Y-102352300D01*
X95243145Y-102400903D01*
X95095481Y-102479832D01*
X94966052Y-102586052D01*
X94859832Y-102715481D01*
X94780903Y-102863145D01*
X94732300Y-103023371D01*
X94715888Y-103190000D01*
X94715888Y-105090000D01*
X94732300Y-105256629D01*
X94780903Y-105416855D01*
X94859832Y-105564519D01*
X94919067Y-105636697D01*
X94826711Y-105774918D01*
X94682675Y-106122653D01*
X94609245Y-106491807D01*
X94609245Y-106868193D01*
X94682208Y-107235000D01*
X88824188Y-107235000D01*
X88631492Y-107042304D01*
X88589213Y-106990787D01*
X88383649Y-106822085D01*
X88149122Y-106696728D01*
X87894646Y-106619533D01*
X87696321Y-106600000D01*
X87696319Y-106600000D01*
X87630000Y-106593468D01*
X87563681Y-106600000D01*
X81981319Y-106600000D01*
X81915000Y-106593468D01*
X81848681Y-106600000D01*
X81848679Y-106600000D01*
X81650354Y-106619533D01*
X81455105Y-106678761D01*
X81395877Y-106696728D01*
X81278614Y-106759407D01*
X81161351Y-106822085D01*
X80955787Y-106990787D01*
X80913505Y-107042308D01*
X80372300Y-107583513D01*
X80320788Y-107625787D01*
X80278514Y-107677298D01*
X80278510Y-107677302D01*
X80152085Y-107831351D01*
X80026729Y-108065878D01*
X79949534Y-108320354D01*
X79923468Y-108585000D01*
X79930001Y-108651328D01*
X79930001Y-108790000D01*
X79855481Y-108829832D01*
X79726052Y-108936052D01*
X79619832Y-109065481D01*
X79540903Y-109213145D01*
X79492300Y-109373371D01*
X79475888Y-109540000D01*
X79475888Y-111440000D01*
X79492300Y-111606629D01*
X79540903Y-111766855D01*
X79619832Y-111914519D01*
X79726052Y-112043948D01*
X79855481Y-112150168D01*
X80003145Y-112229097D01*
X80163371Y-112277700D01*
X80330000Y-112294112D01*
X82230000Y-112294112D01*
X82396629Y-112277700D01*
X82549998Y-112231177D01*
X82703371Y-112277701D01*
X82870000Y-112294113D01*
X83557500Y-112290000D01*
X83770000Y-112077500D01*
X83770000Y-110540000D01*
X83750000Y-110540000D01*
X83750000Y-110440000D01*
X83770000Y-110440000D01*
X83770000Y-110420000D01*
X83870000Y-110420000D01*
X83870000Y-110440000D01*
X83890000Y-110440000D01*
X83890000Y-110540000D01*
X83870000Y-110540000D01*
X83870000Y-112077500D01*
X84082500Y-112290000D01*
X84552996Y-112292815D01*
X80720812Y-116125000D01*
X80076319Y-116125000D01*
X80010000Y-116118468D01*
X79943681Y-116125000D01*
X79943679Y-116125000D01*
X79745354Y-116144533D01*
X79569085Y-116198004D01*
X79490877Y-116221728D01*
X79373615Y-116284406D01*
X79256351Y-116347085D01*
X79050787Y-116515787D01*
X79008505Y-116567308D01*
X78467300Y-117108513D01*
X78415788Y-117150787D01*
X78373514Y-117202298D01*
X78373510Y-117202302D01*
X78247085Y-117356351D01*
X78121729Y-117590878D01*
X78044534Y-117845354D01*
X78018468Y-118110000D01*
X77250000Y-118110000D01*
X77250000Y-105844923D01*
X82684536Y-100410387D01*
X93970324Y-100410387D01*
X94286718Y-100948915D01*
X94945903Y-101323908D01*
X95665580Y-101563096D01*
X96418092Y-101657286D01*
X97174521Y-101602858D01*
X97905796Y-101401905D01*
X98583816Y-101062148D01*
X98753282Y-100948915D01*
X99069676Y-100410387D01*
X96520000Y-97860711D01*
X93970324Y-100410387D01*
X82684536Y-100410387D01*
X85406831Y-97688092D01*
X92652714Y-97688092D01*
X92707142Y-98444521D01*
X92908095Y-99175796D01*
X93247852Y-99853816D01*
X93361085Y-100023282D01*
X93899613Y-100339676D01*
X96449289Y-97790000D01*
X96590711Y-97790000D01*
X99140387Y-100339676D01*
X99678915Y-100023282D01*
X100053908Y-99364097D01*
X100293096Y-98644420D01*
X100387286Y-97891908D01*
X100372621Y-97688092D01*
X110432714Y-97688092D01*
X110487142Y-98444521D01*
X110688095Y-99175796D01*
X111027852Y-99853816D01*
X111141085Y-100023282D01*
X111679613Y-100339676D01*
X114229289Y-97790000D01*
X114370711Y-97790000D01*
X116920387Y-100339676D01*
X117458915Y-100023282D01*
X117833908Y-99364097D01*
X118073096Y-98644420D01*
X118167286Y-97891908D01*
X118112858Y-97135479D01*
X117911905Y-96404204D01*
X117572148Y-95726184D01*
X117458915Y-95556718D01*
X116920387Y-95240324D01*
X114370711Y-97790000D01*
X114229289Y-97790000D01*
X111679613Y-95240324D01*
X111141085Y-95556718D01*
X110766092Y-96215903D01*
X110526904Y-96935580D01*
X110432714Y-97688092D01*
X100372621Y-97688092D01*
X100332858Y-97135479D01*
X100131905Y-96404204D01*
X99792148Y-95726184D01*
X99678915Y-95556718D01*
X99140387Y-95240324D01*
X96590711Y-97790000D01*
X96449289Y-97790000D01*
X93899613Y-95240324D01*
X93361085Y-95556718D01*
X92986092Y-96215903D01*
X92746904Y-96935580D01*
X92652714Y-97688092D01*
X85406831Y-97688092D01*
X88064924Y-95030000D01*
X94052349Y-95030000D01*
X93970324Y-95169613D01*
G04 #@! TA.AperFunction,Conductor*
D22*
G36*
X93970324Y-95169613D02*
G01*
X96520000Y-97719289D01*
X99069676Y-95169613D01*
X98987651Y-95030000D01*
X111832349Y-95030000D01*
X111750324Y-95169613D01*
X114300000Y-97719289D01*
X116849676Y-95169613D01*
X116767651Y-95030000D01*
X122755077Y-95030000D01*
X133570000Y-105844924D01*
X133570001Y-178020000D01*
X107016431Y-178020000D01*
X107070169Y-177954520D01*
X107149098Y-177806855D01*
X107197701Y-177646629D01*
X107214113Y-177480000D01*
X107210000Y-176792500D01*
X106997500Y-176580000D01*
X105460000Y-176580000D01*
X105460000Y-176600000D01*
X105360000Y-176600000D01*
X105360000Y-176580000D01*
X103822500Y-176580000D01*
X103610000Y-176792500D01*
X103605887Y-177480000D01*
X103622299Y-177646629D01*
X103670902Y-177806855D01*
X103749831Y-177954520D01*
X103803569Y-178020000D01*
X77250000Y-178020000D01*
X77250000Y-160975000D01*
X79475888Y-160975000D01*
X79475888Y-162875000D01*
X79492300Y-163041629D01*
X79540903Y-163201855D01*
X79619832Y-163349519D01*
X79726052Y-163478948D01*
X79855481Y-163585168D01*
X80003145Y-163664097D01*
X80163371Y-163712700D01*
X80330000Y-163729112D01*
X82230000Y-163729112D01*
X82396629Y-163712700D01*
X82556855Y-163664097D01*
X82704519Y-163585168D01*
X82833948Y-163478948D01*
X82940168Y-163349519D01*
X83019097Y-163201855D01*
X83067700Y-163041629D01*
X83084112Y-162875000D01*
X83084112Y-160975000D01*
X83067700Y-160808371D01*
X83019097Y-160648145D01*
X82940168Y-160500481D01*
X82833948Y-160371052D01*
X82714487Y-160273013D01*
X82890000Y-160097500D01*
X82890000Y-158010000D01*
X80802500Y-158010000D01*
X80590000Y-158222500D01*
X80585887Y-159460000D01*
X80602299Y-159626629D01*
X80650902Y-159786855D01*
X80729831Y-159934520D01*
X80836051Y-160063949D01*
X80905431Y-160120888D01*
X80330000Y-160120888D01*
X80163371Y-160137300D01*
X80003145Y-160185903D01*
X79855481Y-160264832D01*
X79726052Y-160371052D01*
X79619832Y-160500481D01*
X79540903Y-160648145D01*
X79492300Y-160808371D01*
X79475888Y-160975000D01*
X77250000Y-160975000D01*
X77250000Y-156460000D01*
X80585887Y-156460000D01*
X80590000Y-157697500D01*
X80802500Y-157910000D01*
X82890000Y-157910000D01*
X82890000Y-155822500D01*
X82677500Y-155610000D01*
X81440000Y-155605887D01*
X81273371Y-155622299D01*
X81113145Y-155670902D01*
X80965480Y-155749831D01*
X80836051Y-155856051D01*
X80729831Y-155985480D01*
X80650902Y-156133145D01*
X80602299Y-156293371D01*
X80585887Y-156460000D01*
X77250000Y-156460000D01*
X77250000Y-145892414D01*
X78410000Y-145892414D01*
X78410000Y-146207586D01*
X78471487Y-146516703D01*
X78592098Y-146807884D01*
X78767199Y-147069941D01*
X78990059Y-147292801D01*
X79252116Y-147467902D01*
X79543297Y-147588513D01*
X79852414Y-147650000D01*
X79983656Y-147650000D01*
X84575001Y-152241347D01*
X84575001Y-155619184D01*
X84440000Y-155605887D01*
X83202500Y-155610000D01*
X82990000Y-155822500D01*
X82990000Y-157910000D01*
X83010000Y-157910000D01*
X83010000Y-158010000D01*
X82990000Y-158010000D01*
X82990000Y-160097500D01*
X83202500Y-160310000D01*
X84440000Y-160314113D01*
X84575001Y-160300816D01*
X84575000Y-168853518D01*
X84569437Y-168910000D01*
X84575000Y-168966482D01*
X84575000Y-168966491D01*
X84591640Y-169135438D01*
X84657398Y-169352214D01*
X84764184Y-169551996D01*
X84907893Y-169727107D01*
X84951781Y-169763125D01*
X85063733Y-169875077D01*
X84942098Y-170057116D01*
X84821487Y-170348297D01*
X84760000Y-170657414D01*
X84760000Y-170972586D01*
X84821487Y-171281703D01*
X84942098Y-171572884D01*
X85117199Y-171834941D01*
X85340059Y-172057801D01*
X85602116Y-172232902D01*
X85893297Y-172353513D01*
X86202414Y-172415000D01*
X86517586Y-172415000D01*
X86826703Y-172353513D01*
X87117884Y-172232902D01*
X87379941Y-172057801D01*
X87602801Y-171834941D01*
X87777902Y-171572884D01*
X87898513Y-171281703D01*
X87960000Y-170972586D01*
X87960000Y-170657414D01*
X87898513Y-170348297D01*
X87777902Y-170057116D01*
X87602801Y-169795059D01*
X87510000Y-169702258D01*
X87510000Y-169601492D01*
X87515564Y-169545000D01*
X87493360Y-169319561D01*
X87427602Y-169102784D01*
X87356876Y-168970467D01*
X87320816Y-168903003D01*
X87177107Y-168727893D01*
X87133219Y-168691875D01*
X86875000Y-168433656D01*
X86875000Y-161747716D01*
X88370000Y-161747716D01*
X88370000Y-162102284D01*
X88439173Y-162450041D01*
X88574861Y-162777620D01*
X88771849Y-163072433D01*
X89022567Y-163323151D01*
X89317380Y-163520139D01*
X89644959Y-163655827D01*
X89992716Y-163725000D01*
X90347284Y-163725000D01*
X90695041Y-163655827D01*
X91022620Y-163520139D01*
X91317433Y-163323151D01*
X91568151Y-163072433D01*
X91765139Y-162777620D01*
X91900827Y-162450041D01*
X91970000Y-162102284D01*
X91970000Y-161747716D01*
X91900827Y-161399959D01*
X91765139Y-161072380D01*
X91568151Y-160777567D01*
X91317433Y-160526849D01*
X91022620Y-160329861D01*
X90928767Y-160290986D01*
X91066855Y-160249098D01*
X91214520Y-160170169D01*
X91343949Y-160063949D01*
X91450169Y-159934520D01*
X91529098Y-159786855D01*
X91577701Y-159626629D01*
X91594113Y-159460000D01*
X91590000Y-158222500D01*
X91377500Y-158010000D01*
X89290000Y-158010000D01*
X89290000Y-160097500D01*
X89462323Y-160269823D01*
X89317380Y-160329861D01*
X89022567Y-160526849D01*
X88771849Y-160777567D01*
X88574861Y-161072380D01*
X88439173Y-161399959D01*
X88370000Y-161747716D01*
X86875000Y-161747716D01*
X86875000Y-159460000D01*
X86885887Y-159460000D01*
X86902299Y-159626629D01*
X86950902Y-159786855D01*
X87029831Y-159934520D01*
X87136051Y-160063949D01*
X87265480Y-160170169D01*
X87413145Y-160249098D01*
X87573371Y-160297701D01*
X87740000Y-160314113D01*
X88977500Y-160310000D01*
X89190000Y-160097500D01*
X89190000Y-158010000D01*
X87102500Y-158010000D01*
X86890000Y-158222500D01*
X86885887Y-159460000D01*
X86875000Y-159460000D01*
X86875000Y-156460000D01*
X86885887Y-156460000D01*
X86890000Y-157697500D01*
X87102500Y-157910000D01*
X89190000Y-157910000D01*
X89190000Y-155822500D01*
X89290000Y-155822500D01*
X89290000Y-157910000D01*
X91377500Y-157910000D01*
X91590000Y-157697500D01*
X91594113Y-156460000D01*
X91577701Y-156293371D01*
X91529098Y-156133145D01*
X91450169Y-155985480D01*
X91343949Y-155856051D01*
X91214520Y-155749831D01*
X91066855Y-155670902D01*
X90906629Y-155622299D01*
X90740000Y-155605887D01*
X89502500Y-155610000D01*
X89290000Y-155822500D01*
X89190000Y-155822500D01*
X88977500Y-155610000D01*
X87740000Y-155605887D01*
X87573371Y-155622299D01*
X87413145Y-155670902D01*
X87265480Y-155749831D01*
X87136051Y-155856051D01*
X87029831Y-155985480D01*
X86950902Y-156133145D01*
X86902299Y-156293371D01*
X86885887Y-156460000D01*
X86875000Y-156460000D01*
X86875000Y-151821492D01*
X86880564Y-151765000D01*
X86858360Y-151539561D01*
X86792602Y-151322784D01*
X86685816Y-151123003D01*
X86578119Y-150991773D01*
X86578115Y-150991769D01*
X86542107Y-150947893D01*
X86498230Y-150911884D01*
X81610000Y-146023656D01*
X81610000Y-145892414D01*
X81548513Y-145583297D01*
X81427902Y-145292116D01*
X81252801Y-145030059D01*
X81029941Y-144807199D01*
X80767884Y-144632098D01*
X80476703Y-144511487D01*
X80167586Y-144450000D01*
X79852414Y-144450000D01*
X79543297Y-144511487D01*
X79252116Y-144632098D01*
X78990059Y-144807199D01*
X78767199Y-145030059D01*
X78592098Y-145292116D01*
X78471487Y-145583297D01*
X78410000Y-145892414D01*
X77250000Y-145892414D01*
X77250000Y-143260000D01*
X80585887Y-143260000D01*
X80602299Y-143426629D01*
X80650902Y-143586855D01*
X80729831Y-143734520D01*
X80836051Y-143863949D01*
X80965480Y-143970169D01*
X81113145Y-144049098D01*
X81273371Y-144097701D01*
X81440000Y-144114113D01*
X82677500Y-144110000D01*
X82890000Y-143897500D01*
X82890000Y-141810000D01*
X82990000Y-141810000D01*
X82990000Y-143897500D01*
X83202500Y-144110000D01*
X84440000Y-144114113D01*
X84606629Y-144097701D01*
X84766855Y-144049098D01*
X84914520Y-143970169D01*
X85043949Y-143863949D01*
X85150169Y-143734520D01*
X85229098Y-143586855D01*
X85277701Y-143426629D01*
X85294113Y-143260000D01*
X86885887Y-143260000D01*
X86902299Y-143426629D01*
X86950902Y-143586855D01*
X87029831Y-143734520D01*
X87136051Y-143863949D01*
X87265480Y-143970169D01*
X87413145Y-144049098D01*
X87573371Y-144097701D01*
X87740000Y-144114113D01*
X88977500Y-144110000D01*
X89190000Y-143897500D01*
X89190000Y-141810000D01*
X89290000Y-141810000D01*
X89290000Y-143897500D01*
X89502500Y-144110000D01*
X90740000Y-144114113D01*
X90906629Y-144097701D01*
X91066855Y-144049098D01*
X91214520Y-143970169D01*
X91343949Y-143863949D01*
X91450169Y-143734520D01*
X91529098Y-143586855D01*
X91577701Y-143426629D01*
X91594113Y-143260000D01*
X91590000Y-142022500D01*
X91377500Y-141810000D01*
X89290000Y-141810000D01*
X89190000Y-141810000D01*
X87102500Y-141810000D01*
X86890000Y-142022500D01*
X86885887Y-143260000D01*
X85294113Y-143260000D01*
X85290000Y-142022500D01*
X85077500Y-141810000D01*
X82990000Y-141810000D01*
X82890000Y-141810000D01*
X80802500Y-141810000D01*
X80590000Y-142022500D01*
X80585887Y-143260000D01*
X77250000Y-143260000D01*
X77250000Y-140260000D01*
X80585887Y-140260000D01*
X80590000Y-141497500D01*
X80802500Y-141710000D01*
X82890000Y-141710000D01*
X82890000Y-139622500D01*
X82990000Y-139622500D01*
X82990000Y-141710000D01*
X85077500Y-141710000D01*
X85290000Y-141497500D01*
X85294113Y-140260000D01*
X86885887Y-140260000D01*
X86890000Y-141497500D01*
X87102500Y-141710000D01*
X89190000Y-141710000D01*
X89190000Y-139622500D01*
X89290000Y-139622500D01*
X89290000Y-141710000D01*
X91377500Y-141710000D01*
X91590000Y-141497500D01*
X91594113Y-140260000D01*
X93185888Y-140260000D01*
X93185888Y-143260000D01*
X93202300Y-143426629D01*
X93250903Y-143586855D01*
X93329832Y-143734519D01*
X93436052Y-143863948D01*
X93565481Y-143970168D01*
X93713145Y-144049097D01*
X93873371Y-144097700D01*
X94040000Y-144114112D01*
X97040000Y-144114112D01*
X97206629Y-144097700D01*
X97366855Y-144049097D01*
X97514519Y-143970168D01*
X97643948Y-143863948D01*
X97750168Y-143734519D01*
X97829097Y-143586855D01*
X97877700Y-143426629D01*
X97894112Y-143260000D01*
X97894112Y-140260000D01*
X97877700Y-140093371D01*
X97829097Y-139933145D01*
X97750168Y-139785481D01*
X97643948Y-139656052D01*
X97514519Y-139549832D01*
X97366855Y-139470903D01*
X97206629Y-139422300D01*
X97040000Y-139405888D01*
X94040000Y-139405888D01*
X93873371Y-139422300D01*
X93713145Y-139470903D01*
X93565481Y-139549832D01*
X93436052Y-139656052D01*
X93329832Y-139785481D01*
X93250903Y-139933145D01*
X93202300Y-140093371D01*
X93185888Y-140260000D01*
X91594113Y-140260000D01*
X91577701Y-140093371D01*
X91529098Y-139933145D01*
X91450169Y-139785480D01*
X91343949Y-139656051D01*
X91214520Y-139549831D01*
X91066855Y-139470902D01*
X90906629Y-139422299D01*
X90740000Y-139405887D01*
X89502500Y-139410000D01*
X89290000Y-139622500D01*
X89190000Y-139622500D01*
X88977500Y-139410000D01*
X87740000Y-139405887D01*
X87573371Y-139422299D01*
X87413145Y-139470902D01*
X87265480Y-139549831D01*
X87136051Y-139656051D01*
X87029831Y-139785480D01*
X86950902Y-139933145D01*
X86902299Y-140093371D01*
X86885887Y-140260000D01*
X85294113Y-140260000D01*
X85277701Y-140093371D01*
X85229098Y-139933145D01*
X85150169Y-139785480D01*
X85043949Y-139656051D01*
X84914520Y-139549831D01*
X84766855Y-139470902D01*
X84606629Y-139422299D01*
X84440000Y-139405887D01*
X83202500Y-139410000D01*
X82990000Y-139622500D01*
X82890000Y-139622500D01*
X82677500Y-139410000D01*
X81440000Y-139405887D01*
X81273371Y-139422299D01*
X81113145Y-139470902D01*
X80965480Y-139549831D01*
X80836051Y-139656051D01*
X80729831Y-139785480D01*
X80650902Y-139933145D01*
X80602299Y-140093371D01*
X80585887Y-140260000D01*
X77250000Y-140260000D01*
X77250000Y-118110000D01*
X78018468Y-118110000D01*
X78025001Y-118176329D01*
X78025000Y-120583681D01*
X78018468Y-120650000D01*
X78025000Y-120716319D01*
X78025000Y-120716320D01*
X78044533Y-120914645D01*
X78121728Y-121169121D01*
X78140906Y-121205000D01*
X78247085Y-121403649D01*
X78373510Y-121557698D01*
X78373513Y-121557701D01*
X78415787Y-121609212D01*
X78467300Y-121651488D01*
X79008505Y-122192692D01*
X79050787Y-122244213D01*
X79256351Y-122412915D01*
X79308079Y-122440564D01*
X79490877Y-122538272D01*
X79523896Y-122548288D01*
X79745354Y-122615467D01*
X79943679Y-122635000D01*
X79943681Y-122635000D01*
X80010000Y-122641532D01*
X80076319Y-122635000D01*
X81355812Y-122635000D01*
X83136009Y-124415197D01*
X83178287Y-124466713D01*
X83229802Y-124508990D01*
X83383850Y-124635415D01*
X83618377Y-124760772D01*
X83677605Y-124778739D01*
X83872854Y-124837967D01*
X84071179Y-124857500D01*
X84071181Y-124857500D01*
X84137500Y-124864032D01*
X84203819Y-124857500D01*
X84775896Y-124857500D01*
X84760000Y-124937414D01*
X84760000Y-125252586D01*
X84821487Y-125561703D01*
X84942098Y-125852884D01*
X85117199Y-126114941D01*
X85340059Y-126337801D01*
X85602116Y-126512902D01*
X85893297Y-126633513D01*
X86202414Y-126695000D01*
X86333656Y-126695000D01*
X101085000Y-141446346D01*
X101085001Y-143453509D01*
X101079437Y-143510000D01*
X101085001Y-143566492D01*
X101101641Y-143735439D01*
X101167399Y-143952215D01*
X101274185Y-144151997D01*
X101417894Y-144327107D01*
X101461776Y-144363120D01*
X103286880Y-146188225D01*
X103322893Y-146232107D01*
X103498003Y-146375816D01*
X103697785Y-146482602D01*
X103914561Y-146548360D01*
X104083508Y-146565000D01*
X104083516Y-146565000D01*
X104140000Y-146570563D01*
X104196484Y-146565000D01*
X110648656Y-146565000D01*
X116960000Y-152876345D01*
X116960000Y-155626355D01*
X116946629Y-155622299D01*
X116780000Y-155605887D01*
X115542500Y-155610000D01*
X115330000Y-155822500D01*
X115330000Y-157910000D01*
X115350000Y-157910000D01*
X115350000Y-158010000D01*
X115330000Y-158010000D01*
X115330000Y-160097500D01*
X115542500Y-160310000D01*
X116780000Y-160314113D01*
X116946629Y-160297701D01*
X116960001Y-160293645D01*
X116960001Y-167120813D01*
X116571490Y-166732302D01*
X116529213Y-166680787D01*
X116323649Y-166512085D01*
X116089122Y-166386728D01*
X115834646Y-166309533D01*
X115636321Y-166290000D01*
X115636319Y-166290000D01*
X115570000Y-166283468D01*
X115503681Y-166290000D01*
X112504263Y-166290000D01*
X112497700Y-166223371D01*
X112449097Y-166063145D01*
X112370168Y-165915481D01*
X112263948Y-165786052D01*
X112134519Y-165679832D01*
X112059999Y-165640000D01*
X112134519Y-165600168D01*
X112263948Y-165493948D01*
X112370168Y-165364519D01*
X112449097Y-165216855D01*
X112497700Y-165056629D01*
X112514112Y-164890000D01*
X112514112Y-162390000D01*
X112497700Y-162223371D01*
X112449097Y-162063145D01*
X112370168Y-161915481D01*
X112263948Y-161786052D01*
X112134519Y-161679832D01*
X111986855Y-161600903D01*
X111826629Y-161552300D01*
X111660000Y-161535888D01*
X109160000Y-161535888D01*
X108993371Y-161552300D01*
X108833145Y-161600903D01*
X108685481Y-161679832D01*
X108556052Y-161786052D01*
X108449832Y-161915481D01*
X108370903Y-162063145D01*
X108322300Y-162223371D01*
X108305888Y-162390000D01*
X108305888Y-162586775D01*
X108133003Y-162679184D01*
X108133001Y-162679185D01*
X108133002Y-162679185D01*
X108001772Y-162786882D01*
X108001769Y-162786885D01*
X107957893Y-162822893D01*
X107921884Y-162866770D01*
X107514112Y-163274543D01*
X107514112Y-162390000D01*
X107497700Y-162223371D01*
X107449097Y-162063145D01*
X107370168Y-161915481D01*
X107263948Y-161786052D01*
X107134519Y-161679832D01*
X106986855Y-161600903D01*
X106826629Y-161552300D01*
X106660000Y-161535888D01*
X104160000Y-161535888D01*
X103993371Y-161552300D01*
X103833145Y-161600903D01*
X103685481Y-161679832D01*
X103556052Y-161786052D01*
X103449832Y-161915481D01*
X103370903Y-162063145D01*
X103322300Y-162223371D01*
X103305888Y-162390000D01*
X103305888Y-164890000D01*
X103322300Y-165056629D01*
X103370903Y-165216855D01*
X103449832Y-165364519D01*
X103556052Y-165493948D01*
X103685481Y-165600168D01*
X103759999Y-165639999D01*
X103685480Y-165679831D01*
X103556051Y-165786051D01*
X103449831Y-165915480D01*
X103370902Y-166063145D01*
X103322299Y-166223371D01*
X103305887Y-166390000D01*
X103310000Y-167377500D01*
X103522500Y-167590000D01*
X105360000Y-167590000D01*
X105360000Y-167570000D01*
X105460000Y-167570000D01*
X105460000Y-167590000D01*
X105480000Y-167590000D01*
X105480000Y-167690000D01*
X105460000Y-167690000D01*
X105460000Y-167710000D01*
X105360000Y-167710000D01*
X105360000Y-167690000D01*
X103522500Y-167690000D01*
X103310000Y-167902500D01*
X103305887Y-168890000D01*
X103322299Y-169056629D01*
X103370902Y-169216855D01*
X103449831Y-169364520D01*
X103556051Y-169493949D01*
X103685480Y-169600169D01*
X103759999Y-169640001D01*
X103685481Y-169679832D01*
X103556052Y-169786052D01*
X103449832Y-169915481D01*
X103370903Y-170063145D01*
X103322300Y-170223371D01*
X103305888Y-170390000D01*
X103305888Y-172890000D01*
X103322300Y-173056629D01*
X103370903Y-173216855D01*
X103401983Y-173275000D01*
X102418017Y-173275000D01*
X102449097Y-173216855D01*
X102497700Y-173056629D01*
X102514112Y-172890000D01*
X102514112Y-170390000D01*
X102497700Y-170223371D01*
X102449097Y-170063145D01*
X102370168Y-169915481D01*
X102263948Y-169786052D01*
X102134519Y-169679832D01*
X102059999Y-169640000D01*
X102134519Y-169600168D01*
X102263948Y-169493948D01*
X102370168Y-169364519D01*
X102449097Y-169216855D01*
X102497700Y-169056629D01*
X102514112Y-168890000D01*
X102514112Y-166390000D01*
X102497700Y-166223371D01*
X102449097Y-166063145D01*
X102370168Y-165915481D01*
X102263948Y-165786052D01*
X102134519Y-165679832D01*
X102059999Y-165640000D01*
X102134519Y-165600168D01*
X102263948Y-165493948D01*
X102370168Y-165364519D01*
X102449097Y-165216855D01*
X102497700Y-165056629D01*
X102514112Y-164890000D01*
X102514112Y-162390000D01*
X102497700Y-162223371D01*
X102449097Y-162063145D01*
X102370168Y-161915481D01*
X102263948Y-161786052D01*
X102134519Y-161679832D01*
X101986855Y-161600903D01*
X101826629Y-161552300D01*
X101660000Y-161535888D01*
X99160000Y-161535888D01*
X98993371Y-161552300D01*
X98833145Y-161600903D01*
X98685481Y-161679832D01*
X98556052Y-161786052D01*
X98449832Y-161915481D01*
X98370903Y-162063145D01*
X98322300Y-162223371D01*
X98305888Y-162390000D01*
X98305888Y-164890000D01*
X98322300Y-165056629D01*
X98370903Y-165216855D01*
X98449832Y-165364519D01*
X98556052Y-165493948D01*
X98685481Y-165600168D01*
X98760001Y-165640000D01*
X98685481Y-165679832D01*
X98556052Y-165786052D01*
X98449832Y-165915481D01*
X98370903Y-166063145D01*
X98322300Y-166223371D01*
X98318737Y-166259549D01*
X96890000Y-164830812D01*
X96890000Y-160314112D01*
X97040000Y-160314112D01*
X97206629Y-160297700D01*
X97366855Y-160249097D01*
X97514519Y-160170168D01*
X97643948Y-160063948D01*
X97750168Y-159934519D01*
X97829097Y-159786855D01*
X97877700Y-159626629D01*
X97894112Y-159460000D01*
X112925887Y-159460000D01*
X112942299Y-159626629D01*
X112990902Y-159786855D01*
X113069831Y-159934520D01*
X113176051Y-160063949D01*
X113305480Y-160170169D01*
X113453145Y-160249098D01*
X113613371Y-160297701D01*
X113780000Y-160314113D01*
X115017500Y-160310000D01*
X115230000Y-160097500D01*
X115230000Y-158010000D01*
X113142500Y-158010000D01*
X112930000Y-158222500D01*
X112925887Y-159460000D01*
X97894112Y-159460000D01*
X97894112Y-156460000D01*
X112925887Y-156460000D01*
X112930000Y-157697500D01*
X113142500Y-157910000D01*
X115230000Y-157910000D01*
X115230000Y-155822500D01*
X115017500Y-155610000D01*
X113780000Y-155605887D01*
X113613371Y-155622299D01*
X113453145Y-155670902D01*
X113305480Y-155749831D01*
X113176051Y-155856051D01*
X113069831Y-155985480D01*
X112990902Y-156133145D01*
X112942299Y-156293371D01*
X112925887Y-156460000D01*
X97894112Y-156460000D01*
X97877700Y-156293371D01*
X97829097Y-156133145D01*
X97750168Y-155985481D01*
X97643948Y-155856052D01*
X97514519Y-155749832D01*
X97366855Y-155670903D01*
X97206629Y-155622300D01*
X97040000Y-155605888D01*
X94495000Y-155605888D01*
X94495000Y-150972414D01*
X101905000Y-150972414D01*
X101905000Y-151287586D01*
X101966487Y-151596703D01*
X102087098Y-151887884D01*
X102262199Y-152149941D01*
X102485059Y-152372801D01*
X102747116Y-152547902D01*
X103038297Y-152668513D01*
X103347414Y-152730000D01*
X103662586Y-152730000D01*
X103971703Y-152668513D01*
X104262884Y-152547902D01*
X104364506Y-152480000D01*
X111535494Y-152480000D01*
X111637116Y-152547902D01*
X111928297Y-152668513D01*
X112237414Y-152730000D01*
X112552586Y-152730000D01*
X112861703Y-152668513D01*
X113152884Y-152547902D01*
X113414941Y-152372801D01*
X113637801Y-152149941D01*
X113812902Y-151887884D01*
X113933513Y-151596703D01*
X113995000Y-151287586D01*
X113995000Y-150972414D01*
X113933513Y-150663297D01*
X113812902Y-150372116D01*
X113637801Y-150110059D01*
X113414941Y-149887199D01*
X113152884Y-149712098D01*
X112861703Y-149591487D01*
X112552586Y-149530000D01*
X112237414Y-149530000D01*
X111928297Y-149591487D01*
X111637116Y-149712098D01*
X111535494Y-149780000D01*
X104364506Y-149780000D01*
X104262884Y-149712098D01*
X103971703Y-149591487D01*
X103662586Y-149530000D01*
X103347414Y-149530000D01*
X103038297Y-149591487D01*
X102747116Y-149712098D01*
X102485059Y-149887199D01*
X102262199Y-150110059D01*
X102087098Y-150372116D01*
X101966487Y-150663297D01*
X101905000Y-150972414D01*
X94495000Y-150972414D01*
X94495000Y-147162742D01*
X94587801Y-147069941D01*
X94762902Y-146807884D01*
X94883513Y-146516703D01*
X94945000Y-146207586D01*
X94945000Y-145892414D01*
X94883513Y-145583297D01*
X94762902Y-145292116D01*
X94587801Y-145030059D01*
X94364941Y-144807199D01*
X94102884Y-144632098D01*
X93811703Y-144511487D01*
X93502586Y-144450000D01*
X93187414Y-144450000D01*
X92878297Y-144511487D01*
X92587116Y-144632098D01*
X92325059Y-144807199D01*
X92102199Y-145030059D01*
X91927098Y-145292116D01*
X91806487Y-145583297D01*
X91745000Y-145892414D01*
X91745000Y-146207586D01*
X91806487Y-146516703D01*
X91927098Y-146807884D01*
X92102199Y-147069941D01*
X92195000Y-147162742D01*
X92195001Y-168433653D01*
X87299923Y-173328733D01*
X87117884Y-173207098D01*
X86826703Y-173086487D01*
X86517586Y-173025000D01*
X86202414Y-173025000D01*
X85893297Y-173086487D01*
X85602116Y-173207098D01*
X85340059Y-173382199D01*
X85117199Y-173605059D01*
X84942098Y-173867116D01*
X84821487Y-174158297D01*
X84760000Y-174467414D01*
X84760000Y-174782586D01*
X84821487Y-175091703D01*
X84942098Y-175382884D01*
X85117199Y-175644941D01*
X85340059Y-175867801D01*
X85602116Y-176042902D01*
X85893297Y-176163513D01*
X86202414Y-176225000D01*
X86517586Y-176225000D01*
X86826703Y-176163513D01*
X87117884Y-176042902D01*
X87379941Y-175867801D01*
X87472742Y-175775000D01*
X87573518Y-175775000D01*
X87630000Y-175780563D01*
X87686482Y-175775000D01*
X87686492Y-175775000D01*
X87855439Y-175758360D01*
X88072215Y-175692602D01*
X88271997Y-175585816D01*
X88447107Y-175442107D01*
X88483125Y-175398220D01*
X94118230Y-169763116D01*
X94162107Y-169727107D01*
X94198115Y-169683231D01*
X94198119Y-169683227D01*
X94305816Y-169551997D01*
X94412602Y-169352216D01*
X94478360Y-169135439D01*
X94500564Y-168910000D01*
X94495000Y-168853508D01*
X94495000Y-166244681D01*
X94538510Y-166297698D01*
X94538514Y-166297702D01*
X94580788Y-166349213D01*
X94632299Y-166391487D01*
X96788509Y-168547697D01*
X96830787Y-168599213D01*
X96987584Y-168727893D01*
X97036351Y-168767915D01*
X97270877Y-168893272D01*
X97525354Y-168970467D01*
X97790000Y-168996532D01*
X97856321Y-168990000D01*
X98315737Y-168990000D01*
X98322300Y-169056629D01*
X98370903Y-169216855D01*
X98449832Y-169364519D01*
X98556052Y-169493948D01*
X98685481Y-169600168D01*
X98760001Y-169640000D01*
X98685481Y-169679832D01*
X98556052Y-169786052D01*
X98449832Y-169915481D01*
X98370903Y-170063145D01*
X98322300Y-170223371D01*
X98305888Y-170390000D01*
X98305888Y-172890000D01*
X98322300Y-173056629D01*
X98370903Y-173216855D01*
X98449832Y-173364519D01*
X98556052Y-173493948D01*
X98685481Y-173600168D01*
X98833145Y-173679097D01*
X98993371Y-173727700D01*
X99060001Y-173734263D01*
X99060001Y-174073671D01*
X99053468Y-174140000D01*
X99079534Y-174404646D01*
X99156729Y-174659122D01*
X99282085Y-174893649D01*
X99408510Y-175047698D01*
X99408514Y-175047702D01*
X99450788Y-175099213D01*
X99502300Y-175141488D01*
X99893505Y-175532692D01*
X99935787Y-175584213D01*
X100141351Y-175752915D01*
X100375878Y-175878272D01*
X100630354Y-175955467D01*
X100828679Y-175975000D01*
X100828681Y-175975000D01*
X100895000Y-175981532D01*
X100961319Y-175975000D01*
X103608250Y-175975000D01*
X103610000Y-176267500D01*
X103822500Y-176480000D01*
X105360000Y-176480000D01*
X105360000Y-176460000D01*
X105460000Y-176460000D01*
X105460000Y-176480000D01*
X106997500Y-176480000D01*
X107210000Y-176267500D01*
X107211750Y-175975000D01*
X109858681Y-175975000D01*
X109925000Y-175981532D01*
X109991319Y-175975000D01*
X109991321Y-175975000D01*
X110189646Y-175955467D01*
X110444122Y-175878272D01*
X110678649Y-175752915D01*
X110884213Y-175584213D01*
X110926492Y-175532696D01*
X111317696Y-175141491D01*
X111369212Y-175099213D01*
X111537915Y-174893649D01*
X111663272Y-174659122D01*
X111740467Y-174404646D01*
X111760000Y-174206321D01*
X111760000Y-174206319D01*
X111766532Y-174140000D01*
X111760000Y-174073681D01*
X111760000Y-173734263D01*
X111826629Y-173727700D01*
X111986855Y-173679097D01*
X112134519Y-173600168D01*
X112263948Y-173493948D01*
X112370168Y-173364519D01*
X112449097Y-173216855D01*
X112497700Y-173056629D01*
X112514112Y-172890000D01*
X112514112Y-170390000D01*
X112497700Y-170223371D01*
X112449097Y-170063145D01*
X112370168Y-169915481D01*
X112263948Y-169786052D01*
X112134519Y-169679832D01*
X112059999Y-169640000D01*
X112134519Y-169600168D01*
X112263948Y-169493948D01*
X112370168Y-169364519D01*
X112449097Y-169216855D01*
X112497700Y-169056629D01*
X112504263Y-168990000D01*
X115010812Y-168990000D01*
X122823513Y-176802702D01*
X122865787Y-176854213D01*
X122917298Y-176896487D01*
X122917301Y-176896490D01*
X123071350Y-177022915D01*
X123196707Y-177089919D01*
X123305878Y-177148272D01*
X123560354Y-177225467D01*
X123758679Y-177245000D01*
X123758681Y-177245000D01*
X123825000Y-177251532D01*
X123891319Y-177245000D01*
X125028681Y-177245000D01*
X125095000Y-177251532D01*
X125161319Y-177245000D01*
X125161321Y-177245000D01*
X125359646Y-177225467D01*
X125614122Y-177148272D01*
X125848649Y-177022915D01*
X126054213Y-176854213D01*
X126096491Y-176802697D01*
X127272702Y-175626487D01*
X127324213Y-175584213D01*
X127366487Y-175532702D01*
X127366490Y-175532699D01*
X127492915Y-175378650D01*
X127570872Y-175232801D01*
X127618272Y-175144122D01*
X127695467Y-174889646D01*
X127715000Y-174691321D01*
X127715000Y-174691312D01*
X127721531Y-174625001D01*
X127715000Y-174558690D01*
X127715000Y-161991319D01*
X127721532Y-161925000D01*
X127715000Y-161858679D01*
X127695467Y-161660354D01*
X127618272Y-161405878D01*
X127547393Y-161273272D01*
X127492915Y-161171350D01*
X127366490Y-161017301D01*
X127366483Y-161017294D01*
X127324212Y-160965787D01*
X127272706Y-160923517D01*
X126662363Y-160313175D01*
X127617500Y-160310000D01*
X127830000Y-160097500D01*
X127830000Y-158010000D01*
X127930000Y-158010000D01*
X127930000Y-160097500D01*
X128142500Y-160310000D01*
X129380000Y-160314113D01*
X129546629Y-160297701D01*
X129706855Y-160249098D01*
X129854520Y-160170169D01*
X129983949Y-160063949D01*
X130090169Y-159934520D01*
X130169098Y-159786855D01*
X130217701Y-159626629D01*
X130234113Y-159460000D01*
X130230000Y-158222500D01*
X130017500Y-158010000D01*
X127930000Y-158010000D01*
X127830000Y-158010000D01*
X127810000Y-158010000D01*
X127810000Y-157910000D01*
X127830000Y-157910000D01*
X127830000Y-155822500D01*
X127930000Y-155822500D01*
X127930000Y-157910000D01*
X130017500Y-157910000D01*
X130230000Y-157697500D01*
X130234113Y-156460000D01*
X130217701Y-156293371D01*
X130169098Y-156133145D01*
X130090169Y-155985480D01*
X129983949Y-155856051D01*
X129854520Y-155749831D01*
X129706855Y-155670902D01*
X129546629Y-155622299D01*
X129380000Y-155605887D01*
X128142500Y-155610000D01*
X127930000Y-155822500D01*
X127830000Y-155822500D01*
X127617500Y-155610000D01*
X126380000Y-155605887D01*
X126213371Y-155622299D01*
X126053145Y-155670902D01*
X125905480Y-155749831D01*
X125810000Y-155828190D01*
X125810000Y-155006321D01*
X125816532Y-154940000D01*
X125790467Y-154675354D01*
X125713272Y-154420877D01*
X125587915Y-154186351D01*
X125461490Y-154032302D01*
X125461487Y-154032299D01*
X125419212Y-153980787D01*
X125367701Y-153938513D01*
X116630000Y-145200812D01*
X116630000Y-144114112D01*
X116780000Y-144114112D01*
X116946629Y-144097700D01*
X117106855Y-144049097D01*
X117254519Y-143970168D01*
X117383948Y-143863948D01*
X117490168Y-143734519D01*
X117569097Y-143586855D01*
X117617700Y-143426629D01*
X117634112Y-143260000D01*
X117634112Y-140260000D01*
X119225888Y-140260000D01*
X119225888Y-143260000D01*
X119242300Y-143426629D01*
X119290903Y-143586855D01*
X119369832Y-143734519D01*
X119476052Y-143863948D01*
X119605481Y-143970168D01*
X119753145Y-144049097D01*
X119913371Y-144097700D01*
X120080000Y-144114112D01*
X123080000Y-144114112D01*
X123246629Y-144097700D01*
X123406855Y-144049097D01*
X123554519Y-143970168D01*
X123683948Y-143863948D01*
X123790168Y-143734519D01*
X123869097Y-143586855D01*
X123917700Y-143426629D01*
X123934112Y-143260000D01*
X125525887Y-143260000D01*
X125542299Y-143426629D01*
X125590902Y-143586855D01*
X125669831Y-143734520D01*
X125776051Y-143863949D01*
X125905480Y-143970169D01*
X126053145Y-144049098D01*
X126213371Y-144097701D01*
X126380000Y-144114113D01*
X127617500Y-144110000D01*
X127830000Y-143897500D01*
X127830000Y-141810000D01*
X127930000Y-141810000D01*
X127930000Y-143897500D01*
X128142500Y-144110000D01*
X129380000Y-144114113D01*
X129546629Y-144097701D01*
X129706855Y-144049098D01*
X129854520Y-143970169D01*
X129983949Y-143863949D01*
X130090169Y-143734520D01*
X130169098Y-143586855D01*
X130217701Y-143426629D01*
X130234113Y-143260000D01*
X130230000Y-142022500D01*
X130017500Y-141810000D01*
X127930000Y-141810000D01*
X127830000Y-141810000D01*
X125742500Y-141810000D01*
X125530000Y-142022500D01*
X125525887Y-143260000D01*
X123934112Y-143260000D01*
X123934112Y-140260000D01*
X125525887Y-140260000D01*
X125530000Y-141497500D01*
X125742500Y-141710000D01*
X127830000Y-141710000D01*
X127830000Y-139622500D01*
X127930000Y-139622500D01*
X127930000Y-141710000D01*
X130017500Y-141710000D01*
X130230000Y-141497500D01*
X130234113Y-140260000D01*
X130217701Y-140093371D01*
X130169098Y-139933145D01*
X130090169Y-139785480D01*
X129983949Y-139656051D01*
X129854520Y-139549831D01*
X129706855Y-139470902D01*
X129546629Y-139422299D01*
X129380000Y-139405887D01*
X128142500Y-139410000D01*
X127930000Y-139622500D01*
X127830000Y-139622500D01*
X127617500Y-139410000D01*
X126380000Y-139405887D01*
X126213371Y-139422299D01*
X126053145Y-139470902D01*
X125905480Y-139549831D01*
X125776051Y-139656051D01*
X125669831Y-139785480D01*
X125590902Y-139933145D01*
X125542299Y-140093371D01*
X125525887Y-140260000D01*
X123934112Y-140260000D01*
X123917700Y-140093371D01*
X123869097Y-139933145D01*
X123790168Y-139785481D01*
X123683948Y-139656052D01*
X123554519Y-139549832D01*
X123406855Y-139470903D01*
X123246629Y-139422300D01*
X123080000Y-139405888D01*
X120080000Y-139405888D01*
X119913371Y-139422300D01*
X119753145Y-139470903D01*
X119605481Y-139549832D01*
X119476052Y-139656052D01*
X119369832Y-139785481D01*
X119290903Y-139933145D01*
X119242300Y-140093371D01*
X119225888Y-140260000D01*
X117634112Y-140260000D01*
X117617700Y-140093371D01*
X117569097Y-139933145D01*
X117490168Y-139785481D01*
X117383948Y-139656052D01*
X117254519Y-139549832D01*
X117106855Y-139470903D01*
X116946629Y-139422300D01*
X116780000Y-139405888D01*
X115233300Y-139405888D01*
X116446688Y-138192500D01*
X122171181Y-138192500D01*
X122237500Y-138199032D01*
X122303819Y-138192500D01*
X122303821Y-138192500D01*
X122502146Y-138172967D01*
X122756622Y-138095772D01*
X122875809Y-138032065D01*
X122921487Y-138261703D01*
X123042098Y-138552884D01*
X123217199Y-138814941D01*
X123440059Y-139037801D01*
X123702116Y-139212902D01*
X123993297Y-139333513D01*
X124302414Y-139395000D01*
X124617586Y-139395000D01*
X124926703Y-139333513D01*
X125217884Y-139212902D01*
X125479941Y-139037801D01*
X125702801Y-138814941D01*
X125877902Y-138552884D01*
X125998513Y-138261703D01*
X126060000Y-137952586D01*
X126060000Y-137637414D01*
X125998513Y-137328297D01*
X125877902Y-137037116D01*
X125756216Y-136855000D01*
X125887586Y-136855000D01*
X126196703Y-136793513D01*
X126487884Y-136672902D01*
X126749941Y-136497801D01*
X126972801Y-136274941D01*
X127147902Y-136012884D01*
X127268513Y-135721703D01*
X127330000Y-135412586D01*
X127330000Y-135097414D01*
X127268513Y-134788297D01*
X127147902Y-134497116D01*
X127080000Y-134395494D01*
X127080000Y-126289187D01*
X127272696Y-126096491D01*
X127324212Y-126054213D01*
X127492915Y-125848649D01*
X127570872Y-125702801D01*
X127618272Y-125614123D01*
X127655166Y-125492500D01*
X127695467Y-125359646D01*
X127715000Y-125161321D01*
X127715000Y-125161319D01*
X127721532Y-125095000D01*
X127715000Y-125028681D01*
X127715000Y-123891310D01*
X127721531Y-123824999D01*
X127715000Y-123758688D01*
X127715000Y-123758679D01*
X127695467Y-123560354D01*
X127618272Y-123305878D01*
X127552594Y-123183003D01*
X127492915Y-123071350D01*
X127366490Y-122917301D01*
X127366487Y-122917298D01*
X127324213Y-122865787D01*
X127272702Y-122823513D01*
X126096491Y-121647303D01*
X126054213Y-121595787D01*
X125848649Y-121427085D01*
X125614122Y-121301728D01*
X125359646Y-121224533D01*
X125161321Y-121205000D01*
X125161319Y-121205000D01*
X125095000Y-121198468D01*
X125028681Y-121205000D01*
X123891319Y-121205000D01*
X123825000Y-121198468D01*
X123758681Y-121205000D01*
X123758679Y-121205000D01*
X123560354Y-121224533D01*
X123305878Y-121301728D01*
X123231485Y-121341492D01*
X123071350Y-121427085D01*
X122917301Y-121553510D01*
X122917298Y-121553513D01*
X122865787Y-121595787D01*
X122823513Y-121647298D01*
X121573169Y-122897643D01*
X121453297Y-122921487D01*
X121162116Y-123042098D01*
X121060494Y-123110000D01*
X117555000Y-123110000D01*
X117555000Y-119358979D01*
X117571413Y-119358979D01*
X117602064Y-119712221D01*
X117701039Y-120052695D01*
X117864537Y-120367318D01*
X117887893Y-120402276D01*
X118216508Y-120472781D01*
X119309289Y-119380000D01*
X118216508Y-118287219D01*
X117887893Y-118357724D01*
X117717127Y-118668463D01*
X117610265Y-119006545D01*
X117571413Y-119358979D01*
X117555000Y-119358979D01*
X117555000Y-118216508D01*
X118287219Y-118216508D01*
X119380000Y-119309289D01*
X119394142Y-119295147D01*
X119464853Y-119365858D01*
X119450711Y-119380000D01*
X119464853Y-119394142D01*
X119394142Y-119464853D01*
X119380000Y-119450711D01*
X118287219Y-120543492D01*
X118357724Y-120872107D01*
X118668463Y-121042873D01*
X119006545Y-121149735D01*
X119358979Y-121188587D01*
X119712221Y-121157936D01*
X120052695Y-121058961D01*
X120344288Y-120907431D01*
X120366051Y-120933949D01*
X120495480Y-121040169D01*
X120643145Y-121119098D01*
X120803371Y-121167701D01*
X120970000Y-121184113D01*
X121657500Y-121180000D01*
X121870000Y-120967500D01*
X121870000Y-119430000D01*
X121850000Y-119430000D01*
X121850000Y-119330000D01*
X121870000Y-119330000D01*
X121870000Y-117792500D01*
X121970000Y-117792500D01*
X121970000Y-119330000D01*
X121990000Y-119330000D01*
X121990000Y-119430000D01*
X121970000Y-119430000D01*
X121970000Y-120967500D01*
X122182500Y-121180000D01*
X122870000Y-121184113D01*
X123036629Y-121167701D01*
X123196855Y-121119098D01*
X123344520Y-121040169D01*
X123473949Y-120933949D01*
X123499372Y-120902971D01*
X123607380Y-120975139D01*
X123934959Y-121110827D01*
X124282716Y-121180000D01*
X124637284Y-121180000D01*
X124985041Y-121110827D01*
X125312620Y-120975139D01*
X125420628Y-120902971D01*
X125446051Y-120933949D01*
X125575480Y-121040169D01*
X125723145Y-121119098D01*
X125883371Y-121167701D01*
X126050000Y-121184113D01*
X126737500Y-121180000D01*
X126950000Y-120967500D01*
X126950000Y-119430000D01*
X126930000Y-119430000D01*
X126930000Y-119330000D01*
X126950000Y-119330000D01*
X126950000Y-119310000D01*
X127050000Y-119310000D01*
X127050000Y-119330000D01*
X127070000Y-119330000D01*
X127070000Y-119430000D01*
X127050000Y-119430000D01*
X127050000Y-120967500D01*
X127262500Y-121180000D01*
X127950000Y-121184113D01*
X128116629Y-121167701D01*
X128276855Y-121119098D01*
X128424520Y-121040169D01*
X128553949Y-120933949D01*
X128579372Y-120902971D01*
X128687380Y-120975139D01*
X129014959Y-121110827D01*
X129362716Y-121180000D01*
X129717284Y-121180000D01*
X130065041Y-121110827D01*
X130392620Y-120975139D01*
X130687433Y-120778151D01*
X130938151Y-120527433D01*
X131135139Y-120232620D01*
X131270827Y-119905041D01*
X131340000Y-119557284D01*
X131340000Y-119202716D01*
X131270827Y-118854959D01*
X131135139Y-118527380D01*
X130938151Y-118232567D01*
X130690000Y-117984416D01*
X130690000Y-117531491D01*
X130695564Y-117475000D01*
X130673360Y-117249561D01*
X130607602Y-117032784D01*
X130508296Y-116846997D01*
X130500816Y-116833003D01*
X130357107Y-116657893D01*
X130313221Y-116621877D01*
X129758125Y-116066781D01*
X129722107Y-116022893D01*
X129546997Y-115879184D01*
X129347215Y-115772398D01*
X129130439Y-115706640D01*
X128961492Y-115690000D01*
X128961482Y-115690000D01*
X128905000Y-115684437D01*
X128848518Y-115690000D01*
X125151492Y-115690000D01*
X125095000Y-115684436D01*
X124869561Y-115706640D01*
X124652784Y-115772398D01*
X124563618Y-115820059D01*
X124453003Y-115879184D01*
X124277893Y-116022893D01*
X124241875Y-116066781D01*
X123686776Y-116621880D01*
X123642894Y-116657893D01*
X123539804Y-116783509D01*
X123499185Y-116833003D01*
X123392399Y-117032785D01*
X123326641Y-117249561D01*
X123304437Y-117475000D01*
X123310001Y-117531491D01*
X123310001Y-117701380D01*
X123196855Y-117640902D01*
X123036629Y-117592299D01*
X122870000Y-117575887D01*
X122182500Y-117580000D01*
X121970000Y-117792500D01*
X121870000Y-117792500D01*
X121657500Y-117580000D01*
X120970000Y-117575887D01*
X120803371Y-117592299D01*
X120643145Y-117640902D01*
X120495480Y-117719831D01*
X120366051Y-117826051D01*
X120342333Y-117854951D01*
X120091537Y-117717127D01*
X119753455Y-117610265D01*
X119401021Y-117571413D01*
X119047779Y-117602064D01*
X118707305Y-117701039D01*
X118392682Y-117864537D01*
X118357724Y-117887893D01*
X118287219Y-118216508D01*
X117555000Y-118216508D01*
X117555000Y-118034188D01*
X123462702Y-112126487D01*
X123514213Y-112084213D01*
X123556487Y-112032702D01*
X123556490Y-112032699D01*
X123682915Y-111878650D01*
X123808271Y-111644123D01*
X123808272Y-111644122D01*
X123885467Y-111389646D01*
X123905000Y-111191321D01*
X123905000Y-111191312D01*
X123911531Y-111125001D01*
X123905000Y-111058690D01*
X123905000Y-109921310D01*
X123911531Y-109854999D01*
X123905000Y-109788688D01*
X123905000Y-109788679D01*
X123885467Y-109590354D01*
X123808272Y-109335878D01*
X123714014Y-109159533D01*
X123682915Y-109101350D01*
X123556490Y-108947301D01*
X123556483Y-108947294D01*
X123514212Y-108895787D01*
X123462707Y-108853518D01*
X120942357Y-106333169D01*
X120918513Y-106213297D01*
X120797902Y-105922116D01*
X120622801Y-105660059D01*
X120399941Y-105437199D01*
X120137884Y-105262098D01*
X119846703Y-105141487D01*
X119537586Y-105080000D01*
X119222414Y-105080000D01*
X118913297Y-105141487D01*
X118622116Y-105262098D01*
X118520494Y-105330000D01*
X115001319Y-105330000D01*
X114935000Y-105323468D01*
X114868681Y-105330000D01*
X114868679Y-105330000D01*
X114670354Y-105349533D01*
X114475105Y-105408761D01*
X114415877Y-105426728D01*
X114181350Y-105552085D01*
X114103671Y-105615835D01*
X113975787Y-105720787D01*
X113933509Y-105772303D01*
X110565812Y-109140000D01*
X108317784Y-109140000D01*
X108357058Y-109106345D01*
X108641734Y-108744016D01*
X108850253Y-108333111D01*
X108972720Y-107896922D01*
X108796915Y-107530000D01*
X105460000Y-107530000D01*
X105460000Y-107550000D01*
X105360000Y-107550000D01*
X105360000Y-107530000D01*
X105340000Y-107530000D01*
X105340000Y-107430000D01*
X105360000Y-107430000D01*
X105360000Y-105130000D01*
X105460000Y-105130000D01*
X105460000Y-107430000D01*
X108796915Y-107430000D01*
X108972720Y-107063078D01*
X108850253Y-106626889D01*
X108641734Y-106215984D01*
X108357058Y-105853655D01*
X108007165Y-105553825D01*
X107605501Y-105328017D01*
X107167502Y-105184909D01*
X106710000Y-105130000D01*
X105460000Y-105130000D01*
X105360000Y-105130000D01*
X104110000Y-105130000D01*
X103652498Y-105184909D01*
X103214499Y-105328017D01*
X102960000Y-105471092D01*
X102960000Y-103864558D01*
X102925997Y-103519320D01*
X102838291Y-103230194D01*
X103098093Y-103443407D01*
X103506343Y-103661621D01*
X103949320Y-103795997D01*
X104294558Y-103830000D01*
X106525442Y-103830000D01*
X106870680Y-103795997D01*
X107313657Y-103661621D01*
X107721907Y-103443407D01*
X108079741Y-103149741D01*
X108373407Y-102791907D01*
X108591621Y-102383657D01*
X108725997Y-101940680D01*
X108771370Y-101480000D01*
X108725997Y-101019320D01*
X108591621Y-100576343D01*
X108502916Y-100410387D01*
X111750324Y-100410387D01*
X112066718Y-100948915D01*
X112725903Y-101323908D01*
X113445580Y-101563096D01*
X114198092Y-101657286D01*
X114954521Y-101602858D01*
X115685796Y-101401905D01*
X116363816Y-101062148D01*
X116533282Y-100948915D01*
X116849676Y-100410387D01*
X114300000Y-97860711D01*
X111750324Y-100410387D01*
X108502916Y-100410387D01*
X108373407Y-100168093D01*
X108079741Y-99810259D01*
X107721907Y-99516593D01*
X107313657Y-99298379D01*
X106870680Y-99164003D01*
X106525442Y-99130000D01*
X104294558Y-99130000D01*
X103949320Y-99164003D01*
X103506343Y-99298379D01*
X103098093Y-99516593D01*
X102740259Y-99810259D01*
X102446593Y-100168093D01*
X102228379Y-100576343D01*
X102094003Y-101019320D01*
X102048630Y-101480000D01*
X102094003Y-101940680D01*
X102181709Y-102229806D01*
X101921907Y-102016593D01*
X101513657Y-101798379D01*
X101070680Y-101664003D01*
X100610000Y-101618630D01*
X100149321Y-101664003D01*
X99706344Y-101798379D01*
X99298094Y-102016593D01*
X98940260Y-102310259D01*
X98646594Y-102668093D01*
X98581433Y-102790000D01*
X98220000Y-102790000D01*
X98180168Y-102715481D01*
X98073948Y-102586052D01*
X97944519Y-102479832D01*
X97796855Y-102400903D01*
X97636629Y-102352300D01*
X97470000Y-102335888D01*
X95570000Y-102335888D01*
X95403371Y-102352300D01*
X95243145Y-102400903D01*
X95095481Y-102479832D01*
X94966052Y-102586052D01*
X94859832Y-102715481D01*
X94780903Y-102863145D01*
X94732300Y-103023371D01*
X94715888Y-103190000D01*
X94715888Y-105090000D01*
X94732300Y-105256629D01*
X94780903Y-105416855D01*
X94859832Y-105564519D01*
X94919067Y-105636697D01*
X94826711Y-105774918D01*
X94682675Y-106122653D01*
X94609245Y-106491807D01*
X94609245Y-106868193D01*
X94682208Y-107235000D01*
X88824188Y-107235000D01*
X88631492Y-107042304D01*
X88589213Y-106990787D01*
X88383649Y-106822085D01*
X88149122Y-106696728D01*
X87894646Y-106619533D01*
X87696321Y-106600000D01*
X87696319Y-106600000D01*
X87630000Y-106593468D01*
X87563681Y-106600000D01*
X81981319Y-106600000D01*
X81915000Y-106593468D01*
X81848681Y-106600000D01*
X81848679Y-106600000D01*
X81650354Y-106619533D01*
X81455105Y-106678761D01*
X81395877Y-106696728D01*
X81278614Y-106759407D01*
X81161351Y-106822085D01*
X80955787Y-106990787D01*
X80913505Y-107042308D01*
X80372300Y-107583513D01*
X80320788Y-107625787D01*
X80278514Y-107677298D01*
X80278510Y-107677302D01*
X80152085Y-107831351D01*
X80026729Y-108065878D01*
X79949534Y-108320354D01*
X79923468Y-108585000D01*
X79930001Y-108651328D01*
X79930001Y-108790000D01*
X79855481Y-108829832D01*
X79726052Y-108936052D01*
X79619832Y-109065481D01*
X79540903Y-109213145D01*
X79492300Y-109373371D01*
X79475888Y-109540000D01*
X79475888Y-111440000D01*
X79492300Y-111606629D01*
X79540903Y-111766855D01*
X79619832Y-111914519D01*
X79726052Y-112043948D01*
X79855481Y-112150168D01*
X80003145Y-112229097D01*
X80163371Y-112277700D01*
X80330000Y-112294112D01*
X82230000Y-112294112D01*
X82396629Y-112277700D01*
X82549998Y-112231177D01*
X82703371Y-112277701D01*
X82870000Y-112294113D01*
X83557500Y-112290000D01*
X83770000Y-112077500D01*
X83770000Y-110540000D01*
X83750000Y-110540000D01*
X83750000Y-110440000D01*
X83770000Y-110440000D01*
X83770000Y-110420000D01*
X83870000Y-110420000D01*
X83870000Y-110440000D01*
X83890000Y-110440000D01*
X83890000Y-110540000D01*
X83870000Y-110540000D01*
X83870000Y-112077500D01*
X84082500Y-112290000D01*
X84552996Y-112292815D01*
X80720812Y-116125000D01*
X80076319Y-116125000D01*
X80010000Y-116118468D01*
X79943681Y-116125000D01*
X79943679Y-116125000D01*
X79745354Y-116144533D01*
X79569085Y-116198004D01*
X79490877Y-116221728D01*
X79373615Y-116284406D01*
X79256351Y-116347085D01*
X79050787Y-116515787D01*
X79008505Y-116567308D01*
X78467300Y-117108513D01*
X78415788Y-117150787D01*
X78373514Y-117202298D01*
X78373510Y-117202302D01*
X78247085Y-117356351D01*
X78121729Y-117590878D01*
X78044534Y-117845354D01*
X78018468Y-118110000D01*
X77250000Y-118110000D01*
X77250000Y-105844923D01*
X82684536Y-100410387D01*
X93970324Y-100410387D01*
X94286718Y-100948915D01*
X94945903Y-101323908D01*
X95665580Y-101563096D01*
X96418092Y-101657286D01*
X97174521Y-101602858D01*
X97905796Y-101401905D01*
X98583816Y-101062148D01*
X98753282Y-100948915D01*
X99069676Y-100410387D01*
X96520000Y-97860711D01*
X93970324Y-100410387D01*
X82684536Y-100410387D01*
X85406831Y-97688092D01*
X92652714Y-97688092D01*
X92707142Y-98444521D01*
X92908095Y-99175796D01*
X93247852Y-99853816D01*
X93361085Y-100023282D01*
X93899613Y-100339676D01*
X96449289Y-97790000D01*
X96590711Y-97790000D01*
X99140387Y-100339676D01*
X99678915Y-100023282D01*
X100053908Y-99364097D01*
X100293096Y-98644420D01*
X100387286Y-97891908D01*
X100372621Y-97688092D01*
X110432714Y-97688092D01*
X110487142Y-98444521D01*
X110688095Y-99175796D01*
X111027852Y-99853816D01*
X111141085Y-100023282D01*
X111679613Y-100339676D01*
X114229289Y-97790000D01*
X114370711Y-97790000D01*
X116920387Y-100339676D01*
X117458915Y-100023282D01*
X117833908Y-99364097D01*
X118073096Y-98644420D01*
X118167286Y-97891908D01*
X118112858Y-97135479D01*
X117911905Y-96404204D01*
X117572148Y-95726184D01*
X117458915Y-95556718D01*
X116920387Y-95240324D01*
X114370711Y-97790000D01*
X114229289Y-97790000D01*
X111679613Y-95240324D01*
X111141085Y-95556718D01*
X110766092Y-96215903D01*
X110526904Y-96935580D01*
X110432714Y-97688092D01*
X100372621Y-97688092D01*
X100332858Y-97135479D01*
X100131905Y-96404204D01*
X99792148Y-95726184D01*
X99678915Y-95556718D01*
X99140387Y-95240324D01*
X96590711Y-97790000D01*
X96449289Y-97790000D01*
X93899613Y-95240324D01*
X93361085Y-95556718D01*
X92986092Y-96215903D01*
X92746904Y-96935580D01*
X92652714Y-97688092D01*
X85406831Y-97688092D01*
X88064924Y-95030000D01*
X94052349Y-95030000D01*
X93970324Y-95169613D01*
G37*
G04 #@! TD.AperFunction*
D21*
X107377044Y-127735888D02*
X105730000Y-127735888D01*
X105563371Y-127752300D01*
X105410002Y-127798823D01*
X105256629Y-127752299D01*
X105090000Y-127735887D01*
X104402500Y-127740000D01*
X104190000Y-127952500D01*
X104190000Y-129490000D01*
X104210000Y-129490000D01*
X104210000Y-129590000D01*
X104190000Y-129590000D01*
X104190000Y-131127500D01*
X104402500Y-131340000D01*
X105090000Y-131344113D01*
X105256629Y-131327701D01*
X105410002Y-131281177D01*
X105563371Y-131327700D01*
X105730000Y-131344112D01*
X107630000Y-131344112D01*
X107796629Y-131327700D01*
X107950000Y-131281176D01*
X108103371Y-131327700D01*
X108270000Y-131344112D01*
X110170000Y-131344112D01*
X110336629Y-131327700D01*
X110490000Y-131281176D01*
X110643371Y-131327700D01*
X110810000Y-131344112D01*
X112710000Y-131344112D01*
X112876629Y-131327700D01*
X113030000Y-131281176D01*
X113183371Y-131327700D01*
X113350000Y-131344112D01*
X113761699Y-131344112D01*
X112230786Y-132875026D01*
X112220827Y-132824959D01*
X112085139Y-132497380D01*
X111888151Y-132202567D01*
X111637433Y-131951849D01*
X111342620Y-131754861D01*
X111015041Y-131619173D01*
X110667284Y-131550000D01*
X110312716Y-131550000D01*
X109964959Y-131619173D01*
X109637380Y-131754861D01*
X109529371Y-131827030D01*
X109503948Y-131796052D01*
X109374519Y-131689832D01*
X109226855Y-131610903D01*
X109066629Y-131562300D01*
X108900000Y-131545888D01*
X107000000Y-131545888D01*
X106833371Y-131562300D01*
X106673145Y-131610903D01*
X106525481Y-131689832D01*
X106396052Y-131796052D01*
X106370629Y-131827030D01*
X106262620Y-131754861D01*
X105935041Y-131619173D01*
X105587284Y-131550000D01*
X105232716Y-131550000D01*
X104884959Y-131619173D01*
X104557380Y-131754861D01*
X104449372Y-131827029D01*
X104423949Y-131796051D01*
X104294520Y-131689831D01*
X104146855Y-131610902D01*
X103986629Y-131562299D01*
X103820000Y-131545887D01*
X103132500Y-131550000D01*
X102920000Y-131762500D01*
X102920000Y-133300000D01*
X102940000Y-133300000D01*
X102940000Y-133400000D01*
X102920000Y-133400000D01*
X102920000Y-134937500D01*
X103132500Y-135150000D01*
X103820000Y-135154113D01*
X103986629Y-135137701D01*
X104146855Y-135089098D01*
X104294520Y-135010169D01*
X104423949Y-134903949D01*
X104449372Y-134872971D01*
X104557380Y-134945139D01*
X104884959Y-135080827D01*
X105232716Y-135150000D01*
X105587284Y-135150000D01*
X105935041Y-135080827D01*
X106262620Y-134945139D01*
X106370629Y-134872970D01*
X106396052Y-134903948D01*
X106525481Y-135010168D01*
X106600001Y-135050000D01*
X106600001Y-135188672D01*
X106593468Y-135255000D01*
X106619534Y-135519646D01*
X106696729Y-135774122D01*
X106822085Y-136008649D01*
X106948510Y-136162698D01*
X106948514Y-136162702D01*
X106990788Y-136214213D01*
X107042300Y-136256487D01*
X107583505Y-136797692D01*
X107625787Y-136849213D01*
X107831351Y-137017915D01*
X107867274Y-137037116D01*
X108065877Y-137143272D01*
X108125105Y-137161239D01*
X108320354Y-137220467D01*
X108518679Y-137240000D01*
X108518681Y-137240000D01*
X108585000Y-137246532D01*
X108651319Y-137240000D01*
X110405812Y-137240000D01*
X109930812Y-137715000D01*
X109286319Y-137715000D01*
X109220000Y-137708468D01*
X109153681Y-137715000D01*
X109153679Y-137715000D01*
X108955354Y-137734533D01*
X108760105Y-137793761D01*
X108700877Y-137811728D01*
X108583615Y-137874406D01*
X108466351Y-137937085D01*
X108260787Y-138105787D01*
X108218505Y-138157308D01*
X107677300Y-138698512D01*
X107625787Y-138740788D01*
X107583513Y-138792299D01*
X107583510Y-138792302D01*
X107457085Y-138946351D01*
X107405869Y-139042170D01*
X107331728Y-139180879D01*
X107254533Y-139435355D01*
X107236101Y-139622500D01*
X107228468Y-139700000D01*
X107235000Y-139766319D01*
X107235000Y-140110494D01*
X107206978Y-140152431D01*
X107214112Y-140080000D01*
X107214112Y-139320000D01*
X107186748Y-139042170D01*
X107105708Y-138775016D01*
X106974106Y-138528806D01*
X106796999Y-138313001D01*
X106581194Y-138135894D01*
X106334984Y-138004292D01*
X106067830Y-137923252D01*
X105790000Y-137895888D01*
X105030000Y-137895888D01*
X104752170Y-137923252D01*
X104485016Y-138004292D01*
X104238806Y-138135894D01*
X104023001Y-138313001D01*
X103845894Y-138528806D01*
X103714292Y-138775016D01*
X103681026Y-138884681D01*
X99897378Y-135101033D01*
X99956545Y-135119735D01*
X100308979Y-135158587D01*
X100662221Y-135127936D01*
X101002695Y-135028961D01*
X101294288Y-134877431D01*
X101316051Y-134903949D01*
X101445480Y-135010169D01*
X101593145Y-135089098D01*
X101753371Y-135137701D01*
X101920000Y-135154113D01*
X102607500Y-135150000D01*
X102820000Y-134937500D01*
X102820000Y-133400000D01*
X102800000Y-133400000D01*
X102800000Y-133300000D01*
X102820000Y-133300000D01*
X102820000Y-131762500D01*
X102607500Y-131550000D01*
X101920000Y-131545887D01*
X101753371Y-131562299D01*
X101593145Y-131610902D01*
X101445480Y-131689831D01*
X101316051Y-131796051D01*
X101292333Y-131824951D01*
X101041537Y-131687127D01*
X100703455Y-131580265D01*
X100351021Y-131541413D01*
X99997779Y-131572064D01*
X99657305Y-131671039D01*
X99342682Y-131834537D01*
X99307724Y-131857893D01*
X99237219Y-132186508D01*
X100330000Y-133279289D01*
X100344142Y-133265147D01*
X100414853Y-133335858D01*
X100400711Y-133350000D01*
X100414853Y-133364142D01*
X100344142Y-133434853D01*
X100330000Y-133420711D01*
X100315858Y-133434853D01*
X100245147Y-133364142D01*
X100259289Y-133350000D01*
X99166508Y-132257219D01*
X98837893Y-132327724D01*
X98667127Y-132638463D01*
X98560265Y-132976545D01*
X98521413Y-133328979D01*
X98552064Y-133682221D01*
X98582186Y-133785842D01*
X96085102Y-131288758D01*
X96342716Y-131340000D01*
X96697284Y-131340000D01*
X97045041Y-131270827D01*
X97372620Y-131135139D01*
X97480629Y-131062970D01*
X97506052Y-131093948D01*
X97635481Y-131200168D01*
X97783145Y-131279097D01*
X97943371Y-131327700D01*
X98110000Y-131344112D01*
X100010000Y-131344112D01*
X100176629Y-131327700D01*
X100329998Y-131281177D01*
X100483371Y-131327701D01*
X100650000Y-131344113D01*
X101337500Y-131340000D01*
X101550000Y-131127500D01*
X101550000Y-129590000D01*
X101650000Y-129590000D01*
X101650000Y-131127500D01*
X101862500Y-131340000D01*
X102550000Y-131344113D01*
X102716629Y-131327701D01*
X102870000Y-131281177D01*
X103023371Y-131327701D01*
X103190000Y-131344113D01*
X103877500Y-131340000D01*
X104090000Y-131127500D01*
X104090000Y-129590000D01*
X101650000Y-129590000D01*
X101550000Y-129590000D01*
X101530000Y-129590000D01*
X101530000Y-129490000D01*
X101550000Y-129490000D01*
X101550000Y-127952500D01*
X101650000Y-127952500D01*
X101650000Y-129490000D01*
X104090000Y-129490000D01*
X104090000Y-127952500D01*
X103877500Y-127740000D01*
X103190000Y-127735887D01*
X103023371Y-127752299D01*
X102870000Y-127798823D01*
X102716629Y-127752299D01*
X102550000Y-127735887D01*
X101862500Y-127740000D01*
X101650000Y-127952500D01*
X101550000Y-127952500D01*
X101337500Y-127740000D01*
X100650000Y-127735887D01*
X100483371Y-127752299D01*
X100329998Y-127798823D01*
X100196438Y-127758309D01*
X100193360Y-127727061D01*
X100129032Y-127515000D01*
X107156156Y-127515000D01*
X107377044Y-127735888D01*
G04 #@! TA.AperFunction,Conductor*
D22*
G36*
X107377044Y-127735888D02*
G01*
X105730000Y-127735888D01*
X105563371Y-127752300D01*
X105410002Y-127798823D01*
X105256629Y-127752299D01*
X105090000Y-127735887D01*
X104402500Y-127740000D01*
X104190000Y-127952500D01*
X104190000Y-129490000D01*
X104210000Y-129490000D01*
X104210000Y-129590000D01*
X104190000Y-129590000D01*
X104190000Y-131127500D01*
X104402500Y-131340000D01*
X105090000Y-131344113D01*
X105256629Y-131327701D01*
X105410002Y-131281177D01*
X105563371Y-131327700D01*
X105730000Y-131344112D01*
X107630000Y-131344112D01*
X107796629Y-131327700D01*
X107950000Y-131281176D01*
X108103371Y-131327700D01*
X108270000Y-131344112D01*
X110170000Y-131344112D01*
X110336629Y-131327700D01*
X110490000Y-131281176D01*
X110643371Y-131327700D01*
X110810000Y-131344112D01*
X112710000Y-131344112D01*
X112876629Y-131327700D01*
X113030000Y-131281176D01*
X113183371Y-131327700D01*
X113350000Y-131344112D01*
X113761699Y-131344112D01*
X112230786Y-132875026D01*
X112220827Y-132824959D01*
X112085139Y-132497380D01*
X111888151Y-132202567D01*
X111637433Y-131951849D01*
X111342620Y-131754861D01*
X111015041Y-131619173D01*
X110667284Y-131550000D01*
X110312716Y-131550000D01*
X109964959Y-131619173D01*
X109637380Y-131754861D01*
X109529371Y-131827030D01*
X109503948Y-131796052D01*
X109374519Y-131689832D01*
X109226855Y-131610903D01*
X109066629Y-131562300D01*
X108900000Y-131545888D01*
X107000000Y-131545888D01*
X106833371Y-131562300D01*
X106673145Y-131610903D01*
X106525481Y-131689832D01*
X106396052Y-131796052D01*
X106370629Y-131827030D01*
X106262620Y-131754861D01*
X105935041Y-131619173D01*
X105587284Y-131550000D01*
X105232716Y-131550000D01*
X104884959Y-131619173D01*
X104557380Y-131754861D01*
X104449372Y-131827029D01*
X104423949Y-131796051D01*
X104294520Y-131689831D01*
X104146855Y-131610902D01*
X103986629Y-131562299D01*
X103820000Y-131545887D01*
X103132500Y-131550000D01*
X102920000Y-131762500D01*
X102920000Y-133300000D01*
X102940000Y-133300000D01*
X102940000Y-133400000D01*
X102920000Y-133400000D01*
X102920000Y-134937500D01*
X103132500Y-135150000D01*
X103820000Y-135154113D01*
X103986629Y-135137701D01*
X104146855Y-135089098D01*
X104294520Y-135010169D01*
X104423949Y-134903949D01*
X104449372Y-134872971D01*
X104557380Y-134945139D01*
X104884959Y-135080827D01*
X105232716Y-135150000D01*
X105587284Y-135150000D01*
X105935041Y-135080827D01*
X106262620Y-134945139D01*
X106370629Y-134872970D01*
X106396052Y-134903948D01*
X106525481Y-135010168D01*
X106600001Y-135050000D01*
X106600001Y-135188672D01*
X106593468Y-135255000D01*
X106619534Y-135519646D01*
X106696729Y-135774122D01*
X106822085Y-136008649D01*
X106948510Y-136162698D01*
X106948514Y-136162702D01*
X106990788Y-136214213D01*
X107042300Y-136256487D01*
X107583505Y-136797692D01*
X107625787Y-136849213D01*
X107831351Y-137017915D01*
X107867274Y-137037116D01*
X108065877Y-137143272D01*
X108125105Y-137161239D01*
X108320354Y-137220467D01*
X108518679Y-137240000D01*
X108518681Y-137240000D01*
X108585000Y-137246532D01*
X108651319Y-137240000D01*
X110405812Y-137240000D01*
X109930812Y-137715000D01*
X109286319Y-137715000D01*
X109220000Y-137708468D01*
X109153681Y-137715000D01*
X109153679Y-137715000D01*
X108955354Y-137734533D01*
X108760105Y-137793761D01*
X108700877Y-137811728D01*
X108583615Y-137874406D01*
X108466351Y-137937085D01*
X108260787Y-138105787D01*
X108218505Y-138157308D01*
X107677300Y-138698512D01*
X107625787Y-138740788D01*
X107583513Y-138792299D01*
X107583510Y-138792302D01*
X107457085Y-138946351D01*
X107405869Y-139042170D01*
X107331728Y-139180879D01*
X107254533Y-139435355D01*
X107236101Y-139622500D01*
X107228468Y-139700000D01*
X107235000Y-139766319D01*
X107235000Y-140110494D01*
X107206978Y-140152431D01*
X107214112Y-140080000D01*
X107214112Y-139320000D01*
X107186748Y-139042170D01*
X107105708Y-138775016D01*
X106974106Y-138528806D01*
X106796999Y-138313001D01*
X106581194Y-138135894D01*
X106334984Y-138004292D01*
X106067830Y-137923252D01*
X105790000Y-137895888D01*
X105030000Y-137895888D01*
X104752170Y-137923252D01*
X104485016Y-138004292D01*
X104238806Y-138135894D01*
X104023001Y-138313001D01*
X103845894Y-138528806D01*
X103714292Y-138775016D01*
X103681026Y-138884681D01*
X99897378Y-135101033D01*
X99956545Y-135119735D01*
X100308979Y-135158587D01*
X100662221Y-135127936D01*
X101002695Y-135028961D01*
X101294288Y-134877431D01*
X101316051Y-134903949D01*
X101445480Y-135010169D01*
X101593145Y-135089098D01*
X101753371Y-135137701D01*
X101920000Y-135154113D01*
X102607500Y-135150000D01*
X102820000Y-134937500D01*
X102820000Y-133400000D01*
X102800000Y-133400000D01*
X102800000Y-133300000D01*
X102820000Y-133300000D01*
X102820000Y-131762500D01*
X102607500Y-131550000D01*
X101920000Y-131545887D01*
X101753371Y-131562299D01*
X101593145Y-131610902D01*
X101445480Y-131689831D01*
X101316051Y-131796051D01*
X101292333Y-131824951D01*
X101041537Y-131687127D01*
X100703455Y-131580265D01*
X100351021Y-131541413D01*
X99997779Y-131572064D01*
X99657305Y-131671039D01*
X99342682Y-131834537D01*
X99307724Y-131857893D01*
X99237219Y-132186508D01*
X100330000Y-133279289D01*
X100344142Y-133265147D01*
X100414853Y-133335858D01*
X100400711Y-133350000D01*
X100414853Y-133364142D01*
X100344142Y-133434853D01*
X100330000Y-133420711D01*
X100315858Y-133434853D01*
X100245147Y-133364142D01*
X100259289Y-133350000D01*
X99166508Y-132257219D01*
X98837893Y-132327724D01*
X98667127Y-132638463D01*
X98560265Y-132976545D01*
X98521413Y-133328979D01*
X98552064Y-133682221D01*
X98582186Y-133785842D01*
X96085102Y-131288758D01*
X96342716Y-131340000D01*
X96697284Y-131340000D01*
X97045041Y-131270827D01*
X97372620Y-131135139D01*
X97480629Y-131062970D01*
X97506052Y-131093948D01*
X97635481Y-131200168D01*
X97783145Y-131279097D01*
X97943371Y-131327700D01*
X98110000Y-131344112D01*
X100010000Y-131344112D01*
X100176629Y-131327700D01*
X100329998Y-131281177D01*
X100483371Y-131327701D01*
X100650000Y-131344113D01*
X101337500Y-131340000D01*
X101550000Y-131127500D01*
X101550000Y-129590000D01*
X101650000Y-129590000D01*
X101650000Y-131127500D01*
X101862500Y-131340000D01*
X102550000Y-131344113D01*
X102716629Y-131327701D01*
X102870000Y-131281177D01*
X103023371Y-131327701D01*
X103190000Y-131344113D01*
X103877500Y-131340000D01*
X104090000Y-131127500D01*
X104090000Y-129590000D01*
X101650000Y-129590000D01*
X101550000Y-129590000D01*
X101530000Y-129590000D01*
X101530000Y-129490000D01*
X101550000Y-129490000D01*
X101550000Y-127952500D01*
X101650000Y-127952500D01*
X101650000Y-129490000D01*
X104090000Y-129490000D01*
X104090000Y-127952500D01*
X103877500Y-127740000D01*
X103190000Y-127735887D01*
X103023371Y-127752299D01*
X102870000Y-127798823D01*
X102716629Y-127752299D01*
X102550000Y-127735887D01*
X101862500Y-127740000D01*
X101650000Y-127952500D01*
X101550000Y-127952500D01*
X101337500Y-127740000D01*
X100650000Y-127735887D01*
X100483371Y-127752299D01*
X100329998Y-127798823D01*
X100196438Y-127758309D01*
X100193360Y-127727061D01*
X100129032Y-127515000D01*
X107156156Y-127515000D01*
X107377044Y-127735888D01*
G37*
G04 #@! TD.AperFunction*
D21*
X81364853Y-119365858D02*
X81350711Y-119380000D01*
X81364853Y-119394142D01*
X81294142Y-119464853D01*
X81280000Y-119450711D01*
X81265858Y-119464853D01*
X81195147Y-119394142D01*
X81209289Y-119380000D01*
X81195147Y-119365858D01*
X81265858Y-119295147D01*
X81280000Y-119309289D01*
X81294142Y-119295147D01*
X81364853Y-119365858D01*
G04 #@! TA.AperFunction,Conductor*
D22*
G36*
X81364853Y-119365858D02*
G01*
X81350711Y-119380000D01*
X81364853Y-119394142D01*
X81294142Y-119464853D01*
X81280000Y-119450711D01*
X81265858Y-119464853D01*
X81195147Y-119394142D01*
X81209289Y-119380000D01*
X81195147Y-119365858D01*
X81265858Y-119295147D01*
X81280000Y-119309289D01*
X81294142Y-119295147D01*
X81364853Y-119365858D01*
G37*
G04 #@! TD.AperFunction*
M02*
