<?xml version="1.0" encoding="UTF-8" standalone="no"?>
<!-- Created with Inkscape (http://www.inkscape.org/) -->

<svg
   width="64.940002mm"
   height="115.96mm"
   viewBox="0 0 64.940001 115.96"
   version="1.1"
   id="svg8"
   inkscape:version="1.3 (0e150ed6c4, 2023-07-21)"
   sodipodi:docname="big_muff_r3sm_bottom.svg"
   xml:space="preserve"
   xmlns:inkscape="http://www.inkscape.org/namespaces/inkscape"
   xmlns:sodipodi="http://sodipodi.sourceforge.net/DTD/sodipodi-0.dtd"
   xmlns="http://www.w3.org/2000/svg"
   xmlns:svg="http://www.w3.org/2000/svg"
   xmlns:rdf="http://www.w3.org/1999/02/22-rdf-syntax-ns#"
   xmlns:cc="http://creativecommons.org/ns#"
   xmlns:dc="http://purl.org/dc/elements/1.1/"><title
     id="title13">Big Muff [REV3SM] Bottom</title><defs
     id="defs2"><clipPath
       id="clipPath96"
       clipPathUnits="userSpaceOnUse"><path
         inkscape:connector-curvature="0"
         id="path94"
         d="M 0,150 H 350 V 0 H 0 Z" /></clipPath><clipPath
       id="clipPath96-3"
       clipPathUnits="userSpaceOnUse"><path
         inkscape:connector-curvature="0"
         id="path94-6"
         d="M 0,150 H 350 V 0 H 0 Z" /></clipPath><marker
       id="DistanceX"
       orient="auto"
       refX="0.0"
       refY="0.0"
       style="overflow:visible"><path
         d="M 3,-3 L -3,3 M 0,-5 L  0,5"
         style="stroke:#000000; stroke-width:0.5"
         id="path1-8" /></marker><pattern
       id="Hatch"
       patternUnits="userSpaceOnUse"
       width="8"
       height="8"
       x="0"
       y="0"><path
         d="M8 4 l-4,4"
         stroke="#000000"
         stroke-width="0.25"
         linecap="square"
         id="path2-9" /><path
         d="M6 2 l-4,4"
         stroke="#000000"
         stroke-width="0.25"
         linecap="square"
         id="path3-7" /><path
         d="M4 0 l-4,4"
         stroke="#000000"
         stroke-width="0.25"
         linecap="square"
         id="path4-3" /></pattern><symbol
       id="*MODEL_SPACE" /><symbol
       id="*PAPER_SPACE" /><marker
       id="DistanceX-8"
       orient="auto"
       refX="0.0"
       refY="0.0"
       style="overflow:visible"><path
         d="M 3,-3 L -3,3 M 0,-5 L  0,5"
         style="stroke:#000000; stroke-width:0.5"
         id="path1-4" /></marker><pattern
       id="Hatch-5"
       patternUnits="userSpaceOnUse"
       width="8"
       height="8"
       x="0"
       y="0"><path
         d="M8 4 l-4,4"
         stroke="#000000"
         stroke-width="0.25"
         linecap="square"
         id="path2-0" /><path
         d="M6 2 l-4,4"
         stroke="#000000"
         stroke-width="0.25"
         linecap="square"
         id="path3-3" /><path
         d="M4 0 l-4,4"
         stroke="#000000"
         stroke-width="0.25"
         linecap="square"
         id="path4-6" /></pattern><symbol
       id="*MODEL_SPACE-1" /><symbol
       id="*PAPER_SPACE-0" /><marker
       id="DistanceX-4"
       orient="auto"
       refX="0.0"
       refY="0.0"
       style="overflow:visible"><path
         d="M 3,-3 L -3,3 M 0,-5 L  0,5"
         style="stroke:#000000; stroke-width:0.5"
         id="path1-7" /></marker><pattern
       id="Hatch-4"
       patternUnits="userSpaceOnUse"
       width="8"
       height="8"
       x="0"
       y="0"><path
         d="M8 4 l-4,4"
         stroke="#000000"
         stroke-width="0.25"
         linecap="square"
         id="path2-4" /><path
         d="M6 2 l-4,4"
         stroke="#000000"
         stroke-width="0.25"
         linecap="square"
         id="path3-30" /><path
         d="M4 0 l-4,4"
         stroke="#000000"
         stroke-width="0.25"
         linecap="square"
         id="path4-7" /></pattern><symbol
       id="*MODEL_SPACE-8" /><symbol
       id="*PAPER_SPACE-6" /></defs><sodipodi:namedview
     id="base"
     pagecolor="#ffffff"
     bordercolor="#666666"
     borderopacity="1.0"
     inkscape:pageopacity="1"
     inkscape:pageshadow="2"
     inkscape:zoom="1.5264423"
     inkscape:cx="122.50709"
     inkscape:cy="219.13701"
     inkscape:document-units="mm"
     inkscape:current-layer="layer1"
     showgrid="false"
     inkscape:window-width="1600"
     inkscape:window-height="873"
     inkscape:window-x="0"
     inkscape:window-y="0"
     inkscape:window-maximized="0"
     inkscape:showpageshadow="2"
     inkscape:pagecheckerboard="0"
     inkscape:deskcolor="#d1d1d1"><inkscape:page
       x="0"
       y="0"
       width="64.940002"
       height="115.96"
       id="page1"
       margin="0"
       bleed="0" /></sodipodi:namedview><metadata
     id="metadata5"><rdf:RDF><cc:Work
         rdf:about=""><dc:format>image/svg+xml</dc:format><dc:type
           rdf:resource="http://purl.org/dc/dcmitype/StillImage" /><dc:title>Big Muff [REV3SM] Bottom</dc:title><cc:license
           rdf:resource="http://creativecommons.org/licenses/by-sa/4.0/" /><dc:creator><cc:Agent><dc:title>Igor Ivanov</dc:title></cc:Agent></dc:creator><dc:date>24.11.2023</dc:date><dc:contributor><cc:Agent><dc:title /></cc:Agent></dc:contributor></cc:Work><cc:License
         rdf:about="http://creativecommons.org/licenses/by-sa/4.0/"><cc:permits
           rdf:resource="http://creativecommons.org/ns#Reproduction" /><cc:permits
           rdf:resource="http://creativecommons.org/ns#Distribution" /><cc:requires
           rdf:resource="http://creativecommons.org/ns#Notice" /><cc:requires
           rdf:resource="http://creativecommons.org/ns#Attribution" /><cc:permits
           rdf:resource="http://creativecommons.org/ns#DerivativeWorks" /><cc:requires
           rdf:resource="http://creativecommons.org/ns#ShareAlike" /></cc:License></rdf:RDF></metadata><g
     inkscape:label="Layer 1"
     inkscape:groupmode="layer"
     id="layer1"
     transform="translate(0,-176)"><g
       id="g2"
       transform="matrix(0.26458333,0,0,0.26458333,-51.532332,94.084018)"><path
         id="path1"
         d="m 294.81236,600.74098 c 0,-12.51264 10.16448,-22.67712 22.67712,-22.67712 12.51264,0 22.67712,10.16448 22.67712,22.67712 0,12.51264 -10.16448,22.67712 -22.67712,22.67712 -12.51264,0 -22.67712,-10.16448 -22.67712,-22.67712 z"
         style="fill:none;stroke:#000000;stroke-width:1.51181;stroke-linecap:round;stroke-linejoin:round;stroke-miterlimit:10;stroke-dasharray:none;stroke-opacity:1" /><path
         id="path2"
         d="m 307.4738,499.94098 c 0,-5.52672 4.48896,-10.01568 10.01568,-10.01568 5.52672,0 10.01568,4.48896 10.01568,10.01568 0,5.52672 -4.48896,10.01568 -10.01568,10.01568 -5.52672,0 -10.01568,-4.48896 -10.01568,-10.01568 z"
         style="fill:none;stroke:#000000;stroke-width:1.51181;stroke-linecap:round;stroke-linejoin:round;stroke-miterlimit:10;stroke-dasharray:none;stroke-opacity:1" /><path
         id="path3"
         d="m 231.8834,375.8965 c 0,-7.5072 6.09792,-13.60608 13.60608,-13.60608 7.50816,0 13.60608,6.09888 13.60608,13.60608 0,7.50816 -6.09792,13.60704 -13.60608,13.60704 -7.50816,0 -13.60608,-6.09888 -13.60608,-13.60704 z"
         style="fill:none;stroke:#000000;stroke-width:1.51181;stroke-linecap:round;stroke-linejoin:round;stroke-miterlimit:10;stroke-dasharray:none;stroke-opacity:1" /><path
         id="path4"
         d="m 194.76788,309.6037 h 245.4432"
         style="fill:none;stroke:#000000;stroke-width:1.51181;stroke-linecap:round;stroke-linejoin:round;stroke-miterlimit:10;stroke-dasharray:none;stroke-opacity:1" /><path
         id="path5"
         d="m 194.76788,747.87826 h 245.4432"
         style="fill:none;stroke:#000000;stroke-width:1.51181;stroke-linecap:round;stroke-linejoin:round;stroke-miterlimit:10;stroke-dasharray:none;stroke-opacity:1" /><path
         id="path6"
         d="M 194.76788,309.6037 V 747.87826"
         style="fill:none;stroke:#000000;stroke-width:1.51181;stroke-linecap:round;stroke-linejoin:round;stroke-miterlimit:10;stroke-dasharray:none;stroke-opacity:1" /><path
         id="path7"
         d="M 440.21108,309.6037 V 747.87826"
         style="fill:none;stroke:#000000;stroke-width:1.51181;stroke-linecap:round;stroke-linejoin:round;stroke-miterlimit:10;stroke-dasharray:none;stroke-opacity:1" /><path
         id="path8"
         d="m 278.21972,336.74098 c 0,-3.12864 2.54112,-5.66976 5.66976,-5.66976 3.12864,0 5.66976,2.54112 5.66976,5.66976 0,3.12864 -2.54112,5.66976 -5.66976,5.66976 -3.12864,0 -5.66976,-2.54112 -5.66976,-5.66976 z"
         style="fill:none;stroke:#000000;stroke-width:1.51181;stroke-linecap:round;stroke-linejoin:round;stroke-miterlimit:10;stroke-dasharray:none;stroke-opacity:1" /><path
         id="path9"
         d="m 345.41972,336.74098 c 0,-3.12864 2.54112,-5.66976 5.66976,-5.66976 3.12864,0 5.66976,2.54112 5.66976,5.66976 0,3.12864 -2.54112,5.66976 -5.66976,5.66976 -3.12864,0 -5.66976,-2.54112 -5.66976,-5.66976 z"
         style="fill:none;stroke:#000000;stroke-width:1.51181;stroke-linecap:round;stroke-linejoin:round;stroke-miterlimit:10;stroke-dasharray:none;stroke-opacity:1" /><path
         id="path10"
         d="m 303.8834,428.6965 c 0,-7.5072 6.09792,-13.60608 13.60608,-13.60608 7.50816,0 13.60608,6.09888 13.60608,13.60608 0,7.50816 -6.09792,13.60704 -13.60608,13.60704 -7.50816,0 -13.60608,-6.09888 -13.60608,-13.60704 z"
         style="fill:none;stroke:#000000;stroke-width:1.51181;stroke-linecap:round;stroke-linejoin:round;stroke-miterlimit:10;stroke-dasharray:none;stroke-opacity:1" /><path
         id="path11"
         d="m 375.8834,375.8965 c 0,-7.5072 6.09792,-13.60608 13.60608,-13.60608 7.50816,0 13.60608,6.09888 13.60608,13.60608 0,7.50816 -6.09792,13.60704 -13.60608,13.60704 -7.50816,0 -13.60608,-6.09888 -13.60608,-13.60704 z"
         style="fill:none;stroke:#000000;stroke-width:1.51181;stroke-linecap:round;stroke-linejoin:round;stroke-miterlimit:10;stroke-dasharray:none;stroke-opacity:1" /><path
         id="path12"
         d="m 194.76788,313.38322 h 245.4432"
         style="fill:none;stroke:#000000;stroke-width:1.51181;stroke-linecap:round;stroke-linejoin:round;stroke-miterlimit:10;stroke-dasharray:none;stroke-opacity:1" /><path
         id="path13"
         d="m 194.76788,744.09874 h 245.4432"
         style="fill:none;stroke:#000000;stroke-width:1.51181;stroke-linecap:round;stroke-linejoin:round;stroke-miterlimit:10;stroke-dasharray:none;stroke-opacity:1" /></g><path
       style="opacity:1;fill:#000000;fill-opacity:1;stroke:none;stroke-width:0;stroke-linecap:round;stroke-linejoin:round;stroke-miterlimit:4;stroke-dasharray:none;stroke-dashoffset:0;stroke-opacity:1;paint-order:normal"
       d="m 32.470349,243.03016 a 9.9999989,9.9999989 0 0 0 -10.000421,9.9999 9.9999989,9.9999989 0 0 0 10.000421,9.99991 9.9999989,9.9999989 0 0 0 9.999906,-9.99991 9.9999989,9.9999989 0 0 0 -9.999906,-9.9999 z m 0,4.49998 a 5.4999995,5.4999995 0 0 1 5.499923,5.49991 5.4999995,5.4999995 0 0 1 -5.499923,5.49993 5.4999995,5.4999995 0 0 1 -5.500438,-5.49993 5.4999995,5.4999995 0 0 1 5.500438,-5.49991 z"
       id="path162-3"
       inkscape:connector-curvature="0" /><g
       inkscape:label="0"
       id="g4"
       transform="matrix(0.26458333,0,0,0.26458333,-41.201711,-90.403622)" /><g
       inkscape:label="none"
       id="g5"
       transform="matrix(0.26458333,0,0,0.26458333,-41.201711,-90.403622)" /><path
       id="path16"
       style="fill:#000000;stroke:none;stroke-width:0.265;fill-opacity:1;stroke-dasharray:none"
       d="M 13.419853 187.12077 C 12.817893 187.12077 12.21627 187.20571 11.632365 187.37553 L 4.3449544 189.48755 C 0.98200679 190.46282 0.20099241 194.87298 3.0246216 196.94342 L 22.074622 210.91363 C 28.421774 214.93485 36.518485 214.93485 42.865601 210.91363 L 61.915601 196.94342 C 64.739253 194.87297 63.958232 190.46279 60.595268 189.48755 L 53.307857 187.37502 C 52.140025 187.03638 50.900175 187.03638 49.732365 187.37502 L 42.444954 189.48652 C 40.641218 190.00964 39.400187 191.66195 39.400179 193.54001 L 39.400179 197.8705 C 39.400186 199.64853 37.958584 201.09097 36.180221 201.09097 L 28.760002 201.09097 C 26.981638 201.09097 25.540036 199.64872 25.540043 197.87102 L 25.540043 193.54053 C 25.540043 191.66244 24.29901 190.01016 22.495268 189.48703 L 15.207857 187.37553 C 14.623941 187.20571 14.021812 187.12077 13.419853 187.12077 z M 13.188342 190.44925 A 3.1 3.1 0 0 1 16.519922 193.54053 A 3.1000692 3.1000692 0 0 1 10.319784 193.54053 A 3.1 3.1 0 0 1 13.188342 190.44925 z M 51.288342 190.44925 A 3.1 3.1 0 0 1 54.619922 193.54053 A 3.1000692 3.1000692 0 0 1 48.419784 193.54053 A 3.1 3.1 0 0 1 51.288342 190.44925 z M 32.238342 204.41945 A 3.1 3.1 0 0 1 35.569922 207.51074 A 3.1000692 3.1000692 0 0 1 29.369784 207.51074 A 3.1 3.1 0 0 1 32.238342 204.41945 z " /></g></svg>
