<?xml version="1.0" encoding="UTF-8" standalone="no"?>
<!-- Created with Inkscape (http://www.inkscape.org/) -->

<svg
   width="94mm"
   height="119.5mm"
   viewBox="0 0 93.999999 119.5"
   version="1.1"
   id="svg8"
   inkscape:version="1.3.2 (091e20ef0f, 2023-11-25, custom)"
   sodipodi:docname="salty_phaser_r1sm_bottom.svg"
   xml:space="preserve"
   xmlns:inkscape="http://www.inkscape.org/namespaces/inkscape"
   xmlns:sodipodi="http://sodipodi.sourceforge.net/DTD/sodipodi-0.dtd"
   xmlns="http://www.w3.org/2000/svg"
   xmlns:svg="http://www.w3.org/2000/svg"
   xmlns:rdf="http://www.w3.org/1999/02/22-rdf-syntax-ns#"
   xmlns:cc="http://creativecommons.org/ns#"
   xmlns:dc="http://purl.org/dc/elements/1.1/"><title
     id="title13">Salty Phaser [REV1SM] Bottom</title><defs
     id="defs2"><clipPath
       id="clipPath96"
       clipPathUnits="userSpaceOnUse"><path
         inkscape:connector-curvature="0"
         id="path94"
         d="M 0,150 H 350 V 0 H 0 Z" /></clipPath><clipPath
       id="clipPath96-3"
       clipPathUnits="userSpaceOnUse"><path
         inkscape:connector-curvature="0"
         id="path94-6"
         d="M 0,150 H 350 V 0 H 0 Z" /></clipPath></defs><sodipodi:namedview
     id="base"
     pagecolor="#ffffff"
     bordercolor="#666666"
     borderopacity="1.0"
     inkscape:pageopacity="1"
     inkscape:pageshadow="2"
     inkscape:zoom="1.4812239"
     inkscape:cx="177.55587"
     inkscape:cy="225.82677"
     inkscape:document-units="mm"
     inkscape:current-layer="layer1"
     showgrid="false"
     inkscape:window-width="1600"
     inkscape:window-height="873"
     inkscape:window-x="0"
     inkscape:window-y="0"
     inkscape:window-maximized="0"
     inkscape:showpageshadow="2"
     inkscape:pagecheckerboard="0"
     inkscape:deskcolor="#d1d1d1"><inkscape:page
       x="0"
       y="0"
       width="93.999992"
       height="119.5"
       id="page2"
       margin="0"
       bleed="0" /></sodipodi:namedview><metadata
     id="metadata5"><rdf:RDF><cc:Work
         rdf:about=""><dc:format>image/svg+xml</dc:format><dc:type
           rdf:resource="http://purl.org/dc/dcmitype/StillImage" /><dc:title>Salty Phaser [REV1SM] Bottom</dc:title><cc:license
           rdf:resource="http://creativecommons.org/licenses/by-sa/4.0/" /><dc:creator><cc:Agent><dc:title>Igor Ivanov</dc:title></cc:Agent></dc:creator><dc:date>24.12.2023</dc:date><dc:contributor><cc:Agent><dc:title /></cc:Agent></dc:contributor></cc:Work><cc:License
         rdf:about="http://creativecommons.org/licenses/by-sa/4.0/"><cc:permits
           rdf:resource="http://creativecommons.org/ns#Reproduction" /><cc:permits
           rdf:resource="http://creativecommons.org/ns#Distribution" /><cc:requires
           rdf:resource="http://creativecommons.org/ns#Notice" /><cc:requires
           rdf:resource="http://creativecommons.org/ns#Attribution" /><cc:permits
           rdf:resource="http://creativecommons.org/ns#DerivativeWorks" /><cc:requires
           rdf:resource="http://creativecommons.org/ns#ShareAlike" /></cc:License></rdf:RDF></metadata><g
     inkscape:label="Layer 1"
     inkscape:groupmode="layer"
     id="layer1"
     transform="translate(0,-177.5)"><g
       id="g3"
       transform="matrix(0.26458333,0,0,0.26458333,-58.410094,88.623247)"><path
         id="path1"
         d="m 24216.5,81953.6 -106.3,-4.6 -105.6,-13.9 -103.9,-23.1 -101.6,-32 -98.4,-40.7 -94.4,-49.2 -89.8,-57.2 -84.5,-64.8 -78.5,-71.9 -71.9,-78.5 -64.8,-84.5 -57.2,-89.8 -49.2,-94.5 -40.7,-98.3 -32.1,-101.6 -23,-103.9 -13.9,-105.6 -4.6,-106.4"
         style="fill:none;stroke:#000000;stroke-width:157.48;stroke-linecap:round;stroke-linejoin:round;stroke-miterlimit:10;stroke-dasharray:none;stroke-opacity:1"
         transform="matrix(0.0096,0,0,-0.0096,0,1122.6667)" /><path
         id="path2"
         d="m 60003.9,80733.1 -4.6,106.4 -13.9,105.6 -23,103.9 -32.1,101.6 -40.7,98.3 -49.2,94.5 -57.2,89.8 -64.8,84.5 -71.9,78.5 -78.5,71.9 -84.5,64.8 -89.8,57.2 -94.4,49.2 -98.4,40.7 -101.6,32 -103.9,23.1 -105.6,13.9 -106.3,4.6"
         style="fill:none;stroke:#000000;stroke-width:157.48;stroke-linecap:round;stroke-linejoin:round;stroke-miterlimit:10;stroke-dasharray:none;stroke-opacity:1"
         transform="matrix(0.0096,0,0,-0.0096,0,1122.6667)" /><path
         id="path3"
         d="m 22996.1,36126.9 4.6,-106.4 13.9,-105.6 23,-103.9 32.1,-101.6 40.7,-98.3 49.2,-94.5 57.2,-89.8 64.8,-84.5 71.9,-78.5 78.5,-71.9 84.5,-64.8 89.8,-57.2 94.4,-49.2 98.4,-40.7 101.6,-32 103.9,-23.1 105.6,-13.9 106.3,-4.6"
         style="fill:none;stroke:#000000;stroke-width:157.48;stroke-linecap:round;stroke-linejoin:round;stroke-miterlimit:10;stroke-dasharray:none;stroke-opacity:1"
         transform="matrix(0.0096,0,0,-0.0096,0,1122.6667)" /><path
         id="path4"
         d="m 58783.5,34906.4 106.3,4.6 105.6,13.9 103.9,23.1 101.6,32 98.4,40.7 94.4,49.2 89.8,57.2 84.5,64.8 78.5,71.9 71.9,78.5 64.8,84.5 57.2,89.8 49.2,94.5 40.7,98.3 32.1,101.6 23,103.9 13.9,105.6 4.6,106.4"
         style="fill:none;stroke:#000000;stroke-width:157.48;stroke-linecap:round;stroke-linejoin:round;stroke-miterlimit:10;stroke-dasharray:none;stroke-opacity:1"
         transform="matrix(0.0096,0,0,-0.0096,0,1122.6667)" /><path
         id="path5"
         d="m 48409.4,54351.3 c 0,325.8 264.7,590.5 590.6,590.5 325.9,0 590.6,-264.7 590.6,-590.5 0,-325.9 -264.7,-590.6 -590.6,-590.6 -325.9,0 -590.6,264.7 -590.6,590.6 z"
         style="fill:none;stroke:#000000;stroke-width:157.48;stroke-linecap:round;stroke-linejoin:round;stroke-miterlimit:10;stroke-dasharray:none;stroke-opacity:1"
         transform="matrix(0.0096,0,0,-0.0096,0,1122.6667)" /><path
         id="path6"
         d="m 33409.4,54351.3 c 0,325.8 264.7,590.5 590.6,590.5 325.9,0 590.6,-264.7 590.6,-590.5 0,-325.9 -264.7,-590.6 -590.6,-590.6 -325.9,0 -590.6,264.7 -590.6,590.6 z"
         style="fill:none;stroke:#000000;stroke-width:157.48;stroke-linecap:round;stroke-linejoin:round;stroke-miterlimit:10;stroke-dasharray:none;stroke-opacity:1"
         transform="matrix(0.0096,0,0,-0.0096,0,1122.6667)" /><path
         id="path7"
         d="m 46818.9,62430 c 0,651.7 529.4,1181.1 1181.1,1181.1 651.7,0 1181.1,-529.4 1181.1,-1181.1 0,-651.7 -529.4,-1181.1 -1181.1,-1181.1 -651.7,0 -1181.1,529.4 -1181.1,1181.1 z"
         style="fill:none;stroke:#000000;stroke-width:157.48;stroke-linecap:round;stroke-linejoin:round;stroke-miterlimit:10;stroke-dasharray:none;stroke-opacity:1"
         transform="matrix(0.0096,0,0,-0.0096,0,1122.6667)" /><path
         id="path8"
         d="m 53082.7,70851.3 c 0,782 635.2,1417.3 1417.3,1417.3 782.1,0 1417.3,-635.3 1417.3,-1417.3 0,-782.1 -635.2,-1417.4 -1417.3,-1417.4 -782.1,0 -1417.3,635.3 -1417.3,1417.4 z"
         style="fill:none;stroke:#000000;stroke-width:157.48;stroke-linecap:round;stroke-linejoin:round;stroke-miterlimit:10;stroke-dasharray:none;stroke-opacity:1"
         transform="matrix(0.0096,0,0,-0.0096,0,1122.6667)" /><path
         id="path9"
         d="m 40082.7,70851.3 c 0,782 635.2,1417.3 1417.3,1417.3 782.1,0 1417.3,-635.3 1417.3,-1417.3 0,-782.1 -635.2,-1417.4 -1417.3,-1417.4 -782.1,0 -1417.3,635.3 -1417.3,1417.4 z"
         style="fill:none;stroke:#000000;stroke-width:157.48;stroke-linecap:round;stroke-linejoin:round;stroke-miterlimit:10;stroke-dasharray:none;stroke-opacity:1"
         transform="matrix(0.0096,0,0,-0.0096,0,1122.6667)" /><path
         id="path10"
         d="m 52409.4,78930 c 0,325.9 264.7,590.6 590.6,590.6 325.9,0 590.6,-264.7 590.6,-590.6 0,-325.9 -264.7,-590.6 -590.6,-590.6 -325.9,0 -590.6,264.7 -590.6,590.6 z"
         style="fill:none;stroke:#000000;stroke-width:157.48;stroke-linecap:round;stroke-linejoin:round;stroke-miterlimit:10;stroke-dasharray:none;stroke-opacity:1"
         transform="matrix(0.0096,0,0,-0.0096,0,1122.6667)" /><path
         id="path11"
         d="m 44409.4,78930 c 0,325.9 264.7,590.6 590.6,590.6 325.9,0 590.6,-264.7 590.6,-590.6 0,-325.9 -264.7,-590.6 -590.6,-590.6 -325.9,0 -590.6,264.7 -590.6,590.6 z"
         style="fill:none;stroke:#000000;stroke-width:157.48;stroke-linecap:round;stroke-linejoin:round;stroke-miterlimit:10;stroke-dasharray:none;stroke-opacity:1"
         transform="matrix(0.0096,0,0,-0.0096,0,1122.6667)" /><path
         id="path12"
         d="m 37409.4,78930 c 0,325.9 264.7,590.6 590.6,590.6 325.9,0 590.6,-264.7 590.6,-590.6 0,-325.9 -264.7,-590.6 -590.6,-590.6 -325.9,0 -590.6,264.7 -590.6,590.6 z"
         style="fill:none;stroke:#000000;stroke-width:157.48;stroke-linecap:round;stroke-linejoin:round;stroke-miterlimit:10;stroke-dasharray:none;stroke-opacity:1"
         transform="matrix(0.0096,0,0,-0.0096,0,1122.6667)" /><path
         id="path13"
         d="m 29409.4,78930 c 0,325.9 264.7,590.6 590.6,590.6 325.9,0 590.6,-264.7 590.6,-590.6 0,-325.9 -264.7,-590.6 -590.6,-590.6 -325.9,0 -590.6,264.7 -590.6,590.6 z"
         style="fill:none;stroke:#000000;stroke-width:157.48;stroke-linecap:round;stroke-linejoin:round;stroke-miterlimit:10;stroke-dasharray:none;stroke-opacity:1"
         transform="matrix(0.0096,0,0,-0.0096,0,1122.6667)" /><path
         id="path14"
         d="M 60003.9,80733.1 V 36126.9"
         style="fill:none;stroke:#000000;stroke-width:157.48;stroke-linecap:round;stroke-linejoin:round;stroke-miterlimit:10;stroke-dasharray:none;stroke-opacity:1"
         transform="matrix(0.0096,0,0,-0.0096,0,1122.6667)" /><path
         id="path15"
         d="M 22996.1,80733.1 V 36126.9"
         style="fill:none;stroke:#000000;stroke-width:157.48;stroke-linecap:round;stroke-linejoin:round;stroke-miterlimit:10;stroke-dasharray:none;stroke-opacity:1"
         transform="matrix(0.0096,0,0,-0.0096,0,1122.6667)" /><path
         id="path16"
         d="m 24216.5,34906.4 h 34567"
         style="fill:none;stroke:#000000;stroke-width:157.48;stroke-linecap:round;stroke-linejoin:round;stroke-miterlimit:10;stroke-dasharray:none;stroke-opacity:1"
         transform="matrix(0.0096,0,0,-0.0096,0,1122.6667)" /><path
         id="path17"
         d="m 24216.5,81953.6 h 34567"
         style="fill:none;stroke:#000000;stroke-width:157.48;stroke-linecap:round;stroke-linejoin:round;stroke-miterlimit:10;stroke-dasharray:none;stroke-opacity:1"
         transform="matrix(0.0096,0,0,-0.0096,0,1122.6667)" /><path
         id="path18"
         d="m 27082.7,70851.3 c 0,782 635.2,1417.3 1417.3,1417.3 782.1,0 1417.3,-635.3 1417.3,-1417.3 0,-782.1 -635.2,-1417.4 -1417.3,-1417.4 -782.1,0 -1417.3,635.3 -1417.3,1417.4 z"
         style="fill:none;stroke:#000000;stroke-width:157.48;stroke-linecap:round;stroke-linejoin:round;stroke-miterlimit:10;stroke-dasharray:none;stroke-opacity:1"
         transform="matrix(0.0096,0,0,-0.0096,0,1122.6667)" /><path
         id="path19"
         d="m 40456.7,46430 c 0,575.7 467.6,1043.3 1043.3,1043.3 575.7,0 1043.3,-467.6 1043.3,-1043.3 0,-575.7 -467.6,-1043.3 -1043.3,-1043.3 -575.7,0 -1043.3,467.6 -1043.3,1043.3 z"
         style="fill:none;stroke:#000000;stroke-width:157.48;stroke-linecap:round;stroke-linejoin:round;stroke-miterlimit:10;stroke-dasharray:none;stroke-opacity:1"
         transform="matrix(0.0096,0,0,-0.0096,0,1122.6667)" /><path
         id="path20"
         d="m 39137.8,40430 c 0,1303.4 1058.8,2362.2 2362.2,2362.2 1303.4,0 2362.2,-1058.8 2362.2,-2362.2 0,-1303.4 -1058.8,-2362.2 -2362.2,-2362.2 -1303.4,0 -2362.2,1058.8 -2362.2,2362.2 z"
         style="fill:none;stroke:#000000;stroke-width:157.48;stroke-linecap:round;stroke-linejoin:round;stroke-miterlimit:10;stroke-dasharray:none;stroke-opacity:1"
         transform="matrix(0.0096,0,0,-0.0096,0,1122.6667)" /><path
         id="path21"
         d="m 25515.7,78646.5 c 0,434.5 353,787.4 787.4,787.4 434.5,0 787.5,-352.9 787.5,-787.4 0,-434.4 -353,-787.4 -787.5,-787.4 -434.4,0 -787.4,353 -787.4,787.4 z"
         style="fill:none;stroke:#000000;stroke-width:157.48;stroke-linecap:round;stroke-linejoin:round;stroke-miterlimit:10;stroke-dasharray:none;stroke-opacity:1"
         transform="matrix(0.0096,0,0,-0.0096,0,1122.6667)" /><path
         id="path22"
         d="m 55909.4,78646.5 c 0,434.5 353,787.4 787.5,787.4 434.4,0 787.4,-352.9 787.4,-787.4 0,-434.4 -353,-787.4 -787.4,-787.4 -434.5,0 -787.5,353 -787.5,787.4 z"
         style="fill:none;stroke:#000000;stroke-width:157.48;stroke-linecap:round;stroke-linejoin:round;stroke-miterlimit:10;stroke-dasharray:none;stroke-opacity:1"
         transform="matrix(0.0096,0,0,-0.0096,0,1122.6667)" /><path
         id="path23"
         d="m 25515.7,38213.5 c 0,434.4 353,787.4 787.4,787.4 434.5,0 787.5,-353 787.5,-787.4 0,-434.5 -353,-787.4 -787.5,-787.4 -434.4,0 -787.4,352.9 -787.4,787.4 z"
         style="fill:none;stroke:#000000;stroke-width:157.48;stroke-linecap:round;stroke-linejoin:round;stroke-miterlimit:10;stroke-dasharray:none;stroke-opacity:1"
         transform="matrix(0.0096,0,0,-0.0096,0,1122.6667)" /><path
         id="path24"
         d="m 55909.4,38213.5 c 0,434.4 353,787.4 787.5,787.4 434.4,0 787.4,-353 787.4,-787.4 0,-434.5 -353,-787.4 -787.4,-787.4 -434.5,0 -787.5,352.9 -787.5,787.4 z"
         style="fill:none;stroke:#000000;stroke-width:157.48;stroke-linecap:round;stroke-linejoin:round;stroke-miterlimit:10;stroke-dasharray:none;stroke-opacity:1"
         transform="matrix(0.0096,0,0,-0.0096,0,1122.6667)" /></g><path
       style="opacity:1;fill:#000000;fill-opacity:1;stroke:none;stroke-width:0;stroke-linecap:round;stroke-linejoin:round;stroke-miterlimit:4;stroke-dasharray:none;stroke-dashoffset:0;stroke-opacity:1;paint-order:normal"
       d="m 47.000163,272.97004 a 9.9999989,9.9999989 0 0 0 -10.000422,9.9999 9.9999989,9.9999989 0 0 0 10.000422,9.99991 9.9999989,9.9999989 0 0 0 9.999905,-9.99991 9.9999989,9.9999989 0 0 0 -9.999905,-9.9999 z m 0,4.49998 a 5.4999995,5.4999995 0 0 1 5.499922,5.49992 5.4999995,5.4999995 0 0 1 -5.499922,5.49993 5.4999995,5.4999995 0 0 1 -5.500439,-5.49993 5.4999995,5.4999995 0 0 1 5.500439,-5.49992 z"
       id="path162-3" /><path
       id="path14-6"
       style="fill:#000000;fill-opacity:1;stroke-width:0.264999"
       d="m 17.789645,181.77989 a 3.4000001,3.4000001 0 0 0 -3.39979,3.40031 3.4000001,3.4000001 0 0 0 3.39979,3.3998 3.4000001,3.4000001 0 0 0 3.40031,-3.3998 3.4000001,3.4000001 0 0 0 -3.40031,-3.40031 z m 0,2.40037 a 1,1 0 0 1 1.00046,0.99994 1,1 0 0 1 -1.00046,0.99994 1,1 0 0 1 -0.99994,-0.99994 1,1 0 0 1 0.99994,-0.99994 z" /><path
       id="path14-7"
       style="fill:#000000;fill-opacity:1;stroke-width:0.264999"
       d="m 38.109646,181.77989 a 3.4000001,3.4000001 0 0 0 -3.399792,3.40031 3.4000001,3.4000001 0 0 0 3.399792,3.3998 3.4000001,3.4000001 0 0 0 3.40031,-3.3998 3.4000001,3.4000001 0 0 0 -3.40031,-3.40031 z m 0,2.40037 a 1,1 0 0 1 1.000456,0.99994 1,1 0 0 1 -1.000456,0.99994 1,1 0 0 1 -0.999939,-0.99994 1,1 0 0 1 0.999939,-0.99994 z" /><path
       id="path14-5"
       style="fill:#000000;fill-opacity:1;stroke-width:0.264999"
       d="m 55.889646,181.77989 a 3.4000001,3.4000001 0 0 0 -3.399792,3.40031 3.4000001,3.4000001 0 0 0 3.399792,3.3998 3.4000001,3.4000001 0 0 0 3.40031,-3.3998 3.4000001,3.4000001 0 0 0 -3.40031,-3.40031 z m 0,2.40037 a 1,1 0 0 1 1.000456,0.99994 1,1 0 0 1 -1.000456,0.99994 1,1 0 0 1 -0.999939,-0.99994 1,1 0 0 1 0.999939,-0.99994 z" /><path
       id="path14-3"
       style="fill:#000000;fill-opacity:1;stroke-width:0.264999"
       d="m 76.209645,181.77989 a 3.4000001,3.4000001 0 0 0 -3.399792,3.40031 3.4000001,3.4000001 0 0 0 3.399792,3.3998 3.4000001,3.4000001 0 0 0 3.40031,-3.3998 3.4000001,3.4000001 0 0 0 -3.40031,-3.40031 z m 0,2.40038 a 1,1 0 0 1 1.000456,0.99994 1,1 0 0 1 -1.000456,0.99994 1,1 0 0 1 -0.999939,-0.99994 1,1 0 0 1 0.999939,-0.99994 z" /><path
       id="path14-56"
       style="fill:#000000;fill-opacity:1;stroke-width:0.264999"
       d="m 27.949646,244.20991 a 3.4000001,3.4000001 0 0 0 -3.399792,3.40031 3.4000001,3.4000001 0 0 0 3.399792,3.3998 3.4000001,3.4000001 0 0 0 3.40031,-3.3998 3.4000001,3.4000001 0 0 0 -3.40031,-3.40031 z m 0,2.40037 a 1,1 0 0 1 1.000456,0.99994 1,1 0 0 1 -1.000456,0.99994 1,1 0 0 1 -0.999939,-0.99994 1,1 0 0 1 0.999939,-0.99994 z" /><path
       id="path14-2"
       style="fill:#000000;fill-opacity:1;stroke-width:0.264999"
       d="m 66.049645,244.20991 a 3.4000001,3.4000001 0 0 0 -3.399792,3.40031 3.4000001,3.4000001 0 0 0 3.399792,3.3998 3.4000001,3.4000001 0 0 0 3.40031,-3.3998 3.4000001,3.4000001 0 0 0 -3.40031,-3.40031 z m 0,2.40037 a 1,1 0 0 1 1.000456,0.99994 1,1 0 0 1 -1.000456,0.99994 1,1 0 0 1 -0.999939,-0.99994 1,1 0 0 1 0.999939,-0.99994 z" /><path
       style="opacity:1;fill:#000000;fill-opacity:1;stroke:none;stroke-width:0;stroke-linecap:round;stroke-linejoin:round;stroke-miterlimit:4;stroke-dasharray:none;stroke-dashoffset:0;stroke-opacity:1;paint-order:normal"
       d="m 20.041016,83.517578 c -7.537903,0 -13.6054691,6.067566 -13.6054691,13.605469 v 18.898433 c 0,7.53791 6.0675661,13.60547 13.6054691,13.60547 H 335.25391 c 7.5379,0 13.60742,-6.06756 13.60742,-13.60547 V 97.123047 c 0,-7.537903 -6.06952,-13.605469 -13.60742,-13.605469 z m 32.80664,11.337891 A 11.716535,11.716535 0 0 1 64.564453,106.57227 11.716535,11.716535 0 0 1 52.847656,118.28906 11.716535,11.716535 0 0 1 41.130859,106.57227 11.716535,11.716535 0 0 1 52.847656,94.855469 Z m 124.800784,0 a 11.716535,11.716535 0 0 1 11.71679,11.716801 11.716535,11.716535 0 0 1 -11.71679,11.71679 11.716535,11.716535 0 0 1 -11.7168,-11.71679 11.716535,11.716535 0 0 1 11.7168,-11.716801 z m 124.79883,0 a 11.716535,11.716535 0 0 1 11.71679,11.716801 11.716535,11.716535 0 0 1 -11.71679,11.71679 11.716535,11.716535 0 0 1 -11.71485,-11.71679 11.716535,11.716535 0 0 1 11.71485,-11.716801 z"
       id="rect1003"
       transform="matrix(0.26458333,0,0,0.26458333,0,177.5)" /></g></svg>
