<?xml version="1.0" encoding="UTF-8" standalone="no"?>
<!-- Created with Inkscape (http://www.inkscape.org/) -->

<svg
   xmlns:dc="http://purl.org/dc/elements/1.1/"
   xmlns:cc="http://creativecommons.org/ns#"
   xmlns:rdf="http://www.w3.org/1999/02/22-rdf-syntax-ns#"
   xmlns:svg="http://www.w3.org/2000/svg"
   xmlns="http://www.w3.org/2000/svg"
   xmlns:sodipodi="http://sodipodi.sourceforge.net/DTD/sodipodi-0.dtd"
   xmlns:inkscape="http://www.inkscape.org/namespaces/inkscape"
   width="66mm"
   height="121mm"
   viewBox="0 0 65.999999 121"
   version="1.1"
   id="svg8"
   inkscape:version="0.92.5 (2060ec1f9f, 2020-04-08)"
   sodipodi:docname="тремоло_саши_огородникова_r1sm_bottom.svg">
  <title
     id="title13">Тремоло Саши Огородникова [REV1SM] Bottom</title>
  <defs
     id="defs2">
    <clipPath
       id="clipPath96"
       clipPathUnits="userSpaceOnUse">
      <path
         inkscape:connector-curvature="0"
         id="path94"
         d="M 0,150 H 350 V 0 H 0 Z" />
    </clipPath>
    <clipPath
       id="clipPath96-3"
       clipPathUnits="userSpaceOnUse">
      <path
         inkscape:connector-curvature="0"
         id="path94-6"
         d="M 0,150 H 350 V 0 H 0 Z" />
    </clipPath>
  </defs>
  <sodipodi:namedview
     id="base"
     pagecolor="#ffffff"
     bordercolor="#666666"
     borderopacity="1.0"
     inkscape:pageopacity="1"
     inkscape:pageshadow="2"
     inkscape:zoom="1.5393939"
     inkscape:cx="124.72441"
     inkscape:cy="228.66142"
     inkscape:document-units="mm"
     inkscape:current-layer="layer1"
     showgrid="false"
     inkscape:window-width="1596"
     inkscape:window-height="864"
     inkscape:window-x="0"
     inkscape:window-y="16"
     inkscape:window-maximized="0" />
  <metadata
     id="metadata5">
    <rdf:RDF>
      <cc:Work
         rdf:about="">
        <dc:format>image/svg+xml</dc:format>
        <dc:type
           rdf:resource="http://purl.org/dc/dcmitype/StillImage" />
        <dc:title>Тремоло Саши Огородникова [REV1SM] Bottom</dc:title>
        <cc:license
           rdf:resource="http://creativecommons.org/licenses/by-sa/4.0/" />
        <dc:creator>
          <cc:Agent>
            <dc:title>Igor Ivanov</dc:title>
          </cc:Agent>
        </dc:creator>
        <dc:date>23.06.2023</dc:date>
        <dc:contributor>
          <cc:Agent>
            <dc:title />
          </cc:Agent>
        </dc:contributor>
      </cc:Work>
      <cc:License
         rdf:about="http://creativecommons.org/licenses/by-sa/4.0/">
        <cc:permits
           rdf:resource="http://creativecommons.org/ns#Reproduction" />
        <cc:permits
           rdf:resource="http://creativecommons.org/ns#Distribution" />
        <cc:requires
           rdf:resource="http://creativecommons.org/ns#Notice" />
        <cc:requires
           rdf:resource="http://creativecommons.org/ns#Attribution" />
        <cc:permits
           rdf:resource="http://creativecommons.org/ns#DerivativeWorks" />
        <cc:requires
           rdf:resource="http://creativecommons.org/ns#ShareAlike" />
      </cc:License>
    </rdf:RDF>
  </metadata>
  <g
     inkscape:label="Layer 1"
     inkscape:groupmode="layer"
     id="layer1"
     transform="translate(0,-176)">
    <path
       style="opacity:1;fill:#000000;fill-opacity:1;stroke:none;stroke-width:0;stroke-linecap:round;stroke-linejoin:round;stroke-miterlimit:4;stroke-dasharray:none;stroke-dashoffset:0;stroke-opacity:1;paint-order:normal"
       d="m 33.000334,262.05995 a 9.9999989,9.9999989 0 0 0 -10.000421,9.9999 9.9999989,9.9999989 0 0 0 10.000421,9.99991 9.9999989,9.9999989 0 0 0 9.999906,-9.99991 9.9999989,9.9999989 0 0 0 -9.999906,-9.9999 z m 0,4.49998 a 5.4999995,5.4999995 0 0 1 5.499923,5.49991 5.4999995,5.4999995 0 0 1 -5.499923,5.49993 5.4999995,5.4999995 0 0 1 -5.500438,-5.49993 5.4999995,5.4999995 0 0 1 5.500438,-5.49991 z"
       id="path162-3"
       inkscape:connector-curvature="0" />
    <path
       style="opacity:1;fill:#000000;fill-opacity:1;fill-rule:nonzero;stroke:none;stroke-width:0.24566928;stroke-linecap:round;stroke-linejoin:round;stroke-miterlimit:4;stroke-dasharray:none;stroke-dashoffset:3.59055138;stroke-opacity:1;paint-order:normal"
       d="M 20.03125 86.361328 C 12.49336 86.361328 6.4257812 92.43086 6.4257812 99.96875 L 6.4257812 118.86523 C 6.4257812 126.40312 12.49336 132.47266 20.03125 132.47266 L 229.41797 132.47266 C 236.95586 132.47266 243.02344 126.40312 243.02344 118.86523 L 243.02344 99.96875 C 243.02344 92.43086 236.95586 86.361328 229.41797 86.361328 L 20.03125 86.361328 z M 67.125 97.701172 A 11.716535 11.716535 0 0 1 78.841797 109.41602 A 11.716535 11.716535 0 0 1 67.125 121.13281 A 11.716535 11.716535 0 0 1 55.408203 109.41602 A 11.716535 11.716535 0 0 1 67.125 97.701172 z M 182.32422 97.701172 A 11.716536 11.716536 0 0 1 194.04102 109.41602 A 11.716536 11.716536 0 0 1 182.32422 121.13281 A 11.716536 11.716536 0 0 1 170.60742 109.41602 A 11.716536 11.716536 0 0 1 182.32422 97.701172 z "
       transform="matrix(0.26458333,0,0,0.26458333,0,176)"
       id="rect1152" />
  </g>
</svg>
