M48
; DRILL file {KiCad 5.1.6-c6e7f7d~87~ubuntu19.10.1} date Sun Jan  9 06:03:21 2022
; FORMAT={-:-/ absolute / metric / decimal}
; #@! TF.CreationDate,2022-01-09T06:03:21+06:00
; #@! TF.GenerationSoftware,Kicad,Pcbnew,5.1.6-c6e7f7d~87~ubuntu19.10.1
FMAT,2
METRIC
T1C0.600
T2C0.800
T3C0.900
T4C1.000
T5C1.200
%
G90
G05
T1
X99.06Y-153.035
X104.14Y-153.035
T3
X99.06Y-139.065
X99.06Y-146.685
X98.485Y-158.115
X100.985Y-158.115
X103.485Y-158.115
X105.985Y-158.115
T4
X107.95Y-153.035
X110.49Y-153.035
X113.03Y-157.48
X110.49Y-157.48
T2
G00X104.31Y-142.755
M15
G01X106.51Y-142.755
M16
G05
G00X104.06Y-148.755
M15
G01X106.76Y-148.755
M16
G05
G00X110.21Y-145.155
M15
G01X110.21Y-147.355
M16
G05
T4
G00X118.15Y-157.155
M15
G01X118.15Y-158.355
M16
G05
G00X123.15Y-157.155
M15
G01X123.15Y-158.355
M16
G05
G00X87.67Y-157.155
M15
G01X87.67Y-158.355
M16
G05
G00X92.67Y-157.155
M15
G01X92.67Y-158.355
M16
G05
T5
G00X120.65Y-142.255
M15
G01X120.65Y-143.255
M16
G05
G00X90.17Y-142.255
M15
G01X90.17Y-143.255
M16
G05
T0
M30
