M48
; DRILL file {KiCad 5.1.6-c6e7f7d~87~ubuntu19.10.1} date Sat Jul 30 15:19:20 2022
; FORMAT={-:-/ absolute / metric / decimal}
; #@! TF.CreationDate,2022-07-30T15:19:20+06:00
; #@! TF.GenerationSoftware,Kicad,Pcbnew,5.1.6-c6e7f7d~87~ubuntu19.10.1
FMAT,2
METRIC
T1C0.600
T2C0.800
T3C0.900
T4C1.000
T5C1.200
T6C1.300
T7C1.500
%
G90
G05
T1
X113.03Y-153.035
X118.11Y-153.035
T3
X112.455Y-158.115
X114.955Y-158.115
X117.455Y-158.115
X119.955Y-158.115
X113.03Y-139.065
X113.03Y-146.685
T4
X124.46Y-157.48
X127.0Y-157.48
X121.92Y-153.035
X124.46Y-153.035
T6
X87.67Y-139.075
X92.67Y-139.075
T7
X87.77Y-151.775
X87.77Y-155.575
X87.77Y-159.375
X92.57Y-151.775
X92.57Y-155.575
X92.57Y-159.375
T2
G00X118.28Y-142.755
M15
G01X120.48Y-142.755
M16
G05
G00X118.03Y-148.755
M15
G01X120.73Y-148.755
M16
G05
G00X124.18Y-145.155
M15
G01X124.18Y-147.355
M16
G05
T4
G00X73.7Y-157.055
M15
G01X73.7Y-158.455
M16
G05
G00X78.7Y-157.055
M15
G01X78.7Y-158.455
M16
G05
G00X101.64Y-157.055
M15
G01X101.64Y-158.455
M16
G05
G00X106.64Y-157.055
M15
G01X106.64Y-158.455
M16
G05
G00X132.12Y-157.055
M15
G01X132.12Y-158.455
M16
G05
G00X137.12Y-157.055
M15
G01X137.12Y-158.455
M16
G05
T5
G00X104.14Y-142.105
M15
G01X104.14Y-143.405
M16
G05
G00X134.62Y-142.105
M15
G01X134.62Y-143.405
M16
G05
G00X76.2Y-142.105
M15
G01X76.2Y-143.405
M16
G05
T0
M30
