G04 #@! TF.GenerationSoftware,KiCad,Pcbnew,5.1.6-c6e7f7d~87~ubuntu19.10.1*
G04 #@! TF.CreationDate,2022-07-30T15:19:17+06:00*
G04 #@! TF.ProjectId,1590BB2_connector_board_extended_r1a,31353930-4242-4325-9f63-6f6e6e656374,1A*
G04 #@! TF.SameCoordinates,Original*
G04 #@! TF.FileFunction,Copper,L2,Bot*
G04 #@! TF.FilePolarity,Positive*
%FSLAX46Y46*%
G04 Gerber Fmt 4.6, Leading zero omitted, Abs format (unit mm)*
G04 Created by KiCad (PCBNEW 5.1.6-c6e7f7d~87~ubuntu19.10.1) date 2022-07-30 15:19:17*
%MOMM*%
%LPD*%
G01*
G04 APERTURE LIST*
G04 #@! TA.AperFunction,ComponentPad*
%ADD10R,2.500000X2.500000*%
G04 #@! TD*
G04 #@! TA.AperFunction,ComponentPad*
%ADD11O,2.700000X4.000000*%
G04 #@! TD*
G04 #@! TA.AperFunction,ComponentPad*
%ADD12O,2.500000X3.900000*%
G04 #@! TD*
G04 #@! TA.AperFunction,ComponentPad*
%ADD13O,5.500000X3.000000*%
G04 #@! TD*
G04 #@! TA.AperFunction,ComponentPad*
%ADD14O,3.000000X5.000000*%
G04 #@! TD*
G04 #@! TA.AperFunction,ComponentPad*
%ADD15O,5.000000X3.000000*%
G04 #@! TD*
G04 #@! TA.AperFunction,ComponentPad*
%ADD16C,1.900000*%
G04 #@! TD*
G04 #@! TA.AperFunction,ComponentPad*
%ADD17R,1.900000X1.900000*%
G04 #@! TD*
G04 #@! TA.AperFunction,Conductor*
%ADD18C,1.000000*%
G04 #@! TD*
G04 #@! TA.AperFunction,Conductor*
%ADD19C,0.600000*%
G04 #@! TD*
G04 #@! TA.AperFunction,Conductor*
%ADD20C,0.500000*%
G04 #@! TD*
G04 APERTURE END LIST*
D10*
X92670000Y-139075000D03*
X87670000Y-139075000D03*
X87770000Y-151775000D03*
X87770000Y-155575000D03*
X87770000Y-159375000D03*
X92570000Y-151775000D03*
X92570000Y-159375000D03*
X92570000Y-155575000D03*
D11*
X104140000Y-142755000D03*
D12*
X106640000Y-157755000D03*
X101640000Y-157755000D03*
D11*
X134620000Y-142755000D03*
D12*
X137120000Y-157755000D03*
X132120000Y-157755000D03*
X73700000Y-157755000D03*
X78700000Y-157755000D03*
D11*
X76200000Y-142755000D03*
D13*
X119380000Y-148755000D03*
D14*
X124180000Y-146255000D03*
D15*
X119380000Y-142755000D03*
D16*
X113030000Y-139065000D03*
D17*
X113030000Y-146685000D03*
X112455000Y-158115000D03*
X114955000Y-158115000D03*
X117455000Y-158115000D03*
D16*
X119955000Y-158115000D03*
D17*
X118110000Y-153035000D03*
X113030000Y-153035000D03*
X124460000Y-157480000D03*
D16*
X124460000Y-153035000D03*
G04 #@! TA.AperFunction,ComponentPad*
G36*
G01*
X122870000Y-152655000D02*
X122870000Y-153415000D01*
G75*
G02*
X122300000Y-153985000I-570000J0D01*
G01*
X121540000Y-153985000D01*
G75*
G02*
X120970000Y-153415000I0J570000D01*
G01*
X120970000Y-152655000D01*
G75*
G02*
X121540000Y-152085000I570000J0D01*
G01*
X122300000Y-152085000D01*
G75*
G02*
X122870000Y-152655000I0J-570000D01*
G01*
G37*
G04 #@! TD.AperFunction*
D17*
X127000000Y-157480000D03*
D18*
X136525000Y-154305000D02*
X137120000Y-154900000D01*
X137120000Y-154900000D02*
X137120000Y-157755000D01*
X130175000Y-154305000D02*
X136525000Y-154305000D01*
X128905000Y-155575000D02*
X130175000Y-154305000D01*
X118110000Y-155575000D02*
X128905000Y-155575000D01*
X117455000Y-156230000D02*
X118110000Y-155575000D01*
X117455000Y-158115000D02*
X117455000Y-156230000D01*
D19*
X87770000Y-155575000D02*
X89535000Y-155575000D01*
X89535000Y-155575000D02*
X90170000Y-156210000D01*
X90170000Y-156845000D02*
X90805000Y-157480000D01*
X90805000Y-157480000D02*
X94615000Y-157480000D01*
X90170000Y-156210000D02*
X90170000Y-156845000D01*
X94615000Y-157480000D02*
X97790000Y-160655000D01*
X117455000Y-160040000D02*
X117455000Y-158115000D01*
X116840000Y-160655000D02*
X117455000Y-160040000D01*
X97790000Y-160655000D02*
X116840000Y-160655000D01*
X114300000Y-155575000D02*
X114955000Y-156230000D01*
X107315000Y-153035000D02*
X109855000Y-155575000D01*
X99060000Y-153035000D02*
X107315000Y-153035000D01*
X98425000Y-153670000D02*
X99060000Y-153035000D01*
X114955000Y-156230000D02*
X114955000Y-158115000D01*
X109855000Y-155575000D02*
X114300000Y-155575000D01*
X80010000Y-153670000D02*
X98425000Y-153670000D01*
X78700000Y-154980000D02*
X80010000Y-153670000D01*
X78700000Y-157755000D02*
X78700000Y-154980000D01*
D18*
X99060000Y-155575000D02*
X92570000Y-155575000D01*
X100330000Y-154305000D02*
X99060000Y-155575000D01*
X106045000Y-154305000D02*
X100330000Y-154305000D01*
X106640000Y-154900000D02*
X106045000Y-154305000D01*
X106640000Y-157755000D02*
X106640000Y-154900000D01*
X87770000Y-151775000D02*
X92570000Y-151775000D01*
D20*
G36*
X122655888Y-158430000D02*
G01*
X122672300Y-158596629D01*
X122720903Y-158756855D01*
X122799832Y-158904519D01*
X122859067Y-158976697D01*
X122766711Y-159114918D01*
X122622675Y-159462653D01*
X122549245Y-159831807D01*
X122549245Y-160208193D01*
X122622675Y-160577347D01*
X122745966Y-160875000D01*
X118250304Y-160875000D01*
X118272107Y-160857107D01*
X118415816Y-160681997D01*
X118522602Y-160482215D01*
X118588360Y-160265439D01*
X118605000Y-160096492D01*
X118605000Y-160096483D01*
X118610563Y-160040001D01*
X118605000Y-159983519D01*
X118605000Y-159892577D01*
X118731855Y-159854097D01*
X118879519Y-159775168D01*
X119008948Y-159668948D01*
X119020233Y-159655197D01*
X119243463Y-159777873D01*
X119581545Y-159884735D01*
X119933979Y-159923587D01*
X120287221Y-159892936D01*
X120627695Y-159793961D01*
X120942318Y-159630463D01*
X120977276Y-159607107D01*
X121047781Y-159278492D01*
X119955000Y-158185711D01*
X119940858Y-158199853D01*
X119870147Y-158129142D01*
X119884289Y-158115000D01*
X119870147Y-158100858D01*
X119940858Y-158030147D01*
X119955000Y-158044289D01*
X119969142Y-158030147D01*
X120039853Y-158100858D01*
X120025711Y-158115000D01*
X121118492Y-159207781D01*
X121447107Y-159137276D01*
X121617873Y-158826537D01*
X121724735Y-158488455D01*
X121763587Y-158136021D01*
X121732936Y-157782779D01*
X121633961Y-157442305D01*
X121470463Y-157127682D01*
X121447107Y-157092724D01*
X121118494Y-157022219D01*
X121215713Y-156925000D01*
X122655888Y-156925000D01*
X122655888Y-158430000D01*
G37*
X122655888Y-158430000D02*
X122672300Y-158596629D01*
X122720903Y-158756855D01*
X122799832Y-158904519D01*
X122859067Y-158976697D01*
X122766711Y-159114918D01*
X122622675Y-159462653D01*
X122549245Y-159831807D01*
X122549245Y-160208193D01*
X122622675Y-160577347D01*
X122745966Y-160875000D01*
X118250304Y-160875000D01*
X118272107Y-160857107D01*
X118415816Y-160681997D01*
X118522602Y-160482215D01*
X118588360Y-160265439D01*
X118605000Y-160096492D01*
X118605000Y-160096483D01*
X118610563Y-160040001D01*
X118605000Y-159983519D01*
X118605000Y-159892577D01*
X118731855Y-159854097D01*
X118879519Y-159775168D01*
X119008948Y-159668948D01*
X119020233Y-159655197D01*
X119243463Y-159777873D01*
X119581545Y-159884735D01*
X119933979Y-159923587D01*
X120287221Y-159892936D01*
X120627695Y-159793961D01*
X120942318Y-159630463D01*
X120977276Y-159607107D01*
X121047781Y-159278492D01*
X119955000Y-158185711D01*
X119940858Y-158199853D01*
X119870147Y-158129142D01*
X119884289Y-158115000D01*
X119870147Y-158100858D01*
X119940858Y-158030147D01*
X119955000Y-158044289D01*
X119969142Y-158030147D01*
X120039853Y-158100858D01*
X120025711Y-158115000D01*
X121118492Y-159207781D01*
X121447107Y-159137276D01*
X121617873Y-158826537D01*
X121724735Y-158488455D01*
X121763587Y-158136021D01*
X121732936Y-157782779D01*
X121633961Y-157442305D01*
X121470463Y-157127682D01*
X121447107Y-157092724D01*
X121118494Y-157022219D01*
X121215713Y-156925000D01*
X122655888Y-156925000D01*
X122655888Y-158430000D01*
G36*
X139920001Y-160875000D02*
G01*
X128714034Y-160875000D01*
X128837325Y-160577347D01*
X128910755Y-160208193D01*
X128910755Y-159831807D01*
X128837325Y-159462653D01*
X128693289Y-159114918D01*
X128600933Y-158976697D01*
X128660168Y-158904519D01*
X128739097Y-158756855D01*
X128787700Y-158596629D01*
X128804112Y-158430000D01*
X128804112Y-156925000D01*
X128838681Y-156925000D01*
X128905000Y-156931532D01*
X128971319Y-156925000D01*
X128971321Y-156925000D01*
X129169646Y-156905467D01*
X129424122Y-156828272D01*
X129658649Y-156702915D01*
X129864213Y-156534213D01*
X129906491Y-156482697D01*
X130203482Y-156185706D01*
X130170465Y-156247477D01*
X130050385Y-156643329D01*
X130020000Y-156951834D01*
X130020000Y-158558167D01*
X130050385Y-158866672D01*
X130170466Y-159262524D01*
X130365466Y-159627343D01*
X130627892Y-159947109D01*
X130947658Y-160209535D01*
X131312477Y-160404535D01*
X131708329Y-160524615D01*
X132120000Y-160565161D01*
X132531672Y-160524615D01*
X132927524Y-160404535D01*
X133292343Y-160209535D01*
X133612109Y-159947109D01*
X133874535Y-159627343D01*
X134069535Y-159262524D01*
X134189615Y-158866671D01*
X134220000Y-158558166D01*
X134220000Y-156951833D01*
X134189615Y-156643328D01*
X134069535Y-156247476D01*
X133874535Y-155882657D01*
X133687701Y-155655000D01*
X135552299Y-155655000D01*
X135365465Y-155882657D01*
X135170465Y-156247477D01*
X135050385Y-156643329D01*
X135020000Y-156951834D01*
X135020000Y-158558167D01*
X135050385Y-158866672D01*
X135170466Y-159262524D01*
X135365466Y-159627343D01*
X135627892Y-159947109D01*
X135947658Y-160209535D01*
X136312477Y-160404535D01*
X136708329Y-160524615D01*
X137120000Y-160565161D01*
X137531672Y-160524615D01*
X137927524Y-160404535D01*
X138292343Y-160209535D01*
X138612109Y-159947109D01*
X138874535Y-159627343D01*
X139069535Y-159262524D01*
X139189615Y-158866671D01*
X139220000Y-158558166D01*
X139220000Y-156951833D01*
X139189615Y-156643328D01*
X139069535Y-156247476D01*
X138874535Y-155882657D01*
X138612109Y-155562891D01*
X138470000Y-155446265D01*
X138470000Y-154966310D01*
X138476531Y-154899999D01*
X138470000Y-154833688D01*
X138470000Y-154833679D01*
X138450467Y-154635354D01*
X138373272Y-154380878D01*
X138247915Y-154146351D01*
X138160925Y-154040354D01*
X138121490Y-153992302D01*
X138121487Y-153992299D01*
X138079212Y-153940787D01*
X138027701Y-153898513D01*
X137526491Y-153397303D01*
X137484213Y-153345787D01*
X137278649Y-153177085D01*
X137044122Y-153051728D01*
X136789646Y-152974533D01*
X136591321Y-152955000D01*
X136591319Y-152955000D01*
X136525000Y-152948468D01*
X136458681Y-152955000D01*
X130241310Y-152955000D01*
X130174999Y-152948469D01*
X130108688Y-152955000D01*
X130108679Y-152955000D01*
X129910354Y-152974533D01*
X129655878Y-153051728D01*
X129555339Y-153105467D01*
X129421350Y-153177085D01*
X129267301Y-153303510D01*
X129267298Y-153303513D01*
X129215787Y-153345787D01*
X129173513Y-153397298D01*
X128345812Y-154225000D01*
X125815584Y-154225000D01*
X125858151Y-154182433D01*
X126055139Y-153887620D01*
X126190827Y-153560041D01*
X126260000Y-153212284D01*
X126260000Y-152857716D01*
X126190827Y-152509959D01*
X126055139Y-152182380D01*
X125858151Y-151887567D01*
X125607433Y-151636849D01*
X125312620Y-151439861D01*
X124985041Y-151304173D01*
X124637284Y-151235000D01*
X124282716Y-151235000D01*
X123934959Y-151304173D01*
X123607380Y-151439861D01*
X123499372Y-151512029D01*
X123473949Y-151481051D01*
X123344520Y-151374831D01*
X123196855Y-151295902D01*
X123036629Y-151247299D01*
X122870000Y-151230887D01*
X122182500Y-151235000D01*
X121970000Y-151447500D01*
X121970000Y-152985000D01*
X121990000Y-152985000D01*
X121990000Y-153085000D01*
X121970000Y-153085000D01*
X121970000Y-153105000D01*
X121870000Y-153105000D01*
X121870000Y-153085000D01*
X120332500Y-153085000D01*
X120120000Y-153297500D01*
X120115887Y-153985000D01*
X120132299Y-154151629D01*
X120154555Y-154225000D01*
X119875445Y-154225000D01*
X119897701Y-154151629D01*
X119914113Y-153985000D01*
X119910000Y-153297500D01*
X119697500Y-153085000D01*
X118160000Y-153085000D01*
X118160000Y-153105000D01*
X118060000Y-153105000D01*
X118060000Y-153085000D01*
X116522500Y-153085000D01*
X116310000Y-153297500D01*
X116305887Y-153985000D01*
X116322299Y-154151629D01*
X116370902Y-154311855D01*
X116449831Y-154459520D01*
X116556051Y-154588949D01*
X116685480Y-154695169D01*
X116833145Y-154774098D01*
X116962481Y-154813331D01*
X116547299Y-155228513D01*
X116495788Y-155270787D01*
X116453514Y-155322298D01*
X116453510Y-155322302D01*
X116327085Y-155476351D01*
X116201729Y-155710878D01*
X116124534Y-155965354D01*
X116104516Y-156168595D01*
X116088360Y-156004561D01*
X116022602Y-155787785D01*
X115941186Y-155635467D01*
X115915816Y-155588002D01*
X115871863Y-155534446D01*
X115772107Y-155412893D01*
X115728221Y-155376877D01*
X115153125Y-154801781D01*
X115117107Y-154757893D01*
X114941997Y-154614184D01*
X114742215Y-154507398D01*
X114669081Y-154485213D01*
X114690168Y-154459519D01*
X114769097Y-154311855D01*
X114817700Y-154151629D01*
X114834112Y-153985000D01*
X114834112Y-152085000D01*
X116305887Y-152085000D01*
X116310000Y-152772500D01*
X116522500Y-152985000D01*
X118060000Y-152985000D01*
X118060000Y-151447500D01*
X118160000Y-151447500D01*
X118160000Y-152985000D01*
X119697500Y-152985000D01*
X119910000Y-152772500D01*
X119914113Y-152085000D01*
X120115887Y-152085000D01*
X120120000Y-152772500D01*
X120332500Y-152985000D01*
X121870000Y-152985000D01*
X121870000Y-151447500D01*
X121657500Y-151235000D01*
X120970000Y-151230887D01*
X120803371Y-151247299D01*
X120643145Y-151295902D01*
X120495480Y-151374831D01*
X120366051Y-151481051D01*
X120259831Y-151610480D01*
X120180902Y-151758145D01*
X120132299Y-151918371D01*
X120115887Y-152085000D01*
X119914113Y-152085000D01*
X119897701Y-151918371D01*
X119849098Y-151758145D01*
X119770169Y-151610480D01*
X119663949Y-151481051D01*
X119534520Y-151374831D01*
X119386855Y-151295902D01*
X119226629Y-151247299D01*
X119060000Y-151230887D01*
X118372500Y-151235000D01*
X118160000Y-151447500D01*
X118060000Y-151447500D01*
X117847500Y-151235000D01*
X117160000Y-151230887D01*
X116993371Y-151247299D01*
X116833145Y-151295902D01*
X116685480Y-151374831D01*
X116556051Y-151481051D01*
X116449831Y-151610480D01*
X116370902Y-151758145D01*
X116322299Y-151918371D01*
X116305887Y-152085000D01*
X114834112Y-152085000D01*
X114817700Y-151918371D01*
X114769097Y-151758145D01*
X114690168Y-151610481D01*
X114583948Y-151481052D01*
X114454519Y-151374832D01*
X114306855Y-151295903D01*
X114146629Y-151247300D01*
X113980000Y-151230888D01*
X112080000Y-151230888D01*
X111913371Y-151247300D01*
X111753145Y-151295903D01*
X111605481Y-151374832D01*
X111476052Y-151481052D01*
X111369832Y-151610481D01*
X111290903Y-151758145D01*
X111242300Y-151918371D01*
X111225888Y-152085000D01*
X111225888Y-153985000D01*
X111242300Y-154151629D01*
X111290903Y-154311855D01*
X111351381Y-154425000D01*
X110331346Y-154425000D01*
X108168124Y-152261780D01*
X108132107Y-152217893D01*
X107956997Y-152074184D01*
X107757215Y-151967398D01*
X107540439Y-151901640D01*
X107371492Y-151885000D01*
X107371482Y-151885000D01*
X107315000Y-151879437D01*
X107258518Y-151885000D01*
X99116492Y-151885000D01*
X99060000Y-151879436D01*
X98834561Y-151901640D01*
X98617784Y-151967398D01*
X98517894Y-152020791D01*
X98418003Y-152074184D01*
X98242893Y-152217893D01*
X98206875Y-152261781D01*
X97948656Y-152520000D01*
X94674112Y-152520000D01*
X94674112Y-150525000D01*
X94657700Y-150358371D01*
X94609097Y-150198145D01*
X94530168Y-150050481D01*
X94423948Y-149921052D01*
X94294519Y-149814832D01*
X94146855Y-149735903D01*
X93986629Y-149687300D01*
X93820000Y-149670888D01*
X91320000Y-149670888D01*
X91153371Y-149687300D01*
X90993145Y-149735903D01*
X90845481Y-149814832D01*
X90716052Y-149921052D01*
X90609832Y-150050481D01*
X90530903Y-150198145D01*
X90482300Y-150358371D01*
X90475737Y-150425000D01*
X89864263Y-150425000D01*
X89857700Y-150358371D01*
X89809097Y-150198145D01*
X89730168Y-150050481D01*
X89623948Y-149921052D01*
X89494519Y-149814832D01*
X89346855Y-149735903D01*
X89186629Y-149687300D01*
X89020000Y-149670888D01*
X86520000Y-149670888D01*
X86353371Y-149687300D01*
X86193145Y-149735903D01*
X86045481Y-149814832D01*
X85916052Y-149921052D01*
X85809832Y-150050481D01*
X85730903Y-150198145D01*
X85682300Y-150358371D01*
X85665888Y-150525000D01*
X85665888Y-152520000D01*
X80066484Y-152520000D01*
X80010000Y-152514437D01*
X79953516Y-152520000D01*
X79953508Y-152520000D01*
X79784561Y-152536640D01*
X79567784Y-152602398D01*
X79368003Y-152709184D01*
X79192893Y-152852893D01*
X79156881Y-152896774D01*
X77926776Y-154126880D01*
X77882894Y-154162893D01*
X77846882Y-154206774D01*
X77739185Y-154338003D01*
X77632399Y-154537785D01*
X77566641Y-154754561D01*
X77544437Y-154980000D01*
X77550001Y-155036491D01*
X77550001Y-155288522D01*
X77527657Y-155300465D01*
X77207891Y-155562891D01*
X76945465Y-155882657D01*
X76750465Y-156247477D01*
X76630385Y-156643329D01*
X76600000Y-156951834D01*
X76600000Y-158558167D01*
X76630385Y-158866672D01*
X76750466Y-159262524D01*
X76945466Y-159627343D01*
X77207892Y-159947109D01*
X77527658Y-160209535D01*
X77892477Y-160404535D01*
X78288329Y-160524615D01*
X78700000Y-160565161D01*
X79111672Y-160524615D01*
X79507524Y-160404535D01*
X79872343Y-160209535D01*
X80192109Y-159947109D01*
X80454535Y-159627343D01*
X80649535Y-159262524D01*
X80769615Y-158866671D01*
X80800000Y-158558166D01*
X80800000Y-156951833D01*
X80769615Y-156643328D01*
X80649535Y-156247476D01*
X80454535Y-155882657D01*
X80192109Y-155562891D01*
X79945687Y-155360657D01*
X80486345Y-154820000D01*
X85665888Y-154820000D01*
X85665888Y-156825000D01*
X85682300Y-156991629D01*
X85730903Y-157151855D01*
X85809832Y-157299519D01*
X85916052Y-157428948D01*
X85972166Y-157475000D01*
X85916052Y-157521052D01*
X85809832Y-157650481D01*
X85730903Y-157798145D01*
X85682300Y-157958371D01*
X85665888Y-158125000D01*
X85665888Y-160625000D01*
X85682300Y-160791629D01*
X85707590Y-160875000D01*
X70900000Y-160875000D01*
X70900000Y-157805000D01*
X71600000Y-157805000D01*
X71600000Y-158505000D01*
X71650105Y-158913729D01*
X71778987Y-159304829D01*
X71981692Y-159663271D01*
X72250431Y-159975280D01*
X72574876Y-160228865D01*
X72942559Y-160414281D01*
X73322196Y-160520736D01*
X73650000Y-160341838D01*
X73650000Y-157805000D01*
X73750000Y-157805000D01*
X73750000Y-160341838D01*
X74077804Y-160520736D01*
X74457441Y-160414281D01*
X74825124Y-160228865D01*
X75149569Y-159975280D01*
X75418308Y-159663271D01*
X75621013Y-159304829D01*
X75749895Y-158913729D01*
X75800000Y-158505000D01*
X75800000Y-157805000D01*
X73750000Y-157805000D01*
X73650000Y-157805000D01*
X71600000Y-157805000D01*
X70900000Y-157805000D01*
X70900000Y-157005000D01*
X71600000Y-157005000D01*
X71600000Y-157705000D01*
X73650000Y-157705000D01*
X73650000Y-155168162D01*
X73750000Y-155168162D01*
X73750000Y-157705000D01*
X75800000Y-157705000D01*
X75800000Y-157005000D01*
X75749895Y-156596271D01*
X75621013Y-156205171D01*
X75418308Y-155846729D01*
X75149569Y-155534720D01*
X74825124Y-155281135D01*
X74457441Y-155095719D01*
X74077804Y-154989264D01*
X73750000Y-155168162D01*
X73650000Y-155168162D01*
X73322196Y-154989264D01*
X72942559Y-155095719D01*
X72574876Y-155281135D01*
X72250431Y-155534720D01*
X71981692Y-155846729D01*
X71778987Y-156205171D01*
X71650105Y-156596271D01*
X71600000Y-157005000D01*
X70900000Y-157005000D01*
X70900000Y-149171922D01*
X115817280Y-149171922D01*
X115939747Y-149608111D01*
X116148266Y-150019016D01*
X116432942Y-150381345D01*
X116782835Y-150681175D01*
X117184499Y-150906983D01*
X117622498Y-151050091D01*
X118080000Y-151105000D01*
X119330000Y-151105000D01*
X119330000Y-148805000D01*
X115993085Y-148805000D01*
X115817280Y-149171922D01*
X70900000Y-149171922D01*
X70900000Y-145735000D01*
X111225888Y-145735000D01*
X111225888Y-147635000D01*
X111242300Y-147801629D01*
X111290903Y-147961855D01*
X111369832Y-148109519D01*
X111476052Y-148238948D01*
X111605481Y-148345168D01*
X111753145Y-148424097D01*
X111913371Y-148472700D01*
X112080000Y-148489112D01*
X113980000Y-148489112D01*
X114146629Y-148472700D01*
X114306855Y-148424097D01*
X114454519Y-148345168D01*
X114463158Y-148338078D01*
X115817280Y-148338078D01*
X115993085Y-148705000D01*
X119330000Y-148705000D01*
X119330000Y-146405000D01*
X118080000Y-146405000D01*
X117622498Y-146459909D01*
X117184499Y-146603017D01*
X116782835Y-146828825D01*
X116432942Y-147128655D01*
X116148266Y-147490984D01*
X115939747Y-147901889D01*
X115817280Y-148338078D01*
X114463158Y-148338078D01*
X114583948Y-148238948D01*
X114690168Y-148109519D01*
X114769097Y-147961855D01*
X114817700Y-147801629D01*
X114834112Y-147635000D01*
X114834112Y-145735000D01*
X114817700Y-145568371D01*
X114769097Y-145408145D01*
X114690168Y-145260481D01*
X114583948Y-145131052D01*
X114454519Y-145024832D01*
X114306855Y-144945903D01*
X114146629Y-144897300D01*
X113980000Y-144880888D01*
X112080000Y-144880888D01*
X111913371Y-144897300D01*
X111753145Y-144945903D01*
X111605481Y-145024832D01*
X111476052Y-145131052D01*
X111369832Y-145260481D01*
X111290903Y-145408145D01*
X111242300Y-145568371D01*
X111225888Y-145735000D01*
X70900000Y-145735000D01*
X70900000Y-142805000D01*
X74000000Y-142805000D01*
X74000000Y-143455000D01*
X74052027Y-143883238D01*
X74186599Y-144293098D01*
X74398545Y-144668828D01*
X74679720Y-144995990D01*
X75019319Y-145262011D01*
X75404290Y-145456668D01*
X75806549Y-145569532D01*
X76150000Y-145391871D01*
X76150000Y-142805000D01*
X76250000Y-142805000D01*
X76250000Y-145391871D01*
X76593451Y-145569532D01*
X76995710Y-145456668D01*
X77380681Y-145262011D01*
X77720280Y-144995990D01*
X78001455Y-144668828D01*
X78213401Y-144293098D01*
X78347973Y-143883238D01*
X78400000Y-143455000D01*
X78400000Y-142805000D01*
X101940000Y-142805000D01*
X101940000Y-143455000D01*
X101992027Y-143883238D01*
X102126599Y-144293098D01*
X102338545Y-144668828D01*
X102619720Y-144995990D01*
X102959319Y-145262011D01*
X103344290Y-145456668D01*
X103746549Y-145569532D01*
X104090000Y-145391871D01*
X104090000Y-142805000D01*
X104190000Y-142805000D01*
X104190000Y-145391871D01*
X104533451Y-145569532D01*
X104935710Y-145456668D01*
X105320681Y-145262011D01*
X105660280Y-144995990D01*
X105941455Y-144668828D01*
X106153401Y-144293098D01*
X106287973Y-143883238D01*
X106340000Y-143455000D01*
X106340000Y-142805000D01*
X104190000Y-142805000D01*
X104090000Y-142805000D01*
X101940000Y-142805000D01*
X78400000Y-142805000D01*
X76250000Y-142805000D01*
X76150000Y-142805000D01*
X74000000Y-142805000D01*
X70900000Y-142805000D01*
X70900000Y-142755000D01*
X116018630Y-142755000D01*
X116064003Y-143215680D01*
X116198379Y-143658657D01*
X116416593Y-144066907D01*
X116710259Y-144424741D01*
X117068093Y-144718407D01*
X117476343Y-144936621D01*
X117919320Y-145070997D01*
X118264558Y-145105000D01*
X120495442Y-145105000D01*
X120840680Y-145070997D01*
X121283657Y-144936621D01*
X121691907Y-144718407D01*
X121951709Y-144505193D01*
X121864003Y-144794321D01*
X121830000Y-145139559D01*
X121830000Y-146746092D01*
X121575501Y-146603017D01*
X121137502Y-146459909D01*
X120680000Y-146405000D01*
X119430000Y-146405000D01*
X119430000Y-148705000D01*
X119450000Y-148705000D01*
X119450000Y-148805000D01*
X119430000Y-148805000D01*
X119430000Y-151105000D01*
X120680000Y-151105000D01*
X121137502Y-151050091D01*
X121575501Y-150906983D01*
X121977165Y-150681175D01*
X122327058Y-150381345D01*
X122611734Y-150019016D01*
X122820253Y-149608111D01*
X122921634Y-149247025D01*
X123276344Y-149436621D01*
X123719321Y-149570997D01*
X124180000Y-149616370D01*
X124640680Y-149570997D01*
X125083657Y-149436621D01*
X125491907Y-149218407D01*
X125849741Y-148924741D01*
X126143407Y-148566907D01*
X126361621Y-148158657D01*
X126495997Y-147715680D01*
X126530000Y-147370442D01*
X126530000Y-145139558D01*
X126495997Y-144794320D01*
X126361621Y-144351343D01*
X126143407Y-143943093D01*
X125849741Y-143585259D01*
X125491906Y-143291593D01*
X125083656Y-143073379D01*
X124640679Y-142939003D01*
X124180000Y-142893630D01*
X123719320Y-142939003D01*
X123276343Y-143073379D01*
X122868093Y-143291593D01*
X122608291Y-143504806D01*
X122695997Y-143215680D01*
X122736445Y-142805000D01*
X132420000Y-142805000D01*
X132420000Y-143455000D01*
X132472027Y-143883238D01*
X132606599Y-144293098D01*
X132818545Y-144668828D01*
X133099720Y-144995990D01*
X133439319Y-145262011D01*
X133824290Y-145456668D01*
X134226549Y-145569532D01*
X134570000Y-145391871D01*
X134570000Y-142805000D01*
X134670000Y-142805000D01*
X134670000Y-145391871D01*
X135013451Y-145569532D01*
X135415710Y-145456668D01*
X135800681Y-145262011D01*
X136140280Y-144995990D01*
X136421455Y-144668828D01*
X136633401Y-144293098D01*
X136767973Y-143883238D01*
X136820000Y-143455000D01*
X136820000Y-142805000D01*
X134670000Y-142805000D01*
X134570000Y-142805000D01*
X132420000Y-142805000D01*
X122736445Y-142805000D01*
X122741370Y-142755000D01*
X122695997Y-142294320D01*
X122623400Y-142055000D01*
X132420000Y-142055000D01*
X132420000Y-142705000D01*
X134570000Y-142705000D01*
X134570000Y-140118129D01*
X134670000Y-140118129D01*
X134670000Y-142705000D01*
X136820000Y-142705000D01*
X136820000Y-142055000D01*
X136767973Y-141626762D01*
X136633401Y-141216902D01*
X136421455Y-140841172D01*
X136140280Y-140514010D01*
X135800681Y-140247989D01*
X135415710Y-140053332D01*
X135013451Y-139940468D01*
X134670000Y-140118129D01*
X134570000Y-140118129D01*
X134226549Y-139940468D01*
X133824290Y-140053332D01*
X133439319Y-140247989D01*
X133099720Y-140514010D01*
X132818545Y-140841172D01*
X132606599Y-141216902D01*
X132472027Y-141626762D01*
X132420000Y-142055000D01*
X122623400Y-142055000D01*
X122561621Y-141851343D01*
X122343407Y-141443093D01*
X122049741Y-141085259D01*
X121691907Y-140791593D01*
X121283657Y-140573379D01*
X120840680Y-140439003D01*
X120495442Y-140405000D01*
X118264558Y-140405000D01*
X117919320Y-140439003D01*
X117476343Y-140573379D01*
X117068093Y-140791593D01*
X116710259Y-141085259D01*
X116416593Y-141443093D01*
X116198379Y-141851343D01*
X116064003Y-142294320D01*
X116018630Y-142755000D01*
X70900000Y-142755000D01*
X70900000Y-142055000D01*
X74000000Y-142055000D01*
X74000000Y-142705000D01*
X76150000Y-142705000D01*
X76150000Y-140118129D01*
X76250000Y-140118129D01*
X76250000Y-142705000D01*
X78400000Y-142705000D01*
X78400000Y-142055000D01*
X101940000Y-142055000D01*
X101940000Y-142705000D01*
X104090000Y-142705000D01*
X104090000Y-140118129D01*
X104190000Y-140118129D01*
X104190000Y-142705000D01*
X106340000Y-142705000D01*
X106340000Y-142055000D01*
X106287973Y-141626762D01*
X106153401Y-141216902D01*
X105941455Y-140841172D01*
X105660280Y-140514010D01*
X105320681Y-140247989D01*
X104935710Y-140053332D01*
X104533451Y-139940468D01*
X104190000Y-140118129D01*
X104090000Y-140118129D01*
X103746549Y-139940468D01*
X103344290Y-140053332D01*
X102959319Y-140247989D01*
X102619720Y-140514010D01*
X102338545Y-140841172D01*
X102126599Y-141216902D01*
X101992027Y-141626762D01*
X101940000Y-142055000D01*
X78400000Y-142055000D01*
X78347973Y-141626762D01*
X78213401Y-141216902D01*
X78001455Y-140841172D01*
X77720280Y-140514010D01*
X77478993Y-140325000D01*
X85565887Y-140325000D01*
X85582299Y-140491629D01*
X85630902Y-140651855D01*
X85709831Y-140799520D01*
X85816051Y-140928949D01*
X85945480Y-141035169D01*
X86093145Y-141114098D01*
X86253371Y-141162701D01*
X86420000Y-141179113D01*
X87407500Y-141175000D01*
X87620000Y-140962500D01*
X87620000Y-139125000D01*
X87720000Y-139125000D01*
X87720000Y-140962500D01*
X87932500Y-141175000D01*
X88920000Y-141179113D01*
X89086629Y-141162701D01*
X89246855Y-141114098D01*
X89394520Y-141035169D01*
X89523949Y-140928949D01*
X89630169Y-140799520D01*
X89709098Y-140651855D01*
X89757701Y-140491629D01*
X89774113Y-140325000D01*
X90565887Y-140325000D01*
X90582299Y-140491629D01*
X90630902Y-140651855D01*
X90709831Y-140799520D01*
X90816051Y-140928949D01*
X90945480Y-141035169D01*
X91093145Y-141114098D01*
X91253371Y-141162701D01*
X91420000Y-141179113D01*
X92407500Y-141175000D01*
X92620000Y-140962500D01*
X92620000Y-139125000D01*
X92720000Y-139125000D01*
X92720000Y-140962500D01*
X92932500Y-141175000D01*
X93920000Y-141179113D01*
X94086629Y-141162701D01*
X94246855Y-141114098D01*
X94394520Y-141035169D01*
X94523949Y-140928949D01*
X94630169Y-140799520D01*
X94709098Y-140651855D01*
X94757701Y-140491629D01*
X94774113Y-140325000D01*
X94770000Y-139337500D01*
X94557500Y-139125000D01*
X92720000Y-139125000D01*
X92620000Y-139125000D01*
X90782500Y-139125000D01*
X90570000Y-139337500D01*
X90565887Y-140325000D01*
X89774113Y-140325000D01*
X89770000Y-139337500D01*
X89557500Y-139125000D01*
X87720000Y-139125000D01*
X87620000Y-139125000D01*
X85782500Y-139125000D01*
X85570000Y-139337500D01*
X85565887Y-140325000D01*
X77478993Y-140325000D01*
X77380681Y-140247989D01*
X76995710Y-140053332D01*
X76593451Y-139940468D01*
X76250000Y-140118129D01*
X76150000Y-140118129D01*
X75806549Y-139940468D01*
X75404290Y-140053332D01*
X75019319Y-140247989D01*
X74679720Y-140514010D01*
X74398545Y-140841172D01*
X74186599Y-141216902D01*
X74052027Y-141626762D01*
X74000000Y-142055000D01*
X70900000Y-142055000D01*
X70900000Y-137825000D01*
X85565887Y-137825000D01*
X85570000Y-138812500D01*
X85782500Y-139025000D01*
X87620000Y-139025000D01*
X87620000Y-137187500D01*
X87720000Y-137187500D01*
X87720000Y-139025000D01*
X89557500Y-139025000D01*
X89770000Y-138812500D01*
X89774113Y-137825000D01*
X90565887Y-137825000D01*
X90570000Y-138812500D01*
X90782500Y-139025000D01*
X92620000Y-139025000D01*
X92620000Y-137187500D01*
X92720000Y-137187500D01*
X92720000Y-139025000D01*
X94557500Y-139025000D01*
X94694784Y-138887716D01*
X111230000Y-138887716D01*
X111230000Y-139242284D01*
X111299173Y-139590041D01*
X111434861Y-139917620D01*
X111631849Y-140212433D01*
X111882567Y-140463151D01*
X112177380Y-140660139D01*
X112504959Y-140795827D01*
X112852716Y-140865000D01*
X113207284Y-140865000D01*
X113555041Y-140795827D01*
X113882620Y-140660139D01*
X114177433Y-140463151D01*
X114428151Y-140212433D01*
X114625139Y-139917620D01*
X114760827Y-139590041D01*
X114830000Y-139242284D01*
X114830000Y-138887716D01*
X114760827Y-138539959D01*
X114625139Y-138212380D01*
X114428151Y-137917567D01*
X114177433Y-137666849D01*
X113882620Y-137469861D01*
X113555041Y-137334173D01*
X113207284Y-137265000D01*
X112852716Y-137265000D01*
X112504959Y-137334173D01*
X112177380Y-137469861D01*
X111882567Y-137666849D01*
X111631849Y-137917567D01*
X111434861Y-138212380D01*
X111299173Y-138539959D01*
X111230000Y-138887716D01*
X94694784Y-138887716D01*
X94770000Y-138812500D01*
X94774113Y-137825000D01*
X94757701Y-137658371D01*
X94709098Y-137498145D01*
X94630169Y-137350480D01*
X94523949Y-137221051D01*
X94394520Y-137114831D01*
X94246855Y-137035902D01*
X94086629Y-136987299D01*
X93920000Y-136970887D01*
X92932500Y-136975000D01*
X92720000Y-137187500D01*
X92620000Y-137187500D01*
X92407500Y-136975000D01*
X91420000Y-136970887D01*
X91253371Y-136987299D01*
X91093145Y-137035902D01*
X90945480Y-137114831D01*
X90816051Y-137221051D01*
X90709831Y-137350480D01*
X90630902Y-137498145D01*
X90582299Y-137658371D01*
X90565887Y-137825000D01*
X89774113Y-137825000D01*
X89757701Y-137658371D01*
X89709098Y-137498145D01*
X89630169Y-137350480D01*
X89523949Y-137221051D01*
X89394520Y-137114831D01*
X89246855Y-137035902D01*
X89086629Y-136987299D01*
X88920000Y-136970887D01*
X87932500Y-136975000D01*
X87720000Y-137187500D01*
X87620000Y-137187500D01*
X87407500Y-136975000D01*
X86420000Y-136970887D01*
X86253371Y-136987299D01*
X86093145Y-137035902D01*
X85945480Y-137114831D01*
X85816051Y-137221051D01*
X85709831Y-137350480D01*
X85630902Y-137498145D01*
X85582299Y-137658371D01*
X85565887Y-137825000D01*
X70900000Y-137825000D01*
X70900000Y-136305000D01*
X139920000Y-136305000D01*
X139920001Y-160875000D01*
G37*
X139920001Y-160875000D02*
X128714034Y-160875000D01*
X128837325Y-160577347D01*
X128910755Y-160208193D01*
X128910755Y-159831807D01*
X128837325Y-159462653D01*
X128693289Y-159114918D01*
X128600933Y-158976697D01*
X128660168Y-158904519D01*
X128739097Y-158756855D01*
X128787700Y-158596629D01*
X128804112Y-158430000D01*
X128804112Y-156925000D01*
X128838681Y-156925000D01*
X128905000Y-156931532D01*
X128971319Y-156925000D01*
X128971321Y-156925000D01*
X129169646Y-156905467D01*
X129424122Y-156828272D01*
X129658649Y-156702915D01*
X129864213Y-156534213D01*
X129906491Y-156482697D01*
X130203482Y-156185706D01*
X130170465Y-156247477D01*
X130050385Y-156643329D01*
X130020000Y-156951834D01*
X130020000Y-158558167D01*
X130050385Y-158866672D01*
X130170466Y-159262524D01*
X130365466Y-159627343D01*
X130627892Y-159947109D01*
X130947658Y-160209535D01*
X131312477Y-160404535D01*
X131708329Y-160524615D01*
X132120000Y-160565161D01*
X132531672Y-160524615D01*
X132927524Y-160404535D01*
X133292343Y-160209535D01*
X133612109Y-159947109D01*
X133874535Y-159627343D01*
X134069535Y-159262524D01*
X134189615Y-158866671D01*
X134220000Y-158558166D01*
X134220000Y-156951833D01*
X134189615Y-156643328D01*
X134069535Y-156247476D01*
X133874535Y-155882657D01*
X133687701Y-155655000D01*
X135552299Y-155655000D01*
X135365465Y-155882657D01*
X135170465Y-156247477D01*
X135050385Y-156643329D01*
X135020000Y-156951834D01*
X135020000Y-158558167D01*
X135050385Y-158866672D01*
X135170466Y-159262524D01*
X135365466Y-159627343D01*
X135627892Y-159947109D01*
X135947658Y-160209535D01*
X136312477Y-160404535D01*
X136708329Y-160524615D01*
X137120000Y-160565161D01*
X137531672Y-160524615D01*
X137927524Y-160404535D01*
X138292343Y-160209535D01*
X138612109Y-159947109D01*
X138874535Y-159627343D01*
X139069535Y-159262524D01*
X139189615Y-158866671D01*
X139220000Y-158558166D01*
X139220000Y-156951833D01*
X139189615Y-156643328D01*
X139069535Y-156247476D01*
X138874535Y-155882657D01*
X138612109Y-155562891D01*
X138470000Y-155446265D01*
X138470000Y-154966310D01*
X138476531Y-154899999D01*
X138470000Y-154833688D01*
X138470000Y-154833679D01*
X138450467Y-154635354D01*
X138373272Y-154380878D01*
X138247915Y-154146351D01*
X138160925Y-154040354D01*
X138121490Y-153992302D01*
X138121487Y-153992299D01*
X138079212Y-153940787D01*
X138027701Y-153898513D01*
X137526491Y-153397303D01*
X137484213Y-153345787D01*
X137278649Y-153177085D01*
X137044122Y-153051728D01*
X136789646Y-152974533D01*
X136591321Y-152955000D01*
X136591319Y-152955000D01*
X136525000Y-152948468D01*
X136458681Y-152955000D01*
X130241310Y-152955000D01*
X130174999Y-152948469D01*
X130108688Y-152955000D01*
X130108679Y-152955000D01*
X129910354Y-152974533D01*
X129655878Y-153051728D01*
X129555339Y-153105467D01*
X129421350Y-153177085D01*
X129267301Y-153303510D01*
X129267298Y-153303513D01*
X129215787Y-153345787D01*
X129173513Y-153397298D01*
X128345812Y-154225000D01*
X125815584Y-154225000D01*
X125858151Y-154182433D01*
X126055139Y-153887620D01*
X126190827Y-153560041D01*
X126260000Y-153212284D01*
X126260000Y-152857716D01*
X126190827Y-152509959D01*
X126055139Y-152182380D01*
X125858151Y-151887567D01*
X125607433Y-151636849D01*
X125312620Y-151439861D01*
X124985041Y-151304173D01*
X124637284Y-151235000D01*
X124282716Y-151235000D01*
X123934959Y-151304173D01*
X123607380Y-151439861D01*
X123499372Y-151512029D01*
X123473949Y-151481051D01*
X123344520Y-151374831D01*
X123196855Y-151295902D01*
X123036629Y-151247299D01*
X122870000Y-151230887D01*
X122182500Y-151235000D01*
X121970000Y-151447500D01*
X121970000Y-152985000D01*
X121990000Y-152985000D01*
X121990000Y-153085000D01*
X121970000Y-153085000D01*
X121970000Y-153105000D01*
X121870000Y-153105000D01*
X121870000Y-153085000D01*
X120332500Y-153085000D01*
X120120000Y-153297500D01*
X120115887Y-153985000D01*
X120132299Y-154151629D01*
X120154555Y-154225000D01*
X119875445Y-154225000D01*
X119897701Y-154151629D01*
X119914113Y-153985000D01*
X119910000Y-153297500D01*
X119697500Y-153085000D01*
X118160000Y-153085000D01*
X118160000Y-153105000D01*
X118060000Y-153105000D01*
X118060000Y-153085000D01*
X116522500Y-153085000D01*
X116310000Y-153297500D01*
X116305887Y-153985000D01*
X116322299Y-154151629D01*
X116370902Y-154311855D01*
X116449831Y-154459520D01*
X116556051Y-154588949D01*
X116685480Y-154695169D01*
X116833145Y-154774098D01*
X116962481Y-154813331D01*
X116547299Y-155228513D01*
X116495788Y-155270787D01*
X116453514Y-155322298D01*
X116453510Y-155322302D01*
X116327085Y-155476351D01*
X116201729Y-155710878D01*
X116124534Y-155965354D01*
X116104516Y-156168595D01*
X116088360Y-156004561D01*
X116022602Y-155787785D01*
X115941186Y-155635467D01*
X115915816Y-155588002D01*
X115871863Y-155534446D01*
X115772107Y-155412893D01*
X115728221Y-155376877D01*
X115153125Y-154801781D01*
X115117107Y-154757893D01*
X114941997Y-154614184D01*
X114742215Y-154507398D01*
X114669081Y-154485213D01*
X114690168Y-154459519D01*
X114769097Y-154311855D01*
X114817700Y-154151629D01*
X114834112Y-153985000D01*
X114834112Y-152085000D01*
X116305887Y-152085000D01*
X116310000Y-152772500D01*
X116522500Y-152985000D01*
X118060000Y-152985000D01*
X118060000Y-151447500D01*
X118160000Y-151447500D01*
X118160000Y-152985000D01*
X119697500Y-152985000D01*
X119910000Y-152772500D01*
X119914113Y-152085000D01*
X120115887Y-152085000D01*
X120120000Y-152772500D01*
X120332500Y-152985000D01*
X121870000Y-152985000D01*
X121870000Y-151447500D01*
X121657500Y-151235000D01*
X120970000Y-151230887D01*
X120803371Y-151247299D01*
X120643145Y-151295902D01*
X120495480Y-151374831D01*
X120366051Y-151481051D01*
X120259831Y-151610480D01*
X120180902Y-151758145D01*
X120132299Y-151918371D01*
X120115887Y-152085000D01*
X119914113Y-152085000D01*
X119897701Y-151918371D01*
X119849098Y-151758145D01*
X119770169Y-151610480D01*
X119663949Y-151481051D01*
X119534520Y-151374831D01*
X119386855Y-151295902D01*
X119226629Y-151247299D01*
X119060000Y-151230887D01*
X118372500Y-151235000D01*
X118160000Y-151447500D01*
X118060000Y-151447500D01*
X117847500Y-151235000D01*
X117160000Y-151230887D01*
X116993371Y-151247299D01*
X116833145Y-151295902D01*
X116685480Y-151374831D01*
X116556051Y-151481051D01*
X116449831Y-151610480D01*
X116370902Y-151758145D01*
X116322299Y-151918371D01*
X116305887Y-152085000D01*
X114834112Y-152085000D01*
X114817700Y-151918371D01*
X114769097Y-151758145D01*
X114690168Y-151610481D01*
X114583948Y-151481052D01*
X114454519Y-151374832D01*
X114306855Y-151295903D01*
X114146629Y-151247300D01*
X113980000Y-151230888D01*
X112080000Y-151230888D01*
X111913371Y-151247300D01*
X111753145Y-151295903D01*
X111605481Y-151374832D01*
X111476052Y-151481052D01*
X111369832Y-151610481D01*
X111290903Y-151758145D01*
X111242300Y-151918371D01*
X111225888Y-152085000D01*
X111225888Y-153985000D01*
X111242300Y-154151629D01*
X111290903Y-154311855D01*
X111351381Y-154425000D01*
X110331346Y-154425000D01*
X108168124Y-152261780D01*
X108132107Y-152217893D01*
X107956997Y-152074184D01*
X107757215Y-151967398D01*
X107540439Y-151901640D01*
X107371492Y-151885000D01*
X107371482Y-151885000D01*
X107315000Y-151879437D01*
X107258518Y-151885000D01*
X99116492Y-151885000D01*
X99060000Y-151879436D01*
X98834561Y-151901640D01*
X98617784Y-151967398D01*
X98517894Y-152020791D01*
X98418003Y-152074184D01*
X98242893Y-152217893D01*
X98206875Y-152261781D01*
X97948656Y-152520000D01*
X94674112Y-152520000D01*
X94674112Y-150525000D01*
X94657700Y-150358371D01*
X94609097Y-150198145D01*
X94530168Y-150050481D01*
X94423948Y-149921052D01*
X94294519Y-149814832D01*
X94146855Y-149735903D01*
X93986629Y-149687300D01*
X93820000Y-149670888D01*
X91320000Y-149670888D01*
X91153371Y-149687300D01*
X90993145Y-149735903D01*
X90845481Y-149814832D01*
X90716052Y-149921052D01*
X90609832Y-150050481D01*
X90530903Y-150198145D01*
X90482300Y-150358371D01*
X90475737Y-150425000D01*
X89864263Y-150425000D01*
X89857700Y-150358371D01*
X89809097Y-150198145D01*
X89730168Y-150050481D01*
X89623948Y-149921052D01*
X89494519Y-149814832D01*
X89346855Y-149735903D01*
X89186629Y-149687300D01*
X89020000Y-149670888D01*
X86520000Y-149670888D01*
X86353371Y-149687300D01*
X86193145Y-149735903D01*
X86045481Y-149814832D01*
X85916052Y-149921052D01*
X85809832Y-150050481D01*
X85730903Y-150198145D01*
X85682300Y-150358371D01*
X85665888Y-150525000D01*
X85665888Y-152520000D01*
X80066484Y-152520000D01*
X80010000Y-152514437D01*
X79953516Y-152520000D01*
X79953508Y-152520000D01*
X79784561Y-152536640D01*
X79567784Y-152602398D01*
X79368003Y-152709184D01*
X79192893Y-152852893D01*
X79156881Y-152896774D01*
X77926776Y-154126880D01*
X77882894Y-154162893D01*
X77846882Y-154206774D01*
X77739185Y-154338003D01*
X77632399Y-154537785D01*
X77566641Y-154754561D01*
X77544437Y-154980000D01*
X77550001Y-155036491D01*
X77550001Y-155288522D01*
X77527657Y-155300465D01*
X77207891Y-155562891D01*
X76945465Y-155882657D01*
X76750465Y-156247477D01*
X76630385Y-156643329D01*
X76600000Y-156951834D01*
X76600000Y-158558167D01*
X76630385Y-158866672D01*
X76750466Y-159262524D01*
X76945466Y-159627343D01*
X77207892Y-159947109D01*
X77527658Y-160209535D01*
X77892477Y-160404535D01*
X78288329Y-160524615D01*
X78700000Y-160565161D01*
X79111672Y-160524615D01*
X79507524Y-160404535D01*
X79872343Y-160209535D01*
X80192109Y-159947109D01*
X80454535Y-159627343D01*
X80649535Y-159262524D01*
X80769615Y-158866671D01*
X80800000Y-158558166D01*
X80800000Y-156951833D01*
X80769615Y-156643328D01*
X80649535Y-156247476D01*
X80454535Y-155882657D01*
X80192109Y-155562891D01*
X79945687Y-155360657D01*
X80486345Y-154820000D01*
X85665888Y-154820000D01*
X85665888Y-156825000D01*
X85682300Y-156991629D01*
X85730903Y-157151855D01*
X85809832Y-157299519D01*
X85916052Y-157428948D01*
X85972166Y-157475000D01*
X85916052Y-157521052D01*
X85809832Y-157650481D01*
X85730903Y-157798145D01*
X85682300Y-157958371D01*
X85665888Y-158125000D01*
X85665888Y-160625000D01*
X85682300Y-160791629D01*
X85707590Y-160875000D01*
X70900000Y-160875000D01*
X70900000Y-157805000D01*
X71600000Y-157805000D01*
X71600000Y-158505000D01*
X71650105Y-158913729D01*
X71778987Y-159304829D01*
X71981692Y-159663271D01*
X72250431Y-159975280D01*
X72574876Y-160228865D01*
X72942559Y-160414281D01*
X73322196Y-160520736D01*
X73650000Y-160341838D01*
X73650000Y-157805000D01*
X73750000Y-157805000D01*
X73750000Y-160341838D01*
X74077804Y-160520736D01*
X74457441Y-160414281D01*
X74825124Y-160228865D01*
X75149569Y-159975280D01*
X75418308Y-159663271D01*
X75621013Y-159304829D01*
X75749895Y-158913729D01*
X75800000Y-158505000D01*
X75800000Y-157805000D01*
X73750000Y-157805000D01*
X73650000Y-157805000D01*
X71600000Y-157805000D01*
X70900000Y-157805000D01*
X70900000Y-157005000D01*
X71600000Y-157005000D01*
X71600000Y-157705000D01*
X73650000Y-157705000D01*
X73650000Y-155168162D01*
X73750000Y-155168162D01*
X73750000Y-157705000D01*
X75800000Y-157705000D01*
X75800000Y-157005000D01*
X75749895Y-156596271D01*
X75621013Y-156205171D01*
X75418308Y-155846729D01*
X75149569Y-155534720D01*
X74825124Y-155281135D01*
X74457441Y-155095719D01*
X74077804Y-154989264D01*
X73750000Y-155168162D01*
X73650000Y-155168162D01*
X73322196Y-154989264D01*
X72942559Y-155095719D01*
X72574876Y-155281135D01*
X72250431Y-155534720D01*
X71981692Y-155846729D01*
X71778987Y-156205171D01*
X71650105Y-156596271D01*
X71600000Y-157005000D01*
X70900000Y-157005000D01*
X70900000Y-149171922D01*
X115817280Y-149171922D01*
X115939747Y-149608111D01*
X116148266Y-150019016D01*
X116432942Y-150381345D01*
X116782835Y-150681175D01*
X117184499Y-150906983D01*
X117622498Y-151050091D01*
X118080000Y-151105000D01*
X119330000Y-151105000D01*
X119330000Y-148805000D01*
X115993085Y-148805000D01*
X115817280Y-149171922D01*
X70900000Y-149171922D01*
X70900000Y-145735000D01*
X111225888Y-145735000D01*
X111225888Y-147635000D01*
X111242300Y-147801629D01*
X111290903Y-147961855D01*
X111369832Y-148109519D01*
X111476052Y-148238948D01*
X111605481Y-148345168D01*
X111753145Y-148424097D01*
X111913371Y-148472700D01*
X112080000Y-148489112D01*
X113980000Y-148489112D01*
X114146629Y-148472700D01*
X114306855Y-148424097D01*
X114454519Y-148345168D01*
X114463158Y-148338078D01*
X115817280Y-148338078D01*
X115993085Y-148705000D01*
X119330000Y-148705000D01*
X119330000Y-146405000D01*
X118080000Y-146405000D01*
X117622498Y-146459909D01*
X117184499Y-146603017D01*
X116782835Y-146828825D01*
X116432942Y-147128655D01*
X116148266Y-147490984D01*
X115939747Y-147901889D01*
X115817280Y-148338078D01*
X114463158Y-148338078D01*
X114583948Y-148238948D01*
X114690168Y-148109519D01*
X114769097Y-147961855D01*
X114817700Y-147801629D01*
X114834112Y-147635000D01*
X114834112Y-145735000D01*
X114817700Y-145568371D01*
X114769097Y-145408145D01*
X114690168Y-145260481D01*
X114583948Y-145131052D01*
X114454519Y-145024832D01*
X114306855Y-144945903D01*
X114146629Y-144897300D01*
X113980000Y-144880888D01*
X112080000Y-144880888D01*
X111913371Y-144897300D01*
X111753145Y-144945903D01*
X111605481Y-145024832D01*
X111476052Y-145131052D01*
X111369832Y-145260481D01*
X111290903Y-145408145D01*
X111242300Y-145568371D01*
X111225888Y-145735000D01*
X70900000Y-145735000D01*
X70900000Y-142805000D01*
X74000000Y-142805000D01*
X74000000Y-143455000D01*
X74052027Y-143883238D01*
X74186599Y-144293098D01*
X74398545Y-144668828D01*
X74679720Y-144995990D01*
X75019319Y-145262011D01*
X75404290Y-145456668D01*
X75806549Y-145569532D01*
X76150000Y-145391871D01*
X76150000Y-142805000D01*
X76250000Y-142805000D01*
X76250000Y-145391871D01*
X76593451Y-145569532D01*
X76995710Y-145456668D01*
X77380681Y-145262011D01*
X77720280Y-144995990D01*
X78001455Y-144668828D01*
X78213401Y-144293098D01*
X78347973Y-143883238D01*
X78400000Y-143455000D01*
X78400000Y-142805000D01*
X101940000Y-142805000D01*
X101940000Y-143455000D01*
X101992027Y-143883238D01*
X102126599Y-144293098D01*
X102338545Y-144668828D01*
X102619720Y-144995990D01*
X102959319Y-145262011D01*
X103344290Y-145456668D01*
X103746549Y-145569532D01*
X104090000Y-145391871D01*
X104090000Y-142805000D01*
X104190000Y-142805000D01*
X104190000Y-145391871D01*
X104533451Y-145569532D01*
X104935710Y-145456668D01*
X105320681Y-145262011D01*
X105660280Y-144995990D01*
X105941455Y-144668828D01*
X106153401Y-144293098D01*
X106287973Y-143883238D01*
X106340000Y-143455000D01*
X106340000Y-142805000D01*
X104190000Y-142805000D01*
X104090000Y-142805000D01*
X101940000Y-142805000D01*
X78400000Y-142805000D01*
X76250000Y-142805000D01*
X76150000Y-142805000D01*
X74000000Y-142805000D01*
X70900000Y-142805000D01*
X70900000Y-142755000D01*
X116018630Y-142755000D01*
X116064003Y-143215680D01*
X116198379Y-143658657D01*
X116416593Y-144066907D01*
X116710259Y-144424741D01*
X117068093Y-144718407D01*
X117476343Y-144936621D01*
X117919320Y-145070997D01*
X118264558Y-145105000D01*
X120495442Y-145105000D01*
X120840680Y-145070997D01*
X121283657Y-144936621D01*
X121691907Y-144718407D01*
X121951709Y-144505193D01*
X121864003Y-144794321D01*
X121830000Y-145139559D01*
X121830000Y-146746092D01*
X121575501Y-146603017D01*
X121137502Y-146459909D01*
X120680000Y-146405000D01*
X119430000Y-146405000D01*
X119430000Y-148705000D01*
X119450000Y-148705000D01*
X119450000Y-148805000D01*
X119430000Y-148805000D01*
X119430000Y-151105000D01*
X120680000Y-151105000D01*
X121137502Y-151050091D01*
X121575501Y-150906983D01*
X121977165Y-150681175D01*
X122327058Y-150381345D01*
X122611734Y-150019016D01*
X122820253Y-149608111D01*
X122921634Y-149247025D01*
X123276344Y-149436621D01*
X123719321Y-149570997D01*
X124180000Y-149616370D01*
X124640680Y-149570997D01*
X125083657Y-149436621D01*
X125491907Y-149218407D01*
X125849741Y-148924741D01*
X126143407Y-148566907D01*
X126361621Y-148158657D01*
X126495997Y-147715680D01*
X126530000Y-147370442D01*
X126530000Y-145139558D01*
X126495997Y-144794320D01*
X126361621Y-144351343D01*
X126143407Y-143943093D01*
X125849741Y-143585259D01*
X125491906Y-143291593D01*
X125083656Y-143073379D01*
X124640679Y-142939003D01*
X124180000Y-142893630D01*
X123719320Y-142939003D01*
X123276343Y-143073379D01*
X122868093Y-143291593D01*
X122608291Y-143504806D01*
X122695997Y-143215680D01*
X122736445Y-142805000D01*
X132420000Y-142805000D01*
X132420000Y-143455000D01*
X132472027Y-143883238D01*
X132606599Y-144293098D01*
X132818545Y-144668828D01*
X133099720Y-144995990D01*
X133439319Y-145262011D01*
X133824290Y-145456668D01*
X134226549Y-145569532D01*
X134570000Y-145391871D01*
X134570000Y-142805000D01*
X134670000Y-142805000D01*
X134670000Y-145391871D01*
X135013451Y-145569532D01*
X135415710Y-145456668D01*
X135800681Y-145262011D01*
X136140280Y-144995990D01*
X136421455Y-144668828D01*
X136633401Y-144293098D01*
X136767973Y-143883238D01*
X136820000Y-143455000D01*
X136820000Y-142805000D01*
X134670000Y-142805000D01*
X134570000Y-142805000D01*
X132420000Y-142805000D01*
X122736445Y-142805000D01*
X122741370Y-142755000D01*
X122695997Y-142294320D01*
X122623400Y-142055000D01*
X132420000Y-142055000D01*
X132420000Y-142705000D01*
X134570000Y-142705000D01*
X134570000Y-140118129D01*
X134670000Y-140118129D01*
X134670000Y-142705000D01*
X136820000Y-142705000D01*
X136820000Y-142055000D01*
X136767973Y-141626762D01*
X136633401Y-141216902D01*
X136421455Y-140841172D01*
X136140280Y-140514010D01*
X135800681Y-140247989D01*
X135415710Y-140053332D01*
X135013451Y-139940468D01*
X134670000Y-140118129D01*
X134570000Y-140118129D01*
X134226549Y-139940468D01*
X133824290Y-140053332D01*
X133439319Y-140247989D01*
X133099720Y-140514010D01*
X132818545Y-140841172D01*
X132606599Y-141216902D01*
X132472027Y-141626762D01*
X132420000Y-142055000D01*
X122623400Y-142055000D01*
X122561621Y-141851343D01*
X122343407Y-141443093D01*
X122049741Y-141085259D01*
X121691907Y-140791593D01*
X121283657Y-140573379D01*
X120840680Y-140439003D01*
X120495442Y-140405000D01*
X118264558Y-140405000D01*
X117919320Y-140439003D01*
X117476343Y-140573379D01*
X117068093Y-140791593D01*
X116710259Y-141085259D01*
X116416593Y-141443093D01*
X116198379Y-141851343D01*
X116064003Y-142294320D01*
X116018630Y-142755000D01*
X70900000Y-142755000D01*
X70900000Y-142055000D01*
X74000000Y-142055000D01*
X74000000Y-142705000D01*
X76150000Y-142705000D01*
X76150000Y-140118129D01*
X76250000Y-140118129D01*
X76250000Y-142705000D01*
X78400000Y-142705000D01*
X78400000Y-142055000D01*
X101940000Y-142055000D01*
X101940000Y-142705000D01*
X104090000Y-142705000D01*
X104090000Y-140118129D01*
X104190000Y-140118129D01*
X104190000Y-142705000D01*
X106340000Y-142705000D01*
X106340000Y-142055000D01*
X106287973Y-141626762D01*
X106153401Y-141216902D01*
X105941455Y-140841172D01*
X105660280Y-140514010D01*
X105320681Y-140247989D01*
X104935710Y-140053332D01*
X104533451Y-139940468D01*
X104190000Y-140118129D01*
X104090000Y-140118129D01*
X103746549Y-139940468D01*
X103344290Y-140053332D01*
X102959319Y-140247989D01*
X102619720Y-140514010D01*
X102338545Y-140841172D01*
X102126599Y-141216902D01*
X101992027Y-141626762D01*
X101940000Y-142055000D01*
X78400000Y-142055000D01*
X78347973Y-141626762D01*
X78213401Y-141216902D01*
X78001455Y-140841172D01*
X77720280Y-140514010D01*
X77478993Y-140325000D01*
X85565887Y-140325000D01*
X85582299Y-140491629D01*
X85630902Y-140651855D01*
X85709831Y-140799520D01*
X85816051Y-140928949D01*
X85945480Y-141035169D01*
X86093145Y-141114098D01*
X86253371Y-141162701D01*
X86420000Y-141179113D01*
X87407500Y-141175000D01*
X87620000Y-140962500D01*
X87620000Y-139125000D01*
X87720000Y-139125000D01*
X87720000Y-140962500D01*
X87932500Y-141175000D01*
X88920000Y-141179113D01*
X89086629Y-141162701D01*
X89246855Y-141114098D01*
X89394520Y-141035169D01*
X89523949Y-140928949D01*
X89630169Y-140799520D01*
X89709098Y-140651855D01*
X89757701Y-140491629D01*
X89774113Y-140325000D01*
X90565887Y-140325000D01*
X90582299Y-140491629D01*
X90630902Y-140651855D01*
X90709831Y-140799520D01*
X90816051Y-140928949D01*
X90945480Y-141035169D01*
X91093145Y-141114098D01*
X91253371Y-141162701D01*
X91420000Y-141179113D01*
X92407500Y-141175000D01*
X92620000Y-140962500D01*
X92620000Y-139125000D01*
X92720000Y-139125000D01*
X92720000Y-140962500D01*
X92932500Y-141175000D01*
X93920000Y-141179113D01*
X94086629Y-141162701D01*
X94246855Y-141114098D01*
X94394520Y-141035169D01*
X94523949Y-140928949D01*
X94630169Y-140799520D01*
X94709098Y-140651855D01*
X94757701Y-140491629D01*
X94774113Y-140325000D01*
X94770000Y-139337500D01*
X94557500Y-139125000D01*
X92720000Y-139125000D01*
X92620000Y-139125000D01*
X90782500Y-139125000D01*
X90570000Y-139337500D01*
X90565887Y-140325000D01*
X89774113Y-140325000D01*
X89770000Y-139337500D01*
X89557500Y-139125000D01*
X87720000Y-139125000D01*
X87620000Y-139125000D01*
X85782500Y-139125000D01*
X85570000Y-139337500D01*
X85565887Y-140325000D01*
X77478993Y-140325000D01*
X77380681Y-140247989D01*
X76995710Y-140053332D01*
X76593451Y-139940468D01*
X76250000Y-140118129D01*
X76150000Y-140118129D01*
X75806549Y-139940468D01*
X75404290Y-140053332D01*
X75019319Y-140247989D01*
X74679720Y-140514010D01*
X74398545Y-140841172D01*
X74186599Y-141216902D01*
X74052027Y-141626762D01*
X74000000Y-142055000D01*
X70900000Y-142055000D01*
X70900000Y-137825000D01*
X85565887Y-137825000D01*
X85570000Y-138812500D01*
X85782500Y-139025000D01*
X87620000Y-139025000D01*
X87620000Y-137187500D01*
X87720000Y-137187500D01*
X87720000Y-139025000D01*
X89557500Y-139025000D01*
X89770000Y-138812500D01*
X89774113Y-137825000D01*
X90565887Y-137825000D01*
X90570000Y-138812500D01*
X90782500Y-139025000D01*
X92620000Y-139025000D01*
X92620000Y-137187500D01*
X92720000Y-137187500D01*
X92720000Y-139025000D01*
X94557500Y-139025000D01*
X94694784Y-138887716D01*
X111230000Y-138887716D01*
X111230000Y-139242284D01*
X111299173Y-139590041D01*
X111434861Y-139917620D01*
X111631849Y-140212433D01*
X111882567Y-140463151D01*
X112177380Y-140660139D01*
X112504959Y-140795827D01*
X112852716Y-140865000D01*
X113207284Y-140865000D01*
X113555041Y-140795827D01*
X113882620Y-140660139D01*
X114177433Y-140463151D01*
X114428151Y-140212433D01*
X114625139Y-139917620D01*
X114760827Y-139590041D01*
X114830000Y-139242284D01*
X114830000Y-138887716D01*
X114760827Y-138539959D01*
X114625139Y-138212380D01*
X114428151Y-137917567D01*
X114177433Y-137666849D01*
X113882620Y-137469861D01*
X113555041Y-137334173D01*
X113207284Y-137265000D01*
X112852716Y-137265000D01*
X112504959Y-137334173D01*
X112177380Y-137469861D01*
X111882567Y-137666849D01*
X111631849Y-137917567D01*
X111434861Y-138212380D01*
X111299173Y-138539959D01*
X111230000Y-138887716D01*
X94694784Y-138887716D01*
X94770000Y-138812500D01*
X94774113Y-137825000D01*
X94757701Y-137658371D01*
X94709098Y-137498145D01*
X94630169Y-137350480D01*
X94523949Y-137221051D01*
X94394520Y-137114831D01*
X94246855Y-137035902D01*
X94086629Y-136987299D01*
X93920000Y-136970887D01*
X92932500Y-136975000D01*
X92720000Y-137187500D01*
X92620000Y-137187500D01*
X92407500Y-136975000D01*
X91420000Y-136970887D01*
X91253371Y-136987299D01*
X91093145Y-137035902D01*
X90945480Y-137114831D01*
X90816051Y-137221051D01*
X90709831Y-137350480D01*
X90630902Y-137498145D01*
X90582299Y-137658371D01*
X90565887Y-137825000D01*
X89774113Y-137825000D01*
X89757701Y-137658371D01*
X89709098Y-137498145D01*
X89630169Y-137350480D01*
X89523949Y-137221051D01*
X89394520Y-137114831D01*
X89246855Y-137035902D01*
X89086629Y-136987299D01*
X88920000Y-136970887D01*
X87932500Y-136975000D01*
X87720000Y-137187500D01*
X87620000Y-137187500D01*
X87407500Y-136975000D01*
X86420000Y-136970887D01*
X86253371Y-136987299D01*
X86093145Y-137035902D01*
X85945480Y-137114831D01*
X85816051Y-137221051D01*
X85709831Y-137350480D01*
X85630902Y-137498145D01*
X85582299Y-137658371D01*
X85565887Y-137825000D01*
X70900000Y-137825000D01*
X70900000Y-136305000D01*
X139920000Y-136305000D01*
X139920001Y-160875000D01*
G36*
X104885465Y-155882657D02*
G01*
X104690465Y-156247477D01*
X104570385Y-156643329D01*
X104540000Y-156951834D01*
X104540000Y-158558167D01*
X104570385Y-158866672D01*
X104690466Y-159262524D01*
X104820072Y-159505000D01*
X103447813Y-159505000D01*
X103561013Y-159304829D01*
X103689895Y-158913729D01*
X103740000Y-158505000D01*
X103740000Y-157805000D01*
X101690000Y-157805000D01*
X101690000Y-157825000D01*
X101590000Y-157825000D01*
X101590000Y-157805000D01*
X99540000Y-157805000D01*
X99540000Y-158505000D01*
X99590105Y-158913729D01*
X99718987Y-159304829D01*
X99832187Y-159505000D01*
X98266345Y-159505000D01*
X95686344Y-156925000D01*
X98993681Y-156925000D01*
X99060000Y-156931532D01*
X99126319Y-156925000D01*
X99126321Y-156925000D01*
X99324646Y-156905467D01*
X99560990Y-156833772D01*
X99540000Y-157005000D01*
X99540000Y-157705000D01*
X101590000Y-157705000D01*
X101590000Y-157685000D01*
X101690000Y-157685000D01*
X101690000Y-157705000D01*
X103740000Y-157705000D01*
X103740000Y-157005000D01*
X103689895Y-156596271D01*
X103561013Y-156205171D01*
X103358308Y-155846729D01*
X103193168Y-155655000D01*
X105072299Y-155655000D01*
X104885465Y-155882657D01*
G37*
X104885465Y-155882657D02*
X104690465Y-156247477D01*
X104570385Y-156643329D01*
X104540000Y-156951834D01*
X104540000Y-158558167D01*
X104570385Y-158866672D01*
X104690466Y-159262524D01*
X104820072Y-159505000D01*
X103447813Y-159505000D01*
X103561013Y-159304829D01*
X103689895Y-158913729D01*
X103740000Y-158505000D01*
X103740000Y-157805000D01*
X101690000Y-157805000D01*
X101690000Y-157825000D01*
X101590000Y-157825000D01*
X101590000Y-157805000D01*
X99540000Y-157805000D01*
X99540000Y-158505000D01*
X99590105Y-158913729D01*
X99718987Y-159304829D01*
X99832187Y-159505000D01*
X98266345Y-159505000D01*
X95686344Y-156925000D01*
X98993681Y-156925000D01*
X99060000Y-156931532D01*
X99126319Y-156925000D01*
X99126321Y-156925000D01*
X99324646Y-156905467D01*
X99560990Y-156833772D01*
X99540000Y-157005000D01*
X99540000Y-157705000D01*
X101590000Y-157705000D01*
X101590000Y-157685000D01*
X101690000Y-157685000D01*
X101690000Y-157705000D01*
X103740000Y-157705000D01*
X103740000Y-157005000D01*
X103689895Y-156596271D01*
X103561013Y-156205171D01*
X103358308Y-155846729D01*
X103193168Y-155655000D01*
X105072299Y-155655000D01*
X104885465Y-155882657D01*
M02*
