<?xml version="1.0" encoding="utf-8"?>
<!-- Uploaded to: SVG Repo, www.svgrepo.com, Generator: SVG Repo Mixer Tools -->
<svg fill="#000000" width="800px" height="800px" viewBox="0 0 32 32" version="1.1" xmlns="http://www.w3.org/2000/svg">
<title>backward</title>
<path d="M0 16q0 1.12 0.896 1.664l12 8q0.448 0.32 0.992 0.352t1.056-0.224q0.48-0.288 0.768-0.768t0.288-1.024v-16q0-0.544-0.288-1.024t-0.768-0.736-1.056-0.224-0.992 0.32l-12 8q-0.896 0.608-0.896 1.664zM16 16q0 1.12 0.896 1.664l12 8q0.448 0.32 0.992 0.352t1.056-0.224q0.48-0.288 0.768-0.768t0.288-1.024v-16q0-0.544-0.288-1.024t-0.768-0.736-1.056-0.224-0.992 0.32l-12 8q-0.896 0.608-0.896 1.664z"></path>
</svg>