<?xml version="1.0" encoding="utf-8"?>
<!-- Uploaded to: SVG Repo, www.svgrepo.com, Generator: SVG Repo Mixer Tools -->
<svg fill="#000000" width="800px" height="800px" viewBox="0 0 32 32" version="1.1" xmlns="http://www.w3.org/2000/svg">
<title>cassette</title>
<path d="M0 22.016q0 2.496 1.76 4.224t4.256 1.76h1.984q0-1.632 1.184-2.816t2.816-1.184h8q1.664 0 2.816 1.184t1.184 2.816h2.016q2.464 0 4.224-1.76t1.76-4.224v-12q0-2.496-1.76-4.256t-4.224-1.76h-20q-2.496 0-4.256 1.76t-1.76 4.256v12zM4 26.016v-2.016h2.016v2.016h-2.016zM4 20v-9.984q0-0.832 0.576-1.408t1.44-0.608h20q0.8 0 1.408 0.608t0.576 1.408v9.984q0 0.832-0.576 1.44t-1.408 0.576h-20q-0.832 0-1.44-0.576t-0.576-1.44zM6.016 17.024q0 1.248 0.864 2.112t2.112 0.864 2.144-0.864 0.864-2.112-0.864-2.144-2.144-0.864-2.112 0.864-0.864 2.144zM6.016 12h20v-1.984h-20v1.984zM10.176 28h11.648q-0.32-0.864-1.088-1.44t-1.728-0.544h-6.016q-0.928 0-1.728 0.544t-1.088 1.44zM14.016 18.016h4v-2.016h-4v2.016zM20 17.024q0 1.248 0.864 2.112t2.144 0.864 2.112-0.864 0.896-2.112-0.896-2.144-2.112-0.864-2.144 0.864-0.864 2.144zM26.016 26.016v-2.016h1.984v2.016h-1.984z"></path>
</svg>