<?xml version="1.0" encoding="utf-8"?>
<!-- Uploaded to: SVG Repo, www.svgrepo.com, Generator: SVG Repo Mixer Tools -->
<svg fill="#000000" width="800px" height="800px" viewBox="0 0 32 32" version="1.1" xmlns="http://www.w3.org/2000/svg">
<title>high-volume</title>
<path d="M0 18.016q0 2.496 1.76 4.224t4.32 1.76h2.016l10.112 8v-32l-10.112 8h-2.016q-2.528 0-4.32 1.76t-1.76 4.256v4zM4.064 18.016v-4q0-0.832 0.576-1.408t1.44-0.608h4.032l4.032-4v16l-4.032-4h-4.032q-0.832 0-1.44-0.576t-0.576-1.408zM20 27.264v4.224q3.424-0.864 6.144-3.104t4.288-5.472 1.568-6.912-1.568-6.88-4.288-5.472-6.144-3.136v4.224q3.552 1.28 5.76 4.352t2.24 6.912-2.24 6.944-5.76 4.32zM20 23.744q2.624-0.672 4.32-2.816t1.696-4.928-1.696-4.896-4.32-2.816v4.256q0.896 0.576 1.44 1.472t0.576 1.984q0 1.088-0.576 2.016t-1.44 1.44v4.288z"></path>
</svg>