<?xml version="1.0" ?>
<!DOCTYPE svg  PUBLIC '-//W3C//DTD SVG 1.1//EN'  'http://www.w3.org/Graphics/SVG/1.1/DTD/svg11.dtd'>
<!-- Uploaded to: SVG Repo, www.svgrepo.com, Generator: SVG Repo Mixer Tools -->
<svg fill="#000000" width="800px" height="800px" viewBox="0 0 100 100" version="1.1" xml:space="preserve" xmlns="http://www.w3.org/2000/svg" xmlns:xlink="http://www.w3.org/1999/xlink">
<g id="_x31_"/>
<g id="_x32_"/>
<g id="_x33_"/>
<g id="_x34_"/>
<g id="_x35_"/>
<g id="_x36_"/>
<g id="_x37_"/>
<g id="_x38_"/>
<g id="_x39_"/>
<g id="_x31_0">
<path d="M29,54c-0.5,0-1-0.2-1.4-0.6L14.1,39.9c-2.7-2.7-2.7-7,0-9.7l16.1-16.1c2.7-2.7,7-2.7,9.7,0l13.5,13.5c0.8,0.8,0.8,2,0,2.8   l-23,23C30,53.8,29.5,54,29,54z M35,16.1c-0.7,0-1.5,0.3-2,0.8L16.9,33c-1.1,1.1-1.1,2.9,0,4L29,49.2L49.2,29L37.1,16.9   C36.5,16.3,35.8,16.1,35,16.1z M65,87.9c-1.8,0-3.5-0.7-4.9-2L47.3,73.1c-0.4-0.4-0.6-0.9-0.6-1.4s0.2-1,0.6-1.4l23-23   c0.8-0.8,2-0.8,2.8,0l12.8,12.8c2.7,2.7,2.7,7,0,9.7L69.8,85.9C68.5,87.3,66.7,87.9,65,87.9z M51.6,71.7l11.4,11.4   c1.1,1.1,2.9,1.1,4,0L83.1,67c1.1-1.1,1.1-2.9,0-4L71.7,51.6L51.6,71.7z M48.7,73.7L48.7,73.7c-0.5,0-1-0.2-1.4-0.6L27.6,53.4   c-0.8-0.8-0.8-2,0-2.8l23-23c0.8-0.8,2.1-0.8,2.8,0l19.7,19.7c0.4,0.4,0.6,0.9,0.6,1.4s-0.2,1-0.6,1.4l-23,23   C49.8,73.5,49.3,73.7,48.7,73.7z M31.8,52l16.9,16.9l20.2-20.2L52,31.8L31.8,52z M43.2,53.1c0.4-0.4,0.6-0.9,0.6-1.4   c0-0.5-0.2-1-0.6-1.4c-0.8-0.8-2.1-0.8-2.8,0c-0.4,0.4-0.6,0.9-0.6,1.4c0,0.5,0.2,1,0.6,1.4c0.4,0.4,0.9,0.6,1.4,0.6   C42.3,53.7,42.8,53.5,43.2,53.1z M53.1,43.3c0.4-0.4,0.6-0.9,0.6-1.4c0-0.5-0.2-1-0.6-1.4c-0.8-0.8-2.1-0.8-2.8,0   c-0.4,0.4-0.6,0.9-0.6,1.4c0,0.5,0.2,1,0.6,1.4c0.4,0.4,0.9,0.6,1.4,0.6S52.7,43.6,53.1,43.3z M50.2,60.2c0.4-0.4,0.6-0.9,0.6-1.4   c0-0.5-0.2-1-0.6-1.4c-0.8-0.8-2.1-0.7-2.8,0c-0.4,0.4-0.6,0.9-0.6,1.4c0,0.5,0.2,1,0.6,1.4c0.4,0.4,0.9,0.6,1.4,0.6   C49.3,60.8,49.8,60.6,50.2,60.2z M60.1,50.3c0.4-0.4,0.6-0.9,0.6-1.4c0-0.5-0.2-1-0.6-1.4c-0.8-0.8-2.1-0.8-2.8,0   c-0.4,0.4-0.6,0.9-0.6,1.4c0,0.5,0.2,1,0.6,1.4c0.4,0.4,0.9,0.6,1.4,0.6C59.2,50.9,59.8,50.7,60.1,50.3z"/>
</g>
<g id="_x31_1"/>
<g id="_x31_2"/>
<g id="_x31_3"/>
<g id="_x31_4"/>
<g id="_x31_5"/>
<g id="_x31_6"/>
<g id="_x31_7"/>
<g id="_x31_8"/>
<g id="_x31_9"/>
<g id="_x32_0"/>
<g id="_x32_1"/>
<g id="_x32_2"/>
<g id="_x32_3"/>
<g id="_x32_4"/>
<g id="_x32_5"/>
</svg>