<?xml version="1.0" encoding="iso-8859-1"?>
<!-- Generator: Adobe Illustrator 17.1.0, SVG Export Plug-In . SVG Version: 6.00 Build 0)  -->
<!DOCTYPE svg PUBLIC "-//W3C//DTD SVG 1.1//EN" "http://www.w3.org/Graphics/SVG/1.1/DTD/svg11.dtd">
<svg version="1.1" id="Capa_1" xmlns="http://www.w3.org/2000/svg" xmlns:xlink="http://www.w3.org/1999/xlink" x="0px" y="0px"
	 viewBox="0 0 214.822 214.822" style="enable-background:new 0 0 214.822 214.822;" xml:space="preserve">
<path style="fill:#000001;" d="M212.625,32.954L181.868,2.197C180.461,0.79,178.554,0,176.564,0s-3.897,0.79-5.304,2.197
	c-10.236,10.238-14.309,23.895-11.556,35.002l-85.64,85.64l-15.54-15.54c-1.406-1.406-3.314-2.196-5.303-2.196
	s-3.897,0.79-5.303,2.196l-35.574,35.574C4.384,150.834,0,161.418,0,172.675c0,11.258,4.384,21.842,12.345,29.803
	c7.96,7.96,18.544,12.344,29.802,12.344c11.257,0,21.841-4.384,29.802-12.344l35.574-35.573c1.407-1.407,2.197-3.314,2.197-5.304
	s-0.79-3.896-2.197-5.304l-15.539-15.539l85.612-85.612c2.266,0.579,4.653,0.885,7.12,0.885c9.812,0,19.985-4.546,27.909-12.469
	c1.407-1.407,2.197-3.314,2.197-5.304S214.032,34.362,212.625,32.954z M184.716,41.031c-2.313,0-5.578-0.508-7.997-2.928
	c-4.234-4.233-3.768-12.15,0.502-19.34l18.841,18.842C192.362,39.804,188.399,41.031,184.716,41.031z"/>
<g>
</g>
<g>
</g>
<g>
</g>
<g>
</g>
<g>
</g>
<g>
</g>
<g>
</g>
<g>
</g>
<g>
</g>
<g>
</g>
<g>
</g>
<g>
</g>
<g>
</g>
<g>
</g>
<g>
</g>
</svg>
