<?xml version="1.0" encoding="iso-8859-1"?>
<!-- Uploaded to: SVG Repo, www.svgrepo.com, Generator: SVG Repo Mixer Tools -->
<svg fill="#000000" height="800px" width="800px" version="1.1" id="Layer_1" xmlns="http://www.w3.org/2000/svg" xmlns:xlink="http://www.w3.org/1999/xlink" 
	 viewBox="0 0 512 512" xml:space="preserve">
<g>
	<g>
		<path d="M339.207,108.937h-10.381l2.86-24.267c0.341-2.892-0.571-5.794-2.507-7.971c-1.935-2.177-4.709-3.422-7.622-3.422h-21.642
			l-12.859-32.51c-1.539-3.891-5.299-6.448-9.484-6.448h-11.373v-24.12C266.199,4.566,261.633,0,256,0
			c-5.633,0-10.199,4.566-10.199,10.199v24.12h-11.373c-4.185,0-7.945,2.556-9.484,6.448l-12.858,32.51h-21.642
			c-2.913,0-5.687,1.245-7.622,3.422c-1.936,2.177-2.848,5.078-2.507,7.971l2.86,24.267h-10.381
			c-5.633,0-10.199,4.566-10.199,10.199v382.665h-0.001c0,5.633,4.566,10.199,10.199,10.199h166.414
			c5.633,0,10.199-4.566,10.199-10.199V119.136C349.406,113.503,344.84,108.937,339.207,108.937z M241.361,54.718h29.277
			l7.34,18.558H234.02L241.361,54.718z M310.085,93.675l-1.798,15.261H203.713l-1.798-15.261H310.085z M329.008,491.602H182.992
			v-25.052h146.016V491.602z M329.008,446.152H182.992V129.335h146.016V446.152z"/>
	</g>
</g>
<g>
	<g>
		<path d="M204.521,397.737c-5.633,0-10.199,4.566-10.199,10.199v13.167c0,5.633,4.566,10.199,10.199,10.199
			c5.633,0,10.199-4.566,10.199-10.199v-13.167C214.72,402.304,210.154,397.737,204.521,397.737z"/>
	</g>
</g>
<g>
	<g>
		<path d="M238.84,397.737c-5.633,0-10.199,4.566-10.199,10.199v13.167c0,5.633,4.566,10.199,10.199,10.199
			s10.199-4.566,10.199-10.199v-13.167C249.039,402.304,244.473,397.737,238.84,397.737z"/>
	</g>
</g>
<g>
	<g>
		<path d="M273.16,397.737c-5.633,0-10.199,4.566-10.199,10.199v13.167c0,5.633,4.566,10.199,10.199,10.199
			c5.633,0,10.199-4.566,10.199-10.199v-13.167C283.359,402.304,278.793,397.737,273.16,397.737z"/>
	</g>
</g>
<g>
	<g>
		<path d="M307.479,397.737c-5.633,0-10.199,4.566-10.199,10.199v13.167c0,5.633,4.566,10.199,10.199,10.199
			c5.633,0,10.199-4.566,10.199-10.199v-13.167C317.679,402.304,313.112,397.737,307.479,397.737z"/>
	</g>
</g>
<g>
	<g>
		<path d="M204.521,348.109c-5.633,0-10.199,4.566-10.199,10.199v13.167c0,5.633,4.566,10.199,10.199,10.199
			c5.633,0,10.199-4.566,10.199-10.199v-13.167C214.72,352.675,210.154,348.109,204.521,348.109z"/>
	</g>
</g>
<g>
	<g>
		<path d="M238.84,348.109c-5.633,0-10.199,4.566-10.199,10.199v13.167c0,5.633,4.566,10.199,10.199,10.199
			s10.199-4.566,10.199-10.199v-13.167C249.039,352.675,244.473,348.109,238.84,348.109z"/>
	</g>
</g>
<g>
	<g>
		<path d="M273.16,348.109c-5.633,0-10.199,4.566-10.199,10.199v13.167c0,5.633,4.566,10.199,10.199,10.199
			c5.633,0,10.199-4.566,10.199-10.199v-13.167C283.359,352.675,278.793,348.109,273.16,348.109z"/>
	</g>
</g>
<g>
	<g>
		<path d="M307.479,348.109c-5.633,0-10.199,4.566-10.199,10.199v13.167c0,5.633,4.566,10.199,10.199,10.199
			c5.633,0,10.199-4.566,10.199-10.199v-13.167C317.679,352.675,313.112,348.109,307.479,348.109z"/>
	</g>
</g>
<g>
	<g>
		<path d="M204.521,297.467c-5.633,0-10.199,4.566-10.199,10.199v13.167c0,5.633,4.566,10.199,10.199,10.199
			c5.633,0,10.199-4.566,10.199-10.199v-13.167C214.72,302.033,210.154,297.467,204.521,297.467z"/>
	</g>
</g>
<g>
	<g>
		<path d="M238.84,297.467c-5.633,0-10.199,4.566-10.199,10.199v13.167c0,5.633,4.566,10.199,10.199,10.199
			s10.199-4.566,10.199-10.199v-13.167C249.039,302.033,244.473,297.467,238.84,297.467z"/>
	</g>
</g>
<g>
	<g>
		<path d="M273.16,297.467c-5.633,0-10.199,4.566-10.199,10.199v13.167c0,5.633,4.566,10.199,10.199,10.199
			c5.633,0,10.199-4.566,10.199-10.199v-13.167C283.359,302.033,278.793,297.467,273.16,297.467z"/>
	</g>
</g>
<g>
	<g>
		<path d="M307.479,297.467c-5.633,0-10.199,4.566-10.199,10.199v13.167c0,5.633,4.566,10.199,10.199,10.199
			c5.633,0,10.199-4.566,10.199-10.199v-13.167C317.679,302.033,313.112,297.467,307.479,297.467z"/>
	</g>
</g>
<g>
	<g>
		<path d="M204.521,247.838c-5.633,0-10.199,4.566-10.199,10.199v13.167c0,5.633,4.566,10.199,10.199,10.199
			c5.633,0,10.199-4.566,10.199-10.199v-13.167C214.72,252.404,210.154,247.838,204.521,247.838z"/>
	</g>
</g>
<g>
	<g>
		<path d="M238.84,247.838c-5.633,0-10.199,4.566-10.199,10.199v13.167c0,5.633,4.566,10.199,10.199,10.199
			s10.199-4.566,10.199-10.199v-13.167C249.039,252.404,244.473,247.838,238.84,247.838z"/>
	</g>
</g>
<g>
	<g>
		<path d="M273.16,247.838c-5.633,0-10.199,4.566-10.199,10.199v13.167c0,5.633,4.566,10.199,10.199,10.199
			c5.633,0,10.199-4.566,10.199-10.199v-13.167C283.359,252.404,278.793,247.838,273.16,247.838z"/>
	</g>
</g>
<g>
	<g>
		<path d="M307.479,247.838c-5.633,0-10.199,4.566-10.199,10.199v13.167c0,5.633,4.566,10.199,10.199,10.199
			c5.633,0,10.199-4.566,10.199-10.199v-13.167C317.679,252.404,313.112,247.838,307.479,247.838z"/>
	</g>
</g>
<g>
	<g>
		<path d="M204.521,196.183c-5.633,0-10.199,4.566-10.199,10.199v13.167c0,5.633,4.566,10.199,10.199,10.199
			c5.633,0,10.199-4.566,10.199-10.199v-13.167C214.72,200.749,210.154,196.183,204.521,196.183z"/>
	</g>
</g>
<g>
	<g>
		<path d="M238.84,196.183c-5.633,0-10.199,4.566-10.199,10.199v13.167c0,5.633,4.566,10.199,10.199,10.199
			s10.199-4.566,10.199-10.199v-13.167C249.039,200.749,244.473,196.183,238.84,196.183z"/>
	</g>
</g>
<g>
	<g>
		<path d="M273.16,196.183c-5.633,0-10.199,4.566-10.199,10.199v13.167c0,5.633,4.566,10.199,10.199,10.199
			c5.633,0,10.199-4.566,10.199-10.199v-13.167C283.359,200.749,278.793,196.183,273.16,196.183z"/>
	</g>
</g>
<g>
	<g>
		<path d="M307.479,196.183c-5.633,0-10.199,4.566-10.199,10.199v13.167c0,5.633,4.566,10.199,10.199,10.199
			c5.633,0,10.199-4.566,10.199-10.199v-13.167C317.679,200.749,313.112,196.183,307.479,196.183z"/>
	</g>
</g>
<g>
	<g>
		<path d="M204.521,146.552c-5.633,0-10.199,4.566-10.199,10.199v13.167c0,5.633,4.566,10.199,10.199,10.199
			c5.633,0,10.199-4.566,10.199-10.199v-13.167C214.72,151.119,210.154,146.552,204.521,146.552z"/>
	</g>
</g>
<g>
	<g>
		<path d="M238.84,146.552c-5.633,0-10.199,4.566-10.199,10.199v13.167c0,5.633,4.566,10.199,10.199,10.199
			s10.199-4.566,10.199-10.199v-13.167C249.039,151.119,244.473,146.552,238.84,146.552z"/>
	</g>
</g>
<g>
	<g>
		<path d="M273.16,146.552c-5.633,0-10.199,4.566-10.199,10.199v13.167c0,5.633,4.566,10.199,10.199,10.199
			c5.633,0,10.199-4.566,10.199-10.199v-13.167C283.359,151.119,278.793,146.552,273.16,146.552z"/>
	</g>
</g>
<g>
	<g>
		<path d="M307.479,146.552c-5.633,0-10.199,4.566-10.199,10.199v13.167c0,5.633,4.566,10.199,10.199,10.199
			c5.633,0,10.199-4.566,10.199-10.199v-13.167C317.679,151.119,313.112,146.552,307.479,146.552z"/>
	</g>
</g>
</svg>