G04 #@! TF.GenerationSoftware,KiCad,Pcbnew,5.1.6-c6e7f7d~87~ubuntu19.10.1*
G04 #@! TF.CreationDate,2023-02-11T17:32:30+06:00*
G04 #@! TF.ProjectId,____________r2a_down-tuned,3a3e3f3a-305f-4373-953c-3b385f723261,2A*
G04 #@! TF.SameCoordinates,Original*
G04 #@! TF.FileFunction,Legend,Top*
G04 #@! TF.FilePolarity,Positive*
%FSLAX46Y46*%
G04 Gerber Fmt 4.6, Leading zero omitted, Abs format (unit mm)*
G04 Created by KiCad (PCBNEW 5.1.6-c6e7f7d~87~ubuntu19.10.1) date 2023-02-11 17:32:30*
%MOMM*%
%LPD*%
G01*
G04 APERTURE LIST*
%ADD10C,0.200000*%
%ADD11C,1.000000*%
%ADD12C,1.370000*%
%ADD13R,3.200000X3.200000*%
%ADD14C,2.100000*%
%ADD15C,3.000000*%
%ADD16O,5.700000X3.200000*%
%ADD17O,3.200000X5.200000*%
%ADD18O,5.200000X3.200000*%
%ADD19R,1.800000X2.000000*%
%ADD20R,2.100000X2.100000*%
%ADD21R,2.700000X2.700000*%
%ADD22C,6.200000*%
%ADD23R,2.000000X1.800000*%
%ADD24R,2.400000X0.800000*%
%ADD25R,2.800000X2.600000*%
%ADD26R,1.000000X1.800000*%
G04 APERTURE END LIST*
D10*
X78740000Y-165260000D02*
X78740000Y-185260000D01*
X99740000Y-165260000D02*
X99740000Y-185260000D01*
X99740000Y-165260000D02*
X78740000Y-165260000D01*
X99740000Y-185260000D02*
X78740000Y-185260000D01*
D11*
X83440000Y-175260000D02*
G75*
G03*
X83440000Y-175260000I-500000J0D01*
G01*
D10*
X132080000Y-185260000D02*
X132080000Y-165260000D01*
X111080000Y-185260000D02*
X111080000Y-165260000D01*
X111080000Y-185260000D02*
X132080000Y-185260000D01*
X111080000Y-165260000D02*
X132080000Y-165260000D01*
D11*
X128380000Y-175260000D02*
G75*
G03*
X128380000Y-175260000I-500000J0D01*
G01*
D10*
X78740000Y-106680000D02*
X78740000Y-114300000D01*
X81280000Y-106680000D02*
X81280000Y-114300000D01*
X81280000Y-114300000D02*
G75*
G02*
X78740000Y-114300000I-1270000J0D01*
G01*
X78740000Y-106680000D02*
G75*
G02*
X81280000Y-106680000I1270000J0D01*
G01*
X83820000Y-109220000D02*
X83820000Y-111760000D01*
X81280000Y-109220000D02*
X81280000Y-111760000D01*
X81280000Y-109220000D02*
G75*
G02*
X83820000Y-109220000I1270000J0D01*
G01*
X83820000Y-111760000D02*
G75*
G02*
X81280000Y-111760000I-1270000J0D01*
G01*
X129540000Y-109220000D02*
X129540000Y-106680000D01*
X132080000Y-109220000D02*
X132080000Y-106680000D01*
X132080000Y-109220000D02*
G75*
G02*
X129540000Y-109220000I-1270000J0D01*
G01*
X129540000Y-106680000D02*
G75*
G02*
X132080000Y-106680000I1270000J0D01*
G01*
X129540000Y-114300000D02*
X129540000Y-111760000D01*
X132080000Y-114300000D02*
X132080000Y-111760000D01*
X132080000Y-114300000D02*
G75*
G02*
X129540000Y-114300000I-1270000J0D01*
G01*
X129540000Y-111760000D02*
G75*
G02*
X132080000Y-111760000I1270000J0D01*
G01*
X78740000Y-127000000D02*
X78740000Y-132080000D01*
X81280000Y-127000000D02*
X81280000Y-132080000D01*
X81280000Y-132080000D02*
G75*
G02*
X78740000Y-132080000I-1270000J0D01*
G01*
X78740000Y-127000000D02*
G75*
G02*
X81280000Y-127000000I1270000J0D01*
G01*
X81280000Y-134620000D02*
X81280000Y-137160000D01*
X78740000Y-134620000D02*
X78740000Y-137160000D01*
X78740000Y-134620000D02*
G75*
G02*
X81280000Y-134620000I1270000J0D01*
G01*
X81280000Y-137160000D02*
G75*
G02*
X78740000Y-137160000I-1270000J0D01*
G01*
X81280000Y-139700000D02*
X81280000Y-142240000D01*
X78740000Y-139700000D02*
X78740000Y-142240000D01*
X78740000Y-139700000D02*
G75*
G02*
X81280000Y-139700000I1270000J0D01*
G01*
X81280000Y-142240000D02*
G75*
G02*
X78740000Y-142240000I-1270000J0D01*
G01*
X81280000Y-160020000D02*
X81280000Y-162560000D01*
X78740000Y-160020000D02*
X78740000Y-162560000D01*
X78740000Y-160020000D02*
G75*
G02*
X81280000Y-160020000I1270000J0D01*
G01*
X81280000Y-162560000D02*
G75*
G02*
X78740000Y-162560000I-1270000J0D01*
G01*
X129540000Y-162560000D02*
X129540000Y-160020000D01*
X132080000Y-162560000D02*
X132080000Y-160020000D01*
X132080000Y-162560000D02*
G75*
G02*
X129540000Y-162560000I-1270000J0D01*
G01*
X129540000Y-160020000D02*
G75*
G02*
X132080000Y-160020000I1270000J0D01*
G01*
X80010000Y-187960000D02*
X82550000Y-187960000D01*
X80010000Y-190500000D02*
X82550000Y-190500000D01*
X80010000Y-190500000D02*
G75*
G02*
X80010000Y-187960000I0J1270000D01*
G01*
X82550000Y-187960000D02*
G75*
G02*
X82550000Y-190500000I0J-1270000D01*
G01*
X128270000Y-187960000D02*
X130810000Y-187960000D01*
X128270000Y-190500000D02*
X130810000Y-190500000D01*
X128270000Y-190500000D02*
G75*
G02*
X128270000Y-187960000I0J1270000D01*
G01*
X130810000Y-187960000D02*
G75*
G02*
X130810000Y-190500000I0J-1270000D01*
G01*
X115570000Y-199390000D02*
X125730000Y-199390000D01*
X115570000Y-196850000D02*
X125730000Y-196850000D01*
X125730000Y-196850000D02*
G75*
G02*
X125730000Y-199390000I0J-1270000D01*
G01*
X115570000Y-199390000D02*
G75*
G02*
X115570000Y-196850000I0J1270000D01*
G01*
X87630000Y-199390000D02*
X95250000Y-199390000D01*
X87630000Y-196850000D02*
X95250000Y-196850000D01*
X95250000Y-196850000D02*
G75*
G02*
X95250000Y-199390000I0J-1270000D01*
G01*
X87630000Y-199390000D02*
G75*
G02*
X87630000Y-196850000I0J1270000D01*
G01*
D12*
X131495000Y-138430000D02*
G75*
G03*
X131495000Y-138430000I-685000J0D01*
G01*
D10*
X129540000Y-138430000D02*
X129540000Y-128270000D01*
X132080000Y-138430000D02*
X132080000Y-128270000D01*
X129540000Y-128270000D02*
G75*
G02*
X132080000Y-128270000I1270000J0D01*
G01*
X100910000Y-108180000D02*
X100910000Y-94615000D01*
X109910000Y-108180000D02*
X109910000Y-94615000D01*
X109910000Y-108180000D02*
X100910000Y-108180000D01*
X88960000Y-193040000D02*
G75*
G03*
X88960000Y-193040000I-2600000J0D01*
G01*
X95250000Y-196850000D02*
X95250000Y-194310000D01*
X90170000Y-196850000D02*
X90170000Y-194310000D01*
X95250000Y-196850000D02*
X90170000Y-196850000D01*
X95250000Y-194310000D02*
X90170000Y-194310000D01*
X92964000Y-194818000D02*
X92456000Y-194310000D01*
X92456000Y-195326000D02*
X92964000Y-194818000D01*
X92964000Y-195834000D02*
X92456000Y-195326000D01*
X92456000Y-196342000D02*
X92964000Y-196850000D01*
X92964000Y-195834000D02*
X92456000Y-196342000D01*
X93980000Y-120650000D02*
X93980000Y-122250000D01*
X78740000Y-120650000D02*
X78740000Y-122250000D01*
X92710000Y-118110000D02*
X92710000Y-120650000D01*
X80010000Y-118110000D02*
X80010000Y-120650000D01*
X78740000Y-122250000D02*
X93980000Y-122250000D01*
X78740000Y-120650000D02*
X93980000Y-120650000D01*
X80010000Y-118110000D02*
X92710000Y-118110000D01*
X99060000Y-132080000D02*
X111760000Y-132080000D01*
X97790000Y-134620000D02*
X113030000Y-134620000D01*
X97790000Y-136220000D02*
X113030000Y-136220000D01*
X99060000Y-132080000D02*
X99060000Y-134620000D01*
X111760000Y-132080000D02*
X111760000Y-134620000D01*
X97790000Y-134620000D02*
X97790000Y-136220000D01*
X113030000Y-134620000D02*
X113030000Y-136220000D01*
X118110000Y-118110000D02*
X130810000Y-118110000D01*
X116840000Y-120650000D02*
X132080000Y-120650000D01*
X116840000Y-122250000D02*
X132080000Y-122250000D01*
X118110000Y-118110000D02*
X118110000Y-120650000D01*
X130810000Y-118110000D02*
X130810000Y-120650000D01*
X116840000Y-120650000D02*
X116840000Y-122250000D01*
X132080000Y-120650000D02*
X132080000Y-122250000D01*
X80010000Y-146050000D02*
X92710000Y-146050000D01*
X78740000Y-148590000D02*
X93980000Y-148590000D01*
X78740000Y-150190000D02*
X93980000Y-150190000D01*
X80010000Y-146050000D02*
X80010000Y-148590000D01*
X92710000Y-146050000D02*
X92710000Y-148590000D01*
X78740000Y-148590000D02*
X78740000Y-150190000D01*
X93980000Y-148590000D02*
X93980000Y-150190000D01*
X99060000Y-160020000D02*
X111760000Y-160020000D01*
X97790000Y-162560000D02*
X113030000Y-162560000D01*
X97790000Y-164160000D02*
X113030000Y-164160000D01*
X99060000Y-160020000D02*
X99060000Y-162560000D01*
X111760000Y-160020000D02*
X111760000Y-162560000D01*
X97790000Y-162560000D02*
X97790000Y-164160000D01*
X113030000Y-162560000D02*
X113030000Y-164160000D01*
X118110000Y-146050000D02*
X130810000Y-146050000D01*
X116840000Y-148590000D02*
X132080000Y-148590000D01*
X116840000Y-150190000D02*
X132080000Y-150190000D01*
X118110000Y-146050000D02*
X118110000Y-148590000D01*
X130810000Y-146050000D02*
X130810000Y-148590000D01*
X116840000Y-148590000D02*
X116840000Y-150190000D01*
X132080000Y-148590000D02*
X132080000Y-150190000D01*
X106680000Y-200025000D02*
X106680000Y-202565000D01*
X104140000Y-200025000D02*
X104140000Y-202565000D01*
X104140000Y-202565000D02*
X106680000Y-202565000D01*
X104140000Y-200025000D02*
X106680000Y-200025000D01*
X113910000Y-186290000D02*
X113910000Y-199790000D01*
X96910000Y-186290000D02*
X96910000Y-199790000D01*
X96910000Y-199790000D02*
X113910000Y-199790000D01*
X96910000Y-186290000D02*
X113910000Y-186290000D01*
X110410000Y-193040000D02*
G75*
G03*
X110410000Y-193040000I-5000000J0D01*
G01*
X99822000Y-97790000D02*
G75*
G03*
X99822000Y-97790000I-3302000J0D01*
G01*
X117602000Y-97790000D02*
G75*
G03*
X117602000Y-97790000I-3302000J0D01*
G01*
X109220000Y-139700000D02*
X109220000Y-144780000D01*
X111760000Y-139700000D02*
X111760000Y-144780000D01*
X111506000Y-142494000D02*
X109474000Y-142494000D01*
X111506000Y-141986000D02*
X109474000Y-141986000D01*
X111760000Y-144780000D02*
X109220000Y-144780000D01*
X111760000Y-139700000D02*
X109220000Y-139700000D01*
X111760000Y-144780000D02*
X114300000Y-144780000D01*
X111760000Y-139700000D02*
X114300000Y-139700000D01*
X112014000Y-142494000D02*
X114046000Y-142494000D01*
X112014000Y-141986000D02*
X114046000Y-141986000D01*
X111760000Y-144780000D02*
X111760000Y-139700000D01*
X114300000Y-144780000D02*
X114300000Y-139700000D01*
X108204000Y-141986000D02*
X108712000Y-142494000D01*
X108712000Y-142494000D02*
X109220000Y-141986000D01*
X108204000Y-141986000D02*
X107696000Y-142494000D01*
X107696000Y-142494000D02*
X107188000Y-141986000D01*
X107188000Y-141986000D02*
X106680000Y-142494000D01*
X106680000Y-139700000D02*
X106680000Y-144780000D01*
X109220000Y-139700000D02*
X109220000Y-144780000D01*
X109220000Y-144780000D02*
X106680000Y-144780000D01*
X109220000Y-139700000D02*
X106680000Y-139700000D01*
X114300000Y-144780000D02*
X116840000Y-144780000D01*
X114300000Y-139700000D02*
X116840000Y-139700000D01*
X114300000Y-144780000D02*
X114300000Y-139700000D01*
X116840000Y-144780000D02*
X116840000Y-139700000D01*
X116332000Y-142494000D02*
X116840000Y-141986000D01*
X115824000Y-141986000D02*
X116332000Y-142494000D01*
X115316000Y-142494000D02*
X115824000Y-141986000D01*
X114808000Y-141986000D02*
X114300000Y-142494000D01*
X115316000Y-142494000D02*
X114808000Y-141986000D01*
X124714000Y-136525000D02*
X124714000Y-131445000D01*
X116586000Y-131445000D02*
X124714000Y-131445000D01*
X116586000Y-136525000D02*
X116586000Y-131445000D01*
X124714000Y-136525000D02*
X116586000Y-136525000D01*
X121666000Y-136525000D02*
G75*
G03*
X119634000Y-136525000I-1016000J0D01*
G01*
X121920000Y-129540000D02*
X121920000Y-124460000D01*
X119380000Y-129540000D02*
X119380000Y-124460000D01*
X119634000Y-126746000D02*
X121666000Y-126746000D01*
X119634000Y-127254000D02*
X121666000Y-127254000D01*
X119380000Y-124460000D02*
X121920000Y-124460000D01*
X119380000Y-129540000D02*
X121920000Y-129540000D01*
X119380000Y-124460000D02*
X116840000Y-124460000D01*
X119380000Y-129540000D02*
X116840000Y-129540000D01*
X119126000Y-126746000D02*
X117094000Y-126746000D01*
X119126000Y-127254000D02*
X117094000Y-127254000D01*
X119380000Y-124460000D02*
X119380000Y-129540000D01*
X116840000Y-124460000D02*
X116840000Y-129540000D01*
X113284000Y-126746000D02*
X113792000Y-127254000D01*
X113792000Y-127254000D02*
X114300000Y-126746000D01*
X113284000Y-126746000D02*
X112776000Y-127254000D01*
X112776000Y-127254000D02*
X112268000Y-126746000D01*
X112268000Y-126746000D02*
X111760000Y-127254000D01*
X111760000Y-124460000D02*
X111760000Y-129540000D01*
X114300000Y-124460000D02*
X114300000Y-129540000D01*
X114300000Y-129540000D02*
X111760000Y-129540000D01*
X114300000Y-124460000D02*
X111760000Y-124460000D01*
X115824000Y-126746000D02*
X116332000Y-127254000D01*
X116332000Y-127254000D02*
X116840000Y-126746000D01*
X115824000Y-126746000D02*
X115316000Y-127254000D01*
X115316000Y-127254000D02*
X114808000Y-126746000D01*
X114808000Y-126746000D02*
X114300000Y-127254000D01*
X114300000Y-124460000D02*
X114300000Y-129540000D01*
X116840000Y-124460000D02*
X116840000Y-129540000D01*
X116840000Y-129540000D02*
X114300000Y-129540000D01*
X116840000Y-124460000D02*
X114300000Y-124460000D01*
X82550000Y-153670000D02*
X87630000Y-153670000D01*
X82550000Y-151130000D02*
X87630000Y-151130000D01*
X85344000Y-151384000D02*
X85344000Y-153416000D01*
X84836000Y-151384000D02*
X84836000Y-153416000D01*
X87630000Y-151130000D02*
X87630000Y-153670000D01*
X82550000Y-151130000D02*
X82550000Y-153670000D01*
X85090000Y-154940000D02*
X82550000Y-154940000D01*
X85090000Y-160020000D02*
X82550000Y-160020000D01*
X84836000Y-157226000D02*
X82804000Y-157226000D01*
X84836000Y-157734000D02*
X82804000Y-157734000D01*
X85090000Y-154940000D02*
X85090000Y-160020000D01*
X82550000Y-154940000D02*
X82550000Y-160020000D01*
X94234000Y-162814000D02*
X93726000Y-163322000D01*
X93726000Y-163322000D02*
X94234000Y-163830000D01*
X94234000Y-162814000D02*
X93726000Y-162306000D01*
X93726000Y-162306000D02*
X94234000Y-161798000D01*
X94234000Y-161798000D02*
X93726000Y-161290000D01*
X96520000Y-161290000D02*
X91440000Y-161290000D01*
X96520000Y-163830000D02*
X91440000Y-163830000D01*
X91440000Y-163830000D02*
X91440000Y-161290000D01*
X96520000Y-163830000D02*
X96520000Y-161290000D01*
X91186000Y-152146000D02*
X91694000Y-151638000D01*
X91694000Y-151638000D02*
X91186000Y-151130000D01*
X91186000Y-152146000D02*
X91694000Y-152654000D01*
X91694000Y-152654000D02*
X91186000Y-153162000D01*
X91186000Y-153162000D02*
X91694000Y-153670000D01*
X88900000Y-153670000D02*
X93980000Y-153670000D01*
X88900000Y-151130000D02*
X93980000Y-151130000D01*
X93980000Y-151130000D02*
X93980000Y-153670000D01*
X88900000Y-151130000D02*
X88900000Y-153670000D01*
X86106000Y-155575000D02*
X86106000Y-160655000D01*
X94234000Y-160655000D02*
X86106000Y-160655000D01*
X94234000Y-155575000D02*
X94234000Y-160655000D01*
X86106000Y-155575000D02*
X94234000Y-155575000D01*
X89154000Y-155575000D02*
G75*
G03*
X91186000Y-155575000I1016000J0D01*
G01*
X106680000Y-158750000D02*
X106680000Y-153670000D01*
X104140000Y-158750000D02*
X104140000Y-153670000D01*
X104394000Y-155956000D02*
X106426000Y-155956000D01*
X104394000Y-156464000D02*
X106426000Y-156464000D01*
X104140000Y-153670000D02*
X106680000Y-153670000D01*
X104140000Y-158750000D02*
X106680000Y-158750000D01*
X99060000Y-153670000D02*
X99060000Y-158750000D01*
X101600000Y-153670000D02*
X101600000Y-158750000D01*
X101346000Y-156464000D02*
X99314000Y-156464000D01*
X101346000Y-155956000D02*
X99314000Y-155956000D01*
X101600000Y-158750000D02*
X99060000Y-158750000D01*
X101600000Y-153670000D02*
X99060000Y-153670000D01*
X102616000Y-156464000D02*
X102108000Y-155956000D01*
X102108000Y-155956000D02*
X101600000Y-156464000D01*
X102616000Y-156464000D02*
X103124000Y-155956000D01*
X103124000Y-155956000D02*
X103632000Y-156464000D01*
X103632000Y-156464000D02*
X104140000Y-155956000D01*
X104140000Y-158750000D02*
X104140000Y-153670000D01*
X101600000Y-158750000D02*
X101600000Y-153670000D01*
X101600000Y-153670000D02*
X104140000Y-153670000D01*
X101600000Y-158750000D02*
X104140000Y-158750000D01*
X98044000Y-155956000D02*
X98552000Y-156464000D01*
X98552000Y-156464000D02*
X99060000Y-155956000D01*
X98044000Y-155956000D02*
X97536000Y-156464000D01*
X97536000Y-156464000D02*
X97028000Y-155956000D01*
X97028000Y-155956000D02*
X96520000Y-156464000D01*
X96520000Y-153670000D02*
X96520000Y-158750000D01*
X99060000Y-153670000D02*
X99060000Y-158750000D01*
X99060000Y-158750000D02*
X96520000Y-158750000D01*
X99060000Y-153670000D02*
X96520000Y-153670000D01*
X125730000Y-144780000D02*
X130810000Y-144780000D01*
X125730000Y-142240000D02*
X130810000Y-142240000D01*
X128524000Y-142494000D02*
X128524000Y-144526000D01*
X128016000Y-142494000D02*
X128016000Y-144526000D01*
X130810000Y-142240000D02*
X130810000Y-144780000D01*
X125730000Y-142240000D02*
X125730000Y-144780000D01*
X128270000Y-154940000D02*
X128270000Y-152400000D01*
X123190000Y-154940000D02*
X123190000Y-152400000D01*
X125984000Y-154686000D02*
X125984000Y-152654000D01*
X125476000Y-154686000D02*
X125476000Y-152654000D01*
X128270000Y-154940000D02*
X123190000Y-154940000D01*
X128270000Y-152400000D02*
X123190000Y-152400000D01*
X128524000Y-160655000D02*
X128524000Y-155575000D01*
X120396000Y-155575000D02*
X128524000Y-155575000D01*
X120396000Y-160655000D02*
X120396000Y-155575000D01*
X128524000Y-160655000D02*
X120396000Y-160655000D01*
X125476000Y-160655000D02*
G75*
G03*
X123444000Y-160655000I-1016000J0D01*
G01*
X116586000Y-153416000D02*
X117094000Y-152908000D01*
X117094000Y-152908000D02*
X116586000Y-152400000D01*
X116586000Y-153416000D02*
X117094000Y-153924000D01*
X117094000Y-153924000D02*
X116586000Y-154432000D01*
X116586000Y-154432000D02*
X117094000Y-154940000D01*
X114300000Y-154940000D02*
X119380000Y-154940000D01*
X114300000Y-152400000D02*
X119380000Y-152400000D01*
X119380000Y-152400000D02*
X119380000Y-154940000D01*
X114300000Y-152400000D02*
X114300000Y-154940000D01*
X131064000Y-155956000D02*
X131572000Y-156464000D01*
X131572000Y-156464000D02*
X132080000Y-155956000D01*
X131064000Y-155956000D02*
X130556000Y-156464000D01*
X130556000Y-156464000D02*
X130048000Y-155956000D01*
X130048000Y-155956000D02*
X129540000Y-156464000D01*
X129540000Y-153670000D02*
X129540000Y-158750000D01*
X132080000Y-153670000D02*
X132080000Y-158750000D01*
X132080000Y-158750000D02*
X129540000Y-158750000D01*
X132080000Y-153670000D02*
X129540000Y-153670000D01*
X95250000Y-144780000D02*
X95250000Y-139700000D01*
X92710000Y-144780000D02*
X92710000Y-139700000D01*
X92964000Y-141986000D02*
X94996000Y-141986000D01*
X92964000Y-142494000D02*
X94996000Y-142494000D01*
X92710000Y-139700000D02*
X95250000Y-139700000D01*
X92710000Y-144780000D02*
X95250000Y-144780000D01*
X105410000Y-118110000D02*
X110490000Y-118110000D01*
X105410000Y-115570000D02*
X110490000Y-115570000D01*
X108204000Y-115824000D02*
X108204000Y-117856000D01*
X107696000Y-115824000D02*
X107696000Y-117856000D01*
X110490000Y-115570000D02*
X110490000Y-118110000D01*
X105410000Y-115570000D02*
X105410000Y-118110000D01*
X85090000Y-139700000D02*
X85090000Y-144780000D01*
X87630000Y-139700000D02*
X87630000Y-144780000D01*
X87376000Y-142494000D02*
X85344000Y-142494000D01*
X87376000Y-141986000D02*
X85344000Y-141986000D01*
X87630000Y-144780000D02*
X85090000Y-144780000D01*
X87630000Y-139700000D02*
X85090000Y-139700000D01*
X91694000Y-141986000D02*
X92202000Y-142494000D01*
X92202000Y-142494000D02*
X92710000Y-141986000D01*
X91694000Y-141986000D02*
X91186000Y-142494000D01*
X91186000Y-142494000D02*
X90678000Y-141986000D01*
X90678000Y-141986000D02*
X90170000Y-142494000D01*
X90170000Y-139700000D02*
X90170000Y-144780000D01*
X92710000Y-139700000D02*
X92710000Y-144780000D01*
X92710000Y-144780000D02*
X90170000Y-144780000D01*
X92710000Y-139700000D02*
X90170000Y-139700000D01*
X96266000Y-142494000D02*
X95758000Y-141986000D01*
X95758000Y-141986000D02*
X95250000Y-142494000D01*
X96266000Y-142494000D02*
X96774000Y-141986000D01*
X96774000Y-141986000D02*
X97282000Y-142494000D01*
X97282000Y-142494000D02*
X97790000Y-141986000D01*
X97790000Y-144780000D02*
X97790000Y-139700000D01*
X95250000Y-144780000D02*
X95250000Y-139700000D01*
X95250000Y-139700000D02*
X97790000Y-139700000D01*
X95250000Y-144780000D02*
X97790000Y-144780000D01*
X102870000Y-111760000D02*
X100330000Y-111760000D01*
X102870000Y-116840000D02*
X100330000Y-116840000D01*
X102870000Y-111760000D02*
X102870000Y-116840000D01*
X100330000Y-111760000D02*
X100330000Y-116840000D01*
X100838000Y-114046000D02*
X100330000Y-114554000D01*
X101346000Y-114554000D02*
X100838000Y-114046000D01*
X101854000Y-114046000D02*
X101346000Y-114554000D01*
X102362000Y-114554000D02*
X102870000Y-114046000D01*
X101854000Y-114046000D02*
X102362000Y-114554000D01*
X108204000Y-119634000D02*
X107696000Y-120142000D01*
X107696000Y-120142000D02*
X108204000Y-120650000D01*
X108204000Y-119634000D02*
X107696000Y-119126000D01*
X107696000Y-119126000D02*
X108204000Y-118618000D01*
X108204000Y-118618000D02*
X107696000Y-118110000D01*
X110490000Y-118110000D02*
X105410000Y-118110000D01*
X110490000Y-120650000D02*
X105410000Y-120650000D01*
X105410000Y-120650000D02*
X105410000Y-118110000D01*
X110490000Y-120650000D02*
X110490000Y-118110000D01*
X87884000Y-124714000D02*
X87376000Y-125222000D01*
X87376000Y-125222000D02*
X87884000Y-125730000D01*
X87884000Y-124714000D02*
X87376000Y-124206000D01*
X87376000Y-124206000D02*
X87884000Y-123698000D01*
X87884000Y-123698000D02*
X87376000Y-123190000D01*
X90170000Y-123190000D02*
X85090000Y-123190000D01*
X90170000Y-125730000D02*
X85090000Y-125730000D01*
X85090000Y-125730000D02*
X85090000Y-123190000D01*
X90170000Y-125730000D02*
X90170000Y-123190000D01*
X83820000Y-125730000D02*
X83820000Y-123190000D01*
X78740000Y-125730000D02*
X78740000Y-123190000D01*
X83820000Y-125730000D02*
X78740000Y-125730000D01*
X83820000Y-123190000D02*
X78740000Y-123190000D01*
X81534000Y-123698000D02*
X81026000Y-123190000D01*
X81026000Y-124206000D02*
X81534000Y-123698000D01*
X81534000Y-124714000D02*
X81026000Y-124206000D01*
X81026000Y-125222000D02*
X81534000Y-125730000D01*
X81534000Y-124714000D02*
X81026000Y-125222000D01*
X82296000Y-126365000D02*
X82296000Y-131445000D01*
X90424000Y-131445000D02*
X82296000Y-131445000D01*
X90424000Y-126365000D02*
X90424000Y-131445000D01*
X82296000Y-126365000D02*
X90424000Y-126365000D01*
X85344000Y-126365000D02*
G75*
G03*
X87376000Y-126365000I1016000J0D01*
G01*
X100330000Y-129540000D02*
X100330000Y-124460000D01*
X97790000Y-129540000D02*
X97790000Y-124460000D01*
X98044000Y-126746000D02*
X100076000Y-126746000D01*
X98044000Y-127254000D02*
X100076000Y-127254000D01*
X97790000Y-124460000D02*
X100330000Y-124460000D01*
X97790000Y-129540000D02*
X100330000Y-129540000D01*
X87630000Y-111760000D02*
X87630000Y-116840000D01*
X90170000Y-111760000D02*
X90170000Y-116840000D01*
X89916000Y-114554000D02*
X87884000Y-114554000D01*
X89916000Y-114046000D02*
X87884000Y-114046000D01*
X90170000Y-116840000D02*
X87630000Y-116840000D01*
X90170000Y-111760000D02*
X87630000Y-111760000D01*
X91440000Y-129540000D02*
X91440000Y-132080000D01*
X96520000Y-129540000D02*
X96520000Y-132080000D01*
X91440000Y-129540000D02*
X96520000Y-129540000D01*
X91440000Y-132080000D02*
X96520000Y-132080000D01*
X93726000Y-131572000D02*
X94234000Y-132080000D01*
X94234000Y-131064000D02*
X93726000Y-131572000D01*
X93726000Y-130556000D02*
X94234000Y-131064000D01*
X94234000Y-130048000D02*
X93726000Y-129540000D01*
X93726000Y-130556000D02*
X94234000Y-130048000D01*
X98806000Y-114554000D02*
X98298000Y-114046000D01*
X98298000Y-114046000D02*
X97790000Y-114554000D01*
X98806000Y-114554000D02*
X99314000Y-114046000D01*
X99314000Y-114046000D02*
X99822000Y-114554000D01*
X99822000Y-114554000D02*
X100330000Y-114046000D01*
X100330000Y-116840000D02*
X100330000Y-111760000D01*
X97790000Y-116840000D02*
X97790000Y-111760000D01*
X97790000Y-111760000D02*
X100330000Y-111760000D01*
X97790000Y-116840000D02*
X100330000Y-116840000D01*
X93726000Y-114554000D02*
X93218000Y-114046000D01*
X93218000Y-114046000D02*
X92710000Y-114554000D01*
X93726000Y-114554000D02*
X94234000Y-114046000D01*
X94234000Y-114046000D02*
X94742000Y-114554000D01*
X94742000Y-114554000D02*
X95250000Y-114046000D01*
X95250000Y-116840000D02*
X95250000Y-111760000D01*
X92710000Y-116840000D02*
X92710000Y-111760000D01*
X92710000Y-111760000D02*
X95250000Y-111760000D01*
X92710000Y-116840000D02*
X95250000Y-116840000D01*
X120904000Y-104140000D02*
X122174000Y-104140000D01*
X119126000Y-104140000D02*
X120396000Y-104140000D01*
G36*
X115570000Y-102235000D02*
G01*
X115570000Y-101600000D01*
X116205000Y-101600000D01*
X115570000Y-102235000D01*
G37*
X115570000Y-102235000D02*
X115570000Y-101600000D01*
X116205000Y-101600000D01*
X115570000Y-102235000D01*
G36*
X116205000Y-106680000D02*
G01*
X115570000Y-106680000D01*
X115570000Y-106045000D01*
X116205000Y-106680000D01*
G37*
X116205000Y-106680000D02*
X115570000Y-106680000D01*
X115570000Y-106045000D01*
X116205000Y-106680000D01*
X115570000Y-101600000D02*
X115570000Y-106680000D01*
X120396000Y-101854000D02*
X120396000Y-106426000D01*
X120904000Y-101854000D02*
X120904000Y-106426000D01*
X125730000Y-101600000D02*
X125730000Y-106680000D01*
X115570000Y-101600000D02*
X125730000Y-101600000D01*
X115570000Y-106680000D02*
X125730000Y-106680000D01*
X118110000Y-110490000D02*
X123190000Y-110490000D01*
X118110000Y-107950000D02*
X123190000Y-107950000D01*
X120904000Y-108204000D02*
X120904000Y-110236000D01*
X120396000Y-108204000D02*
X120396000Y-110236000D01*
X123190000Y-107950000D02*
X123190000Y-110490000D01*
X118110000Y-107950000D02*
X118110000Y-110490000D01*
X89916000Y-104140000D02*
X88646000Y-104140000D01*
X91694000Y-104140000D02*
X90424000Y-104140000D01*
G36*
X95250000Y-106045000D02*
G01*
X95250000Y-106680000D01*
X94615000Y-106680000D01*
X95250000Y-106045000D01*
G37*
X95250000Y-106045000D02*
X95250000Y-106680000D01*
X94615000Y-106680000D01*
X95250000Y-106045000D01*
G36*
X94615000Y-101600000D02*
G01*
X95250000Y-101600000D01*
X95250000Y-102235000D01*
X94615000Y-101600000D01*
G37*
X94615000Y-101600000D02*
X95250000Y-101600000D01*
X95250000Y-102235000D01*
X94615000Y-101600000D01*
X95250000Y-106680000D02*
X95250000Y-101600000D01*
X90424000Y-106426000D02*
X90424000Y-101854000D01*
X89916000Y-106426000D02*
X89916000Y-101854000D01*
X85090000Y-106680000D02*
X85090000Y-101600000D01*
X95250000Y-106680000D02*
X85090000Y-106680000D01*
X95250000Y-101600000D02*
X85090000Y-101600000D01*
X107696000Y-111506000D02*
X108204000Y-110998000D01*
X108204000Y-110998000D02*
X107696000Y-110490000D01*
X107696000Y-111506000D02*
X108204000Y-112014000D01*
X108204000Y-112014000D02*
X107696000Y-112522000D01*
X107696000Y-112522000D02*
X108204000Y-113030000D01*
X105410000Y-113030000D02*
X110490000Y-113030000D01*
X105410000Y-110490000D02*
X110490000Y-110490000D01*
X110490000Y-110490000D02*
X110490000Y-113030000D01*
X105410000Y-110490000D02*
X105410000Y-113030000D01*
X108204000Y-114554000D02*
X107696000Y-115062000D01*
X107696000Y-115062000D02*
X108204000Y-115570000D01*
X108204000Y-114554000D02*
X107696000Y-114046000D01*
X107696000Y-114046000D02*
X108204000Y-113538000D01*
X108204000Y-113538000D02*
X107696000Y-113030000D01*
X110490000Y-113030000D02*
X105410000Y-113030000D01*
X110490000Y-115570000D02*
X105410000Y-115570000D01*
X105410000Y-115570000D02*
X105410000Y-113030000D01*
X110490000Y-115570000D02*
X110490000Y-113030000D01*
X109220000Y-153670000D02*
X109220000Y-158750000D01*
X111760000Y-153670000D02*
X111760000Y-158750000D01*
X111506000Y-156464000D02*
X109474000Y-156464000D01*
X111506000Y-155956000D02*
X109474000Y-155956000D01*
X111760000Y-158750000D02*
X109220000Y-158750000D01*
X111760000Y-153670000D02*
X109220000Y-153670000D01*
X114300000Y-162560000D02*
X119380000Y-162560000D01*
X114300000Y-160020000D02*
X119380000Y-160020000D01*
X117094000Y-160274000D02*
X117094000Y-162306000D01*
X116586000Y-160274000D02*
X116586000Y-162306000D01*
X119380000Y-160020000D02*
X119380000Y-162560000D01*
X114300000Y-160020000D02*
X114300000Y-162560000D01*
X116586000Y-155956000D02*
X117094000Y-155448000D01*
X117094000Y-155448000D02*
X116586000Y-154940000D01*
X116586000Y-155956000D02*
X117094000Y-156464000D01*
X117094000Y-156464000D02*
X116586000Y-156972000D01*
X116586000Y-156972000D02*
X117094000Y-157480000D01*
X114300000Y-157480000D02*
X119380000Y-157480000D01*
X114300000Y-154940000D02*
X119380000Y-154940000D01*
X119380000Y-154940000D02*
X119380000Y-157480000D01*
X114300000Y-154940000D02*
X114300000Y-157480000D01*
X116586000Y-158496000D02*
X117094000Y-157988000D01*
X117094000Y-157988000D02*
X116586000Y-157480000D01*
X116586000Y-158496000D02*
X117094000Y-159004000D01*
X117094000Y-159004000D02*
X116586000Y-159512000D01*
X116586000Y-159512000D02*
X117094000Y-160020000D01*
X114300000Y-160020000D02*
X119380000Y-160020000D01*
X114300000Y-157480000D02*
X119380000Y-157480000D01*
X119380000Y-157480000D02*
X119380000Y-160020000D01*
X114300000Y-157480000D02*
X114300000Y-160020000D01*
X117856000Y-190754000D02*
X117348000Y-190246000D01*
X117348000Y-190246000D02*
X116840000Y-190754000D01*
X117856000Y-190754000D02*
X118364000Y-190246000D01*
X118364000Y-190246000D02*
X118872000Y-190754000D01*
X118872000Y-190754000D02*
X119380000Y-190246000D01*
X119380000Y-193040000D02*
X119380000Y-187960000D01*
X116840000Y-193040000D02*
X116840000Y-187960000D01*
X116840000Y-187960000D02*
X119380000Y-187960000D01*
X116840000Y-193040000D02*
X119380000Y-193040000D01*
X92964000Y-190246000D02*
X93472000Y-190754000D01*
X93472000Y-190754000D02*
X93980000Y-190246000D01*
X92964000Y-190246000D02*
X92456000Y-190754000D01*
X92456000Y-190754000D02*
X91948000Y-190246000D01*
X91948000Y-190246000D02*
X91440000Y-190754000D01*
X91440000Y-187960000D02*
X91440000Y-193040000D01*
X93980000Y-187960000D02*
X93980000Y-193040000D01*
X93980000Y-193040000D02*
X91440000Y-193040000D01*
X93980000Y-187960000D02*
X91440000Y-187960000D01*
X84074000Y-141986000D02*
X84582000Y-142494000D01*
X84582000Y-142494000D02*
X85090000Y-141986000D01*
X84074000Y-141986000D02*
X83566000Y-142494000D01*
X83566000Y-142494000D02*
X83058000Y-141986000D01*
X83058000Y-141986000D02*
X82550000Y-142494000D01*
X82550000Y-139700000D02*
X82550000Y-144780000D01*
X85090000Y-139700000D02*
X85090000Y-144780000D01*
X85090000Y-144780000D02*
X82550000Y-144780000D01*
X85090000Y-139700000D02*
X82550000Y-139700000D01*
X94234000Y-136144000D02*
X93726000Y-136652000D01*
X93726000Y-136652000D02*
X94234000Y-137160000D01*
X94234000Y-136144000D02*
X93726000Y-135636000D01*
X93726000Y-135636000D02*
X94234000Y-135128000D01*
X94234000Y-135128000D02*
X93726000Y-134620000D01*
X96520000Y-134620000D02*
X91440000Y-134620000D01*
X96520000Y-137160000D02*
X91440000Y-137160000D01*
X91440000Y-137160000D02*
X91440000Y-134620000D01*
X96520000Y-137160000D02*
X96520000Y-134620000D01*
X94234000Y-133604000D02*
X93726000Y-134112000D01*
X93726000Y-134112000D02*
X94234000Y-134620000D01*
X94234000Y-133604000D02*
X93726000Y-133096000D01*
X93726000Y-133096000D02*
X94234000Y-132588000D01*
X94234000Y-132588000D02*
X93726000Y-132080000D01*
X96520000Y-132080000D02*
X91440000Y-132080000D01*
X96520000Y-134620000D02*
X91440000Y-134620000D01*
X91440000Y-134620000D02*
X91440000Y-132080000D01*
X96520000Y-134620000D02*
X96520000Y-132080000D01*
X123190000Y-97790000D02*
G75*
G03*
X123190000Y-97790000I-2540000J0D01*
G01*
G36*
X118110000Y-97790000D02*
G01*
X118237000Y-97028000D01*
X118999000Y-95885000D01*
X120650000Y-95250000D01*
X122301000Y-95885000D01*
X123063000Y-97028000D01*
X123190000Y-97790000D01*
X118110000Y-97790000D01*
G37*
X118110000Y-97790000D02*
X118237000Y-97028000D01*
X118999000Y-95885000D01*
X120650000Y-95250000D01*
X122301000Y-95885000D01*
X123063000Y-97028000D01*
X123190000Y-97790000D01*
X118110000Y-97790000D01*
X92710000Y-97790000D02*
G75*
G03*
X92710000Y-97790000I-2540000J0D01*
G01*
G36*
X87630000Y-97790000D02*
G01*
X87757000Y-97028000D01*
X88519000Y-95885000D01*
X90170000Y-95250000D01*
X91821000Y-95885000D01*
X92583000Y-97028000D01*
X92710000Y-97790000D01*
X87630000Y-97790000D01*
G37*
X87630000Y-97790000D02*
X87757000Y-97028000D01*
X88519000Y-95885000D01*
X90170000Y-95250000D01*
X91821000Y-95885000D01*
X92583000Y-97028000D01*
X92710000Y-97790000D01*
X87630000Y-97790000D01*
X125476000Y-162306000D02*
X125984000Y-161798000D01*
X125984000Y-161798000D02*
X125476000Y-161290000D01*
X125476000Y-162306000D02*
X125984000Y-162814000D01*
X125984000Y-162814000D02*
X125476000Y-163322000D01*
X125476000Y-163322000D02*
X125984000Y-163830000D01*
X123190000Y-163830000D02*
X128270000Y-163830000D01*
X123190000Y-161290000D02*
X128270000Y-161290000D01*
X128270000Y-161290000D02*
X128270000Y-163830000D01*
X123190000Y-161290000D02*
X123190000Y-163830000D01*
X84836000Y-162306000D02*
X85344000Y-161798000D01*
X85344000Y-161798000D02*
X84836000Y-161290000D01*
X84836000Y-162306000D02*
X85344000Y-162814000D01*
X85344000Y-162814000D02*
X84836000Y-163322000D01*
X84836000Y-163322000D02*
X85344000Y-163830000D01*
X82550000Y-163830000D02*
X87630000Y-163830000D01*
X82550000Y-161290000D02*
X87630000Y-161290000D01*
X87630000Y-161290000D02*
X87630000Y-163830000D01*
X82550000Y-161290000D02*
X82550000Y-163830000D01*
X91694000Y-114046000D02*
X92202000Y-114554000D01*
X92202000Y-114554000D02*
X92710000Y-114046000D01*
X91694000Y-114046000D02*
X91186000Y-114554000D01*
X91186000Y-114554000D02*
X90678000Y-114046000D01*
X90678000Y-114046000D02*
X90170000Y-114554000D01*
X90170000Y-111760000D02*
X90170000Y-116840000D01*
X92710000Y-111760000D02*
X92710000Y-116840000D01*
X92710000Y-116840000D02*
X90170000Y-116840000D01*
X92710000Y-111760000D02*
X90170000Y-111760000D01*
X86614000Y-114046000D02*
X87122000Y-114554000D01*
X87122000Y-114554000D02*
X87630000Y-114046000D01*
X86614000Y-114046000D02*
X86106000Y-114554000D01*
X86106000Y-114554000D02*
X85598000Y-114046000D01*
X85598000Y-114046000D02*
X85090000Y-114554000D01*
X85090000Y-111760000D02*
X85090000Y-116840000D01*
X87630000Y-111760000D02*
X87630000Y-116840000D01*
X87630000Y-116840000D02*
X85090000Y-116840000D01*
X87630000Y-111760000D02*
X85090000Y-111760000D01*
X113538000Y-107823000D02*
X112522000Y-107823000D01*
X112522000Y-106807000D02*
X113030000Y-107823000D01*
X113538000Y-106807000D02*
X113030000Y-107823000D01*
X113538000Y-106807000D02*
X112522000Y-106807000D01*
X114300000Y-113030000D02*
X111760000Y-113030000D01*
X114300000Y-101600000D02*
X111760000Y-101600000D01*
X111760000Y-101600000D02*
X111760000Y-113030000D01*
X114300000Y-101600000D02*
X114300000Y-113030000D01*
X114300000Y-110490000D02*
X111760000Y-110490000D01*
X100602857Y-168997380D02*
X101269523Y-169997380D01*
X101269523Y-168997380D02*
X100602857Y-169997380D01*
X101602857Y-169949761D02*
X101745714Y-169997380D01*
X101983809Y-169997380D01*
X102079047Y-169949761D01*
X102126666Y-169902142D01*
X102174285Y-169806904D01*
X102174285Y-169711666D01*
X102126666Y-169616428D01*
X102079047Y-169568809D01*
X101983809Y-169521190D01*
X101793333Y-169473571D01*
X101698095Y-169425952D01*
X101650476Y-169378333D01*
X101602857Y-169283095D01*
X101602857Y-169187857D01*
X101650476Y-169092619D01*
X101698095Y-169045000D01*
X101793333Y-168997380D01*
X102031428Y-168997380D01*
X102174285Y-169045000D01*
X102507619Y-168997380D02*
X103126666Y-168997380D01*
X102793333Y-169378333D01*
X102936190Y-169378333D01*
X103031428Y-169425952D01*
X103079047Y-169473571D01*
X103126666Y-169568809D01*
X103126666Y-169806904D01*
X103079047Y-169902142D01*
X103031428Y-169949761D01*
X102936190Y-169997380D01*
X102650476Y-169997380D01*
X102555238Y-169949761D01*
X102507619Y-169902142D01*
X107645714Y-168997380D02*
X108312380Y-169997380D01*
X108312380Y-168997380D02*
X107645714Y-169997380D01*
X108645714Y-169949761D02*
X108788571Y-169997380D01*
X109026666Y-169997380D01*
X109121904Y-169949761D01*
X109169523Y-169902142D01*
X109217142Y-169806904D01*
X109217142Y-169711666D01*
X109169523Y-169616428D01*
X109121904Y-169568809D01*
X109026666Y-169521190D01*
X108836190Y-169473571D01*
X108740952Y-169425952D01*
X108693333Y-169378333D01*
X108645714Y-169283095D01*
X108645714Y-169187857D01*
X108693333Y-169092619D01*
X108740952Y-169045000D01*
X108836190Y-168997380D01*
X109074285Y-168997380D01*
X109217142Y-169045000D01*
X109598095Y-169092619D02*
X109645714Y-169045000D01*
X109740952Y-168997380D01*
X109979047Y-168997380D01*
X110074285Y-169045000D01*
X110121904Y-169092619D01*
X110169523Y-169187857D01*
X110169523Y-169283095D01*
X110121904Y-169425952D01*
X109550476Y-169997380D01*
X110169523Y-169997380D01*
X80557619Y-102343452D02*
X80557619Y-102914880D01*
X79557619Y-102629166D02*
X80557619Y-102629166D01*
X79557619Y-103248214D02*
X80557619Y-103248214D01*
X80557619Y-103629166D01*
X80510000Y-103724404D01*
X80462380Y-103772023D01*
X80367142Y-103819642D01*
X80224285Y-103819642D01*
X80129047Y-103772023D01*
X80081428Y-103724404D01*
X80033809Y-103629166D01*
X80033809Y-103248214D01*
X80557619Y-104152976D02*
X80557619Y-104772023D01*
X80176666Y-104438690D01*
X80176666Y-104581547D01*
X80129047Y-104676785D01*
X80081428Y-104724404D01*
X79986190Y-104772023D01*
X79748095Y-104772023D01*
X79652857Y-104724404D01*
X79605238Y-104676785D01*
X79557619Y-104581547D01*
X79557619Y-104295833D01*
X79605238Y-104200595D01*
X79652857Y-104152976D01*
X78335119Y-108775714D02*
X77335119Y-109109047D01*
X78335119Y-109442380D01*
X77335119Y-110347142D02*
X77811309Y-110013809D01*
X77335119Y-109775714D02*
X78335119Y-109775714D01*
X78335119Y-110156666D01*
X78287500Y-110251904D01*
X78239880Y-110299523D01*
X78144642Y-110347142D01*
X78001785Y-110347142D01*
X77906547Y-110299523D01*
X77858928Y-110251904D01*
X77811309Y-110156666D01*
X77811309Y-109775714D01*
X77858928Y-110775714D02*
X77858928Y-111109047D01*
X77335119Y-111251904D02*
X77335119Y-110775714D01*
X78335119Y-110775714D01*
X78335119Y-111251904D01*
X77858928Y-112013809D02*
X77858928Y-111680476D01*
X77335119Y-111680476D02*
X78335119Y-111680476D01*
X78335119Y-112156666D01*
X83097619Y-113572738D02*
X83097619Y-114144166D01*
X82097619Y-113858452D02*
X83097619Y-113858452D01*
X82097619Y-114477500D02*
X83097619Y-114477500D01*
X83097619Y-114858452D01*
X83050000Y-114953690D01*
X83002380Y-115001309D01*
X82907142Y-115048928D01*
X82764285Y-115048928D01*
X82669047Y-115001309D01*
X82621428Y-114953690D01*
X82573809Y-114858452D01*
X82573809Y-114477500D01*
X82097619Y-116001309D02*
X82097619Y-115429880D01*
X82097619Y-115715595D02*
X83097619Y-115715595D01*
X82954761Y-115620357D01*
X82859523Y-115525119D01*
X82811904Y-115429880D01*
X82097619Y-116953690D02*
X82097619Y-116382261D01*
X82097619Y-116667976D02*
X83097619Y-116667976D01*
X82954761Y-116572738D01*
X82859523Y-116477500D01*
X82811904Y-116382261D01*
X83097619Y-101788214D02*
X83097619Y-101978690D01*
X83050000Y-102073928D01*
X82954761Y-102169166D01*
X82764285Y-102216785D01*
X82430952Y-102216785D01*
X82240476Y-102169166D01*
X82145238Y-102073928D01*
X82097619Y-101978690D01*
X82097619Y-101788214D01*
X82145238Y-101692976D01*
X82240476Y-101597738D01*
X82430952Y-101550119D01*
X82764285Y-101550119D01*
X82954761Y-101597738D01*
X83050000Y-101692976D01*
X83097619Y-101788214D01*
X82621428Y-102978690D02*
X82573809Y-103121547D01*
X82526190Y-103169166D01*
X82430952Y-103216785D01*
X82288095Y-103216785D01*
X82192857Y-103169166D01*
X82145238Y-103121547D01*
X82097619Y-103026309D01*
X82097619Y-102645357D01*
X83097619Y-102645357D01*
X83097619Y-102978690D01*
X83050000Y-103073928D01*
X83002380Y-103121547D01*
X82907142Y-103169166D01*
X82811904Y-103169166D01*
X82716666Y-103121547D01*
X82669047Y-103073928D01*
X82621428Y-102978690D01*
X82621428Y-102645357D01*
X82478571Y-103645357D02*
X82478571Y-104407261D01*
X83097619Y-105073928D02*
X83097619Y-105264404D01*
X83050000Y-105359642D01*
X82954761Y-105454880D01*
X82764285Y-105502500D01*
X82430952Y-105502500D01*
X82240476Y-105454880D01*
X82145238Y-105359642D01*
X82097619Y-105264404D01*
X82097619Y-105073928D01*
X82145238Y-104978690D01*
X82240476Y-104883452D01*
X82430952Y-104835833D01*
X82764285Y-104835833D01*
X82954761Y-104883452D01*
X83050000Y-104978690D01*
X83097619Y-105073928D01*
X83097619Y-105931071D02*
X82288095Y-105931071D01*
X82192857Y-105978690D01*
X82145238Y-106026309D01*
X82097619Y-106121547D01*
X82097619Y-106312023D01*
X82145238Y-106407261D01*
X82192857Y-106454880D01*
X82288095Y-106502500D01*
X83097619Y-106502500D01*
X83097619Y-106835833D02*
X83097619Y-107407261D01*
X82097619Y-107121547D02*
X83097619Y-107121547D01*
X128039880Y-109211904D02*
X128039880Y-108640476D01*
X129039880Y-108926190D02*
X128039880Y-108926190D01*
X129039880Y-108307142D02*
X128039880Y-108307142D01*
X128039880Y-107926190D01*
X128087500Y-107830952D01*
X128135119Y-107783333D01*
X128230357Y-107735714D01*
X128373214Y-107735714D01*
X128468452Y-107783333D01*
X128516071Y-107830952D01*
X128563690Y-107926190D01*
X128563690Y-108307142D01*
X128039880Y-107402380D02*
X128039880Y-106735714D01*
X129039880Y-107164285D01*
X133389642Y-109232976D02*
X133437261Y-109280595D01*
X133484880Y-109423452D01*
X133484880Y-109518690D01*
X133437261Y-109661547D01*
X133342023Y-109756785D01*
X133246785Y-109804404D01*
X133056309Y-109852023D01*
X132913452Y-109852023D01*
X132722976Y-109804404D01*
X132627738Y-109756785D01*
X132532500Y-109661547D01*
X132484880Y-109518690D01*
X132484880Y-109423452D01*
X132532500Y-109280595D01*
X132580119Y-109232976D01*
X132484880Y-108804404D02*
X133294404Y-108804404D01*
X133389642Y-108756785D01*
X133437261Y-108709166D01*
X133484880Y-108613928D01*
X133484880Y-108423452D01*
X133437261Y-108328214D01*
X133389642Y-108280595D01*
X133294404Y-108232976D01*
X132484880Y-108232976D01*
X132484880Y-107899642D02*
X132484880Y-107328214D01*
X133484880Y-107613928D02*
X132484880Y-107613928D01*
X133103928Y-106994880D02*
X133103928Y-106232976D01*
X133484880Y-105185357D02*
X133008690Y-105518690D01*
X133484880Y-105756785D02*
X132484880Y-105756785D01*
X132484880Y-105375833D01*
X132532500Y-105280595D01*
X132580119Y-105232976D01*
X132675357Y-105185357D01*
X132818214Y-105185357D01*
X132913452Y-105232976D01*
X132961071Y-105280595D01*
X133008690Y-105375833D01*
X133008690Y-105756785D01*
X133199166Y-104804404D02*
X133199166Y-104328214D01*
X133484880Y-104899642D02*
X132484880Y-104566309D01*
X133484880Y-104232976D01*
X133484880Y-103899642D02*
X132484880Y-103899642D01*
X133484880Y-102947261D02*
X133484880Y-103423452D01*
X132484880Y-103423452D01*
X128039880Y-114291904D02*
X128039880Y-113720476D01*
X129039880Y-114006190D02*
X128039880Y-114006190D01*
X129039880Y-113387142D02*
X128039880Y-113387142D01*
X128039880Y-113006190D01*
X128087500Y-112910952D01*
X128135119Y-112863333D01*
X128230357Y-112815714D01*
X128373214Y-112815714D01*
X128468452Y-112863333D01*
X128516071Y-112910952D01*
X128563690Y-113006190D01*
X128563690Y-113387142D01*
X128468452Y-112244285D02*
X128420833Y-112339523D01*
X128373214Y-112387142D01*
X128277976Y-112434761D01*
X128230357Y-112434761D01*
X128135119Y-112387142D01*
X128087500Y-112339523D01*
X128039880Y-112244285D01*
X128039880Y-112053809D01*
X128087500Y-111958571D01*
X128135119Y-111910952D01*
X128230357Y-111863333D01*
X128277976Y-111863333D01*
X128373214Y-111910952D01*
X128420833Y-111958571D01*
X128468452Y-112053809D01*
X128468452Y-112244285D01*
X128516071Y-112339523D01*
X128563690Y-112387142D01*
X128658928Y-112434761D01*
X128849404Y-112434761D01*
X128944642Y-112387142D01*
X128992261Y-112339523D01*
X129039880Y-112244285D01*
X129039880Y-112053809D01*
X128992261Y-111958571D01*
X128944642Y-111910952D01*
X128849404Y-111863333D01*
X128658928Y-111863333D01*
X128563690Y-111910952D01*
X128516071Y-111958571D01*
X128468452Y-112053809D01*
X132961071Y-119556547D02*
X133008690Y-119413690D01*
X133056309Y-119366071D01*
X133151547Y-119318452D01*
X133294404Y-119318452D01*
X133389642Y-119366071D01*
X133437261Y-119413690D01*
X133484880Y-119508928D01*
X133484880Y-119889880D01*
X132484880Y-119889880D01*
X132484880Y-119556547D01*
X132532500Y-119461309D01*
X132580119Y-119413690D01*
X132675357Y-119366071D01*
X132770595Y-119366071D01*
X132865833Y-119413690D01*
X132913452Y-119461309D01*
X132961071Y-119556547D01*
X132961071Y-119889880D01*
X132484880Y-118699404D02*
X132484880Y-118508928D01*
X132532500Y-118413690D01*
X132627738Y-118318452D01*
X132818214Y-118270833D01*
X133151547Y-118270833D01*
X133342023Y-118318452D01*
X133437261Y-118413690D01*
X133484880Y-118508928D01*
X133484880Y-118699404D01*
X133437261Y-118794642D01*
X133342023Y-118889880D01*
X133151547Y-118937500D01*
X132818214Y-118937500D01*
X132627738Y-118889880D01*
X132532500Y-118794642D01*
X132484880Y-118699404D01*
X132484880Y-117651785D02*
X132484880Y-117461309D01*
X132532500Y-117366071D01*
X132627738Y-117270833D01*
X132818214Y-117223214D01*
X133151547Y-117223214D01*
X133342023Y-117270833D01*
X133437261Y-117366071D01*
X133484880Y-117461309D01*
X133484880Y-117651785D01*
X133437261Y-117747023D01*
X133342023Y-117842261D01*
X133151547Y-117889880D01*
X132818214Y-117889880D01*
X132627738Y-117842261D01*
X132532500Y-117747023D01*
X132484880Y-117651785D01*
X133437261Y-116842261D02*
X133484880Y-116699404D01*
X133484880Y-116461309D01*
X133437261Y-116366071D01*
X133389642Y-116318452D01*
X133294404Y-116270833D01*
X133199166Y-116270833D01*
X133103928Y-116318452D01*
X133056309Y-116366071D01*
X133008690Y-116461309D01*
X132961071Y-116651785D01*
X132913452Y-116747023D01*
X132865833Y-116794642D01*
X132770595Y-116842261D01*
X132675357Y-116842261D01*
X132580119Y-116794642D01*
X132532500Y-116747023D01*
X132484880Y-116651785D01*
X132484880Y-116413690D01*
X132532500Y-116270833D01*
X132484880Y-115985119D02*
X132484880Y-115413690D01*
X133484880Y-115699404D02*
X132484880Y-115699404D01*
X133103928Y-115080357D02*
X133103928Y-114318452D01*
X133484880Y-113270833D02*
X133008690Y-113604166D01*
X133484880Y-113842261D02*
X132484880Y-113842261D01*
X132484880Y-113461309D01*
X132532500Y-113366071D01*
X132580119Y-113318452D01*
X132675357Y-113270833D01*
X132818214Y-113270833D01*
X132913452Y-113318452D01*
X132961071Y-113366071D01*
X133008690Y-113461309D01*
X133008690Y-113842261D01*
X133199166Y-112889880D02*
X133199166Y-112413690D01*
X133484880Y-112985119D02*
X132484880Y-112651785D01*
X133484880Y-112318452D01*
X133484880Y-111985119D02*
X132484880Y-111985119D01*
X133484880Y-111032738D02*
X133484880Y-111508928D01*
X132484880Y-111508928D01*
X81822738Y-133437380D02*
X82394166Y-133437380D01*
X82108452Y-134437380D02*
X82108452Y-133437380D01*
X82727500Y-134437380D02*
X82727500Y-133437380D01*
X83108452Y-133437380D01*
X83203690Y-133485000D01*
X83251309Y-133532619D01*
X83298928Y-133627857D01*
X83298928Y-133770714D01*
X83251309Y-133865952D01*
X83203690Y-133913571D01*
X83108452Y-133961190D01*
X82727500Y-133961190D01*
X84156071Y-133437380D02*
X83965595Y-133437380D01*
X83870357Y-133485000D01*
X83822738Y-133532619D01*
X83727500Y-133675476D01*
X83679880Y-133865952D01*
X83679880Y-134246904D01*
X83727500Y-134342142D01*
X83775119Y-134389761D01*
X83870357Y-134437380D01*
X84060833Y-134437380D01*
X84156071Y-134389761D01*
X84203690Y-134342142D01*
X84251309Y-134246904D01*
X84251309Y-134008809D01*
X84203690Y-133913571D01*
X84156071Y-133865952D01*
X84060833Y-133818333D01*
X83870357Y-133818333D01*
X83775119Y-133865952D01*
X83727500Y-133913571D01*
X83679880Y-134008809D01*
X77335119Y-126992380D02*
X78335119Y-126992380D01*
X77858928Y-127801904D02*
X77811309Y-127944761D01*
X77763690Y-127992380D01*
X77668452Y-128040000D01*
X77525595Y-128040000D01*
X77430357Y-127992380D01*
X77382738Y-127944761D01*
X77335119Y-127849523D01*
X77335119Y-127468571D01*
X78335119Y-127468571D01*
X78335119Y-127801904D01*
X78287500Y-127897142D01*
X78239880Y-127944761D01*
X78144642Y-127992380D01*
X78049404Y-127992380D01*
X77954166Y-127944761D01*
X77906547Y-127897142D01*
X77858928Y-127801904D01*
X77858928Y-127468571D01*
X77716071Y-128468571D02*
X77716071Y-129230476D01*
X78335119Y-129897142D02*
X78335119Y-130087619D01*
X78287500Y-130182857D01*
X78192261Y-130278095D01*
X78001785Y-130325714D01*
X77668452Y-130325714D01*
X77477976Y-130278095D01*
X77382738Y-130182857D01*
X77335119Y-130087619D01*
X77335119Y-129897142D01*
X77382738Y-129801904D01*
X77477976Y-129706666D01*
X77668452Y-129659047D01*
X78001785Y-129659047D01*
X78192261Y-129706666D01*
X78287500Y-129801904D01*
X78335119Y-129897142D01*
X78335119Y-130754285D02*
X77525595Y-130754285D01*
X77430357Y-130801904D01*
X77382738Y-130849523D01*
X77335119Y-130944761D01*
X77335119Y-131135238D01*
X77382738Y-131230476D01*
X77430357Y-131278095D01*
X77525595Y-131325714D01*
X78335119Y-131325714D01*
X78335119Y-131659047D02*
X78335119Y-132230476D01*
X77335119Y-131944761D02*
X78335119Y-131944761D01*
X81822738Y-134707380D02*
X82394166Y-134707380D01*
X82108452Y-135707380D02*
X82108452Y-134707380D01*
X82727500Y-135707380D02*
X82727500Y-134707380D01*
X83108452Y-134707380D01*
X83203690Y-134755000D01*
X83251309Y-134802619D01*
X83298928Y-134897857D01*
X83298928Y-135040714D01*
X83251309Y-135135952D01*
X83203690Y-135183571D01*
X83108452Y-135231190D01*
X82727500Y-135231190D01*
X83775119Y-135707380D02*
X83965595Y-135707380D01*
X84060833Y-135659761D01*
X84108452Y-135612142D01*
X84203690Y-135469285D01*
X84251309Y-135278809D01*
X84251309Y-134897857D01*
X84203690Y-134802619D01*
X84156071Y-134755000D01*
X84060833Y-134707380D01*
X83870357Y-134707380D01*
X83775119Y-134755000D01*
X83727500Y-134802619D01*
X83679880Y-134897857D01*
X83679880Y-135135952D01*
X83727500Y-135231190D01*
X83775119Y-135278809D01*
X83870357Y-135326428D01*
X84060833Y-135326428D01*
X84156071Y-135278809D01*
X84203690Y-135231190D01*
X84251309Y-135135952D01*
X78335119Y-133413809D02*
X78335119Y-133604285D01*
X78287500Y-133699523D01*
X78192261Y-133794761D01*
X78001785Y-133842380D01*
X77668452Y-133842380D01*
X77477976Y-133794761D01*
X77382738Y-133699523D01*
X77335119Y-133604285D01*
X77335119Y-133413809D01*
X77382738Y-133318571D01*
X77477976Y-133223333D01*
X77668452Y-133175714D01*
X78001785Y-133175714D01*
X78192261Y-133223333D01*
X78287500Y-133318571D01*
X78335119Y-133413809D01*
X77858928Y-134604285D02*
X77811309Y-134747142D01*
X77763690Y-134794761D01*
X77668452Y-134842380D01*
X77525595Y-134842380D01*
X77430357Y-134794761D01*
X77382738Y-134747142D01*
X77335119Y-134651904D01*
X77335119Y-134270952D01*
X78335119Y-134270952D01*
X78335119Y-134604285D01*
X78287500Y-134699523D01*
X78239880Y-134747142D01*
X78144642Y-134794761D01*
X78049404Y-134794761D01*
X77954166Y-134747142D01*
X77906547Y-134699523D01*
X77858928Y-134604285D01*
X77858928Y-134270952D01*
X77716071Y-135270952D02*
X77716071Y-136032857D01*
X77335119Y-136509047D02*
X78335119Y-136509047D01*
X77335119Y-136985238D02*
X78335119Y-136985238D01*
X77335119Y-137556666D01*
X78335119Y-137556666D01*
X77335119Y-138032857D02*
X78335119Y-138032857D01*
X78335119Y-138413809D01*
X78287500Y-138509047D01*
X78239880Y-138556666D01*
X78144642Y-138604285D01*
X78001785Y-138604285D01*
X77906547Y-138556666D01*
X77858928Y-138509047D01*
X77811309Y-138413809D01*
X77811309Y-138032857D01*
X81822738Y-135977380D02*
X82394166Y-135977380D01*
X82108452Y-136977380D02*
X82108452Y-135977380D01*
X82727500Y-136977380D02*
X82727500Y-135977380D01*
X83108452Y-135977380D01*
X83203690Y-136025000D01*
X83251309Y-136072619D01*
X83298928Y-136167857D01*
X83298928Y-136310714D01*
X83251309Y-136405952D01*
X83203690Y-136453571D01*
X83108452Y-136501190D01*
X82727500Y-136501190D01*
X84251309Y-136977380D02*
X83679880Y-136977380D01*
X83965595Y-136977380D02*
X83965595Y-135977380D01*
X83870357Y-136120238D01*
X83775119Y-136215476D01*
X83679880Y-136263095D01*
X84870357Y-135977380D02*
X84965595Y-135977380D01*
X85060833Y-136025000D01*
X85108452Y-136072619D01*
X85156071Y-136167857D01*
X85203690Y-136358333D01*
X85203690Y-136596428D01*
X85156071Y-136786904D01*
X85108452Y-136882142D01*
X85060833Y-136929761D01*
X84965595Y-136977380D01*
X84870357Y-136977380D01*
X84775119Y-136929761D01*
X84727500Y-136882142D01*
X84679880Y-136786904D01*
X84632261Y-136596428D01*
X84632261Y-136358333D01*
X84679880Y-136167857D01*
X84727500Y-136072619D01*
X84775119Y-136025000D01*
X84870357Y-135977380D01*
X78335119Y-139941071D02*
X78335119Y-140131547D01*
X78287500Y-140226785D01*
X78192261Y-140322023D01*
X78001785Y-140369642D01*
X77668452Y-140369642D01*
X77477976Y-140322023D01*
X77382738Y-140226785D01*
X77335119Y-140131547D01*
X77335119Y-139941071D01*
X77382738Y-139845833D01*
X77477976Y-139750595D01*
X77668452Y-139702976D01*
X78001785Y-139702976D01*
X78192261Y-139750595D01*
X78287500Y-139845833D01*
X78335119Y-139941071D01*
X77858928Y-141131547D02*
X77811309Y-141274404D01*
X77763690Y-141322023D01*
X77668452Y-141369642D01*
X77525595Y-141369642D01*
X77430357Y-141322023D01*
X77382738Y-141274404D01*
X77335119Y-141179166D01*
X77335119Y-140798214D01*
X78335119Y-140798214D01*
X78335119Y-141131547D01*
X78287500Y-141226785D01*
X78239880Y-141274404D01*
X78144642Y-141322023D01*
X78049404Y-141322023D01*
X77954166Y-141274404D01*
X77906547Y-141226785D01*
X77858928Y-141131547D01*
X77858928Y-140798214D01*
X77716071Y-141798214D02*
X77716071Y-142560119D01*
X77335119Y-143036309D02*
X78335119Y-143036309D01*
X77335119Y-143512500D02*
X78335119Y-143512500D01*
X77335119Y-144083928D01*
X78335119Y-144083928D01*
X77335119Y-144560119D02*
X78335119Y-144560119D01*
X77335119Y-145131547D01*
X78335119Y-145131547D01*
X80557619Y-154731071D02*
X80557619Y-155302500D01*
X79557619Y-155016785D02*
X80557619Y-155016785D01*
X79557619Y-155635833D02*
X80557619Y-155635833D01*
X80557619Y-156016785D01*
X80510000Y-156112023D01*
X80462380Y-156159642D01*
X80367142Y-156207261D01*
X80224285Y-156207261D01*
X80129047Y-156159642D01*
X80081428Y-156112023D01*
X80033809Y-156016785D01*
X80033809Y-155635833D01*
X79557619Y-157159642D02*
X79557619Y-156588214D01*
X79557619Y-156873928D02*
X80557619Y-156873928D01*
X80414761Y-156778690D01*
X80319523Y-156683452D01*
X80271904Y-156588214D01*
X80462380Y-157540595D02*
X80510000Y-157588214D01*
X80557619Y-157683452D01*
X80557619Y-157921547D01*
X80510000Y-158016785D01*
X80462380Y-158064404D01*
X80367142Y-158112023D01*
X80271904Y-158112023D01*
X80129047Y-158064404D01*
X79557619Y-157492976D01*
X79557619Y-158112023D01*
X78335119Y-157980476D02*
X77335119Y-158313809D01*
X78335119Y-158647142D01*
X78335119Y-159170952D02*
X78335119Y-159361428D01*
X78287500Y-159456666D01*
X78192261Y-159551904D01*
X78001785Y-159599523D01*
X77668452Y-159599523D01*
X77477976Y-159551904D01*
X77382738Y-159456666D01*
X77335119Y-159361428D01*
X77335119Y-159170952D01*
X77382738Y-159075714D01*
X77477976Y-158980476D01*
X77668452Y-158932857D01*
X78001785Y-158932857D01*
X78192261Y-158980476D01*
X78287500Y-159075714D01*
X78335119Y-159170952D01*
X77335119Y-160504285D02*
X77335119Y-160028095D01*
X78335119Y-160028095D01*
X77716071Y-160837619D02*
X77716071Y-161599523D01*
X78335119Y-162266190D02*
X78335119Y-162456666D01*
X78287500Y-162551904D01*
X78192261Y-162647142D01*
X78001785Y-162694761D01*
X77668452Y-162694761D01*
X77477976Y-162647142D01*
X77382738Y-162551904D01*
X77335119Y-162456666D01*
X77335119Y-162266190D01*
X77382738Y-162170952D01*
X77477976Y-162075714D01*
X77668452Y-162028095D01*
X78001785Y-162028095D01*
X78192261Y-162075714D01*
X78287500Y-162170952D01*
X78335119Y-162266190D01*
X78335119Y-163123333D02*
X77525595Y-163123333D01*
X77430357Y-163170952D01*
X77382738Y-163218571D01*
X77335119Y-163313809D01*
X77335119Y-163504285D01*
X77382738Y-163599523D01*
X77430357Y-163647142D01*
X77525595Y-163694761D01*
X78335119Y-163694761D01*
X78335119Y-164028095D02*
X78335119Y-164599523D01*
X77335119Y-164313809D02*
X78335119Y-164313809D01*
X132484880Y-166579047D02*
X132484880Y-166007619D01*
X133484880Y-166293333D02*
X132484880Y-166293333D01*
X133484880Y-165674285D02*
X132484880Y-165674285D01*
X132484880Y-165293333D01*
X132532500Y-165198095D01*
X132580119Y-165150476D01*
X132675357Y-165102857D01*
X132818214Y-165102857D01*
X132913452Y-165150476D01*
X132961071Y-165198095D01*
X133008690Y-165293333D01*
X133008690Y-165674285D01*
X132484880Y-164198095D02*
X132484880Y-164674285D01*
X132961071Y-164721904D01*
X132913452Y-164674285D01*
X132865833Y-164579047D01*
X132865833Y-164340952D01*
X132913452Y-164245714D01*
X132961071Y-164198095D01*
X133056309Y-164150476D01*
X133294404Y-164150476D01*
X133389642Y-164198095D01*
X133437261Y-164245714D01*
X133484880Y-164340952D01*
X133484880Y-164579047D01*
X133437261Y-164674285D01*
X133389642Y-164721904D01*
X133484880Y-163170952D02*
X132484880Y-163170952D01*
X132961071Y-162361428D02*
X133008690Y-162218571D01*
X133056309Y-162170952D01*
X133151547Y-162123333D01*
X133294404Y-162123333D01*
X133389642Y-162170952D01*
X133437261Y-162218571D01*
X133484880Y-162313809D01*
X133484880Y-162694761D01*
X132484880Y-162694761D01*
X132484880Y-162361428D01*
X132532500Y-162266190D01*
X132580119Y-162218571D01*
X132675357Y-162170952D01*
X132770595Y-162170952D01*
X132865833Y-162218571D01*
X132913452Y-162266190D01*
X132961071Y-162361428D01*
X132961071Y-162694761D01*
X133103928Y-161694761D02*
X133103928Y-160932857D01*
X133484880Y-160456666D02*
X132484880Y-160456666D01*
X133484880Y-159980476D02*
X132484880Y-159980476D01*
X133484880Y-159409047D01*
X132484880Y-159409047D01*
X79541904Y-186459880D02*
X80113333Y-186459880D01*
X79827619Y-187459880D02*
X79827619Y-186459880D01*
X80446666Y-187459880D02*
X80446666Y-186459880D01*
X80827619Y-186459880D01*
X80922857Y-186507500D01*
X80970476Y-186555119D01*
X81018095Y-186650357D01*
X81018095Y-186793214D01*
X80970476Y-186888452D01*
X80922857Y-186936071D01*
X80827619Y-186983690D01*
X80446666Y-186983690D01*
X81970476Y-187459880D02*
X81399047Y-187459880D01*
X81684761Y-187459880D02*
X81684761Y-186459880D01*
X81589523Y-186602738D01*
X81494285Y-186697976D01*
X81399047Y-186745595D01*
X82303809Y-186459880D02*
X82922857Y-186459880D01*
X82589523Y-186840833D01*
X82732380Y-186840833D01*
X82827619Y-186888452D01*
X82875238Y-186936071D01*
X82922857Y-187031309D01*
X82922857Y-187269404D01*
X82875238Y-187364642D01*
X82827619Y-187412261D01*
X82732380Y-187459880D01*
X82446666Y-187459880D01*
X82351428Y-187412261D01*
X82303809Y-187364642D01*
X80280000Y-190904880D02*
X80470476Y-190904880D01*
X80565714Y-190952500D01*
X80660952Y-191047738D01*
X80708571Y-191238214D01*
X80708571Y-191571547D01*
X80660952Y-191762023D01*
X80565714Y-191857261D01*
X80470476Y-191904880D01*
X80280000Y-191904880D01*
X80184761Y-191857261D01*
X80089523Y-191762023D01*
X80041904Y-191571547D01*
X80041904Y-191238214D01*
X80089523Y-191047738D01*
X80184761Y-190952500D01*
X80280000Y-190904880D01*
X81137142Y-190904880D02*
X81137142Y-191714404D01*
X81184761Y-191809642D01*
X81232380Y-191857261D01*
X81327619Y-191904880D01*
X81518095Y-191904880D01*
X81613333Y-191857261D01*
X81660952Y-191809642D01*
X81708571Y-191714404D01*
X81708571Y-190904880D01*
X82041904Y-190904880D02*
X82613333Y-190904880D01*
X82327619Y-191904880D02*
X82327619Y-190904880D01*
X128278095Y-186459880D02*
X128849523Y-186459880D01*
X128563809Y-187459880D02*
X128563809Y-186459880D01*
X129182857Y-187459880D02*
X129182857Y-186459880D01*
X129563809Y-186459880D01*
X129659047Y-186507500D01*
X129706666Y-186555119D01*
X129754285Y-186650357D01*
X129754285Y-186793214D01*
X129706666Y-186888452D01*
X129659047Y-186936071D01*
X129563809Y-186983690D01*
X129182857Y-186983690D01*
X130611428Y-186793214D02*
X130611428Y-187459880D01*
X130373333Y-186412261D02*
X130135238Y-187126547D01*
X130754285Y-187126547D01*
X129016190Y-191904880D02*
X129016190Y-190904880D01*
X129492380Y-191904880D02*
X129492380Y-190904880D01*
X130063809Y-191904880D01*
X130063809Y-190904880D01*
X119388095Y-195349880D02*
X119959523Y-195349880D01*
X119673809Y-196349880D02*
X119673809Y-195349880D01*
X120292857Y-196349880D02*
X120292857Y-195349880D01*
X120673809Y-195349880D01*
X120769047Y-195397500D01*
X120816666Y-195445119D01*
X120864285Y-195540357D01*
X120864285Y-195683214D01*
X120816666Y-195778452D01*
X120769047Y-195826071D01*
X120673809Y-195873690D01*
X120292857Y-195873690D01*
X121816666Y-196349880D02*
X121245238Y-196349880D01*
X121530952Y-196349880D02*
X121530952Y-195349880D01*
X121435714Y-195492738D01*
X121340476Y-195587976D01*
X121245238Y-195635595D01*
X119864285Y-200699642D02*
X119816666Y-200747261D01*
X119673809Y-200794880D01*
X119578571Y-200794880D01*
X119435714Y-200747261D01*
X119340476Y-200652023D01*
X119292857Y-200556785D01*
X119245238Y-200366309D01*
X119245238Y-200223452D01*
X119292857Y-200032976D01*
X119340476Y-199937738D01*
X119435714Y-199842500D01*
X119578571Y-199794880D01*
X119673809Y-199794880D01*
X119816666Y-199842500D01*
X119864285Y-199890119D01*
X120483333Y-199794880D02*
X120673809Y-199794880D01*
X120769047Y-199842500D01*
X120864285Y-199937738D01*
X120911904Y-200128214D01*
X120911904Y-200461547D01*
X120864285Y-200652023D01*
X120769047Y-200747261D01*
X120673809Y-200794880D01*
X120483333Y-200794880D01*
X120388095Y-200747261D01*
X120292857Y-200652023D01*
X120245238Y-200461547D01*
X120245238Y-200128214D01*
X120292857Y-199937738D01*
X120388095Y-199842500D01*
X120483333Y-199794880D01*
X121340476Y-200794880D02*
X121340476Y-199794880D01*
X121673809Y-200509166D01*
X122007142Y-199794880D01*
X122007142Y-200794880D01*
X83293452Y-197572380D02*
X83864880Y-197572380D01*
X83579166Y-198572380D02*
X83579166Y-197572380D01*
X84198214Y-198572380D02*
X84198214Y-197572380D01*
X84579166Y-197572380D01*
X84674404Y-197620000D01*
X84722023Y-197667619D01*
X84769642Y-197762857D01*
X84769642Y-197905714D01*
X84722023Y-198000952D01*
X84674404Y-198048571D01*
X84579166Y-198096190D01*
X84198214Y-198096190D01*
X85150595Y-197667619D02*
X85198214Y-197620000D01*
X85293452Y-197572380D01*
X85531547Y-197572380D01*
X85626785Y-197620000D01*
X85674404Y-197667619D01*
X85722023Y-197762857D01*
X85722023Y-197858095D01*
X85674404Y-198000952D01*
X85102976Y-198572380D01*
X85722023Y-198572380D01*
X91106666Y-199794880D02*
X91440000Y-200794880D01*
X91773333Y-199794880D01*
X133484880Y-134016666D02*
X133008690Y-134350000D01*
X133484880Y-134588095D02*
X132484880Y-134588095D01*
X132484880Y-134207142D01*
X132532500Y-134111904D01*
X132580119Y-134064285D01*
X132675357Y-134016666D01*
X132818214Y-134016666D01*
X132913452Y-134064285D01*
X132961071Y-134111904D01*
X133008690Y-134207142D01*
X133008690Y-134588095D01*
X133484880Y-133588095D02*
X132484880Y-133588095D01*
X132484880Y-133207142D01*
X132532500Y-133111904D01*
X132580119Y-133064285D01*
X132675357Y-133016666D01*
X132818214Y-133016666D01*
X132913452Y-133064285D01*
X132961071Y-133111904D01*
X133008690Y-133207142D01*
X133008690Y-133588095D01*
X132484880Y-132683333D02*
X132484880Y-132016666D01*
X133484880Y-132445238D01*
X97559880Y-105425714D02*
X98559880Y-104759047D01*
X97559880Y-104759047D02*
X98559880Y-105425714D01*
X98512261Y-104425714D02*
X98559880Y-104282857D01*
X98559880Y-104044761D01*
X98512261Y-103949523D01*
X98464642Y-103901904D01*
X98369404Y-103854285D01*
X98274166Y-103854285D01*
X98178928Y-103901904D01*
X98131309Y-103949523D01*
X98083690Y-104044761D01*
X98036071Y-104235238D01*
X97988452Y-104330476D01*
X97940833Y-104378095D01*
X97845595Y-104425714D01*
X97750357Y-104425714D01*
X97655119Y-104378095D01*
X97607500Y-104330476D01*
X97559880Y-104235238D01*
X97559880Y-103997142D01*
X97607500Y-103854285D01*
X98559880Y-102901904D02*
X98559880Y-103473333D01*
X98559880Y-103187619D02*
X97559880Y-103187619D01*
X97702738Y-103282857D01*
X97797976Y-103378095D01*
X97845595Y-103473333D01*
X84669523Y-188682380D02*
X85002857Y-189682380D01*
X85336190Y-188682380D01*
X86145714Y-189682380D02*
X85669523Y-189682380D01*
X85669523Y-188682380D01*
X86431428Y-189634761D02*
X86574285Y-189682380D01*
X86812380Y-189682380D01*
X86907619Y-189634761D01*
X86955238Y-189587142D01*
X87002857Y-189491904D01*
X87002857Y-189396666D01*
X86955238Y-189301428D01*
X86907619Y-189253809D01*
X86812380Y-189206190D01*
X86621904Y-189158571D01*
X86526666Y-189110952D01*
X86479047Y-189063333D01*
X86431428Y-188968095D01*
X86431428Y-188872857D01*
X86479047Y-188777619D01*
X86526666Y-188730000D01*
X86621904Y-188682380D01*
X86860000Y-188682380D01*
X87002857Y-188730000D01*
X87955238Y-189682380D02*
X87383809Y-189682380D01*
X87669523Y-189682380D02*
X87669523Y-188682380D01*
X87574285Y-188825238D01*
X87479047Y-188920476D01*
X87383809Y-188968095D01*
X96654880Y-196481904D02*
X95654880Y-196481904D01*
X96654880Y-196005714D02*
X95654880Y-196005714D01*
X96654880Y-195434285D01*
X95654880Y-195434285D01*
X96654880Y-194958095D02*
X95654880Y-194958095D01*
X95654880Y-194720000D01*
X95702500Y-194577142D01*
X95797738Y-194481904D01*
X95892976Y-194434285D01*
X96083452Y-194386666D01*
X96226309Y-194386666D01*
X96416785Y-194434285D01*
X96512023Y-194481904D01*
X96607261Y-194577142D01*
X96654880Y-194720000D01*
X96654880Y-194958095D01*
X96559642Y-193958095D02*
X96607261Y-193910476D01*
X96654880Y-193958095D01*
X96607261Y-194005714D01*
X96559642Y-193958095D01*
X96654880Y-193958095D01*
X96654880Y-192910476D02*
X96178690Y-193243809D01*
X96654880Y-193481904D02*
X95654880Y-193481904D01*
X95654880Y-193100952D01*
X95702500Y-193005714D01*
X95750119Y-192958095D01*
X95845357Y-192910476D01*
X95988214Y-192910476D01*
X96083452Y-192958095D01*
X96131071Y-193005714D01*
X96178690Y-193100952D01*
X96178690Y-193481904D01*
X96654880Y-191958095D02*
X96654880Y-192529523D01*
X96654880Y-192243809D02*
X95654880Y-192243809D01*
X95797738Y-192339047D01*
X95892976Y-192434285D01*
X95940595Y-192529523D01*
X77419642Y-119832380D02*
X77086309Y-119356190D01*
X76848214Y-119832380D02*
X76848214Y-118832380D01*
X77229166Y-118832380D01*
X77324404Y-118880000D01*
X77372023Y-118927619D01*
X77419642Y-119022857D01*
X77419642Y-119165714D01*
X77372023Y-119260952D01*
X77324404Y-119308571D01*
X77229166Y-119356190D01*
X76848214Y-119356190D01*
X77848214Y-119832380D02*
X77848214Y-118832380D01*
X78229166Y-118832380D01*
X78324404Y-118880000D01*
X78372023Y-118927619D01*
X78419642Y-119022857D01*
X78419642Y-119165714D01*
X78372023Y-119260952D01*
X78324404Y-119308571D01*
X78229166Y-119356190D01*
X77848214Y-119356190D01*
X79372023Y-119832380D02*
X78800595Y-119832380D01*
X79086309Y-119832380D02*
X79086309Y-118832380D01*
X78991071Y-118975238D01*
X78895833Y-119070476D01*
X78800595Y-119118095D01*
X104743333Y-137612380D02*
X104410000Y-137136190D01*
X104171904Y-137612380D02*
X104171904Y-136612380D01*
X104552857Y-136612380D01*
X104648095Y-136660000D01*
X104695714Y-136707619D01*
X104743333Y-136802857D01*
X104743333Y-136945714D01*
X104695714Y-137040952D01*
X104648095Y-137088571D01*
X104552857Y-137136190D01*
X104171904Y-137136190D01*
X105171904Y-137612380D02*
X105171904Y-136612380D01*
X105552857Y-136612380D01*
X105648095Y-136660000D01*
X105695714Y-136707619D01*
X105743333Y-136802857D01*
X105743333Y-136945714D01*
X105695714Y-137040952D01*
X105648095Y-137088571D01*
X105552857Y-137136190D01*
X105171904Y-137136190D01*
X106124285Y-136707619D02*
X106171904Y-136660000D01*
X106267142Y-136612380D01*
X106505238Y-136612380D01*
X106600476Y-136660000D01*
X106648095Y-136707619D01*
X106695714Y-136802857D01*
X106695714Y-136898095D01*
X106648095Y-137040952D01*
X106076666Y-137612380D01*
X106695714Y-137612380D01*
X123793333Y-123642380D02*
X123460000Y-123166190D01*
X123221904Y-123642380D02*
X123221904Y-122642380D01*
X123602857Y-122642380D01*
X123698095Y-122690000D01*
X123745714Y-122737619D01*
X123793333Y-122832857D01*
X123793333Y-122975714D01*
X123745714Y-123070952D01*
X123698095Y-123118571D01*
X123602857Y-123166190D01*
X123221904Y-123166190D01*
X124221904Y-123642380D02*
X124221904Y-122642380D01*
X124602857Y-122642380D01*
X124698095Y-122690000D01*
X124745714Y-122737619D01*
X124793333Y-122832857D01*
X124793333Y-122975714D01*
X124745714Y-123070952D01*
X124698095Y-123118571D01*
X124602857Y-123166190D01*
X124221904Y-123166190D01*
X125126666Y-122642380D02*
X125745714Y-122642380D01*
X125412380Y-123023333D01*
X125555238Y-123023333D01*
X125650476Y-123070952D01*
X125698095Y-123118571D01*
X125745714Y-123213809D01*
X125745714Y-123451904D01*
X125698095Y-123547142D01*
X125650476Y-123594761D01*
X125555238Y-123642380D01*
X125269523Y-123642380D01*
X125174285Y-123594761D01*
X125126666Y-123547142D01*
X77419642Y-147772380D02*
X77086309Y-147296190D01*
X76848214Y-147772380D02*
X76848214Y-146772380D01*
X77229166Y-146772380D01*
X77324404Y-146820000D01*
X77372023Y-146867619D01*
X77419642Y-146962857D01*
X77419642Y-147105714D01*
X77372023Y-147200952D01*
X77324404Y-147248571D01*
X77229166Y-147296190D01*
X76848214Y-147296190D01*
X77848214Y-147772380D02*
X77848214Y-146772380D01*
X78229166Y-146772380D01*
X78324404Y-146820000D01*
X78372023Y-146867619D01*
X78419642Y-146962857D01*
X78419642Y-147105714D01*
X78372023Y-147200952D01*
X78324404Y-147248571D01*
X78229166Y-147296190D01*
X77848214Y-147296190D01*
X79276785Y-147105714D02*
X79276785Y-147772380D01*
X79038690Y-146724761D02*
X78800595Y-147439047D01*
X79419642Y-147439047D01*
X104743333Y-165552380D02*
X104410000Y-165076190D01*
X104171904Y-165552380D02*
X104171904Y-164552380D01*
X104552857Y-164552380D01*
X104648095Y-164600000D01*
X104695714Y-164647619D01*
X104743333Y-164742857D01*
X104743333Y-164885714D01*
X104695714Y-164980952D01*
X104648095Y-165028571D01*
X104552857Y-165076190D01*
X104171904Y-165076190D01*
X105171904Y-165552380D02*
X105171904Y-164552380D01*
X105552857Y-164552380D01*
X105648095Y-164600000D01*
X105695714Y-164647619D01*
X105743333Y-164742857D01*
X105743333Y-164885714D01*
X105695714Y-164980952D01*
X105648095Y-165028571D01*
X105552857Y-165076190D01*
X105171904Y-165076190D01*
X106648095Y-164552380D02*
X106171904Y-164552380D01*
X106124285Y-165028571D01*
X106171904Y-164980952D01*
X106267142Y-164933333D01*
X106505238Y-164933333D01*
X106600476Y-164980952D01*
X106648095Y-165028571D01*
X106695714Y-165123809D01*
X106695714Y-165361904D01*
X106648095Y-165457142D01*
X106600476Y-165504761D01*
X106505238Y-165552380D01*
X106267142Y-165552380D01*
X106171904Y-165504761D01*
X106124285Y-165457142D01*
X132067023Y-147772380D02*
X131733690Y-147296190D01*
X131495595Y-147772380D02*
X131495595Y-146772380D01*
X131876547Y-146772380D01*
X131971785Y-146820000D01*
X132019404Y-146867619D01*
X132067023Y-146962857D01*
X132067023Y-147105714D01*
X132019404Y-147200952D01*
X131971785Y-147248571D01*
X131876547Y-147296190D01*
X131495595Y-147296190D01*
X132495595Y-147772380D02*
X132495595Y-146772380D01*
X132876547Y-146772380D01*
X132971785Y-146820000D01*
X133019404Y-146867619D01*
X133067023Y-146962857D01*
X133067023Y-147105714D01*
X133019404Y-147200952D01*
X132971785Y-147248571D01*
X132876547Y-147296190D01*
X132495595Y-147296190D01*
X133924166Y-146772380D02*
X133733690Y-146772380D01*
X133638452Y-146820000D01*
X133590833Y-146867619D01*
X133495595Y-147010476D01*
X133447976Y-147200952D01*
X133447976Y-147581904D01*
X133495595Y-147677142D01*
X133543214Y-147724761D01*
X133638452Y-147772380D01*
X133828928Y-147772380D01*
X133924166Y-147724761D01*
X133971785Y-147677142D01*
X134019404Y-147581904D01*
X134019404Y-147343809D01*
X133971785Y-147248571D01*
X133924166Y-147200952D01*
X133828928Y-147153333D01*
X133638452Y-147153333D01*
X133543214Y-147200952D01*
X133495595Y-147248571D01*
X133447976Y-147343809D01*
X107270357Y-200747380D02*
X107937023Y-201747380D01*
X107937023Y-200747380D02*
X107270357Y-201747380D01*
X108841785Y-201747380D02*
X108270357Y-201747380D01*
X108556071Y-201747380D02*
X108556071Y-200747380D01*
X108460833Y-200890238D01*
X108365595Y-200985476D01*
X108270357Y-201033095D01*
X104148095Y-185824761D02*
X104290952Y-185872380D01*
X104529047Y-185872380D01*
X104624285Y-185824761D01*
X104671904Y-185777142D01*
X104719523Y-185681904D01*
X104719523Y-185586666D01*
X104671904Y-185491428D01*
X104624285Y-185443809D01*
X104529047Y-185396190D01*
X104338571Y-185348571D01*
X104243333Y-185300952D01*
X104195714Y-185253333D01*
X104148095Y-185158095D01*
X104148095Y-185062857D01*
X104195714Y-184967619D01*
X104243333Y-184920000D01*
X104338571Y-184872380D01*
X104576666Y-184872380D01*
X104719523Y-184920000D01*
X105481428Y-185348571D02*
X105624285Y-185396190D01*
X105671904Y-185443809D01*
X105719523Y-185539047D01*
X105719523Y-185681904D01*
X105671904Y-185777142D01*
X105624285Y-185824761D01*
X105529047Y-185872380D01*
X105148095Y-185872380D01*
X105148095Y-184872380D01*
X105481428Y-184872380D01*
X105576666Y-184920000D01*
X105624285Y-184967619D01*
X105671904Y-185062857D01*
X105671904Y-185158095D01*
X105624285Y-185253333D01*
X105576666Y-185300952D01*
X105481428Y-185348571D01*
X105148095Y-185348571D01*
X106671904Y-185872380D02*
X106100476Y-185872380D01*
X106386190Y-185872380D02*
X106386190Y-184872380D01*
X106290952Y-185015238D01*
X106195714Y-185110476D01*
X106100476Y-185158095D01*
X85193333Y-188412380D02*
X85193333Y-187412380D01*
X85193333Y-187888571D02*
X85764761Y-187888571D01*
X85764761Y-188412380D02*
X85764761Y-187412380D01*
X86717142Y-188412380D02*
X86240952Y-188412380D01*
X86240952Y-187412380D01*
X87574285Y-188412380D02*
X87002857Y-188412380D01*
X87288571Y-188412380D02*
X87288571Y-187412380D01*
X87193333Y-187555238D01*
X87098095Y-187650476D01*
X87002857Y-187698095D01*
X86129880Y-99694761D02*
X87129880Y-99361428D01*
X86129880Y-99028095D01*
X87129880Y-98694761D02*
X86129880Y-98694761D01*
X86844166Y-98361428D01*
X86129880Y-98028095D01*
X87129880Y-98028095D01*
X87129880Y-97551904D02*
X86129880Y-97551904D01*
X86606071Y-97551904D02*
X86606071Y-96980476D01*
X87129880Y-96980476D02*
X86129880Y-96980476D01*
X87129880Y-95980476D02*
X87129880Y-96551904D01*
X87129880Y-96266190D02*
X86129880Y-96266190D01*
X86272738Y-96361428D01*
X86367976Y-96456666D01*
X86415595Y-96551904D01*
X123594880Y-99694761D02*
X124594880Y-99361428D01*
X123594880Y-99028095D01*
X124594880Y-98694761D02*
X123594880Y-98694761D01*
X124309166Y-98361428D01*
X123594880Y-98028095D01*
X124594880Y-98028095D01*
X124594880Y-97551904D02*
X123594880Y-97551904D01*
X124071071Y-97551904D02*
X124071071Y-96980476D01*
X124594880Y-96980476D02*
X123594880Y-96980476D01*
X123690119Y-96551904D02*
X123642500Y-96504285D01*
X123594880Y-96409047D01*
X123594880Y-96170952D01*
X123642500Y-96075714D01*
X123690119Y-96028095D01*
X123785357Y-95980476D01*
X123880595Y-95980476D01*
X124023452Y-96028095D01*
X124594880Y-96599523D01*
X124594880Y-95980476D01*
X110656666Y-148322738D02*
X110656666Y-147846547D01*
X110942380Y-148417976D02*
X109942380Y-148084642D01*
X110942380Y-147751309D01*
X110847142Y-147417976D02*
X110894761Y-147370357D01*
X110942380Y-147417976D01*
X110894761Y-147465595D01*
X110847142Y-147417976D01*
X110942380Y-147417976D01*
X110847142Y-146370357D02*
X110894761Y-146417976D01*
X110942380Y-146560833D01*
X110942380Y-146656071D01*
X110894761Y-146798928D01*
X110799523Y-146894166D01*
X110704285Y-146941785D01*
X110513809Y-146989404D01*
X110370952Y-146989404D01*
X110180476Y-146941785D01*
X110085238Y-146894166D01*
X109990000Y-146798928D01*
X109942380Y-146656071D01*
X109942380Y-146560833D01*
X109990000Y-146417976D01*
X110037619Y-146370357D01*
X110942380Y-145417976D02*
X110942380Y-145989404D01*
X110942380Y-145703690D02*
X109942380Y-145703690D01*
X110085238Y-145798928D01*
X110180476Y-145894166D01*
X110228095Y-145989404D01*
X113196666Y-148322738D02*
X113196666Y-147846547D01*
X113482380Y-148417976D02*
X112482380Y-148084642D01*
X113482380Y-147751309D01*
X113387142Y-147417976D02*
X113434761Y-147370357D01*
X113482380Y-147417976D01*
X113434761Y-147465595D01*
X113387142Y-147417976D01*
X113482380Y-147417976D01*
X113387142Y-146370357D02*
X113434761Y-146417976D01*
X113482380Y-146560833D01*
X113482380Y-146656071D01*
X113434761Y-146798928D01*
X113339523Y-146894166D01*
X113244285Y-146941785D01*
X113053809Y-146989404D01*
X112910952Y-146989404D01*
X112720476Y-146941785D01*
X112625238Y-146894166D01*
X112530000Y-146798928D01*
X112482380Y-146656071D01*
X112482380Y-146560833D01*
X112530000Y-146417976D01*
X112577619Y-146370357D01*
X112577619Y-145989404D02*
X112530000Y-145941785D01*
X112482380Y-145846547D01*
X112482380Y-145608452D01*
X112530000Y-145513214D01*
X112577619Y-145465595D01*
X112672857Y-145417976D01*
X112768095Y-145417976D01*
X112910952Y-145465595D01*
X113482380Y-146037023D01*
X113482380Y-145417976D01*
X108116666Y-148322738D02*
X108116666Y-147846547D01*
X108402380Y-148417976D02*
X107402380Y-148084642D01*
X108402380Y-147751309D01*
X108307142Y-147417976D02*
X108354761Y-147370357D01*
X108402380Y-147417976D01*
X108354761Y-147465595D01*
X108307142Y-147417976D01*
X108402380Y-147417976D01*
X108402380Y-146370357D02*
X107926190Y-146703690D01*
X108402380Y-146941785D02*
X107402380Y-146941785D01*
X107402380Y-146560833D01*
X107450000Y-146465595D01*
X107497619Y-146417976D01*
X107592857Y-146370357D01*
X107735714Y-146370357D01*
X107830952Y-146417976D01*
X107878571Y-146465595D01*
X107926190Y-146560833D01*
X107926190Y-146941785D01*
X108402380Y-145417976D02*
X108402380Y-145989404D01*
X108402380Y-145703690D02*
X107402380Y-145703690D01*
X107545238Y-145798928D01*
X107640476Y-145894166D01*
X107688095Y-145989404D01*
X115736666Y-148322738D02*
X115736666Y-147846547D01*
X116022380Y-148417976D02*
X115022380Y-148084642D01*
X116022380Y-147751309D01*
X115927142Y-147417976D02*
X115974761Y-147370357D01*
X116022380Y-147417976D01*
X115974761Y-147465595D01*
X115927142Y-147417976D01*
X116022380Y-147417976D01*
X116022380Y-146370357D02*
X115546190Y-146703690D01*
X116022380Y-146941785D02*
X115022380Y-146941785D01*
X115022380Y-146560833D01*
X115070000Y-146465595D01*
X115117619Y-146417976D01*
X115212857Y-146370357D01*
X115355714Y-146370357D01*
X115450952Y-146417976D01*
X115498571Y-146465595D01*
X115546190Y-146560833D01*
X115546190Y-146941785D01*
X115117619Y-145989404D02*
X115070000Y-145941785D01*
X115022380Y-145846547D01*
X115022380Y-145608452D01*
X115070000Y-145513214D01*
X115117619Y-145465595D01*
X115212857Y-145417976D01*
X115308095Y-145417976D01*
X115450952Y-145465595D01*
X116022380Y-146037023D01*
X116022380Y-145417976D01*
X118697619Y-137644166D02*
X119173809Y-137644166D01*
X118602380Y-137929880D02*
X118935714Y-136929880D01*
X119269047Y-137929880D01*
X119935714Y-137406071D02*
X120078571Y-137453690D01*
X120126190Y-137501309D01*
X120173809Y-137596547D01*
X120173809Y-137739404D01*
X120126190Y-137834642D01*
X120078571Y-137882261D01*
X119983333Y-137929880D01*
X119602380Y-137929880D01*
X119602380Y-136929880D01*
X119935714Y-136929880D01*
X120030952Y-136977500D01*
X120078571Y-137025119D01*
X120126190Y-137120357D01*
X120126190Y-137215595D01*
X120078571Y-137310833D01*
X120030952Y-137358452D01*
X119935714Y-137406071D01*
X119602380Y-137406071D01*
X120602380Y-137834642D02*
X120650000Y-137882261D01*
X120602380Y-137929880D01*
X120554761Y-137882261D01*
X120602380Y-137834642D01*
X120602380Y-137929880D01*
X121078571Y-137929880D02*
X121078571Y-136929880D01*
X121316666Y-136929880D01*
X121459523Y-136977500D01*
X121554761Y-137072738D01*
X121602380Y-137167976D01*
X121650000Y-137358452D01*
X121650000Y-137501309D01*
X121602380Y-137691785D01*
X121554761Y-137787023D01*
X121459523Y-137882261D01*
X121316666Y-137929880D01*
X121078571Y-137929880D01*
X122602380Y-137929880D02*
X122030952Y-137929880D01*
X122316666Y-137929880D02*
X122316666Y-136929880D01*
X122221428Y-137072738D01*
X122126190Y-137167976D01*
X122030952Y-137215595D01*
X126611071Y-128142857D02*
X126658690Y-128000000D01*
X126706309Y-127952380D01*
X126801547Y-127904761D01*
X126944404Y-127904761D01*
X127039642Y-127952380D01*
X127087261Y-128000000D01*
X127134880Y-128095238D01*
X127134880Y-128476190D01*
X126134880Y-128476190D01*
X126134880Y-128142857D01*
X126182500Y-128047619D01*
X126230119Y-128000000D01*
X126325357Y-127952380D01*
X126420595Y-127952380D01*
X126515833Y-128000000D01*
X126563452Y-128047619D01*
X126611071Y-128142857D01*
X126611071Y-128476190D01*
X127039642Y-127476190D02*
X127087261Y-127428571D01*
X127134880Y-127476190D01*
X127087261Y-127523809D01*
X127039642Y-127476190D01*
X127134880Y-127476190D01*
X127039642Y-126428571D02*
X127087261Y-126476190D01*
X127134880Y-126619047D01*
X127134880Y-126714285D01*
X127087261Y-126857142D01*
X126992023Y-126952380D01*
X126896785Y-127000000D01*
X126706309Y-127047619D01*
X126563452Y-127047619D01*
X126372976Y-127000000D01*
X126277738Y-126952380D01*
X126182500Y-126857142D01*
X126134880Y-126714285D01*
X126134880Y-126619047D01*
X126182500Y-126476190D01*
X126230119Y-126428571D01*
X127134880Y-125476190D02*
X127134880Y-126047619D01*
X127134880Y-125761904D02*
X126134880Y-125761904D01*
X126277738Y-125857142D01*
X126372976Y-125952380D01*
X126420595Y-126047619D01*
X125341071Y-128142857D02*
X125388690Y-128000000D01*
X125436309Y-127952380D01*
X125531547Y-127904761D01*
X125674404Y-127904761D01*
X125769642Y-127952380D01*
X125817261Y-128000000D01*
X125864880Y-128095238D01*
X125864880Y-128476190D01*
X124864880Y-128476190D01*
X124864880Y-128142857D01*
X124912500Y-128047619D01*
X124960119Y-128000000D01*
X125055357Y-127952380D01*
X125150595Y-127952380D01*
X125245833Y-128000000D01*
X125293452Y-128047619D01*
X125341071Y-128142857D01*
X125341071Y-128476190D01*
X125769642Y-127476190D02*
X125817261Y-127428571D01*
X125864880Y-127476190D01*
X125817261Y-127523809D01*
X125769642Y-127476190D01*
X125864880Y-127476190D01*
X125769642Y-126428571D02*
X125817261Y-126476190D01*
X125864880Y-126619047D01*
X125864880Y-126714285D01*
X125817261Y-126857142D01*
X125722023Y-126952380D01*
X125626785Y-127000000D01*
X125436309Y-127047619D01*
X125293452Y-127047619D01*
X125102976Y-127000000D01*
X125007738Y-126952380D01*
X124912500Y-126857142D01*
X124864880Y-126714285D01*
X124864880Y-126619047D01*
X124912500Y-126476190D01*
X124960119Y-126428571D01*
X124960119Y-126047619D02*
X124912500Y-126000000D01*
X124864880Y-125904761D01*
X124864880Y-125666666D01*
X124912500Y-125571428D01*
X124960119Y-125523809D01*
X125055357Y-125476190D01*
X125150595Y-125476190D01*
X125293452Y-125523809D01*
X125864880Y-126095238D01*
X125864880Y-125476190D01*
X122801071Y-128142857D02*
X122848690Y-128000000D01*
X122896309Y-127952380D01*
X122991547Y-127904761D01*
X123134404Y-127904761D01*
X123229642Y-127952380D01*
X123277261Y-128000000D01*
X123324880Y-128095238D01*
X123324880Y-128476190D01*
X122324880Y-128476190D01*
X122324880Y-128142857D01*
X122372500Y-128047619D01*
X122420119Y-128000000D01*
X122515357Y-127952380D01*
X122610595Y-127952380D01*
X122705833Y-128000000D01*
X122753452Y-128047619D01*
X122801071Y-128142857D01*
X122801071Y-128476190D01*
X123229642Y-127476190D02*
X123277261Y-127428571D01*
X123324880Y-127476190D01*
X123277261Y-127523809D01*
X123229642Y-127476190D01*
X123324880Y-127476190D01*
X123324880Y-126428571D02*
X122848690Y-126761904D01*
X123324880Y-127000000D02*
X122324880Y-127000000D01*
X122324880Y-126619047D01*
X122372500Y-126523809D01*
X122420119Y-126476190D01*
X122515357Y-126428571D01*
X122658214Y-126428571D01*
X122753452Y-126476190D01*
X122801071Y-126523809D01*
X122848690Y-126619047D01*
X122848690Y-127000000D01*
X123324880Y-125476190D02*
X123324880Y-126047619D01*
X123324880Y-125761904D02*
X122324880Y-125761904D01*
X122467738Y-125857142D01*
X122562976Y-125952380D01*
X122610595Y-126047619D01*
X124071071Y-128142857D02*
X124118690Y-128000000D01*
X124166309Y-127952380D01*
X124261547Y-127904761D01*
X124404404Y-127904761D01*
X124499642Y-127952380D01*
X124547261Y-128000000D01*
X124594880Y-128095238D01*
X124594880Y-128476190D01*
X123594880Y-128476190D01*
X123594880Y-128142857D01*
X123642500Y-128047619D01*
X123690119Y-128000000D01*
X123785357Y-127952380D01*
X123880595Y-127952380D01*
X123975833Y-128000000D01*
X124023452Y-128047619D01*
X124071071Y-128142857D01*
X124071071Y-128476190D01*
X124499642Y-127476190D02*
X124547261Y-127428571D01*
X124594880Y-127476190D01*
X124547261Y-127523809D01*
X124499642Y-127476190D01*
X124594880Y-127476190D01*
X124594880Y-126428571D02*
X124118690Y-126761904D01*
X124594880Y-127000000D02*
X123594880Y-127000000D01*
X123594880Y-126619047D01*
X123642500Y-126523809D01*
X123690119Y-126476190D01*
X123785357Y-126428571D01*
X123928214Y-126428571D01*
X124023452Y-126476190D01*
X124071071Y-126523809D01*
X124118690Y-126619047D01*
X124118690Y-127000000D01*
X123690119Y-126047619D02*
X123642500Y-126000000D01*
X123594880Y-125904761D01*
X123594880Y-125666666D01*
X123642500Y-125571428D01*
X123690119Y-125523809D01*
X123785357Y-125476190D01*
X123880595Y-125476190D01*
X124023452Y-125523809D01*
X124594880Y-126095238D01*
X124594880Y-125476190D01*
X79483452Y-152757142D02*
X79435833Y-152804761D01*
X79292976Y-152852380D01*
X79197738Y-152852380D01*
X79054880Y-152804761D01*
X78959642Y-152709523D01*
X78912023Y-152614285D01*
X78864404Y-152423809D01*
X78864404Y-152280952D01*
X78912023Y-152090476D01*
X78959642Y-151995238D01*
X79054880Y-151900000D01*
X79197738Y-151852380D01*
X79292976Y-151852380D01*
X79435833Y-151900000D01*
X79483452Y-151947619D01*
X79912023Y-152757142D02*
X79959642Y-152804761D01*
X79912023Y-152852380D01*
X79864404Y-152804761D01*
X79912023Y-152757142D01*
X79912023Y-152852380D01*
X80959642Y-152757142D02*
X80912023Y-152804761D01*
X80769166Y-152852380D01*
X80673928Y-152852380D01*
X80531071Y-152804761D01*
X80435833Y-152709523D01*
X80388214Y-152614285D01*
X80340595Y-152423809D01*
X80340595Y-152280952D01*
X80388214Y-152090476D01*
X80435833Y-151995238D01*
X80531071Y-151900000D01*
X80673928Y-151852380D01*
X80769166Y-151852380D01*
X80912023Y-151900000D01*
X80959642Y-151947619D01*
X81912023Y-152852380D02*
X81340595Y-152852380D01*
X81626309Y-152852380D02*
X81626309Y-151852380D01*
X81531071Y-151995238D01*
X81435833Y-152090476D01*
X81340595Y-152138095D01*
X81954642Y-158384761D02*
X82002261Y-158432380D01*
X82049880Y-158575238D01*
X82049880Y-158670476D01*
X82002261Y-158813333D01*
X81907023Y-158908571D01*
X81811785Y-158956190D01*
X81621309Y-159003809D01*
X81478452Y-159003809D01*
X81287976Y-158956190D01*
X81192738Y-158908571D01*
X81097500Y-158813333D01*
X81049880Y-158670476D01*
X81049880Y-158575238D01*
X81097500Y-158432380D01*
X81145119Y-158384761D01*
X81954642Y-157956190D02*
X82002261Y-157908571D01*
X82049880Y-157956190D01*
X82002261Y-158003809D01*
X81954642Y-157956190D01*
X82049880Y-157956190D01*
X81954642Y-156908571D02*
X82002261Y-156956190D01*
X82049880Y-157099047D01*
X82049880Y-157194285D01*
X82002261Y-157337142D01*
X81907023Y-157432380D01*
X81811785Y-157480000D01*
X81621309Y-157527619D01*
X81478452Y-157527619D01*
X81287976Y-157480000D01*
X81192738Y-157432380D01*
X81097500Y-157337142D01*
X81049880Y-157194285D01*
X81049880Y-157099047D01*
X81097500Y-156956190D01*
X81145119Y-156908571D01*
X81145119Y-156527619D02*
X81097500Y-156480000D01*
X81049880Y-156384761D01*
X81049880Y-156146666D01*
X81097500Y-156051428D01*
X81145119Y-156003809D01*
X81240357Y-155956190D01*
X81335595Y-155956190D01*
X81478452Y-156003809D01*
X82049880Y-156575238D01*
X82049880Y-155956190D01*
X90844642Y-163464761D02*
X90892261Y-163512380D01*
X90939880Y-163655238D01*
X90939880Y-163750476D01*
X90892261Y-163893333D01*
X90797023Y-163988571D01*
X90701785Y-164036190D01*
X90511309Y-164083809D01*
X90368452Y-164083809D01*
X90177976Y-164036190D01*
X90082738Y-163988571D01*
X89987500Y-163893333D01*
X89939880Y-163750476D01*
X89939880Y-163655238D01*
X89987500Y-163512380D01*
X90035119Y-163464761D01*
X90844642Y-163036190D02*
X90892261Y-162988571D01*
X90939880Y-163036190D01*
X90892261Y-163083809D01*
X90844642Y-163036190D01*
X90939880Y-163036190D01*
X90939880Y-161988571D02*
X90463690Y-162321904D01*
X90939880Y-162560000D02*
X89939880Y-162560000D01*
X89939880Y-162179047D01*
X89987500Y-162083809D01*
X90035119Y-162036190D01*
X90130357Y-161988571D01*
X90273214Y-161988571D01*
X90368452Y-162036190D01*
X90416071Y-162083809D01*
X90463690Y-162179047D01*
X90463690Y-162560000D01*
X90939880Y-161036190D02*
X90939880Y-161607619D01*
X90939880Y-161321904D02*
X89939880Y-161321904D01*
X90082738Y-161417142D01*
X90177976Y-161512380D01*
X90225595Y-161607619D01*
X95289642Y-153304761D02*
X95337261Y-153352380D01*
X95384880Y-153495238D01*
X95384880Y-153590476D01*
X95337261Y-153733333D01*
X95242023Y-153828571D01*
X95146785Y-153876190D01*
X94956309Y-153923809D01*
X94813452Y-153923809D01*
X94622976Y-153876190D01*
X94527738Y-153828571D01*
X94432500Y-153733333D01*
X94384880Y-153590476D01*
X94384880Y-153495238D01*
X94432500Y-153352380D01*
X94480119Y-153304761D01*
X95289642Y-152876190D02*
X95337261Y-152828571D01*
X95384880Y-152876190D01*
X95337261Y-152923809D01*
X95289642Y-152876190D01*
X95384880Y-152876190D01*
X95384880Y-151828571D02*
X94908690Y-152161904D01*
X95384880Y-152400000D02*
X94384880Y-152400000D01*
X94384880Y-152019047D01*
X94432500Y-151923809D01*
X94480119Y-151876190D01*
X94575357Y-151828571D01*
X94718214Y-151828571D01*
X94813452Y-151876190D01*
X94861071Y-151923809D01*
X94908690Y-152019047D01*
X94908690Y-152400000D01*
X94480119Y-151447619D02*
X94432500Y-151400000D01*
X94384880Y-151304761D01*
X94384880Y-151066666D01*
X94432500Y-150971428D01*
X94480119Y-150923809D01*
X94575357Y-150876190D01*
X94670595Y-150876190D01*
X94813452Y-150923809D01*
X95384880Y-151495238D01*
X95384880Y-150876190D01*
X88765238Y-154979642D02*
X88717619Y-155027261D01*
X88574761Y-155074880D01*
X88479523Y-155074880D01*
X88336666Y-155027261D01*
X88241428Y-154932023D01*
X88193809Y-154836785D01*
X88146190Y-154646309D01*
X88146190Y-154503452D01*
X88193809Y-154312976D01*
X88241428Y-154217738D01*
X88336666Y-154122500D01*
X88479523Y-154074880D01*
X88574761Y-154074880D01*
X88717619Y-154122500D01*
X88765238Y-154170119D01*
X89193809Y-155074880D02*
X89193809Y-154074880D01*
X89431904Y-154074880D01*
X89574761Y-154122500D01*
X89670000Y-154217738D01*
X89717619Y-154312976D01*
X89765238Y-154503452D01*
X89765238Y-154646309D01*
X89717619Y-154836785D01*
X89670000Y-154932023D01*
X89574761Y-155027261D01*
X89431904Y-155074880D01*
X89193809Y-155074880D01*
X90193809Y-154979642D02*
X90241428Y-155027261D01*
X90193809Y-155074880D01*
X90146190Y-155027261D01*
X90193809Y-154979642D01*
X90193809Y-155074880D01*
X90670000Y-155074880D02*
X90670000Y-154074880D01*
X90908095Y-154074880D01*
X91050952Y-154122500D01*
X91146190Y-154217738D01*
X91193809Y-154312976D01*
X91241428Y-154503452D01*
X91241428Y-154646309D01*
X91193809Y-154836785D01*
X91146190Y-154932023D01*
X91050952Y-155027261D01*
X90908095Y-155074880D01*
X90670000Y-155074880D01*
X92193809Y-155074880D02*
X91622380Y-155074880D01*
X91908095Y-155074880D02*
X91908095Y-154074880D01*
X91812857Y-154217738D01*
X91717619Y-154312976D01*
X91622380Y-154360595D01*
X105862380Y-152984404D02*
X104862380Y-152984404D01*
X104862380Y-152746309D01*
X104910000Y-152603452D01*
X105005238Y-152508214D01*
X105100476Y-152460595D01*
X105290952Y-152412976D01*
X105433809Y-152412976D01*
X105624285Y-152460595D01*
X105719523Y-152508214D01*
X105814761Y-152603452D01*
X105862380Y-152746309D01*
X105862380Y-152984404D01*
X105767142Y-151984404D02*
X105814761Y-151936785D01*
X105862380Y-151984404D01*
X105814761Y-152032023D01*
X105767142Y-151984404D01*
X105862380Y-151984404D01*
X105767142Y-150936785D02*
X105814761Y-150984404D01*
X105862380Y-151127261D01*
X105862380Y-151222500D01*
X105814761Y-151365357D01*
X105719523Y-151460595D01*
X105624285Y-151508214D01*
X105433809Y-151555833D01*
X105290952Y-151555833D01*
X105100476Y-151508214D01*
X105005238Y-151460595D01*
X104910000Y-151365357D01*
X104862380Y-151222500D01*
X104862380Y-151127261D01*
X104910000Y-150984404D01*
X104957619Y-150936785D01*
X105862380Y-149984404D02*
X105862380Y-150555833D01*
X105862380Y-150270119D02*
X104862380Y-150270119D01*
X105005238Y-150365357D01*
X105100476Y-150460595D01*
X105148095Y-150555833D01*
X100782380Y-152984404D02*
X99782380Y-152984404D01*
X99782380Y-152746309D01*
X99830000Y-152603452D01*
X99925238Y-152508214D01*
X100020476Y-152460595D01*
X100210952Y-152412976D01*
X100353809Y-152412976D01*
X100544285Y-152460595D01*
X100639523Y-152508214D01*
X100734761Y-152603452D01*
X100782380Y-152746309D01*
X100782380Y-152984404D01*
X100687142Y-151984404D02*
X100734761Y-151936785D01*
X100782380Y-151984404D01*
X100734761Y-152032023D01*
X100687142Y-151984404D01*
X100782380Y-151984404D01*
X100687142Y-150936785D02*
X100734761Y-150984404D01*
X100782380Y-151127261D01*
X100782380Y-151222500D01*
X100734761Y-151365357D01*
X100639523Y-151460595D01*
X100544285Y-151508214D01*
X100353809Y-151555833D01*
X100210952Y-151555833D01*
X100020476Y-151508214D01*
X99925238Y-151460595D01*
X99830000Y-151365357D01*
X99782380Y-151222500D01*
X99782380Y-151127261D01*
X99830000Y-150984404D01*
X99877619Y-150936785D01*
X99877619Y-150555833D02*
X99830000Y-150508214D01*
X99782380Y-150412976D01*
X99782380Y-150174880D01*
X99830000Y-150079642D01*
X99877619Y-150032023D01*
X99972857Y-149984404D01*
X100068095Y-149984404D01*
X100210952Y-150032023D01*
X100782380Y-150603452D01*
X100782380Y-149984404D01*
X103322380Y-152984404D02*
X102322380Y-152984404D01*
X102322380Y-152746309D01*
X102370000Y-152603452D01*
X102465238Y-152508214D01*
X102560476Y-152460595D01*
X102750952Y-152412976D01*
X102893809Y-152412976D01*
X103084285Y-152460595D01*
X103179523Y-152508214D01*
X103274761Y-152603452D01*
X103322380Y-152746309D01*
X103322380Y-152984404D01*
X103227142Y-151984404D02*
X103274761Y-151936785D01*
X103322380Y-151984404D01*
X103274761Y-152032023D01*
X103227142Y-151984404D01*
X103322380Y-151984404D01*
X103322380Y-150936785D02*
X102846190Y-151270119D01*
X103322380Y-151508214D02*
X102322380Y-151508214D01*
X102322380Y-151127261D01*
X102370000Y-151032023D01*
X102417619Y-150984404D01*
X102512857Y-150936785D01*
X102655714Y-150936785D01*
X102750952Y-150984404D01*
X102798571Y-151032023D01*
X102846190Y-151127261D01*
X102846190Y-151508214D01*
X103322380Y-149984404D02*
X103322380Y-150555833D01*
X103322380Y-150270119D02*
X102322380Y-150270119D01*
X102465238Y-150365357D01*
X102560476Y-150460595D01*
X102608095Y-150555833D01*
X98242380Y-152984404D02*
X97242380Y-152984404D01*
X97242380Y-152746309D01*
X97290000Y-152603452D01*
X97385238Y-152508214D01*
X97480476Y-152460595D01*
X97670952Y-152412976D01*
X97813809Y-152412976D01*
X98004285Y-152460595D01*
X98099523Y-152508214D01*
X98194761Y-152603452D01*
X98242380Y-152746309D01*
X98242380Y-152984404D01*
X98147142Y-151984404D02*
X98194761Y-151936785D01*
X98242380Y-151984404D01*
X98194761Y-152032023D01*
X98147142Y-151984404D01*
X98242380Y-151984404D01*
X98242380Y-150936785D02*
X97766190Y-151270119D01*
X98242380Y-151508214D02*
X97242380Y-151508214D01*
X97242380Y-151127261D01*
X97290000Y-151032023D01*
X97337619Y-150984404D01*
X97432857Y-150936785D01*
X97575714Y-150936785D01*
X97670952Y-150984404D01*
X97718571Y-151032023D01*
X97766190Y-151127261D01*
X97766190Y-151508214D01*
X97337619Y-150555833D02*
X97290000Y-150508214D01*
X97242380Y-150412976D01*
X97242380Y-150174880D01*
X97290000Y-150079642D01*
X97337619Y-150032023D01*
X97432857Y-149984404D01*
X97528095Y-149984404D01*
X97670952Y-150032023D01*
X98242380Y-150603452D01*
X98242380Y-149984404D01*
X126841428Y-141216071D02*
X127174761Y-141216071D01*
X127317619Y-141739880D02*
X126841428Y-141739880D01*
X126841428Y-140739880D01*
X127317619Y-140739880D01*
X127746190Y-141644642D02*
X127793809Y-141692261D01*
X127746190Y-141739880D01*
X127698571Y-141692261D01*
X127746190Y-141644642D01*
X127746190Y-141739880D01*
X128793809Y-141644642D02*
X128746190Y-141692261D01*
X128603333Y-141739880D01*
X128508095Y-141739880D01*
X128365238Y-141692261D01*
X128270000Y-141597023D01*
X128222380Y-141501785D01*
X128174761Y-141311309D01*
X128174761Y-141168452D01*
X128222380Y-140977976D01*
X128270000Y-140882738D01*
X128365238Y-140787500D01*
X128508095Y-140739880D01*
X128603333Y-140739880D01*
X128746190Y-140787500D01*
X128793809Y-140835119D01*
X129746190Y-141739880D02*
X129174761Y-141739880D01*
X129460476Y-141739880D02*
X129460476Y-140739880D01*
X129365238Y-140882738D01*
X129270000Y-140977976D01*
X129174761Y-141025595D01*
X124301428Y-151376071D02*
X124634761Y-151376071D01*
X124777619Y-151899880D02*
X124301428Y-151899880D01*
X124301428Y-150899880D01*
X124777619Y-150899880D01*
X125206190Y-151804642D02*
X125253809Y-151852261D01*
X125206190Y-151899880D01*
X125158571Y-151852261D01*
X125206190Y-151804642D01*
X125206190Y-151899880D01*
X126253809Y-151804642D02*
X126206190Y-151852261D01*
X126063333Y-151899880D01*
X125968095Y-151899880D01*
X125825238Y-151852261D01*
X125730000Y-151757023D01*
X125682380Y-151661785D01*
X125634761Y-151471309D01*
X125634761Y-151328452D01*
X125682380Y-151137976D01*
X125730000Y-151042738D01*
X125825238Y-150947500D01*
X125968095Y-150899880D01*
X126063333Y-150899880D01*
X126206190Y-150947500D01*
X126253809Y-150995119D01*
X126634761Y-150995119D02*
X126682380Y-150947500D01*
X126777619Y-150899880D01*
X127015714Y-150899880D01*
X127110952Y-150947500D01*
X127158571Y-150995119D01*
X127206190Y-151090357D01*
X127206190Y-151185595D01*
X127158571Y-151328452D01*
X126587142Y-151899880D01*
X127206190Y-151899880D01*
X121213571Y-154889404D02*
X121213571Y-154556071D01*
X121737380Y-154413214D02*
X121737380Y-154889404D01*
X120737380Y-154889404D01*
X120737380Y-154413214D01*
X121213571Y-153651309D02*
X121213571Y-153984642D01*
X121737380Y-153984642D02*
X120737380Y-153984642D01*
X120737380Y-153508452D01*
X121642142Y-153127500D02*
X121689761Y-153079880D01*
X121737380Y-153127500D01*
X121689761Y-153175119D01*
X121642142Y-153127500D01*
X121737380Y-153127500D01*
X121737380Y-152651309D02*
X120737380Y-152651309D01*
X120737380Y-152413214D01*
X120785000Y-152270357D01*
X120880238Y-152175119D01*
X120975476Y-152127500D01*
X121165952Y-152079880D01*
X121308809Y-152079880D01*
X121499285Y-152127500D01*
X121594523Y-152175119D01*
X121689761Y-152270357D01*
X121737380Y-152413214D01*
X121737380Y-152651309D01*
X121737380Y-151127500D02*
X121737380Y-151698928D01*
X121737380Y-151413214D02*
X120737380Y-151413214D01*
X120880238Y-151508452D01*
X120975476Y-151603690D01*
X121023095Y-151698928D01*
X115411428Y-151376071D02*
X115744761Y-151376071D01*
X115887619Y-151899880D02*
X115411428Y-151899880D01*
X115411428Y-150899880D01*
X115887619Y-150899880D01*
X116316190Y-151804642D02*
X116363809Y-151852261D01*
X116316190Y-151899880D01*
X116268571Y-151852261D01*
X116316190Y-151804642D01*
X116316190Y-151899880D01*
X117363809Y-151899880D02*
X117030476Y-151423690D01*
X116792380Y-151899880D02*
X116792380Y-150899880D01*
X117173333Y-150899880D01*
X117268571Y-150947500D01*
X117316190Y-150995119D01*
X117363809Y-151090357D01*
X117363809Y-151233214D01*
X117316190Y-151328452D01*
X117268571Y-151376071D01*
X117173333Y-151423690D01*
X116792380Y-151423690D01*
X118316190Y-151899880D02*
X117744761Y-151899880D01*
X118030476Y-151899880D02*
X118030476Y-150899880D01*
X117935238Y-151042738D01*
X117840000Y-151137976D01*
X117744761Y-151185595D01*
X132961071Y-157638571D02*
X132961071Y-157305238D01*
X133484880Y-157162380D02*
X133484880Y-157638571D01*
X132484880Y-157638571D01*
X132484880Y-157162380D01*
X133389642Y-156733809D02*
X133437261Y-156686190D01*
X133484880Y-156733809D01*
X133437261Y-156781428D01*
X133389642Y-156733809D01*
X133484880Y-156733809D01*
X133484880Y-155686190D02*
X133008690Y-156019523D01*
X133484880Y-156257619D02*
X132484880Y-156257619D01*
X132484880Y-155876666D01*
X132532500Y-155781428D01*
X132580119Y-155733809D01*
X132675357Y-155686190D01*
X132818214Y-155686190D01*
X132913452Y-155733809D01*
X132961071Y-155781428D01*
X133008690Y-155876666D01*
X133008690Y-156257619D01*
X132580119Y-155305238D02*
X132532500Y-155257619D01*
X132484880Y-155162380D01*
X132484880Y-154924285D01*
X132532500Y-154829047D01*
X132580119Y-154781428D01*
X132675357Y-154733809D01*
X132770595Y-154733809D01*
X132913452Y-154781428D01*
X133484880Y-155352857D01*
X133484880Y-154733809D01*
X100464880Y-143954285D02*
X99464880Y-143954285D01*
X99941071Y-143144761D02*
X99988690Y-143001904D01*
X100036309Y-142954285D01*
X100131547Y-142906666D01*
X100274404Y-142906666D01*
X100369642Y-142954285D01*
X100417261Y-143001904D01*
X100464880Y-143097142D01*
X100464880Y-143478095D01*
X99464880Y-143478095D01*
X99464880Y-143144761D01*
X99512500Y-143049523D01*
X99560119Y-143001904D01*
X99655357Y-142954285D01*
X99750595Y-142954285D01*
X99845833Y-143001904D01*
X99893452Y-143049523D01*
X99941071Y-143144761D01*
X99941071Y-143478095D01*
X100369642Y-142478095D02*
X100417261Y-142430476D01*
X100464880Y-142478095D01*
X100417261Y-142525714D01*
X100369642Y-142478095D01*
X100464880Y-142478095D01*
X100369642Y-141430476D02*
X100417261Y-141478095D01*
X100464880Y-141620952D01*
X100464880Y-141716190D01*
X100417261Y-141859047D01*
X100322023Y-141954285D01*
X100226785Y-142001904D01*
X100036309Y-142049523D01*
X99893452Y-142049523D01*
X99702976Y-142001904D01*
X99607738Y-141954285D01*
X99512500Y-141859047D01*
X99464880Y-141716190D01*
X99464880Y-141620952D01*
X99512500Y-141478095D01*
X99560119Y-141430476D01*
X100464880Y-140478095D02*
X100464880Y-141049523D01*
X100464880Y-140763809D02*
X99464880Y-140763809D01*
X99607738Y-140859047D01*
X99702976Y-140954285D01*
X99750595Y-141049523D01*
X106235714Y-124594880D02*
X106235714Y-123594880D01*
X107045238Y-124071071D02*
X107188095Y-124118690D01*
X107235714Y-124166309D01*
X107283333Y-124261547D01*
X107283333Y-124404404D01*
X107235714Y-124499642D01*
X107188095Y-124547261D01*
X107092857Y-124594880D01*
X106711904Y-124594880D01*
X106711904Y-123594880D01*
X107045238Y-123594880D01*
X107140476Y-123642500D01*
X107188095Y-123690119D01*
X107235714Y-123785357D01*
X107235714Y-123880595D01*
X107188095Y-123975833D01*
X107140476Y-124023452D01*
X107045238Y-124071071D01*
X106711904Y-124071071D01*
X107711904Y-124499642D02*
X107759523Y-124547261D01*
X107711904Y-124594880D01*
X107664285Y-124547261D01*
X107711904Y-124499642D01*
X107711904Y-124594880D01*
X108759523Y-124499642D02*
X108711904Y-124547261D01*
X108569047Y-124594880D01*
X108473809Y-124594880D01*
X108330952Y-124547261D01*
X108235714Y-124452023D01*
X108188095Y-124356785D01*
X108140476Y-124166309D01*
X108140476Y-124023452D01*
X108188095Y-123832976D01*
X108235714Y-123737738D01*
X108330952Y-123642500D01*
X108473809Y-123594880D01*
X108569047Y-123594880D01*
X108711904Y-123642500D01*
X108759523Y-123690119D01*
X109140476Y-123690119D02*
X109188095Y-123642500D01*
X109283333Y-123594880D01*
X109521428Y-123594880D01*
X109616666Y-123642500D01*
X109664285Y-123690119D01*
X109711904Y-123785357D01*
X109711904Y-123880595D01*
X109664285Y-124023452D01*
X109092857Y-124594880D01*
X109711904Y-124594880D01*
X86812380Y-139014404D02*
X85812380Y-139014404D01*
X86288571Y-138204880D02*
X86336190Y-138062023D01*
X86383809Y-138014404D01*
X86479047Y-137966785D01*
X86621904Y-137966785D01*
X86717142Y-138014404D01*
X86764761Y-138062023D01*
X86812380Y-138157261D01*
X86812380Y-138538214D01*
X85812380Y-138538214D01*
X85812380Y-138204880D01*
X85860000Y-138109642D01*
X85907619Y-138062023D01*
X86002857Y-138014404D01*
X86098095Y-138014404D01*
X86193333Y-138062023D01*
X86240952Y-138109642D01*
X86288571Y-138204880D01*
X86288571Y-138538214D01*
X86717142Y-137538214D02*
X86764761Y-137490595D01*
X86812380Y-137538214D01*
X86764761Y-137585833D01*
X86717142Y-137538214D01*
X86812380Y-137538214D01*
X86717142Y-136490595D02*
X86764761Y-136538214D01*
X86812380Y-136681071D01*
X86812380Y-136776309D01*
X86764761Y-136919166D01*
X86669523Y-137014404D01*
X86574285Y-137062023D01*
X86383809Y-137109642D01*
X86240952Y-137109642D01*
X86050476Y-137062023D01*
X85955238Y-137014404D01*
X85860000Y-136919166D01*
X85812380Y-136776309D01*
X85812380Y-136681071D01*
X85860000Y-136538214D01*
X85907619Y-136490595D01*
X85812380Y-136157261D02*
X85812380Y-135538214D01*
X86193333Y-135871547D01*
X86193333Y-135728690D01*
X86240952Y-135633452D01*
X86288571Y-135585833D01*
X86383809Y-135538214D01*
X86621904Y-135538214D01*
X86717142Y-135585833D01*
X86764761Y-135633452D01*
X86812380Y-135728690D01*
X86812380Y-136014404D01*
X86764761Y-136109642D01*
X86717142Y-136157261D01*
X99194880Y-143954285D02*
X98194880Y-143954285D01*
X98671071Y-143144761D02*
X98718690Y-143001904D01*
X98766309Y-142954285D01*
X98861547Y-142906666D01*
X99004404Y-142906666D01*
X99099642Y-142954285D01*
X99147261Y-143001904D01*
X99194880Y-143097142D01*
X99194880Y-143478095D01*
X98194880Y-143478095D01*
X98194880Y-143144761D01*
X98242500Y-143049523D01*
X98290119Y-143001904D01*
X98385357Y-142954285D01*
X98480595Y-142954285D01*
X98575833Y-143001904D01*
X98623452Y-143049523D01*
X98671071Y-143144761D01*
X98671071Y-143478095D01*
X99099642Y-142478095D02*
X99147261Y-142430476D01*
X99194880Y-142478095D01*
X99147261Y-142525714D01*
X99099642Y-142478095D01*
X99194880Y-142478095D01*
X99194880Y-141430476D02*
X98718690Y-141763809D01*
X99194880Y-142001904D02*
X98194880Y-142001904D01*
X98194880Y-141620952D01*
X98242500Y-141525714D01*
X98290119Y-141478095D01*
X98385357Y-141430476D01*
X98528214Y-141430476D01*
X98623452Y-141478095D01*
X98671071Y-141525714D01*
X98718690Y-141620952D01*
X98718690Y-142001904D01*
X99194880Y-140478095D02*
X99194880Y-141049523D01*
X99194880Y-140763809D02*
X98194880Y-140763809D01*
X98337738Y-140859047D01*
X98432976Y-140954285D01*
X98480595Y-141049523D01*
X101734880Y-143954285D02*
X100734880Y-143954285D01*
X101211071Y-143144761D02*
X101258690Y-143001904D01*
X101306309Y-142954285D01*
X101401547Y-142906666D01*
X101544404Y-142906666D01*
X101639642Y-142954285D01*
X101687261Y-143001904D01*
X101734880Y-143097142D01*
X101734880Y-143478095D01*
X100734880Y-143478095D01*
X100734880Y-143144761D01*
X100782500Y-143049523D01*
X100830119Y-143001904D01*
X100925357Y-142954285D01*
X101020595Y-142954285D01*
X101115833Y-143001904D01*
X101163452Y-143049523D01*
X101211071Y-143144761D01*
X101211071Y-143478095D01*
X101639642Y-142478095D02*
X101687261Y-142430476D01*
X101734880Y-142478095D01*
X101687261Y-142525714D01*
X101639642Y-142478095D01*
X101734880Y-142478095D01*
X101734880Y-141430476D02*
X101258690Y-141763809D01*
X101734880Y-142001904D02*
X100734880Y-142001904D01*
X100734880Y-141620952D01*
X100782500Y-141525714D01*
X100830119Y-141478095D01*
X100925357Y-141430476D01*
X101068214Y-141430476D01*
X101163452Y-141478095D01*
X101211071Y-141525714D01*
X101258690Y-141620952D01*
X101258690Y-142001904D01*
X100830119Y-141049523D02*
X100782500Y-141001904D01*
X100734880Y-140906666D01*
X100734880Y-140668571D01*
X100782500Y-140573333D01*
X100830119Y-140525714D01*
X100925357Y-140478095D01*
X101020595Y-140478095D01*
X101163452Y-140525714D01*
X101734880Y-141097142D01*
X101734880Y-140478095D01*
X102052380Y-120954166D02*
X101052380Y-120954166D01*
X101528571Y-120144642D02*
X101576190Y-120001785D01*
X101623809Y-119954166D01*
X101719047Y-119906547D01*
X101861904Y-119906547D01*
X101957142Y-119954166D01*
X102004761Y-120001785D01*
X102052380Y-120097023D01*
X102052380Y-120477976D01*
X101052380Y-120477976D01*
X101052380Y-120144642D01*
X101100000Y-120049404D01*
X101147619Y-120001785D01*
X101242857Y-119954166D01*
X101338095Y-119954166D01*
X101433333Y-120001785D01*
X101480952Y-120049404D01*
X101528571Y-120144642D01*
X101528571Y-120477976D01*
X101957142Y-119477976D02*
X102004761Y-119430357D01*
X102052380Y-119477976D01*
X102004761Y-119525595D01*
X101957142Y-119477976D01*
X102052380Y-119477976D01*
X102052380Y-118430357D02*
X101576190Y-118763690D01*
X102052380Y-119001785D02*
X101052380Y-119001785D01*
X101052380Y-118620833D01*
X101100000Y-118525595D01*
X101147619Y-118477976D01*
X101242857Y-118430357D01*
X101385714Y-118430357D01*
X101480952Y-118477976D01*
X101528571Y-118525595D01*
X101576190Y-118620833D01*
X101576190Y-119001785D01*
X101052380Y-118097023D02*
X101052380Y-117477976D01*
X101433333Y-117811309D01*
X101433333Y-117668452D01*
X101480952Y-117573214D01*
X101528571Y-117525595D01*
X101623809Y-117477976D01*
X101861904Y-117477976D01*
X101957142Y-117525595D01*
X102004761Y-117573214D01*
X102052380Y-117668452D01*
X102052380Y-117954166D01*
X102004761Y-118049404D01*
X101957142Y-118097023D01*
X106235714Y-125864880D02*
X106235714Y-124864880D01*
X107045238Y-125341071D02*
X107188095Y-125388690D01*
X107235714Y-125436309D01*
X107283333Y-125531547D01*
X107283333Y-125674404D01*
X107235714Y-125769642D01*
X107188095Y-125817261D01*
X107092857Y-125864880D01*
X106711904Y-125864880D01*
X106711904Y-124864880D01*
X107045238Y-124864880D01*
X107140476Y-124912500D01*
X107188095Y-124960119D01*
X107235714Y-125055357D01*
X107235714Y-125150595D01*
X107188095Y-125245833D01*
X107140476Y-125293452D01*
X107045238Y-125341071D01*
X106711904Y-125341071D01*
X107711904Y-125769642D02*
X107759523Y-125817261D01*
X107711904Y-125864880D01*
X107664285Y-125817261D01*
X107711904Y-125769642D01*
X107711904Y-125864880D01*
X108759523Y-125864880D02*
X108426190Y-125388690D01*
X108188095Y-125864880D02*
X108188095Y-124864880D01*
X108569047Y-124864880D01*
X108664285Y-124912500D01*
X108711904Y-124960119D01*
X108759523Y-125055357D01*
X108759523Y-125198214D01*
X108711904Y-125293452D01*
X108664285Y-125341071D01*
X108569047Y-125388690D01*
X108188095Y-125388690D01*
X109616666Y-125198214D02*
X109616666Y-125864880D01*
X109378571Y-124817261D02*
X109140476Y-125531547D01*
X109759523Y-125531547D01*
X90855595Y-124912380D02*
X90855595Y-123912380D01*
X91665119Y-124388571D02*
X91807976Y-124436190D01*
X91855595Y-124483809D01*
X91903214Y-124579047D01*
X91903214Y-124721904D01*
X91855595Y-124817142D01*
X91807976Y-124864761D01*
X91712738Y-124912380D01*
X91331785Y-124912380D01*
X91331785Y-123912380D01*
X91665119Y-123912380D01*
X91760357Y-123960000D01*
X91807976Y-124007619D01*
X91855595Y-124102857D01*
X91855595Y-124198095D01*
X91807976Y-124293333D01*
X91760357Y-124340952D01*
X91665119Y-124388571D01*
X91331785Y-124388571D01*
X92331785Y-124817142D02*
X92379404Y-124864761D01*
X92331785Y-124912380D01*
X92284166Y-124864761D01*
X92331785Y-124817142D01*
X92331785Y-124912380D01*
X93379404Y-124912380D02*
X93046071Y-124436190D01*
X92807976Y-124912380D02*
X92807976Y-123912380D01*
X93188928Y-123912380D01*
X93284166Y-123960000D01*
X93331785Y-124007619D01*
X93379404Y-124102857D01*
X93379404Y-124245714D01*
X93331785Y-124340952D01*
X93284166Y-124388571D01*
X93188928Y-124436190D01*
X92807976Y-124436190D01*
X94284166Y-123912380D02*
X93807976Y-123912380D01*
X93760357Y-124388571D01*
X93807976Y-124340952D01*
X93903214Y-124293333D01*
X94141309Y-124293333D01*
X94236547Y-124340952D01*
X94284166Y-124388571D01*
X94331785Y-124483809D01*
X94331785Y-124721904D01*
X94284166Y-124817142D01*
X94236547Y-124864761D01*
X94141309Y-124912380D01*
X93903214Y-124912380D01*
X93807976Y-124864761D01*
X93760357Y-124817142D01*
X77335119Y-122745714D02*
X78335119Y-122745714D01*
X77858928Y-123555238D02*
X77811309Y-123698095D01*
X77763690Y-123745714D01*
X77668452Y-123793333D01*
X77525595Y-123793333D01*
X77430357Y-123745714D01*
X77382738Y-123698095D01*
X77335119Y-123602857D01*
X77335119Y-123221904D01*
X78335119Y-123221904D01*
X78335119Y-123555238D01*
X78287500Y-123650476D01*
X78239880Y-123698095D01*
X78144642Y-123745714D01*
X78049404Y-123745714D01*
X77954166Y-123698095D01*
X77906547Y-123650476D01*
X77858928Y-123555238D01*
X77858928Y-123221904D01*
X77430357Y-124221904D02*
X77382738Y-124269523D01*
X77335119Y-124221904D01*
X77382738Y-124174285D01*
X77430357Y-124221904D01*
X77335119Y-124221904D01*
X77335119Y-125269523D02*
X77811309Y-124936190D01*
X77335119Y-124698095D02*
X78335119Y-124698095D01*
X78335119Y-125079047D01*
X78287500Y-125174285D01*
X78239880Y-125221904D01*
X78144642Y-125269523D01*
X78001785Y-125269523D01*
X77906547Y-125221904D01*
X77858928Y-125174285D01*
X77811309Y-125079047D01*
X77811309Y-124698095D01*
X78335119Y-126126666D02*
X78335119Y-125936190D01*
X78287500Y-125840952D01*
X78239880Y-125793333D01*
X78097023Y-125698095D01*
X77906547Y-125650476D01*
X77525595Y-125650476D01*
X77430357Y-125698095D01*
X77382738Y-125745714D01*
X77335119Y-125840952D01*
X77335119Y-126031428D01*
X77382738Y-126126666D01*
X77430357Y-126174285D01*
X77525595Y-126221904D01*
X77763690Y-126221904D01*
X77858928Y-126174285D01*
X77906547Y-126126666D01*
X77954166Y-126031428D01*
X77954166Y-125840952D01*
X77906547Y-125745714D01*
X77858928Y-125698095D01*
X77763690Y-125650476D01*
X84621904Y-132849880D02*
X84621904Y-131849880D01*
X85288571Y-131849880D02*
X85479047Y-131849880D01*
X85574285Y-131897500D01*
X85669523Y-131992738D01*
X85717142Y-132183214D01*
X85717142Y-132516547D01*
X85669523Y-132707023D01*
X85574285Y-132802261D01*
X85479047Y-132849880D01*
X85288571Y-132849880D01*
X85193333Y-132802261D01*
X85098095Y-132707023D01*
X85050476Y-132516547D01*
X85050476Y-132183214D01*
X85098095Y-131992738D01*
X85193333Y-131897500D01*
X85288571Y-131849880D01*
X86145714Y-132754642D02*
X86193333Y-132802261D01*
X86145714Y-132849880D01*
X86098095Y-132802261D01*
X86145714Y-132754642D01*
X86145714Y-132849880D01*
X86621904Y-132849880D02*
X86621904Y-131849880D01*
X86860000Y-131849880D01*
X87002857Y-131897500D01*
X87098095Y-131992738D01*
X87145714Y-132087976D01*
X87193333Y-132278452D01*
X87193333Y-132421309D01*
X87145714Y-132611785D01*
X87098095Y-132707023D01*
X87002857Y-132802261D01*
X86860000Y-132849880D01*
X86621904Y-132849880D01*
X88145714Y-132849880D02*
X87574285Y-132849880D01*
X87860000Y-132849880D02*
X87860000Y-131849880D01*
X87764761Y-131992738D01*
X87669523Y-132087976D01*
X87574285Y-132135595D01*
X100734880Y-128809523D02*
X100734880Y-128619047D01*
X100782500Y-128523809D01*
X100877738Y-128428571D01*
X101068214Y-128380952D01*
X101401547Y-128380952D01*
X101592023Y-128428571D01*
X101687261Y-128523809D01*
X101734880Y-128619047D01*
X101734880Y-128809523D01*
X101687261Y-128904761D01*
X101592023Y-129000000D01*
X101401547Y-129047619D01*
X101068214Y-129047619D01*
X100877738Y-129000000D01*
X100782500Y-128904761D01*
X100734880Y-128809523D01*
X101211071Y-127619047D02*
X101258690Y-127476190D01*
X101306309Y-127428571D01*
X101401547Y-127380952D01*
X101544404Y-127380952D01*
X101639642Y-127428571D01*
X101687261Y-127476190D01*
X101734880Y-127571428D01*
X101734880Y-127952380D01*
X100734880Y-127952380D01*
X100734880Y-127619047D01*
X100782500Y-127523809D01*
X100830119Y-127476190D01*
X100925357Y-127428571D01*
X101020595Y-127428571D01*
X101115833Y-127476190D01*
X101163452Y-127523809D01*
X101211071Y-127619047D01*
X101211071Y-127952380D01*
X101639642Y-126952380D02*
X101687261Y-126904761D01*
X101734880Y-126952380D01*
X101687261Y-127000000D01*
X101639642Y-126952380D01*
X101734880Y-126952380D01*
X101639642Y-125904761D02*
X101687261Y-125952380D01*
X101734880Y-126095238D01*
X101734880Y-126190476D01*
X101687261Y-126333333D01*
X101592023Y-126428571D01*
X101496785Y-126476190D01*
X101306309Y-126523809D01*
X101163452Y-126523809D01*
X100972976Y-126476190D01*
X100877738Y-126428571D01*
X100782500Y-126333333D01*
X100734880Y-126190476D01*
X100734880Y-126095238D01*
X100782500Y-125952380D01*
X100830119Y-125904761D01*
X101734880Y-124952380D02*
X101734880Y-125523809D01*
X101734880Y-125238095D02*
X100734880Y-125238095D01*
X100877738Y-125333333D01*
X100972976Y-125428571D01*
X101020595Y-125523809D01*
X88352380Y-110883928D02*
X88352380Y-110693452D01*
X88400000Y-110598214D01*
X88495238Y-110502976D01*
X88685714Y-110455357D01*
X89019047Y-110455357D01*
X89209523Y-110502976D01*
X89304761Y-110598214D01*
X89352380Y-110693452D01*
X89352380Y-110883928D01*
X89304761Y-110979166D01*
X89209523Y-111074404D01*
X89019047Y-111122023D01*
X88685714Y-111122023D01*
X88495238Y-111074404D01*
X88400000Y-110979166D01*
X88352380Y-110883928D01*
X88828571Y-109693452D02*
X88876190Y-109550595D01*
X88923809Y-109502976D01*
X89019047Y-109455357D01*
X89161904Y-109455357D01*
X89257142Y-109502976D01*
X89304761Y-109550595D01*
X89352380Y-109645833D01*
X89352380Y-110026785D01*
X88352380Y-110026785D01*
X88352380Y-109693452D01*
X88400000Y-109598214D01*
X88447619Y-109550595D01*
X88542857Y-109502976D01*
X88638095Y-109502976D01*
X88733333Y-109550595D01*
X88780952Y-109598214D01*
X88828571Y-109693452D01*
X88828571Y-110026785D01*
X89257142Y-109026785D02*
X89304761Y-108979166D01*
X89352380Y-109026785D01*
X89304761Y-109074404D01*
X89257142Y-109026785D01*
X89352380Y-109026785D01*
X89257142Y-107979166D02*
X89304761Y-108026785D01*
X89352380Y-108169642D01*
X89352380Y-108264880D01*
X89304761Y-108407738D01*
X89209523Y-108502976D01*
X89114285Y-108550595D01*
X88923809Y-108598214D01*
X88780952Y-108598214D01*
X88590476Y-108550595D01*
X88495238Y-108502976D01*
X88400000Y-108407738D01*
X88352380Y-108264880D01*
X88352380Y-108169642D01*
X88400000Y-108026785D01*
X88447619Y-107979166D01*
X88447619Y-107598214D02*
X88400000Y-107550595D01*
X88352380Y-107455357D01*
X88352380Y-107217261D01*
X88400000Y-107122023D01*
X88447619Y-107074404D01*
X88542857Y-107026785D01*
X88638095Y-107026785D01*
X88780952Y-107074404D01*
X89352380Y-107645833D01*
X89352380Y-107026785D01*
X92170476Y-128039880D02*
X92360952Y-128039880D01*
X92456190Y-128087500D01*
X92551428Y-128182738D01*
X92599047Y-128373214D01*
X92599047Y-128706547D01*
X92551428Y-128897023D01*
X92456190Y-128992261D01*
X92360952Y-129039880D01*
X92170476Y-129039880D01*
X92075238Y-128992261D01*
X91980000Y-128897023D01*
X91932380Y-128706547D01*
X91932380Y-128373214D01*
X91980000Y-128182738D01*
X92075238Y-128087500D01*
X92170476Y-128039880D01*
X93360952Y-128516071D02*
X93503809Y-128563690D01*
X93551428Y-128611309D01*
X93599047Y-128706547D01*
X93599047Y-128849404D01*
X93551428Y-128944642D01*
X93503809Y-128992261D01*
X93408571Y-129039880D01*
X93027619Y-129039880D01*
X93027619Y-128039880D01*
X93360952Y-128039880D01*
X93456190Y-128087500D01*
X93503809Y-128135119D01*
X93551428Y-128230357D01*
X93551428Y-128325595D01*
X93503809Y-128420833D01*
X93456190Y-128468452D01*
X93360952Y-128516071D01*
X93027619Y-128516071D01*
X94027619Y-128944642D02*
X94075238Y-128992261D01*
X94027619Y-129039880D01*
X93980000Y-128992261D01*
X94027619Y-128944642D01*
X94027619Y-129039880D01*
X95075238Y-129039880D02*
X94741904Y-128563690D01*
X94503809Y-129039880D02*
X94503809Y-128039880D01*
X94884761Y-128039880D01*
X94980000Y-128087500D01*
X95027619Y-128135119D01*
X95075238Y-128230357D01*
X95075238Y-128373214D01*
X95027619Y-128468452D01*
X94980000Y-128516071D01*
X94884761Y-128563690D01*
X94503809Y-128563690D01*
X96027619Y-129039880D02*
X95456190Y-129039880D01*
X95741904Y-129039880D02*
X95741904Y-128039880D01*
X95646666Y-128182738D01*
X95551428Y-128277976D01*
X95456190Y-128325595D01*
X98512380Y-121335119D02*
X98512380Y-121144642D01*
X98560000Y-121049404D01*
X98655238Y-120954166D01*
X98845714Y-120906547D01*
X99179047Y-120906547D01*
X99369523Y-120954166D01*
X99464761Y-121049404D01*
X99512380Y-121144642D01*
X99512380Y-121335119D01*
X99464761Y-121430357D01*
X99369523Y-121525595D01*
X99179047Y-121573214D01*
X98845714Y-121573214D01*
X98655238Y-121525595D01*
X98560000Y-121430357D01*
X98512380Y-121335119D01*
X98988571Y-120144642D02*
X99036190Y-120001785D01*
X99083809Y-119954166D01*
X99179047Y-119906547D01*
X99321904Y-119906547D01*
X99417142Y-119954166D01*
X99464761Y-120001785D01*
X99512380Y-120097023D01*
X99512380Y-120477976D01*
X98512380Y-120477976D01*
X98512380Y-120144642D01*
X98560000Y-120049404D01*
X98607619Y-120001785D01*
X98702857Y-119954166D01*
X98798095Y-119954166D01*
X98893333Y-120001785D01*
X98940952Y-120049404D01*
X98988571Y-120144642D01*
X98988571Y-120477976D01*
X99417142Y-119477976D02*
X99464761Y-119430357D01*
X99512380Y-119477976D01*
X99464761Y-119525595D01*
X99417142Y-119477976D01*
X99512380Y-119477976D01*
X99512380Y-118430357D02*
X99036190Y-118763690D01*
X99512380Y-119001785D02*
X98512380Y-119001785D01*
X98512380Y-118620833D01*
X98560000Y-118525595D01*
X98607619Y-118477976D01*
X98702857Y-118430357D01*
X98845714Y-118430357D01*
X98940952Y-118477976D01*
X98988571Y-118525595D01*
X99036190Y-118620833D01*
X99036190Y-119001785D01*
X98607619Y-118049404D02*
X98560000Y-118001785D01*
X98512380Y-117906547D01*
X98512380Y-117668452D01*
X98560000Y-117573214D01*
X98607619Y-117525595D01*
X98702857Y-117477976D01*
X98798095Y-117477976D01*
X98940952Y-117525595D01*
X99512380Y-118097023D01*
X99512380Y-117477976D01*
X93432380Y-110883928D02*
X93432380Y-110693452D01*
X93480000Y-110598214D01*
X93575238Y-110502976D01*
X93765714Y-110455357D01*
X94099047Y-110455357D01*
X94289523Y-110502976D01*
X94384761Y-110598214D01*
X94432380Y-110693452D01*
X94432380Y-110883928D01*
X94384761Y-110979166D01*
X94289523Y-111074404D01*
X94099047Y-111122023D01*
X93765714Y-111122023D01*
X93575238Y-111074404D01*
X93480000Y-110979166D01*
X93432380Y-110883928D01*
X93908571Y-109693452D02*
X93956190Y-109550595D01*
X94003809Y-109502976D01*
X94099047Y-109455357D01*
X94241904Y-109455357D01*
X94337142Y-109502976D01*
X94384761Y-109550595D01*
X94432380Y-109645833D01*
X94432380Y-110026785D01*
X93432380Y-110026785D01*
X93432380Y-109693452D01*
X93480000Y-109598214D01*
X93527619Y-109550595D01*
X93622857Y-109502976D01*
X93718095Y-109502976D01*
X93813333Y-109550595D01*
X93860952Y-109598214D01*
X93908571Y-109693452D01*
X93908571Y-110026785D01*
X94337142Y-109026785D02*
X94384761Y-108979166D01*
X94432380Y-109026785D01*
X94384761Y-109074404D01*
X94337142Y-109026785D01*
X94432380Y-109026785D01*
X94432380Y-107979166D02*
X93956190Y-108312500D01*
X94432380Y-108550595D02*
X93432380Y-108550595D01*
X93432380Y-108169642D01*
X93480000Y-108074404D01*
X93527619Y-108026785D01*
X93622857Y-107979166D01*
X93765714Y-107979166D01*
X93860952Y-108026785D01*
X93908571Y-108074404D01*
X93956190Y-108169642D01*
X93956190Y-108550595D01*
X93432380Y-107645833D02*
X93432380Y-107026785D01*
X93813333Y-107360119D01*
X93813333Y-107217261D01*
X93860952Y-107122023D01*
X93908571Y-107074404D01*
X94003809Y-107026785D01*
X94241904Y-107026785D01*
X94337142Y-107074404D01*
X94384761Y-107122023D01*
X94432380Y-107217261D01*
X94432380Y-107502976D01*
X94384761Y-107598214D01*
X94337142Y-107645833D01*
X126415595Y-104592380D02*
X126415595Y-103592380D01*
X126796547Y-103592380D01*
X126891785Y-103640000D01*
X126939404Y-103687619D01*
X126987023Y-103782857D01*
X126987023Y-103925714D01*
X126939404Y-104020952D01*
X126891785Y-104068571D01*
X126796547Y-104116190D01*
X126415595Y-104116190D01*
X127367976Y-104544761D02*
X127510833Y-104592380D01*
X127748928Y-104592380D01*
X127844166Y-104544761D01*
X127891785Y-104497142D01*
X127939404Y-104401904D01*
X127939404Y-104306666D01*
X127891785Y-104211428D01*
X127844166Y-104163809D01*
X127748928Y-104116190D01*
X127558452Y-104068571D01*
X127463214Y-104020952D01*
X127415595Y-103973333D01*
X127367976Y-103878095D01*
X127367976Y-103782857D01*
X127415595Y-103687619D01*
X127463214Y-103640000D01*
X127558452Y-103592380D01*
X127796547Y-103592380D01*
X127939404Y-103640000D01*
X128367976Y-104497142D02*
X128415595Y-104544761D01*
X128367976Y-104592380D01*
X128320357Y-104544761D01*
X128367976Y-104497142D01*
X128367976Y-104592380D01*
X129415595Y-104497142D02*
X129367976Y-104544761D01*
X129225119Y-104592380D01*
X129129880Y-104592380D01*
X128987023Y-104544761D01*
X128891785Y-104449523D01*
X128844166Y-104354285D01*
X128796547Y-104163809D01*
X128796547Y-104020952D01*
X128844166Y-103830476D01*
X128891785Y-103735238D01*
X128987023Y-103640000D01*
X129129880Y-103592380D01*
X129225119Y-103592380D01*
X129367976Y-103640000D01*
X129415595Y-103687619D01*
X130367976Y-104592380D02*
X129796547Y-104592380D01*
X130082261Y-104592380D02*
X130082261Y-103592380D01*
X129987023Y-103735238D01*
X129891785Y-103830476D01*
X129796547Y-103878095D01*
X118697619Y-111894880D02*
X118697619Y-110894880D01*
X119078571Y-110894880D01*
X119173809Y-110942500D01*
X119221428Y-110990119D01*
X119269047Y-111085357D01*
X119269047Y-111228214D01*
X119221428Y-111323452D01*
X119173809Y-111371071D01*
X119078571Y-111418690D01*
X118697619Y-111418690D01*
X119650000Y-111847261D02*
X119792857Y-111894880D01*
X120030952Y-111894880D01*
X120126190Y-111847261D01*
X120173809Y-111799642D01*
X120221428Y-111704404D01*
X120221428Y-111609166D01*
X120173809Y-111513928D01*
X120126190Y-111466309D01*
X120030952Y-111418690D01*
X119840476Y-111371071D01*
X119745238Y-111323452D01*
X119697619Y-111275833D01*
X119650000Y-111180595D01*
X119650000Y-111085357D01*
X119697619Y-110990119D01*
X119745238Y-110942500D01*
X119840476Y-110894880D01*
X120078571Y-110894880D01*
X120221428Y-110942500D01*
X120650000Y-111799642D02*
X120697619Y-111847261D01*
X120650000Y-111894880D01*
X120602380Y-111847261D01*
X120650000Y-111799642D01*
X120650000Y-111894880D01*
X121697619Y-111799642D02*
X121650000Y-111847261D01*
X121507142Y-111894880D01*
X121411904Y-111894880D01*
X121269047Y-111847261D01*
X121173809Y-111752023D01*
X121126190Y-111656785D01*
X121078571Y-111466309D01*
X121078571Y-111323452D01*
X121126190Y-111132976D01*
X121173809Y-111037738D01*
X121269047Y-110942500D01*
X121411904Y-110894880D01*
X121507142Y-110894880D01*
X121650000Y-110942500D01*
X121697619Y-110990119D01*
X122030952Y-110894880D02*
X122650000Y-110894880D01*
X122316666Y-111275833D01*
X122459523Y-111275833D01*
X122554761Y-111323452D01*
X122602380Y-111371071D01*
X122650000Y-111466309D01*
X122650000Y-111704404D01*
X122602380Y-111799642D01*
X122554761Y-111847261D01*
X122459523Y-111894880D01*
X122173809Y-111894880D01*
X122078571Y-111847261D01*
X122030952Y-111799642D01*
X96654880Y-106092380D02*
X95654880Y-106092380D01*
X95654880Y-105711428D01*
X95702500Y-105616190D01*
X95750119Y-105568571D01*
X95845357Y-105520952D01*
X95988214Y-105520952D01*
X96083452Y-105568571D01*
X96131071Y-105616190D01*
X96178690Y-105711428D01*
X96178690Y-106092380D01*
X96607261Y-105140000D02*
X96654880Y-104997142D01*
X96654880Y-104759047D01*
X96607261Y-104663809D01*
X96559642Y-104616190D01*
X96464404Y-104568571D01*
X96369166Y-104568571D01*
X96273928Y-104616190D01*
X96226309Y-104663809D01*
X96178690Y-104759047D01*
X96131071Y-104949523D01*
X96083452Y-105044761D01*
X96035833Y-105092380D01*
X95940595Y-105140000D01*
X95845357Y-105140000D01*
X95750119Y-105092380D01*
X95702500Y-105044761D01*
X95654880Y-104949523D01*
X95654880Y-104711428D01*
X95702500Y-104568571D01*
X96559642Y-104140000D02*
X96607261Y-104092380D01*
X96654880Y-104140000D01*
X96607261Y-104187619D01*
X96559642Y-104140000D01*
X96654880Y-104140000D01*
X96559642Y-103092380D02*
X96607261Y-103140000D01*
X96654880Y-103282857D01*
X96654880Y-103378095D01*
X96607261Y-103520952D01*
X96512023Y-103616190D01*
X96416785Y-103663809D01*
X96226309Y-103711428D01*
X96083452Y-103711428D01*
X95892976Y-103663809D01*
X95797738Y-103616190D01*
X95702500Y-103520952D01*
X95654880Y-103378095D01*
X95654880Y-103282857D01*
X95702500Y-103140000D01*
X95750119Y-103092380D01*
X95988214Y-102235238D02*
X96654880Y-102235238D01*
X95607261Y-102473333D02*
X96321547Y-102711428D01*
X96321547Y-102092380D01*
X105997619Y-122054880D02*
X105997619Y-121054880D01*
X106378571Y-121054880D01*
X106473809Y-121102500D01*
X106521428Y-121150119D01*
X106569047Y-121245357D01*
X106569047Y-121388214D01*
X106521428Y-121483452D01*
X106473809Y-121531071D01*
X106378571Y-121578690D01*
X105997619Y-121578690D01*
X106950000Y-122007261D02*
X107092857Y-122054880D01*
X107330952Y-122054880D01*
X107426190Y-122007261D01*
X107473809Y-121959642D01*
X107521428Y-121864404D01*
X107521428Y-121769166D01*
X107473809Y-121673928D01*
X107426190Y-121626309D01*
X107330952Y-121578690D01*
X107140476Y-121531071D01*
X107045238Y-121483452D01*
X106997619Y-121435833D01*
X106950000Y-121340595D01*
X106950000Y-121245357D01*
X106997619Y-121150119D01*
X107045238Y-121102500D01*
X107140476Y-121054880D01*
X107378571Y-121054880D01*
X107521428Y-121102500D01*
X107950000Y-121959642D02*
X107997619Y-122007261D01*
X107950000Y-122054880D01*
X107902380Y-122007261D01*
X107950000Y-121959642D01*
X107950000Y-122054880D01*
X108997619Y-122054880D02*
X108664285Y-121578690D01*
X108426190Y-122054880D02*
X108426190Y-121054880D01*
X108807142Y-121054880D01*
X108902380Y-121102500D01*
X108950000Y-121150119D01*
X108997619Y-121245357D01*
X108997619Y-121388214D01*
X108950000Y-121483452D01*
X108902380Y-121531071D01*
X108807142Y-121578690D01*
X108426190Y-121578690D01*
X109950000Y-122054880D02*
X109378571Y-122054880D01*
X109664285Y-122054880D02*
X109664285Y-121054880D01*
X109569047Y-121197738D01*
X109473809Y-121292976D01*
X109378571Y-121340595D01*
X105997619Y-123324880D02*
X105997619Y-122324880D01*
X106378571Y-122324880D01*
X106473809Y-122372500D01*
X106521428Y-122420119D01*
X106569047Y-122515357D01*
X106569047Y-122658214D01*
X106521428Y-122753452D01*
X106473809Y-122801071D01*
X106378571Y-122848690D01*
X105997619Y-122848690D01*
X106950000Y-123277261D02*
X107092857Y-123324880D01*
X107330952Y-123324880D01*
X107426190Y-123277261D01*
X107473809Y-123229642D01*
X107521428Y-123134404D01*
X107521428Y-123039166D01*
X107473809Y-122943928D01*
X107426190Y-122896309D01*
X107330952Y-122848690D01*
X107140476Y-122801071D01*
X107045238Y-122753452D01*
X106997619Y-122705833D01*
X106950000Y-122610595D01*
X106950000Y-122515357D01*
X106997619Y-122420119D01*
X107045238Y-122372500D01*
X107140476Y-122324880D01*
X107378571Y-122324880D01*
X107521428Y-122372500D01*
X107950000Y-123229642D02*
X107997619Y-123277261D01*
X107950000Y-123324880D01*
X107902380Y-123277261D01*
X107950000Y-123229642D01*
X107950000Y-123324880D01*
X108997619Y-123324880D02*
X108664285Y-122848690D01*
X108426190Y-123324880D02*
X108426190Y-122324880D01*
X108807142Y-122324880D01*
X108902380Y-122372500D01*
X108950000Y-122420119D01*
X108997619Y-122515357D01*
X108997619Y-122658214D01*
X108950000Y-122753452D01*
X108902380Y-122801071D01*
X108807142Y-122848690D01*
X108426190Y-122848690D01*
X109378571Y-122420119D02*
X109426190Y-122372500D01*
X109521428Y-122324880D01*
X109759523Y-122324880D01*
X109854761Y-122372500D01*
X109902380Y-122420119D01*
X109950000Y-122515357D01*
X109950000Y-122610595D01*
X109902380Y-122753452D01*
X109330952Y-123324880D01*
X109950000Y-123324880D01*
X110418571Y-152651071D02*
X110418571Y-152984404D01*
X110942380Y-152984404D02*
X109942380Y-152984404D01*
X109942380Y-152508214D01*
X110847142Y-152127261D02*
X110894761Y-152079642D01*
X110942380Y-152127261D01*
X110894761Y-152174880D01*
X110847142Y-152127261D01*
X110942380Y-152127261D01*
X110847142Y-151079642D02*
X110894761Y-151127261D01*
X110942380Y-151270119D01*
X110942380Y-151365357D01*
X110894761Y-151508214D01*
X110799523Y-151603452D01*
X110704285Y-151651071D01*
X110513809Y-151698690D01*
X110370952Y-151698690D01*
X110180476Y-151651071D01*
X110085238Y-151603452D01*
X109990000Y-151508214D01*
X109942380Y-151365357D01*
X109942380Y-151270119D01*
X109990000Y-151127261D01*
X110037619Y-151079642D01*
X110942380Y-150127261D02*
X110942380Y-150698690D01*
X110942380Y-150412976D02*
X109942380Y-150412976D01*
X110085238Y-150508214D01*
X110180476Y-150603452D01*
X110228095Y-150698690D01*
X115768571Y-163441071D02*
X115435238Y-163441071D01*
X115435238Y-163964880D02*
X115435238Y-162964880D01*
X115911428Y-162964880D01*
X116292380Y-163869642D02*
X116340000Y-163917261D01*
X116292380Y-163964880D01*
X116244761Y-163917261D01*
X116292380Y-163869642D01*
X116292380Y-163964880D01*
X117340000Y-163869642D02*
X117292380Y-163917261D01*
X117149523Y-163964880D01*
X117054285Y-163964880D01*
X116911428Y-163917261D01*
X116816190Y-163822023D01*
X116768571Y-163726785D01*
X116720952Y-163536309D01*
X116720952Y-163393452D01*
X116768571Y-163202976D01*
X116816190Y-163107738D01*
X116911428Y-163012500D01*
X117054285Y-162964880D01*
X117149523Y-162964880D01*
X117292380Y-163012500D01*
X117340000Y-163060119D01*
X117720952Y-163060119D02*
X117768571Y-163012500D01*
X117863809Y-162964880D01*
X118101904Y-162964880D01*
X118197142Y-163012500D01*
X118244761Y-163060119D01*
X118292380Y-163155357D01*
X118292380Y-163250595D01*
X118244761Y-163393452D01*
X117673333Y-163964880D01*
X118292380Y-163964880D01*
X113276071Y-156461071D02*
X113276071Y-156794404D01*
X113799880Y-156794404D02*
X112799880Y-156794404D01*
X112799880Y-156318214D01*
X113704642Y-155937261D02*
X113752261Y-155889642D01*
X113799880Y-155937261D01*
X113752261Y-155984880D01*
X113704642Y-155937261D01*
X113799880Y-155937261D01*
X113799880Y-154889642D02*
X113323690Y-155222976D01*
X113799880Y-155461071D02*
X112799880Y-155461071D01*
X112799880Y-155080119D01*
X112847500Y-154984880D01*
X112895119Y-154937261D01*
X112990357Y-154889642D01*
X113133214Y-154889642D01*
X113228452Y-154937261D01*
X113276071Y-154984880D01*
X113323690Y-155080119D01*
X113323690Y-155461071D01*
X113799880Y-153937261D02*
X113799880Y-154508690D01*
X113799880Y-154222976D02*
X112799880Y-154222976D01*
X112942738Y-154318214D01*
X113037976Y-154413452D01*
X113085595Y-154508690D01*
X113276071Y-160641785D02*
X113276071Y-160975119D01*
X113799880Y-160975119D02*
X112799880Y-160975119D01*
X112799880Y-160498928D01*
X113704642Y-160117976D02*
X113752261Y-160070357D01*
X113799880Y-160117976D01*
X113752261Y-160165595D01*
X113704642Y-160117976D01*
X113799880Y-160117976D01*
X113799880Y-159070357D02*
X113323690Y-159403690D01*
X113799880Y-159641785D02*
X112799880Y-159641785D01*
X112799880Y-159260833D01*
X112847500Y-159165595D01*
X112895119Y-159117976D01*
X112990357Y-159070357D01*
X113133214Y-159070357D01*
X113228452Y-159117976D01*
X113276071Y-159165595D01*
X113323690Y-159260833D01*
X113323690Y-159641785D01*
X112895119Y-158689404D02*
X112847500Y-158641785D01*
X112799880Y-158546547D01*
X112799880Y-158308452D01*
X112847500Y-158213214D01*
X112895119Y-158165595D01*
X112990357Y-158117976D01*
X113085595Y-158117976D01*
X113228452Y-158165595D01*
X113799880Y-158737023D01*
X113799880Y-158117976D01*
X119784880Y-190833333D02*
X120499166Y-190833333D01*
X120642023Y-190880952D01*
X120737261Y-190976190D01*
X120784880Y-191119047D01*
X120784880Y-191214285D01*
X120784880Y-189833333D02*
X120784880Y-190404761D01*
X120784880Y-190119047D02*
X119784880Y-190119047D01*
X119927738Y-190214285D01*
X120022976Y-190309523D01*
X120070595Y-190404761D01*
X89939880Y-190833333D02*
X90654166Y-190833333D01*
X90797023Y-190880952D01*
X90892261Y-190976190D01*
X90939880Y-191119047D01*
X90939880Y-191214285D01*
X90939880Y-190309523D02*
X90939880Y-190119047D01*
X90892261Y-190023809D01*
X90844642Y-189976190D01*
X90701785Y-189880952D01*
X90511309Y-189833333D01*
X90130357Y-189833333D01*
X90035119Y-189880952D01*
X89987500Y-189928571D01*
X89939880Y-190023809D01*
X89939880Y-190214285D01*
X89987500Y-190309523D01*
X90035119Y-190357142D01*
X90130357Y-190404761D01*
X90368452Y-190404761D01*
X90463690Y-190357142D01*
X90511309Y-190309523D01*
X90558928Y-190214285D01*
X90558928Y-190023809D01*
X90511309Y-189928571D01*
X90463690Y-189880952D01*
X90368452Y-189833333D01*
X83272380Y-138728690D02*
X83986666Y-138728690D01*
X84129523Y-138776309D01*
X84224761Y-138871547D01*
X84272380Y-139014404D01*
X84272380Y-139109642D01*
X83272380Y-138347738D02*
X83272380Y-137728690D01*
X83653333Y-138062023D01*
X83653333Y-137919166D01*
X83700952Y-137823928D01*
X83748571Y-137776309D01*
X83843809Y-137728690D01*
X84081904Y-137728690D01*
X84177142Y-137776309D01*
X84224761Y-137823928D01*
X84272380Y-137919166D01*
X84272380Y-138204880D01*
X84224761Y-138300119D01*
X84177142Y-138347738D01*
X89802023Y-135342380D02*
X89802023Y-136056666D01*
X89754404Y-136199523D01*
X89659166Y-136294761D01*
X89516309Y-136342380D01*
X89421071Y-136342380D01*
X90706785Y-135675714D02*
X90706785Y-136342380D01*
X90468690Y-135294761D02*
X90230595Y-136009047D01*
X90849642Y-136009047D01*
X89802023Y-132802380D02*
X89802023Y-133516666D01*
X89754404Y-133659523D01*
X89659166Y-133754761D01*
X89516309Y-133802380D01*
X89421071Y-133802380D01*
X90754404Y-132802380D02*
X90278214Y-132802380D01*
X90230595Y-133278571D01*
X90278214Y-133230952D01*
X90373452Y-133183333D01*
X90611547Y-133183333D01*
X90706785Y-133230952D01*
X90754404Y-133278571D01*
X90802023Y-133373809D01*
X90802023Y-133611904D01*
X90754404Y-133707142D01*
X90706785Y-133754761D01*
X90611547Y-133802380D01*
X90373452Y-133802380D01*
X90278214Y-133754761D01*
X90230595Y-133707142D01*
X125864880Y-99742380D02*
X124864880Y-99742380D01*
X124864880Y-99361428D01*
X124912500Y-99266190D01*
X124960119Y-99218571D01*
X125055357Y-99170952D01*
X125198214Y-99170952D01*
X125293452Y-99218571D01*
X125341071Y-99266190D01*
X125388690Y-99361428D01*
X125388690Y-99742380D01*
X125817261Y-98790000D02*
X125864880Y-98647142D01*
X125864880Y-98409047D01*
X125817261Y-98313809D01*
X125769642Y-98266190D01*
X125674404Y-98218571D01*
X125579166Y-98218571D01*
X125483928Y-98266190D01*
X125436309Y-98313809D01*
X125388690Y-98409047D01*
X125341071Y-98599523D01*
X125293452Y-98694761D01*
X125245833Y-98742380D01*
X125150595Y-98790000D01*
X125055357Y-98790000D01*
X124960119Y-98742380D01*
X124912500Y-98694761D01*
X124864880Y-98599523D01*
X124864880Y-98361428D01*
X124912500Y-98218571D01*
X125769642Y-97790000D02*
X125817261Y-97742380D01*
X125864880Y-97790000D01*
X125817261Y-97837619D01*
X125769642Y-97790000D01*
X125864880Y-97790000D01*
X125769642Y-96742380D02*
X125817261Y-96790000D01*
X125864880Y-96932857D01*
X125864880Y-97028095D01*
X125817261Y-97170952D01*
X125722023Y-97266190D01*
X125626785Y-97313809D01*
X125436309Y-97361428D01*
X125293452Y-97361428D01*
X125102976Y-97313809D01*
X125007738Y-97266190D01*
X124912500Y-97170952D01*
X124864880Y-97028095D01*
X124864880Y-96932857D01*
X124912500Y-96790000D01*
X124960119Y-96742380D01*
X124960119Y-96361428D02*
X124912500Y-96313809D01*
X124864880Y-96218571D01*
X124864880Y-95980476D01*
X124912500Y-95885238D01*
X124960119Y-95837619D01*
X125055357Y-95790000D01*
X125150595Y-95790000D01*
X125293452Y-95837619D01*
X125864880Y-96409047D01*
X125864880Y-95790000D01*
X85859880Y-99742380D02*
X84859880Y-99742380D01*
X84859880Y-99361428D01*
X84907500Y-99266190D01*
X84955119Y-99218571D01*
X85050357Y-99170952D01*
X85193214Y-99170952D01*
X85288452Y-99218571D01*
X85336071Y-99266190D01*
X85383690Y-99361428D01*
X85383690Y-99742380D01*
X85812261Y-98790000D02*
X85859880Y-98647142D01*
X85859880Y-98409047D01*
X85812261Y-98313809D01*
X85764642Y-98266190D01*
X85669404Y-98218571D01*
X85574166Y-98218571D01*
X85478928Y-98266190D01*
X85431309Y-98313809D01*
X85383690Y-98409047D01*
X85336071Y-98599523D01*
X85288452Y-98694761D01*
X85240833Y-98742380D01*
X85145595Y-98790000D01*
X85050357Y-98790000D01*
X84955119Y-98742380D01*
X84907500Y-98694761D01*
X84859880Y-98599523D01*
X84859880Y-98361428D01*
X84907500Y-98218571D01*
X85764642Y-97790000D02*
X85812261Y-97742380D01*
X85859880Y-97790000D01*
X85812261Y-97837619D01*
X85764642Y-97790000D01*
X85859880Y-97790000D01*
X85764642Y-96742380D02*
X85812261Y-96790000D01*
X85859880Y-96932857D01*
X85859880Y-97028095D01*
X85812261Y-97170952D01*
X85717023Y-97266190D01*
X85621785Y-97313809D01*
X85431309Y-97361428D01*
X85288452Y-97361428D01*
X85097976Y-97313809D01*
X85002738Y-97266190D01*
X84907500Y-97170952D01*
X84859880Y-97028095D01*
X84859880Y-96932857D01*
X84907500Y-96790000D01*
X84955119Y-96742380D01*
X84859880Y-95837619D02*
X84859880Y-96313809D01*
X85336071Y-96361428D01*
X85288452Y-96313809D01*
X85240833Y-96218571D01*
X85240833Y-95980476D01*
X85288452Y-95885238D01*
X85336071Y-95837619D01*
X85431309Y-95790000D01*
X85669404Y-95790000D01*
X85764642Y-95837619D01*
X85812261Y-95885238D01*
X85859880Y-95980476D01*
X85859880Y-96218571D01*
X85812261Y-96313809D01*
X85764642Y-96361428D01*
X121552023Y-162012380D02*
X121552023Y-162726666D01*
X121504404Y-162869523D01*
X121409166Y-162964761D01*
X121266309Y-163012380D01*
X121171071Y-163012380D01*
X121980595Y-162107619D02*
X122028214Y-162060000D01*
X122123452Y-162012380D01*
X122361547Y-162012380D01*
X122456785Y-162060000D01*
X122504404Y-162107619D01*
X122552023Y-162202857D01*
X122552023Y-162298095D01*
X122504404Y-162440952D01*
X121932976Y-163012380D01*
X122552023Y-163012380D01*
X88034880Y-162893333D02*
X88749166Y-162893333D01*
X88892023Y-162940952D01*
X88987261Y-163036190D01*
X89034880Y-163179047D01*
X89034880Y-163274285D01*
X88463452Y-162274285D02*
X88415833Y-162369523D01*
X88368214Y-162417142D01*
X88272976Y-162464761D01*
X88225357Y-162464761D01*
X88130119Y-162417142D01*
X88082500Y-162369523D01*
X88034880Y-162274285D01*
X88034880Y-162083809D01*
X88082500Y-161988571D01*
X88130119Y-161940952D01*
X88225357Y-161893333D01*
X88272976Y-161893333D01*
X88368214Y-161940952D01*
X88415833Y-161988571D01*
X88463452Y-162083809D01*
X88463452Y-162274285D01*
X88511071Y-162369523D01*
X88558690Y-162417142D01*
X88653928Y-162464761D01*
X88844404Y-162464761D01*
X88939642Y-162417142D01*
X88987261Y-162369523D01*
X89034880Y-162274285D01*
X89034880Y-162083809D01*
X88987261Y-161988571D01*
X88939642Y-161940952D01*
X88844404Y-161893333D01*
X88653928Y-161893333D01*
X88558690Y-161940952D01*
X88511071Y-161988571D01*
X88463452Y-162083809D01*
X90892380Y-110788690D02*
X91606666Y-110788690D01*
X91749523Y-110836309D01*
X91844761Y-110931547D01*
X91892380Y-111074404D01*
X91892380Y-111169642D01*
X90892380Y-109883928D02*
X90892380Y-110074404D01*
X90940000Y-110169642D01*
X90987619Y-110217261D01*
X91130476Y-110312500D01*
X91320952Y-110360119D01*
X91701904Y-110360119D01*
X91797142Y-110312500D01*
X91844761Y-110264880D01*
X91892380Y-110169642D01*
X91892380Y-109979166D01*
X91844761Y-109883928D01*
X91797142Y-109836309D01*
X91701904Y-109788690D01*
X91463809Y-109788690D01*
X91368571Y-109836309D01*
X91320952Y-109883928D01*
X91273333Y-109979166D01*
X91273333Y-110169642D01*
X91320952Y-110264880D01*
X91368571Y-110312500D01*
X91463809Y-110360119D01*
X85812380Y-110788690D02*
X86526666Y-110788690D01*
X86669523Y-110836309D01*
X86764761Y-110931547D01*
X86812380Y-111074404D01*
X86812380Y-111169642D01*
X85812380Y-110407738D02*
X85812380Y-109741071D01*
X86812380Y-110169642D01*
X113482380Y-118477500D02*
X112482380Y-118477500D01*
X112482380Y-118096547D01*
X112530000Y-118001309D01*
X112577619Y-117953690D01*
X112672857Y-117906071D01*
X112815714Y-117906071D01*
X112910952Y-117953690D01*
X112958571Y-118001309D01*
X113006190Y-118096547D01*
X113006190Y-118477500D01*
X113434761Y-117525119D02*
X113482380Y-117382261D01*
X113482380Y-117144166D01*
X113434761Y-117048928D01*
X113387142Y-117001309D01*
X113291904Y-116953690D01*
X113196666Y-116953690D01*
X113101428Y-117001309D01*
X113053809Y-117048928D01*
X113006190Y-117144166D01*
X112958571Y-117334642D01*
X112910952Y-117429880D01*
X112863333Y-117477500D01*
X112768095Y-117525119D01*
X112672857Y-117525119D01*
X112577619Y-117477500D01*
X112530000Y-117429880D01*
X112482380Y-117334642D01*
X112482380Y-117096547D01*
X112530000Y-116953690D01*
X113387142Y-116525119D02*
X113434761Y-116477500D01*
X113482380Y-116525119D01*
X113434761Y-116572738D01*
X113387142Y-116525119D01*
X113482380Y-116525119D01*
X112482380Y-116191785D02*
X113482380Y-115858452D01*
X112482380Y-115525119D01*
X113482380Y-115191785D02*
X112482380Y-115191785D01*
X112482380Y-114953690D01*
X112530000Y-114810833D01*
X112625238Y-114715595D01*
X112720476Y-114667976D01*
X112910952Y-114620357D01*
X113053809Y-114620357D01*
X113244285Y-114667976D01*
X113339523Y-114715595D01*
X113434761Y-114810833D01*
X113482380Y-114953690D01*
X113482380Y-115191785D01*
X113482380Y-113667976D02*
X113482380Y-114239404D01*
X113482380Y-113953690D02*
X112482380Y-113953690D01*
X112625238Y-114048928D01*
X112720476Y-114144166D01*
X112768095Y-114239404D01*
%LPC*%
D13*
X95540000Y-167160000D03*
X89240000Y-167160000D03*
X82940000Y-167160000D03*
X95540000Y-183360000D03*
X89240000Y-183360000D03*
X82940000Y-183360000D03*
X115280000Y-183360000D03*
X121580000Y-183360000D03*
X127880000Y-183360000D03*
X115280000Y-167160000D03*
X121580000Y-167160000D03*
X127880000Y-167160000D03*
D14*
X80010000Y-114300000D03*
X80010000Y-111760000D03*
X80010000Y-109220000D03*
X80010000Y-106680000D03*
X82550000Y-109220000D03*
X82550000Y-111760000D03*
X130810000Y-109220000D03*
X130810000Y-106680000D03*
X130810000Y-114300000D03*
X130810000Y-111760000D03*
X80010000Y-132080000D03*
X80010000Y-129540000D03*
X80010000Y-127000000D03*
X80010000Y-134620000D03*
X80010000Y-137160000D03*
X80010000Y-139700000D03*
X80010000Y-142240000D03*
X80010000Y-160020000D03*
X80010000Y-162560000D03*
X130810000Y-162560000D03*
X130810000Y-160020000D03*
X80010000Y-189230000D03*
X82550000Y-189230000D03*
X128270000Y-189230000D03*
X130810000Y-189230000D03*
X125730000Y-198120000D03*
X123190000Y-198120000D03*
X120650000Y-198120000D03*
X118110000Y-198120000D03*
X115570000Y-198120000D03*
X95250000Y-198120000D03*
X92710000Y-198120000D03*
X90170000Y-198120000D03*
X87630000Y-198120000D03*
D15*
X128270000Y-195580000D03*
X82550000Y-195580000D03*
X128270000Y-101600000D03*
D14*
X130810000Y-133350000D03*
X130810000Y-138430000D03*
X130810000Y-128270000D03*
D16*
X105410000Y-107480000D03*
D17*
X100610000Y-104980000D03*
D18*
X105410000Y-101480000D03*
D19*
X94110000Y-195580000D03*
X91310000Y-195580000D03*
D20*
X81280000Y-119380000D03*
X83820000Y-119380000D03*
X86360000Y-119380000D03*
X88900000Y-119380000D03*
X91440000Y-119380000D03*
X110490000Y-133350000D03*
X107950000Y-133350000D03*
X105410000Y-133350000D03*
X102870000Y-133350000D03*
X100330000Y-133350000D03*
X129540000Y-119380000D03*
X127000000Y-119380000D03*
X124460000Y-119380000D03*
X121920000Y-119380000D03*
X119380000Y-119380000D03*
X91440000Y-147320000D03*
X88900000Y-147320000D03*
X86360000Y-147320000D03*
X83820000Y-147320000D03*
X81280000Y-147320000D03*
X110490000Y-161290000D03*
X107950000Y-161290000D03*
X105410000Y-161290000D03*
X102870000Y-161290000D03*
X100330000Y-161290000D03*
X129540000Y-147320000D03*
X127000000Y-147320000D03*
X124460000Y-147320000D03*
X121920000Y-147320000D03*
X119380000Y-147320000D03*
X105410000Y-201295000D03*
D21*
X110410000Y-193040000D03*
X110410000Y-197040000D03*
X110410000Y-189040000D03*
X105410000Y-193040000D03*
X105410000Y-197040000D03*
X105410000Y-189040000D03*
X100410000Y-189040000D03*
X100410000Y-193040000D03*
X100410000Y-197040000D03*
D14*
X86360000Y-194310000D03*
G36*
G01*
X86780000Y-192820000D02*
X85940000Y-192820000D01*
G75*
G02*
X85310000Y-192190000I0J630000D01*
G01*
X85310000Y-191350000D01*
G75*
G02*
X85940000Y-190720000I630000J0D01*
G01*
X86780000Y-190720000D01*
G75*
G02*
X87410000Y-191350000I0J-630000D01*
G01*
X87410000Y-192190000D01*
G75*
G02*
X86780000Y-192820000I-630000J0D01*
G01*
G37*
D22*
X96520000Y-97790000D03*
X114300000Y-97790000D03*
D23*
X110490000Y-143640000D03*
X110490000Y-140840000D03*
X113030000Y-143640000D03*
X113030000Y-140840000D03*
X107950000Y-143640000D03*
X107950000Y-140840000D03*
X115570000Y-143640000D03*
X115570000Y-140840000D03*
D24*
X118050000Y-135890000D03*
X118050000Y-134620000D03*
X118050000Y-133350000D03*
X118050000Y-132080000D03*
X123250000Y-132080000D03*
X123250000Y-133350000D03*
X123250000Y-134620000D03*
X123250000Y-135890000D03*
D23*
X120650000Y-125600000D03*
X120650000Y-128400000D03*
X118110000Y-125600000D03*
X118110000Y-128400000D03*
X113030000Y-128400000D03*
X113030000Y-125600000D03*
X115570000Y-128400000D03*
X115570000Y-125600000D03*
D19*
X86490000Y-152400000D03*
X83690000Y-152400000D03*
D23*
X83820000Y-156080000D03*
X83820000Y-158880000D03*
D19*
X92580000Y-162560000D03*
X95380000Y-162560000D03*
X92840000Y-152400000D03*
X90040000Y-152400000D03*
D24*
X92770000Y-156210000D03*
X92770000Y-157480000D03*
X92770000Y-158750000D03*
X92770000Y-160020000D03*
X87570000Y-160020000D03*
X87570000Y-158750000D03*
X87570000Y-157480000D03*
X87570000Y-156210000D03*
D23*
X105410000Y-154810000D03*
X105410000Y-157610000D03*
X100330000Y-157610000D03*
X100330000Y-154810000D03*
X102870000Y-154810000D03*
X102870000Y-157610000D03*
X97790000Y-157610000D03*
X97790000Y-154810000D03*
D19*
X129670000Y-143510000D03*
X126870000Y-143510000D03*
X127130000Y-153670000D03*
X124330000Y-153670000D03*
D24*
X121860000Y-160020000D03*
X121860000Y-158750000D03*
X121860000Y-157480000D03*
X121860000Y-156210000D03*
X127060000Y-156210000D03*
X127060000Y-157480000D03*
X127060000Y-158750000D03*
X127060000Y-160020000D03*
D19*
X118240000Y-153670000D03*
X115440000Y-153670000D03*
D23*
X130810000Y-157610000D03*
X130810000Y-154810000D03*
X93980000Y-140840000D03*
X93980000Y-143640000D03*
D19*
X109350000Y-116840000D03*
X106550000Y-116840000D03*
D23*
X86360000Y-143640000D03*
X86360000Y-140840000D03*
X91440000Y-143640000D03*
X91440000Y-140840000D03*
X96520000Y-140840000D03*
X96520000Y-143640000D03*
X101600000Y-112900000D03*
X101600000Y-115700000D03*
D19*
X106550000Y-119380000D03*
X109350000Y-119380000D03*
X86230000Y-124460000D03*
X89030000Y-124460000D03*
X82680000Y-124460000D03*
X79880000Y-124460000D03*
D24*
X88960000Y-127000000D03*
X88960000Y-128270000D03*
X88960000Y-129540000D03*
X88960000Y-130810000D03*
X83760000Y-130810000D03*
X83760000Y-129540000D03*
X83760000Y-128270000D03*
X83760000Y-127000000D03*
D23*
X99060000Y-125600000D03*
X99060000Y-128400000D03*
X88900000Y-115700000D03*
X88900000Y-112900000D03*
D19*
X92580000Y-130810000D03*
X95380000Y-130810000D03*
D23*
X99060000Y-112900000D03*
X99060000Y-115700000D03*
X93980000Y-112900000D03*
X93980000Y-115700000D03*
D25*
X117450000Y-104140000D03*
X123850000Y-104140000D03*
D19*
X122050000Y-109220000D03*
X119250000Y-109220000D03*
D25*
X93370000Y-104140000D03*
X86970000Y-104140000D03*
D19*
X109350000Y-111760000D03*
X106550000Y-111760000D03*
X106550000Y-114300000D03*
X109350000Y-114300000D03*
D23*
X110490000Y-157610000D03*
X110490000Y-154810000D03*
D19*
X118240000Y-161290000D03*
X115440000Y-161290000D03*
X118240000Y-156210000D03*
X115440000Y-156210000D03*
X118240000Y-158750000D03*
X115440000Y-158750000D03*
D23*
X118110000Y-189100000D03*
X118110000Y-191900000D03*
X92710000Y-191900000D03*
X92710000Y-189100000D03*
X83820000Y-143640000D03*
X83820000Y-140840000D03*
D19*
X92580000Y-135890000D03*
X95380000Y-135890000D03*
X92580000Y-133350000D03*
X95380000Y-133350000D03*
G36*
G01*
X121070000Y-97570000D02*
X120230000Y-97570000D01*
G75*
G02*
X119600000Y-96940000I0J630000D01*
G01*
X119600000Y-96100000D01*
G75*
G02*
X120230000Y-95470000I630000J0D01*
G01*
X121070000Y-95470000D01*
G75*
G02*
X121700000Y-96100000I0J-630000D01*
G01*
X121700000Y-96940000D01*
G75*
G02*
X121070000Y-97570000I-630000J0D01*
G01*
G37*
D14*
X120650000Y-99060000D03*
G36*
G01*
X90590000Y-97570000D02*
X89750000Y-97570000D01*
G75*
G02*
X89120000Y-96940000I0J630000D01*
G01*
X89120000Y-96100000D01*
G75*
G02*
X89750000Y-95470000I630000J0D01*
G01*
X90590000Y-95470000D01*
G75*
G02*
X91220000Y-96100000I0J-630000D01*
G01*
X91220000Y-96940000D01*
G75*
G02*
X90590000Y-97570000I-630000J0D01*
G01*
G37*
X90170000Y-99060000D03*
D19*
X127130000Y-162560000D03*
X124330000Y-162560000D03*
X86490000Y-162560000D03*
X83690000Y-162560000D03*
D23*
X91440000Y-115700000D03*
X91440000Y-112900000D03*
X86360000Y-115700000D03*
X86360000Y-112900000D03*
D20*
X113030000Y-111760000D03*
D14*
X113030000Y-102870000D03*
D26*
X113030000Y-109015000D03*
X113030000Y-105615000D03*
M02*
