G04 #@! TF.GenerationSoftware,KiCad,Pcbnew,5.1.6-c6e7f7d~87~ubuntu19.10.1*
G04 #@! TF.CreationDate,2023-02-10T05:05:30+06:00*
G04 #@! TF.ProjectId,1590BB_potentiometer_board_18_3x17_r1b,31353930-4242-45f7-906f-74656e74696f,1B*
G04 #@! TF.SameCoordinates,Original*
G04 #@! TF.FileFunction,Soldermask,Bot*
G04 #@! TF.FilePolarity,Negative*
%FSLAX46Y46*%
G04 Gerber Fmt 4.6, Leading zero omitted, Abs format (unit mm)*
G04 Created by KiCad (PCBNEW 5.1.6-c6e7f7d~87~ubuntu19.10.1) date 2023-02-10 05:05:30*
%MOMM*%
%LPD*%
G01*
G04 APERTURE LIST*
%ADD10C,0.100000*%
G04 APERTURE END LIST*
D10*
G36*
X92490000Y-145830000D02*
G01*
X90390000Y-145830000D01*
X90390000Y-143730000D01*
X92490000Y-143730000D01*
X92490000Y-145830000D01*
G37*
G36*
X125510000Y-145830000D02*
G01*
X123410000Y-145830000D01*
X123410000Y-143730000D01*
X125510000Y-143730000D01*
X125510000Y-145830000D01*
G37*
G36*
X114606274Y-143770350D02*
G01*
X114797362Y-143849502D01*
X114969336Y-143964411D01*
X115115589Y-144110664D01*
X115230498Y-144282638D01*
X115309650Y-144473726D01*
X115350000Y-144676584D01*
X115350000Y-144883416D01*
X115309650Y-145086274D01*
X115230498Y-145277362D01*
X115115589Y-145449336D01*
X114969336Y-145595589D01*
X114797362Y-145710498D01*
X114606274Y-145789650D01*
X114403416Y-145830000D01*
X114196584Y-145830000D01*
X113993726Y-145789650D01*
X113802638Y-145710498D01*
X113630664Y-145595589D01*
X113484411Y-145449336D01*
X113369502Y-145277362D01*
X113290350Y-145086274D01*
X113250000Y-144883416D01*
X113250000Y-144676584D01*
X113290350Y-144473726D01*
X113369502Y-144282638D01*
X113484411Y-144110664D01*
X113630664Y-143964411D01*
X113802638Y-143849502D01*
X113993726Y-143770350D01*
X114196584Y-143730000D01*
X114403416Y-143730000D01*
X114606274Y-143770350D01*
G37*
G36*
X117890000Y-145830000D02*
G01*
X115790000Y-145830000D01*
X115790000Y-143730000D01*
X117890000Y-143730000D01*
X117890000Y-145830000D01*
G37*
G36*
X120430000Y-145830000D02*
G01*
X118330000Y-145830000D01*
X118330000Y-143730000D01*
X120430000Y-143730000D01*
X120430000Y-145830000D01*
G37*
G36*
X97570000Y-145830000D02*
G01*
X95470000Y-145830000D01*
X95470000Y-143730000D01*
X97570000Y-143730000D01*
X97570000Y-145830000D01*
G37*
G36*
X95030000Y-145830000D02*
G01*
X92930000Y-145830000D01*
X92930000Y-143730000D01*
X95030000Y-143730000D01*
X95030000Y-145830000D01*
G37*
G36*
X86666274Y-143770350D02*
G01*
X86857362Y-143849502D01*
X87029336Y-143964411D01*
X87175589Y-144110664D01*
X87290498Y-144282638D01*
X87369650Y-144473726D01*
X87410000Y-144676584D01*
X87410000Y-144883416D01*
X87369650Y-145086274D01*
X87290498Y-145277362D01*
X87175589Y-145449336D01*
X87029336Y-145595589D01*
X86857362Y-145710498D01*
X86666274Y-145789650D01*
X86463416Y-145830000D01*
X86256584Y-145830000D01*
X86053726Y-145789650D01*
X85862638Y-145710498D01*
X85690664Y-145595589D01*
X85544411Y-145449336D01*
X85429502Y-145277362D01*
X85350350Y-145086274D01*
X85310000Y-144883416D01*
X85310000Y-144676584D01*
X85350350Y-144473726D01*
X85429502Y-144282638D01*
X85544411Y-144110664D01*
X85690664Y-143964411D01*
X85862638Y-143849502D01*
X86053726Y-143770350D01*
X86256584Y-143730000D01*
X86463416Y-143730000D01*
X86666274Y-143770350D01*
G37*
G36*
X89950000Y-145830000D02*
G01*
X87850000Y-145830000D01*
X87850000Y-143730000D01*
X89950000Y-143730000D01*
X89950000Y-145830000D01*
G37*
G36*
X122970000Y-145830000D02*
G01*
X120870000Y-145830000D01*
X120870000Y-143730000D01*
X122970000Y-143730000D01*
X122970000Y-145830000D01*
G37*
G36*
X73740000Y-144225000D02*
G01*
X71040000Y-144225000D01*
X71040000Y-141525000D01*
X73740000Y-141525000D01*
X73740000Y-144225000D01*
G37*
G36*
X143823780Y-141576880D02*
G01*
X143823782Y-141576881D01*
X143823783Y-141576881D01*
X144069467Y-141678646D01*
X144290574Y-141826385D01*
X144478615Y-142014426D01*
X144626354Y-142235533D01*
X144728119Y-142481217D01*
X144728120Y-142481220D01*
X144780000Y-142742037D01*
X144780000Y-143007963D01*
X144728120Y-143268780D01*
X144728119Y-143268783D01*
X144626354Y-143514467D01*
X144478615Y-143735574D01*
X144290574Y-143923615D01*
X144069467Y-144071354D01*
X143823783Y-144173119D01*
X143823782Y-144173119D01*
X143823780Y-144173120D01*
X143562963Y-144225000D01*
X143297037Y-144225000D01*
X143036220Y-144173120D01*
X143036218Y-144173119D01*
X143036217Y-144173119D01*
X142790533Y-144071354D01*
X142569426Y-143923615D01*
X142381385Y-143735574D01*
X142233646Y-143514467D01*
X142131881Y-143268783D01*
X142131880Y-143268780D01*
X142080000Y-143007963D01*
X142080000Y-142742037D01*
X142131880Y-142481220D01*
X142131881Y-142481217D01*
X142233646Y-142235533D01*
X142381385Y-142014426D01*
X142569426Y-141826385D01*
X142790533Y-141678646D01*
X143036217Y-141576881D01*
X143036218Y-141576881D01*
X143036220Y-141576880D01*
X143297037Y-141525000D01*
X143562963Y-141525000D01*
X143823780Y-141576880D01*
G37*
G36*
X139780000Y-144225000D02*
G01*
X137080000Y-144225000D01*
X137080000Y-141525000D01*
X139780000Y-141525000D01*
X139780000Y-144225000D01*
G37*
G36*
X101760000Y-144225000D02*
G01*
X99060000Y-144225000D01*
X99060000Y-141525000D01*
X101760000Y-141525000D01*
X101760000Y-144225000D01*
G37*
G36*
X110803780Y-141576880D02*
G01*
X110803782Y-141576881D01*
X110803783Y-141576881D01*
X111049467Y-141678646D01*
X111270574Y-141826385D01*
X111458615Y-142014426D01*
X111606354Y-142235533D01*
X111708119Y-142481217D01*
X111708120Y-142481220D01*
X111760000Y-142742037D01*
X111760000Y-143007963D01*
X111708120Y-143268780D01*
X111708119Y-143268783D01*
X111606354Y-143514467D01*
X111458615Y-143735574D01*
X111270574Y-143923615D01*
X111049467Y-144071354D01*
X110803783Y-144173119D01*
X110803782Y-144173119D01*
X110803780Y-144173120D01*
X110542963Y-144225000D01*
X110277037Y-144225000D01*
X110016220Y-144173120D01*
X110016218Y-144173119D01*
X110016217Y-144173119D01*
X109770533Y-144071354D01*
X109549426Y-143923615D01*
X109361385Y-143735574D01*
X109213646Y-143514467D01*
X109111881Y-143268783D01*
X109111880Y-143268780D01*
X109060000Y-143007963D01*
X109060000Y-142742037D01*
X109111880Y-142481220D01*
X109111881Y-142481217D01*
X109213646Y-142235533D01*
X109361385Y-142014426D01*
X109549426Y-141826385D01*
X109770533Y-141678646D01*
X110016217Y-141576881D01*
X110016218Y-141576881D01*
X110016220Y-141576880D01*
X110277037Y-141525000D01*
X110542963Y-141525000D01*
X110803780Y-141576880D01*
G37*
G36*
X106760000Y-144225000D02*
G01*
X104060000Y-144225000D01*
X104060000Y-141525000D01*
X106760000Y-141525000D01*
X106760000Y-144225000D01*
G37*
G36*
X68740000Y-144225000D02*
G01*
X66040000Y-144225000D01*
X66040000Y-141525000D01*
X68740000Y-141525000D01*
X68740000Y-144225000D01*
G37*
G36*
X77783780Y-141576880D02*
G01*
X77783782Y-141576881D01*
X77783783Y-141576881D01*
X78029467Y-141678646D01*
X78250574Y-141826385D01*
X78438615Y-142014426D01*
X78586354Y-142235533D01*
X78688119Y-142481217D01*
X78688120Y-142481220D01*
X78740000Y-142742037D01*
X78740000Y-143007963D01*
X78688120Y-143268780D01*
X78688119Y-143268783D01*
X78586354Y-143514467D01*
X78438615Y-143735574D01*
X78250574Y-143923615D01*
X78029467Y-144071354D01*
X77783783Y-144173119D01*
X77783782Y-144173119D01*
X77783780Y-144173120D01*
X77522963Y-144225000D01*
X77257037Y-144225000D01*
X76996220Y-144173120D01*
X76996218Y-144173119D01*
X76996217Y-144173119D01*
X76750533Y-144071354D01*
X76529426Y-143923615D01*
X76341385Y-143735574D01*
X76193646Y-143514467D01*
X76091881Y-143268783D01*
X76091880Y-143268780D01*
X76040000Y-143007963D01*
X76040000Y-142742037D01*
X76091880Y-142481220D01*
X76091881Y-142481217D01*
X76193646Y-142235533D01*
X76341385Y-142014426D01*
X76529426Y-141826385D01*
X76750533Y-141678646D01*
X76996217Y-141576881D01*
X76996218Y-141576881D01*
X76996220Y-141576880D01*
X77257037Y-141525000D01*
X77522963Y-141525000D01*
X77783780Y-141576880D01*
G37*
G36*
X134780000Y-144225000D02*
G01*
X132080000Y-144225000D01*
X132080000Y-141525000D01*
X134780000Y-141525000D01*
X134780000Y-144225000D01*
G37*
M02*
