G04 #@! TF.GenerationSoftware,KiCad,Pcbnew,5.1.6-c6e7f7d~87~ubuntu19.10.1*
G04 #@! TF.CreationDate,2021-07-04T16:36:10+06:00*
G04 #@! TF.ProjectId,fuzz_factory_r1c_r1b,66757a7a-5f66-4616-9374-6f72795f7231,MB:1C/PB:1B*
G04 #@! TF.SameCoordinates,Original*
G04 #@! TF.FileFunction,Copper,L2,Bot*
G04 #@! TF.FilePolarity,Positive*
%FSLAX46Y46*%
G04 Gerber Fmt 4.6, Leading zero omitted, Abs format (unit mm)*
G04 Created by KiCad (PCBNEW 5.1.6-c6e7f7d~87~ubuntu19.10.1) date 2021-07-04 16:36:10*
%MOMM*%
%LPD*%
G01*
G04 APERTURE LIST*
G04 #@! TA.AperFunction,ComponentPad*
%ADD10R,2.000000X2.000000*%
G04 #@! TD*
G04 #@! TA.AperFunction,ComponentPad*
%ADD11C,2.000000*%
G04 #@! TD*
G04 #@! TA.AperFunction,ComponentPad*
%ADD12R,2.500000X2.500000*%
G04 #@! TD*
G04 #@! TA.AperFunction,ComponentPad*
%ADD13R,3.000000X5.000000*%
G04 #@! TD*
G04 #@! TA.AperFunction,ComponentPad*
%ADD14R,5.000000X3.000000*%
G04 #@! TD*
G04 #@! TA.AperFunction,ComponentPad*
%ADD15R,3.000000X3.000000*%
G04 #@! TD*
G04 #@! TA.AperFunction,Conductor*
%ADD16C,0.600000*%
G04 #@! TD*
G04 #@! TA.AperFunction,Conductor*
%ADD17C,1.000000*%
G04 #@! TD*
G04 #@! TA.AperFunction,Conductor*
%ADD18C,0.500000*%
G04 #@! TD*
G04 APERTURE END LIST*
G04 #@! TA.AperFunction,ComponentPad*
G36*
G01*
X157165000Y-95285000D02*
X157165000Y-94335000D01*
G75*
G02*
X157640000Y-93860000I475000J0D01*
G01*
X158590000Y-93860000D01*
G75*
G02*
X159065000Y-94335000I0J-475000D01*
G01*
X159065000Y-95285000D01*
G75*
G02*
X158590000Y-95760000I-475000J0D01*
G01*
X157640000Y-95760000D01*
G75*
G02*
X157165000Y-95285000I0J475000D01*
G01*
G37*
G04 #@! TD.AperFunction*
G04 #@! TA.AperFunction,ComponentPad*
G36*
G01*
X155065000Y-93185000D02*
X155065000Y-92235000D01*
G75*
G02*
X155540000Y-91760000I475000J0D01*
G01*
X156490000Y-91760000D01*
G75*
G02*
X156965000Y-92235000I0J-475000D01*
G01*
X156965000Y-93185000D01*
G75*
G02*
X156490000Y-93660000I-475000J0D01*
G01*
X155540000Y-93660000D01*
G75*
G02*
X155065000Y-93185000I0J475000D01*
G01*
G37*
G04 #@! TD.AperFunction*
G04 #@! TA.AperFunction,ComponentPad*
G36*
G01*
X159265000Y-93185000D02*
X159265000Y-92235000D01*
G75*
G02*
X159740000Y-91760000I475000J0D01*
G01*
X160690000Y-91760000D01*
G75*
G02*
X161165000Y-92235000I0J-475000D01*
G01*
X161165000Y-93185000D01*
G75*
G02*
X160690000Y-93660000I-475000J0D01*
G01*
X159740000Y-93660000D01*
G75*
G02*
X159265000Y-93185000I0J475000D01*
G01*
G37*
G04 #@! TD.AperFunction*
G04 #@! TA.AperFunction,ComponentPad*
G36*
G01*
X135575000Y-95285000D02*
X135575000Y-94335000D01*
G75*
G02*
X136050000Y-93860000I475000J0D01*
G01*
X137000000Y-93860000D01*
G75*
G02*
X137475000Y-94335000I0J-475000D01*
G01*
X137475000Y-95285000D01*
G75*
G02*
X137000000Y-95760000I-475000J0D01*
G01*
X136050000Y-95760000D01*
G75*
G02*
X135575000Y-95285000I0J475000D01*
G01*
G37*
G04 #@! TD.AperFunction*
G04 #@! TA.AperFunction,ComponentPad*
G36*
G01*
X133475000Y-93185000D02*
X133475000Y-92235000D01*
G75*
G02*
X133950000Y-91760000I475000J0D01*
G01*
X134900000Y-91760000D01*
G75*
G02*
X135375000Y-92235000I0J-475000D01*
G01*
X135375000Y-93185000D01*
G75*
G02*
X134900000Y-93660000I-475000J0D01*
G01*
X133950000Y-93660000D01*
G75*
G02*
X133475000Y-93185000I0J475000D01*
G01*
G37*
G04 #@! TD.AperFunction*
G04 #@! TA.AperFunction,ComponentPad*
G36*
G01*
X137675000Y-93185000D02*
X137675000Y-92235000D01*
G75*
G02*
X138150000Y-91760000I475000J0D01*
G01*
X139100000Y-91760000D01*
G75*
G02*
X139575000Y-92235000I0J-475000D01*
G01*
X139575000Y-93185000D01*
G75*
G02*
X139100000Y-93660000I-475000J0D01*
G01*
X138150000Y-93660000D01*
G75*
G02*
X137675000Y-93185000I0J475000D01*
G01*
G37*
G04 #@! TD.AperFunction*
D10*
X179070000Y-95250000D03*
X179070000Y-97790000D03*
D11*
X179070000Y-100330000D03*
D12*
X152320000Y-135890000D03*
X152320000Y-139890000D03*
X152320000Y-131890000D03*
X147320000Y-135890000D03*
X147320000Y-139890000D03*
X147320000Y-131890000D03*
X142320000Y-131890000D03*
X142320000Y-135890000D03*
X142320000Y-139890000D03*
D10*
X117475000Y-105410000D03*
X114935000Y-105410000D03*
X112395000Y-105410000D03*
X158750000Y-138430000D03*
X158750000Y-133350000D03*
D11*
X127000000Y-133350000D03*
D10*
X129540000Y-133350000D03*
D11*
X167640000Y-133350000D03*
D10*
X165100000Y-133350000D03*
D11*
X175260000Y-90170000D03*
D10*
X177800000Y-90170000D03*
X135890000Y-138430000D03*
X135890000Y-133350000D03*
X120650000Y-100330000D03*
X130810000Y-100330000D03*
X152400000Y-100330000D03*
X142240000Y-100330000D03*
X130810000Y-105410000D03*
X120650000Y-105410000D03*
X171450000Y-100330000D03*
X161290000Y-100330000D03*
X185420000Y-105410000D03*
X185420000Y-95250000D03*
X171450000Y-95250000D03*
X166370000Y-95250000D03*
X160655000Y-105410000D03*
X158115000Y-105410000D03*
X155575000Y-105410000D03*
X182245000Y-105410000D03*
X179705000Y-105410000D03*
X177165000Y-105410000D03*
X139065000Y-105410000D03*
X136525000Y-105410000D03*
X133985000Y-105410000D03*
D13*
X188430000Y-114300000D03*
D14*
X190930000Y-109500000D03*
D13*
X194430000Y-114300000D03*
D15*
X112685000Y-120805000D03*
X106385000Y-120805000D03*
X100085000Y-120805000D03*
X112685000Y-137005000D03*
X106385000Y-137005000D03*
X100085000Y-137005000D03*
X181955000Y-137005000D03*
X188255000Y-137005000D03*
X194555000Y-137005000D03*
X181955000Y-120805000D03*
X188255000Y-120805000D03*
X194555000Y-120805000D03*
D11*
X198120000Y-105410000D03*
D10*
X190500000Y-105410000D03*
D11*
X182880000Y-91440000D03*
D10*
X182880000Y-88900000D03*
X162560000Y-138430000D03*
X190500000Y-101600000D03*
X195580000Y-101600000D03*
X181610000Y-116840000D03*
X110490000Y-113030000D03*
X115570000Y-113030000D03*
D11*
X104140000Y-115570000D03*
D10*
X104140000Y-113030000D03*
X181610000Y-113030000D03*
D16*
X140335000Y-137795000D02*
X144145000Y-137795000D01*
X115570000Y-115570000D02*
X120015000Y-120015000D01*
X120015000Y-120015000D02*
X120015000Y-128270000D01*
X104140000Y-115570000D02*
X115570000Y-115570000D01*
X120015000Y-128270000D02*
X121285000Y-129540000D01*
X146685000Y-129540000D02*
X147320000Y-130175000D01*
X147320000Y-130175000D02*
X147320000Y-131890000D01*
X121285000Y-129540000D02*
X146685000Y-129540000D01*
D17*
X142320000Y-141755000D02*
X142805000Y-142240000D01*
X142805000Y-142240000D02*
X151835000Y-142240000D01*
X151835000Y-142240000D02*
X152320000Y-141755000D01*
X152320000Y-141755000D02*
X152320000Y-139890000D01*
X142320000Y-139890000D02*
X142320000Y-141755000D01*
X171450000Y-135890000D02*
X152320000Y-135890000D01*
X181955000Y-120805000D02*
X181955000Y-125385000D01*
X181955000Y-125385000D02*
X171450000Y-135890000D01*
X115725000Y-137005000D02*
X112685000Y-137005000D01*
X142320000Y-135890000D02*
X116840000Y-135890000D01*
X116840000Y-135890000D02*
X115725000Y-137005000D01*
X187680000Y-109500000D02*
X190930000Y-109500000D01*
X181610000Y-113030000D02*
X184150000Y-113030000D01*
X184150000Y-113030000D02*
X187680000Y-109500000D01*
X185420000Y-120015000D02*
X186210000Y-120805000D01*
X181610000Y-116840000D02*
X184150000Y-116840000D01*
X186210000Y-120805000D02*
X188255000Y-120805000D01*
X185420000Y-118110000D02*
X185420000Y-120015000D01*
X184150000Y-116840000D02*
X185420000Y-118110000D01*
X188255000Y-120805000D02*
X188255000Y-137005000D01*
X194430000Y-114300000D02*
X194430000Y-111640000D01*
X194430000Y-111640000D02*
X198120000Y-107950000D01*
X198120000Y-107950000D02*
X198120000Y-105410000D01*
D16*
X104140000Y-113030000D02*
X110490000Y-113030000D01*
D17*
X179070000Y-97790000D02*
X176530000Y-97790000D01*
X176530000Y-97790000D02*
X173990000Y-100330000D01*
X173990000Y-100330000D02*
X173990000Y-106680000D01*
X173990000Y-106680000D02*
X175260000Y-107950000D01*
X184150000Y-107950000D02*
X175260000Y-107950000D01*
X185420000Y-105410000D02*
X185420000Y-106680000D01*
X185420000Y-106680000D02*
X184150000Y-107950000D01*
X175260000Y-107950000D02*
X175260000Y-128270000D01*
X170180000Y-133350000D02*
X167640000Y-133350000D01*
X175260000Y-128270000D02*
X170180000Y-133350000D01*
D16*
X171450000Y-100330000D02*
X171450000Y-95250000D01*
X171450000Y-95250000D02*
X179070000Y-95250000D01*
X179070000Y-95250000D02*
X185420000Y-95250000D01*
X154940000Y-100330000D02*
X152400000Y-100330000D01*
X158115000Y-94810000D02*
X158115000Y-97155000D01*
X158115000Y-97155000D02*
X154940000Y-100330000D01*
X161290000Y-95250000D02*
X166370000Y-95250000D01*
X158115000Y-94810000D02*
X160850000Y-94810000D01*
X160850000Y-94810000D02*
X161290000Y-95250000D01*
X136525000Y-94810000D02*
X136525000Y-90170000D01*
X160215000Y-91440000D02*
X160215000Y-92710000D01*
X136525000Y-90170000D02*
X158945000Y-90170000D01*
X158945000Y-90170000D02*
X160215000Y-91440000D01*
X127000000Y-101600000D02*
X127000000Y-95250000D01*
X127000000Y-95250000D02*
X132080000Y-90170000D01*
X120650000Y-105410000D02*
X123190000Y-105410000D01*
X132080000Y-90170000D02*
X136525000Y-90170000D01*
X123190000Y-105410000D02*
X127000000Y-101600000D01*
X134620000Y-100330000D02*
X130810000Y-100330000D01*
X138625000Y-92710000D02*
X138625000Y-96325000D01*
X138625000Y-96325000D02*
X134620000Y-100330000D01*
D17*
X190500000Y-101600000D02*
X190500000Y-105410000D01*
X182245000Y-105410000D02*
X182245000Y-103505000D01*
X182245000Y-103505000D02*
X184150000Y-101600000D01*
X184150000Y-101600000D02*
X190500000Y-101600000D01*
X182880000Y-91440000D02*
X187960000Y-91440000D01*
X190500000Y-93980000D02*
X190500000Y-101600000D01*
X187960000Y-91440000D02*
X190500000Y-93980000D01*
D16*
X115570000Y-111760000D02*
X115570000Y-113030000D01*
X119380000Y-107950000D02*
X115570000Y-111760000D01*
X156845000Y-107950000D02*
X119380000Y-107950000D01*
X158115000Y-105410000D02*
X158115000Y-106680000D01*
X158115000Y-106680000D02*
X156845000Y-107950000D01*
D17*
X114300000Y-110490000D02*
X117475000Y-107315000D01*
X101600000Y-111760000D02*
X102870000Y-110490000D01*
X117475000Y-107315000D02*
X117475000Y-105410000D01*
X102870000Y-110490000D02*
X114300000Y-110490000D01*
X101600000Y-116840000D02*
X101600000Y-111760000D01*
X102870000Y-118110000D02*
X101600000Y-116840000D01*
X121920000Y-133350000D02*
X118110000Y-129540000D01*
X127000000Y-133350000D02*
X121920000Y-133350000D01*
X118110000Y-120650000D02*
X115570000Y-118110000D01*
X118110000Y-129540000D02*
X118110000Y-120650000D01*
X115570000Y-118110000D02*
X102870000Y-118110000D01*
D16*
X114935000Y-105410000D02*
X114935000Y-103505000D01*
X114935000Y-103505000D02*
X118110000Y-100330000D01*
X118110000Y-100330000D02*
X120650000Y-100330000D01*
X130810000Y-105410000D02*
X133985000Y-105410000D01*
X136525000Y-105410000D02*
X136525000Y-102870000D01*
X134425000Y-92710000D02*
X132080000Y-92710000D01*
X132080000Y-92710000D02*
X128270000Y-96520000D01*
X128270000Y-101600000D02*
X128270000Y-96520000D01*
X136525000Y-102870000D02*
X129540000Y-102870000D01*
X129540000Y-102870000D02*
X128270000Y-101600000D01*
X139065000Y-100330000D02*
X136525000Y-102870000D01*
X142240000Y-100330000D02*
X139065000Y-100330000D01*
X153670000Y-92710000D02*
X156015000Y-92710000D01*
X160655000Y-102870000D02*
X161290000Y-102235000D01*
X161290000Y-100330000D02*
X165100000Y-100330000D01*
X165100000Y-100330000D02*
X168910000Y-96520000D01*
X168910000Y-96520000D02*
X168910000Y-93980000D01*
X168910000Y-93980000D02*
X172720000Y-90170000D01*
X172720000Y-90170000D02*
X175260000Y-90170000D01*
X149860000Y-102870000D02*
X149860000Y-96520000D01*
X149860000Y-96520000D02*
X153670000Y-92710000D01*
X140335000Y-102870000D02*
X149860000Y-102870000D01*
X139065000Y-105410000D02*
X139065000Y-104140000D01*
X139065000Y-104140000D02*
X140335000Y-102870000D01*
X161290000Y-102235000D02*
X161290000Y-100330000D01*
X160655000Y-102870000D02*
X149860000Y-102870000D01*
X160655000Y-105410000D02*
X160655000Y-102870000D01*
X179705000Y-93345000D02*
X177800000Y-91440000D01*
X187960000Y-93980000D02*
X187325000Y-93345000D01*
X177800000Y-91440000D02*
X177800000Y-90170000D01*
X179705000Y-103505000D02*
X184150000Y-99060000D01*
X179705000Y-105410000D02*
X179705000Y-103505000D01*
X184150000Y-99060000D02*
X185420000Y-99060000D01*
X185420000Y-99060000D02*
X187960000Y-96520000D01*
X187325000Y-93345000D02*
X179705000Y-93345000D01*
X187960000Y-96520000D02*
X187960000Y-93980000D01*
D17*
X158750000Y-133350000D02*
X165100000Y-133350000D01*
X152320000Y-131890000D02*
X154750000Y-131890000D01*
X154750000Y-131890000D02*
X156210000Y-133350000D01*
X156210000Y-133350000D02*
X158750000Y-133350000D01*
D16*
X150685000Y-131890000D02*
X152320000Y-131890000D01*
X149860000Y-139065000D02*
X149860000Y-132715000D01*
X149860000Y-132715000D02*
X150685000Y-131890000D01*
X147320000Y-139890000D02*
X149035000Y-139890000D01*
X149035000Y-139890000D02*
X149860000Y-139065000D01*
D17*
X142320000Y-131890000D02*
X139890000Y-131890000D01*
X139890000Y-131890000D02*
X138430000Y-133350000D01*
X138430000Y-133350000D02*
X135890000Y-133350000D01*
X135890000Y-133350000D02*
X129540000Y-133350000D01*
D18*
G36*
X181169831Y-87425480D02*
G01*
X181090902Y-87573145D01*
X181042299Y-87733371D01*
X181025887Y-87900000D01*
X181030000Y-88637500D01*
X181242500Y-88850000D01*
X182830000Y-88850000D01*
X182830000Y-88830000D01*
X182930000Y-88830000D01*
X182930000Y-88850000D01*
X184517500Y-88850000D01*
X184730000Y-88637500D01*
X184734113Y-87900000D01*
X184717701Y-87733371D01*
X184669098Y-87573145D01*
X184590169Y-87425480D01*
X184577465Y-87410000D01*
X190065077Y-87410000D01*
X200880000Y-98224924D01*
X200880001Y-132915075D01*
X196840078Y-136954998D01*
X196692502Y-136954998D01*
X196905000Y-136742500D01*
X196909113Y-135505000D01*
X196892701Y-135338371D01*
X196844098Y-135178145D01*
X196765169Y-135030480D01*
X196658949Y-134901051D01*
X196529520Y-134794831D01*
X196381855Y-134715902D01*
X196221629Y-134667299D01*
X196055000Y-134650887D01*
X194817500Y-134655000D01*
X194605000Y-134867500D01*
X194605000Y-136955000D01*
X194625000Y-136955000D01*
X194625000Y-137055000D01*
X194605000Y-137055000D01*
X194605000Y-137075000D01*
X194505000Y-137075000D01*
X194505000Y-137055000D01*
X192417500Y-137055000D01*
X192205000Y-137267500D01*
X192200887Y-138505000D01*
X192217299Y-138671629D01*
X192265902Y-138831855D01*
X192344831Y-138979520D01*
X192451051Y-139108949D01*
X192580480Y-139215169D01*
X192728145Y-139294098D01*
X192888371Y-139342701D01*
X193055000Y-139359113D01*
X194292500Y-139355000D01*
X194504998Y-139142502D01*
X194504998Y-139290078D01*
X190065077Y-143730000D01*
X104574924Y-143730000D01*
X100274924Y-139430000D01*
X134035887Y-139430000D01*
X134052299Y-139596629D01*
X134100902Y-139756855D01*
X134179831Y-139904520D01*
X134286051Y-140033949D01*
X134415480Y-140140169D01*
X134563145Y-140219098D01*
X134723371Y-140267701D01*
X134890000Y-140284113D01*
X135627500Y-140280000D01*
X135840000Y-140067500D01*
X135840000Y-138480000D01*
X135940000Y-138480000D01*
X135940000Y-140067500D01*
X136152500Y-140280000D01*
X136890000Y-140284113D01*
X137056629Y-140267701D01*
X137216855Y-140219098D01*
X137364520Y-140140169D01*
X137493949Y-140033949D01*
X137600169Y-139904520D01*
X137679098Y-139756855D01*
X137727701Y-139596629D01*
X137744113Y-139430000D01*
X137740000Y-138692500D01*
X137527500Y-138480000D01*
X135940000Y-138480000D01*
X135840000Y-138480000D01*
X134252500Y-138480000D01*
X134040000Y-138692500D01*
X134035887Y-139430000D01*
X100274924Y-139430000D01*
X100135002Y-139290078D01*
X100135002Y-139142502D01*
X100347500Y-139355000D01*
X101585000Y-139359113D01*
X101751629Y-139342701D01*
X101911855Y-139294098D01*
X102059520Y-139215169D01*
X102188949Y-139108949D01*
X102295169Y-138979520D01*
X102374098Y-138831855D01*
X102422701Y-138671629D01*
X102439113Y-138505000D01*
X104030887Y-138505000D01*
X104047299Y-138671629D01*
X104095902Y-138831855D01*
X104174831Y-138979520D01*
X104281051Y-139108949D01*
X104410480Y-139215169D01*
X104558145Y-139294098D01*
X104718371Y-139342701D01*
X104885000Y-139359113D01*
X106122500Y-139355000D01*
X106335000Y-139142500D01*
X106335000Y-137055000D01*
X106435000Y-137055000D01*
X106435000Y-139142500D01*
X106647500Y-139355000D01*
X107885000Y-139359113D01*
X108051629Y-139342701D01*
X108211855Y-139294098D01*
X108359520Y-139215169D01*
X108488949Y-139108949D01*
X108595169Y-138979520D01*
X108674098Y-138831855D01*
X108722701Y-138671629D01*
X108739113Y-138505000D01*
X108735000Y-137267500D01*
X108522500Y-137055000D01*
X106435000Y-137055000D01*
X106335000Y-137055000D01*
X104247500Y-137055000D01*
X104035000Y-137267500D01*
X104030887Y-138505000D01*
X102439113Y-138505000D01*
X102435000Y-137267500D01*
X102222500Y-137055000D01*
X100135000Y-137055000D01*
X100135000Y-137075000D01*
X100035000Y-137075000D01*
X100035000Y-137055000D01*
X100015000Y-137055000D01*
X100015000Y-136955000D01*
X100035000Y-136955000D01*
X100035000Y-134867500D01*
X100135000Y-134867500D01*
X100135000Y-136955000D01*
X102222500Y-136955000D01*
X102435000Y-136742500D01*
X102439113Y-135505000D01*
X104030887Y-135505000D01*
X104035000Y-136742500D01*
X104247500Y-136955000D01*
X106335000Y-136955000D01*
X106335000Y-134867500D01*
X106435000Y-134867500D01*
X106435000Y-136955000D01*
X108522500Y-136955000D01*
X108735000Y-136742500D01*
X108739113Y-135505000D01*
X108722701Y-135338371D01*
X108674098Y-135178145D01*
X108595169Y-135030480D01*
X108488949Y-134901051D01*
X108359520Y-134794831D01*
X108211855Y-134715902D01*
X108051629Y-134667299D01*
X107885000Y-134650887D01*
X106647500Y-134655000D01*
X106435000Y-134867500D01*
X106335000Y-134867500D01*
X106122500Y-134655000D01*
X104885000Y-134650887D01*
X104718371Y-134667299D01*
X104558145Y-134715902D01*
X104410480Y-134794831D01*
X104281051Y-134901051D01*
X104174831Y-135030480D01*
X104095902Y-135178145D01*
X104047299Y-135338371D01*
X104030887Y-135505000D01*
X102439113Y-135505000D01*
X102422701Y-135338371D01*
X102374098Y-135178145D01*
X102295169Y-135030480D01*
X102188949Y-134901051D01*
X102059520Y-134794831D01*
X101911855Y-134715902D01*
X101751629Y-134667299D01*
X101585000Y-134650887D01*
X100347500Y-134655000D01*
X100135000Y-134867500D01*
X100035000Y-134867500D01*
X99822500Y-134655000D01*
X98585000Y-134650887D01*
X98418371Y-134667299D01*
X98258145Y-134715902D01*
X98110480Y-134794831D01*
X97981051Y-134901051D01*
X97874831Y-135030480D01*
X97795902Y-135178145D01*
X97747299Y-135338371D01*
X97730887Y-135505000D01*
X97735000Y-136742500D01*
X97947498Y-136954998D01*
X97799922Y-136954998D01*
X93760000Y-132915077D01*
X93760000Y-122305000D01*
X97730887Y-122305000D01*
X97747299Y-122471629D01*
X97795902Y-122631855D01*
X97874831Y-122779520D01*
X97981051Y-122908949D01*
X98110480Y-123015169D01*
X98258145Y-123094098D01*
X98418371Y-123142701D01*
X98585000Y-123159113D01*
X99822500Y-123155000D01*
X100035000Y-122942500D01*
X100035000Y-120855000D01*
X100135000Y-120855000D01*
X100135000Y-122942500D01*
X100347500Y-123155000D01*
X101585000Y-123159113D01*
X101751629Y-123142701D01*
X101911855Y-123094098D01*
X102059520Y-123015169D01*
X102188949Y-122908949D01*
X102295169Y-122779520D01*
X102374098Y-122631855D01*
X102422701Y-122471629D01*
X102439113Y-122305000D01*
X104030887Y-122305000D01*
X104047299Y-122471629D01*
X104095902Y-122631855D01*
X104174831Y-122779520D01*
X104281051Y-122908949D01*
X104410480Y-123015169D01*
X104558145Y-123094098D01*
X104718371Y-123142701D01*
X104885000Y-123159113D01*
X106122500Y-123155000D01*
X106335000Y-122942500D01*
X106335000Y-120855000D01*
X106435000Y-120855000D01*
X106435000Y-122942500D01*
X106647500Y-123155000D01*
X107885000Y-123159113D01*
X108051629Y-123142701D01*
X108211855Y-123094098D01*
X108359520Y-123015169D01*
X108488949Y-122908949D01*
X108595169Y-122779520D01*
X108674098Y-122631855D01*
X108722701Y-122471629D01*
X108739113Y-122305000D01*
X108735000Y-121067500D01*
X108522500Y-120855000D01*
X106435000Y-120855000D01*
X106335000Y-120855000D01*
X104247500Y-120855000D01*
X104035000Y-121067500D01*
X104030887Y-122305000D01*
X102439113Y-122305000D01*
X102435000Y-121067500D01*
X102222500Y-120855000D01*
X100135000Y-120855000D01*
X100035000Y-120855000D01*
X97947500Y-120855000D01*
X97735000Y-121067500D01*
X97730887Y-122305000D01*
X93760000Y-122305000D01*
X93760000Y-119305000D01*
X97730887Y-119305000D01*
X97735000Y-120542500D01*
X97947500Y-120755000D01*
X100035000Y-120755000D01*
X100035000Y-118667500D01*
X100135000Y-118667500D01*
X100135000Y-120755000D01*
X102222500Y-120755000D01*
X102435000Y-120542500D01*
X102438831Y-119389952D01*
X102605354Y-119440467D01*
X102803679Y-119460000D01*
X102803688Y-119460000D01*
X102869999Y-119466531D01*
X102936310Y-119460000D01*
X104031402Y-119460000D01*
X104035000Y-120542500D01*
X104247500Y-120755000D01*
X106335000Y-120755000D01*
X106335000Y-120735000D01*
X106435000Y-120735000D01*
X106435000Y-120755000D01*
X108522500Y-120755000D01*
X108735000Y-120542500D01*
X108738598Y-119460000D01*
X110330888Y-119460000D01*
X110330888Y-122305000D01*
X110347300Y-122471629D01*
X110395903Y-122631855D01*
X110474832Y-122779519D01*
X110581052Y-122908948D01*
X110710481Y-123015168D01*
X110858145Y-123094097D01*
X111018371Y-123142700D01*
X111185000Y-123159112D01*
X114185000Y-123159112D01*
X114351629Y-123142700D01*
X114511855Y-123094097D01*
X114659519Y-123015168D01*
X114788948Y-122908948D01*
X114895168Y-122779519D01*
X114974097Y-122631855D01*
X115022700Y-122471629D01*
X115039112Y-122305000D01*
X115039112Y-119488300D01*
X116760001Y-121209189D01*
X116760000Y-129473681D01*
X116753468Y-129540000D01*
X116760000Y-129606319D01*
X116760000Y-129606320D01*
X116779533Y-129804645D01*
X116856728Y-130059121D01*
X116913578Y-130165481D01*
X116982085Y-130293649D01*
X117108510Y-130447698D01*
X117108513Y-130447701D01*
X117150787Y-130499212D01*
X117202299Y-130541487D01*
X120918509Y-134257697D01*
X120960787Y-134309213D01*
X121012302Y-134351490D01*
X121166350Y-134477915D01*
X121282503Y-134540000D01*
X116906310Y-134540000D01*
X116839999Y-134533469D01*
X116773688Y-134540000D01*
X116773679Y-134540000D01*
X116575354Y-134559533D01*
X116320878Y-134636728D01*
X116239050Y-134680466D01*
X116086350Y-134762085D01*
X115932301Y-134888510D01*
X115932298Y-134888513D01*
X115880787Y-134930787D01*
X115838513Y-134982298D01*
X115165812Y-135655000D01*
X115039112Y-135655000D01*
X115039112Y-135505000D01*
X115022700Y-135338371D01*
X114974097Y-135178145D01*
X114895168Y-135030481D01*
X114788948Y-134901052D01*
X114659519Y-134794832D01*
X114511855Y-134715903D01*
X114351629Y-134667300D01*
X114185000Y-134650888D01*
X111185000Y-134650888D01*
X111018371Y-134667300D01*
X110858145Y-134715903D01*
X110710481Y-134794832D01*
X110581052Y-134901052D01*
X110474832Y-135030481D01*
X110395903Y-135178145D01*
X110347300Y-135338371D01*
X110330888Y-135505000D01*
X110330888Y-138505000D01*
X110347300Y-138671629D01*
X110395903Y-138831855D01*
X110474832Y-138979519D01*
X110581052Y-139108948D01*
X110710481Y-139215168D01*
X110858145Y-139294097D01*
X111018371Y-139342700D01*
X111185000Y-139359112D01*
X114185000Y-139359112D01*
X114351629Y-139342700D01*
X114511855Y-139294097D01*
X114659519Y-139215168D01*
X114788948Y-139108948D01*
X114895168Y-138979519D01*
X114974097Y-138831855D01*
X115022700Y-138671629D01*
X115039112Y-138505000D01*
X115039112Y-138355000D01*
X115658681Y-138355000D01*
X115725000Y-138361532D01*
X115791319Y-138355000D01*
X115791321Y-138355000D01*
X115989646Y-138335467D01*
X116244122Y-138258272D01*
X116478649Y-138132915D01*
X116684213Y-137964213D01*
X116726491Y-137912697D01*
X117399189Y-137240000D01*
X134059388Y-137240000D01*
X134052299Y-137263371D01*
X134035887Y-137430000D01*
X134040000Y-138167500D01*
X134252500Y-138380000D01*
X135840000Y-138380000D01*
X135840000Y-138360000D01*
X135940000Y-138360000D01*
X135940000Y-138380000D01*
X137527500Y-138380000D01*
X137740000Y-138167500D01*
X137744113Y-137430000D01*
X137727701Y-137263371D01*
X137720612Y-137240000D01*
X140225737Y-137240000D01*
X140232300Y-137306629D01*
X140280903Y-137466855D01*
X140359832Y-137614519D01*
X140466052Y-137743948D01*
X140595481Y-137850168D01*
X140670001Y-137890000D01*
X140595481Y-137929832D01*
X140466052Y-138036052D01*
X140359832Y-138165481D01*
X140280903Y-138313145D01*
X140232300Y-138473371D01*
X140215888Y-138640000D01*
X140215888Y-141140000D01*
X140232300Y-141306629D01*
X140280903Y-141466855D01*
X140359832Y-141614519D01*
X140466052Y-141743948D01*
X140595481Y-141850168D01*
X140743145Y-141929097D01*
X140903371Y-141977700D01*
X140986206Y-141985859D01*
X140989534Y-142019646D01*
X141066729Y-142274122D01*
X141192085Y-142508649D01*
X141318510Y-142662698D01*
X141318514Y-142662702D01*
X141360788Y-142714213D01*
X141412300Y-142756488D01*
X141803505Y-143147692D01*
X141845787Y-143199213D01*
X142051351Y-143367915D01*
X142285878Y-143493272D01*
X142540354Y-143570467D01*
X142738679Y-143590000D01*
X142738681Y-143590000D01*
X142805000Y-143596532D01*
X142871319Y-143590000D01*
X151768681Y-143590000D01*
X151835000Y-143596532D01*
X151901319Y-143590000D01*
X151901321Y-143590000D01*
X152099646Y-143570467D01*
X152354122Y-143493272D01*
X152588649Y-143367915D01*
X152794213Y-143199213D01*
X152836492Y-143147696D01*
X153227696Y-142756491D01*
X153279212Y-142714213D01*
X153447915Y-142508649D01*
X153573272Y-142274122D01*
X153650467Y-142019646D01*
X153653795Y-141985859D01*
X153736629Y-141977700D01*
X153896855Y-141929097D01*
X154044519Y-141850168D01*
X154173948Y-141743948D01*
X154280168Y-141614519D01*
X154359097Y-141466855D01*
X154407700Y-141306629D01*
X154424112Y-141140000D01*
X154424112Y-139430000D01*
X156895887Y-139430000D01*
X156912299Y-139596629D01*
X156960902Y-139756855D01*
X157039831Y-139904520D01*
X157146051Y-140033949D01*
X157275480Y-140140169D01*
X157423145Y-140219098D01*
X157583371Y-140267701D01*
X157750000Y-140284113D01*
X158487500Y-140280000D01*
X158700000Y-140067500D01*
X158700000Y-138480000D01*
X158800000Y-138480000D01*
X158800000Y-140067500D01*
X159012500Y-140280000D01*
X159750000Y-140284113D01*
X159916629Y-140267701D01*
X160076855Y-140219098D01*
X160224520Y-140140169D01*
X160353949Y-140033949D01*
X160460169Y-139904520D01*
X160539098Y-139756855D01*
X160587701Y-139596629D01*
X160604113Y-139430000D01*
X160705887Y-139430000D01*
X160722299Y-139596629D01*
X160770902Y-139756855D01*
X160849831Y-139904520D01*
X160956051Y-140033949D01*
X161085480Y-140140169D01*
X161233145Y-140219098D01*
X161393371Y-140267701D01*
X161560000Y-140284113D01*
X162297500Y-140280000D01*
X162510000Y-140067500D01*
X162510000Y-138480000D01*
X162610000Y-138480000D01*
X162610000Y-140067500D01*
X162822500Y-140280000D01*
X163560000Y-140284113D01*
X163726629Y-140267701D01*
X163886855Y-140219098D01*
X164034520Y-140140169D01*
X164163949Y-140033949D01*
X164270169Y-139904520D01*
X164349098Y-139756855D01*
X164397701Y-139596629D01*
X164414113Y-139430000D01*
X164410000Y-138692500D01*
X164222500Y-138505000D01*
X179600887Y-138505000D01*
X179617299Y-138671629D01*
X179665902Y-138831855D01*
X179744831Y-138979520D01*
X179851051Y-139108949D01*
X179980480Y-139215169D01*
X180128145Y-139294098D01*
X180288371Y-139342701D01*
X180455000Y-139359113D01*
X181692500Y-139355000D01*
X181905000Y-139142500D01*
X181905000Y-137055000D01*
X182005000Y-137055000D01*
X182005000Y-139142500D01*
X182217500Y-139355000D01*
X183455000Y-139359113D01*
X183621629Y-139342701D01*
X183781855Y-139294098D01*
X183929520Y-139215169D01*
X184058949Y-139108949D01*
X184165169Y-138979520D01*
X184244098Y-138831855D01*
X184292701Y-138671629D01*
X184309113Y-138505000D01*
X184305000Y-137267500D01*
X184092500Y-137055000D01*
X182005000Y-137055000D01*
X181905000Y-137055000D01*
X179817500Y-137055000D01*
X179605000Y-137267500D01*
X179600887Y-138505000D01*
X164222500Y-138505000D01*
X164197500Y-138480000D01*
X162610000Y-138480000D01*
X162510000Y-138480000D01*
X160922500Y-138480000D01*
X160710000Y-138692500D01*
X160705887Y-139430000D01*
X160604113Y-139430000D01*
X160600000Y-138692500D01*
X160387500Y-138480000D01*
X158800000Y-138480000D01*
X158700000Y-138480000D01*
X157112500Y-138480000D01*
X156900000Y-138692500D01*
X156895887Y-139430000D01*
X154424112Y-139430000D01*
X154424112Y-138640000D01*
X154407700Y-138473371D01*
X154359097Y-138313145D01*
X154280168Y-138165481D01*
X154173948Y-138036052D01*
X154044519Y-137929832D01*
X153969999Y-137890000D01*
X154044519Y-137850168D01*
X154173948Y-137743948D01*
X154280168Y-137614519D01*
X154359097Y-137466855D01*
X154407700Y-137306629D01*
X154414263Y-137240000D01*
X156919388Y-137240000D01*
X156912299Y-137263371D01*
X156895887Y-137430000D01*
X156900000Y-138167500D01*
X157112500Y-138380000D01*
X158700000Y-138380000D01*
X158700000Y-138360000D01*
X158800000Y-138360000D01*
X158800000Y-138380000D01*
X160387500Y-138380000D01*
X160600000Y-138167500D01*
X160604113Y-137430000D01*
X160587701Y-137263371D01*
X160580612Y-137240000D01*
X160729388Y-137240000D01*
X160722299Y-137263371D01*
X160705887Y-137430000D01*
X160710000Y-138167500D01*
X160922500Y-138380000D01*
X162510000Y-138380000D01*
X162510000Y-138360000D01*
X162610000Y-138360000D01*
X162610000Y-138380000D01*
X164197500Y-138380000D01*
X164410000Y-138167500D01*
X164414113Y-137430000D01*
X164397701Y-137263371D01*
X164390612Y-137240000D01*
X171383681Y-137240000D01*
X171450000Y-137246532D01*
X171516319Y-137240000D01*
X171516321Y-137240000D01*
X171714646Y-137220467D01*
X171969122Y-137143272D01*
X172203649Y-137017915D01*
X172409213Y-136849213D01*
X172451491Y-136797697D01*
X173744188Y-135505000D01*
X179600887Y-135505000D01*
X179605000Y-136742500D01*
X179817500Y-136955000D01*
X181905000Y-136955000D01*
X181905000Y-134867500D01*
X182005000Y-134867500D01*
X182005000Y-136955000D01*
X184092500Y-136955000D01*
X184305000Y-136742500D01*
X184309113Y-135505000D01*
X184292701Y-135338371D01*
X184244098Y-135178145D01*
X184165169Y-135030480D01*
X184058949Y-134901051D01*
X183929520Y-134794831D01*
X183781855Y-134715902D01*
X183621629Y-134667299D01*
X183455000Y-134650887D01*
X182217500Y-134655000D01*
X182005000Y-134867500D01*
X181905000Y-134867500D01*
X181692500Y-134655000D01*
X180455000Y-134650887D01*
X180288371Y-134667299D01*
X180128145Y-134715902D01*
X179980480Y-134794831D01*
X179851051Y-134901051D01*
X179744831Y-135030480D01*
X179665902Y-135178145D01*
X179617299Y-135338371D01*
X179600887Y-135505000D01*
X173744188Y-135505000D01*
X182862697Y-126386491D01*
X182914213Y-126344213D01*
X183082915Y-126138649D01*
X183208272Y-125904122D01*
X183285467Y-125649646D01*
X183305000Y-125451321D01*
X183305000Y-125451312D01*
X183311531Y-125385001D01*
X183305000Y-125318690D01*
X183305000Y-123159112D01*
X183455000Y-123159112D01*
X183621629Y-123142700D01*
X183781855Y-123094097D01*
X183929519Y-123015168D01*
X184058948Y-122908948D01*
X184165168Y-122779519D01*
X184244097Y-122631855D01*
X184292700Y-122471629D01*
X184309112Y-122305000D01*
X184309112Y-120789396D01*
X184418510Y-120922698D01*
X184418514Y-120922702D01*
X184460788Y-120974213D01*
X184512299Y-121016487D01*
X185208504Y-121712692D01*
X185250787Y-121764213D01*
X185390004Y-121878466D01*
X185456350Y-121932915D01*
X185690877Y-122058272D01*
X185750105Y-122076239D01*
X185900888Y-122121978D01*
X185900888Y-122305000D01*
X185917300Y-122471629D01*
X185965903Y-122631855D01*
X186044832Y-122779519D01*
X186151052Y-122908948D01*
X186280481Y-123015168D01*
X186428145Y-123094097D01*
X186588371Y-123142700D01*
X186755000Y-123159112D01*
X186905000Y-123159112D01*
X186905001Y-134650888D01*
X186755000Y-134650888D01*
X186588371Y-134667300D01*
X186428145Y-134715903D01*
X186280481Y-134794832D01*
X186151052Y-134901052D01*
X186044832Y-135030481D01*
X185965903Y-135178145D01*
X185917300Y-135338371D01*
X185900888Y-135505000D01*
X185900888Y-138505000D01*
X185917300Y-138671629D01*
X185965903Y-138831855D01*
X186044832Y-138979519D01*
X186151052Y-139108948D01*
X186280481Y-139215168D01*
X186428145Y-139294097D01*
X186588371Y-139342700D01*
X186755000Y-139359112D01*
X189755000Y-139359112D01*
X189921629Y-139342700D01*
X190081855Y-139294097D01*
X190229519Y-139215168D01*
X190358948Y-139108948D01*
X190465168Y-138979519D01*
X190544097Y-138831855D01*
X190592700Y-138671629D01*
X190609112Y-138505000D01*
X190609112Y-135505000D01*
X192200887Y-135505000D01*
X192205000Y-136742500D01*
X192417500Y-136955000D01*
X194505000Y-136955000D01*
X194505000Y-134867500D01*
X194292500Y-134655000D01*
X193055000Y-134650887D01*
X192888371Y-134667299D01*
X192728145Y-134715902D01*
X192580480Y-134794831D01*
X192451051Y-134901051D01*
X192344831Y-135030480D01*
X192265902Y-135178145D01*
X192217299Y-135338371D01*
X192200887Y-135505000D01*
X190609112Y-135505000D01*
X190592700Y-135338371D01*
X190544097Y-135178145D01*
X190465168Y-135030481D01*
X190358948Y-134901052D01*
X190229519Y-134794832D01*
X190081855Y-134715903D01*
X189921629Y-134667300D01*
X189755000Y-134650888D01*
X189605000Y-134650888D01*
X189605000Y-123159112D01*
X189755000Y-123159112D01*
X189921629Y-123142700D01*
X190081855Y-123094097D01*
X190229519Y-123015168D01*
X190358948Y-122908948D01*
X190465168Y-122779519D01*
X190544097Y-122631855D01*
X190592700Y-122471629D01*
X190609112Y-122305000D01*
X192200887Y-122305000D01*
X192217299Y-122471629D01*
X192265902Y-122631855D01*
X192344831Y-122779520D01*
X192451051Y-122908949D01*
X192580480Y-123015169D01*
X192728145Y-123094098D01*
X192888371Y-123142701D01*
X193055000Y-123159113D01*
X194292500Y-123155000D01*
X194505000Y-122942500D01*
X194505000Y-120855000D01*
X194605000Y-120855000D01*
X194605000Y-122942500D01*
X194817500Y-123155000D01*
X196055000Y-123159113D01*
X196221629Y-123142701D01*
X196381855Y-123094098D01*
X196529520Y-123015169D01*
X196658949Y-122908949D01*
X196765169Y-122779520D01*
X196844098Y-122631855D01*
X196892701Y-122471629D01*
X196909113Y-122305000D01*
X196905000Y-121067500D01*
X196692500Y-120855000D01*
X194605000Y-120855000D01*
X194505000Y-120855000D01*
X192417500Y-120855000D01*
X192205000Y-121067500D01*
X192200887Y-122305000D01*
X190609112Y-122305000D01*
X190609112Y-119305000D01*
X192200887Y-119305000D01*
X192205000Y-120542500D01*
X192417500Y-120755000D01*
X194505000Y-120755000D01*
X194505000Y-118667500D01*
X194605000Y-118667500D01*
X194605000Y-120755000D01*
X196692500Y-120755000D01*
X196905000Y-120542500D01*
X196909113Y-119305000D01*
X196892701Y-119138371D01*
X196844098Y-118978145D01*
X196765169Y-118830480D01*
X196658949Y-118701051D01*
X196529520Y-118594831D01*
X196381855Y-118515902D01*
X196221629Y-118467299D01*
X196055000Y-118450887D01*
X194817500Y-118455000D01*
X194605000Y-118667500D01*
X194505000Y-118667500D01*
X194292500Y-118455000D01*
X193055000Y-118450887D01*
X192888371Y-118467299D01*
X192728145Y-118515902D01*
X192580480Y-118594831D01*
X192451051Y-118701051D01*
X192344831Y-118830480D01*
X192265902Y-118978145D01*
X192217299Y-119138371D01*
X192200887Y-119305000D01*
X190609112Y-119305000D01*
X190592700Y-119138371D01*
X190544097Y-118978145D01*
X190465168Y-118830481D01*
X190358948Y-118701052D01*
X190229519Y-118594832D01*
X190081855Y-118515903D01*
X189921629Y-118467300D01*
X189755000Y-118450888D01*
X186770000Y-118450888D01*
X186770000Y-118176310D01*
X186776531Y-118109999D01*
X186770000Y-118043688D01*
X186770000Y-118043679D01*
X186750467Y-117845354D01*
X186679784Y-117612346D01*
X186763371Y-117637701D01*
X186930000Y-117654113D01*
X188167500Y-117650000D01*
X188380000Y-117437500D01*
X188380000Y-114350000D01*
X188480000Y-114350000D01*
X188480000Y-117437500D01*
X188692500Y-117650000D01*
X189930000Y-117654113D01*
X190096629Y-117637701D01*
X190256855Y-117589098D01*
X190404520Y-117510169D01*
X190533949Y-117403949D01*
X190640169Y-117274520D01*
X190719098Y-117126855D01*
X190767701Y-116966629D01*
X190784113Y-116800000D01*
X190780000Y-114562500D01*
X190567500Y-114350000D01*
X188480000Y-114350000D01*
X188380000Y-114350000D01*
X186292500Y-114350000D01*
X186080000Y-114562500D01*
X186075887Y-116800000D01*
X186082082Y-116862893D01*
X185151491Y-115932303D01*
X185109213Y-115880787D01*
X184903649Y-115712085D01*
X184669122Y-115586728D01*
X184414646Y-115509533D01*
X184216321Y-115490000D01*
X184216319Y-115490000D01*
X184150000Y-115483468D01*
X184083681Y-115490000D01*
X183386726Y-115490000D01*
X183320168Y-115365481D01*
X183213948Y-115236052D01*
X183084519Y-115129832D01*
X182936855Y-115050903D01*
X182776629Y-115002300D01*
X182610000Y-114985888D01*
X180610000Y-114985888D01*
X180443371Y-115002300D01*
X180283145Y-115050903D01*
X180135481Y-115129832D01*
X180052159Y-115198213D01*
X179975082Y-115146711D01*
X179627347Y-115002675D01*
X179287125Y-114935000D01*
X179627347Y-114867325D01*
X179975082Y-114723289D01*
X180052159Y-114671787D01*
X180135481Y-114740168D01*
X180283145Y-114819097D01*
X180443371Y-114867700D01*
X180610000Y-114884112D01*
X182610000Y-114884112D01*
X182776629Y-114867700D01*
X182936855Y-114819097D01*
X183084519Y-114740168D01*
X183213948Y-114633948D01*
X183320168Y-114504519D01*
X183386726Y-114380000D01*
X184083681Y-114380000D01*
X184150000Y-114386532D01*
X184216319Y-114380000D01*
X184216321Y-114380000D01*
X184414646Y-114360467D01*
X184669122Y-114283272D01*
X184903649Y-114157915D01*
X185109213Y-113989213D01*
X185151491Y-113937697D01*
X186078113Y-113011075D01*
X186080000Y-114037500D01*
X186292500Y-114250000D01*
X188380000Y-114250000D01*
X188380000Y-114230000D01*
X188480000Y-114230000D01*
X188480000Y-114250000D01*
X190567500Y-114250000D01*
X190780000Y-114037500D01*
X190784014Y-111854112D01*
X192075888Y-111854112D01*
X192075888Y-116800000D01*
X192092300Y-116966629D01*
X192140903Y-117126855D01*
X192219832Y-117274519D01*
X192326052Y-117403948D01*
X192455481Y-117510168D01*
X192603145Y-117589097D01*
X192763371Y-117637700D01*
X192930000Y-117654112D01*
X195930000Y-117654112D01*
X196096629Y-117637700D01*
X196256855Y-117589097D01*
X196404519Y-117510168D01*
X196533948Y-117403948D01*
X196640168Y-117274519D01*
X196719097Y-117126855D01*
X196767700Y-116966629D01*
X196784112Y-116800000D01*
X196784112Y-111800000D01*
X196767700Y-111633371D01*
X196719097Y-111473145D01*
X196644884Y-111334304D01*
X199027707Y-108951482D01*
X199079212Y-108909213D01*
X199121483Y-108857706D01*
X199121490Y-108857699D01*
X199247915Y-108703650D01*
X199339075Y-108533100D01*
X199373272Y-108469122D01*
X199450467Y-108214646D01*
X199470000Y-108016321D01*
X199470000Y-108016320D01*
X199476532Y-107950001D01*
X199470000Y-107883679D01*
X199470000Y-106676295D01*
X199556989Y-106589306D01*
X199759448Y-106286303D01*
X199898905Y-105949625D01*
X199970000Y-105592209D01*
X199970000Y-105227791D01*
X199898905Y-104870375D01*
X199759448Y-104533697D01*
X199556989Y-104230694D01*
X199299306Y-103973011D01*
X198996303Y-103770552D01*
X198659625Y-103631095D01*
X198302209Y-103560000D01*
X197937791Y-103560000D01*
X197580375Y-103631095D01*
X197243697Y-103770552D01*
X196940694Y-103973011D01*
X196683011Y-104230694D01*
X196480552Y-104533697D01*
X196341095Y-104870375D01*
X196270000Y-105227791D01*
X196270000Y-105592209D01*
X196341095Y-105949625D01*
X196480552Y-106286303D01*
X196683011Y-106589306D01*
X196770001Y-106676296D01*
X196770000Y-107390811D01*
X194284112Y-109876700D01*
X194284112Y-108000000D01*
X194267700Y-107833371D01*
X194219097Y-107673145D01*
X194140168Y-107525481D01*
X194033948Y-107396052D01*
X193904519Y-107289832D01*
X193756855Y-107210903D01*
X193596629Y-107162300D01*
X193430000Y-107145888D01*
X191926401Y-107145888D01*
X191974519Y-107120168D01*
X192103948Y-107013948D01*
X192210168Y-106884519D01*
X192289097Y-106736855D01*
X192337700Y-106576629D01*
X192354112Y-106410000D01*
X192354112Y-104410000D01*
X192337700Y-104243371D01*
X192289097Y-104083145D01*
X192210168Y-103935481D01*
X192103948Y-103806052D01*
X191974519Y-103699832D01*
X191850000Y-103633274D01*
X191850000Y-103376726D01*
X191974519Y-103310168D01*
X192103948Y-103203948D01*
X192210168Y-103074519D01*
X192289097Y-102926855D01*
X192337700Y-102766629D01*
X192354112Y-102600000D01*
X193725887Y-102600000D01*
X193742299Y-102766629D01*
X193790902Y-102926855D01*
X193869831Y-103074520D01*
X193976051Y-103203949D01*
X194105480Y-103310169D01*
X194253145Y-103389098D01*
X194413371Y-103437701D01*
X194580000Y-103454113D01*
X195317500Y-103450000D01*
X195530000Y-103237500D01*
X195530000Y-101650000D01*
X195630000Y-101650000D01*
X195630000Y-103237500D01*
X195842500Y-103450000D01*
X196580000Y-103454113D01*
X196746629Y-103437701D01*
X196906855Y-103389098D01*
X197054520Y-103310169D01*
X197183949Y-103203949D01*
X197290169Y-103074520D01*
X197369098Y-102926855D01*
X197417701Y-102766629D01*
X197434113Y-102600000D01*
X197430000Y-101862500D01*
X197217500Y-101650000D01*
X195630000Y-101650000D01*
X195530000Y-101650000D01*
X193942500Y-101650000D01*
X193730000Y-101862500D01*
X193725887Y-102600000D01*
X192354112Y-102600000D01*
X192354112Y-100600000D01*
X193725887Y-100600000D01*
X193730000Y-101337500D01*
X193942500Y-101550000D01*
X195530000Y-101550000D01*
X195530000Y-99962500D01*
X195630000Y-99962500D01*
X195630000Y-101550000D01*
X197217500Y-101550000D01*
X197430000Y-101337500D01*
X197434113Y-100600000D01*
X197417701Y-100433371D01*
X197369098Y-100273145D01*
X197290169Y-100125480D01*
X197183949Y-99996051D01*
X197054520Y-99889831D01*
X196906855Y-99810902D01*
X196746629Y-99762299D01*
X196580000Y-99745887D01*
X195842500Y-99750000D01*
X195630000Y-99962500D01*
X195530000Y-99962500D01*
X195317500Y-99750000D01*
X194580000Y-99745887D01*
X194413371Y-99762299D01*
X194253145Y-99810902D01*
X194105480Y-99889831D01*
X193976051Y-99996051D01*
X193869831Y-100125480D01*
X193790902Y-100273145D01*
X193742299Y-100433371D01*
X193725887Y-100600000D01*
X192354112Y-100600000D01*
X192337700Y-100433371D01*
X192289097Y-100273145D01*
X192210168Y-100125481D01*
X192103948Y-99996052D01*
X191974519Y-99889832D01*
X191850000Y-99823274D01*
X191850000Y-94046310D01*
X191856531Y-93979999D01*
X191850000Y-93913688D01*
X191850000Y-93913679D01*
X191830467Y-93715354D01*
X191753272Y-93460878D01*
X191627915Y-93226351D01*
X191459212Y-93020787D01*
X191407701Y-92978513D01*
X188961491Y-90532303D01*
X188919213Y-90480787D01*
X188713649Y-90312085D01*
X188479122Y-90186728D01*
X188224646Y-90109533D01*
X188026321Y-90090000D01*
X188026319Y-90090000D01*
X187960000Y-90083468D01*
X187893681Y-90090000D01*
X184710612Y-90090000D01*
X184717701Y-90066629D01*
X184734113Y-89900000D01*
X184730000Y-89162500D01*
X184517500Y-88950000D01*
X182930000Y-88950000D01*
X182930000Y-88970000D01*
X182830000Y-88970000D01*
X182830000Y-88950000D01*
X181242500Y-88950000D01*
X181030000Y-89162500D01*
X181025887Y-89900000D01*
X181042299Y-90066629D01*
X181090902Y-90226855D01*
X181169831Y-90374520D01*
X181276051Y-90503949D01*
X181278908Y-90506293D01*
X181240552Y-90563697D01*
X181101095Y-90900375D01*
X181030000Y-91257791D01*
X181030000Y-91622209D01*
X181101095Y-91979625D01*
X181190307Y-92195000D01*
X180181345Y-92195000D01*
X179552210Y-91565865D01*
X179589097Y-91496855D01*
X179637700Y-91336629D01*
X179654112Y-91170000D01*
X179654112Y-89170000D01*
X179637700Y-89003371D01*
X179589097Y-88843145D01*
X179510168Y-88695481D01*
X179403948Y-88566052D01*
X179274519Y-88459832D01*
X179126855Y-88380903D01*
X178966629Y-88332300D01*
X178800000Y-88315888D01*
X176800000Y-88315888D01*
X176633371Y-88332300D01*
X176473145Y-88380903D01*
X176325481Y-88459832D01*
X176196052Y-88566052D01*
X176193708Y-88568908D01*
X176136303Y-88530552D01*
X175799625Y-88391095D01*
X175442209Y-88320000D01*
X175077791Y-88320000D01*
X174720375Y-88391095D01*
X174383697Y-88530552D01*
X174080694Y-88733011D01*
X173823011Y-88990694D01*
X173803429Y-89020000D01*
X172776492Y-89020000D01*
X172720000Y-89014436D01*
X172494561Y-89036640D01*
X172277784Y-89102398D01*
X172165342Y-89162500D01*
X172078003Y-89209184D01*
X171902893Y-89352893D01*
X171866880Y-89396775D01*
X168136776Y-93126880D01*
X168092894Y-93162893D01*
X168040815Y-93226352D01*
X167949185Y-93338003D01*
X167842399Y-93537785D01*
X167842160Y-93538571D01*
X167696855Y-93460903D01*
X167536629Y-93412300D01*
X167370000Y-93395888D01*
X165370000Y-93395888D01*
X165203371Y-93412300D01*
X165043145Y-93460903D01*
X164895481Y-93539832D01*
X164766052Y-93646052D01*
X164659832Y-93775481D01*
X164580903Y-93923145D01*
X164532300Y-94083371D01*
X164530662Y-94100000D01*
X161766344Y-94100000D01*
X161703125Y-94036781D01*
X161702602Y-94036144D01*
X161795116Y-93923415D01*
X161917939Y-93693629D01*
X161993573Y-93444297D01*
X162019112Y-93185000D01*
X162019112Y-92235000D01*
X161993573Y-91975703D01*
X161917939Y-91726371D01*
X161795116Y-91496585D01*
X161629824Y-91295176D01*
X161428415Y-91129884D01*
X161302211Y-91062426D01*
X161282602Y-90997785D01*
X161175816Y-90798003D01*
X161136421Y-90750000D01*
X161068118Y-90666772D01*
X161068115Y-90666769D01*
X161032107Y-90622893D01*
X160988231Y-90586885D01*
X159798124Y-89396780D01*
X159762107Y-89352893D01*
X159586997Y-89209184D01*
X159387215Y-89102398D01*
X159170439Y-89036640D01*
X159001492Y-89020000D01*
X159001482Y-89020000D01*
X158945000Y-89014437D01*
X158888518Y-89020000D01*
X136581492Y-89020000D01*
X136525000Y-89014436D01*
X136468509Y-89020000D01*
X132136484Y-89020000D01*
X132080000Y-89014437D01*
X132023516Y-89020000D01*
X132023508Y-89020000D01*
X131874164Y-89034709D01*
X131854560Y-89036640D01*
X131788802Y-89056588D01*
X131637785Y-89102398D01*
X131544788Y-89152106D01*
X131438002Y-89209184D01*
X131347517Y-89283444D01*
X131262893Y-89352893D01*
X131226880Y-89396775D01*
X126226776Y-94396880D01*
X126182894Y-94432893D01*
X126146882Y-94476774D01*
X126039185Y-94608003D01*
X125932399Y-94807785D01*
X125866641Y-95024561D01*
X125844437Y-95250000D01*
X125850001Y-95306492D01*
X125850000Y-101123655D01*
X122713656Y-104260000D01*
X122489338Y-104260000D01*
X122487700Y-104243371D01*
X122439097Y-104083145D01*
X122360168Y-103935481D01*
X122253948Y-103806052D01*
X122124519Y-103699832D01*
X121976855Y-103620903D01*
X121816629Y-103572300D01*
X121650000Y-103555888D01*
X119650000Y-103555888D01*
X119483371Y-103572300D01*
X119323145Y-103620903D01*
X119175481Y-103699832D01*
X119062500Y-103792553D01*
X118949519Y-103699832D01*
X118801855Y-103620903D01*
X118641629Y-103572300D01*
X118475000Y-103555888D01*
X116510456Y-103555888D01*
X118586345Y-101480000D01*
X118810662Y-101480000D01*
X118812300Y-101496629D01*
X118860903Y-101656855D01*
X118939832Y-101804519D01*
X119046052Y-101933948D01*
X119175481Y-102040168D01*
X119323145Y-102119097D01*
X119483371Y-102167700D01*
X119650000Y-102184112D01*
X121650000Y-102184112D01*
X121816629Y-102167700D01*
X121976855Y-102119097D01*
X122124519Y-102040168D01*
X122253948Y-101933948D01*
X122360168Y-101804519D01*
X122439097Y-101656855D01*
X122487700Y-101496629D01*
X122504112Y-101330000D01*
X122504112Y-99330000D01*
X122487700Y-99163371D01*
X122439097Y-99003145D01*
X122360168Y-98855481D01*
X122253948Y-98726052D01*
X122124519Y-98619832D01*
X121976855Y-98540903D01*
X121816629Y-98492300D01*
X121650000Y-98475888D01*
X119650000Y-98475888D01*
X119483371Y-98492300D01*
X119323145Y-98540903D01*
X119175481Y-98619832D01*
X119046052Y-98726052D01*
X118939832Y-98855481D01*
X118860903Y-99003145D01*
X118812300Y-99163371D01*
X118810662Y-99180000D01*
X118166481Y-99180000D01*
X118109999Y-99174437D01*
X118053517Y-99180000D01*
X118053508Y-99180000D01*
X117884561Y-99196640D01*
X117667785Y-99262398D01*
X117468003Y-99369184D01*
X117292893Y-99512893D01*
X117256881Y-99556774D01*
X114161776Y-102651880D01*
X114117894Y-102687893D01*
X113982171Y-102853272D01*
X113974185Y-102863003D01*
X113867399Y-103062785D01*
X113801641Y-103279561D01*
X113779437Y-103505000D01*
X113785001Y-103561491D01*
X113785001Y-103570662D01*
X113768371Y-103572300D01*
X113665002Y-103603656D01*
X113561629Y-103572299D01*
X113395000Y-103555887D01*
X112657500Y-103560000D01*
X112445000Y-103772500D01*
X112445000Y-105360000D01*
X112465000Y-105360000D01*
X112465000Y-105460000D01*
X112445000Y-105460000D01*
X112445000Y-107047500D01*
X112657500Y-107260000D01*
X113395000Y-107264113D01*
X113561629Y-107247701D01*
X113665002Y-107216344D01*
X113768371Y-107247700D01*
X113935000Y-107264112D01*
X115616699Y-107264112D01*
X113740812Y-109140000D01*
X102936310Y-109140000D01*
X102869999Y-109133469D01*
X102803688Y-109140000D01*
X102803679Y-109140000D01*
X102605354Y-109159533D01*
X102350878Y-109236728D01*
X102291293Y-109268577D01*
X102116350Y-109362085D01*
X101962301Y-109488510D01*
X101962298Y-109488513D01*
X101910787Y-109530787D01*
X101868513Y-109582298D01*
X100692299Y-110758513D01*
X100640788Y-110800787D01*
X100598514Y-110852298D01*
X100598510Y-110852302D01*
X100472085Y-111006351D01*
X100346729Y-111240878D01*
X100269534Y-111495354D01*
X100243468Y-111760000D01*
X100250001Y-111826329D01*
X100250000Y-116773681D01*
X100243468Y-116840000D01*
X100250000Y-116906319D01*
X100250000Y-116906320D01*
X100269533Y-117104645D01*
X100346728Y-117359121D01*
X100388622Y-117437500D01*
X100472085Y-117593649D01*
X100598510Y-117747698D01*
X100598513Y-117747701D01*
X100640787Y-117799212D01*
X100692299Y-117841487D01*
X101302637Y-118451825D01*
X100347500Y-118455000D01*
X100135000Y-118667500D01*
X100035000Y-118667500D01*
X99822500Y-118455000D01*
X98585000Y-118450887D01*
X98418371Y-118467299D01*
X98258145Y-118515902D01*
X98110480Y-118594831D01*
X97981051Y-118701051D01*
X97874831Y-118830480D01*
X97795902Y-118978145D01*
X97747299Y-119138371D01*
X97730887Y-119305000D01*
X93760000Y-119305000D01*
X93760000Y-106410000D01*
X110540887Y-106410000D01*
X110557299Y-106576629D01*
X110605902Y-106736855D01*
X110684831Y-106884520D01*
X110791051Y-107013949D01*
X110920480Y-107120169D01*
X111068145Y-107199098D01*
X111228371Y-107247701D01*
X111395000Y-107264113D01*
X112132500Y-107260000D01*
X112345000Y-107047500D01*
X112345000Y-105460000D01*
X110757500Y-105460000D01*
X110545000Y-105672500D01*
X110540887Y-106410000D01*
X93760000Y-106410000D01*
X93760000Y-104410000D01*
X110540887Y-104410000D01*
X110545000Y-105147500D01*
X110757500Y-105360000D01*
X112345000Y-105360000D01*
X112345000Y-103772500D01*
X112132500Y-103560000D01*
X111395000Y-103555887D01*
X111228371Y-103572299D01*
X111068145Y-103620902D01*
X110920480Y-103699831D01*
X110791051Y-103806051D01*
X110684831Y-103935480D01*
X110605902Y-104083145D01*
X110557299Y-104243371D01*
X110540887Y-104410000D01*
X93760000Y-104410000D01*
X93760000Y-98224923D01*
X104574924Y-87410000D01*
X181182535Y-87410000D01*
X181169831Y-87425480D01*
G37*
X181169831Y-87425480D02*
X181090902Y-87573145D01*
X181042299Y-87733371D01*
X181025887Y-87900000D01*
X181030000Y-88637500D01*
X181242500Y-88850000D01*
X182830000Y-88850000D01*
X182830000Y-88830000D01*
X182930000Y-88830000D01*
X182930000Y-88850000D01*
X184517500Y-88850000D01*
X184730000Y-88637500D01*
X184734113Y-87900000D01*
X184717701Y-87733371D01*
X184669098Y-87573145D01*
X184590169Y-87425480D01*
X184577465Y-87410000D01*
X190065077Y-87410000D01*
X200880000Y-98224924D01*
X200880001Y-132915075D01*
X196840078Y-136954998D01*
X196692502Y-136954998D01*
X196905000Y-136742500D01*
X196909113Y-135505000D01*
X196892701Y-135338371D01*
X196844098Y-135178145D01*
X196765169Y-135030480D01*
X196658949Y-134901051D01*
X196529520Y-134794831D01*
X196381855Y-134715902D01*
X196221629Y-134667299D01*
X196055000Y-134650887D01*
X194817500Y-134655000D01*
X194605000Y-134867500D01*
X194605000Y-136955000D01*
X194625000Y-136955000D01*
X194625000Y-137055000D01*
X194605000Y-137055000D01*
X194605000Y-137075000D01*
X194505000Y-137075000D01*
X194505000Y-137055000D01*
X192417500Y-137055000D01*
X192205000Y-137267500D01*
X192200887Y-138505000D01*
X192217299Y-138671629D01*
X192265902Y-138831855D01*
X192344831Y-138979520D01*
X192451051Y-139108949D01*
X192580480Y-139215169D01*
X192728145Y-139294098D01*
X192888371Y-139342701D01*
X193055000Y-139359113D01*
X194292500Y-139355000D01*
X194504998Y-139142502D01*
X194504998Y-139290078D01*
X190065077Y-143730000D01*
X104574924Y-143730000D01*
X100274924Y-139430000D01*
X134035887Y-139430000D01*
X134052299Y-139596629D01*
X134100902Y-139756855D01*
X134179831Y-139904520D01*
X134286051Y-140033949D01*
X134415480Y-140140169D01*
X134563145Y-140219098D01*
X134723371Y-140267701D01*
X134890000Y-140284113D01*
X135627500Y-140280000D01*
X135840000Y-140067500D01*
X135840000Y-138480000D01*
X135940000Y-138480000D01*
X135940000Y-140067500D01*
X136152500Y-140280000D01*
X136890000Y-140284113D01*
X137056629Y-140267701D01*
X137216855Y-140219098D01*
X137364520Y-140140169D01*
X137493949Y-140033949D01*
X137600169Y-139904520D01*
X137679098Y-139756855D01*
X137727701Y-139596629D01*
X137744113Y-139430000D01*
X137740000Y-138692500D01*
X137527500Y-138480000D01*
X135940000Y-138480000D01*
X135840000Y-138480000D01*
X134252500Y-138480000D01*
X134040000Y-138692500D01*
X134035887Y-139430000D01*
X100274924Y-139430000D01*
X100135002Y-139290078D01*
X100135002Y-139142502D01*
X100347500Y-139355000D01*
X101585000Y-139359113D01*
X101751629Y-139342701D01*
X101911855Y-139294098D01*
X102059520Y-139215169D01*
X102188949Y-139108949D01*
X102295169Y-138979520D01*
X102374098Y-138831855D01*
X102422701Y-138671629D01*
X102439113Y-138505000D01*
X104030887Y-138505000D01*
X104047299Y-138671629D01*
X104095902Y-138831855D01*
X104174831Y-138979520D01*
X104281051Y-139108949D01*
X104410480Y-139215169D01*
X104558145Y-139294098D01*
X104718371Y-139342701D01*
X104885000Y-139359113D01*
X106122500Y-139355000D01*
X106335000Y-139142500D01*
X106335000Y-137055000D01*
X106435000Y-137055000D01*
X106435000Y-139142500D01*
X106647500Y-139355000D01*
X107885000Y-139359113D01*
X108051629Y-139342701D01*
X108211855Y-139294098D01*
X108359520Y-139215169D01*
X108488949Y-139108949D01*
X108595169Y-138979520D01*
X108674098Y-138831855D01*
X108722701Y-138671629D01*
X108739113Y-138505000D01*
X108735000Y-137267500D01*
X108522500Y-137055000D01*
X106435000Y-137055000D01*
X106335000Y-137055000D01*
X104247500Y-137055000D01*
X104035000Y-137267500D01*
X104030887Y-138505000D01*
X102439113Y-138505000D01*
X102435000Y-137267500D01*
X102222500Y-137055000D01*
X100135000Y-137055000D01*
X100135000Y-137075000D01*
X100035000Y-137075000D01*
X100035000Y-137055000D01*
X100015000Y-137055000D01*
X100015000Y-136955000D01*
X100035000Y-136955000D01*
X100035000Y-134867500D01*
X100135000Y-134867500D01*
X100135000Y-136955000D01*
X102222500Y-136955000D01*
X102435000Y-136742500D01*
X102439113Y-135505000D01*
X104030887Y-135505000D01*
X104035000Y-136742500D01*
X104247500Y-136955000D01*
X106335000Y-136955000D01*
X106335000Y-134867500D01*
X106435000Y-134867500D01*
X106435000Y-136955000D01*
X108522500Y-136955000D01*
X108735000Y-136742500D01*
X108739113Y-135505000D01*
X108722701Y-135338371D01*
X108674098Y-135178145D01*
X108595169Y-135030480D01*
X108488949Y-134901051D01*
X108359520Y-134794831D01*
X108211855Y-134715902D01*
X108051629Y-134667299D01*
X107885000Y-134650887D01*
X106647500Y-134655000D01*
X106435000Y-134867500D01*
X106335000Y-134867500D01*
X106122500Y-134655000D01*
X104885000Y-134650887D01*
X104718371Y-134667299D01*
X104558145Y-134715902D01*
X104410480Y-134794831D01*
X104281051Y-134901051D01*
X104174831Y-135030480D01*
X104095902Y-135178145D01*
X104047299Y-135338371D01*
X104030887Y-135505000D01*
X102439113Y-135505000D01*
X102422701Y-135338371D01*
X102374098Y-135178145D01*
X102295169Y-135030480D01*
X102188949Y-134901051D01*
X102059520Y-134794831D01*
X101911855Y-134715902D01*
X101751629Y-134667299D01*
X101585000Y-134650887D01*
X100347500Y-134655000D01*
X100135000Y-134867500D01*
X100035000Y-134867500D01*
X99822500Y-134655000D01*
X98585000Y-134650887D01*
X98418371Y-134667299D01*
X98258145Y-134715902D01*
X98110480Y-134794831D01*
X97981051Y-134901051D01*
X97874831Y-135030480D01*
X97795902Y-135178145D01*
X97747299Y-135338371D01*
X97730887Y-135505000D01*
X97735000Y-136742500D01*
X97947498Y-136954998D01*
X97799922Y-136954998D01*
X93760000Y-132915077D01*
X93760000Y-122305000D01*
X97730887Y-122305000D01*
X97747299Y-122471629D01*
X97795902Y-122631855D01*
X97874831Y-122779520D01*
X97981051Y-122908949D01*
X98110480Y-123015169D01*
X98258145Y-123094098D01*
X98418371Y-123142701D01*
X98585000Y-123159113D01*
X99822500Y-123155000D01*
X100035000Y-122942500D01*
X100035000Y-120855000D01*
X100135000Y-120855000D01*
X100135000Y-122942500D01*
X100347500Y-123155000D01*
X101585000Y-123159113D01*
X101751629Y-123142701D01*
X101911855Y-123094098D01*
X102059520Y-123015169D01*
X102188949Y-122908949D01*
X102295169Y-122779520D01*
X102374098Y-122631855D01*
X102422701Y-122471629D01*
X102439113Y-122305000D01*
X104030887Y-122305000D01*
X104047299Y-122471629D01*
X104095902Y-122631855D01*
X104174831Y-122779520D01*
X104281051Y-122908949D01*
X104410480Y-123015169D01*
X104558145Y-123094098D01*
X104718371Y-123142701D01*
X104885000Y-123159113D01*
X106122500Y-123155000D01*
X106335000Y-122942500D01*
X106335000Y-120855000D01*
X106435000Y-120855000D01*
X106435000Y-122942500D01*
X106647500Y-123155000D01*
X107885000Y-123159113D01*
X108051629Y-123142701D01*
X108211855Y-123094098D01*
X108359520Y-123015169D01*
X108488949Y-122908949D01*
X108595169Y-122779520D01*
X108674098Y-122631855D01*
X108722701Y-122471629D01*
X108739113Y-122305000D01*
X108735000Y-121067500D01*
X108522500Y-120855000D01*
X106435000Y-120855000D01*
X106335000Y-120855000D01*
X104247500Y-120855000D01*
X104035000Y-121067500D01*
X104030887Y-122305000D01*
X102439113Y-122305000D01*
X102435000Y-121067500D01*
X102222500Y-120855000D01*
X100135000Y-120855000D01*
X100035000Y-120855000D01*
X97947500Y-120855000D01*
X97735000Y-121067500D01*
X97730887Y-122305000D01*
X93760000Y-122305000D01*
X93760000Y-119305000D01*
X97730887Y-119305000D01*
X97735000Y-120542500D01*
X97947500Y-120755000D01*
X100035000Y-120755000D01*
X100035000Y-118667500D01*
X100135000Y-118667500D01*
X100135000Y-120755000D01*
X102222500Y-120755000D01*
X102435000Y-120542500D01*
X102438831Y-119389952D01*
X102605354Y-119440467D01*
X102803679Y-119460000D01*
X102803688Y-119460000D01*
X102869999Y-119466531D01*
X102936310Y-119460000D01*
X104031402Y-119460000D01*
X104035000Y-120542500D01*
X104247500Y-120755000D01*
X106335000Y-120755000D01*
X106335000Y-120735000D01*
X106435000Y-120735000D01*
X106435000Y-120755000D01*
X108522500Y-120755000D01*
X108735000Y-120542500D01*
X108738598Y-119460000D01*
X110330888Y-119460000D01*
X110330888Y-122305000D01*
X110347300Y-122471629D01*
X110395903Y-122631855D01*
X110474832Y-122779519D01*
X110581052Y-122908948D01*
X110710481Y-123015168D01*
X110858145Y-123094097D01*
X111018371Y-123142700D01*
X111185000Y-123159112D01*
X114185000Y-123159112D01*
X114351629Y-123142700D01*
X114511855Y-123094097D01*
X114659519Y-123015168D01*
X114788948Y-122908948D01*
X114895168Y-122779519D01*
X114974097Y-122631855D01*
X115022700Y-122471629D01*
X115039112Y-122305000D01*
X115039112Y-119488300D01*
X116760001Y-121209189D01*
X116760000Y-129473681D01*
X116753468Y-129540000D01*
X116760000Y-129606319D01*
X116760000Y-129606320D01*
X116779533Y-129804645D01*
X116856728Y-130059121D01*
X116913578Y-130165481D01*
X116982085Y-130293649D01*
X117108510Y-130447698D01*
X117108513Y-130447701D01*
X117150787Y-130499212D01*
X117202299Y-130541487D01*
X120918509Y-134257697D01*
X120960787Y-134309213D01*
X121012302Y-134351490D01*
X121166350Y-134477915D01*
X121282503Y-134540000D01*
X116906310Y-134540000D01*
X116839999Y-134533469D01*
X116773688Y-134540000D01*
X116773679Y-134540000D01*
X116575354Y-134559533D01*
X116320878Y-134636728D01*
X116239050Y-134680466D01*
X116086350Y-134762085D01*
X115932301Y-134888510D01*
X115932298Y-134888513D01*
X115880787Y-134930787D01*
X115838513Y-134982298D01*
X115165812Y-135655000D01*
X115039112Y-135655000D01*
X115039112Y-135505000D01*
X115022700Y-135338371D01*
X114974097Y-135178145D01*
X114895168Y-135030481D01*
X114788948Y-134901052D01*
X114659519Y-134794832D01*
X114511855Y-134715903D01*
X114351629Y-134667300D01*
X114185000Y-134650888D01*
X111185000Y-134650888D01*
X111018371Y-134667300D01*
X110858145Y-134715903D01*
X110710481Y-134794832D01*
X110581052Y-134901052D01*
X110474832Y-135030481D01*
X110395903Y-135178145D01*
X110347300Y-135338371D01*
X110330888Y-135505000D01*
X110330888Y-138505000D01*
X110347300Y-138671629D01*
X110395903Y-138831855D01*
X110474832Y-138979519D01*
X110581052Y-139108948D01*
X110710481Y-139215168D01*
X110858145Y-139294097D01*
X111018371Y-139342700D01*
X111185000Y-139359112D01*
X114185000Y-139359112D01*
X114351629Y-139342700D01*
X114511855Y-139294097D01*
X114659519Y-139215168D01*
X114788948Y-139108948D01*
X114895168Y-138979519D01*
X114974097Y-138831855D01*
X115022700Y-138671629D01*
X115039112Y-138505000D01*
X115039112Y-138355000D01*
X115658681Y-138355000D01*
X115725000Y-138361532D01*
X115791319Y-138355000D01*
X115791321Y-138355000D01*
X115989646Y-138335467D01*
X116244122Y-138258272D01*
X116478649Y-138132915D01*
X116684213Y-137964213D01*
X116726491Y-137912697D01*
X117399189Y-137240000D01*
X134059388Y-137240000D01*
X134052299Y-137263371D01*
X134035887Y-137430000D01*
X134040000Y-138167500D01*
X134252500Y-138380000D01*
X135840000Y-138380000D01*
X135840000Y-138360000D01*
X135940000Y-138360000D01*
X135940000Y-138380000D01*
X137527500Y-138380000D01*
X137740000Y-138167500D01*
X137744113Y-137430000D01*
X137727701Y-137263371D01*
X137720612Y-137240000D01*
X140225737Y-137240000D01*
X140232300Y-137306629D01*
X140280903Y-137466855D01*
X140359832Y-137614519D01*
X140466052Y-137743948D01*
X140595481Y-137850168D01*
X140670001Y-137890000D01*
X140595481Y-137929832D01*
X140466052Y-138036052D01*
X140359832Y-138165481D01*
X140280903Y-138313145D01*
X140232300Y-138473371D01*
X140215888Y-138640000D01*
X140215888Y-141140000D01*
X140232300Y-141306629D01*
X140280903Y-141466855D01*
X140359832Y-141614519D01*
X140466052Y-141743948D01*
X140595481Y-141850168D01*
X140743145Y-141929097D01*
X140903371Y-141977700D01*
X140986206Y-141985859D01*
X140989534Y-142019646D01*
X141066729Y-142274122D01*
X141192085Y-142508649D01*
X141318510Y-142662698D01*
X141318514Y-142662702D01*
X141360788Y-142714213D01*
X141412300Y-142756488D01*
X141803505Y-143147692D01*
X141845787Y-143199213D01*
X142051351Y-143367915D01*
X142285878Y-143493272D01*
X142540354Y-143570467D01*
X142738679Y-143590000D01*
X142738681Y-143590000D01*
X142805000Y-143596532D01*
X142871319Y-143590000D01*
X151768681Y-143590000D01*
X151835000Y-143596532D01*
X151901319Y-143590000D01*
X151901321Y-143590000D01*
X152099646Y-143570467D01*
X152354122Y-143493272D01*
X152588649Y-143367915D01*
X152794213Y-143199213D01*
X152836492Y-143147696D01*
X153227696Y-142756491D01*
X153279212Y-142714213D01*
X153447915Y-142508649D01*
X153573272Y-142274122D01*
X153650467Y-142019646D01*
X153653795Y-141985859D01*
X153736629Y-141977700D01*
X153896855Y-141929097D01*
X154044519Y-141850168D01*
X154173948Y-141743948D01*
X154280168Y-141614519D01*
X154359097Y-141466855D01*
X154407700Y-141306629D01*
X154424112Y-141140000D01*
X154424112Y-139430000D01*
X156895887Y-139430000D01*
X156912299Y-139596629D01*
X156960902Y-139756855D01*
X157039831Y-139904520D01*
X157146051Y-140033949D01*
X157275480Y-140140169D01*
X157423145Y-140219098D01*
X157583371Y-140267701D01*
X157750000Y-140284113D01*
X158487500Y-140280000D01*
X158700000Y-140067500D01*
X158700000Y-138480000D01*
X158800000Y-138480000D01*
X158800000Y-140067500D01*
X159012500Y-140280000D01*
X159750000Y-140284113D01*
X159916629Y-140267701D01*
X160076855Y-140219098D01*
X160224520Y-140140169D01*
X160353949Y-140033949D01*
X160460169Y-139904520D01*
X160539098Y-139756855D01*
X160587701Y-139596629D01*
X160604113Y-139430000D01*
X160705887Y-139430000D01*
X160722299Y-139596629D01*
X160770902Y-139756855D01*
X160849831Y-139904520D01*
X160956051Y-140033949D01*
X161085480Y-140140169D01*
X161233145Y-140219098D01*
X161393371Y-140267701D01*
X161560000Y-140284113D01*
X162297500Y-140280000D01*
X162510000Y-140067500D01*
X162510000Y-138480000D01*
X162610000Y-138480000D01*
X162610000Y-140067500D01*
X162822500Y-140280000D01*
X163560000Y-140284113D01*
X163726629Y-140267701D01*
X163886855Y-140219098D01*
X164034520Y-140140169D01*
X164163949Y-140033949D01*
X164270169Y-139904520D01*
X164349098Y-139756855D01*
X164397701Y-139596629D01*
X164414113Y-139430000D01*
X164410000Y-138692500D01*
X164222500Y-138505000D01*
X179600887Y-138505000D01*
X179617299Y-138671629D01*
X179665902Y-138831855D01*
X179744831Y-138979520D01*
X179851051Y-139108949D01*
X179980480Y-139215169D01*
X180128145Y-139294098D01*
X180288371Y-139342701D01*
X180455000Y-139359113D01*
X181692500Y-139355000D01*
X181905000Y-139142500D01*
X181905000Y-137055000D01*
X182005000Y-137055000D01*
X182005000Y-139142500D01*
X182217500Y-139355000D01*
X183455000Y-139359113D01*
X183621629Y-139342701D01*
X183781855Y-139294098D01*
X183929520Y-139215169D01*
X184058949Y-139108949D01*
X184165169Y-138979520D01*
X184244098Y-138831855D01*
X184292701Y-138671629D01*
X184309113Y-138505000D01*
X184305000Y-137267500D01*
X184092500Y-137055000D01*
X182005000Y-137055000D01*
X181905000Y-137055000D01*
X179817500Y-137055000D01*
X179605000Y-137267500D01*
X179600887Y-138505000D01*
X164222500Y-138505000D01*
X164197500Y-138480000D01*
X162610000Y-138480000D01*
X162510000Y-138480000D01*
X160922500Y-138480000D01*
X160710000Y-138692500D01*
X160705887Y-139430000D01*
X160604113Y-139430000D01*
X160600000Y-138692500D01*
X160387500Y-138480000D01*
X158800000Y-138480000D01*
X158700000Y-138480000D01*
X157112500Y-138480000D01*
X156900000Y-138692500D01*
X156895887Y-139430000D01*
X154424112Y-139430000D01*
X154424112Y-138640000D01*
X154407700Y-138473371D01*
X154359097Y-138313145D01*
X154280168Y-138165481D01*
X154173948Y-138036052D01*
X154044519Y-137929832D01*
X153969999Y-137890000D01*
X154044519Y-137850168D01*
X154173948Y-137743948D01*
X154280168Y-137614519D01*
X154359097Y-137466855D01*
X154407700Y-137306629D01*
X154414263Y-137240000D01*
X156919388Y-137240000D01*
X156912299Y-137263371D01*
X156895887Y-137430000D01*
X156900000Y-138167500D01*
X157112500Y-138380000D01*
X158700000Y-138380000D01*
X158700000Y-138360000D01*
X158800000Y-138360000D01*
X158800000Y-138380000D01*
X160387500Y-138380000D01*
X160600000Y-138167500D01*
X160604113Y-137430000D01*
X160587701Y-137263371D01*
X160580612Y-137240000D01*
X160729388Y-137240000D01*
X160722299Y-137263371D01*
X160705887Y-137430000D01*
X160710000Y-138167500D01*
X160922500Y-138380000D01*
X162510000Y-138380000D01*
X162510000Y-138360000D01*
X162610000Y-138360000D01*
X162610000Y-138380000D01*
X164197500Y-138380000D01*
X164410000Y-138167500D01*
X164414113Y-137430000D01*
X164397701Y-137263371D01*
X164390612Y-137240000D01*
X171383681Y-137240000D01*
X171450000Y-137246532D01*
X171516319Y-137240000D01*
X171516321Y-137240000D01*
X171714646Y-137220467D01*
X171969122Y-137143272D01*
X172203649Y-137017915D01*
X172409213Y-136849213D01*
X172451491Y-136797697D01*
X173744188Y-135505000D01*
X179600887Y-135505000D01*
X179605000Y-136742500D01*
X179817500Y-136955000D01*
X181905000Y-136955000D01*
X181905000Y-134867500D01*
X182005000Y-134867500D01*
X182005000Y-136955000D01*
X184092500Y-136955000D01*
X184305000Y-136742500D01*
X184309113Y-135505000D01*
X184292701Y-135338371D01*
X184244098Y-135178145D01*
X184165169Y-135030480D01*
X184058949Y-134901051D01*
X183929520Y-134794831D01*
X183781855Y-134715902D01*
X183621629Y-134667299D01*
X183455000Y-134650887D01*
X182217500Y-134655000D01*
X182005000Y-134867500D01*
X181905000Y-134867500D01*
X181692500Y-134655000D01*
X180455000Y-134650887D01*
X180288371Y-134667299D01*
X180128145Y-134715902D01*
X179980480Y-134794831D01*
X179851051Y-134901051D01*
X179744831Y-135030480D01*
X179665902Y-135178145D01*
X179617299Y-135338371D01*
X179600887Y-135505000D01*
X173744188Y-135505000D01*
X182862697Y-126386491D01*
X182914213Y-126344213D01*
X183082915Y-126138649D01*
X183208272Y-125904122D01*
X183285467Y-125649646D01*
X183305000Y-125451321D01*
X183305000Y-125451312D01*
X183311531Y-125385001D01*
X183305000Y-125318690D01*
X183305000Y-123159112D01*
X183455000Y-123159112D01*
X183621629Y-123142700D01*
X183781855Y-123094097D01*
X183929519Y-123015168D01*
X184058948Y-122908948D01*
X184165168Y-122779519D01*
X184244097Y-122631855D01*
X184292700Y-122471629D01*
X184309112Y-122305000D01*
X184309112Y-120789396D01*
X184418510Y-120922698D01*
X184418514Y-120922702D01*
X184460788Y-120974213D01*
X184512299Y-121016487D01*
X185208504Y-121712692D01*
X185250787Y-121764213D01*
X185390004Y-121878466D01*
X185456350Y-121932915D01*
X185690877Y-122058272D01*
X185750105Y-122076239D01*
X185900888Y-122121978D01*
X185900888Y-122305000D01*
X185917300Y-122471629D01*
X185965903Y-122631855D01*
X186044832Y-122779519D01*
X186151052Y-122908948D01*
X186280481Y-123015168D01*
X186428145Y-123094097D01*
X186588371Y-123142700D01*
X186755000Y-123159112D01*
X186905000Y-123159112D01*
X186905001Y-134650888D01*
X186755000Y-134650888D01*
X186588371Y-134667300D01*
X186428145Y-134715903D01*
X186280481Y-134794832D01*
X186151052Y-134901052D01*
X186044832Y-135030481D01*
X185965903Y-135178145D01*
X185917300Y-135338371D01*
X185900888Y-135505000D01*
X185900888Y-138505000D01*
X185917300Y-138671629D01*
X185965903Y-138831855D01*
X186044832Y-138979519D01*
X186151052Y-139108948D01*
X186280481Y-139215168D01*
X186428145Y-139294097D01*
X186588371Y-139342700D01*
X186755000Y-139359112D01*
X189755000Y-139359112D01*
X189921629Y-139342700D01*
X190081855Y-139294097D01*
X190229519Y-139215168D01*
X190358948Y-139108948D01*
X190465168Y-138979519D01*
X190544097Y-138831855D01*
X190592700Y-138671629D01*
X190609112Y-138505000D01*
X190609112Y-135505000D01*
X192200887Y-135505000D01*
X192205000Y-136742500D01*
X192417500Y-136955000D01*
X194505000Y-136955000D01*
X194505000Y-134867500D01*
X194292500Y-134655000D01*
X193055000Y-134650887D01*
X192888371Y-134667299D01*
X192728145Y-134715902D01*
X192580480Y-134794831D01*
X192451051Y-134901051D01*
X192344831Y-135030480D01*
X192265902Y-135178145D01*
X192217299Y-135338371D01*
X192200887Y-135505000D01*
X190609112Y-135505000D01*
X190592700Y-135338371D01*
X190544097Y-135178145D01*
X190465168Y-135030481D01*
X190358948Y-134901052D01*
X190229519Y-134794832D01*
X190081855Y-134715903D01*
X189921629Y-134667300D01*
X189755000Y-134650888D01*
X189605000Y-134650888D01*
X189605000Y-123159112D01*
X189755000Y-123159112D01*
X189921629Y-123142700D01*
X190081855Y-123094097D01*
X190229519Y-123015168D01*
X190358948Y-122908948D01*
X190465168Y-122779519D01*
X190544097Y-122631855D01*
X190592700Y-122471629D01*
X190609112Y-122305000D01*
X192200887Y-122305000D01*
X192217299Y-122471629D01*
X192265902Y-122631855D01*
X192344831Y-122779520D01*
X192451051Y-122908949D01*
X192580480Y-123015169D01*
X192728145Y-123094098D01*
X192888371Y-123142701D01*
X193055000Y-123159113D01*
X194292500Y-123155000D01*
X194505000Y-122942500D01*
X194505000Y-120855000D01*
X194605000Y-120855000D01*
X194605000Y-122942500D01*
X194817500Y-123155000D01*
X196055000Y-123159113D01*
X196221629Y-123142701D01*
X196381855Y-123094098D01*
X196529520Y-123015169D01*
X196658949Y-122908949D01*
X196765169Y-122779520D01*
X196844098Y-122631855D01*
X196892701Y-122471629D01*
X196909113Y-122305000D01*
X196905000Y-121067500D01*
X196692500Y-120855000D01*
X194605000Y-120855000D01*
X194505000Y-120855000D01*
X192417500Y-120855000D01*
X192205000Y-121067500D01*
X192200887Y-122305000D01*
X190609112Y-122305000D01*
X190609112Y-119305000D01*
X192200887Y-119305000D01*
X192205000Y-120542500D01*
X192417500Y-120755000D01*
X194505000Y-120755000D01*
X194505000Y-118667500D01*
X194605000Y-118667500D01*
X194605000Y-120755000D01*
X196692500Y-120755000D01*
X196905000Y-120542500D01*
X196909113Y-119305000D01*
X196892701Y-119138371D01*
X196844098Y-118978145D01*
X196765169Y-118830480D01*
X196658949Y-118701051D01*
X196529520Y-118594831D01*
X196381855Y-118515902D01*
X196221629Y-118467299D01*
X196055000Y-118450887D01*
X194817500Y-118455000D01*
X194605000Y-118667500D01*
X194505000Y-118667500D01*
X194292500Y-118455000D01*
X193055000Y-118450887D01*
X192888371Y-118467299D01*
X192728145Y-118515902D01*
X192580480Y-118594831D01*
X192451051Y-118701051D01*
X192344831Y-118830480D01*
X192265902Y-118978145D01*
X192217299Y-119138371D01*
X192200887Y-119305000D01*
X190609112Y-119305000D01*
X190592700Y-119138371D01*
X190544097Y-118978145D01*
X190465168Y-118830481D01*
X190358948Y-118701052D01*
X190229519Y-118594832D01*
X190081855Y-118515903D01*
X189921629Y-118467300D01*
X189755000Y-118450888D01*
X186770000Y-118450888D01*
X186770000Y-118176310D01*
X186776531Y-118109999D01*
X186770000Y-118043688D01*
X186770000Y-118043679D01*
X186750467Y-117845354D01*
X186679784Y-117612346D01*
X186763371Y-117637701D01*
X186930000Y-117654113D01*
X188167500Y-117650000D01*
X188380000Y-117437500D01*
X188380000Y-114350000D01*
X188480000Y-114350000D01*
X188480000Y-117437500D01*
X188692500Y-117650000D01*
X189930000Y-117654113D01*
X190096629Y-117637701D01*
X190256855Y-117589098D01*
X190404520Y-117510169D01*
X190533949Y-117403949D01*
X190640169Y-117274520D01*
X190719098Y-117126855D01*
X190767701Y-116966629D01*
X190784113Y-116800000D01*
X190780000Y-114562500D01*
X190567500Y-114350000D01*
X188480000Y-114350000D01*
X188380000Y-114350000D01*
X186292500Y-114350000D01*
X186080000Y-114562500D01*
X186075887Y-116800000D01*
X186082082Y-116862893D01*
X185151491Y-115932303D01*
X185109213Y-115880787D01*
X184903649Y-115712085D01*
X184669122Y-115586728D01*
X184414646Y-115509533D01*
X184216321Y-115490000D01*
X184216319Y-115490000D01*
X184150000Y-115483468D01*
X184083681Y-115490000D01*
X183386726Y-115490000D01*
X183320168Y-115365481D01*
X183213948Y-115236052D01*
X183084519Y-115129832D01*
X182936855Y-115050903D01*
X182776629Y-115002300D01*
X182610000Y-114985888D01*
X180610000Y-114985888D01*
X180443371Y-115002300D01*
X180283145Y-115050903D01*
X180135481Y-115129832D01*
X180052159Y-115198213D01*
X179975082Y-115146711D01*
X179627347Y-115002675D01*
X179287125Y-114935000D01*
X179627347Y-114867325D01*
X179975082Y-114723289D01*
X180052159Y-114671787D01*
X180135481Y-114740168D01*
X180283145Y-114819097D01*
X180443371Y-114867700D01*
X180610000Y-114884112D01*
X182610000Y-114884112D01*
X182776629Y-114867700D01*
X182936855Y-114819097D01*
X183084519Y-114740168D01*
X183213948Y-114633948D01*
X183320168Y-114504519D01*
X183386726Y-114380000D01*
X184083681Y-114380000D01*
X184150000Y-114386532D01*
X184216319Y-114380000D01*
X184216321Y-114380000D01*
X184414646Y-114360467D01*
X184669122Y-114283272D01*
X184903649Y-114157915D01*
X185109213Y-113989213D01*
X185151491Y-113937697D01*
X186078113Y-113011075D01*
X186080000Y-114037500D01*
X186292500Y-114250000D01*
X188380000Y-114250000D01*
X188380000Y-114230000D01*
X188480000Y-114230000D01*
X188480000Y-114250000D01*
X190567500Y-114250000D01*
X190780000Y-114037500D01*
X190784014Y-111854112D01*
X192075888Y-111854112D01*
X192075888Y-116800000D01*
X192092300Y-116966629D01*
X192140903Y-117126855D01*
X192219832Y-117274519D01*
X192326052Y-117403948D01*
X192455481Y-117510168D01*
X192603145Y-117589097D01*
X192763371Y-117637700D01*
X192930000Y-117654112D01*
X195930000Y-117654112D01*
X196096629Y-117637700D01*
X196256855Y-117589097D01*
X196404519Y-117510168D01*
X196533948Y-117403948D01*
X196640168Y-117274519D01*
X196719097Y-117126855D01*
X196767700Y-116966629D01*
X196784112Y-116800000D01*
X196784112Y-111800000D01*
X196767700Y-111633371D01*
X196719097Y-111473145D01*
X196644884Y-111334304D01*
X199027707Y-108951482D01*
X199079212Y-108909213D01*
X199121483Y-108857706D01*
X199121490Y-108857699D01*
X199247915Y-108703650D01*
X199339075Y-108533100D01*
X199373272Y-108469122D01*
X199450467Y-108214646D01*
X199470000Y-108016321D01*
X199470000Y-108016320D01*
X199476532Y-107950001D01*
X199470000Y-107883679D01*
X199470000Y-106676295D01*
X199556989Y-106589306D01*
X199759448Y-106286303D01*
X199898905Y-105949625D01*
X199970000Y-105592209D01*
X199970000Y-105227791D01*
X199898905Y-104870375D01*
X199759448Y-104533697D01*
X199556989Y-104230694D01*
X199299306Y-103973011D01*
X198996303Y-103770552D01*
X198659625Y-103631095D01*
X198302209Y-103560000D01*
X197937791Y-103560000D01*
X197580375Y-103631095D01*
X197243697Y-103770552D01*
X196940694Y-103973011D01*
X196683011Y-104230694D01*
X196480552Y-104533697D01*
X196341095Y-104870375D01*
X196270000Y-105227791D01*
X196270000Y-105592209D01*
X196341095Y-105949625D01*
X196480552Y-106286303D01*
X196683011Y-106589306D01*
X196770001Y-106676296D01*
X196770000Y-107390811D01*
X194284112Y-109876700D01*
X194284112Y-108000000D01*
X194267700Y-107833371D01*
X194219097Y-107673145D01*
X194140168Y-107525481D01*
X194033948Y-107396052D01*
X193904519Y-107289832D01*
X193756855Y-107210903D01*
X193596629Y-107162300D01*
X193430000Y-107145888D01*
X191926401Y-107145888D01*
X191974519Y-107120168D01*
X192103948Y-107013948D01*
X192210168Y-106884519D01*
X192289097Y-106736855D01*
X192337700Y-106576629D01*
X192354112Y-106410000D01*
X192354112Y-104410000D01*
X192337700Y-104243371D01*
X192289097Y-104083145D01*
X192210168Y-103935481D01*
X192103948Y-103806052D01*
X191974519Y-103699832D01*
X191850000Y-103633274D01*
X191850000Y-103376726D01*
X191974519Y-103310168D01*
X192103948Y-103203948D01*
X192210168Y-103074519D01*
X192289097Y-102926855D01*
X192337700Y-102766629D01*
X192354112Y-102600000D01*
X193725887Y-102600000D01*
X193742299Y-102766629D01*
X193790902Y-102926855D01*
X193869831Y-103074520D01*
X193976051Y-103203949D01*
X194105480Y-103310169D01*
X194253145Y-103389098D01*
X194413371Y-103437701D01*
X194580000Y-103454113D01*
X195317500Y-103450000D01*
X195530000Y-103237500D01*
X195530000Y-101650000D01*
X195630000Y-101650000D01*
X195630000Y-103237500D01*
X195842500Y-103450000D01*
X196580000Y-103454113D01*
X196746629Y-103437701D01*
X196906855Y-103389098D01*
X197054520Y-103310169D01*
X197183949Y-103203949D01*
X197290169Y-103074520D01*
X197369098Y-102926855D01*
X197417701Y-102766629D01*
X197434113Y-102600000D01*
X197430000Y-101862500D01*
X197217500Y-101650000D01*
X195630000Y-101650000D01*
X195530000Y-101650000D01*
X193942500Y-101650000D01*
X193730000Y-101862500D01*
X193725887Y-102600000D01*
X192354112Y-102600000D01*
X192354112Y-100600000D01*
X193725887Y-100600000D01*
X193730000Y-101337500D01*
X193942500Y-101550000D01*
X195530000Y-101550000D01*
X195530000Y-99962500D01*
X195630000Y-99962500D01*
X195630000Y-101550000D01*
X197217500Y-101550000D01*
X197430000Y-101337500D01*
X197434113Y-100600000D01*
X197417701Y-100433371D01*
X197369098Y-100273145D01*
X197290169Y-100125480D01*
X197183949Y-99996051D01*
X197054520Y-99889831D01*
X196906855Y-99810902D01*
X196746629Y-99762299D01*
X196580000Y-99745887D01*
X195842500Y-99750000D01*
X195630000Y-99962500D01*
X195530000Y-99962500D01*
X195317500Y-99750000D01*
X194580000Y-99745887D01*
X194413371Y-99762299D01*
X194253145Y-99810902D01*
X194105480Y-99889831D01*
X193976051Y-99996051D01*
X193869831Y-100125480D01*
X193790902Y-100273145D01*
X193742299Y-100433371D01*
X193725887Y-100600000D01*
X192354112Y-100600000D01*
X192337700Y-100433371D01*
X192289097Y-100273145D01*
X192210168Y-100125481D01*
X192103948Y-99996052D01*
X191974519Y-99889832D01*
X191850000Y-99823274D01*
X191850000Y-94046310D01*
X191856531Y-93979999D01*
X191850000Y-93913688D01*
X191850000Y-93913679D01*
X191830467Y-93715354D01*
X191753272Y-93460878D01*
X191627915Y-93226351D01*
X191459212Y-93020787D01*
X191407701Y-92978513D01*
X188961491Y-90532303D01*
X188919213Y-90480787D01*
X188713649Y-90312085D01*
X188479122Y-90186728D01*
X188224646Y-90109533D01*
X188026321Y-90090000D01*
X188026319Y-90090000D01*
X187960000Y-90083468D01*
X187893681Y-90090000D01*
X184710612Y-90090000D01*
X184717701Y-90066629D01*
X184734113Y-89900000D01*
X184730000Y-89162500D01*
X184517500Y-88950000D01*
X182930000Y-88950000D01*
X182930000Y-88970000D01*
X182830000Y-88970000D01*
X182830000Y-88950000D01*
X181242500Y-88950000D01*
X181030000Y-89162500D01*
X181025887Y-89900000D01*
X181042299Y-90066629D01*
X181090902Y-90226855D01*
X181169831Y-90374520D01*
X181276051Y-90503949D01*
X181278908Y-90506293D01*
X181240552Y-90563697D01*
X181101095Y-90900375D01*
X181030000Y-91257791D01*
X181030000Y-91622209D01*
X181101095Y-91979625D01*
X181190307Y-92195000D01*
X180181345Y-92195000D01*
X179552210Y-91565865D01*
X179589097Y-91496855D01*
X179637700Y-91336629D01*
X179654112Y-91170000D01*
X179654112Y-89170000D01*
X179637700Y-89003371D01*
X179589097Y-88843145D01*
X179510168Y-88695481D01*
X179403948Y-88566052D01*
X179274519Y-88459832D01*
X179126855Y-88380903D01*
X178966629Y-88332300D01*
X178800000Y-88315888D01*
X176800000Y-88315888D01*
X176633371Y-88332300D01*
X176473145Y-88380903D01*
X176325481Y-88459832D01*
X176196052Y-88566052D01*
X176193708Y-88568908D01*
X176136303Y-88530552D01*
X175799625Y-88391095D01*
X175442209Y-88320000D01*
X175077791Y-88320000D01*
X174720375Y-88391095D01*
X174383697Y-88530552D01*
X174080694Y-88733011D01*
X173823011Y-88990694D01*
X173803429Y-89020000D01*
X172776492Y-89020000D01*
X172720000Y-89014436D01*
X172494561Y-89036640D01*
X172277784Y-89102398D01*
X172165342Y-89162500D01*
X172078003Y-89209184D01*
X171902893Y-89352893D01*
X171866880Y-89396775D01*
X168136776Y-93126880D01*
X168092894Y-93162893D01*
X168040815Y-93226352D01*
X167949185Y-93338003D01*
X167842399Y-93537785D01*
X167842160Y-93538571D01*
X167696855Y-93460903D01*
X167536629Y-93412300D01*
X167370000Y-93395888D01*
X165370000Y-93395888D01*
X165203371Y-93412300D01*
X165043145Y-93460903D01*
X164895481Y-93539832D01*
X164766052Y-93646052D01*
X164659832Y-93775481D01*
X164580903Y-93923145D01*
X164532300Y-94083371D01*
X164530662Y-94100000D01*
X161766344Y-94100000D01*
X161703125Y-94036781D01*
X161702602Y-94036144D01*
X161795116Y-93923415D01*
X161917939Y-93693629D01*
X161993573Y-93444297D01*
X162019112Y-93185000D01*
X162019112Y-92235000D01*
X161993573Y-91975703D01*
X161917939Y-91726371D01*
X161795116Y-91496585D01*
X161629824Y-91295176D01*
X161428415Y-91129884D01*
X161302211Y-91062426D01*
X161282602Y-90997785D01*
X161175816Y-90798003D01*
X161136421Y-90750000D01*
X161068118Y-90666772D01*
X161068115Y-90666769D01*
X161032107Y-90622893D01*
X160988231Y-90586885D01*
X159798124Y-89396780D01*
X159762107Y-89352893D01*
X159586997Y-89209184D01*
X159387215Y-89102398D01*
X159170439Y-89036640D01*
X159001492Y-89020000D01*
X159001482Y-89020000D01*
X158945000Y-89014437D01*
X158888518Y-89020000D01*
X136581492Y-89020000D01*
X136525000Y-89014436D01*
X136468509Y-89020000D01*
X132136484Y-89020000D01*
X132080000Y-89014437D01*
X132023516Y-89020000D01*
X132023508Y-89020000D01*
X131874164Y-89034709D01*
X131854560Y-89036640D01*
X131788802Y-89056588D01*
X131637785Y-89102398D01*
X131544788Y-89152106D01*
X131438002Y-89209184D01*
X131347517Y-89283444D01*
X131262893Y-89352893D01*
X131226880Y-89396775D01*
X126226776Y-94396880D01*
X126182894Y-94432893D01*
X126146882Y-94476774D01*
X126039185Y-94608003D01*
X125932399Y-94807785D01*
X125866641Y-95024561D01*
X125844437Y-95250000D01*
X125850001Y-95306492D01*
X125850000Y-101123655D01*
X122713656Y-104260000D01*
X122489338Y-104260000D01*
X122487700Y-104243371D01*
X122439097Y-104083145D01*
X122360168Y-103935481D01*
X122253948Y-103806052D01*
X122124519Y-103699832D01*
X121976855Y-103620903D01*
X121816629Y-103572300D01*
X121650000Y-103555888D01*
X119650000Y-103555888D01*
X119483371Y-103572300D01*
X119323145Y-103620903D01*
X119175481Y-103699832D01*
X119062500Y-103792553D01*
X118949519Y-103699832D01*
X118801855Y-103620903D01*
X118641629Y-103572300D01*
X118475000Y-103555888D01*
X116510456Y-103555888D01*
X118586345Y-101480000D01*
X118810662Y-101480000D01*
X118812300Y-101496629D01*
X118860903Y-101656855D01*
X118939832Y-101804519D01*
X119046052Y-101933948D01*
X119175481Y-102040168D01*
X119323145Y-102119097D01*
X119483371Y-102167700D01*
X119650000Y-102184112D01*
X121650000Y-102184112D01*
X121816629Y-102167700D01*
X121976855Y-102119097D01*
X122124519Y-102040168D01*
X122253948Y-101933948D01*
X122360168Y-101804519D01*
X122439097Y-101656855D01*
X122487700Y-101496629D01*
X122504112Y-101330000D01*
X122504112Y-99330000D01*
X122487700Y-99163371D01*
X122439097Y-99003145D01*
X122360168Y-98855481D01*
X122253948Y-98726052D01*
X122124519Y-98619832D01*
X121976855Y-98540903D01*
X121816629Y-98492300D01*
X121650000Y-98475888D01*
X119650000Y-98475888D01*
X119483371Y-98492300D01*
X119323145Y-98540903D01*
X119175481Y-98619832D01*
X119046052Y-98726052D01*
X118939832Y-98855481D01*
X118860903Y-99003145D01*
X118812300Y-99163371D01*
X118810662Y-99180000D01*
X118166481Y-99180000D01*
X118109999Y-99174437D01*
X118053517Y-99180000D01*
X118053508Y-99180000D01*
X117884561Y-99196640D01*
X117667785Y-99262398D01*
X117468003Y-99369184D01*
X117292893Y-99512893D01*
X117256881Y-99556774D01*
X114161776Y-102651880D01*
X114117894Y-102687893D01*
X113982171Y-102853272D01*
X113974185Y-102863003D01*
X113867399Y-103062785D01*
X113801641Y-103279561D01*
X113779437Y-103505000D01*
X113785001Y-103561491D01*
X113785001Y-103570662D01*
X113768371Y-103572300D01*
X113665002Y-103603656D01*
X113561629Y-103572299D01*
X113395000Y-103555887D01*
X112657500Y-103560000D01*
X112445000Y-103772500D01*
X112445000Y-105360000D01*
X112465000Y-105360000D01*
X112465000Y-105460000D01*
X112445000Y-105460000D01*
X112445000Y-107047500D01*
X112657500Y-107260000D01*
X113395000Y-107264113D01*
X113561629Y-107247701D01*
X113665002Y-107216344D01*
X113768371Y-107247700D01*
X113935000Y-107264112D01*
X115616699Y-107264112D01*
X113740812Y-109140000D01*
X102936310Y-109140000D01*
X102869999Y-109133469D01*
X102803688Y-109140000D01*
X102803679Y-109140000D01*
X102605354Y-109159533D01*
X102350878Y-109236728D01*
X102291293Y-109268577D01*
X102116350Y-109362085D01*
X101962301Y-109488510D01*
X101962298Y-109488513D01*
X101910787Y-109530787D01*
X101868513Y-109582298D01*
X100692299Y-110758513D01*
X100640788Y-110800787D01*
X100598514Y-110852298D01*
X100598510Y-110852302D01*
X100472085Y-111006351D01*
X100346729Y-111240878D01*
X100269534Y-111495354D01*
X100243468Y-111760000D01*
X100250001Y-111826329D01*
X100250000Y-116773681D01*
X100243468Y-116840000D01*
X100250000Y-116906319D01*
X100250000Y-116906320D01*
X100269533Y-117104645D01*
X100346728Y-117359121D01*
X100388622Y-117437500D01*
X100472085Y-117593649D01*
X100598510Y-117747698D01*
X100598513Y-117747701D01*
X100640787Y-117799212D01*
X100692299Y-117841487D01*
X101302637Y-118451825D01*
X100347500Y-118455000D01*
X100135000Y-118667500D01*
X100035000Y-118667500D01*
X99822500Y-118455000D01*
X98585000Y-118450887D01*
X98418371Y-118467299D01*
X98258145Y-118515902D01*
X98110480Y-118594831D01*
X97981051Y-118701051D01*
X97874831Y-118830480D01*
X97795902Y-118978145D01*
X97747299Y-119138371D01*
X97730887Y-119305000D01*
X93760000Y-119305000D01*
X93760000Y-106410000D01*
X110540887Y-106410000D01*
X110557299Y-106576629D01*
X110605902Y-106736855D01*
X110684831Y-106884520D01*
X110791051Y-107013949D01*
X110920480Y-107120169D01*
X111068145Y-107199098D01*
X111228371Y-107247701D01*
X111395000Y-107264113D01*
X112132500Y-107260000D01*
X112345000Y-107047500D01*
X112345000Y-105460000D01*
X110757500Y-105460000D01*
X110545000Y-105672500D01*
X110540887Y-106410000D01*
X93760000Y-106410000D01*
X93760000Y-104410000D01*
X110540887Y-104410000D01*
X110545000Y-105147500D01*
X110757500Y-105360000D01*
X112345000Y-105360000D01*
X112345000Y-103772500D01*
X112132500Y-103560000D01*
X111395000Y-103555887D01*
X111228371Y-103572299D01*
X111068145Y-103620902D01*
X110920480Y-103699831D01*
X110791051Y-103806051D01*
X110684831Y-103935480D01*
X110605902Y-104083145D01*
X110557299Y-104243371D01*
X110540887Y-104410000D01*
X93760000Y-104410000D01*
X93760000Y-98224923D01*
X104574924Y-87410000D01*
X181182535Y-87410000D01*
X181169831Y-87425480D01*
G36*
X145215888Y-133140000D02*
G01*
X145232300Y-133306629D01*
X145280903Y-133466855D01*
X145359832Y-133614519D01*
X145466052Y-133743948D01*
X145595481Y-133850168D01*
X145669999Y-133889999D01*
X145595480Y-133929831D01*
X145466051Y-134036051D01*
X145359831Y-134165480D01*
X145280902Y-134313145D01*
X145232299Y-134473371D01*
X145215887Y-134640000D01*
X145220000Y-135627500D01*
X145432500Y-135840000D01*
X147270000Y-135840000D01*
X147270000Y-135820000D01*
X147370000Y-135820000D01*
X147370000Y-135840000D01*
X147390000Y-135840000D01*
X147390000Y-135940000D01*
X147370000Y-135940000D01*
X147370000Y-135960000D01*
X147270000Y-135960000D01*
X147270000Y-135940000D01*
X145432500Y-135940000D01*
X145220000Y-136152500D01*
X145215887Y-137140000D01*
X145232299Y-137306629D01*
X145280902Y-137466855D01*
X145359831Y-137614520D01*
X145466051Y-137743949D01*
X145595480Y-137850169D01*
X145669999Y-137890001D01*
X145595481Y-137929832D01*
X145466052Y-138036052D01*
X145359832Y-138165481D01*
X145280903Y-138313145D01*
X145232300Y-138473371D01*
X145215888Y-138640000D01*
X145215888Y-140890000D01*
X144424112Y-140890000D01*
X144424112Y-138640000D01*
X144407700Y-138473371D01*
X144359097Y-138313145D01*
X144280168Y-138165481D01*
X144173948Y-138036052D01*
X144044519Y-137929832D01*
X143969999Y-137890000D01*
X144044519Y-137850168D01*
X144173948Y-137743948D01*
X144280168Y-137614519D01*
X144359097Y-137466855D01*
X144407700Y-137306629D01*
X144424112Y-137140000D01*
X144424112Y-134640000D01*
X144407700Y-134473371D01*
X144359097Y-134313145D01*
X144280168Y-134165481D01*
X144173948Y-134036052D01*
X144044519Y-133929832D01*
X143969999Y-133890000D01*
X144044519Y-133850168D01*
X144173948Y-133743948D01*
X144280168Y-133614519D01*
X144359097Y-133466855D01*
X144407700Y-133306629D01*
X144424112Y-133140000D01*
X144424112Y-130690000D01*
X145215888Y-130690000D01*
X145215888Y-133140000D01*
G37*
X145215888Y-133140000D02*
X145232300Y-133306629D01*
X145280903Y-133466855D01*
X145359832Y-133614519D01*
X145466052Y-133743948D01*
X145595481Y-133850168D01*
X145669999Y-133889999D01*
X145595480Y-133929831D01*
X145466051Y-134036051D01*
X145359831Y-134165480D01*
X145280902Y-134313145D01*
X145232299Y-134473371D01*
X145215887Y-134640000D01*
X145220000Y-135627500D01*
X145432500Y-135840000D01*
X147270000Y-135840000D01*
X147270000Y-135820000D01*
X147370000Y-135820000D01*
X147370000Y-135840000D01*
X147390000Y-135840000D01*
X147390000Y-135940000D01*
X147370000Y-135940000D01*
X147370000Y-135960000D01*
X147270000Y-135960000D01*
X147270000Y-135940000D01*
X145432500Y-135940000D01*
X145220000Y-136152500D01*
X145215887Y-137140000D01*
X145232299Y-137306629D01*
X145280902Y-137466855D01*
X145359831Y-137614520D01*
X145466051Y-137743949D01*
X145595480Y-137850169D01*
X145669999Y-137890001D01*
X145595481Y-137929832D01*
X145466052Y-138036052D01*
X145359832Y-138165481D01*
X145280903Y-138313145D01*
X145232300Y-138473371D01*
X145215888Y-138640000D01*
X145215888Y-140890000D01*
X144424112Y-140890000D01*
X144424112Y-138640000D01*
X144407700Y-138473371D01*
X144359097Y-138313145D01*
X144280168Y-138165481D01*
X144173948Y-138036052D01*
X144044519Y-137929832D01*
X143969999Y-137890000D01*
X144044519Y-137850168D01*
X144173948Y-137743948D01*
X144280168Y-137614519D01*
X144359097Y-137466855D01*
X144407700Y-137306629D01*
X144424112Y-137140000D01*
X144424112Y-134640000D01*
X144407700Y-134473371D01*
X144359097Y-134313145D01*
X144280168Y-134165481D01*
X144173948Y-134036052D01*
X144044519Y-133929832D01*
X143969999Y-133890000D01*
X144044519Y-133850168D01*
X144173948Y-133743948D01*
X144280168Y-133614519D01*
X144359097Y-133466855D01*
X144407700Y-133306629D01*
X144424112Y-133140000D01*
X144424112Y-130690000D01*
X145215888Y-130690000D01*
X145215888Y-133140000D01*
G36*
X177359832Y-99264519D02*
G01*
X177466052Y-99393948D01*
X177471182Y-99398158D01*
X177361484Y-99597420D01*
X177251394Y-99944811D01*
X177211192Y-100307005D01*
X177242422Y-100670082D01*
X177343885Y-101020090D01*
X177511682Y-101343579D01*
X177537232Y-101381818D01*
X177870965Y-101458325D01*
X178999289Y-100330000D01*
X178985147Y-100315858D01*
X179055858Y-100245147D01*
X179070000Y-100259289D01*
X179084142Y-100245147D01*
X179154853Y-100315858D01*
X179140711Y-100330000D01*
X179154853Y-100344142D01*
X179084142Y-100414853D01*
X179070000Y-100400711D01*
X177941675Y-101529035D01*
X178018182Y-101862768D01*
X178337420Y-102038516D01*
X178684811Y-102148606D01*
X179047005Y-102188808D01*
X179410082Y-102157578D01*
X179432608Y-102151048D01*
X178931776Y-102651880D01*
X178887894Y-102687893D01*
X178752171Y-102853272D01*
X178744185Y-102863003D01*
X178637399Y-103062785D01*
X178571641Y-103279561D01*
X178549437Y-103505000D01*
X178555001Y-103561491D01*
X178555001Y-103570662D01*
X178538371Y-103572300D01*
X178435002Y-103603656D01*
X178331629Y-103572299D01*
X178165000Y-103555887D01*
X177427500Y-103560000D01*
X177215000Y-103772500D01*
X177215000Y-105360000D01*
X177235000Y-105360000D01*
X177235000Y-105460000D01*
X177215000Y-105460000D01*
X177215000Y-105480000D01*
X177115000Y-105480000D01*
X177115000Y-105460000D01*
X177095000Y-105460000D01*
X177095000Y-105360000D01*
X177115000Y-105360000D01*
X177115000Y-103772500D01*
X176902500Y-103560000D01*
X176165000Y-103555887D01*
X175998371Y-103572299D01*
X175838145Y-103620902D01*
X175690480Y-103699831D01*
X175561051Y-103806051D01*
X175454831Y-103935480D01*
X175375902Y-104083145D01*
X175340000Y-104201501D01*
X175340000Y-100889188D01*
X177089188Y-99140000D01*
X177293274Y-99140000D01*
X177359832Y-99264519D01*
G37*
X177359832Y-99264519D02*
X177466052Y-99393948D01*
X177471182Y-99398158D01*
X177361484Y-99597420D01*
X177251394Y-99944811D01*
X177211192Y-100307005D01*
X177242422Y-100670082D01*
X177343885Y-101020090D01*
X177511682Y-101343579D01*
X177537232Y-101381818D01*
X177870965Y-101458325D01*
X178999289Y-100330000D01*
X178985147Y-100315858D01*
X179055858Y-100245147D01*
X179070000Y-100259289D01*
X179084142Y-100245147D01*
X179154853Y-100315858D01*
X179140711Y-100330000D01*
X179154853Y-100344142D01*
X179084142Y-100414853D01*
X179070000Y-100400711D01*
X177941675Y-101529035D01*
X178018182Y-101862768D01*
X178337420Y-102038516D01*
X178684811Y-102148606D01*
X179047005Y-102188808D01*
X179410082Y-102157578D01*
X179432608Y-102151048D01*
X178931776Y-102651880D01*
X178887894Y-102687893D01*
X178752171Y-102853272D01*
X178744185Y-102863003D01*
X178637399Y-103062785D01*
X178571641Y-103279561D01*
X178549437Y-103505000D01*
X178555001Y-103561491D01*
X178555001Y-103570662D01*
X178538371Y-103572300D01*
X178435002Y-103603656D01*
X178331629Y-103572299D01*
X178165000Y-103555887D01*
X177427500Y-103560000D01*
X177215000Y-103772500D01*
X177215000Y-105360000D01*
X177235000Y-105360000D01*
X177235000Y-105460000D01*
X177215000Y-105460000D01*
X177215000Y-105480000D01*
X177115000Y-105480000D01*
X177115000Y-105460000D01*
X177095000Y-105460000D01*
X177095000Y-105360000D01*
X177115000Y-105360000D01*
X177115000Y-103772500D01*
X176902500Y-103560000D01*
X176165000Y-103555887D01*
X175998371Y-103572299D01*
X175838145Y-103620902D01*
X175690480Y-103699831D01*
X175561051Y-103806051D01*
X175454831Y-103935480D01*
X175375902Y-104083145D01*
X175340000Y-104201501D01*
X175340000Y-100889188D01*
X177089188Y-99140000D01*
X177293274Y-99140000D01*
X177359832Y-99264519D01*
M02*
