G04 #@! TF.GenerationSoftware,KiCad,Pcbnew,5.1.6-c6e7f7d~87~ubuntu19.10.1*
G04 #@! TF.CreationDate,2022-01-09T06:01:27+06:00*
G04 #@! TF.ProjectId,edamamer_r1a,6564616d-616d-4657-925f-7231612e6b69,1A*
G04 #@! TF.SameCoordinates,Original*
G04 #@! TF.FileFunction,Legend,Bot*
G04 #@! TF.FilePolarity,Positive*
%FSLAX46Y46*%
G04 Gerber Fmt 4.6, Leading zero omitted, Abs format (unit mm)*
G04 Created by KiCad (PCBNEW 5.1.6-c6e7f7d~87~ubuntu19.10.1) date 2022-01-09 06:01:27*
%MOMM*%
%LPD*%
G01*
G04 APERTURE LIST*
%ADD10C,0.200000*%
%ADD11C,0.500000*%
%ADD12R,2.900000X2.900000*%
%ADD13C,6.400000*%
%ADD14R,2.300000X2.300000*%
%ADD15C,2.300000*%
%ADD16C,2.400000*%
%ADD17R,2.400000X2.400000*%
%ADD18R,3.400000X3.400000*%
G04 APERTURE END LIST*
D10*
X85090000Y-184785000D02*
X84455000Y-185420000D01*
X120650000Y-154305000D02*
X120332500Y-154622500D01*
X120650000Y-143510000D02*
X120650000Y-154305000D01*
X88900000Y-167640000D02*
X87630000Y-167640000D01*
X123190000Y-167640000D02*
X121920000Y-167640000D01*
X84455000Y-185420000D02*
X83820000Y-185420000D01*
X85090000Y-182880000D02*
X85090000Y-184785000D01*
X96520000Y-181610000D02*
X95250000Y-182880000D01*
X95250000Y-182880000D02*
X95250000Y-186690000D01*
X96520000Y-170497500D02*
X96520000Y-181610000D01*
X114300000Y-160337500D02*
X114300000Y-164782500D01*
X95250000Y-182880000D02*
X83820000Y-182880000D01*
X111760000Y-167640000D02*
X99060000Y-167640000D01*
X101092000Y-147320000D02*
G75*
G03*
X101092000Y-147320000I-3302000J0D01*
G01*
X116332000Y-147320000D02*
G75*
G03*
X116332000Y-147320000I-3302000J0D01*
G01*
D11*
X90235000Y-169290000D02*
G75*
G03*
X90235000Y-169290000I-250000J0D01*
G01*
D10*
X98745000Y-170060000D02*
X98745000Y-165220000D01*
X89215000Y-170060000D02*
X89215000Y-165220000D01*
X89215000Y-165220000D02*
X98745000Y-165220000D01*
X89215000Y-170060000D02*
X98745000Y-170060000D01*
D11*
X121085000Y-155830000D02*
G75*
G03*
X121085000Y-155830000I-250000J0D01*
G01*
D10*
X112075000Y-155060000D02*
X112075000Y-159900000D01*
X121605000Y-155060000D02*
X121605000Y-159900000D01*
X121605000Y-159900000D02*
X112075000Y-159900000D01*
X121605000Y-155060000D02*
X112075000Y-155060000D01*
D11*
X121085000Y-165990000D02*
G75*
G03*
X121085000Y-165990000I-250000J0D01*
G01*
D10*
X112075000Y-165220000D02*
X112075000Y-170060000D01*
X121605000Y-165220000D02*
X121605000Y-170060000D01*
X121605000Y-170060000D02*
X112075000Y-170060000D01*
X121605000Y-165220000D02*
X112075000Y-165220000D01*
X100910000Y-177610000D02*
X100910000Y-176910000D01*
X109910000Y-177610000D02*
X109910000Y-176910000D01*
X99210000Y-176910000D02*
X111610000Y-176910000D01*
X111610000Y-177610000D02*
X111610000Y-171860000D01*
X99910000Y-176910000D02*
X99910000Y-172560000D01*
X99210000Y-177610000D02*
X99210000Y-171860000D01*
X110910000Y-175910000D02*
X111610000Y-175910000D01*
X110910000Y-176910000D02*
X110910000Y-172560000D01*
X99910000Y-172560000D02*
X110910000Y-172560000D01*
X102410000Y-177610000D02*
X102410000Y-176910000D01*
X99210000Y-175910000D02*
X99910000Y-175910000D01*
X108410000Y-177610000D02*
X108410000Y-176910000D01*
X99210000Y-171860000D02*
X111610000Y-171860000D01*
X99210000Y-177610000D02*
X111610000Y-177610000D01*
X94646666Y-164917380D02*
X94980000Y-164441190D01*
X95218095Y-164917380D02*
X95218095Y-163917380D01*
X94837142Y-163917380D01*
X94741904Y-163965000D01*
X94694285Y-164012619D01*
X94646666Y-164107857D01*
X94646666Y-164250714D01*
X94694285Y-164345952D01*
X94741904Y-164393571D01*
X94837142Y-164441190D01*
X95218095Y-164441190D01*
X94218095Y-164917380D02*
X94218095Y-163917380D01*
X93837142Y-163917380D01*
X93741904Y-163965000D01*
X93694285Y-164012619D01*
X93646666Y-164107857D01*
X93646666Y-164250714D01*
X93694285Y-164345952D01*
X93741904Y-164393571D01*
X93837142Y-164441190D01*
X94218095Y-164441190D01*
X93313333Y-163917380D02*
X92694285Y-163917380D01*
X93027619Y-164298333D01*
X92884761Y-164298333D01*
X92789523Y-164345952D01*
X92741904Y-164393571D01*
X92694285Y-164488809D01*
X92694285Y-164726904D01*
X92741904Y-164822142D01*
X92789523Y-164869761D01*
X92884761Y-164917380D01*
X93170476Y-164917380D01*
X93265714Y-164869761D01*
X93313333Y-164822142D01*
X117506666Y-154757380D02*
X117840000Y-154281190D01*
X118078095Y-154757380D02*
X118078095Y-153757380D01*
X117697142Y-153757380D01*
X117601904Y-153805000D01*
X117554285Y-153852619D01*
X117506666Y-153947857D01*
X117506666Y-154090714D01*
X117554285Y-154185952D01*
X117601904Y-154233571D01*
X117697142Y-154281190D01*
X118078095Y-154281190D01*
X117078095Y-154757380D02*
X117078095Y-153757380D01*
X116697142Y-153757380D01*
X116601904Y-153805000D01*
X116554285Y-153852619D01*
X116506666Y-153947857D01*
X116506666Y-154090714D01*
X116554285Y-154185952D01*
X116601904Y-154233571D01*
X116697142Y-154281190D01*
X117078095Y-154281190D01*
X116125714Y-153852619D02*
X116078095Y-153805000D01*
X115982857Y-153757380D01*
X115744761Y-153757380D01*
X115649523Y-153805000D01*
X115601904Y-153852619D01*
X115554285Y-153947857D01*
X115554285Y-154043095D01*
X115601904Y-154185952D01*
X116173333Y-154757380D01*
X115554285Y-154757380D01*
X117506666Y-164917380D02*
X117840000Y-164441190D01*
X118078095Y-164917380D02*
X118078095Y-163917380D01*
X117697142Y-163917380D01*
X117601904Y-163965000D01*
X117554285Y-164012619D01*
X117506666Y-164107857D01*
X117506666Y-164250714D01*
X117554285Y-164345952D01*
X117601904Y-164393571D01*
X117697142Y-164441190D01*
X118078095Y-164441190D01*
X117078095Y-164917380D02*
X117078095Y-163917380D01*
X116697142Y-163917380D01*
X116601904Y-163965000D01*
X116554285Y-164012619D01*
X116506666Y-164107857D01*
X116506666Y-164250714D01*
X116554285Y-164345952D01*
X116601904Y-164393571D01*
X116697142Y-164441190D01*
X117078095Y-164441190D01*
X115554285Y-164917380D02*
X116125714Y-164917380D01*
X115840000Y-164917380D02*
X115840000Y-163917380D01*
X115935238Y-164060238D01*
X116030476Y-164155476D01*
X116125714Y-164203095D01*
X101951904Y-170584880D02*
X101285238Y-171584880D01*
X101285238Y-170584880D02*
X101951904Y-171584880D01*
X100904285Y-171584880D02*
X100904285Y-170584880D01*
X100523333Y-170584880D01*
X100428095Y-170632500D01*
X100380476Y-170680119D01*
X100332857Y-170775357D01*
X100332857Y-170918214D01*
X100380476Y-171013452D01*
X100428095Y-171061071D01*
X100523333Y-171108690D01*
X100904285Y-171108690D01*
X99380476Y-171584880D02*
X99951904Y-171584880D01*
X99666190Y-171584880D02*
X99666190Y-170584880D01*
X99761428Y-170727738D01*
X99856666Y-170822976D01*
X99951904Y-170870595D01*
%LPC*%
D12*
X110410000Y-184150000D03*
X110410000Y-188150000D03*
X110410000Y-180150000D03*
X105410000Y-184150000D03*
X105410000Y-188150000D03*
X105410000Y-180150000D03*
X100410000Y-180150000D03*
X100410000Y-184150000D03*
X100410000Y-188150000D03*
D13*
X97790000Y-147320000D03*
X113030000Y-147320000D03*
D14*
X86360000Y-167640000D03*
X83820000Y-167640000D03*
X81280000Y-167640000D03*
X125730000Y-142240000D03*
X123190000Y-142240000D03*
X120650000Y-142240000D03*
X129540000Y-167640000D03*
X127000000Y-167640000D03*
X124460000Y-167640000D03*
X87630000Y-128270000D03*
X85090000Y-128270000D03*
X82550000Y-128270000D03*
X102870000Y-128270000D03*
X105410000Y-128270000D03*
X107950000Y-128270000D03*
X128270000Y-128270000D03*
X125730000Y-128270000D03*
X123190000Y-128270000D03*
D15*
X91440000Y-167640000D03*
D14*
X93980000Y-167640000D03*
X96520000Y-167640000D03*
D15*
X119380000Y-157480000D03*
D14*
X116840000Y-157480000D03*
X114300000Y-157480000D03*
D15*
X119380000Y-167640000D03*
D14*
X116840000Y-167640000D03*
X114300000Y-167640000D03*
X95250000Y-187960000D03*
D15*
X87630000Y-187960000D03*
D14*
X87630000Y-190500000D03*
D15*
X95250000Y-190500000D03*
D16*
X95250000Y-193040000D03*
D17*
X92710000Y-193040000D03*
X90170000Y-193040000D03*
X87630000Y-193040000D03*
X87630000Y-200660000D03*
X90170000Y-200660000D03*
X92710000Y-200660000D03*
X95250000Y-200660000D03*
D14*
X82550000Y-182880000D03*
D15*
X82550000Y-185420000D03*
D14*
X82550000Y-187960000D03*
X82550000Y-190500000D03*
D15*
X82550000Y-193040000D03*
D14*
X82550000Y-195580000D03*
X87630000Y-133350000D03*
X82550000Y-133350000D03*
X90170000Y-137160000D03*
X95250000Y-137160000D03*
X123190000Y-133350000D03*
X128270000Y-133350000D03*
X129540000Y-160020000D03*
X129540000Y-154940000D03*
X119380000Y-172720000D03*
X114300000Y-172720000D03*
G36*
G01*
X125610000Y-172260000D02*
X125610000Y-173180000D01*
G75*
G02*
X124920000Y-173870000I-690000J0D01*
G01*
X124000000Y-173870000D01*
G75*
G02*
X123310000Y-173180000I0J690000D01*
G01*
X123310000Y-172260000D01*
G75*
G02*
X124000000Y-171570000I690000J0D01*
G01*
X124920000Y-171570000D01*
G75*
G02*
X125610000Y-172260000I0J-690000D01*
G01*
G37*
D15*
X127000000Y-172720000D03*
D14*
X116840000Y-187960000D03*
X127000000Y-187960000D03*
X109160000Y-175260000D03*
X106660000Y-175260000D03*
X104160000Y-175260000D03*
D15*
X101660000Y-175260000D03*
D14*
X105410000Y-138430000D03*
D18*
X105410000Y-142620000D03*
X105410000Y-147320000D03*
X105410000Y-152020000D03*
D14*
X81280000Y-175260000D03*
X91440000Y-175260000D03*
X123190000Y-149860000D03*
X123190000Y-160020000D03*
X125730000Y-149860000D03*
X125730000Y-160020000D03*
X90170000Y-152400000D03*
X90170000Y-142240000D03*
X81280000Y-177800000D03*
X91440000Y-177800000D03*
D15*
X104140000Y-200660000D03*
G36*
G01*
X105530000Y-201120000D02*
X105530000Y-200200000D01*
G75*
G02*
X106220000Y-199510000I690000J0D01*
G01*
X107140000Y-199510000D01*
G75*
G02*
X107830000Y-200200000I0J-690000D01*
G01*
X107830000Y-201120000D01*
G75*
G02*
X107140000Y-201810000I-690000J0D01*
G01*
X106220000Y-201810000D01*
G75*
G02*
X105530000Y-201120000I0J690000D01*
G01*
G37*
D14*
X110490000Y-133350000D03*
X100330000Y-133350000D03*
X87630000Y-152400000D03*
X87630000Y-142240000D03*
X127000000Y-180340000D03*
X116840000Y-180340000D03*
X127000000Y-177800000D03*
X116840000Y-177800000D03*
X124460000Y-184150000D03*
X119380000Y-184150000D03*
X95250000Y-133350000D03*
X90170000Y-133350000D03*
X88900000Y-157480000D03*
X88900000Y-162560000D03*
X129540000Y-147320000D03*
X129540000Y-152400000D03*
X120650000Y-133350000D03*
X115570000Y-133350000D03*
X110490000Y-195580000D03*
X100330000Y-195580000D03*
X100330000Y-193040000D03*
X110490000Y-193040000D03*
X105410000Y-170180000D03*
M02*
