M48
; DRILL file {KiCad 5.1.6-c6e7f7d~87~ubuntu19.10.1} date Sun Jan  9 06:01:30 2022
; FORMAT={-:-/ absolute / metric / decimal}
; #@! TF.CreationDate,2022-01-09T06:01:30+06:00
; #@! TF.GenerationSoftware,Kicad,Pcbnew,5.1.6-c6e7f7d~87~ubuntu19.10.1
FMAT,2
METRIC
T1C0.600
T2C0.700
T3C0.900
T4C1.000
T5C1.300
T6C1.500
T7C3.000
%
G90
G05
T1
X124.46Y-167.64
X127.0Y-167.64
X129.54Y-167.64
X81.28Y-167.64
X83.82Y-167.64
X86.36Y-167.64
X119.38Y-184.15
X124.46Y-184.15
X90.17Y-137.16
X95.25Y-137.16
X114.3Y-157.48
X116.84Y-157.48
X119.38Y-157.48
X123.19Y-133.35
X128.27Y-133.35
X90.17Y-133.35
X95.25Y-133.35
X114.3Y-172.72
X119.38Y-172.72
X82.55Y-190.5
X82.55Y-133.35
X87.63Y-133.35
X82.55Y-182.88
X88.9Y-157.48
X88.9Y-162.56
X114.3Y-167.64
X116.84Y-167.64
X119.38Y-167.64
X120.65Y-142.24
X123.19Y-142.24
X125.73Y-142.24
X129.54Y-147.32
X129.54Y-152.4
X129.54Y-154.94
X129.54Y-160.02
X115.57Y-133.35
X120.65Y-133.35
X91.44Y-167.64
X93.98Y-167.64
X96.52Y-167.64
T2
X90.17Y-142.24
X90.17Y-152.4
X100.33Y-133.35
X110.49Y-133.35
X125.73Y-149.86
X125.73Y-160.02
X100.33Y-195.58
X110.49Y-195.58
X81.28Y-175.26
X91.44Y-175.26
X81.28Y-177.8
X91.44Y-177.8
X116.84Y-187.96
X127.0Y-187.96
X100.33Y-193.04
X110.49Y-193.04
X116.84Y-180.34
X127.0Y-180.34
X116.84Y-177.8
X127.0Y-177.8
X123.19Y-149.86
X123.19Y-160.02
X87.63Y-142.24
X87.63Y-152.4
X104.14Y-200.66
X106.68Y-200.66
T3
X87.63Y-190.5
X95.25Y-190.5
X87.63Y-187.96
X95.25Y-187.96
X82.55Y-128.27
X85.09Y-128.27
X87.63Y-128.27
X102.87Y-128.27
X105.41Y-128.27
X107.95Y-128.27
X123.19Y-128.27
X125.73Y-128.27
X128.27Y-128.27
X101.66Y-175.26
X104.16Y-175.26
X106.66Y-175.26
X109.16Y-175.26
T4
X124.46Y-172.72
X127.0Y-172.72
X82.55Y-193.04
X82.55Y-195.58
X87.63Y-193.04
X87.63Y-200.66
X90.17Y-193.04
X90.17Y-200.66
X92.71Y-193.04
X92.71Y-200.66
X95.25Y-193.04
X95.25Y-200.66
X82.55Y-185.42
X82.55Y-187.96
X105.41Y-138.43
X105.41Y-170.18
T5
X100.41Y-180.15
X100.41Y-184.15
X100.41Y-188.15
X105.41Y-180.15
X105.41Y-184.15
X105.41Y-188.15
X110.41Y-180.15
X110.41Y-184.15
X110.41Y-188.15
T6
X105.41Y-142.62
X105.41Y-147.32
X105.41Y-152.02
T7
X113.03Y-147.32
X97.79Y-147.32
T0
M30
