G04 #@! TF.GenerationSoftware,KiCad,Pcbnew,5.1.12-84ad8e8a86~92~ubuntu20.04.1*
G04 #@! TF.CreationDate,2024-08-07T09:27:01+00:00*
G04 #@! TF.ProjectId,___-1.30.B-1,221a1f2d-312e-4333-902e-422d312e6b69,3B*
G04 #@! TF.SameCoordinates,Original*
G04 #@! TF.FileFunction,Copper,L2,Bot*
G04 #@! TF.FilePolarity,Positive*
%FSLAX46Y46*%
G04 Gerber Fmt 4.6, Leading zero omitted, Abs format (unit mm)*
G04 Created by KiCad (PCBNEW 5.1.12-84ad8e8a86~92~ubuntu20.04.1) date 2024-08-07 09:27:01*
%MOMM*%
%LPD*%
G01*
G04 APERTURE LIST*
G04 #@! TA.AperFunction,ComponentPad*
%ADD10C,1.900000*%
G04 #@! TD*
G04 #@! TA.AperFunction,ComponentPad*
%ADD11R,1.900000X1.900000*%
G04 #@! TD*
G04 #@! TA.AperFunction,ComponentPad*
%ADD12R,3.000000X3.000000*%
G04 #@! TD*
G04 #@! TA.AperFunction,ComponentPad*
%ADD13O,5.500000X3.000000*%
G04 #@! TD*
G04 #@! TA.AperFunction,ComponentPad*
%ADD14O,3.000000X5.000000*%
G04 #@! TD*
G04 #@! TA.AperFunction,ComponentPad*
%ADD15O,5.000000X3.000000*%
G04 #@! TD*
G04 #@! TA.AperFunction,ComponentPad*
%ADD16R,2.500000X2.500000*%
G04 #@! TD*
G04 #@! TA.AperFunction,ComponentPad*
%ADD17C,6.000000*%
G04 #@! TD*
G04 #@! TA.AperFunction,ViaPad*
%ADD18C,1.500000*%
G04 #@! TD*
G04 #@! TA.AperFunction,Conductor*
%ADD19C,1.000000*%
G04 #@! TD*
G04 #@! TA.AperFunction,Conductor*
%ADD20C,0.600000*%
G04 #@! TD*
G04 #@! TA.AperFunction,Conductor*
%ADD21C,0.500000*%
G04 #@! TD*
G04 #@! TA.AperFunction,Conductor*
%ADD22C,0.100000*%
G04 #@! TD*
G04 APERTURE END LIST*
D10*
X84455000Y-162560000D03*
D11*
X93345000Y-162560000D03*
D10*
X129540000Y-119380000D03*
D11*
X127000000Y-119380000D03*
D10*
X124460000Y-119380000D03*
D11*
X121920000Y-119380000D03*
D10*
X119380000Y-119380000D03*
X110490000Y-133350000D03*
D11*
X107950000Y-133350000D03*
D10*
X105410000Y-133350000D03*
D11*
X102870000Y-133350000D03*
D10*
X100330000Y-133350000D03*
X91440000Y-119380000D03*
D11*
X88900000Y-119380000D03*
D10*
X86360000Y-119380000D03*
D11*
X83820000Y-119380000D03*
D10*
X81280000Y-119380000D03*
D11*
X110490000Y-115570000D03*
X110490000Y-113030000D03*
D10*
X110490000Y-110490000D03*
D11*
X121920000Y-114300000D03*
X124460000Y-114300000D03*
D10*
X127000000Y-114300000D03*
D11*
X127000000Y-127000000D03*
X124460000Y-127000000D03*
D10*
X121920000Y-127000000D03*
D11*
X86360000Y-127000000D03*
X83820000Y-127000000D03*
D10*
X81280000Y-127000000D03*
D11*
X100330000Y-127000000D03*
D10*
X100330000Y-118110000D03*
D11*
X102870000Y-118110000D03*
D10*
X102870000Y-127000000D03*
D11*
X90170000Y-114300000D03*
D10*
X90170000Y-105410000D03*
D11*
X92710000Y-105410000D03*
D10*
X92710000Y-114300000D03*
D12*
X115280000Y-157960000D03*
X121580000Y-157960000D03*
X127880000Y-157960000D03*
X115280000Y-141760000D03*
X121580000Y-141760000D03*
X127880000Y-141760000D03*
X95540000Y-141760000D03*
X89240000Y-141760000D03*
X82940000Y-141760000D03*
X95540000Y-157960000D03*
X89240000Y-157960000D03*
X82940000Y-157960000D03*
D13*
X105410000Y-107480000D03*
D14*
X100610000Y-104980000D03*
D15*
X105410000Y-101480000D03*
D10*
X105410000Y-142240000D03*
G04 #@! TA.AperFunction,ComponentPad*
G36*
G01*
X105790000Y-140650000D02*
X105030000Y-140650000D01*
G75*
G02*
X104460000Y-140080000I0J570000D01*
G01*
X104460000Y-139320000D01*
G75*
G02*
X105030000Y-138750000I570000J0D01*
G01*
X105790000Y-138750000D01*
G75*
G02*
X106360000Y-139320000I0J-570000D01*
G01*
X106360000Y-140080000D01*
G75*
G02*
X105790000Y-140650000I-570000J0D01*
G01*
G37*
G04 #@! TD.AperFunction*
D16*
X110410000Y-167640000D03*
X110410000Y-171640000D03*
X110410000Y-163640000D03*
X105410000Y-167640000D03*
X105410000Y-171640000D03*
X105410000Y-163640000D03*
X100410000Y-163640000D03*
X100410000Y-167640000D03*
X100410000Y-171640000D03*
D17*
X114300000Y-97790000D03*
X96520000Y-97790000D03*
D11*
X124460000Y-162560000D03*
X96520000Y-104140000D03*
X105410000Y-176530000D03*
D18*
X121920000Y-102870000D03*
X115570000Y-132080000D03*
X121285000Y-134620000D03*
X125730000Y-106680000D03*
X102870000Y-113030000D03*
X84455000Y-134620000D03*
D19*
X110410000Y-174140000D02*
X110410000Y-171640000D01*
X109925000Y-174625000D02*
X110410000Y-174140000D01*
X100895000Y-174625000D02*
X109925000Y-174625000D01*
X100410000Y-174140000D02*
X100895000Y-174625000D01*
X100410000Y-171640000D02*
X100410000Y-174140000D01*
X113030000Y-167640000D02*
X110410000Y-167640000D01*
X118110000Y-162560000D02*
X113030000Y-167640000D01*
X118110000Y-156210000D02*
X118110000Y-162560000D01*
X115280000Y-153380000D02*
X118110000Y-156210000D01*
X115280000Y-141760000D02*
X115280000Y-153380000D01*
X100410000Y-167640000D02*
X97790000Y-167640000D01*
X95540000Y-165390000D02*
X97790000Y-167640000D01*
X95540000Y-157960000D02*
X95540000Y-165390000D01*
X100610000Y-104140000D02*
X96520000Y-104140000D01*
X100610000Y-104980000D02*
X100610000Y-104140000D01*
X121580000Y-141760000D02*
X121580000Y-157960000D01*
X121580000Y-157960000D02*
X121580000Y-161585000D01*
X121580000Y-161585000D02*
X122555000Y-162560000D01*
X122555000Y-162560000D02*
X124460000Y-162560000D01*
X127000000Y-102870000D02*
X121920000Y-102870000D01*
X131445000Y-107315000D02*
X127000000Y-102870000D01*
X131445000Y-120650000D02*
X131445000Y-107315000D01*
X121285000Y-125095000D02*
X127000000Y-125095000D01*
X120015000Y-126365000D02*
X121285000Y-125095000D01*
X127000000Y-125095000D02*
X131445000Y-120650000D01*
X120015000Y-127635000D02*
X120015000Y-126365000D01*
X115570000Y-132080000D02*
X120015000Y-127635000D01*
X102870000Y-131445000D02*
X103505000Y-130810000D01*
X102870000Y-133350000D02*
X102870000Y-131445000D01*
X112395000Y-132080000D02*
X111125000Y-130810000D01*
X115570000Y-132080000D02*
X112395000Y-132080000D01*
X103505000Y-130810000D02*
X111125000Y-130810000D01*
D20*
X105410000Y-171640000D02*
X107125000Y-171640000D01*
X107125000Y-171640000D02*
X107950000Y-170815000D01*
X110410000Y-163640000D02*
X108775000Y-163640000D01*
X108775000Y-163640000D02*
X107950000Y-164465000D01*
X107950000Y-164465000D02*
X107950000Y-170815000D01*
D19*
X100410000Y-161370000D02*
X100410000Y-163640000D01*
X98425000Y-159385000D02*
X100410000Y-161370000D01*
X98425000Y-140335000D02*
X98425000Y-159385000D01*
X90170000Y-125095000D02*
X90170000Y-132080000D01*
X86360000Y-121285000D02*
X90170000Y-125095000D01*
X90170000Y-132080000D02*
X98425000Y-140335000D01*
X86360000Y-119380000D02*
X86360000Y-121285000D01*
D20*
X121285000Y-134620000D02*
X127000000Y-128905000D01*
X127000000Y-127000000D02*
X127000000Y-128905000D01*
X121920000Y-110490000D02*
X125730000Y-106680000D01*
X121920000Y-114300000D02*
X121920000Y-110490000D01*
X114935000Y-114300000D02*
X121920000Y-114300000D01*
X111760000Y-117475000D02*
X114935000Y-114300000D01*
X105410000Y-117475000D02*
X111760000Y-117475000D01*
X100330000Y-112395000D02*
X105410000Y-117475000D01*
X97790000Y-112395000D02*
X100330000Y-112395000D01*
X92710000Y-107315000D02*
X97790000Y-112395000D01*
X92710000Y-105410000D02*
X92710000Y-107315000D01*
X89535000Y-103505000D02*
X83820000Y-109220000D01*
X93980000Y-103505000D02*
X89535000Y-103505000D01*
X94615000Y-104140000D02*
X93980000Y-103505000D01*
X94615000Y-107315000D02*
X94615000Y-104140000D01*
X102870000Y-111125000D02*
X98425000Y-111125000D01*
X98425000Y-111125000D02*
X94615000Y-107315000D01*
X104775000Y-113030000D02*
X102870000Y-111125000D01*
X110490000Y-113030000D02*
X104775000Y-113030000D01*
X83820000Y-109220000D02*
X83820000Y-119380000D01*
X105410000Y-115570000D02*
X102870000Y-113030000D01*
X110490000Y-115570000D02*
X105410000Y-115570000D01*
X84455000Y-134620000D02*
X86360000Y-132715000D01*
X86360000Y-132715000D02*
X86360000Y-127000000D01*
D21*
X93970324Y-95169613D02*
X96520000Y-97719289D01*
X99069676Y-95169613D01*
X98987651Y-95030000D01*
X111832349Y-95030000D01*
X111750324Y-95169613D01*
X114300000Y-97719289D01*
X116849676Y-95169613D01*
X116767651Y-95030000D01*
X122755077Y-95030000D01*
X133570000Y-105844924D01*
X133570001Y-178020000D01*
X107016431Y-178020000D01*
X107070169Y-177954520D01*
X107149098Y-177806855D01*
X107197701Y-177646629D01*
X107214113Y-177480000D01*
X107210000Y-176792500D01*
X106997500Y-176580000D01*
X105460000Y-176580000D01*
X105460000Y-176600000D01*
X105360000Y-176600000D01*
X105360000Y-176580000D01*
X103822500Y-176580000D01*
X103610000Y-176792500D01*
X103605887Y-177480000D01*
X103622299Y-177646629D01*
X103670902Y-177806855D01*
X103749831Y-177954520D01*
X103803569Y-178020000D01*
X77250000Y-178020000D01*
X77250000Y-162382716D01*
X82655000Y-162382716D01*
X82655000Y-162737284D01*
X82724173Y-163085041D01*
X82859861Y-163412620D01*
X83056849Y-163707433D01*
X83307567Y-163958151D01*
X83602380Y-164155139D01*
X83929959Y-164290827D01*
X84277716Y-164360000D01*
X84632284Y-164360000D01*
X84980041Y-164290827D01*
X85307620Y-164155139D01*
X85602433Y-163958151D01*
X85853151Y-163707433D01*
X86050139Y-163412620D01*
X86185827Y-163085041D01*
X86255000Y-162737284D01*
X86255000Y-162382716D01*
X86185827Y-162034959D01*
X86050139Y-161707380D01*
X85853151Y-161412567D01*
X85602433Y-161161849D01*
X85307620Y-160964861D01*
X84980041Y-160829173D01*
X84632284Y-160760000D01*
X84277716Y-160760000D01*
X83929959Y-160829173D01*
X83602380Y-160964861D01*
X83307567Y-161161849D01*
X83056849Y-161412567D01*
X82859861Y-161707380D01*
X82724173Y-162034959D01*
X82655000Y-162382716D01*
X77250000Y-162382716D01*
X77250000Y-159460000D01*
X80585887Y-159460000D01*
X80602299Y-159626629D01*
X80650902Y-159786855D01*
X80729831Y-159934520D01*
X80836051Y-160063949D01*
X80965480Y-160170169D01*
X81113145Y-160249098D01*
X81273371Y-160297701D01*
X81440000Y-160314113D01*
X82677500Y-160310000D01*
X82890000Y-160097500D01*
X82890000Y-158010000D01*
X82990000Y-158010000D01*
X82990000Y-160097500D01*
X83202500Y-160310000D01*
X84440000Y-160314113D01*
X84606629Y-160297701D01*
X84766855Y-160249098D01*
X84914520Y-160170169D01*
X85043949Y-160063949D01*
X85150169Y-159934520D01*
X85229098Y-159786855D01*
X85277701Y-159626629D01*
X85294113Y-159460000D01*
X86885887Y-159460000D01*
X86902299Y-159626629D01*
X86950902Y-159786855D01*
X87029831Y-159934520D01*
X87136051Y-160063949D01*
X87265480Y-160170169D01*
X87413145Y-160249098D01*
X87573371Y-160297701D01*
X87740000Y-160314113D01*
X88977500Y-160310000D01*
X89190000Y-160097500D01*
X89190000Y-158010000D01*
X89290000Y-158010000D01*
X89290000Y-160097500D01*
X89502500Y-160310000D01*
X90740000Y-160314113D01*
X90906629Y-160297701D01*
X91066855Y-160249098D01*
X91214520Y-160170169D01*
X91343949Y-160063949D01*
X91450169Y-159934520D01*
X91529098Y-159786855D01*
X91577701Y-159626629D01*
X91594113Y-159460000D01*
X91590000Y-158222500D01*
X91377500Y-158010000D01*
X89290000Y-158010000D01*
X89190000Y-158010000D01*
X87102500Y-158010000D01*
X86890000Y-158222500D01*
X86885887Y-159460000D01*
X85294113Y-159460000D01*
X85290000Y-158222500D01*
X85077500Y-158010000D01*
X82990000Y-158010000D01*
X82890000Y-158010000D01*
X80802500Y-158010000D01*
X80590000Y-158222500D01*
X80585887Y-159460000D01*
X77250000Y-159460000D01*
X77250000Y-156460000D01*
X80585887Y-156460000D01*
X80590000Y-157697500D01*
X80802500Y-157910000D01*
X82890000Y-157910000D01*
X82890000Y-155822500D01*
X82990000Y-155822500D01*
X82990000Y-157910000D01*
X85077500Y-157910000D01*
X85290000Y-157697500D01*
X85294113Y-156460000D01*
X86885887Y-156460000D01*
X86890000Y-157697500D01*
X87102500Y-157910000D01*
X89190000Y-157910000D01*
X89190000Y-155822500D01*
X89290000Y-155822500D01*
X89290000Y-157910000D01*
X91377500Y-157910000D01*
X91590000Y-157697500D01*
X91594113Y-156460000D01*
X91577701Y-156293371D01*
X91529098Y-156133145D01*
X91450169Y-155985480D01*
X91343949Y-155856051D01*
X91214520Y-155749831D01*
X91066855Y-155670902D01*
X90906629Y-155622299D01*
X90740000Y-155605887D01*
X89502500Y-155610000D01*
X89290000Y-155822500D01*
X89190000Y-155822500D01*
X88977500Y-155610000D01*
X87740000Y-155605887D01*
X87573371Y-155622299D01*
X87413145Y-155670902D01*
X87265480Y-155749831D01*
X87136051Y-155856051D01*
X87029831Y-155985480D01*
X86950902Y-156133145D01*
X86902299Y-156293371D01*
X86885887Y-156460000D01*
X85294113Y-156460000D01*
X85277701Y-156293371D01*
X85229098Y-156133145D01*
X85150169Y-155985480D01*
X85043949Y-155856051D01*
X84914520Y-155749831D01*
X84766855Y-155670902D01*
X84606629Y-155622299D01*
X84440000Y-155605887D01*
X83202500Y-155610000D01*
X82990000Y-155822500D01*
X82890000Y-155822500D01*
X82677500Y-155610000D01*
X81440000Y-155605887D01*
X81273371Y-155622299D01*
X81113145Y-155670902D01*
X80965480Y-155749831D01*
X80836051Y-155856051D01*
X80729831Y-155985480D01*
X80650902Y-156133145D01*
X80602299Y-156293371D01*
X80585887Y-156460000D01*
X77250000Y-156460000D01*
X77250000Y-143260000D01*
X80585887Y-143260000D01*
X80602299Y-143426629D01*
X80650902Y-143586855D01*
X80729831Y-143734520D01*
X80836051Y-143863949D01*
X80965480Y-143970169D01*
X81113145Y-144049098D01*
X81273371Y-144097701D01*
X81440000Y-144114113D01*
X82677500Y-144110000D01*
X82890000Y-143897500D01*
X82890000Y-141810000D01*
X82990000Y-141810000D01*
X82990000Y-143897500D01*
X83202500Y-144110000D01*
X84440000Y-144114113D01*
X84606629Y-144097701D01*
X84766855Y-144049098D01*
X84914520Y-143970169D01*
X85043949Y-143863949D01*
X85150169Y-143734520D01*
X85229098Y-143586855D01*
X85277701Y-143426629D01*
X85294113Y-143260000D01*
X86885887Y-143260000D01*
X86902299Y-143426629D01*
X86950902Y-143586855D01*
X87029831Y-143734520D01*
X87136051Y-143863949D01*
X87265480Y-143970169D01*
X87413145Y-144049098D01*
X87573371Y-144097701D01*
X87740000Y-144114113D01*
X88977500Y-144110000D01*
X89190000Y-143897500D01*
X89190000Y-141810000D01*
X89290000Y-141810000D01*
X89290000Y-143897500D01*
X89502500Y-144110000D01*
X90740000Y-144114113D01*
X90906629Y-144097701D01*
X91066855Y-144049098D01*
X91214520Y-143970169D01*
X91343949Y-143863949D01*
X91450169Y-143734520D01*
X91529098Y-143586855D01*
X91577701Y-143426629D01*
X91594113Y-143260000D01*
X91590000Y-142022500D01*
X91377500Y-141810000D01*
X89290000Y-141810000D01*
X89190000Y-141810000D01*
X87102500Y-141810000D01*
X86890000Y-142022500D01*
X86885887Y-143260000D01*
X85294113Y-143260000D01*
X85290000Y-142022500D01*
X85077500Y-141810000D01*
X82990000Y-141810000D01*
X82890000Y-141810000D01*
X80802500Y-141810000D01*
X80590000Y-142022500D01*
X80585887Y-143260000D01*
X77250000Y-143260000D01*
X77250000Y-140260000D01*
X80585887Y-140260000D01*
X80590000Y-141497500D01*
X80802500Y-141710000D01*
X82890000Y-141710000D01*
X82890000Y-139622500D01*
X82990000Y-139622500D01*
X82990000Y-141710000D01*
X85077500Y-141710000D01*
X85290000Y-141497500D01*
X85294113Y-140260000D01*
X86885887Y-140260000D01*
X86890000Y-141497500D01*
X87102500Y-141710000D01*
X89190000Y-141710000D01*
X89190000Y-139622500D01*
X89290000Y-139622500D01*
X89290000Y-141710000D01*
X91377500Y-141710000D01*
X91590000Y-141497500D01*
X91594113Y-140260000D01*
X91577701Y-140093371D01*
X91529098Y-139933145D01*
X91450169Y-139785480D01*
X91343949Y-139656051D01*
X91214520Y-139549831D01*
X91066855Y-139470902D01*
X90906629Y-139422299D01*
X90740000Y-139405887D01*
X89502500Y-139410000D01*
X89290000Y-139622500D01*
X89190000Y-139622500D01*
X88977500Y-139410000D01*
X87740000Y-139405887D01*
X87573371Y-139422299D01*
X87413145Y-139470902D01*
X87265480Y-139549831D01*
X87136051Y-139656051D01*
X87029831Y-139785480D01*
X86950902Y-139933145D01*
X86902299Y-140093371D01*
X86885887Y-140260000D01*
X85294113Y-140260000D01*
X85277701Y-140093371D01*
X85229098Y-139933145D01*
X85150169Y-139785480D01*
X85043949Y-139656051D01*
X84914520Y-139549831D01*
X84766855Y-139470902D01*
X84606629Y-139422299D01*
X84440000Y-139405887D01*
X83202500Y-139410000D01*
X82990000Y-139622500D01*
X82890000Y-139622500D01*
X82677500Y-139410000D01*
X81440000Y-139405887D01*
X81273371Y-139422299D01*
X81113145Y-139470902D01*
X80965480Y-139549831D01*
X80836051Y-139656051D01*
X80729831Y-139785480D01*
X80650902Y-139933145D01*
X80602299Y-140093371D01*
X80585887Y-140260000D01*
X77250000Y-140260000D01*
X77250000Y-126822716D01*
X79480000Y-126822716D01*
X79480000Y-127177284D01*
X79549173Y-127525041D01*
X79684861Y-127852620D01*
X79881849Y-128147433D01*
X80132567Y-128398151D01*
X80427380Y-128595139D01*
X80754959Y-128730827D01*
X81102716Y-128800000D01*
X81457284Y-128800000D01*
X81805041Y-128730827D01*
X82132620Y-128595139D01*
X82240629Y-128522970D01*
X82266052Y-128553948D01*
X82395481Y-128660168D01*
X82543145Y-128739097D01*
X82703371Y-128787700D01*
X82870000Y-128804112D01*
X84770000Y-128804112D01*
X84936629Y-128787700D01*
X85090000Y-128741176D01*
X85210001Y-128777577D01*
X85210000Y-132238655D01*
X84428656Y-133020000D01*
X84297414Y-133020000D01*
X83988297Y-133081487D01*
X83697116Y-133202098D01*
X83435059Y-133377199D01*
X83212199Y-133600059D01*
X83037098Y-133862116D01*
X82916487Y-134153297D01*
X82855000Y-134462414D01*
X82855000Y-134777586D01*
X82916487Y-135086703D01*
X83037098Y-135377884D01*
X83212199Y-135639941D01*
X83435059Y-135862801D01*
X83697116Y-136037902D01*
X83988297Y-136158513D01*
X84297414Y-136220000D01*
X84612586Y-136220000D01*
X84921703Y-136158513D01*
X85212884Y-136037902D01*
X85474941Y-135862801D01*
X85697801Y-135639941D01*
X85872902Y-135377884D01*
X85993513Y-135086703D01*
X86055000Y-134777586D01*
X86055000Y-134646344D01*
X87133226Y-133568119D01*
X87177107Y-133532107D01*
X87320816Y-133356997D01*
X87427602Y-133157215D01*
X87493360Y-132940439D01*
X87510000Y-132771492D01*
X87510000Y-132771484D01*
X87515563Y-132715000D01*
X87510000Y-132658516D01*
X87510000Y-128777577D01*
X87636855Y-128739097D01*
X87784519Y-128660168D01*
X87913948Y-128553948D01*
X88020168Y-128424519D01*
X88099097Y-128276855D01*
X88147700Y-128116629D01*
X88164112Y-127950000D01*
X88164112Y-126050000D01*
X88147700Y-125883371D01*
X88099097Y-125723145D01*
X88020168Y-125575481D01*
X87913948Y-125446052D01*
X87784519Y-125339832D01*
X87636855Y-125260903D01*
X87476629Y-125212300D01*
X87310000Y-125195888D01*
X85410000Y-125195888D01*
X85243371Y-125212300D01*
X85090000Y-125258824D01*
X84936629Y-125212300D01*
X84770000Y-125195888D01*
X82870000Y-125195888D01*
X82703371Y-125212300D01*
X82543145Y-125260903D01*
X82395481Y-125339832D01*
X82266052Y-125446052D01*
X82240629Y-125477030D01*
X82132620Y-125404861D01*
X81805041Y-125269173D01*
X81457284Y-125200000D01*
X81102716Y-125200000D01*
X80754959Y-125269173D01*
X80427380Y-125404861D01*
X80132567Y-125601849D01*
X79881849Y-125852567D01*
X79684861Y-126147380D01*
X79549173Y-126474959D01*
X79480000Y-126822716D01*
X77250000Y-126822716D01*
X77250000Y-119358979D01*
X79471413Y-119358979D01*
X79502064Y-119712221D01*
X79601039Y-120052695D01*
X79764537Y-120367318D01*
X79787893Y-120402276D01*
X80116508Y-120472781D01*
X81209289Y-119380000D01*
X80116508Y-118287219D01*
X79787893Y-118357724D01*
X79617127Y-118668463D01*
X79510265Y-119006545D01*
X79471413Y-119358979D01*
X77250000Y-119358979D01*
X77250000Y-118216508D01*
X80187219Y-118216508D01*
X81280000Y-119309289D01*
X81294142Y-119295147D01*
X81364853Y-119365858D01*
X81350711Y-119380000D01*
X81364853Y-119394142D01*
X81294142Y-119464853D01*
X81280000Y-119450711D01*
X80187219Y-120543492D01*
X80257724Y-120872107D01*
X80568463Y-121042873D01*
X80906545Y-121149735D01*
X81258979Y-121188587D01*
X81612221Y-121157936D01*
X81952695Y-121058961D01*
X82244289Y-120907430D01*
X82266052Y-120933948D01*
X82395481Y-121040168D01*
X82543145Y-121119097D01*
X82703371Y-121167700D01*
X82870000Y-121184112D01*
X84770000Y-121184112D01*
X84936629Y-121167700D01*
X85010001Y-121145443D01*
X85010001Y-121218672D01*
X85003468Y-121285000D01*
X85029534Y-121549646D01*
X85106729Y-121804122D01*
X85232085Y-122038649D01*
X85358510Y-122192698D01*
X85358514Y-122192702D01*
X85400788Y-122244213D01*
X85452299Y-122286487D01*
X88820000Y-125654188D01*
X88820001Y-132013671D01*
X88813468Y-132080000D01*
X88839534Y-132344646D01*
X88916729Y-132599122D01*
X89042085Y-132833649D01*
X89168510Y-132987698D01*
X89168514Y-132987702D01*
X89210788Y-133039213D01*
X89262299Y-133081487D01*
X95586699Y-139405888D01*
X94040000Y-139405888D01*
X93873371Y-139422300D01*
X93713145Y-139470903D01*
X93565481Y-139549832D01*
X93436052Y-139656052D01*
X93329832Y-139785481D01*
X93250903Y-139933145D01*
X93202300Y-140093371D01*
X93185888Y-140260000D01*
X93185888Y-143260000D01*
X93202300Y-143426629D01*
X93250903Y-143586855D01*
X93329832Y-143734519D01*
X93436052Y-143863948D01*
X93565481Y-143970168D01*
X93713145Y-144049097D01*
X93873371Y-144097700D01*
X94040000Y-144114112D01*
X97040000Y-144114112D01*
X97075000Y-144110665D01*
X97075001Y-155609335D01*
X97040000Y-155605888D01*
X94040000Y-155605888D01*
X93873371Y-155622300D01*
X93713145Y-155670903D01*
X93565481Y-155749832D01*
X93436052Y-155856052D01*
X93329832Y-155985481D01*
X93250903Y-156133145D01*
X93202300Y-156293371D01*
X93185888Y-156460000D01*
X93185888Y-159460000D01*
X93202300Y-159626629D01*
X93250903Y-159786855D01*
X93329832Y-159934519D01*
X93436052Y-160063948D01*
X93565481Y-160170168D01*
X93713145Y-160249097D01*
X93873371Y-160297700D01*
X94040000Y-160314112D01*
X94190000Y-160314112D01*
X94190000Y-160755888D01*
X92395000Y-160755888D01*
X92228371Y-160772300D01*
X92068145Y-160820903D01*
X91920481Y-160899832D01*
X91791052Y-161006052D01*
X91684832Y-161135481D01*
X91605903Y-161283145D01*
X91557300Y-161443371D01*
X91540888Y-161610000D01*
X91540888Y-163510000D01*
X91557300Y-163676629D01*
X91605903Y-163836855D01*
X91684832Y-163984519D01*
X91791052Y-164113948D01*
X91920481Y-164220168D01*
X92068145Y-164299097D01*
X92228371Y-164347700D01*
X92395000Y-164364112D01*
X94190001Y-164364112D01*
X94190001Y-165323671D01*
X94183468Y-165390000D01*
X94209534Y-165654646D01*
X94286729Y-165909122D01*
X94412085Y-166143649D01*
X94538510Y-166297698D01*
X94538514Y-166297702D01*
X94580788Y-166349213D01*
X94632299Y-166391487D01*
X96788509Y-168547697D01*
X96830787Y-168599213D01*
X96882302Y-168641490D01*
X97036351Y-168767915D01*
X97270877Y-168893272D01*
X97525354Y-168970467D01*
X97790000Y-168996532D01*
X97856321Y-168990000D01*
X98315737Y-168990000D01*
X98322300Y-169056629D01*
X98370903Y-169216855D01*
X98449832Y-169364519D01*
X98556052Y-169493948D01*
X98685481Y-169600168D01*
X98760001Y-169640000D01*
X98685481Y-169679832D01*
X98556052Y-169786052D01*
X98449832Y-169915481D01*
X98370903Y-170063145D01*
X98322300Y-170223371D01*
X98305888Y-170390000D01*
X98305888Y-172890000D01*
X98322300Y-173056629D01*
X98370903Y-173216855D01*
X98449832Y-173364519D01*
X98556052Y-173493948D01*
X98685481Y-173600168D01*
X98833145Y-173679097D01*
X98993371Y-173727700D01*
X99060001Y-173734263D01*
X99060001Y-174073671D01*
X99053468Y-174140000D01*
X99079534Y-174404646D01*
X99156729Y-174659122D01*
X99282085Y-174893649D01*
X99408510Y-175047698D01*
X99408514Y-175047702D01*
X99450788Y-175099213D01*
X99502300Y-175141488D01*
X99893505Y-175532692D01*
X99935787Y-175584213D01*
X100141351Y-175752915D01*
X100375878Y-175878272D01*
X100630354Y-175955467D01*
X100828679Y-175975000D01*
X100828681Y-175975000D01*
X100895000Y-175981532D01*
X100961319Y-175975000D01*
X103608250Y-175975000D01*
X103610000Y-176267500D01*
X103822500Y-176480000D01*
X105360000Y-176480000D01*
X105360000Y-176460000D01*
X105460000Y-176460000D01*
X105460000Y-176480000D01*
X106997500Y-176480000D01*
X107210000Y-176267500D01*
X107211750Y-175975000D01*
X109858681Y-175975000D01*
X109925000Y-175981532D01*
X109991319Y-175975000D01*
X109991321Y-175975000D01*
X110189646Y-175955467D01*
X110444122Y-175878272D01*
X110678649Y-175752915D01*
X110884213Y-175584213D01*
X110926492Y-175532696D01*
X111317696Y-175141491D01*
X111369212Y-175099213D01*
X111537915Y-174893649D01*
X111663272Y-174659122D01*
X111740467Y-174404646D01*
X111760000Y-174206321D01*
X111760000Y-174206319D01*
X111766532Y-174140000D01*
X111760000Y-174073681D01*
X111760000Y-173734263D01*
X111826629Y-173727700D01*
X111986855Y-173679097D01*
X112134519Y-173600168D01*
X112263948Y-173493948D01*
X112370168Y-173364519D01*
X112449097Y-173216855D01*
X112497700Y-173056629D01*
X112514112Y-172890000D01*
X112514112Y-170390000D01*
X112497700Y-170223371D01*
X112449097Y-170063145D01*
X112370168Y-169915481D01*
X112263948Y-169786052D01*
X112134519Y-169679832D01*
X112059999Y-169640000D01*
X112134519Y-169600168D01*
X112263948Y-169493948D01*
X112370168Y-169364519D01*
X112449097Y-169216855D01*
X112497700Y-169056629D01*
X112504263Y-168990000D01*
X112963681Y-168990000D01*
X113030000Y-168996532D01*
X113096319Y-168990000D01*
X113096321Y-168990000D01*
X113294646Y-168970467D01*
X113549122Y-168893272D01*
X113783649Y-168767915D01*
X113989213Y-168599213D01*
X114031491Y-168547697D01*
X119017702Y-163561487D01*
X119069213Y-163519213D01*
X119111487Y-163467702D01*
X119111490Y-163467699D01*
X119237915Y-163313650D01*
X119363271Y-163079123D01*
X119363272Y-163079122D01*
X119440467Y-162824646D01*
X119460000Y-162626321D01*
X119460000Y-162626319D01*
X119466532Y-162560000D01*
X119460000Y-162493681D01*
X119460000Y-160044389D01*
X119476052Y-160063948D01*
X119605481Y-160170168D01*
X119753145Y-160249097D01*
X119913371Y-160297700D01*
X120080000Y-160314112D01*
X120230001Y-160314112D01*
X120230001Y-161518671D01*
X120223468Y-161585000D01*
X120249534Y-161849646D01*
X120326729Y-162104122D01*
X120452085Y-162338649D01*
X120578510Y-162492698D01*
X120578514Y-162492702D01*
X120620788Y-162544213D01*
X120672298Y-162586486D01*
X121553513Y-163467702D01*
X121595787Y-163519213D01*
X121647298Y-163561487D01*
X121647301Y-163561490D01*
X121801350Y-163687915D01*
X121926707Y-163754919D01*
X122035878Y-163813272D01*
X122290354Y-163890467D01*
X122488679Y-163910000D01*
X122488688Y-163910000D01*
X122554999Y-163916531D01*
X122621310Y-163910000D01*
X122760000Y-163910000D01*
X122799832Y-163984519D01*
X122859067Y-164056697D01*
X122766711Y-164194918D01*
X122622675Y-164542653D01*
X122549245Y-164911807D01*
X122549245Y-165288193D01*
X122622675Y-165657347D01*
X122766711Y-166005082D01*
X122975820Y-166318035D01*
X123241965Y-166584180D01*
X123554918Y-166793289D01*
X123902653Y-166937325D01*
X124271807Y-167010755D01*
X124648193Y-167010755D01*
X125017347Y-166937325D01*
X125365082Y-166793289D01*
X125678035Y-166584180D01*
X125944180Y-166318035D01*
X126153289Y-166005082D01*
X126297325Y-165657347D01*
X126370755Y-165288193D01*
X126370755Y-164911807D01*
X126297325Y-164542653D01*
X126153289Y-164194918D01*
X126060933Y-164056697D01*
X126120168Y-163984519D01*
X126199097Y-163836855D01*
X126247700Y-163676629D01*
X126264112Y-163510000D01*
X126264112Y-161610000D01*
X126247700Y-161443371D01*
X126199097Y-161283145D01*
X126120168Y-161135481D01*
X126013948Y-161006052D01*
X125884519Y-160899832D01*
X125736855Y-160820903D01*
X125576629Y-160772300D01*
X125410000Y-160755888D01*
X123510000Y-160755888D01*
X123343371Y-160772300D01*
X123183145Y-160820903D01*
X123035481Y-160899832D01*
X122930000Y-160986398D01*
X122930000Y-160314112D01*
X123080000Y-160314112D01*
X123246629Y-160297700D01*
X123406855Y-160249097D01*
X123554519Y-160170168D01*
X123683948Y-160063948D01*
X123790168Y-159934519D01*
X123869097Y-159786855D01*
X123917700Y-159626629D01*
X123934112Y-159460000D01*
X125525887Y-159460000D01*
X125542299Y-159626629D01*
X125590902Y-159786855D01*
X125669831Y-159934520D01*
X125776051Y-160063949D01*
X125905480Y-160170169D01*
X126053145Y-160249098D01*
X126213371Y-160297701D01*
X126380000Y-160314113D01*
X127617500Y-160310000D01*
X127830000Y-160097500D01*
X127830000Y-158010000D01*
X127930000Y-158010000D01*
X127930000Y-160097500D01*
X128142500Y-160310000D01*
X129380000Y-160314113D01*
X129546629Y-160297701D01*
X129706855Y-160249098D01*
X129854520Y-160170169D01*
X129983949Y-160063949D01*
X130090169Y-159934520D01*
X130169098Y-159786855D01*
X130217701Y-159626629D01*
X130234113Y-159460000D01*
X130230000Y-158222500D01*
X130017500Y-158010000D01*
X127930000Y-158010000D01*
X127830000Y-158010000D01*
X125742500Y-158010000D01*
X125530000Y-158222500D01*
X125525887Y-159460000D01*
X123934112Y-159460000D01*
X123934112Y-156460000D01*
X125525887Y-156460000D01*
X125530000Y-157697500D01*
X125742500Y-157910000D01*
X127830000Y-157910000D01*
X127830000Y-155822500D01*
X127930000Y-155822500D01*
X127930000Y-157910000D01*
X130017500Y-157910000D01*
X130230000Y-157697500D01*
X130234113Y-156460000D01*
X130217701Y-156293371D01*
X130169098Y-156133145D01*
X130090169Y-155985480D01*
X129983949Y-155856051D01*
X129854520Y-155749831D01*
X129706855Y-155670902D01*
X129546629Y-155622299D01*
X129380000Y-155605887D01*
X128142500Y-155610000D01*
X127930000Y-155822500D01*
X127830000Y-155822500D01*
X127617500Y-155610000D01*
X126380000Y-155605887D01*
X126213371Y-155622299D01*
X126053145Y-155670902D01*
X125905480Y-155749831D01*
X125776051Y-155856051D01*
X125669831Y-155985480D01*
X125590902Y-156133145D01*
X125542299Y-156293371D01*
X125525887Y-156460000D01*
X123934112Y-156460000D01*
X123917700Y-156293371D01*
X123869097Y-156133145D01*
X123790168Y-155985481D01*
X123683948Y-155856052D01*
X123554519Y-155749832D01*
X123406855Y-155670903D01*
X123246629Y-155622300D01*
X123080000Y-155605888D01*
X122930000Y-155605888D01*
X122930000Y-144114112D01*
X123080000Y-144114112D01*
X123246629Y-144097700D01*
X123406855Y-144049097D01*
X123554519Y-143970168D01*
X123683948Y-143863948D01*
X123790168Y-143734519D01*
X123869097Y-143586855D01*
X123917700Y-143426629D01*
X123934112Y-143260000D01*
X125525887Y-143260000D01*
X125542299Y-143426629D01*
X125590902Y-143586855D01*
X125669831Y-143734520D01*
X125776051Y-143863949D01*
X125905480Y-143970169D01*
X126053145Y-144049098D01*
X126213371Y-144097701D01*
X126380000Y-144114113D01*
X127617500Y-144110000D01*
X127830000Y-143897500D01*
X127830000Y-141810000D01*
X127930000Y-141810000D01*
X127930000Y-143897500D01*
X128142500Y-144110000D01*
X129380000Y-144114113D01*
X129546629Y-144097701D01*
X129706855Y-144049098D01*
X129854520Y-143970169D01*
X129983949Y-143863949D01*
X130090169Y-143734520D01*
X130169098Y-143586855D01*
X130217701Y-143426629D01*
X130234113Y-143260000D01*
X130230000Y-142022500D01*
X130017500Y-141810000D01*
X127930000Y-141810000D01*
X127830000Y-141810000D01*
X125742500Y-141810000D01*
X125530000Y-142022500D01*
X125525887Y-143260000D01*
X123934112Y-143260000D01*
X123934112Y-140260000D01*
X125525887Y-140260000D01*
X125530000Y-141497500D01*
X125742500Y-141710000D01*
X127830000Y-141710000D01*
X127830000Y-139622500D01*
X127930000Y-139622500D01*
X127930000Y-141710000D01*
X130017500Y-141710000D01*
X130230000Y-141497500D01*
X130234113Y-140260000D01*
X130217701Y-140093371D01*
X130169098Y-139933145D01*
X130090169Y-139785480D01*
X129983949Y-139656051D01*
X129854520Y-139549831D01*
X129706855Y-139470902D01*
X129546629Y-139422299D01*
X129380000Y-139405887D01*
X128142500Y-139410000D01*
X127930000Y-139622500D01*
X127830000Y-139622500D01*
X127617500Y-139410000D01*
X126380000Y-139405887D01*
X126213371Y-139422299D01*
X126053145Y-139470902D01*
X125905480Y-139549831D01*
X125776051Y-139656051D01*
X125669831Y-139785480D01*
X125590902Y-139933145D01*
X125542299Y-140093371D01*
X125525887Y-140260000D01*
X123934112Y-140260000D01*
X123917700Y-140093371D01*
X123869097Y-139933145D01*
X123790168Y-139785481D01*
X123683948Y-139656052D01*
X123554519Y-139549832D01*
X123406855Y-139470903D01*
X123246629Y-139422300D01*
X123080000Y-139405888D01*
X120080000Y-139405888D01*
X119913371Y-139422300D01*
X119753145Y-139470903D01*
X119605481Y-139549832D01*
X119476052Y-139656052D01*
X119369832Y-139785481D01*
X119290903Y-139933145D01*
X119242300Y-140093371D01*
X119225888Y-140260000D01*
X119225888Y-143260000D01*
X119242300Y-143426629D01*
X119290903Y-143586855D01*
X119369832Y-143734519D01*
X119476052Y-143863948D01*
X119605481Y-143970168D01*
X119753145Y-144049097D01*
X119913371Y-144097700D01*
X120080000Y-144114112D01*
X120230000Y-144114112D01*
X120230001Y-155605888D01*
X120080000Y-155605888D01*
X119913371Y-155622300D01*
X119753145Y-155670903D01*
X119605481Y-155749832D01*
X119476052Y-155856052D01*
X119430292Y-155911811D01*
X119363272Y-155690878D01*
X119237915Y-155456351D01*
X119069212Y-155250787D01*
X119017701Y-155208513D01*
X116630000Y-152820812D01*
X116630000Y-144114112D01*
X116780000Y-144114112D01*
X116946629Y-144097700D01*
X117106855Y-144049097D01*
X117254519Y-143970168D01*
X117383948Y-143863948D01*
X117490168Y-143734519D01*
X117569097Y-143586855D01*
X117617700Y-143426629D01*
X117634112Y-143260000D01*
X117634112Y-140260000D01*
X117617700Y-140093371D01*
X117569097Y-139933145D01*
X117490168Y-139785481D01*
X117383948Y-139656052D01*
X117254519Y-139549832D01*
X117106855Y-139470903D01*
X116946629Y-139422300D01*
X116780000Y-139405888D01*
X113780000Y-139405888D01*
X113613371Y-139422300D01*
X113453145Y-139470903D01*
X113305481Y-139549832D01*
X113176052Y-139656052D01*
X113069832Y-139785481D01*
X112990903Y-139933145D01*
X112942300Y-140093371D01*
X112925888Y-140260000D01*
X112925888Y-143260000D01*
X112942300Y-143426629D01*
X112990903Y-143586855D01*
X113069832Y-143734519D01*
X113176052Y-143863948D01*
X113305481Y-143970168D01*
X113453145Y-144049097D01*
X113613371Y-144097700D01*
X113780000Y-144114112D01*
X113930000Y-144114112D01*
X113930001Y-153313671D01*
X113923468Y-153380000D01*
X113949534Y-153644646D01*
X114026729Y-153899122D01*
X114152085Y-154133649D01*
X114278510Y-154287698D01*
X114278514Y-154287702D01*
X114320788Y-154339213D01*
X114372299Y-154381487D01*
X115600619Y-155609807D01*
X115542500Y-155610000D01*
X115330000Y-155822500D01*
X115330000Y-157910000D01*
X115350000Y-157910000D01*
X115350000Y-158010000D01*
X115330000Y-158010000D01*
X115330000Y-160097500D01*
X115542500Y-160310000D01*
X116760001Y-160314047D01*
X116760001Y-162000810D01*
X112501263Y-166259549D01*
X112497700Y-166223371D01*
X112449097Y-166063145D01*
X112370168Y-165915481D01*
X112263948Y-165786052D01*
X112134519Y-165679832D01*
X112059999Y-165640000D01*
X112134519Y-165600168D01*
X112263948Y-165493948D01*
X112370168Y-165364519D01*
X112449097Y-165216855D01*
X112497700Y-165056629D01*
X112514112Y-164890000D01*
X112514112Y-162390000D01*
X112497700Y-162223371D01*
X112449097Y-162063145D01*
X112370168Y-161915481D01*
X112263948Y-161786052D01*
X112134519Y-161679832D01*
X111986855Y-161600903D01*
X111826629Y-161552300D01*
X111660000Y-161535888D01*
X109160000Y-161535888D01*
X108993371Y-161552300D01*
X108833145Y-161600903D01*
X108685481Y-161679832D01*
X108556052Y-161786052D01*
X108449832Y-161915481D01*
X108370903Y-162063145D01*
X108322300Y-162223371D01*
X108305888Y-162390000D01*
X108305888Y-162586775D01*
X108133003Y-162679184D01*
X108133001Y-162679185D01*
X108133002Y-162679185D01*
X108001772Y-162786882D01*
X108001769Y-162786885D01*
X107957893Y-162822893D01*
X107921884Y-162866770D01*
X107514112Y-163274543D01*
X107514112Y-162390000D01*
X107497700Y-162223371D01*
X107449097Y-162063145D01*
X107370168Y-161915481D01*
X107263948Y-161786052D01*
X107134519Y-161679832D01*
X106986855Y-161600903D01*
X106826629Y-161552300D01*
X106660000Y-161535888D01*
X104160000Y-161535888D01*
X103993371Y-161552300D01*
X103833145Y-161600903D01*
X103685481Y-161679832D01*
X103556052Y-161786052D01*
X103449832Y-161915481D01*
X103370903Y-162063145D01*
X103322300Y-162223371D01*
X103305888Y-162390000D01*
X103305888Y-164890000D01*
X103322300Y-165056629D01*
X103370903Y-165216855D01*
X103449832Y-165364519D01*
X103556052Y-165493948D01*
X103685481Y-165600168D01*
X103759999Y-165639999D01*
X103685480Y-165679831D01*
X103556051Y-165786051D01*
X103449831Y-165915480D01*
X103370902Y-166063145D01*
X103322299Y-166223371D01*
X103305887Y-166390000D01*
X103310000Y-167377500D01*
X103522500Y-167590000D01*
X105360000Y-167590000D01*
X105360000Y-167570000D01*
X105460000Y-167570000D01*
X105460000Y-167590000D01*
X105480000Y-167590000D01*
X105480000Y-167690000D01*
X105460000Y-167690000D01*
X105460000Y-167710000D01*
X105360000Y-167710000D01*
X105360000Y-167690000D01*
X103522500Y-167690000D01*
X103310000Y-167902500D01*
X103305887Y-168890000D01*
X103322299Y-169056629D01*
X103370902Y-169216855D01*
X103449831Y-169364520D01*
X103556051Y-169493949D01*
X103685480Y-169600169D01*
X103759999Y-169640001D01*
X103685481Y-169679832D01*
X103556052Y-169786052D01*
X103449832Y-169915481D01*
X103370903Y-170063145D01*
X103322300Y-170223371D01*
X103305888Y-170390000D01*
X103305888Y-172890000D01*
X103322300Y-173056629D01*
X103370903Y-173216855D01*
X103401983Y-173275000D01*
X102418017Y-173275000D01*
X102449097Y-173216855D01*
X102497700Y-173056629D01*
X102514112Y-172890000D01*
X102514112Y-170390000D01*
X102497700Y-170223371D01*
X102449097Y-170063145D01*
X102370168Y-169915481D01*
X102263948Y-169786052D01*
X102134519Y-169679832D01*
X102059999Y-169640000D01*
X102134519Y-169600168D01*
X102263948Y-169493948D01*
X102370168Y-169364519D01*
X102449097Y-169216855D01*
X102497700Y-169056629D01*
X102514112Y-168890000D01*
X102514112Y-166390000D01*
X102497700Y-166223371D01*
X102449097Y-166063145D01*
X102370168Y-165915481D01*
X102263948Y-165786052D01*
X102134519Y-165679832D01*
X102059999Y-165640000D01*
X102134519Y-165600168D01*
X102263948Y-165493948D01*
X102370168Y-165364519D01*
X102449097Y-165216855D01*
X102497700Y-165056629D01*
X102514112Y-164890000D01*
X102514112Y-162390000D01*
X102497700Y-162223371D01*
X102449097Y-162063145D01*
X102370168Y-161915481D01*
X102263948Y-161786052D01*
X102134519Y-161679832D01*
X101986855Y-161600903D01*
X101826629Y-161552300D01*
X101760000Y-161545737D01*
X101760000Y-161436319D01*
X101766532Y-161370000D01*
X101760000Y-161303679D01*
X101740467Y-161105354D01*
X101663272Y-160850878D01*
X101604825Y-160741532D01*
X101537915Y-160616350D01*
X101411490Y-160462301D01*
X101411483Y-160462294D01*
X101369212Y-160410787D01*
X101317706Y-160368517D01*
X100409189Y-159460000D01*
X112925887Y-159460000D01*
X112942299Y-159626629D01*
X112990902Y-159786855D01*
X113069831Y-159934520D01*
X113176051Y-160063949D01*
X113305480Y-160170169D01*
X113453145Y-160249098D01*
X113613371Y-160297701D01*
X113780000Y-160314113D01*
X115017500Y-160310000D01*
X115230000Y-160097500D01*
X115230000Y-158010000D01*
X113142500Y-158010000D01*
X112930000Y-158222500D01*
X112925887Y-159460000D01*
X100409189Y-159460000D01*
X99775000Y-158825812D01*
X99775000Y-156460000D01*
X112925887Y-156460000D01*
X112930000Y-157697500D01*
X113142500Y-157910000D01*
X115230000Y-157910000D01*
X115230000Y-155822500D01*
X115017500Y-155610000D01*
X113780000Y-155605887D01*
X113613371Y-155622299D01*
X113453145Y-155670902D01*
X113305480Y-155749831D01*
X113176051Y-155856051D01*
X113069831Y-155985480D01*
X112990902Y-156133145D01*
X112942299Y-156293371D01*
X112925887Y-156460000D01*
X99775000Y-156460000D01*
X99775000Y-140401319D01*
X99781532Y-140335000D01*
X99774145Y-140260000D01*
X99755467Y-140070354D01*
X99678272Y-139815878D01*
X99619919Y-139706707D01*
X99552915Y-139581350D01*
X99426490Y-139427301D01*
X99426483Y-139427294D01*
X99384212Y-139375787D01*
X99332707Y-139333518D01*
X99319189Y-139320000D01*
X103605888Y-139320000D01*
X103605888Y-140080000D01*
X103633252Y-140357830D01*
X103714292Y-140624984D01*
X103845894Y-140871194D01*
X104020484Y-141083932D01*
X104011849Y-141092567D01*
X103814861Y-141387380D01*
X103679173Y-141714959D01*
X103610000Y-142062716D01*
X103610000Y-142417284D01*
X103679173Y-142765041D01*
X103814861Y-143092620D01*
X104011849Y-143387433D01*
X104262567Y-143638151D01*
X104557380Y-143835139D01*
X104884959Y-143970827D01*
X105232716Y-144040000D01*
X105587284Y-144040000D01*
X105935041Y-143970827D01*
X106262620Y-143835139D01*
X106557433Y-143638151D01*
X106808151Y-143387433D01*
X107005139Y-143092620D01*
X107140827Y-142765041D01*
X107210000Y-142417284D01*
X107210000Y-142062716D01*
X107140827Y-141714959D01*
X107005139Y-141387380D01*
X106808151Y-141092567D01*
X106799516Y-141083932D01*
X106974106Y-140871194D01*
X107105708Y-140624984D01*
X107186748Y-140357830D01*
X107214112Y-140080000D01*
X107214112Y-139320000D01*
X107186748Y-139042170D01*
X107105708Y-138775016D01*
X106974106Y-138528806D01*
X106796999Y-138313001D01*
X106581194Y-138135894D01*
X106334984Y-138004292D01*
X106067830Y-137923252D01*
X105790000Y-137895888D01*
X105030000Y-137895888D01*
X104752170Y-137923252D01*
X104485016Y-138004292D01*
X104238806Y-138135894D01*
X104023001Y-138313001D01*
X103845894Y-138528806D01*
X103714292Y-138775016D01*
X103633252Y-139042170D01*
X103605888Y-139320000D01*
X99319189Y-139320000D01*
X93171905Y-133172716D01*
X98530000Y-133172716D01*
X98530000Y-133527284D01*
X98599173Y-133875041D01*
X98734861Y-134202620D01*
X98931849Y-134497433D01*
X99182567Y-134748151D01*
X99477380Y-134945139D01*
X99804959Y-135080827D01*
X100152716Y-135150000D01*
X100507284Y-135150000D01*
X100855041Y-135080827D01*
X101182620Y-134945139D01*
X101290629Y-134872970D01*
X101316052Y-134903948D01*
X101445481Y-135010168D01*
X101593145Y-135089097D01*
X101753371Y-135137700D01*
X101920000Y-135154112D01*
X103820000Y-135154112D01*
X103986629Y-135137700D01*
X104146855Y-135089097D01*
X104294519Y-135010168D01*
X104423948Y-134903948D01*
X104449371Y-134872970D01*
X104557380Y-134945139D01*
X104884959Y-135080827D01*
X105232716Y-135150000D01*
X105587284Y-135150000D01*
X105935041Y-135080827D01*
X106262620Y-134945139D01*
X106370628Y-134872971D01*
X106396051Y-134903949D01*
X106525480Y-135010169D01*
X106673145Y-135089098D01*
X106833371Y-135137701D01*
X107000000Y-135154113D01*
X107687500Y-135150000D01*
X107900000Y-134937500D01*
X107900000Y-133400000D01*
X107880000Y-133400000D01*
X107880000Y-133300000D01*
X107900000Y-133300000D01*
X107900000Y-133280000D01*
X108000000Y-133280000D01*
X108000000Y-133300000D01*
X108020000Y-133300000D01*
X108020000Y-133400000D01*
X108000000Y-133400000D01*
X108000000Y-134937500D01*
X108212500Y-135150000D01*
X108900000Y-135154113D01*
X109066629Y-135137701D01*
X109226855Y-135089098D01*
X109374520Y-135010169D01*
X109503949Y-134903949D01*
X109529372Y-134872971D01*
X109637380Y-134945139D01*
X109964959Y-135080827D01*
X110312716Y-135150000D01*
X110667284Y-135150000D01*
X111015041Y-135080827D01*
X111342620Y-134945139D01*
X111637433Y-134748151D01*
X111888151Y-134497433D01*
X112085139Y-134202620D01*
X112220827Y-133875041D01*
X112290000Y-133527284D01*
X112290000Y-133426191D01*
X112328679Y-133430000D01*
X112328688Y-133430000D01*
X112394999Y-133436531D01*
X112461310Y-133430000D01*
X114710494Y-133430000D01*
X114812116Y-133497902D01*
X115103297Y-133618513D01*
X115412414Y-133680000D01*
X115727586Y-133680000D01*
X116036703Y-133618513D01*
X116327884Y-133497902D01*
X116589941Y-133322801D01*
X116812801Y-133099941D01*
X116987902Y-132837884D01*
X117108513Y-132546703D01*
X117132357Y-132426831D01*
X120922701Y-128636487D01*
X120974212Y-128594213D01*
X121006717Y-128554605D01*
X121067380Y-128595139D01*
X121394959Y-128730827D01*
X121742716Y-128800000D01*
X122097284Y-128800000D01*
X122445041Y-128730827D01*
X122772620Y-128595139D01*
X122880629Y-128522970D01*
X122906052Y-128553948D01*
X123035481Y-128660168D01*
X123183145Y-128739097D01*
X123343371Y-128787700D01*
X123510000Y-128804112D01*
X125410000Y-128804112D01*
X125481594Y-128797060D01*
X121258656Y-133020000D01*
X121127414Y-133020000D01*
X120818297Y-133081487D01*
X120527116Y-133202098D01*
X120265059Y-133377199D01*
X120042199Y-133600059D01*
X119867098Y-133862116D01*
X119746487Y-134153297D01*
X119685000Y-134462414D01*
X119685000Y-134777586D01*
X119746487Y-135086703D01*
X119867098Y-135377884D01*
X120042199Y-135639941D01*
X120265059Y-135862801D01*
X120527116Y-136037902D01*
X120818297Y-136158513D01*
X121127414Y-136220000D01*
X121442586Y-136220000D01*
X121751703Y-136158513D01*
X122042884Y-136037902D01*
X122304941Y-135862801D01*
X122527801Y-135639941D01*
X122702902Y-135377884D01*
X122823513Y-135086703D01*
X122885000Y-134777586D01*
X122885000Y-134646344D01*
X127773230Y-129758116D01*
X127817107Y-129722107D01*
X127853115Y-129678231D01*
X127853119Y-129678227D01*
X127960816Y-129546997D01*
X128067602Y-129347216D01*
X128133360Y-129130439D01*
X128155564Y-128905000D01*
X128150000Y-128848508D01*
X128150000Y-128777577D01*
X128276855Y-128739097D01*
X128424519Y-128660168D01*
X128553948Y-128553948D01*
X128660168Y-128424519D01*
X128739097Y-128276855D01*
X128787700Y-128116629D01*
X128804112Y-127950000D01*
X128804112Y-126050000D01*
X128787700Y-125883371D01*
X128739097Y-125723145D01*
X128660168Y-125575481D01*
X128555836Y-125448352D01*
X132352701Y-121651487D01*
X132404212Y-121609213D01*
X132453098Y-121549646D01*
X132572915Y-121403650D01*
X132639919Y-121278293D01*
X132698272Y-121169122D01*
X132775467Y-120914646D01*
X132795000Y-120716321D01*
X132795000Y-120716312D01*
X132801531Y-120650001D01*
X132795000Y-120583690D01*
X132795000Y-107381310D01*
X132801531Y-107314999D01*
X132795000Y-107248688D01*
X132795000Y-107248679D01*
X132775467Y-107050354D01*
X132698272Y-106795878D01*
X132607946Y-106626889D01*
X132572915Y-106561350D01*
X132446489Y-106407301D01*
X132404213Y-106355787D01*
X132352697Y-106313509D01*
X128001491Y-101962303D01*
X127959213Y-101910787D01*
X127753649Y-101742085D01*
X127519122Y-101616728D01*
X127264646Y-101539533D01*
X127066321Y-101520000D01*
X127066319Y-101520000D01*
X127000000Y-101513468D01*
X126933681Y-101520000D01*
X122779506Y-101520000D01*
X122677884Y-101452098D01*
X122386703Y-101331487D01*
X122077586Y-101270000D01*
X121762414Y-101270000D01*
X121453297Y-101331487D01*
X121162116Y-101452098D01*
X120900059Y-101627199D01*
X120677199Y-101850059D01*
X120502098Y-102112116D01*
X120381487Y-102403297D01*
X120320000Y-102712414D01*
X120320000Y-103027586D01*
X120381487Y-103336703D01*
X120502098Y-103627884D01*
X120677199Y-103889941D01*
X120900059Y-104112801D01*
X121162116Y-104287902D01*
X121453297Y-104408513D01*
X121762414Y-104470000D01*
X122077586Y-104470000D01*
X122386703Y-104408513D01*
X122677884Y-104287902D01*
X122779506Y-104220000D01*
X126440812Y-104220000D01*
X130095001Y-107874189D01*
X130095000Y-117661583D01*
X130065041Y-117649173D01*
X129717284Y-117580000D01*
X129362716Y-117580000D01*
X129014959Y-117649173D01*
X128687380Y-117784861D01*
X128579372Y-117857029D01*
X128553949Y-117826051D01*
X128424520Y-117719831D01*
X128276855Y-117640902D01*
X128116629Y-117592299D01*
X127950000Y-117575887D01*
X127262500Y-117580000D01*
X127050000Y-117792500D01*
X127050000Y-119330000D01*
X127070000Y-119330000D01*
X127070000Y-119430000D01*
X127050000Y-119430000D01*
X127050000Y-120967500D01*
X127262500Y-121180000D01*
X127950000Y-121184113D01*
X128116629Y-121167701D01*
X128276855Y-121119098D01*
X128424520Y-121040169D01*
X128553949Y-120933949D01*
X128579372Y-120902971D01*
X128687380Y-120975139D01*
X129014959Y-121110827D01*
X129065026Y-121120786D01*
X126440812Y-123745000D01*
X121351310Y-123745000D01*
X121284999Y-123738469D01*
X121218688Y-123745000D01*
X121218679Y-123745000D01*
X121020354Y-123764533D01*
X120765878Y-123841728D01*
X120656707Y-123900081D01*
X120531350Y-123967085D01*
X120377301Y-124093510D01*
X120377298Y-124093513D01*
X120325787Y-124135787D01*
X120283513Y-124187298D01*
X119107299Y-125363513D01*
X119055788Y-125405787D01*
X119013514Y-125457298D01*
X119013510Y-125457302D01*
X118887085Y-125611351D01*
X118824407Y-125728614D01*
X118761728Y-125845878D01*
X118684533Y-126100354D01*
X118665000Y-126298679D01*
X118658468Y-126365000D01*
X118665000Y-126431319D01*
X118665000Y-127075812D01*
X115223169Y-130517643D01*
X115103297Y-130541487D01*
X114812116Y-130662098D01*
X114710494Y-130730000D01*
X112954189Y-130730000D01*
X112126491Y-129902303D01*
X112084213Y-129850787D01*
X111878649Y-129682085D01*
X111644122Y-129556728D01*
X111389646Y-129479533D01*
X111191321Y-129460000D01*
X111191319Y-129460000D01*
X111125000Y-129453468D01*
X111058681Y-129460000D01*
X103571319Y-129460000D01*
X103505000Y-129453468D01*
X103438681Y-129460000D01*
X103438679Y-129460000D01*
X103240354Y-129479533D01*
X103045105Y-129538761D01*
X102985877Y-129556728D01*
X102868614Y-129619407D01*
X102751351Y-129682085D01*
X102545787Y-129850787D01*
X102503505Y-129902308D01*
X101962300Y-130443513D01*
X101910788Y-130485787D01*
X101868514Y-130537298D01*
X101868510Y-130537302D01*
X101742085Y-130691351D01*
X101616729Y-130925878D01*
X101539534Y-131180354D01*
X101513468Y-131445000D01*
X101520001Y-131511328D01*
X101520001Y-131650000D01*
X101445481Y-131689832D01*
X101316052Y-131796052D01*
X101290629Y-131827030D01*
X101182620Y-131754861D01*
X100855041Y-131619173D01*
X100507284Y-131550000D01*
X100152716Y-131550000D01*
X99804959Y-131619173D01*
X99477380Y-131754861D01*
X99182567Y-131951849D01*
X98931849Y-132202567D01*
X98734861Y-132497380D01*
X98599173Y-132824959D01*
X98530000Y-133172716D01*
X93171905Y-133172716D01*
X91520000Y-131520812D01*
X91520000Y-126050000D01*
X98525888Y-126050000D01*
X98525888Y-127950000D01*
X98542300Y-128116629D01*
X98590903Y-128276855D01*
X98669832Y-128424519D01*
X98776052Y-128553948D01*
X98905481Y-128660168D01*
X99053145Y-128739097D01*
X99213371Y-128787700D01*
X99380000Y-128804112D01*
X101280000Y-128804112D01*
X101446629Y-128787700D01*
X101606855Y-128739097D01*
X101754519Y-128660168D01*
X101883948Y-128553948D01*
X101909371Y-128522970D01*
X102017380Y-128595139D01*
X102344959Y-128730827D01*
X102692716Y-128800000D01*
X103047284Y-128800000D01*
X103395041Y-128730827D01*
X103722620Y-128595139D01*
X104017433Y-128398151D01*
X104268151Y-128147433D01*
X104465139Y-127852620D01*
X104600827Y-127525041D01*
X104670000Y-127177284D01*
X104670000Y-126822716D01*
X104600827Y-126474959D01*
X104465139Y-126147380D01*
X104268151Y-125852567D01*
X104017433Y-125601849D01*
X103722620Y-125404861D01*
X103395041Y-125269173D01*
X103047284Y-125200000D01*
X102692716Y-125200000D01*
X102344959Y-125269173D01*
X102017380Y-125404861D01*
X101909371Y-125477030D01*
X101883948Y-125446052D01*
X101754519Y-125339832D01*
X101606855Y-125260903D01*
X101446629Y-125212300D01*
X101280000Y-125195888D01*
X99380000Y-125195888D01*
X99213371Y-125212300D01*
X99053145Y-125260903D01*
X98905481Y-125339832D01*
X98776052Y-125446052D01*
X98669832Y-125575481D01*
X98590903Y-125723145D01*
X98542300Y-125883371D01*
X98525888Y-126050000D01*
X91520000Y-126050000D01*
X91520000Y-125161319D01*
X91526532Y-125095000D01*
X91518009Y-125008468D01*
X91500467Y-124830354D01*
X91441239Y-124635105D01*
X91423272Y-124575877D01*
X91297915Y-124341350D01*
X91171490Y-124187302D01*
X91171487Y-124187299D01*
X91129212Y-124135787D01*
X91077701Y-124093513D01*
X88167003Y-121182815D01*
X88637500Y-121180000D01*
X88850000Y-120967500D01*
X88850000Y-119430000D01*
X88830000Y-119430000D01*
X88830000Y-119330000D01*
X88850000Y-119330000D01*
X88850000Y-117792500D01*
X88950000Y-117792500D01*
X88950000Y-119330000D01*
X88970000Y-119330000D01*
X88970000Y-119430000D01*
X88950000Y-119430000D01*
X88950000Y-120967500D01*
X89162500Y-121180000D01*
X89850000Y-121184113D01*
X90016629Y-121167701D01*
X90176855Y-121119098D01*
X90324520Y-121040169D01*
X90453949Y-120933949D01*
X90479372Y-120902971D01*
X90587380Y-120975139D01*
X90914959Y-121110827D01*
X91262716Y-121180000D01*
X91617284Y-121180000D01*
X91965041Y-121110827D01*
X92292620Y-120975139D01*
X92587433Y-120778151D01*
X92838151Y-120527433D01*
X93035139Y-120232620D01*
X93170827Y-119905041D01*
X93240000Y-119557284D01*
X93240000Y-119202716D01*
X93170827Y-118854959D01*
X93035139Y-118527380D01*
X92838151Y-118232567D01*
X92587433Y-117981849D01*
X92292620Y-117784861D01*
X91965041Y-117649173D01*
X91617284Y-117580000D01*
X91262716Y-117580000D01*
X90914959Y-117649173D01*
X90587380Y-117784861D01*
X90479372Y-117857029D01*
X90453949Y-117826051D01*
X90324520Y-117719831D01*
X90176855Y-117640902D01*
X90016629Y-117592299D01*
X89850000Y-117575887D01*
X89162500Y-117580000D01*
X88950000Y-117792500D01*
X88850000Y-117792500D01*
X88637500Y-117580000D01*
X87950000Y-117575887D01*
X87783371Y-117592299D01*
X87623145Y-117640902D01*
X87475480Y-117719831D01*
X87346051Y-117826051D01*
X87320628Y-117857029D01*
X87212620Y-117784861D01*
X86885041Y-117649173D01*
X86537284Y-117580000D01*
X86182716Y-117580000D01*
X85834959Y-117649173D01*
X85507380Y-117784861D01*
X85399371Y-117857030D01*
X85373948Y-117826052D01*
X85244519Y-117719832D01*
X85096855Y-117640903D01*
X84970000Y-117602423D01*
X84970000Y-113350000D01*
X88365888Y-113350000D01*
X88365888Y-115250000D01*
X88382300Y-115416629D01*
X88430903Y-115576855D01*
X88509832Y-115724519D01*
X88616052Y-115853948D01*
X88745481Y-115960168D01*
X88893145Y-116039097D01*
X89053371Y-116087700D01*
X89220000Y-116104112D01*
X91120000Y-116104112D01*
X91286629Y-116087700D01*
X91446855Y-116039097D01*
X91594519Y-115960168D01*
X91723948Y-115853948D01*
X91749371Y-115822970D01*
X91857380Y-115895139D01*
X92184959Y-116030827D01*
X92532716Y-116100000D01*
X92887284Y-116100000D01*
X93235041Y-116030827D01*
X93562620Y-115895139D01*
X93857433Y-115698151D01*
X94108151Y-115447433D01*
X94305139Y-115152620D01*
X94440827Y-114825041D01*
X94510000Y-114477284D01*
X94510000Y-114122716D01*
X94440827Y-113774959D01*
X94305139Y-113447380D01*
X94108151Y-113152567D01*
X93857433Y-112901849D01*
X93562620Y-112704861D01*
X93235041Y-112569173D01*
X92887284Y-112500000D01*
X92532716Y-112500000D01*
X92184959Y-112569173D01*
X91857380Y-112704861D01*
X91749371Y-112777030D01*
X91723948Y-112746052D01*
X91594519Y-112639832D01*
X91446855Y-112560903D01*
X91286629Y-112512300D01*
X91120000Y-112495888D01*
X89220000Y-112495888D01*
X89053371Y-112512300D01*
X88893145Y-112560903D01*
X88745481Y-112639832D01*
X88616052Y-112746052D01*
X88509832Y-112875481D01*
X88430903Y-113023145D01*
X88382300Y-113183371D01*
X88365888Y-113350000D01*
X84970000Y-113350000D01*
X84970000Y-109696344D01*
X88524736Y-106141609D01*
X88574861Y-106262620D01*
X88771849Y-106557433D01*
X89022567Y-106808151D01*
X89317380Y-107005139D01*
X89644959Y-107140827D01*
X89992716Y-107210000D01*
X90347284Y-107210000D01*
X90695041Y-107140827D01*
X91022620Y-107005139D01*
X91130629Y-106932970D01*
X91156052Y-106963948D01*
X91285481Y-107070168D01*
X91433145Y-107149097D01*
X91560001Y-107187578D01*
X91560001Y-107258509D01*
X91554437Y-107315000D01*
X91560001Y-107371491D01*
X91560001Y-107371492D01*
X91576641Y-107540439D01*
X91642399Y-107757215D01*
X91749185Y-107956997D01*
X91892894Y-108132107D01*
X91936776Y-108168120D01*
X96936880Y-113168225D01*
X96972893Y-113212107D01*
X97057517Y-113281556D01*
X97148002Y-113355816D01*
X97254788Y-113412894D01*
X97347785Y-113462602D01*
X97498802Y-113508412D01*
X97564560Y-113528360D01*
X97584164Y-113530291D01*
X97733508Y-113545000D01*
X97733516Y-113545000D01*
X97790000Y-113550563D01*
X97846484Y-113545000D01*
X99853656Y-113545000D01*
X102614543Y-116305888D01*
X101920000Y-116305888D01*
X101753371Y-116322300D01*
X101593145Y-116370903D01*
X101445481Y-116449832D01*
X101316052Y-116556052D01*
X101290629Y-116587030D01*
X101182620Y-116514861D01*
X100855041Y-116379173D01*
X100507284Y-116310000D01*
X100152716Y-116310000D01*
X99804959Y-116379173D01*
X99477380Y-116514861D01*
X99182567Y-116711849D01*
X98931849Y-116962567D01*
X98734861Y-117257380D01*
X98599173Y-117584959D01*
X98530000Y-117932716D01*
X98530000Y-118287284D01*
X98599173Y-118635041D01*
X98734861Y-118962620D01*
X98931849Y-119257433D01*
X99182567Y-119508151D01*
X99477380Y-119705139D01*
X99804959Y-119840827D01*
X100152716Y-119910000D01*
X100507284Y-119910000D01*
X100855041Y-119840827D01*
X101182620Y-119705139D01*
X101290629Y-119632970D01*
X101316052Y-119663948D01*
X101445481Y-119770168D01*
X101593145Y-119849097D01*
X101753371Y-119897700D01*
X101920000Y-119914112D01*
X103820000Y-119914112D01*
X103986629Y-119897700D01*
X104146855Y-119849097D01*
X104294519Y-119770168D01*
X104423948Y-119663948D01*
X104530168Y-119534519D01*
X104609097Y-119386855D01*
X104657700Y-119226629D01*
X104660055Y-119202716D01*
X117580000Y-119202716D01*
X117580000Y-119557284D01*
X117649173Y-119905041D01*
X117784861Y-120232620D01*
X117981849Y-120527433D01*
X118232567Y-120778151D01*
X118527380Y-120975139D01*
X118854959Y-121110827D01*
X119202716Y-121180000D01*
X119557284Y-121180000D01*
X119905041Y-121110827D01*
X120232620Y-120975139D01*
X120340628Y-120902971D01*
X120366051Y-120933949D01*
X120495480Y-121040169D01*
X120643145Y-121119098D01*
X120803371Y-121167701D01*
X120970000Y-121184113D01*
X121657500Y-121180000D01*
X121870000Y-120967500D01*
X121870000Y-119430000D01*
X121850000Y-119430000D01*
X121850000Y-119330000D01*
X121870000Y-119330000D01*
X121870000Y-117792500D01*
X121970000Y-117792500D01*
X121970000Y-119330000D01*
X121990000Y-119330000D01*
X121990000Y-119430000D01*
X121970000Y-119430000D01*
X121970000Y-120967500D01*
X122182500Y-121180000D01*
X122870000Y-121184113D01*
X123036629Y-121167701D01*
X123196855Y-121119098D01*
X123344520Y-121040169D01*
X123473949Y-120933949D01*
X123499372Y-120902971D01*
X123607380Y-120975139D01*
X123934959Y-121110827D01*
X124282716Y-121180000D01*
X124637284Y-121180000D01*
X124985041Y-121110827D01*
X125312620Y-120975139D01*
X125420628Y-120902971D01*
X125446051Y-120933949D01*
X125575480Y-121040169D01*
X125723145Y-121119098D01*
X125883371Y-121167701D01*
X126050000Y-121184113D01*
X126737500Y-121180000D01*
X126950000Y-120967500D01*
X126950000Y-119430000D01*
X126930000Y-119430000D01*
X126930000Y-119330000D01*
X126950000Y-119330000D01*
X126950000Y-117792500D01*
X126737500Y-117580000D01*
X126050000Y-117575887D01*
X125883371Y-117592299D01*
X125723145Y-117640902D01*
X125575480Y-117719831D01*
X125446051Y-117826051D01*
X125420628Y-117857029D01*
X125312620Y-117784861D01*
X124985041Y-117649173D01*
X124637284Y-117580000D01*
X124282716Y-117580000D01*
X123934959Y-117649173D01*
X123607380Y-117784861D01*
X123499372Y-117857029D01*
X123473949Y-117826051D01*
X123344520Y-117719831D01*
X123196855Y-117640902D01*
X123036629Y-117592299D01*
X122870000Y-117575887D01*
X122182500Y-117580000D01*
X121970000Y-117792500D01*
X121870000Y-117792500D01*
X121657500Y-117580000D01*
X120970000Y-117575887D01*
X120803371Y-117592299D01*
X120643145Y-117640902D01*
X120495480Y-117719831D01*
X120366051Y-117826051D01*
X120340628Y-117857029D01*
X120232620Y-117784861D01*
X119905041Y-117649173D01*
X119557284Y-117580000D01*
X119202716Y-117580000D01*
X118854959Y-117649173D01*
X118527380Y-117784861D01*
X118232567Y-117981849D01*
X117981849Y-118232567D01*
X117784861Y-118527380D01*
X117649173Y-118854959D01*
X117580000Y-119202716D01*
X104660055Y-119202716D01*
X104674112Y-119060000D01*
X104674112Y-118358762D01*
X104768002Y-118435816D01*
X104874788Y-118492894D01*
X104967785Y-118542602D01*
X105118802Y-118588412D01*
X105184560Y-118608360D01*
X105204164Y-118610291D01*
X105353508Y-118625000D01*
X105353516Y-118625000D01*
X105410000Y-118630563D01*
X105466484Y-118625000D01*
X111703518Y-118625000D01*
X111760000Y-118630563D01*
X111816482Y-118625000D01*
X111816492Y-118625000D01*
X111985439Y-118608360D01*
X112202215Y-118542602D01*
X112401997Y-118435816D01*
X112577107Y-118292107D01*
X112613125Y-118248219D01*
X115411345Y-115450000D01*
X120142423Y-115450000D01*
X120180903Y-115576855D01*
X120259832Y-115724519D01*
X120366052Y-115853948D01*
X120495481Y-115960168D01*
X120643145Y-116039097D01*
X120803371Y-116087700D01*
X120970000Y-116104112D01*
X122870000Y-116104112D01*
X123036629Y-116087700D01*
X123190000Y-116041176D01*
X123343371Y-116087700D01*
X123510000Y-116104112D01*
X125410000Y-116104112D01*
X125576629Y-116087700D01*
X125736855Y-116039097D01*
X125884519Y-115960168D01*
X126013948Y-115853948D01*
X126039371Y-115822970D01*
X126147380Y-115895139D01*
X126474959Y-116030827D01*
X126822716Y-116100000D01*
X127177284Y-116100000D01*
X127525041Y-116030827D01*
X127852620Y-115895139D01*
X128147433Y-115698151D01*
X128398151Y-115447433D01*
X128595139Y-115152620D01*
X128730827Y-114825041D01*
X128800000Y-114477284D01*
X128800000Y-114122716D01*
X128730827Y-113774959D01*
X128595139Y-113447380D01*
X128398151Y-113152567D01*
X128147433Y-112901849D01*
X127852620Y-112704861D01*
X127525041Y-112569173D01*
X127177284Y-112500000D01*
X126822716Y-112500000D01*
X126474959Y-112569173D01*
X126147380Y-112704861D01*
X126039371Y-112777030D01*
X126013948Y-112746052D01*
X125884519Y-112639832D01*
X125736855Y-112560903D01*
X125576629Y-112512300D01*
X125410000Y-112495888D01*
X123510000Y-112495888D01*
X123343371Y-112512300D01*
X123190000Y-112558824D01*
X123070000Y-112522423D01*
X123070000Y-110966344D01*
X125756345Y-108280000D01*
X125887586Y-108280000D01*
X126196703Y-108218513D01*
X126487884Y-108097902D01*
X126749941Y-107922801D01*
X126972801Y-107699941D01*
X127147902Y-107437884D01*
X127268513Y-107146703D01*
X127330000Y-106837586D01*
X127330000Y-106522414D01*
X127268513Y-106213297D01*
X127147902Y-105922116D01*
X126972801Y-105660059D01*
X126749941Y-105437199D01*
X126487884Y-105262098D01*
X126196703Y-105141487D01*
X125887586Y-105080000D01*
X125572414Y-105080000D01*
X125263297Y-105141487D01*
X124972116Y-105262098D01*
X124710059Y-105437199D01*
X124487199Y-105660059D01*
X124312098Y-105922116D01*
X124191487Y-106213297D01*
X124130000Y-106522414D01*
X124130000Y-106653655D01*
X121146776Y-109636880D01*
X121102894Y-109672893D01*
X121066882Y-109716774D01*
X120959185Y-109848003D01*
X120852399Y-110047785D01*
X120786641Y-110264561D01*
X120764437Y-110490000D01*
X120770001Y-110546491D01*
X120770000Y-112522423D01*
X120643145Y-112560903D01*
X120495481Y-112639832D01*
X120366052Y-112746052D01*
X120259832Y-112875481D01*
X120180903Y-113023145D01*
X120142423Y-113150000D01*
X114991481Y-113150000D01*
X114934999Y-113144437D01*
X114878517Y-113150000D01*
X114878508Y-113150000D01*
X114709561Y-113166640D01*
X114492785Y-113232398D01*
X114293003Y-113339184D01*
X114117893Y-113482893D01*
X114081880Y-113526775D01*
X112294112Y-115314544D01*
X112294112Y-114620000D01*
X112277700Y-114453371D01*
X112231176Y-114300000D01*
X112277700Y-114146629D01*
X112294112Y-113980000D01*
X112294112Y-112080000D01*
X112277700Y-111913371D01*
X112229097Y-111753145D01*
X112150168Y-111605481D01*
X112043948Y-111476052D01*
X112012970Y-111450629D01*
X112085139Y-111342620D01*
X112220827Y-111015041D01*
X112290000Y-110667284D01*
X112290000Y-110312716D01*
X112220827Y-109964959D01*
X112085139Y-109637380D01*
X111888151Y-109342567D01*
X111637433Y-109091849D01*
X111342620Y-108894861D01*
X111015041Y-108759173D01*
X110667284Y-108690000D01*
X110312716Y-108690000D01*
X109964959Y-108759173D01*
X109637380Y-108894861D01*
X109342567Y-109091849D01*
X109091849Y-109342567D01*
X108894861Y-109637380D01*
X108759173Y-109964959D01*
X108690000Y-110312716D01*
X108690000Y-110667284D01*
X108759173Y-111015041D01*
X108894861Y-111342620D01*
X108967030Y-111450629D01*
X108936052Y-111476052D01*
X108829832Y-111605481D01*
X108750903Y-111753145D01*
X108712423Y-111880000D01*
X105251345Y-111880000D01*
X103723124Y-110351780D01*
X103687107Y-110307893D01*
X103511997Y-110164184D01*
X103312215Y-110057398D01*
X103095439Y-109991640D01*
X102926492Y-109975000D01*
X102926482Y-109975000D01*
X102870000Y-109969437D01*
X102813518Y-109975000D01*
X98901345Y-109975000D01*
X97336376Y-108410032D01*
X97425082Y-108373289D01*
X97738035Y-108164180D01*
X98004180Y-107898035D01*
X98213289Y-107585082D01*
X98357325Y-107237347D01*
X98427956Y-106882263D01*
X98428379Y-106883656D01*
X98646593Y-107291906D01*
X98940259Y-107649741D01*
X99298093Y-107943407D01*
X99706343Y-108161621D01*
X100149320Y-108295997D01*
X100610000Y-108341370D01*
X101070679Y-108295997D01*
X101513656Y-108161621D01*
X101868366Y-107972025D01*
X101969747Y-108333111D01*
X102178266Y-108744016D01*
X102462942Y-109106345D01*
X102812835Y-109406175D01*
X103214499Y-109631983D01*
X103652498Y-109775091D01*
X104110000Y-109830000D01*
X105360000Y-109830000D01*
X105360000Y-107530000D01*
X105460000Y-107530000D01*
X105460000Y-109830000D01*
X106710000Y-109830000D01*
X107167502Y-109775091D01*
X107605501Y-109631983D01*
X108007165Y-109406175D01*
X108357058Y-109106345D01*
X108641734Y-108744016D01*
X108850253Y-108333111D01*
X108972720Y-107896922D01*
X108796915Y-107530000D01*
X105460000Y-107530000D01*
X105360000Y-107530000D01*
X105340000Y-107530000D01*
X105340000Y-107430000D01*
X105360000Y-107430000D01*
X105360000Y-105130000D01*
X105460000Y-105130000D01*
X105460000Y-107430000D01*
X108796915Y-107430000D01*
X108972720Y-107063078D01*
X108850253Y-106626889D01*
X108641734Y-106215984D01*
X108357058Y-105853655D01*
X108007165Y-105553825D01*
X107605501Y-105328017D01*
X107167502Y-105184909D01*
X106710000Y-105130000D01*
X105460000Y-105130000D01*
X105360000Y-105130000D01*
X104110000Y-105130000D01*
X103652498Y-105184909D01*
X103214499Y-105328017D01*
X102960000Y-105471092D01*
X102960000Y-103864558D01*
X102925997Y-103519320D01*
X102838291Y-103230194D01*
X103098093Y-103443407D01*
X103506343Y-103661621D01*
X103949320Y-103795997D01*
X104294558Y-103830000D01*
X106525442Y-103830000D01*
X106870680Y-103795997D01*
X107313657Y-103661621D01*
X107721907Y-103443407D01*
X108079741Y-103149741D01*
X108373407Y-102791907D01*
X108591621Y-102383657D01*
X108725997Y-101940680D01*
X108771370Y-101480000D01*
X108725997Y-101019320D01*
X108591621Y-100576343D01*
X108502916Y-100410387D01*
X111750324Y-100410387D01*
X112066718Y-100948915D01*
X112725903Y-101323908D01*
X113445580Y-101563096D01*
X114198092Y-101657286D01*
X114954521Y-101602858D01*
X115685796Y-101401905D01*
X116363816Y-101062148D01*
X116533282Y-100948915D01*
X116849676Y-100410387D01*
X114300000Y-97860711D01*
X111750324Y-100410387D01*
X108502916Y-100410387D01*
X108373407Y-100168093D01*
X108079741Y-99810259D01*
X107721907Y-99516593D01*
X107313657Y-99298379D01*
X106870680Y-99164003D01*
X106525442Y-99130000D01*
X104294558Y-99130000D01*
X103949320Y-99164003D01*
X103506343Y-99298379D01*
X103098093Y-99516593D01*
X102740259Y-99810259D01*
X102446593Y-100168093D01*
X102228379Y-100576343D01*
X102094003Y-101019320D01*
X102048630Y-101480000D01*
X102094003Y-101940680D01*
X102181709Y-102229806D01*
X101921907Y-102016593D01*
X101513657Y-101798379D01*
X101070680Y-101664003D01*
X100610000Y-101618630D01*
X100149321Y-101664003D01*
X99706344Y-101798379D01*
X99298094Y-102016593D01*
X98940260Y-102310259D01*
X98646594Y-102668093D01*
X98581433Y-102790000D01*
X98220000Y-102790000D01*
X98180168Y-102715481D01*
X98073948Y-102586052D01*
X97944519Y-102479832D01*
X97796855Y-102400903D01*
X97636629Y-102352300D01*
X97470000Y-102335888D01*
X95570000Y-102335888D01*
X95403371Y-102352300D01*
X95243145Y-102400903D01*
X95095481Y-102479832D01*
X94966052Y-102586052D01*
X94859832Y-102715481D01*
X94844851Y-102743507D01*
X94833125Y-102731781D01*
X94797107Y-102687893D01*
X94621997Y-102544184D01*
X94422215Y-102437398D01*
X94205439Y-102371640D01*
X94036492Y-102355000D01*
X94036482Y-102355000D01*
X93980000Y-102349437D01*
X93923518Y-102355000D01*
X89591492Y-102355000D01*
X89535000Y-102349436D01*
X89309561Y-102371640D01*
X89092784Y-102437398D01*
X88893003Y-102544184D01*
X88761773Y-102651881D01*
X88761769Y-102651885D01*
X88717893Y-102687893D01*
X88681884Y-102731770D01*
X83046780Y-108366875D01*
X83002893Y-108402893D01*
X82859184Y-108578004D01*
X82752398Y-108777786D01*
X82686640Y-108994562D01*
X82670000Y-109163509D01*
X82670000Y-109163518D01*
X82664437Y-109220000D01*
X82670000Y-109276482D01*
X82670001Y-117602423D01*
X82543145Y-117640903D01*
X82395481Y-117719832D01*
X82266052Y-117826052D01*
X82242334Y-117854952D01*
X81991537Y-117717127D01*
X81653455Y-117610265D01*
X81301021Y-117571413D01*
X80947779Y-117602064D01*
X80607305Y-117701039D01*
X80292682Y-117864537D01*
X80257724Y-117887893D01*
X80187219Y-118216508D01*
X77250000Y-118216508D01*
X77250000Y-105844923D01*
X82684536Y-100410387D01*
X93970324Y-100410387D01*
X94286718Y-100948915D01*
X94945903Y-101323908D01*
X95665580Y-101563096D01*
X96418092Y-101657286D01*
X97174521Y-101602858D01*
X97905796Y-101401905D01*
X98583816Y-101062148D01*
X98753282Y-100948915D01*
X99069676Y-100410387D01*
X96520000Y-97860711D01*
X93970324Y-100410387D01*
X82684536Y-100410387D01*
X85406831Y-97688092D01*
X92652714Y-97688092D01*
X92707142Y-98444521D01*
X92908095Y-99175796D01*
X93247852Y-99853816D01*
X93361085Y-100023282D01*
X93899613Y-100339676D01*
X96449289Y-97790000D01*
X96590711Y-97790000D01*
X99140387Y-100339676D01*
X99678915Y-100023282D01*
X100053908Y-99364097D01*
X100293096Y-98644420D01*
X100387286Y-97891908D01*
X100372621Y-97688092D01*
X110432714Y-97688092D01*
X110487142Y-98444521D01*
X110688095Y-99175796D01*
X111027852Y-99853816D01*
X111141085Y-100023282D01*
X111679613Y-100339676D01*
X114229289Y-97790000D01*
X114370711Y-97790000D01*
X116920387Y-100339676D01*
X117458915Y-100023282D01*
X117833908Y-99364097D01*
X118073096Y-98644420D01*
X118167286Y-97891908D01*
X118112858Y-97135479D01*
X117911905Y-96404204D01*
X117572148Y-95726184D01*
X117458915Y-95556718D01*
X116920387Y-95240324D01*
X114370711Y-97790000D01*
X114229289Y-97790000D01*
X111679613Y-95240324D01*
X111141085Y-95556718D01*
X110766092Y-96215903D01*
X110526904Y-96935580D01*
X110432714Y-97688092D01*
X100372621Y-97688092D01*
X100332858Y-97135479D01*
X100131905Y-96404204D01*
X99792148Y-95726184D01*
X99678915Y-95556718D01*
X99140387Y-95240324D01*
X96590711Y-97790000D01*
X96449289Y-97790000D01*
X93899613Y-95240324D01*
X93361085Y-95556718D01*
X92986092Y-96215903D01*
X92746904Y-96935580D01*
X92652714Y-97688092D01*
X85406831Y-97688092D01*
X88064924Y-95030000D01*
X94052349Y-95030000D01*
X93970324Y-95169613D01*
G04 #@! TA.AperFunction,Conductor*
D22*
G36*
X93970324Y-95169613D02*
G01*
X96520000Y-97719289D01*
X99069676Y-95169613D01*
X98987651Y-95030000D01*
X111832349Y-95030000D01*
X111750324Y-95169613D01*
X114300000Y-97719289D01*
X116849676Y-95169613D01*
X116767651Y-95030000D01*
X122755077Y-95030000D01*
X133570000Y-105844924D01*
X133570001Y-178020000D01*
X107016431Y-178020000D01*
X107070169Y-177954520D01*
X107149098Y-177806855D01*
X107197701Y-177646629D01*
X107214113Y-177480000D01*
X107210000Y-176792500D01*
X106997500Y-176580000D01*
X105460000Y-176580000D01*
X105460000Y-176600000D01*
X105360000Y-176600000D01*
X105360000Y-176580000D01*
X103822500Y-176580000D01*
X103610000Y-176792500D01*
X103605887Y-177480000D01*
X103622299Y-177646629D01*
X103670902Y-177806855D01*
X103749831Y-177954520D01*
X103803569Y-178020000D01*
X77250000Y-178020000D01*
X77250000Y-162382716D01*
X82655000Y-162382716D01*
X82655000Y-162737284D01*
X82724173Y-163085041D01*
X82859861Y-163412620D01*
X83056849Y-163707433D01*
X83307567Y-163958151D01*
X83602380Y-164155139D01*
X83929959Y-164290827D01*
X84277716Y-164360000D01*
X84632284Y-164360000D01*
X84980041Y-164290827D01*
X85307620Y-164155139D01*
X85602433Y-163958151D01*
X85853151Y-163707433D01*
X86050139Y-163412620D01*
X86185827Y-163085041D01*
X86255000Y-162737284D01*
X86255000Y-162382716D01*
X86185827Y-162034959D01*
X86050139Y-161707380D01*
X85853151Y-161412567D01*
X85602433Y-161161849D01*
X85307620Y-160964861D01*
X84980041Y-160829173D01*
X84632284Y-160760000D01*
X84277716Y-160760000D01*
X83929959Y-160829173D01*
X83602380Y-160964861D01*
X83307567Y-161161849D01*
X83056849Y-161412567D01*
X82859861Y-161707380D01*
X82724173Y-162034959D01*
X82655000Y-162382716D01*
X77250000Y-162382716D01*
X77250000Y-159460000D01*
X80585887Y-159460000D01*
X80602299Y-159626629D01*
X80650902Y-159786855D01*
X80729831Y-159934520D01*
X80836051Y-160063949D01*
X80965480Y-160170169D01*
X81113145Y-160249098D01*
X81273371Y-160297701D01*
X81440000Y-160314113D01*
X82677500Y-160310000D01*
X82890000Y-160097500D01*
X82890000Y-158010000D01*
X82990000Y-158010000D01*
X82990000Y-160097500D01*
X83202500Y-160310000D01*
X84440000Y-160314113D01*
X84606629Y-160297701D01*
X84766855Y-160249098D01*
X84914520Y-160170169D01*
X85043949Y-160063949D01*
X85150169Y-159934520D01*
X85229098Y-159786855D01*
X85277701Y-159626629D01*
X85294113Y-159460000D01*
X86885887Y-159460000D01*
X86902299Y-159626629D01*
X86950902Y-159786855D01*
X87029831Y-159934520D01*
X87136051Y-160063949D01*
X87265480Y-160170169D01*
X87413145Y-160249098D01*
X87573371Y-160297701D01*
X87740000Y-160314113D01*
X88977500Y-160310000D01*
X89190000Y-160097500D01*
X89190000Y-158010000D01*
X89290000Y-158010000D01*
X89290000Y-160097500D01*
X89502500Y-160310000D01*
X90740000Y-160314113D01*
X90906629Y-160297701D01*
X91066855Y-160249098D01*
X91214520Y-160170169D01*
X91343949Y-160063949D01*
X91450169Y-159934520D01*
X91529098Y-159786855D01*
X91577701Y-159626629D01*
X91594113Y-159460000D01*
X91590000Y-158222500D01*
X91377500Y-158010000D01*
X89290000Y-158010000D01*
X89190000Y-158010000D01*
X87102500Y-158010000D01*
X86890000Y-158222500D01*
X86885887Y-159460000D01*
X85294113Y-159460000D01*
X85290000Y-158222500D01*
X85077500Y-158010000D01*
X82990000Y-158010000D01*
X82890000Y-158010000D01*
X80802500Y-158010000D01*
X80590000Y-158222500D01*
X80585887Y-159460000D01*
X77250000Y-159460000D01*
X77250000Y-156460000D01*
X80585887Y-156460000D01*
X80590000Y-157697500D01*
X80802500Y-157910000D01*
X82890000Y-157910000D01*
X82890000Y-155822500D01*
X82990000Y-155822500D01*
X82990000Y-157910000D01*
X85077500Y-157910000D01*
X85290000Y-157697500D01*
X85294113Y-156460000D01*
X86885887Y-156460000D01*
X86890000Y-157697500D01*
X87102500Y-157910000D01*
X89190000Y-157910000D01*
X89190000Y-155822500D01*
X89290000Y-155822500D01*
X89290000Y-157910000D01*
X91377500Y-157910000D01*
X91590000Y-157697500D01*
X91594113Y-156460000D01*
X91577701Y-156293371D01*
X91529098Y-156133145D01*
X91450169Y-155985480D01*
X91343949Y-155856051D01*
X91214520Y-155749831D01*
X91066855Y-155670902D01*
X90906629Y-155622299D01*
X90740000Y-155605887D01*
X89502500Y-155610000D01*
X89290000Y-155822500D01*
X89190000Y-155822500D01*
X88977500Y-155610000D01*
X87740000Y-155605887D01*
X87573371Y-155622299D01*
X87413145Y-155670902D01*
X87265480Y-155749831D01*
X87136051Y-155856051D01*
X87029831Y-155985480D01*
X86950902Y-156133145D01*
X86902299Y-156293371D01*
X86885887Y-156460000D01*
X85294113Y-156460000D01*
X85277701Y-156293371D01*
X85229098Y-156133145D01*
X85150169Y-155985480D01*
X85043949Y-155856051D01*
X84914520Y-155749831D01*
X84766855Y-155670902D01*
X84606629Y-155622299D01*
X84440000Y-155605887D01*
X83202500Y-155610000D01*
X82990000Y-155822500D01*
X82890000Y-155822500D01*
X82677500Y-155610000D01*
X81440000Y-155605887D01*
X81273371Y-155622299D01*
X81113145Y-155670902D01*
X80965480Y-155749831D01*
X80836051Y-155856051D01*
X80729831Y-155985480D01*
X80650902Y-156133145D01*
X80602299Y-156293371D01*
X80585887Y-156460000D01*
X77250000Y-156460000D01*
X77250000Y-143260000D01*
X80585887Y-143260000D01*
X80602299Y-143426629D01*
X80650902Y-143586855D01*
X80729831Y-143734520D01*
X80836051Y-143863949D01*
X80965480Y-143970169D01*
X81113145Y-144049098D01*
X81273371Y-144097701D01*
X81440000Y-144114113D01*
X82677500Y-144110000D01*
X82890000Y-143897500D01*
X82890000Y-141810000D01*
X82990000Y-141810000D01*
X82990000Y-143897500D01*
X83202500Y-144110000D01*
X84440000Y-144114113D01*
X84606629Y-144097701D01*
X84766855Y-144049098D01*
X84914520Y-143970169D01*
X85043949Y-143863949D01*
X85150169Y-143734520D01*
X85229098Y-143586855D01*
X85277701Y-143426629D01*
X85294113Y-143260000D01*
X86885887Y-143260000D01*
X86902299Y-143426629D01*
X86950902Y-143586855D01*
X87029831Y-143734520D01*
X87136051Y-143863949D01*
X87265480Y-143970169D01*
X87413145Y-144049098D01*
X87573371Y-144097701D01*
X87740000Y-144114113D01*
X88977500Y-144110000D01*
X89190000Y-143897500D01*
X89190000Y-141810000D01*
X89290000Y-141810000D01*
X89290000Y-143897500D01*
X89502500Y-144110000D01*
X90740000Y-144114113D01*
X90906629Y-144097701D01*
X91066855Y-144049098D01*
X91214520Y-143970169D01*
X91343949Y-143863949D01*
X91450169Y-143734520D01*
X91529098Y-143586855D01*
X91577701Y-143426629D01*
X91594113Y-143260000D01*
X91590000Y-142022500D01*
X91377500Y-141810000D01*
X89290000Y-141810000D01*
X89190000Y-141810000D01*
X87102500Y-141810000D01*
X86890000Y-142022500D01*
X86885887Y-143260000D01*
X85294113Y-143260000D01*
X85290000Y-142022500D01*
X85077500Y-141810000D01*
X82990000Y-141810000D01*
X82890000Y-141810000D01*
X80802500Y-141810000D01*
X80590000Y-142022500D01*
X80585887Y-143260000D01*
X77250000Y-143260000D01*
X77250000Y-140260000D01*
X80585887Y-140260000D01*
X80590000Y-141497500D01*
X80802500Y-141710000D01*
X82890000Y-141710000D01*
X82890000Y-139622500D01*
X82990000Y-139622500D01*
X82990000Y-141710000D01*
X85077500Y-141710000D01*
X85290000Y-141497500D01*
X85294113Y-140260000D01*
X86885887Y-140260000D01*
X86890000Y-141497500D01*
X87102500Y-141710000D01*
X89190000Y-141710000D01*
X89190000Y-139622500D01*
X89290000Y-139622500D01*
X89290000Y-141710000D01*
X91377500Y-141710000D01*
X91590000Y-141497500D01*
X91594113Y-140260000D01*
X91577701Y-140093371D01*
X91529098Y-139933145D01*
X91450169Y-139785480D01*
X91343949Y-139656051D01*
X91214520Y-139549831D01*
X91066855Y-139470902D01*
X90906629Y-139422299D01*
X90740000Y-139405887D01*
X89502500Y-139410000D01*
X89290000Y-139622500D01*
X89190000Y-139622500D01*
X88977500Y-139410000D01*
X87740000Y-139405887D01*
X87573371Y-139422299D01*
X87413145Y-139470902D01*
X87265480Y-139549831D01*
X87136051Y-139656051D01*
X87029831Y-139785480D01*
X86950902Y-139933145D01*
X86902299Y-140093371D01*
X86885887Y-140260000D01*
X85294113Y-140260000D01*
X85277701Y-140093371D01*
X85229098Y-139933145D01*
X85150169Y-139785480D01*
X85043949Y-139656051D01*
X84914520Y-139549831D01*
X84766855Y-139470902D01*
X84606629Y-139422299D01*
X84440000Y-139405887D01*
X83202500Y-139410000D01*
X82990000Y-139622500D01*
X82890000Y-139622500D01*
X82677500Y-139410000D01*
X81440000Y-139405887D01*
X81273371Y-139422299D01*
X81113145Y-139470902D01*
X80965480Y-139549831D01*
X80836051Y-139656051D01*
X80729831Y-139785480D01*
X80650902Y-139933145D01*
X80602299Y-140093371D01*
X80585887Y-140260000D01*
X77250000Y-140260000D01*
X77250000Y-126822716D01*
X79480000Y-126822716D01*
X79480000Y-127177284D01*
X79549173Y-127525041D01*
X79684861Y-127852620D01*
X79881849Y-128147433D01*
X80132567Y-128398151D01*
X80427380Y-128595139D01*
X80754959Y-128730827D01*
X81102716Y-128800000D01*
X81457284Y-128800000D01*
X81805041Y-128730827D01*
X82132620Y-128595139D01*
X82240629Y-128522970D01*
X82266052Y-128553948D01*
X82395481Y-128660168D01*
X82543145Y-128739097D01*
X82703371Y-128787700D01*
X82870000Y-128804112D01*
X84770000Y-128804112D01*
X84936629Y-128787700D01*
X85090000Y-128741176D01*
X85210001Y-128777577D01*
X85210000Y-132238655D01*
X84428656Y-133020000D01*
X84297414Y-133020000D01*
X83988297Y-133081487D01*
X83697116Y-133202098D01*
X83435059Y-133377199D01*
X83212199Y-133600059D01*
X83037098Y-133862116D01*
X82916487Y-134153297D01*
X82855000Y-134462414D01*
X82855000Y-134777586D01*
X82916487Y-135086703D01*
X83037098Y-135377884D01*
X83212199Y-135639941D01*
X83435059Y-135862801D01*
X83697116Y-136037902D01*
X83988297Y-136158513D01*
X84297414Y-136220000D01*
X84612586Y-136220000D01*
X84921703Y-136158513D01*
X85212884Y-136037902D01*
X85474941Y-135862801D01*
X85697801Y-135639941D01*
X85872902Y-135377884D01*
X85993513Y-135086703D01*
X86055000Y-134777586D01*
X86055000Y-134646344D01*
X87133226Y-133568119D01*
X87177107Y-133532107D01*
X87320816Y-133356997D01*
X87427602Y-133157215D01*
X87493360Y-132940439D01*
X87510000Y-132771492D01*
X87510000Y-132771484D01*
X87515563Y-132715000D01*
X87510000Y-132658516D01*
X87510000Y-128777577D01*
X87636855Y-128739097D01*
X87784519Y-128660168D01*
X87913948Y-128553948D01*
X88020168Y-128424519D01*
X88099097Y-128276855D01*
X88147700Y-128116629D01*
X88164112Y-127950000D01*
X88164112Y-126050000D01*
X88147700Y-125883371D01*
X88099097Y-125723145D01*
X88020168Y-125575481D01*
X87913948Y-125446052D01*
X87784519Y-125339832D01*
X87636855Y-125260903D01*
X87476629Y-125212300D01*
X87310000Y-125195888D01*
X85410000Y-125195888D01*
X85243371Y-125212300D01*
X85090000Y-125258824D01*
X84936629Y-125212300D01*
X84770000Y-125195888D01*
X82870000Y-125195888D01*
X82703371Y-125212300D01*
X82543145Y-125260903D01*
X82395481Y-125339832D01*
X82266052Y-125446052D01*
X82240629Y-125477030D01*
X82132620Y-125404861D01*
X81805041Y-125269173D01*
X81457284Y-125200000D01*
X81102716Y-125200000D01*
X80754959Y-125269173D01*
X80427380Y-125404861D01*
X80132567Y-125601849D01*
X79881849Y-125852567D01*
X79684861Y-126147380D01*
X79549173Y-126474959D01*
X79480000Y-126822716D01*
X77250000Y-126822716D01*
X77250000Y-119358979D01*
X79471413Y-119358979D01*
X79502064Y-119712221D01*
X79601039Y-120052695D01*
X79764537Y-120367318D01*
X79787893Y-120402276D01*
X80116508Y-120472781D01*
X81209289Y-119380000D01*
X80116508Y-118287219D01*
X79787893Y-118357724D01*
X79617127Y-118668463D01*
X79510265Y-119006545D01*
X79471413Y-119358979D01*
X77250000Y-119358979D01*
X77250000Y-118216508D01*
X80187219Y-118216508D01*
X81280000Y-119309289D01*
X81294142Y-119295147D01*
X81364853Y-119365858D01*
X81350711Y-119380000D01*
X81364853Y-119394142D01*
X81294142Y-119464853D01*
X81280000Y-119450711D01*
X80187219Y-120543492D01*
X80257724Y-120872107D01*
X80568463Y-121042873D01*
X80906545Y-121149735D01*
X81258979Y-121188587D01*
X81612221Y-121157936D01*
X81952695Y-121058961D01*
X82244289Y-120907430D01*
X82266052Y-120933948D01*
X82395481Y-121040168D01*
X82543145Y-121119097D01*
X82703371Y-121167700D01*
X82870000Y-121184112D01*
X84770000Y-121184112D01*
X84936629Y-121167700D01*
X85010001Y-121145443D01*
X85010001Y-121218672D01*
X85003468Y-121285000D01*
X85029534Y-121549646D01*
X85106729Y-121804122D01*
X85232085Y-122038649D01*
X85358510Y-122192698D01*
X85358514Y-122192702D01*
X85400788Y-122244213D01*
X85452299Y-122286487D01*
X88820000Y-125654188D01*
X88820001Y-132013671D01*
X88813468Y-132080000D01*
X88839534Y-132344646D01*
X88916729Y-132599122D01*
X89042085Y-132833649D01*
X89168510Y-132987698D01*
X89168514Y-132987702D01*
X89210788Y-133039213D01*
X89262299Y-133081487D01*
X95586699Y-139405888D01*
X94040000Y-139405888D01*
X93873371Y-139422300D01*
X93713145Y-139470903D01*
X93565481Y-139549832D01*
X93436052Y-139656052D01*
X93329832Y-139785481D01*
X93250903Y-139933145D01*
X93202300Y-140093371D01*
X93185888Y-140260000D01*
X93185888Y-143260000D01*
X93202300Y-143426629D01*
X93250903Y-143586855D01*
X93329832Y-143734519D01*
X93436052Y-143863948D01*
X93565481Y-143970168D01*
X93713145Y-144049097D01*
X93873371Y-144097700D01*
X94040000Y-144114112D01*
X97040000Y-144114112D01*
X97075000Y-144110665D01*
X97075001Y-155609335D01*
X97040000Y-155605888D01*
X94040000Y-155605888D01*
X93873371Y-155622300D01*
X93713145Y-155670903D01*
X93565481Y-155749832D01*
X93436052Y-155856052D01*
X93329832Y-155985481D01*
X93250903Y-156133145D01*
X93202300Y-156293371D01*
X93185888Y-156460000D01*
X93185888Y-159460000D01*
X93202300Y-159626629D01*
X93250903Y-159786855D01*
X93329832Y-159934519D01*
X93436052Y-160063948D01*
X93565481Y-160170168D01*
X93713145Y-160249097D01*
X93873371Y-160297700D01*
X94040000Y-160314112D01*
X94190000Y-160314112D01*
X94190000Y-160755888D01*
X92395000Y-160755888D01*
X92228371Y-160772300D01*
X92068145Y-160820903D01*
X91920481Y-160899832D01*
X91791052Y-161006052D01*
X91684832Y-161135481D01*
X91605903Y-161283145D01*
X91557300Y-161443371D01*
X91540888Y-161610000D01*
X91540888Y-163510000D01*
X91557300Y-163676629D01*
X91605903Y-163836855D01*
X91684832Y-163984519D01*
X91791052Y-164113948D01*
X91920481Y-164220168D01*
X92068145Y-164299097D01*
X92228371Y-164347700D01*
X92395000Y-164364112D01*
X94190001Y-164364112D01*
X94190001Y-165323671D01*
X94183468Y-165390000D01*
X94209534Y-165654646D01*
X94286729Y-165909122D01*
X94412085Y-166143649D01*
X94538510Y-166297698D01*
X94538514Y-166297702D01*
X94580788Y-166349213D01*
X94632299Y-166391487D01*
X96788509Y-168547697D01*
X96830787Y-168599213D01*
X96882302Y-168641490D01*
X97036351Y-168767915D01*
X97270877Y-168893272D01*
X97525354Y-168970467D01*
X97790000Y-168996532D01*
X97856321Y-168990000D01*
X98315737Y-168990000D01*
X98322300Y-169056629D01*
X98370903Y-169216855D01*
X98449832Y-169364519D01*
X98556052Y-169493948D01*
X98685481Y-169600168D01*
X98760001Y-169640000D01*
X98685481Y-169679832D01*
X98556052Y-169786052D01*
X98449832Y-169915481D01*
X98370903Y-170063145D01*
X98322300Y-170223371D01*
X98305888Y-170390000D01*
X98305888Y-172890000D01*
X98322300Y-173056629D01*
X98370903Y-173216855D01*
X98449832Y-173364519D01*
X98556052Y-173493948D01*
X98685481Y-173600168D01*
X98833145Y-173679097D01*
X98993371Y-173727700D01*
X99060001Y-173734263D01*
X99060001Y-174073671D01*
X99053468Y-174140000D01*
X99079534Y-174404646D01*
X99156729Y-174659122D01*
X99282085Y-174893649D01*
X99408510Y-175047698D01*
X99408514Y-175047702D01*
X99450788Y-175099213D01*
X99502300Y-175141488D01*
X99893505Y-175532692D01*
X99935787Y-175584213D01*
X100141351Y-175752915D01*
X100375878Y-175878272D01*
X100630354Y-175955467D01*
X100828679Y-175975000D01*
X100828681Y-175975000D01*
X100895000Y-175981532D01*
X100961319Y-175975000D01*
X103608250Y-175975000D01*
X103610000Y-176267500D01*
X103822500Y-176480000D01*
X105360000Y-176480000D01*
X105360000Y-176460000D01*
X105460000Y-176460000D01*
X105460000Y-176480000D01*
X106997500Y-176480000D01*
X107210000Y-176267500D01*
X107211750Y-175975000D01*
X109858681Y-175975000D01*
X109925000Y-175981532D01*
X109991319Y-175975000D01*
X109991321Y-175975000D01*
X110189646Y-175955467D01*
X110444122Y-175878272D01*
X110678649Y-175752915D01*
X110884213Y-175584213D01*
X110926492Y-175532696D01*
X111317696Y-175141491D01*
X111369212Y-175099213D01*
X111537915Y-174893649D01*
X111663272Y-174659122D01*
X111740467Y-174404646D01*
X111760000Y-174206321D01*
X111760000Y-174206319D01*
X111766532Y-174140000D01*
X111760000Y-174073681D01*
X111760000Y-173734263D01*
X111826629Y-173727700D01*
X111986855Y-173679097D01*
X112134519Y-173600168D01*
X112263948Y-173493948D01*
X112370168Y-173364519D01*
X112449097Y-173216855D01*
X112497700Y-173056629D01*
X112514112Y-172890000D01*
X112514112Y-170390000D01*
X112497700Y-170223371D01*
X112449097Y-170063145D01*
X112370168Y-169915481D01*
X112263948Y-169786052D01*
X112134519Y-169679832D01*
X112059999Y-169640000D01*
X112134519Y-169600168D01*
X112263948Y-169493948D01*
X112370168Y-169364519D01*
X112449097Y-169216855D01*
X112497700Y-169056629D01*
X112504263Y-168990000D01*
X112963681Y-168990000D01*
X113030000Y-168996532D01*
X113096319Y-168990000D01*
X113096321Y-168990000D01*
X113294646Y-168970467D01*
X113549122Y-168893272D01*
X113783649Y-168767915D01*
X113989213Y-168599213D01*
X114031491Y-168547697D01*
X119017702Y-163561487D01*
X119069213Y-163519213D01*
X119111487Y-163467702D01*
X119111490Y-163467699D01*
X119237915Y-163313650D01*
X119363271Y-163079123D01*
X119363272Y-163079122D01*
X119440467Y-162824646D01*
X119460000Y-162626321D01*
X119460000Y-162626319D01*
X119466532Y-162560000D01*
X119460000Y-162493681D01*
X119460000Y-160044389D01*
X119476052Y-160063948D01*
X119605481Y-160170168D01*
X119753145Y-160249097D01*
X119913371Y-160297700D01*
X120080000Y-160314112D01*
X120230001Y-160314112D01*
X120230001Y-161518671D01*
X120223468Y-161585000D01*
X120249534Y-161849646D01*
X120326729Y-162104122D01*
X120452085Y-162338649D01*
X120578510Y-162492698D01*
X120578514Y-162492702D01*
X120620788Y-162544213D01*
X120672298Y-162586486D01*
X121553513Y-163467702D01*
X121595787Y-163519213D01*
X121647298Y-163561487D01*
X121647301Y-163561490D01*
X121801350Y-163687915D01*
X121926707Y-163754919D01*
X122035878Y-163813272D01*
X122290354Y-163890467D01*
X122488679Y-163910000D01*
X122488688Y-163910000D01*
X122554999Y-163916531D01*
X122621310Y-163910000D01*
X122760000Y-163910000D01*
X122799832Y-163984519D01*
X122859067Y-164056697D01*
X122766711Y-164194918D01*
X122622675Y-164542653D01*
X122549245Y-164911807D01*
X122549245Y-165288193D01*
X122622675Y-165657347D01*
X122766711Y-166005082D01*
X122975820Y-166318035D01*
X123241965Y-166584180D01*
X123554918Y-166793289D01*
X123902653Y-166937325D01*
X124271807Y-167010755D01*
X124648193Y-167010755D01*
X125017347Y-166937325D01*
X125365082Y-166793289D01*
X125678035Y-166584180D01*
X125944180Y-166318035D01*
X126153289Y-166005082D01*
X126297325Y-165657347D01*
X126370755Y-165288193D01*
X126370755Y-164911807D01*
X126297325Y-164542653D01*
X126153289Y-164194918D01*
X126060933Y-164056697D01*
X126120168Y-163984519D01*
X126199097Y-163836855D01*
X126247700Y-163676629D01*
X126264112Y-163510000D01*
X126264112Y-161610000D01*
X126247700Y-161443371D01*
X126199097Y-161283145D01*
X126120168Y-161135481D01*
X126013948Y-161006052D01*
X125884519Y-160899832D01*
X125736855Y-160820903D01*
X125576629Y-160772300D01*
X125410000Y-160755888D01*
X123510000Y-160755888D01*
X123343371Y-160772300D01*
X123183145Y-160820903D01*
X123035481Y-160899832D01*
X122930000Y-160986398D01*
X122930000Y-160314112D01*
X123080000Y-160314112D01*
X123246629Y-160297700D01*
X123406855Y-160249097D01*
X123554519Y-160170168D01*
X123683948Y-160063948D01*
X123790168Y-159934519D01*
X123869097Y-159786855D01*
X123917700Y-159626629D01*
X123934112Y-159460000D01*
X125525887Y-159460000D01*
X125542299Y-159626629D01*
X125590902Y-159786855D01*
X125669831Y-159934520D01*
X125776051Y-160063949D01*
X125905480Y-160170169D01*
X126053145Y-160249098D01*
X126213371Y-160297701D01*
X126380000Y-160314113D01*
X127617500Y-160310000D01*
X127830000Y-160097500D01*
X127830000Y-158010000D01*
X127930000Y-158010000D01*
X127930000Y-160097500D01*
X128142500Y-160310000D01*
X129380000Y-160314113D01*
X129546629Y-160297701D01*
X129706855Y-160249098D01*
X129854520Y-160170169D01*
X129983949Y-160063949D01*
X130090169Y-159934520D01*
X130169098Y-159786855D01*
X130217701Y-159626629D01*
X130234113Y-159460000D01*
X130230000Y-158222500D01*
X130017500Y-158010000D01*
X127930000Y-158010000D01*
X127830000Y-158010000D01*
X125742500Y-158010000D01*
X125530000Y-158222500D01*
X125525887Y-159460000D01*
X123934112Y-159460000D01*
X123934112Y-156460000D01*
X125525887Y-156460000D01*
X125530000Y-157697500D01*
X125742500Y-157910000D01*
X127830000Y-157910000D01*
X127830000Y-155822500D01*
X127930000Y-155822500D01*
X127930000Y-157910000D01*
X130017500Y-157910000D01*
X130230000Y-157697500D01*
X130234113Y-156460000D01*
X130217701Y-156293371D01*
X130169098Y-156133145D01*
X130090169Y-155985480D01*
X129983949Y-155856051D01*
X129854520Y-155749831D01*
X129706855Y-155670902D01*
X129546629Y-155622299D01*
X129380000Y-155605887D01*
X128142500Y-155610000D01*
X127930000Y-155822500D01*
X127830000Y-155822500D01*
X127617500Y-155610000D01*
X126380000Y-155605887D01*
X126213371Y-155622299D01*
X126053145Y-155670902D01*
X125905480Y-155749831D01*
X125776051Y-155856051D01*
X125669831Y-155985480D01*
X125590902Y-156133145D01*
X125542299Y-156293371D01*
X125525887Y-156460000D01*
X123934112Y-156460000D01*
X123917700Y-156293371D01*
X123869097Y-156133145D01*
X123790168Y-155985481D01*
X123683948Y-155856052D01*
X123554519Y-155749832D01*
X123406855Y-155670903D01*
X123246629Y-155622300D01*
X123080000Y-155605888D01*
X122930000Y-155605888D01*
X122930000Y-144114112D01*
X123080000Y-144114112D01*
X123246629Y-144097700D01*
X123406855Y-144049097D01*
X123554519Y-143970168D01*
X123683948Y-143863948D01*
X123790168Y-143734519D01*
X123869097Y-143586855D01*
X123917700Y-143426629D01*
X123934112Y-143260000D01*
X125525887Y-143260000D01*
X125542299Y-143426629D01*
X125590902Y-143586855D01*
X125669831Y-143734520D01*
X125776051Y-143863949D01*
X125905480Y-143970169D01*
X126053145Y-144049098D01*
X126213371Y-144097701D01*
X126380000Y-144114113D01*
X127617500Y-144110000D01*
X127830000Y-143897500D01*
X127830000Y-141810000D01*
X127930000Y-141810000D01*
X127930000Y-143897500D01*
X128142500Y-144110000D01*
X129380000Y-144114113D01*
X129546629Y-144097701D01*
X129706855Y-144049098D01*
X129854520Y-143970169D01*
X129983949Y-143863949D01*
X130090169Y-143734520D01*
X130169098Y-143586855D01*
X130217701Y-143426629D01*
X130234113Y-143260000D01*
X130230000Y-142022500D01*
X130017500Y-141810000D01*
X127930000Y-141810000D01*
X127830000Y-141810000D01*
X125742500Y-141810000D01*
X125530000Y-142022500D01*
X125525887Y-143260000D01*
X123934112Y-143260000D01*
X123934112Y-140260000D01*
X125525887Y-140260000D01*
X125530000Y-141497500D01*
X125742500Y-141710000D01*
X127830000Y-141710000D01*
X127830000Y-139622500D01*
X127930000Y-139622500D01*
X127930000Y-141710000D01*
X130017500Y-141710000D01*
X130230000Y-141497500D01*
X130234113Y-140260000D01*
X130217701Y-140093371D01*
X130169098Y-139933145D01*
X130090169Y-139785480D01*
X129983949Y-139656051D01*
X129854520Y-139549831D01*
X129706855Y-139470902D01*
X129546629Y-139422299D01*
X129380000Y-139405887D01*
X128142500Y-139410000D01*
X127930000Y-139622500D01*
X127830000Y-139622500D01*
X127617500Y-139410000D01*
X126380000Y-139405887D01*
X126213371Y-139422299D01*
X126053145Y-139470902D01*
X125905480Y-139549831D01*
X125776051Y-139656051D01*
X125669831Y-139785480D01*
X125590902Y-139933145D01*
X125542299Y-140093371D01*
X125525887Y-140260000D01*
X123934112Y-140260000D01*
X123917700Y-140093371D01*
X123869097Y-139933145D01*
X123790168Y-139785481D01*
X123683948Y-139656052D01*
X123554519Y-139549832D01*
X123406855Y-139470903D01*
X123246629Y-139422300D01*
X123080000Y-139405888D01*
X120080000Y-139405888D01*
X119913371Y-139422300D01*
X119753145Y-139470903D01*
X119605481Y-139549832D01*
X119476052Y-139656052D01*
X119369832Y-139785481D01*
X119290903Y-139933145D01*
X119242300Y-140093371D01*
X119225888Y-140260000D01*
X119225888Y-143260000D01*
X119242300Y-143426629D01*
X119290903Y-143586855D01*
X119369832Y-143734519D01*
X119476052Y-143863948D01*
X119605481Y-143970168D01*
X119753145Y-144049097D01*
X119913371Y-144097700D01*
X120080000Y-144114112D01*
X120230000Y-144114112D01*
X120230001Y-155605888D01*
X120080000Y-155605888D01*
X119913371Y-155622300D01*
X119753145Y-155670903D01*
X119605481Y-155749832D01*
X119476052Y-155856052D01*
X119430292Y-155911811D01*
X119363272Y-155690878D01*
X119237915Y-155456351D01*
X119069212Y-155250787D01*
X119017701Y-155208513D01*
X116630000Y-152820812D01*
X116630000Y-144114112D01*
X116780000Y-144114112D01*
X116946629Y-144097700D01*
X117106855Y-144049097D01*
X117254519Y-143970168D01*
X117383948Y-143863948D01*
X117490168Y-143734519D01*
X117569097Y-143586855D01*
X117617700Y-143426629D01*
X117634112Y-143260000D01*
X117634112Y-140260000D01*
X117617700Y-140093371D01*
X117569097Y-139933145D01*
X117490168Y-139785481D01*
X117383948Y-139656052D01*
X117254519Y-139549832D01*
X117106855Y-139470903D01*
X116946629Y-139422300D01*
X116780000Y-139405888D01*
X113780000Y-139405888D01*
X113613371Y-139422300D01*
X113453145Y-139470903D01*
X113305481Y-139549832D01*
X113176052Y-139656052D01*
X113069832Y-139785481D01*
X112990903Y-139933145D01*
X112942300Y-140093371D01*
X112925888Y-140260000D01*
X112925888Y-143260000D01*
X112942300Y-143426629D01*
X112990903Y-143586855D01*
X113069832Y-143734519D01*
X113176052Y-143863948D01*
X113305481Y-143970168D01*
X113453145Y-144049097D01*
X113613371Y-144097700D01*
X113780000Y-144114112D01*
X113930000Y-144114112D01*
X113930001Y-153313671D01*
X113923468Y-153380000D01*
X113949534Y-153644646D01*
X114026729Y-153899122D01*
X114152085Y-154133649D01*
X114278510Y-154287698D01*
X114278514Y-154287702D01*
X114320788Y-154339213D01*
X114372299Y-154381487D01*
X115600619Y-155609807D01*
X115542500Y-155610000D01*
X115330000Y-155822500D01*
X115330000Y-157910000D01*
X115350000Y-157910000D01*
X115350000Y-158010000D01*
X115330000Y-158010000D01*
X115330000Y-160097500D01*
X115542500Y-160310000D01*
X116760001Y-160314047D01*
X116760001Y-162000810D01*
X112501263Y-166259549D01*
X112497700Y-166223371D01*
X112449097Y-166063145D01*
X112370168Y-165915481D01*
X112263948Y-165786052D01*
X112134519Y-165679832D01*
X112059999Y-165640000D01*
X112134519Y-165600168D01*
X112263948Y-165493948D01*
X112370168Y-165364519D01*
X112449097Y-165216855D01*
X112497700Y-165056629D01*
X112514112Y-164890000D01*
X112514112Y-162390000D01*
X112497700Y-162223371D01*
X112449097Y-162063145D01*
X112370168Y-161915481D01*
X112263948Y-161786052D01*
X112134519Y-161679832D01*
X111986855Y-161600903D01*
X111826629Y-161552300D01*
X111660000Y-161535888D01*
X109160000Y-161535888D01*
X108993371Y-161552300D01*
X108833145Y-161600903D01*
X108685481Y-161679832D01*
X108556052Y-161786052D01*
X108449832Y-161915481D01*
X108370903Y-162063145D01*
X108322300Y-162223371D01*
X108305888Y-162390000D01*
X108305888Y-162586775D01*
X108133003Y-162679184D01*
X108133001Y-162679185D01*
X108133002Y-162679185D01*
X108001772Y-162786882D01*
X108001769Y-162786885D01*
X107957893Y-162822893D01*
X107921884Y-162866770D01*
X107514112Y-163274543D01*
X107514112Y-162390000D01*
X107497700Y-162223371D01*
X107449097Y-162063145D01*
X107370168Y-161915481D01*
X107263948Y-161786052D01*
X107134519Y-161679832D01*
X106986855Y-161600903D01*
X106826629Y-161552300D01*
X106660000Y-161535888D01*
X104160000Y-161535888D01*
X103993371Y-161552300D01*
X103833145Y-161600903D01*
X103685481Y-161679832D01*
X103556052Y-161786052D01*
X103449832Y-161915481D01*
X103370903Y-162063145D01*
X103322300Y-162223371D01*
X103305888Y-162390000D01*
X103305888Y-164890000D01*
X103322300Y-165056629D01*
X103370903Y-165216855D01*
X103449832Y-165364519D01*
X103556052Y-165493948D01*
X103685481Y-165600168D01*
X103759999Y-165639999D01*
X103685480Y-165679831D01*
X103556051Y-165786051D01*
X103449831Y-165915480D01*
X103370902Y-166063145D01*
X103322299Y-166223371D01*
X103305887Y-166390000D01*
X103310000Y-167377500D01*
X103522500Y-167590000D01*
X105360000Y-167590000D01*
X105360000Y-167570000D01*
X105460000Y-167570000D01*
X105460000Y-167590000D01*
X105480000Y-167590000D01*
X105480000Y-167690000D01*
X105460000Y-167690000D01*
X105460000Y-167710000D01*
X105360000Y-167710000D01*
X105360000Y-167690000D01*
X103522500Y-167690000D01*
X103310000Y-167902500D01*
X103305887Y-168890000D01*
X103322299Y-169056629D01*
X103370902Y-169216855D01*
X103449831Y-169364520D01*
X103556051Y-169493949D01*
X103685480Y-169600169D01*
X103759999Y-169640001D01*
X103685481Y-169679832D01*
X103556052Y-169786052D01*
X103449832Y-169915481D01*
X103370903Y-170063145D01*
X103322300Y-170223371D01*
X103305888Y-170390000D01*
X103305888Y-172890000D01*
X103322300Y-173056629D01*
X103370903Y-173216855D01*
X103401983Y-173275000D01*
X102418017Y-173275000D01*
X102449097Y-173216855D01*
X102497700Y-173056629D01*
X102514112Y-172890000D01*
X102514112Y-170390000D01*
X102497700Y-170223371D01*
X102449097Y-170063145D01*
X102370168Y-169915481D01*
X102263948Y-169786052D01*
X102134519Y-169679832D01*
X102059999Y-169640000D01*
X102134519Y-169600168D01*
X102263948Y-169493948D01*
X102370168Y-169364519D01*
X102449097Y-169216855D01*
X102497700Y-169056629D01*
X102514112Y-168890000D01*
X102514112Y-166390000D01*
X102497700Y-166223371D01*
X102449097Y-166063145D01*
X102370168Y-165915481D01*
X102263948Y-165786052D01*
X102134519Y-165679832D01*
X102059999Y-165640000D01*
X102134519Y-165600168D01*
X102263948Y-165493948D01*
X102370168Y-165364519D01*
X102449097Y-165216855D01*
X102497700Y-165056629D01*
X102514112Y-164890000D01*
X102514112Y-162390000D01*
X102497700Y-162223371D01*
X102449097Y-162063145D01*
X102370168Y-161915481D01*
X102263948Y-161786052D01*
X102134519Y-161679832D01*
X101986855Y-161600903D01*
X101826629Y-161552300D01*
X101760000Y-161545737D01*
X101760000Y-161436319D01*
X101766532Y-161370000D01*
X101760000Y-161303679D01*
X101740467Y-161105354D01*
X101663272Y-160850878D01*
X101604825Y-160741532D01*
X101537915Y-160616350D01*
X101411490Y-160462301D01*
X101411483Y-160462294D01*
X101369212Y-160410787D01*
X101317706Y-160368517D01*
X100409189Y-159460000D01*
X112925887Y-159460000D01*
X112942299Y-159626629D01*
X112990902Y-159786855D01*
X113069831Y-159934520D01*
X113176051Y-160063949D01*
X113305480Y-160170169D01*
X113453145Y-160249098D01*
X113613371Y-160297701D01*
X113780000Y-160314113D01*
X115017500Y-160310000D01*
X115230000Y-160097500D01*
X115230000Y-158010000D01*
X113142500Y-158010000D01*
X112930000Y-158222500D01*
X112925887Y-159460000D01*
X100409189Y-159460000D01*
X99775000Y-158825812D01*
X99775000Y-156460000D01*
X112925887Y-156460000D01*
X112930000Y-157697500D01*
X113142500Y-157910000D01*
X115230000Y-157910000D01*
X115230000Y-155822500D01*
X115017500Y-155610000D01*
X113780000Y-155605887D01*
X113613371Y-155622299D01*
X113453145Y-155670902D01*
X113305480Y-155749831D01*
X113176051Y-155856051D01*
X113069831Y-155985480D01*
X112990902Y-156133145D01*
X112942299Y-156293371D01*
X112925887Y-156460000D01*
X99775000Y-156460000D01*
X99775000Y-140401319D01*
X99781532Y-140335000D01*
X99774145Y-140260000D01*
X99755467Y-140070354D01*
X99678272Y-139815878D01*
X99619919Y-139706707D01*
X99552915Y-139581350D01*
X99426490Y-139427301D01*
X99426483Y-139427294D01*
X99384212Y-139375787D01*
X99332707Y-139333518D01*
X99319189Y-139320000D01*
X103605888Y-139320000D01*
X103605888Y-140080000D01*
X103633252Y-140357830D01*
X103714292Y-140624984D01*
X103845894Y-140871194D01*
X104020484Y-141083932D01*
X104011849Y-141092567D01*
X103814861Y-141387380D01*
X103679173Y-141714959D01*
X103610000Y-142062716D01*
X103610000Y-142417284D01*
X103679173Y-142765041D01*
X103814861Y-143092620D01*
X104011849Y-143387433D01*
X104262567Y-143638151D01*
X104557380Y-143835139D01*
X104884959Y-143970827D01*
X105232716Y-144040000D01*
X105587284Y-144040000D01*
X105935041Y-143970827D01*
X106262620Y-143835139D01*
X106557433Y-143638151D01*
X106808151Y-143387433D01*
X107005139Y-143092620D01*
X107140827Y-142765041D01*
X107210000Y-142417284D01*
X107210000Y-142062716D01*
X107140827Y-141714959D01*
X107005139Y-141387380D01*
X106808151Y-141092567D01*
X106799516Y-141083932D01*
X106974106Y-140871194D01*
X107105708Y-140624984D01*
X107186748Y-140357830D01*
X107214112Y-140080000D01*
X107214112Y-139320000D01*
X107186748Y-139042170D01*
X107105708Y-138775016D01*
X106974106Y-138528806D01*
X106796999Y-138313001D01*
X106581194Y-138135894D01*
X106334984Y-138004292D01*
X106067830Y-137923252D01*
X105790000Y-137895888D01*
X105030000Y-137895888D01*
X104752170Y-137923252D01*
X104485016Y-138004292D01*
X104238806Y-138135894D01*
X104023001Y-138313001D01*
X103845894Y-138528806D01*
X103714292Y-138775016D01*
X103633252Y-139042170D01*
X103605888Y-139320000D01*
X99319189Y-139320000D01*
X93171905Y-133172716D01*
X98530000Y-133172716D01*
X98530000Y-133527284D01*
X98599173Y-133875041D01*
X98734861Y-134202620D01*
X98931849Y-134497433D01*
X99182567Y-134748151D01*
X99477380Y-134945139D01*
X99804959Y-135080827D01*
X100152716Y-135150000D01*
X100507284Y-135150000D01*
X100855041Y-135080827D01*
X101182620Y-134945139D01*
X101290629Y-134872970D01*
X101316052Y-134903948D01*
X101445481Y-135010168D01*
X101593145Y-135089097D01*
X101753371Y-135137700D01*
X101920000Y-135154112D01*
X103820000Y-135154112D01*
X103986629Y-135137700D01*
X104146855Y-135089097D01*
X104294519Y-135010168D01*
X104423948Y-134903948D01*
X104449371Y-134872970D01*
X104557380Y-134945139D01*
X104884959Y-135080827D01*
X105232716Y-135150000D01*
X105587284Y-135150000D01*
X105935041Y-135080827D01*
X106262620Y-134945139D01*
X106370628Y-134872971D01*
X106396051Y-134903949D01*
X106525480Y-135010169D01*
X106673145Y-135089098D01*
X106833371Y-135137701D01*
X107000000Y-135154113D01*
X107687500Y-135150000D01*
X107900000Y-134937500D01*
X107900000Y-133400000D01*
X107880000Y-133400000D01*
X107880000Y-133300000D01*
X107900000Y-133300000D01*
X107900000Y-133280000D01*
X108000000Y-133280000D01*
X108000000Y-133300000D01*
X108020000Y-133300000D01*
X108020000Y-133400000D01*
X108000000Y-133400000D01*
X108000000Y-134937500D01*
X108212500Y-135150000D01*
X108900000Y-135154113D01*
X109066629Y-135137701D01*
X109226855Y-135089098D01*
X109374520Y-135010169D01*
X109503949Y-134903949D01*
X109529372Y-134872971D01*
X109637380Y-134945139D01*
X109964959Y-135080827D01*
X110312716Y-135150000D01*
X110667284Y-135150000D01*
X111015041Y-135080827D01*
X111342620Y-134945139D01*
X111637433Y-134748151D01*
X111888151Y-134497433D01*
X112085139Y-134202620D01*
X112220827Y-133875041D01*
X112290000Y-133527284D01*
X112290000Y-133426191D01*
X112328679Y-133430000D01*
X112328688Y-133430000D01*
X112394999Y-133436531D01*
X112461310Y-133430000D01*
X114710494Y-133430000D01*
X114812116Y-133497902D01*
X115103297Y-133618513D01*
X115412414Y-133680000D01*
X115727586Y-133680000D01*
X116036703Y-133618513D01*
X116327884Y-133497902D01*
X116589941Y-133322801D01*
X116812801Y-133099941D01*
X116987902Y-132837884D01*
X117108513Y-132546703D01*
X117132357Y-132426831D01*
X120922701Y-128636487D01*
X120974212Y-128594213D01*
X121006717Y-128554605D01*
X121067380Y-128595139D01*
X121394959Y-128730827D01*
X121742716Y-128800000D01*
X122097284Y-128800000D01*
X122445041Y-128730827D01*
X122772620Y-128595139D01*
X122880629Y-128522970D01*
X122906052Y-128553948D01*
X123035481Y-128660168D01*
X123183145Y-128739097D01*
X123343371Y-128787700D01*
X123510000Y-128804112D01*
X125410000Y-128804112D01*
X125481594Y-128797060D01*
X121258656Y-133020000D01*
X121127414Y-133020000D01*
X120818297Y-133081487D01*
X120527116Y-133202098D01*
X120265059Y-133377199D01*
X120042199Y-133600059D01*
X119867098Y-133862116D01*
X119746487Y-134153297D01*
X119685000Y-134462414D01*
X119685000Y-134777586D01*
X119746487Y-135086703D01*
X119867098Y-135377884D01*
X120042199Y-135639941D01*
X120265059Y-135862801D01*
X120527116Y-136037902D01*
X120818297Y-136158513D01*
X121127414Y-136220000D01*
X121442586Y-136220000D01*
X121751703Y-136158513D01*
X122042884Y-136037902D01*
X122304941Y-135862801D01*
X122527801Y-135639941D01*
X122702902Y-135377884D01*
X122823513Y-135086703D01*
X122885000Y-134777586D01*
X122885000Y-134646344D01*
X127773230Y-129758116D01*
X127817107Y-129722107D01*
X127853115Y-129678231D01*
X127853119Y-129678227D01*
X127960816Y-129546997D01*
X128067602Y-129347216D01*
X128133360Y-129130439D01*
X128155564Y-128905000D01*
X128150000Y-128848508D01*
X128150000Y-128777577D01*
X128276855Y-128739097D01*
X128424519Y-128660168D01*
X128553948Y-128553948D01*
X128660168Y-128424519D01*
X128739097Y-128276855D01*
X128787700Y-128116629D01*
X128804112Y-127950000D01*
X128804112Y-126050000D01*
X128787700Y-125883371D01*
X128739097Y-125723145D01*
X128660168Y-125575481D01*
X128555836Y-125448352D01*
X132352701Y-121651487D01*
X132404212Y-121609213D01*
X132453098Y-121549646D01*
X132572915Y-121403650D01*
X132639919Y-121278293D01*
X132698272Y-121169122D01*
X132775467Y-120914646D01*
X132795000Y-120716321D01*
X132795000Y-120716312D01*
X132801531Y-120650001D01*
X132795000Y-120583690D01*
X132795000Y-107381310D01*
X132801531Y-107314999D01*
X132795000Y-107248688D01*
X132795000Y-107248679D01*
X132775467Y-107050354D01*
X132698272Y-106795878D01*
X132607946Y-106626889D01*
X132572915Y-106561350D01*
X132446489Y-106407301D01*
X132404213Y-106355787D01*
X132352697Y-106313509D01*
X128001491Y-101962303D01*
X127959213Y-101910787D01*
X127753649Y-101742085D01*
X127519122Y-101616728D01*
X127264646Y-101539533D01*
X127066321Y-101520000D01*
X127066319Y-101520000D01*
X127000000Y-101513468D01*
X126933681Y-101520000D01*
X122779506Y-101520000D01*
X122677884Y-101452098D01*
X122386703Y-101331487D01*
X122077586Y-101270000D01*
X121762414Y-101270000D01*
X121453297Y-101331487D01*
X121162116Y-101452098D01*
X120900059Y-101627199D01*
X120677199Y-101850059D01*
X120502098Y-102112116D01*
X120381487Y-102403297D01*
X120320000Y-102712414D01*
X120320000Y-103027586D01*
X120381487Y-103336703D01*
X120502098Y-103627884D01*
X120677199Y-103889941D01*
X120900059Y-104112801D01*
X121162116Y-104287902D01*
X121453297Y-104408513D01*
X121762414Y-104470000D01*
X122077586Y-104470000D01*
X122386703Y-104408513D01*
X122677884Y-104287902D01*
X122779506Y-104220000D01*
X126440812Y-104220000D01*
X130095001Y-107874189D01*
X130095000Y-117661583D01*
X130065041Y-117649173D01*
X129717284Y-117580000D01*
X129362716Y-117580000D01*
X129014959Y-117649173D01*
X128687380Y-117784861D01*
X128579372Y-117857029D01*
X128553949Y-117826051D01*
X128424520Y-117719831D01*
X128276855Y-117640902D01*
X128116629Y-117592299D01*
X127950000Y-117575887D01*
X127262500Y-117580000D01*
X127050000Y-117792500D01*
X127050000Y-119330000D01*
X127070000Y-119330000D01*
X127070000Y-119430000D01*
X127050000Y-119430000D01*
X127050000Y-120967500D01*
X127262500Y-121180000D01*
X127950000Y-121184113D01*
X128116629Y-121167701D01*
X128276855Y-121119098D01*
X128424520Y-121040169D01*
X128553949Y-120933949D01*
X128579372Y-120902971D01*
X128687380Y-120975139D01*
X129014959Y-121110827D01*
X129065026Y-121120786D01*
X126440812Y-123745000D01*
X121351310Y-123745000D01*
X121284999Y-123738469D01*
X121218688Y-123745000D01*
X121218679Y-123745000D01*
X121020354Y-123764533D01*
X120765878Y-123841728D01*
X120656707Y-123900081D01*
X120531350Y-123967085D01*
X120377301Y-124093510D01*
X120377298Y-124093513D01*
X120325787Y-124135787D01*
X120283513Y-124187298D01*
X119107299Y-125363513D01*
X119055788Y-125405787D01*
X119013514Y-125457298D01*
X119013510Y-125457302D01*
X118887085Y-125611351D01*
X118824407Y-125728614D01*
X118761728Y-125845878D01*
X118684533Y-126100354D01*
X118665000Y-126298679D01*
X118658468Y-126365000D01*
X118665000Y-126431319D01*
X118665000Y-127075812D01*
X115223169Y-130517643D01*
X115103297Y-130541487D01*
X114812116Y-130662098D01*
X114710494Y-130730000D01*
X112954189Y-130730000D01*
X112126491Y-129902303D01*
X112084213Y-129850787D01*
X111878649Y-129682085D01*
X111644122Y-129556728D01*
X111389646Y-129479533D01*
X111191321Y-129460000D01*
X111191319Y-129460000D01*
X111125000Y-129453468D01*
X111058681Y-129460000D01*
X103571319Y-129460000D01*
X103505000Y-129453468D01*
X103438681Y-129460000D01*
X103438679Y-129460000D01*
X103240354Y-129479533D01*
X103045105Y-129538761D01*
X102985877Y-129556728D01*
X102868614Y-129619407D01*
X102751351Y-129682085D01*
X102545787Y-129850787D01*
X102503505Y-129902308D01*
X101962300Y-130443513D01*
X101910788Y-130485787D01*
X101868514Y-130537298D01*
X101868510Y-130537302D01*
X101742085Y-130691351D01*
X101616729Y-130925878D01*
X101539534Y-131180354D01*
X101513468Y-131445000D01*
X101520001Y-131511328D01*
X101520001Y-131650000D01*
X101445481Y-131689832D01*
X101316052Y-131796052D01*
X101290629Y-131827030D01*
X101182620Y-131754861D01*
X100855041Y-131619173D01*
X100507284Y-131550000D01*
X100152716Y-131550000D01*
X99804959Y-131619173D01*
X99477380Y-131754861D01*
X99182567Y-131951849D01*
X98931849Y-132202567D01*
X98734861Y-132497380D01*
X98599173Y-132824959D01*
X98530000Y-133172716D01*
X93171905Y-133172716D01*
X91520000Y-131520812D01*
X91520000Y-126050000D01*
X98525888Y-126050000D01*
X98525888Y-127950000D01*
X98542300Y-128116629D01*
X98590903Y-128276855D01*
X98669832Y-128424519D01*
X98776052Y-128553948D01*
X98905481Y-128660168D01*
X99053145Y-128739097D01*
X99213371Y-128787700D01*
X99380000Y-128804112D01*
X101280000Y-128804112D01*
X101446629Y-128787700D01*
X101606855Y-128739097D01*
X101754519Y-128660168D01*
X101883948Y-128553948D01*
X101909371Y-128522970D01*
X102017380Y-128595139D01*
X102344959Y-128730827D01*
X102692716Y-128800000D01*
X103047284Y-128800000D01*
X103395041Y-128730827D01*
X103722620Y-128595139D01*
X104017433Y-128398151D01*
X104268151Y-128147433D01*
X104465139Y-127852620D01*
X104600827Y-127525041D01*
X104670000Y-127177284D01*
X104670000Y-126822716D01*
X104600827Y-126474959D01*
X104465139Y-126147380D01*
X104268151Y-125852567D01*
X104017433Y-125601849D01*
X103722620Y-125404861D01*
X103395041Y-125269173D01*
X103047284Y-125200000D01*
X102692716Y-125200000D01*
X102344959Y-125269173D01*
X102017380Y-125404861D01*
X101909371Y-125477030D01*
X101883948Y-125446052D01*
X101754519Y-125339832D01*
X101606855Y-125260903D01*
X101446629Y-125212300D01*
X101280000Y-125195888D01*
X99380000Y-125195888D01*
X99213371Y-125212300D01*
X99053145Y-125260903D01*
X98905481Y-125339832D01*
X98776052Y-125446052D01*
X98669832Y-125575481D01*
X98590903Y-125723145D01*
X98542300Y-125883371D01*
X98525888Y-126050000D01*
X91520000Y-126050000D01*
X91520000Y-125161319D01*
X91526532Y-125095000D01*
X91518009Y-125008468D01*
X91500467Y-124830354D01*
X91441239Y-124635105D01*
X91423272Y-124575877D01*
X91297915Y-124341350D01*
X91171490Y-124187302D01*
X91171487Y-124187299D01*
X91129212Y-124135787D01*
X91077701Y-124093513D01*
X88167003Y-121182815D01*
X88637500Y-121180000D01*
X88850000Y-120967500D01*
X88850000Y-119430000D01*
X88830000Y-119430000D01*
X88830000Y-119330000D01*
X88850000Y-119330000D01*
X88850000Y-117792500D01*
X88950000Y-117792500D01*
X88950000Y-119330000D01*
X88970000Y-119330000D01*
X88970000Y-119430000D01*
X88950000Y-119430000D01*
X88950000Y-120967500D01*
X89162500Y-121180000D01*
X89850000Y-121184113D01*
X90016629Y-121167701D01*
X90176855Y-121119098D01*
X90324520Y-121040169D01*
X90453949Y-120933949D01*
X90479372Y-120902971D01*
X90587380Y-120975139D01*
X90914959Y-121110827D01*
X91262716Y-121180000D01*
X91617284Y-121180000D01*
X91965041Y-121110827D01*
X92292620Y-120975139D01*
X92587433Y-120778151D01*
X92838151Y-120527433D01*
X93035139Y-120232620D01*
X93170827Y-119905041D01*
X93240000Y-119557284D01*
X93240000Y-119202716D01*
X93170827Y-118854959D01*
X93035139Y-118527380D01*
X92838151Y-118232567D01*
X92587433Y-117981849D01*
X92292620Y-117784861D01*
X91965041Y-117649173D01*
X91617284Y-117580000D01*
X91262716Y-117580000D01*
X90914959Y-117649173D01*
X90587380Y-117784861D01*
X90479372Y-117857029D01*
X90453949Y-117826051D01*
X90324520Y-117719831D01*
X90176855Y-117640902D01*
X90016629Y-117592299D01*
X89850000Y-117575887D01*
X89162500Y-117580000D01*
X88950000Y-117792500D01*
X88850000Y-117792500D01*
X88637500Y-117580000D01*
X87950000Y-117575887D01*
X87783371Y-117592299D01*
X87623145Y-117640902D01*
X87475480Y-117719831D01*
X87346051Y-117826051D01*
X87320628Y-117857029D01*
X87212620Y-117784861D01*
X86885041Y-117649173D01*
X86537284Y-117580000D01*
X86182716Y-117580000D01*
X85834959Y-117649173D01*
X85507380Y-117784861D01*
X85399371Y-117857030D01*
X85373948Y-117826052D01*
X85244519Y-117719832D01*
X85096855Y-117640903D01*
X84970000Y-117602423D01*
X84970000Y-113350000D01*
X88365888Y-113350000D01*
X88365888Y-115250000D01*
X88382300Y-115416629D01*
X88430903Y-115576855D01*
X88509832Y-115724519D01*
X88616052Y-115853948D01*
X88745481Y-115960168D01*
X88893145Y-116039097D01*
X89053371Y-116087700D01*
X89220000Y-116104112D01*
X91120000Y-116104112D01*
X91286629Y-116087700D01*
X91446855Y-116039097D01*
X91594519Y-115960168D01*
X91723948Y-115853948D01*
X91749371Y-115822970D01*
X91857380Y-115895139D01*
X92184959Y-116030827D01*
X92532716Y-116100000D01*
X92887284Y-116100000D01*
X93235041Y-116030827D01*
X93562620Y-115895139D01*
X93857433Y-115698151D01*
X94108151Y-115447433D01*
X94305139Y-115152620D01*
X94440827Y-114825041D01*
X94510000Y-114477284D01*
X94510000Y-114122716D01*
X94440827Y-113774959D01*
X94305139Y-113447380D01*
X94108151Y-113152567D01*
X93857433Y-112901849D01*
X93562620Y-112704861D01*
X93235041Y-112569173D01*
X92887284Y-112500000D01*
X92532716Y-112500000D01*
X92184959Y-112569173D01*
X91857380Y-112704861D01*
X91749371Y-112777030D01*
X91723948Y-112746052D01*
X91594519Y-112639832D01*
X91446855Y-112560903D01*
X91286629Y-112512300D01*
X91120000Y-112495888D01*
X89220000Y-112495888D01*
X89053371Y-112512300D01*
X88893145Y-112560903D01*
X88745481Y-112639832D01*
X88616052Y-112746052D01*
X88509832Y-112875481D01*
X88430903Y-113023145D01*
X88382300Y-113183371D01*
X88365888Y-113350000D01*
X84970000Y-113350000D01*
X84970000Y-109696344D01*
X88524736Y-106141609D01*
X88574861Y-106262620D01*
X88771849Y-106557433D01*
X89022567Y-106808151D01*
X89317380Y-107005139D01*
X89644959Y-107140827D01*
X89992716Y-107210000D01*
X90347284Y-107210000D01*
X90695041Y-107140827D01*
X91022620Y-107005139D01*
X91130629Y-106932970D01*
X91156052Y-106963948D01*
X91285481Y-107070168D01*
X91433145Y-107149097D01*
X91560001Y-107187578D01*
X91560001Y-107258509D01*
X91554437Y-107315000D01*
X91560001Y-107371491D01*
X91560001Y-107371492D01*
X91576641Y-107540439D01*
X91642399Y-107757215D01*
X91749185Y-107956997D01*
X91892894Y-108132107D01*
X91936776Y-108168120D01*
X96936880Y-113168225D01*
X96972893Y-113212107D01*
X97057517Y-113281556D01*
X97148002Y-113355816D01*
X97254788Y-113412894D01*
X97347785Y-113462602D01*
X97498802Y-113508412D01*
X97564560Y-113528360D01*
X97584164Y-113530291D01*
X97733508Y-113545000D01*
X97733516Y-113545000D01*
X97790000Y-113550563D01*
X97846484Y-113545000D01*
X99853656Y-113545000D01*
X102614543Y-116305888D01*
X101920000Y-116305888D01*
X101753371Y-116322300D01*
X101593145Y-116370903D01*
X101445481Y-116449832D01*
X101316052Y-116556052D01*
X101290629Y-116587030D01*
X101182620Y-116514861D01*
X100855041Y-116379173D01*
X100507284Y-116310000D01*
X100152716Y-116310000D01*
X99804959Y-116379173D01*
X99477380Y-116514861D01*
X99182567Y-116711849D01*
X98931849Y-116962567D01*
X98734861Y-117257380D01*
X98599173Y-117584959D01*
X98530000Y-117932716D01*
X98530000Y-118287284D01*
X98599173Y-118635041D01*
X98734861Y-118962620D01*
X98931849Y-119257433D01*
X99182567Y-119508151D01*
X99477380Y-119705139D01*
X99804959Y-119840827D01*
X100152716Y-119910000D01*
X100507284Y-119910000D01*
X100855041Y-119840827D01*
X101182620Y-119705139D01*
X101290629Y-119632970D01*
X101316052Y-119663948D01*
X101445481Y-119770168D01*
X101593145Y-119849097D01*
X101753371Y-119897700D01*
X101920000Y-119914112D01*
X103820000Y-119914112D01*
X103986629Y-119897700D01*
X104146855Y-119849097D01*
X104294519Y-119770168D01*
X104423948Y-119663948D01*
X104530168Y-119534519D01*
X104609097Y-119386855D01*
X104657700Y-119226629D01*
X104660055Y-119202716D01*
X117580000Y-119202716D01*
X117580000Y-119557284D01*
X117649173Y-119905041D01*
X117784861Y-120232620D01*
X117981849Y-120527433D01*
X118232567Y-120778151D01*
X118527380Y-120975139D01*
X118854959Y-121110827D01*
X119202716Y-121180000D01*
X119557284Y-121180000D01*
X119905041Y-121110827D01*
X120232620Y-120975139D01*
X120340628Y-120902971D01*
X120366051Y-120933949D01*
X120495480Y-121040169D01*
X120643145Y-121119098D01*
X120803371Y-121167701D01*
X120970000Y-121184113D01*
X121657500Y-121180000D01*
X121870000Y-120967500D01*
X121870000Y-119430000D01*
X121850000Y-119430000D01*
X121850000Y-119330000D01*
X121870000Y-119330000D01*
X121870000Y-117792500D01*
X121970000Y-117792500D01*
X121970000Y-119330000D01*
X121990000Y-119330000D01*
X121990000Y-119430000D01*
X121970000Y-119430000D01*
X121970000Y-120967500D01*
X122182500Y-121180000D01*
X122870000Y-121184113D01*
X123036629Y-121167701D01*
X123196855Y-121119098D01*
X123344520Y-121040169D01*
X123473949Y-120933949D01*
X123499372Y-120902971D01*
X123607380Y-120975139D01*
X123934959Y-121110827D01*
X124282716Y-121180000D01*
X124637284Y-121180000D01*
X124985041Y-121110827D01*
X125312620Y-120975139D01*
X125420628Y-120902971D01*
X125446051Y-120933949D01*
X125575480Y-121040169D01*
X125723145Y-121119098D01*
X125883371Y-121167701D01*
X126050000Y-121184113D01*
X126737500Y-121180000D01*
X126950000Y-120967500D01*
X126950000Y-119430000D01*
X126930000Y-119430000D01*
X126930000Y-119330000D01*
X126950000Y-119330000D01*
X126950000Y-117792500D01*
X126737500Y-117580000D01*
X126050000Y-117575887D01*
X125883371Y-117592299D01*
X125723145Y-117640902D01*
X125575480Y-117719831D01*
X125446051Y-117826051D01*
X125420628Y-117857029D01*
X125312620Y-117784861D01*
X124985041Y-117649173D01*
X124637284Y-117580000D01*
X124282716Y-117580000D01*
X123934959Y-117649173D01*
X123607380Y-117784861D01*
X123499372Y-117857029D01*
X123473949Y-117826051D01*
X123344520Y-117719831D01*
X123196855Y-117640902D01*
X123036629Y-117592299D01*
X122870000Y-117575887D01*
X122182500Y-117580000D01*
X121970000Y-117792500D01*
X121870000Y-117792500D01*
X121657500Y-117580000D01*
X120970000Y-117575887D01*
X120803371Y-117592299D01*
X120643145Y-117640902D01*
X120495480Y-117719831D01*
X120366051Y-117826051D01*
X120340628Y-117857029D01*
X120232620Y-117784861D01*
X119905041Y-117649173D01*
X119557284Y-117580000D01*
X119202716Y-117580000D01*
X118854959Y-117649173D01*
X118527380Y-117784861D01*
X118232567Y-117981849D01*
X117981849Y-118232567D01*
X117784861Y-118527380D01*
X117649173Y-118854959D01*
X117580000Y-119202716D01*
X104660055Y-119202716D01*
X104674112Y-119060000D01*
X104674112Y-118358762D01*
X104768002Y-118435816D01*
X104874788Y-118492894D01*
X104967785Y-118542602D01*
X105118802Y-118588412D01*
X105184560Y-118608360D01*
X105204164Y-118610291D01*
X105353508Y-118625000D01*
X105353516Y-118625000D01*
X105410000Y-118630563D01*
X105466484Y-118625000D01*
X111703518Y-118625000D01*
X111760000Y-118630563D01*
X111816482Y-118625000D01*
X111816492Y-118625000D01*
X111985439Y-118608360D01*
X112202215Y-118542602D01*
X112401997Y-118435816D01*
X112577107Y-118292107D01*
X112613125Y-118248219D01*
X115411345Y-115450000D01*
X120142423Y-115450000D01*
X120180903Y-115576855D01*
X120259832Y-115724519D01*
X120366052Y-115853948D01*
X120495481Y-115960168D01*
X120643145Y-116039097D01*
X120803371Y-116087700D01*
X120970000Y-116104112D01*
X122870000Y-116104112D01*
X123036629Y-116087700D01*
X123190000Y-116041176D01*
X123343371Y-116087700D01*
X123510000Y-116104112D01*
X125410000Y-116104112D01*
X125576629Y-116087700D01*
X125736855Y-116039097D01*
X125884519Y-115960168D01*
X126013948Y-115853948D01*
X126039371Y-115822970D01*
X126147380Y-115895139D01*
X126474959Y-116030827D01*
X126822716Y-116100000D01*
X127177284Y-116100000D01*
X127525041Y-116030827D01*
X127852620Y-115895139D01*
X128147433Y-115698151D01*
X128398151Y-115447433D01*
X128595139Y-115152620D01*
X128730827Y-114825041D01*
X128800000Y-114477284D01*
X128800000Y-114122716D01*
X128730827Y-113774959D01*
X128595139Y-113447380D01*
X128398151Y-113152567D01*
X128147433Y-112901849D01*
X127852620Y-112704861D01*
X127525041Y-112569173D01*
X127177284Y-112500000D01*
X126822716Y-112500000D01*
X126474959Y-112569173D01*
X126147380Y-112704861D01*
X126039371Y-112777030D01*
X126013948Y-112746052D01*
X125884519Y-112639832D01*
X125736855Y-112560903D01*
X125576629Y-112512300D01*
X125410000Y-112495888D01*
X123510000Y-112495888D01*
X123343371Y-112512300D01*
X123190000Y-112558824D01*
X123070000Y-112522423D01*
X123070000Y-110966344D01*
X125756345Y-108280000D01*
X125887586Y-108280000D01*
X126196703Y-108218513D01*
X126487884Y-108097902D01*
X126749941Y-107922801D01*
X126972801Y-107699941D01*
X127147902Y-107437884D01*
X127268513Y-107146703D01*
X127330000Y-106837586D01*
X127330000Y-106522414D01*
X127268513Y-106213297D01*
X127147902Y-105922116D01*
X126972801Y-105660059D01*
X126749941Y-105437199D01*
X126487884Y-105262098D01*
X126196703Y-105141487D01*
X125887586Y-105080000D01*
X125572414Y-105080000D01*
X125263297Y-105141487D01*
X124972116Y-105262098D01*
X124710059Y-105437199D01*
X124487199Y-105660059D01*
X124312098Y-105922116D01*
X124191487Y-106213297D01*
X124130000Y-106522414D01*
X124130000Y-106653655D01*
X121146776Y-109636880D01*
X121102894Y-109672893D01*
X121066882Y-109716774D01*
X120959185Y-109848003D01*
X120852399Y-110047785D01*
X120786641Y-110264561D01*
X120764437Y-110490000D01*
X120770001Y-110546491D01*
X120770000Y-112522423D01*
X120643145Y-112560903D01*
X120495481Y-112639832D01*
X120366052Y-112746052D01*
X120259832Y-112875481D01*
X120180903Y-113023145D01*
X120142423Y-113150000D01*
X114991481Y-113150000D01*
X114934999Y-113144437D01*
X114878517Y-113150000D01*
X114878508Y-113150000D01*
X114709561Y-113166640D01*
X114492785Y-113232398D01*
X114293003Y-113339184D01*
X114117893Y-113482893D01*
X114081880Y-113526775D01*
X112294112Y-115314544D01*
X112294112Y-114620000D01*
X112277700Y-114453371D01*
X112231176Y-114300000D01*
X112277700Y-114146629D01*
X112294112Y-113980000D01*
X112294112Y-112080000D01*
X112277700Y-111913371D01*
X112229097Y-111753145D01*
X112150168Y-111605481D01*
X112043948Y-111476052D01*
X112012970Y-111450629D01*
X112085139Y-111342620D01*
X112220827Y-111015041D01*
X112290000Y-110667284D01*
X112290000Y-110312716D01*
X112220827Y-109964959D01*
X112085139Y-109637380D01*
X111888151Y-109342567D01*
X111637433Y-109091849D01*
X111342620Y-108894861D01*
X111015041Y-108759173D01*
X110667284Y-108690000D01*
X110312716Y-108690000D01*
X109964959Y-108759173D01*
X109637380Y-108894861D01*
X109342567Y-109091849D01*
X109091849Y-109342567D01*
X108894861Y-109637380D01*
X108759173Y-109964959D01*
X108690000Y-110312716D01*
X108690000Y-110667284D01*
X108759173Y-111015041D01*
X108894861Y-111342620D01*
X108967030Y-111450629D01*
X108936052Y-111476052D01*
X108829832Y-111605481D01*
X108750903Y-111753145D01*
X108712423Y-111880000D01*
X105251345Y-111880000D01*
X103723124Y-110351780D01*
X103687107Y-110307893D01*
X103511997Y-110164184D01*
X103312215Y-110057398D01*
X103095439Y-109991640D01*
X102926492Y-109975000D01*
X102926482Y-109975000D01*
X102870000Y-109969437D01*
X102813518Y-109975000D01*
X98901345Y-109975000D01*
X97336376Y-108410032D01*
X97425082Y-108373289D01*
X97738035Y-108164180D01*
X98004180Y-107898035D01*
X98213289Y-107585082D01*
X98357325Y-107237347D01*
X98427956Y-106882263D01*
X98428379Y-106883656D01*
X98646593Y-107291906D01*
X98940259Y-107649741D01*
X99298093Y-107943407D01*
X99706343Y-108161621D01*
X100149320Y-108295997D01*
X100610000Y-108341370D01*
X101070679Y-108295997D01*
X101513656Y-108161621D01*
X101868366Y-107972025D01*
X101969747Y-108333111D01*
X102178266Y-108744016D01*
X102462942Y-109106345D01*
X102812835Y-109406175D01*
X103214499Y-109631983D01*
X103652498Y-109775091D01*
X104110000Y-109830000D01*
X105360000Y-109830000D01*
X105360000Y-107530000D01*
X105460000Y-107530000D01*
X105460000Y-109830000D01*
X106710000Y-109830000D01*
X107167502Y-109775091D01*
X107605501Y-109631983D01*
X108007165Y-109406175D01*
X108357058Y-109106345D01*
X108641734Y-108744016D01*
X108850253Y-108333111D01*
X108972720Y-107896922D01*
X108796915Y-107530000D01*
X105460000Y-107530000D01*
X105360000Y-107530000D01*
X105340000Y-107530000D01*
X105340000Y-107430000D01*
X105360000Y-107430000D01*
X105360000Y-105130000D01*
X105460000Y-105130000D01*
X105460000Y-107430000D01*
X108796915Y-107430000D01*
X108972720Y-107063078D01*
X108850253Y-106626889D01*
X108641734Y-106215984D01*
X108357058Y-105853655D01*
X108007165Y-105553825D01*
X107605501Y-105328017D01*
X107167502Y-105184909D01*
X106710000Y-105130000D01*
X105460000Y-105130000D01*
X105360000Y-105130000D01*
X104110000Y-105130000D01*
X103652498Y-105184909D01*
X103214499Y-105328017D01*
X102960000Y-105471092D01*
X102960000Y-103864558D01*
X102925997Y-103519320D01*
X102838291Y-103230194D01*
X103098093Y-103443407D01*
X103506343Y-103661621D01*
X103949320Y-103795997D01*
X104294558Y-103830000D01*
X106525442Y-103830000D01*
X106870680Y-103795997D01*
X107313657Y-103661621D01*
X107721907Y-103443407D01*
X108079741Y-103149741D01*
X108373407Y-102791907D01*
X108591621Y-102383657D01*
X108725997Y-101940680D01*
X108771370Y-101480000D01*
X108725997Y-101019320D01*
X108591621Y-100576343D01*
X108502916Y-100410387D01*
X111750324Y-100410387D01*
X112066718Y-100948915D01*
X112725903Y-101323908D01*
X113445580Y-101563096D01*
X114198092Y-101657286D01*
X114954521Y-101602858D01*
X115685796Y-101401905D01*
X116363816Y-101062148D01*
X116533282Y-100948915D01*
X116849676Y-100410387D01*
X114300000Y-97860711D01*
X111750324Y-100410387D01*
X108502916Y-100410387D01*
X108373407Y-100168093D01*
X108079741Y-99810259D01*
X107721907Y-99516593D01*
X107313657Y-99298379D01*
X106870680Y-99164003D01*
X106525442Y-99130000D01*
X104294558Y-99130000D01*
X103949320Y-99164003D01*
X103506343Y-99298379D01*
X103098093Y-99516593D01*
X102740259Y-99810259D01*
X102446593Y-100168093D01*
X102228379Y-100576343D01*
X102094003Y-101019320D01*
X102048630Y-101480000D01*
X102094003Y-101940680D01*
X102181709Y-102229806D01*
X101921907Y-102016593D01*
X101513657Y-101798379D01*
X101070680Y-101664003D01*
X100610000Y-101618630D01*
X100149321Y-101664003D01*
X99706344Y-101798379D01*
X99298094Y-102016593D01*
X98940260Y-102310259D01*
X98646594Y-102668093D01*
X98581433Y-102790000D01*
X98220000Y-102790000D01*
X98180168Y-102715481D01*
X98073948Y-102586052D01*
X97944519Y-102479832D01*
X97796855Y-102400903D01*
X97636629Y-102352300D01*
X97470000Y-102335888D01*
X95570000Y-102335888D01*
X95403371Y-102352300D01*
X95243145Y-102400903D01*
X95095481Y-102479832D01*
X94966052Y-102586052D01*
X94859832Y-102715481D01*
X94844851Y-102743507D01*
X94833125Y-102731781D01*
X94797107Y-102687893D01*
X94621997Y-102544184D01*
X94422215Y-102437398D01*
X94205439Y-102371640D01*
X94036492Y-102355000D01*
X94036482Y-102355000D01*
X93980000Y-102349437D01*
X93923518Y-102355000D01*
X89591492Y-102355000D01*
X89535000Y-102349436D01*
X89309561Y-102371640D01*
X89092784Y-102437398D01*
X88893003Y-102544184D01*
X88761773Y-102651881D01*
X88761769Y-102651885D01*
X88717893Y-102687893D01*
X88681884Y-102731770D01*
X83046780Y-108366875D01*
X83002893Y-108402893D01*
X82859184Y-108578004D01*
X82752398Y-108777786D01*
X82686640Y-108994562D01*
X82670000Y-109163509D01*
X82670000Y-109163518D01*
X82664437Y-109220000D01*
X82670000Y-109276482D01*
X82670001Y-117602423D01*
X82543145Y-117640903D01*
X82395481Y-117719832D01*
X82266052Y-117826052D01*
X82242334Y-117854952D01*
X81991537Y-117717127D01*
X81653455Y-117610265D01*
X81301021Y-117571413D01*
X80947779Y-117602064D01*
X80607305Y-117701039D01*
X80292682Y-117864537D01*
X80257724Y-117887893D01*
X80187219Y-118216508D01*
X77250000Y-118216508D01*
X77250000Y-105844923D01*
X82684536Y-100410387D01*
X93970324Y-100410387D01*
X94286718Y-100948915D01*
X94945903Y-101323908D01*
X95665580Y-101563096D01*
X96418092Y-101657286D01*
X97174521Y-101602858D01*
X97905796Y-101401905D01*
X98583816Y-101062148D01*
X98753282Y-100948915D01*
X99069676Y-100410387D01*
X96520000Y-97860711D01*
X93970324Y-100410387D01*
X82684536Y-100410387D01*
X85406831Y-97688092D01*
X92652714Y-97688092D01*
X92707142Y-98444521D01*
X92908095Y-99175796D01*
X93247852Y-99853816D01*
X93361085Y-100023282D01*
X93899613Y-100339676D01*
X96449289Y-97790000D01*
X96590711Y-97790000D01*
X99140387Y-100339676D01*
X99678915Y-100023282D01*
X100053908Y-99364097D01*
X100293096Y-98644420D01*
X100387286Y-97891908D01*
X100372621Y-97688092D01*
X110432714Y-97688092D01*
X110487142Y-98444521D01*
X110688095Y-99175796D01*
X111027852Y-99853816D01*
X111141085Y-100023282D01*
X111679613Y-100339676D01*
X114229289Y-97790000D01*
X114370711Y-97790000D01*
X116920387Y-100339676D01*
X117458915Y-100023282D01*
X117833908Y-99364097D01*
X118073096Y-98644420D01*
X118167286Y-97891908D01*
X118112858Y-97135479D01*
X117911905Y-96404204D01*
X117572148Y-95726184D01*
X117458915Y-95556718D01*
X116920387Y-95240324D01*
X114370711Y-97790000D01*
X114229289Y-97790000D01*
X111679613Y-95240324D01*
X111141085Y-95556718D01*
X110766092Y-96215903D01*
X110526904Y-96935580D01*
X110432714Y-97688092D01*
X100372621Y-97688092D01*
X100332858Y-97135479D01*
X100131905Y-96404204D01*
X99792148Y-95726184D01*
X99678915Y-95556718D01*
X99140387Y-95240324D01*
X96590711Y-97790000D01*
X96449289Y-97790000D01*
X93899613Y-95240324D01*
X93361085Y-95556718D01*
X92986092Y-96215903D01*
X92746904Y-96935580D01*
X92652714Y-97688092D01*
X85406831Y-97688092D01*
X88064924Y-95030000D01*
X94052349Y-95030000D01*
X93970324Y-95169613D01*
G37*
G04 #@! TD.AperFunction*
M02*
