M48
; DRILL file {KiCad 5.1.12} date Wed 10 Jun 2026 09:06:04 PM +06
; FORMAT={-:-/ absolute / metric / decimal}
; #@! TF.CreationDate,2026-06-10T21:06:04+06:00
; #@! TF.GenerationSoftware,Kicad,Pcbnew,5.1.12
FMAT,2
METRIC
T1C0.500
T2C0.600
T3C0.700
T4C0.800
T5C0.900
T6C1.000
T7C1.300
T8C1.500
T9C3.000
%
G90
G05
T1
X97.79Y-127.0
X99.695Y-166.37
X101.282Y-167.957
X101.6Y-103.505
X107.315Y-166.37
X110.49Y-101.6
X110.49Y-110.49
X111.76Y-133.35
X126.365Y-174.625
T2
X91.44Y-109.22
X91.44Y-118.11
X93.98Y-109.22
X93.98Y-118.11
X102.87Y-140.97
X107.95Y-140.97
X112.395Y-92.71
X112.395Y-95.25
X115.57Y-176.53
X119.38Y-107.95
X119.38Y-113.03
X123.19Y-107.95
X123.19Y-113.03
X124.46Y-176.53
T3
X86.36Y-173.99
X86.36Y-176.53
T5
X81.28Y-125.73
X81.28Y-140.97
X83.82Y-101.6
X88.9Y-101.6
X90.17Y-125.73
X90.17Y-140.97
X102.87Y-115.57
X107.95Y-115.57
X120.015Y-85.725
X121.92Y-101.6
X127.0Y-101.6
X128.27Y-125.73
X128.27Y-140.97
X128.905Y-85.725
T6
X80.01Y-91.44
X80.01Y-93.98
X80.01Y-96.52
X80.01Y-170.18
X80.01Y-172.72
X81.28Y-101.6
X81.28Y-132.08
X81.28Y-134.62
X86.36Y-101.6
X87.63Y-180.34
X90.17Y-132.08
X90.17Y-134.62
X90.17Y-180.34
X91.44Y-101.6
X92.71Y-180.34
X95.25Y-180.34
X100.33Y-115.57
X105.41Y-115.57
X105.41Y-183.515
X110.49Y-115.57
X115.57Y-180.34
X118.11Y-180.34
X119.38Y-101.6
X120.65Y-180.34
X123.19Y-180.34
X124.46Y-101.6
X128.27Y-132.08
X128.27Y-134.62
X129.54Y-101.6
X129.54Y-107.95
X129.54Y-110.49
X130.81Y-170.18
X130.81Y-172.72
T7
X100.41Y-171.26
X100.41Y-175.26
X100.41Y-179.26
X105.41Y-171.26
X105.41Y-175.26
X105.41Y-179.26
X110.41Y-171.26
X110.41Y-175.26
X110.41Y-179.26
T8
X82.94Y-149.38
X82.94Y-165.58
X89.24Y-149.38
X89.24Y-165.58
X95.54Y-149.38
X95.54Y-165.58
X115.28Y-149.38
X115.28Y-165.58
X121.58Y-149.38
X121.58Y-165.58
X127.88Y-149.38
X127.88Y-165.58
T9
X96.52Y-80.01
X114.3Y-80.01
T4
G00X100.61Y-88.3
M15
G01X100.61Y-86.1
M16
G05
G00X106.51Y-83.7
M15
G01X104.31Y-83.7
M16
G05
G00X106.76Y-89.7
M15
G01X104.06Y-89.7
M16
G05
T0
M30
