M48
; DRILL file {KiCad 5.1.6-c6e7f7d~87~ubuntu19.10.1} date Fri Feb 10 05:04:19 2023
; FORMAT={-:-/ absolute / metric / decimal}
; #@! TF.CreationDate,2023-02-10T05:04:19+06:00
; #@! TF.GenerationSoftware,Kicad,Pcbnew,5.1.6-c6e7f7d~87~ubuntu19.10.1
FMAT,2
METRIC
T1C0.900
T2C1.200
%
G90
G05
T1
X82.55Y-144.78
X85.09Y-144.78
X87.63Y-144.78
X90.17Y-144.78
X92.71Y-144.78
X95.25Y-144.78
X115.57Y-144.78
X118.11Y-144.78
X120.65Y-144.78
X123.19Y-144.78
X125.73Y-144.78
X128.27Y-144.78
T2
X67.39Y-142.875
X72.39Y-142.875
X77.39Y-142.875
X133.43Y-142.875
X133.43Y-147.875
X138.43Y-142.875
X138.43Y-147.875
X143.43Y-142.875
X143.43Y-147.875
X100.41Y-142.875
X105.41Y-142.875
X110.41Y-142.875
T0
M30
