G04 #@! TF.GenerationSoftware,KiCad,Pcbnew,5.1.6-c6e7f7d~87~ubuntu19.10.1*
G04 #@! TF.CreationDate,2021-10-28T22:11:17+06:00*
G04 #@! TF.ProjectId,kzeq_r1a,6b7a6571-5f72-4316-912e-6b696361645f,1A*
G04 #@! TF.SameCoordinates,Original*
G04 #@! TF.FileFunction,Soldermask,Bot*
G04 #@! TF.FilePolarity,Negative*
%FSLAX46Y46*%
G04 Gerber Fmt 4.6, Leading zero omitted, Abs format (unit mm)*
G04 Created by KiCad (PCBNEW 5.1.6-c6e7f7d~87~ubuntu19.10.1) date 2021-10-28 22:11:17*
%MOMM*%
%LPD*%
G01*
G04 APERTURE LIST*
%ADD10C,0.100000*%
G04 APERTURE END LIST*
D10*
G36*
X106560000Y-187205000D02*
G01*
X104260000Y-187205000D01*
X104260000Y-184905000D01*
X106560000Y-184905000D01*
X106560000Y-187205000D01*
G37*
G36*
X128150000Y-185300000D02*
G01*
X125850000Y-185300000D01*
X125850000Y-183000000D01*
X128150000Y-183000000D01*
X128150000Y-185300000D01*
G37*
G36*
X117990000Y-185300000D02*
G01*
X115690000Y-185300000D01*
X115690000Y-183000000D01*
X117990000Y-183000000D01*
X117990000Y-185300000D01*
G37*
G36*
X101860000Y-183250000D02*
G01*
X98960000Y-183250000D01*
X98960000Y-180350000D01*
X101860000Y-180350000D01*
X101860000Y-183250000D01*
G37*
G36*
X106860000Y-183250000D02*
G01*
X103960000Y-183250000D01*
X103960000Y-180350000D01*
X106860000Y-180350000D01*
X106860000Y-183250000D01*
G37*
G36*
X111860000Y-183250000D02*
G01*
X108960000Y-183250000D01*
X108960000Y-180350000D01*
X111860000Y-180350000D01*
X111860000Y-183250000D01*
G37*
G36*
X96400000Y-182760000D02*
G01*
X94100000Y-182760000D01*
X94100000Y-180460000D01*
X96400000Y-180460000D01*
X96400000Y-182760000D01*
G37*
G36*
X84970000Y-180220000D02*
G01*
X82670000Y-180220000D01*
X82670000Y-177920000D01*
X84970000Y-177920000D01*
X84970000Y-180220000D01*
G37*
G36*
X74810000Y-180220000D02*
G01*
X72510000Y-180220000D01*
X72510000Y-177920000D01*
X74810000Y-177920000D01*
X74810000Y-180220000D01*
G37*
G36*
X123070000Y-180220000D02*
G01*
X120770000Y-180220000D01*
X120770000Y-177920000D01*
X123070000Y-177920000D01*
X123070000Y-180220000D01*
G37*
G36*
X117990000Y-180220000D02*
G01*
X115690000Y-180220000D01*
X115690000Y-177920000D01*
X117990000Y-177920000D01*
X117990000Y-180220000D01*
G37*
G36*
X106860000Y-179250000D02*
G01*
X103960000Y-179250000D01*
X103960000Y-176350000D01*
X106860000Y-176350000D01*
X106860000Y-179250000D01*
G37*
G36*
X111860000Y-179250000D02*
G01*
X108960000Y-179250000D01*
X108960000Y-176350000D01*
X111860000Y-176350000D01*
X111860000Y-179250000D01*
G37*
G36*
X101860000Y-179250000D02*
G01*
X98960000Y-179250000D01*
X98960000Y-176350000D01*
X101860000Y-176350000D01*
X101860000Y-179250000D01*
G37*
G36*
X77350000Y-177680000D02*
G01*
X75050000Y-177680000D01*
X75050000Y-175380000D01*
X77350000Y-175380000D01*
X77350000Y-177680000D01*
G37*
G36*
X84970000Y-177680000D02*
G01*
X82670000Y-177680000D01*
X82670000Y-175380000D01*
X84970000Y-175380000D01*
X84970000Y-177680000D01*
G37*
G36*
X134844354Y-175402097D02*
G01*
X134955443Y-175424194D01*
X135078039Y-175474976D01*
X135164728Y-175510883D01*
X135353081Y-175636736D01*
X135513264Y-175796919D01*
X135639117Y-175985272D01*
X135675024Y-176071961D01*
X135725806Y-176194557D01*
X135770000Y-176416735D01*
X135770000Y-176643265D01*
X135725806Y-176865443D01*
X135675024Y-176988039D01*
X135639117Y-177074728D01*
X135513264Y-177263081D01*
X135353081Y-177423264D01*
X135164728Y-177549117D01*
X135078039Y-177585024D01*
X134955443Y-177635806D01*
X134844354Y-177657903D01*
X134733267Y-177680000D01*
X134506733Y-177680000D01*
X134395646Y-177657903D01*
X134284557Y-177635806D01*
X134161961Y-177585024D01*
X134075272Y-177549117D01*
X133886919Y-177423264D01*
X133726736Y-177263081D01*
X133600883Y-177074728D01*
X133564976Y-176988039D01*
X133514194Y-176865443D01*
X133470000Y-176643265D01*
X133470000Y-176416735D01*
X133514194Y-176194557D01*
X133564976Y-176071961D01*
X133600883Y-175985272D01*
X133726736Y-175796919D01*
X133886919Y-175636736D01*
X134075272Y-175510883D01*
X134161961Y-175474976D01*
X134284557Y-175424194D01*
X134395646Y-175402097D01*
X134506733Y-175380000D01*
X134733267Y-175380000D01*
X134844354Y-175402097D01*
G37*
G36*
X128150000Y-177680000D02*
G01*
X125850000Y-177680000D01*
X125850000Y-175380000D01*
X128150000Y-175380000D01*
X128150000Y-177680000D01*
G37*
G36*
X140850000Y-177680000D02*
G01*
X138550000Y-177680000D01*
X138550000Y-175380000D01*
X140850000Y-175380000D01*
X140850000Y-177680000D01*
G37*
G36*
X143390000Y-177680000D02*
G01*
X141090000Y-177680000D01*
X141090000Y-175380000D01*
X143390000Y-175380000D01*
X143390000Y-177680000D01*
G37*
G36*
X145930000Y-177680000D02*
G01*
X143630000Y-177680000D01*
X143630000Y-175380000D01*
X145930000Y-175380000D01*
X145930000Y-177680000D01*
G37*
G36*
X138310000Y-177680000D02*
G01*
X136010000Y-177680000D01*
X136010000Y-175380000D01*
X138310000Y-175380000D01*
X138310000Y-177680000D01*
G37*
G36*
X101860000Y-175250000D02*
G01*
X98960000Y-175250000D01*
X98960000Y-172350000D01*
X101860000Y-172350000D01*
X101860000Y-175250000D01*
G37*
G36*
X106860000Y-175250000D02*
G01*
X103960000Y-175250000D01*
X103960000Y-172350000D01*
X106860000Y-172350000D01*
X106860000Y-175250000D01*
G37*
G36*
X111860000Y-175250000D02*
G01*
X108960000Y-175250000D01*
X108960000Y-172350000D01*
X111860000Y-172350000D01*
X111860000Y-175250000D01*
G37*
G36*
X84970000Y-175140000D02*
G01*
X82670000Y-175140000D01*
X82670000Y-172840000D01*
X84970000Y-172840000D01*
X84970000Y-175140000D01*
G37*
G36*
X128150000Y-175140000D02*
G01*
X125850000Y-175140000D01*
X125850000Y-172840000D01*
X128150000Y-172840000D01*
X128150000Y-175140000D01*
G37*
G36*
X135770000Y-175140000D02*
G01*
X133470000Y-175140000D01*
X133470000Y-172840000D01*
X135770000Y-172840000D01*
X135770000Y-175140000D01*
G37*
G36*
X77350000Y-175140000D02*
G01*
X75050000Y-175140000D01*
X75050000Y-172840000D01*
X77350000Y-172840000D01*
X77350000Y-175140000D01*
G37*
G36*
X125610000Y-175140000D02*
G01*
X123310000Y-175140000D01*
X123310000Y-172840000D01*
X125610000Y-172840000D01*
X125610000Y-175140000D01*
G37*
G36*
X96400000Y-172600000D02*
G01*
X94100000Y-172600000D01*
X94100000Y-170300000D01*
X96400000Y-170300000D01*
X96400000Y-172600000D01*
G37*
G36*
X88780000Y-172600000D02*
G01*
X86480000Y-172600000D01*
X86480000Y-170300000D01*
X88780000Y-170300000D01*
X88780000Y-172600000D01*
G37*
G36*
X92590000Y-172600000D02*
G01*
X90290000Y-172600000D01*
X90290000Y-170300000D01*
X92590000Y-170300000D01*
X92590000Y-172600000D01*
G37*
G36*
X84970000Y-172600000D02*
G01*
X82670000Y-172600000D01*
X82670000Y-170300000D01*
X84970000Y-170300000D01*
X84970000Y-172600000D01*
G37*
G36*
X128150000Y-172600000D02*
G01*
X125850000Y-172600000D01*
X125850000Y-170300000D01*
X128150000Y-170300000D01*
X128150000Y-172600000D01*
G37*
G36*
X135770000Y-172600000D02*
G01*
X133470000Y-172600000D01*
X133470000Y-170300000D01*
X135770000Y-170300000D01*
X135770000Y-172600000D01*
G37*
G36*
X77350000Y-172600000D02*
G01*
X75050000Y-172600000D01*
X75050000Y-170300000D01*
X77350000Y-170300000D01*
X77350000Y-172600000D01*
G37*
G36*
X101480000Y-170060000D02*
G01*
X99180000Y-170060000D01*
X99180000Y-167760000D01*
X101480000Y-167760000D01*
X101480000Y-170060000D01*
G37*
G36*
X111640000Y-170060000D02*
G01*
X109340000Y-170060000D01*
X109340000Y-167760000D01*
X111640000Y-167760000D01*
X111640000Y-170060000D01*
G37*
G36*
X84970000Y-170060000D02*
G01*
X82670000Y-170060000D01*
X82670000Y-167760000D01*
X84970000Y-167760000D01*
X84970000Y-170060000D01*
G37*
G36*
X135770000Y-170060000D02*
G01*
X133470000Y-170060000D01*
X133470000Y-167760000D01*
X135770000Y-167760000D01*
X135770000Y-170060000D01*
G37*
G36*
X76424354Y-167782097D02*
G01*
X76535443Y-167804194D01*
X76658039Y-167854976D01*
X76744728Y-167890883D01*
X76933081Y-168016736D01*
X77093264Y-168176919D01*
X77219117Y-168365272D01*
X77255024Y-168451961D01*
X77305806Y-168574557D01*
X77350000Y-168796735D01*
X77350000Y-169023265D01*
X77305806Y-169245443D01*
X77255024Y-169368039D01*
X77219117Y-169454728D01*
X77093264Y-169643081D01*
X76933081Y-169803264D01*
X76744728Y-169929117D01*
X76658039Y-169965024D01*
X76535443Y-170015806D01*
X76424354Y-170037903D01*
X76313267Y-170060000D01*
X76086733Y-170060000D01*
X75975646Y-170037903D01*
X75864557Y-170015806D01*
X75741961Y-169965024D01*
X75655272Y-169929117D01*
X75466919Y-169803264D01*
X75306736Y-169643081D01*
X75180883Y-169454728D01*
X75144976Y-169368039D01*
X75094194Y-169245443D01*
X75050000Y-169023265D01*
X75050000Y-168796735D01*
X75094194Y-168574557D01*
X75144976Y-168451961D01*
X75180883Y-168365272D01*
X75306736Y-168176919D01*
X75466919Y-168016736D01*
X75655272Y-167890883D01*
X75741961Y-167854976D01*
X75864557Y-167804194D01*
X75975646Y-167782097D01*
X76086733Y-167760000D01*
X76313267Y-167760000D01*
X76424354Y-167782097D01*
G37*
G36*
X128150000Y-170060000D02*
G01*
X125850000Y-170060000D01*
X125850000Y-167760000D01*
X128150000Y-167760000D01*
X128150000Y-170060000D01*
G37*
G36*
X92590000Y-167520000D02*
G01*
X90290000Y-167520000D01*
X90290000Y-165220000D01*
X92590000Y-165220000D01*
X92590000Y-167520000D01*
G37*
G36*
X140850000Y-167520000D02*
G01*
X138550000Y-167520000D01*
X138550000Y-165220000D01*
X140850000Y-165220000D01*
X140850000Y-167520000D01*
G37*
G36*
X138310000Y-167520000D02*
G01*
X136010000Y-167520000D01*
X136010000Y-165220000D01*
X138310000Y-165220000D01*
X138310000Y-167520000D01*
G37*
G36*
X143390000Y-167520000D02*
G01*
X141090000Y-167520000D01*
X141090000Y-165220000D01*
X143390000Y-165220000D01*
X143390000Y-167520000D01*
G37*
G36*
X88780000Y-167520000D02*
G01*
X86480000Y-167520000D01*
X86480000Y-165220000D01*
X88780000Y-165220000D01*
X88780000Y-167520000D01*
G37*
G36*
X145930000Y-167520000D02*
G01*
X143630000Y-167520000D01*
X143630000Y-165220000D01*
X145930000Y-165220000D01*
X145930000Y-167520000D01*
G37*
G36*
X74810000Y-164980000D02*
G01*
X72510000Y-164980000D01*
X72510000Y-162680000D01*
X74810000Y-162680000D01*
X74810000Y-164980000D01*
G37*
G36*
X145930000Y-164980000D02*
G01*
X143630000Y-164980000D01*
X143630000Y-162680000D01*
X145930000Y-162680000D01*
X145930000Y-164980000D01*
G37*
G36*
X135770000Y-164980000D02*
G01*
X133470000Y-164980000D01*
X133470000Y-162680000D01*
X135770000Y-162680000D01*
X135770000Y-164980000D01*
G37*
G36*
X105634354Y-162702097D02*
G01*
X105745443Y-162724194D01*
X105868039Y-162774976D01*
X105954728Y-162810883D01*
X106143081Y-162936736D01*
X106303264Y-163096919D01*
X106429117Y-163285272D01*
X106465024Y-163371961D01*
X106515806Y-163494557D01*
X106560000Y-163716735D01*
X106560000Y-163943265D01*
X106515806Y-164165443D01*
X106465024Y-164288039D01*
X106429117Y-164374728D01*
X106303264Y-164563081D01*
X106143081Y-164723264D01*
X105954728Y-164849117D01*
X105868039Y-164885024D01*
X105745443Y-164935806D01*
X105634354Y-164957903D01*
X105523267Y-164980000D01*
X105296733Y-164980000D01*
X105185646Y-164957903D01*
X105074557Y-164935806D01*
X104951961Y-164885024D01*
X104865272Y-164849117D01*
X104676919Y-164723264D01*
X104516736Y-164563081D01*
X104390883Y-164374728D01*
X104354976Y-164288039D01*
X104304194Y-164165443D01*
X104260000Y-163943265D01*
X104260000Y-163716735D01*
X104304194Y-163494557D01*
X104354976Y-163371961D01*
X104390883Y-163285272D01*
X104516736Y-163096919D01*
X104676919Y-162936736D01*
X104865272Y-162810883D01*
X104951961Y-162774976D01*
X105074557Y-162724194D01*
X105185646Y-162702097D01*
X105296733Y-162680000D01*
X105523267Y-162680000D01*
X105634354Y-162702097D01*
G37*
G36*
X123070000Y-164980000D02*
G01*
X120770000Y-164980000D01*
X120770000Y-162680000D01*
X123070000Y-162680000D01*
X123070000Y-164980000D01*
G37*
G36*
X117990000Y-164980000D02*
G01*
X115690000Y-164980000D01*
X115690000Y-162680000D01*
X117990000Y-162680000D01*
X117990000Y-164980000D01*
G37*
G36*
X125610000Y-164980000D02*
G01*
X123310000Y-164980000D01*
X123310000Y-162680000D01*
X125610000Y-162680000D01*
X125610000Y-164980000D01*
G37*
G36*
X119604354Y-162702097D02*
G01*
X119715443Y-162724194D01*
X119838039Y-162774976D01*
X119924728Y-162810883D01*
X120113081Y-162936736D01*
X120273264Y-163096919D01*
X120399117Y-163285272D01*
X120435024Y-163371961D01*
X120485806Y-163494557D01*
X120530000Y-163716735D01*
X120530000Y-163943265D01*
X120485806Y-164165443D01*
X120435024Y-164288039D01*
X120399117Y-164374728D01*
X120273264Y-164563081D01*
X120113081Y-164723264D01*
X119924728Y-164849117D01*
X119838039Y-164885024D01*
X119715443Y-164935806D01*
X119604354Y-164957903D01*
X119493267Y-164980000D01*
X119266733Y-164980000D01*
X119155646Y-164957903D01*
X119044557Y-164935806D01*
X118921961Y-164885024D01*
X118835272Y-164849117D01*
X118646919Y-164723264D01*
X118486736Y-164563081D01*
X118360883Y-164374728D01*
X118324976Y-164288039D01*
X118274194Y-164165443D01*
X118230000Y-163943265D01*
X118230000Y-163716735D01*
X118274194Y-163494557D01*
X118324976Y-163371961D01*
X118360883Y-163285272D01*
X118486736Y-163096919D01*
X118646919Y-162936736D01*
X118835272Y-162810883D01*
X118921961Y-162774976D01*
X119044557Y-162724194D01*
X119155646Y-162702097D01*
X119266733Y-162680000D01*
X119493267Y-162680000D01*
X119604354Y-162702097D01*
G37*
G36*
X84970000Y-164980000D02*
G01*
X82670000Y-164980000D01*
X82670000Y-162680000D01*
X84970000Y-162680000D01*
X84970000Y-164980000D01*
G37*
G36*
X128150000Y-164980000D02*
G01*
X125850000Y-164980000D01*
X125850000Y-162680000D01*
X128150000Y-162680000D01*
X128150000Y-164980000D01*
G37*
G36*
X133230000Y-164980000D02*
G01*
X130930000Y-164980000D01*
X130930000Y-162680000D01*
X133230000Y-162680000D01*
X133230000Y-164980000D01*
G37*
G36*
X106020663Y-160153111D02*
G01*
X106146307Y-160191225D01*
X106262096Y-160253115D01*
X106363590Y-160336410D01*
X106446885Y-160437904D01*
X106508775Y-160553693D01*
X106546889Y-160679337D01*
X106560000Y-160812454D01*
X106560000Y-161767546D01*
X106546889Y-161900663D01*
X106508775Y-162026307D01*
X106446885Y-162142096D01*
X106363590Y-162243590D01*
X106262096Y-162326885D01*
X106146307Y-162388775D01*
X106020663Y-162426889D01*
X105887546Y-162440000D01*
X104932454Y-162440000D01*
X104799337Y-162426889D01*
X104673693Y-162388775D01*
X104557904Y-162326885D01*
X104456410Y-162243590D01*
X104373115Y-162142096D01*
X104311225Y-162026307D01*
X104273111Y-161900663D01*
X104260000Y-161767546D01*
X104260000Y-160812454D01*
X104273111Y-160679337D01*
X104311225Y-160553693D01*
X104373115Y-160437904D01*
X104456410Y-160336410D01*
X104557904Y-160253115D01*
X104673693Y-160191225D01*
X104799337Y-160153111D01*
X104932454Y-160140000D01*
X105887546Y-160140000D01*
X106020663Y-160153111D01*
G37*
G36*
X140850000Y-161170000D02*
G01*
X138550000Y-161170000D01*
X138550000Y-158870000D01*
X140850000Y-158870000D01*
X140850000Y-161170000D01*
G37*
G36*
X145930000Y-161170000D02*
G01*
X143630000Y-161170000D01*
X143630000Y-158870000D01*
X145930000Y-158870000D01*
X145930000Y-161170000D01*
G37*
G36*
X115450000Y-156090000D02*
G01*
X113150000Y-156090000D01*
X113150000Y-153790000D01*
X115450000Y-153790000D01*
X115450000Y-156090000D01*
G37*
G36*
X125610000Y-156090000D02*
G01*
X123310000Y-156090000D01*
X123310000Y-153790000D01*
X125610000Y-153790000D01*
X125610000Y-156090000D01*
G37*
G36*
X123070000Y-156090000D02*
G01*
X120770000Y-156090000D01*
X120770000Y-153790000D01*
X123070000Y-153790000D01*
X123070000Y-156090000D01*
G37*
G36*
X120530000Y-156090000D02*
G01*
X118230000Y-156090000D01*
X118230000Y-153790000D01*
X120530000Y-153790000D01*
X120530000Y-156090000D01*
G37*
G36*
X117990000Y-156090000D02*
G01*
X115690000Y-156090000D01*
X115690000Y-153790000D01*
X117990000Y-153790000D01*
X117990000Y-156090000D01*
G37*
G36*
X97670000Y-156090000D02*
G01*
X95370000Y-156090000D01*
X95370000Y-153790000D01*
X97670000Y-153790000D01*
X97670000Y-156090000D01*
G37*
G36*
X95130000Y-156090000D02*
G01*
X92830000Y-156090000D01*
X92830000Y-153790000D01*
X95130000Y-153790000D01*
X95130000Y-156090000D01*
G37*
G36*
X92590000Y-156090000D02*
G01*
X90290000Y-156090000D01*
X90290000Y-153790000D01*
X92590000Y-153790000D01*
X92590000Y-156090000D01*
G37*
G36*
X90050000Y-156090000D02*
G01*
X87750000Y-156090000D01*
X87750000Y-153790000D01*
X90050000Y-153790000D01*
X90050000Y-156090000D01*
G37*
G36*
X87510000Y-156090000D02*
G01*
X85210000Y-156090000D01*
X85210000Y-153790000D01*
X87510000Y-153790000D01*
X87510000Y-156090000D01*
G37*
G36*
X78620000Y-154820000D02*
G01*
X76320000Y-154820000D01*
X76320000Y-152520000D01*
X78620000Y-152520000D01*
X78620000Y-154820000D01*
G37*
G36*
X73540000Y-154820000D02*
G01*
X71240000Y-154820000D01*
X71240000Y-152520000D01*
X73540000Y-152520000D01*
X73540000Y-154820000D01*
G37*
G36*
X139580000Y-153550000D02*
G01*
X137280000Y-153550000D01*
X137280000Y-151250000D01*
X139580000Y-151250000D01*
X139580000Y-153550000D01*
G37*
G36*
X137040000Y-153550000D02*
G01*
X134740000Y-153550000D01*
X134740000Y-151250000D01*
X137040000Y-151250000D01*
X137040000Y-153550000D01*
G37*
G36*
X100210000Y-151010000D02*
G01*
X97910000Y-151010000D01*
X97910000Y-148710000D01*
X100210000Y-148710000D01*
X100210000Y-151010000D01*
G37*
G36*
X104020000Y-151010000D02*
G01*
X101720000Y-151010000D01*
X101720000Y-148710000D01*
X104020000Y-148710000D01*
X104020000Y-151010000D01*
G37*
G36*
X78620000Y-151010000D02*
G01*
X76320000Y-151010000D01*
X76320000Y-148710000D01*
X78620000Y-148710000D01*
X78620000Y-151010000D01*
G37*
G36*
X73540000Y-151010000D02*
G01*
X71240000Y-151010000D01*
X71240000Y-148710000D01*
X73540000Y-148710000D01*
X73540000Y-151010000D01*
G37*
G36*
X119260000Y-151010000D02*
G01*
X116960000Y-151010000D01*
X116960000Y-148710000D01*
X119260000Y-148710000D01*
X119260000Y-151010000D01*
G37*
G36*
X121800000Y-148470000D02*
G01*
X119500000Y-148470000D01*
X119500000Y-146170000D01*
X121800000Y-146170000D01*
X121800000Y-148470000D01*
G37*
G36*
X91320000Y-148470000D02*
G01*
X89020000Y-148470000D01*
X89020000Y-146170000D01*
X91320000Y-146170000D01*
X91320000Y-148470000D01*
G37*
G36*
X83700000Y-148470000D02*
G01*
X81400000Y-148470000D01*
X81400000Y-146170000D01*
X83700000Y-146170000D01*
X83700000Y-148470000D01*
G37*
G36*
X93860000Y-148470000D02*
G01*
X91560000Y-148470000D01*
X91560000Y-146170000D01*
X93860000Y-146170000D01*
X93860000Y-148470000D01*
G37*
G36*
X128494354Y-146192097D02*
G01*
X128605443Y-146214194D01*
X128728039Y-146264976D01*
X128814728Y-146300883D01*
X129003081Y-146426736D01*
X129163264Y-146586919D01*
X129289117Y-146775272D01*
X129325024Y-146861961D01*
X129375806Y-146984557D01*
X129420000Y-147206735D01*
X129420000Y-147433265D01*
X129375806Y-147655443D01*
X129325024Y-147778039D01*
X129289117Y-147864728D01*
X129163264Y-148053081D01*
X129003081Y-148213264D01*
X128814728Y-148339117D01*
X128728039Y-148375024D01*
X128605443Y-148425806D01*
X128494354Y-148447903D01*
X128383267Y-148470000D01*
X128156733Y-148470000D01*
X128045646Y-148447903D01*
X127934557Y-148425806D01*
X127811961Y-148375024D01*
X127725272Y-148339117D01*
X127536919Y-148213264D01*
X127376736Y-148053081D01*
X127250883Y-147864728D01*
X127214976Y-147778039D01*
X127164194Y-147655443D01*
X127120000Y-147433265D01*
X127120000Y-147206735D01*
X127164194Y-146984557D01*
X127214976Y-146861961D01*
X127250883Y-146775272D01*
X127376736Y-146586919D01*
X127536919Y-146426736D01*
X127725272Y-146300883D01*
X127811961Y-146264976D01*
X127934557Y-146214194D01*
X128045646Y-146192097D01*
X128156733Y-146170000D01*
X128383267Y-146170000D01*
X128494354Y-146192097D01*
G37*
G36*
X96400000Y-148470000D02*
G01*
X94100000Y-148470000D01*
X94100000Y-146170000D01*
X96400000Y-146170000D01*
X96400000Y-148470000D01*
G37*
G36*
X114180000Y-145930000D02*
G01*
X111880000Y-145930000D01*
X111880000Y-143630000D01*
X114180000Y-143630000D01*
X114180000Y-145930000D01*
G37*
G36*
X129420000Y-145930000D02*
G01*
X127120000Y-145930000D01*
X127120000Y-143630000D01*
X129420000Y-143630000D01*
X129420000Y-145930000D01*
G37*
G36*
X131960000Y-145930000D02*
G01*
X129660000Y-145930000D01*
X129660000Y-143630000D01*
X131960000Y-143630000D01*
X131960000Y-145930000D01*
G37*
G36*
X78620000Y-145930000D02*
G01*
X76320000Y-145930000D01*
X76320000Y-143630000D01*
X78620000Y-143630000D01*
X78620000Y-145930000D01*
G37*
G36*
X73540000Y-145930000D02*
G01*
X71240000Y-145930000D01*
X71240000Y-143630000D01*
X73540000Y-143630000D01*
X73540000Y-145930000D01*
G37*
G36*
X100210000Y-145930000D02*
G01*
X97910000Y-145930000D01*
X97910000Y-143630000D01*
X100210000Y-143630000D01*
X100210000Y-145930000D01*
G37*
G36*
X121800000Y-145930000D02*
G01*
X119500000Y-145930000D01*
X119500000Y-143630000D01*
X121800000Y-143630000D01*
X121800000Y-145930000D01*
G37*
G36*
X104020000Y-145930000D02*
G01*
X101720000Y-145930000D01*
X101720000Y-143630000D01*
X104020000Y-143630000D01*
X104020000Y-145930000D01*
G37*
G36*
X83700000Y-145930000D02*
G01*
X81400000Y-145930000D01*
X81400000Y-143630000D01*
X83700000Y-143630000D01*
X83700000Y-145930000D01*
G37*
G36*
X91320000Y-145930000D02*
G01*
X89020000Y-145930000D01*
X89020000Y-143630000D01*
X91320000Y-143630000D01*
X91320000Y-145930000D01*
G37*
G36*
X129420000Y-143390000D02*
G01*
X127120000Y-143390000D01*
X127120000Y-141090000D01*
X129420000Y-141090000D01*
X129420000Y-143390000D01*
G37*
G36*
X83700000Y-143390000D02*
G01*
X81400000Y-143390000D01*
X81400000Y-141090000D01*
X83700000Y-141090000D01*
X83700000Y-143390000D01*
G37*
G36*
X137040000Y-143390000D02*
G01*
X134740000Y-143390000D01*
X134740000Y-141090000D01*
X137040000Y-141090000D01*
X137040000Y-143390000D01*
G37*
G36*
X91320000Y-143390000D02*
G01*
X89020000Y-143390000D01*
X89020000Y-141090000D01*
X91320000Y-141090000D01*
X91320000Y-143390000D01*
G37*
G36*
X121800000Y-143390000D02*
G01*
X119500000Y-143390000D01*
X119500000Y-141090000D01*
X121800000Y-141090000D01*
X121800000Y-143390000D01*
G37*
G36*
X139580000Y-143390000D02*
G01*
X137280000Y-143390000D01*
X137280000Y-141090000D01*
X139580000Y-141090000D01*
X139580000Y-143390000D01*
G37*
G36*
X121800000Y-140850000D02*
G01*
X119500000Y-140850000D01*
X119500000Y-138550000D01*
X121800000Y-138550000D01*
X121800000Y-140850000D01*
G37*
G36*
X82774354Y-138572097D02*
G01*
X82885443Y-138594194D01*
X83008039Y-138644976D01*
X83094728Y-138680883D01*
X83283081Y-138806736D01*
X83443264Y-138966919D01*
X83569117Y-139155272D01*
X83605024Y-139241961D01*
X83655806Y-139364557D01*
X83655806Y-139364559D01*
X83698661Y-139580000D01*
X83700000Y-139586735D01*
X83700000Y-139813265D01*
X83655806Y-140035443D01*
X83605024Y-140158039D01*
X83569117Y-140244728D01*
X83443264Y-140433081D01*
X83283081Y-140593264D01*
X83094728Y-140719117D01*
X83008039Y-140755024D01*
X82885443Y-140805806D01*
X82774354Y-140827903D01*
X82663267Y-140850000D01*
X82436733Y-140850000D01*
X82325646Y-140827903D01*
X82214557Y-140805806D01*
X82091961Y-140755024D01*
X82005272Y-140719117D01*
X81816919Y-140593264D01*
X81656736Y-140433081D01*
X81530883Y-140244728D01*
X81494976Y-140158039D01*
X81444194Y-140035443D01*
X81400000Y-139813265D01*
X81400000Y-139586735D01*
X81401340Y-139580000D01*
X81444194Y-139364559D01*
X81444194Y-139364557D01*
X81494976Y-139241961D01*
X81530883Y-139155272D01*
X81656736Y-138966919D01*
X81816919Y-138806736D01*
X82005272Y-138680883D01*
X82091961Y-138644976D01*
X82214557Y-138594194D01*
X82325646Y-138572097D01*
X82436733Y-138550000D01*
X82663267Y-138550000D01*
X82774354Y-138572097D01*
G37*
G36*
X119260000Y-140850000D02*
G01*
X116960000Y-140850000D01*
X116960000Y-138550000D01*
X119260000Y-138550000D01*
X119260000Y-140850000D01*
G37*
G36*
X129420000Y-140850000D02*
G01*
X127120000Y-140850000D01*
X127120000Y-138550000D01*
X129420000Y-138550000D01*
X129420000Y-140850000D01*
G37*
G36*
X91320000Y-140850000D02*
G01*
X89020000Y-140850000D01*
X89020000Y-138550000D01*
X91320000Y-138550000D01*
X91320000Y-140850000D01*
G37*
G36*
X134500000Y-139580000D02*
G01*
X132200000Y-139580000D01*
X132200000Y-137280000D01*
X134500000Y-137280000D01*
X134500000Y-139580000D01*
G37*
G36*
X145930000Y-139580000D02*
G01*
X143630000Y-139580000D01*
X143630000Y-137280000D01*
X145930000Y-137280000D01*
X145930000Y-139580000D01*
G37*
G36*
X139580000Y-139580000D02*
G01*
X137280000Y-139580000D01*
X137280000Y-137280000D01*
X139580000Y-137280000D01*
X139580000Y-139580000D01*
G37*
G36*
X93860000Y-138310000D02*
G01*
X91560000Y-138310000D01*
X91560000Y-136010000D01*
X93860000Y-136010000D01*
X93860000Y-138310000D01*
G37*
G36*
X96400000Y-138310000D02*
G01*
X94100000Y-138310000D01*
X94100000Y-136010000D01*
X96400000Y-136010000D01*
X96400000Y-138310000D01*
G37*
G36*
X145004354Y-134762097D02*
G01*
X145115443Y-134784194D01*
X145238039Y-134834976D01*
X145324728Y-134870883D01*
X145513081Y-134996736D01*
X145673264Y-135156919D01*
X145799117Y-135345272D01*
X145835024Y-135431961D01*
X145885806Y-135554557D01*
X145885806Y-135554559D01*
X145930000Y-135776733D01*
X145930000Y-136003267D01*
X145907903Y-136114354D01*
X145885806Y-136225443D01*
X145835024Y-136348039D01*
X145799117Y-136434728D01*
X145673264Y-136623081D01*
X145513081Y-136783264D01*
X145324728Y-136909117D01*
X145238039Y-136945024D01*
X145115443Y-136995806D01*
X145004354Y-137017903D01*
X144893267Y-137040000D01*
X144666733Y-137040000D01*
X144555646Y-137017903D01*
X144444557Y-136995806D01*
X144321961Y-136945024D01*
X144235272Y-136909117D01*
X144046919Y-136783264D01*
X143886736Y-136623081D01*
X143760883Y-136434728D01*
X143724976Y-136348039D01*
X143674194Y-136225443D01*
X143652097Y-136114354D01*
X143630000Y-136003267D01*
X143630000Y-135776733D01*
X143674194Y-135554559D01*
X143674194Y-135554557D01*
X143724976Y-135431961D01*
X143760883Y-135345272D01*
X143886736Y-135156919D01*
X144046919Y-134996736D01*
X144235272Y-134870883D01*
X144321961Y-134834976D01*
X144444557Y-134784194D01*
X144555646Y-134762097D01*
X144666733Y-134740000D01*
X144893267Y-134740000D01*
X145004354Y-134762097D01*
G37*
G36*
X118334354Y-133492097D02*
G01*
X118445443Y-133514194D01*
X118568039Y-133564976D01*
X118654728Y-133600883D01*
X118843081Y-133726736D01*
X119003264Y-133886919D01*
X119129117Y-134075272D01*
X119165024Y-134161961D01*
X119215806Y-134284557D01*
X119215806Y-134284559D01*
X119260000Y-134506733D01*
X119260000Y-134733267D01*
X119249870Y-134784194D01*
X119215806Y-134955443D01*
X119198701Y-134996737D01*
X119129117Y-135164728D01*
X119003264Y-135353081D01*
X118843081Y-135513264D01*
X118654728Y-135639117D01*
X118568039Y-135675024D01*
X118445443Y-135725806D01*
X118334354Y-135747903D01*
X118223267Y-135770000D01*
X117996733Y-135770000D01*
X117885646Y-135747903D01*
X117774557Y-135725806D01*
X117651961Y-135675024D01*
X117565272Y-135639117D01*
X117376919Y-135513264D01*
X117216736Y-135353081D01*
X117090883Y-135164728D01*
X117021299Y-134996737D01*
X117004194Y-134955443D01*
X116970130Y-134784194D01*
X116960000Y-134733267D01*
X116960000Y-134506733D01*
X117004194Y-134284559D01*
X117004194Y-134284557D01*
X117054976Y-134161961D01*
X117090883Y-134075272D01*
X117216736Y-133886919D01*
X117376919Y-133726736D01*
X117565272Y-133600883D01*
X117651961Y-133564976D01*
X117774557Y-133514194D01*
X117885646Y-133492097D01*
X117996733Y-133470000D01*
X118223267Y-133470000D01*
X118334354Y-133492097D01*
G37*
G36*
X114180000Y-135770000D02*
G01*
X111880000Y-135770000D01*
X111880000Y-133470000D01*
X114180000Y-133470000D01*
X114180000Y-135770000D01*
G37*
G36*
X116720000Y-135770000D02*
G01*
X114420000Y-135770000D01*
X114420000Y-133470000D01*
X116720000Y-133470000D01*
X116720000Y-135770000D01*
G37*
G36*
X78620000Y-135770000D02*
G01*
X76320000Y-135770000D01*
X76320000Y-133470000D01*
X78620000Y-133470000D01*
X78620000Y-135770000D01*
G37*
G36*
X134500000Y-135770000D02*
G01*
X132200000Y-135770000D01*
X132200000Y-133470000D01*
X134500000Y-133470000D01*
X134500000Y-135770000D01*
G37*
G36*
X121800000Y-135770000D02*
G01*
X119500000Y-135770000D01*
X119500000Y-133470000D01*
X121800000Y-133470000D01*
X121800000Y-135770000D01*
G37*
G36*
X131960000Y-135770000D02*
G01*
X129660000Y-135770000D01*
X129660000Y-133470000D01*
X131960000Y-133470000D01*
X131960000Y-135770000D01*
G37*
G36*
X73540000Y-135770000D02*
G01*
X71240000Y-135770000D01*
X71240000Y-133470000D01*
X73540000Y-133470000D01*
X73540000Y-135770000D01*
G37*
G36*
X139580000Y-135770000D02*
G01*
X137280000Y-135770000D01*
X137280000Y-133470000D01*
X139580000Y-133470000D01*
X139580000Y-135770000D01*
G37*
G36*
X145930000Y-134500000D02*
G01*
X143630000Y-134500000D01*
X143630000Y-132200000D01*
X145930000Y-132200000D01*
X145930000Y-134500000D01*
G37*
G36*
X79890000Y-129420000D02*
G01*
X77590000Y-129420000D01*
X77590000Y-127120000D01*
X79890000Y-127120000D01*
X79890000Y-129420000D01*
G37*
G36*
X76080000Y-129420000D02*
G01*
X73780000Y-129420000D01*
X73780000Y-127120000D01*
X76080000Y-127120000D01*
X76080000Y-129420000D01*
G37*
G36*
X95130000Y-129420000D02*
G01*
X92830000Y-129420000D01*
X92830000Y-127120000D01*
X95130000Y-127120000D01*
X95130000Y-129420000D01*
G37*
G36*
X92590000Y-129420000D02*
G01*
X90290000Y-129420000D01*
X90290000Y-127120000D01*
X92590000Y-127120000D01*
X92590000Y-129420000D01*
G37*
G36*
X123070000Y-129420000D02*
G01*
X120770000Y-129420000D01*
X120770000Y-127120000D01*
X123070000Y-127120000D01*
X123070000Y-129420000D01*
G37*
G36*
X90050000Y-129420000D02*
G01*
X87750000Y-129420000D01*
X87750000Y-127120000D01*
X90050000Y-127120000D01*
X90050000Y-129420000D01*
G37*
G36*
X125610000Y-129420000D02*
G01*
X123310000Y-129420000D01*
X123310000Y-127120000D01*
X125610000Y-127120000D01*
X125610000Y-129420000D01*
G37*
G36*
X97670000Y-129420000D02*
G01*
X95370000Y-129420000D01*
X95370000Y-127120000D01*
X97670000Y-127120000D01*
X97670000Y-129420000D01*
G37*
G36*
X87510000Y-129420000D02*
G01*
X85210000Y-129420000D01*
X85210000Y-127120000D01*
X87510000Y-127120000D01*
X87510000Y-129420000D01*
G37*
G36*
X115450000Y-129420000D02*
G01*
X113150000Y-129420000D01*
X113150000Y-127120000D01*
X115450000Y-127120000D01*
X115450000Y-129420000D01*
G37*
G36*
X120530000Y-129420000D02*
G01*
X118230000Y-129420000D01*
X118230000Y-127120000D01*
X120530000Y-127120000D01*
X120530000Y-129420000D01*
G37*
G36*
X117990000Y-129420000D02*
G01*
X115690000Y-129420000D01*
X115690000Y-127120000D01*
X117990000Y-127120000D01*
X117990000Y-129420000D01*
G37*
G36*
X127244250Y-120650981D02*
G01*
X127380913Y-120692437D01*
X127517577Y-120733894D01*
X127769473Y-120868534D01*
X127990265Y-121049735D01*
X128171466Y-121270527D01*
X128306106Y-121522423D01*
X128389019Y-121795751D01*
X128410000Y-122008774D01*
X128410000Y-123651226D01*
X128389019Y-123864249D01*
X128306106Y-124137577D01*
X128171466Y-124389473D01*
X127990265Y-124610265D01*
X127769472Y-124791466D01*
X127517576Y-124926106D01*
X127380912Y-124967562D01*
X127244249Y-125009019D01*
X126960000Y-125037015D01*
X126675750Y-125009019D01*
X126539087Y-124967562D01*
X126402423Y-124926106D01*
X126150527Y-124791466D01*
X125929735Y-124610265D01*
X125748534Y-124389472D01*
X125613894Y-124137576D01*
X125572438Y-124000912D01*
X125530981Y-123864249D01*
X125510000Y-123651224D01*
X125510000Y-122008775D01*
X125530981Y-121795750D01*
X125613895Y-121522424D01*
X125613895Y-121522423D01*
X125748535Y-121270527D01*
X125929736Y-121049735D01*
X126150528Y-120868534D01*
X126402424Y-120733894D01*
X126539088Y-120692437D01*
X126675751Y-120650981D01*
X126960000Y-120622985D01*
X127244250Y-120650981D01*
G37*
G36*
X89144250Y-120650981D02*
G01*
X89280913Y-120692437D01*
X89417577Y-120733894D01*
X89669473Y-120868534D01*
X89890265Y-121049735D01*
X90071466Y-121270527D01*
X90206106Y-121522423D01*
X90289019Y-121795751D01*
X90310000Y-122008774D01*
X90310000Y-123651226D01*
X90289019Y-123864249D01*
X90206106Y-124137577D01*
X90071466Y-124389473D01*
X89890265Y-124610265D01*
X89669472Y-124791466D01*
X89417576Y-124926106D01*
X89280912Y-124967562D01*
X89144249Y-125009019D01*
X88860000Y-125037015D01*
X88575750Y-125009019D01*
X88439087Y-124967562D01*
X88302423Y-124926106D01*
X88050527Y-124791466D01*
X87829735Y-124610265D01*
X87648534Y-124389472D01*
X87513894Y-124137576D01*
X87472437Y-124000912D01*
X87430981Y-123864249D01*
X87410000Y-123651224D01*
X87410000Y-122008775D01*
X87430981Y-121795750D01*
X87513895Y-121522424D01*
X87513895Y-121522423D01*
X87648535Y-121270527D01*
X87829736Y-121049735D01*
X88050528Y-120868534D01*
X88302424Y-120733894D01*
X88439088Y-120692437D01*
X88575751Y-120650981D01*
X88860000Y-120622985D01*
X89144250Y-120650981D01*
G37*
G36*
X84144250Y-120650981D02*
G01*
X84280913Y-120692437D01*
X84417577Y-120733894D01*
X84669473Y-120868534D01*
X84890265Y-121049735D01*
X85071466Y-121270527D01*
X85206106Y-121522423D01*
X85289019Y-121795751D01*
X85310000Y-122008774D01*
X85310000Y-123651226D01*
X85289019Y-123864249D01*
X85206106Y-124137577D01*
X85071466Y-124389473D01*
X84890265Y-124610265D01*
X84669472Y-124791466D01*
X84417576Y-124926106D01*
X84280912Y-124967562D01*
X84144249Y-125009019D01*
X83860000Y-125037015D01*
X83575750Y-125009019D01*
X83439087Y-124967562D01*
X83302423Y-124926106D01*
X83050527Y-124791466D01*
X82829735Y-124610265D01*
X82648534Y-124389472D01*
X82513894Y-124137576D01*
X82472437Y-124000912D01*
X82430981Y-123864249D01*
X82410000Y-123651224D01*
X82410000Y-122008775D01*
X82430981Y-121795750D01*
X82513895Y-121522424D01*
X82513895Y-121522423D01*
X82648535Y-121270527D01*
X82829736Y-121049735D01*
X83050528Y-120868534D01*
X83302424Y-120733894D01*
X83439088Y-120692437D01*
X83575751Y-120650981D01*
X83860000Y-120622985D01*
X84144250Y-120650981D01*
G37*
G36*
X122244250Y-120650981D02*
G01*
X122380913Y-120692437D01*
X122517577Y-120733894D01*
X122769473Y-120868534D01*
X122990265Y-121049735D01*
X123171466Y-121270527D01*
X123306106Y-121522423D01*
X123389019Y-121795751D01*
X123410000Y-122008774D01*
X123410000Y-123651226D01*
X123389019Y-123864249D01*
X123306106Y-124137577D01*
X123171466Y-124389473D01*
X122990265Y-124610265D01*
X122769472Y-124791466D01*
X122517576Y-124926106D01*
X122380912Y-124967562D01*
X122244249Y-125009019D01*
X121960000Y-125037015D01*
X121675750Y-125009019D01*
X121539087Y-124967562D01*
X121402423Y-124926106D01*
X121150527Y-124791466D01*
X120929735Y-124610265D01*
X120748534Y-124389472D01*
X120613894Y-124137576D01*
X120572438Y-124000912D01*
X120530981Y-123864249D01*
X120510000Y-123651224D01*
X120510000Y-122008775D01*
X120530981Y-121795750D01*
X120613895Y-121522424D01*
X120613895Y-121522423D01*
X120748535Y-121270527D01*
X120929736Y-121049735D01*
X121150528Y-120868534D01*
X121402424Y-120733894D01*
X121539088Y-120692437D01*
X121675751Y-120650981D01*
X121960000Y-120622985D01*
X122244250Y-120650981D01*
G37*
G36*
X76080000Y-124340000D02*
G01*
X73780000Y-124340000D01*
X73780000Y-122040000D01*
X76080000Y-122040000D01*
X76080000Y-124340000D01*
G37*
G36*
X100210000Y-123070000D02*
G01*
X97910000Y-123070000D01*
X97910000Y-120770000D01*
X100210000Y-120770000D01*
X100210000Y-123070000D01*
G37*
G36*
X110370000Y-123070000D02*
G01*
X108070000Y-123070000D01*
X108070000Y-120770000D01*
X110370000Y-120770000D01*
X110370000Y-123070000D01*
G37*
G36*
X114524354Y-120792097D02*
G01*
X114635443Y-120814194D01*
X114758039Y-120864976D01*
X114844728Y-120900883D01*
X115033081Y-121026736D01*
X115193264Y-121186919D01*
X115319117Y-121375272D01*
X115354212Y-121460000D01*
X115405806Y-121584557D01*
X115405806Y-121584559D01*
X115450000Y-121806733D01*
X115450000Y-122033267D01*
X115427903Y-122144354D01*
X115405806Y-122255443D01*
X115355024Y-122378039D01*
X115319117Y-122464728D01*
X115193264Y-122653081D01*
X115033081Y-122813264D01*
X114844728Y-122939117D01*
X114758039Y-122975024D01*
X114635443Y-123025806D01*
X114524354Y-123047903D01*
X114413267Y-123070000D01*
X114186733Y-123070000D01*
X114075646Y-123047903D01*
X113964557Y-123025806D01*
X113841961Y-122975024D01*
X113755272Y-122939117D01*
X113566919Y-122813264D01*
X113406736Y-122653081D01*
X113280883Y-122464728D01*
X113244976Y-122378039D01*
X113194194Y-122255443D01*
X113172097Y-122144354D01*
X113150000Y-122033267D01*
X113150000Y-121806733D01*
X113194194Y-121584559D01*
X113194194Y-121584557D01*
X113245788Y-121460000D01*
X113280883Y-121375272D01*
X113406736Y-121186919D01*
X113566919Y-121026736D01*
X113755272Y-120900883D01*
X113841961Y-120864976D01*
X113964557Y-120814194D01*
X114075646Y-120792097D01*
X114186733Y-120770000D01*
X114413267Y-120770000D01*
X114524354Y-120792097D01*
G37*
G36*
X117450663Y-120783111D02*
G01*
X117576307Y-120821225D01*
X117692096Y-120883115D01*
X117793590Y-120966410D01*
X117876885Y-121067904D01*
X117938775Y-121183693D01*
X117976889Y-121309337D01*
X117990000Y-121442454D01*
X117990000Y-122397546D01*
X117976889Y-122530663D01*
X117938775Y-122656307D01*
X117876885Y-122772096D01*
X117793590Y-122873590D01*
X117692096Y-122956885D01*
X117576307Y-123018775D01*
X117450663Y-123056889D01*
X117317546Y-123070000D01*
X116362454Y-123070000D01*
X116229337Y-123056889D01*
X116103693Y-123018775D01*
X115987904Y-122956885D01*
X115886410Y-122873590D01*
X115803115Y-122772096D01*
X115741225Y-122656307D01*
X115703111Y-122530663D01*
X115690000Y-122397546D01*
X115690000Y-121442454D01*
X115703111Y-121309337D01*
X115741225Y-121183693D01*
X115803115Y-121067904D01*
X115886410Y-120966410D01*
X115987904Y-120883115D01*
X116103693Y-120821225D01*
X116229337Y-120783111D01*
X116362454Y-120770000D01*
X117317546Y-120770000D01*
X117450663Y-120783111D01*
G37*
G36*
X82371758Y-118046653D02*
G01*
X82539196Y-118079958D01*
X82775781Y-118177955D01*
X82988702Y-118320224D01*
X83169776Y-118501298D01*
X83312045Y-118714219D01*
X83410042Y-118950804D01*
X83460000Y-119201961D01*
X83460000Y-119458039D01*
X83410042Y-119709196D01*
X83312045Y-119945781D01*
X83169776Y-120158702D01*
X82988702Y-120339776D01*
X82775781Y-120482045D01*
X82539196Y-120580042D01*
X82371758Y-120613347D01*
X82288040Y-120630000D01*
X82031960Y-120630000D01*
X81948242Y-120613347D01*
X81780804Y-120580042D01*
X81544219Y-120482045D01*
X81331298Y-120339776D01*
X81150224Y-120158702D01*
X81007955Y-119945781D01*
X80909958Y-119709196D01*
X80860000Y-119458039D01*
X80860000Y-119201961D01*
X80909958Y-118950804D01*
X81007955Y-118714219D01*
X81150224Y-118501298D01*
X81331298Y-118320224D01*
X81544219Y-118177955D01*
X81780804Y-118079958D01*
X81948242Y-118046653D01*
X82031960Y-118030000D01*
X82288040Y-118030000D01*
X82371758Y-118046653D01*
G37*
G36*
X120471758Y-118046653D02*
G01*
X120639196Y-118079958D01*
X120875781Y-118177955D01*
X121088702Y-118320224D01*
X121269776Y-118501298D01*
X121412045Y-118714219D01*
X121510042Y-118950804D01*
X121560000Y-119201961D01*
X121560000Y-119458039D01*
X121510042Y-119709196D01*
X121412045Y-119945781D01*
X121269776Y-120158702D01*
X121088702Y-120339776D01*
X120875781Y-120482045D01*
X120639196Y-120580042D01*
X120471758Y-120613347D01*
X120388040Y-120630000D01*
X120131960Y-120630000D01*
X120048242Y-120613347D01*
X119880804Y-120580042D01*
X119644219Y-120482045D01*
X119431298Y-120339776D01*
X119250224Y-120158702D01*
X119107955Y-119945781D01*
X119009958Y-119709196D01*
X118960000Y-119458039D01*
X118960000Y-119201961D01*
X119009958Y-118950804D01*
X119107955Y-118714219D01*
X119250224Y-118501298D01*
X119431298Y-118320224D01*
X119644219Y-118177955D01*
X119880804Y-118079958D01*
X120048242Y-118046653D01*
X120131960Y-118030000D01*
X120388040Y-118030000D01*
X120471758Y-118046653D01*
G37*
G36*
X90771758Y-118046653D02*
G01*
X90939196Y-118079958D01*
X91175781Y-118177955D01*
X91388702Y-118320224D01*
X91569776Y-118501298D01*
X91712045Y-118714219D01*
X91810042Y-118950804D01*
X91860000Y-119201961D01*
X91860000Y-119458039D01*
X91810042Y-119709196D01*
X91712045Y-119945781D01*
X91569776Y-120158702D01*
X91388702Y-120339776D01*
X91175781Y-120482045D01*
X90939196Y-120580042D01*
X90771758Y-120613347D01*
X90688040Y-120630000D01*
X90431960Y-120630000D01*
X90348242Y-120613347D01*
X90180804Y-120580042D01*
X89944219Y-120482045D01*
X89731298Y-120339776D01*
X89550224Y-120158702D01*
X89407955Y-119945781D01*
X89309958Y-119709196D01*
X89260000Y-119458039D01*
X89260000Y-119201961D01*
X89309958Y-118950804D01*
X89407955Y-118714219D01*
X89550224Y-118501298D01*
X89731298Y-118320224D01*
X89944219Y-118177955D01*
X90180804Y-118079958D01*
X90348242Y-118046653D01*
X90431960Y-118030000D01*
X90688040Y-118030000D01*
X90771758Y-118046653D01*
G37*
G36*
X128871758Y-118046653D02*
G01*
X129039196Y-118079958D01*
X129275781Y-118177955D01*
X129488702Y-118320224D01*
X129669776Y-118501298D01*
X129812045Y-118714219D01*
X129910042Y-118950804D01*
X129960000Y-119201961D01*
X129960000Y-119458039D01*
X129910042Y-119709196D01*
X129812045Y-119945781D01*
X129669776Y-120158702D01*
X129488702Y-120339776D01*
X129275781Y-120482045D01*
X129039196Y-120580042D01*
X128871758Y-120613347D01*
X128788040Y-120630000D01*
X128531960Y-120630000D01*
X128448242Y-120613347D01*
X128280804Y-120580042D01*
X128044219Y-120482045D01*
X127831298Y-120339776D01*
X127650224Y-120158702D01*
X127507955Y-119945781D01*
X127409958Y-119709196D01*
X127360000Y-119458039D01*
X127360000Y-119201961D01*
X127409958Y-118950804D01*
X127507955Y-118714219D01*
X127650224Y-118501298D01*
X127831298Y-118320224D01*
X128044219Y-118177955D01*
X128280804Y-118079958D01*
X128448242Y-118046653D01*
X128531960Y-118030000D01*
X128788040Y-118030000D01*
X128871758Y-118046653D01*
G37*
G36*
X100210000Y-120530000D02*
G01*
X97910000Y-120530000D01*
X97910000Y-118230000D01*
X100210000Y-118230000D01*
X100210000Y-120530000D01*
G37*
G36*
X110370000Y-120530000D02*
G01*
X108070000Y-120530000D01*
X108070000Y-118230000D01*
X110370000Y-118230000D01*
X110370000Y-120530000D01*
G37*
G36*
X79890000Y-119260000D02*
G01*
X77590000Y-119260000D01*
X77590000Y-116960000D01*
X79890000Y-116960000D01*
X79890000Y-119260000D01*
G37*
G36*
X102750000Y-115450000D02*
G01*
X100450000Y-115450000D01*
X100450000Y-113150000D01*
X102750000Y-113150000D01*
X102750000Y-115450000D01*
G37*
G36*
X109444354Y-113172097D02*
G01*
X109555443Y-113194194D01*
X109678039Y-113244976D01*
X109764728Y-113280883D01*
X109953081Y-113406736D01*
X110113264Y-113566919D01*
X110239117Y-113755272D01*
X110275024Y-113841961D01*
X110325806Y-113964557D01*
X110370000Y-114186735D01*
X110370000Y-114413265D01*
X110325806Y-114635443D01*
X110275024Y-114758039D01*
X110239117Y-114844728D01*
X110113264Y-115033081D01*
X109953081Y-115193264D01*
X109764728Y-115319117D01*
X109678039Y-115355024D01*
X109555443Y-115405806D01*
X109444354Y-115427903D01*
X109333267Y-115450000D01*
X109106733Y-115450000D01*
X108995646Y-115427903D01*
X108884557Y-115405806D01*
X108761961Y-115355024D01*
X108675272Y-115319117D01*
X108486919Y-115193264D01*
X108326736Y-115033081D01*
X108200883Y-114844728D01*
X108164976Y-114758039D01*
X108114194Y-114635443D01*
X108070000Y-114413265D01*
X108070000Y-114186735D01*
X108114194Y-113964557D01*
X108164976Y-113841961D01*
X108200883Y-113755272D01*
X108326736Y-113566919D01*
X108486919Y-113406736D01*
X108675272Y-113280883D01*
X108761961Y-113244976D01*
X108884557Y-113194194D01*
X108995646Y-113172097D01*
X109106733Y-113150000D01*
X109333267Y-113150000D01*
X109444354Y-113172097D01*
G37*
G36*
X95130000Y-115450000D02*
G01*
X92830000Y-115450000D01*
X92830000Y-113150000D01*
X95130000Y-113150000D01*
X95130000Y-115450000D01*
G37*
G36*
X100210000Y-115450000D02*
G01*
X97910000Y-115450000D01*
X97910000Y-113150000D01*
X100210000Y-113150000D01*
X100210000Y-115450000D01*
G37*
G36*
X96744354Y-109362097D02*
G01*
X96855443Y-109384194D01*
X96978039Y-109434976D01*
X97064728Y-109470883D01*
X97253081Y-109596736D01*
X97413264Y-109756919D01*
X97539117Y-109945272D01*
X97574212Y-110030000D01*
X97625806Y-110154557D01*
X97670000Y-110376735D01*
X97670000Y-110603265D01*
X97625806Y-110825443D01*
X97575024Y-110948039D01*
X97539117Y-111034728D01*
X97413264Y-111223081D01*
X97253081Y-111383264D01*
X97064728Y-111509117D01*
X96978039Y-111545024D01*
X96855443Y-111595806D01*
X96744354Y-111617903D01*
X96633267Y-111640000D01*
X96406733Y-111640000D01*
X96295646Y-111617903D01*
X96184557Y-111595806D01*
X96061961Y-111545024D01*
X95975272Y-111509117D01*
X95786919Y-111383264D01*
X95626736Y-111223081D01*
X95500883Y-111034728D01*
X95464976Y-110948039D01*
X95414194Y-110825443D01*
X95370000Y-110603265D01*
X95370000Y-110376735D01*
X95414194Y-110154557D01*
X95465788Y-110030000D01*
X95500883Y-109945272D01*
X95626736Y-109756919D01*
X95786919Y-109596736D01*
X95975272Y-109470883D01*
X96061961Y-109434976D01*
X96184557Y-109384194D01*
X96295646Y-109362097D01*
X96406733Y-109340000D01*
X96633267Y-109340000D01*
X96744354Y-109362097D01*
G37*
G36*
X125910000Y-110030000D02*
G01*
X123010000Y-110030000D01*
X123010000Y-105630000D01*
X125910000Y-105630000D01*
X125910000Y-110030000D01*
G37*
G36*
X87810000Y-110030000D02*
G01*
X84910000Y-110030000D01*
X84910000Y-105630000D01*
X87810000Y-105630000D01*
X87810000Y-110030000D01*
G37*
G36*
X82371758Y-106546653D02*
G01*
X82539196Y-106579958D01*
X82775781Y-106677955D01*
X82988702Y-106820224D01*
X83169776Y-107001298D01*
X83312045Y-107214219D01*
X83410042Y-107450804D01*
X83460000Y-107701961D01*
X83460000Y-107958039D01*
X83410042Y-108209196D01*
X83312045Y-108445781D01*
X83169776Y-108658702D01*
X82988702Y-108839776D01*
X82775781Y-108982045D01*
X82775780Y-108982046D01*
X82775779Y-108982046D01*
X82735188Y-108998859D01*
X82539196Y-109080042D01*
X82371758Y-109113347D01*
X82288040Y-109130000D01*
X82031960Y-109130000D01*
X81948242Y-109113347D01*
X81780804Y-109080042D01*
X81584812Y-108998859D01*
X81544221Y-108982046D01*
X81544220Y-108982046D01*
X81544219Y-108982045D01*
X81331298Y-108839776D01*
X81150224Y-108658702D01*
X81007955Y-108445781D01*
X80909958Y-108209196D01*
X80860000Y-107958039D01*
X80860000Y-107701961D01*
X80909958Y-107450804D01*
X81007955Y-107214219D01*
X81150224Y-107001298D01*
X81331298Y-106820224D01*
X81544219Y-106677955D01*
X81780804Y-106579958D01*
X81948242Y-106546653D01*
X82031960Y-106530000D01*
X82288040Y-106530000D01*
X82371758Y-106546653D01*
G37*
G36*
X90771758Y-106546653D02*
G01*
X90939196Y-106579958D01*
X91175781Y-106677955D01*
X91388702Y-106820224D01*
X91569776Y-107001298D01*
X91712045Y-107214219D01*
X91810042Y-107450804D01*
X91860000Y-107701961D01*
X91860000Y-107958039D01*
X91810042Y-108209196D01*
X91712045Y-108445781D01*
X91569776Y-108658702D01*
X91388702Y-108839776D01*
X91175781Y-108982045D01*
X91175780Y-108982046D01*
X91175779Y-108982046D01*
X91135188Y-108998859D01*
X90939196Y-109080042D01*
X90771758Y-109113347D01*
X90688040Y-109130000D01*
X90431960Y-109130000D01*
X90348242Y-109113347D01*
X90180804Y-109080042D01*
X89984812Y-108998859D01*
X89944221Y-108982046D01*
X89944220Y-108982046D01*
X89944219Y-108982045D01*
X89731298Y-108839776D01*
X89550224Y-108658702D01*
X89407955Y-108445781D01*
X89309958Y-108209196D01*
X89260000Y-107958039D01*
X89260000Y-107701961D01*
X89309958Y-107450804D01*
X89407955Y-107214219D01*
X89550224Y-107001298D01*
X89731298Y-106820224D01*
X89944219Y-106677955D01*
X90180804Y-106579958D01*
X90348242Y-106546653D01*
X90431960Y-106530000D01*
X90688040Y-106530000D01*
X90771758Y-106546653D01*
G37*
G36*
X120471758Y-106546653D02*
G01*
X120639196Y-106579958D01*
X120875781Y-106677955D01*
X121088702Y-106820224D01*
X121269776Y-107001298D01*
X121412045Y-107214219D01*
X121510042Y-107450804D01*
X121560000Y-107701961D01*
X121560000Y-107958039D01*
X121510042Y-108209196D01*
X121412045Y-108445781D01*
X121269776Y-108658702D01*
X121088702Y-108839776D01*
X120875781Y-108982045D01*
X120875780Y-108982046D01*
X120875779Y-108982046D01*
X120835188Y-108998859D01*
X120639196Y-109080042D01*
X120471758Y-109113347D01*
X120388040Y-109130000D01*
X120131960Y-109130000D01*
X120048242Y-109113347D01*
X119880804Y-109080042D01*
X119684812Y-108998859D01*
X119644221Y-108982046D01*
X119644220Y-108982046D01*
X119644219Y-108982045D01*
X119431298Y-108839776D01*
X119250224Y-108658702D01*
X119107955Y-108445781D01*
X119009958Y-108209196D01*
X118960000Y-107958039D01*
X118960000Y-107701961D01*
X119009958Y-107450804D01*
X119107955Y-107214219D01*
X119250224Y-107001298D01*
X119431298Y-106820224D01*
X119644219Y-106677955D01*
X119880804Y-106579958D01*
X120048242Y-106546653D01*
X120131960Y-106530000D01*
X120388040Y-106530000D01*
X120471758Y-106546653D01*
G37*
G36*
X128871758Y-106546653D02*
G01*
X129039196Y-106579958D01*
X129275781Y-106677955D01*
X129488702Y-106820224D01*
X129669776Y-107001298D01*
X129812045Y-107214219D01*
X129910042Y-107450804D01*
X129960000Y-107701961D01*
X129960000Y-107958039D01*
X129910042Y-108209196D01*
X129812045Y-108445781D01*
X129669776Y-108658702D01*
X129488702Y-108839776D01*
X129275781Y-108982045D01*
X129275780Y-108982046D01*
X129275779Y-108982046D01*
X129235188Y-108998859D01*
X129039196Y-109080042D01*
X128871758Y-109113347D01*
X128788040Y-109130000D01*
X128531960Y-109130000D01*
X128448242Y-109113347D01*
X128280804Y-109080042D01*
X128084812Y-108998859D01*
X128044221Y-108982046D01*
X128044220Y-108982046D01*
X128044219Y-108982045D01*
X127831298Y-108839776D01*
X127650224Y-108658702D01*
X127507955Y-108445781D01*
X127409958Y-108209196D01*
X127360000Y-107958039D01*
X127360000Y-107701961D01*
X127409958Y-107450804D01*
X127507955Y-107214219D01*
X127650224Y-107001298D01*
X127831298Y-106820224D01*
X128044219Y-106677955D01*
X128280804Y-106579958D01*
X128448242Y-106546653D01*
X128531960Y-106530000D01*
X128788040Y-106530000D01*
X128871758Y-106546653D01*
G37*
G36*
X97130663Y-106813111D02*
G01*
X97256307Y-106851225D01*
X97372096Y-106913115D01*
X97473590Y-106996410D01*
X97556885Y-107097904D01*
X97618775Y-107213693D01*
X97656889Y-107339337D01*
X97670000Y-107472454D01*
X97670000Y-108427546D01*
X97656889Y-108560663D01*
X97618775Y-108686307D01*
X97556885Y-108802096D01*
X97473590Y-108903590D01*
X97372096Y-108986885D01*
X97256307Y-109048775D01*
X97130663Y-109086889D01*
X96997546Y-109100000D01*
X96042454Y-109100000D01*
X95909337Y-109086889D01*
X95783693Y-109048775D01*
X95667904Y-108986885D01*
X95566410Y-108903590D01*
X95483115Y-108802096D01*
X95421225Y-108686307D01*
X95383111Y-108560663D01*
X95370000Y-108427546D01*
X95370000Y-107472454D01*
X95383111Y-107339337D01*
X95421225Y-107213693D01*
X95483115Y-107097904D01*
X95566410Y-106996410D01*
X95667904Y-106913115D01*
X95783693Y-106851225D01*
X95909337Y-106813111D01*
X96042454Y-106800000D01*
X96997546Y-106800000D01*
X97130663Y-106813111D01*
G37*
G36*
X108110000Y-107910000D02*
G01*
X102710000Y-107910000D01*
X102710000Y-104510000D01*
X108110000Y-104510000D01*
X108110000Y-107910000D01*
G37*
G36*
X116720000Y-106560000D02*
G01*
X114420000Y-106560000D01*
X114420000Y-104260000D01*
X116720000Y-104260000D01*
X116720000Y-106560000D01*
G37*
G36*
X112910000Y-106560000D02*
G01*
X110610000Y-106560000D01*
X110610000Y-104260000D01*
X112910000Y-104260000D01*
X112910000Y-106560000D01*
G37*
G36*
X102310000Y-106410000D02*
G01*
X98910000Y-106410000D01*
X98910000Y-101010000D01*
X102310000Y-101010000D01*
X102310000Y-106410000D01*
G37*
G36*
X108110000Y-101910000D02*
G01*
X102710000Y-101910000D01*
X102710000Y-98510000D01*
X108110000Y-98510000D01*
X108110000Y-101910000D01*
G37*
G36*
X77133404Y-93442974D02*
G01*
X77474545Y-93584279D01*
X77715768Y-93684197D01*
X78239881Y-94034398D01*
X78685602Y-94480119D01*
X79035803Y-95004232D01*
X79035803Y-95004233D01*
X79277026Y-95586596D01*
X79400000Y-96204826D01*
X79400000Y-96835174D01*
X79277026Y-97453404D01*
X79135721Y-97794545D01*
X79035803Y-98035768D01*
X78685602Y-98559881D01*
X78239881Y-99005602D01*
X77715768Y-99355803D01*
X77474545Y-99455721D01*
X77133404Y-99597026D01*
X76515174Y-99720000D01*
X75884826Y-99720000D01*
X75266596Y-99597026D01*
X74925455Y-99455721D01*
X74684232Y-99355803D01*
X74160119Y-99005602D01*
X73714398Y-98559881D01*
X73364197Y-98035768D01*
X73264279Y-97794545D01*
X73122974Y-97453404D01*
X73000000Y-96835174D01*
X73000000Y-96204826D01*
X73122974Y-95586596D01*
X73364197Y-95004233D01*
X73364197Y-95004232D01*
X73714398Y-94480119D01*
X74160119Y-94034398D01*
X74684232Y-93684197D01*
X74925455Y-93584279D01*
X75266596Y-93442974D01*
X75884826Y-93320000D01*
X76515174Y-93320000D01*
X77133404Y-93442974D01*
G37*
G36*
X97453404Y-93442974D02*
G01*
X97794545Y-93584279D01*
X98035768Y-93684197D01*
X98559881Y-94034398D01*
X99005602Y-94480119D01*
X99355803Y-95004232D01*
X99355803Y-95004233D01*
X99597026Y-95586596D01*
X99720000Y-96204826D01*
X99720000Y-96835174D01*
X99597026Y-97453404D01*
X99455721Y-97794545D01*
X99355803Y-98035768D01*
X99005602Y-98559881D01*
X98559881Y-99005602D01*
X98035768Y-99355803D01*
X97794545Y-99455721D01*
X97453404Y-99597026D01*
X96835174Y-99720000D01*
X96204826Y-99720000D01*
X95586596Y-99597026D01*
X95245455Y-99455721D01*
X95004232Y-99355803D01*
X94480119Y-99005602D01*
X94034398Y-98559881D01*
X93684197Y-98035768D01*
X93584279Y-97794545D01*
X93442974Y-97453404D01*
X93320000Y-96835174D01*
X93320000Y-96204826D01*
X93442974Y-95586596D01*
X93684197Y-95004233D01*
X93684197Y-95004232D01*
X94034398Y-94480119D01*
X94480119Y-94034398D01*
X95004232Y-93684197D01*
X95245455Y-93584279D01*
X95586596Y-93442974D01*
X96204826Y-93320000D01*
X96835174Y-93320000D01*
X97453404Y-93442974D01*
G37*
G36*
X115233404Y-93442974D02*
G01*
X115574545Y-93584279D01*
X115815768Y-93684197D01*
X116339881Y-94034398D01*
X116785602Y-94480119D01*
X117135803Y-95004232D01*
X117135803Y-95004233D01*
X117377026Y-95586596D01*
X117500000Y-96204826D01*
X117500000Y-96835174D01*
X117377026Y-97453404D01*
X117235721Y-97794545D01*
X117135803Y-98035768D01*
X116785602Y-98559881D01*
X116339881Y-99005602D01*
X115815768Y-99355803D01*
X115574545Y-99455721D01*
X115233404Y-99597026D01*
X114615174Y-99720000D01*
X113984826Y-99720000D01*
X113366596Y-99597026D01*
X113025455Y-99455721D01*
X112784232Y-99355803D01*
X112260119Y-99005602D01*
X111814398Y-98559881D01*
X111464197Y-98035768D01*
X111364279Y-97794545D01*
X111222974Y-97453404D01*
X111100000Y-96835174D01*
X111100000Y-96204826D01*
X111222974Y-95586596D01*
X111464197Y-95004233D01*
X111464197Y-95004232D01*
X111814398Y-94480119D01*
X112260119Y-94034398D01*
X112784232Y-93684197D01*
X113025455Y-93584279D01*
X113366596Y-93442974D01*
X113984826Y-93320000D01*
X114615174Y-93320000D01*
X115233404Y-93442974D01*
G37*
G36*
X135553404Y-93442974D02*
G01*
X135894545Y-93584279D01*
X136135768Y-93684197D01*
X136659881Y-94034398D01*
X137105602Y-94480119D01*
X137455803Y-95004232D01*
X137455803Y-95004233D01*
X137697026Y-95586596D01*
X137820000Y-96204826D01*
X137820000Y-96835174D01*
X137697026Y-97453404D01*
X137555721Y-97794545D01*
X137455803Y-98035768D01*
X137105602Y-98559881D01*
X136659881Y-99005602D01*
X136135768Y-99355803D01*
X135894545Y-99455721D01*
X135553404Y-99597026D01*
X134935174Y-99720000D01*
X134304826Y-99720000D01*
X133686596Y-99597026D01*
X133345455Y-99455721D01*
X133104232Y-99355803D01*
X132580119Y-99005602D01*
X132134398Y-98559881D01*
X131784197Y-98035768D01*
X131684279Y-97794545D01*
X131542974Y-97453404D01*
X131420000Y-96835174D01*
X131420000Y-96204826D01*
X131542974Y-95586596D01*
X131784197Y-95004233D01*
X131784197Y-95004232D01*
X132134398Y-94480119D01*
X132580119Y-94034398D01*
X133104232Y-93684197D01*
X133345455Y-93584279D01*
X133686596Y-93442974D01*
X134304826Y-93320000D01*
X134935174Y-93320000D01*
X135553404Y-93442974D01*
G37*
M02*
