<?xml version="1.0" encoding="UTF-8" standalone="no"?>
<!-- Created with Inkscape (http://www.inkscape.org/) -->

<svg
   width="94mm"
   height="119.5mm"
   viewBox="0 0 93.999999 119.5"
   version="1.1"
   id="svg8"
   inkscape:version="1.3.2 (091e20ef0f, 2023-11-25, custom)"
   sodipodi:docname="good_grief_overdrive_r1sm_bottom_2.svg"
   xmlns:inkscape="http://www.inkscape.org/namespaces/inkscape"
   xmlns:sodipodi="http://sodipodi.sourceforge.net/DTD/sodipodi-0.dtd"
   xmlns="http://www.w3.org/2000/svg"
   xmlns:svg="http://www.w3.org/2000/svg"
   xmlns:rdf="http://www.w3.org/1999/02/22-rdf-syntax-ns#"
   xmlns:cc="http://creativecommons.org/ns#"
   xmlns:dc="http://purl.org/dc/elements/1.1/">
  <title
     id="title13">Good Grief Overdrive [REV1SM] Bottom V2</title>
  <defs
     id="defs2">
    <clipPath
       id="clipPath96"
       clipPathUnits="userSpaceOnUse">
      <path
         inkscape:connector-curvature="0"
         id="path94"
         d="M 0,150 H 350 V 0 H 0 Z" />
    </clipPath>
    <clipPath
       id="clipPath96-3"
       clipPathUnits="userSpaceOnUse">
      <path
         inkscape:connector-curvature="0"
         id="path94-6"
         d="M 0,150 H 350 V 0 H 0 Z" />
    </clipPath>
  </defs>
  <sodipodi:namedview
     id="base"
     pagecolor="#ffffff"
     bordercolor="#666666"
     borderopacity="1.0"
     inkscape:pageopacity="1"
     inkscape:pageshadow="2"
     inkscape:zoom="1.8797594"
     inkscape:cx="177.68231"
     inkscape:cy="225.82677"
     inkscape:document-units="mm"
     inkscape:current-layer="layer1"
     showgrid="false"
     inkscape:window-width="1920"
     inkscape:window-height="1053"
     inkscape:window-x="0"
     inkscape:window-y="0"
     inkscape:window-maximized="0"
     inkscape:showpageshadow="0"
     inkscape:pagecheckerboard="1"
     inkscape:deskcolor="#505050" />
  <metadata
     id="metadata5">
    <rdf:RDF>
      <cc:Work
         rdf:about="">
        <dc:format>image/svg+xml</dc:format>
        <dc:type
           rdf:resource="http://purl.org/dc/dcmitype/StillImage" />
        <dc:title>Good Grief Overdrive [REV1SM] Bottom V2</dc:title>
        <cc:license
           rdf:resource="http://creativecommons.org/licenses/by-sa/4.0/" />
        <dc:creator>
          <cc:Agent>
            <dc:title>Igor Ivanov</dc:title>
          </cc:Agent>
        </dc:creator>
        <dc:date>06.06.2024</dc:date>
        <dc:contributor>
          <cc:Agent>
            <dc:title />
          </cc:Agent>
        </dc:contributor>
      </cc:Work>
      <cc:License
         rdf:about="http://creativecommons.org/licenses/by-sa/4.0/">
        <cc:permits
           rdf:resource="http://creativecommons.org/ns#Reproduction" />
        <cc:permits
           rdf:resource="http://creativecommons.org/ns#Distribution" />
        <cc:requires
           rdf:resource="http://creativecommons.org/ns#Notice" />
        <cc:requires
           rdf:resource="http://creativecommons.org/ns#Attribution" />
        <cc:permits
           rdf:resource="http://creativecommons.org/ns#DerivativeWorks" />
        <cc:requires
           rdf:resource="http://creativecommons.org/ns#ShareAlike" />
      </cc:License>
    </rdf:RDF>
  </metadata>
  <g
     inkscape:label="Layer 1"
     inkscape:groupmode="layer"
     id="layer1"
     transform="translate(0,-177.5)">
    <g
       transform="matrix(0.00254,0,0,-0.00254,-58.409952,385.66211)"
       inkscape:label="good_grief_overdrive_r1sm_bottom"
       id="g41">
      <path
         inkscape:connector-curvature="0"
         id="path43"
         style="fill:none;stroke:#000000;stroke-width:157.47999573;stroke-linecap:round;stroke-linejoin:round;stroke-miterlimit:10;stroke-dasharray:none;stroke-opacity:1"
         d="m 24216.5,81953.6 -106.3,-4.6 -105.6,-13.9 -103.9,-23.1 -101.6,-32 -98.4,-40.7 -94.4,-49.2 -89.8,-57.2 -84.5,-64.8 -78.5,-71.9 -71.9,-78.5 -64.8,-84.5 -57.2,-89.8 -49.2,-94.5 -40.7,-98.3 -32.1,-101.6 -23,-103.9 -13.9,-105.6 -4.6,-106.4" />
      <path
         inkscape:connector-curvature="0"
         id="path45"
         style="fill:none;stroke:#000000;stroke-width:157.47999573;stroke-linecap:round;stroke-linejoin:round;stroke-miterlimit:10;stroke-dasharray:none;stroke-opacity:1"
         d="m 60003.9,80733.1 -4.6,106.4 -13.9,105.6 -23,103.9 -32.1,101.6 -40.7,98.3 -49.2,94.5 -57.2,89.8 -64.8,84.5 -71.9,78.5 -78.5,71.9 -84.5,64.8 -89.8,57.2 -94.4,49.2 -98.4,40.7 -101.6,32 -103.9,23.1 -105.6,13.9 -106.3,4.6" />
      <path
         inkscape:connector-curvature="0"
         id="path47"
         style="fill:none;stroke:#000000;stroke-width:157.47999573;stroke-linecap:round;stroke-linejoin:round;stroke-miterlimit:10;stroke-dasharray:none;stroke-opacity:1"
         d="m 22996.1,36126.9 4.6,-106.4 13.9,-105.6 23,-103.9 32.1,-101.6 40.7,-98.3 49.2,-94.5 57.2,-89.8 64.8,-84.5 71.9,-78.5 78.5,-71.9 84.5,-64.8 89.8,-57.2 94.4,-49.2 98.4,-40.7 101.6,-32 103.9,-23.1 105.6,-13.9 106.3,-4.6" />
      <path
         inkscape:connector-curvature="0"
         id="path49"
         style="fill:none;stroke:#000000;stroke-width:157.47999573;stroke-linecap:round;stroke-linejoin:round;stroke-miterlimit:10;stroke-dasharray:none;stroke-opacity:1"
         d="m 58783.5,34906.4 106.3,4.6 105.6,13.9 103.9,23.1 101.6,32 98.4,40.7 94.4,49.2 89.8,57.2 84.5,64.8 78.5,71.9 71.9,78.5 64.8,84.5 57.2,89.8 49.2,94.5 40.7,98.3 32.1,101.6 23,103.9 13.9,105.6 4.6,106.4" />
      <path
         inkscape:connector-curvature="0"
         id="path51"
         style="fill:none;stroke:#000000;stroke-width:157.47999573;stroke-linecap:round;stroke-linejoin:round;stroke-miterlimit:10;stroke-dasharray:none;stroke-opacity:1"
         d="m 56106.3,38213.5 c 0,325.8 264.7,590.5 590.6,590.5 325.8,0 590.5,-264.7 590.5,-590.5 0,-325.9 -264.7,-590.6 -590.5,-590.6 -325.9,0 -590.6,264.7 -590.6,590.6 z" />
      <path
         inkscape:connector-curvature="0"
         id="path53"
         style="fill:none;stroke:#000000;stroke-width:157.47999573;stroke-linecap:round;stroke-linejoin:round;stroke-miterlimit:10;stroke-dasharray:none;stroke-opacity:1"
         d="m 25712.6,38213.5 c 0,325.8 264.7,590.5 590.5,590.5 325.9,0 590.6,-264.7 590.6,-590.5 0,-325.9 -264.7,-590.6 -590.6,-590.6 -325.8,0 -590.5,264.7 -590.5,590.6 z" />
      <path
         inkscape:connector-curvature="0"
         id="path55"
         style="fill:none;stroke:#000000;stroke-width:157.47999573;stroke-linecap:round;stroke-linejoin:round;stroke-miterlimit:10;stroke-dasharray:none;stroke-opacity:1"
         d="m 56106.3,78646.5 c 0,325.9 264.7,590.6 590.6,590.6 325.8,0 590.5,-264.7 590.5,-590.6 0,-325.8 -264.7,-590.5 -590.5,-590.5 -325.9,0 -590.6,264.7 -590.6,590.5 z" />
      <path
         inkscape:connector-curvature="0"
         id="path57"
         style="fill:none;stroke:#000000;stroke-width:157.47999573;stroke-linecap:round;stroke-linejoin:round;stroke-miterlimit:10;stroke-dasharray:none;stroke-opacity:1"
         d="m 25712.6,78646.5 c 0,325.9 264.7,590.6 590.5,590.6 325.9,0 590.6,-264.7 590.6,-590.6 0,-325.8 -264.7,-590.5 -590.6,-590.5 -325.8,0 -590.5,264.7 -590.5,590.5 z" />
      <path
         inkscape:connector-curvature="0"
         id="path59"
         style="fill:none;stroke:#000000;stroke-width:157.47999573;stroke-linecap:round;stroke-linejoin:round;stroke-miterlimit:10;stroke-dasharray:none;stroke-opacity:1"
         d="m 39137.8,46930 c 0,1303.4 1058.8,2362.2 2362.2,2362.2 1303.4,0 2362.2,-1058.8 2362.2,-2362.2 0,-1303.4 -1058.8,-2362.2 -2362.2,-2362.2 -1303.4,0 -2362.2,1058.8 -2362.2,2362.2 z" />
      <path
         inkscape:connector-curvature="0"
         id="path61"
         style="fill:none;stroke:#000000;stroke-width:157.47999573;stroke-linecap:round;stroke-linejoin:round;stroke-miterlimit:10;stroke-dasharray:none;stroke-opacity:1"
         d="m 40456.7,52930 c 0,575.7 467.6,1043.3 1043.3,1043.3 575.7,0 1043.3,-467.6 1043.3,-1043.3 0,-575.7 -467.6,-1043.3 -1043.3,-1043.3 -575.7,0 -1043.3,467.6 -1043.3,1043.3 z" />
      <path
         inkscape:connector-curvature="0"
         id="path63"
         style="fill:none;stroke:#000000;stroke-width:157.47999573;stroke-linecap:round;stroke-linejoin:round;stroke-miterlimit:10;stroke-dasharray:none;stroke-opacity:1"
         d="m 27082.7,70851.3 c 0,782 635.2,1417.3 1417.3,1417.3 782.1,0 1417.3,-635.3 1417.3,-1417.3 0,-782.1 -635.2,-1417.4 -1417.3,-1417.4 -782.1,0 -1417.3,635.3 -1417.3,1417.4 z" />
      <path
         inkscape:connector-curvature="0"
         id="path65"
         style="fill:none;stroke:#000000;stroke-width:157.47999573;stroke-linecap:round;stroke-linejoin:round;stroke-miterlimit:10;stroke-dasharray:none;stroke-opacity:1"
         d="m 24216.5,81953.6 h 34567" />
      <path
         inkscape:connector-curvature="0"
         id="path67"
         style="fill:none;stroke:#000000;stroke-width:157.47999573;stroke-linecap:round;stroke-linejoin:round;stroke-miterlimit:10;stroke-dasharray:none;stroke-opacity:1"
         d="m 24216.5,34906.4 h 34567" />
      <path
         inkscape:connector-curvature="0"
         id="path69"
         style="fill:none;stroke:#000000;stroke-width:157.47999573;stroke-linecap:round;stroke-linejoin:round;stroke-miterlimit:10;stroke-dasharray:none;stroke-opacity:1"
         d="M 22996.1,80733.1 V 36126.9" />
      <path
         inkscape:connector-curvature="0"
         id="path71"
         style="fill:none;stroke:#000000;stroke-width:157.47999573;stroke-linecap:round;stroke-linejoin:round;stroke-miterlimit:10;stroke-dasharray:none;stroke-opacity:1"
         d="M 60003.9,80733.1 V 36126.9" />
      <path
         inkscape:connector-curvature="0"
         id="path73"
         style="fill:none;stroke:#000000;stroke-width:157.47999573;stroke-linecap:round;stroke-linejoin:round;stroke-miterlimit:10;stroke-dasharray:none;stroke-opacity:1"
         d="m 29409.4,78930 c 0,325.9 264.7,590.6 590.6,590.6 325.9,0 590.6,-264.7 590.6,-590.6 0,-325.9 -264.7,-590.6 -590.6,-590.6 -325.9,0 -590.6,264.7 -590.6,590.6 z" />
      <path
         inkscape:connector-curvature="0"
         id="path75"
         style="fill:none;stroke:#000000;stroke-width:157.47999573;stroke-linecap:round;stroke-linejoin:round;stroke-miterlimit:10;stroke-dasharray:none;stroke-opacity:1"
         d="m 37409.4,78930 c 0,325.9 264.7,590.6 590.6,590.6 325.9,0 590.6,-264.7 590.6,-590.6 0,-325.9 -264.7,-590.6 -590.6,-590.6 -325.9,0 -590.6,264.7 -590.6,590.6 z" />
      <path
         inkscape:connector-curvature="0"
         id="path77"
         style="fill:none;stroke:#000000;stroke-width:157.47999573;stroke-linecap:round;stroke-linejoin:round;stroke-miterlimit:10;stroke-dasharray:none;stroke-opacity:1"
         d="m 44409.4,78930 c 0,325.9 264.7,590.6 590.6,590.6 325.9,0 590.6,-264.7 590.6,-590.6 0,-325.9 -264.7,-590.6 -590.6,-590.6 -325.9,0 -590.6,264.7 -590.6,590.6 z" />
      <path
         inkscape:connector-curvature="0"
         id="path79"
         style="fill:none;stroke:#000000;stroke-width:157.47999573;stroke-linecap:round;stroke-linejoin:round;stroke-miterlimit:10;stroke-dasharray:none;stroke-opacity:1"
         d="m 52409.4,78930 c 0,325.9 264.7,590.6 590.6,590.6 325.9,0 590.6,-264.7 590.6,-590.6 0,-325.9 -264.7,-590.6 -590.6,-590.6 -325.9,0 -590.6,264.7 -590.6,590.6 z" />
      <path
         inkscape:connector-curvature="0"
         id="path81"
         style="fill:none;stroke:#000000;stroke-width:157.47999573;stroke-linecap:round;stroke-linejoin:round;stroke-miterlimit:10;stroke-dasharray:none;stroke-opacity:1"
         d="m 40082.7,70851.3 c 0,782 635.2,1417.3 1417.3,1417.3 782.1,0 1417.3,-635.3 1417.3,-1417.3 0,-782.1 -635.2,-1417.4 -1417.3,-1417.4 -782.1,0 -1417.3,635.3 -1417.3,1417.4 z" />
      <path
         inkscape:connector-curvature="0"
         id="path83"
         style="fill:none;stroke:#000000;stroke-width:157.47999573;stroke-linecap:round;stroke-linejoin:round;stroke-miterlimit:10;stroke-dasharray:none;stroke-opacity:1"
         d="m 53082.7,70851.3 c 0,782 635.2,1417.3 1417.3,1417.3 782.1,0 1417.3,-635.3 1417.3,-1417.3 0,-782.1 -635.2,-1417.4 -1417.3,-1417.4 -782.1,0 -1417.3,635.3 -1417.3,1417.4 z" />
      <path
         inkscape:connector-curvature="0"
         id="path85"
         style="fill:none;stroke:#000000;stroke-width:157.47999573;stroke-linecap:round;stroke-linejoin:round;stroke-miterlimit:10;stroke-dasharray:none;stroke-opacity:1"
         d="m 50818.9,60430 c 0,651.7 529.4,1181.1 1181.1,1181.1 651.7,0 1181.1,-529.4 1181.1,-1181.1 0,-651.7 -529.4,-1181.1 -1181.1,-1181.1 -651.7,0 -1181.1,529.4 -1181.1,1181.1 z" />
      <path
         inkscape:connector-curvature="0"
         id="path87"
         style="fill:none;stroke:#000000;stroke-width:157.47999573;stroke-linecap:round;stroke-linejoin:round;stroke-miterlimit:10;stroke-dasharray:none;stroke-opacity:1"
         d="m 29818.9,60430 c 0,651.7 529.4,1181.1 1181.1,1181.1 651.7,0 1181.1,-529.4 1181.1,-1181.1 0,-651.7 -529.4,-1181.1 -1181.1,-1181.1 -651.7,0 -1181.1,529.4 -1181.1,1181.1 z" />
      <path
         inkscape:connector-curvature="0"
         id="path89"
         style="fill:none;stroke:#000000;stroke-width:157.47999573;stroke-linecap:round;stroke-linejoin:round;stroke-miterlimit:10;stroke-dasharray:none;stroke-opacity:1"
         d="m 40318.9,60430 c 0,651.7 529.4,1181.1 1181.1,1181.1 651.7,0 1181.1,-529.4 1181.1,-1181.1 0,-651.7 -529.4,-1181.1 -1181.1,-1181.1 -651.7,0 -1181.1,529.4 -1181.1,1181.1 z" />
      <path
         inkscape:connector-curvature="0"
         id="path91"
         style="fill:none;stroke:#000000;stroke-width:157.47999573;stroke-linecap:round;stroke-linejoin:round;stroke-miterlimit:10;stroke-dasharray:none;stroke-opacity:1"
         d="m 25409.4,60430 c 0,325.9 264.7,590.6 590.6,590.6 325.9,0 590.6,-264.7 590.6,-590.6 0,-325.9 -264.7,-590.6 -590.6,-590.6 -325.9,0 -590.6,264.7 -590.6,590.6 z" />
      <path
         inkscape:connector-curvature="0"
         id="path93"
         style="fill:none;stroke:#000000;stroke-width:157.47999573;stroke-linecap:round;stroke-linejoin:round;stroke-miterlimit:10;stroke-dasharray:none;stroke-opacity:1"
         d="m 56409.4,60430 c 0,325.9 264.7,590.6 590.6,590.6 325.9,0 590.6,-264.7 590.6,-590.6 0,-325.9 -264.7,-590.6 -590.6,-590.6 -325.9,0 -590.6,264.7 -590.6,590.6 z" />
    </g>
    <path
       style="opacity:1;fill:#000000;fill-opacity:1;stroke:none;stroke-width:0;stroke-linecap:round;stroke-linejoin:round;stroke-miterlimit:4;stroke-dasharray:none;stroke-dashoffset:0;stroke-opacity:1;paint-order:normal"
       d="M 177.63867 298.43164 A 37.795272 37.795272 0 0 0 139.8418 336.22656 A 37.795272 37.795272 0 0 0 177.63867 374.02148 A 37.795272 37.795272 0 0 0 215.43359 336.22656 A 37.795272 37.795272 0 0 0 177.63867 298.43164 z M 177.63867 315.43945 A 20.7874 20.7874 0 0 1 198.42578 336.22656 A 20.7874 20.7874 0 0 1 177.63867 357.01367 A 20.7874 20.7874 0 0 1 156.84961 336.22656 A 20.7874 20.7874 0 0 1 177.63867 315.43945 z "
       id="path162-3"
       transform="matrix(0.26458333,0,0,0.26458333,0,177.5)" />
    <path
       id="path14-6"
       style="fill:#000000;fill-opacity:1;stroke-width:0.264999"
       d="m 17.789778,181.77986 a 3.4000001,3.4000001 0 0 0 -3.39978,3.40031 3.4000001,3.4000001 0 0 0 3.39978,3.3998 3.4000001,3.4000001 0 0 0 3.40032,-3.3998 3.4000001,3.4000001 0 0 0 -3.40032,-3.40031 z m 0,2.40037 a 1,1 0 0 1 1.00047,0.99994 1,1 0 0 1 -1.00047,0.99994 1,1 0 0 1 -0.99993,-0.99994 1,1 0 0 1 0.99993,-0.99994 z" />
    <path
       id="path14-6-3"
       style="fill:#000000;fill-opacity:1;stroke-width:0.264999"
       d="m 38.109788,181.77986 a 3.4000001,3.4000001 0 0 0 -3.39979,3.40031 3.4000001,3.4000001 0 0 0 3.39979,3.3998 3.4000001,3.4000001 0 0 0 3.40031,-3.3998 3.4000001,3.4000001 0 0 0 -3.40031,-3.40031 z m 0,2.40037 a 1,1 0 0 1 1.00046,0.99994 1,1 0 0 1 -1.00046,0.99994 1,1 0 0 1 -0.99994,-0.99994 1,1 0 0 1 0.99994,-0.99994 z" />
    <path
       id="path14-6-6"
       style="fill:#000000;fill-opacity:1;stroke-width:0.264999"
       d="m 55.889788,181.77986 a 3.4000001,3.4000001 0 0 0 -3.39979,3.40031 3.4000001,3.4000001 0 0 0 3.39979,3.3998 3.4000001,3.4000001 0 0 0 3.40031,-3.3998 3.4000001,3.4000001 0 0 0 -3.40031,-3.40031 z m 0,2.40037 a 1,1 0 0 1 1.00046,0.99994 1,1 0 0 1 -1.00046,0.99994 1,1 0 0 1 -0.99994,-0.99994 1,1 0 0 1 0.99994,-0.99994 z" />
    <path
       id="path14-6-7"
       style="fill:#000000;fill-opacity:1;stroke-width:0.264999"
       d="m 76.209788,181.77986 a 3.4000001,3.4000001 0 0 0 -3.39979,3.40031 3.4000001,3.4000001 0 0 0 3.39979,3.3998 3.4000001,3.4000001 0 0 0 3.40031,-3.3998 3.4000001,3.4000001 0 0 0 -3.40031,-3.40031 z m 0,2.40037 a 1,1 0 0 1 1.00046,0.99994 1,1 0 0 1 -1.00046,0.99994 1,1 0 0 1 -0.99994,-0.99994 1,1 0 0 1 0.99994,-0.99994 z" />
    <path
       id="path14-6-5"
       style="fill:#000000;fill-opacity:1;stroke-width:0.264999"
       d="m 7.629788,228.76986 a 3.4000001,3.4000001 0 0 0 -3.39979,3.40031 3.4000001,3.4000001 0 0 0 3.39979,3.3998 3.4000001,3.4000001 0 0 0 3.40031,-3.3998 3.4000001,3.4000001 0 0 0 -3.40031,-3.40031 z m 0,2.40037 a 1,1 0 0 1 1.00046,0.99994 1,1 0 0 1 -1.00046,0.99994 1,1 0 0 1 -0.99994,-0.99994 1,1 0 0 1 0.99994,-0.99994 z" />
    <path
       id="path14-6-35"
       style="fill:#000000;fill-opacity:1;stroke-width:0.264999"
       d="m 86.369788,228.76986 a 3.4000001,3.4000001 0 0 0 -3.39979,3.40031 3.4000001,3.4000001 0 0 0 3.39979,3.3998 3.4000001,3.4000001 0 0 0 3.40031,-3.3998 3.4000001,3.4000001 0 0 0 -3.40031,-3.40031 z m 0,2.40037 a 1,1 0 0 1 1.00046,0.99994 1,1 0 0 1 -1.00046,0.99994 1,1 0 0 1 -0.99994,-0.99994 1,1 0 0 1 0.99994,-0.99994 z" />
    <path
       style="opacity:1;fill:#000000;fill-opacity:1;stroke:none;stroke-width:0;stroke-linecap:round;stroke-linejoin:round;stroke-miterlimit:4;stroke-dasharray:none;stroke-dashoffset:0;stroke-opacity:1;paint-order:normal"
       d="M 20.041016 83.517578 C 12.503113 83.517578 6.4355469 89.585144 6.4355469 97.123047 L 6.4355469 116.02148 C 6.4355469 123.55939 12.503113 129.62695 20.041016 129.62695 L 335.25391 129.62695 C 342.79181 129.62695 348.86133 123.55939 348.86133 116.02148 L 348.86133 97.123047 C 348.86133 89.585144 342.79181 83.517578 335.25391 83.517578 L 20.041016 83.517578 z M 52.847656 94.855469 A 11.716535 11.716535 0 0 1 64.564453 106.57227 A 11.716535 11.716535 0 0 1 52.847656 118.28906 A 11.716535 11.716535 0 0 1 41.130859 106.57227 A 11.716535 11.716535 0 0 1 52.847656 94.855469 z M 177.64844 94.855469 A 11.716535 11.716535 0 0 1 189.36523 106.57227 A 11.716535 11.716535 0 0 1 177.64844 118.28906 A 11.716535 11.716535 0 0 1 165.93164 106.57227 A 11.716535 11.716535 0 0 1 177.64844 94.855469 z M 302.44727 94.855469 A 11.716535 11.716535 0 0 1 314.16406 106.57227 A 11.716535 11.716535 0 0 1 302.44727 118.28906 A 11.716535 11.716535 0 0 1 290.73242 106.57227 A 11.716535 11.716535 0 0 1 302.44727 94.855469 z "
       transform="matrix(0.26458333,0,0,0.26458333,0,177.5)"
       id="rect1003" />
  </g>
</svg>
