  0
SECTION
  2
HEADER
  9
$ACADVER
  1
AC1014
  9
$HANDSEED
  5
FFFF
  9
$INSUNITS
 70
     4
  9
$MEASUREMENT
 70
     1
  0
ENDSEC
  0
SECTION
  2
TABLES
  0
TABLE
  2
VPORT
  5
8
330
0
100
AcDbSymbolTable
 70
     4
  0
VPORT
  5
2E
330
8
100
AcDbSymbolTableRecord
100
AcDbViewportTableRecord
  2
*ACTIVE
 70
     0
 10
0.0
 20
0.0
 11
1.0
 21
1.0
 12
210.0
 22
148.5
 13
0.0
 23
0.0
 14
10.0
 24
10.0
 15
10.0
 25
10.0
 16
0.0
 26
0.0
 36
1.0
 17
0.0
 27
0.0
 37
0.0
 40
341.0
 41
1.24
 42
50.0
 43
0.0
 44
0.0
 50
0.0
 51
0.0
 71
     0
 72
   100
 73
     1
 74
     3
 75
     0
 76
     0
 77
     0
 78
     0
  0
ENDTAB
  0
TABLE
  2
LTYPE
  5
5
330
0
100
AcDbSymbolTable
 70
     1
  0
LTYPE
  5
14
330
5
100
AcDbSymbolTableRecord
100
AcDbLinetypeTableRecord
  2
BYBLOCK
 70
     0
  3

 72
    65
 73
     0
 40
0.0
  0
LTYPE
  5
15
330
5
100
AcDbSymbolTableRecord
100
AcDbLinetypeTableRecord
  2
BYLAYER
 70
     0
  3

 72
    65
 73
     0
 40
0.0
  0
LTYPE
  5
16
330
5
100
AcDbSymbolTableRecord
100
AcDbLinetypeTableRecord
  2
CONTINUOUS
 70
     0
  3
Solid line
 72
    65
 73
     0
 40
0.0
  0
ENDTAB
  0
TABLE
  2
LAYER
  5
2
100
AcDbSymbolTable
 70
2
  0
LAYER
  5
50
100
AcDbSymbolTableRecord
100
AcDbLayerTableRecord
  2
0
 70
0
  6
CONTINUOUS
  0
LAYER
  5
51
100
AcDbSymbolTableRecord
100
AcDbLayerTableRecord
  2
Layer_1
 70
0
  6
CONTINUOUS
  0
ENDTAB
  0
TABLE
  2
STYLE
  5
3
330
0
100
AcDbSymbolTable
 70
     1
  0
STYLE
  5
11
330
3
100
AcDbSymbolTableRecord
100
AcDbTextStyleTableRecord
  2
STANDARD
 70
     0
 40
0.0
 41
1.0
 50
0.0
 71
     0
 42
2.5
  3
txt
  4

  0
ENDTAB
  0
TABLE
  2
VIEW
  5
6
330
0
100
AcDbSymbolTable
 70
     0
  0
ENDTAB
  0
TABLE
  2
UCS
  5
7
330
0
100
AcDbSymbolTable
 70
     0
  0
ENDTAB
  0
TABLE
  2
APPID
  5
9
330
0
100
AcDbSymbolTable
 70
     2
  0
APPID
  5
12
330
9
100
AcDbSymbolTableRecord
100
AcDbRegAppTableRecord
  2
ACAD
 70
     0
  0
ENDTAB
  0
TABLE
  2
DIMSTYLE
  5
A
330
0
100
AcDbSymbolTable
 70
     1
  0
DIMSTYLE
105
27
330
A
100
AcDbSymbolTableRecord
100
AcDbDimStyleTableRecord
  2
ISO-25
 70
     0
  3

  4

  5

  6

  7

 40
1.0
 41
2.5
 42
0.625
 43
3.75
 44
1.25
 45
0.0
 46
0.0
 47
0.0
 48
0.0
140
2.5
141
2.5
142
0.0
143
0.03937007874016
144
1.0
145
0.0
146
1.0
147
0.625
 71
     0
 72
     0
 73
     0
 74
     0
 75
     0
 76
     0
 77
     1
 78
     8
170
     0
171
     3
172
     1
173
     0
174
     0
175
     0
176
     0
177
     0
178
     0
270
     2
271
     2
272
     2
273
     2
274
     3
340
11
275
     0
280
     0
281
     0
282
     0
283
     0
284
     8
285
     0
286
     0
287
     3
288
     0
  0
ENDTAB
  0
TABLE
  2
BLOCK_RECORD
  5
1
330
0
100
AcDbSymbolTable
 70
     1
  0
BLOCK_RECORD
  5
1F
330
1
100
AcDbSymbolTableRecord
100
AcDbBlockTableRecord
  2
*MODEL_SPACE
  0
BLOCK_RECORD
  5
1B
330
1
100
AcDbSymbolTableRecord
100
AcDbBlockTableRecord
  2
*PAPER_SPACE
  0
ENDTAB
  0
ENDSEC
  0
SECTION
  2
BLOCKS
  0
BLOCK
  5
20
330
1F
100
AcDbEntity
  8
0
100
AcDbBlockBegin
  2
*MODEL_SPACE
 70
     0
 10
0.0
 20
0.0
 30
0.0
  3
*MODEL_SPACE
  1

  0
ENDBLK
  5
21
330
1F
100
AcDbEntity
  8
0
100
AcDbBlockEnd
  0
BLOCK
  5
1C
330
1B
100
AcDbEntity
 67
     1
  8
0
100
AcDbBlockBegin
  2
*PAPER_SPACE
  1

  0
ENDBLK
  5
1D
330
1B
100
AcDbEntity
 67
     1
  8
0
100
AcDbBlockEnd
  0
ENDSEC
  0
SECTION
  2
ENTITIES
  0
SPLINE
  5
100
100
AcDbEntity
  8
Layer_1
 62
7
100
AcDbSpline
 70
8
 71
3
 72
8
 73
4
 74
0
 40
0
 40
0
 40
0
 40
0
 40
1
 40
1
 40
1
 40
1
 10
47.000231
 20
40.539963
 30
0.0
 10
44.348010
 20
40.540075
 30
0.0
 10
41.804376
 20
39.486569
 30
0.0
 10
39.928924
 20
37.611214
 30
0.0
  0
SPLINE
  5
101
100
AcDbEntity
  8
Layer_1
 62
7
100
AcDbSpline
 70
8
 71
3
 72
8
 73
4
 74
0
 40
0
 40
0
 40
0
 40
0
 40
1
 40
1
 40
1
 40
1
 10
39.928924
 20
37.611214
 30
0.0
 10
38.053471
 20
35.735858
 30
0.0
 10
36.999834
 20
33.192279
 30
0.0
 10
36.999810
 20
30.540057
 30
0.0
  0
SPLINE
  5
102
100
AcDbEntity
  8
Layer_1
 62
7
100
AcDbSpline
 70
8
 71
3
 72
8
 73
4
 74
0
 40
0
 40
0
 40
0
 40
0
 40
1
 40
1
 40
1
 40
1
 10
36.999810
 20
30.540057
 30
0.0
 10
36.999834
 20
27.887836
 30
0.0
 10
38.053471
 20
25.344257
 30
0.0
 10
39.928924
 20
23.468901
 30
0.0
  0
SPLINE
  5
103
100
AcDbEntity
  8
Layer_1
 62
7
100
AcDbSpline
 70
8
 71
3
 72
8
 73
4
 74
0
 40
0
 40
0
 40
0
 40
0
 40
1
 40
1
 40
1
 40
1
 10
39.928924
 20
23.468901
 30
0.0
 10
41.804376
 20
21.593545
 30
0.0
 10
44.348010
 20
20.540039
 30
0.0
 10
47.000231
 20
20.540152
 30
0.0
  0
SPLINE
  5
104
100
AcDbEntity
  8
Layer_1
 62
7
100
AcDbSpline
 70
8
 71
3
 72
8
 73
4
 74
0
 40
0
 40
0
 40
0
 40
0
 40
1
 40
1
 40
1
 40
1
 10
47.000231
 20
20.540152
 30
0.0
 10
52.523006
 20
20.540203
 30
0.0
 10
57.000086
 20
25.017283
 30
0.0
 10
57.000137
 20
30.540057
 30
0.0
  0
SPLINE
  5
105
100
AcDbEntity
  8
Layer_1
 62
7
100
AcDbSpline
 70
8
 71
3
 72
8
 73
4
 74
0
 40
0
 40
0
 40
0
 40
0
 40
1
 40
1
 40
1
 40
1
 10
57.000137
 20
30.540057
 30
0.0
 10
57.000086
 20
36.062832
 30
0.0
 10
52.523006
 20
40.539912
 30
0.0
 10
47.000231
 20
40.539963
 30
0.0
  0
SPLINE
  5
106
100
AcDbEntity
  8
Layer_1
 62
7
100
AcDbSpline
 70
8
 71
3
 72
8
 73
4
 74
0
 40
0
 40
0
 40
0
 40
0
 40
1
 40
1
 40
1
 40
1
 10
47.000231
 20
36.039980
 30
0.0
 10
50.037737
 20
36.039938
 30
0.0
 10
52.500112
 20
33.577563
 30
0.0
 10
52.500154
 20
30.540057
 30
0.0
  0
SPLINE
  5
107
100
AcDbEntity
  8
Layer_1
 62
7
100
AcDbSpline
 70
8
 71
3
 72
8
 73
4
 74
0
 40
0
 40
0
 40
0
 40
0
 40
1
 40
1
 40
1
 40
1
 10
52.500154
 20
30.540057
 30
0.0
 10
52.500112
 20
27.502551
 30
0.0
 10
50.037737
 20
25.040177
 30
0.0
 10
47.000231
 20
25.040135
 30
0.0
  0
SPLINE
  5
108
100
AcDbEntity
  8
Layer_1
 62
7
100
AcDbSpline
 70
8
 71
3
 72
8
 73
4
 74
0
 40
0
 40
0
 40
0
 40
0
 40
1
 40
1
 40
1
 40
1
 10
47.000231
 20
25.040135
 30
0.0
 10
45.541478
 20
25.040018
 30
0.0
 10
44.142430
 20
25.619419
 30
0.0
 10
43.110888
 20
26.650865
 30
0.0
  0
SPLINE
  5
109
100
AcDbEntity
  8
Layer_1
 62
7
100
AcDbSpline
 70
8
 71
3
 72
8
 73
4
 74
0
 40
0
 40
0
 40
0
 40
0
 40
1
 40
1
 40
1
 40
1
 10
43.110888
 20
26.650865
 30
0.0
 10
42.079345
 20
27.682311
 30
0.0
 10
41.499813
 20
29.081304
 30
0.0
 10
41.499793
 20
30.540057
 30
0.0
  0
SPLINE
  5
10a
100
AcDbEntity
  8
Layer_1
 62
7
100
AcDbSpline
 70
8
 71
3
 72
8
 73
4
 74
0
 40
0
 40
0
 40
0
 40
0
 40
1
 40
1
 40
1
 40
1
 10
41.499793
 20
30.540057
 30
0.0
 10
41.499813
 20
31.998811
 30
0.0
 10
42.079345
 20
33.397804
 30
0.0
 10
43.110888
 20
34.429250
 30
0.0
  0
SPLINE
  5
10b
100
AcDbEntity
  8
Layer_1
 62
7
100
AcDbSpline
 70
8
 71
3
 72
8
 73
4
 74
0
 40
0
 40
0
 40
0
 40
0
 40
1
 40
1
 40
1
 40
1
 10
43.110888
 20
34.429250
 30
0.0
 10
44.142430
 20
35.460696
 30
0.0
 10
45.541478
 20
36.040097
 30
0.0
 10
47.000231
 20
36.039980
 30
0.0
  0
LWPOLYLINE
  5
10c
100
AcDbEntity
  8
Layer_1
 62
7
100
AcDbPolyline
 90
1
 70
1
 10
47.000231
 20
40.539963
 30
0.0
  0
SPLINE
  5
10d
100
AcDbEntity
  8
Layer_1
 62
7
100
AcDbSpline
 70
8
 71
3
 72
8
 73
4
 74
0
 40
0
 40
0
 40
0
 40
0
 40
1
 40
1
 40
1
 40
1
 10
17.789778
 20
115.220141
 30
0.0
 10
16.888027
 20
115.220083
 30
0.0
 10
16.023233
 20
114.861801
 30
0.0
 10
15.385648
 20
114.224117
 30
0.0
  0
SPLINE
  5
10e
100
AcDbEntity
  8
Layer_1
 62
7
100
AcDbSpline
 70
8
 71
3
 72
8
 73
4
 74
0
 40
0
 40
0
 40
0
 40
0
 40
1
 40
1
 40
1
 40
1
 10
15.385648
 20
114.224117
 30
0.0
 10
14.748063
 20
113.586432
 30
0.0
 10
14.389916
 20
112.721583
 30
0.0
 10
14.389998
 20
111.819831
 30
0.0
  0
SPLINE
  5
10f
100
AcDbEntity
  8
Layer_1
 62
7
100
AcDbSpline
 70
8
 71
3
 72
8
 73
4
 74
0
 40
0
 40
0
 40
0
 40
0
 40
1
 40
1
 40
1
 40
1
 10
14.389998
 20
111.819831
 30
0.0
 10
14.390109
 20
109.942227
 30
0.0
 10
15.912174
 20
108.420153
 30
0.0
 10
17.789778
 20
108.420031
 30
0.0
  0
SPLINE
  5
110
100
AcDbEntity
  8
Layer_1
 62
7
100
AcDbSpline
 70
8
 71
3
 72
8
 73
4
 74
0
 40
0
 40
0
 40
0
 40
0
 40
1
 40
1
 40
1
 40
1
 10
17.789778
 20
108.420031
 30
0.0
 10
18.691535
 20
108.419946
 30
0.0
 10
19.556390
 20
108.778095
 30
0.0
 10
20.194077
 20
109.415684
 30
0.0
  0
SPLINE
  5
111
100
AcDbEntity
  8
Layer_1
 62
7
100
AcDbSpline
 70
8
 71
3
 72
8
 73
4
 74
0
 40
0
 40
0
 40
0
 40
0
 40
1
 40
1
 40
1
 40
1
 10
20.194077
 20
109.415684
 30
0.0
 10
20.831765
 20
110.053274
 30
0.0
 10
21.190045
 20
110.918074
 30
0.0
 10
21.190098
 20
111.819831
 30
0.0
  0
SPLINE
  5
112
100
AcDbEntity
  8
Layer_1
 62
7
100
AcDbSpline
 70
8
 71
3
 72
8
 73
4
 74
0
 40
0
 40
0
 40
0
 40
0
 40
1
 40
1
 40
1
 40
1
 10
21.190098
 20
111.819831
 30
0.0
 10
21.190180
 20
112.721676
 30
0.0
 10
20.831960
 20
113.586608
 30
0.0
 10
20.194258
 20
114.224308
 30
0.0
  0
SPLINE
  5
113
100
AcDbEntity
  8
Layer_1
 62
7
100
AcDbSpline
 70
8
 71
3
 72
8
 73
4
 74
0
 40
0
 40
0
 40
0
 40
0
 40
1
 40
1
 40
1
 40
1
 10
20.194258
 20
114.224308
 30
0.0
 10
19.556556
 20
114.862008
 30
0.0
 10
18.691623
 20
115.220226
 30
0.0
 10
17.789778
 20
115.220141
 30
0.0
  0
LWPOLYLINE
  5
114
100
AcDbEntity
  8
Layer_1
 62
7
100
AcDbPolyline
 90
1
 70
1
 10
47.000231
 20
36.039980
 30
0.0
  0
SPLINE
  5
115
100
AcDbEntity
  8
Layer_1
 62
7
100
AcDbSpline
 70
8
 71
3
 72
8
 73
4
 74
0
 40
0
 40
0
 40
0
 40
0
 40
1
 40
1
 40
1
 40
1
 10
17.789778
 20
112.819771
 30
0.0
 10
18.055066
 20
112.819896
 30
0.0
 10
18.309531
 20
112.714602
 30
0.0
 10
18.497168
 20
112.527065
 30
0.0
  0
SPLINE
  5
116
100
AcDbEntity
  8
Layer_1
 62
7
100
AcDbSpline
 70
8
 71
3
 72
8
 73
4
 74
0
 40
0
 40
0
 40
0
 40
0
 40
1
 40
1
 40
1
 40
1
 10
18.497168
 20
112.527065
 30
0.0
 10
18.684804
 20
112.339528
 30
0.0
 10
18.790232
 20
112.085119
 30
0.0
 10
18.790248
 20
111.819831
 30
0.0
  0
SPLINE
  5
117
100
AcDbEntity
  8
Layer_1
 62
7
100
AcDbSpline
 70
8
 71
3
 72
8
 73
4
 74
0
 40
0
 40
0
 40
0
 40
0
 40
1
 40
1
 40
1
 40
1
 10
18.790248
 20
111.819831
 30
0.0
 10
18.790232
 20
111.554544
 30
0.0
 10
18.684804
 20
111.300134
 30
0.0
 10
18.497168
 20
111.112597
 30
0.0
  0
SPLINE
  5
118
100
AcDbEntity
  8
Layer_1
 62
7
100
AcDbSpline
 70
8
 71
3
 72
8
 73
4
 74
0
 40
0
 40
0
 40
0
 40
0
 40
1
 40
1
 40
1
 40
1
 10
18.497168
 20
111.112597
 30
0.0
 10
18.309531
 20
110.925060
 30
0.0
 10
18.055066
 20
110.819766
 30
0.0
 10
17.789778
 20
110.819891
 30
0.0
  0
SPLINE
  5
119
100
AcDbEntity
  8
Layer_1
 62
7
100
AcDbSpline
 70
8
 71
3
 72
8
 73
4
 74
0
 40
0
 40
0
 40
0
 40
0
 40
1
 40
1
 40
1
 40
1
 10
17.789778
 20
110.819891
 30
0.0
 10
17.237544
 20
110.819930
 30
0.0
 10
16.789881
 20
111.267597
 30
0.0
 10
16.789848
 20
111.819831
 30
0.0
  0
SPLINE
  5
11a
100
AcDbEntity
  8
Layer_1
 62
7
100
AcDbSpline
 70
8
 71
3
 72
8
 73
4
 74
0
 40
0
 40
0
 40
0
 40
0
 40
1
 40
1
 40
1
 40
1
 10
16.789848
 20
111.819831
 30
0.0
 10
16.789881
 20
112.372065
 30
0.0
 10
17.237544
 20
112.819733
 30
0.0
 10
17.789778
 20
112.819771
 30
0.0
  0
LWPOLYLINE
  5
11b
100
AcDbEntity
  8
Layer_1
 62
7
100
AcDbPolyline
 90
1
 70
1
 10
17.789778
 20
115.220141
 30
0.0
  0
SPLINE
  5
11c
100
AcDbEntity
  8
Layer_1
 62
7
100
AcDbSpline
 70
8
 71
3
 72
8
 73
4
 74
0
 40
0
 40
0
 40
0
 40
0
 40
1
 40
1
 40
1
 40
1
 10
38.109788
 20
115.220141
 30
0.0
 10
37.208035
 20
115.220086
 30
0.0
 10
36.343239
 20
114.861805
 30
0.0
 10
35.705652
 20
114.224120
 30
0.0
  0
SPLINE
  5
11d
100
AcDbEntity
  8
Layer_1
 62
7
100
AcDbSpline
 70
8
 71
3
 72
8
 73
4
 74
0
 40
0
 40
0
 40
0
 40
0
 40
1
 40
1
 40
1
 40
1
 10
35.705652
 20
114.224120
 30
0.0
 10
35.068064
 20
113.586436
 30
0.0
 10
34.709916
 20
112.721585
 30
0.0
 10
34.709998
 20
111.819831
 30
0.0
  0
SPLINE
  5
11e
100
AcDbEntity
  8
Layer_1
 62
7
100
AcDbSpline
 70
8
 71
3
 72
8
 73
4
 74
0
 40
0
 40
0
 40
0
 40
0
 40
1
 40
1
 40
1
 40
1
 10
34.709998
 20
111.819831
 30
0.0
 10
34.710109
 20
109.942223
 30
0.0
 10
36.232180
 20
108.420147
 30
0.0
 10
38.109788
 20
108.420031
 30
0.0
  0
SPLINE
  5
11f
100
AcDbEntity
  8
Layer_1
 62
7
100
AcDbSpline
 70
8
 71
3
 72
8
 73
4
 74
0
 40
0
 40
0
 40
0
 40
0
 40
1
 40
1
 40
1
 40
1
 10
38.109788
 20
108.420031
 30
0.0
 10
39.011544
 20
108.419949
 30
0.0
 10
39.876396
 20
108.778098
 30
0.0
 10
40.514081
 20
109.415688
 30
0.0
  0
SPLINE
  5
120
100
AcDbEntity
  8
Layer_1
 62
7
100
AcDbSpline
 70
8
 71
3
 72
8
 73
4
 74
0
 40
0
 40
0
 40
0
 40
0
 40
1
 40
1
 40
1
 40
1
 10
40.514081
 20
109.415688
 30
0.0
 10
41.151766
 20
110.053277
 30
0.0
 10
41.510045
 20
110.918076
 30
0.0
 10
41.510098
 20
111.819831
 30
0.0
  0
SPLINE
  5
121
100
AcDbEntity
  8
Layer_1
 62
7
100
AcDbSpline
 70
8
 71
3
 72
8
 73
4
 74
0
 40
0
 40
0
 40
0
 40
0
 40
1
 40
1
 40
1
 40
1
 10
41.510098
 20
111.819831
 30
0.0
 10
41.510181
 20
112.721675
 30
0.0
 10
41.151961
 20
113.586605
 30
0.0
 10
40.514261
 20
114.224304
 30
0.0
  0
SPLINE
  5
122
100
AcDbEntity
  8
Layer_1
 62
7
100
AcDbSpline
 70
8
 71
3
 72
8
 73
4
 74
0
 40
0
 40
0
 40
0
 40
0
 40
1
 40
1
 40
1
 40
1
 10
40.514261
 20
114.224304
 30
0.0
 10
39.876562
 20
114.862004
 30
0.0
 10
39.011632
 20
115.220223
 30
0.0
 10
38.109788
 20
115.220141
 30
0.0
  0
LWPOLYLINE
  5
123
100
AcDbEntity
  8
Layer_1
 62
7
100
AcDbPolyline
 90
1
 70
1
 10
17.789778
 20
112.819771
 30
0.0
  0
SPLINE
  5
124
100
AcDbEntity
  8
Layer_1
 62
7
100
AcDbSpline
 70
8
 71
3
 72
8
 73
4
 74
0
 40
0
 40
0
 40
0
 40
0
 40
1
 40
1
 40
1
 40
1
 10
38.109788
 20
112.819771
 30
0.0
 10
38.375074
 20
112.819893
 30
0.0
 10
38.629537
 20
112.714599
 30
0.0
 10
38.817171
 20
112.527062
 30
0.0
  0
SPLINE
  5
125
100
AcDbEntity
  8
Layer_1
 62
7
100
AcDbSpline
 70
8
 71
3
 72
8
 73
4
 74
0
 40
0
 40
0
 40
0
 40
0
 40
1
 40
1
 40
1
 40
1
 10
38.817171
 20
112.527062
 30
0.0
 10
39.004806
 20
112.339525
 30
0.0
 10
39.110233
 20
112.085117
 30
0.0
 10
39.110248
 20
111.819831
 30
0.0
  0
SPLINE
  5
126
100
AcDbEntity
  8
Layer_1
 62
7
100
AcDbSpline
 70
8
 71
3
 72
8
 73
4
 74
0
 40
0
 40
0
 40
0
 40
0
 40
1
 40
1
 40
1
 40
1
 10
39.110248
 20
111.819831
 30
0.0
 10
39.110233
 20
111.554545
 30
0.0
 10
39.004806
 20
111.300137
 30
0.0
 10
38.817171
 20
111.112601
 30
0.0
  0
SPLINE
  5
127
100
AcDbEntity
  8
Layer_1
 62
7
100
AcDbSpline
 70
8
 71
3
 72
8
 73
4
 74
0
 40
0
 40
0
 40
0
 40
0
 40
1
 40
1
 40
1
 40
1
 10
38.817171
 20
111.112601
 30
0.0
 10
38.629537
 20
110.925064
 30
0.0
 10
38.375074
 20
110.819769
 30
0.0
 10
38.109788
 20
110.819891
 30
0.0
  0
SPLINE
  5
128
100
AcDbEntity
  8
Layer_1
 62
7
100
AcDbSpline
 70
8
 71
3
 72
8
 73
4
 74
0
 40
0
 40
0
 40
0
 40
0
 40
1
 40
1
 40
1
 40
1
 10
38.109788
 20
110.819891
 30
0.0
 10
37.557551
 20
110.819924
 30
0.0
 10
37.109882
 20
111.267593
 30
0.0
 10
37.109848
 20
111.819831
 30
0.0
  0
SPLINE
  5
129
100
AcDbEntity
  8
Layer_1
 62
7
100
AcDbSpline
 70
8
 71
3
 72
8
 73
4
 74
0
 40
0
 40
0
 40
0
 40
0
 40
1
 40
1
 40
1
 40
1
 10
37.109848
 20
111.819831
 30
0.0
 10
37.109882
 20
112.372069
 30
0.0
 10
37.557551
 20
112.819738
 30
0.0
 10
38.109788
 20
112.819771
 30
0.0
  0
LWPOLYLINE
  5
12a
100
AcDbEntity
  8
Layer_1
 62
7
100
AcDbPolyline
 90
1
 70
1
 10
38.109788
 20
115.220141
 30
0.0
  0
SPLINE
  5
12b
100
AcDbEntity
  8
Layer_1
 62
7
100
AcDbSpline
 70
8
 71
3
 72
8
 73
4
 74
0
 40
0
 40
0
 40
0
 40
0
 40
1
 40
1
 40
1
 40
1
 10
55.889789
 20
115.220141
 30
0.0
 10
54.988035
 20
115.220086
 30
0.0
 10
54.123239
 20
114.861805
 30
0.0
 10
53.485652
 20
114.224120
 30
0.0
  0
SPLINE
  5
12c
100
AcDbEntity
  8
Layer_1
 62
7
100
AcDbSpline
 70
8
 71
3
 72
8
 73
4
 74
0
 40
0
 40
0
 40
0
 40
0
 40
1
 40
1
 40
1
 40
1
 10
53.485652
 20
114.224120
 30
0.0
 10
52.848065
 20
113.586436
 30
0.0
 10
52.489916
 20
112.721585
 30
0.0
 10
52.489999
 20
111.819831
 30
0.0
  0
SPLINE
  5
12d
100
AcDbEntity
  8
Layer_1
 62
7
100
AcDbSpline
 70
8
 71
3
 72
8
 73
4
 74
0
 40
0
 40
0
 40
0
 40
0
 40
1
 40
1
 40
1
 40
1
 10
52.489999
 20
111.819831
 30
0.0
 10
52.490109
 20
109.942223
 30
0.0
 10
54.012181
 20
108.420147
 30
0.0
 10
55.889789
 20
108.420031
 30
0.0
  0
SPLINE
  5
12e
100
AcDbEntity
  8
Layer_1
 62
7
100
AcDbSpline
 70
8
 71
3
 72
8
 73
4
 74
0
 40
0
 40
0
 40
0
 40
0
 40
1
 40
1
 40
1
 40
1
 10
55.889789
 20
108.420031
 30
0.0
 10
56.791544
 20
108.419949
 30
0.0
 10
57.656396
 20
108.778098
 30
0.0
 10
58.294081
 20
109.415688
 30
0.0
  0
SPLINE
  5
12f
100
AcDbEntity
  8
Layer_1
 62
7
100
AcDbSpline
 70
8
 71
3
 72
8
 73
4
 74
0
 40
0
 40
0
 40
0
 40
0
 40
1
 40
1
 40
1
 40
1
 10
58.294081
 20
109.415688
 30
0.0
 10
58.931766
 20
110.053277
 30
0.0
 10
59.290046
 20
110.918076
 30
0.0
 10
59.290099
 20
111.819831
 30
0.0
  0
SPLINE
  5
130
100
AcDbEntity
  8
Layer_1
 62
7
100
AcDbSpline
 70
8
 71
3
 72
8
 73
4
 74
0
 40
0
 40
0
 40
0
 40
0
 40
1
 40
1
 40
1
 40
1
 10
59.290099
 20
111.819831
 30
0.0
 10
59.290181
 20
112.721675
 30
0.0
 10
58.931961
 20
113.586605
 30
0.0
 10
58.294262
 20
114.224304
 30
0.0
  0
SPLINE
  5
131
100
AcDbEntity
  8
Layer_1
 62
7
100
AcDbSpline
 70
8
 71
3
 72
8
 73
4
 74
0
 40
0
 40
0
 40
0
 40
0
 40
1
 40
1
 40
1
 40
1
 10
58.294262
 20
114.224304
 30
0.0
 10
57.656562
 20
114.862004
 30
0.0
 10
56.791632
 20
115.220223
 30
0.0
 10
55.889789
 20
115.220141
 30
0.0
  0
LWPOLYLINE
  5
132
100
AcDbEntity
  8
Layer_1
 62
7
100
AcDbPolyline
 90
1
 70
1
 10
38.109788
 20
112.819771
 30
0.0
  0
SPLINE
  5
133
100
AcDbEntity
  8
Layer_1
 62
7
100
AcDbSpline
 70
8
 71
3
 72
8
 73
4
 74
0
 40
0
 40
0
 40
0
 40
0
 40
1
 40
1
 40
1
 40
1
 10
55.889789
 20
112.819771
 30
0.0
 10
56.155074
 20
112.819893
 30
0.0
 10
56.409537
 20
112.714599
 30
0.0
 10
56.597172
 20
112.527062
 30
0.0
  0
SPLINE
  5
134
100
AcDbEntity
  8
Layer_1
 62
7
100
AcDbSpline
 70
8
 71
3
 72
8
 73
4
 74
0
 40
0
 40
0
 40
0
 40
0
 40
1
 40
1
 40
1
 40
1
 10
56.597172
 20
112.527062
 30
0.0
 10
56.784806
 20
112.339525
 30
0.0
 10
56.890233
 20
112.085117
 30
0.0
 10
56.890249
 20
111.819831
 30
0.0
  0
SPLINE
  5
135
100
AcDbEntity
  8
Layer_1
 62
7
100
AcDbSpline
 70
8
 71
3
 72
8
 73
4
 74
0
 40
0
 40
0
 40
0
 40
0
 40
1
 40
1
 40
1
 40
1
 10
56.890249
 20
111.819831
 30
0.0
 10
56.890233
 20
111.554545
 30
0.0
 10
56.784806
 20
111.300137
 30
0.0
 10
56.597172
 20
111.112601
 30
0.0
  0
SPLINE
  5
136
100
AcDbEntity
  8
Layer_1
 62
7
100
AcDbSpline
 70
8
 71
3
 72
8
 73
4
 74
0
 40
0
 40
0
 40
0
 40
0
 40
1
 40
1
 40
1
 40
1
 10
56.597172
 20
111.112601
 30
0.0
 10
56.409537
 20
110.925064
 30
0.0
 10
56.155074
 20
110.819769
 30
0.0
 10
55.889789
 20
110.819891
 30
0.0
  0
SPLINE
  5
137
100
AcDbEntity
  8
Layer_1
 62
7
100
AcDbSpline
 70
8
 71
3
 72
8
 73
4
 74
0
 40
0
 40
0
 40
0
 40
0
 40
1
 40
1
 40
1
 40
1
 10
55.889789
 20
110.819891
 30
0.0
 10
55.337551
 20
110.819924
 30
0.0
 10
54.889882
 20
111.267593
 30
0.0
 10
54.889849
 20
111.819831
 30
0.0
  0
SPLINE
  5
138
100
AcDbEntity
  8
Layer_1
 62
7
100
AcDbSpline
 70
8
 71
3
 72
8
 73
4
 74
0
 40
0
 40
0
 40
0
 40
0
 40
1
 40
1
 40
1
 40
1
 10
54.889849
 20
111.819831
 30
0.0
 10
54.889882
 20
112.372069
 30
0.0
 10
55.337551
 20
112.819738
 30
0.0
 10
55.889789
 20
112.819771
 30
0.0
  0
LWPOLYLINE
  5
139
100
AcDbEntity
  8
Layer_1
 62
7
100
AcDbPolyline
 90
1
 70
1
 10
55.889789
 20
115.220141
 30
0.0
  0
SPLINE
  5
13a
100
AcDbEntity
  8
Layer_1
 62
7
100
AcDbSpline
 70
8
 71
3
 72
8
 73
4
 74
0
 40
0
 40
0
 40
0
 40
0
 40
1
 40
1
 40
1
 40
1
 10
76.209789
 20
115.220141
 30
0.0
 10
75.308035
 20
115.220086
 30
0.0
 10
74.443239
 20
114.861805
 30
0.0
 10
73.805652
 20
114.224120
 30
0.0
  0
SPLINE
  5
13b
100
AcDbEntity
  8
Layer_1
 62
7
100
AcDbSpline
 70
8
 71
3
 72
8
 73
4
 74
0
 40
0
 40
0
 40
0
 40
0
 40
1
 40
1
 40
1
 40
1
 10
73.805652
 20
114.224120
 30
0.0
 10
73.168065
 20
113.586436
 30
0.0
 10
72.809917
 20
112.721585
 30
0.0
 10
72.809999
 20
111.819831
 30
0.0
  0
SPLINE
  5
13c
100
AcDbEntity
  8
Layer_1
 62
7
100
AcDbSpline
 70
8
 71
3
 72
8
 73
4
 74
0
 40
0
 40
0
 40
0
 40
0
 40
1
 40
1
 40
1
 40
1
 10
72.809999
 20
111.819831
 30
0.0
 10
72.810109
 20
109.942223
 30
0.0
 10
74.332181
 20
108.420147
 30
0.0
 10
76.209789
 20
108.420031
 30
0.0
  0
SPLINE
  5
13d
100
AcDbEntity
  8
Layer_1
 62
7
100
AcDbSpline
 70
8
 71
3
 72
8
 73
4
 74
0
 40
0
 40
0
 40
0
 40
0
 40
1
 40
1
 40
1
 40
1
 10
76.209789
 20
108.420031
 30
0.0
 10
77.111544
 20
108.419949
 30
0.0
 10
77.976397
 20
108.778098
 30
0.0
 10
78.614082
 20
109.415688
 30
0.0
  0
SPLINE
  5
13e
100
AcDbEntity
  8
Layer_1
 62
7
100
AcDbSpline
 70
8
 71
3
 72
8
 73
4
 74
0
 40
0
 40
0
 40
0
 40
0
 40
1
 40
1
 40
1
 40
1
 10
78.614082
 20
109.415688
 30
0.0
 10
79.251767
 20
110.053277
 30
0.0
 10
79.610046
 20
110.918076
 30
0.0
 10
79.610099
 20
111.819831
 30
0.0
  0
SPLINE
  5
13f
100
AcDbEntity
  8
Layer_1
 62
7
100
AcDbSpline
 70
8
 71
3
 72
8
 73
4
 74
0
 40
0
 40
0
 40
0
 40
0
 40
1
 40
1
 40
1
 40
1
 10
79.610099
 20
111.819831
 30
0.0
 10
79.610181
 20
112.721675
 30
0.0
 10
79.251962
 20
113.586605
 30
0.0
 10
78.614262
 20
114.224304
 30
0.0
  0
SPLINE
  5
140
100
AcDbEntity
  8
Layer_1
 62
7
100
AcDbSpline
 70
8
 71
3
 72
8
 73
4
 74
0
 40
0
 40
0
 40
0
 40
0
 40
1
 40
1
 40
1
 40
1
 10
78.614262
 20
114.224304
 30
0.0
 10
77.976562
 20
114.862004
 30
0.0
 10
77.111632
 20
115.220223
 30
0.0
 10
76.209789
 20
115.220141
 30
0.0
  0
LWPOLYLINE
  5
141
100
AcDbEntity
  8
Layer_1
 62
7
100
AcDbPolyline
 90
1
 70
1
 10
55.889789
 20
112.819771
 30
0.0
  0
SPLINE
  5
142
100
AcDbEntity
  8
Layer_1
 62
7
100
AcDbSpline
 70
8
 71
3
 72
8
 73
4
 74
0
 40
0
 40
0
 40
0
 40
0
 40
1
 40
1
 40
1
 40
1
 10
76.209789
 20
112.819771
 30
0.0
 10
76.475075
 20
112.819893
 30
0.0
 10
76.729538
 20
112.714599
 30
0.0
 10
76.917172
 20
112.527062
 30
0.0
  0
SPLINE
  5
143
100
AcDbEntity
  8
Layer_1
 62
7
100
AcDbSpline
 70
8
 71
3
 72
8
 73
4
 74
0
 40
0
 40
0
 40
0
 40
0
 40
1
 40
1
 40
1
 40
1
 10
76.917172
 20
112.527062
 30
0.0
 10
77.104806
 20
112.339525
 30
0.0
 10
77.210233
 20
112.085117
 30
0.0
 10
77.210249
 20
111.819831
 30
0.0
  0
SPLINE
  5
144
100
AcDbEntity
  8
Layer_1
 62
7
100
AcDbSpline
 70
8
 71
3
 72
8
 73
4
 74
0
 40
0
 40
0
 40
0
 40
0
 40
1
 40
1
 40
1
 40
1
 10
77.210249
 20
111.819831
 30
0.0
 10
77.210233
 20
111.554545
 30
0.0
 10
77.104806
 20
111.300137
 30
0.0
 10
76.917172
 20
111.112601
 30
0.0
  0
SPLINE
  5
145
100
AcDbEntity
  8
Layer_1
 62
7
100
AcDbSpline
 70
8
 71
3
 72
8
 73
4
 74
0
 40
0
 40
0
 40
0
 40
0
 40
1
 40
1
 40
1
 40
1
 10
76.917172
 20
111.112601
 30
0.0
 10
76.729538
 20
110.925064
 30
0.0
 10
76.475075
 20
110.819769
 30
0.0
 10
76.209789
 20
110.819891
 30
0.0
  0
SPLINE
  5
146
100
AcDbEntity
  8
Layer_1
 62
7
100
AcDbSpline
 70
8
 71
3
 72
8
 73
4
 74
0
 40
0
 40
0
 40
0
 40
0
 40
1
 40
1
 40
1
 40
1
 10
76.209789
 20
110.819891
 30
0.0
 10
75.657551
 20
110.819924
 30
0.0
 10
75.209882
 20
111.267593
 30
0.0
 10
75.209849
 20
111.819831
 30
0.0
  0
SPLINE
  5
147
100
AcDbEntity
  8
Layer_1
 62
7
100
AcDbSpline
 70
8
 71
3
 72
8
 73
4
 74
0
 40
0
 40
0
 40
0
 40
0
 40
1
 40
1
 40
1
 40
1
 10
75.209849
 20
111.819831
 30
0.0
 10
75.209882
 20
112.372069
 30
0.0
 10
75.657551
 20
112.819738
 30
0.0
 10
76.209789
 20
112.819771
 30
0.0
  0
LWPOLYLINE
  5
148
100
AcDbEntity
  8
Layer_1
 62
7
100
AcDbPolyline
 90
1
 70
1
 10
76.209789
 20
115.220141
 30
0.0
  0
SPLINE
  5
149
100
AcDbEntity
  8
Layer_1
 62
7
100
AcDbSpline
 70
8
 71
3
 72
8
 73
4
 74
0
 40
0
 40
0
 40
0
 40
0
 40
1
 40
1
 40
1
 40
1
 10
7.629788
 20
68.230141
 30
0.0
 10
6.728035
 20
68.230085
 30
0.0
 10
5.863238
 20
67.871805
 30
0.0
 10
5.225651
 20
67.234120
 30
0.0
  0
SPLINE
  5
14a
100
AcDbEntity
  8
Layer_1
 62
7
100
AcDbSpline
 70
8
 71
3
 72
8
 73
4
 74
0
 40
0
 40
0
 40
0
 40
0
 40
1
 40
1
 40
1
 40
1
 10
5.225651
 20
67.234120
 30
0.0
 10
4.588064
 20
66.596435
 30
0.0
 10
4.229916
 20
65.731584
 30
0.0
 10
4.229998
 20
64.829831
 30
0.0
  0
SPLINE
  5
14b
100
AcDbEntity
  8
Layer_1
 62
7
100
AcDbSpline
 70
8
 71
3
 72
8
 73
4
 74
0
 40
0
 40
0
 40
0
 40
0
 40
1
 40
1
 40
1
 40
1
 10
4.229998
 20
64.829831
 30
0.0
 10
4.230109
 20
62.952223
 30
0.0
 10
5.752180
 20
61.430147
 30
0.0
 10
7.629788
 20
61.430031
 30
0.0
  0
SPLINE
  5
14c
100
AcDbEntity
  8
Layer_1
 62
7
100
AcDbSpline
 70
8
 71
3
 72
8
 73
4
 74
0
 40
0
 40
0
 40
0
 40
0
 40
1
 40
1
 40
1
 40
1
 10
7.629788
 20
61.430031
 30
0.0
 10
8.531543
 20
61.429948
 30
0.0
 10
9.396396
 20
61.788098
 30
0.0
 10
10.034081
 20
62.425687
 30
0.0
  0
SPLINE
  5
14d
100
AcDbEntity
  8
Layer_1
 62
7
100
AcDbSpline
 70
8
 71
3
 72
8
 73
4
 74
0
 40
0
 40
0
 40
0
 40
0
 40
1
 40
1
 40
1
 40
1
 10
10.034081
 20
62.425687
 30
0.0
 10
10.671766
 20
63.063277
 30
0.0
 10
11.030045
 20
63.928076
 30
0.0
 10
11.030098
 20
64.829831
 30
0.0
  0
SPLINE
  5
14e
100
AcDbEntity
  8
Layer_1
 62
7
100
AcDbSpline
 70
8
 71
3
 72
8
 73
4
 74
0
 40
0
 40
0
 40
0
 40
0
 40
1
 40
1
 40
1
 40
1
 10
11.030098
 20
64.829831
 30
0.0
 10
11.030180
 20
65.731674
 30
0.0
 10
10.671961
 20
66.596604
 30
0.0
 10
10.034261
 20
67.234304
 30
0.0
  0
SPLINE
  5
14f
100
AcDbEntity
  8
Layer_1
 62
7
100
AcDbSpline
 70
8
 71
3
 72
8
 73
4
 74
0
 40
0
 40
0
 40
0
 40
0
 40
1
 40
1
 40
1
 40
1
 10
10.034261
 20
67.234304
 30
0.0
 10
9.396561
 20
67.872003
 30
0.0
 10
8.531632
 20
68.230223
 30
0.0
 10
7.629788
 20
68.230141
 30
0.0
  0
LWPOLYLINE
  5
150
100
AcDbEntity
  8
Layer_1
 62
7
100
AcDbPolyline
 90
1
 70
1
 10
76.209789
 20
112.819771
 30
0.0
  0
SPLINE
  5
151
100
AcDbEntity
  8
Layer_1
 62
7
100
AcDbSpline
 70
8
 71
3
 72
8
 73
4
 74
0
 40
0
 40
0
 40
0
 40
0
 40
1
 40
1
 40
1
 40
1
 10
7.629788
 20
65.829771
 30
0.0
 10
7.895074
 20
65.829893
 30
0.0
 10
8.149537
 20
65.724598
 30
0.0
 10
8.337171
 20
65.537061
 30
0.0
  0
SPLINE
  5
152
100
AcDbEntity
  8
Layer_1
 62
7
100
AcDbSpline
 70
8
 71
3
 72
8
 73
4
 74
0
 40
0
 40
0
 40
0
 40
0
 40
1
 40
1
 40
1
 40
1
 10
8.337171
 20
65.537061
 30
0.0
 10
8.524805
 20
65.349525
 30
0.0
 10
8.630232
 20
65.095117
 30
0.0
 10
8.630248
 20
64.829831
 30
0.0
  0
SPLINE
  5
153
100
AcDbEntity
  8
Layer_1
 62
7
100
AcDbSpline
 70
8
 71
3
 72
8
 73
4
 74
0
 40
0
 40
0
 40
0
 40
0
 40
1
 40
1
 40
1
 40
1
 10
8.630248
 20
64.829831
 30
0.0
 10
8.630232
 20
64.564545
 30
0.0
 10
8.524805
 20
64.310137
 30
0.0
 10
8.337171
 20
64.122600
 30
0.0
  0
SPLINE
  5
154
100
AcDbEntity
  8
Layer_1
 62
7
100
AcDbSpline
 70
8
 71
3
 72
8
 73
4
 74
0
 40
0
 40
0
 40
0
 40
0
 40
1
 40
1
 40
1
 40
1
 10
8.337171
 20
64.122600
 30
0.0
 10
8.149537
 20
63.935063
 30
0.0
 10
7.895074
 20
63.829769
 30
0.0
 10
7.629788
 20
63.829891
 30
0.0
  0
SPLINE
  5
155
100
AcDbEntity
  8
Layer_1
 62
7
100
AcDbSpline
 70
8
 71
3
 72
8
 73
4
 74
0
 40
0
 40
0
 40
0
 40
0
 40
1
 40
1
 40
1
 40
1
 10
7.629788
 20
63.829891
 30
0.0
 10
7.077550
 20
63.829924
 30
0.0
 10
6.629881
 20
64.277593
 30
0.0
 10
6.629848
 20
64.829831
 30
0.0
  0
SPLINE
  5
156
100
AcDbEntity
  8
Layer_1
 62
7
100
AcDbSpline
 70
8
 71
3
 72
8
 73
4
 74
0
 40
0
 40
0
 40
0
 40
0
 40
1
 40
1
 40
1
 40
1
 10
6.629848
 20
64.829831
 30
0.0
 10
6.629881
 20
65.382069
 30
0.0
 10
7.077550
 20
65.829738
 30
0.0
 10
7.629788
 20
65.829771
 30
0.0
  0
LWPOLYLINE
  5
157
100
AcDbEntity
  8
Layer_1
 62
7
100
AcDbPolyline
 90
1
 70
1
 10
7.629788
 20
68.230141
 30
0.0
  0
SPLINE
  5
158
100
AcDbEntity
  8
Layer_1
 62
7
100
AcDbSpline
 70
8
 71
3
 72
8
 73
4
 74
0
 40
0
 40
0
 40
0
 40
0
 40
1
 40
1
 40
1
 40
1
 10
86.369789
 20
68.230141
 30
0.0
 10
85.468036
 20
68.230085
 30
0.0
 10
84.603239
 20
67.871805
 30
0.0
 10
83.965652
 20
67.234120
 30
0.0
  0
SPLINE
  5
159
100
AcDbEntity
  8
Layer_1
 62
7
100
AcDbSpline
 70
8
 71
3
 72
8
 73
4
 74
0
 40
0
 40
0
 40
0
 40
0
 40
1
 40
1
 40
1
 40
1
 10
83.965652
 20
67.234120
 30
0.0
 10
83.328065
 20
66.596435
 30
0.0
 10
82.969917
 20
65.731584
 30
0.0
 10
82.969999
 20
64.829831
 30
0.0
  0
SPLINE
  5
15a
100
AcDbEntity
  8
Layer_1
 62
7
100
AcDbSpline
 70
8
 71
3
 72
8
 73
4
 74
0
 40
0
 40
0
 40
0
 40
0
 40
1
 40
1
 40
1
 40
1
 10
82.969999
 20
64.829831
 30
0.0
 10
82.970109
 20
62.952223
 30
0.0
 10
84.492181
 20
61.430147
 30
0.0
 10
86.369789
 20
61.430031
 30
0.0
  0
SPLINE
  5
15b
100
AcDbEntity
  8
Layer_1
 62
7
100
AcDbSpline
 70
8
 71
3
 72
8
 73
4
 74
0
 40
0
 40
0
 40
0
 40
0
 40
1
 40
1
 40
1
 40
1
 10
86.369789
 20
61.430031
 30
0.0
 10
87.271544
 20
61.429948
 30
0.0
 10
88.136397
 20
61.788098
 30
0.0
 10
88.774082
 20
62.425687
 30
0.0
  0
SPLINE
  5
15c
100
AcDbEntity
  8
Layer_1
 62
7
100
AcDbSpline
 70
8
 71
3
 72
8
 73
4
 74
0
 40
0
 40
0
 40
0
 40
0
 40
1
 40
1
 40
1
 40
1
 10
88.774082
 20
62.425687
 30
0.0
 10
89.411767
 20
63.063277
 30
0.0
 10
89.770046
 20
63.928076
 30
0.0
 10
89.770099
 20
64.829831
 30
0.0
  0
SPLINE
  5
15d
100
AcDbEntity
  8
Layer_1
 62
7
100
AcDbSpline
 70
8
 71
3
 72
8
 73
4
 74
0
 40
0
 40
0
 40
0
 40
0
 40
1
 40
1
 40
1
 40
1
 10
89.770099
 20
64.829831
 30
0.0
 10
89.770181
 20
65.731674
 30
0.0
 10
89.411962
 20
66.596604
 30
0.0
 10
88.774262
 20
67.234304
 30
0.0
  0
SPLINE
  5
15e
100
AcDbEntity
  8
Layer_1
 62
7
100
AcDbSpline
 70
8
 71
3
 72
8
 73
4
 74
0
 40
0
 40
0
 40
0
 40
0
 40
1
 40
1
 40
1
 40
1
 10
88.774262
 20
67.234304
 30
0.0
 10
88.136562
 20
67.872003
 30
0.0
 10
87.271632
 20
68.230223
 30
0.0
 10
86.369789
 20
68.230141
 30
0.0
  0
LWPOLYLINE
  5
15f
100
AcDbEntity
  8
Layer_1
 62
7
100
AcDbPolyline
 90
1
 70
1
 10
7.629788
 20
65.829771
 30
0.0
  0
SPLINE
  5
160
100
AcDbEntity
  8
Layer_1
 62
7
100
AcDbSpline
 70
8
 71
3
 72
8
 73
4
 74
0
 40
0
 40
0
 40
0
 40
0
 40
1
 40
1
 40
1
 40
1
 10
86.369789
 20
65.829771
 30
0.0
 10
86.635075
 20
65.829893
 30
0.0
 10
86.889538
 20
65.724598
 30
0.0
 10
87.077172
 20
65.537061
 30
0.0
  0
SPLINE
  5
161
100
AcDbEntity
  8
Layer_1
 62
7
100
AcDbSpline
 70
8
 71
3
 72
8
 73
4
 74
0
 40
0
 40
0
 40
0
 40
0
 40
1
 40
1
 40
1
 40
1
 10
87.077172
 20
65.537061
 30
0.0
 10
87.264806
 20
65.349525
 30
0.0
 10
87.370233
 20
65.095117
 30
0.0
 10
87.370249
 20
64.829831
 30
0.0
  0
SPLINE
  5
162
100
AcDbEntity
  8
Layer_1
 62
7
100
AcDbSpline
 70
8
 71
3
 72
8
 73
4
 74
0
 40
0
 40
0
 40
0
 40
0
 40
1
 40
1
 40
1
 40
1
 10
87.370249
 20
64.829831
 30
0.0
 10
87.370233
 20
64.564545
 30
0.0
 10
87.264806
 20
64.310137
 30
0.0
 10
87.077172
 20
64.122600
 30
0.0
  0
SPLINE
  5
163
100
AcDbEntity
  8
Layer_1
 62
7
100
AcDbSpline
 70
8
 71
3
 72
8
 73
4
 74
0
 40
0
 40
0
 40
0
 40
0
 40
1
 40
1
 40
1
 40
1
 10
87.077172
 20
64.122600
 30
0.0
 10
86.889538
 20
63.935063
 30
0.0
 10
86.635075
 20
63.829769
 30
0.0
 10
86.369789
 20
63.829891
 30
0.0
  0
SPLINE
  5
164
100
AcDbEntity
  8
Layer_1
 62
7
100
AcDbSpline
 70
8
 71
3
 72
8
 73
4
 74
0
 40
0
 40
0
 40
0
 40
0
 40
1
 40
1
 40
1
 40
1
 10
86.369789
 20
63.829891
 30
0.0
 10
85.817551
 20
63.829924
 30
0.0
 10
85.369882
 20
64.277593
 30
0.0
 10
85.369849
 20
64.829831
 30
0.0
  0
SPLINE
  5
165
100
AcDbEntity
  8
Layer_1
 62
7
100
AcDbSpline
 70
8
 71
3
 72
8
 73
4
 74
0
 40
0
 40
0
 40
0
 40
0
 40
1
 40
1
 40
1
 40
1
 10
85.369849
 20
64.829831
 30
0.0
 10
85.369882
 20
65.382069
 30
0.0
 10
85.817551
 20
65.829738
 30
0.0
 10
86.369789
 20
65.829771
 30
0.0
  0
LWPOLYLINE
  5
166
100
AcDbEntity
  8
Layer_1
 62
7
100
AcDbPolyline
 90
1
 70
1
 10
86.369789
 20
68.230141
 30
0.0
  0
SPLINE
  5
167
100
AcDbEntity
  8
Layer_1
 62
7
100
AcDbSpline
 70
8
 71
3
 72
8
 73
4
 74
0
 40
0
 40
0
 40
0
 40
0
 40
1
 40
1
 40
1
 40
1
 10
5.302519
 20
97.402642
 30
0.0
 10
3.308115
 20
97.402642
 30
0.0
 10
1.702738
 20
95.797265
 30
0.0
 10
1.702738
 20
93.802862
 30
0.0
  0
LWPOLYLINE
  5
168
100
AcDbEntity
  8
Layer_1
 62
7
100
AcDbPolyline
 90
1
 70
1
 10
86.369789
 20
65.829771
 30
0.0
  0
SPLINE
  5
169
100
AcDbEntity
  8
Layer_1
 62
7
100
AcDbSpline
 70
8
 71
3
 72
8
 73
4
 74
0
 40
0
 40
0
 40
0
 40
0
 40
1
 40
1
 40
1
 40
1
 10
1.702738
 20
88.802651
 30
0.0
 10
1.702738
 20
86.808246
 30
0.0
 10
3.308115
 20
85.202871
 30
0.0
 10
5.302519
 20
85.202871
 30
0.0
  0
LWPOLYLINE
  5
16a
100
AcDbEntity
  8
Layer_1
 62
7
100
AcDbPolyline
 90
2
 70
0
 10
1.702738
 20
93.802862
 30
0.0
 10
1.702738
 20
88.802651
 30
0.0
  0
SPLINE
  5
16b
100
AcDbEntity
  8
Layer_1
 62
7
100
AcDbSpline
 70
8
 71
3
 72
8
 73
4
 74
0
 40
0
 40
0
 40
0
 40
0
 40
1
 40
1
 40
1
 40
1
 10
88.702597
 20
85.202871
 30
0.0
 10
90.697000
 20
85.202871
 30
0.0
 10
92.302893
 20
86.808246
 30
0.0
 10
92.302893
 20
88.802651
 30
0.0
  0
LWPOLYLINE
  5
16c
100
AcDbEntity
  8
Layer_1
 62
7
100
AcDbPolyline
 90
2
 70
0
 10
5.302519
 20
85.202871
 30
0.0
 10
88.702597
 20
85.202871
 30
0.0
  0
SPLINE
  5
16d
100
AcDbEntity
  8
Layer_1
 62
7
100
AcDbSpline
 70
8
 71
3
 72
8
 73
4
 74
0
 40
0
 40
0
 40
0
 40
0
 40
1
 40
1
 40
1
 40
1
 10
92.302893
 20
93.802862
 30
0.0
 10
92.302893
 20
95.797265
 30
0.0
 10
90.697000
 20
97.402642
 30
0.0
 10
88.702597
 20
97.402642
 30
0.0
  0
LWPOLYLINE
  5
16e
100
AcDbEntity
  8
Layer_1
 62
7
100
AcDbPolyline
 90
2
 70
0
 10
92.302893
 20
88.802651
 30
0.0
 10
92.302893
 20
93.802862
 30
0.0
  0
SPLINE
  5
16f
100
AcDbEntity
  8
Layer_1
 62
7
100
AcDbSpline
 70
8
 71
3
 72
8
 73
4
 74
0
 40
0
 40
0
 40
0
 40
0
 40
1
 40
1
 40
1
 40
1
 10
13.982609
 20
94.402825
 30
0.0
 10
14.804804
 20
94.402844
 30
0.0
 10
15.593330
 20
94.076236
 30
0.0
 10
16.174710
 20
93.494856
 30
0.0
  0
SPLINE
  5
170
100
AcDbEntity
  8
Layer_1
 62
7
100
AcDbSpline
 70
8
 71
3
 72
8
 73
4
 74
0
 40
0
 40
0
 40
0
 40
0
 40
1
 40
1
 40
1
 40
1
 10
16.174710
 20
93.494856
 30
0.0
 10
16.756089
 20
92.913476
 30
0.0
 10
17.082697
 20
92.124950
 30
0.0
 10
17.082678
 20
91.302755
 30
0.0
  0
SPLINE
  5
171
100
AcDbEntity
  8
Layer_1
 62
7
100
AcDbSpline
 70
8
 71
3
 72
8
 73
4
 74
0
 40
0
 40
0
 40
0
 40
0
 40
1
 40
1
 40
1
 40
1
 10
17.082678
 20
91.302755
 30
0.0
 10
17.082696
 20
90.480560
 30
0.0
 10
16.756088
 20
89.692035
 30
0.0
 10
16.174709
 20
89.110656
 30
0.0
  0
SPLINE
  5
172
100
AcDbEntity
  8
Layer_1
 62
7
100
AcDbSpline
 70
8
 71
3
 72
8
 73
4
 74
0
 40
0
 40
0
 40
0
 40
0
 40
1
 40
1
 40
1
 40
1
 10
16.174709
 20
89.110656
 30
0.0
 10
15.593329
 20
88.529276
 30
0.0
 10
14.804804
 20
88.202669
 30
0.0
 10
13.982609
 20
88.202688
 30
0.0
  0
SPLINE
  5
173
100
AcDbEntity
  8
Layer_1
 62
7
100
AcDbSpline
 70
8
 71
3
 72
8
 73
4
 74
0
 40
0
 40
0
 40
0
 40
0
 40
1
 40
1
 40
1
 40
1
 10
13.982609
 20
88.202688
 30
0.0
 10
13.160414
 20
88.202669
 30
0.0
 10
12.371889
 20
88.529276
 30
0.0
 10
11.790509
 20
89.110656
 30
0.0
  0
SPLINE
  5
174
100
AcDbEntity
  8
Layer_1
 62
7
100
AcDbSpline
 70
8
 71
3
 72
8
 73
4
 74
0
 40
0
 40
0
 40
0
 40
0
 40
1
 40
1
 40
1
 40
1
 10
11.790509
 20
89.110656
 30
0.0
 10
11.209130
 20
89.692035
 30
0.0
 10
10.882522
 20
90.480560
 30
0.0
 10
10.882540
 20
91.302755
 30
0.0
  0
SPLINE
  5
175
100
AcDbEntity
  8
Layer_1
 62
7
100
AcDbSpline
 70
8
 71
3
 72
8
 73
4
 74
0
 40
0
 40
0
 40
0
 40
0
 40
1
 40
1
 40
1
 40
1
 10
10.882540
 20
91.302755
 30
0.0
 10
10.882521
 20
92.124950
 30
0.0
 10
11.209129
 20
92.913476
 30
0.0
 10
11.790508
 20
93.494856
 30
0.0
  0
SPLINE
  5
176
100
AcDbEntity
  8
Layer_1
 62
7
100
AcDbSpline
 70
8
 71
3
 72
8
 73
4
 74
0
 40
0
 40
0
 40
0
 40
0
 40
1
 40
1
 40
1
 40
1
 10
11.790508
 20
93.494856
 30
0.0
 10
12.371888
 20
94.076236
 30
0.0
 10
13.160414
 20
94.402844
 30
0.0
 10
13.982609
 20
94.402825
 30
0.0
  0
LWPOLYLINE
  5
177
100
AcDbEntity
  8
Layer_1
 62
7
100
AcDbPolyline
 90
3
 70
0
 10
88.702597
 20
97.402642
 30
0.0
 10
5.302519
 20
97.402642
 30
0.0
 10
5.302519
 20
97.402642
 30
0.0
  0
SPLINE
  5
178
100
AcDbEntity
  8
Layer_1
 62
7
100
AcDbSpline
 70
8
 71
3
 72
8
 73
4
 74
0
 40
0
 40
0
 40
0
 40
0
 40
1
 40
1
 40
1
 40
1
 10
47.002816
 20
94.402825
 30
0.0
 10
47.825011
 20
94.402843
 30
0.0
 10
48.613536
 20
94.076235
 30
0.0
 10
49.194916
 20
93.494855
 30
0.0
  0
SPLINE
  5
179
100
AcDbEntity
  8
Layer_1
 62
7
100
AcDbSpline
 70
8
 71
3
 72
8
 73
4
 74
0
 40
0
 40
0
 40
0
 40
0
 40
1
 40
1
 40
1
 40
1
 10
49.194916
 20
93.494855
 30
0.0
 10
49.776295
 20
92.913475
 30
0.0
 10
50.102902
 20
92.124950
 30
0.0
 10
50.102884
 20
91.302755
 30
0.0
  0
SPLINE
  5
17a
100
AcDbEntity
  8
Layer_1
 62
7
100
AcDbSpline
 70
8
 71
3
 72
8
 73
4
 74
0
 40
0
 40
0
 40
0
 40
0
 40
1
 40
1
 40
1
 40
1
 10
50.102884
 20
91.302755
 30
0.0
 10
50.102902
 20
90.480560
 30
0.0
 10
49.776294
 20
89.692036
 30
0.0
 10
49.194915
 20
89.110656
 30
0.0
  0
SPLINE
  5
17b
100
AcDbEntity
  8
Layer_1
 62
7
100
AcDbSpline
 70
8
 71
3
 72
8
 73
4
 74
0
 40
0
 40
0
 40
0
 40
0
 40
1
 40
1
 40
1
 40
1
 10
49.194915
 20
89.110656
 30
0.0
 10
48.613535
 20
88.529277
 30
0.0
 10
47.825011
 20
88.202670
 30
0.0
 10
47.002816
 20
88.202688
 30
0.0
  0
SPLINE
  5
17c
100
AcDbEntity
  8
Layer_1
 62
7
100
AcDbSpline
 70
8
 71
3
 72
8
 73
4
 74
0
 40
0
 40
0
 40
0
 40
0
 40
1
 40
1
 40
1
 40
1
 10
47.002816
 20
88.202688
 30
0.0
 10
46.180621
 20
88.202669
 30
0.0
 10
45.392096
 20
88.529276
 30
0.0
 10
44.810716
 20
89.110656
 30
0.0
  0
SPLINE
  5
17d
100
AcDbEntity
  8
Layer_1
 62
7
100
AcDbSpline
 70
8
 71
3
 72
8
 73
4
 74
0
 40
0
 40
0
 40
0
 40
0
 40
1
 40
1
 40
1
 40
1
 10
44.810716
 20
89.110656
 30
0.0
 10
44.229336
 20
89.692035
 30
0.0
 10
43.902728
 20
90.480560
 30
0.0
 10
43.902746
 20
91.302755
 30
0.0
  0
SPLINE
  5
17e
100
AcDbEntity
  8
Layer_1
 62
7
100
AcDbSpline
 70
8
 71
3
 72
8
 73
4
 74
0
 40
0
 40
0
 40
0
 40
0
 40
1
 40
1
 40
1
 40
1
 10
43.902746
 20
91.302755
 30
0.0
 10
43.902728
 20
92.124950
 30
0.0
 10
44.229335
 20
92.913476
 30
0.0
 10
44.810715
 20
93.494856
 30
0.0
  0
SPLINE
  5
17f
100
AcDbEntity
  8
Layer_1
 62
7
100
AcDbSpline
 70
8
 71
3
 72
8
 73
4
 74
0
 40
0
 40
0
 40
0
 40
0
 40
1
 40
1
 40
1
 40
1
 10
44.810715
 20
93.494856
 30
0.0
 10
45.392095
 20
94.076236
 30
0.0
 10
46.180621
 20
94.402844
 30
0.0
 10
47.002816
 20
94.402825
 30
0.0
  0
LWPOLYLINE
  5
180
100
AcDbEntity
  8
Layer_1
 62
7
100
AcDbPolyline
 90
1
 70
1
 10
13.982609
 20
94.402825
 30
0.0
  0
SPLINE
  5
181
100
AcDbEntity
  8
Layer_1
 62
7
100
AcDbSpline
 70
8
 71
3
 72
8
 73
4
 74
0
 40
0
 40
0
 40
0
 40
0
 40
1
 40
1
 40
1
 40
1
 10
80.022507
 20
94.402825
 30
0.0
 10
80.844702
 20
94.402843
 30
0.0
 10
81.633227
 20
94.076235
 30
0.0
 10
82.214606
 20
93.494855
 30
0.0
  0
SPLINE
  5
182
100
AcDbEntity
  8
Layer_1
 62
7
100
AcDbSpline
 70
8
 71
3
 72
8
 73
4
 74
0
 40
0
 40
0
 40
0
 40
0
 40
1
 40
1
 40
1
 40
1
 10
82.214606
 20
93.494855
 30
0.0
 10
82.795985
 20
92.913475
 30
0.0
 10
83.122593
 20
92.124950
 30
0.0
 10
83.122574
 20
91.302755
 30
0.0
  0
SPLINE
  5
183
100
AcDbEntity
  8
Layer_1
 62
7
100
AcDbSpline
 70
8
 71
3
 72
8
 73
4
 74
0
 40
0
 40
0
 40
0
 40
0
 40
1
 40
1
 40
1
 40
1
 10
83.122574
 20
91.302755
 30
0.0
 10
83.122592
 20
90.480560
 30
0.0
 10
82.795984
 20
89.692036
 30
0.0
 10
82.214605
 20
89.110656
 30
0.0
  0
SPLINE
  5
184
100
AcDbEntity
  8
Layer_1
 62
7
100
AcDbSpline
 70
8
 71
3
 72
8
 73
4
 74
0
 40
0
 40
0
 40
0
 40
0
 40
1
 40
1
 40
1
 40
1
 10
82.214605
 20
89.110656
 30
0.0
 10
81.633226
 20
88.529277
 30
0.0
 10
80.844701
 20
88.202670
 30
0.0
 10
80.022507
 20
88.202688
 30
0.0
  0
SPLINE
  5
185
100
AcDbEntity
  8
Layer_1
 62
7
100
AcDbSpline
 70
8
 71
3
 72
8
 73
4
 74
0
 40
0
 40
0
 40
0
 40
0
 40
1
 40
1
 40
1
 40
1
 10
80.022507
 20
88.202688
 30
0.0
 10
78.310572
 20
88.202934
 30
0.0
 10
76.922915
 20
89.590820
 30
0.0
 10
76.922953
 20
91.302755
 30
0.0
  0
SPLINE
  5
186
100
AcDbEntity
  8
Layer_1
 62
7
100
AcDbSpline
 70
8
 71
3
 72
8
 73
4
 74
0
 40
0
 40
0
 40
0
 40
0
 40
1
 40
1
 40
1
 40
1
 10
76.922953
 20
91.302755
 30
0.0
 10
76.922914
 20
93.014691
 30
0.0
 10
78.310571
 20
94.402579
 30
0.0
 10
80.022507
 20
94.402825
 30
0.0
  0
LWPOLYLINE
  5
187
100
AcDbEntity
  8
Layer_1
 62
7
100
AcDbPolyline
 90
1
 70
1
 10
47.002816
 20
94.402825
 30
0.0
  0
LWPOLYLINE
  5
188
100
AcDbEntity
  8
Layer_1
 62
7
100
AcDbPolyline
 90
1
 70
1
 10
80.022507
 20
94.402825
 30
0.0
  0
ENDSEC
  0
SECTION
  2
OBJECTS
  0
DICTIONARY
  5
C
330
0
100
AcDbDictionary
  3
ACAD_GROUP
350
D
  3
ACAD_MLINESTYLE
350
17
  0
DICTIONARY
  5
D
330
C
100
AcDbDictionary
  0
DICTIONARY
  5
1A
330
C
100
AcDbDictionary
  0
DICTIONARY
  5
17
330
C
100
AcDbDictionary
  3
STANDARD
350
18
  0
DICTIONARY
  5
19
330
C
100
AcDbDictionary
  0
ENDSEC
  0
EOF
