G04 #@! TF.GenerationSoftware,KiCad,Pcbnew,5.1.6-c6e7f7d~87~ubuntu19.10.1*
G04 #@! TF.CreationDate,2022-03-31T20:35:54+06:00*
G04 #@! TF.ProjectId,potentiometer_board_18_1x17_r1a,706f7465-6e74-4696-9f6d-657465725f62,1A*
G04 #@! TF.SameCoordinates,Original*
G04 #@! TF.FileFunction,Soldermask,Bot*
G04 #@! TF.FilePolarity,Negative*
%FSLAX46Y46*%
G04 Gerber Fmt 4.6, Leading zero omitted, Abs format (unit mm)*
G04 Created by KiCad (PCBNEW 5.1.6-c6e7f7d~87~ubuntu19.10.1) date 2022-03-31 20:35:54*
%MOMM*%
%LPD*%
G01*
G04 APERTURE LIST*
%ADD10C,1.900000*%
%ADD11C,0.100000*%
G04 APERTURE END LIST*
D10*
X110410000Y-142875000D02*
X110490000Y-144780000D01*
X105410000Y-142875000D02*
X105410000Y-144780000D01*
X100410000Y-142875000D02*
X100330000Y-144780000D01*
D11*
G36*
X110832948Y-141480722D02*
G01*
X111096831Y-141590026D01*
X111096833Y-141590027D01*
X111334321Y-141748711D01*
X111536289Y-141950679D01*
X111694973Y-142188167D01*
X111694974Y-142188169D01*
X111804278Y-142452052D01*
X111860000Y-142732186D01*
X111860000Y-143017814D01*
X111804278Y-143297948D01*
X111694974Y-143561831D01*
X111694973Y-143561833D01*
X111536289Y-143799321D01*
X111371327Y-143964283D01*
X111365114Y-143971854D01*
X111360494Y-143980498D01*
X111357649Y-143989878D01*
X111356688Y-143999632D01*
X111357649Y-144009386D01*
X111360494Y-144018766D01*
X111365114Y-144027410D01*
X111371332Y-144034987D01*
X111383264Y-144046919D01*
X111509117Y-144235272D01*
X111523202Y-144269277D01*
X111595806Y-144444557D01*
X111640000Y-144666735D01*
X111640000Y-144893265D01*
X111595806Y-145115443D01*
X111545024Y-145238039D01*
X111509117Y-145324728D01*
X111383264Y-145513081D01*
X111223081Y-145673264D01*
X111034728Y-145799117D01*
X110948039Y-145835024D01*
X110825443Y-145885806D01*
X110714354Y-145907903D01*
X110603267Y-145930000D01*
X110376733Y-145930000D01*
X110265646Y-145907903D01*
X110154557Y-145885806D01*
X110031961Y-145835024D01*
X109945272Y-145799117D01*
X109756919Y-145673264D01*
X109596736Y-145513081D01*
X109470883Y-145324728D01*
X109434976Y-145238039D01*
X109384194Y-145115443D01*
X109340000Y-144893265D01*
X109340000Y-144666735D01*
X109384194Y-144444557D01*
X109456798Y-144269277D01*
X109470883Y-144235272D01*
X109555758Y-144108247D01*
X109560378Y-144099603D01*
X109563223Y-144090223D01*
X109564184Y-144080469D01*
X109563223Y-144070715D01*
X109560378Y-144061335D01*
X109555758Y-144052691D01*
X109549540Y-144045114D01*
X109541967Y-144038900D01*
X109485679Y-144001289D01*
X109283711Y-143799321D01*
X109125027Y-143561833D01*
X109125026Y-143561831D01*
X109015722Y-143297948D01*
X108960000Y-143017814D01*
X108960000Y-142732186D01*
X109015722Y-142452052D01*
X109125026Y-142188169D01*
X109125027Y-142188167D01*
X109283711Y-141950679D01*
X109485679Y-141748711D01*
X109723167Y-141590027D01*
X109723169Y-141590026D01*
X109987052Y-141480722D01*
X110267186Y-141425000D01*
X110552814Y-141425000D01*
X110832948Y-141480722D01*
G37*
G36*
X108174354Y-143652097D02*
G01*
X108285443Y-143674194D01*
X108408039Y-143724976D01*
X108494728Y-143760883D01*
X108683081Y-143886736D01*
X108843264Y-144046919D01*
X108969117Y-144235272D01*
X108983202Y-144269277D01*
X109055806Y-144444557D01*
X109100000Y-144666735D01*
X109100000Y-144893265D01*
X109055806Y-145115443D01*
X109005024Y-145238039D01*
X108969117Y-145324728D01*
X108843264Y-145513081D01*
X108683081Y-145673264D01*
X108494728Y-145799117D01*
X108408039Y-145835024D01*
X108285443Y-145885806D01*
X108174354Y-145907903D01*
X108063267Y-145930000D01*
X107836733Y-145930000D01*
X107725646Y-145907903D01*
X107614557Y-145885806D01*
X107491961Y-145835024D01*
X107405272Y-145799117D01*
X107216919Y-145673264D01*
X107056736Y-145513081D01*
X106930883Y-145324728D01*
X106894976Y-145238039D01*
X106844194Y-145115443D01*
X106800000Y-144893265D01*
X106800000Y-144666735D01*
X106844194Y-144444557D01*
X106916798Y-144269277D01*
X106930883Y-144235272D01*
X107056736Y-144046919D01*
X107216919Y-143886736D01*
X107405272Y-143760883D01*
X107491961Y-143724976D01*
X107614557Y-143674194D01*
X107725646Y-143652097D01*
X107836733Y-143630000D01*
X108063267Y-143630000D01*
X108174354Y-143652097D01*
G37*
G36*
X105832948Y-141480722D02*
G01*
X106096831Y-141590026D01*
X106096833Y-141590027D01*
X106334321Y-141748711D01*
X106536289Y-141950679D01*
X106694973Y-142188167D01*
X106694974Y-142188169D01*
X106804278Y-142452052D01*
X106860000Y-142732186D01*
X106860000Y-143017814D01*
X106804278Y-143297948D01*
X106694974Y-143561831D01*
X106694973Y-143561833D01*
X106536289Y-143799321D01*
X106334321Y-144001289D01*
X106333339Y-144001945D01*
X106325767Y-144008159D01*
X106319549Y-144015736D01*
X106314929Y-144024380D01*
X106312084Y-144033760D01*
X106311123Y-144043514D01*
X106312084Y-144053268D01*
X106314929Y-144062648D01*
X106319549Y-144071292D01*
X106429117Y-144235272D01*
X106443202Y-144269277D01*
X106515806Y-144444557D01*
X106560000Y-144666735D01*
X106560000Y-144893265D01*
X106515806Y-145115443D01*
X106465024Y-145238039D01*
X106429117Y-145324728D01*
X106303264Y-145513081D01*
X106143081Y-145673264D01*
X105954728Y-145799117D01*
X105868039Y-145835024D01*
X105745443Y-145885806D01*
X105634354Y-145907903D01*
X105523267Y-145930000D01*
X105296733Y-145930000D01*
X105185646Y-145907903D01*
X105074557Y-145885806D01*
X104951961Y-145835024D01*
X104865272Y-145799117D01*
X104676919Y-145673264D01*
X104516736Y-145513081D01*
X104390883Y-145324728D01*
X104354976Y-145238039D01*
X104304194Y-145115443D01*
X104260000Y-144893265D01*
X104260000Y-144666735D01*
X104304194Y-144444557D01*
X104376798Y-144269277D01*
X104390883Y-144235272D01*
X104500451Y-144071292D01*
X104505071Y-144062648D01*
X104507916Y-144053268D01*
X104508877Y-144043514D01*
X104507916Y-144033760D01*
X104505071Y-144024380D01*
X104500451Y-144015736D01*
X104494233Y-144008159D01*
X104486661Y-144001945D01*
X104485679Y-144001289D01*
X104283711Y-143799321D01*
X104125027Y-143561833D01*
X104125026Y-143561831D01*
X104015722Y-143297948D01*
X103960000Y-143017814D01*
X103960000Y-142732186D01*
X104015722Y-142452052D01*
X104125026Y-142188169D01*
X104125027Y-142188167D01*
X104283711Y-141950679D01*
X104485679Y-141748711D01*
X104723167Y-141590027D01*
X104723169Y-141590026D01*
X104987052Y-141480722D01*
X105267186Y-141425000D01*
X105552814Y-141425000D01*
X105832948Y-141480722D01*
G37*
G36*
X103094354Y-143652097D02*
G01*
X103205443Y-143674194D01*
X103328039Y-143724976D01*
X103414728Y-143760883D01*
X103603081Y-143886736D01*
X103763264Y-144046919D01*
X103889117Y-144235272D01*
X103903202Y-144269277D01*
X103975806Y-144444557D01*
X104020000Y-144666735D01*
X104020000Y-144893265D01*
X103975806Y-145115443D01*
X103925024Y-145238039D01*
X103889117Y-145324728D01*
X103763264Y-145513081D01*
X103603081Y-145673264D01*
X103414728Y-145799117D01*
X103328039Y-145835024D01*
X103205443Y-145885806D01*
X103094354Y-145907903D01*
X102983267Y-145930000D01*
X102756733Y-145930000D01*
X102645646Y-145907903D01*
X102534557Y-145885806D01*
X102411961Y-145835024D01*
X102325272Y-145799117D01*
X102136919Y-145673264D01*
X101976736Y-145513081D01*
X101850883Y-145324728D01*
X101814976Y-145238039D01*
X101764194Y-145115443D01*
X101720000Y-144893265D01*
X101720000Y-144666735D01*
X101764194Y-144444557D01*
X101836798Y-144269277D01*
X101850883Y-144235272D01*
X101976736Y-144046919D01*
X102136919Y-143886736D01*
X102325272Y-143760883D01*
X102411961Y-143724976D01*
X102534557Y-143674194D01*
X102645646Y-143652097D01*
X102756733Y-143630000D01*
X102983267Y-143630000D01*
X103094354Y-143652097D01*
G37*
G36*
X100832948Y-141480722D02*
G01*
X101096831Y-141590026D01*
X101096833Y-141590027D01*
X101334321Y-141748711D01*
X101536289Y-141950679D01*
X101694973Y-142188167D01*
X101694974Y-142188169D01*
X101804278Y-142452052D01*
X101860000Y-142732186D01*
X101860000Y-143017814D01*
X101804278Y-143297948D01*
X101694974Y-143561831D01*
X101694973Y-143561833D01*
X101536289Y-143799321D01*
X101334321Y-144001289D01*
X101278033Y-144038900D01*
X101270460Y-144045114D01*
X101264242Y-144052691D01*
X101259622Y-144061335D01*
X101256777Y-144070715D01*
X101255816Y-144080469D01*
X101256777Y-144090223D01*
X101259622Y-144099603D01*
X101264242Y-144108247D01*
X101349117Y-144235272D01*
X101363202Y-144269277D01*
X101435806Y-144444557D01*
X101480000Y-144666735D01*
X101480000Y-144893265D01*
X101435806Y-145115443D01*
X101385024Y-145238039D01*
X101349117Y-145324728D01*
X101223264Y-145513081D01*
X101063081Y-145673264D01*
X100874728Y-145799117D01*
X100788039Y-145835024D01*
X100665443Y-145885806D01*
X100554354Y-145907903D01*
X100443267Y-145930000D01*
X100216733Y-145930000D01*
X100105646Y-145907903D01*
X99994557Y-145885806D01*
X99871961Y-145835024D01*
X99785272Y-145799117D01*
X99596919Y-145673264D01*
X99436736Y-145513081D01*
X99310883Y-145324728D01*
X99274976Y-145238039D01*
X99224194Y-145115443D01*
X99180000Y-144893265D01*
X99180000Y-144666735D01*
X99224194Y-144444557D01*
X99296798Y-144269277D01*
X99310883Y-144235272D01*
X99436736Y-144046919D01*
X99448668Y-144034987D01*
X99454886Y-144027410D01*
X99459506Y-144018766D01*
X99462351Y-144009386D01*
X99463312Y-143999632D01*
X99462351Y-143989878D01*
X99459506Y-143980498D01*
X99454886Y-143971854D01*
X99448673Y-143964283D01*
X99283711Y-143799321D01*
X99125027Y-143561833D01*
X99125026Y-143561831D01*
X99015722Y-143297948D01*
X98960000Y-143017814D01*
X98960000Y-142732186D01*
X99015722Y-142452052D01*
X99125026Y-142188169D01*
X99125027Y-142188167D01*
X99283711Y-141950679D01*
X99485679Y-141748711D01*
X99723167Y-141590027D01*
X99723169Y-141590026D01*
X99987052Y-141480722D01*
X100267186Y-141425000D01*
X100552814Y-141425000D01*
X100832948Y-141480722D01*
G37*
M02*
