<?xml version="1.0" encoding="UTF-8" standalone="no"?>
<!-- Created with Inkscape (http://www.inkscape.org/) -->

<svg
   width="66mm"
   height="121mm"
   viewBox="0 0 65.999999 121"
   version="1.1"
   id="svg8"
   inkscape:version="1.4 (e7c3feb100, 2024-10-09)"
   sodipodi:docname="ТКП-6.2.4-T-B1.1_svg_dirty.svg"
   xml:space="preserve"
   xmlns:inkscape="http://www.inkscape.org/namespaces/inkscape"
   xmlns:sodipodi="http://sodipodi.sourceforge.net/DTD/sodipodi-0.dtd"
   xmlns="http://www.w3.org/2000/svg"
   xmlns:svg="http://www.w3.org/2000/svg"
   xmlns:rdf="http://www.w3.org/1999/02/22-rdf-syntax-ns#"
   xmlns:cc="http://creativecommons.org/ns#"
   xmlns:dc="http://purl.org/dc/elements/1.1/"><title
     id="title16">Great Depression Phaser</title><defs
     id="defs2" /><sodipodi:namedview
     id="base"
     pagecolor="#ffffff"
     bordercolor="#666666"
     borderopacity="1.0"
     inkscape:pageopacity="0.0"
     inkscape:pageshadow="2"
     inkscape:zoom="1.8455234"
     inkscape:cx="124.89682"
     inkscape:cy="228.66142"
     inkscape:document-units="mm"
     inkscape:current-layer="layer1"
     showgrid="false"
     inkscape:window-width="1920"
     inkscape:window-height="1053"
     inkscape:window-x="0"
     inkscape:window-y="0"
     inkscape:window-maximized="1"
     inkscape:showpageshadow="0"
     inkscape:pagecheckerboard="1"
     inkscape:deskcolor="#505050"><inkscape:page
       x="0"
       y="0"
       width="66"
       height="121"
       id="page1"
       margin="0"
       bleed="0" /></sodipodi:namedview><metadata
     id="metadata5"><rdf:RDF><cc:Work
         rdf:about=""><dc:format>image/svg+xml</dc:format><dc:type
           rdf:resource="http://purl.org/dc/dcmitype/StillImage" /><dc:title>Great Depression Phaser</dc:title><dc:creator><cc:Agent><dc:title>Igor Ivanov</dc:title></cc:Agent></dc:creator><dc:date>09.01.2025</dc:date><cc:license
           rdf:resource="http://creativecommons.org/licenses/by-sa/4.0/" /><dc:identifier>ТКП-6.2.4-T-B1</dc:identifier><dc:contributor><cc:Agent><dc:title>Denis Ignatov (http://mutno.me)
Indian Type Foundry (http://indiantypefoundry.com)</dc:title></cc:Agent></dc:contributor></cc:Work><cc:License
         rdf:about="http://creativecommons.org/licenses/by-sa/4.0/"><cc:permits
           rdf:resource="http://creativecommons.org/ns#Reproduction" /><cc:permits
           rdf:resource="http://creativecommons.org/ns#Distribution" /><cc:requires
           rdf:resource="http://creativecommons.org/ns#Notice" /><cc:requires
           rdf:resource="http://creativecommons.org/ns#Attribution" /><cc:permits
           rdf:resource="http://creativecommons.org/ns#DerivativeWorks" /><cc:requires
           rdf:resource="http://creativecommons.org/ns#ShareAlike" /></cc:License></rdf:RDF></metadata><g
     inkscape:label="Layer 1"
     inkscape:groupmode="layer"
     id="layer1"
     transform="translate(0,-176)"><g
       id="collision"
       transform="matrix(0.26458333,0,0,0.26458333,-72.409997,87.873306)"><path
         id="path1"
         d="m 29728.3,82248.9 -106.3,-4.6 -105.6,-13.9 -103.9,-23.1 -101.6,-32 -98.3,-40.8 -94.5,-49.1 -89.8,-57.2 -84.5,-64.8 -78.5,-72 -71.9,-78.5 -64.8,-84.4 -57.2,-89.8 -49.2,-94.5 -40.7,-98.3 -32,-101.6 -23.1,-103.9 -13.9,-105.6 -4.6,-106.4"
         style="fill:none;stroke:#000000;stroke-width:157.48;stroke-linecap:round;stroke-linejoin:round;stroke-miterlimit:10;stroke-dasharray:none;stroke-opacity:1"
         transform="matrix(0.0096,0,0,-0.0096,0,1122.6667)" /><path
         id="path2"
         d="m 54492.1,81028.4 -4.6,106.4 -13.9,105.6 -23.1,103.9 -32,101.6 -40.7,98.3 -49.2,94.5 -57.2,89.8 -64.8,84.4 -71.9,78.5 -78.5,72 -84.5,64.8 -89.8,57.2 -94.5,49.1 -98.3,40.8 -101.6,32 -103.9,23.1 -105.6,13.9 -106.3,4.6"
         style="fill:none;stroke:#000000;stroke-width:157.48;stroke-linecap:round;stroke-linejoin:round;stroke-miterlimit:10;stroke-dasharray:none;stroke-opacity:1"
         transform="matrix(0.0096,0,0,-0.0096,0,1122.6667)" /><path
         id="path3"
         d="m 28507.9,35831.6 4.6,-106.4 13.9,-105.6 23.1,-103.9 32,-101.6 40.7,-98.3 49.2,-94.5 57.2,-89.8 64.8,-84.4 71.9,-78.5 78.5,-72 84.5,-64.8 89.8,-57.2 94.5,-49.1 98.3,-40.8 101.6,-32 103.9,-23.1 105.6,-13.9 106.3,-4.6"
         style="fill:none;stroke:#000000;stroke-width:157.48;stroke-linecap:round;stroke-linejoin:round;stroke-miterlimit:10;stroke-dasharray:none;stroke-opacity:1"
         transform="matrix(0.0096,0,0,-0.0096,0,1122.6667)" /><path
         id="path4"
         d="m 53271.7,34611.1 106.3,4.6 105.6,13.9 103.9,23.1 101.6,32 98.3,40.8 94.5,49.1 89.8,57.2 84.5,64.8 78.5,72 71.9,78.5 64.8,84.4 57.2,89.8 49.2,94.5 40.7,98.3 32,101.6 23.1,103.9 13.9,105.6 4.6,106.4"
         style="fill:none;stroke:#000000;stroke-width:157.48;stroke-linecap:round;stroke-linejoin:round;stroke-miterlimit:10;stroke-dasharray:none;stroke-opacity:1"
         transform="matrix(0.0096,0,0,-0.0096,0,1122.6667)" /><path
         id="path5"
         d="m 43759.8,70851.3 c 0,2063.7 1676.4,3740.1 3740.2,3740.1 2063.8,0 3740.2,-1676.4 3740.2,-3740.1 0,-2063.8 -1676.4,-3740.2 -3740.2,-3740.2 -2063.8,0 -3740.2,1676.4 -3740.2,3740.2 z"
         style="fill:none;stroke:#000000;stroke-width:157.48;stroke-linecap:round;stroke-linejoin:round;stroke-miterlimit:10;stroke-dasharray:none;stroke-opacity:1"
         transform="matrix(0.0096,0,0,-0.0096,0,1122.6667)" /><path
         id="path6"
         d="m 31759.8,70851.3 c 0,2063.7 1676.4,3740.1 3740.2,3740.1 2063.8,0 3740.2,-1676.4 3740.2,-3740.1 0,-2063.8 -1676.4,-3740.2 -3740.2,-3740.2 -2063.8,0 -3740.2,1676.4 -3740.2,3740.2 z"
         style="fill:none;stroke:#000000;stroke-width:157.48;stroke-linecap:round;stroke-linejoin:round;stroke-miterlimit:10;stroke-dasharray:none;stroke-opacity:1"
         transform="matrix(0.0096,0,0,-0.0096,0,1122.6667)" /><path
         id="path7"
         d="m 50582.7,37930 c 0,325.9 264.7,590.6 590.5,590.6 325.9,0 590.6,-264.7 590.6,-590.6 0,-325.9 -264.7,-590.6 -590.6,-590.6 -325.8,0 -590.5,264.7 -590.5,590.6 z"
         style="fill:none;stroke:#000000;stroke-width:157.48;stroke-linecap:round;stroke-linejoin:round;stroke-miterlimit:10;stroke-dasharray:none;stroke-opacity:1"
         transform="matrix(0.0096,0,0,-0.0096,0,1122.6667)" /><path
         id="path8"
         d="m 31236.2,37930 c 0,325.9 264.7,590.6 590.6,590.6 325.8,0 590.5,-264.7 590.5,-590.6 0,-325.9 -264.7,-590.6 -590.5,-590.6 -325.9,0 -590.6,264.7 -590.6,590.6 z"
         style="fill:none;stroke:#000000;stroke-width:157.48;stroke-linecap:round;stroke-linejoin:round;stroke-miterlimit:10;stroke-dasharray:none;stroke-opacity:1"
         transform="matrix(0.0096,0,0,-0.0096,0,1122.6667)" /><path
         id="path9"
         d="m 50582.7,78930 c 0,325.9 264.7,590.6 590.5,590.6 325.9,0 590.6,-264.7 590.6,-590.6 0,-325.9 -264.7,-590.6 -590.6,-590.6 -325.8,0 -590.5,264.7 -590.5,590.6 z"
         style="fill:none;stroke:#000000;stroke-width:157.48;stroke-linecap:round;stroke-linejoin:round;stroke-miterlimit:10;stroke-dasharray:none;stroke-opacity:1"
         transform="matrix(0.0096,0,0,-0.0096,0,1122.6667)" /><path
         id="path10"
         d="m 31236.2,78930 c 0,325.9 264.7,590.6 590.6,590.6 325.8,0 590.5,-264.7 590.5,-590.6 0,-325.9 -264.7,-590.6 -590.5,-590.6 -325.9,0 -590.6,264.7 -590.6,590.6 z"
         style="fill:none;stroke:#000000;stroke-width:157.48;stroke-linecap:round;stroke-linejoin:round;stroke-miterlimit:10;stroke-dasharray:none;stroke-opacity:1"
         transform="matrix(0.0096,0,0,-0.0096,0,1122.6667)" /><path
         id="path11"
         d="m 50582.7,58930 c 0,325.9 264.7,590.6 590.5,590.6 325.9,0 590.6,-264.7 590.6,-590.6 0,-325.9 -264.7,-590.6 -590.6,-590.6 -325.8,0 -590.5,264.7 -590.5,590.6 z"
         style="fill:none;stroke:#000000;stroke-width:157.48;stroke-linecap:round;stroke-linejoin:round;stroke-miterlimit:10;stroke-dasharray:none;stroke-opacity:1"
         transform="matrix(0.0096,0,0,-0.0096,0,1122.6667)" /><path
         id="path12"
         d="m 31236.2,58930 c 0,325.9 264.7,590.6 590.6,590.6 325.8,0 590.5,-264.7 590.5,-590.6 0,-325.9 -264.7,-590.6 -590.5,-590.6 -325.9,0 -590.6,264.7 -590.6,590.6 z"
         style="fill:none;stroke:#000000;stroke-width:157.48;stroke-linecap:round;stroke-linejoin:round;stroke-miterlimit:10;stroke-dasharray:none;stroke-opacity:1"
         transform="matrix(0.0096,0,0,-0.0096,0,1122.6667)" /><path
         id="path13"
         d="M 54492.1,81028.4 V 35831.6"
         style="fill:none;stroke:#000000;stroke-width:157.48;stroke-linecap:round;stroke-linejoin:round;stroke-miterlimit:10;stroke-dasharray:none;stroke-opacity:1"
         transform="matrix(0.0096,0,0,-0.0096,0,1122.6667)" /><path
         id="path14"
         d="M 28507.9,81028.4 V 35831.6"
         style="fill:none;stroke:#000000;stroke-width:157.48;stroke-linecap:round;stroke-linejoin:round;stroke-miterlimit:10;stroke-dasharray:none;stroke-opacity:1"
         transform="matrix(0.0096,0,0,-0.0096,0,1122.6667)" /><path
         id="path15"
         d="M 29728.3,34611.1 H 53271.7"
         style="fill:none;stroke:#000000;stroke-width:157.48;stroke-linecap:round;stroke-linejoin:round;stroke-miterlimit:10;stroke-dasharray:none;stroke-opacity:1"
         transform="matrix(0.0096,0,0,-0.0096,0,1122.6667)" /><path
         id="path16"
         d="M 29728.3,82248.9 H 53271.7"
         style="fill:none;stroke:#000000;stroke-width:157.48;stroke-linecap:round;stroke-linejoin:round;stroke-miterlimit:10;stroke-dasharray:none;stroke-opacity:1"
         transform="matrix(0.0096,0,0,-0.0096,0,1122.6667)" /><path
         id="path17"
         d="m 40456.7,37930 c 0,575.7 467.6,1043.3 1043.3,1043.3 575.7,0 1043.3,-467.6 1043.3,-1043.3 0,-575.7 -467.6,-1043.3 -1043.3,-1043.3 -575.7,0 -1043.3,467.6 -1043.3,1043.3 z"
         style="fill:none;stroke:#000000;stroke-width:157.48;stroke-linecap:round;stroke-linejoin:round;stroke-miterlimit:10;stroke-dasharray:none;stroke-opacity:1"
         transform="matrix(0.0096,0,0,-0.0096,0,1122.6667)" /><path
         id="path18"
         d="m 34082.7,70851.3 c 0,782 635.2,1417.3 1417.3,1417.3 782.1,0 1417.3,-635.3 1417.3,-1417.3 0,-782.1 -635.2,-1417.4 -1417.3,-1417.4 -782.1,0 -1417.3,635.3 -1417.3,1417.4 z"
         style="fill:none;stroke:#000000;stroke-width:157.48;stroke-linecap:round;stroke-linejoin:round;stroke-miterlimit:10;stroke-dasharray:none;stroke-opacity:1"
         transform="matrix(0.0096,0,0,-0.0096,0,1122.6667)" /><path
         id="path19"
         d="m 46082.7,70851.3 c 0,782 635.2,1417.3 1417.3,1417.3 782.1,0 1417.3,-635.3 1417.3,-1417.3 0,-782.1 -635.2,-1417.4 -1417.3,-1417.4 -782.1,0 -1417.3,635.3 -1417.3,1417.4 z"
         style="fill:none;stroke:#000000;stroke-width:157.48;stroke-linecap:round;stroke-linejoin:round;stroke-miterlimit:10;stroke-dasharray:none;stroke-opacity:1"
         transform="matrix(0.0096,0,0,-0.0096,0,1122.6667)" /><path
         id="path20"
         d="m 39137.8,44430 c 0,1303.4 1058.8,2362.2 2362.2,2362.2 1303.4,0 2362.2,-1058.8 2362.2,-2362.2 0,-1303.4 -1058.8,-2362.2 -2362.2,-2362.2 -1303.4,0 -2362.2,1058.8 -2362.2,2362.2 z"
         style="fill:none;stroke:#000000;stroke-width:157.48;stroke-linecap:round;stroke-linejoin:round;stroke-miterlimit:10;stroke-dasharray:none;stroke-opacity:1"
         transform="matrix(0.0096,0,0,-0.0096,0,1122.6667)" /><path
         id="path21"
         d="m 30704.7,78930 c 0,619.1 502.9,1122 1122.1,1122 619.1,0 1122,-502.9 1122,-1122 0,-619.1 -502.9,-1122 -1122,-1122 -619.2,0 -1122.1,502.9 -1122.1,1122 z"
         style="fill:none;stroke:#000000;stroke-width:157.48;stroke-linecap:round;stroke-linejoin:round;stroke-miterlimit:10;stroke-dasharray:none;stroke-opacity:1"
         transform="matrix(0.0096,0,0,-0.0096,0,1122.6667)" /><path
         id="path22"
         d="m 50051.2,78930 c 0,619.1 502.9,1122 1122,1122 619.2,0 1122.1,-502.9 1122.1,-1122 0,-619.1 -502.9,-1122 -1122.1,-1122 -619.1,0 -1122,502.9 -1122,1122 z"
         style="fill:none;stroke:#000000;stroke-width:157.48;stroke-linecap:round;stroke-linejoin:round;stroke-miterlimit:10;stroke-dasharray:none;stroke-opacity:1"
         transform="matrix(0.0096,0,0,-0.0096,0,1122.6667)" /><path
         id="path23"
         d="m 30704.7,58930 c 0,619.1 502.9,1122 1122.1,1122 619.1,0 1122,-502.9 1122,-1122 0,-619.1 -502.9,-1122 -1122,-1122 -619.2,0 -1122.1,502.9 -1122.1,1122 z"
         style="fill:none;stroke:#000000;stroke-width:157.48;stroke-linecap:round;stroke-linejoin:round;stroke-miterlimit:10;stroke-dasharray:none;stroke-opacity:1"
         transform="matrix(0.0096,0,0,-0.0096,0,1122.6667)" /><path
         id="path24"
         d="m 50051.2,58930 c 0,619.1 502.9,1122 1122,1122 619.2,0 1122.1,-502.9 1122.1,-1122 0,-619.1 -502.9,-1122 -1122.1,-1122 -619.1,0 -1122,502.9 -1122,1122 z"
         style="fill:none;stroke:#000000;stroke-width:157.48;stroke-linecap:round;stroke-linejoin:round;stroke-miterlimit:10;stroke-dasharray:none;stroke-opacity:1"
         transform="matrix(0.0096,0,0,-0.0096,0,1122.6667)" /><path
         id="path25"
         d="m 30704.7,37930 c 0,619.1 502.9,1122 1122.1,1122 619.1,0 1122,-502.9 1122,-1122 0,-619.1 -502.9,-1122 -1122,-1122 -619.2,0 -1122.1,502.9 -1122.1,1122 z"
         style="fill:none;stroke:#000000;stroke-width:157.48;stroke-linecap:round;stroke-linejoin:round;stroke-miterlimit:10;stroke-dasharray:none;stroke-opacity:1"
         transform="matrix(0.0096,0,0,-0.0096,0,1122.6667)" /><path
         id="path26"
         d="m 50051.2,37930 c 0,619.1 502.9,1122 1122,1122 619.2,0 1122.1,-502.9 1122.1,-1122 0,-619.1 -502.9,-1122 -1122.1,-1122 -619.1,0 -1122,502.9 -1122,1122 z"
         style="fill:none;stroke:#000000;stroke-width:157.48;stroke-linecap:round;stroke-linejoin:round;stroke-miterlimit:10;stroke-dasharray:none;stroke-opacity:1"
         transform="matrix(0.0096,0,0,-0.0096,0,1122.6667)" /><path
         id="path27"
         d="m 37563,44430 c 0,2172.4 1764.6,3937 3937,3937 2172.4,0 3937,-1764.6 3937,-3937 0,-2172.4 -1764.6,-3937 -3937,-3937 -2172.4,0 -3937,1764.6 -3937,3937 z"
         style="fill:none;stroke:#000000;stroke-width:157.48;stroke-linecap:round;stroke-linejoin:round;stroke-miterlimit:10;stroke-dasharray:none;stroke-opacity:1"
         transform="matrix(0.0096,0,0,-0.0096,0,1122.6667)" /></g><path
       style="stroke-width:0.999602;stroke-linecap:round;stroke-linejoin:round;stroke-miterlimit:10"
       d="m 17.760001,180.37009 c -0.09441,4.5e-4 -0.180518,0.0541 -0.222569,0.13861 l -1.270978,2.54001 c -0.08274,0.16643 0.03867,0.36173 0.22452,0.36119 h 2.538052 c 0.185859,5.4e-4 0.307261,-0.19476 0.22452,-0.36119 L 17.98452,180.5087 c -0.04236,-0.0852 -0.129399,-0.1389 -0.224519,-0.13861 z"
       id="out"
       sodipodi:nodetypes="cccccccc" /><path
       style="stroke-width:0.999602;stroke-linecap:round;stroke-linejoin:round;stroke-miterlimit:10"
       d="m 48.240002,183.4099 c -0.09441,-4.5e-4 -0.180518,-0.0541 -0.222569,-0.13861 l -1.270978,-2.54001 c -0.08274,-0.16643 0.03867,-0.36173 0.22452,-0.36119 h 2.538052 c 0.185859,-5.4e-4 0.307261,0.19476 0.22452,0.36119 l -1.269026,2.54001 c -0.04236,0.0852 -0.129399,0.1389 -0.224519,0.13861 z"
       id="in"
       sodipodi:nodetypes="cccccccc" /><g
       transform="matrix(0.00254,0,0,-0.00254,-72.410074,391.26223)"
       id="power"><path
         id="plus_frame"
         style="color:#000000;fill:#000000;stroke-linecap:round;stroke-linejoin:round;stroke-miterlimit:10;-inkscape-stroke:none"
         d="m 39500.009,77028.461 c -329.197,0 -598.348,-269.355 -598.348,-598.552 0,-329.197 269.151,-598.348 598.348,-598.348 295.705,0 542.744,217.283 590.006,500.082 h 819.703 l 0.203,-1.221 a 98.434846,98.434846 0 0 1 1.628,-8.342 l 9.358,-42.724 a 98.434846,98.434846 0 0 1 2.238,-8.545 l 13.225,-41.504 a 98.434846,98.434846 0 0 1 2.848,-7.731 l 16.479,-40.283 a 98.434846,98.434846 0 0 1 3.866,-8.138 l 20.141,-38.656 a 98.434846,98.434846 0 0 1 4.273,-7.324 l 23.397,-36.825 a 98.434846,98.434846 0 0 1 5.086,-7.121 l 26.449,-34.586 a 98.434846,98.434846 0 0 1 5.493,-6.511 l 29.297,-32.145 a 98.434846,98.434846 0 0 1 6.307,-6.307 l 32.145,-29.297 a 98.434846,98.434846 0 0 1 6.51,-5.493 l 34.587,-26.448 a 98.434846,98.434846 0 0 1 7.121,-5.087 l 36.824,-23.396 a 98.434846,98.434846 0 0 1 7.324,-4.273 l 38.656,-20.141 a 98.434846,98.434846 0 0 1 8.138,-3.663 l 40.283,-16.682 a 98.434846,98.434846 0 0 1 7.731,-2.849 l 41.504,-13.224 a 98.434846,98.434846 0 0 1 8.545,-2.238 l 42.521,-9.359 a 98.434846,98.434846 0 0 1 8.342,-1.424 l 43.335,-5.697 a 98.434846,98.434846 0 0 1 8.545,-0.813 l 43.538,-1.831 a 98.425003,98.425003 0 0 1 102.743,93.994 98.425003,98.425003 0 0 1 -94.198,102.539 l -39.266,1.831 -34.587,4.476 -34.179,7.527 -33.57,10.58 -32.348,13.428 -30.925,16.072 -29.704,18.921 -27.669,21.362 -25.838,23.601 -23.6,25.838 -21.363,27.873 -18.92,29.5 -16.073,30.924 -13.428,32.552 -10.579,33.366 -7.528,34.18 -4.679,34.587 -1.424,34.993 1.424,34.994 4.679,34.79 7.528,34.179 10.579,33.366 13.428,32.552 16.073,30.925 18.92,29.5 21.363,27.873 23.6,25.838 25.838,23.6 27.669,21.363 29.704,18.717 30.925,16.276 32.348,13.428 33.57,10.579 34.179,7.528 34.587,4.476 39.266,1.831 a 98.425003,98.425003 0 0 1 94.198,102.539 98.425003,98.425003 0 0 1 -102.743,93.994 l -43.538,-1.831 a 98.434846,98.434846 0 0 1 -8.545,-0.814 l -43.335,-5.696 a 98.434846,98.434846 0 0 1 -8.342,-1.425 l -42.521,-9.358 a 98.434846,98.434846 0 0 1 -8.545,-2.238 l -41.504,-13.224 a 98.434846,98.434846 0 0 1 -7.731,-2.849 l -40.283,-16.683 a 98.434846,98.434846 0 0 1 -8.138,-3.662 l -38.656,-20.141 a 98.434846,98.434846 0 0 1 -7.324,-4.273 l -36.824,-23.397 a 98.434846,98.434846 0 0 1 -7.121,-5.086 l -34.587,-26.449 a 98.434846,98.434846 0 0 1 -6.51,-5.493 l -32.145,-29.297 a 98.434846,98.434846 0 0 1 -6.307,-6.307 l -29.297,-32.348 a 98.434846,98.434846 0 0 1 -5.493,-6.307 l -26.449,-34.587 a 98.434846,98.434846 0 0 1 -5.086,-7.12 l -23.397,-36.825 a 98.434846,98.434846 0 0 1 -4.273,-7.324 l -20.141,-38.656 a 98.434846,98.434846 0 0 1 -3.866,-8.138 l -16.479,-40.283 a 98.434846,98.434846 0 0 1 -2.848,-7.731 l -13.225,-41.504 a 98.434846,98.434846 0 0 1 -2.238,-8.545 l -9.358,-42.725 a 98.434846,98.434846 0 0 1 -1.628,-8.341 l -0.203,-1.221 h -819.703 c -47.283,282.774 -294.319,500.082 -590.006,500.082 z m 0,-196.941 c 222.603,0 401.611,-179.008 401.611,-401.611 0,-222.603 -179.008,-401.408 -401.611,-401.408 -222.603,0 -401.611,178.805 -401.611,401.408 0,222.603 179.008,401.611 401.611,401.611 z" /><path
         id="plus"
         style="color:#000000;fill:#000000;stroke-linecap:round;stroke-linejoin:round;stroke-miterlimit:10;-inkscape-stroke:none"
         d="m 39500.009,76729.185 a 49.212601,49.212601 0 0 1 -49.235,-49.235 v -200.806 h -200.806 a 49.212601,49.212601 0 0 1 -49.235,-49.235 49.212601,49.212601 0 0 1 49.235,-49.031 h 200.806 v -200.806 a 49.212601,49.212601 0 0 1 49.235,-49.235 49.212601,49.212601 0 0 1 49.235,49.235 v 200.806 h 200.806 a 49.212601,49.212601 0 0 1 49.235,49.031 49.212601,49.212601 0 0 1 -49.235,49.235 h -200.806 v 200.806 a 49.212601,49.212601 0 0 1 -49.235,49.235 z"
         transform="translate(2.460631e-5,7.3818912e-5)" /><path
         id="minus_frame"
         style="color:#000000;fill:#000000;stroke-linecap:round;stroke-linejoin:round;stroke-miterlimit:10;-inkscape-stroke:none"
         d="m 43500.05,77028.461 c -295.688,0 -542.927,-217.308 -590.21,-500.082 h -1240.031 c -34.35,58.556 -97.976,98.47 -169.882,98.47 -107.59,0 -196.736,-89.349 -196.736,-196.94 0,-107.591 89.146,-196.737 196.736,-196.737 71.906,0 135.532,39.915 169.882,98.471 h 1240.031 c 47.262,-282.799 294.505,-500.082 590.21,-500.082 329.196,0 598.348,269.151 598.348,598.348 0,329.197 -269.152,598.552 -598.348,598.552 z m 0,-196.941 c 222.602,0 401.611,-179.008 401.611,-401.611 0,-222.603 -179.009,-401.408 -401.611,-401.408 -222.603,0 -401.612,178.805 -401.612,401.408 0,222.603 179.009,401.611 401.612,401.611 z"
         transform="translate(2.460631e-5,7.3818912e-5)" /><path
         style="color:#000000;fill:#000000;stroke-linecap:round;stroke-linejoin:round;stroke-miterlimit:10;-inkscape-stroke:none"
         d="m 43250,76380.787 a 49.212601,49.212601 0 0 0 -49.213,49.213 49.212601,49.212601 0 0 0 49.213,49.213 h 500 a 49.212601,49.212601 0 0 0 49.213,-49.213 49.212601,49.212601 0 0 0 -49.213,-49.213 z"
         id="minus" /></g><g
       id="skyscraper_left"><path
         d="m 18.181075,249.69606 h -0.833538 l 0.229643,-1.94851 c 0.02738,-0.23222 -0.04585,-0.46523 -0.201299,-0.64003 -0.15537,-0.1748 -0.378108,-0.27477 -0.612006,-0.27477 h -1.737736 l -1.032509,-2.61038 c -0.123573,-0.31243 -0.425481,-0.51774 -0.761514,-0.51774 h -0.913191 v -1.93671 c 0,-0.45229 -0.366625,-0.81892 -0.818925,-0.81892 -0.452299,0 -0.818925,0.36663 -0.818925,0.81892 v 1.93671 H 9.7678844 c -0.336033,0 -0.6379408,0.20523 -0.7615142,0.51774 l -1.0324284,2.61038 H 6.2362054 c -0.2338982,0 -0.4566355,0.1 -0.6120057,0.27477 -0.1554504,0.1748 -0.2286791,0.40773 -0.2012986,0.64003 l 0.2296427,1.94851 H 4.8190052 c -0.4522997,0 -0.8189249,0.36662 -0.8189249,0.81892 v 30.72595 H 4 c 0,0.4523 0.3666253,0.81892 0.8189249,0.81892 H 18.181075 c 0.4523,0 0.818925,-0.36662 0.818925,-0.81892 v -30.72595 c 0,-0.4523 -0.366625,-0.81892 -0.818925,-0.81892 z m -7.856508,-4.3535 h 2.350786 l 0.589363,1.49011 H 9.7351242 Z m 5.518168,3.12804 -0.14437,1.22538 H 7.3016349 L 7.1572651,248.4706 Z m 1.519416,31.9514 H 5.6378498 v -2.01154 H 17.362151 Z m 0,-3.64939 H 5.6378498 v -25.4387 H 17.362151 Z"
         id="path1-0"
         style="fill:#000000;stroke-width:0.0802147;stroke-dasharray:none" /><path
         d="m 7.3665129,272.88515 c -0.4522996,0 -0.8189249,0.36662 -0.8189249,0.81892 v 1.05724 c 0,0.4523 0.3666253,0.81892 0.8189249,0.81892 0.4522997,0 0.818925,-0.36662 0.818925,-0.81892 v -1.05724 c 0,-0.45222 -0.3666253,-0.81892 -0.818925,-0.81892 z"
         id="path2-0"
         style="fill:#000000;stroke-width:0.0802147;stroke-dasharray:none" /><path
         d="m 10.122144,272.88515 c -0.4522993,0 -0.8189246,0.36662 -0.8189246,0.81892 v 1.05724 c 0,0.4523 0.3666253,0.81892 0.8189246,0.81892 0.4523,0 0.818925,-0.36662 0.818925,-0.81892 v -1.05724 c 0,-0.45222 -0.366625,-0.81892 -0.818925,-0.81892 z"
         id="path4-5"
         style="fill:#000000;stroke-width:0.0802147;stroke-dasharray:none" /><path
         d="m 12.877856,272.88515 c -0.4523,0 -0.818925,0.36662 -0.818925,0.81892 v 1.05724 c 0,0.4523 0.366625,0.81892 0.818925,0.81892 0.4523,0 0.818925,-0.36662 0.818925,-0.81892 v -1.05724 c 0,-0.45222 -0.366625,-0.81892 -0.818925,-0.81892 z"
         id="path6-0"
         style="fill:#000000;stroke-width:0.0802147;stroke-dasharray:none" /><path
         d="m 15.633487,272.88515 c -0.452299,0 -0.818924,0.36662 -0.818924,0.81892 v 1.05724 c 0,0.4523 0.366625,0.81892 0.818924,0.81892 0.4523,0 0.818925,-0.36662 0.818925,-0.81892 v -1.05724 c 8.1e-5,-0.45222 -0.366625,-0.81892 -0.818925,-0.81892 z"
         id="path8-3"
         style="fill:#000000;stroke-width:0.0802147;stroke-dasharray:none" /><path
         d="m 7.3665129,268.90028 c -0.4522996,0 -0.8189249,0.36663 -0.8189249,0.81893 v 1.05724 c 0,0.4523 0.3666253,0.81892 0.8189249,0.81892 0.4522997,0 0.818925,-0.36662 0.818925,-0.81892 v -1.05724 c 0,-0.4523 -0.3666253,-0.81893 -0.818925,-0.81893 z"
         id="path10-1"
         style="fill:#000000;stroke-width:0.0802147;stroke-dasharray:none" /><path
         d="m 10.122144,268.90028 c -0.4522993,0 -0.8189246,0.36663 -0.8189246,0.81893 v 1.05724 c 0,0.4523 0.3666253,0.81892 0.8189246,0.81892 0.4523,0 0.818925,-0.36662 0.818925,-0.81892 v -1.05724 c 0,-0.4523 -0.366625,-0.81893 -0.818925,-0.81893 z"
         id="path12-8"
         style="fill:#000000;stroke-width:0.0802147;stroke-dasharray:none" /><path
         d="m 12.877856,268.90028 c -0.4523,0 -0.818925,0.36663 -0.818925,0.81893 v 1.05724 c 0,0.4523 0.366625,0.81892 0.818925,0.81892 0.4523,0 0.818925,-0.36662 0.818925,-0.81892 v -1.05724 c 0,-0.4523 -0.366625,-0.81893 -0.818925,-0.81893 z"
         id="path14-0"
         style="fill:#000000;stroke-width:0.0802147;stroke-dasharray:none" /><path
         d="m 15.633487,268.90028 c -0.452299,0 -0.818924,0.36663 -0.818924,0.81893 v 1.05724 c 0,0.4523 0.366625,0.81892 0.818924,0.81892 0.4523,0 0.818925,-0.36662 0.818925,-0.81892 v -1.05724 c 8.1e-5,-0.4523 -0.366625,-0.81893 -0.818925,-0.81893 z"
         id="path16-1"
         style="fill:#000000;stroke-width:0.0802147;stroke-dasharray:none" /><path
         d="m 7.3665129,264.834 c -0.4522996,0 -0.8189249,0.36663 -0.8189249,0.81893 v 1.05724 c 0,0.4523 0.3666253,0.81892 0.8189249,0.81892 0.4522997,0 0.818925,-0.36662 0.818925,-0.81892 v -1.05724 c 0,-0.4523 -0.3666253,-0.81893 -0.818925,-0.81893 z"
         id="path18-7"
         style="fill:#000000;stroke-width:0.0802147;stroke-dasharray:none" /><path
         d="m 10.122144,264.834 c -0.4522993,0 -0.8189246,0.36663 -0.8189246,0.81893 v 1.05724 c 0,0.4523 0.3666253,0.81892 0.8189246,0.81892 0.4523,0 0.818925,-0.36662 0.818925,-0.81892 v -1.05724 c 0,-0.4523 -0.366625,-0.81893 -0.818925,-0.81893 z"
         id="path20-9"
         style="fill:#000000;stroke-width:0.0802147;stroke-dasharray:none" /><path
         d="m 12.877856,264.834 c -0.4523,0 -0.818925,0.36663 -0.818925,0.81893 v 1.05724 c 0,0.4523 0.366625,0.81892 0.818925,0.81892 0.4523,0 0.818925,-0.36662 0.818925,-0.81892 v -1.05724 c 0,-0.4523 -0.366625,-0.81893 -0.818925,-0.81893 z"
         id="path22-1"
         style="fill:#000000;stroke-width:0.0802147;stroke-dasharray:none" /><path
         d="m 15.633487,264.834 c -0.452299,0 -0.818924,0.36663 -0.818924,0.81893 v 1.05724 c 0,0.4523 0.366625,0.81892 0.818924,0.81892 0.4523,0 0.818925,-0.36662 0.818925,-0.81892 v -1.05724 c 8.1e-5,-0.4523 -0.366625,-0.81893 -0.818925,-0.81893 z"
         id="path24-0"
         style="fill:#000000;stroke-width:0.0802147;stroke-dasharray:none" /><path
         d="m 7.3665129,260.84906 c -0.4522996,0 -0.8189249,0.36663 -0.8189249,0.81893 v 1.05723 c 0,0.4523 0.3666253,0.81893 0.8189249,0.81893 0.4522997,0 0.818925,-0.36663 0.818925,-0.81893 v -1.05723 c 0,-0.4523 -0.3666253,-0.81893 -0.818925,-0.81893 z"
         id="path26-3"
         style="fill:#000000;stroke-width:0.0802147;stroke-dasharray:none" /><path
         d="m 10.122144,260.84906 c -0.4522993,0 -0.8189246,0.36663 -0.8189246,0.81893 v 1.05723 c 0,0.4523 0.3666253,0.81893 0.8189246,0.81893 0.4523,0 0.818925,-0.36663 0.818925,-0.81893 v -1.05723 c 0,-0.4523 -0.366625,-0.81893 -0.818925,-0.81893 z"
         id="path28"
         style="fill:#000000;stroke-width:0.0802147;stroke-dasharray:none" /><path
         d="m 12.877856,260.84906 c -0.4523,0 -0.818925,0.36663 -0.818925,0.81893 v 1.05723 c 0,0.4523 0.366625,0.81893 0.818925,0.81893 0.4523,0 0.818925,-0.36663 0.818925,-0.81893 v -1.05723 c 0,-0.4523 -0.366625,-0.81893 -0.818925,-0.81893 z"
         id="path30"
         style="fill:#000000;stroke-width:0.0802147;stroke-dasharray:none" /><path
         d="m 15.633487,260.84906 c -0.452299,0 -0.818924,0.36663 -0.818924,0.81893 v 1.05723 c 0,0.4523 0.366625,0.81893 0.818924,0.81893 0.4523,0 0.818925,-0.36663 0.818925,-0.81893 v -1.05723 c 8.1e-5,-0.4523 -0.366625,-0.81893 -0.818925,-0.81893 z"
         id="path32"
         style="fill:#000000;stroke-width:0.0802147;stroke-dasharray:none" /><path
         d="m 7.3665129,256.70144 c -0.4522996,0 -0.8189249,0.36663 -0.8189249,0.81893 v 1.05724 c 0,0.4523 0.3666253,0.81892 0.8189249,0.81892 0.4522997,0 0.818925,-0.36662 0.818925,-0.81892 v -1.05724 c 0,-0.4523 -0.3666253,-0.81893 -0.818925,-0.81893 z"
         id="path34"
         style="fill:#000000;stroke-width:0.0802147;stroke-dasharray:none" /><path
         d="m 10.122144,256.70144 c -0.4522993,0 -0.8189246,0.36663 -0.8189246,0.81893 v 1.05724 c 0,0.4523 0.3666253,0.81892 0.8189246,0.81892 0.4523,0 0.818925,-0.36662 0.818925,-0.81892 v -1.05724 c 0,-0.4523 -0.366625,-0.81893 -0.818925,-0.81893 z"
         id="path36"
         style="fill:#000000;stroke-width:0.0802147;stroke-dasharray:none" /><path
         d="m 12.877856,256.70144 c -0.4523,0 -0.818925,0.36663 -0.818925,0.81893 v 1.05724 c 0,0.4523 0.366625,0.81892 0.818925,0.81892 0.4523,0 0.818925,-0.36662 0.818925,-0.81892 v -1.05724 c 0,-0.4523 -0.366625,-0.81893 -0.818925,-0.81893 z"
         id="path38"
         style="fill:#000000;stroke-width:0.0802147;stroke-dasharray:none" /><path
         d="m 15.633487,256.70144 c -0.452299,0 -0.818924,0.36663 -0.818924,0.81893 v 1.05724 c 0,0.4523 0.366625,0.81892 0.818924,0.81892 0.4523,0 0.818925,-0.36662 0.818925,-0.81892 v -1.05724 c 8.1e-5,-0.4523 -0.366625,-0.81893 -0.818925,-0.81893 z"
         id="path40"
         style="fill:#000000;stroke-width:0.0802147;stroke-dasharray:none" /><path
         d="m 7.3665129,252.71634 c -0.4522996,0 -0.8189249,0.36662 -0.8189249,0.81892 v 1.05724 c 0,0.4523 0.3666253,0.81893 0.8189249,0.81893 0.4522997,0 0.818925,-0.36663 0.818925,-0.81893 v -1.05724 c 0,-0.45222 -0.3666253,-0.81892 -0.818925,-0.81892 z"
         id="path42"
         style="fill:#000000;stroke-width:0.0802147;stroke-dasharray:none" /><path
         d="m 10.122144,252.71634 c -0.4522993,0 -0.8189246,0.36662 -0.8189246,0.81892 v 1.05724 c 0,0.4523 0.3666253,0.81893 0.8189246,0.81893 0.4523,0 0.818925,-0.36663 0.818925,-0.81893 v -1.05724 c 0,-0.45222 -0.366625,-0.81892 -0.818925,-0.81892 z"
         id="path44"
         style="fill:#000000;stroke-width:0.0802147;stroke-dasharray:none" /><path
         d="m 12.877856,252.71634 c -0.4523,0 -0.818925,0.36662 -0.818925,0.81892 v 1.05724 c 0,0.4523 0.366625,0.81893 0.818925,0.81893 0.4523,0 0.818925,-0.36663 0.818925,-0.81893 v -1.05724 c 0,-0.45222 -0.366625,-0.81892 -0.818925,-0.81892 z"
         id="path46"
         style="fill:#000000;stroke-width:0.0802147;stroke-dasharray:none" /><path
         d="m 15.633487,252.71634 c -0.452299,0 -0.818924,0.36662 -0.818924,0.81892 v 1.05724 c 0,0.4523 0.366625,0.81893 0.818924,0.81893 0.4523,0 0.818925,-0.36663 0.818925,-0.81893 v -1.05724 c 8.1e-5,-0.45222 -0.366625,-0.81892 -0.818925,-0.81892 z"
         id="path48"
         style="fill:#000000;stroke-width:0.0802147;stroke-dasharray:none" /></g><g
       id="skyscraper_right"
       transform="translate(43.000001)"><path
         d="m 18.181075,249.69606 h -0.833538 l 0.229643,-1.94851 c 0.02738,-0.23222 -0.04585,-0.46523 -0.201299,-0.64003 -0.15537,-0.1748 -0.378108,-0.27477 -0.612006,-0.27477 h -1.737736 l -1.032509,-2.61038 c -0.123573,-0.31243 -0.425481,-0.51774 -0.761514,-0.51774 h -0.913191 v -1.93671 c 0,-0.45229 -0.366625,-0.81892 -0.818925,-0.81892 -0.452299,0 -0.818925,0.36663 -0.818925,0.81892 v 1.93671 H 9.7678844 c -0.336033,0 -0.6379408,0.20523 -0.7615142,0.51774 l -1.0324284,2.61038 H 6.2362054 c -0.2338982,0 -0.4566355,0.1 -0.6120057,0.27477 -0.1554504,0.1748 -0.2286791,0.40773 -0.2012986,0.64003 l 0.2296427,1.94851 H 4.8190052 c -0.4522997,0 -0.8189249,0.36662 -0.8189249,0.81892 v 30.72595 H 4 c 0,0.4523 0.3666253,0.81892 0.8189249,0.81892 H 18.181075 c 0.4523,0 0.818925,-0.36662 0.818925,-0.81892 v -30.72595 c 0,-0.4523 -0.366625,-0.81892 -0.818925,-0.81892 z m -7.856508,-4.3535 h 2.350786 l 0.589363,1.49011 H 9.7351242 Z m 5.518168,3.12804 -0.14437,1.22538 H 7.3016349 L 7.1572651,248.4706 Z m 1.519416,31.9514 H 5.6378498 v -2.01154 H 17.362151 Z m 0,-3.64939 H 5.6378498 v -25.4387 H 17.362151 Z"
         id="path1-0-7"
         style="fill:#000000;stroke-width:0.0802147;stroke-dasharray:none" /><path
         d="m 7.3665129,272.88515 c -0.4522996,0 -0.8189249,0.36662 -0.8189249,0.81892 v 1.05724 c 0,0.4523 0.3666253,0.81892 0.8189249,0.81892 0.4522997,0 0.818925,-0.36662 0.818925,-0.81892 v -1.05724 c 0,-0.45222 -0.3666253,-0.81892 -0.818925,-0.81892 z"
         id="path2-0-5"
         style="fill:#000000;stroke-width:0.0802147;stroke-dasharray:none" /><path
         d="m 10.122144,272.88515 c -0.4522993,0 -0.8189246,0.36662 -0.8189246,0.81892 v 1.05724 c 0,0.4523 0.3666253,0.81892 0.8189246,0.81892 0.4523,0 0.818925,-0.36662 0.818925,-0.81892 v -1.05724 c 0,-0.45222 -0.366625,-0.81892 -0.818925,-0.81892 z"
         id="path4-5-35"
         style="fill:#000000;stroke-width:0.0802147;stroke-dasharray:none" /><path
         d="m 12.877856,272.88515 c -0.4523,0 -0.818925,0.36662 -0.818925,0.81892 v 1.05724 c 0,0.4523 0.366625,0.81892 0.818925,0.81892 0.4523,0 0.818925,-0.36662 0.818925,-0.81892 v -1.05724 c 0,-0.45222 -0.366625,-0.81892 -0.818925,-0.81892 z"
         id="path6-0-6"
         style="fill:#000000;stroke-width:0.0802147;stroke-dasharray:none" /><path
         d="m 15.633487,272.88515 c -0.452299,0 -0.818924,0.36662 -0.818924,0.81892 v 1.05724 c 0,0.4523 0.366625,0.81892 0.818924,0.81892 0.4523,0 0.818925,-0.36662 0.818925,-0.81892 v -1.05724 c 8.1e-5,-0.45222 -0.366625,-0.81892 -0.818925,-0.81892 z"
         id="path8-3-2"
         style="fill:#000000;stroke-width:0.0802147;stroke-dasharray:none" /><path
         d="m 7.3665129,268.90028 c -0.4522996,0 -0.8189249,0.36663 -0.8189249,0.81893 v 1.05724 c 0,0.4523 0.3666253,0.81892 0.8189249,0.81892 0.4522997,0 0.818925,-0.36662 0.818925,-0.81892 v -1.05724 c 0,-0.4523 -0.3666253,-0.81893 -0.818925,-0.81893 z"
         id="path10-1-9"
         style="fill:#000000;stroke-width:0.0802147;stroke-dasharray:none" /><path
         d="m 10.122144,268.90028 c -0.4522993,0 -0.8189246,0.36663 -0.8189246,0.81893 v 1.05724 c 0,0.4523 0.3666253,0.81892 0.8189246,0.81892 0.4523,0 0.818925,-0.36662 0.818925,-0.81892 v -1.05724 c 0,-0.4523 -0.366625,-0.81893 -0.818925,-0.81893 z"
         id="path12-8-1"
         style="fill:#000000;stroke-width:0.0802147;stroke-dasharray:none" /><path
         d="m 12.877856,268.90028 c -0.4523,0 -0.818925,0.36663 -0.818925,0.81893 v 1.05724 c 0,0.4523 0.366625,0.81892 0.818925,0.81892 0.4523,0 0.818925,-0.36662 0.818925,-0.81892 v -1.05724 c 0,-0.4523 -0.366625,-0.81893 -0.818925,-0.81893 z"
         id="path14-0-2"
         style="fill:#000000;stroke-width:0.0802147;stroke-dasharray:none" /><path
         d="m 15.633487,268.90028 c -0.452299,0 -0.818924,0.36663 -0.818924,0.81893 v 1.05724 c 0,0.4523 0.366625,0.81892 0.818924,0.81892 0.4523,0 0.818925,-0.36662 0.818925,-0.81892 v -1.05724 c 8.1e-5,-0.4523 -0.366625,-0.81893 -0.818925,-0.81893 z"
         id="path16-1-7"
         style="fill:#000000;stroke-width:0.0802147;stroke-dasharray:none" /><path
         d="m 7.3665129,264.834 c -0.4522996,0 -0.8189249,0.36663 -0.8189249,0.81893 v 1.05724 c 0,0.4523 0.3666253,0.81892 0.8189249,0.81892 0.4522997,0 0.818925,-0.36662 0.818925,-0.81892 v -1.05724 c 0,-0.4523 -0.3666253,-0.81893 -0.818925,-0.81893 z"
         id="path18-7-0"
         style="fill:#000000;stroke-width:0.0802147;stroke-dasharray:none" /><path
         d="m 10.122144,264.834 c -0.4522993,0 -0.8189246,0.36663 -0.8189246,0.81893 v 1.05724 c 0,0.4523 0.3666253,0.81892 0.8189246,0.81892 0.4523,0 0.818925,-0.36662 0.818925,-0.81892 v -1.05724 c 0,-0.4523 -0.366625,-0.81893 -0.818925,-0.81893 z"
         id="path20-9-9"
         style="fill:#000000;stroke-width:0.0802147;stroke-dasharray:none" /><path
         d="m 12.877856,264.834 c -0.4523,0 -0.818925,0.36663 -0.818925,0.81893 v 1.05724 c 0,0.4523 0.366625,0.81892 0.818925,0.81892 0.4523,0 0.818925,-0.36662 0.818925,-0.81892 v -1.05724 c 0,-0.4523 -0.366625,-0.81893 -0.818925,-0.81893 z"
         id="path22-1-36"
         style="fill:#000000;stroke-width:0.0802147;stroke-dasharray:none" /><path
         d="m 15.633487,264.834 c -0.452299,0 -0.818924,0.36663 -0.818924,0.81893 v 1.05724 c 0,0.4523 0.366625,0.81892 0.818924,0.81892 0.4523,0 0.818925,-0.36662 0.818925,-0.81892 v -1.05724 c 8.1e-5,-0.4523 -0.366625,-0.81893 -0.818925,-0.81893 z"
         id="path24-0-0"
         style="fill:#000000;stroke-width:0.0802147;stroke-dasharray:none" /><path
         d="m 7.3665129,260.84906 c -0.4522996,0 -0.8189249,0.36663 -0.8189249,0.81893 v 1.05723 c 0,0.4523 0.3666253,0.81893 0.8189249,0.81893 0.4522997,0 0.818925,-0.36663 0.818925,-0.81893 v -1.05723 c 0,-0.4523 -0.3666253,-0.81893 -0.818925,-0.81893 z"
         id="path26-3-6"
         style="fill:#000000;stroke-width:0.0802147;stroke-dasharray:none" /><path
         d="m 10.122144,260.84906 c -0.4522993,0 -0.8189246,0.36663 -0.8189246,0.81893 v 1.05723 c 0,0.4523 0.3666253,0.81893 0.8189246,0.81893 0.4523,0 0.818925,-0.36663 0.818925,-0.81893 v -1.05723 c 0,-0.4523 -0.366625,-0.81893 -0.818925,-0.81893 z"
         id="path28-2"
         style="fill:#000000;stroke-width:0.0802147;stroke-dasharray:none" /><path
         d="m 12.877856,260.84906 c -0.4523,0 -0.818925,0.36663 -0.818925,0.81893 v 1.05723 c 0,0.4523 0.366625,0.81893 0.818925,0.81893 0.4523,0 0.818925,-0.36663 0.818925,-0.81893 v -1.05723 c 0,-0.4523 -0.366625,-0.81893 -0.818925,-0.81893 z"
         id="path30-6"
         style="fill:#000000;stroke-width:0.0802147;stroke-dasharray:none" /><path
         d="m 15.633487,260.84906 c -0.452299,0 -0.818924,0.36663 -0.818924,0.81893 v 1.05723 c 0,0.4523 0.366625,0.81893 0.818924,0.81893 0.4523,0 0.818925,-0.36663 0.818925,-0.81893 v -1.05723 c 8.1e-5,-0.4523 -0.366625,-0.81893 -0.818925,-0.81893 z"
         id="path32-1"
         style="fill:#000000;stroke-width:0.0802147;stroke-dasharray:none" /><path
         d="m 7.3665129,256.70144 c -0.4522996,0 -0.8189249,0.36663 -0.8189249,0.81893 v 1.05724 c 0,0.4523 0.3666253,0.81892 0.8189249,0.81892 0.4522997,0 0.818925,-0.36662 0.818925,-0.81892 v -1.05724 c 0,-0.4523 -0.3666253,-0.81893 -0.818925,-0.81893 z"
         id="path34-8"
         style="fill:#000000;stroke-width:0.0802147;stroke-dasharray:none" /><path
         d="m 10.122144,256.70144 c -0.4522993,0 -0.8189246,0.36663 -0.8189246,0.81893 v 1.05724 c 0,0.4523 0.3666253,0.81892 0.8189246,0.81892 0.4523,0 0.818925,-0.36662 0.818925,-0.81892 v -1.05724 c 0,-0.4523 -0.366625,-0.81893 -0.818925,-0.81893 z"
         id="path36-79"
         style="fill:#000000;stroke-width:0.0802147;stroke-dasharray:none" /><path
         d="m 12.877856,256.70144 c -0.4523,0 -0.818925,0.36663 -0.818925,0.81893 v 1.05724 c 0,0.4523 0.366625,0.81892 0.818925,0.81892 0.4523,0 0.818925,-0.36662 0.818925,-0.81892 v -1.05724 c 0,-0.4523 -0.366625,-0.81893 -0.818925,-0.81893 z"
         id="path38-2"
         style="fill:#000000;stroke-width:0.0802147;stroke-dasharray:none" /><path
         d="m 15.633487,256.70144 c -0.452299,0 -0.818924,0.36663 -0.818924,0.81893 v 1.05724 c 0,0.4523 0.366625,0.81892 0.818924,0.81892 0.4523,0 0.818925,-0.36662 0.818925,-0.81892 v -1.05724 c 8.1e-5,-0.4523 -0.366625,-0.81893 -0.818925,-0.81893 z"
         id="path40-0"
         style="fill:#000000;stroke-width:0.0802147;stroke-dasharray:none" /><path
         d="m 7.3665129,252.71634 c -0.4522996,0 -0.8189249,0.36662 -0.8189249,0.81892 v 1.05724 c 0,0.4523 0.3666253,0.81893 0.8189249,0.81893 0.4522997,0 0.818925,-0.36663 0.818925,-0.81893 v -1.05724 c 0,-0.45222 -0.3666253,-0.81892 -0.818925,-0.81892 z"
         id="path42-2"
         style="fill:#000000;stroke-width:0.0802147;stroke-dasharray:none" /><path
         d="m 10.122144,252.71634 c -0.4522993,0 -0.8189246,0.36662 -0.8189246,0.81892 v 1.05724 c 0,0.4523 0.3666253,0.81893 0.8189246,0.81893 0.4523,0 0.818925,-0.36663 0.818925,-0.81893 v -1.05724 c 0,-0.45222 -0.366625,-0.81892 -0.818925,-0.81892 z"
         id="path44-3"
         style="fill:#000000;stroke-width:0.0802147;stroke-dasharray:none" /><path
         d="m 12.877856,252.71634 c -0.4523,0 -0.818925,0.36662 -0.818925,0.81892 v 1.05724 c 0,0.4523 0.366625,0.81893 0.818925,0.81893 0.4523,0 0.818925,-0.36663 0.818925,-0.81893 v -1.05724 c 0,-0.45222 -0.366625,-0.81892 -0.818925,-0.81892 z"
         id="path46-7"
         style="fill:#000000;stroke-width:0.0802147;stroke-dasharray:none" /><path
         d="m 15.633487,252.71634 c -0.452299,0 -0.818924,0.36662 -0.818924,0.81892 v 1.05724 c 0,0.4523 0.366625,0.81893 0.818924,0.81893 0.4523,0 0.818925,-0.36663 0.818925,-0.81893 v -1.05724 c 8.1e-5,-0.45222 -0.366625,-0.81892 -0.818925,-0.81892 z"
         id="path48-5"
         style="fill:#000000;stroke-width:0.0802147;stroke-dasharray:none" /></g><path
       id="moon"
       style="fill:#000000;fill-opacity:1;stroke-width:0.072;stroke-dasharray:none"
       d="m 32.999481,221.26 c -4.91479,0 -9.53484,1.91397 -13.01005,5.38933 -3.47535,3.47521 -5.38934,8.09631 -5.38934,13.0111 0,2.20291 0.38719,4.34558 1.12448,6.35361 h 1.03921 c 0.46755,0 0.91346,0.19918 1.22422,0.54881 0.31104,0.34969 0.45736,0.81666 0.40256,1.28106 l -0.12506,1.06867 c 0.85143,0.0514 1.55494,0.74068 1.55494,1.60352 v 1.97765 c 0.0571,0.0585 0.11108,0.11934 0.16899,0.17725 3.47521,3.47536 8.09526,5.38934 13.01005,5.38934 4.91479,0 9.53589,-1.91398 13.0111,-5.38934 0.058,-0.058 0.11183,-0.11911 0.16898,-0.17776 v -1.97714 c 0,-0.86282 0.70352,-1.55212 1.55494,-1.60352 l -0.12505,-1.06867 c -0.0547,-0.46436 0.0912,-0.9315 0.40204,-1.28106 0.31073,-0.34953 0.75711,-0.54881 1.22473,-0.54881 h 1.0387 c 0.73729,-2.00805 1.12499,-4.1507 1.12499,-6.35361 0,-4.91479 -1.91397,-9.53589 -5.38933,-13.0111 -3.47521,-3.47536 -8.09631,-5.38933 -13.0111,-5.38933 z m 0,3.91552 c 1.1873,0 2.15336,0.96555 2.15336,2.15284 0,1.1873 -0.96606,2.15336 -2.15336,2.15336 -1.1873,0 -2.15284,-0.96606 -2.15284,-2.15336 0,-1.18729 0.96554,-2.15284 2.15284,-2.15284 z m 0,1.17409 c -0.53971,0 -0.97823,0.43905 -0.97823,0.97875 0,0.53971 0.43852,0.97875 0.97823,0.97875 0.53971,0 0.97876,-0.43904 0.97876,-0.97875 0,-0.5397 -0.43905,-0.97875 -0.97876,-0.97875 z m 6.26422,1.9575 c 1.61905,0 2.93626,1.31728 2.93626,2.93626 0,1.61898 -1.31721,2.93574 -2.93626,2.93574 -1.61904,0 -2.93625,-1.31669 -2.93625,-2.93574 0,-1.61905 1.31721,-2.93626 2.93625,-2.93626 z m 0,1.17461 c -0.97145,0 -1.76216,0.79019 -1.76216,1.76165 0,0.97146 0.79071,1.76165 1.76216,1.76165 0.97146,0 1.76165,-0.79019 1.76165,-1.76165 0,-0.97146 -0.79019,-1.76165 -1.76165,-1.76165 z m -14.40997,1.9575 c 2.91423,0 5.28495,2.37072 5.28495,5.28495 0,2.91422 -2.37072,5.2854 -5.28495,5.28547 -0.94472,0 -1.87313,-0.25382 -2.68459,-0.73329 -0.27924,-0.16495 -0.37167,-0.52486 -0.20671,-0.80409 0.16495,-0.27924 0.525,-0.37159 0.80409,-0.2067 0.6307,0.37259 1.35258,0.56896 2.08721,0.56896 2.26656,0 4.11034,-1.84379 4.11034,-4.11035 0,-2.26657 -1.8437,-4.11034 -4.11034,-4.11034 -2.26664,0 -4.11086,1.8437 -4.11086,4.11034 0,0.7347 0.19739,1.45608 0.56999,2.0867 0.16495,0.27924 0.072,0.63964 -0.20722,0.8046 -0.27924,0.16502 -0.63906,0.072 -0.80409,-0.20722 -0.4794,-0.81146 -0.73329,-1.73936 -0.73329,-2.68408 0,-2.91423 2.37124,-5.28495 5.28547,-5.28495 z m 0,2.3487 c 1.61897,0 2.93625,1.3172 2.93625,2.93625 0,1.61904 -1.31721,2.93626 -2.93625,2.93626 -1.61905,0 -2.93626,-1.31722 -2.93626,-2.93626 0,-1.61905 1.31721,-2.93625 2.93626,-2.93625 z m 0,1.1746 c -0.97146,0 -1.76165,0.79019 -1.76165,1.76165 0,0.97145 0.79019,1.76165 1.76165,1.76165 0.97138,0 1.76158,-0.7902 1.76165,-1.76165 0,-0.97146 -0.7902,-1.76165 -1.76165,-1.76165 z m 2.34869,9.32605 a 0.58721573,0.58721573 0 0 1 0.58756,0.58704 0.58721573,0.58721573 0 0 1 -0.58756,0.58756 0.58721573,0.58721573 0 0 1 -0.58704,-0.58756 0.58721573,0.58721573 0 0 1 0.58704,-0.58704 z m 14.72624,0 a 0.58721573,0.58721573 0 0 1 0.58756,0.58704 0.58721573,0.58721573 0 0 1 -0.58756,0.58756 0.58721573,0.58721573 0 0 1 -0.58705,-0.58756 0.58721573,0.58721573 0 0 1 0.58705,-0.58704 z m -17.07493,2.34869 a 0.58721573,0.58721573 0 0 1 0.58704,0.58756 0.58721573,0.58721573 0 0 1 -0.58704,0.58705 0.58721573,0.58721573 0 0 1 -0.58705,-0.58705 0.58721573,0.58721573 0 0 1 0.58705,-0.58756 z m 4.50205,0.65733 c 1.1873,0 2.15336,0.96554 2.15336,2.15284 0,1.18729 -0.96606,2.15284 -2.15336,2.15284 -1.1873,0 -2.15336,-0.96555 -2.15336,-2.15284 0,-1.1873 0.96606,-2.15284 2.15336,-2.15284 z m 0,1.17408 c -0.53971,0 -0.97875,0.43905 -0.97875,0.97876 0,0.5397 0.43904,0.97875 0.97875,0.97875 0.53971,0 0.97823,-0.43905 0.97823,-0.97875 0,-0.53971 -0.43852,-0.97876 -0.97823,-0.97876 z" /><text
       xml:space="preserve"
       style="font-style:normal;font-variant:normal;font-weight:normal;font-stretch:normal;font-size:4.23333px;line-height:1.25;font-family:'Kumar One Cyrillic';-inkscape-font-specification:'Kumar One Cyrillic';text-align:start;letter-spacing:0px;word-spacing:0px;writing-mode:lr-tb;direction:ltr;text-anchor:start;fill:#000000;stroke-width:2.5;stroke-linecap:square;stroke-dashoffset:2.26772;paint-order:fill markers stroke"
       x="13.607106"
       y="290.26334"
       id="text_mnf_left"><tspan
         sodipodi:role="line"
         id="tspan1-5-9"
         style="line-height:1.25;letter-spacing:0px;word-spacing:0px;stroke-width:2.5"
         x="13.607106"
         y="290.26334"
         rotate="0 0 0 0 0 0">-ТТКР</tspan></text><text
       xml:space="preserve"
       style="font-style:normal;font-variant:normal;font-weight:normal;font-stretch:normal;font-size:4.23333px;line-height:1.25;font-family:'Kumar One Cyrillic';-inkscape-font-specification:'Kumar One Cyrillic';text-align:start;letter-spacing:0px;word-spacing:0px;writing-mode:lr-tb;direction:ltr;text-anchor:start;fill:#000000;stroke-width:2.5;stroke-linecap:square;stroke-dashoffset:2.26772;paint-order:fill markers stroke"
       x="37.105"
       y="290.26334"
       id="text_mnf_right"><tspan
         sodipodi:role="line"
         id="tspan1-5-3"
         style="line-height:1.25;letter-spacing:0px;word-spacing:0px;stroke-width:2.5"
         x="37.105"
         y="290.26334"
         rotate="0 0 0 0 0 0">ЧПДЛ-</tspan></text><text
       xml:space="preserve"
       style="font-style:normal;font-variant:normal;font-weight:normal;font-stretch:normal;font-size:4.23333px;line-height:1.25;font-family:'Kumar One Cyrillic';-inkscape-font-specification:'Kumar One Cyrillic';text-align:start;letter-spacing:0px;word-spacing:0px;writing-mode:lr-tb;direction:ltr;text-anchor:start;fill:#000000;stroke-width:2.5;stroke-linecap:square;stroke-dashoffset:2.26772;paint-order:fill markers stroke"
       x="24.62859"
       y="183.58333"
       id="text_title_1"><tspan
         sodipodi:role="line"
         id="tspan1"
         style="line-height:1.25;letter-spacing:0px;word-spacing:0px;stroke-width:2.5"
         x="24.62859"
         y="183.58333"
         rotate="0 0 0 0 0 0">GRE<tspan
   style="letter-spacing:-0.5715px"
   id="tspan2">A</tspan>T</tspan></text><text
       xml:space="preserve"
       style="font-style:normal;font-variant:normal;font-weight:normal;font-stretch:normal;font-size:4.23333px;line-height:1.25;font-family:'Kumar One Cyrillic';-inkscape-font-specification:'Kumar One Cyrillic';text-align:start;letter-spacing:0px;word-spacing:0px;writing-mode:lr-tb;direction:ltr;text-anchor:start;fill:#000000;stroke-width:2.5;stroke-linecap:square;stroke-dashoffset:2.26772;paint-order:fill markers stroke"
       x="17.287994"
       y="188.66333"
       id="text_title_2"><tspan
         sodipodi:role="line"
         id="tspan1-5"
         style="line-height:1.25;letter-spacing:0px;word-spacing:0px;stroke-width:2.5"
         x="17.287994"
         y="188.66333"
         rotate="0 0 0 0 0 0 0 0 0 0 0">DEPRESSION</tspan></text><text
       xml:space="preserve"
       style="font-style:normal;font-variant:normal;font-weight:normal;font-stretch:normal;font-size:4.23333px;line-height:1.25;font-family:'Kumar One Cyrillic';-inkscape-font-specification:'Kumar One Cyrillic';text-align:start;letter-spacing:0px;word-spacing:0px;writing-mode:lr-tb;direction:ltr;text-anchor:start;fill:#000000;stroke-width:2.5;stroke-linecap:square;stroke-dashoffset:2.26772;paint-order:fill markers stroke"
       x="22.566961"
       y="193.74333"
       id="text_title_3"><tspan
         sodipodi:role="line"
         id="tspan1-2"
         style="line-height:1.25;letter-spacing:0px;word-spacing:0px;stroke-width:2.5"
         x="22.566961"
         y="193.74333"
         rotate="0 0 0 0 0 0 0">PHASER</tspan></text><text
       xml:space="preserve"
       style="font-style:normal;font-variant:normal;font-weight:normal;font-stretch:normal;font-size:4.23333px;line-height:1.25;font-family:'Kumar One Cyrillic';-inkscape-font-specification:'Kumar One Cyrillic';text-align:start;letter-spacing:0px;word-spacing:0px;writing-mode:lr-tb;direction:ltr;text-anchor:start;fill:#000000;stroke-width:2.5;stroke-linecap:square;stroke-dashoffset:2.26772;paint-order:fill markers stroke"
       x="12.819703"
       y="219.77834"
       id="text_rp1"><tspan
         sodipodi:role="line"
         id="tspan1-5-2"
         style="line-height:1.25;letter-spacing:0px;word-spacing:0px;stroke-width:2.5"
         x="12.819703"
         y="219.77834"
         rotate="0 0 0 0">SPD</tspan></text><text
       xml:space="preserve"
       style="font-style:normal;font-variant:normal;font-weight:normal;font-stretch:normal;font-size:4.23333px;line-height:1.25;font-family:'Kumar One Cyrillic';-inkscape-font-specification:'Kumar One Cyrillic';text-align:start;letter-spacing:0px;word-spacing:0px;writing-mode:lr-tb;direction:ltr;text-anchor:start;fill:#000000;stroke-width:2.5;stroke-linecap:square;stroke-dashoffset:2.26772;paint-order:fill markers stroke"
       x="45.285137"
       y="219.77834"
       id="text_rp2"><tspan
         sodipodi:role="line"
         id="tspan1-5-31"
         style="line-height:1.25;letter-spacing:0px;word-spacing:0px;stroke-width:2.5"
         x="45.285137"
         y="219.77834"
         rotate="0 0 0">FB</tspan></text></g></svg>
