M48
; DRILL file {KiCad 5.1.6-c6e7f7d~87~ubuntu19.10.1} date Sat Aug 21 16:07:39 2021
; FORMAT={-:-/ absolute / metric / decimal}
; #@! TF.CreationDate,2021-08-21T16:07:39+06:00
; #@! TF.GenerationSoftware,Kicad,Pcbnew,5.1.6-c6e7f7d~87~ubuntu19.10.1
FMAT,2
METRIC
T1C0.500
T2C0.700
T3C0.800
T4C0.900
T5C1.000
T6C1.300
T7C1.500
T8C3.000
T9C2.200
%
G90
G05
T1
X67.31Y-167.005
X68.58Y-150.495
X69.215Y-163.195
X69.215Y-187.96
X69.215Y-193.04
X79.375Y-169.545
X80.01Y-177.8
X80.01Y-196.85
X80.645Y-154.94
X81.915Y-163.195
X83.82Y-198.12
X85.09Y-153.67
X87.63Y-180.34
X87.63Y-198.12
X89.535Y-175.26
X89.535Y-180.34
X90.805Y-187.96
X90.805Y-193.04
X91.44Y-166.37
X91.44Y-175.26
X93.345Y-180.34
X93.98Y-114.3
X93.98Y-170.18
X94.615Y-187.96
X96.52Y-175.26
X98.425Y-137.16
X99.695Y-177.8
X100.33Y-123.19
X100.33Y-132.08
X100.965Y-107.95
X101.6Y-180.34
X103.505Y-175.26
X105.41Y-123.19
X109.22Y-180.34
X111.125Y-132.715
X111.125Y-146.05
X111.76Y-185.42
X113.03Y-170.18
X113.03Y-175.26
X113.665Y-132.715
X115.57Y-175.26
X116.205Y-187.96
X116.205Y-200.66
X116.84Y-180.34
X117.475Y-151.765
X120.015Y-187.96
X120.015Y-193.04
X121.92Y-179.07
X122.555Y-175.26
X126.365Y-167.005
X127.635Y-154.94
X130.175Y-158.75
X130.81Y-177.8
X130.81Y-196.85
X131.445Y-144.145
X134.62Y-198.12
X135.255Y-114.3
X138.43Y-180.34
X139.7Y-143.51
X139.7Y-169.545
X139.7Y-173.99
X140.97Y-180.34
X141.605Y-145.415
X141.605Y-149.86
X141.605Y-173.99
X141.605Y-187.96
X141.605Y-193.04
X142.875Y-180.34
T2
X105.41Y-137.16
X105.41Y-139.7
X138.43Y-137.16
X138.43Y-139.7
X72.39Y-137.16
X72.39Y-139.7
X105.41Y-177.8
X105.41Y-180.34
T4
X111.76Y-101.6
X111.76Y-109.22
T5
X106.68Y-134.62
X93.98Y-107.95
X96.52Y-107.95
X86.36Y-128.27
X88.9Y-128.27
X91.44Y-128.27
X93.98Y-128.27
X96.52Y-128.27
X114.3Y-128.27
X116.84Y-128.27
X119.38Y-128.27
X121.92Y-128.27
X124.46Y-128.27
X133.35Y-104.14
X86.36Y-170.18
X88.9Y-170.18
X91.44Y-170.18
X119.38Y-170.18
X121.92Y-170.18
X124.46Y-170.18
X105.41Y-202.565
X104.14Y-134.62
X140.97Y-104.14
X143.51Y-104.14
T6
X100.41Y-190.31
X100.41Y-194.31
X100.41Y-198.31
X105.41Y-190.31
X105.41Y-194.31
X105.41Y-198.31
X110.41Y-190.31
X110.41Y-194.31
X110.41Y-198.31
X95.41Y-158.95
X96.75Y-153.95
X96.75Y-163.95
X100.097Y-157.526
X100.41Y-150.29
X100.41Y-167.61
X105.41Y-148.95
X105.41Y-168.95
X110.41Y-150.29
X110.41Y-167.61
X110.723Y-160.374
X114.07Y-153.95
X114.07Y-163.95
X115.41Y-158.95
T7
X117.22Y-136.03
X117.22Y-140.83
X121.92Y-136.03
X121.92Y-140.83
X126.62Y-136.03
X126.62Y-140.83
X84.2Y-136.03
X84.2Y-140.83
X88.9Y-136.03
X88.9Y-140.83
X93.6Y-136.03
X93.6Y-140.83
T8
X76.2Y-96.52
X86.36Y-158.95
X96.52Y-96.52
X134.62Y-96.52
X124.46Y-158.95
X114.3Y-96.52
T9
X120.26Y-107.83
X120.26Y-119.33
X128.66Y-107.83
X128.66Y-119.33
X82.16Y-107.83
X82.16Y-119.33
X90.56Y-107.83
X90.56Y-119.33
T3
G00X100.61Y-104.81
M15
G01X100.61Y-102.61
M16
G05
G00X106.51Y-100.21
M15
G01X104.31Y-100.21
M16
G05
G00X106.76Y-106.21
M15
G01X104.06Y-106.21
M16
G05
T5
G00X121.96Y-123.43
M15
G01X121.96Y-122.23
M16
G05
G00X124.46Y-108.43
M15
G01X124.46Y-107.23
M16
G05
G00X126.96Y-124.43
M15
G01X126.96Y-122.23
M16
G05
G00X83.86Y-123.43
M15
G01X83.86Y-122.23
M16
G05
G00X86.36Y-108.43
M15
G01X86.36Y-107.23
M16
G05
G00X88.86Y-124.43
M15
G01X88.86Y-122.23
M16
G05
G00X135.89Y-104.14
M15
G01X137.16Y-104.14
M16
G05
T0
M30
