<?xml version="1.0" encoding="UTF-8" standalone="no"?>
<!-- Created with Inkscape (http://www.inkscape.org/) -->

<svg
   width="66mm"
   height="121mm"
   viewBox="0 0 65.999999 121"
   version="1.1"
   id="svg8"
   inkscape:version="1.4 (e7c3feb100, 2024-10-09)"
   sodipodi:docname="ТКП-6.2.4-B-A2.1_svg_dirty.svg"
   xml:space="preserve"
   xmlns:inkscape="http://www.inkscape.org/namespaces/inkscape"
   xmlns:sodipodi="http://sodipodi.sourceforge.net/DTD/sodipodi-0.dtd"
   xmlns="http://www.w3.org/2000/svg"
   xmlns:svg="http://www.w3.org/2000/svg"
   xmlns:rdf="http://www.w3.org/1999/02/22-rdf-syntax-ns#"
   xmlns:cc="http://creativecommons.org/ns#"
   xmlns:dc="http://purl.org/dc/elements/1.1/"><title
     id="title13">ТКП-6.2.4-B-A2</title><defs
     id="defs2" /><sodipodi:namedview
     id="base"
     pagecolor="#ffffff"
     bordercolor="#666666"
     borderopacity="1.0"
     inkscape:pageopacity="1"
     inkscape:pageshadow="2"
     inkscape:zoom="1.8455234"
     inkscape:cx="124.89682"
     inkscape:cy="228.66142"
     inkscape:document-units="mm"
     inkscape:current-layer="layer1"
     showgrid="false"
     inkscape:window-width="1920"
     inkscape:window-height="1053"
     inkscape:window-x="0"
     inkscape:window-y="0"
     inkscape:window-maximized="1"
     inkscape:showpageshadow="0"
     inkscape:pagecheckerboard="1"
     inkscape:deskcolor="#505050"><inkscape:page
       x="0"
       y="0"
       width="66"
       height="121"
       id="page1"
       margin="0"
       bleed="0" /></sodipodi:namedview><metadata
     id="metadata5"><rdf:RDF><cc:Work
         rdf:about=""><dc:format>image/svg+xml</dc:format><dc:type
           rdf:resource="http://purl.org/dc/dcmitype/StillImage" /><dc:title>ТКП-6.2.4-B-A2</dc:title><cc:license
           rdf:resource="http://creativecommons.org/licenses/by/4.0/" /><dc:creator><cc:Agent><dc:title>Igor Ivanov</dc:title></cc:Agent></dc:creator><dc:date>23.01.2025</dc:date><dc:contributor><cc:Agent><dc:title /></cc:Agent></dc:contributor><dc:identifier>ТКП-6.2.4-B-A2</dc:identifier></cc:Work><cc:License
         rdf:about="http://creativecommons.org/licenses/by/4.0/"><cc:permits
           rdf:resource="http://creativecommons.org/ns#Reproduction" /><cc:permits
           rdf:resource="http://creativecommons.org/ns#Distribution" /><cc:requires
           rdf:resource="http://creativecommons.org/ns#Notice" /><cc:requires
           rdf:resource="http://creativecommons.org/ns#Attribution" /><cc:permits
           rdf:resource="http://creativecommons.org/ns#DerivativeWorks" /></cc:License></rdf:RDF></metadata><g
     inkscape:label="Layer 1"
     inkscape:groupmode="layer"
     id="layer1"
     transform="translate(0,-176)"><g
       id="collision"
       transform="matrix(0.26458333,0,0,0.26458333,-72.409997,87.8733)"><path
         id="path1"
         d="m 29728.3,82248.9 -106.3,-4.6 -105.6,-13.9 -103.9,-23.1 -101.6,-32 -98.3,-40.8 -94.5,-49.1 -89.8,-57.2 -84.5,-64.8 -78.5,-72 -71.9,-78.5 -64.8,-84.4 -57.2,-89.8 -49.2,-94.5 -40.7,-98.3 -32,-101.6 -23.1,-103.9 -13.9,-105.6 -4.6,-106.4"
         style="fill:none;stroke:#000000;stroke-width:157.48;stroke-linecap:round;stroke-linejoin:round;stroke-miterlimit:10;stroke-dasharray:none;stroke-opacity:1"
         transform="matrix(0.0096,0,0,-0.0096,0,1122.6667)" /><path
         id="path2"
         d="m 54492.1,81028.4 -4.6,106.4 -13.9,105.6 -23.1,103.9 -32,101.6 -40.7,98.3 -49.2,94.5 -57.2,89.8 -64.8,84.4 -71.9,78.5 -78.5,72 -84.5,64.8 -89.8,57.2 -94.5,49.1 -98.3,40.8 -101.6,32 -103.9,23.1 -105.6,13.9 -106.3,4.6"
         style="fill:none;stroke:#000000;stroke-width:157.48;stroke-linecap:round;stroke-linejoin:round;stroke-miterlimit:10;stroke-dasharray:none;stroke-opacity:1"
         transform="matrix(0.0096,0,0,-0.0096,0,1122.6667)" /><path
         id="path3"
         d="m 28507.9,35831.6 4.6,-106.4 13.9,-105.6 23.1,-103.9 32,-101.6 40.7,-98.3 49.2,-94.5 57.2,-89.8 64.8,-84.4 71.9,-78.5 78.5,-72 84.5,-64.8 89.8,-57.2 94.5,-49.1 98.3,-40.8 101.6,-32 103.9,-23.1 105.6,-13.9 106.3,-4.6"
         style="fill:none;stroke:#000000;stroke-width:157.48;stroke-linecap:round;stroke-linejoin:round;stroke-miterlimit:10;stroke-dasharray:none;stroke-opacity:1"
         transform="matrix(0.0096,0,0,-0.0096,0,1122.6667)" /><path
         id="path4"
         d="m 53271.7,34611.1 106.3,4.6 105.6,13.9 103.9,23.1 101.6,32 98.3,40.8 94.5,49.1 89.8,57.2 84.5,64.8 78.5,72 71.9,78.5 64.8,84.4 57.2,89.8 49.2,94.5 40.7,98.3 32,101.6 23.1,103.9 13.9,105.6 4.6,106.4"
         style="fill:none;stroke:#000000;stroke-width:157.48;stroke-linecap:round;stroke-linejoin:round;stroke-miterlimit:10;stroke-dasharray:none;stroke-opacity:1"
         transform="matrix(0.0096,0,0,-0.0096,0,1122.6667)" /><path
         id="path5"
         d="m 50582.7,37930 c 0,325.9 264.7,590.6 590.5,590.6 325.9,0 590.6,-264.7 590.6,-590.6 0,-325.9 -264.7,-590.6 -590.6,-590.6 -325.8,0 -590.5,264.7 -590.5,590.6 z"
         style="fill:none;stroke:#000000;stroke-width:157.48;stroke-linecap:round;stroke-linejoin:round;stroke-miterlimit:10;stroke-dasharray:none;stroke-opacity:1"
         transform="matrix(0.0096,0,0,-0.0096,0,1122.6667)" /><path
         id="path6"
         d="m 31236.2,37930 c 0,325.9 264.7,590.6 590.6,590.6 325.8,0 590.5,-264.7 590.5,-590.6 0,-325.9 -264.7,-590.6 -590.5,-590.6 -325.9,0 -590.6,264.7 -590.6,590.6 z"
         style="fill:none;stroke:#000000;stroke-width:157.48;stroke-linecap:round;stroke-linejoin:round;stroke-miterlimit:10;stroke-dasharray:none;stroke-opacity:1"
         transform="matrix(0.0096,0,0,-0.0096,0,1122.6667)" /><path
         id="path7"
         d="m 50582.7,78930 c 0,325.9 264.7,590.6 590.5,590.6 325.9,0 590.6,-264.7 590.6,-590.6 0,-325.9 -264.7,-590.6 -590.6,-590.6 -325.8,0 -590.5,264.7 -590.5,590.6 z"
         style="fill:none;stroke:#000000;stroke-width:157.48;stroke-linecap:round;stroke-linejoin:round;stroke-miterlimit:10;stroke-dasharray:none;stroke-opacity:1"
         transform="matrix(0.0096,0,0,-0.0096,0,1122.6667)" /><path
         id="path8"
         d="m 31236.2,78930 c 0,325.9 264.7,590.6 590.6,590.6 325.8,0 590.5,-264.7 590.5,-590.6 0,-325.9 -264.7,-590.6 -590.5,-590.6 -325.9,0 -590.6,264.7 -590.6,590.6 z"
         style="fill:none;stroke:#000000;stroke-width:157.48;stroke-linecap:round;stroke-linejoin:round;stroke-miterlimit:10;stroke-dasharray:none;stroke-opacity:1"
         transform="matrix(0.0096,0,0,-0.0096,0,1122.6667)" /><path
         id="path9"
         d="m 50582.7,58930 c 0,325.9 264.7,590.6 590.5,590.6 325.9,0 590.6,-264.7 590.6,-590.6 0,-325.9 -264.7,-590.6 -590.6,-590.6 -325.8,0 -590.5,264.7 -590.5,590.6 z"
         style="fill:none;stroke:#000000;stroke-width:157.48;stroke-linecap:round;stroke-linejoin:round;stroke-miterlimit:10;stroke-dasharray:none;stroke-opacity:1"
         transform="matrix(0.0096,0,0,-0.0096,0,1122.6667)" /><path
         id="path10"
         d="m 31236.2,58930 c 0,325.9 264.7,590.6 590.6,590.6 325.8,0 590.5,-264.7 590.5,-590.6 0,-325.9 -264.7,-590.6 -590.5,-590.6 -325.9,0 -590.6,264.7 -590.6,590.6 z"
         style="fill:none;stroke:#000000;stroke-width:157.48;stroke-linecap:round;stroke-linejoin:round;stroke-miterlimit:10;stroke-dasharray:none;stroke-opacity:1"
         transform="matrix(0.0096,0,0,-0.0096,0,1122.6667)" /><path
         id="path11"
         d="M 54492.1,81028.4 V 35831.6"
         style="fill:none;stroke:#000000;stroke-width:157.48;stroke-linecap:round;stroke-linejoin:round;stroke-miterlimit:10;stroke-dasharray:none;stroke-opacity:1"
         transform="matrix(0.0096,0,0,-0.0096,0,1122.6667)" /><path
         id="path12"
         d="M 28507.9,81028.4 V 35831.6"
         style="fill:none;stroke:#000000;stroke-width:157.48;stroke-linecap:round;stroke-linejoin:round;stroke-miterlimit:10;stroke-dasharray:none;stroke-opacity:1"
         transform="matrix(0.0096,0,0,-0.0096,0,1122.6667)" /><path
         id="path13"
         d="M 29728.3,34611.1 H 53271.7"
         style="fill:none;stroke:#000000;stroke-width:157.48;stroke-linecap:round;stroke-linejoin:round;stroke-miterlimit:10;stroke-dasharray:none;stroke-opacity:1"
         transform="matrix(0.0096,0,0,-0.0096,0,1122.6667)" /><path
         id="path14"
         d="M 29728.3,82248.9 H 53271.7"
         style="fill:none;stroke:#000000;stroke-width:157.48;stroke-linecap:round;stroke-linejoin:round;stroke-miterlimit:10;stroke-dasharray:none;stroke-opacity:1"
         transform="matrix(0.0096,0,0,-0.0096,0,1122.6667)" /><path
         id="path15"
         d="m 40200.8,37930 c 0,716.9 582.3,1299.2 1299.2,1299.2 716.9,0 1299.2,-582.3 1299.2,-1299.2 0,-716.9 -582.3,-1299.2 -1299.2,-1299.2 -716.9,0 -1299.2,582.3 -1299.2,1299.2 z"
         style="fill:none;stroke:#000000;stroke-width:157.48;stroke-linecap:round;stroke-linejoin:round;stroke-miterlimit:10;stroke-dasharray:none;stroke-opacity:1"
         transform="matrix(0.0096,0,0,-0.0096,0,1122.6667)" /><path
         id="path16"
         d="m 34082.7,70851.3 c 0,782 635.2,1417.3 1417.3,1417.3 782.1,0 1417.3,-635.3 1417.3,-1417.3 0,-782.1 -635.2,-1417.4 -1417.3,-1417.4 -782.1,0 -1417.3,635.3 -1417.3,1417.4 z"
         style="fill:none;stroke:#000000;stroke-width:157.48;stroke-linecap:round;stroke-linejoin:round;stroke-miterlimit:10;stroke-dasharray:none;stroke-opacity:1"
         transform="matrix(0.0096,0,0,-0.0096,0,1122.6667)" /><path
         id="path17"
         d="m 46082.7,70851.3 c 0,782 635.2,1417.3 1417.3,1417.3 782.1,0 1417.3,-635.3 1417.3,-1417.3 0,-782.1 -635.2,-1417.4 -1417.3,-1417.4 -782.1,0 -1417.3,635.3 -1417.3,1417.4 z"
         style="fill:none;stroke:#000000;stroke-width:157.48;stroke-linecap:round;stroke-linejoin:round;stroke-miterlimit:10;stroke-dasharray:none;stroke-opacity:1"
         transform="matrix(0.0096,0,0,-0.0096,0,1122.6667)" /><path
         id="path18"
         d="m 39137.8,44430 c 0,1303.4 1058.8,2362.2 2362.2,2362.2 1303.4,0 2362.2,-1058.8 2362.2,-2362.2 0,-1303.4 -1058.8,-2362.2 -2362.2,-2362.2 -1303.4,0 -2362.2,1058.8 -2362.2,2362.2 z"
         style="fill:none;stroke:#000000;stroke-width:157.48;stroke-linecap:round;stroke-linejoin:round;stroke-miterlimit:10;stroke-dasharray:none;stroke-opacity:1"
         transform="matrix(0.0096,0,0,-0.0096,0,1122.6667)" /></g><path
       style="opacity:1;fill:#000000;fill-opacity:1;stroke:none;stroke-width:0;stroke-linecap:round;stroke-linejoin:round;stroke-miterlimit:4;stroke-dasharray:none;stroke-dashoffset:0;stroke-opacity:1;paint-order:normal"
       d="m 33.000334,262.05995 a 9.9999989,9.9999989 0 0 0 -10.000421,9.9999 9.9999989,9.9999989 0 0 0 10.000421,9.99991 9.9999989,9.9999989 0 0 0 9.999906,-9.99991 9.9999989,9.9999989 0 0 0 -9.999906,-9.9999 z m 0,4.49998 a 5.4999995,5.4999995 0 0 1 5.499923,5.49991 5.4999995,5.4999995 0 0 1 -5.499923,5.49993 5.4999995,5.4999995 0 0 1 -5.500438,-5.49993 5.4999995,5.4999995 0 0 1 5.500438,-5.49991 z"
       id="button"
       inkscape:connector-curvature="0" /><path
       id="standoff_1"
       style="fill:#000000;fill-opacity:1;stroke-width:0.264999"
       d="m 8.429687,231.82994 a 3.4000001,3.4000001 0 0 0 -3.39979,3.40031 3.4000001,3.4000001 0 0 0 3.39979,3.3998 3.4000001,3.4000001 0 0 0 3.40031,-3.3998 3.4000001,3.4000001 0 0 0 -3.40031,-3.40031 z m 0,2.40037 a 1,1 0 0 1 1.00046,0.99994 1,1 0 0 1 -1.00046,0.99994 1,1 0 0 1 -0.99994,-0.99994 1,1 0 0 1 0.99994,-0.99994 z" /><path
       id="standoff_2"
       style="fill:#000000;fill-opacity:1;stroke-width:0.264999"
       d="m 57.569796,231.82994 a 3.4000001,3.4000001 0 0 0 -3.39979,3.40031 3.4000001,3.4000001 0 0 0 3.39979,3.3998 3.4000001,3.4000001 0 0 0 3.40031,-3.3998 3.4000001,3.4000001 0 0 0 -3.40031,-3.40031 z m 0,2.40037 a 1,1 0 0 1 1.00046,0.99994 1,1 0 0 1 -1.00046,0.99994 1,1 0 0 1 -0.99994,-0.99994 1,1 0 0 1 0.99994,-0.99994 z" /><path
       style="opacity:1;fill:#000000;fill-opacity:1;fill-rule:nonzero;stroke:none;stroke-width:0.245669;stroke-linecap:round;stroke-linejoin:round;stroke-miterlimit:4;stroke-dasharray:none;stroke-dashoffset:3.59055;stroke-opacity:1;paint-order:normal"
       d="m 20.03125,86.361328 c -7.53789,0 -13.6054688,6.069532 -13.6054688,13.607422 v 18.89648 c 0,7.53789 6.0675788,13.60743 13.6054688,13.60743 h 209.38672 c 7.53789,0 13.60547,-6.06954 13.60547,-13.60743 V 99.96875 c 0,-7.53789 -6.06758,-13.607422 -13.60547,-13.607422 z M 67.125,97.701172 A 11.716535,11.716535 0 0 1 78.841797,109.41602 11.716535,11.716535 0 0 1 67.125,121.13281 11.716535,11.716535 0 0 1 55.408203,109.41602 11.716535,11.716535 0 0 1 67.125,97.701172 Z m 115.19922,0 a 11.716536,11.716536 0 0 1 11.7168,11.714848 11.716536,11.716536 0 0 1 -11.7168,11.71679 11.716536,11.716536 0 0 1 -11.7168,-11.71679 11.716536,11.716536 0 0 1 11.7168,-11.714848 z"
       id="potentiometers"
       transform="matrix(0.26458333,0,0,0.26458333,0,176)" /></g></svg>
