  0
SECTION
  2
HEADER
  9
$ACADVER
  1
AC1014
  9
$HANDSEED
  5
FFFF
  9
$INSUNITS
 70
     4
  9
$MEASUREMENT
 70
     1
  0
ENDSEC
  0
SECTION
  2
TABLES
  0
TABLE
  2
VPORT
  5
8
330
0
100
AcDbSymbolTable
 70
     4
  0
VPORT
  5
2E
330
8
100
AcDbSymbolTableRecord
100
AcDbViewportTableRecord
  2
*ACTIVE
 70
     0
 10
0.0
 20
0.0
 11
1.0
 21
1.0
 12
210.0
 22
148.5
 13
0.0
 23
0.0
 14
10.0
 24
10.0
 15
10.0
 25
10.0
 16
0.0
 26
0.0
 36
1.0
 17
0.0
 27
0.0
 37
0.0
 40
341.0
 41
1.24
 42
50.0
 43
0.0
 44
0.0
 50
0.0
 51
0.0
 71
     0
 72
   100
 73
     1
 74
     3
 75
     0
 76
     0
 77
     0
 78
     0
  0
ENDTAB
  0
TABLE
  2
LTYPE
  5
5
330
0
100
AcDbSymbolTable
 70
     1
  0
LTYPE
  5
14
330
5
100
AcDbSymbolTableRecord
100
AcDbLinetypeTableRecord
  2
BYBLOCK
 70
     0
  3

 72
    65
 73
     0
 40
0.0
  0
LTYPE
  5
15
330
5
100
AcDbSymbolTableRecord
100
AcDbLinetypeTableRecord
  2
BYLAYER
 70
     0
  3

 72
    65
 73
     0
 40
0.0
  0
LTYPE
  5
16
330
5
100
AcDbSymbolTableRecord
100
AcDbLinetypeTableRecord
  2
CONTINUOUS
 70
     0
  3
Solid line
 72
    65
 73
     0
 40
0.0
  0
ENDTAB
  0
TABLE
  2
LAYER
  5
2
100
AcDbSymbolTable
 70
2
  0
LAYER
  5
50
100
AcDbSymbolTableRecord
100
AcDbLayerTableRecord
  2
0
 70
0
  6
CONTINUOUS
  0
LAYER
  5
51
100
AcDbSymbolTableRecord
100
AcDbLayerTableRecord
  2
Layer_1
 70
0
  6
CONTINUOUS
  0
ENDTAB
  0
TABLE
  2
STYLE
  5
3
330
0
100
AcDbSymbolTable
 70
     1
  0
STYLE
  5
11
330
3
100
AcDbSymbolTableRecord
100
AcDbTextStyleTableRecord
  2
STANDARD
 70
     0
 40
0.0
 41
1.0
 50
0.0
 71
     0
 42
2.5
  3
txt
  4

  0
ENDTAB
  0
TABLE
  2
VIEW
  5
6
330
0
100
AcDbSymbolTable
 70
     0
  0
ENDTAB
  0
TABLE
  2
UCS
  5
7
330
0
100
AcDbSymbolTable
 70
     0
  0
ENDTAB
  0
TABLE
  2
APPID
  5
9
330
0
100
AcDbSymbolTable
 70
     2
  0
APPID
  5
12
330
9
100
AcDbSymbolTableRecord
100
AcDbRegAppTableRecord
  2
ACAD
 70
     0
  0
ENDTAB
  0
TABLE
  2
DIMSTYLE
  5
A
330
0
100
AcDbSymbolTable
 70
     1
  0
DIMSTYLE
105
27
330
A
100
AcDbSymbolTableRecord
100
AcDbDimStyleTableRecord
  2
ISO-25
 70
     0
  3

  4

  5

  6

  7

 40
1.0
 41
2.5
 42
0.625
 43
3.75
 44
1.25
 45
0.0
 46
0.0
 47
0.0
 48
0.0
140
2.5
141
2.5
142
0.0
143
0.03937007874016
144
1.0
145
0.0
146
1.0
147
0.625
 71
     0
 72
     0
 73
     0
 74
     0
 75
     0
 76
     0
 77
     1
 78
     8
170
     0
171
     3
172
     1
173
     0
174
     0
175
     0
176
     0
177
     0
178
     0
270
     2
271
     2
272
     2
273
     2
274
     3
340
11
275
     0
280
     0
281
     0
282
     0
283
     0
284
     8
285
     0
286
     0
287
     3
288
     0
  0
ENDTAB
  0
TABLE
  2
BLOCK_RECORD
  5
1
330
0
100
AcDbSymbolTable
 70
     1
  0
BLOCK_RECORD
  5
1F
330
1
100
AcDbSymbolTableRecord
100
AcDbBlockTableRecord
  2
*MODEL_SPACE
  0
BLOCK_RECORD
  5
1B
330
1
100
AcDbSymbolTableRecord
100
AcDbBlockTableRecord
  2
*PAPER_SPACE
  0
ENDTAB
  0
ENDSEC
  0
SECTION
  2
BLOCKS
  0
BLOCK
  5
20
330
1F
100
AcDbEntity
  8
0
100
AcDbBlockBegin
  2
*MODEL_SPACE
 70
     0
 10
0.0
 20
0.0
 30
0.0
  3
*MODEL_SPACE
  1

  0
ENDBLK
  5
21
330
1F
100
AcDbEntity
  8
0
100
AcDbBlockEnd
  0
BLOCK
  5
1C
330
1B
100
AcDbEntity
 67
     1
  8
0
100
AcDbBlockBegin
  2
*PAPER_SPACE
  1

  0
ENDBLK
  5
1D
330
1B
100
AcDbEntity
 67
     1
  8
0
100
AcDbBlockEnd
  0
ENDSEC
  0
SECTION
  2
ENTITIES
  0
SPLINE
  5
100
100
AcDbEntity
  8
Layer_1
 62
7
100
AcDbSpline
 70
8
 71
3
 72
8
 73
4
 74
0
 40
0
 40
0
 40
0
 40
0
 40
1
 40
1
 40
1
 40
1
 10
33.000335
 20
34.940051
 30
0.0
 10
30.348114
 20
34.940162
 30
0.0
 10
27.804482
 20
33.886657
 30
0.0
 10
25.929029
 20
32.011303
 30
0.0
  0
SPLINE
  5
101
100
AcDbEntity
  8
Layer_1
 62
7
100
AcDbSpline
 70
8
 71
3
 72
8
 73
4
 74
0
 40
0
 40
0
 40
0
 40
0
 40
1
 40
1
 40
1
 40
1
 10
25.929029
 20
32.011303
 30
0.0
 10
24.053577
 20
30.135948
 30
0.0
 10
22.999940
 20
27.592371
 30
0.0
 10
22.999913
 20
24.940150
 30
0.0
  0
SPLINE
  5
102
100
AcDbEntity
  8
Layer_1
 62
7
100
AcDbSpline
 70
8
 71
3
 72
8
 73
4
 74
0
 40
0
 40
0
 40
0
 40
0
 40
1
 40
1
 40
1
 40
1
 10
22.999913
 20
24.940150
 30
0.0
 10
22.999937
 20
22.287928
 30
0.0
 10
24.053574
 20
19.744348
 30
0.0
 10
25.929026
 20
17.868991
 30
0.0
  0
SPLINE
  5
103
100
AcDbEntity
  8
Layer_1
 62
7
100
AcDbSpline
 70
8
 71
3
 72
8
 73
4
 74
0
 40
0
 40
0
 40
0
 40
0
 40
1
 40
1
 40
1
 40
1
 10
25.929026
 20
17.868991
 30
0.0
 10
27.804478
 20
15.993635
 30
0.0
 10
30.348112
 20
14.940128
 30
0.0
 10
33.000335
 20
14.940240
 30
0.0
  0
SPLINE
  5
104
100
AcDbEntity
  8
Layer_1
 62
7
100
AcDbSpline
 70
8
 71
3
 72
8
 73
4
 74
0
 40
0
 40
0
 40
0
 40
0
 40
1
 40
1
 40
1
 40
1
 10
33.000335
 20
14.940240
 30
0.0
 10
38.523110
 20
14.940292
 30
0.0
 10
43.000192
 20
19.417374
 30
0.0
 10
43.000241
 20
24.940150
 30
0.0
  0
SPLINE
  5
105
100
AcDbEntity
  8
Layer_1
 62
7
100
AcDbSpline
 70
8
 71
3
 72
8
 73
4
 74
0
 40
0
 40
0
 40
0
 40
0
 40
1
 40
1
 40
1
 40
1
 10
43.000241
 20
24.940150
 30
0.0
 10
43.000186
 20
30.462922
 30
0.0
 10
38.523107
 20
34.939999
 30
0.0
 10
33.000335
 20
34.940051
 30
0.0
  0
SPLINE
  5
106
100
AcDbEntity
  8
Layer_1
 62
7
100
AcDbSpline
 70
8
 71
3
 72
8
 73
4
 74
0
 40
0
 40
0
 40
0
 40
0
 40
1
 40
1
 40
1
 40
1
 10
33.000335
 20
30.440070
 30
0.0
 10
36.037836
 20
30.440028
 30
0.0
 10
38.500208
 20
27.977661
 30
0.0
 10
38.500258
 20
24.940160
 30
0.0
  0
SPLINE
  5
107
100
AcDbEntity
  8
Layer_1
 62
7
100
AcDbSpline
 70
8
 71
3
 72
8
 73
4
 74
0
 40
0
 40
0
 40
0
 40
0
 40
1
 40
1
 40
1
 40
1
 10
38.500258
 20
24.940160
 30
0.0
 10
38.500219
 20
21.902652
 30
0.0
 10
36.037843
 20
19.440273
 30
0.0
 10
33.000335
 20
19.440230
 30
0.0
  0
SPLINE
  5
108
100
AcDbEntity
  8
Layer_1
 62
7
100
AcDbSpline
 70
8
 71
3
 72
8
 73
4
 74
0
 40
0
 40
0
 40
0
 40
0
 40
1
 40
1
 40
1
 40
1
 10
33.000335
 20
19.440230
 30
0.0
 10
31.541580
 20
19.440114
 30
0.0
 10
30.142531
 20
20.019516
 30
0.0
 10
29.110989
 20
21.050963
 30
0.0
  0
SPLINE
  5
109
100
AcDbEntity
  8
Layer_1
 62
7
100
AcDbSpline
 70
8
 71
3
 72
8
 73
4
 74
0
 40
0
 40
0
 40
0
 40
0
 40
1
 40
1
 40
1
 40
1
 10
29.110989
 20
21.050963
 30
0.0
 10
28.079446
 20
22.082411
 30
0.0
 10
27.499915
 20
23.481406
 30
0.0
 10
27.499896
 20
24.940160
 30
0.0
  0
SPLINE
  5
10a
100
AcDbEntity
  8
Layer_1
 62
7
100
AcDbSpline
 70
8
 71
3
 72
8
 73
4
 74
0
 40
0
 40
0
 40
0
 40
0
 40
1
 40
1
 40
1
 40
1
 10
27.499896
 20
24.940160
 30
0.0
 10
27.499920
 20
26.398911
 30
0.0
 10
28.079453
 20
27.797901
 30
0.0
 10
29.110996
 20
28.829345
 30
0.0
  0
SPLINE
  5
10b
100
AcDbEntity
  8
Layer_1
 62
7
100
AcDbSpline
 70
8
 71
3
 72
8
 73
4
 74
0
 40
0
 40
0
 40
0
 40
0
 40
1
 40
1
 40
1
 40
1
 10
29.110996
 20
28.829345
 30
0.0
 10
30.142538
 20
29.860788
 30
0.0
 10
31.541583
 20
30.440187
 30
0.0
 10
33.000335
 20
30.440070
 30
0.0
  0
LWPOLYLINE
  5
10c
100
AcDbEntity
  8
Layer_1
 62
7
100
AcDbPolyline
 90
1
 70
1
 10
33.000335
 20
34.940051
 30
0.0
  0
SPLINE
  5
10d
100
AcDbEntity
  8
Layer_1
 62
7
100
AcDbSpline
 70
8
 71
3
 72
8
 73
4
 74
0
 40
0
 40
0
 40
0
 40
0
 40
1
 40
1
 40
1
 40
1
 10
8.429687
 20
65.170061
 30
0.0
 10
7.527934
 20
65.170005
 30
0.0
 10
6.663137
 20
64.811725
 30
0.0
 10
6.025550
 20
64.174040
 30
0.0
  0
SPLINE
  5
10e
100
AcDbEntity
  8
Layer_1
 62
7
100
AcDbSpline
 70
8
 71
3
 72
8
 73
4
 74
0
 40
0
 40
0
 40
0
 40
0
 40
1
 40
1
 40
1
 40
1
 10
6.025550
 20
64.174040
 30
0.0
 10
5.387963
 20
63.536355
 30
0.0
 10
5.029815
 20
62.671504
 30
0.0
 10
5.029897
 20
61.769751
 30
0.0
  0
SPLINE
  5
10f
100
AcDbEntity
  8
Layer_1
 62
7
100
AcDbSpline
 70
8
 71
3
 72
8
 73
4
 74
0
 40
0
 40
0
 40
0
 40
0
 40
1
 40
1
 40
1
 40
1
 10
5.029897
 20
61.769751
 30
0.0
 10
5.030008
 20
59.892143
 30
0.0
 10
6.552079
 20
58.370067
 30
0.0
 10
8.429687
 20
58.369951
 30
0.0
  0
SPLINE
  5
110
100
AcDbEntity
  8
Layer_1
 62
7
100
AcDbSpline
 70
8
 71
3
 72
8
 73
4
 74
0
 40
0
 40
0
 40
0
 40
0
 40
1
 40
1
 40
1
 40
1
 10
8.429687
 20
58.369951
 30
0.0
 10
9.331442
 20
58.369869
 30
0.0
 10
10.196295
 20
58.728018
 30
0.0
 10
10.833980
 20
59.365608
 30
0.0
  0
SPLINE
  5
111
100
AcDbEntity
  8
Layer_1
 62
7
100
AcDbSpline
 70
8
 71
3
 72
8
 73
4
 74
0
 40
0
 40
0
 40
0
 40
0
 40
1
 40
1
 40
1
 40
1
 10
10.833980
 20
59.365608
 30
0.0
 10
11.471665
 20
60.003197
 30
0.0
 10
11.829944
 20
60.867996
 30
0.0
 10
11.829997
 20
61.769751
 30
0.0
  0
SPLINE
  5
112
100
AcDbEntity
  8
Layer_1
 62
7
100
AcDbSpline
 70
8
 71
3
 72
8
 73
4
 74
0
 40
0
 40
0
 40
0
 40
0
 40
1
 40
1
 40
1
 40
1
 10
11.829997
 20
61.769751
 30
0.0
 10
11.830079
 20
62.671594
 30
0.0
 10
11.471860
 20
63.536524
 30
0.0
 10
10.834160
 20
64.174224
 30
0.0
  0
SPLINE
  5
113
100
AcDbEntity
  8
Layer_1
 62
7
100
AcDbSpline
 70
8
 71
3
 72
8
 73
4
 74
0
 40
0
 40
0
 40
0
 40
0
 40
1
 40
1
 40
1
 40
1
 10
10.834160
 20
64.174224
 30
0.0
 10
10.196461
 20
64.811924
 30
0.0
 10
9.331531
 20
65.170143
 30
0.0
 10
8.429687
 20
65.170061
 30
0.0
  0
LWPOLYLINE
  5
114
100
AcDbEntity
  8
Layer_1
 62
7
100
AcDbPolyline
 90
1
 70
1
 10
33.000335
 20
30.440070
 30
0.0
  0
SPLINE
  5
115
100
AcDbEntity
  8
Layer_1
 62
7
100
AcDbSpline
 70
8
 71
3
 72
8
 73
4
 74
0
 40
0
 40
0
 40
0
 40
0
 40
1
 40
1
 40
1
 40
1
 10
8.429687
 20
62.769691
 30
0.0
 10
8.694973
 20
62.769813
 30
0.0
 10
8.949436
 20
62.664518
 30
0.0
 10
9.137070
 20
62.476982
 30
0.0
  0
SPLINE
  5
116
100
AcDbEntity
  8
Layer_1
 62
7
100
AcDbSpline
 70
8
 71
3
 72
8
 73
4
 74
0
 40
0
 40
0
 40
0
 40
0
 40
1
 40
1
 40
1
 40
1
 10
9.137070
 20
62.476982
 30
0.0
 10
9.324704
 20
62.289445
 30
0.0
 10
9.430131
 20
62.035037
 30
0.0
 10
9.430147
 20
61.769751
 30
0.0
  0
SPLINE
  5
117
100
AcDbEntity
  8
Layer_1
 62
7
100
AcDbSpline
 70
8
 71
3
 72
8
 73
4
 74
0
 40
0
 40
0
 40
0
 40
0
 40
1
 40
1
 40
1
 40
1
 10
9.430147
 20
61.769751
 30
0.0
 10
9.430131
 20
61.504465
 30
0.0
 10
9.324704
 20
61.250057
 30
0.0
 10
9.137070
 20
61.062520
 30
0.0
  0
SPLINE
  5
118
100
AcDbEntity
  8
Layer_1
 62
7
100
AcDbSpline
 70
8
 71
3
 72
8
 73
4
 74
0
 40
0
 40
0
 40
0
 40
0
 40
1
 40
1
 40
1
 40
1
 10
9.137070
 20
61.062520
 30
0.0
 10
8.949436
 20
60.874984
 30
0.0
 10
8.694973
 20
60.769689
 30
0.0
 10
8.429687
 20
60.769811
 30
0.0
  0
SPLINE
  5
119
100
AcDbEntity
  8
Layer_1
 62
7
100
AcDbSpline
 70
8
 71
3
 72
8
 73
4
 74
0
 40
0
 40
0
 40
0
 40
0
 40
1
 40
1
 40
1
 40
1
 10
8.429687
 20
60.769811
 30
0.0
 10
7.877449
 20
60.769844
 30
0.0
 10
7.429780
 20
61.217513
 30
0.0
 10
7.429747
 20
61.769751
 30
0.0
  0
SPLINE
  5
11a
100
AcDbEntity
  8
Layer_1
 62
7
100
AcDbSpline
 70
8
 71
3
 72
8
 73
4
 74
0
 40
0
 40
0
 40
0
 40
0
 40
1
 40
1
 40
1
 40
1
 10
7.429747
 20
61.769751
 30
0.0
 10
7.429780
 20
62.321989
 30
0.0
 10
7.877449
 20
62.769658
 30
0.0
 10
8.429687
 20
62.769691
 30
0.0
  0
LWPOLYLINE
  5
11b
100
AcDbEntity
  8
Layer_1
 62
7
100
AcDbPolyline
 90
1
 70
1
 10
8.429687
 20
65.170061
 30
0.0
  0
SPLINE
  5
11c
100
AcDbEntity
  8
Layer_1
 62
7
100
AcDbSpline
 70
8
 71
3
 72
8
 73
4
 74
0
 40
0
 40
0
 40
0
 40
0
 40
1
 40
1
 40
1
 40
1
 10
57.569797
 20
65.170061
 30
0.0
 10
56.668043
 20
65.170005
 30
0.0
 10
55.803247
 20
64.811725
 30
0.0
 10
55.165660
 20
64.174040
 30
0.0
  0
SPLINE
  5
11d
100
AcDbEntity
  8
Layer_1
 62
7
100
AcDbSpline
 70
8
 71
3
 72
8
 73
4
 74
0
 40
0
 40
0
 40
0
 40
0
 40
1
 40
1
 40
1
 40
1
 10
55.165660
 20
64.174040
 30
0.0
 10
54.528073
 20
63.536355
 30
0.0
 10
54.169925
 20
62.671504
 30
0.0
 10
54.170007
 20
61.769751
 30
0.0
  0
SPLINE
  5
11e
100
AcDbEntity
  8
Layer_1
 62
7
100
AcDbSpline
 70
8
 71
3
 72
8
 73
4
 74
0
 40
0
 40
0
 40
0
 40
0
 40
1
 40
1
 40
1
 40
1
 10
54.170007
 20
61.769751
 30
0.0
 10
54.170117
 20
59.892143
 30
0.0
 10
55.692189
 20
58.370067
 30
0.0
 10
57.569797
 20
58.369951
 30
0.0
  0
SPLINE
  5
11f
100
AcDbEntity
  8
Layer_1
 62
7
100
AcDbSpline
 70
8
 71
3
 72
8
 73
4
 74
0
 40
0
 40
0
 40
0
 40
0
 40
1
 40
1
 40
1
 40
1
 10
57.569797
 20
58.369951
 30
0.0
 10
58.471552
 20
58.369869
 30
0.0
 10
59.336405
 20
58.728018
 30
0.0
 10
59.974090
 20
59.365608
 30
0.0
  0
SPLINE
  5
120
100
AcDbEntity
  8
Layer_1
 62
7
100
AcDbSpline
 70
8
 71
3
 72
8
 73
4
 74
0
 40
0
 40
0
 40
0
 40
0
 40
1
 40
1
 40
1
 40
1
 10
59.974090
 20
59.365608
 30
0.0
 10
60.611775
 20
60.003197
 30
0.0
 10
60.970054
 20
60.867996
 30
0.0
 10
60.970107
 20
61.769751
 30
0.0
  0
SPLINE
  5
121
100
AcDbEntity
  8
Layer_1
 62
7
100
AcDbSpline
 70
8
 71
3
 72
8
 73
4
 74
0
 40
0
 40
0
 40
0
 40
0
 40
1
 40
1
 40
1
 40
1
 10
60.970107
 20
61.769751
 30
0.0
 10
60.970189
 20
62.671594
 30
0.0
 10
60.611970
 20
63.536524
 30
0.0
 10
59.974270
 20
64.174224
 30
0.0
  0
SPLINE
  5
122
100
AcDbEntity
  8
Layer_1
 62
7
100
AcDbSpline
 70
8
 71
3
 72
8
 73
4
 74
0
 40
0
 40
0
 40
0
 40
0
 40
1
 40
1
 40
1
 40
1
 10
59.974270
 20
64.174224
 30
0.0
 10
59.336570
 20
64.811924
 30
0.0
 10
58.471640
 20
65.170143
 30
0.0
 10
57.569797
 20
65.170061
 30
0.0
  0
LWPOLYLINE
  5
123
100
AcDbEntity
  8
Layer_1
 62
7
100
AcDbPolyline
 90
1
 70
1
 10
8.429687
 20
62.769691
 30
0.0
  0
SPLINE
  5
124
100
AcDbEntity
  8
Layer_1
 62
7
100
AcDbSpline
 70
8
 71
3
 72
8
 73
4
 74
0
 40
0
 40
0
 40
0
 40
0
 40
1
 40
1
 40
1
 40
1
 10
57.569797
 20
62.769691
 30
0.0
 10
57.835083
 20
62.769813
 30
0.0
 10
58.089546
 20
62.664518
 30
0.0
 10
58.277180
 20
62.476982
 30
0.0
  0
SPLINE
  5
125
100
AcDbEntity
  8
Layer_1
 62
7
100
AcDbSpline
 70
8
 71
3
 72
8
 73
4
 74
0
 40
0
 40
0
 40
0
 40
0
 40
1
 40
1
 40
1
 40
1
 10
58.277180
 20
62.476982
 30
0.0
 10
58.464814
 20
62.289445
 30
0.0
 10
58.570241
 20
62.035037
 30
0.0
 10
58.570257
 20
61.769751
 30
0.0
  0
SPLINE
  5
126
100
AcDbEntity
  8
Layer_1
 62
7
100
AcDbSpline
 70
8
 71
3
 72
8
 73
4
 74
0
 40
0
 40
0
 40
0
 40
0
 40
1
 40
1
 40
1
 40
1
 10
58.570257
 20
61.769751
 30
0.0
 10
58.570241
 20
61.504465
 30
0.0
 10
58.464814
 20
61.250057
 30
0.0
 10
58.277180
 20
61.062520
 30
0.0
  0
SPLINE
  5
127
100
AcDbEntity
  8
Layer_1
 62
7
100
AcDbSpline
 70
8
 71
3
 72
8
 73
4
 74
0
 40
0
 40
0
 40
0
 40
0
 40
1
 40
1
 40
1
 40
1
 10
58.277180
 20
61.062520
 30
0.0
 10
58.089546
 20
60.874984
 30
0.0
 10
57.835083
 20
60.769689
 30
0.0
 10
57.569797
 20
60.769811
 30
0.0
  0
SPLINE
  5
128
100
AcDbEntity
  8
Layer_1
 62
7
100
AcDbSpline
 70
8
 71
3
 72
8
 73
4
 74
0
 40
0
 40
0
 40
0
 40
0
 40
1
 40
1
 40
1
 40
1
 10
57.569797
 20
60.769811
 30
0.0
 10
57.017559
 20
60.769844
 30
0.0
 10
56.569890
 20
61.217513
 30
0.0
 10
56.569857
 20
61.769751
 30
0.0
  0
SPLINE
  5
129
100
AcDbEntity
  8
Layer_1
 62
7
100
AcDbSpline
 70
8
 71
3
 72
8
 73
4
 74
0
 40
0
 40
0
 40
0
 40
0
 40
1
 40
1
 40
1
 40
1
 10
56.569857
 20
61.769751
 30
0.0
 10
56.569890
 20
62.321989
 30
0.0
 10
57.017559
 20
62.769658
 30
0.0
 10
57.569797
 20
62.769691
 30
0.0
  0
LWPOLYLINE
  5
12a
100
AcDbEntity
  8
Layer_1
 62
7
100
AcDbPolyline
 90
1
 70
1
 10
57.569797
 20
65.170061
 30
0.0
  0
SPLINE
  5
12b
100
AcDbEntity
  8
Layer_1
 62
7
100
AcDbSpline
 70
8
 71
3
 72
8
 73
4
 74
0
 40
0
 40
0
 40
0
 40
0
 40
1
 40
1
 40
1
 40
1
 10
5.299935
 20
98.150234
 30
0.0
 10
3.305535
 20
98.150234
 30
0.0
 10
1.700155
 20
96.544337
 30
0.0
 10
1.700155
 20
94.549937
 30
0.0
  0
LWPOLYLINE
  5
12c
100
AcDbEntity
  8
Layer_1
 62
7
100
AcDbPolyline
 90
1
 70
1
 10
57.569797
 20
62.769691
 30
0.0
  0
SPLINE
  5
12d
100
AcDbEntity
  8
Layer_1
 62
7
100
AcDbSpline
 70
8
 71
3
 72
8
 73
4
 74
0
 40
0
 40
0
 40
0
 40
0
 40
1
 40
1
 40
1
 40
1
 10
1.700155
 20
89.550243
 30
0.0
 10
1.700155
 20
87.555843
 30
0.0
 10
3.305535
 20
85.949944
 30
0.0
 10
5.299935
 20
85.949944
 30
0.0
  0
LWPOLYLINE
  5
12e
100
AcDbEntity
  8
Layer_1
 62
7
100
AcDbPolyline
 90
2
 70
0
 10
1.700155
 20
94.549937
 30
0.0
 10
1.700155
 20
89.550243
 30
0.0
  0
SPLINE
  5
12f
100
AcDbEntity
  8
Layer_1
 62
7
100
AcDbSpline
 70
8
 71
3
 72
8
 73
4
 74
0
 40
0
 40
0
 40
0
 40
0
 40
1
 40
1
 40
1
 40
1
 10
60.700171
 20
85.949944
 30
0.0
 10
62.694571
 20
85.949944
 30
0.0
 10
64.299952
 20
87.555843
 30
0.0
 10
64.299952
 20
89.550243
 30
0.0
  0
LWPOLYLINE
  5
130
100
AcDbEntity
  8
Layer_1
 62
7
100
AcDbPolyline
 90
2
 70
0
 10
5.299935
 20
85.949944
 30
0.0
 10
60.700171
 20
85.949944
 30
0.0
  0
SPLINE
  5
131
100
AcDbEntity
  8
Layer_1
 62
7
100
AcDbSpline
 70
8
 71
3
 72
8
 73
4
 74
0
 40
0
 40
0
 40
0
 40
0
 40
1
 40
1
 40
1
 40
1
 10
64.299952
 20
94.549937
 30
0.0
 10
64.299952
 20
96.544337
 30
0.0
 10
62.694571
 20
98.150234
 30
0.0
 10
60.700171
 20
98.150234
 30
0.0
  0
LWPOLYLINE
  5
132
100
AcDbEntity
  8
Layer_1
 62
7
100
AcDbPolyline
 90
2
 70
0
 10
64.299952
 20
89.550243
 30
0.0
 10
64.299952
 20
94.549937
 30
0.0
  0
SPLINE
  5
133
100
AcDbEntity
  8
Layer_1
 62
7
100
AcDbSpline
 70
8
 71
3
 72
8
 73
4
 74
0
 40
0
 40
0
 40
0
 40
0
 40
1
 40
1
 40
1
 40
1
 10
17.760156
 20
95.149900
 30
0.0
 10
19.472092
 20
95.149938
 30
0.0
 10
20.859979
 20
93.762282
 30
0.0
 10
20.860226
 20
92.050346
 30
0.0
  0
SPLINE
  5
134
100
AcDbEntity
  8
Layer_1
 62
7
100
AcDbSpline
 70
8
 71
3
 72
8
 73
4
 74
0
 40
0
 40
0
 40
0
 40
0
 40
1
 40
1
 40
1
 40
1
 10
20.860226
 20
92.050346
 30
0.0
 10
20.860243
 20
91.228152
 30
0.0
 10
20.533636
 20
90.439627
 30
0.0
 10
19.952256
 20
89.858247
 30
0.0
  0
SPLINE
  5
135
100
AcDbEntity
  8
Layer_1
 62
7
100
AcDbSpline
 70
8
 71
3
 72
8
 73
4
 74
0
 40
0
 40
0
 40
0
 40
0
 40
1
 40
1
 40
1
 40
1
 10
19.952256
 20
89.858247
 30
0.0
 10
19.370876
 20
89.276868
 30
0.0
 10
18.582351
 20
88.950261
 30
0.0
 10
17.760156
 20
88.950279
 30
0.0
  0
SPLINE
  5
136
100
AcDbEntity
  8
Layer_1
 62
7
100
AcDbSpline
 70
8
 71
3
 72
8
 73
4
 74
0
 40
0
 40
0
 40
0
 40
0
 40
1
 40
1
 40
1
 40
1
 10
17.760156
 20
88.950279
 30
0.0
 10
16.937962
 20
88.950261
 30
0.0
 10
16.149436
 20
89.276868
 30
0.0
 10
15.568057
 20
89.858247
 30
0.0
  0
SPLINE
  5
137
100
AcDbEntity
  8
Layer_1
 62
7
100
AcDbSpline
 70
8
 71
3
 72
8
 73
4
 74
0
 40
0
 40
0
 40
0
 40
0
 40
1
 40
1
 40
1
 40
1
 10
15.568057
 20
89.858247
 30
0.0
 10
14.986677
 20
90.439627
 30
0.0
 10
14.660069
 20
91.228152
 30
0.0
 10
14.660087
 20
92.050346
 30
0.0
  0
SPLINE
  5
138
100
AcDbEntity
  8
Layer_1
 62
7
100
AcDbSpline
 70
8
 71
3
 72
8
 73
4
 74
0
 40
0
 40
0
 40
0
 40
0
 40
1
 40
1
 40
1
 40
1
 10
14.660087
 20
92.050346
 30
0.0
 10
14.660334
 20
93.762282
 30
0.0
 10
16.048221
 20
95.149938
 30
0.0
 10
17.760156
 20
95.149900
 30
0.0
  0
LWPOLYLINE
  5
139
100
AcDbEntity
  8
Layer_1
 62
7
100
AcDbPolyline
 90
2
 70
0
 10
60.700171
 20
98.150234
 30
0.0
 10
5.299935
 20
98.150234
 30
0.0
  0
SPLINE
  5
13a
100
AcDbEntity
  8
Layer_1
 62
7
100
AcDbSpline
 70
8
 71
3
 72
8
 73
4
 74
0
 40
0
 40
0
 40
0
 40
0
 40
1
 40
1
 40
1
 40
1
 10
48.239950
 20
95.149900
 30
0.0
 10
49.951886
 20
95.149939
 30
0.0
 10
51.339773
 20
93.762282
 30
0.0
 10
51.340020
 20
92.050346
 30
0.0
  0
SPLINE
  5
13b
100
AcDbEntity
  8
Layer_1
 62
7
100
AcDbSpline
 70
8
 71
3
 72
8
 73
4
 74
0
 40
0
 40
0
 40
0
 40
0
 40
1
 40
1
 40
1
 40
1
 10
51.340020
 20
92.050346
 30
0.0
 10
51.340038
 20
91.228152
 30
0.0
 10
51.013430
 20
90.439627
 30
0.0
 10
50.432050
 20
89.858247
 30
0.0
  0
SPLINE
  5
13c
100
AcDbEntity
  8
Layer_1
 62
7
100
AcDbSpline
 70
8
 71
3
 72
8
 73
4
 74
0
 40
0
 40
0
 40
0
 40
0
 40
1
 40
1
 40
1
 40
1
 10
50.432050
 20
89.858247
 30
0.0
 10
49.850670
 20
89.276868
 30
0.0
 10
49.062145
 20
88.950261
 30
0.0
 10
48.239950
 20
88.950279
 30
0.0
  0
SPLINE
  5
13d
100
AcDbEntity
  8
Layer_1
 62
7
100
AcDbSpline
 70
8
 71
3
 72
8
 73
4
 74
0
 40
0
 40
0
 40
0
 40
0
 40
1
 40
1
 40
1
 40
1
 10
48.239950
 20
88.950279
 30
0.0
 10
47.417755
 20
88.950261
 30
0.0
 10
46.629230
 20
89.276868
 30
0.0
 10
46.047850
 20
89.858247
 30
0.0
  0
SPLINE
  5
13e
100
AcDbEntity
  8
Layer_1
 62
7
100
AcDbSpline
 70
8
 71
3
 72
8
 73
4
 74
0
 40
0
 40
0
 40
0
 40
0
 40
1
 40
1
 40
1
 40
1
 10
46.047850
 20
89.858247
 30
0.0
 10
45.466470
 20
90.439627
 30
0.0
 10
45.139862
 20
91.228152
 30
0.0
 10
45.139880
 20
92.050346
 30
0.0
  0
SPLINE
  5
13f
100
AcDbEntity
  8
Layer_1
 62
7
100
AcDbSpline
 70
8
 71
3
 72
8
 73
4
 74
0
 40
0
 40
0
 40
0
 40
0
 40
1
 40
1
 40
1
 40
1
 10
45.139880
 20
92.050346
 30
0.0
 10
45.140127
 20
93.762282
 30
0.0
 10
46.528014
 20
95.149939
 30
0.0
 10
48.239950
 20
95.149900
 30
0.0
  0
LWPOLYLINE
  5
140
100
AcDbEntity
  8
Layer_1
 62
7
100
AcDbPolyline
 90
1
 70
1
 10
17.760156
 20
95.149900
 30
0.0
  0
LWPOLYLINE
  5
141
100
AcDbEntity
  8
Layer_1
 62
7
100
AcDbPolyline
 90
1
 70
1
 10
48.239950
 20
95.149900
 30
0.0
  0
ENDSEC
  0
SECTION
  2
OBJECTS
  0
DICTIONARY
  5
C
330
0
100
AcDbDictionary
  3
ACAD_GROUP
350
D
  3
ACAD_MLINESTYLE
350
17
  0
DICTIONARY
  5
D
330
C
100
AcDbDictionary
  0
DICTIONARY
  5
1A
330
C
100
AcDbDictionary
  0
DICTIONARY
  5
17
330
C
100
AcDbDictionary
  3
STANDARD
350
18
  0
DICTIONARY
  5
19
330
C
100
AcDbDictionary
  0
ENDSEC
  0
EOF
