G04 #@! TF.GenerationSoftware,KiCad,Pcbnew,5.1.12*
G04 #@! TF.CreationDate,2026-07-15T09:51:32+06:00*
G04 #@! TF.ProjectId,___-1.41.A-1,221a1f2d-312e-4343-912e-412d312e6b69,4A*
G04 #@! TF.SameCoordinates,Original*
G04 #@! TF.FileFunction,Legend,Bot*
G04 #@! TF.FilePolarity,Positive*
%FSLAX46Y46*%
G04 Gerber Fmt 4.6, Leading zero omitted, Abs format (unit mm)*
G04 Created by KiCad (PCBNEW 5.1.12) date 2026-07-15 09:51:32*
%MOMM*%
%LPD*%
G01*
G04 APERTURE LIST*
%ADD10C,0.200000*%
%ADD11C,2.100000*%
%ADD12O,2.600000X1.800000*%
%ADD13C,6.200000*%
%ADD14O,5.700000X3.200000*%
%ADD15O,3.200000X5.200000*%
%ADD16O,5.200000X3.200000*%
G04 APERTURE END LIST*
D10*
X109838571Y-154382380D02*
X109648095Y-154382380D01*
X109552857Y-154430000D01*
X109457619Y-154525238D01*
X109410000Y-154715714D01*
X109410000Y-155049047D01*
X109457619Y-155239523D01*
X109552857Y-155334761D01*
X109648095Y-155382380D01*
X109838571Y-155382380D01*
X109933809Y-155334761D01*
X110029047Y-155239523D01*
X110076666Y-155049047D01*
X110076666Y-154715714D01*
X110029047Y-154525238D01*
X109933809Y-154430000D01*
X109838571Y-154382380D01*
X108410000Y-155287142D02*
X108457619Y-155334761D01*
X108600476Y-155382380D01*
X108695714Y-155382380D01*
X108838571Y-155334761D01*
X108933809Y-155239523D01*
X108981428Y-155144285D01*
X109029047Y-154953809D01*
X109029047Y-154810952D01*
X108981428Y-154620476D01*
X108933809Y-154525238D01*
X108838571Y-154430000D01*
X108695714Y-154382380D01*
X108600476Y-154382380D01*
X108457619Y-154430000D01*
X108410000Y-154477619D01*
X107981428Y-155382380D02*
X107981428Y-154382380D01*
X107743333Y-154382380D01*
X107600476Y-154430000D01*
X107505238Y-154525238D01*
X107457619Y-154620476D01*
X107410000Y-154810952D01*
X107410000Y-154953809D01*
X107457619Y-155144285D01*
X107505238Y-155239523D01*
X107600476Y-155334761D01*
X107743333Y-155382380D01*
X107981428Y-155382380D01*
X105933809Y-155715714D02*
X106171904Y-155715714D01*
X106171904Y-154287142D01*
X105933809Y-154287142D01*
X104981428Y-155382380D02*
X105314761Y-154906190D01*
X105552857Y-155382380D02*
X105552857Y-154382380D01*
X105171904Y-154382380D01*
X105076666Y-154430000D01*
X105029047Y-154477619D01*
X104981428Y-154572857D01*
X104981428Y-154715714D01*
X105029047Y-154810952D01*
X105076666Y-154858571D01*
X105171904Y-154906190D01*
X105552857Y-154906190D01*
X104552857Y-154858571D02*
X104219523Y-154858571D01*
X104076666Y-155382380D02*
X104552857Y-155382380D01*
X104552857Y-154382380D01*
X104076666Y-154382380D01*
X103790952Y-154382380D02*
X103457619Y-155382380D01*
X103124285Y-154382380D01*
X102362380Y-154715714D02*
X102362380Y-155382380D01*
X102600476Y-154334761D02*
X102838571Y-155049047D01*
X102219523Y-155049047D01*
X101886190Y-155096666D02*
X101410000Y-155096666D01*
X101981428Y-155382380D02*
X101648095Y-154382380D01*
X101314761Y-155382380D01*
X101076666Y-155715714D02*
X100838571Y-155715714D01*
X100838571Y-154287142D01*
X101076666Y-154287142D01*
X110267142Y-156701428D02*
X109505238Y-156701428D01*
X109171904Y-156082380D02*
X108600476Y-156082380D01*
X108886190Y-157082380D02*
X108886190Y-156082380D01*
X108410000Y-156082380D02*
X107838571Y-156082380D01*
X108124285Y-157082380D02*
X108124285Y-156082380D01*
X107505238Y-157082380D02*
X107505238Y-156082380D01*
X106933809Y-157082380D02*
X107362380Y-156510952D01*
X106933809Y-156082380D02*
X107505238Y-156653809D01*
X106505238Y-157082380D02*
X106505238Y-156082380D01*
X106124285Y-156082380D01*
X106029047Y-156130000D01*
X105981428Y-156177619D01*
X105933809Y-156272857D01*
X105933809Y-156415714D01*
X105981428Y-156510952D01*
X106029047Y-156558571D01*
X106124285Y-156606190D01*
X106505238Y-156606190D01*
X105029047Y-156082380D02*
X105029047Y-157082380D01*
X105552857Y-156082380D02*
X105552857Y-156463333D01*
X105505238Y-156558571D01*
X105457619Y-156606190D01*
X105362380Y-156653809D01*
X105029047Y-156653809D01*
X104552857Y-157082380D02*
X104552857Y-156082380D01*
X103981428Y-156082380D01*
X103981428Y-157082380D01*
X102743333Y-157320476D02*
X102743333Y-157082380D01*
X103600476Y-157082380D01*
X103600476Y-157320476D01*
X102933809Y-157082380D02*
X102933809Y-156082380D01*
X103171904Y-156082380D01*
X103267142Y-156130000D01*
X103314761Y-156177619D01*
X103362380Y-156272857D01*
X103457619Y-157082380D01*
X101790952Y-157082380D02*
X101790952Y-156082380D01*
X101933809Y-156082380D01*
X102076666Y-156130000D01*
X102171904Y-156225238D01*
X102219523Y-156368095D01*
X102314761Y-156939523D01*
X102362380Y-157034761D01*
X102457619Y-157082380D01*
X102505238Y-157082380D01*
X101314761Y-156701428D02*
X100552857Y-156701428D01*
X113362380Y-157830000D02*
X113457619Y-157782380D01*
X113600476Y-157782380D01*
X113743333Y-157830000D01*
X113838571Y-157925238D01*
X113886190Y-158020476D01*
X113933809Y-158210952D01*
X113933809Y-158353809D01*
X113886190Y-158544285D01*
X113838571Y-158639523D01*
X113743333Y-158734761D01*
X113600476Y-158782380D01*
X113505238Y-158782380D01*
X113362380Y-158734761D01*
X113314761Y-158687142D01*
X113314761Y-158353809D01*
X113505238Y-158353809D01*
X112886190Y-158782380D02*
X112886190Y-157782380D01*
X112552857Y-157782380D02*
X111981428Y-157782380D01*
X112267142Y-158782380D02*
X112267142Y-157782380D01*
X111648095Y-158782380D02*
X111648095Y-157782380D01*
X111648095Y-158258571D02*
X111076666Y-158258571D01*
X111076666Y-158782380D02*
X111076666Y-157782380D01*
X110600476Y-157782380D02*
X110600476Y-158591904D01*
X110552857Y-158687142D01*
X110505238Y-158734761D01*
X110410000Y-158782380D01*
X110219523Y-158782380D01*
X110124285Y-158734761D01*
X110076666Y-158687142D01*
X110029047Y-158591904D01*
X110029047Y-157782380D01*
X109219523Y-158258571D02*
X109076666Y-158306190D01*
X109029047Y-158353809D01*
X108981428Y-158449047D01*
X108981428Y-158591904D01*
X109029047Y-158687142D01*
X109076666Y-158734761D01*
X109171904Y-158782380D01*
X109552857Y-158782380D01*
X109552857Y-157782380D01*
X109219523Y-157782380D01*
X109124285Y-157830000D01*
X109076666Y-157877619D01*
X109029047Y-157972857D01*
X109029047Y-158068095D01*
X109076666Y-158163333D01*
X109124285Y-158210952D01*
X109219523Y-158258571D01*
X109552857Y-158258571D01*
X108552857Y-158687142D02*
X108505238Y-158734761D01*
X108552857Y-158782380D01*
X108600476Y-158734761D01*
X108552857Y-158687142D01*
X108552857Y-158782380D01*
X107505238Y-158687142D02*
X107552857Y-158734761D01*
X107695714Y-158782380D01*
X107790952Y-158782380D01*
X107933809Y-158734761D01*
X108029047Y-158639523D01*
X108076666Y-158544285D01*
X108124285Y-158353809D01*
X108124285Y-158210952D01*
X108076666Y-158020476D01*
X108029047Y-157925238D01*
X107933809Y-157830000D01*
X107790952Y-157782380D01*
X107695714Y-157782380D01*
X107552857Y-157830000D01*
X107505238Y-157877619D01*
X106886190Y-157782380D02*
X106695714Y-157782380D01*
X106600476Y-157830000D01*
X106505238Y-157925238D01*
X106457619Y-158115714D01*
X106457619Y-158449047D01*
X106505238Y-158639523D01*
X106600476Y-158734761D01*
X106695714Y-158782380D01*
X106886190Y-158782380D01*
X106981428Y-158734761D01*
X107076666Y-158639523D01*
X107124285Y-158449047D01*
X107124285Y-158115714D01*
X107076666Y-157925238D01*
X106981428Y-157830000D01*
X106886190Y-157782380D01*
X106029047Y-158782380D02*
X106029047Y-157782380D01*
X105695714Y-158496666D01*
X105362380Y-157782380D01*
X105362380Y-158782380D01*
X104171904Y-157734761D02*
X105029047Y-159020476D01*
X103886190Y-158496666D02*
X103410000Y-158496666D01*
X103981428Y-158782380D02*
X103648095Y-157782380D01*
X103314761Y-158782380D01*
X102981428Y-158782380D02*
X102981428Y-157782380D01*
X102743333Y-157782380D01*
X102600476Y-157830000D01*
X102505238Y-157925238D01*
X102457619Y-158020476D01*
X102410000Y-158210952D01*
X102410000Y-158353809D01*
X102457619Y-158544285D01*
X102505238Y-158639523D01*
X102600476Y-158734761D01*
X102743333Y-158782380D01*
X102981428Y-158782380D01*
X101981428Y-158258571D02*
X101648095Y-158258571D01*
X101505238Y-158782380D02*
X101981428Y-158782380D01*
X101981428Y-157782380D01*
X101505238Y-157782380D01*
X101076666Y-158782380D02*
X101076666Y-157782380D01*
X100695714Y-157782380D01*
X100600476Y-157830000D01*
X100552857Y-157877619D01*
X100505238Y-157972857D01*
X100505238Y-158115714D01*
X100552857Y-158210952D01*
X100600476Y-158258571D01*
X100695714Y-158306190D01*
X101076666Y-158306190D01*
X100219523Y-157782380D02*
X99648095Y-157782380D01*
X99933809Y-158782380D02*
X99933809Y-157782380D01*
X98886190Y-157782380D02*
X99076666Y-157782380D01*
X99171904Y-157830000D01*
X99219523Y-157877619D01*
X99314761Y-158020476D01*
X99362380Y-158210952D01*
X99362380Y-158591904D01*
X99314761Y-158687142D01*
X99267142Y-158734761D01*
X99171904Y-158782380D01*
X98981428Y-158782380D01*
X98886190Y-158734761D01*
X98838571Y-158687142D01*
X98790952Y-158591904D01*
X98790952Y-158353809D01*
X98838571Y-158258571D01*
X98886190Y-158210952D01*
X98981428Y-158163333D01*
X99171904Y-158163333D01*
X99267142Y-158210952D01*
X99314761Y-158258571D01*
X99362380Y-158353809D01*
X97933809Y-157782380D02*
X98124285Y-157782380D01*
X98219523Y-157830000D01*
X98267142Y-157877619D01*
X98362380Y-158020476D01*
X98410000Y-158210952D01*
X98410000Y-158591904D01*
X98362380Y-158687142D01*
X98314761Y-158734761D01*
X98219523Y-158782380D01*
X98029047Y-158782380D01*
X97933809Y-158734761D01*
X97886190Y-158687142D01*
X97838571Y-158591904D01*
X97838571Y-158353809D01*
X97886190Y-158258571D01*
X97933809Y-158210952D01*
X98029047Y-158163333D01*
X98219523Y-158163333D01*
X98314761Y-158210952D01*
X98362380Y-158258571D01*
X98410000Y-158353809D01*
X96981428Y-157782380D02*
X97171904Y-157782380D01*
X97267142Y-157830000D01*
X97314761Y-157877619D01*
X97410000Y-158020476D01*
X97457619Y-158210952D01*
X97457619Y-158591904D01*
X97410000Y-158687142D01*
X97362380Y-158734761D01*
X97267142Y-158782380D01*
X97076666Y-158782380D01*
X96981428Y-158734761D01*
X96933809Y-158687142D01*
X96886190Y-158591904D01*
X96886190Y-158353809D01*
X96933809Y-158258571D01*
X96981428Y-158210952D01*
X97076666Y-158163333D01*
X97267142Y-158163333D01*
X97362380Y-158210952D01*
X97410000Y-158258571D01*
X97457619Y-158353809D01*
X111552857Y-160387142D02*
X111600476Y-160434761D01*
X111743333Y-160482380D01*
X111838571Y-160482380D01*
X111981428Y-160434761D01*
X112076666Y-160339523D01*
X112124285Y-160244285D01*
X112171904Y-160053809D01*
X112171904Y-159910952D01*
X112124285Y-159720476D01*
X112076666Y-159625238D01*
X111981428Y-159530000D01*
X111838571Y-159482380D01*
X111743333Y-159482380D01*
X111600476Y-159530000D01*
X111552857Y-159577619D01*
X111124285Y-159958571D02*
X110790952Y-159958571D01*
X110648095Y-160482380D02*
X111124285Y-160482380D01*
X111124285Y-159482380D01*
X110648095Y-159482380D01*
X109648095Y-160482380D02*
X109981428Y-160006190D01*
X110219523Y-160482380D02*
X110219523Y-159482380D01*
X109838571Y-159482380D01*
X109743333Y-159530000D01*
X109695714Y-159577619D01*
X109648095Y-159672857D01*
X109648095Y-159815714D01*
X109695714Y-159910952D01*
X109743333Y-159958571D01*
X109838571Y-160006190D01*
X110219523Y-160006190D01*
X109219523Y-160482380D02*
X109219523Y-159482380D01*
X108648095Y-160482380D01*
X108648095Y-159482380D01*
X108171904Y-160101428D02*
X107410000Y-160101428D01*
X106743333Y-159482380D02*
X106552857Y-159482380D01*
X106457619Y-159530000D01*
X106362380Y-159625238D01*
X106314761Y-159815714D01*
X106314761Y-160149047D01*
X106362380Y-160339523D01*
X106457619Y-160434761D01*
X106552857Y-160482380D01*
X106743333Y-160482380D01*
X106838571Y-160434761D01*
X106933809Y-160339523D01*
X106981428Y-160149047D01*
X106981428Y-159815714D01*
X106933809Y-159625238D01*
X106838571Y-159530000D01*
X106743333Y-159482380D01*
X105886190Y-160482380D02*
X105886190Y-159482380D01*
X105886190Y-159958571D02*
X105314761Y-159958571D01*
X105314761Y-160482380D02*
X105314761Y-159482380D01*
X104362380Y-160482380D02*
X104838571Y-160482380D01*
X104838571Y-159482380D01*
X104029047Y-160101428D02*
X103267142Y-160101428D01*
X102838571Y-160434761D02*
X102695714Y-160482380D01*
X102457619Y-160482380D01*
X102362380Y-160434761D01*
X102314761Y-160387142D01*
X102267142Y-160291904D01*
X102267142Y-160196666D01*
X102314761Y-160101428D01*
X102362380Y-160053809D01*
X102457619Y-160006190D01*
X102648095Y-159958571D01*
X102743333Y-159910952D01*
X102790952Y-159863333D01*
X102838571Y-159768095D01*
X102838571Y-159672857D01*
X102790952Y-159577619D01*
X102743333Y-159530000D01*
X102648095Y-159482380D01*
X102410000Y-159482380D01*
X102267142Y-159530000D01*
X101838571Y-160101428D02*
X101076666Y-160101428D01*
X100648095Y-159577619D02*
X100600476Y-159530000D01*
X100505238Y-159482380D01*
X100267142Y-159482380D01*
X100171904Y-159530000D01*
X100124285Y-159577619D01*
X100076666Y-159672857D01*
X100076666Y-159768095D01*
X100124285Y-159910952D01*
X100695714Y-160482380D01*
X100076666Y-160482380D01*
X99648095Y-160387142D02*
X99600476Y-160434761D01*
X99648095Y-160482380D01*
X99695714Y-160434761D01*
X99648095Y-160387142D01*
X99648095Y-160482380D01*
X98981428Y-159482380D02*
X98886190Y-159482380D01*
X98790952Y-159530000D01*
X98743333Y-159577619D01*
X98695714Y-159672857D01*
X98648095Y-159863333D01*
X98648095Y-160101428D01*
X98695714Y-160291904D01*
X98743333Y-160387142D01*
X98790952Y-160434761D01*
X98886190Y-160482380D01*
X98981428Y-160482380D01*
X99076666Y-160434761D01*
X99124285Y-160387142D01*
X99171904Y-160291904D01*
X99219523Y-160101428D01*
X99219523Y-159863333D01*
X99171904Y-159672857D01*
X99124285Y-159577619D01*
X99076666Y-159530000D01*
X98981428Y-159482380D01*
X117602000Y-80010000D02*
G75*
G03*
X117602000Y-80010000I-3302000J0D01*
G01*
X99822000Y-80010000D02*
G75*
G03*
X99822000Y-80010000I-3302000J0D01*
G01*
X81280000Y-88900000D02*
X81280000Y-93980000D01*
X78740000Y-88900000D02*
X78740000Y-93980000D01*
X81280000Y-93980000D02*
G75*
G02*
X78740000Y-93980000I-1270000J0D01*
G01*
X78740000Y-88900000D02*
G75*
G02*
X81280000Y-88900000I1270000J0D01*
G01*
X78740000Y-170180000D02*
X78740000Y-172720000D01*
X81280000Y-170180000D02*
X81280000Y-172720000D01*
X78740000Y-170180000D02*
G75*
G02*
X81280000Y-170180000I1270000J0D01*
G01*
X81280000Y-172720000D02*
G75*
G02*
X78740000Y-172720000I-1270000J0D01*
G01*
X132080000Y-172720000D02*
X132080000Y-170180000D01*
X129540000Y-172720000D02*
X129540000Y-170180000D01*
X132080000Y-172720000D02*
G75*
G02*
X129540000Y-172720000I-1270000J0D01*
G01*
X129540000Y-170180000D02*
G75*
G02*
X132080000Y-170180000I1270000J0D01*
G01*
X87630000Y-179070000D02*
X95250000Y-179070000D01*
X87630000Y-181610000D02*
X95250000Y-181610000D01*
X95250000Y-179070000D02*
G75*
G02*
X95250000Y-181610000I0J-1270000D01*
G01*
X87630000Y-181610000D02*
G75*
G02*
X87630000Y-179070000I0J1270000D01*
G01*
X115570000Y-179070000D02*
X123190000Y-179070000D01*
X115570000Y-181610000D02*
X123190000Y-181610000D01*
X123190000Y-179070000D02*
G75*
G02*
X123190000Y-181610000I0J-1270000D01*
G01*
X115570000Y-181610000D02*
G75*
G02*
X115570000Y-179070000I0J1270000D01*
G01*
X82780119Y-92701904D02*
X82780119Y-92130476D01*
X81780119Y-92416190D02*
X82780119Y-92416190D01*
X81780119Y-91797142D02*
X82780119Y-91797142D01*
X82780119Y-91416190D01*
X82732500Y-91320952D01*
X82684880Y-91273333D01*
X82589642Y-91225714D01*
X82446785Y-91225714D01*
X82351547Y-91273333D01*
X82303928Y-91320952D01*
X82256309Y-91416190D01*
X82256309Y-91797142D01*
X82780119Y-90892380D02*
X82780119Y-90273333D01*
X82399166Y-90606666D01*
X82399166Y-90463809D01*
X82351547Y-90368571D01*
X82303928Y-90320952D01*
X82208690Y-90273333D01*
X81970595Y-90273333D01*
X81875357Y-90320952D01*
X81827738Y-90368571D01*
X81780119Y-90463809D01*
X81780119Y-90749523D01*
X81827738Y-90844761D01*
X81875357Y-90892380D01*
X82780119Y-172711904D02*
X82780119Y-172140476D01*
X81780119Y-172426190D02*
X82780119Y-172426190D01*
X81780119Y-171807142D02*
X82780119Y-171807142D01*
X82780119Y-171426190D01*
X82732500Y-171330952D01*
X82684880Y-171283333D01*
X82589642Y-171235714D01*
X82446785Y-171235714D01*
X82351547Y-171283333D01*
X82303928Y-171330952D01*
X82256309Y-171426190D01*
X82256309Y-171807142D01*
X82780119Y-170330952D02*
X82780119Y-170807142D01*
X82303928Y-170854761D01*
X82351547Y-170807142D01*
X82399166Y-170711904D01*
X82399166Y-170473809D01*
X82351547Y-170378571D01*
X82303928Y-170330952D01*
X82208690Y-170283333D01*
X81970595Y-170283333D01*
X81875357Y-170330952D01*
X81827738Y-170378571D01*
X81780119Y-170473809D01*
X81780119Y-170711904D01*
X81827738Y-170807142D01*
X81875357Y-170854761D01*
X128039880Y-170188095D02*
X128039880Y-170759523D01*
X129039880Y-170473809D02*
X128039880Y-170473809D01*
X129039880Y-171092857D02*
X128039880Y-171092857D01*
X128039880Y-171473809D01*
X128087500Y-171569047D01*
X128135119Y-171616666D01*
X128230357Y-171664285D01*
X128373214Y-171664285D01*
X128468452Y-171616666D01*
X128516071Y-171569047D01*
X128563690Y-171473809D01*
X128563690Y-171092857D01*
X128373214Y-172521428D02*
X129039880Y-172521428D01*
X127992261Y-172283333D02*
X128706547Y-172045238D01*
X128706547Y-172664285D01*
X92701904Y-177569880D02*
X92130476Y-177569880D01*
X92416190Y-178569880D02*
X92416190Y-177569880D01*
X91797142Y-178569880D02*
X91797142Y-177569880D01*
X91416190Y-177569880D01*
X91320952Y-177617500D01*
X91273333Y-177665119D01*
X91225714Y-177760357D01*
X91225714Y-177903214D01*
X91273333Y-177998452D01*
X91320952Y-178046071D01*
X91416190Y-178093690D01*
X91797142Y-178093690D01*
X90844761Y-177665119D02*
X90797142Y-177617500D01*
X90701904Y-177569880D01*
X90463809Y-177569880D01*
X90368571Y-177617500D01*
X90320952Y-177665119D01*
X90273333Y-177760357D01*
X90273333Y-177855595D01*
X90320952Y-177998452D01*
X90892380Y-178569880D01*
X90273333Y-178569880D01*
X120641904Y-177569880D02*
X120070476Y-177569880D01*
X120356190Y-178569880D02*
X120356190Y-177569880D01*
X119737142Y-178569880D02*
X119737142Y-177569880D01*
X119356190Y-177569880D01*
X119260952Y-177617500D01*
X119213333Y-177665119D01*
X119165714Y-177760357D01*
X119165714Y-177903214D01*
X119213333Y-177998452D01*
X119260952Y-178046071D01*
X119356190Y-178093690D01*
X119737142Y-178093690D01*
X118213333Y-178569880D02*
X118784761Y-178569880D01*
X118499047Y-178569880D02*
X118499047Y-177569880D01*
X118594285Y-177712738D01*
X118689523Y-177807976D01*
X118784761Y-177855595D01*
%LPC*%
D11*
X98425000Y-95250000D03*
G36*
G01*
X98845000Y-93760000D02*
X98005000Y-93760000D01*
G75*
G02*
X97375000Y-93130000I0J630000D01*
G01*
X97375000Y-92290000D01*
G75*
G02*
X98005000Y-91660000I630000J0D01*
G01*
X98845000Y-91660000D01*
G75*
G02*
X99475000Y-92290000I0J-630000D01*
G01*
X99475000Y-93130000D01*
G75*
G02*
X98845000Y-93760000I-630000J0D01*
G01*
G37*
G36*
G01*
X112815000Y-93760000D02*
X111975000Y-93760000D01*
G75*
G02*
X111345000Y-93130000I0J630000D01*
G01*
X111345000Y-92290000D01*
G75*
G02*
X111975000Y-91660000I630000J0D01*
G01*
X112815000Y-91660000D01*
G75*
G02*
X113445000Y-92290000I0J-630000D01*
G01*
X113445000Y-93130000D01*
G75*
G02*
X112815000Y-93760000I-630000J0D01*
G01*
G37*
X112395000Y-95250000D03*
D12*
X87960000Y-126185000D03*
X84760000Y-126185000D03*
X87960000Y-110435000D03*
X84760000Y-110435000D03*
G36*
G01*
X87410000Y-119560000D02*
X87410000Y-117060000D01*
G75*
G02*
X87510000Y-116960000I100000J0D01*
G01*
X90010000Y-116960000D01*
G75*
G02*
X90110000Y-117060000I0J-100000D01*
G01*
X90110000Y-119560000D01*
G75*
G02*
X90010000Y-119660000I-100000J0D01*
G01*
X87510000Y-119660000D01*
G75*
G02*
X87410000Y-119560000I0J100000D01*
G01*
G37*
G36*
G01*
X87410000Y-114860000D02*
X87410000Y-112360000D01*
G75*
G02*
X87510000Y-112260000I100000J0D01*
G01*
X90010000Y-112260000D01*
G75*
G02*
X90110000Y-112360000I0J-100000D01*
G01*
X90110000Y-114860000D01*
G75*
G02*
X90010000Y-114960000I-100000J0D01*
G01*
X87510000Y-114960000D01*
G75*
G02*
X87410000Y-114860000I0J100000D01*
G01*
G37*
G36*
G01*
X87410000Y-124260000D02*
X87410000Y-121760000D01*
G75*
G02*
X87510000Y-121660000I100000J0D01*
G01*
X90010000Y-121660000D01*
G75*
G02*
X90110000Y-121760000I0J-100000D01*
G01*
X90110000Y-124260000D01*
G75*
G02*
X90010000Y-124360000I-100000J0D01*
G01*
X87510000Y-124360000D01*
G75*
G02*
X87410000Y-124260000I0J100000D01*
G01*
G37*
G36*
G01*
X82610000Y-114860000D02*
X82610000Y-112360000D01*
G75*
G02*
X82710000Y-112260000I100000J0D01*
G01*
X85210000Y-112260000D01*
G75*
G02*
X85310000Y-112360000I0J-100000D01*
G01*
X85310000Y-114860000D01*
G75*
G02*
X85210000Y-114960000I-100000J0D01*
G01*
X82710000Y-114960000D01*
G75*
G02*
X82610000Y-114860000I0J100000D01*
G01*
G37*
G36*
G01*
X82610000Y-119560000D02*
X82610000Y-117060000D01*
G75*
G02*
X82710000Y-116960000I100000J0D01*
G01*
X85210000Y-116960000D01*
G75*
G02*
X85310000Y-117060000I0J-100000D01*
G01*
X85310000Y-119560000D01*
G75*
G02*
X85210000Y-119660000I-100000J0D01*
G01*
X82710000Y-119660000D01*
G75*
G02*
X82610000Y-119560000I0J100000D01*
G01*
G37*
G36*
G01*
X82610000Y-124260000D02*
X82610000Y-121760000D01*
G75*
G02*
X82710000Y-121660000I100000J0D01*
G01*
X85210000Y-121660000D01*
G75*
G02*
X85310000Y-121760000I0J-100000D01*
G01*
X85310000Y-124260000D01*
G75*
G02*
X85210000Y-124360000I-100000J0D01*
G01*
X82710000Y-124360000D01*
G75*
G02*
X82610000Y-124260000I0J100000D01*
G01*
G37*
G36*
G01*
X84870000Y-142560000D02*
X84870000Y-144460000D01*
G75*
G02*
X84770000Y-144560000I-100000J0D01*
G01*
X82870000Y-144560000D01*
G75*
G02*
X82770000Y-144460000I0J100000D01*
G01*
X82770000Y-142560000D01*
G75*
G02*
X82870000Y-142460000I100000J0D01*
G01*
X84770000Y-142460000D01*
G75*
G02*
X84870000Y-142560000I0J-100000D01*
G01*
G37*
D11*
X97790000Y-143510000D03*
G36*
G01*
X84870000Y-137480000D02*
X84870000Y-139380000D01*
G75*
G02*
X84770000Y-139480000I-100000J0D01*
G01*
X82870000Y-139480000D01*
G75*
G02*
X82770000Y-139380000I0J100000D01*
G01*
X82770000Y-137480000D01*
G75*
G02*
X82870000Y-137380000I100000J0D01*
G01*
X84770000Y-137380000D01*
G75*
G02*
X84870000Y-137480000I0J-100000D01*
G01*
G37*
G36*
G01*
X87410000Y-137480000D02*
X87410000Y-139380000D01*
G75*
G02*
X87310000Y-139480000I-100000J0D01*
G01*
X85410000Y-139480000D01*
G75*
G02*
X85310000Y-139380000I0J100000D01*
G01*
X85310000Y-137480000D01*
G75*
G02*
X85410000Y-137380000I100000J0D01*
G01*
X87310000Y-137380000D01*
G75*
G02*
X87410000Y-137480000I0J-100000D01*
G01*
G37*
X88900000Y-138430000D03*
G36*
G01*
X87850000Y-134300000D02*
X87850000Y-132400000D01*
G75*
G02*
X87950000Y-132300000I100000J0D01*
G01*
X89850000Y-132300000D01*
G75*
G02*
X89950000Y-132400000I0J-100000D01*
G01*
X89950000Y-134300000D01*
G75*
G02*
X89850000Y-134400000I-100000J0D01*
G01*
X87950000Y-134400000D01*
G75*
G02*
X87850000Y-134300000I0J100000D01*
G01*
G37*
G36*
G01*
X85310000Y-134300000D02*
X85310000Y-132400000D01*
G75*
G02*
X85410000Y-132300000I100000J0D01*
G01*
X87310000Y-132300000D01*
G75*
G02*
X87410000Y-132400000I0J-100000D01*
G01*
X87410000Y-134300000D01*
G75*
G02*
X87310000Y-134400000I-100000J0D01*
G01*
X85410000Y-134400000D01*
G75*
G02*
X85310000Y-134300000I0J100000D01*
G01*
G37*
X83820000Y-133350000D03*
G36*
G01*
X101820000Y-108900000D02*
X101820000Y-107000000D01*
G75*
G02*
X101920000Y-106900000I100000J0D01*
G01*
X103820000Y-106900000D01*
G75*
G02*
X103920000Y-107000000I0J-100000D01*
G01*
X103920000Y-108900000D01*
G75*
G02*
X103820000Y-109000000I-100000J0D01*
G01*
X101920000Y-109000000D01*
G75*
G02*
X101820000Y-108900000I0J100000D01*
G01*
G37*
G36*
G01*
X106900000Y-108900000D02*
X106900000Y-107000000D01*
G75*
G02*
X107000000Y-106900000I100000J0D01*
G01*
X108900000Y-106900000D01*
G75*
G02*
X109000000Y-107000000I0J-100000D01*
G01*
X109000000Y-108900000D01*
G75*
G02*
X108900000Y-109000000I-100000J0D01*
G01*
X107000000Y-109000000D01*
G75*
G02*
X106900000Y-108900000I0J100000D01*
G01*
G37*
G36*
G01*
X109540000Y-120870000D02*
X111440000Y-120870000D01*
G75*
G02*
X111540000Y-120970000I0J-100000D01*
G01*
X111540000Y-122870000D01*
G75*
G02*
X111440000Y-122970000I-100000J0D01*
G01*
X109540000Y-122970000D01*
G75*
G02*
X109440000Y-122870000I0J100000D01*
G01*
X109440000Y-120970000D01*
G75*
G02*
X109540000Y-120870000I100000J0D01*
G01*
G37*
G36*
G01*
X109540000Y-125950000D02*
X111440000Y-125950000D01*
G75*
G02*
X111540000Y-126050000I0J-100000D01*
G01*
X111540000Y-127950000D01*
G75*
G02*
X111440000Y-128050000I-100000J0D01*
G01*
X109540000Y-128050000D01*
G75*
G02*
X109440000Y-127950000I0J100000D01*
G01*
X109440000Y-126050000D01*
G75*
G02*
X109540000Y-125950000I100000J0D01*
G01*
G37*
G36*
G01*
X120330000Y-114080000D02*
X118430000Y-114080000D01*
G75*
G02*
X118330000Y-113980000I0J100000D01*
G01*
X118330000Y-112080000D01*
G75*
G02*
X118430000Y-111980000I100000J0D01*
G01*
X120330000Y-111980000D01*
G75*
G02*
X120430000Y-112080000I0J-100000D01*
G01*
X120430000Y-113980000D01*
G75*
G02*
X120330000Y-114080000I-100000J0D01*
G01*
G37*
G36*
G01*
X120330000Y-109000000D02*
X118430000Y-109000000D01*
G75*
G02*
X118330000Y-108900000I0J100000D01*
G01*
X118330000Y-107000000D01*
G75*
G02*
X118430000Y-106900000I100000J0D01*
G01*
X120330000Y-106900000D01*
G75*
G02*
X120430000Y-107000000I0J-100000D01*
G01*
X120430000Y-108900000D01*
G75*
G02*
X120330000Y-109000000I-100000J0D01*
G01*
G37*
X129540000Y-101600000D03*
G36*
G01*
X125950000Y-102550000D02*
X125950000Y-100650000D01*
G75*
G02*
X126050000Y-100550000I100000J0D01*
G01*
X127950000Y-100550000D01*
G75*
G02*
X128050000Y-100650000I0J-100000D01*
G01*
X128050000Y-102550000D01*
G75*
G02*
X127950000Y-102650000I-100000J0D01*
G01*
X126050000Y-102650000D01*
G75*
G02*
X125950000Y-102550000I0J100000D01*
G01*
G37*
X124460000Y-101600000D03*
G36*
G01*
X120870000Y-102550000D02*
X120870000Y-100650000D01*
G75*
G02*
X120970000Y-100550000I100000J0D01*
G01*
X122870000Y-100550000D01*
G75*
G02*
X122970000Y-100650000I0J-100000D01*
G01*
X122970000Y-102550000D01*
G75*
G02*
X122870000Y-102650000I-100000J0D01*
G01*
X120970000Y-102650000D01*
G75*
G02*
X120870000Y-102550000I0J100000D01*
G01*
G37*
X119380000Y-101600000D03*
X110490000Y-115570000D03*
G36*
G01*
X106900000Y-116520000D02*
X106900000Y-114620000D01*
G75*
G02*
X107000000Y-114520000I100000J0D01*
G01*
X108900000Y-114520000D01*
G75*
G02*
X109000000Y-114620000I0J-100000D01*
G01*
X109000000Y-116520000D01*
G75*
G02*
X108900000Y-116620000I-100000J0D01*
G01*
X107000000Y-116620000D01*
G75*
G02*
X106900000Y-116520000I0J100000D01*
G01*
G37*
X105410000Y-115570000D03*
G36*
G01*
X101820000Y-116520000D02*
X101820000Y-114620000D01*
G75*
G02*
X101920000Y-114520000I100000J0D01*
G01*
X103820000Y-114520000D01*
G75*
G02*
X103920000Y-114620000I0J-100000D01*
G01*
X103920000Y-116520000D01*
G75*
G02*
X103820000Y-116620000I-100000J0D01*
G01*
X101920000Y-116620000D01*
G75*
G02*
X101820000Y-116520000I0J100000D01*
G01*
G37*
X100330000Y-115570000D03*
X91440000Y-101600000D03*
G36*
G01*
X87850000Y-102550000D02*
X87850000Y-100650000D01*
G75*
G02*
X87950000Y-100550000I100000J0D01*
G01*
X89850000Y-100550000D01*
G75*
G02*
X89950000Y-100650000I0J-100000D01*
G01*
X89950000Y-102550000D01*
G75*
G02*
X89850000Y-102650000I-100000J0D01*
G01*
X87950000Y-102650000D01*
G75*
G02*
X87850000Y-102550000I0J100000D01*
G01*
G37*
X86360000Y-101600000D03*
G36*
G01*
X82770000Y-102550000D02*
X82770000Y-100650000D01*
G75*
G02*
X82870000Y-100550000I100000J0D01*
G01*
X84770000Y-100550000D01*
G75*
G02*
X84870000Y-100650000I0J-100000D01*
G01*
X84870000Y-102550000D01*
G75*
G02*
X84770000Y-102650000I-100000J0D01*
G01*
X82870000Y-102650000D01*
G75*
G02*
X82770000Y-102550000I0J100000D01*
G01*
G37*
X81280000Y-101600000D03*
G36*
G01*
X109060000Y-176510000D02*
X109060000Y-174010000D01*
G75*
G02*
X109160000Y-173910000I100000J0D01*
G01*
X111660000Y-173910000D01*
G75*
G02*
X111760000Y-174010000I0J-100000D01*
G01*
X111760000Y-176510000D01*
G75*
G02*
X111660000Y-176610000I-100000J0D01*
G01*
X109160000Y-176610000D01*
G75*
G02*
X109060000Y-176510000I0J100000D01*
G01*
G37*
G36*
G01*
X109060000Y-180510000D02*
X109060000Y-178010000D01*
G75*
G02*
X109160000Y-177910000I100000J0D01*
G01*
X111660000Y-177910000D01*
G75*
G02*
X111760000Y-178010000I0J-100000D01*
G01*
X111760000Y-180510000D01*
G75*
G02*
X111660000Y-180610000I-100000J0D01*
G01*
X109160000Y-180610000D01*
G75*
G02*
X109060000Y-180510000I0J100000D01*
G01*
G37*
G36*
G01*
X109060000Y-172510000D02*
X109060000Y-170010000D01*
G75*
G02*
X109160000Y-169910000I100000J0D01*
G01*
X111660000Y-169910000D01*
G75*
G02*
X111760000Y-170010000I0J-100000D01*
G01*
X111760000Y-172510000D01*
G75*
G02*
X111660000Y-172610000I-100000J0D01*
G01*
X109160000Y-172610000D01*
G75*
G02*
X109060000Y-172510000I0J100000D01*
G01*
G37*
G36*
G01*
X104060000Y-176510000D02*
X104060000Y-174010000D01*
G75*
G02*
X104160000Y-173910000I100000J0D01*
G01*
X106660000Y-173910000D01*
G75*
G02*
X106760000Y-174010000I0J-100000D01*
G01*
X106760000Y-176510000D01*
G75*
G02*
X106660000Y-176610000I-100000J0D01*
G01*
X104160000Y-176610000D01*
G75*
G02*
X104060000Y-176510000I0J100000D01*
G01*
G37*
G36*
G01*
X104060000Y-180510000D02*
X104060000Y-178010000D01*
G75*
G02*
X104160000Y-177910000I100000J0D01*
G01*
X106660000Y-177910000D01*
G75*
G02*
X106760000Y-178010000I0J-100000D01*
G01*
X106760000Y-180510000D01*
G75*
G02*
X106660000Y-180610000I-100000J0D01*
G01*
X104160000Y-180610000D01*
G75*
G02*
X104060000Y-180510000I0J100000D01*
G01*
G37*
G36*
G01*
X104060000Y-172510000D02*
X104060000Y-170010000D01*
G75*
G02*
X104160000Y-169910000I100000J0D01*
G01*
X106660000Y-169910000D01*
G75*
G02*
X106760000Y-170010000I0J-100000D01*
G01*
X106760000Y-172510000D01*
G75*
G02*
X106660000Y-172610000I-100000J0D01*
G01*
X104160000Y-172610000D01*
G75*
G02*
X104060000Y-172510000I0J100000D01*
G01*
G37*
G36*
G01*
X99060000Y-172510000D02*
X99060000Y-170010000D01*
G75*
G02*
X99160000Y-169910000I100000J0D01*
G01*
X101660000Y-169910000D01*
G75*
G02*
X101760000Y-170010000I0J-100000D01*
G01*
X101760000Y-172510000D01*
G75*
G02*
X101660000Y-172610000I-100000J0D01*
G01*
X99160000Y-172610000D01*
G75*
G02*
X99060000Y-172510000I0J100000D01*
G01*
G37*
G36*
G01*
X99060000Y-176510000D02*
X99060000Y-174010000D01*
G75*
G02*
X99160000Y-173910000I100000J0D01*
G01*
X101660000Y-173910000D01*
G75*
G02*
X101760000Y-174010000I0J-100000D01*
G01*
X101760000Y-176510000D01*
G75*
G02*
X101660000Y-176610000I-100000J0D01*
G01*
X99160000Y-176610000D01*
G75*
G02*
X99060000Y-176510000I0J100000D01*
G01*
G37*
G36*
G01*
X99060000Y-180510000D02*
X99060000Y-178010000D01*
G75*
G02*
X99160000Y-177910000I100000J0D01*
G01*
X101660000Y-177910000D01*
G75*
G02*
X101760000Y-178010000I0J-100000D01*
G01*
X101760000Y-180510000D01*
G75*
G02*
X101660000Y-180610000I-100000J0D01*
G01*
X99160000Y-180610000D01*
G75*
G02*
X99060000Y-180510000I0J100000D01*
G01*
G37*
D13*
X114300000Y-80010000D03*
X96520000Y-80010000D03*
D11*
X86360000Y-173990000D03*
G36*
G01*
X85940000Y-175480000D02*
X86780000Y-175480000D01*
G75*
G02*
X87410000Y-176110000I0J-630000D01*
G01*
X87410000Y-176950000D01*
G75*
G02*
X86780000Y-177580000I-630000J0D01*
G01*
X85940000Y-177580000D01*
G75*
G02*
X85310000Y-176950000I0J630000D01*
G01*
X85310000Y-176110000D01*
G75*
G02*
X85940000Y-175480000I630000J0D01*
G01*
G37*
X120015000Y-85725000D03*
G36*
G01*
X127855000Y-86675000D02*
X127855000Y-84775000D01*
G75*
G02*
X127955000Y-84675000I100000J0D01*
G01*
X129855000Y-84675000D01*
G75*
G02*
X129955000Y-84775000I0J-100000D01*
G01*
X129955000Y-86675000D01*
G75*
G02*
X129855000Y-86775000I-100000J0D01*
G01*
X127955000Y-86775000D01*
G75*
G02*
X127855000Y-86675000I0J100000D01*
G01*
G37*
X80010000Y-93980000D03*
X80010000Y-91440000D03*
X80010000Y-88900000D03*
D14*
X105410000Y-89700000D03*
D15*
X100610000Y-87200000D03*
D16*
X105410000Y-83700000D03*
G36*
G01*
X116780000Y-167180000D02*
X113780000Y-167180000D01*
G75*
G02*
X113680000Y-167080000I0J100000D01*
G01*
X113680000Y-164080000D01*
G75*
G02*
X113780000Y-163980000I100000J0D01*
G01*
X116780000Y-163980000D01*
G75*
G02*
X116880000Y-164080000I0J-100000D01*
G01*
X116880000Y-167080000D01*
G75*
G02*
X116780000Y-167180000I-100000J0D01*
G01*
G37*
G36*
G01*
X123080000Y-167180000D02*
X120080000Y-167180000D01*
G75*
G02*
X119980000Y-167080000I0J100000D01*
G01*
X119980000Y-164080000D01*
G75*
G02*
X120080000Y-163980000I100000J0D01*
G01*
X123080000Y-163980000D01*
G75*
G02*
X123180000Y-164080000I0J-100000D01*
G01*
X123180000Y-167080000D01*
G75*
G02*
X123080000Y-167180000I-100000J0D01*
G01*
G37*
G36*
G01*
X129380000Y-167180000D02*
X126380000Y-167180000D01*
G75*
G02*
X126280000Y-167080000I0J100000D01*
G01*
X126280000Y-164080000D01*
G75*
G02*
X126380000Y-163980000I100000J0D01*
G01*
X129380000Y-163980000D01*
G75*
G02*
X129480000Y-164080000I0J-100000D01*
G01*
X129480000Y-167080000D01*
G75*
G02*
X129380000Y-167180000I-100000J0D01*
G01*
G37*
G36*
G01*
X116780000Y-150980000D02*
X113780000Y-150980000D01*
G75*
G02*
X113680000Y-150880000I0J100000D01*
G01*
X113680000Y-147880000D01*
G75*
G02*
X113780000Y-147780000I100000J0D01*
G01*
X116780000Y-147780000D01*
G75*
G02*
X116880000Y-147880000I0J-100000D01*
G01*
X116880000Y-150880000D01*
G75*
G02*
X116780000Y-150980000I-100000J0D01*
G01*
G37*
G36*
G01*
X123080000Y-150980000D02*
X120080000Y-150980000D01*
G75*
G02*
X119980000Y-150880000I0J100000D01*
G01*
X119980000Y-147880000D01*
G75*
G02*
X120080000Y-147780000I100000J0D01*
G01*
X123080000Y-147780000D01*
G75*
G02*
X123180000Y-147880000I0J-100000D01*
G01*
X123180000Y-150880000D01*
G75*
G02*
X123080000Y-150980000I-100000J0D01*
G01*
G37*
G36*
G01*
X129380000Y-150980000D02*
X126380000Y-150980000D01*
G75*
G02*
X126280000Y-150880000I0J100000D01*
G01*
X126280000Y-147880000D01*
G75*
G02*
X126380000Y-147780000I100000J0D01*
G01*
X129380000Y-147780000D01*
G75*
G02*
X129480000Y-147880000I0J-100000D01*
G01*
X129480000Y-150880000D01*
G75*
G02*
X129380000Y-150980000I-100000J0D01*
G01*
G37*
G36*
G01*
X94040000Y-147780000D02*
X97040000Y-147780000D01*
G75*
G02*
X97140000Y-147880000I0J-100000D01*
G01*
X97140000Y-150880000D01*
G75*
G02*
X97040000Y-150980000I-100000J0D01*
G01*
X94040000Y-150980000D01*
G75*
G02*
X93940000Y-150880000I0J100000D01*
G01*
X93940000Y-147880000D01*
G75*
G02*
X94040000Y-147780000I100000J0D01*
G01*
G37*
G36*
G01*
X87740000Y-147780000D02*
X90740000Y-147780000D01*
G75*
G02*
X90840000Y-147880000I0J-100000D01*
G01*
X90840000Y-150880000D01*
G75*
G02*
X90740000Y-150980000I-100000J0D01*
G01*
X87740000Y-150980000D01*
G75*
G02*
X87640000Y-150880000I0J100000D01*
G01*
X87640000Y-147880000D01*
G75*
G02*
X87740000Y-147780000I100000J0D01*
G01*
G37*
G36*
G01*
X81440000Y-147780000D02*
X84440000Y-147780000D01*
G75*
G02*
X84540000Y-147880000I0J-100000D01*
G01*
X84540000Y-150880000D01*
G75*
G02*
X84440000Y-150980000I-100000J0D01*
G01*
X81440000Y-150980000D01*
G75*
G02*
X81340000Y-150880000I0J100000D01*
G01*
X81340000Y-147880000D01*
G75*
G02*
X81440000Y-147780000I100000J0D01*
G01*
G37*
G36*
G01*
X94040000Y-163980000D02*
X97040000Y-163980000D01*
G75*
G02*
X97140000Y-164080000I0J-100000D01*
G01*
X97140000Y-167080000D01*
G75*
G02*
X97040000Y-167180000I-100000J0D01*
G01*
X94040000Y-167180000D01*
G75*
G02*
X93940000Y-167080000I0J100000D01*
G01*
X93940000Y-164080000D01*
G75*
G02*
X94040000Y-163980000I100000J0D01*
G01*
G37*
G36*
G01*
X87740000Y-163980000D02*
X90740000Y-163980000D01*
G75*
G02*
X90840000Y-164080000I0J-100000D01*
G01*
X90840000Y-167080000D01*
G75*
G02*
X90740000Y-167180000I-100000J0D01*
G01*
X87740000Y-167180000D01*
G75*
G02*
X87640000Y-167080000I0J100000D01*
G01*
X87640000Y-164080000D01*
G75*
G02*
X87740000Y-163980000I100000J0D01*
G01*
G37*
G36*
G01*
X81440000Y-163980000D02*
X84440000Y-163980000D01*
G75*
G02*
X84540000Y-164080000I0J-100000D01*
G01*
X84540000Y-167080000D01*
G75*
G02*
X84440000Y-167180000I-100000J0D01*
G01*
X81440000Y-167180000D01*
G75*
G02*
X81340000Y-167080000I0J100000D01*
G01*
X81340000Y-164080000D01*
G75*
G02*
X81440000Y-163980000I100000J0D01*
G01*
G37*
D11*
X80010000Y-170180000D03*
X80010000Y-172720000D03*
X130810000Y-172720000D03*
X130810000Y-170180000D03*
X95250000Y-180340000D03*
X92710000Y-180340000D03*
X90170000Y-180340000D03*
X87630000Y-180340000D03*
X123190000Y-180340000D03*
X120650000Y-180340000D03*
X118110000Y-180340000D03*
X115570000Y-180340000D03*
G36*
G01*
X104360000Y-184465000D02*
X104360000Y-182565000D01*
G75*
G02*
X104460000Y-182465000I100000J0D01*
G01*
X106360000Y-182465000D01*
G75*
G02*
X106460000Y-182565000I0J-100000D01*
G01*
X106460000Y-184465000D01*
G75*
G02*
X106360000Y-184565000I-100000J0D01*
G01*
X104460000Y-184565000D01*
G75*
G02*
X104360000Y-184465000I0J100000D01*
G01*
G37*
X115570000Y-176530000D03*
G36*
G01*
X123410000Y-177480000D02*
X123410000Y-175580000D01*
G75*
G02*
X123510000Y-175480000I100000J0D01*
G01*
X125410000Y-175480000D01*
G75*
G02*
X125510000Y-175580000I0J-100000D01*
G01*
X125510000Y-177480000D01*
G75*
G02*
X125410000Y-177580000I-100000J0D01*
G01*
X123510000Y-177580000D01*
G75*
G02*
X123410000Y-177480000I0J100000D01*
G01*
G37*
G36*
G01*
X120870000Y-144460000D02*
X120870000Y-142560000D01*
G75*
G02*
X120970000Y-142460000I100000J0D01*
G01*
X122870000Y-142460000D01*
G75*
G02*
X122970000Y-142560000I0J-100000D01*
G01*
X122970000Y-144460000D01*
G75*
G02*
X122870000Y-144560000I-100000J0D01*
G01*
X120970000Y-144560000D01*
G75*
G02*
X120870000Y-144460000I0J100000D01*
G01*
G37*
G36*
G01*
X125950000Y-144460000D02*
X125950000Y-142560000D01*
G75*
G02*
X126050000Y-142460000I100000J0D01*
G01*
X127950000Y-142460000D01*
G75*
G02*
X128050000Y-142560000I0J-100000D01*
G01*
X128050000Y-144460000D01*
G75*
G02*
X127950000Y-144560000I-100000J0D01*
G01*
X126050000Y-144560000D01*
G75*
G02*
X125950000Y-144460000I0J100000D01*
G01*
G37*
G36*
G01*
X109000000Y-132400000D02*
X109000000Y-134300000D01*
G75*
G02*
X108900000Y-134400000I-100000J0D01*
G01*
X107000000Y-134400000D01*
G75*
G02*
X106900000Y-134300000I0J100000D01*
G01*
X106900000Y-132400000D01*
G75*
G02*
X107000000Y-132300000I100000J0D01*
G01*
X108900000Y-132300000D01*
G75*
G02*
X109000000Y-132400000I0J-100000D01*
G01*
G37*
G36*
G01*
X103920000Y-132400000D02*
X103920000Y-134300000D01*
G75*
G02*
X103820000Y-134400000I-100000J0D01*
G01*
X101920000Y-134400000D01*
G75*
G02*
X101820000Y-134300000I0J100000D01*
G01*
X101820000Y-132400000D01*
G75*
G02*
X101920000Y-132300000I100000J0D01*
G01*
X103820000Y-132300000D01*
G75*
G02*
X103920000Y-132400000I0J-100000D01*
G01*
G37*
M02*
