G04 #@! TF.GenerationSoftware,KiCad,Pcbnew,5.1.12*
G04 #@! TF.CreationDate,2026-07-15T09:51:32+06:00*
G04 #@! TF.ProjectId,___-1.41.A-1,221a1f2d-312e-4343-912e-412d312e6b69,4A*
G04 #@! TF.SameCoordinates,Original*
G04 #@! TF.FileFunction,Legend,Top*
G04 #@! TF.FilePolarity,Positive*
%FSLAX46Y46*%
G04 Gerber Fmt 4.6, Leading zero omitted, Abs format (unit mm)*
G04 Created by KiCad (PCBNEW 5.1.12) date 2026-07-15 09:51:32*
%MOMM*%
%LPD*%
G01*
G04 APERTURE LIST*
%ADD10C,0.200000*%
%ADD11C,0.500000*%
%ADD12C,1.370000*%
%ADD13C,1.000000*%
%ADD14C,2.100000*%
%ADD15O,2.600000X1.800000*%
%ADD16C,6.200000*%
%ADD17O,5.700000X3.200000*%
%ADD18O,3.200000X5.200000*%
%ADD19O,5.200000X3.200000*%
%ADD20C,3.000000*%
G04 APERTURE END LIST*
D10*
G36*
X95885000Y-93980000D02*
G01*
X96012000Y-93218000D01*
X96774000Y-92075000D01*
X98425000Y-91440000D01*
X100076000Y-92075000D01*
X100838000Y-93218000D01*
X100965000Y-93980000D01*
X95885000Y-93980000D01*
G37*
X95885000Y-93980000D02*
X96012000Y-93218000D01*
X96774000Y-92075000D01*
X98425000Y-91440000D01*
X100076000Y-92075000D01*
X100838000Y-93218000D01*
X100965000Y-93980000D01*
X95885000Y-93980000D01*
X100965000Y-93980000D02*
G75*
G03*
X100965000Y-93980000I-2540000J0D01*
G01*
X114935000Y-93980000D02*
G75*
G03*
X114935000Y-93980000I-2540000J0D01*
G01*
G36*
X109855000Y-93980000D02*
G01*
X109982000Y-93218000D01*
X110744000Y-92075000D01*
X112395000Y-91440000D01*
X114046000Y-92075000D01*
X114808000Y-93218000D01*
X114935000Y-93980000D01*
X109855000Y-93980000D01*
G37*
X109855000Y-93980000D02*
X109982000Y-93218000D01*
X110744000Y-92075000D01*
X112395000Y-91440000D01*
X114046000Y-92075000D01*
X114808000Y-93218000D01*
X114935000Y-93980000D01*
X109855000Y-93980000D01*
G36*
X87630000Y-95885000D02*
G01*
X86995000Y-95885000D01*
X86995000Y-95250000D01*
X87630000Y-95885000D01*
G37*
X87630000Y-95885000D02*
X86995000Y-95885000D01*
X86995000Y-95250000D01*
X87630000Y-95885000D01*
G36*
X90805000Y-95250000D02*
G01*
X90805000Y-95885000D01*
X90170000Y-95885000D01*
X90805000Y-95250000D01*
G37*
X90805000Y-95250000D02*
X90805000Y-95885000D01*
X90170000Y-95885000D01*
X90805000Y-95250000D01*
X90805000Y-95885000D02*
X90805000Y-86995000D01*
X86995000Y-95885000D02*
X86995000Y-86995000D01*
X86995000Y-86995000D02*
X90805000Y-86995000D01*
X87249000Y-91186000D02*
X90551000Y-91186000D01*
X87249000Y-91694000D02*
X90551000Y-91694000D01*
X86995000Y-95885000D02*
X90805000Y-95885000D01*
X88900000Y-92329000D02*
X88900000Y-91694000D01*
X88900000Y-91186000D02*
X88900000Y-90551000D01*
G36*
X120015000Y-90170000D02*
G01*
X120015000Y-89535000D01*
X120650000Y-89535000D01*
X120015000Y-90170000D01*
G37*
X120015000Y-90170000D02*
X120015000Y-89535000D01*
X120650000Y-89535000D01*
X120015000Y-90170000D01*
G36*
X120650000Y-93345000D02*
G01*
X120015000Y-93345000D01*
X120015000Y-92710000D01*
X120650000Y-93345000D01*
G37*
X120650000Y-93345000D02*
X120015000Y-93345000D01*
X120015000Y-92710000D01*
X120650000Y-93345000D01*
X120015000Y-93345000D02*
X128905000Y-93345000D01*
X120015000Y-89535000D02*
X128905000Y-89535000D01*
X128905000Y-89535000D02*
X128905000Y-93345000D01*
X124714000Y-89789000D02*
X124714000Y-93091000D01*
X124206000Y-89789000D02*
X124206000Y-93091000D01*
X120015000Y-89535000D02*
X120015000Y-93345000D01*
X123571000Y-91440000D02*
X124206000Y-91440000D01*
X124714000Y-91440000D02*
X125349000Y-91440000D01*
X80010000Y-111710000D02*
X92710000Y-111710000D01*
X80010000Y-124910000D02*
X92710000Y-124910000D01*
X80010000Y-111710000D02*
X80010000Y-124910000D01*
X92710000Y-111710000D02*
X92710000Y-124910000D01*
D11*
X81485000Y-113610000D02*
G75*
G03*
X81485000Y-113610000I-250000J0D01*
G01*
D10*
X98806000Y-124714000D02*
X98298000Y-124206000D01*
X98298000Y-124206000D02*
X97790000Y-124714000D01*
X98806000Y-124714000D02*
X99314000Y-124206000D01*
X99314000Y-124206000D02*
X99822000Y-124714000D01*
X99822000Y-124714000D02*
X100330000Y-124206000D01*
X100330000Y-127000000D02*
X100330000Y-121920000D01*
X97790000Y-127000000D02*
X97790000Y-121920000D01*
X97790000Y-121920000D02*
X100330000Y-121920000D01*
X97790000Y-127000000D02*
X100330000Y-127000000D01*
D11*
X96135000Y-143510000D02*
G75*
G03*
X96135000Y-143510000I-250000J0D01*
G01*
D10*
X90170000Y-144145000D02*
X90170000Y-142875000D01*
X91440000Y-142875000D02*
X90170000Y-143510000D01*
X91440000Y-144145000D02*
X90170000Y-143510000D01*
X91440000Y-144145000D02*
X91440000Y-142875000D01*
X82550000Y-145415000D02*
X82550000Y-141605000D01*
X99060000Y-145415000D02*
X99060000Y-141605000D01*
X99060000Y-141605000D02*
X82550000Y-141605000D01*
X99060000Y-145415000D02*
X82550000Y-145415000D01*
X88391250Y-136905000D02*
X84328750Y-136905000D01*
X88391250Y-136905000D02*
G75*
G02*
X84328750Y-136905000I-2031250J-1525000D01*
G01*
X84328750Y-134875000D02*
X88391250Y-134875000D01*
X84328750Y-134875000D02*
G75*
G02*
X88391250Y-134875000I2031250J1525000D01*
G01*
X95250000Y-127000000D02*
X97790000Y-127000000D01*
X95250000Y-121920000D02*
X97790000Y-121920000D01*
X95250000Y-127000000D02*
X95250000Y-121920000D01*
X97790000Y-127000000D02*
X97790000Y-121920000D01*
X97282000Y-124714000D02*
X97790000Y-124206000D01*
X96774000Y-124206000D02*
X97282000Y-124714000D01*
X96266000Y-124714000D02*
X96774000Y-124206000D01*
X95758000Y-124206000D02*
X95250000Y-124714000D01*
X96266000Y-124714000D02*
X95758000Y-124206000D01*
X106045000Y-107315000D02*
X106045000Y-108585000D01*
X104775000Y-107315000D02*
X104775000Y-108585000D01*
X106045000Y-107950000D02*
X106680000Y-107950000D01*
X104140000Y-107950000D02*
X104775000Y-107950000D01*
X109220000Y-106680000D02*
X109220000Y-109220000D01*
X101600000Y-106680000D02*
X101600000Y-109220000D01*
X101600000Y-109220000D02*
X109220000Y-109220000D01*
X101600000Y-106680000D02*
X109220000Y-106680000D01*
X106680000Y-121920000D02*
X104140000Y-121920000D01*
X106680000Y-127000000D02*
X104140000Y-127000000D01*
X106680000Y-121920000D02*
X106680000Y-127000000D01*
X104140000Y-121920000D02*
X104140000Y-127000000D01*
X104648000Y-124206000D02*
X104140000Y-124714000D01*
X105156000Y-124714000D02*
X104648000Y-124206000D01*
X105664000Y-124206000D02*
X105156000Y-124714000D01*
X106172000Y-124714000D02*
X106680000Y-124206000D01*
X105664000Y-124206000D02*
X106172000Y-124714000D01*
X111125000Y-125095000D02*
X109855000Y-125095000D01*
X111125000Y-123825000D02*
X109855000Y-123825000D01*
X110490000Y-125095000D02*
X110490000Y-125730000D01*
X110490000Y-123190000D02*
X110490000Y-123825000D01*
X111760000Y-128270000D02*
X109220000Y-128270000D01*
X111760000Y-120650000D02*
X109220000Y-120650000D01*
X109220000Y-120650000D02*
X109220000Y-128270000D01*
X111760000Y-120650000D02*
X111760000Y-128270000D01*
X117094000Y-124206000D02*
X117602000Y-124714000D01*
X117602000Y-124714000D02*
X118110000Y-124206000D01*
X117094000Y-124206000D02*
X116586000Y-124714000D01*
X116586000Y-124714000D02*
X116078000Y-124206000D01*
X116078000Y-124206000D02*
X115570000Y-124714000D01*
X115570000Y-121920000D02*
X115570000Y-127000000D01*
X118110000Y-121920000D02*
X118110000Y-127000000D01*
X118110000Y-127000000D02*
X115570000Y-127000000D01*
X118110000Y-121920000D02*
X115570000Y-121920000D01*
X128270000Y-113030000D02*
X130810000Y-113030000D01*
X128270000Y-107950000D02*
X130810000Y-107950000D01*
X128270000Y-113030000D02*
X128270000Y-107950000D01*
X130810000Y-113030000D02*
X130810000Y-107950000D01*
X130302000Y-110744000D02*
X130810000Y-110236000D01*
X129794000Y-110236000D02*
X130302000Y-110744000D01*
X129286000Y-110744000D02*
X129794000Y-110236000D01*
X128778000Y-110236000D02*
X128270000Y-110744000D01*
X129286000Y-110744000D02*
X128778000Y-110236000D01*
X118745000Y-109855000D02*
X120015000Y-109855000D01*
X118745000Y-111125000D02*
X120015000Y-111125000D01*
X119380000Y-109855000D02*
X119380000Y-109220000D01*
X119380000Y-111760000D02*
X119380000Y-111125000D01*
X118110000Y-106680000D02*
X120650000Y-106680000D01*
X118110000Y-114300000D02*
X120650000Y-114300000D01*
X120650000Y-114300000D02*
X120650000Y-106680000D01*
X118110000Y-114300000D02*
X118110000Y-106680000D01*
X115570000Y-121920000D02*
X113030000Y-121920000D01*
X115570000Y-127000000D02*
X113030000Y-127000000D01*
X115316000Y-124206000D02*
X113284000Y-124206000D01*
X115316000Y-124714000D02*
X113284000Y-124714000D01*
X115570000Y-121920000D02*
X115570000Y-127000000D01*
X113030000Y-121920000D02*
X113030000Y-127000000D01*
X128524000Y-125095000D02*
X120396000Y-125095000D01*
X120396000Y-125095000D02*
X120396000Y-120015000D01*
X120396000Y-120015000D02*
X128524000Y-120015000D01*
X128524000Y-125095000D02*
X128524000Y-120015000D01*
X125476000Y-125095000D02*
G75*
G03*
X123444000Y-125095000I-1016000J0D01*
G01*
D12*
X120065000Y-101600000D02*
G75*
G03*
X120065000Y-101600000I-685000J0D01*
G01*
D10*
X125730000Y-101600000D02*
G75*
G03*
X125730000Y-101600000I-1270000J0D01*
G01*
X130810000Y-101600000D02*
G75*
G03*
X130810000Y-101600000I-1270000J0D01*
G01*
X118110000Y-100330000D02*
X130810000Y-100330000D01*
X116840000Y-102870000D02*
X132080000Y-102870000D01*
X116840000Y-104470000D02*
X132080000Y-104470000D01*
X118110000Y-100330000D02*
X118110000Y-102870000D01*
X130810000Y-100330000D02*
X130810000Y-102870000D01*
X116840000Y-102870000D02*
X116840000Y-104470000D01*
X132080000Y-102870000D02*
X132080000Y-104470000D01*
D12*
X101015000Y-115570000D02*
G75*
G03*
X101015000Y-115570000I-685000J0D01*
G01*
D10*
X106680000Y-115570000D02*
G75*
G03*
X106680000Y-115570000I-1270000J0D01*
G01*
X111760000Y-115570000D02*
G75*
G03*
X111760000Y-115570000I-1270000J0D01*
G01*
X99060000Y-114300000D02*
X111760000Y-114300000D01*
X97790000Y-116840000D02*
X113030000Y-116840000D01*
X97790000Y-118440000D02*
X113030000Y-118440000D01*
X99060000Y-114300000D02*
X99060000Y-116840000D01*
X111760000Y-114300000D02*
X111760000Y-116840000D01*
X97790000Y-116840000D02*
X97790000Y-118440000D01*
X113030000Y-116840000D02*
X113030000Y-118440000D01*
D12*
X81965000Y-101600000D02*
G75*
G03*
X81965000Y-101600000I-685000J0D01*
G01*
D10*
X87630000Y-101600000D02*
G75*
G03*
X87630000Y-101600000I-1270000J0D01*
G01*
X92710000Y-101600000D02*
G75*
G03*
X92710000Y-101600000I-1270000J0D01*
G01*
X80010000Y-100330000D02*
X92710000Y-100330000D01*
X78740000Y-102870000D02*
X93980000Y-102870000D01*
X78740000Y-104470000D02*
X93980000Y-104470000D01*
X80010000Y-100330000D02*
X80010000Y-102870000D01*
X92710000Y-100330000D02*
X92710000Y-102870000D01*
X78740000Y-102870000D02*
X78740000Y-104470000D01*
X93980000Y-102870000D02*
X93980000Y-104470000D01*
X110410000Y-175260000D02*
G75*
G03*
X110410000Y-175260000I-5000000J0D01*
G01*
X96910000Y-168510000D02*
X113910000Y-168510000D01*
X96910000Y-182010000D02*
X113910000Y-182010000D01*
X96910000Y-168510000D02*
X96910000Y-182010000D01*
X113910000Y-168510000D02*
X113910000Y-182010000D01*
X117602000Y-80010000D02*
G75*
G03*
X117602000Y-80010000I-3302000J0D01*
G01*
X99822000Y-80010000D02*
G75*
G03*
X99822000Y-80010000I-3302000J0D01*
G01*
X121920000Y-95250000D02*
X121920000Y-97790000D01*
X127000000Y-95250000D02*
X127000000Y-97790000D01*
X124206000Y-95504000D02*
X124206000Y-97536000D01*
X124714000Y-95504000D02*
X124714000Y-97536000D01*
X121920000Y-95250000D02*
X127000000Y-95250000D01*
X121920000Y-97790000D02*
X127000000Y-97790000D01*
X127635000Y-84455000D02*
X127635000Y-86995000D01*
X118745000Y-84455000D02*
X130175000Y-84455000D01*
X118745000Y-86995000D02*
X130175000Y-86995000D01*
X118745000Y-84455000D02*
X118745000Y-86995000D01*
X130175000Y-84455000D02*
X130175000Y-86995000D01*
X123952000Y-85217000D02*
X123952000Y-86233000D01*
X123952000Y-85217000D02*
X124968000Y-85725000D01*
X123952000Y-86233000D02*
X124968000Y-85725000D01*
X124968000Y-85217000D02*
X124968000Y-86233000D01*
X81280000Y-88900000D02*
X81280000Y-93980000D01*
X78740000Y-88900000D02*
X78740000Y-93980000D01*
X81280000Y-93980000D02*
G75*
G02*
X78740000Y-93980000I-1270000J0D01*
G01*
X78740000Y-88900000D02*
G75*
G02*
X81280000Y-88900000I1270000J0D01*
G01*
X102870000Y-100330000D02*
X107950000Y-100330000D01*
X102870000Y-97790000D02*
X107950000Y-97790000D01*
X105664000Y-98044000D02*
X105664000Y-100076000D01*
X105156000Y-98044000D02*
X105156000Y-100076000D01*
X107950000Y-97790000D02*
X107950000Y-100330000D01*
X102870000Y-97790000D02*
X102870000Y-100330000D01*
X105156000Y-103886000D02*
X105664000Y-103378000D01*
X105664000Y-103378000D02*
X105156000Y-102870000D01*
X105156000Y-103886000D02*
X105664000Y-104394000D01*
X105664000Y-104394000D02*
X105156000Y-104902000D01*
X105156000Y-104902000D02*
X105664000Y-105410000D01*
X102870000Y-105410000D02*
X107950000Y-105410000D01*
X102870000Y-102870000D02*
X107950000Y-102870000D01*
X107950000Y-102870000D02*
X107950000Y-105410000D01*
X102870000Y-102870000D02*
X102870000Y-105410000D01*
X105664000Y-101854000D02*
X105156000Y-102362000D01*
X105156000Y-102362000D02*
X105664000Y-102870000D01*
X105664000Y-101854000D02*
X105156000Y-101346000D01*
X105156000Y-101346000D02*
X105664000Y-100838000D01*
X105664000Y-100838000D02*
X105156000Y-100330000D01*
X107950000Y-100330000D02*
X102870000Y-100330000D01*
X107950000Y-102870000D02*
X102870000Y-102870000D01*
X102870000Y-102870000D02*
X102870000Y-100330000D01*
X107950000Y-102870000D02*
X107950000Y-100330000D01*
X100910000Y-90400000D02*
X100910000Y-76835000D01*
X109910000Y-90400000D02*
X109910000Y-76835000D01*
X109910000Y-90400000D02*
X100910000Y-90400000D01*
X132080000Y-167480000D02*
X132080000Y-147480000D01*
X111080000Y-167480000D02*
X111080000Y-147480000D01*
X111080000Y-167480000D02*
X132080000Y-167480000D01*
X111080000Y-147480000D02*
X132080000Y-147480000D01*
D13*
X128380000Y-157480000D02*
G75*
G03*
X128380000Y-157480000I-500000J0D01*
G01*
D10*
X78740000Y-147480000D02*
X78740000Y-167480000D01*
X99740000Y-147480000D02*
X99740000Y-167480000D01*
X99740000Y-147480000D02*
X78740000Y-147480000D01*
X99740000Y-167480000D02*
X78740000Y-167480000D01*
D13*
X83440000Y-157480000D02*
G75*
G03*
X83440000Y-157480000I-500000J0D01*
G01*
D10*
X78740000Y-170180000D02*
X78740000Y-172720000D01*
X81280000Y-170180000D02*
X81280000Y-172720000D01*
X78740000Y-170180000D02*
G75*
G02*
X81280000Y-170180000I1270000J0D01*
G01*
X81280000Y-172720000D02*
G75*
G02*
X78740000Y-172720000I-1270000J0D01*
G01*
X132080000Y-172720000D02*
X132080000Y-170180000D01*
X129540000Y-172720000D02*
X129540000Y-170180000D01*
X132080000Y-172720000D02*
G75*
G02*
X129540000Y-172720000I-1270000J0D01*
G01*
X129540000Y-170180000D02*
G75*
G02*
X132080000Y-170180000I1270000J0D01*
G01*
X95250000Y-179070000D02*
X95250000Y-176530000D01*
X90170000Y-179070000D02*
X90170000Y-176530000D01*
X95250000Y-179070000D02*
X90170000Y-179070000D01*
X95250000Y-176530000D02*
X90170000Y-176530000D01*
X92964000Y-177038000D02*
X92456000Y-176530000D01*
X92456000Y-177546000D02*
X92964000Y-177038000D01*
X92964000Y-178054000D02*
X92456000Y-177546000D01*
X92456000Y-178562000D02*
X92964000Y-179070000D01*
X92964000Y-178054000D02*
X92456000Y-178562000D01*
X93980000Y-170180000D02*
X91440000Y-170180000D01*
X93980000Y-175260000D02*
X91440000Y-175260000D01*
X93980000Y-170180000D02*
X93980000Y-175260000D01*
X91440000Y-170180000D02*
X91440000Y-175260000D01*
X91948000Y-172466000D02*
X91440000Y-172974000D01*
X92456000Y-172974000D02*
X91948000Y-172466000D01*
X92964000Y-172466000D02*
X92456000Y-172974000D01*
X93472000Y-172974000D02*
X93980000Y-172466000D01*
X92964000Y-172466000D02*
X93472000Y-172974000D01*
X116840000Y-175260000D02*
X119380000Y-175260000D01*
X116840000Y-170180000D02*
X119380000Y-170180000D01*
X116840000Y-175260000D02*
X116840000Y-170180000D01*
X119380000Y-175260000D02*
X119380000Y-170180000D01*
X118872000Y-172974000D02*
X119380000Y-172466000D01*
X118364000Y-172466000D02*
X118872000Y-172974000D01*
X117856000Y-172974000D02*
X118364000Y-172466000D01*
X117348000Y-172466000D02*
X116840000Y-172974000D01*
X117856000Y-172974000D02*
X117348000Y-172466000D01*
X87630000Y-179070000D02*
X95250000Y-179070000D01*
X87630000Y-181610000D02*
X95250000Y-181610000D01*
X95250000Y-179070000D02*
G75*
G02*
X95250000Y-181610000I0J-1270000D01*
G01*
X87630000Y-181610000D02*
G75*
G02*
X87630000Y-179070000I0J1270000D01*
G01*
X115570000Y-179070000D02*
X123190000Y-179070000D01*
X115570000Y-181610000D02*
X123190000Y-181610000D01*
X123190000Y-179070000D02*
G75*
G02*
X123190000Y-181610000I0J-1270000D01*
G01*
X115570000Y-181610000D02*
G75*
G02*
X115570000Y-179070000I0J1270000D01*
G01*
X106680000Y-182245000D02*
X106680000Y-184785000D01*
X104140000Y-182245000D02*
X104140000Y-184785000D01*
X104140000Y-184785000D02*
X106680000Y-184785000D01*
X104140000Y-182245000D02*
X106680000Y-182245000D01*
X120523000Y-176022000D02*
X120523000Y-177038000D01*
X119507000Y-177038000D02*
X120523000Y-176530000D01*
X119507000Y-176022000D02*
X120523000Y-176530000D01*
X119507000Y-176022000D02*
X119507000Y-177038000D01*
X125730000Y-175260000D02*
X125730000Y-177800000D01*
X114300000Y-175260000D02*
X114300000Y-177800000D01*
X114300000Y-177800000D02*
X125730000Y-177800000D01*
X114300000Y-175260000D02*
X125730000Y-175260000D01*
X123190000Y-175260000D02*
X123190000Y-177800000D01*
X127000000Y-173355000D02*
X127000000Y-170815000D01*
X121920000Y-173355000D02*
X121920000Y-170815000D01*
X127000000Y-173355000D02*
X121920000Y-173355000D01*
X127000000Y-170815000D02*
X121920000Y-170815000D01*
X124714000Y-171323000D02*
X124206000Y-170815000D01*
X124206000Y-171831000D02*
X124714000Y-171323000D01*
X124714000Y-172339000D02*
X124206000Y-171831000D01*
X124206000Y-172847000D02*
X124714000Y-173355000D01*
X124714000Y-172339000D02*
X124206000Y-172847000D01*
X88582500Y-173990000D02*
X84137500Y-173990000D01*
X88960000Y-175260000D02*
G75*
G03*
X88960000Y-175260000I-2600000J0D01*
G01*
X125095000Y-142875000D02*
X125095000Y-144145000D01*
X123825000Y-142875000D02*
X123825000Y-144145000D01*
X125095000Y-143510000D02*
X125730000Y-143510000D01*
X123190000Y-143510000D02*
X123825000Y-143510000D01*
X128270000Y-142240000D02*
X128270000Y-144780000D01*
X120650000Y-142240000D02*
X120650000Y-144780000D01*
X120650000Y-144780000D02*
X128270000Y-144780000D01*
X120650000Y-142240000D02*
X128270000Y-142240000D01*
X104775000Y-135255000D02*
X104775000Y-131445000D01*
X106045000Y-135255000D02*
X106045000Y-131445000D01*
X104775000Y-133350000D02*
X104140000Y-133350000D01*
X106680000Y-133350000D02*
X106045000Y-133350000D01*
X101600000Y-135890000D02*
X101600000Y-130810000D01*
X109220000Y-135890000D02*
X109220000Y-130810000D01*
X109220000Y-130810000D02*
X101600000Y-130810000D01*
X109220000Y-135890000D02*
X101600000Y-135890000D01*
X105664000Y-138684000D02*
X105156000Y-139192000D01*
X105156000Y-139192000D02*
X105664000Y-139700000D01*
X105664000Y-138684000D02*
X105156000Y-138176000D01*
X105156000Y-138176000D02*
X105664000Y-137668000D01*
X105664000Y-137668000D02*
X105156000Y-137160000D01*
X107950000Y-137160000D02*
X102870000Y-137160000D01*
X107950000Y-139700000D02*
X102870000Y-139700000D01*
X102870000Y-139700000D02*
X102870000Y-137160000D01*
X107950000Y-139700000D02*
X107950000Y-137160000D01*
X127000000Y-140970000D02*
X127000000Y-138430000D01*
X121920000Y-140970000D02*
X121920000Y-138430000D01*
X127000000Y-140970000D02*
X121920000Y-140970000D01*
X127000000Y-138430000D02*
X121920000Y-138430000D01*
X124714000Y-138938000D02*
X124206000Y-138430000D01*
X124206000Y-139446000D02*
X124714000Y-138938000D01*
X124714000Y-139954000D02*
X124206000Y-139446000D01*
X124206000Y-140462000D02*
X124714000Y-140970000D01*
X124714000Y-139954000D02*
X124206000Y-140462000D01*
X122936000Y-132334000D02*
X122428000Y-131826000D01*
X122428000Y-131826000D02*
X121920000Y-132334000D01*
X122936000Y-132334000D02*
X123444000Y-131826000D01*
X123444000Y-131826000D02*
X123952000Y-132334000D01*
X123952000Y-132334000D02*
X124460000Y-131826000D01*
X124460000Y-134620000D02*
X124460000Y-129540000D01*
X121920000Y-134620000D02*
X121920000Y-129540000D01*
X121920000Y-129540000D02*
X124460000Y-129540000D01*
X121920000Y-134620000D02*
X124460000Y-134620000D01*
X128270000Y-134620000D02*
X130810000Y-134620000D01*
X128270000Y-129540000D02*
X130810000Y-129540000D01*
X128270000Y-134620000D02*
X128270000Y-129540000D01*
X130810000Y-134620000D02*
X130810000Y-129540000D01*
X130302000Y-132334000D02*
X130810000Y-131826000D01*
X129794000Y-131826000D02*
X130302000Y-132334000D01*
X129286000Y-132334000D02*
X129794000Y-131826000D01*
X128778000Y-131826000D02*
X128270000Y-132334000D01*
X129286000Y-132334000D02*
X128778000Y-131826000D01*
X127000000Y-129540000D02*
X124460000Y-129540000D01*
X127000000Y-134620000D02*
X124460000Y-134620000D01*
X127000000Y-129540000D02*
X127000000Y-134620000D01*
X124460000Y-129540000D02*
X124460000Y-134620000D01*
X124968000Y-131826000D02*
X124460000Y-132334000D01*
X125476000Y-132334000D02*
X124968000Y-131826000D01*
X125984000Y-131826000D02*
X125476000Y-132334000D01*
X126492000Y-132334000D02*
X127000000Y-131826000D01*
X125984000Y-131826000D02*
X126492000Y-132334000D01*
X102870000Y-121920000D02*
X100330000Y-121920000D01*
X102870000Y-127000000D02*
X100330000Y-127000000D01*
X102870000Y-121920000D02*
X102870000Y-127000000D01*
X100330000Y-121920000D02*
X100330000Y-127000000D01*
X100838000Y-124206000D02*
X100330000Y-124714000D01*
X101346000Y-124714000D02*
X100838000Y-124206000D01*
X101854000Y-124206000D02*
X101346000Y-124714000D01*
X102362000Y-124714000D02*
X102870000Y-124206000D01*
X101854000Y-124206000D02*
X102362000Y-124714000D01*
X127254000Y-110236000D02*
X127762000Y-110744000D01*
X127762000Y-110744000D02*
X128270000Y-110236000D01*
X127254000Y-110236000D02*
X126746000Y-110744000D01*
X126746000Y-110744000D02*
X126238000Y-110236000D01*
X126238000Y-110236000D02*
X125730000Y-110744000D01*
X125730000Y-107950000D02*
X125730000Y-113030000D01*
X128270000Y-107950000D02*
X128270000Y-113030000D01*
X128270000Y-113030000D02*
X125730000Y-113030000D01*
X128270000Y-107950000D02*
X125730000Y-107950000D01*
X107950000Y-139700000D02*
X102870000Y-139700000D01*
X107950000Y-142240000D02*
X102870000Y-142240000D01*
X105156000Y-141986000D02*
X105156000Y-139954000D01*
X105664000Y-141986000D02*
X105664000Y-139954000D01*
X102870000Y-142240000D02*
X102870000Y-139700000D01*
X107950000Y-142240000D02*
X107950000Y-139700000D01*
X124460000Y-107950000D02*
X121920000Y-107950000D01*
X124460000Y-113030000D02*
X121920000Y-113030000D01*
X124206000Y-110236000D02*
X122174000Y-110236000D01*
X124206000Y-110744000D02*
X122174000Y-110744000D01*
X124460000Y-107950000D02*
X124460000Y-113030000D01*
X121920000Y-107950000D02*
X121920000Y-113030000D01*
X111760000Y-84455000D02*
X111760000Y-86995000D01*
X116840000Y-84455000D02*
X116840000Y-86995000D01*
X111760000Y-84455000D02*
X116840000Y-84455000D01*
X111760000Y-86995000D02*
X116840000Y-86995000D01*
X114046000Y-86487000D02*
X114554000Y-86995000D01*
X114554000Y-85979000D02*
X114046000Y-86487000D01*
X114046000Y-85471000D02*
X114554000Y-85979000D01*
X114554000Y-84963000D02*
X114046000Y-84455000D01*
X114046000Y-85471000D02*
X114554000Y-84963000D01*
X95384880Y-95932380D02*
X94384880Y-95932380D01*
X94384880Y-95551428D01*
X94432500Y-95456190D01*
X94480119Y-95408571D01*
X94575357Y-95360952D01*
X94718214Y-95360952D01*
X94813452Y-95408571D01*
X94861071Y-95456190D01*
X94908690Y-95551428D01*
X94908690Y-95932380D01*
X95337261Y-94980000D02*
X95384880Y-94837142D01*
X95384880Y-94599047D01*
X95337261Y-94503809D01*
X95289642Y-94456190D01*
X95194404Y-94408571D01*
X95099166Y-94408571D01*
X95003928Y-94456190D01*
X94956309Y-94503809D01*
X94908690Y-94599047D01*
X94861071Y-94789523D01*
X94813452Y-94884761D01*
X94765833Y-94932380D01*
X94670595Y-94980000D01*
X94575357Y-94980000D01*
X94480119Y-94932380D01*
X94432500Y-94884761D01*
X94384880Y-94789523D01*
X94384880Y-94551428D01*
X94432500Y-94408571D01*
X95289642Y-93980000D02*
X95337261Y-93932380D01*
X95384880Y-93980000D01*
X95337261Y-94027619D01*
X95289642Y-93980000D01*
X95384880Y-93980000D01*
X95289642Y-92932380D02*
X95337261Y-92980000D01*
X95384880Y-93122857D01*
X95384880Y-93218095D01*
X95337261Y-93360952D01*
X95242023Y-93456190D01*
X95146785Y-93503809D01*
X94956309Y-93551428D01*
X94813452Y-93551428D01*
X94622976Y-93503809D01*
X94527738Y-93456190D01*
X94432500Y-93360952D01*
X94384880Y-93218095D01*
X94384880Y-93122857D01*
X94432500Y-92980000D01*
X94480119Y-92932380D01*
X94384880Y-92027619D02*
X94384880Y-92503809D01*
X94861071Y-92551428D01*
X94813452Y-92503809D01*
X94765833Y-92408571D01*
X94765833Y-92170476D01*
X94813452Y-92075238D01*
X94861071Y-92027619D01*
X94956309Y-91980000D01*
X95194404Y-91980000D01*
X95289642Y-92027619D01*
X95337261Y-92075238D01*
X95384880Y-92170476D01*
X95384880Y-92408571D01*
X95337261Y-92503809D01*
X95289642Y-92551428D01*
X116339880Y-95932380D02*
X115339880Y-95932380D01*
X115339880Y-95551428D01*
X115387500Y-95456190D01*
X115435119Y-95408571D01*
X115530357Y-95360952D01*
X115673214Y-95360952D01*
X115768452Y-95408571D01*
X115816071Y-95456190D01*
X115863690Y-95551428D01*
X115863690Y-95932380D01*
X116292261Y-94980000D02*
X116339880Y-94837142D01*
X116339880Y-94599047D01*
X116292261Y-94503809D01*
X116244642Y-94456190D01*
X116149404Y-94408571D01*
X116054166Y-94408571D01*
X115958928Y-94456190D01*
X115911309Y-94503809D01*
X115863690Y-94599047D01*
X115816071Y-94789523D01*
X115768452Y-94884761D01*
X115720833Y-94932380D01*
X115625595Y-94980000D01*
X115530357Y-94980000D01*
X115435119Y-94932380D01*
X115387500Y-94884761D01*
X115339880Y-94789523D01*
X115339880Y-94551428D01*
X115387500Y-94408571D01*
X116244642Y-93980000D02*
X116292261Y-93932380D01*
X116339880Y-93980000D01*
X116292261Y-94027619D01*
X116244642Y-93980000D01*
X116339880Y-93980000D01*
X116244642Y-92932380D02*
X116292261Y-92980000D01*
X116339880Y-93122857D01*
X116339880Y-93218095D01*
X116292261Y-93360952D01*
X116197023Y-93456190D01*
X116101785Y-93503809D01*
X115911309Y-93551428D01*
X115768452Y-93551428D01*
X115577976Y-93503809D01*
X115482738Y-93456190D01*
X115387500Y-93360952D01*
X115339880Y-93218095D01*
X115339880Y-93122857D01*
X115387500Y-92980000D01*
X115435119Y-92932380D01*
X115435119Y-92551428D02*
X115387500Y-92503809D01*
X115339880Y-92408571D01*
X115339880Y-92170476D01*
X115387500Y-92075238D01*
X115435119Y-92027619D01*
X115530357Y-91980000D01*
X115625595Y-91980000D01*
X115768452Y-92027619D01*
X116339880Y-92599047D01*
X116339880Y-91980000D01*
X89352380Y-86309404D02*
X88352380Y-86309404D01*
X88352380Y-85928452D01*
X88400000Y-85833214D01*
X88447619Y-85785595D01*
X88542857Y-85737976D01*
X88685714Y-85737976D01*
X88780952Y-85785595D01*
X88828571Y-85833214D01*
X88876190Y-85928452D01*
X88876190Y-86309404D01*
X89304761Y-85357023D02*
X89352380Y-85214166D01*
X89352380Y-84976071D01*
X89304761Y-84880833D01*
X89257142Y-84833214D01*
X89161904Y-84785595D01*
X89066666Y-84785595D01*
X88971428Y-84833214D01*
X88923809Y-84880833D01*
X88876190Y-84976071D01*
X88828571Y-85166547D01*
X88780952Y-85261785D01*
X88733333Y-85309404D01*
X88638095Y-85357023D01*
X88542857Y-85357023D01*
X88447619Y-85309404D01*
X88400000Y-85261785D01*
X88352380Y-85166547D01*
X88352380Y-84928452D01*
X88400000Y-84785595D01*
X89257142Y-84357023D02*
X89304761Y-84309404D01*
X89352380Y-84357023D01*
X89304761Y-84404642D01*
X89257142Y-84357023D01*
X89352380Y-84357023D01*
X89257142Y-83309404D02*
X89304761Y-83357023D01*
X89352380Y-83499880D01*
X89352380Y-83595119D01*
X89304761Y-83737976D01*
X89209523Y-83833214D01*
X89114285Y-83880833D01*
X88923809Y-83928452D01*
X88780952Y-83928452D01*
X88590476Y-83880833D01*
X88495238Y-83833214D01*
X88400000Y-83737976D01*
X88352380Y-83595119D01*
X88352380Y-83499880D01*
X88400000Y-83357023D01*
X88447619Y-83309404D01*
X88685714Y-82452261D02*
X89352380Y-82452261D01*
X88304761Y-82690357D02*
X89019047Y-82928452D01*
X89019047Y-82309404D01*
X129590595Y-91892380D02*
X129590595Y-90892380D01*
X129971547Y-90892380D01*
X130066785Y-90940000D01*
X130114404Y-90987619D01*
X130162023Y-91082857D01*
X130162023Y-91225714D01*
X130114404Y-91320952D01*
X130066785Y-91368571D01*
X129971547Y-91416190D01*
X129590595Y-91416190D01*
X130542976Y-91844761D02*
X130685833Y-91892380D01*
X130923928Y-91892380D01*
X131019166Y-91844761D01*
X131066785Y-91797142D01*
X131114404Y-91701904D01*
X131114404Y-91606666D01*
X131066785Y-91511428D01*
X131019166Y-91463809D01*
X130923928Y-91416190D01*
X130733452Y-91368571D01*
X130638214Y-91320952D01*
X130590595Y-91273333D01*
X130542976Y-91178095D01*
X130542976Y-91082857D01*
X130590595Y-90987619D01*
X130638214Y-90940000D01*
X130733452Y-90892380D01*
X130971547Y-90892380D01*
X131114404Y-90940000D01*
X131542976Y-91797142D02*
X131590595Y-91844761D01*
X131542976Y-91892380D01*
X131495357Y-91844761D01*
X131542976Y-91797142D01*
X131542976Y-91892380D01*
X132590595Y-91797142D02*
X132542976Y-91844761D01*
X132400119Y-91892380D01*
X132304880Y-91892380D01*
X132162023Y-91844761D01*
X132066785Y-91749523D01*
X132019166Y-91654285D01*
X131971547Y-91463809D01*
X131971547Y-91320952D01*
X132019166Y-91130476D01*
X132066785Y-91035238D01*
X132162023Y-90940000D01*
X132304880Y-90892380D01*
X132400119Y-90892380D01*
X132542976Y-90940000D01*
X132590595Y-90987619D01*
X133542976Y-91892380D02*
X132971547Y-91892380D01*
X133257261Y-91892380D02*
X133257261Y-90892380D01*
X133162023Y-91035238D01*
X133066785Y-91130476D01*
X132971547Y-91178095D01*
X85169523Y-128357261D02*
X85312380Y-128404880D01*
X85550476Y-128404880D01*
X85645714Y-128357261D01*
X85693333Y-128309642D01*
X85740952Y-128214404D01*
X85740952Y-128119166D01*
X85693333Y-128023928D01*
X85645714Y-127976309D01*
X85550476Y-127928690D01*
X85360000Y-127881071D01*
X85264761Y-127833452D01*
X85217142Y-127785833D01*
X85169523Y-127690595D01*
X85169523Y-127595357D01*
X85217142Y-127500119D01*
X85264761Y-127452500D01*
X85360000Y-127404880D01*
X85598095Y-127404880D01*
X85740952Y-127452500D01*
X86121904Y-128119166D02*
X86598095Y-128119166D01*
X86026666Y-128404880D02*
X86360000Y-127404880D01*
X86693333Y-128404880D01*
X87550476Y-128404880D02*
X86979047Y-128404880D01*
X87264761Y-128404880D02*
X87264761Y-127404880D01*
X87169523Y-127547738D01*
X87074285Y-127642976D01*
X86979047Y-127690595D01*
X99512380Y-129542738D02*
X99036190Y-129876071D01*
X99512380Y-130114166D02*
X98512380Y-130114166D01*
X98512380Y-129733214D01*
X98560000Y-129637976D01*
X98607619Y-129590357D01*
X98702857Y-129542738D01*
X98845714Y-129542738D01*
X98940952Y-129590357D01*
X98988571Y-129637976D01*
X99036190Y-129733214D01*
X99036190Y-130114166D01*
X99512380Y-128590357D02*
X99512380Y-129161785D01*
X99512380Y-128876071D02*
X98512380Y-128876071D01*
X98655238Y-128971309D01*
X98750476Y-129066547D01*
X98798095Y-129161785D01*
X99512380Y-127637976D02*
X99512380Y-128209404D01*
X99512380Y-127923690D02*
X98512380Y-127923690D01*
X98655238Y-128018928D01*
X98750476Y-128114166D01*
X98798095Y-128209404D01*
X79388214Y-142962380D02*
X79721547Y-143962380D01*
X80054880Y-142962380D01*
X80388214Y-143962380D02*
X80388214Y-142962380D01*
X80626309Y-142962380D01*
X80769166Y-143010000D01*
X80864404Y-143105238D01*
X80912023Y-143200476D01*
X80959642Y-143390952D01*
X80959642Y-143533809D01*
X80912023Y-143724285D01*
X80864404Y-143819523D01*
X80769166Y-143914761D01*
X80626309Y-143962380D01*
X80388214Y-143962380D01*
X81912023Y-143962380D02*
X81340595Y-143962380D01*
X81626309Y-143962380D02*
X81626309Y-142962380D01*
X81531071Y-143105238D01*
X81435833Y-143200476D01*
X81340595Y-143248095D01*
X79626309Y-137882380D02*
X79959642Y-138882380D01*
X80292976Y-137882380D01*
X80483452Y-137882380D02*
X81054880Y-137882380D01*
X80769166Y-138882380D02*
X80769166Y-137882380D01*
X81340595Y-137977619D02*
X81388214Y-137930000D01*
X81483452Y-137882380D01*
X81721547Y-137882380D01*
X81816785Y-137930000D01*
X81864404Y-137977619D01*
X81912023Y-138072857D01*
X81912023Y-138168095D01*
X81864404Y-138310952D01*
X81292976Y-138882380D01*
X81912023Y-138882380D01*
X79626309Y-132802380D02*
X79959642Y-133802380D01*
X80292976Y-132802380D01*
X80483452Y-132802380D02*
X81054880Y-132802380D01*
X80769166Y-133802380D02*
X80769166Y-132802380D01*
X81912023Y-133802380D02*
X81340595Y-133802380D01*
X81626309Y-133802380D02*
X81626309Y-132802380D01*
X81531071Y-132945238D01*
X81435833Y-133040476D01*
X81340595Y-133088095D01*
X96972380Y-129542738D02*
X96496190Y-129876071D01*
X96972380Y-130114166D02*
X95972380Y-130114166D01*
X95972380Y-129733214D01*
X96020000Y-129637976D01*
X96067619Y-129590357D01*
X96162857Y-129542738D01*
X96305714Y-129542738D01*
X96400952Y-129590357D01*
X96448571Y-129637976D01*
X96496190Y-129733214D01*
X96496190Y-130114166D01*
X96972380Y-128590357D02*
X96972380Y-129161785D01*
X96972380Y-128876071D02*
X95972380Y-128876071D01*
X96115238Y-128971309D01*
X96210476Y-129066547D01*
X96258095Y-129161785D01*
X96067619Y-128209404D02*
X96020000Y-128161785D01*
X95972380Y-128066547D01*
X95972380Y-127828452D01*
X96020000Y-127733214D01*
X96067619Y-127685595D01*
X96162857Y-127637976D01*
X96258095Y-127637976D01*
X96400952Y-127685595D01*
X96972380Y-128257023D01*
X96972380Y-127637976D01*
X110477023Y-108307142D02*
X110429404Y-108354761D01*
X110286547Y-108402380D01*
X110191309Y-108402380D01*
X110048452Y-108354761D01*
X109953214Y-108259523D01*
X109905595Y-108164285D01*
X109857976Y-107973809D01*
X109857976Y-107830952D01*
X109905595Y-107640476D01*
X109953214Y-107545238D01*
X110048452Y-107450000D01*
X110191309Y-107402380D01*
X110286547Y-107402380D01*
X110429404Y-107450000D01*
X110477023Y-107497619D01*
X111048452Y-107830952D02*
X110953214Y-107783333D01*
X110905595Y-107735714D01*
X110857976Y-107640476D01*
X110857976Y-107592857D01*
X110905595Y-107497619D01*
X110953214Y-107450000D01*
X111048452Y-107402380D01*
X111238928Y-107402380D01*
X111334166Y-107450000D01*
X111381785Y-107497619D01*
X111429404Y-107592857D01*
X111429404Y-107640476D01*
X111381785Y-107735714D01*
X111334166Y-107783333D01*
X111238928Y-107830952D01*
X111048452Y-107830952D01*
X110953214Y-107878571D01*
X110905595Y-107926190D01*
X110857976Y-108021428D01*
X110857976Y-108211904D01*
X110905595Y-108307142D01*
X110953214Y-108354761D01*
X111048452Y-108402380D01*
X111238928Y-108402380D01*
X111334166Y-108354761D01*
X111381785Y-108307142D01*
X111429404Y-108211904D01*
X111429404Y-108021428D01*
X111381785Y-107926190D01*
X111334166Y-107878571D01*
X111238928Y-107830952D01*
X105862380Y-128590357D02*
X105386190Y-128923690D01*
X105862380Y-129161785D02*
X104862380Y-129161785D01*
X104862380Y-128780833D01*
X104910000Y-128685595D01*
X104957619Y-128637976D01*
X105052857Y-128590357D01*
X105195714Y-128590357D01*
X105290952Y-128637976D01*
X105338571Y-128685595D01*
X105386190Y-128780833D01*
X105386190Y-129161785D01*
X105862380Y-128114166D02*
X105862380Y-127923690D01*
X105814761Y-127828452D01*
X105767142Y-127780833D01*
X105624285Y-127685595D01*
X105433809Y-127637976D01*
X105052857Y-127637976D01*
X104957619Y-127685595D01*
X104910000Y-127733214D01*
X104862380Y-127828452D01*
X104862380Y-128018928D01*
X104910000Y-128114166D01*
X104957619Y-128161785D01*
X105052857Y-128209404D01*
X105290952Y-128209404D01*
X105386190Y-128161785D01*
X105433809Y-128114166D01*
X105481428Y-128018928D01*
X105481428Y-127828452D01*
X105433809Y-127733214D01*
X105386190Y-127685595D01*
X105290952Y-127637976D01*
X110847142Y-129860357D02*
X110894761Y-129907976D01*
X110942380Y-130050833D01*
X110942380Y-130146071D01*
X110894761Y-130288928D01*
X110799523Y-130384166D01*
X110704285Y-130431785D01*
X110513809Y-130479404D01*
X110370952Y-130479404D01*
X110180476Y-130431785D01*
X110085238Y-130384166D01*
X109990000Y-130288928D01*
X109942380Y-130146071D01*
X109942380Y-130050833D01*
X109990000Y-129907976D01*
X110037619Y-129860357D01*
X109942380Y-128955595D02*
X109942380Y-129431785D01*
X110418571Y-129479404D01*
X110370952Y-129431785D01*
X110323333Y-129336547D01*
X110323333Y-129098452D01*
X110370952Y-129003214D01*
X110418571Y-128955595D01*
X110513809Y-128907976D01*
X110751904Y-128907976D01*
X110847142Y-128955595D01*
X110894761Y-129003214D01*
X110942380Y-129098452D01*
X110942380Y-129336547D01*
X110894761Y-129431785D01*
X110847142Y-129479404D01*
X117292380Y-129542738D02*
X116816190Y-129876071D01*
X117292380Y-130114166D02*
X116292380Y-130114166D01*
X116292380Y-129733214D01*
X116340000Y-129637976D01*
X116387619Y-129590357D01*
X116482857Y-129542738D01*
X116625714Y-129542738D01*
X116720952Y-129590357D01*
X116768571Y-129637976D01*
X116816190Y-129733214D01*
X116816190Y-130114166D01*
X117292380Y-128590357D02*
X117292380Y-129161785D01*
X117292380Y-128876071D02*
X116292380Y-128876071D01*
X116435238Y-128971309D01*
X116530476Y-129066547D01*
X116578095Y-129161785D01*
X116292380Y-127971309D02*
X116292380Y-127876071D01*
X116340000Y-127780833D01*
X116387619Y-127733214D01*
X116482857Y-127685595D01*
X116673333Y-127637976D01*
X116911428Y-127637976D01*
X117101904Y-127685595D01*
X117197142Y-127733214D01*
X117244761Y-127780833D01*
X117292380Y-127876071D01*
X117292380Y-127971309D01*
X117244761Y-128066547D01*
X117197142Y-128114166D01*
X117101904Y-128161785D01*
X116911428Y-128209404D01*
X116673333Y-128209404D01*
X116482857Y-128161785D01*
X116387619Y-128114166D01*
X116340000Y-128066547D01*
X116292380Y-127971309D01*
X129992380Y-114620357D02*
X129516190Y-114953690D01*
X129992380Y-115191785D02*
X128992380Y-115191785D01*
X128992380Y-114810833D01*
X129040000Y-114715595D01*
X129087619Y-114667976D01*
X129182857Y-114620357D01*
X129325714Y-114620357D01*
X129420952Y-114667976D01*
X129468571Y-114715595D01*
X129516190Y-114810833D01*
X129516190Y-115191785D01*
X128992380Y-113715595D02*
X128992380Y-114191785D01*
X129468571Y-114239404D01*
X129420952Y-114191785D01*
X129373333Y-114096547D01*
X129373333Y-113858452D01*
X129420952Y-113763214D01*
X129468571Y-113715595D01*
X129563809Y-113667976D01*
X129801904Y-113667976D01*
X129897142Y-113715595D01*
X129944761Y-113763214D01*
X129992380Y-113858452D01*
X129992380Y-114096547D01*
X129944761Y-114191785D01*
X129897142Y-114239404D01*
X119737142Y-115890357D02*
X119784761Y-115937976D01*
X119832380Y-116080833D01*
X119832380Y-116176071D01*
X119784761Y-116318928D01*
X119689523Y-116414166D01*
X119594285Y-116461785D01*
X119403809Y-116509404D01*
X119260952Y-116509404D01*
X119070476Y-116461785D01*
X118975238Y-116414166D01*
X118880000Y-116318928D01*
X118832380Y-116176071D01*
X118832380Y-116080833D01*
X118880000Y-115937976D01*
X118927619Y-115890357D01*
X118927619Y-115509404D02*
X118880000Y-115461785D01*
X118832380Y-115366547D01*
X118832380Y-115128452D01*
X118880000Y-115033214D01*
X118927619Y-114985595D01*
X119022857Y-114937976D01*
X119118095Y-114937976D01*
X119260952Y-114985595D01*
X119832380Y-115557023D01*
X119832380Y-114937976D01*
X114657142Y-128590357D02*
X114704761Y-128637976D01*
X114752380Y-128780833D01*
X114752380Y-128876071D01*
X114704761Y-129018928D01*
X114609523Y-129114166D01*
X114514285Y-129161785D01*
X114323809Y-129209404D01*
X114180952Y-129209404D01*
X113990476Y-129161785D01*
X113895238Y-129114166D01*
X113800000Y-129018928D01*
X113752380Y-128876071D01*
X113752380Y-128780833D01*
X113800000Y-128637976D01*
X113847619Y-128590357D01*
X113752380Y-127733214D02*
X113752380Y-127923690D01*
X113800000Y-128018928D01*
X113847619Y-128066547D01*
X113990476Y-128161785D01*
X114180952Y-128209404D01*
X114561904Y-128209404D01*
X114657142Y-128161785D01*
X114704761Y-128114166D01*
X114752380Y-128018928D01*
X114752380Y-127828452D01*
X114704761Y-127733214D01*
X114657142Y-127685595D01*
X114561904Y-127637976D01*
X114323809Y-127637976D01*
X114228571Y-127685595D01*
X114180952Y-127733214D01*
X114133333Y-127828452D01*
X114133333Y-128018928D01*
X114180952Y-128114166D01*
X114228571Y-128161785D01*
X114323809Y-128209404D01*
X123721904Y-119514880D02*
X123721904Y-118514880D01*
X123960000Y-118514880D01*
X124102857Y-118562500D01*
X124198095Y-118657738D01*
X124245714Y-118752976D01*
X124293333Y-118943452D01*
X124293333Y-119086309D01*
X124245714Y-119276785D01*
X124198095Y-119372023D01*
X124102857Y-119467261D01*
X123960000Y-119514880D01*
X123721904Y-119514880D01*
X125245714Y-119514880D02*
X124674285Y-119514880D01*
X124960000Y-119514880D02*
X124960000Y-118514880D01*
X124864761Y-118657738D01*
X124769523Y-118752976D01*
X124674285Y-118800595D01*
X123793333Y-105862380D02*
X123460000Y-105386190D01*
X123221904Y-105862380D02*
X123221904Y-104862380D01*
X123602857Y-104862380D01*
X123698095Y-104910000D01*
X123745714Y-104957619D01*
X123793333Y-105052857D01*
X123793333Y-105195714D01*
X123745714Y-105290952D01*
X123698095Y-105338571D01*
X123602857Y-105386190D01*
X123221904Y-105386190D01*
X124221904Y-105862380D02*
X124221904Y-104862380D01*
X124602857Y-104862380D01*
X124698095Y-104910000D01*
X124745714Y-104957619D01*
X124793333Y-105052857D01*
X124793333Y-105195714D01*
X124745714Y-105290952D01*
X124698095Y-105338571D01*
X124602857Y-105386190D01*
X124221904Y-105386190D01*
X125126666Y-104862380D02*
X125745714Y-104862380D01*
X125412380Y-105243333D01*
X125555238Y-105243333D01*
X125650476Y-105290952D01*
X125698095Y-105338571D01*
X125745714Y-105433809D01*
X125745714Y-105671904D01*
X125698095Y-105767142D01*
X125650476Y-105814761D01*
X125555238Y-105862380D01*
X125269523Y-105862380D01*
X125174285Y-105814761D01*
X125126666Y-105767142D01*
X104743333Y-119832380D02*
X104410000Y-119356190D01*
X104171904Y-119832380D02*
X104171904Y-118832380D01*
X104552857Y-118832380D01*
X104648095Y-118880000D01*
X104695714Y-118927619D01*
X104743333Y-119022857D01*
X104743333Y-119165714D01*
X104695714Y-119260952D01*
X104648095Y-119308571D01*
X104552857Y-119356190D01*
X104171904Y-119356190D01*
X105171904Y-119832380D02*
X105171904Y-118832380D01*
X105552857Y-118832380D01*
X105648095Y-118880000D01*
X105695714Y-118927619D01*
X105743333Y-119022857D01*
X105743333Y-119165714D01*
X105695714Y-119260952D01*
X105648095Y-119308571D01*
X105552857Y-119356190D01*
X105171904Y-119356190D01*
X106124285Y-118927619D02*
X106171904Y-118880000D01*
X106267142Y-118832380D01*
X106505238Y-118832380D01*
X106600476Y-118880000D01*
X106648095Y-118927619D01*
X106695714Y-119022857D01*
X106695714Y-119118095D01*
X106648095Y-119260952D01*
X106076666Y-119832380D01*
X106695714Y-119832380D01*
X85693333Y-105862380D02*
X85360000Y-105386190D01*
X85121904Y-105862380D02*
X85121904Y-104862380D01*
X85502857Y-104862380D01*
X85598095Y-104910000D01*
X85645714Y-104957619D01*
X85693333Y-105052857D01*
X85693333Y-105195714D01*
X85645714Y-105290952D01*
X85598095Y-105338571D01*
X85502857Y-105386190D01*
X85121904Y-105386190D01*
X86121904Y-105862380D02*
X86121904Y-104862380D01*
X86502857Y-104862380D01*
X86598095Y-104910000D01*
X86645714Y-104957619D01*
X86693333Y-105052857D01*
X86693333Y-105195714D01*
X86645714Y-105290952D01*
X86598095Y-105338571D01*
X86502857Y-105386190D01*
X86121904Y-105386190D01*
X87645714Y-105862380D02*
X87074285Y-105862380D01*
X87360000Y-105862380D02*
X87360000Y-104862380D01*
X87264761Y-105005238D01*
X87169523Y-105100476D01*
X87074285Y-105148095D01*
X104148095Y-168044761D02*
X104290952Y-168092380D01*
X104529047Y-168092380D01*
X104624285Y-168044761D01*
X104671904Y-167997142D01*
X104719523Y-167901904D01*
X104719523Y-167806666D01*
X104671904Y-167711428D01*
X104624285Y-167663809D01*
X104529047Y-167616190D01*
X104338571Y-167568571D01*
X104243333Y-167520952D01*
X104195714Y-167473333D01*
X104148095Y-167378095D01*
X104148095Y-167282857D01*
X104195714Y-167187619D01*
X104243333Y-167140000D01*
X104338571Y-167092380D01*
X104576666Y-167092380D01*
X104719523Y-167140000D01*
X105481428Y-167568571D02*
X105624285Y-167616190D01*
X105671904Y-167663809D01*
X105719523Y-167759047D01*
X105719523Y-167901904D01*
X105671904Y-167997142D01*
X105624285Y-168044761D01*
X105529047Y-168092380D01*
X105148095Y-168092380D01*
X105148095Y-167092380D01*
X105481428Y-167092380D01*
X105576666Y-167140000D01*
X105624285Y-167187619D01*
X105671904Y-167282857D01*
X105671904Y-167378095D01*
X105624285Y-167473333D01*
X105576666Y-167520952D01*
X105481428Y-167568571D01*
X105148095Y-167568571D01*
X106671904Y-168092380D02*
X106100476Y-168092380D01*
X106386190Y-168092380D02*
X106386190Y-167092380D01*
X106290952Y-167235238D01*
X106195714Y-167330476D01*
X106100476Y-167378095D01*
X118197380Y-81914761D02*
X119197380Y-81581428D01*
X118197380Y-81248095D01*
X119197380Y-80914761D02*
X118197380Y-80914761D01*
X118911666Y-80581428D01*
X118197380Y-80248095D01*
X119197380Y-80248095D01*
X119197380Y-79771904D02*
X118197380Y-79771904D01*
X118673571Y-79771904D02*
X118673571Y-79200476D01*
X119197380Y-79200476D02*
X118197380Y-79200476D01*
X118292619Y-78771904D02*
X118245000Y-78724285D01*
X118197380Y-78629047D01*
X118197380Y-78390952D01*
X118245000Y-78295714D01*
X118292619Y-78248095D01*
X118387857Y-78200476D01*
X118483095Y-78200476D01*
X118625952Y-78248095D01*
X119197380Y-78819523D01*
X119197380Y-78200476D01*
X91527380Y-81914761D02*
X92527380Y-81581428D01*
X91527380Y-81248095D01*
X92527380Y-80914761D02*
X91527380Y-80914761D01*
X92241666Y-80581428D01*
X91527380Y-80248095D01*
X92527380Y-80248095D01*
X92527380Y-79771904D02*
X91527380Y-79771904D01*
X92003571Y-79771904D02*
X92003571Y-79200476D01*
X92527380Y-79200476D02*
X91527380Y-79200476D01*
X92527380Y-78200476D02*
X92527380Y-78771904D01*
X92527380Y-78486190D02*
X91527380Y-78486190D01*
X91670238Y-78581428D01*
X91765476Y-78676666D01*
X91813095Y-78771904D01*
X85193333Y-170632380D02*
X85193333Y-169632380D01*
X85193333Y-170108571D02*
X85764761Y-170108571D01*
X85764761Y-170632380D02*
X85764761Y-169632380D01*
X86717142Y-170632380D02*
X86240952Y-170632380D01*
X86240952Y-169632380D01*
X87574285Y-170632380D02*
X87002857Y-170632380D01*
X87288571Y-170632380D02*
X87288571Y-169632380D01*
X87193333Y-169775238D01*
X87098095Y-169870476D01*
X87002857Y-169918095D01*
X127685595Y-96972380D02*
X127685595Y-95972380D01*
X128066547Y-95972380D01*
X128161785Y-96020000D01*
X128209404Y-96067619D01*
X128257023Y-96162857D01*
X128257023Y-96305714D01*
X128209404Y-96400952D01*
X128161785Y-96448571D01*
X128066547Y-96496190D01*
X127685595Y-96496190D01*
X128637976Y-96924761D02*
X128780833Y-96972380D01*
X129018928Y-96972380D01*
X129114166Y-96924761D01*
X129161785Y-96877142D01*
X129209404Y-96781904D01*
X129209404Y-96686666D01*
X129161785Y-96591428D01*
X129114166Y-96543809D01*
X129018928Y-96496190D01*
X128828452Y-96448571D01*
X128733214Y-96400952D01*
X128685595Y-96353333D01*
X128637976Y-96258095D01*
X128637976Y-96162857D01*
X128685595Y-96067619D01*
X128733214Y-96020000D01*
X128828452Y-95972380D01*
X129066547Y-95972380D01*
X129209404Y-96020000D01*
X129637976Y-96877142D02*
X129685595Y-96924761D01*
X129637976Y-96972380D01*
X129590357Y-96924761D01*
X129637976Y-96877142D01*
X129637976Y-96972380D01*
X130685595Y-96877142D02*
X130637976Y-96924761D01*
X130495119Y-96972380D01*
X130399880Y-96972380D01*
X130257023Y-96924761D01*
X130161785Y-96829523D01*
X130114166Y-96734285D01*
X130066547Y-96543809D01*
X130066547Y-96400952D01*
X130114166Y-96210476D01*
X130161785Y-96115238D01*
X130257023Y-96020000D01*
X130399880Y-95972380D01*
X130495119Y-95972380D01*
X130637976Y-96020000D01*
X130685595Y-96067619D01*
X131018928Y-95972380D02*
X131637976Y-95972380D01*
X131304642Y-96353333D01*
X131447500Y-96353333D01*
X131542738Y-96400952D01*
X131590357Y-96448571D01*
X131637976Y-96543809D01*
X131637976Y-96781904D01*
X131590357Y-96877142D01*
X131542738Y-96924761D01*
X131447500Y-96972380D01*
X131161785Y-96972380D01*
X131066547Y-96924761D01*
X131018928Y-96877142D01*
X122079047Y-83954880D02*
X122079047Y-82954880D01*
X122460000Y-82954880D01*
X122555238Y-83002500D01*
X122602857Y-83050119D01*
X122650476Y-83145357D01*
X122650476Y-83288214D01*
X122602857Y-83383452D01*
X122555238Y-83431071D01*
X122460000Y-83478690D01*
X122079047Y-83478690D01*
X123031428Y-83907261D02*
X123174285Y-83954880D01*
X123412380Y-83954880D01*
X123507619Y-83907261D01*
X123555238Y-83859642D01*
X123602857Y-83764404D01*
X123602857Y-83669166D01*
X123555238Y-83573928D01*
X123507619Y-83526309D01*
X123412380Y-83478690D01*
X123221904Y-83431071D01*
X123126666Y-83383452D01*
X123079047Y-83335833D01*
X123031428Y-83240595D01*
X123031428Y-83145357D01*
X123079047Y-83050119D01*
X123126666Y-83002500D01*
X123221904Y-82954880D01*
X123460000Y-82954880D01*
X123602857Y-83002500D01*
X124031428Y-83859642D02*
X124079047Y-83907261D01*
X124031428Y-83954880D01*
X123983809Y-83907261D01*
X124031428Y-83859642D01*
X124031428Y-83954880D01*
X124364761Y-82954880D02*
X124698095Y-83954880D01*
X125031428Y-82954880D01*
X125364761Y-83954880D02*
X125364761Y-82954880D01*
X125602857Y-82954880D01*
X125745714Y-83002500D01*
X125840952Y-83097738D01*
X125888571Y-83192976D01*
X125936190Y-83383452D01*
X125936190Y-83526309D01*
X125888571Y-83716785D01*
X125840952Y-83812023D01*
X125745714Y-83907261D01*
X125602857Y-83954880D01*
X125364761Y-83954880D01*
X126888571Y-83954880D02*
X126317142Y-83954880D01*
X126602857Y-83954880D02*
X126602857Y-82954880D01*
X126507619Y-83097738D01*
X126412380Y-83192976D01*
X126317142Y-83240595D01*
X82780119Y-90178095D02*
X82780119Y-90749523D01*
X81780119Y-90463809D02*
X82780119Y-90463809D01*
X81780119Y-91082857D02*
X82780119Y-91082857D01*
X82780119Y-91463809D01*
X82732500Y-91559047D01*
X82684880Y-91606666D01*
X82589642Y-91654285D01*
X82446785Y-91654285D01*
X82351547Y-91606666D01*
X82303928Y-91559047D01*
X82256309Y-91463809D01*
X82256309Y-91082857D01*
X82780119Y-91987619D02*
X82780119Y-92606666D01*
X82399166Y-92273333D01*
X82399166Y-92416190D01*
X82351547Y-92511428D01*
X82303928Y-92559047D01*
X82208690Y-92606666D01*
X81970595Y-92606666D01*
X81875357Y-92559047D01*
X81827738Y-92511428D01*
X81780119Y-92416190D01*
X81780119Y-92130476D01*
X81827738Y-92035238D01*
X81875357Y-91987619D01*
X108635595Y-99512380D02*
X108635595Y-98512380D01*
X109016547Y-98512380D01*
X109111785Y-98560000D01*
X109159404Y-98607619D01*
X109207023Y-98702857D01*
X109207023Y-98845714D01*
X109159404Y-98940952D01*
X109111785Y-98988571D01*
X109016547Y-99036190D01*
X108635595Y-99036190D01*
X109587976Y-99464761D02*
X109730833Y-99512380D01*
X109968928Y-99512380D01*
X110064166Y-99464761D01*
X110111785Y-99417142D01*
X110159404Y-99321904D01*
X110159404Y-99226666D01*
X110111785Y-99131428D01*
X110064166Y-99083809D01*
X109968928Y-99036190D01*
X109778452Y-98988571D01*
X109683214Y-98940952D01*
X109635595Y-98893333D01*
X109587976Y-98798095D01*
X109587976Y-98702857D01*
X109635595Y-98607619D01*
X109683214Y-98560000D01*
X109778452Y-98512380D01*
X110016547Y-98512380D01*
X110159404Y-98560000D01*
X110587976Y-99417142D02*
X110635595Y-99464761D01*
X110587976Y-99512380D01*
X110540357Y-99464761D01*
X110587976Y-99417142D01*
X110587976Y-99512380D01*
X111635595Y-99417142D02*
X111587976Y-99464761D01*
X111445119Y-99512380D01*
X111349880Y-99512380D01*
X111207023Y-99464761D01*
X111111785Y-99369523D01*
X111064166Y-99274285D01*
X111016547Y-99083809D01*
X111016547Y-98940952D01*
X111064166Y-98750476D01*
X111111785Y-98655238D01*
X111207023Y-98560000D01*
X111349880Y-98512380D01*
X111445119Y-98512380D01*
X111587976Y-98560000D01*
X111635595Y-98607619D01*
X112492738Y-98512380D02*
X112302261Y-98512380D01*
X112207023Y-98560000D01*
X112159404Y-98607619D01*
X112064166Y-98750476D01*
X112016547Y-98940952D01*
X112016547Y-99321904D01*
X112064166Y-99417142D01*
X112111785Y-99464761D01*
X112207023Y-99512380D01*
X112397500Y-99512380D01*
X112492738Y-99464761D01*
X112540357Y-99417142D01*
X112587976Y-99321904D01*
X112587976Y-99083809D01*
X112540357Y-98988571D01*
X112492738Y-98940952D01*
X112397500Y-98893333D01*
X112207023Y-98893333D01*
X112111785Y-98940952D01*
X112064166Y-98988571D01*
X112016547Y-99083809D01*
X108635595Y-104592380D02*
X108635595Y-103592380D01*
X109016547Y-103592380D01*
X109111785Y-103640000D01*
X109159404Y-103687619D01*
X109207023Y-103782857D01*
X109207023Y-103925714D01*
X109159404Y-104020952D01*
X109111785Y-104068571D01*
X109016547Y-104116190D01*
X108635595Y-104116190D01*
X109587976Y-104544761D02*
X109730833Y-104592380D01*
X109968928Y-104592380D01*
X110064166Y-104544761D01*
X110111785Y-104497142D01*
X110159404Y-104401904D01*
X110159404Y-104306666D01*
X110111785Y-104211428D01*
X110064166Y-104163809D01*
X109968928Y-104116190D01*
X109778452Y-104068571D01*
X109683214Y-104020952D01*
X109635595Y-103973333D01*
X109587976Y-103878095D01*
X109587976Y-103782857D01*
X109635595Y-103687619D01*
X109683214Y-103640000D01*
X109778452Y-103592380D01*
X110016547Y-103592380D01*
X110159404Y-103640000D01*
X110587976Y-104497142D02*
X110635595Y-104544761D01*
X110587976Y-104592380D01*
X110540357Y-104544761D01*
X110587976Y-104497142D01*
X110587976Y-104592380D01*
X111635595Y-104592380D02*
X111302261Y-104116190D01*
X111064166Y-104592380D02*
X111064166Y-103592380D01*
X111445119Y-103592380D01*
X111540357Y-103640000D01*
X111587976Y-103687619D01*
X111635595Y-103782857D01*
X111635595Y-103925714D01*
X111587976Y-104020952D01*
X111540357Y-104068571D01*
X111445119Y-104116190D01*
X111064166Y-104116190D01*
X112016547Y-103687619D02*
X112064166Y-103640000D01*
X112159404Y-103592380D01*
X112397500Y-103592380D01*
X112492738Y-103640000D01*
X112540357Y-103687619D01*
X112587976Y-103782857D01*
X112587976Y-103878095D01*
X112540357Y-104020952D01*
X111968928Y-104592380D01*
X112587976Y-104592380D01*
X108635595Y-102052380D02*
X108635595Y-101052380D01*
X109016547Y-101052380D01*
X109111785Y-101100000D01*
X109159404Y-101147619D01*
X109207023Y-101242857D01*
X109207023Y-101385714D01*
X109159404Y-101480952D01*
X109111785Y-101528571D01*
X109016547Y-101576190D01*
X108635595Y-101576190D01*
X109587976Y-102004761D02*
X109730833Y-102052380D01*
X109968928Y-102052380D01*
X110064166Y-102004761D01*
X110111785Y-101957142D01*
X110159404Y-101861904D01*
X110159404Y-101766666D01*
X110111785Y-101671428D01*
X110064166Y-101623809D01*
X109968928Y-101576190D01*
X109778452Y-101528571D01*
X109683214Y-101480952D01*
X109635595Y-101433333D01*
X109587976Y-101338095D01*
X109587976Y-101242857D01*
X109635595Y-101147619D01*
X109683214Y-101100000D01*
X109778452Y-101052380D01*
X110016547Y-101052380D01*
X110159404Y-101100000D01*
X110587976Y-101957142D02*
X110635595Y-102004761D01*
X110587976Y-102052380D01*
X110540357Y-102004761D01*
X110587976Y-101957142D01*
X110587976Y-102052380D01*
X111635595Y-102052380D02*
X111302261Y-101576190D01*
X111064166Y-102052380D02*
X111064166Y-101052380D01*
X111445119Y-101052380D01*
X111540357Y-101100000D01*
X111587976Y-101147619D01*
X111635595Y-101242857D01*
X111635595Y-101385714D01*
X111587976Y-101480952D01*
X111540357Y-101528571D01*
X111445119Y-101576190D01*
X111064166Y-101576190D01*
X111968928Y-101052380D02*
X112587976Y-101052380D01*
X112254642Y-101433333D01*
X112397500Y-101433333D01*
X112492738Y-101480952D01*
X112540357Y-101528571D01*
X112587976Y-101623809D01*
X112587976Y-101861904D01*
X112540357Y-101957142D01*
X112492738Y-102004761D01*
X112397500Y-102052380D01*
X112111785Y-102052380D01*
X112016547Y-102004761D01*
X111968928Y-101957142D01*
X104124285Y-91527380D02*
X104790952Y-92527380D01*
X104790952Y-91527380D02*
X104124285Y-92527380D01*
X105124285Y-92479761D02*
X105267142Y-92527380D01*
X105505238Y-92527380D01*
X105600476Y-92479761D01*
X105648095Y-92432142D01*
X105695714Y-92336904D01*
X105695714Y-92241666D01*
X105648095Y-92146428D01*
X105600476Y-92098809D01*
X105505238Y-92051190D01*
X105314761Y-92003571D01*
X105219523Y-91955952D01*
X105171904Y-91908333D01*
X105124285Y-91813095D01*
X105124285Y-91717857D01*
X105171904Y-91622619D01*
X105219523Y-91575000D01*
X105314761Y-91527380D01*
X105552857Y-91527380D01*
X105695714Y-91575000D01*
X106648095Y-92527380D02*
X106076666Y-92527380D01*
X106362380Y-92527380D02*
X106362380Y-91527380D01*
X106267142Y-91670238D01*
X106171904Y-91765476D01*
X106076666Y-91813095D01*
X107645714Y-151217380D02*
X108312380Y-152217380D01*
X108312380Y-151217380D02*
X107645714Y-152217380D01*
X108645714Y-152169761D02*
X108788571Y-152217380D01*
X109026666Y-152217380D01*
X109121904Y-152169761D01*
X109169523Y-152122142D01*
X109217142Y-152026904D01*
X109217142Y-151931666D01*
X109169523Y-151836428D01*
X109121904Y-151788809D01*
X109026666Y-151741190D01*
X108836190Y-151693571D01*
X108740952Y-151645952D01*
X108693333Y-151598333D01*
X108645714Y-151503095D01*
X108645714Y-151407857D01*
X108693333Y-151312619D01*
X108740952Y-151265000D01*
X108836190Y-151217380D01*
X109074285Y-151217380D01*
X109217142Y-151265000D01*
X109598095Y-151312619D02*
X109645714Y-151265000D01*
X109740952Y-151217380D01*
X109979047Y-151217380D01*
X110074285Y-151265000D01*
X110121904Y-151312619D01*
X110169523Y-151407857D01*
X110169523Y-151503095D01*
X110121904Y-151645952D01*
X109550476Y-152217380D01*
X110169523Y-152217380D01*
X100602857Y-151217380D02*
X101269523Y-152217380D01*
X101269523Y-151217380D02*
X100602857Y-152217380D01*
X101602857Y-152169761D02*
X101745714Y-152217380D01*
X101983809Y-152217380D01*
X102079047Y-152169761D01*
X102126666Y-152122142D01*
X102174285Y-152026904D01*
X102174285Y-151931666D01*
X102126666Y-151836428D01*
X102079047Y-151788809D01*
X101983809Y-151741190D01*
X101793333Y-151693571D01*
X101698095Y-151645952D01*
X101650476Y-151598333D01*
X101602857Y-151503095D01*
X101602857Y-151407857D01*
X101650476Y-151312619D01*
X101698095Y-151265000D01*
X101793333Y-151217380D01*
X102031428Y-151217380D01*
X102174285Y-151265000D01*
X102507619Y-151217380D02*
X103126666Y-151217380D01*
X102793333Y-151598333D01*
X102936190Y-151598333D01*
X103031428Y-151645952D01*
X103079047Y-151693571D01*
X103126666Y-151788809D01*
X103126666Y-152026904D01*
X103079047Y-152122142D01*
X103031428Y-152169761D01*
X102936190Y-152217380D01*
X102650476Y-152217380D01*
X102555238Y-152169761D01*
X102507619Y-152122142D01*
X82780119Y-170188095D02*
X82780119Y-170759523D01*
X81780119Y-170473809D02*
X82780119Y-170473809D01*
X81780119Y-171092857D02*
X82780119Y-171092857D01*
X82780119Y-171473809D01*
X82732500Y-171569047D01*
X82684880Y-171616666D01*
X82589642Y-171664285D01*
X82446785Y-171664285D01*
X82351547Y-171616666D01*
X82303928Y-171569047D01*
X82256309Y-171473809D01*
X82256309Y-171092857D01*
X82780119Y-172569047D02*
X82780119Y-172092857D01*
X82303928Y-172045238D01*
X82351547Y-172092857D01*
X82399166Y-172188095D01*
X82399166Y-172426190D01*
X82351547Y-172521428D01*
X82303928Y-172569047D01*
X82208690Y-172616666D01*
X81970595Y-172616666D01*
X81875357Y-172569047D01*
X81827738Y-172521428D01*
X81780119Y-172426190D01*
X81780119Y-172188095D01*
X81827738Y-172092857D01*
X81875357Y-172045238D01*
X128039880Y-172711904D02*
X128039880Y-172140476D01*
X129039880Y-172426190D02*
X128039880Y-172426190D01*
X129039880Y-171807142D02*
X128039880Y-171807142D01*
X128039880Y-171426190D01*
X128087500Y-171330952D01*
X128135119Y-171283333D01*
X128230357Y-171235714D01*
X128373214Y-171235714D01*
X128468452Y-171283333D01*
X128516071Y-171330952D01*
X128563690Y-171426190D01*
X128563690Y-171807142D01*
X128373214Y-170378571D02*
X129039880Y-170378571D01*
X127992261Y-170616666D02*
X128706547Y-170854761D01*
X128706547Y-170235714D01*
X96654880Y-178701904D02*
X95654880Y-178701904D01*
X96654880Y-178225714D02*
X95654880Y-178225714D01*
X96654880Y-177654285D01*
X95654880Y-177654285D01*
X96654880Y-177178095D02*
X95654880Y-177178095D01*
X95654880Y-176940000D01*
X95702500Y-176797142D01*
X95797738Y-176701904D01*
X95892976Y-176654285D01*
X96083452Y-176606666D01*
X96226309Y-176606666D01*
X96416785Y-176654285D01*
X96512023Y-176701904D01*
X96607261Y-176797142D01*
X96654880Y-176940000D01*
X96654880Y-177178095D01*
X96559642Y-176178095D02*
X96607261Y-176130476D01*
X96654880Y-176178095D01*
X96607261Y-176225714D01*
X96559642Y-176178095D01*
X96654880Y-176178095D01*
X96654880Y-175130476D02*
X96178690Y-175463809D01*
X96654880Y-175701904D02*
X95654880Y-175701904D01*
X95654880Y-175320952D01*
X95702500Y-175225714D01*
X95750119Y-175178095D01*
X95845357Y-175130476D01*
X95988214Y-175130476D01*
X96083452Y-175178095D01*
X96131071Y-175225714D01*
X96178690Y-175320952D01*
X96178690Y-175701904D01*
X95750119Y-174749523D02*
X95702500Y-174701904D01*
X95654880Y-174606666D01*
X95654880Y-174368571D01*
X95702500Y-174273333D01*
X95750119Y-174225714D01*
X95845357Y-174178095D01*
X95940595Y-174178095D01*
X96083452Y-174225714D01*
X96654880Y-174797142D01*
X96654880Y-174178095D01*
X89939880Y-173053333D02*
X90654166Y-173053333D01*
X90797023Y-173100952D01*
X90892261Y-173196190D01*
X90939880Y-173339047D01*
X90939880Y-173434285D01*
X90035119Y-172624761D02*
X89987500Y-172577142D01*
X89939880Y-172481904D01*
X89939880Y-172243809D01*
X89987500Y-172148571D01*
X90035119Y-172100952D01*
X90130357Y-172053333D01*
X90225595Y-172053333D01*
X90368452Y-172100952D01*
X90939880Y-172672380D01*
X90939880Y-172053333D01*
X119784880Y-173053333D02*
X120499166Y-173053333D01*
X120642023Y-173100952D01*
X120737261Y-173196190D01*
X120784880Y-173339047D01*
X120784880Y-173434285D01*
X120784880Y-172053333D02*
X120784880Y-172624761D01*
X120784880Y-172339047D02*
X119784880Y-172339047D01*
X119927738Y-172434285D01*
X120022976Y-172529523D01*
X120070595Y-172624761D01*
X83293452Y-179792380D02*
X83864880Y-179792380D01*
X83579166Y-180792380D02*
X83579166Y-179792380D01*
X84198214Y-180792380D02*
X84198214Y-179792380D01*
X84579166Y-179792380D01*
X84674404Y-179840000D01*
X84722023Y-179887619D01*
X84769642Y-179982857D01*
X84769642Y-180125714D01*
X84722023Y-180220952D01*
X84674404Y-180268571D01*
X84579166Y-180316190D01*
X84198214Y-180316190D01*
X85150595Y-179887619D02*
X85198214Y-179840000D01*
X85293452Y-179792380D01*
X85531547Y-179792380D01*
X85626785Y-179840000D01*
X85674404Y-179887619D01*
X85722023Y-179982857D01*
X85722023Y-180078095D01*
X85674404Y-180220952D01*
X85102976Y-180792380D01*
X85722023Y-180792380D01*
X125002738Y-179792380D02*
X125574166Y-179792380D01*
X125288452Y-180792380D02*
X125288452Y-179792380D01*
X125907500Y-180792380D02*
X125907500Y-179792380D01*
X126288452Y-179792380D01*
X126383690Y-179840000D01*
X126431309Y-179887619D01*
X126478928Y-179982857D01*
X126478928Y-180125714D01*
X126431309Y-180220952D01*
X126383690Y-180268571D01*
X126288452Y-180316190D01*
X125907500Y-180316190D01*
X127431309Y-180792380D02*
X126859880Y-180792380D01*
X127145595Y-180792380D02*
X127145595Y-179792380D01*
X127050357Y-179935238D01*
X126955119Y-180030476D01*
X126859880Y-180078095D01*
X107270357Y-182967380D02*
X107937023Y-183967380D01*
X107937023Y-182967380D02*
X107270357Y-183967380D01*
X108841785Y-183967380D02*
X108270357Y-183967380D01*
X108556071Y-183967380D02*
X108556071Y-182967380D01*
X108460833Y-183110238D01*
X108365595Y-183205476D01*
X108270357Y-183253095D01*
X115387380Y-174574404D02*
X114387380Y-174574404D01*
X115387380Y-174098214D02*
X114387380Y-174098214D01*
X115387380Y-173526785D01*
X114387380Y-173526785D01*
X115387380Y-173050595D02*
X114387380Y-173050595D01*
X114387380Y-172812500D01*
X114435000Y-172669642D01*
X114530238Y-172574404D01*
X114625476Y-172526785D01*
X114815952Y-172479166D01*
X114958809Y-172479166D01*
X115149285Y-172526785D01*
X115244523Y-172574404D01*
X115339761Y-172669642D01*
X115387380Y-172812500D01*
X115387380Y-173050595D01*
X115292142Y-172050595D02*
X115339761Y-172002976D01*
X115387380Y-172050595D01*
X115339761Y-172098214D01*
X115292142Y-172050595D01*
X115387380Y-172050595D01*
X114387380Y-171717261D02*
X115387380Y-171383928D01*
X114387380Y-171050595D01*
X115387380Y-170717261D02*
X114387380Y-170717261D01*
X114387380Y-170479166D01*
X114435000Y-170336309D01*
X114530238Y-170241071D01*
X114625476Y-170193452D01*
X114815952Y-170145833D01*
X114958809Y-170145833D01*
X115149285Y-170193452D01*
X115244523Y-170241071D01*
X115339761Y-170336309D01*
X115387380Y-170479166D01*
X115387380Y-170717261D01*
X115387380Y-169193452D02*
X115387380Y-169764880D01*
X115387380Y-169479166D02*
X114387380Y-169479166D01*
X114530238Y-169574404D01*
X114625476Y-169669642D01*
X114673095Y-169764880D01*
X122221904Y-170314880D02*
X122221904Y-169314880D01*
X122698095Y-170314880D02*
X122698095Y-169314880D01*
X123269523Y-170314880D01*
X123269523Y-169314880D01*
X123745714Y-170314880D02*
X123745714Y-169314880D01*
X123983809Y-169314880D01*
X124126666Y-169362500D01*
X124221904Y-169457738D01*
X124269523Y-169552976D01*
X124317142Y-169743452D01*
X124317142Y-169886309D01*
X124269523Y-170076785D01*
X124221904Y-170172023D01*
X124126666Y-170267261D01*
X123983809Y-170314880D01*
X123745714Y-170314880D01*
X124745714Y-170219642D02*
X124793333Y-170267261D01*
X124745714Y-170314880D01*
X124698095Y-170267261D01*
X124745714Y-170219642D01*
X124745714Y-170314880D01*
X125793333Y-170314880D02*
X125460000Y-169838690D01*
X125221904Y-170314880D02*
X125221904Y-169314880D01*
X125602857Y-169314880D01*
X125698095Y-169362500D01*
X125745714Y-169410119D01*
X125793333Y-169505357D01*
X125793333Y-169648214D01*
X125745714Y-169743452D01*
X125698095Y-169791071D01*
X125602857Y-169838690D01*
X125221904Y-169838690D01*
X126745714Y-170314880D02*
X126174285Y-170314880D01*
X126460000Y-170314880D02*
X126460000Y-169314880D01*
X126364761Y-169457738D01*
X126269523Y-169552976D01*
X126174285Y-169600595D01*
X84669523Y-170902380D02*
X85002857Y-171902380D01*
X85336190Y-170902380D01*
X86145714Y-171902380D02*
X85669523Y-171902380D01*
X85669523Y-170902380D01*
X86431428Y-171854761D02*
X86574285Y-171902380D01*
X86812380Y-171902380D01*
X86907619Y-171854761D01*
X86955238Y-171807142D01*
X87002857Y-171711904D01*
X87002857Y-171616666D01*
X86955238Y-171521428D01*
X86907619Y-171473809D01*
X86812380Y-171426190D01*
X86621904Y-171378571D01*
X86526666Y-171330952D01*
X86479047Y-171283333D01*
X86431428Y-171188095D01*
X86431428Y-171092857D01*
X86479047Y-170997619D01*
X86526666Y-170950000D01*
X86621904Y-170902380D01*
X86860000Y-170902380D01*
X87002857Y-170950000D01*
X87955238Y-171902380D02*
X87383809Y-171902380D01*
X87669523Y-171902380D02*
X87669523Y-170902380D01*
X87574285Y-171045238D01*
X87479047Y-171140476D01*
X87383809Y-171188095D01*
X129527023Y-143867142D02*
X129479404Y-143914761D01*
X129336547Y-143962380D01*
X129241309Y-143962380D01*
X129098452Y-143914761D01*
X129003214Y-143819523D01*
X128955595Y-143724285D01*
X128907976Y-143533809D01*
X128907976Y-143390952D01*
X128955595Y-143200476D01*
X129003214Y-143105238D01*
X129098452Y-143010000D01*
X129241309Y-142962380D01*
X129336547Y-142962380D01*
X129479404Y-143010000D01*
X129527023Y-143057619D01*
X130479404Y-143962380D02*
X129907976Y-143962380D01*
X130193690Y-143962380D02*
X130193690Y-142962380D01*
X130098452Y-143105238D01*
X130003214Y-143200476D01*
X129907976Y-143248095D01*
X110477023Y-133707142D02*
X110429404Y-133754761D01*
X110286547Y-133802380D01*
X110191309Y-133802380D01*
X110048452Y-133754761D01*
X109953214Y-133659523D01*
X109905595Y-133564285D01*
X109857976Y-133373809D01*
X109857976Y-133230952D01*
X109905595Y-133040476D01*
X109953214Y-132945238D01*
X110048452Y-132850000D01*
X110191309Y-132802380D01*
X110286547Y-132802380D01*
X110429404Y-132850000D01*
X110477023Y-132897619D01*
X110810357Y-132802380D02*
X111477023Y-132802380D01*
X111048452Y-133802380D01*
X109207023Y-138882380D02*
X108873690Y-138406190D01*
X108635595Y-138882380D02*
X108635595Y-137882380D01*
X109016547Y-137882380D01*
X109111785Y-137930000D01*
X109159404Y-137977619D01*
X109207023Y-138072857D01*
X109207023Y-138215714D01*
X109159404Y-138310952D01*
X109111785Y-138358571D01*
X109016547Y-138406190D01*
X108635595Y-138406190D01*
X109778452Y-138310952D02*
X109683214Y-138263333D01*
X109635595Y-138215714D01*
X109587976Y-138120476D01*
X109587976Y-138072857D01*
X109635595Y-137977619D01*
X109683214Y-137930000D01*
X109778452Y-137882380D01*
X109968928Y-137882380D01*
X110064166Y-137930000D01*
X110111785Y-137977619D01*
X110159404Y-138072857D01*
X110159404Y-138120476D01*
X110111785Y-138215714D01*
X110064166Y-138263333D01*
X109968928Y-138310952D01*
X109778452Y-138310952D01*
X109683214Y-138358571D01*
X109635595Y-138406190D01*
X109587976Y-138501428D01*
X109587976Y-138691904D01*
X109635595Y-138787142D01*
X109683214Y-138834761D01*
X109778452Y-138882380D01*
X109968928Y-138882380D01*
X110064166Y-138834761D01*
X110111785Y-138787142D01*
X110159404Y-138691904D01*
X110159404Y-138501428D01*
X110111785Y-138406190D01*
X110064166Y-138358571D01*
X109968928Y-138310952D01*
X128257023Y-140152380D02*
X127923690Y-139676190D01*
X127685595Y-140152380D02*
X127685595Y-139152380D01*
X128066547Y-139152380D01*
X128161785Y-139200000D01*
X128209404Y-139247619D01*
X128257023Y-139342857D01*
X128257023Y-139485714D01*
X128209404Y-139580952D01*
X128161785Y-139628571D01*
X128066547Y-139676190D01*
X127685595Y-139676190D01*
X129209404Y-140152380D02*
X128637976Y-140152380D01*
X128923690Y-140152380D02*
X128923690Y-139152380D01*
X128828452Y-139295238D01*
X128733214Y-139390476D01*
X128637976Y-139438095D01*
X123642380Y-128282976D02*
X123166190Y-128616309D01*
X123642380Y-128854404D02*
X122642380Y-128854404D01*
X122642380Y-128473452D01*
X122690000Y-128378214D01*
X122737619Y-128330595D01*
X122832857Y-128282976D01*
X122975714Y-128282976D01*
X123070952Y-128330595D01*
X123118571Y-128378214D01*
X123166190Y-128473452D01*
X123166190Y-128854404D01*
X122975714Y-127425833D02*
X123642380Y-127425833D01*
X122594761Y-127663928D02*
X123309047Y-127902023D01*
X123309047Y-127282976D01*
X129992380Y-128282976D02*
X129516190Y-128616309D01*
X129992380Y-128854404D02*
X128992380Y-128854404D01*
X128992380Y-128473452D01*
X129040000Y-128378214D01*
X129087619Y-128330595D01*
X129182857Y-128282976D01*
X129325714Y-128282976D01*
X129420952Y-128330595D01*
X129468571Y-128378214D01*
X129516190Y-128473452D01*
X129516190Y-128854404D01*
X128992380Y-127949642D02*
X128992380Y-127330595D01*
X129373333Y-127663928D01*
X129373333Y-127521071D01*
X129420952Y-127425833D01*
X129468571Y-127378214D01*
X129563809Y-127330595D01*
X129801904Y-127330595D01*
X129897142Y-127378214D01*
X129944761Y-127425833D01*
X129992380Y-127521071D01*
X129992380Y-127806785D01*
X129944761Y-127902023D01*
X129897142Y-127949642D01*
X126182380Y-128282976D02*
X125706190Y-128616309D01*
X126182380Y-128854404D02*
X125182380Y-128854404D01*
X125182380Y-128473452D01*
X125230000Y-128378214D01*
X125277619Y-128330595D01*
X125372857Y-128282976D01*
X125515714Y-128282976D01*
X125610952Y-128330595D01*
X125658571Y-128378214D01*
X125706190Y-128473452D01*
X125706190Y-128854404D01*
X125182380Y-127425833D02*
X125182380Y-127616309D01*
X125230000Y-127711547D01*
X125277619Y-127759166D01*
X125420476Y-127854404D01*
X125610952Y-127902023D01*
X125991904Y-127902023D01*
X126087142Y-127854404D01*
X126134761Y-127806785D01*
X126182380Y-127711547D01*
X126182380Y-127521071D01*
X126134761Y-127425833D01*
X126087142Y-127378214D01*
X125991904Y-127330595D01*
X125753809Y-127330595D01*
X125658571Y-127378214D01*
X125610952Y-127425833D01*
X125563333Y-127521071D01*
X125563333Y-127711547D01*
X125610952Y-127806785D01*
X125658571Y-127854404D01*
X125753809Y-127902023D01*
X102052380Y-128590357D02*
X101576190Y-128923690D01*
X102052380Y-129161785D02*
X101052380Y-129161785D01*
X101052380Y-128780833D01*
X101100000Y-128685595D01*
X101147619Y-128637976D01*
X101242857Y-128590357D01*
X101385714Y-128590357D01*
X101480952Y-128637976D01*
X101528571Y-128685595D01*
X101576190Y-128780833D01*
X101576190Y-129161785D01*
X101052380Y-128257023D02*
X101052380Y-127590357D01*
X102052380Y-128018928D01*
X127452380Y-114620357D02*
X126976190Y-114953690D01*
X127452380Y-115191785D02*
X126452380Y-115191785D01*
X126452380Y-114810833D01*
X126500000Y-114715595D01*
X126547619Y-114667976D01*
X126642857Y-114620357D01*
X126785714Y-114620357D01*
X126880952Y-114667976D01*
X126928571Y-114715595D01*
X126976190Y-114810833D01*
X126976190Y-115191785D01*
X126547619Y-114239404D02*
X126500000Y-114191785D01*
X126452380Y-114096547D01*
X126452380Y-113858452D01*
X126500000Y-113763214D01*
X126547619Y-113715595D01*
X126642857Y-113667976D01*
X126738095Y-113667976D01*
X126880952Y-113715595D01*
X127452380Y-114287023D01*
X127452380Y-113667976D01*
X109207023Y-141327142D02*
X109159404Y-141374761D01*
X109016547Y-141422380D01*
X108921309Y-141422380D01*
X108778452Y-141374761D01*
X108683214Y-141279523D01*
X108635595Y-141184285D01*
X108587976Y-140993809D01*
X108587976Y-140850952D01*
X108635595Y-140660476D01*
X108683214Y-140565238D01*
X108778452Y-140470000D01*
X108921309Y-140422380D01*
X109016547Y-140422380D01*
X109159404Y-140470000D01*
X109207023Y-140517619D01*
X110064166Y-140755714D02*
X110064166Y-141422380D01*
X109826071Y-140374761D02*
X109587976Y-141089047D01*
X110207023Y-141089047D01*
X123547142Y-114620357D02*
X123594761Y-114667976D01*
X123642380Y-114810833D01*
X123642380Y-114906071D01*
X123594761Y-115048928D01*
X123499523Y-115144166D01*
X123404285Y-115191785D01*
X123213809Y-115239404D01*
X123070952Y-115239404D01*
X122880476Y-115191785D01*
X122785238Y-115144166D01*
X122690000Y-115048928D01*
X122642380Y-114906071D01*
X122642380Y-114810833D01*
X122690000Y-114667976D01*
X122737619Y-114620357D01*
X122642380Y-114287023D02*
X122642380Y-113667976D01*
X123023333Y-114001309D01*
X123023333Y-113858452D01*
X123070952Y-113763214D01*
X123118571Y-113715595D01*
X123213809Y-113667976D01*
X123451904Y-113667976D01*
X123547142Y-113715595D01*
X123594761Y-113763214D01*
X123642380Y-113858452D01*
X123642380Y-114144166D01*
X123594761Y-114239404D01*
X123547142Y-114287023D01*
X112347619Y-88399880D02*
X112347619Y-87399880D01*
X112728571Y-87399880D01*
X112823809Y-87447500D01*
X112871428Y-87495119D01*
X112919047Y-87590357D01*
X112919047Y-87733214D01*
X112871428Y-87828452D01*
X112823809Y-87876071D01*
X112728571Y-87923690D01*
X112347619Y-87923690D01*
X113300000Y-88352261D02*
X113442857Y-88399880D01*
X113680952Y-88399880D01*
X113776190Y-88352261D01*
X113823809Y-88304642D01*
X113871428Y-88209404D01*
X113871428Y-88114166D01*
X113823809Y-88018928D01*
X113776190Y-87971309D01*
X113680952Y-87923690D01*
X113490476Y-87876071D01*
X113395238Y-87828452D01*
X113347619Y-87780833D01*
X113300000Y-87685595D01*
X113300000Y-87590357D01*
X113347619Y-87495119D01*
X113395238Y-87447500D01*
X113490476Y-87399880D01*
X113728571Y-87399880D01*
X113871428Y-87447500D01*
X114300000Y-88304642D02*
X114347619Y-88352261D01*
X114300000Y-88399880D01*
X114252380Y-88352261D01*
X114300000Y-88304642D01*
X114300000Y-88399880D01*
X115347619Y-88399880D02*
X115014285Y-87923690D01*
X114776190Y-88399880D02*
X114776190Y-87399880D01*
X115157142Y-87399880D01*
X115252380Y-87447500D01*
X115300000Y-87495119D01*
X115347619Y-87590357D01*
X115347619Y-87733214D01*
X115300000Y-87828452D01*
X115252380Y-87876071D01*
X115157142Y-87923690D01*
X114776190Y-87923690D01*
X116300000Y-88399880D02*
X115728571Y-88399880D01*
X116014285Y-88399880D02*
X116014285Y-87399880D01*
X115919047Y-87542738D01*
X115823809Y-87637976D01*
X115728571Y-87685595D01*
%LPC*%
D14*
X98425000Y-95250000D03*
G36*
G01*
X98845000Y-93760000D02*
X98005000Y-93760000D01*
G75*
G02*
X97375000Y-93130000I0J630000D01*
G01*
X97375000Y-92290000D01*
G75*
G02*
X98005000Y-91660000I630000J0D01*
G01*
X98845000Y-91660000D01*
G75*
G02*
X99475000Y-92290000I0J-630000D01*
G01*
X99475000Y-93130000D01*
G75*
G02*
X98845000Y-93760000I-630000J0D01*
G01*
G37*
G36*
G01*
X112815000Y-93760000D02*
X111975000Y-93760000D01*
G75*
G02*
X111345000Y-93130000I0J630000D01*
G01*
X111345000Y-92290000D01*
G75*
G02*
X111975000Y-91660000I630000J0D01*
G01*
X112815000Y-91660000D01*
G75*
G02*
X113445000Y-92290000I0J-630000D01*
G01*
X113445000Y-93130000D01*
G75*
G02*
X112815000Y-93760000I-630000J0D01*
G01*
G37*
X112395000Y-95250000D03*
G36*
G01*
X90000000Y-90340000D02*
X87800000Y-90340000D01*
G75*
G02*
X87700000Y-90240000I0J100000D01*
G01*
X87700000Y-87640000D01*
G75*
G02*
X87800000Y-87540000I100000J0D01*
G01*
X90000000Y-87540000D01*
G75*
G02*
X90100000Y-87640000I0J-100000D01*
G01*
X90100000Y-90240000D01*
G75*
G02*
X90000000Y-90340000I-100000J0D01*
G01*
G37*
G36*
G01*
X90000000Y-95340000D02*
X87800000Y-95340000D01*
G75*
G02*
X87700000Y-95240000I0J100000D01*
G01*
X87700000Y-92640000D01*
G75*
G02*
X87800000Y-92540000I100000J0D01*
G01*
X90000000Y-92540000D01*
G75*
G02*
X90100000Y-92640000I0J-100000D01*
G01*
X90100000Y-95240000D01*
G75*
G02*
X90000000Y-95340000I-100000J0D01*
G01*
G37*
G36*
G01*
X125560000Y-92540000D02*
X125560000Y-90340000D01*
G75*
G02*
X125660000Y-90240000I100000J0D01*
G01*
X128260000Y-90240000D01*
G75*
G02*
X128360000Y-90340000I0J-100000D01*
G01*
X128360000Y-92540000D01*
G75*
G02*
X128260000Y-92640000I-100000J0D01*
G01*
X125660000Y-92640000D01*
G75*
G02*
X125560000Y-92540000I0J100000D01*
G01*
G37*
G36*
G01*
X120560000Y-92540000D02*
X120560000Y-90340000D01*
G75*
G02*
X120660000Y-90240000I100000J0D01*
G01*
X123260000Y-90240000D01*
G75*
G02*
X123360000Y-90340000I0J-100000D01*
G01*
X123360000Y-92540000D01*
G75*
G02*
X123260000Y-92640000I-100000J0D01*
G01*
X120660000Y-92640000D01*
G75*
G02*
X120560000Y-92540000I0J100000D01*
G01*
G37*
D15*
X87960000Y-126185000D03*
X84760000Y-126185000D03*
X87960000Y-110435000D03*
X84760000Y-110435000D03*
G36*
G01*
X87410000Y-119560000D02*
X87410000Y-117060000D01*
G75*
G02*
X87510000Y-116960000I100000J0D01*
G01*
X90010000Y-116960000D01*
G75*
G02*
X90110000Y-117060000I0J-100000D01*
G01*
X90110000Y-119560000D01*
G75*
G02*
X90010000Y-119660000I-100000J0D01*
G01*
X87510000Y-119660000D01*
G75*
G02*
X87410000Y-119560000I0J100000D01*
G01*
G37*
G36*
G01*
X87410000Y-114860000D02*
X87410000Y-112360000D01*
G75*
G02*
X87510000Y-112260000I100000J0D01*
G01*
X90010000Y-112260000D01*
G75*
G02*
X90110000Y-112360000I0J-100000D01*
G01*
X90110000Y-114860000D01*
G75*
G02*
X90010000Y-114960000I-100000J0D01*
G01*
X87510000Y-114960000D01*
G75*
G02*
X87410000Y-114860000I0J100000D01*
G01*
G37*
G36*
G01*
X87410000Y-124260000D02*
X87410000Y-121760000D01*
G75*
G02*
X87510000Y-121660000I100000J0D01*
G01*
X90010000Y-121660000D01*
G75*
G02*
X90110000Y-121760000I0J-100000D01*
G01*
X90110000Y-124260000D01*
G75*
G02*
X90010000Y-124360000I-100000J0D01*
G01*
X87510000Y-124360000D01*
G75*
G02*
X87410000Y-124260000I0J100000D01*
G01*
G37*
G36*
G01*
X82610000Y-114860000D02*
X82610000Y-112360000D01*
G75*
G02*
X82710000Y-112260000I100000J0D01*
G01*
X85210000Y-112260000D01*
G75*
G02*
X85310000Y-112360000I0J-100000D01*
G01*
X85310000Y-114860000D01*
G75*
G02*
X85210000Y-114960000I-100000J0D01*
G01*
X82710000Y-114960000D01*
G75*
G02*
X82610000Y-114860000I0J100000D01*
G01*
G37*
G36*
G01*
X82610000Y-119560000D02*
X82610000Y-117060000D01*
G75*
G02*
X82710000Y-116960000I100000J0D01*
G01*
X85210000Y-116960000D01*
G75*
G02*
X85310000Y-117060000I0J-100000D01*
G01*
X85310000Y-119560000D01*
G75*
G02*
X85210000Y-119660000I-100000J0D01*
G01*
X82710000Y-119660000D01*
G75*
G02*
X82610000Y-119560000I0J100000D01*
G01*
G37*
G36*
G01*
X82610000Y-124260000D02*
X82610000Y-121760000D01*
G75*
G02*
X82710000Y-121660000I100000J0D01*
G01*
X85210000Y-121660000D01*
G75*
G02*
X85310000Y-121760000I0J-100000D01*
G01*
X85310000Y-124260000D01*
G75*
G02*
X85210000Y-124360000I-100000J0D01*
G01*
X82710000Y-124360000D01*
G75*
G02*
X82610000Y-124260000I0J100000D01*
G01*
G37*
G36*
G01*
X99960000Y-123960000D02*
X98160000Y-123960000D01*
G75*
G02*
X98060000Y-123860000I0J100000D01*
G01*
X98060000Y-122260000D01*
G75*
G02*
X98160000Y-122160000I100000J0D01*
G01*
X99960000Y-122160000D01*
G75*
G02*
X100060000Y-122260000I0J-100000D01*
G01*
X100060000Y-123860000D01*
G75*
G02*
X99960000Y-123960000I-100000J0D01*
G01*
G37*
G36*
G01*
X99960000Y-126760000D02*
X98160000Y-126760000D01*
G75*
G02*
X98060000Y-126660000I0J100000D01*
G01*
X98060000Y-125060000D01*
G75*
G02*
X98160000Y-124960000I100000J0D01*
G01*
X99960000Y-124960000D01*
G75*
G02*
X100060000Y-125060000I0J-100000D01*
G01*
X100060000Y-126660000D01*
G75*
G02*
X99960000Y-126760000I-100000J0D01*
G01*
G37*
G36*
G01*
X84870000Y-142560000D02*
X84870000Y-144460000D01*
G75*
G02*
X84770000Y-144560000I-100000J0D01*
G01*
X82870000Y-144560000D01*
G75*
G02*
X82770000Y-144460000I0J100000D01*
G01*
X82770000Y-142560000D01*
G75*
G02*
X82870000Y-142460000I100000J0D01*
G01*
X84770000Y-142460000D01*
G75*
G02*
X84870000Y-142560000I0J-100000D01*
G01*
G37*
D14*
X97790000Y-143510000D03*
G36*
G01*
X84870000Y-137480000D02*
X84870000Y-139380000D01*
G75*
G02*
X84770000Y-139480000I-100000J0D01*
G01*
X82870000Y-139480000D01*
G75*
G02*
X82770000Y-139380000I0J100000D01*
G01*
X82770000Y-137480000D01*
G75*
G02*
X82870000Y-137380000I100000J0D01*
G01*
X84770000Y-137380000D01*
G75*
G02*
X84870000Y-137480000I0J-100000D01*
G01*
G37*
G36*
G01*
X87410000Y-137480000D02*
X87410000Y-139380000D01*
G75*
G02*
X87310000Y-139480000I-100000J0D01*
G01*
X85410000Y-139480000D01*
G75*
G02*
X85310000Y-139380000I0J100000D01*
G01*
X85310000Y-137480000D01*
G75*
G02*
X85410000Y-137380000I100000J0D01*
G01*
X87310000Y-137380000D01*
G75*
G02*
X87410000Y-137480000I0J-100000D01*
G01*
G37*
X88900000Y-138430000D03*
G36*
G01*
X87850000Y-134300000D02*
X87850000Y-132400000D01*
G75*
G02*
X87950000Y-132300000I100000J0D01*
G01*
X89850000Y-132300000D01*
G75*
G02*
X89950000Y-132400000I0J-100000D01*
G01*
X89950000Y-134300000D01*
G75*
G02*
X89850000Y-134400000I-100000J0D01*
G01*
X87950000Y-134400000D01*
G75*
G02*
X87850000Y-134300000I0J100000D01*
G01*
G37*
G36*
G01*
X85310000Y-134300000D02*
X85310000Y-132400000D01*
G75*
G02*
X85410000Y-132300000I100000J0D01*
G01*
X87310000Y-132300000D01*
G75*
G02*
X87410000Y-132400000I0J-100000D01*
G01*
X87410000Y-134300000D01*
G75*
G02*
X87310000Y-134400000I-100000J0D01*
G01*
X85410000Y-134400000D01*
G75*
G02*
X85310000Y-134300000I0J100000D01*
G01*
G37*
X83820000Y-133350000D03*
G36*
G01*
X97420000Y-123960000D02*
X95620000Y-123960000D01*
G75*
G02*
X95520000Y-123860000I0J100000D01*
G01*
X95520000Y-122260000D01*
G75*
G02*
X95620000Y-122160000I100000J0D01*
G01*
X97420000Y-122160000D01*
G75*
G02*
X97520000Y-122260000I0J-100000D01*
G01*
X97520000Y-123860000D01*
G75*
G02*
X97420000Y-123960000I-100000J0D01*
G01*
G37*
G36*
G01*
X97420000Y-126760000D02*
X95620000Y-126760000D01*
G75*
G02*
X95520000Y-126660000I0J100000D01*
G01*
X95520000Y-125060000D01*
G75*
G02*
X95620000Y-124960000I100000J0D01*
G01*
X97420000Y-124960000D01*
G75*
G02*
X97520000Y-125060000I0J-100000D01*
G01*
X97520000Y-126660000D01*
G75*
G02*
X97420000Y-126760000I-100000J0D01*
G01*
G37*
G36*
G01*
X101820000Y-108900000D02*
X101820000Y-107000000D01*
G75*
G02*
X101920000Y-106900000I100000J0D01*
G01*
X103820000Y-106900000D01*
G75*
G02*
X103920000Y-107000000I0J-100000D01*
G01*
X103920000Y-108900000D01*
G75*
G02*
X103820000Y-109000000I-100000J0D01*
G01*
X101920000Y-109000000D01*
G75*
G02*
X101820000Y-108900000I0J100000D01*
G01*
G37*
G36*
G01*
X106900000Y-108900000D02*
X106900000Y-107000000D01*
G75*
G02*
X107000000Y-106900000I100000J0D01*
G01*
X108900000Y-106900000D01*
G75*
G02*
X109000000Y-107000000I0J-100000D01*
G01*
X109000000Y-108900000D01*
G75*
G02*
X108900000Y-109000000I-100000J0D01*
G01*
X107000000Y-109000000D01*
G75*
G02*
X106900000Y-108900000I0J100000D01*
G01*
G37*
G36*
G01*
X104510000Y-124960000D02*
X106310000Y-124960000D01*
G75*
G02*
X106410000Y-125060000I0J-100000D01*
G01*
X106410000Y-126660000D01*
G75*
G02*
X106310000Y-126760000I-100000J0D01*
G01*
X104510000Y-126760000D01*
G75*
G02*
X104410000Y-126660000I0J100000D01*
G01*
X104410000Y-125060000D01*
G75*
G02*
X104510000Y-124960000I100000J0D01*
G01*
G37*
G36*
G01*
X104510000Y-122160000D02*
X106310000Y-122160000D01*
G75*
G02*
X106410000Y-122260000I0J-100000D01*
G01*
X106410000Y-123860000D01*
G75*
G02*
X106310000Y-123960000I-100000J0D01*
G01*
X104510000Y-123960000D01*
G75*
G02*
X104410000Y-123860000I0J100000D01*
G01*
X104410000Y-122260000D01*
G75*
G02*
X104510000Y-122160000I100000J0D01*
G01*
G37*
G36*
G01*
X109540000Y-120870000D02*
X111440000Y-120870000D01*
G75*
G02*
X111540000Y-120970000I0J-100000D01*
G01*
X111540000Y-122870000D01*
G75*
G02*
X111440000Y-122970000I-100000J0D01*
G01*
X109540000Y-122970000D01*
G75*
G02*
X109440000Y-122870000I0J100000D01*
G01*
X109440000Y-120970000D01*
G75*
G02*
X109540000Y-120870000I100000J0D01*
G01*
G37*
G36*
G01*
X109540000Y-125950000D02*
X111440000Y-125950000D01*
G75*
G02*
X111540000Y-126050000I0J-100000D01*
G01*
X111540000Y-127950000D01*
G75*
G02*
X111440000Y-128050000I-100000J0D01*
G01*
X109540000Y-128050000D01*
G75*
G02*
X109440000Y-127950000I0J100000D01*
G01*
X109440000Y-126050000D01*
G75*
G02*
X109540000Y-125950000I100000J0D01*
G01*
G37*
G36*
G01*
X115940000Y-122160000D02*
X117740000Y-122160000D01*
G75*
G02*
X117840000Y-122260000I0J-100000D01*
G01*
X117840000Y-123860000D01*
G75*
G02*
X117740000Y-123960000I-100000J0D01*
G01*
X115940000Y-123960000D01*
G75*
G02*
X115840000Y-123860000I0J100000D01*
G01*
X115840000Y-122260000D01*
G75*
G02*
X115940000Y-122160000I100000J0D01*
G01*
G37*
G36*
G01*
X115940000Y-124960000D02*
X117740000Y-124960000D01*
G75*
G02*
X117840000Y-125060000I0J-100000D01*
G01*
X117840000Y-126660000D01*
G75*
G02*
X117740000Y-126760000I-100000J0D01*
G01*
X115940000Y-126760000D01*
G75*
G02*
X115840000Y-126660000I0J100000D01*
G01*
X115840000Y-125060000D01*
G75*
G02*
X115940000Y-124960000I100000J0D01*
G01*
G37*
G36*
G01*
X130440000Y-109990000D02*
X128640000Y-109990000D01*
G75*
G02*
X128540000Y-109890000I0J100000D01*
G01*
X128540000Y-108290000D01*
G75*
G02*
X128640000Y-108190000I100000J0D01*
G01*
X130440000Y-108190000D01*
G75*
G02*
X130540000Y-108290000I0J-100000D01*
G01*
X130540000Y-109890000D01*
G75*
G02*
X130440000Y-109990000I-100000J0D01*
G01*
G37*
G36*
G01*
X130440000Y-112790000D02*
X128640000Y-112790000D01*
G75*
G02*
X128540000Y-112690000I0J100000D01*
G01*
X128540000Y-111090000D01*
G75*
G02*
X128640000Y-110990000I100000J0D01*
G01*
X130440000Y-110990000D01*
G75*
G02*
X130540000Y-111090000I0J-100000D01*
G01*
X130540000Y-112690000D01*
G75*
G02*
X130440000Y-112790000I-100000J0D01*
G01*
G37*
G36*
G01*
X120330000Y-114080000D02*
X118430000Y-114080000D01*
G75*
G02*
X118330000Y-113980000I0J100000D01*
G01*
X118330000Y-112080000D01*
G75*
G02*
X118430000Y-111980000I100000J0D01*
G01*
X120330000Y-111980000D01*
G75*
G02*
X120430000Y-112080000I0J-100000D01*
G01*
X120430000Y-113980000D01*
G75*
G02*
X120330000Y-114080000I-100000J0D01*
G01*
G37*
G36*
G01*
X120330000Y-109000000D02*
X118430000Y-109000000D01*
G75*
G02*
X118330000Y-108900000I0J100000D01*
G01*
X118330000Y-107000000D01*
G75*
G02*
X118430000Y-106900000I100000J0D01*
G01*
X120330000Y-106900000D01*
G75*
G02*
X120430000Y-107000000I0J-100000D01*
G01*
X120430000Y-108900000D01*
G75*
G02*
X120330000Y-109000000I-100000J0D01*
G01*
G37*
G36*
G01*
X113400000Y-122160000D02*
X115200000Y-122160000D01*
G75*
G02*
X115300000Y-122260000I0J-100000D01*
G01*
X115300000Y-123860000D01*
G75*
G02*
X115200000Y-123960000I-100000J0D01*
G01*
X113400000Y-123960000D01*
G75*
G02*
X113300000Y-123860000I0J100000D01*
G01*
X113300000Y-122260000D01*
G75*
G02*
X113400000Y-122160000I100000J0D01*
G01*
G37*
G36*
G01*
X113400000Y-124960000D02*
X115200000Y-124960000D01*
G75*
G02*
X115300000Y-125060000I0J-100000D01*
G01*
X115300000Y-126660000D01*
G75*
G02*
X115200000Y-126760000I-100000J0D01*
G01*
X113400000Y-126760000D01*
G75*
G02*
X113300000Y-126660000I0J100000D01*
G01*
X113300000Y-125060000D01*
G75*
G02*
X113400000Y-124960000I100000J0D01*
G01*
G37*
G36*
G01*
X128260000Y-124160000D02*
X128260000Y-124760000D01*
G75*
G02*
X128160000Y-124860000I-100000J0D01*
G01*
X125960000Y-124860000D01*
G75*
G02*
X125860000Y-124760000I0J100000D01*
G01*
X125860000Y-124160000D01*
G75*
G02*
X125960000Y-124060000I100000J0D01*
G01*
X128160000Y-124060000D01*
G75*
G02*
X128260000Y-124160000I0J-100000D01*
G01*
G37*
G36*
G01*
X128260000Y-122890000D02*
X128260000Y-123490000D01*
G75*
G02*
X128160000Y-123590000I-100000J0D01*
G01*
X125960000Y-123590000D01*
G75*
G02*
X125860000Y-123490000I0J100000D01*
G01*
X125860000Y-122890000D01*
G75*
G02*
X125960000Y-122790000I100000J0D01*
G01*
X128160000Y-122790000D01*
G75*
G02*
X128260000Y-122890000I0J-100000D01*
G01*
G37*
G36*
G01*
X128260000Y-121620000D02*
X128260000Y-122220000D01*
G75*
G02*
X128160000Y-122320000I-100000J0D01*
G01*
X125960000Y-122320000D01*
G75*
G02*
X125860000Y-122220000I0J100000D01*
G01*
X125860000Y-121620000D01*
G75*
G02*
X125960000Y-121520000I100000J0D01*
G01*
X128160000Y-121520000D01*
G75*
G02*
X128260000Y-121620000I0J-100000D01*
G01*
G37*
G36*
G01*
X128260000Y-120350000D02*
X128260000Y-120950000D01*
G75*
G02*
X128160000Y-121050000I-100000J0D01*
G01*
X125960000Y-121050000D01*
G75*
G02*
X125860000Y-120950000I0J100000D01*
G01*
X125860000Y-120350000D01*
G75*
G02*
X125960000Y-120250000I100000J0D01*
G01*
X128160000Y-120250000D01*
G75*
G02*
X128260000Y-120350000I0J-100000D01*
G01*
G37*
G36*
G01*
X123060000Y-120350000D02*
X123060000Y-120950000D01*
G75*
G02*
X122960000Y-121050000I-100000J0D01*
G01*
X120760000Y-121050000D01*
G75*
G02*
X120660000Y-120950000I0J100000D01*
G01*
X120660000Y-120350000D01*
G75*
G02*
X120760000Y-120250000I100000J0D01*
G01*
X122960000Y-120250000D01*
G75*
G02*
X123060000Y-120350000I0J-100000D01*
G01*
G37*
G36*
G01*
X123060000Y-121620000D02*
X123060000Y-122220000D01*
G75*
G02*
X122960000Y-122320000I-100000J0D01*
G01*
X120760000Y-122320000D01*
G75*
G02*
X120660000Y-122220000I0J100000D01*
G01*
X120660000Y-121620000D01*
G75*
G02*
X120760000Y-121520000I100000J0D01*
G01*
X122960000Y-121520000D01*
G75*
G02*
X123060000Y-121620000I0J-100000D01*
G01*
G37*
G36*
G01*
X123060000Y-122890000D02*
X123060000Y-123490000D01*
G75*
G02*
X122960000Y-123590000I-100000J0D01*
G01*
X120760000Y-123590000D01*
G75*
G02*
X120660000Y-123490000I0J100000D01*
G01*
X120660000Y-122890000D01*
G75*
G02*
X120760000Y-122790000I100000J0D01*
G01*
X122960000Y-122790000D01*
G75*
G02*
X123060000Y-122890000I0J-100000D01*
G01*
G37*
G36*
G01*
X123060000Y-124160000D02*
X123060000Y-124760000D01*
G75*
G02*
X122960000Y-124860000I-100000J0D01*
G01*
X120760000Y-124860000D01*
G75*
G02*
X120660000Y-124760000I0J100000D01*
G01*
X120660000Y-124160000D01*
G75*
G02*
X120760000Y-124060000I100000J0D01*
G01*
X122960000Y-124060000D01*
G75*
G02*
X123060000Y-124160000I0J-100000D01*
G01*
G37*
X129540000Y-101600000D03*
G36*
G01*
X125950000Y-102550000D02*
X125950000Y-100650000D01*
G75*
G02*
X126050000Y-100550000I100000J0D01*
G01*
X127950000Y-100550000D01*
G75*
G02*
X128050000Y-100650000I0J-100000D01*
G01*
X128050000Y-102550000D01*
G75*
G02*
X127950000Y-102650000I-100000J0D01*
G01*
X126050000Y-102650000D01*
G75*
G02*
X125950000Y-102550000I0J100000D01*
G01*
G37*
X124460000Y-101600000D03*
G36*
G01*
X120870000Y-102550000D02*
X120870000Y-100650000D01*
G75*
G02*
X120970000Y-100550000I100000J0D01*
G01*
X122870000Y-100550000D01*
G75*
G02*
X122970000Y-100650000I0J-100000D01*
G01*
X122970000Y-102550000D01*
G75*
G02*
X122870000Y-102650000I-100000J0D01*
G01*
X120970000Y-102650000D01*
G75*
G02*
X120870000Y-102550000I0J100000D01*
G01*
G37*
X119380000Y-101600000D03*
X110490000Y-115570000D03*
G36*
G01*
X106900000Y-116520000D02*
X106900000Y-114620000D01*
G75*
G02*
X107000000Y-114520000I100000J0D01*
G01*
X108900000Y-114520000D01*
G75*
G02*
X109000000Y-114620000I0J-100000D01*
G01*
X109000000Y-116520000D01*
G75*
G02*
X108900000Y-116620000I-100000J0D01*
G01*
X107000000Y-116620000D01*
G75*
G02*
X106900000Y-116520000I0J100000D01*
G01*
G37*
X105410000Y-115570000D03*
G36*
G01*
X101820000Y-116520000D02*
X101820000Y-114620000D01*
G75*
G02*
X101920000Y-114520000I100000J0D01*
G01*
X103820000Y-114520000D01*
G75*
G02*
X103920000Y-114620000I0J-100000D01*
G01*
X103920000Y-116520000D01*
G75*
G02*
X103820000Y-116620000I-100000J0D01*
G01*
X101920000Y-116620000D01*
G75*
G02*
X101820000Y-116520000I0J100000D01*
G01*
G37*
X100330000Y-115570000D03*
X91440000Y-101600000D03*
G36*
G01*
X87850000Y-102550000D02*
X87850000Y-100650000D01*
G75*
G02*
X87950000Y-100550000I100000J0D01*
G01*
X89850000Y-100550000D01*
G75*
G02*
X89950000Y-100650000I0J-100000D01*
G01*
X89950000Y-102550000D01*
G75*
G02*
X89850000Y-102650000I-100000J0D01*
G01*
X87950000Y-102650000D01*
G75*
G02*
X87850000Y-102550000I0J100000D01*
G01*
G37*
X86360000Y-101600000D03*
G36*
G01*
X82770000Y-102550000D02*
X82770000Y-100650000D01*
G75*
G02*
X82870000Y-100550000I100000J0D01*
G01*
X84770000Y-100550000D01*
G75*
G02*
X84870000Y-100650000I0J-100000D01*
G01*
X84870000Y-102550000D01*
G75*
G02*
X84770000Y-102650000I-100000J0D01*
G01*
X82870000Y-102650000D01*
G75*
G02*
X82770000Y-102550000I0J100000D01*
G01*
G37*
X81280000Y-101600000D03*
G36*
G01*
X109060000Y-176510000D02*
X109060000Y-174010000D01*
G75*
G02*
X109160000Y-173910000I100000J0D01*
G01*
X111660000Y-173910000D01*
G75*
G02*
X111760000Y-174010000I0J-100000D01*
G01*
X111760000Y-176510000D01*
G75*
G02*
X111660000Y-176610000I-100000J0D01*
G01*
X109160000Y-176610000D01*
G75*
G02*
X109060000Y-176510000I0J100000D01*
G01*
G37*
G36*
G01*
X109060000Y-180510000D02*
X109060000Y-178010000D01*
G75*
G02*
X109160000Y-177910000I100000J0D01*
G01*
X111660000Y-177910000D01*
G75*
G02*
X111760000Y-178010000I0J-100000D01*
G01*
X111760000Y-180510000D01*
G75*
G02*
X111660000Y-180610000I-100000J0D01*
G01*
X109160000Y-180610000D01*
G75*
G02*
X109060000Y-180510000I0J100000D01*
G01*
G37*
G36*
G01*
X109060000Y-172510000D02*
X109060000Y-170010000D01*
G75*
G02*
X109160000Y-169910000I100000J0D01*
G01*
X111660000Y-169910000D01*
G75*
G02*
X111760000Y-170010000I0J-100000D01*
G01*
X111760000Y-172510000D01*
G75*
G02*
X111660000Y-172610000I-100000J0D01*
G01*
X109160000Y-172610000D01*
G75*
G02*
X109060000Y-172510000I0J100000D01*
G01*
G37*
G36*
G01*
X104060000Y-176510000D02*
X104060000Y-174010000D01*
G75*
G02*
X104160000Y-173910000I100000J0D01*
G01*
X106660000Y-173910000D01*
G75*
G02*
X106760000Y-174010000I0J-100000D01*
G01*
X106760000Y-176510000D01*
G75*
G02*
X106660000Y-176610000I-100000J0D01*
G01*
X104160000Y-176610000D01*
G75*
G02*
X104060000Y-176510000I0J100000D01*
G01*
G37*
G36*
G01*
X104060000Y-180510000D02*
X104060000Y-178010000D01*
G75*
G02*
X104160000Y-177910000I100000J0D01*
G01*
X106660000Y-177910000D01*
G75*
G02*
X106760000Y-178010000I0J-100000D01*
G01*
X106760000Y-180510000D01*
G75*
G02*
X106660000Y-180610000I-100000J0D01*
G01*
X104160000Y-180610000D01*
G75*
G02*
X104060000Y-180510000I0J100000D01*
G01*
G37*
G36*
G01*
X104060000Y-172510000D02*
X104060000Y-170010000D01*
G75*
G02*
X104160000Y-169910000I100000J0D01*
G01*
X106660000Y-169910000D01*
G75*
G02*
X106760000Y-170010000I0J-100000D01*
G01*
X106760000Y-172510000D01*
G75*
G02*
X106660000Y-172610000I-100000J0D01*
G01*
X104160000Y-172610000D01*
G75*
G02*
X104060000Y-172510000I0J100000D01*
G01*
G37*
G36*
G01*
X99060000Y-172510000D02*
X99060000Y-170010000D01*
G75*
G02*
X99160000Y-169910000I100000J0D01*
G01*
X101660000Y-169910000D01*
G75*
G02*
X101760000Y-170010000I0J-100000D01*
G01*
X101760000Y-172510000D01*
G75*
G02*
X101660000Y-172610000I-100000J0D01*
G01*
X99160000Y-172610000D01*
G75*
G02*
X99060000Y-172510000I0J100000D01*
G01*
G37*
G36*
G01*
X99060000Y-176510000D02*
X99060000Y-174010000D01*
G75*
G02*
X99160000Y-173910000I100000J0D01*
G01*
X101660000Y-173910000D01*
G75*
G02*
X101760000Y-174010000I0J-100000D01*
G01*
X101760000Y-176510000D01*
G75*
G02*
X101660000Y-176610000I-100000J0D01*
G01*
X99160000Y-176610000D01*
G75*
G02*
X99060000Y-176510000I0J100000D01*
G01*
G37*
G36*
G01*
X99060000Y-180510000D02*
X99060000Y-178010000D01*
G75*
G02*
X99160000Y-177910000I100000J0D01*
G01*
X101660000Y-177910000D01*
G75*
G02*
X101760000Y-178010000I0J-100000D01*
G01*
X101760000Y-180510000D01*
G75*
G02*
X101660000Y-180610000I-100000J0D01*
G01*
X99160000Y-180610000D01*
G75*
G02*
X99060000Y-180510000I0J100000D01*
G01*
G37*
D16*
X114300000Y-80010000D03*
X96520000Y-80010000D03*
D14*
X86360000Y-173990000D03*
G36*
G01*
X85940000Y-175480000D02*
X86780000Y-175480000D01*
G75*
G02*
X87410000Y-176110000I0J-630000D01*
G01*
X87410000Y-176950000D01*
G75*
G02*
X86780000Y-177580000I-630000J0D01*
G01*
X85940000Y-177580000D01*
G75*
G02*
X85310000Y-176950000I0J630000D01*
G01*
X85310000Y-176110000D01*
G75*
G02*
X85940000Y-175480000I630000J0D01*
G01*
G37*
G36*
G01*
X124960000Y-97420000D02*
X124960000Y-95620000D01*
G75*
G02*
X125060000Y-95520000I100000J0D01*
G01*
X126660000Y-95520000D01*
G75*
G02*
X126760000Y-95620000I0J-100000D01*
G01*
X126760000Y-97420000D01*
G75*
G02*
X126660000Y-97520000I-100000J0D01*
G01*
X125060000Y-97520000D01*
G75*
G02*
X124960000Y-97420000I0J100000D01*
G01*
G37*
G36*
G01*
X122160000Y-97420000D02*
X122160000Y-95620000D01*
G75*
G02*
X122260000Y-95520000I100000J0D01*
G01*
X123860000Y-95520000D01*
G75*
G02*
X123960000Y-95620000I0J-100000D01*
G01*
X123960000Y-97420000D01*
G75*
G02*
X123860000Y-97520000I-100000J0D01*
G01*
X122260000Y-97520000D01*
G75*
G02*
X122160000Y-97420000I0J100000D01*
G01*
G37*
G36*
G01*
X121860000Y-86125000D02*
X121860000Y-85325000D01*
G75*
G02*
X121960000Y-85225000I100000J0D01*
G01*
X123560000Y-85225000D01*
G75*
G02*
X123660000Y-85325000I0J-100000D01*
G01*
X123660000Y-86125000D01*
G75*
G02*
X123560000Y-86225000I-100000J0D01*
G01*
X121960000Y-86225000D01*
G75*
G02*
X121860000Y-86125000I0J100000D01*
G01*
G37*
G36*
G01*
X125260000Y-86125000D02*
X125260000Y-85325000D01*
G75*
G02*
X125360000Y-85225000I100000J0D01*
G01*
X126960000Y-85225000D01*
G75*
G02*
X127060000Y-85325000I0J-100000D01*
G01*
X127060000Y-86125000D01*
G75*
G02*
X126960000Y-86225000I-100000J0D01*
G01*
X125360000Y-86225000D01*
G75*
G02*
X125260000Y-86125000I0J100000D01*
G01*
G37*
X120015000Y-85725000D03*
G36*
G01*
X127855000Y-86675000D02*
X127855000Y-84775000D01*
G75*
G02*
X127955000Y-84675000I100000J0D01*
G01*
X129855000Y-84675000D01*
G75*
G02*
X129955000Y-84775000I0J-100000D01*
G01*
X129955000Y-86675000D01*
G75*
G02*
X129855000Y-86775000I-100000J0D01*
G01*
X127955000Y-86775000D01*
G75*
G02*
X127855000Y-86675000I0J100000D01*
G01*
G37*
X80010000Y-93980000D03*
X80010000Y-91440000D03*
X80010000Y-88900000D03*
G36*
G01*
X103110000Y-99960000D02*
X103110000Y-98160000D01*
G75*
G02*
X103210000Y-98060000I100000J0D01*
G01*
X104810000Y-98060000D01*
G75*
G02*
X104910000Y-98160000I0J-100000D01*
G01*
X104910000Y-99960000D01*
G75*
G02*
X104810000Y-100060000I-100000J0D01*
G01*
X103210000Y-100060000D01*
G75*
G02*
X103110000Y-99960000I0J100000D01*
G01*
G37*
G36*
G01*
X105910000Y-99960000D02*
X105910000Y-98160000D01*
G75*
G02*
X106010000Y-98060000I100000J0D01*
G01*
X107610000Y-98060000D01*
G75*
G02*
X107710000Y-98160000I0J-100000D01*
G01*
X107710000Y-99960000D01*
G75*
G02*
X107610000Y-100060000I-100000J0D01*
G01*
X106010000Y-100060000D01*
G75*
G02*
X105910000Y-99960000I0J100000D01*
G01*
G37*
G36*
G01*
X103110000Y-105040000D02*
X103110000Y-103240000D01*
G75*
G02*
X103210000Y-103140000I100000J0D01*
G01*
X104810000Y-103140000D01*
G75*
G02*
X104910000Y-103240000I0J-100000D01*
G01*
X104910000Y-105040000D01*
G75*
G02*
X104810000Y-105140000I-100000J0D01*
G01*
X103210000Y-105140000D01*
G75*
G02*
X103110000Y-105040000I0J100000D01*
G01*
G37*
G36*
G01*
X105910000Y-105040000D02*
X105910000Y-103240000D01*
G75*
G02*
X106010000Y-103140000I100000J0D01*
G01*
X107610000Y-103140000D01*
G75*
G02*
X107710000Y-103240000I0J-100000D01*
G01*
X107710000Y-105040000D01*
G75*
G02*
X107610000Y-105140000I-100000J0D01*
G01*
X106010000Y-105140000D01*
G75*
G02*
X105910000Y-105040000I0J100000D01*
G01*
G37*
G36*
G01*
X107710000Y-100700000D02*
X107710000Y-102500000D01*
G75*
G02*
X107610000Y-102600000I-100000J0D01*
G01*
X106010000Y-102600000D01*
G75*
G02*
X105910000Y-102500000I0J100000D01*
G01*
X105910000Y-100700000D01*
G75*
G02*
X106010000Y-100600000I100000J0D01*
G01*
X107610000Y-100600000D01*
G75*
G02*
X107710000Y-100700000I0J-100000D01*
G01*
G37*
G36*
G01*
X104910000Y-100700000D02*
X104910000Y-102500000D01*
G75*
G02*
X104810000Y-102600000I-100000J0D01*
G01*
X103210000Y-102600000D01*
G75*
G02*
X103110000Y-102500000I0J100000D01*
G01*
X103110000Y-100700000D01*
G75*
G02*
X103210000Y-100600000I100000J0D01*
G01*
X104810000Y-100600000D01*
G75*
G02*
X104910000Y-100700000I0J-100000D01*
G01*
G37*
D17*
X105410000Y-89700000D03*
D18*
X100610000Y-87200000D03*
D19*
X105410000Y-83700000D03*
D20*
X82550000Y-83820000D03*
G36*
G01*
X116780000Y-167180000D02*
X113780000Y-167180000D01*
G75*
G02*
X113680000Y-167080000I0J100000D01*
G01*
X113680000Y-164080000D01*
G75*
G02*
X113780000Y-163980000I100000J0D01*
G01*
X116780000Y-163980000D01*
G75*
G02*
X116880000Y-164080000I0J-100000D01*
G01*
X116880000Y-167080000D01*
G75*
G02*
X116780000Y-167180000I-100000J0D01*
G01*
G37*
G36*
G01*
X123080000Y-167180000D02*
X120080000Y-167180000D01*
G75*
G02*
X119980000Y-167080000I0J100000D01*
G01*
X119980000Y-164080000D01*
G75*
G02*
X120080000Y-163980000I100000J0D01*
G01*
X123080000Y-163980000D01*
G75*
G02*
X123180000Y-164080000I0J-100000D01*
G01*
X123180000Y-167080000D01*
G75*
G02*
X123080000Y-167180000I-100000J0D01*
G01*
G37*
G36*
G01*
X129380000Y-167180000D02*
X126380000Y-167180000D01*
G75*
G02*
X126280000Y-167080000I0J100000D01*
G01*
X126280000Y-164080000D01*
G75*
G02*
X126380000Y-163980000I100000J0D01*
G01*
X129380000Y-163980000D01*
G75*
G02*
X129480000Y-164080000I0J-100000D01*
G01*
X129480000Y-167080000D01*
G75*
G02*
X129380000Y-167180000I-100000J0D01*
G01*
G37*
G36*
G01*
X116780000Y-150980000D02*
X113780000Y-150980000D01*
G75*
G02*
X113680000Y-150880000I0J100000D01*
G01*
X113680000Y-147880000D01*
G75*
G02*
X113780000Y-147780000I100000J0D01*
G01*
X116780000Y-147780000D01*
G75*
G02*
X116880000Y-147880000I0J-100000D01*
G01*
X116880000Y-150880000D01*
G75*
G02*
X116780000Y-150980000I-100000J0D01*
G01*
G37*
G36*
G01*
X123080000Y-150980000D02*
X120080000Y-150980000D01*
G75*
G02*
X119980000Y-150880000I0J100000D01*
G01*
X119980000Y-147880000D01*
G75*
G02*
X120080000Y-147780000I100000J0D01*
G01*
X123080000Y-147780000D01*
G75*
G02*
X123180000Y-147880000I0J-100000D01*
G01*
X123180000Y-150880000D01*
G75*
G02*
X123080000Y-150980000I-100000J0D01*
G01*
G37*
G36*
G01*
X129380000Y-150980000D02*
X126380000Y-150980000D01*
G75*
G02*
X126280000Y-150880000I0J100000D01*
G01*
X126280000Y-147880000D01*
G75*
G02*
X126380000Y-147780000I100000J0D01*
G01*
X129380000Y-147780000D01*
G75*
G02*
X129480000Y-147880000I0J-100000D01*
G01*
X129480000Y-150880000D01*
G75*
G02*
X129380000Y-150980000I-100000J0D01*
G01*
G37*
G36*
G01*
X94040000Y-147780000D02*
X97040000Y-147780000D01*
G75*
G02*
X97140000Y-147880000I0J-100000D01*
G01*
X97140000Y-150880000D01*
G75*
G02*
X97040000Y-150980000I-100000J0D01*
G01*
X94040000Y-150980000D01*
G75*
G02*
X93940000Y-150880000I0J100000D01*
G01*
X93940000Y-147880000D01*
G75*
G02*
X94040000Y-147780000I100000J0D01*
G01*
G37*
G36*
G01*
X87740000Y-147780000D02*
X90740000Y-147780000D01*
G75*
G02*
X90840000Y-147880000I0J-100000D01*
G01*
X90840000Y-150880000D01*
G75*
G02*
X90740000Y-150980000I-100000J0D01*
G01*
X87740000Y-150980000D01*
G75*
G02*
X87640000Y-150880000I0J100000D01*
G01*
X87640000Y-147880000D01*
G75*
G02*
X87740000Y-147780000I100000J0D01*
G01*
G37*
G36*
G01*
X81440000Y-147780000D02*
X84440000Y-147780000D01*
G75*
G02*
X84540000Y-147880000I0J-100000D01*
G01*
X84540000Y-150880000D01*
G75*
G02*
X84440000Y-150980000I-100000J0D01*
G01*
X81440000Y-150980000D01*
G75*
G02*
X81340000Y-150880000I0J100000D01*
G01*
X81340000Y-147880000D01*
G75*
G02*
X81440000Y-147780000I100000J0D01*
G01*
G37*
G36*
G01*
X94040000Y-163980000D02*
X97040000Y-163980000D01*
G75*
G02*
X97140000Y-164080000I0J-100000D01*
G01*
X97140000Y-167080000D01*
G75*
G02*
X97040000Y-167180000I-100000J0D01*
G01*
X94040000Y-167180000D01*
G75*
G02*
X93940000Y-167080000I0J100000D01*
G01*
X93940000Y-164080000D01*
G75*
G02*
X94040000Y-163980000I100000J0D01*
G01*
G37*
G36*
G01*
X87740000Y-163980000D02*
X90740000Y-163980000D01*
G75*
G02*
X90840000Y-164080000I0J-100000D01*
G01*
X90840000Y-167080000D01*
G75*
G02*
X90740000Y-167180000I-100000J0D01*
G01*
X87740000Y-167180000D01*
G75*
G02*
X87640000Y-167080000I0J100000D01*
G01*
X87640000Y-164080000D01*
G75*
G02*
X87740000Y-163980000I100000J0D01*
G01*
G37*
G36*
G01*
X81440000Y-163980000D02*
X84440000Y-163980000D01*
G75*
G02*
X84540000Y-164080000I0J-100000D01*
G01*
X84540000Y-167080000D01*
G75*
G02*
X84440000Y-167180000I-100000J0D01*
G01*
X81440000Y-167180000D01*
G75*
G02*
X81340000Y-167080000I0J100000D01*
G01*
X81340000Y-164080000D01*
G75*
G02*
X81440000Y-163980000I100000J0D01*
G01*
G37*
D14*
X80010000Y-170180000D03*
X80010000Y-172720000D03*
X130810000Y-172720000D03*
X130810000Y-170180000D03*
D20*
X82550000Y-177800000D03*
X128270000Y-177800000D03*
G36*
G01*
X92210000Y-176900000D02*
X92210000Y-178700000D01*
G75*
G02*
X92110000Y-178800000I-100000J0D01*
G01*
X90510000Y-178800000D01*
G75*
G02*
X90410000Y-178700000I0J100000D01*
G01*
X90410000Y-176900000D01*
G75*
G02*
X90510000Y-176800000I100000J0D01*
G01*
X92110000Y-176800000D01*
G75*
G02*
X92210000Y-176900000I0J-100000D01*
G01*
G37*
G36*
G01*
X95010000Y-176900000D02*
X95010000Y-178700000D01*
G75*
G02*
X94910000Y-178800000I-100000J0D01*
G01*
X93310000Y-178800000D01*
G75*
G02*
X93210000Y-178700000I0J100000D01*
G01*
X93210000Y-176900000D01*
G75*
G02*
X93310000Y-176800000I100000J0D01*
G01*
X94910000Y-176800000D01*
G75*
G02*
X95010000Y-176900000I0J-100000D01*
G01*
G37*
G36*
G01*
X91810000Y-173220000D02*
X93610000Y-173220000D01*
G75*
G02*
X93710000Y-173320000I0J-100000D01*
G01*
X93710000Y-174920000D01*
G75*
G02*
X93610000Y-175020000I-100000J0D01*
G01*
X91810000Y-175020000D01*
G75*
G02*
X91710000Y-174920000I0J100000D01*
G01*
X91710000Y-173320000D01*
G75*
G02*
X91810000Y-173220000I100000J0D01*
G01*
G37*
G36*
G01*
X91810000Y-170420000D02*
X93610000Y-170420000D01*
G75*
G02*
X93710000Y-170520000I0J-100000D01*
G01*
X93710000Y-172120000D01*
G75*
G02*
X93610000Y-172220000I-100000J0D01*
G01*
X91810000Y-172220000D01*
G75*
G02*
X91710000Y-172120000I0J100000D01*
G01*
X91710000Y-170520000D01*
G75*
G02*
X91810000Y-170420000I100000J0D01*
G01*
G37*
G36*
G01*
X119010000Y-172220000D02*
X117210000Y-172220000D01*
G75*
G02*
X117110000Y-172120000I0J100000D01*
G01*
X117110000Y-170520000D01*
G75*
G02*
X117210000Y-170420000I100000J0D01*
G01*
X119010000Y-170420000D01*
G75*
G02*
X119110000Y-170520000I0J-100000D01*
G01*
X119110000Y-172120000D01*
G75*
G02*
X119010000Y-172220000I-100000J0D01*
G01*
G37*
G36*
G01*
X119010000Y-175020000D02*
X117210000Y-175020000D01*
G75*
G02*
X117110000Y-174920000I0J100000D01*
G01*
X117110000Y-173320000D01*
G75*
G02*
X117210000Y-173220000I100000J0D01*
G01*
X119010000Y-173220000D01*
G75*
G02*
X119110000Y-173320000I0J-100000D01*
G01*
X119110000Y-174920000D01*
G75*
G02*
X119010000Y-175020000I-100000J0D01*
G01*
G37*
D14*
X95250000Y-180340000D03*
X92710000Y-180340000D03*
X90170000Y-180340000D03*
X87630000Y-180340000D03*
X123190000Y-180340000D03*
X120650000Y-180340000D03*
X118110000Y-180340000D03*
X115570000Y-180340000D03*
G36*
G01*
X104360000Y-184465000D02*
X104360000Y-182565000D01*
G75*
G02*
X104460000Y-182465000I100000J0D01*
G01*
X106360000Y-182465000D01*
G75*
G02*
X106460000Y-182565000I0J-100000D01*
G01*
X106460000Y-184465000D01*
G75*
G02*
X106360000Y-184565000I-100000J0D01*
G01*
X104460000Y-184565000D01*
G75*
G02*
X104360000Y-184465000I0J100000D01*
G01*
G37*
G36*
G01*
X117415000Y-176930000D02*
X117415000Y-176130000D01*
G75*
G02*
X117515000Y-176030000I100000J0D01*
G01*
X119115000Y-176030000D01*
G75*
G02*
X119215000Y-176130000I0J-100000D01*
G01*
X119215000Y-176930000D01*
G75*
G02*
X119115000Y-177030000I-100000J0D01*
G01*
X117515000Y-177030000D01*
G75*
G02*
X117415000Y-176930000I0J100000D01*
G01*
G37*
G36*
G01*
X120815000Y-176930000D02*
X120815000Y-176130000D01*
G75*
G02*
X120915000Y-176030000I100000J0D01*
G01*
X122515000Y-176030000D01*
G75*
G02*
X122615000Y-176130000I0J-100000D01*
G01*
X122615000Y-176930000D01*
G75*
G02*
X122515000Y-177030000I-100000J0D01*
G01*
X120915000Y-177030000D01*
G75*
G02*
X120815000Y-176930000I0J100000D01*
G01*
G37*
X115570000Y-176530000D03*
G36*
G01*
X123410000Y-177480000D02*
X123410000Y-175580000D01*
G75*
G02*
X123510000Y-175480000I100000J0D01*
G01*
X125410000Y-175480000D01*
G75*
G02*
X125510000Y-175580000I0J-100000D01*
G01*
X125510000Y-177480000D01*
G75*
G02*
X125410000Y-177580000I-100000J0D01*
G01*
X123510000Y-177580000D01*
G75*
G02*
X123410000Y-177480000I0J100000D01*
G01*
G37*
G36*
G01*
X123960000Y-171185000D02*
X123960000Y-172985000D01*
G75*
G02*
X123860000Y-173085000I-100000J0D01*
G01*
X122260000Y-173085000D01*
G75*
G02*
X122160000Y-172985000I0J100000D01*
G01*
X122160000Y-171185000D01*
G75*
G02*
X122260000Y-171085000I100000J0D01*
G01*
X123860000Y-171085000D01*
G75*
G02*
X123960000Y-171185000I0J-100000D01*
G01*
G37*
G36*
G01*
X126760000Y-171185000D02*
X126760000Y-172985000D01*
G75*
G02*
X126660000Y-173085000I-100000J0D01*
G01*
X125060000Y-173085000D01*
G75*
G02*
X124960000Y-172985000I0J100000D01*
G01*
X124960000Y-171185000D01*
G75*
G02*
X125060000Y-171085000I100000J0D01*
G01*
X126660000Y-171085000D01*
G75*
G02*
X126760000Y-171185000I0J-100000D01*
G01*
G37*
G36*
G01*
X120870000Y-144460000D02*
X120870000Y-142560000D01*
G75*
G02*
X120970000Y-142460000I100000J0D01*
G01*
X122870000Y-142460000D01*
G75*
G02*
X122970000Y-142560000I0J-100000D01*
G01*
X122970000Y-144460000D01*
G75*
G02*
X122870000Y-144560000I-100000J0D01*
G01*
X120970000Y-144560000D01*
G75*
G02*
X120870000Y-144460000I0J100000D01*
G01*
G37*
G36*
G01*
X125950000Y-144460000D02*
X125950000Y-142560000D01*
G75*
G02*
X126050000Y-142460000I100000J0D01*
G01*
X127950000Y-142460000D01*
G75*
G02*
X128050000Y-142560000I0J-100000D01*
G01*
X128050000Y-144460000D01*
G75*
G02*
X127950000Y-144560000I-100000J0D01*
G01*
X126050000Y-144560000D01*
G75*
G02*
X125950000Y-144460000I0J100000D01*
G01*
G37*
G36*
G01*
X109000000Y-132400000D02*
X109000000Y-134300000D01*
G75*
G02*
X108900000Y-134400000I-100000J0D01*
G01*
X107000000Y-134400000D01*
G75*
G02*
X106900000Y-134300000I0J100000D01*
G01*
X106900000Y-132400000D01*
G75*
G02*
X107000000Y-132300000I100000J0D01*
G01*
X108900000Y-132300000D01*
G75*
G02*
X109000000Y-132400000I0J-100000D01*
G01*
G37*
G36*
G01*
X103920000Y-132400000D02*
X103920000Y-134300000D01*
G75*
G02*
X103820000Y-134400000I-100000J0D01*
G01*
X101920000Y-134400000D01*
G75*
G02*
X101820000Y-134300000I0J100000D01*
G01*
X101820000Y-132400000D01*
G75*
G02*
X101920000Y-132300000I100000J0D01*
G01*
X103820000Y-132300000D01*
G75*
G02*
X103920000Y-132400000I0J-100000D01*
G01*
G37*
G36*
G01*
X107710000Y-137530000D02*
X107710000Y-139330000D01*
G75*
G02*
X107610000Y-139430000I-100000J0D01*
G01*
X106010000Y-139430000D01*
G75*
G02*
X105910000Y-139330000I0J100000D01*
G01*
X105910000Y-137530000D01*
G75*
G02*
X106010000Y-137430000I100000J0D01*
G01*
X107610000Y-137430000D01*
G75*
G02*
X107710000Y-137530000I0J-100000D01*
G01*
G37*
G36*
G01*
X104910000Y-137530000D02*
X104910000Y-139330000D01*
G75*
G02*
X104810000Y-139430000I-100000J0D01*
G01*
X103210000Y-139430000D01*
G75*
G02*
X103110000Y-139330000I0J100000D01*
G01*
X103110000Y-137530000D01*
G75*
G02*
X103210000Y-137430000I100000J0D01*
G01*
X104810000Y-137430000D01*
G75*
G02*
X104910000Y-137530000I0J-100000D01*
G01*
G37*
G36*
G01*
X123960000Y-138800000D02*
X123960000Y-140600000D01*
G75*
G02*
X123860000Y-140700000I-100000J0D01*
G01*
X122260000Y-140700000D01*
G75*
G02*
X122160000Y-140600000I0J100000D01*
G01*
X122160000Y-138800000D01*
G75*
G02*
X122260000Y-138700000I100000J0D01*
G01*
X123860000Y-138700000D01*
G75*
G02*
X123960000Y-138800000I0J-100000D01*
G01*
G37*
G36*
G01*
X126760000Y-138800000D02*
X126760000Y-140600000D01*
G75*
G02*
X126660000Y-140700000I-100000J0D01*
G01*
X125060000Y-140700000D01*
G75*
G02*
X124960000Y-140600000I0J100000D01*
G01*
X124960000Y-138800000D01*
G75*
G02*
X125060000Y-138700000I100000J0D01*
G01*
X126660000Y-138700000D01*
G75*
G02*
X126760000Y-138800000I0J-100000D01*
G01*
G37*
G36*
G01*
X124090000Y-134380000D02*
X122290000Y-134380000D01*
G75*
G02*
X122190000Y-134280000I0J100000D01*
G01*
X122190000Y-132680000D01*
G75*
G02*
X122290000Y-132580000I100000J0D01*
G01*
X124090000Y-132580000D01*
G75*
G02*
X124190000Y-132680000I0J-100000D01*
G01*
X124190000Y-134280000D01*
G75*
G02*
X124090000Y-134380000I-100000J0D01*
G01*
G37*
G36*
G01*
X124090000Y-131580000D02*
X122290000Y-131580000D01*
G75*
G02*
X122190000Y-131480000I0J100000D01*
G01*
X122190000Y-129880000D01*
G75*
G02*
X122290000Y-129780000I100000J0D01*
G01*
X124090000Y-129780000D01*
G75*
G02*
X124190000Y-129880000I0J-100000D01*
G01*
X124190000Y-131480000D01*
G75*
G02*
X124090000Y-131580000I-100000J0D01*
G01*
G37*
G36*
G01*
X130440000Y-131580000D02*
X128640000Y-131580000D01*
G75*
G02*
X128540000Y-131480000I0J100000D01*
G01*
X128540000Y-129880000D01*
G75*
G02*
X128640000Y-129780000I100000J0D01*
G01*
X130440000Y-129780000D01*
G75*
G02*
X130540000Y-129880000I0J-100000D01*
G01*
X130540000Y-131480000D01*
G75*
G02*
X130440000Y-131580000I-100000J0D01*
G01*
G37*
G36*
G01*
X130440000Y-134380000D02*
X128640000Y-134380000D01*
G75*
G02*
X128540000Y-134280000I0J100000D01*
G01*
X128540000Y-132680000D01*
G75*
G02*
X128640000Y-132580000I100000J0D01*
G01*
X130440000Y-132580000D01*
G75*
G02*
X130540000Y-132680000I0J-100000D01*
G01*
X130540000Y-134280000D01*
G75*
G02*
X130440000Y-134380000I-100000J0D01*
G01*
G37*
G36*
G01*
X124830000Y-132580000D02*
X126630000Y-132580000D01*
G75*
G02*
X126730000Y-132680000I0J-100000D01*
G01*
X126730000Y-134280000D01*
G75*
G02*
X126630000Y-134380000I-100000J0D01*
G01*
X124830000Y-134380000D01*
G75*
G02*
X124730000Y-134280000I0J100000D01*
G01*
X124730000Y-132680000D01*
G75*
G02*
X124830000Y-132580000I100000J0D01*
G01*
G37*
G36*
G01*
X124830000Y-129780000D02*
X126630000Y-129780000D01*
G75*
G02*
X126730000Y-129880000I0J-100000D01*
G01*
X126730000Y-131480000D01*
G75*
G02*
X126630000Y-131580000I-100000J0D01*
G01*
X124830000Y-131580000D01*
G75*
G02*
X124730000Y-131480000I0J100000D01*
G01*
X124730000Y-129880000D01*
G75*
G02*
X124830000Y-129780000I100000J0D01*
G01*
G37*
G36*
G01*
X100700000Y-124960000D02*
X102500000Y-124960000D01*
G75*
G02*
X102600000Y-125060000I0J-100000D01*
G01*
X102600000Y-126660000D01*
G75*
G02*
X102500000Y-126760000I-100000J0D01*
G01*
X100700000Y-126760000D01*
G75*
G02*
X100600000Y-126660000I0J100000D01*
G01*
X100600000Y-125060000D01*
G75*
G02*
X100700000Y-124960000I100000J0D01*
G01*
G37*
G36*
G01*
X100700000Y-122160000D02*
X102500000Y-122160000D01*
G75*
G02*
X102600000Y-122260000I0J-100000D01*
G01*
X102600000Y-123860000D01*
G75*
G02*
X102500000Y-123960000I-100000J0D01*
G01*
X100700000Y-123960000D01*
G75*
G02*
X100600000Y-123860000I0J100000D01*
G01*
X100600000Y-122260000D01*
G75*
G02*
X100700000Y-122160000I100000J0D01*
G01*
G37*
G36*
G01*
X126100000Y-108190000D02*
X127900000Y-108190000D01*
G75*
G02*
X128000000Y-108290000I0J-100000D01*
G01*
X128000000Y-109890000D01*
G75*
G02*
X127900000Y-109990000I-100000J0D01*
G01*
X126100000Y-109990000D01*
G75*
G02*
X126000000Y-109890000I0J100000D01*
G01*
X126000000Y-108290000D01*
G75*
G02*
X126100000Y-108190000I100000J0D01*
G01*
G37*
G36*
G01*
X126100000Y-110990000D02*
X127900000Y-110990000D01*
G75*
G02*
X128000000Y-111090000I0J-100000D01*
G01*
X128000000Y-112690000D01*
G75*
G02*
X127900000Y-112790000I-100000J0D01*
G01*
X126100000Y-112790000D01*
G75*
G02*
X126000000Y-112690000I0J100000D01*
G01*
X126000000Y-111090000D01*
G75*
G02*
X126100000Y-110990000I100000J0D01*
G01*
G37*
G36*
G01*
X107710000Y-140070000D02*
X107710000Y-141870000D01*
G75*
G02*
X107610000Y-141970000I-100000J0D01*
G01*
X106010000Y-141970000D01*
G75*
G02*
X105910000Y-141870000I0J100000D01*
G01*
X105910000Y-140070000D01*
G75*
G02*
X106010000Y-139970000I100000J0D01*
G01*
X107610000Y-139970000D01*
G75*
G02*
X107710000Y-140070000I0J-100000D01*
G01*
G37*
G36*
G01*
X104910000Y-140070000D02*
X104910000Y-141870000D01*
G75*
G02*
X104810000Y-141970000I-100000J0D01*
G01*
X103210000Y-141970000D01*
G75*
G02*
X103110000Y-141870000I0J100000D01*
G01*
X103110000Y-140070000D01*
G75*
G02*
X103210000Y-139970000I100000J0D01*
G01*
X104810000Y-139970000D01*
G75*
G02*
X104910000Y-140070000I0J-100000D01*
G01*
G37*
G36*
G01*
X122290000Y-110990000D02*
X124090000Y-110990000D01*
G75*
G02*
X124190000Y-111090000I0J-100000D01*
G01*
X124190000Y-112690000D01*
G75*
G02*
X124090000Y-112790000I-100000J0D01*
G01*
X122290000Y-112790000D01*
G75*
G02*
X122190000Y-112690000I0J100000D01*
G01*
X122190000Y-111090000D01*
G75*
G02*
X122290000Y-110990000I100000J0D01*
G01*
G37*
G36*
G01*
X122290000Y-108190000D02*
X124090000Y-108190000D01*
G75*
G02*
X124190000Y-108290000I0J-100000D01*
G01*
X124190000Y-109890000D01*
G75*
G02*
X124090000Y-109990000I-100000J0D01*
G01*
X122290000Y-109990000D01*
G75*
G02*
X122190000Y-109890000I0J100000D01*
G01*
X122190000Y-108290000D01*
G75*
G02*
X122290000Y-108190000I100000J0D01*
G01*
G37*
G36*
G01*
X114800000Y-86625000D02*
X114800000Y-84825000D01*
G75*
G02*
X114900000Y-84725000I100000J0D01*
G01*
X116500000Y-84725000D01*
G75*
G02*
X116600000Y-84825000I0J-100000D01*
G01*
X116600000Y-86625000D01*
G75*
G02*
X116500000Y-86725000I-100000J0D01*
G01*
X114900000Y-86725000D01*
G75*
G02*
X114800000Y-86625000I0J100000D01*
G01*
G37*
G36*
G01*
X112000000Y-86625000D02*
X112000000Y-84825000D01*
G75*
G02*
X112100000Y-84725000I100000J0D01*
G01*
X113700000Y-84725000D01*
G75*
G02*
X113800000Y-84825000I0J-100000D01*
G01*
X113800000Y-86625000D01*
G75*
G02*
X113700000Y-86725000I-100000J0D01*
G01*
X112100000Y-86725000D01*
G75*
G02*
X112000000Y-86625000I0J100000D01*
G01*
G37*
M02*
