<?xml version="1.0" encoding="UTF-8" standalone="no"?>
<!-- Created with Inkscape (http://www.inkscape.org/) -->

<svg
   xmlns:dc="http://purl.org/dc/elements/1.1/"
   xmlns:cc="http://creativecommons.org/ns#"
   xmlns:rdf="http://www.w3.org/1999/02/22-rdf-syntax-ns#"
   xmlns:svg="http://www.w3.org/2000/svg"
   xmlns="http://www.w3.org/2000/svg"
   xmlns:sodipodi="http://sodipodi.sourceforge.net/DTD/sodipodi-0.dtd"
   xmlns:inkscape="http://www.inkscape.org/namespaces/inkscape"
   width="63.599998mm"
   height="114.5mm"
   viewBox="0 0 63.599998 114.5"
   version="1.1"
   id="svg8"
   inkscape:version="0.92.5 (2060ec1f9f, 2020-04-08)"
   sodipodi:docname="distortion_+_r2_1.svg">
  <title
     id="title16">Distortion + [REV2] V1</title>
  <defs
     id="defs2" />
  <sodipodi:namedview
     id="base"
     pagecolor="#ffffff"
     bordercolor="#666666"
     borderopacity="1.0"
     inkscape:pageopacity="0.0"
     inkscape:pageshadow="2"
     inkscape:zoom="1.979899"
     inkscape:cx="281.23264"
     inkscape:cy="342.64766"
     inkscape:document-units="mm"
     inkscape:current-layer="g292"
     showgrid="false"
     inkscape:window-width="1600"
     inkscape:window-height="876"
     inkscape:window-x="0"
     inkscape:window-y="0"
     inkscape:window-maximized="0" />
  <metadata
     id="metadata5">
    <rdf:RDF>
      <cc:Work
         rdf:about="">
        <dc:format>image/svg+xml</dc:format>
        <dc:type
           rdf:resource="http://purl.org/dc/dcmitype/StillImage" />
        <dc:title>Distortion + [REV2] V1</dc:title>
        <cc:license
           rdf:resource="http://creativecommons.org/licenses/by-sa/4.0/" />
        <dc:creator>
          <cc:Agent>
            <dc:title>Igor Ivanov</dc:title>
          </cc:Agent>
        </dc:creator>
        <dc:date>21.05.2021</dc:date>
      </cc:Work>
      <cc:License
         rdf:about="http://creativecommons.org/licenses/by-sa/4.0/">
        <cc:permits
           rdf:resource="http://creativecommons.org/ns#Reproduction" />
        <cc:permits
           rdf:resource="http://creativecommons.org/ns#Distribution" />
        <cc:requires
           rdf:resource="http://creativecommons.org/ns#Notice" />
        <cc:requires
           rdf:resource="http://creativecommons.org/ns#Attribution" />
        <cc:permits
           rdf:resource="http://creativecommons.org/ns#DerivativeWorks" />
        <cc:requires
           rdf:resource="http://creativecommons.org/ns#ShareAlike" />
      </cc:License>
    </rdf:RDF>
  </metadata>
  <g
     inkscape:label="Layer 1"
     inkscape:groupmode="layer"
     id="layer1"
     transform="translate(0,-182.5)">
    <g
       transform="matrix(0.00254,0,0,-0.00254,-73.607114,388.15928)"
       inkscape:label="distortion_+_r2_1"
       id="g292">
      <g
         transform="translate(32107.9,41089.4)"
         id="g302" />
      <path
         inkscape:connector-curvature="0"
         id="path304"
         style="fill:none;stroke:#000000;stroke-width:196.8500061;stroke-linecap:round;stroke-linejoin:round;stroke-miterlimit:10;stroke-dasharray:none;stroke-opacity:1"
         d="m 35763.2,43564.1 h 899.9" />
      <path
         inkscape:connector-curvature="0"
         id="path306"
         style="fill:none;stroke:#000000;stroke-width:196.8500061;stroke-linecap:round;stroke-linejoin:round;stroke-miterlimit:10;stroke-dasharray:none;stroke-opacity:1"
         d="m 37056.8,44295.3 h 674.9" />
      <path
         inkscape:connector-curvature="0"
         id="path308"
         style="fill:none;stroke:#000000;stroke-width:196.8500061;stroke-linecap:round;stroke-linejoin:round;stroke-miterlimit:10;stroke-dasharray:none;stroke-opacity:1"
         d="m 37394.3,43114.2 v 1181.1" />
      <path
         inkscape:connector-curvature="0"
         id="path310"
         style="fill:none;stroke:#000000;stroke-width:196.8500061;stroke-linecap:round;stroke-linejoin:round;stroke-miterlimit:10;stroke-dasharray:none;stroke-opacity:1"
         d="m 37956.7,44295.3 h 674.9" />
      <path
         inkscape:connector-curvature="0"
         id="path312"
         style="fill:none;stroke:#000000;stroke-width:196.8500061;stroke-linecap:round;stroke-linejoin:round;stroke-miterlimit:10;stroke-dasharray:none;stroke-opacity:1"
         d="m 38294.2,43114.2 v 1181.1" />
      <path
         inkscape:connector-curvature="0"
         id="path314"
         style="fill:none;stroke:#000000;stroke-width:196.8500061;stroke-linecap:round;stroke-linejoin:round;stroke-miterlimit:10;stroke-dasharray:none;stroke-opacity:1"
         d="m 39025.3,43114.2 v 1181.1" />
      <path
         inkscape:connector-curvature="0"
         id="path316"
         style="fill:none;stroke:#000000;stroke-width:196.8500061;stroke-linecap:round;stroke-linejoin:round;stroke-miterlimit:10;stroke-dasharray:none;stroke-opacity:1"
         d="m 39700.2,43114.2 -506.2,674.9" />
      <path
         inkscape:connector-curvature="0"
         id="path318"
         style="fill:none;stroke:#000000;stroke-width:196.8500061;stroke-linecap:round;stroke-linejoin:round;stroke-miterlimit:10;stroke-dasharray:none;stroke-opacity:1"
         d="m 39700.2,44295.3 -674.9,-674.9" />
      <path
         inkscape:connector-curvature="0"
         id="path320"
         style="fill:none;stroke:#000000;stroke-width:196.8500061;stroke-linecap:round;stroke-linejoin:round;stroke-miterlimit:10;stroke-dasharray:none;stroke-opacity:1"
         d="m 40206.4,43114.2 v 1181.1 h 450 l 112.4,-56.2 56.3,-56.3 56.2,-112.5 v -168.7 l -56.2,-112.5 -56.3,-56.2 -112.4,-56.3 h -450" />
      <path
         inkscape:connector-curvature="0"
         id="path322"
         style="fill:none;stroke:#000000;stroke-width:196.8500061;stroke-linecap:round;stroke-linejoin:round;stroke-miterlimit:10;stroke-dasharray:none;stroke-opacity:1"
         d="M 41949.9,44295.3 V 43114.2" />
      <path
         inkscape:connector-curvature="0"
         id="path324"
         style="fill:none;stroke:#000000;stroke-width:196.8500061;stroke-linecap:round;stroke-linejoin:round;stroke-miterlimit:10;stroke-dasharray:none;stroke-opacity:1"
         d="m 41331.3,44295.3 v -449.9 l 56.2,-112.5 56.3,-56.3 112.4,-56.2 h 393.7" />
      <path
         inkscape:connector-curvature="0"
         id="path326"
         style="fill:none;stroke:#000000;stroke-width:196.8500061;stroke-linecap:round;stroke-linejoin:round;stroke-miterlimit:10;stroke-dasharray:none;stroke-opacity:1"
         d="m 42512.4,43114.2 v 1181.1 h 674.9 v -1181.1" />
      <path
         inkscape:connector-curvature="0"
         id="path328"
         style="fill:none;stroke:#000000;stroke-width:196.8500061;stroke-linecap:round;stroke-linejoin:round;stroke-miterlimit:10;stroke-dasharray:none;stroke-opacity:1"
         d="m 44649.6,42833 v 281.2 H 43637.2 V 42833" />
      <path
         inkscape:connector-curvature="0"
         id="path330"
         style="fill:none;stroke:#000000;stroke-width:196.8500061;stroke-linecap:round;stroke-linejoin:round;stroke-miterlimit:10;stroke-dasharray:none;stroke-opacity:1"
         d="m 44424.6,43114.2 v 1181.1 h -281.2 l -112.5,-56.2 -56.2,-56.3 -56.3,-112.5 -112.4,-956.1" />
      <path
         inkscape:connector-curvature="0"
         id="path332"
         style="fill:none;stroke:#000000;stroke-width:196.8500061;stroke-linecap:round;stroke-linejoin:round;stroke-miterlimit:10;stroke-dasharray:none;stroke-opacity:1"
         d="m 45774.5,43114.2 v 1181.1 h -168.8 l -168.7,-56.2 -112.5,-112.5 -56.2,-168.8 -112.5,-674.9 -56.2,-112.5 -112.5,-56.2 h -56.3" />
      <path
         inkscape:connector-curvature="0"
         id="path334"
         style="fill:none;stroke:#000000;stroke-width:196.8500061;stroke-linecap:round;stroke-linejoin:round;stroke-miterlimit:10;stroke-dasharray:none;stroke-opacity:1"
         d="m 46336.9,43564.1 h 899.9" />
      <path
         inkscape:connector-curvature="0"
         id="path336"
         style="fill:none;stroke:#000000;stroke-width:196.8500061;stroke-linecap:round;stroke-linejoin:round;stroke-miterlimit:10;stroke-dasharray:none;stroke-opacity:1"
         d="m 35538.2,41145.7 v 1181.1 h 281.3 l 168.7,-56.2 112.5,-112.5 56.2,-112.5 56.3,-225 v -168.7 l -56.3,-225 -56.2,-112.5 -112.5,-112.5 -168.7,-56.2 h -281.3" />
      <path
         inkscape:connector-curvature="0"
         id="path338"
         style="fill:none;stroke:#000000;stroke-width:196.8500061;stroke-linecap:round;stroke-linejoin:round;stroke-miterlimit:10;stroke-dasharray:none;stroke-opacity:1"
         d="m 36719.3,41145.7 v 1181.1" />
      <path
         inkscape:connector-curvature="0"
         id="path340"
         style="fill:none;stroke:#000000;stroke-width:196.8500061;stroke-linecap:round;stroke-linejoin:round;stroke-miterlimit:10;stroke-dasharray:none;stroke-opacity:1"
         d="m 37225.5,41201.9 168.8,-56.2 h 281.2 l 112.5,56.2 56.2,56.3 56.2,112.5 v 112.4 l -56.2,112.5 -56.2,56.3 -112.5,56.2 -225,56.3 -112.5,56.2 -56.2,56.3 -56.3,112.4 v 112.5 l 56.3,112.5 56.2,56.3 112.5,56.2 h 281.2 l 168.7,-56.2" />
      <path
         inkscape:connector-curvature="0"
         id="path342"
         style="fill:none;stroke:#000000;stroke-width:196.8500061;stroke-linecap:round;stroke-linejoin:round;stroke-miterlimit:10;stroke-dasharray:none;stroke-opacity:1"
         d="m 38237.9,42326.8 h 674.9" />
      <path
         inkscape:connector-curvature="0"
         id="path344"
         style="fill:none;stroke:#000000;stroke-width:196.8500061;stroke-linecap:round;stroke-linejoin:round;stroke-miterlimit:10;stroke-dasharray:none;stroke-opacity:1"
         d="m 38575.4,41145.7 v 1181.1" />
      <path
         inkscape:connector-curvature="0"
         id="path346"
         style="fill:none;stroke:#000000;stroke-width:196.8500061;stroke-linecap:round;stroke-linejoin:round;stroke-miterlimit:10;stroke-dasharray:none;stroke-opacity:1"
         d="m 39531.5,42326.8 h 225 l 112.5,-56.2 112.4,-112.5 56.3,-225 v -393.7 l -56.3,-225 -112.4,-112.5 -112.5,-56.2 h -225 l -112.5,56.2 -112.5,112.5 -56.2,225 v 393.7 l 56.2,225 112.5,112.5 112.5,56.2" />
      <path
         inkscape:connector-curvature="0"
         id="path348"
         style="fill:none;stroke:#000000;stroke-width:196.8500061;stroke-linecap:round;stroke-linejoin:round;stroke-miterlimit:10;stroke-dasharray:none;stroke-opacity:1"
         d="m 41218.8,41145.7 -393.7,562.4" />
      <path
         inkscape:connector-curvature="0"
         id="path350"
         style="fill:none;stroke:#000000;stroke-width:196.8500061;stroke-linecap:round;stroke-linejoin:round;stroke-miterlimit:10;stroke-dasharray:none;stroke-opacity:1"
         d="m 40543.9,41145.7 v 1181.1 h 449.9 l 112.5,-56.2 56.2,-56.3 56.3,-112.5 v -168.7 l -56.3,-112.5 -56.2,-56.2 -112.5,-56.3 h -449.9" />
      <path
         inkscape:connector-curvature="0"
         id="path352"
         style="fill:none;stroke:#000000;stroke-width:196.8500061;stroke-linecap:round;stroke-linejoin:round;stroke-miterlimit:10;stroke-dasharray:none;stroke-opacity:1"
         d="m 41556.2,42326.8 h 675" />
      <path
         inkscape:connector-curvature="0"
         id="path354"
         style="fill:none;stroke:#000000;stroke-width:196.8500061;stroke-linecap:round;stroke-linejoin:round;stroke-miterlimit:10;stroke-dasharray:none;stroke-opacity:1"
         d="m 41893.7,41145.7 v 1181.1" />
      <path
         inkscape:connector-curvature="0"
         id="path356"
         style="fill:none;stroke:#000000;stroke-width:196.8500061;stroke-linecap:round;stroke-linejoin:round;stroke-miterlimit:10;stroke-dasharray:none;stroke-opacity:1"
         d="m 42624.9,41145.7 v 1181.1" />
      <path
         inkscape:connector-curvature="0"
         id="path358"
         style="fill:none;stroke:#000000;stroke-width:196.8500061;stroke-linecap:round;stroke-linejoin:round;stroke-miterlimit:10;stroke-dasharray:none;stroke-opacity:1"
         d="m 43412.3,42326.8 h 224.9 l 112.5,-56.2 112.5,-112.5 56.2,-225 v -393.7 l -56.2,-225 -112.5,-112.5 -112.5,-56.2 h -224.9 l -112.5,56.2 -112.5,112.5 -56.3,225 v 393.7 l 56.3,225 112.5,112.5 112.5,56.2" />
      <path
         inkscape:connector-curvature="0"
         id="path360"
         style="fill:none;stroke:#000000;stroke-width:196.8500061;stroke-linecap:round;stroke-linejoin:round;stroke-miterlimit:10;stroke-dasharray:none;stroke-opacity:1"
         d="m 44424.6,41145.7 v 1181.1 l 675,-1181.1 v 1181.1" />
      <path
         inkscape:connector-curvature="0"
         id="path362"
         style="fill:none;stroke:#000000;stroke-width:196.8500061;stroke-linecap:round;stroke-linejoin:round;stroke-miterlimit:10;stroke-dasharray:none;stroke-opacity:1"
         d="m 46561.9,41595.6 h 899.9" />
      <path
         inkscape:connector-curvature="0"
         id="path364"
         style="fill:none;stroke:#000000;stroke-width:196.8500061;stroke-linecap:round;stroke-linejoin:round;stroke-miterlimit:10;stroke-dasharray:none;stroke-opacity:1"
         d="m 47011.8,41145.7 v 899.9" />
      <path
         inkscape:connector-curvature="0"
         id="path366"
         style="fill:none;stroke:#000000;stroke-width:196.8500061;stroke-linecap:round;stroke-linejoin:round;stroke-miterlimit:10;stroke-dasharray:none;stroke-opacity:1"
         d="m 39531.5,39177.2 -393.7,562.4" />
      <path
         inkscape:connector-curvature="0"
         id="path368"
         style="fill:none;stroke:#000000;stroke-width:196.8500061;stroke-linecap:round;stroke-linejoin:round;stroke-miterlimit:10;stroke-dasharray:none;stroke-opacity:1"
         d="m 38856.6,39177.2 v 1181.1 h 449.9 l 112.5,-56.3 56.3,-56.2 56.2,-112.5 v -168.7 l -56.2,-112.5 -56.3,-56.2 -112.5,-56.3 h -449.9" />
      <path
         inkscape:connector-curvature="0"
         id="path370"
         style="fill:none;stroke:#000000;stroke-width:196.8500061;stroke-linecap:round;stroke-linejoin:round;stroke-miterlimit:10;stroke-dasharray:none;stroke-opacity:1"
         d="m 40037.7,39795.9 h 393.7" />
      <path
         inkscape:connector-curvature="0"
         id="path372"
         style="fill:none;stroke:#000000;stroke-width:196.8500061;stroke-linecap:round;stroke-linejoin:round;stroke-miterlimit:10;stroke-dasharray:none;stroke-opacity:1"
         d="m 40600.1,39177.2 h -562.4 v 1181.1 h 562.4" />
      <path
         inkscape:connector-curvature="0"
         id="path374"
         style="fill:none;stroke:#000000;stroke-width:196.8500061;stroke-linecap:round;stroke-linejoin:round;stroke-miterlimit:10;stroke-dasharray:none;stroke-opacity:1"
         d="m 40937.6,40358.3 393.7,-1181.1 393.7,1181.1" />
      <path
         inkscape:connector-curvature="0"
         id="path376"
         style="fill:none;stroke:#000000;stroke-width:196.8500061;stroke-linecap:round;stroke-linejoin:round;stroke-miterlimit:10;stroke-dasharray:none;stroke-opacity:1"
         d="m 42118.7,39289.7 56.2,-56.3 -56.2,-56.2 -56.3,56.2 56.3,56.3 v -112.5" />
      <path
         inkscape:connector-curvature="0"
         id="path378"
         style="fill:none;stroke:#000000;stroke-width:196.8500061;stroke-linecap:round;stroke-linejoin:round;stroke-miterlimit:10;stroke-dasharray:none;stroke-opacity:1"
         d="m 43524.7,40245.8 56.3,56.2 112.5,56.3 h 281.2 l 112.5,-56.3 56.2,-56.2 56.3,-112.5 v -112.5 l -56.3,-168.7 -674.9,-674.9 h 731.2" />
      <g
         transform="translate(51105,57339.4)"
         id="g380" />
      <path
         inkscape:connector-curvature="0"
         id="path382"
         style="fill:none;stroke:#000000;stroke-width:196.8500061;stroke-linecap:round;stroke-linejoin:round;stroke-miterlimit:10;stroke-dasharray:none;stroke-opacity:1"
         d="m 49641.2,57395.7 v 1181.1" />
      <path
         inkscape:connector-curvature="0"
         id="path384"
         style="fill:none;stroke:#000000;stroke-width:196.8500061;stroke-linecap:round;stroke-linejoin:round;stroke-miterlimit:10;stroke-dasharray:none;stroke-opacity:1"
         d="m 50203.6,57395.7 v 1181.1 l 674.9,-1181.1 v 1181.1" />
      <path
         inkscape:connector-curvature="0"
         id="path386"
         style="fill:none;stroke:#000000;stroke-width:196.8500061;stroke-linecap:round;stroke-linejoin:round;stroke-miterlimit:10;stroke-dasharray:none;stroke-opacity:1"
         d="m 51440.9,57845.6 h 899.9" />
      <path
         inkscape:connector-curvature="0"
         id="path388"
         style="fill:none;stroke:#000000;stroke-width:196.8500061;stroke-linecap:round;stroke-linejoin:round;stroke-miterlimit:10;stroke-dasharray:none;stroke-opacity:1"
         d="m 52115.9,57620.7 224.9,224.9 -224.9,225" />
      <g
         transform="translate(30250,57339.4)"
         id="g390" />
      <path
         inkscape:connector-curvature="0"
         id="path392"
         style="fill:none;stroke:#000000;stroke-width:196.8500061;stroke-linecap:round;stroke-linejoin:round;stroke-miterlimit:10;stroke-dasharray:none;stroke-opacity:1"
         d="m 31559.1,57845.6 h -899.9" />
      <path
         inkscape:connector-curvature="0"
         id="path394"
         style="fill:none;stroke:#000000;stroke-width:196.8500061;stroke-linecap:round;stroke-linejoin:round;stroke-miterlimit:10;stroke-dasharray:none;stroke-opacity:1"
         d="m 30884.1,57620.7 -224.9,224.9 224.9,225" />
      <path
         inkscape:connector-curvature="0"
         id="path396"
         style="fill:none;stroke:#000000;stroke-width:196.8500061;stroke-linecap:round;stroke-linejoin:round;stroke-miterlimit:10;stroke-dasharray:none;stroke-opacity:1"
         d="m 32346.5,58576.8 h 224.9 l 112.5,-56.2 112.5,-112.5 56.2,-225 v -393.7 l -56.2,-225 -112.5,-112.5 -112.5,-56.2 h -224.9 l -112.5,56.2 -112.5,112.5 -56.3,225 v 393.7 l 56.3,225 112.5,112.5 112.5,56.2" />
      <path
         inkscape:connector-curvature="0"
         id="path398"
         style="fill:none;stroke:#000000;stroke-width:196.8500061;stroke-linecap:round;stroke-linejoin:round;stroke-miterlimit:10;stroke-dasharray:none;stroke-opacity:1"
         d="m 33358.8,58576.8 v -956.1 l 56.3,-112.5 56.2,-56.3 112.5,-56.2 h 225 l 112.5,56.2 56.2,56.3 56.2,112.5 v 956.1" />
      <path
         inkscape:connector-curvature="0"
         id="path400"
         style="fill:none;stroke:#000000;stroke-width:196.8500061;stroke-linecap:round;stroke-linejoin:round;stroke-miterlimit:10;stroke-dasharray:none;stroke-opacity:1"
         d="m 34427.4,58576.8 h 675" />
      <path
         inkscape:connector-curvature="0"
         id="path402"
         style="fill:none;stroke:#000000;stroke-width:196.8500061;stroke-linecap:round;stroke-linejoin:round;stroke-miterlimit:10;stroke-dasharray:none;stroke-opacity:1"
         d="m 34764.9,57395.7 v 1181.1" />
      <g
         transform="translate(42927.7,67339.4)"
         id="g404" />
      <path
         inkscape:connector-curvature="0"
         id="path406"
         style="fill:none;stroke:#000000;stroke-width:196.8500061;stroke-linecap:round;stroke-linejoin:round;stroke-miterlimit:10;stroke-dasharray:none;stroke-opacity:1"
         d="m 43219.3,67395.7 v 1181.1 h 281.3 l 168.7,-56.2 112.5,-112.5 56.2,-112.5 56.3,-225 v -168.7 l -56.3,-225 -56.2,-112.5 -112.5,-112.5 -168.7,-56.2 h -281.3" />
      <path
         inkscape:connector-curvature="0"
         id="path408"
         style="fill:none;stroke:#000000;stroke-width:196.8500061;stroke-linecap:round;stroke-linejoin:round;stroke-miterlimit:10;stroke-dasharray:none;stroke-opacity:1"
         d="m 44400.4,67395.7 v 1181.1" />
      <path
         inkscape:connector-curvature="0"
         id="path410"
         style="fill:none;stroke:#000000;stroke-width:196.8500061;stroke-linecap:round;stroke-linejoin:round;stroke-miterlimit:10;stroke-dasharray:none;stroke-opacity:1"
         d="m 44906.6,67451.9 168.8,-56.2 h 281.2 l 112.5,56.2 56.2,56.3 56.3,112.5 v 112.4 l -56.3,112.5 -56.2,56.3 -112.5,56.2 -225,56.3 -112.5,56.2 -56.2,56.3 -56.3,112.4 v 112.5 l 56.3,112.5 56.2,56.3 112.5,56.2 h 281.2 l 168.8,-56.2" />
      <path
         inkscape:connector-curvature="0"
         id="path412"
         style="fill:none;stroke:#000000;stroke-width:196.8500061;stroke-linecap:round;stroke-linejoin:round;stroke-miterlimit:10;stroke-dasharray:none;stroke-opacity:1"
         d="m 45919,68576.8 h 674.9" />
      <path
         inkscape:connector-curvature="0"
         id="path414"
         style="fill:none;stroke:#000000;stroke-width:196.8500061;stroke-linecap:round;stroke-linejoin:round;stroke-miterlimit:10;stroke-dasharray:none;stroke-opacity:1"
         d="m 46256.5,67395.7 v 1181.1" />
      <path
         inkscape:connector-curvature="0"
         id="path416"
         style="fill:none;stroke:#000000;stroke-width:196.8500061;stroke-linecap:round;stroke-linejoin:round;stroke-miterlimit:10;stroke-dasharray:none;stroke-opacity:1"
         d="m 47212.6,68576.8 h 225 l 112.5,-56.2 112.4,-112.5 56.3,-225 v -393.7 l -56.3,-225 -112.4,-112.5 -112.5,-56.2 h -225 l -112.5,56.2 -112.5,112.5 -56.2,225 v 393.7 l 56.2,225 112.5,112.5 112.5,56.2" />
      <path
         inkscape:connector-curvature="0"
         id="path418"
         style="fill:none;stroke:#000000;stroke-width:196.8500061;stroke-linecap:round;stroke-linejoin:round;stroke-miterlimit:10;stroke-dasharray:none;stroke-opacity:1"
         d="m 48899.9,67395.7 -393.7,562.4" />
      <path
         inkscape:connector-curvature="0"
         id="path420"
         style="fill:none;stroke:#000000;stroke-width:196.8500061;stroke-linecap:round;stroke-linejoin:round;stroke-miterlimit:10;stroke-dasharray:none;stroke-opacity:1"
         d="m 48225,67395.7 v 1181.1 h 449.9 l 112.5,-56.2 56.2,-56.3 56.3,-112.5 v -168.7 l -56.3,-112.5 -56.2,-56.2 -112.5,-56.3 H 48225" />
      <path
         inkscape:connector-curvature="0"
         id="path422"
         style="fill:none;stroke:#000000;stroke-width:196.8500061;stroke-linecap:round;stroke-linejoin:round;stroke-miterlimit:10;stroke-dasharray:none;stroke-opacity:1"
         d="m 49237.3,68576.8 h 675" />
      <path
         inkscape:connector-curvature="0"
         id="path424"
         style="fill:none;stroke:#000000;stroke-width:196.8500061;stroke-linecap:round;stroke-linejoin:round;stroke-miterlimit:10;stroke-dasharray:none;stroke-opacity:1"
         d="m 49574.8,67395.7 v 1181.1" />
      <path
         inkscape:connector-curvature="0"
         id="path426"
         style="fill:none;stroke:#000000;stroke-width:196.8500061;stroke-linecap:round;stroke-linejoin:round;stroke-miterlimit:10;stroke-dasharray:none;stroke-opacity:1"
         d="m 50306,67395.7 v 1181.1" />
      <path
         inkscape:connector-curvature="0"
         id="path428"
         style="fill:none;stroke:#000000;stroke-width:196.8500061;stroke-linecap:round;stroke-linejoin:round;stroke-miterlimit:10;stroke-dasharray:none;stroke-opacity:1"
         d="m 51093.4,68576.8 h 224.9 l 112.5,-56.2 112.5,-112.5 56.3,-225 v -393.7 l -56.3,-225 -112.5,-112.5 -112.5,-56.2 h -224.9 l -112.5,56.2 -112.5,112.5 -56.3,225 v 393.7 l 56.3,225 112.5,112.5 112.5,56.2" />
      <path
         inkscape:connector-curvature="0"
         id="path430"
         style="fill:none;stroke:#000000;stroke-width:196.8500061;stroke-linecap:round;stroke-linejoin:round;stroke-miterlimit:10;stroke-dasharray:none;stroke-opacity:1"
         d="m 52105.7,67395.7 v 1181.1 l 675,-1181.1 v 1181.1" />
      <g
         transform="translate(31618.7,67339.4)"
         id="g432" />
      <path
         inkscape:connector-curvature="0"
         id="path434"
         style="fill:none;stroke:#000000;stroke-width:196.8500061;stroke-linecap:round;stroke-linejoin:round;stroke-miterlimit:10;stroke-dasharray:none;stroke-opacity:1"
         d="m 32159.7,68576.8 h 225 l 112.5,-56.2 112.5,-112.5 56.2,-225 v -393.7 l -56.2,-225 -112.5,-112.5 -112.5,-56.2 h -225 l -112.5,56.2 -112.4,112.5 -56.3,225 v 393.7 l 56.3,225 112.4,112.5 112.5,56.2" />
      <path
         inkscape:connector-curvature="0"
         id="path436"
         style="fill:none;stroke:#000000;stroke-width:196.8500061;stroke-linecap:round;stroke-linejoin:round;stroke-miterlimit:10;stroke-dasharray:none;stroke-opacity:1"
         d="m 33172.1,68576.8 v -956.1 l 56.2,-112.5 56.3,-56.3 112.5,-56.2 h 224.9 l 112.5,56.2 56.3,56.3 56.2,112.5 v 956.1" />
      <path
         inkscape:connector-curvature="0"
         id="path438"
         style="fill:none;stroke:#000000;stroke-width:196.8500061;stroke-linecap:round;stroke-linejoin:round;stroke-miterlimit:10;stroke-dasharray:none;stroke-opacity:1"
         d="m 34240.7,68576.8 h 674.9" />
      <path
         inkscape:connector-curvature="0"
         id="path440"
         style="fill:none;stroke:#000000;stroke-width:196.8500061;stroke-linecap:round;stroke-linejoin:round;stroke-miterlimit:10;stroke-dasharray:none;stroke-opacity:1"
         d="m 34578.2,67395.7 v 1181.1" />
      <path
         inkscape:connector-curvature="0"
         id="path442"
         style="fill:none;stroke:#000000;stroke-width:196.8500061;stroke-linecap:round;stroke-linejoin:round;stroke-miterlimit:10;stroke-dasharray:none;stroke-opacity:1"
         d="m 35309.3,67395.7 v 1181.1 h 450 l 112.5,-56.2 56.2,-56.3 56.3,-112.5 v -168.7 l -56.3,-112.5 -56.2,-56.2 -112.5,-56.3 h -450" />
      <path
         inkscape:connector-curvature="0"
         id="path444"
         style="fill:none;stroke:#000000;stroke-width:196.8500061;stroke-linecap:round;stroke-linejoin:round;stroke-miterlimit:10;stroke-dasharray:none;stroke-opacity:1"
         d="m 36490.4,68576.8 v -956.1 l 56.3,-112.5 56.2,-56.3 112.5,-56.2 h 225 l 112.5,56.2 56.2,56.3 56.3,112.5 v 956.1" />
      <path
         inkscape:connector-curvature="0"
         id="path446"
         style="fill:none;stroke:#000000;stroke-width:196.8500061;stroke-linecap:round;stroke-linejoin:round;stroke-miterlimit:10;stroke-dasharray:none;stroke-opacity:1"
         d="M 37559.1,68576.8 H 38234" />
      <path
         inkscape:connector-curvature="0"
         id="path448"
         style="fill:none;stroke:#000000;stroke-width:196.8500061;stroke-linecap:round;stroke-linejoin:round;stroke-miterlimit:10;stroke-dasharray:none;stroke-opacity:1"
         d="m 37896.5,67395.7 v 1181.1" />
      <g
         transform="translate(40494.1,78089.4)"
         id="g450" />
      <path
         inkscape:connector-curvature="0"
         id="path452"
         style="fill:none;stroke:#000000;stroke-width:196.8500061;stroke-linecap:round;stroke-linejoin:round;stroke-miterlimit:10;stroke-dasharray:none;stroke-opacity:1"
         d="m 39700.2,78145.7 v 899.9" />
      <path
         inkscape:connector-curvature="0"
         id="path454"
         style="fill:none;stroke:#000000;stroke-width:196.8500061;stroke-linecap:round;stroke-linejoin:round;stroke-miterlimit:10;stroke-dasharray:none;stroke-opacity:1"
         d="m 39475.3,78820.6 224.9,225 225,-225" />
      <path
         inkscape:connector-curvature="0"
         id="path456"
         style="fill:none;stroke:#000000;stroke-width:196.8500061;stroke-linecap:round;stroke-linejoin:round;stroke-miterlimit:10;stroke-dasharray:none;stroke-opacity:1"
         d="m 40768.8,78145.7 h 225 l 112.5,56.2 56.2,56.3 112.5,168.7 56.3,225 v 449.9 l -56.3,112.5 -56.2,56.3 -112.5,56.2 h -225 l -112.5,-56.2 -56.2,-56.3 -56.2,-112.5 v -281.2 l 56.2,-112.5 56.2,-56.2 112.5,-56.3 h 225 l 112.5,56.3 56.2,56.2 56.3,112.5" />
      <path
         inkscape:connector-curvature="0"
         id="path458"
         style="fill:none;stroke:#000000;stroke-width:196.8500061;stroke-linecap:round;stroke-linejoin:round;stroke-miterlimit:10;stroke-dasharray:none;stroke-opacity:1"
         d="m 41668.7,79326.8 393.7,-1181.1 393.7,1181.1" />
      <path
         inkscape:connector-curvature="0"
         id="path460"
         style="fill:none;stroke:#000000;stroke-width:196.8500061;stroke-linecap:round;stroke-linejoin:round;stroke-miterlimit:10;stroke-dasharray:none;stroke-opacity:1"
         d="m 43299.8,78145.7 v 899.9" />
      <path
         inkscape:connector-curvature="0"
         id="path462"
         style="fill:none;stroke:#000000;stroke-width:196.8500061;stroke-linecap:round;stroke-linejoin:round;stroke-miterlimit:10;stroke-dasharray:none;stroke-opacity:1"
         d="m 43074.8,78820.6 225,225 224.9,-225" />
    </g>
  </g>
</svg>
