<?xml version="1.0" encoding="UTF-8" standalone="no"?>
<!-- Created with Inkscape (http://www.inkscape.org/) -->

<svg
   xmlns:dc="http://purl.org/dc/elements/1.1/"
   xmlns:cc="http://creativecommons.org/ns#"
   xmlns:rdf="http://www.w3.org/1999/02/22-rdf-syntax-ns#"
   xmlns:svg="http://www.w3.org/2000/svg"
   xmlns="http://www.w3.org/2000/svg"
   xmlns:sodipodi="http://sodipodi.sourceforge.net/DTD/sodipodi-0.dtd"
   xmlns:inkscape="http://www.inkscape.org/namespaces/inkscape"
   width="94mm"
   height="119.5mm"
   viewBox="0 0 93.999999 119.5"
   version="1.1"
   id="svg8"
   inkscape:version="0.92.5 (2060ec1f9f, 2020-04-08)"
   sodipodi:docname="salty_phaser_r1_1.svg">
  <title
     id="title16">Salty Phaser [REV1] V1</title>
  <defs
     id="defs2">
    <clipPath
       id="clipPath96-3"
       clipPathUnits="userSpaceOnUse">
      <path
         inkscape:connector-curvature="0"
         id="path94-6"
         d="M 0,150 H 350 V 0 H 0 Z" />
    </clipPath>
    <clipPath
       id="clipPath96-3-6"
       clipPathUnits="userSpaceOnUse">
      <path
         inkscape:connector-curvature="0"
         id="path94-6-4"
         d="M 0,150 H 350 V 0 H 0 Z" />
    </clipPath>
    <clipPath
       id="clipPath96-3-3"
       clipPathUnits="userSpaceOnUse">
      <path
         inkscape:connector-curvature="0"
         id="path94-6-1"
         d="M 0,150 H 350 V 0 H 0 Z" />
    </clipPath>
    <clipPath
       id="clipPath96-3-8"
       clipPathUnits="userSpaceOnUse">
      <path
         inkscape:connector-curvature="0"
         id="path94-6-7"
         d="M 0,150 H 350 V 0 H 0 Z" />
    </clipPath>
    <clipPath
       id="clipPath96-3-8-8"
       clipPathUnits="userSpaceOnUse">
      <path
         inkscape:connector-curvature="0"
         id="path94-6-7-8"
         d="M 0,150 H 350 V 0 H 0 Z" />
    </clipPath>
    <clipPath
       id="clipPath96-3-8-8-3"
       clipPathUnits="userSpaceOnUse">
      <path
         inkscape:connector-curvature="0"
         id="path94-6-7-8-4"
         d="M 0,150 H 350 V 0 H 0 Z" />
    </clipPath>
    <clipPath
       id="clipPath96-3-8-8-3-4"
       clipPathUnits="userSpaceOnUse">
      <path
         inkscape:connector-curvature="0"
         id="path94-6-7-8-4-3"
         d="M 0,150 H 350 V 0 H 0 Z" />
    </clipPath>
    <clipPath
       id="clipPath96"
       clipPathUnits="userSpaceOnUse">
      <path
         inkscape:connector-curvature="0"
         id="path94"
         d="M 0,150 H 350 V 0 H 0 Z" />
    </clipPath>
    <clipPath
       id="clipPath96-3-6-2"
       clipPathUnits="userSpaceOnUse">
      <path
         inkscape:connector-curvature="0"
         id="path94-6-73"
         d="M 0,150 H 350 V 0 H 0 Z" />
    </clipPath>
  </defs>
  <sodipodi:namedview
     id="base"
     pagecolor="#ffffff"
     bordercolor="#666666"
     borderopacity="1.0"
     inkscape:pageopacity="0.0"
     inkscape:pageshadow="2"
     inkscape:zoom="1.5587169"
     inkscape:cx="177.63779"
     inkscape:cy="225.82677"
     inkscape:document-units="mm"
     inkscape:current-layer="layer1"
     showgrid="false"
     inkscape:window-width="1596"
     inkscape:window-height="864"
     inkscape:window-x="0"
     inkscape:window-y="16"
     inkscape:window-maximized="0"
     inkscape:snap-global="false"
     inkscape:snap-smooth-nodes="true"
     inkscape:snap-intersection-paths="true" />
  <metadata
     id="metadata5">
    <rdf:RDF>
      <cc:Work
         rdf:about="">
        <dc:format>image/svg+xml</dc:format>
        <dc:type
           rdf:resource="http://purl.org/dc/dcmitype/StillImage" />
        <dc:title>Salty Phaser [REV1] V1</dc:title>
        <cc:license
           rdf:resource="http://creativecommons.org/licenses/by-sa/4.0/" />
        <dc:creator>
          <cc:Agent>
            <dc:title>Igor Ivanov</dc:title>
          </cc:Agent>
        </dc:creator>
        <dc:date>24.06.2023</dc:date>
        <dc:contributor>
          <cc:Agent>
            <dc:title />
          </cc:Agent>
        </dc:contributor>
      </cc:Work>
      <cc:License
         rdf:about="http://creativecommons.org/licenses/by-sa/4.0/">
        <cc:permits
           rdf:resource="http://creativecommons.org/ns#Reproduction" />
        <cc:permits
           rdf:resource="http://creativecommons.org/ns#Distribution" />
        <cc:requires
           rdf:resource="http://creativecommons.org/ns#Notice" />
        <cc:requires
           rdf:resource="http://creativecommons.org/ns#Attribution" />
        <cc:permits
           rdf:resource="http://creativecommons.org/ns#DerivativeWorks" />
        <cc:requires
           rdf:resource="http://creativecommons.org/ns#ShareAlike" />
      </cc:License>
    </rdf:RDF>
  </metadata>
  <g
     inkscape:label="Layer 1"
     inkscape:groupmode="layer"
     id="layer1"
     transform="translate(0,-177.5)">
    <path
       style="fill:#000000;stroke-width:0.06217256"
       d="m 72.578611,292.08616 c -1.50817,-0.14205 -2.16024,-0.4976 -3.66841,-2.00024 -0.76809,-0.76528 -1.75599,-1.90351 -1.97212,-2.27224 -0.19682,-0.33577 -0.63858,-1.40725 -0.63985,-1.55193 -4.9e-4,-0.0597 -0.0268,-0.14938 -0.0584,-0.19932 -0.0491,-0.0777 -0.0759,-0.0741 -0.18557,0.0252 -0.1495,0.1353 -0.15856,0.0864 -0.0618,-0.33339 0.0939,-0.40727 0.0161,-0.53009 -0.12961,-0.20466 -0.0651,0.14538 -0.10246,0.3057 -0.0831,0.35628 0.0271,0.0706 -0.0166,0.0919 -0.18897,0.0919 h -0.22426 v -0.30326 c 0,-0.1927 -0.0338,-0.33125 -0.0926,-0.38007 -0.0509,-0.0423 -0.0778,-0.10068 -0.0599,-0.12983 0.018,-0.0292 -0.0216,-0.15953 -0.088,-0.28972 -0.0731,-0.14321 -0.10797,-0.3037 -0.0884,-0.40626 0.0427,-0.22306 -0.0574,-0.21745 -0.30273,0.017 -0.10735,0.10258 -0.2086,0.18651 -0.22499,0.18651 -0.0615,0 0.0572,-0.5267 0.12889,-0.57228 0.0556,-0.0353 0.0531,-0.0478 -0.01,-0.0485 -0.10814,-10e-4 -0.043,-0.29087 0.10484,-0.46618 0.0982,-0.11649 0.0979,-0.11857 -0.007,-0.0377 -0.16204,0.1256 -0.18936,0.0504 -0.0801,-0.22082 0.0826,-0.20506 0.0831,-0.22235 0.004,-0.11918 -0.0681,0.0883 -0.0941,0.0967 -0.0972,0.0311 -0.002,-0.0521 -0.0319,-0.0323 -0.0705,0.0476 -0.0775,0.16042 -0.53033,0.4909 -0.59038,0.43084 -0.0226,-0.0226 0.0156,-0.11768 0.0847,-0.2113 0.2877,-0.38914 0.31905,-0.51334 0.25182,-0.99779 -0.0436,-0.31424 -0.0428,-0.52056 0.002,-0.66836 0.036,-0.11759 0.0421,-0.21381 0.0134,-0.21381 -0.0287,0 -0.0699,0.056 -0.0916,0.12435 -0.0626,0.19734 -0.15544,0.1445 -0.15544,-0.0885 0,-0.13631 0.0559,-0.27924 0.15544,-0.39755 0.0855,-0.1016 0.15543,-0.20425 0.15543,-0.22811 0,-0.0239 0.0576,-0.11654 0.12786,-0.20594 0.14641,-0.18613 0.1311,-0.30227 -0.10587,-0.80319 -0.12469,-0.26357 -0.18516,-0.32841 -0.30628,-0.32841 -0.21369,0 -0.20263,-0.25721 0.02,-0.46659 0.15618,-0.14683 0.16156,-0.16616 0.0622,-0.22321 -0.0599,-0.0344 -0.11101,-0.138 -0.11371,-0.23033 -0.003,-0.0924 -0.019,-0.13292 -0.0363,-0.0902 -0.0475,0.11782 -0.14535,0.0929 -0.14535,-0.037 0,-0.0631 0.056,-0.16535 0.12435,-0.22724 0.15676,-0.14187 0.16188,-0.24207 0.008,-0.1598 -0.16149,0.0864 -0.18607,0.038 -0.11692,-0.23014 0.0405,-0.15722 0.0378,-0.2876 -0.008,-0.40527 -0.0597,-0.15185 -0.0844,-0.16478 -0.19845,-0.10376 -0.16006,0.0857 -0.21934,0.0438 -0.09,-0.0634 0.0997,-0.0828 0.12984,-0.24993 0.045,-0.24993 -0.0274,0 -0.0828,0.0331 -0.12331,0.0736 -0.11919,0.11918 -0.16513,0.004 -0.0722,-0.18211 0.0472,-0.0942 0.096,-0.19224 0.10855,-0.21791 0.0125,-0.0257 -0.0257,-0.0281 -0.0849,-0.005 -0.0894,0.0343 -0.10229,0.0133 -0.076,-0.1243 0.0347,-0.18119 -0.006,-0.20767 -0.13364,-0.0879 -0.0679,0.0635 -0.0771,0.055 -0.0506,-0.0466 0.0178,-0.0684 0.0545,-0.17816 0.0814,-0.24394 0.0392,-0.0958 0.0282,-0.11164 -0.0551,-0.0797 -0.0749,0.0288 -0.10406,0.007 -0.10406,-0.0788 0,-0.0653 0.0299,-0.13719 0.0664,-0.15977 0.0365,-0.0225 0.0498,-0.0844 0.0294,-0.13739 -0.0212,-0.0551 0.017,-0.14661 0.089,-0.21374 0.16897,-0.15742 0.17308,-0.32863 0.006,-0.23908 -0.18512,0.0991 -0.22119,0.0769 -0.0974,-0.06 0.1028,-0.1136 0.10347,-0.12435 0.008,-0.12435 -0.0576,0 -0.12012,0.0398 -0.13879,0.0885 -0.0474,0.12367 -0.21084,0.1765 -0.21084,0.0681 0,-0.0485 0.1259,-0.22144 0.27977,-0.38434 0.34044,-0.36039 0.35862,-0.45207 0.0477,-0.24082 -0.33555,0.22801 -0.45649,0.20142 -0.21537,-0.0474 0.1093,-0.11276 0.19872,-0.24777 0.19872,-0.30002 0,-0.0523 0.0702,-0.16096 0.156,-0.24156 0.0858,-0.0806 0.20978,-0.23771 0.27552,-0.34913 l 0.11952,-0.20257 -0.29106,0.22105 c -0.16009,0.12158 -0.30039,0.24583 -0.31179,0.27612 -0.0114,0.0302 -0.07,0.0551 -0.13025,0.0551 -0.0602,0 -0.16017,0.056 -0.22206,0.12434 -0.0619,0.0684 -0.15681,0.12435 -0.21093,0.12435 -0.085,0 0.41313,-0.5128 1.19767,-1.23296 0.25655,-0.2355 0.30288,-0.38627 0.0722,-0.23517 -0.0843,0.0553 -0.28018,0.17128 -0.4352,0.25783 -0.22615,0.12626 -0.28186,0.13853 -0.28186,0.0621 0,-0.0524 0.0237,-0.0953 0.0526,-0.0953 0.0289,0 0.11549,-0.0545 0.19227,-0.12108 0.0768,-0.0666 0.16854,-0.13072 0.2039,-0.14251 0.0354,-0.0118 0.0678,-0.0774 0.072,-0.14583 0.004,-0.0684 0.1056,-0.21746 0.22528,-0.33119 0.21193,-0.20139 0.21274,-0.20393 0.0311,-0.0979 -0.10259,0.0599 -0.24947,0.16602 -0.32641,0.23584 -0.0769,0.0698 -0.1397,0.1011 -0.13948,0.0695 6.8e-4,-0.0952 0.20536,-0.37091 0.40371,-0.54379 0.14496,-0.12634 0.16228,-0.163 0.0777,-0.16452 -0.0599,-7.4e-4 -0.1599,0.0491 -0.22236,0.11158 -0.11671,0.11672 -0.22928,0.17314 -0.51965,0.26045 -0.13135,0.0395 -0.15973,0.0315 -0.13323,-0.0376 0.0185,-0.0482 0.0683,-0.0878 0.11064,-0.0878 0.0424,0 0.12761,-0.0559 0.1895,-0.12435 0.0619,-0.0684 0.13677,-0.12434 0.1664,-0.12434 0.1072,0 0.54858,-0.3294 0.54858,-0.4094 0,-0.0451 0.12507,-0.16805 0.27792,-0.27322 0.36296,-0.24972 0.6128,-0.58351 0.62537,-0.83551 0.0105,-0.20982 0.46973,-0.9066 0.59756,-0.9066 0.0402,0 0.0515,-0.0615 0.0283,-0.15418 -0.0303,-0.12087 0.002,-0.19065 0.15088,-0.32309 0.10427,-0.0929 0.27544,-0.30844 0.38037,-0.47898 0.27755,-0.45108 0.83353,-0.9712 1.29697,-1.21332 0.22227,-0.11611 0.41811,-0.23083 0.43521,-0.25492 0.0171,-0.0241 0.0967,-0.0784 0.17689,-0.12063 0.12356,-0.0651 0.13982,-0.1087 0.10661,-0.28572 -0.0316,-0.1685 -0.0155,-0.22157 0.0832,-0.27443 0.17308,-0.0926 0.25498,-0.0815 0.25498,0.0348 0,0.0841 0.0466,0.0933 0.28848,0.0571 0.18878,-0.0283 0.30326,-0.0194 0.33123,0.0259 0.0303,0.049 0.0955,0.0416 0.22444,-0.0256 0.19794,-0.10322 0.48992,-0.12967 0.43408,-0.0394 -0.0431,0.0698 0.49588,-0.13229 0.902,-0.33809 0.16639,-0.0843 0.35586,-0.1533 0.42104,-0.1533 0.0652,0 0.24366,-0.0554 0.39662,-0.12302 0.30302,-0.13404 0.91235,-0.28623 1.35418,-0.33821 0.15388,-0.0181 0.58753,-0.0686 0.96368,-0.11225 0.94273,-0.10936 1.86928,-0.0887 2.18049,0.0485 0.152,0.067 0.37337,0.10323 0.58618,0.0958 0.18808,-0.007 0.57977,0.0452 0.87043,0.11489 0.29065,0.0698 0.6321,0.12704 0.75876,0.12728 0.16205,3.1e-4 0.38886,0.0917 0.76528,0.30827 0.29423,0.16931 0.58558,0.3239 0.64745,0.34354 0.0619,0.0196 0.16248,0.0909 0.22358,0.15846 0.10039,0.11093 0.10118,0.12276 0.008,0.12276 -0.0566,0 -0.10272,0.021 -0.1025,0.0466 4.3e-4,0.0549 0.17798,0.15975 1.05654,0.62392 0.35905,0.18969 0.74966,0.39619 0.86802,0.4589 0.11836,0.0627 0.27224,0.11499 0.34195,0.1162 0.0697,0.001 0.19669,0.0437 0.28217,0.0944 0.15202,0.0901 0.1493,0.0919 -0.12435,0.0787 -0.28582,-0.0137 -0.91633,-0.2015 -1.02273,-0.30455 -0.0325,-0.0315 -0.0807,-0.0572 -0.10712,-0.0572 -0.0737,0 0.31279,0.34451 0.69465,0.61924 0.45563,0.32779 0.55934,0.43247 0.65891,0.6651 0.078,0.18223 0.21326,0.31706 0.50009,0.49849 0.10471,0.0662 0.0962,0.0772 -0.0904,0.11736 l -0.20597,0.0443 0.19249,0.1986 c 0.12069,0.12452 0.17836,0.23541 0.15461,0.29729 -0.0569,0.14836 0.15431,0.43509 0.29369,0.39864 0.20149,-0.0527 0.29961,0.12235 0.29961,0.53449 v 0.38029 l 0.37504,0.36133 c 0.29237,0.28167 0.34719,0.36133 0.2487,0.36133 -0.079,0 -0.12623,0.0408 -0.12601,0.10881 7.3e-4,0.24117 0.13382,0.56505 0.27599,0.67181 0.13319,0.10003 0.1393,0.12149 0.0526,0.18487 -0.089,0.0651 -0.0877,0.10465 0.0135,0.42642 0.0614,0.1951 0.17104,0.40239 0.24372,0.46063 0.0727,0.0582 0.19811,0.20382 0.27873,0.32351 0.0806,0.11968 0.21976,0.28041 0.30919,0.35718 l 0.1626,0.13958 -0.15854,3.1e-4 c -0.0872,1.9e-4 -0.19211,-0.0333 -0.23315,-0.0743 -0.058,-0.058 -0.0746,-0.0454 -0.0746,0.057 0,0.0724 -0.035,0.14635 -0.0777,0.16437 -0.0493,0.0208 0.0246,0.12722 0.20207,0.29111 0.17347,0.16018 0.25025,0.26978 0.20206,0.28846 -0.13245,0.0513 -0.0857,0.20633 0.0815,0.26987 0.0875,0.0333 0.14209,0.0882 0.12121,0.12195 -0.0209,0.0338 0.0621,0.14931 0.18445,0.25671 0.16544,0.14525 0.21232,0.22712 0.183,0.31951 -0.023,0.0727 -0.0147,0.10891 0.0203,0.0873 0.0804,-0.0497 0.28779,0.10753 0.25753,0.19523 -0.0311,0.09 -0.6205,-0.27225 -0.59917,-0.36831 0.009,-0.0384 -0.0264,-0.0825 -0.0777,-0.0979 -0.0829,-0.025 -0.0829,-0.0207 0,0.0379 0.079,0.0559 0.0742,0.0673 -0.0311,0.0743 -0.0684,0.004 -0.15687,0.004 -0.19663,-5e-4 -0.0805,-0.01 -0.0421,0.22394 0.0578,0.35161 0.0432,0.0552 0.0316,0.0777 -0.0401,0.0777 -0.0554,0 -0.10087,0.028 -0.10087,0.0622 0,0.0342 0.0516,0.0622 0.11471,0.0622 0.0631,0 0.16124,0.0514 0.21811,0.11426 0.0965,0.10667 0.0961,0.12062 -0.006,0.21025 -0.0601,0.0528 -0.17226,0.11518 -0.2492,0.13863 -0.16564,0.0505 -0.17626,0.14116 -0.0394,0.33652 0.0739,0.10553 0.0821,0.16174 0.0311,0.21278 -0.0993,0.0993 -0.0856,0.17116 0.0246,0.12888 0.0659,-0.0253 0.083,-0.007 0.0573,0.0595 -0.0232,0.0605 0.0225,0.13435 0.12473,0.2013 0.11572,0.0758 0.14364,0.12713 0.0987,0.18133 -0.0345,0.0416 -0.042,0.0972 -0.0166,0.12374 0.0253,0.0265 -0.0437,0.0289 -0.15339,0.005 l -0.19948,-0.0427 0.0952,0.19089 c 0.0523,0.10499 0.13349,0.19089 0.18026,0.19089 0.0892,0 0.18696,0.11265 0.13923,0.16039 -0.0153,0.0153 -0.12998,-0.0149 -0.25492,-0.0671 -0.12493,-0.0522 -0.22714,-0.0796 -0.22714,-0.0609 0,0.0187 0.0979,0.13191 0.2176,0.2516 0.25459,0.25458 0.29174,0.40514 0.0538,0.21797 -0.21895,-0.17223 -0.28356,-0.16237 -0.25998,0.0396 0.0165,0.14119 0.0599,0.17683 0.2673,0.21964 0.35305,0.0728 0.39088,0.14784 0.0982,0.19464 -0.13891,0.0222 -0.25256,0.0507 -0.25256,0.0631 0,0.13113 0.20973,0.46472 0.3084,0.49053 0.0698,0.0182 0.12681,0.0637 0.12681,0.10115 0,0.12917 -0.13564,0.0673 -0.32761,-0.14961 -0.10596,-0.11968 -0.21548,-0.2176 -0.24339,-0.2176 -0.11462,0 -0.0363,0.15343 0.19796,0.38766 0.13678,0.13677 0.24869,0.27337 0.24869,0.30355 0,0.0538 -0.12637,0.0785 -0.31086,0.0605 -0.0736,-0.007 -0.0703,0.009 0.0156,0.0772 0.0599,0.0474 0.10881,0.10416 0.10881,0.12604 0,0.0654 -0.42468,0.0449 -0.4663,-0.0224 -0.0212,-0.0342 -0.0654,-0.0622 -0.0984,-0.0622 -0.12325,0 0.15121,0.31391 0.30805,0.35235 0.17043,0.0418 0.47526,0.32013 0.41574,0.37965 -0.0189,0.0189 -0.10794,6.9e-4 -0.19799,-0.0403 -0.27557,-0.12556 -0.23487,-0.0311 0.0811,0.1883 0.25853,0.17947 0.28086,0.21073 0.16264,0.22755 -0.14145,0.0201 -0.46312,-0.1746 -0.64756,-0.392 -0.10064,-0.11863 -0.1101,-0.11921 -0.22638,-0.014 -0.13237,0.11979 -0.12154,0.41148 0.0184,0.49449 0.0425,0.0252 0.0955,0.11852 0.11778,0.20735 0.0223,0.0888 0.0927,0.21757 0.15656,0.28605 0.0638,0.0685 0.13122,0.18501 0.14982,0.25894 0.0335,0.13304 0.0328,0.13314 -0.0635,0.0101 -0.0636,-0.0813 -0.10699,-0.0987 -0.12527,-0.0502 -0.0153,0.0408 -0.0684,0.0587 -0.11792,0.0397 -0.0631,-0.0242 -0.0785,-0.004 -0.0515,0.0657 0.0256,0.0665 0.005,0.10018 -0.0615,0.10018 -0.0549,0 -0.0999,0.05 -0.0999,0.1112 0,0.16458 0.22445,0.5751 0.37029,0.67725 0.14797,0.10364 0.17446,0.28276 0.0339,0.22879 -0.0513,-0.0197 -0.0933,-0.003 -0.0933,0.0372 0,0.0438 -0.0479,0.0578 -0.11994,0.035 -0.0958,-0.0304 -0.12523,-0.003 -0.14612,0.1357 -0.0257,0.17058 -0.0264,0.17018 -0.0355,-0.0217 -0.005,-0.10945 -0.0504,-0.21116 -0.10257,-0.2312 -0.10356,-0.0397 -0.12905,0.0552 -0.0311,0.11574 0.0342,0.0211 0.0622,0.0623 0.0622,0.0914 0,0.0949 -0.15511,0.0333 -0.31246,-0.12411 l -0.15384,-0.15384 -0.0203,0.17766 c -0.028,0.24525 0.0919,0.5054 0.32896,0.71355 0.21982,0.19301 0.38258,0.66333 0.17316,0.50038 -0.0599,-0.0466 -0.20099,-0.17922 -0.31371,-0.29483 -0.11271,-0.11562 -0.22276,-0.1924 -0.24454,-0.17061 -0.0218,0.0218 -0.007,0.0727 0.034,0.11317 0.1193,0.1193 0.0889,0.2974 -0.0507,0.2974 -0.15947,0 -0.16356,0.18171 -0.009,0.38019 0.0637,0.0815 0.13773,0.21821 0.16453,0.3037 0.0454,0.14466 0.0373,0.14189 -0.1158,-0.0401 -0.0905,-0.10752 -0.16552,-0.23342 -0.16673,-0.27978 -0.001,-0.0463 -0.0411,-0.15422 -0.0886,-0.23971 l -0.0864,-0.15543 -0.0737,0.18651 c -0.09,0.22781 -0.0908,0.47903 -0.002,0.64484 0.15683,0.29306 -0.0473,0.26318 -0.36,-0.0527 -0.20946,-0.21156 -0.25572,-0.23394 -0.32101,-0.15527 -0.0449,0.054 -0.0609,0.16871 -0.039,0.27827 0.0233,0.11647 0.0117,0.18636 -0.031,0.18636 -0.0452,0 -0.048,0.0262 -0.008,0.0777 0.033,0.0427 0.0783,0.12851 0.10048,0.19059 0.0327,0.0916 0.0167,0.10535 -0.0852,0.073 -0.12498,-0.0396 -0.12496,-0.0388 0.003,0.18943 0.18446,0.32841 0.12923,0.37258 -0.15247,0.12194 -0.13444,-0.11962 -0.3093,-0.21749 -0.38858,-0.21749 -0.0793,0 -0.14523,-0.0349 -0.14657,-0.0777 -0.001,-0.0427 -0.0422,0.0138 -0.0908,0.12565 -0.0486,0.11185 -0.0724,0.24497 -0.0529,0.2958 0.0195,0.0508 0.0165,0.19326 -0.007,0.31652 l -0.0421,0.2241 -0.14969,-0.14063 c -0.14325,-0.13457 -0.15149,-0.13554 -0.19184,-0.0225 -0.0232,0.065 -0.0755,0.16008 -0.11632,0.21138 -0.1483,0.18648 -0.28945,0.63712 -0.221,0.70557 0.0958,0.0958 0.0797,0.22701 -0.0279,0.22701 -0.0703,0 -0.0933,0.0756 -0.0933,0.30719 0,0.35246 -0.0944,0.46799 -0.15543,0.19019 -0.0533,-0.24287 -0.15543,-0.17921 -0.15543,0.0969 0,0.11766 -0.0316,0.21393 -0.0701,0.21393 -0.0476,0 -0.0566,-0.0842 -0.0283,-0.26189 0.0231,-0.14405 0.0222,-0.24221 -0.002,-0.21815 -0.0241,0.0241 -0.0795,0.0141 -0.12321,-0.0222 -0.0562,-0.0467 -0.11848,-0.0451 -0.21311,0.006 -0.21235,0.11365 -0.2148,0.0241 -0.005,-0.18108 0.21015,-0.20543 0.2452,-0.38267 0.0996,-0.50354 -0.0513,-0.0426 -0.0937,-0.053 -0.0942,-0.0231 -7.3e-4,0.0615 -0.12097,-0.10934 -0.12244,-0.17446 -5e-4,-0.0232 0.0414,-0.0846 0.0932,-0.13636 0.0832,-0.0831 0.0836,-0.12478 0.004,-0.35557 -0.0729,-0.21163 -0.0791,-0.40467 -0.0325,-1.01383 0.0316,-0.41384 0.0713,-0.83637 0.0881,-0.93896 0.0168,-0.10258 0.007,-0.22432 -0.0226,-0.27052 -0.038,-0.0601 -0.15692,0.0831 -0.41863,0.50457 -0.58217,0.93753 -1.27001,1.82951 -2.10012,2.7234 -0.20858,0.22461 -0.61704,0.66992 -0.90769,0.98959 -0.99127,1.09023 -1.90544,1.93343 -2.13059,1.96522 -0.0763,0.0108 -0.25062,0.0616 -0.3874,0.11293 -0.27187,0.10206 -0.90695,0.11356 -1.77192,0.0321 z m 2.6254,-2.22295 c 0.0489,-0.0489 0.0507,-0.0729 0.006,-0.0729 -0.0371,0 -0.082,-0.056 -0.0999,-0.12435 -0.0191,-0.0729 -0.0848,-0.12434 -0.15901,-0.12434 -0.0696,0 -0.1438,-0.028 -0.16493,-0.0622 -0.0211,-0.0342 -0.0857,-0.0626 -0.14355,-0.0632 -0.20799,-0.002 -0.29036,-0.11254 -0.29356,-0.39434 l -0.003,-0.27624 0.49504,0.0104 c 0.3295,0.007 0.5036,0.036 0.52062,0.0871 0.0168,0.0505 0.1673,0.0771 0.44006,0.0777 0.51511,10e-4 0.60024,0.0506 0.58094,0.33713 -0.011,0.16392 0.01,0.22146 0.0803,0.22146 0.0524,0 0.0952,-0.0291 0.0952,-0.0648 0,-0.0356 0.0531,-0.12178 0.11801,-0.19145 0.14646,-0.15721 0.19396,-0.44807 0.10307,-0.63123 -0.0587,-0.11824 -0.13255,-0.14293 -0.50706,-0.16949 -0.30293,-0.0214 -0.47192,-0.0647 -0.54694,-0.13988 -0.0597,-0.0598 -0.13721,-0.10881 -0.17223,-0.10881 -0.035,0 -0.14001,-0.0543 -0.2333,-0.12078 -0.15503,-0.11039 -0.19062,-0.1133 -0.41372,-0.0338 -0.3541,0.12615 -0.57973,0.11161 -0.79778,-0.0514 -0.1795,-0.1342 -0.2278,-0.14078 -0.72086,-0.0982 -0.92182,0.0796 -1.38756,0.0659 -1.54686,-0.0457 -0.11166,-0.0782 -0.23664,-0.0939 -0.54901,-0.0688 -0.72596,0.0583 -0.7343,0.36361 -0.0109,0.39947 0.20284,0.0101 0.43281,0.0602 0.51105,0.11149 0.0782,0.0512 0.25244,0.088 0.38714,0.0816 0.29546,-0.014 1.16517,0.11326 1.31717,0.19276 0.0599,0.0314 0.22957,0.0892 0.37692,0.12859 0.24851,0.0664 0.26651,0.0853 0.24868,0.26071 -0.021,0.20683 -0.0905,0.2425 -0.89785,0.46105 -0.22043,0.0597 -0.41683,0.13445 -0.43644,0.16618 -0.0771,0.12477 0.11864,0.19781 0.49988,0.1865 0.32697,-0.01 0.41469,0.01 0.50902,0.11424 0.10291,0.11371 0.17328,0.12363 0.72472,0.10218 0.35268,-0.0137 0.64154,-0.0546 0.68363,-0.0966 z m -0.20213,-3.36528 c 0.1976,-0.0682 0.37776,-0.0967 0.42931,-0.0678 0.1689,0.0945 0.93995,-0.19051 0.93995,-0.34748 0,-0.15336 -0.27974,-0.23717 -0.49458,-0.14818 -0.10413,0.0431 -0.18932,0.10078 -0.18932,0.1281 0,0.0273 -0.18713,0.0698 -0.41584,0.0942 -0.27125,0.0291 -0.45909,0.0848 -0.54019,0.16039 -0.0684,0.0637 -0.16447,0.11584 -0.2135,0.11584 -0.0722,0 -0.0744,0.0178 -0.0117,0.0933 0.0949,0.11432 0.0802,0.11516 0.49592,-0.0283 z m 8.25966,-0.34189 c -0.014,-0.0639 -0.0482,-0.0754 -0.10959,-0.037 -0.0766,0.0479 -0.0769,0.0707 -0.002,0.16061 0.0906,0.10912 0.14876,0.0448 0.11186,-0.1236 z m -8.91791,-0.31368 c -0.0233,-0.20927 -1.05003,-0.36126 -1.05003,-0.15543 0,0.0513 0.028,0.0957 0.0622,0.0986 0.0342,0.003 0.10414,0.0228 0.15543,0.044 0.24965,0.10329 0.84349,0.11246 0.83243,0.0129 z m 8.93085,-0.003 c 0.0603,-0.0726 0.0621,-0.11335 0.008,-0.16787 -0.0545,-0.0545 -0.072,-0.0518 -0.072,0.0113 0,0.0458 -0.049,0.12046 -0.1088,0.16588 -0.0966,0.0733 -0.0974,0.0828 -0.008,0.0846 0.0557,7.3e-4 0.137,-0.0412 0.18078,-0.0939 z m -2.86213,-0.8056 c 0,-0.0513 -0.011,-0.0933 -0.0245,-0.0933 -0.0134,0 -0.0405,0.0419 -0.0602,0.0933 -0.0197,0.0513 -0.009,0.0933 0.0244,0.0933 0.0331,0 0.0602,-0.042 0.0602,-0.0933 z m -14.3873,-0.20161 c -0.0431,-0.0431 -0.16108,0.0445 -0.16108,0.11963 0,0.0412 0.0357,0.0365 0.0948,-0.0126 0.0521,-0.0433 0.082,-0.0915 0.0663,-0.1071 z m 16.34125,-0.56088 c 0.0299,-0.32989 0.0748,-0.48911 0.16277,-0.57708 0.0743,-0.0743 0.1215,-0.20609 0.1215,-0.33909 0,-0.15199 0.0281,-0.21761 0.0932,-0.21761 0.10223,0 0.12842,-0.10154 0.0347,-0.13471 -0.0322,-0.0114 -0.0757,-0.34246 -0.0968,-0.73571 -0.0659,-1.23236 -0.0856,-1.43885 -0.14413,-1.51314 -0.0313,-0.0397 -0.072,-0.1422 -0.0904,-0.22769 -0.0521,-0.24216 -0.28579,-1.01198 -0.34906,-1.15019 -0.0313,-0.0684 -0.1321,-0.34816 -0.22399,-0.62173 -0.19922,-0.59306 -0.38979,-0.89998 -0.56035,-0.90246 -0.0699,-7.3e-4 -0.24325,-0.13737 -0.39578,-0.31128 -0.1493,-0.17022 -0.30059,-0.30948 -0.33621,-0.30948 -0.0356,0 -0.21102,-0.11284 -0.38978,-0.25075 -0.31451,-0.24264 -0.46261,-0.28375 -0.91438,-0.25383 -0.13236,0.009 -0.14687,0.13154 -0.0156,0.13154 0.0673,0 0.0933,0.0691 0.0933,0.24869 0,0.13678 0.0223,0.24869 0.0496,0.24869 0.0513,0 0.0573,0.0717 0.0878,1.03728 0.0169,0.53574 0.0293,0.58277 0.20098,0.76199 0.12523,0.13073 0.22334,0.18127 0.31086,0.16012 0.0704,-0.017 0.0918,-0.0145 0.0476,0.006 -0.0573,0.0261 -0.0333,0.08 0.0834,0.18826 0.13993,0.12969 0.15172,0.16613 0.0812,0.25111 -0.24759,0.29833 -0.7498,0.4698 -1.9495,0.66563 -0.27356,0.0446 -0.58057,0.12679 -0.68225,0.18251 -0.10167,0.0557 -0.30253,0.11896 -0.44634,0.14052 -0.16418,0.0246 -0.25098,0.0666 -0.23327,0.11273 0.0158,0.0412 -0.0312,0.078 -0.10693,0.0837 -0.17211,0.0129 -0.24249,0.0845 -0.26708,0.27157 -0.0108,0.082 -0.0341,0.19103 -0.0519,0.24232 -0.18428,0.53363 -0.18344,0.87917 0.003,1.16732 0.0632,0.0977 0.12823,0.12981 0.21014,0.10382 0.0717,-0.0228 0.25933,0.0355 0.47437,0.14745 0.34864,0.18144 0.86172,0.3571 0.96697,0.33104 0.0292,-0.007 0.0878,0.0156 0.13007,0.0507 0.0423,0.0351 0.0946,0.046 0.1163,0.0244 0.0217,-0.0217 0.0762,-0.009 0.12117,0.0284 0.18627,0.15459 0.64022,0.19983 0.98678,0.0984 0.18334,-0.0537 0.35992,-0.12305 0.39241,-0.15413 0.0937,-0.0897 0.25558,-0.0659 0.35624,0.0523 0.15515,0.18224 0.26643,0.77792 0.17666,0.94565 -0.0493,0.0921 -0.0519,0.12702 -0.008,0.0996 0.0441,-0.0273 0.0684,0.0265 0.0684,0.1516 0,0.27004 0.0926,0.18473 0.18376,-0.16937 0.0421,-0.16331 0.10056,-0.35288 0.13,-0.42127 0.0881,-0.20471 0.17137,-0.58988 0.25196,-1.16604 0.0759,-0.54231 0.12283,-0.63638 0.15528,-0.31091 0.0931,0.93365 0.1415,1.32058 0.17137,1.36891 0.0195,0.0315 0.1204,0.0522 0.22432,0.046 0.1344,-0.008 0.1902,0.0173 0.19331,0.0876 0.003,0.0734 0.0183,0.0668 0.0587,-0.0256 0.0396,-0.0907 0.0527,-0.0398 0.0484,0.18826 -0.003,0.17195 0.0275,0.41359 0.0681,0.53698 0.0682,0.20671 0.0855,0.21896 0.21963,0.15567 0.12653,-0.0597 0.15099,-0.12836 0.18687,-0.52429 z m -4.34759,-1.67003 c -0.13678,-0.0526 -0.31078,-0.11041 -0.38668,-0.12851 -0.15249,-0.0364 -0.30474,-0.18777 -0.24693,-0.24558 0.0203,-0.0203 0.17485,0.0127 0.34343,0.0733 0.30127,0.10834 0.31018,0.10796 0.52092,-0.0222 0.11791,-0.0728 0.26748,-0.23108 0.33237,-0.35157 0.0649,-0.12049 0.1354,-0.21907 0.15668,-0.21907 0.11963,0 0.55475,0.39043 0.55475,0.49776 0,0.0682 0.028,0.12396 0.0622,0.12396 0.11335,0 0.0644,0.17792 -0.076,0.27626 -0.18146,0.1271 -0.92548,0.12458 -1.26069,-0.004 z m 0.54641,-1.26376 -0.17337,-0.0962 0.22111,-0.0186 c 0.24933,-0.0209 0.55604,0.0753 0.55604,0.17442 0,0.0937 -0.39842,0.0544 -0.60378,-0.0596 z m 6.08879,1.66185 c -0.0741,-0.0741 -0.15606,-0.11337 -0.18214,-0.0873 -0.0261,0.0261 0.0217,0.0996 0.10615,0.16327 0.1987,0.14988 0.25028,0.0983 0.076,-0.076 z m -19.78026,-0.29704 c 0.0317,0 0.0577,-0.1289 0.0577,-0.28643 0,-0.22907 -0.0187,-0.27927 -0.0933,-0.25065 -0.0728,0.028 -0.0933,-0.0161 -0.0933,-0.2014 0,-0.28882 0.16751,-0.64992 0.28124,-0.60628 0.0448,0.0172 0.0981,-0.012 0.11845,-0.065 0.03,-0.0781 0.004,-0.0881 -0.1344,-0.0532 -0.36254,0.091 -0.51763,0.37438 -0.53804,0.98314 -0.0111,0.33109 0.009,0.46573 0.0823,0.54034 0.0793,0.0811 0.11224,0.0847 0.1793,0.0195 0.0452,-0.044 0.10814,-0.0799 0.13989,-0.0799 z m -0.52281,-0.5751 c -0.0173,-0.0427 -0.0314,-0.008 -0.0314,0.0777 0,0.0855 0.0141,0.12046 0.0314,0.0777 0.0172,-0.0427 0.0172,-0.11269 0,-0.15543 z m 0.58054,-0.10881 c 0,-0.0342 -0.0123,-0.0622 -0.0274,-0.0622 -0.015,0 -0.0447,0.028 -0.0659,0.0622 -0.0212,0.0342 -0.009,0.0622 0.0274,0.0622 0.0362,0 0.0659,-0.028 0.0659,-0.0622 z m -0.0197,-0.26034 c -0.0198,-0.0496 -0.0346,-0.0349 -0.0376,0.0376 -0.003,0.0656 0.012,0.10226 0.0327,0.0816 0.0206,-0.0206 0.0228,-0.0743 0.005,-0.11917 z m 8.17844,-0.11841 c -0.0465,-0.0414 -1.76973,-0.18302 -1.80665,-0.14851 -0.0443,0.0414 0.41262,0.21637 0.76622,0.29337 0.31669,0.0689 0.42606,0.0672 0.72912,-0.0118 0.19609,-0.0511 0.33618,-0.11099 0.31131,-0.1331 z m 0.57129,-0.36156 c 0.0648,-0.0715 0.16707,-0.1301 0.22737,-0.1301 0.21456,0 0.30582,-0.0782 0.37013,-0.317 0.0714,-0.26538 2.5e-4,-0.49125 -0.15494,-0.49125 -0.0477,0 -0.0964,-0.0629 -0.10809,-0.13989 -0.0118,-0.0769 -0.0565,-0.13263 -0.0993,-0.12376 -0.0429,0.009 -0.0942,-0.0261 -0.11397,-0.0777 -0.0198,-0.0516 -0.0906,-0.0938 -0.15737,-0.0938 -0.0731,0 -0.10441,-0.0275 -0.0787,-0.0691 0.051,-0.0826 -0.2706,-0.36074 -0.42083,-0.36392 -0.0582,-10e-4 -0.13423,-0.0512 -0.16908,-0.11103 -0.0512,-0.0879 -0.0637,-0.0638 -0.0653,0.12553 -10e-4,0.22296 -0.0102,0.23252 -0.17287,0.19691 -0.094,-0.0206 -0.31086,-0.0964 -0.48183,-0.1685 -0.34269,-0.14449 -0.90054,-0.17328 -1.56987,-0.081 l -0.38857,0.0535 v -0.21981 c 0,-0.23613 -0.0883,-0.30933 -0.30487,-0.25269 -0.0999,0.0261 -0.13034,0.0831 -0.13034,0.24443 0,0.19458 0.0147,0.21036 0.19615,0.21036 0.19244,0 0.19402,0.002 0.0832,0.12476 -0.0621,0.0687 -0.14338,0.12003 -0.18061,0.11422 -0.15395,-0.024 -0.39996,0.0903 -0.42839,0.19904 -0.0209,0.0797 0.0328,0.16494 0.16967,0.26931 0.1833,0.1398 0.22536,0.14731 0.49867,0.089 0.22481,-0.0479 0.30999,-0.045 0.34514,0.0118 0.0333,0.054 0.0588,0.0559 0.0892,0.007 0.0786,-0.1271 0.15428,-0.0704 0.21968,0.16434 0.0992,0.35614 0.25441,0.51703 0.534,0.5536 0.33545,0.0439 0.58311,-0.0636 0.66862,-0.29013 0.0386,-0.10233 0.12403,-0.20314 0.18978,-0.22401 0.19906,-0.0632 0.58244,0.10483 0.89457,0.39202 0.24147,0.22217 0.27824,0.28243 0.20195,0.33101 -0.0513,0.0327 -0.14421,0.0598 -0.2065,0.0604 -0.0946,7.3e-4 -0.0995,0.0146 -0.03,0.0842 0.18822,0.18821 0.35289,0.16594 0.57321,-0.0775 z m -1.5491,-1.1686 c -0.17097,-0.0521 -0.57665,-0.11248 -0.9015,-0.13426 l -0.59064,-0.0396 0.18159,-0.12292 c 0.28715,-0.19435 0.94555,-0.20859 1.32338,-0.0286 0.32655,0.15554 0.63272,0.36914 0.5291,0.36914 -0.036,0 -0.10273,0.0115 -0.14827,0.0255 -0.0455,0.014 -0.22268,-0.0171 -0.39366,-0.0692 z m 12.52778,0.3546 c 0,-0.0342 -0.028,-0.0622 -0.0622,-0.0622 -0.0342,0 -0.0622,0.028 -0.0622,0.0622 0,0.0342 0.028,0.0622 0.0622,0.0622 0.0342,0 0.0622,-0.028 0.0622,-0.0622 z m 0.18651,-0.24869 c 0,-0.0342 -0.028,-0.0622 -0.0622,-0.0622 -0.0342,0 -0.0622,0.028 -0.0622,0.0622 0,0.0342 0.028,0.0622 0.0622,0.0622 0.0342,0 0.0622,-0.028 0.0622,-0.0622 z m -14.79707,-2.11468 c 0,-0.0794 -0.0605,-0.117 -0.2176,-0.13533 -0.17516,-0.0205 -0.21761,-0.004 -0.21761,0.0829 0,0.15608 0.24794,0.31775 0.35326,0.23035 0.0451,-0.0374 0.082,-0.11748 0.082,-0.17795 z m 9.45023,-1.51874 c 0,-0.0151 -0.028,-0.0447 -0.0622,-0.0659 -0.0342,-0.0212 -0.0622,-0.009 -0.0622,0.0274 0,0.0362 0.028,0.0659 0.0622,0.0659 0.0342,0 0.0622,-0.0123 0.0622,-0.0274 z"
       id="path3410"
       inkscape:connector-curvature="0" />
    <path
       style="fill:#000000;stroke-width:0.06217256"
       d="m 21.421181,292.08616 c 1.50817,-0.14205 2.160241,-0.4976 3.668411,-2.00024 0.768089,-0.76528 1.75599,-1.90351 1.97212,-2.27224 0.19682,-0.33577 0.63858,-1.40725 0.63985,-1.55193 5.02e-4,-0.0597 0.0268,-0.14938 0.0584,-0.19932 0.0491,-0.0777 0.0759,-0.0741 0.18557,0.0252 0.1495,0.1353 0.15856,0.0864 0.0618,-0.33339 -0.0939,-0.40727 -0.0161,-0.53009 0.129609,-0.20466 0.0651,0.14538 0.102461,0.3057 0.0831,0.35628 -0.0271,0.0706 0.0166,0.0919 0.188971,0.0919 h 0.224259 v -0.30326 c 0,-0.1927 0.0338,-0.33125 0.0926,-0.38007 0.0509,-0.0423 0.0778,-0.10068 0.0599,-0.12983 -0.018,-0.0292 0.0216,-0.15953 0.088,-0.28972 0.0731,-0.14321 0.10797,-0.3037 0.0884,-0.40626 -0.0427,-0.22306 0.0574,-0.21745 0.30273,0.017 0.107351,0.10258 0.208601,0.18651 0.224991,0.18651 0.0615,0 -0.0572,-0.5267 -0.12889,-0.57228 -0.0556,-0.0353 -0.0531,-0.0478 0.01,-0.0485 0.10814,-10e-4 0.043,-0.29087 -0.104841,-0.46618 -0.0982,-0.11649 -0.0979,-0.11857 0.007,-0.0377 0.16204,0.1256 0.18936,0.0504 0.0801,-0.22082 -0.0826,-0.20506 -0.0831,-0.22235 -0.004,-0.11918 0.0681,0.0883 0.0941,0.0967 0.0972,0.0311 0.002,-0.0521 0.0319,-0.0323 0.0705,0.0476 0.0775,0.16042 0.530331,0.4909 0.590381,0.43084 0.0226,-0.0226 -0.0156,-0.11768 -0.0847,-0.2113 -0.287701,-0.38914 -0.319051,-0.51334 -0.251821,-0.99779 0.0436,-0.31424 0.0428,-0.52056 -0.002,-0.66836 -0.036,-0.11759 -0.0421,-0.21381 -0.0134,-0.21381 0.0287,0 0.0699,0.056 0.0916,0.12435 0.0626,0.19734 0.155441,0.1445 0.155441,-0.0885 0,-0.13631 -0.0559,-0.27924 -0.155441,-0.39755 -0.0855,-0.1016 -0.155429,-0.20425 -0.155429,-0.22811 0,-0.0239 -0.0576,-0.11654 -0.12786,-0.20594 -0.14641,-0.18613 -0.1311,-0.30227 0.10587,-0.80319 0.12469,-0.26357 0.18516,-0.32841 0.306281,-0.32841 0.21369,0 0.20263,-0.25721 -0.02,-0.46659 -0.156181,-0.14683 -0.161561,-0.16616 -0.0622,-0.22321 0.0599,-0.0344 0.11101,-0.138 0.11371,-0.23033 0.003,-0.0924 0.019,-0.13292 0.0363,-0.0902 0.0475,0.11782 0.14535,0.0929 0.14535,-0.037 0,-0.0631 -0.056,-0.16535 -0.12435,-0.22724 -0.15676,-0.14187 -0.16188,-0.24207 -0.008,-0.1598 0.16149,0.0864 0.18607,0.038 0.11692,-0.23014 -0.0405,-0.15722 -0.0378,-0.2876 0.008,-0.40527 0.0597,-0.15185 0.0844,-0.16478 0.19845,-0.10376 0.16006,0.0857 0.21934,0.0438 0.09,-0.0634 -0.0997,-0.0828 -0.12984,-0.24993 -0.045,-0.24993 0.0274,0 0.0828,0.0331 0.12331,0.0736 0.11919,0.11918 0.16513,0.004 0.0722,-0.18211 -0.0472,-0.0942 -0.096,-0.19224 -0.10855,-0.21791 -0.0125,-0.0257 0.0257,-0.0281 0.0849,-0.005 0.0894,0.0343 0.10229,0.0133 0.076,-0.1243 -0.0347,-0.18119 0.006,-0.20767 0.13364,-0.0879 0.0679,0.0635 0.0771,0.055 0.0506,-0.0466 -0.0178,-0.0684 -0.0545,-0.17816 -0.0814,-0.24394 -0.0392,-0.0958 -0.0282,-0.11164 0.0551,-0.0797 0.0749,0.0288 0.10406,0.007 0.10406,-0.0788 0,-0.0653 -0.0299,-0.13719 -0.0664,-0.15977 -0.0365,-0.0225 -0.0498,-0.0844 -0.0294,-0.13739 0.0212,-0.0551 -0.017,-0.14661 -0.089,-0.21374 -0.16897,-0.15742 -0.17308,-0.32863 -0.006,-0.23908 0.18512,0.0991 0.22119,0.0769 0.0974,-0.06 -0.1028,-0.1136 -0.10347,-0.12435 -0.008,-0.12435 0.0576,0 0.12012,0.0398 0.13879,0.0885 0.0474,0.12367 0.21084,0.1765 0.21084,0.0681 0,-0.0485 -0.1259,-0.22144 -0.27977,-0.38434 -0.34044,-0.36039 -0.35862,-0.45207 -0.0477,-0.24082 0.33555,0.22801 0.45649,0.20142 0.21537,-0.0474 -0.1093,-0.11276 -0.19872,-0.24777 -0.19872,-0.30002 0,-0.0523 -0.0702,-0.16096 -0.156,-0.24156 -0.0858,-0.0806 -0.20978,-0.23771 -0.27552,-0.34913 l -0.11952,-0.20257 0.29106,0.22105 c 0.16009,0.12158 0.30039,0.24583 0.31179,0.27612 0.0114,0.0302 0.07,0.0551 0.13025,0.0551 0.0602,0 0.16017,0.056 0.22206,0.12434 0.0619,0.0684 0.15681,0.12435 0.21093,0.12435 0.085,0 -0.41313,-0.5128 -1.19767,-1.23296 -0.25655,-0.2355 -0.30288,-0.38627 -0.0722,-0.23517 0.0843,0.0553 0.28018,0.17128 0.4352,0.25783 0.22615,0.12626 0.28186,0.13853 0.28186,0.0621 0,-0.0524 -0.0237,-0.0953 -0.0526,-0.0953 -0.0289,0 -0.11549,-0.0545 -0.19227,-0.12108 -0.0768,-0.0666 -0.16854,-0.13072 -0.2039,-0.14251 -0.0354,-0.0118 -0.0678,-0.0774 -0.072,-0.14583 -0.004,-0.0684 -0.1056,-0.21746 -0.22528,-0.33119 -0.21193,-0.20139 -0.21274,-0.20393 -0.0311,-0.0979 0.10259,0.0599 0.24947,0.16602 0.32641,0.23584 0.0769,0.0698 0.1397,0.1011 0.13948,0.0695 -6.8e-4,-0.0952 -0.20536,-0.37091 -0.40371,-0.54379 -0.14496,-0.12634 -0.16228,-0.163 -0.0777,-0.16452 0.0599,-7.4e-4 0.1599,0.0491 0.22236,0.11158 0.11671,0.11672 0.22928,0.17314 0.51965,0.26045 0.13135,0.0395 0.15973,0.0315 0.13323,-0.0376 -0.0185,-0.0482 -0.0683,-0.0878 -0.11064,-0.0878 -0.0424,0 -0.12761,-0.0559 -0.1895,-0.12435 -0.0619,-0.0684 -0.13677,-0.12434 -0.1664,-0.12434 -0.1072,0 -0.54858,-0.3294 -0.54858,-0.4094 0,-0.0451 -0.12507,-0.16805 -0.27792,-0.27322 -0.36296,-0.24972 -0.6128,-0.58351 -0.62537,-0.83551 -0.0105,-0.20982 -0.46973,-0.9066 -0.59756,-0.9066 -0.0402,0 -0.0515,-0.0615 -0.0283,-0.15418 0.0303,-0.12087 -0.002,-0.19065 -0.15088,-0.32309 -0.10427,-0.0929 -0.27544,-0.30844 -0.38037,-0.47898 -0.27755,-0.45108 -0.83353,-0.9712 -1.29697,-1.21332 -0.22227,-0.11611 -0.41811,-0.23083 -0.43521,-0.25492 -0.0171,-0.0241 -0.0967,-0.0784 -0.17689,-0.12063 -0.12356,-0.0651 -0.13982,-0.1087 -0.10661,-0.28572 0.0316,-0.1685 0.0155,-0.22157 -0.0832,-0.27443 -0.17308,-0.0926 -0.25498,-0.0815 -0.25498,0.0348 0,0.0841 -0.0466,0.0933 -0.28848,0.0571 -0.18878,-0.0283 -0.30326,-0.0194 -0.33123,0.0259 -0.0303,0.049 -0.0955,0.0416 -0.22444,-0.0256 -0.19794,-0.10322 -0.48992,-0.12967 -0.43408,-0.0394 0.0431,0.0698 -0.49588,-0.13229 -0.902,-0.33809 -0.16639,-0.0843 -0.35586,-0.1533 -0.42104,-0.1533 -0.0652,0 -0.24366,-0.0554 -0.39662,-0.12302 -0.30302,-0.13404 -0.91235,-0.28623 -1.354181,-0.33821 -0.15388,-0.0181 -0.587531,-0.0686 -0.963681,-0.11225 -0.94273,-0.10936 -1.869279,-0.0887 -2.180489,0.0485 -0.152,0.067 -0.37337,0.10323 -0.58618,0.0958 -0.18808,-0.007 -0.57977,0.0452 -0.87043,0.11489 -0.29065,0.0698 -0.6321,0.12704 -0.75876,0.12728 -0.16205,3.1e-4 -0.38886,0.0917 -0.76528,0.30827 -0.29423,0.16931 -0.58558,0.3239 -0.64745,0.34354 -0.0619,0.0196 -0.16248,0.0909 -0.22358,0.15846 -0.10039,0.11093 -0.10118,0.12276 -0.008,0.12276 0.0566,0 0.10272,0.021 0.1025,0.0466 -4.23e-4,0.0549 -0.17798,0.15975 -1.05654,0.62392 -0.35905,0.18969 -0.74966,0.39619 -0.86802,0.4589 -0.11836,0.0627 -0.27224,0.11499 -0.34195,0.1162 -0.0697,0.001 -0.19669,0.0437 -0.282171,0.0944 -0.15202,0.0901 -0.1493,0.0919 0.124351,0.0787 0.28582,-0.0137 0.91633,-0.2015 1.02273,-0.30455 0.0325,-0.0315 0.0807,-0.0572 0.10712,-0.0572 0.0737,0 -0.31279,0.34451 -0.69465,0.61924 -0.45563,0.32779 -0.559341,0.43247 -0.658911,0.6651 -0.078,0.18223 -0.213259,0.31706 -0.500089,0.49849 -0.10471,0.0662 -0.0962,0.0772 0.0904,0.11736 l 0.20597,0.0443 -0.19249,0.1986 c -0.12069,0.12452 -0.17836,0.23541 -0.15461,0.29729 0.0569,0.14836 -0.15431,0.43509 -0.29369,0.39864 -0.20149,-0.0527 -0.29961,0.12235 -0.29961,0.53449 v 0.38029 l -0.37504,0.36133 c -0.2923705,0.28167 -0.3471905,0.36133 -0.2487005,0.36133 0.079,0 0.1262305,0.0408 0.1260105,0.10881 -7.41e-4,0.24117 -0.1338205,0.56505 -0.2759905,0.67181 -0.13319,0.10003 -0.1393,0.12149 -0.0526,0.18487 0.089,0.0651 0.0877,0.10465 -0.0135,0.42642 -0.0614,0.1951 -0.17104,0.40239 -0.24372,0.46063 -0.0727,0.0582 -0.19811,0.20382 -0.27873,0.32351 -0.0806,0.11968 -0.21976,0.28041 -0.30919,0.35718 l -0.1626,0.13958 0.15854,3.2e-4 c 0.0872,1.9e-4 0.19211,-0.0333 0.23315,-0.0743 0.058,-0.058 0.0746,-0.0454 0.0746,0.057 0,0.0724 0.035,0.14635 0.0777,0.16437 0.0493,0.0208 -0.0246,0.12722 -0.20207,0.29111 -0.17347,0.16018 -0.25025,0.26978 -0.20206,0.28846 0.13245,0.0513 0.0857,0.20633 -0.0815,0.26987 -0.0875,0.0333 -0.14209,0.0882 -0.12121,0.12195 0.0209,0.0338 -0.0621,0.14931 -0.18445,0.25671 -0.16544,0.14525 -0.21232,0.22712 -0.183,0.31951 0.023,0.0727 0.0147,0.10891 -0.0203,0.0873 -0.0804,-0.0497 -0.28779,0.10753 -0.25753,0.19523 0.0311,0.09 0.6205,-0.27225 0.59917,-0.36831 -0.009,-0.0384 0.0264,-0.0825 0.0777,-0.0979 0.0829,-0.025 0.0829,-0.0207 0,0.0379 -0.079,0.0559 -0.0742,0.0673 0.0311,0.0743 0.0684,0.004 0.15687,0.004 0.19663,-5e-4 0.0805,-0.01 0.0421,0.22394 -0.0578,0.35161 -0.0432,0.0552 -0.0316,0.0777 0.0401,0.0777 0.0554,0 0.10087,0.028 0.10087,0.0622 0,0.0342 -0.0516,0.0622 -0.11471,0.0622 -0.0631,0 -0.16124,0.0514 -0.21811,0.11426 -0.0965,0.10667 -0.0961,0.12062 0.006,0.21025 0.0601,0.0528 0.17226,0.11518 0.2492,0.13863 0.16564,0.0505 0.17626,0.14116 0.0394,0.33652 -0.0739,0.10553 -0.0821,0.16174 -0.0311,0.21278 0.0993,0.0993 0.0856,0.17116 -0.0246,0.12888 -0.0659,-0.0253 -0.083,-0.007 -0.0573,0.0595 0.0232,0.0605 -0.0225,0.13435 -0.12473,0.2013 -0.11572,0.0758 -0.14364,0.12713 -0.0987,0.18133 0.0345,0.0416 0.042,0.0972 0.0166,0.12374 -0.0253,0.0265 0.0437,0.0289 0.153391,0.005 l 0.19948,-0.0427 -0.0952,0.19089 c -0.0523,0.10499 -0.13349,0.19089 -0.18026,0.19089 -0.0892,0 -0.18696,0.11265 -0.13923,0.16039 0.0153,0.0153 0.12998,-0.0149 0.25492,-0.0671 0.124929,-0.0522 0.22714,-0.0796 0.22714,-0.0609 0,0.0187 -0.0979,0.13191 -0.2176,0.2516 -0.25459,0.25458 -0.291741,0.40514 -0.0538,0.21797 0.21895,-0.17223 0.28356,-0.16237 0.25998,0.0396 -0.0165,0.14119 -0.0599,0.17683 -0.2673,0.21964 -0.35305,0.0728 -0.390881,0.14784 -0.0982,0.19464 0.138911,0.0222 0.252561,0.0507 0.252561,0.0631 0,0.13113 -0.20973,0.46472 -0.3084,0.49053 -0.0698,0.0182 -0.12681,0.0637 -0.12681,0.10115 0,0.12917 0.13564,0.0673 0.32761,-0.14961 0.10596,-0.11968 0.215479,-0.2176 0.24339,-0.2176 0.114619,0 0.0363,0.15343 -0.19796,0.38766 -0.13678,0.13677 -0.24869,0.27337 -0.24869,0.30355 0,0.0538 0.12637,0.0785 0.31086,0.0605 0.0736,-0.007 0.0703,0.009 -0.0156,0.0772 -0.0599,0.0474 -0.10881,0.10416 -0.10881,0.12604 0,0.0654 0.42468,0.0449 0.4663,-0.0224 0.0212,-0.0342 0.0654,-0.0622 0.0984,-0.0622 0.12325,0 -0.15121,0.31391 -0.30805,0.35235 -0.17043,0.0418 -0.47526,0.32013 -0.41574,0.37965 0.0189,0.0189 0.10794,6.9e-4 0.19799,-0.0403 0.27557,-0.12556 0.23487,-0.0311 -0.0811,0.1883 -0.25853,0.17947 -0.28086,0.21073 -0.16264,0.22755 0.14145,0.0201 0.46312,-0.1746 0.64756,-0.392 0.10064,-0.11863 0.1101,-0.11921 0.22638,-0.014 0.13237,0.11979 0.12154,0.41148 -0.0184,0.49449 -0.0425,0.0252 -0.0955,0.11852 -0.11778,0.20735 -0.0223,0.0888 -0.0927,0.21757 -0.15656,0.28605 -0.0638,0.0685 -0.13122,0.18501 -0.14982,0.25894 -0.0335,0.13304 -0.0328,0.13314 0.0635,0.0101 0.0636,-0.0813 0.10699,-0.0987 0.12527,-0.0502 0.0153,0.0408 0.0684,0.0587 0.11792,0.0397 0.0631,-0.0242 0.0785,-0.004 0.0515,0.0657 -0.0256,0.0665 -0.005,0.10018 0.0615,0.10018 0.0549,0 0.0999,0.05 0.0999,0.1112 0,0.16458 -0.22445,0.5751 -0.37029,0.67725 -0.14797,0.10364 -0.17446,0.28276 -0.0339,0.22879 0.0513,-0.0197 0.0933,-0.003 0.0933,0.0372 0,0.0438 0.0479,0.0578 0.11994,0.035 0.0958,-0.0304 0.12523,-0.003 0.14612,0.1357 0.0257,0.17058 0.0264,0.17018 0.0355,-0.0217 0.005,-0.10945 0.0504,-0.21116 0.10257,-0.2312 0.10356,-0.0397 0.12905,0.0552 0.0311,0.11574 -0.0342,0.0211 -0.0622,0.0623 -0.0622,0.0914 0,0.0949 0.15511,0.0333 0.31246,-0.12411 l 0.1538405,-0.15384 0.0203,0.17766 c 0.028,0.24525 -0.0919,0.5054 -0.3289605,0.71355 -0.21982,0.19301 -0.38258,0.66333 -0.17316,0.50038 0.0599,-0.0466 0.20099,-0.17922 0.31371,-0.29483 0.1127105,-0.11562 0.2227605,-0.1924 0.2445405,-0.17061 0.0218,0.0218 0.007,0.0727 -0.034,0.11317 -0.1193003,0.1193 -0.0889,0.2974 0.0507,0.2974 0.15947,0 0.16356,0.18171 0.009,0.38019 -0.0637,0.0815 -0.13773,0.21821 -0.16453,0.3037 -0.0454,0.14466 -0.0373,0.14189 0.1158,-0.0401 0.0905,-0.10753 0.165519,-0.23343 0.166729,-0.27979 10e-4,-0.0463 0.0411,-0.15422 0.0886,-0.23971 l 0.0864,-0.15543 0.0737,0.18651 c 0.09,0.22781 0.0908,0.47903 0.002,0.64484 -0.15683,0.29306 0.0473,0.26318 0.36,-0.0527 0.20946,-0.21156 0.25572,-0.23394 0.32101,-0.15527 0.0449,0.054 0.0609,0.16871 0.039,0.27827 -0.0233,0.11647 -0.0117,0.18636 0.031,0.18636 0.0452,0 0.048,0.0262 0.008,0.0777 -0.033,0.0427 -0.0783,0.12851 -0.10048,0.19059 -0.0327,0.0916 -0.0167,0.10535 0.0852,0.073 0.12498,-0.0396 0.12496,-0.0388 -0.003,0.18943 -0.18446,0.32841 -0.12923,0.37258 0.15247,0.12194 0.13444,-0.11962 0.309299,-0.21749 0.38858,-0.21749 0.0793,0 0.14523,-0.0349 0.14657,-0.0777 10e-4,-0.0427 0.0422,0.0138 0.0908,0.12565 0.0486,0.11185 0.0724,0.24497 0.0529,0.2958 -0.0195,0.0508 -0.0165,0.19326 0.007,0.31652 l 0.0421,0.2241 0.14969,-0.14063 c 0.14325,-0.13457 0.15149,-0.13554 0.19184,-0.0225 0.0232,0.065 0.0755,0.16008 0.11632,0.21138 0.1483,0.18648 0.28945,0.63712 0.221,0.70557 -0.0958,0.0958 -0.0797,0.22701 0.0279,0.22701 0.0703,0 0.0933,0.0756 0.0933,0.30719 0,0.35246 0.0944,0.46799 0.15543,0.19019 0.0533,-0.24287 0.15543,-0.17921 0.15543,0.0969 0,0.11766 0.0316,0.21393 0.0701,0.21393 0.0476,0 0.0566,-0.0842 0.0283,-0.26189 -0.0231,-0.14405 -0.0222,-0.24221 0.002,-0.21815 0.0241,0.0241 0.0795,0.0141 0.12321,-0.0222 0.0562,-0.0467 0.11848,-0.0451 0.21311,0.006 0.21235,0.11365 0.2148,0.0241 0.005,-0.18108 -0.21015,-0.20543 -0.2452,-0.38267 -0.0996,-0.50354 0.0513,-0.0426 0.0937,-0.053 0.0942,-0.0231 7.41e-4,0.0615 0.12097,-0.10934 0.12244,-0.17446 5.03e-4,-0.0232 -0.0414,-0.0846 -0.0932,-0.13636 -0.0832,-0.0831 -0.0836,-0.12478 -0.004,-0.35557 0.0729,-0.21163 0.0791,-0.40467 0.0325,-1.01383 -0.0316,-0.41384 -0.0713,-0.83637 -0.0881,-0.93896 -0.0168,-0.10258 -0.007,-0.22432 0.0226,-0.27052 0.038,-0.0601 0.15692,0.0831 0.41863,0.50457 0.58217,0.93753 1.27001,1.82951 2.10012,2.7234 0.20858,0.22461 0.61704,0.66992 0.90769,0.98959 0.99127,1.09023 1.905439,1.93343 2.130589,1.96522 0.0763,0.0108 0.25062,0.0616 0.3874,0.11294 0.27187,0.10205 0.90695,0.11355 1.771921,0.0321 z m -2.6254,-2.22295 c -0.0489,-0.0489 -0.0507,-0.0729 -0.006,-0.0729 0.0371,0 0.082,-0.056 0.0999,-0.12435 0.0191,-0.0729 0.0848,-0.12434 0.15901,-0.12434 0.0696,0 0.1438,-0.028 0.16493,-0.0622 0.0211,-0.0342 0.0857,-0.0626 0.14355,-0.0632 0.20799,-0.002 0.29036,-0.11254 0.29356,-0.39434 l 0.003,-0.27624 -0.49504,0.0104 c -0.3295,0.007 -0.5036,0.036 -0.52062,0.0871 -0.0168,0.0505 -0.1673,0.0771 -0.44006,0.0777 -0.51511,10e-4 -0.60024,0.0506 -0.58094,0.33713 0.011,0.16392 -0.01,0.22146 -0.0803,0.22146 -0.0524,0 -0.0952,-0.0291 -0.0952,-0.0648 0,-0.0356 -0.0531,-0.12178 -0.11801,-0.19145 -0.14646,-0.15721 -0.19396,-0.44807 -0.10307,-0.63123 0.0587,-0.11824 0.13255,-0.14293 0.50706,-0.16949 0.30293,-0.0214 0.47192,-0.0647 0.54694,-0.13988 0.0597,-0.0598 0.13721,-0.10881 0.17223,-0.10881 0.035,0 0.14001,-0.0543 0.2333,-0.12078 0.15503,-0.1104 0.19062,-0.1133 0.41372,-0.0338 0.3541,0.12615 0.57973,0.11161 0.79778,-0.0514 0.1795,-0.1342 0.2278,-0.14078 0.72086,-0.0982 0.92182,0.0796 1.38756,0.0659 1.54686,-0.0457 0.11166,-0.0782 0.23664,-0.0939 0.54901,-0.0688 0.72596,0.0583 0.7343,0.36361 0.0109,0.39947 -0.20284,0.0101 -0.43281,0.0602 -0.51105,0.11149 -0.0782,0.0512 -0.25244,0.088 -0.38714,0.0816 -0.29546,-0.014 -1.16517,0.11325 -1.31717,0.19276 -0.0599,0.0314 -0.22957,0.0892 -0.37692,0.12859 -0.24851,0.0664 -0.26651,0.0853 -0.24868,0.26071 0.021,0.20683 0.0905,0.2425 0.89785,0.46105 0.22043,0.0597 0.41683,0.13445 0.43644,0.16618 0.0771,0.12477 -0.11864,0.19781 -0.49988,0.1865 -0.32697,-0.01 -0.41469,0.01 -0.50902,0.11424 -0.10291,0.11371 -0.17328,0.12363 -0.72472,0.10218 -0.35268,-0.0137 -0.64154,-0.0546 -0.68363,-0.0966 z m 0.20213,-3.36528 c -0.1976,-0.0682 -0.37776,-0.0967 -0.42931,-0.0678 -0.1689,0.0945 -0.93995,-0.19051 -0.93995,-0.34748 0,-0.15336 0.27974,-0.23717 0.49458,-0.14818 0.10413,0.0431 0.18932,0.10078 0.18932,0.1281 0,0.0273 0.18713,0.0698 0.41584,0.0942 0.27125,0.0291 0.45909,0.0848 0.54019,0.16039 0.0684,0.0637 0.16447,0.11584 0.2135,0.11584 0.0722,0 0.0744,0.0178 0.0117,0.0933 -0.0949,0.11432 -0.0802,0.11516 -0.49592,-0.0283 z m -8.259659,-0.34189 c 0.014,-0.0639 0.0482,-0.0754 0.10959,-0.037 0.0766,0.0479 0.0769,0.0707 0.002,0.16061 -0.0906,0.10912 -0.14876,0.0448 -0.11186,-0.1236 z m 8.917909,-0.31368 c 0.0233,-0.20927 1.05003,-0.36126 1.05003,-0.15543 0,0.0513 -0.028,0.0957 -0.0622,0.0986 -0.0342,0.003 -0.10414,0.0228 -0.15543,0.044 -0.24965,0.10329 -0.84349,0.11246 -0.83243,0.0129 z m -8.930849,-0.003 c -0.0603,-0.0726 -0.0621,-0.11335 -0.008,-0.16787 0.0545,-0.0545 0.072,-0.0518 0.072,0.0113 0,0.0458 0.049,0.12046 0.1088,0.16588 0.0966,0.0733 0.0974,0.0828 0.008,0.0846 -0.0557,7.5e-4 -0.137,-0.0412 -0.18078,-0.0939 z m 2.862129,-0.8056 c 0,-0.0513 0.011,-0.0933 0.0245,-0.0933 0.0134,0 0.0405,0.0419 0.0602,0.0933 0.0197,0.0513 0.009,0.0933 -0.0244,0.0933 -0.0331,0 -0.0602,-0.042 -0.0602,-0.0933 z m 14.387301,-0.20161 c 0.0431,-0.0431 0.161079,0.0445 0.161079,0.11963 0,0.0412 -0.0357,0.0365 -0.0948,-0.0126 -0.0521,-0.0433 -0.082,-0.0915 -0.0663,-0.1071 z m -16.341251,-0.56088 c -0.0299,-0.32989 -0.0748,-0.48911 -0.162769,-0.57708 -0.0743,-0.0743 -0.1215,-0.20609 -0.1215,-0.33909 0,-0.15199 -0.0281,-0.21761 -0.0932,-0.21761 -0.10223,0 -0.12842,-0.10154 -0.0347,-0.13471 0.0322,-0.0114 0.0757,-0.34246 0.0968,-0.73571 0.0659,-1.23236 0.0856,-1.43885 0.14413,-1.51314 0.0313,-0.0397 0.072,-0.1422 0.0904,-0.22769 0.0521,-0.24216 0.285789,-1.01198 0.349059,-1.15019 0.0313,-0.0684 0.1321,-0.34816 0.22399,-0.62173 0.19922,-0.59306 0.38979,-0.89998 0.56035,-0.90246 0.0699,-7.4e-4 0.24325,-0.13737 0.39578,-0.31128 0.1493,-0.17022 0.30059,-0.30948 0.33621,-0.30948 0.0356,0 0.21102,-0.11284 0.38978,-0.25075 0.31451,-0.24264 0.46261,-0.28375 0.91438,-0.25383 0.13236,0.009 0.14687,0.13154 0.0156,0.13154 -0.0673,0 -0.0933,0.0691 -0.0933,0.24869 0,0.13678 -0.0223,0.24869 -0.0496,0.24869 -0.0513,0 -0.0573,0.0717 -0.0878,1.03728 -0.0169,0.53574 -0.0293,0.58277 -0.20098,0.76199 -0.12523,0.13073 -0.22334,0.18127 -0.31086,0.16012 -0.0704,-0.017 -0.0918,-0.0145 -0.0476,0.006 0.0573,0.0261 0.0333,0.08 -0.0834,0.18826 -0.13993,0.12969 -0.15172,0.16613 -0.0812,0.25111 0.24759,0.29832 0.7498,0.4698 1.9495,0.66563 0.27356,0.0446 0.58057,0.12678 0.68225,0.1825 0.10167,0.0557 0.30253,0.11897 0.44634,0.14053 0.16418,0.0246 0.25098,0.0666 0.23327,0.11273 -0.0158,0.0412 0.0312,0.078 0.10693,0.0837 0.17211,0.0129 0.24249,0.0845 0.26708,0.27158 0.0108,0.082 0.0341,0.19103 0.0519,0.24232 0.18428,0.53363 0.18344,0.87917 -0.003,1.16732 -0.0632,0.0977 -0.12823,0.1298 -0.210141,0.10381 -0.0717,-0.0228 -0.259329,0.0355 -0.474369,0.14746 -0.348641,0.18143 -0.861721,0.3571 -0.96697,0.33104 -0.0292,-0.007 -0.0878,0.0156 -0.13007,0.0507 -0.0423,0.0351 -0.0946,0.046 -0.1163,0.0244 -0.0217,-0.0217 -0.0762,-0.009 -0.12117,0.0284 -0.18627,0.15459 -0.640221,0.19983 -0.986781,0.0984 -0.183339,-0.0537 -0.359919,-0.12306 -0.392409,-0.15413 -0.0937,-0.0897 -0.25558,-0.0659 -0.35624,0.0523 -0.155151,0.18224 -0.266431,0.77792 -0.17666,0.94565 0.0493,0.0921 0.0519,0.12702 0.008,0.0996 -0.0441,-0.0273 -0.0684,0.0265 -0.0684,0.15159 0,0.27005 -0.0926,0.18474 -0.18376,-0.16936 -0.0421,-0.16331 -0.10056,-0.35288 -0.13,-0.42128 -0.0881,-0.2047 -0.17137,-0.58987 -0.25196,-1.16603 -0.0759,-0.54232 -0.122831,-0.63638 -0.15528,-0.31091 -0.0931,0.93365 -0.1415,1.32058 -0.17137,1.36891 -0.0195,0.0315 -0.1204,0.0522 -0.22432,0.046 -0.1344,-0.008 -0.1902,0.0173 -0.19331,0.0876 -0.003,0.0734 -0.0183,0.0668 -0.0587,-0.0256 -0.0396,-0.0907 -0.0527,-0.0398 -0.0484,0.18826 0.003,0.17195 -0.0275,0.41359 -0.0681,0.53698 -0.0682,0.20671 -0.0855,0.21896 -0.21963,0.15567 -0.12653,-0.0597 -0.15099,-0.12836 -0.18687,-0.52429 z m 4.34759,-1.67003 c 0.13678,-0.0526 0.31078,-0.11041 0.38668,-0.12851 0.15249,-0.0364 0.30474,-0.18777 0.24693,-0.24558 -0.0203,-0.0203 -0.17485,0.0127 -0.34343,0.0733 -0.30127,0.10834 -0.31018,0.10796 -0.52092,-0.0222 -0.11791,-0.0728 -0.26748,-0.23108 -0.33237,-0.35157 -0.0649,-0.12049 -0.1354,-0.21907 -0.15668,-0.21907 -0.11963,0 -0.55475,0.39043 -0.55475,0.49776 0,0.0682 -0.028,0.12396 -0.0622,0.12396 -0.11335,0 -0.0644,0.17792 0.076,0.27626 0.18146,0.1271 0.92548,0.12458 1.26069,-0.004 z m -0.54641,-1.26376 0.17337,-0.0962 -0.22111,-0.0186 c -0.24933,-0.0209 -0.55604,0.0753 -0.55604,0.17442 0,0.0937 0.39842,0.0544 0.60378,-0.0596 z m -6.0887895,1.66185 c 0.0741,-0.0741 0.15606,-0.11337 0.18214,-0.0873 0.0261,0.0261 -0.0217,0.0996 -0.10615,0.16327 -0.1987,0.14988 -0.25028,0.0983 -0.076,-0.076 z m 19.7802605,-0.29704 c -0.0317,0 -0.0577,-0.1289 -0.0577,-0.28643 0,-0.22907 0.0187,-0.27927 0.0933,-0.25065 0.0728,0.028 0.0933,-0.0161 0.0933,-0.2014 0,-0.28882 -0.16751,-0.64992 -0.28124,-0.60628 -0.0448,0.0172 -0.0981,-0.012 -0.11845,-0.065 -0.03,-0.0781 -0.004,-0.0881 0.1344,-0.0532 0.36254,0.091 0.51763,0.37438 0.53804,0.98314 0.0111,0.33109 -0.009,0.46573 -0.0823,0.54034 -0.0793,0.0811 -0.112241,0.0847 -0.1793,0.0195 -0.0452,-0.044 -0.10814,-0.0799 -0.13989,-0.0799 z m 0.52281,-0.5751 c 0.0173,-0.0427 0.0314,-0.008 0.0314,0.0777 0,0.0855 -0.0141,0.12046 -0.0314,0.0777 -0.0172,-0.0427 -0.0172,-0.11269 0,-0.15543 z m -0.58054,-0.10881 c 0,-0.0342 0.0123,-0.0622 0.0274,-0.0622 0.015,0 0.0447,0.028 0.0659,0.0622 0.0212,0.0342 0.009,0.0622 -0.0274,0.0622 -0.0362,0 -0.0659,-0.028 -0.0659,-0.0622 z m 0.0197,-0.26034 c 0.0198,-0.0496 0.0346,-0.0349 0.0376,0.0376 0.003,0.0656 -0.012,0.10226 -0.0327,0.0816 -0.0206,-0.0206 -0.0228,-0.0743 -0.005,-0.11917 z m -8.178441,-0.11841 c 0.0465,-0.0414 1.76973,-0.18302 1.806651,-0.14851 0.0443,0.0414 -0.41262,0.21637 -0.76622,0.29337 -0.316691,0.0689 -0.426061,0.0672 -0.729121,-0.0118 -0.19609,-0.0511 -0.33618,-0.11099 -0.31131,-0.1331 z m -0.57129,-0.36156 c -0.0648,-0.0715 -0.16707,-0.1301 -0.22737,-0.1301 -0.21456,0 -0.30582,-0.0782 -0.37013,-0.317 -0.0714,-0.26538 -2.5e-4,-0.49125 0.15494,-0.49125 0.0477,0 0.0964,-0.0629 0.10809,-0.13989 0.0118,-0.0769 0.0565,-0.13263 0.0993,-0.12376 0.0429,0.009 0.0942,-0.0261 0.11397,-0.0777 0.0198,-0.0516 0.0906,-0.0938 0.15737,-0.0938 0.0731,0 0.10441,-0.0275 0.0787,-0.0691 -0.051,-0.0826 0.2706,-0.36074 0.42083,-0.36392 0.0582,-10e-4 0.13423,-0.0512 0.16908,-0.11103 0.0512,-0.0879 0.0637,-0.0638 0.0653,0.12553 0.001,0.22296 0.0102,0.23252 0.17287,0.19691 0.094,-0.0206 0.31086,-0.0964 0.481831,-0.1685 0.342689,-0.14449 0.90054,-0.17328 1.56987,-0.081 l 0.38857,0.0535 v -0.21981 c 0,-0.23613 0.0883,-0.30933 0.30487,-0.25269 0.0999,0.0261 0.130339,0.0831 0.130339,0.24443 0,0.19458 -0.0147,0.21036 -0.196149,0.21036 -0.19244,0 -0.19402,0.002 -0.0832,0.12476 0.0621,0.0687 0.14338,0.12003 0.18061,0.11422 0.15395,-0.024 0.39996,0.0903 0.42839,0.19904 0.0209,0.0797 -0.0328,0.16494 -0.16967,0.26931 -0.1833,0.1398 -0.22536,0.14731 -0.49867,0.089 -0.22481,-0.0479 -0.30999,-0.045 -0.34514,0.0118 -0.0333,0.054 -0.0588,0.0559 -0.0892,0.007 -0.0786,-0.1271 -0.15428,-0.0704 -0.21968,0.16434 -0.0992,0.35614 -0.25441,0.51703 -0.534,0.5536 -0.33545,0.0439 -0.58311,-0.0636 -0.66862,-0.29013 -0.0386,-0.10233 -0.12403,-0.20314 -0.18978,-0.22401 -0.19906,-0.0632 -0.582441,0.10483 -0.894571,0.39202 -0.24147,0.22217 -0.27824,0.28243 -0.20195,0.33101 0.0513,0.0327 0.14421,0.0598 0.2065,0.0604 0.0946,7.4e-4 0.0995,0.0146 0.03,0.0842 -0.18822,0.18821 -0.35289,0.16594 -0.57321,-0.0775 z m 1.549101,-1.1686 c 0.17097,-0.0521 0.57665,-0.11248 0.9015,-0.13426 l 0.590639,-0.0396 -0.181589,-0.12292 c -0.287151,-0.19435 -0.94555,-0.20859 -1.32338,-0.0286 -0.32655,0.15554 -0.632721,0.36914 -0.529101,0.36914 0.036,0 0.10273,0.0115 0.14827,0.0255 0.0455,0.014 0.22268,-0.0171 0.393661,-0.0692 z m -12.5277805,0.3546 c 0,-0.0342 0.028,-0.0622 0.0622,-0.0622 0.0342,0 0.0622,0.028 0.0622,0.0622 0,0.0342 -0.028,0.0622 -0.0622,0.0622 -0.0342,0 -0.0622,-0.028 -0.0622,-0.0622 z m -0.18651,-0.24869 c 0,-0.0342 0.028,-0.0622 0.0622,-0.0622 0.0342,0 0.0622,0.028 0.0622,0.0622 0,0.0342 -0.028,0.0622 -0.0622,0.0622 -0.0342,0 -0.0622,-0.028 -0.0622,-0.0622 z M 23.970261,278.1007 c 0,-0.0794 0.0605,-0.117 0.217601,-0.13533 0.17516,-0.0205 0.21761,-0.004 0.21761,0.0829 0,0.15608 -0.24794,0.31775 -0.35326,0.23035 -0.0451,-0.0374 -0.082,-0.11748 -0.082,-0.17795 z m -9.45023,-1.51874 c 0,-0.0151 0.028,-0.0447 0.0622,-0.0659 0.0342,-0.0212 0.0622,-0.009 0.0622,0.0274 0,0.0362 -0.028,0.0659 -0.0622,0.0659 -0.0342,0 -0.0622,-0.0123 -0.0622,-0.0274 z"
       id="path3410-6"
       inkscape:connector-curvature="0" />
    <text
       id="text2733-6-2-2-1-6"
       y="263.22571"
       x="4.2520041"
       style="font-style:normal;font-variant:normal;font-weight:normal;font-stretch:normal;font-size:10.58333302px;line-height:1.25;font-family:'TeX Gyre Cursor';-inkscape-font-specification:'TeX Gyre Cursor';letter-spacing:0px;word-spacing:0px;fill:#000000;fill-opacity:1;stroke:none;stroke-width:0.26458332"
       xml:space="preserve"><tspan
         style="font-style:normal;font-variant:normal;font-weight:bold;font-stretch:normal;font-size:11.28888893px;line-height:0;font-family:'TeX Gyre Cursor';-inkscape-font-specification:'TeX Gyre Cursor Bold';letter-spacing:0.66145831px;word-spacing:-3.96875px;stroke-width:0.26458332"
         y="263.22571"
         x="4.2520041"
         id="tspan2731-1-0-3-89-4"
         sodipodi:role="line">SALTY PHASER</tspan></text>
  </g>
  <style
     type="text/css"
     id="style10089">
	.st0{fill:#000000;}
</style>
  <style
     type="text/css"
     id="style10180">
	.st0{fill:#000000;}
</style>
  <style
     type="text/css"
     id="style22092">
	.st0{fill:#000000;}
</style>
</svg>
